<?xml version="1.0" encoding="utf-8" standalone="no"?>
<!DOCTYPE svg PUBLIC "-//W3C//DTD SVG 1.1//EN"
  "http://www.w3.org/Graphics/SVG/1.1/DTD/svg11.dtd">
<!-- Created with matplotlib (https://matplotlib.org/) -->
<svg height="648pt" version="1.1" viewBox="0 0 504 648" width="504pt" xmlns="http://www.w3.org/2000/svg" xmlns:xlink="http://www.w3.org/1999/xlink">
 <metadata>
  <rdf:RDF xmlns:cc="http://creativecommons.org/ns#" xmlns:dc="http://purl.org/dc/elements/1.1/" xmlns:rdf="http://www.w3.org/1999/02/22-rdf-syntax-ns#">
   <cc:Work>
    <dc:type rdf:resource="http://purl.org/dc/dcmitype/StillImage"/>
    <dc:date>2023-05-24T16:24:12.163260</dc:date>
    <dc:format>image/svg+xml</dc:format>
    <dc:creator>
     <cc:Agent>
      <dc:title>Matplotlib v3.3.4, https://matplotlib.org/</dc:title>
     </cc:Agent>
    </dc:creator>
   </cc:Work>
  </rdf:RDF>
 </metadata>
 <defs>
  <style type="text/css">*{stroke-linecap:butt;stroke-linejoin:round;}</style>
 </defs>
 <g id="figure_1">
  <g id="patch_1">
   <path d="M 0 648 
L 504 648 
L 504 0 
L 0 0 
z
" style="fill:#ffffff;"/>
  </g>
  <g id="axes_1">
   <g id="patch_2">
    <path d="M 63 576.72 
L 453.6 576.72 
L 453.6 77.76 
L 63 77.76 
z
" style="fill:#ffffff;"/>
   </g>
   <g id="PathCollection_1">
    <path clip-path="url(#p269f733554)" d="M 262.04908 313.204697 
C 263.924349 313.204697 265.723064 312.459644 267.04908 311.133629 
C 268.375095 309.807613 269.120148 308.008898 269.120148 306.133629 
C 269.120148 304.25836 268.375095 302.459644 267.04908 301.133629 
C 265.723064 299.807613 263.924349 299.062561 262.04908 299.062561 
C 260.173811 299.062561 258.375095 299.807613 257.04908 301.133629 
C 255.723064 302.459644 254.978012 304.25836 254.978012 306.133629 
C 254.978012 308.008898 255.723064 309.807613 257.04908 311.133629 
C 258.375095 312.459644 260.173811 313.204697 262.04908 313.204697 
z
" style="fill:#2f4f4f;stroke:#2f4f4f;"/>
    <path clip-path="url(#p269f733554)" d="M 269.584768 251.542363 
C 271.208799 251.542363 272.766532 250.897129 273.914895 249.748766 
C 275.063258 248.600403 275.708492 247.04267 275.708492 245.418639 
C 275.708492 243.794608 275.063258 242.236875 273.914895 241.088512 
C 272.766532 239.940149 271.208799 239.294915 269.584768 239.294915 
C 267.960737 239.294915 266.403004 239.940149 265.254641 241.088512 
C 264.106278 242.236875 263.461044 243.794608 263.461044 245.418639 
C 263.461044 247.04267 264.106278 248.600403 265.254641 249.748766 
C 266.403004 250.897129 267.960737 251.542363 269.584768 251.542363 
z
" style="fill:#556b2f;stroke:#556b2f;"/>
    <path clip-path="url(#p269f733554)" d="M 256.444286 230.624233 
C 258.741012 230.624233 260.943979 229.711734 262.56801 228.087703 
C 264.192041 226.463672 265.10454 224.260705 265.10454 221.963979 
C 265.10454 219.667252 264.192041 217.464285 262.56801 215.840254 
C 260.943979 214.216224 258.741012 213.303725 256.444286 213.303725 
C 254.14756 213.303725 251.944592 214.216224 250.320561 215.840254 
C 248.696531 217.464285 247.784032 219.667252 247.784032 221.963979 
C 247.784032 224.260705 248.696531 226.463672 250.320561 228.087703 
C 251.944592 229.711734 254.14756 230.624233 256.444286 230.624233 
z
" style="fill:#8b4513;stroke:#8b4513;"/>
    <path clip-path="url(#p269f733554)" d="M 243.783577 301.553597 
C 245.407607 301.553597 246.965341 300.908362 248.113704 299.759999 
C 249.262067 298.611636 249.907301 297.053903 249.907301 295.429872 
C 249.907301 293.805842 249.262067 292.248108 248.113704 291.099745 
C 246.965341 289.951382 245.407607 289.306148 243.783577 289.306148 
C 242.159546 289.306148 240.601813 289.951382 239.45345 291.099745 
C 238.305087 292.248108 237.659852 293.805842 237.659852 295.429872 
C 237.659852 297.053903 238.305087 298.611636 239.45345 299.759999 
C 240.601813 300.908362 242.159546 301.553597 243.783577 301.553597 
z
" style="fill:#2e8b57;stroke:#2e8b57;"/>
    <path clip-path="url(#p269f733554)" d="M 279.680126 257.684973 
C 281.776741 257.684973 283.787766 256.851979 285.270296 255.369449 
C 286.752826 253.886918 287.58582 251.875893 287.58582 249.779279 
C 287.58582 247.682664 286.752826 245.671639 285.270296 244.189109 
C 283.787766 242.706578 281.776741 241.873585 279.680126 241.873585 
C 277.583512 241.873585 275.572487 242.706578 274.089956 244.189109 
C 272.607426 245.671639 271.774432 247.682664 271.774432 249.779279 
C 271.774432 251.875893 272.607426 253.886918 274.089956 255.369449 
C 275.572487 256.851979 277.583512 257.684973 279.680126 257.684973 
z
" style="fill:#228b22;stroke:#228b22;"/>
    <path clip-path="url(#p269f733554)" d="M 216.583738 342.958895 
C 218.207768 342.958895 219.765502 342.313661 220.913865 341.165298 
C 222.062228 340.016935 222.707462 338.459202 222.707462 336.835171 
C 222.707462 335.21114 222.062228 333.653407 220.913865 332.505044 
C 219.765502 331.356681 218.207768 330.711447 216.583738 330.711447 
C 214.959707 330.711447 213.401974 331.356681 212.253611 332.505044 
C 211.105248 333.653407 210.460013 335.21114 210.460013 336.835171 
C 210.460013 338.459202 211.105248 340.016935 212.253611 341.165298 
C 213.401974 342.313661 214.959707 342.958895 216.583738 342.958895 
z
" style="fill:#708090;stroke:#708090;"/>
    <path clip-path="url(#p269f733554)" d="M 264.176665 310.59103 
C 266.051934 310.59103 267.850649 309.845978 269.176665 308.519962 
C 270.50268 307.193947 271.247733 305.395232 271.247733 303.519962 
C 271.247733 301.644693 270.50268 299.845978 269.176665 298.519962 
C 267.850649 297.193947 266.051934 296.448895 264.176665 296.448895 
C 262.301396 296.448895 260.50268 297.193947 259.176665 298.519962 
C 257.850649 299.845978 257.105597 301.644693 257.105597 303.519962 
C 257.105597 305.395232 257.850649 307.193947 259.176665 308.519962 
C 260.50268 309.845978 262.301396 310.59103 264.176665 310.59103 
z
" style="fill:#8b0000;stroke:#8b0000;"/>
    <path clip-path="url(#p269f733554)" d="M 224.381372 253.670794 
C 226.005402 253.670794 227.563136 253.02556 228.711499 251.877197 
C 229.859862 250.728834 230.505096 249.171101 230.505096 247.54707 
C 230.505096 245.923039 229.859862 244.365306 228.711499 243.216943 
C 227.563136 242.06858 226.005402 241.423346 224.381372 241.423346 
C 222.757341 241.423346 221.199608 242.06858 220.051245 243.216943 
C 218.902882 244.365306 218.257647 245.923039 218.257647 247.54707 
C 218.257647 249.171101 218.902882 250.728834 220.051245 251.877197 
C 221.199608 253.02556 222.757341 253.670794 224.381372 253.670794 
z
" style="fill:#008080;stroke:#008080;"/>
    <path clip-path="url(#p269f733554)" d="M 251.223592 247.638938 
C 253.520318 247.638938 255.723286 246.726439 257.347316 245.102408 
C 258.971347 243.478378 259.883846 241.27541 259.883846 238.978684 
C 259.883846 236.681958 258.971347 234.47899 257.347316 232.85496 
C 255.723286 231.230929 253.520318 230.31843 251.223592 230.31843 
C 248.926866 230.31843 246.723898 231.230929 245.099868 232.85496 
C 243.475837 234.47899 242.563338 236.681958 242.563338 238.978684 
C 242.563338 241.27541 243.475837 243.478378 245.099868 245.102408 
C 246.723898 246.726439 248.926866 247.638938 251.223592 247.638938 
z
" style="fill:#4682b4;stroke:#4682b4;"/>
    <path clip-path="url(#p269f733554)" d="M 252.803801 231.77545 
C 254.427831 231.77545 255.985564 231.130216 257.133928 229.981853 
C 258.282291 228.83349 258.927525 227.275756 258.927525 225.651726 
C 258.927525 224.027695 258.282291 222.469962 257.133928 221.321599 
C 255.985564 220.173236 254.427831 219.528001 252.803801 219.528001 
C 251.17977 219.528001 249.622037 220.173236 248.473674 221.321599 
C 247.32531 222.469962 246.680076 224.027695 246.680076 225.651726 
C 246.680076 227.275756 247.32531 228.83349 248.473674 229.981853 
C 249.622037 231.130216 251.17977 231.77545 252.803801 231.77545 
z
" style="fill:#d2691e;stroke:#d2691e;"/>
    <path clip-path="url(#p269f733554)" d="M 257.144187 314.637345 
C 258.768218 314.637345 260.325951 313.992111 261.474314 312.843748 
C 262.622677 311.695385 263.267911 310.137651 263.267911 308.513621 
C 263.267911 306.88959 262.622677 305.331857 261.474314 304.183494 
C 260.325951 303.035131 258.768218 302.389896 257.144187 302.389896 
C 255.520156 302.389896 253.962423 303.035131 252.81406 304.183494 
C 251.665697 305.331857 251.020463 306.88959 251.020463 308.513621 
C 251.020463 310.137651 251.665697 311.695385 252.81406 312.843748 
C 253.962423 313.992111 255.520156 314.637345 257.144187 314.637345 
z
" style="fill:#9acd32;stroke:#9acd32;"/>
    <path clip-path="url(#p269f733554)" d="M 269.407277 301.824342 
C 270.733293 301.824342 272.005177 301.297511 272.942811 300.359876 
C 273.880446 299.422242 274.407277 298.150358 274.407277 296.824342 
C 274.407277 295.498327 273.880446 294.226443 272.942811 293.288808 
C 272.005177 292.351174 270.733293 291.824342 269.407277 291.824342 
C 268.081262 291.824342 266.809378 292.351174 265.871743 293.288808 
C 264.934109 294.226443 264.407277 295.498327 264.407277 296.824342 
C 264.407277 298.150358 264.934109 299.422242 265.871743 300.359876 
C 266.809378 301.297511 268.081262 301.824342 269.407277 301.824342 
z
" style="fill:#32cd32;stroke:#32cd32;"/>
    <path clip-path="url(#p269f733554)" d="M 252.914715 278.533345 
C 255.01133 278.533345 257.022355 277.700351 258.504885 276.217821 
C 259.987416 274.73529 260.82041 272.724265 260.82041 270.627651 
C 260.82041 268.531036 259.987416 266.520011 258.504885 265.037481 
C 257.022355 263.55495 255.01133 262.721957 252.914715 262.721957 
C 250.818101 262.721957 248.807076 263.55495 247.324546 265.037481 
C 245.842015 266.520011 245.009021 268.531036 245.009021 270.627651 
C 245.009021 272.724265 245.842015 274.73529 247.324546 276.217821 
C 248.807076 277.700351 250.818101 278.533345 252.914715 278.533345 
z
" style="fill:#8fbc8f;stroke:#8fbc8f;"/>
    <path clip-path="url(#p269f733554)" d="M 270.148793 275.36008 
C 272.024062 275.36008 273.822778 274.615028 275.148793 273.289012 
C 276.474809 271.962997 277.219861 270.164281 277.219861 268.289012 
C 277.219861 266.413743 276.474809 264.615028 275.148793 263.289012 
C 273.822778 261.962997 272.024062 261.217944 270.148793 261.217944 
C 268.273524 261.217944 266.474809 261.962997 265.148793 263.289012 
C 263.822778 264.615028 263.077725 266.413743 263.077725 268.289012 
C 263.077725 270.164281 263.822778 271.962997 265.148793 273.289012 
C 266.474809 274.615028 268.273524 275.36008 270.148793 275.36008 
z
" style="fill:#800080;stroke:#800080;"/>
    <path clip-path="url(#p269f733554)" d="M 261.313716 277.171598 
C 263.610443 277.171598 265.81341 276.259099 267.437441 274.635068 
C 269.061471 273.011037 269.97397 270.80807 269.97397 268.511344 
C 269.97397 266.214617 269.061471 264.01165 267.437441 262.387619 
C 265.81341 260.763589 263.610443 259.85109 261.313716 259.85109 
C 259.01699 259.85109 256.814023 260.763589 255.189992 262.387619 
C 253.565961 264.01165 252.653462 266.214617 252.653462 268.511344 
C 252.653462 270.80807 253.565961 273.011037 255.189992 274.635068 
C 256.814023 276.259099 259.01699 277.171598 261.313716 277.171598 
z
" style="fill:#9932cc;stroke:#9932cc;"/>
    <path clip-path="url(#p269f733554)" d="M 247.162855 319.971575 
C 248.48887 319.971575 249.760754 319.444744 250.698389 318.507109 
C 251.636023 317.569475 252.162855 316.297591 252.162855 314.971575 
C 252.162855 313.64556 251.636023 312.373676 250.698389 311.436041 
C 249.760754 310.498407 248.48887 309.971575 247.162855 309.971575 
C 245.836839 309.971575 244.564956 310.498407 243.627321 311.436041 
C 242.689686 312.373676 242.162855 313.64556 242.162855 314.971575 
C 242.162855 316.297591 242.689686 317.569475 243.627321 318.507109 
C 244.564956 319.444744 245.836839 319.971575 247.162855 319.971575 
z
" style="fill:#ff4500;stroke:#ff4500;"/>
    <path clip-path="url(#p269f733554)" d="M 273.965573 251.905703 
C 275.589604 251.905703 277.147337 251.260469 278.2957 250.112106 
C 279.444063 248.963743 280.089297 247.40601 280.089297 245.781979 
C 280.089297 244.157948 279.444063 242.600215 278.2957 241.451852 
C 277.147337 240.303489 275.589604 239.658254 273.965573 239.658254 
C 272.341542 239.658254 270.783809 240.303489 269.635446 241.451852 
C 268.487083 242.600215 267.841849 244.157948 267.841849 245.781979 
C 267.841849 247.40601 268.487083 248.963743 269.635446 250.112106 
C 270.783809 251.260469 272.341542 251.905703 273.965573 251.905703 
z
" style="fill:#00ced1;stroke:#00ced1;"/>
    <path clip-path="url(#p269f733554)" d="M 258.718803 317.225933 
C 260.815418 317.225933 262.826443 316.392939 264.308973 314.910408 
C 265.791503 313.427878 266.624497 311.416853 266.624497 309.320239 
C 266.624497 307.223624 265.791503 305.212599 264.308973 303.730069 
C 262.826443 302.247538 260.815418 301.414544 258.718803 301.414544 
C 256.622188 301.414544 254.611163 302.247538 253.128633 303.730069 
C 251.646103 305.212599 250.813109 307.223624 250.813109 309.320239 
C 250.813109 311.416853 251.646103 313.427878 253.128633 314.910408 
C 254.611163 316.392939 256.622188 317.225933 258.718803 317.225933 
z
" style="fill:#ffd700;stroke:#ffd700;"/>
    <path clip-path="url(#p269f733554)" d="M 243.109513 342.836147 
C 244.435528 342.836147 245.707412 342.309316 246.645047 341.371681 
C 247.582681 340.434047 248.109513 339.162163 248.109513 337.836147 
C 248.109513 336.510132 247.582681 335.238248 246.645047 334.300614 
C 245.707412 333.362979 244.435528 332.836147 243.109513 332.836147 
C 241.783497 332.836147 240.511614 333.362979 239.573979 334.300614 
C 238.636345 335.238248 238.109513 336.510132 238.109513 337.836147 
C 238.109513 339.162163 238.636345 340.434047 239.573979 341.371681 
C 240.511614 342.309316 241.783497 342.836147 243.109513 342.836147 
z
" style="fill:#0000cd;stroke:#0000cd;"/>
    <path clip-path="url(#p269f733554)" d="M 270.094457 238.41322 
C 271.718488 238.41322 273.276221 237.767986 274.424584 236.619623 
C 275.572948 235.47126 276.218182 233.913526 276.218182 232.289496 
C 276.218182 230.665465 275.572948 229.107732 274.424584 227.959369 
C 273.276221 226.811006 271.718488 226.165771 270.094457 226.165771 
C 268.470427 226.165771 266.912694 226.811006 265.76433 227.959369 
C 264.615967 229.107732 263.970733 230.665465 263.970733 232.289496 
C 263.970733 233.913526 264.615967 235.47126 265.76433 236.619623 
C 266.912694 237.767986 268.470427 238.41322 270.094457 238.41322 
z
" style="fill:#deb887;stroke:#deb887;"/>
    <path clip-path="url(#p269f733554)" d="M 243.303935 308.836924 
C 244.629951 308.836924 245.901835 308.310093 246.839469 307.372458 
C 247.777104 306.434824 248.303935 305.16294 248.303935 303.836924 
C 248.303935 302.510909 247.777104 301.239025 246.839469 300.301391 
C 245.901835 299.363756 244.629951 298.836924 243.303935 298.836924 
C 241.97792 298.836924 240.706036 299.363756 239.768401 300.301391 
C 238.830767 301.239025 238.303935 302.510909 238.303935 303.836924 
C 238.303935 305.16294 238.830767 306.434824 239.768401 307.372458 
C 240.706036 308.310093 241.97792 308.836924 243.303935 308.836924 
z
" style="fill:#dc143c;stroke:#dc143c;"/>
    <path clip-path="url(#p269f733554)" d="M 266.388777 335.955853 
C 267.714792 335.955853 268.986676 335.429021 269.92431 334.491386 
C 270.861945 333.553752 271.388777 332.281868 271.388777 330.955853 
C 271.388777 329.629837 270.861945 328.357953 269.92431 327.420319 
C 268.986676 326.482684 267.714792 325.955853 266.388777 325.955853 
C 265.062761 325.955853 263.790877 326.482684 262.853243 327.420319 
C 261.915608 328.357953 261.388777 329.629837 261.388777 330.955853 
C 261.388777 332.281868 261.915608 333.553752 262.853243 334.491386 
C 263.790877 335.429021 265.062761 335.955853 266.388777 335.955853 
z
" style="fill:#00bfff;stroke:#00bfff;"/>
    <path clip-path="url(#p269f733554)" d="M 272.134739 295.728952 
C 273.75877 295.728952 275.316503 295.083718 276.464866 293.935355 
C 277.613229 292.786992 278.258464 291.229258 278.258464 289.605228 
C 278.258464 287.981197 277.613229 286.423464 276.464866 285.275101 
C 275.316503 284.126738 273.75877 283.481503 272.134739 283.481503 
C 270.510709 283.481503 268.952975 284.126738 267.804612 285.275101 
C 266.656249 286.423464 266.011015 287.981197 266.011015 289.605228 
C 266.011015 291.229258 266.656249 292.786992 267.804612 293.935355 
C 268.952975 295.083718 270.510709 295.728952 272.134739 295.728952 
z
" style="fill:#0000ff;stroke:#0000ff;"/>
    <path clip-path="url(#p269f733554)" d="M 236.439579 258.658148 
C 237.765595 258.658148 239.037478 258.131317 239.975113 257.193682 
C 240.912748 256.256048 241.439579 254.984164 241.439579 253.658148 
C 241.439579 252.332133 240.912748 251.060249 239.975113 250.122615 
C 239.037478 249.18498 237.765595 248.658148 236.439579 248.658148 
C 235.113564 248.658148 233.84168 249.18498 232.904045 250.122615 
C 231.966411 251.060249 231.439579 252.332133 231.439579 253.658148 
C 231.439579 254.984164 231.966411 256.256048 232.904045 257.193682 
C 233.84168 258.131317 235.113564 258.658148 236.439579 258.658148 
z
" style="fill:#a020f0;stroke:#a020f0;"/>
    <path clip-path="url(#p269f733554)" d="M 224.805705 335.056866 
C 226.131721 335.056866 227.403605 334.530034 228.341239 333.5924 
C 229.278874 332.654765 229.805705 331.382882 229.805705 330.056866 
C 229.805705 328.730851 229.278874 327.458967 228.341239 326.521332 
C 227.403605 325.583698 226.131721 325.056866 224.805705 325.056866 
C 223.47969 325.056866 222.207806 325.583698 221.270171 326.521332 
C 220.332537 327.458967 219.805705 328.730851 219.805705 330.056866 
C 219.805705 331.382882 220.332537 332.654765 221.270171 333.5924 
C 222.207806 334.530034 223.47969 335.056866 224.805705 335.056866 
z
" style="fill:#ff6347;stroke:#ff6347;"/>
    <path clip-path="url(#p269f733554)" d="M 266.728079 254.004227 
C 268.054095 254.004227 269.325979 253.477395 270.263613 252.539761 
C 271.201248 251.602126 271.728079 250.330242 271.728079 249.004227 
C 271.728079 247.678211 271.201248 246.406328 270.263613 245.468693 
C 269.325979 244.531059 268.054095 244.004227 266.728079 244.004227 
C 265.402064 244.004227 264.13018 244.531059 263.192545 245.468693 
C 262.254911 246.406328 261.728079 247.678211 261.728079 249.004227 
C 261.728079 250.330242 262.254911 251.602126 263.192545 252.539761 
C 264.13018 253.477395 265.402064 254.004227 266.728079 254.004227 
z
" style="fill:#ff00ff;stroke:#ff00ff;"/>
    <path clip-path="url(#p269f733554)" d="M 262.808886 292.241154 
C 264.134901 292.241154 265.406785 291.714322 266.34442 290.776688 
C 267.282054 289.839053 267.808886 288.567169 267.808886 287.241154 
C 267.808886 285.915138 267.282054 284.643254 266.34442 283.70562 
C 265.406785 282.767985 264.134901 282.241154 262.808886 282.241154 
C 261.48287 282.241154 260.210986 282.767985 259.273352 283.70562 
C 258.335717 284.643254 257.808886 285.915138 257.808886 287.241154 
C 257.808886 288.567169 258.335717 289.839053 259.273352 290.776688 
C 260.210986 291.714322 261.48287 292.241154 262.808886 292.241154 
z
" style="fill:#f0e68c;stroke:#f0e68c;"/>
    <path clip-path="url(#p269f733554)" d="M 241.766227 251.477892 
C 243.641496 251.477892 245.440212 250.73284 246.766227 249.406824 
C 248.092243 248.080809 248.837295 246.282093 248.837295 244.406824 
C 248.837295 242.531555 248.092243 240.73284 246.766227 239.406824 
C 245.440212 238.080809 243.641496 237.335756 241.766227 237.335756 
C 239.890958 237.335756 238.092243 238.080809 236.766227 239.406824 
C 235.440212 240.73284 234.695159 242.531555 234.695159 244.406824 
C 234.695159 246.282093 235.440212 248.080809 236.766227 249.406824 
C 238.092243 250.73284 239.890958 251.477892 241.766227 251.477892 
z
" style="fill:#fa8072;stroke:#fa8072;"/>
    <path clip-path="url(#p269f733554)" d="M 245.908728 297.206318 
C 247.532759 297.206318 249.090492 296.561084 250.238855 295.412721 
C 251.387218 294.264358 252.032452 292.706625 252.032452 291.082594 
C 252.032452 289.458563 251.387218 287.90083 250.238855 286.752467 
C 249.090492 285.604104 247.532759 284.95887 245.908728 284.95887 
C 244.284697 284.95887 242.726964 285.604104 241.578601 286.752467 
C 240.430238 287.90083 239.785004 289.458563 239.785004 291.082594 
C 239.785004 292.706625 240.430238 294.264358 241.578601 295.412721 
C 242.726964 296.561084 244.284697 297.206318 245.908728 297.206318 
z
" style="fill:#ffff54;stroke:#ffff54;"/>
    <path clip-path="url(#p269f733554)" d="M 288.006176 230.219232 
C 289.332191 230.219232 290.604075 229.692401 291.54171 228.754766 
C 292.479344 227.817132 293.006176 226.545248 293.006176 225.219232 
C 293.006176 223.893217 292.479344 222.621333 291.54171 221.683699 
C 290.604075 220.746064 289.332191 220.219232 288.006176 220.219232 
C 286.68016 220.219232 285.408276 220.746064 284.470642 221.683699 
C 283.533007 222.621333 283.006176 223.893217 283.006176 225.219232 
C 283.006176 226.545248 283.533007 227.817132 284.470642 228.754766 
C 285.408276 229.692401 286.68016 230.219232 288.006176 230.219232 
z
" style="fill:#6495ed;stroke:#6495ed;"/>
    <path clip-path="url(#p269f733554)" d="M 254.476363 229.547438 
C 256.100394 229.547438 257.658127 228.902204 258.80649 227.753841 
C 259.954853 226.605478 260.600087 225.047744 260.600087 223.423714 
C 260.600087 221.799683 259.954853 220.24195 258.80649 219.093587 
C 257.658127 217.945224 256.100394 217.299989 254.476363 217.299989 
C 252.852332 217.299989 251.294599 217.945224 250.146236 219.093587 
C 248.997873 220.24195 248.352638 221.799683 248.352638 223.423714 
C 248.352638 225.047744 248.997873 226.605478 250.146236 227.753841 
C 251.294599 228.902204 252.852332 229.547438 254.476363 229.547438 
z
" style="fill:#7b68ee;stroke:#7b68ee;"/>
   </g>
   <g id="matplotlib.axis_1">
    <g id="xtick_1">
     <g id="line2d_1">
      <defs>
       <path d="M 0 0 
L 0 3.5 
" id="m6a55bcc5ac" style="stroke:#000000;stroke-width:0.8;"/>
      </defs>
      <g>
       <use style="stroke:#000000;stroke-width:0.8;" x="258.3" xlink:href="#m6a55bcc5ac" y="576.72"/>
      </g>
     </g>
     <g id="text_1">
      <!-- MeanPD -->
      <g transform="translate(237.811719 591.318438)scale(0.1 -0.1)">
       <defs>
        <path d="M 9.8125 72.90625 
L 24.515625 72.90625 
L 43.109375 23.296875 
L 61.8125 72.90625 
L 76.515625 72.90625 
L 76.515625 0 
L 66.890625 0 
L 66.890625 64.015625 
L 48.09375 14.015625 
L 38.1875 14.015625 
L 19.390625 64.015625 
L 19.390625 0 
L 9.8125 0 
z
" id="DejaVuSans-77"/>
        <path d="M 56.203125 29.59375 
L 56.203125 25.203125 
L 14.890625 25.203125 
Q 15.484375 15.921875 20.484375 11.0625 
Q 25.484375 6.203125 34.421875 6.203125 
Q 39.59375 6.203125 44.453125 7.46875 
Q 49.3125 8.734375 54.109375 11.28125 
L 54.109375 2.78125 
Q 49.265625 0.734375 44.1875 -0.34375 
Q 39.109375 -1.421875 33.890625 -1.421875 
Q 20.796875 -1.421875 13.15625 6.1875 
Q 5.515625 13.8125 5.515625 26.8125 
Q 5.515625 40.234375 12.765625 48.109375 
Q 20.015625 56 32.328125 56 
Q 43.359375 56 49.78125 48.890625 
Q 56.203125 41.796875 56.203125 29.59375 
z
M 47.21875 32.234375 
Q 47.125 39.59375 43.09375 43.984375 
Q 39.0625 48.390625 32.421875 48.390625 
Q 24.90625 48.390625 20.390625 44.140625 
Q 15.875 39.890625 15.1875 32.171875 
z
" id="DejaVuSans-101"/>
        <path d="M 34.28125 27.484375 
Q 23.390625 27.484375 19.1875 25 
Q 14.984375 22.515625 14.984375 16.5 
Q 14.984375 11.71875 18.140625 8.90625 
Q 21.296875 6.109375 26.703125 6.109375 
Q 34.1875 6.109375 38.703125 11.40625 
Q 43.21875 16.703125 43.21875 25.484375 
L 43.21875 27.484375 
z
M 52.203125 31.203125 
L 52.203125 0 
L 43.21875 0 
L 43.21875 8.296875 
Q 40.140625 3.328125 35.546875 0.953125 
Q 30.953125 -1.421875 24.3125 -1.421875 
Q 15.921875 -1.421875 10.953125 3.296875 
Q 6 8.015625 6 15.921875 
Q 6 25.140625 12.171875 29.828125 
Q 18.359375 34.515625 30.609375 34.515625 
L 43.21875 34.515625 
L 43.21875 35.40625 
Q 43.21875 41.609375 39.140625 45 
Q 35.0625 48.390625 27.6875 48.390625 
Q 23 48.390625 18.546875 47.265625 
Q 14.109375 46.140625 10.015625 43.890625 
L 10.015625 52.203125 
Q 14.9375 54.109375 19.578125 55.046875 
Q 24.21875 56 28.609375 56 
Q 40.484375 56 46.34375 49.84375 
Q 52.203125 43.703125 52.203125 31.203125 
z
" id="DejaVuSans-97"/>
        <path d="M 54.890625 33.015625 
L 54.890625 0 
L 45.90625 0 
L 45.90625 32.71875 
Q 45.90625 40.484375 42.875 44.328125 
Q 39.84375 48.1875 33.796875 48.1875 
Q 26.515625 48.1875 22.3125 43.546875 
Q 18.109375 38.921875 18.109375 30.90625 
L 18.109375 0 
L 9.078125 0 
L 9.078125 54.6875 
L 18.109375 54.6875 
L 18.109375 46.1875 
Q 21.34375 51.125 25.703125 53.5625 
Q 30.078125 56 35.796875 56 
Q 45.21875 56 50.046875 50.171875 
Q 54.890625 44.34375 54.890625 33.015625 
z
" id="DejaVuSans-110"/>
        <path d="M 19.671875 64.796875 
L 19.671875 37.40625 
L 32.078125 37.40625 
Q 38.96875 37.40625 42.71875 40.96875 
Q 46.484375 44.53125 46.484375 51.125 
Q 46.484375 57.671875 42.71875 61.234375 
Q 38.96875 64.796875 32.078125 64.796875 
z
M 9.8125 72.90625 
L 32.078125 72.90625 
Q 44.34375 72.90625 50.609375 67.359375 
Q 56.890625 61.8125 56.890625 51.125 
Q 56.890625 40.328125 50.609375 34.8125 
Q 44.34375 29.296875 32.078125 29.296875 
L 19.671875 29.296875 
L 19.671875 0 
L 9.8125 0 
z
" id="DejaVuSans-80"/>
        <path d="M 19.671875 64.796875 
L 19.671875 8.109375 
L 31.59375 8.109375 
Q 46.6875 8.109375 53.6875 14.9375 
Q 60.6875 21.78125 60.6875 36.53125 
Q 60.6875 51.171875 53.6875 57.984375 
Q 46.6875 64.796875 31.59375 64.796875 
z
M 9.8125 72.90625 
L 30.078125 72.90625 
Q 51.265625 72.90625 61.171875 64.09375 
Q 71.09375 55.28125 71.09375 36.53125 
Q 71.09375 17.671875 61.125 8.828125 
Q 51.171875 0 30.078125 0 
L 9.8125 0 
z
" id="DejaVuSans-68"/>
       </defs>
       <use xlink:href="#DejaVuSans-77"/>
       <use x="86.279297" xlink:href="#DejaVuSans-101"/>
       <use x="147.802734" xlink:href="#DejaVuSans-97"/>
       <use x="209.082031" xlink:href="#DejaVuSans-110"/>
       <use x="272.460938" xlink:href="#DejaVuSans-80"/>
       <use x="332.763672" xlink:href="#DejaVuSans-68"/>
      </g>
     </g>
    </g>
   </g>
   <g id="matplotlib.axis_2">
    <g id="ytick_1">
     <g id="line2d_2">
      <defs>
       <path d="M 0 0 
L -3.5 0 
" id="mb543b04c9d" style="stroke:#000000;stroke-width:0.8;"/>
      </defs>
      <g>
       <use style="stroke:#000000;stroke-width:0.8;" x="63" xlink:href="#mb543b04c9d" y="576.72"/>
      </g>
     </g>
     <g id="text_2">
      <!-- −3.5 -->
      <g transform="translate(31.717187 580.519219)scale(0.1 -0.1)">
       <defs>
        <path d="M 10.59375 35.5 
L 73.1875 35.5 
L 73.1875 27.203125 
L 10.59375 27.203125 
z
" id="DejaVuSans-8722"/>
        <path d="M 40.578125 39.3125 
Q 47.65625 37.796875 51.625 33 
Q 55.609375 28.21875 55.609375 21.1875 
Q 55.609375 10.40625 48.1875 4.484375 
Q 40.765625 -1.421875 27.09375 -1.421875 
Q 22.515625 -1.421875 17.65625 -0.515625 
Q 12.796875 0.390625 7.625 2.203125 
L 7.625 11.71875 
Q 11.71875 9.328125 16.59375 8.109375 
Q 21.484375 6.890625 26.8125 6.890625 
Q 36.078125 6.890625 40.9375 10.546875 
Q 45.796875 14.203125 45.796875 21.1875 
Q 45.796875 27.640625 41.28125 31.265625 
Q 36.765625 34.90625 28.71875 34.90625 
L 20.21875 34.90625 
L 20.21875 43.015625 
L 29.109375 43.015625 
Q 36.375 43.015625 40.234375 45.921875 
Q 44.09375 48.828125 44.09375 54.296875 
Q 44.09375 59.90625 40.109375 62.90625 
Q 36.140625 65.921875 28.71875 65.921875 
Q 24.65625 65.921875 20.015625 65.03125 
Q 15.375 64.15625 9.8125 62.3125 
L 9.8125 71.09375 
Q 15.4375 72.65625 20.34375 73.4375 
Q 25.25 74.21875 29.59375 74.21875 
Q 40.828125 74.21875 47.359375 69.109375 
Q 53.90625 64.015625 53.90625 55.328125 
Q 53.90625 49.265625 50.4375 45.09375 
Q 46.96875 40.921875 40.578125 39.3125 
z
" id="DejaVuSans-51"/>
        <path d="M 10.6875 12.40625 
L 21 12.40625 
L 21 0 
L 10.6875 0 
z
" id="DejaVuSans-46"/>
        <path d="M 10.796875 72.90625 
L 49.515625 72.90625 
L 49.515625 64.59375 
L 19.828125 64.59375 
L 19.828125 46.734375 
Q 21.96875 47.46875 24.109375 47.828125 
Q 26.265625 48.1875 28.421875 48.1875 
Q 40.625 48.1875 47.75 41.5 
Q 54.890625 34.8125 54.890625 23.390625 
Q 54.890625 11.625 47.5625 5.09375 
Q 40.234375 -1.421875 26.90625 -1.421875 
Q 22.3125 -1.421875 17.546875 -0.640625 
Q 12.796875 0.140625 7.71875 1.703125 
L 7.71875 11.625 
Q 12.109375 9.234375 16.796875 8.0625 
Q 21.484375 6.890625 26.703125 6.890625 
Q 35.15625 6.890625 40.078125 11.328125 
Q 45.015625 15.765625 45.015625 23.390625 
Q 45.015625 31 40.078125 35.4375 
Q 35.15625 39.890625 26.703125 39.890625 
Q 22.75 39.890625 18.8125 39.015625 
Q 14.890625 38.140625 10.796875 36.28125 
z
" id="DejaVuSans-53"/>
       </defs>
       <use xlink:href="#DejaVuSans-8722"/>
       <use x="83.789062" xlink:href="#DejaVuSans-51"/>
       <use x="147.412109" xlink:href="#DejaVuSans-46"/>
       <use x="179.199219" xlink:href="#DejaVuSans-53"/>
      </g>
     </g>
    </g>
    <g id="ytick_2">
     <g id="line2d_3">
      <g>
       <use style="stroke:#000000;stroke-width:0.8;" x="63" xlink:href="#mb543b04c9d" y="538.92"/>
      </g>
     </g>
     <g id="text_3">
      <!-- −3.0 -->
      <g transform="translate(31.717187 542.719219)scale(0.1 -0.1)">
       <defs>
        <path d="M 31.78125 66.40625 
Q 24.171875 66.40625 20.328125 58.90625 
Q 16.5 51.421875 16.5 36.375 
Q 16.5 21.390625 20.328125 13.890625 
Q 24.171875 6.390625 31.78125 6.390625 
Q 39.453125 6.390625 43.28125 13.890625 
Q 47.125 21.390625 47.125 36.375 
Q 47.125 51.421875 43.28125 58.90625 
Q 39.453125 66.40625 31.78125 66.40625 
z
M 31.78125 74.21875 
Q 44.046875 74.21875 50.515625 64.515625 
Q 56.984375 54.828125 56.984375 36.375 
Q 56.984375 17.96875 50.515625 8.265625 
Q 44.046875 -1.421875 31.78125 -1.421875 
Q 19.53125 -1.421875 13.0625 8.265625 
Q 6.59375 17.96875 6.59375 36.375 
Q 6.59375 54.828125 13.0625 64.515625 
Q 19.53125 74.21875 31.78125 74.21875 
z
" id="DejaVuSans-48"/>
       </defs>
       <use xlink:href="#DejaVuSans-8722"/>
       <use x="83.789062" xlink:href="#DejaVuSans-51"/>
       <use x="147.412109" xlink:href="#DejaVuSans-46"/>
       <use x="179.199219" xlink:href="#DejaVuSans-48"/>
      </g>
     </g>
    </g>
    <g id="ytick_3">
     <g id="line2d_4">
      <g>
       <use style="stroke:#000000;stroke-width:0.8;" x="63" xlink:href="#mb543b04c9d" y="501.12"/>
      </g>
     </g>
     <g id="text_4">
      <!-- −2.5 -->
      <g transform="translate(31.717187 504.919219)scale(0.1 -0.1)">
       <defs>
        <path d="M 19.1875 8.296875 
L 53.609375 8.296875 
L 53.609375 0 
L 7.328125 0 
L 7.328125 8.296875 
Q 12.9375 14.109375 22.625 23.890625 
Q 32.328125 33.6875 34.8125 36.53125 
Q 39.546875 41.84375 41.421875 45.53125 
Q 43.3125 49.21875 43.3125 52.78125 
Q 43.3125 58.59375 39.234375 62.25 
Q 35.15625 65.921875 28.609375 65.921875 
Q 23.96875 65.921875 18.8125 64.3125 
Q 13.671875 62.703125 7.8125 59.421875 
L 7.8125 69.390625 
Q 13.765625 71.78125 18.9375 73 
Q 24.125 74.21875 28.421875 74.21875 
Q 39.75 74.21875 46.484375 68.546875 
Q 53.21875 62.890625 53.21875 53.421875 
Q 53.21875 48.921875 51.53125 44.890625 
Q 49.859375 40.875 45.40625 35.40625 
Q 44.1875 33.984375 37.640625 27.21875 
Q 31.109375 20.453125 19.1875 8.296875 
z
" id="DejaVuSans-50"/>
       </defs>
       <use xlink:href="#DejaVuSans-8722"/>
       <use x="83.789062" xlink:href="#DejaVuSans-50"/>
       <use x="147.412109" xlink:href="#DejaVuSans-46"/>
       <use x="179.199219" xlink:href="#DejaVuSans-53"/>
      </g>
     </g>
    </g>
    <g id="ytick_4">
     <g id="line2d_5">
      <g>
       <use style="stroke:#000000;stroke-width:0.8;" x="63" xlink:href="#mb543b04c9d" y="463.32"/>
      </g>
     </g>
     <g id="text_5">
      <!-- −2.0 -->
      <g transform="translate(31.717187 467.119219)scale(0.1 -0.1)">
       <use xlink:href="#DejaVuSans-8722"/>
       <use x="83.789062" xlink:href="#DejaVuSans-50"/>
       <use x="147.412109" xlink:href="#DejaVuSans-46"/>
       <use x="179.199219" xlink:href="#DejaVuSans-48"/>
      </g>
     </g>
    </g>
    <g id="ytick_5">
     <g id="line2d_6">
      <g>
       <use style="stroke:#000000;stroke-width:0.8;" x="63" xlink:href="#mb543b04c9d" y="425.52"/>
      </g>
     </g>
     <g id="text_6">
      <!-- −1.5 -->
      <g transform="translate(31.717187 429.319219)scale(0.1 -0.1)">
       <defs>
        <path d="M 12.40625 8.296875 
L 28.515625 8.296875 
L 28.515625 63.921875 
L 10.984375 60.40625 
L 10.984375 69.390625 
L 28.421875 72.90625 
L 38.28125 72.90625 
L 38.28125 8.296875 
L 54.390625 8.296875 
L 54.390625 0 
L 12.40625 0 
z
" id="DejaVuSans-49"/>
       </defs>
       <use xlink:href="#DejaVuSans-8722"/>
       <use x="83.789062" xlink:href="#DejaVuSans-49"/>
       <use x="147.412109" xlink:href="#DejaVuSans-46"/>
       <use x="179.199219" xlink:href="#DejaVuSans-53"/>
      </g>
     </g>
    </g>
    <g id="ytick_6">
     <g id="line2d_7">
      <g>
       <use style="stroke:#000000;stroke-width:0.8;" x="63" xlink:href="#mb543b04c9d" y="387.72"/>
      </g>
     </g>
     <g id="text_7">
      <!-- −1.0 -->
      <g transform="translate(31.717187 391.519219)scale(0.1 -0.1)">
       <use xlink:href="#DejaVuSans-8722"/>
       <use x="83.789062" xlink:href="#DejaVuSans-49"/>
       <use x="147.412109" xlink:href="#DejaVuSans-46"/>
       <use x="179.199219" xlink:href="#DejaVuSans-48"/>
      </g>
     </g>
    </g>
    <g id="ytick_7">
     <g id="line2d_8">
      <g>
       <use style="stroke:#000000;stroke-width:0.8;" x="63" xlink:href="#mb543b04c9d" y="349.92"/>
      </g>
     </g>
     <g id="text_8">
      <!-- −0.5 -->
      <g transform="translate(31.717187 353.719219)scale(0.1 -0.1)">
       <use xlink:href="#DejaVuSans-8722"/>
       <use x="83.789062" xlink:href="#DejaVuSans-48"/>
       <use x="147.412109" xlink:href="#DejaVuSans-46"/>
       <use x="179.199219" xlink:href="#DejaVuSans-53"/>
      </g>
     </g>
    </g>
    <g id="ytick_8">
     <g id="line2d_9">
      <g>
       <use style="stroke:#000000;stroke-width:0.8;" x="63" xlink:href="#mb543b04c9d" y="312.12"/>
      </g>
     </g>
     <g id="text_9">
      <!-- 0.0 -->
      <g transform="translate(40.096875 315.919219)scale(0.1 -0.1)">
       <use xlink:href="#DejaVuSans-48"/>
       <use x="63.623047" xlink:href="#DejaVuSans-46"/>
       <use x="95.410156" xlink:href="#DejaVuSans-48"/>
      </g>
     </g>
    </g>
    <g id="ytick_9">
     <g id="line2d_10">
      <g>
       <use style="stroke:#000000;stroke-width:0.8;" x="63" xlink:href="#mb543b04c9d" y="274.32"/>
      </g>
     </g>
     <g id="text_10">
      <!-- 0.5 -->
      <g transform="translate(40.096875 278.119219)scale(0.1 -0.1)">
       <use xlink:href="#DejaVuSans-48"/>
       <use x="63.623047" xlink:href="#DejaVuSans-46"/>
       <use x="95.410156" xlink:href="#DejaVuSans-53"/>
      </g>
     </g>
    </g>
    <g id="ytick_10">
     <g id="line2d_11">
      <g>
       <use style="stroke:#000000;stroke-width:0.8;" x="63" xlink:href="#mb543b04c9d" y="236.52"/>
      </g>
     </g>
     <g id="text_11">
      <!-- 1.0 -->
      <g transform="translate(40.096875 240.319219)scale(0.1 -0.1)">
       <use xlink:href="#DejaVuSans-49"/>
       <use x="63.623047" xlink:href="#DejaVuSans-46"/>
       <use x="95.410156" xlink:href="#DejaVuSans-48"/>
      </g>
     </g>
    </g>
    <g id="ytick_11">
     <g id="line2d_12">
      <g>
       <use style="stroke:#000000;stroke-width:0.8;" x="63" xlink:href="#mb543b04c9d" y="198.72"/>
      </g>
     </g>
     <g id="text_12">
      <!-- 1.5 -->
      <g transform="translate(40.096875 202.519219)scale(0.1 -0.1)">
       <use xlink:href="#DejaVuSans-49"/>
       <use x="63.623047" xlink:href="#DejaVuSans-46"/>
       <use x="95.410156" xlink:href="#DejaVuSans-53"/>
      </g>
     </g>
    </g>
    <g id="ytick_12">
     <g id="line2d_13">
      <g>
       <use style="stroke:#000000;stroke-width:0.8;" x="63" xlink:href="#mb543b04c9d" y="160.92"/>
      </g>
     </g>
     <g id="text_13">
      <!-- 2.0 -->
      <g transform="translate(40.096875 164.719219)scale(0.1 -0.1)">
       <use xlink:href="#DejaVuSans-50"/>
       <use x="63.623047" xlink:href="#DejaVuSans-46"/>
       <use x="95.410156" xlink:href="#DejaVuSans-48"/>
      </g>
     </g>
    </g>
    <g id="ytick_13">
     <g id="line2d_14">
      <g>
       <use style="stroke:#000000;stroke-width:0.8;" x="63" xlink:href="#mb543b04c9d" y="123.12"/>
      </g>
     </g>
     <g id="text_14">
      <!-- 2.5 -->
      <g transform="translate(40.096875 126.919219)scale(0.1 -0.1)">
       <use xlink:href="#DejaVuSans-50"/>
       <use x="63.623047" xlink:href="#DejaVuSans-46"/>
       <use x="95.410156" xlink:href="#DejaVuSans-53"/>
      </g>
     </g>
    </g>
    <g id="ytick_14">
     <g id="line2d_15">
      <g>
       <use style="stroke:#000000;stroke-width:0.8;" x="63" xlink:href="#mb543b04c9d" y="85.32"/>
      </g>
     </g>
     <g id="text_15">
      <!-- 3.0 -->
      <g transform="translate(40.096875 89.119219)scale(0.1 -0.1)">
       <use xlink:href="#DejaVuSans-51"/>
       <use x="63.623047" xlink:href="#DejaVuSans-46"/>
       <use x="95.410156" xlink:href="#DejaVuSans-48"/>
      </g>
     </g>
    </g>
    <g id="text_16">
     <!-- LogOdds -->
     <g transform="translate(25.6375 349.061094)rotate(-90)scale(0.1 -0.1)">
      <defs>
       <path d="M 9.8125 72.90625 
L 19.671875 72.90625 
L 19.671875 8.296875 
L 55.171875 8.296875 
L 55.171875 0 
L 9.8125 0 
z
" id="DejaVuSans-76"/>
       <path d="M 30.609375 48.390625 
Q 23.390625 48.390625 19.1875 42.75 
Q 14.984375 37.109375 14.984375 27.296875 
Q 14.984375 17.484375 19.15625 11.84375 
Q 23.34375 6.203125 30.609375 6.203125 
Q 37.796875 6.203125 41.984375 11.859375 
Q 46.1875 17.53125 46.1875 27.296875 
Q 46.1875 37.015625 41.984375 42.703125 
Q 37.796875 48.390625 30.609375 48.390625 
z
M 30.609375 56 
Q 42.328125 56 49.015625 48.375 
Q 55.71875 40.765625 55.71875 27.296875 
Q 55.71875 13.875 49.015625 6.21875 
Q 42.328125 -1.421875 30.609375 -1.421875 
Q 18.84375 -1.421875 12.171875 6.21875 
Q 5.515625 13.875 5.515625 27.296875 
Q 5.515625 40.765625 12.171875 48.375 
Q 18.84375 56 30.609375 56 
z
" id="DejaVuSans-111"/>
       <path d="M 45.40625 27.984375 
Q 45.40625 37.75 41.375 43.109375 
Q 37.359375 48.484375 30.078125 48.484375 
Q 22.859375 48.484375 18.828125 43.109375 
Q 14.796875 37.75 14.796875 27.984375 
Q 14.796875 18.265625 18.828125 12.890625 
Q 22.859375 7.515625 30.078125 7.515625 
Q 37.359375 7.515625 41.375 12.890625 
Q 45.40625 18.265625 45.40625 27.984375 
z
M 54.390625 6.78125 
Q 54.390625 -7.171875 48.1875 -13.984375 
Q 42 -20.796875 29.203125 -20.796875 
Q 24.46875 -20.796875 20.265625 -20.09375 
Q 16.0625 -19.390625 12.109375 -17.921875 
L 12.109375 -9.1875 
Q 16.0625 -11.328125 19.921875 -12.34375 
Q 23.78125 -13.375 27.78125 -13.375 
Q 36.625 -13.375 41.015625 -8.765625 
Q 45.40625 -4.15625 45.40625 5.171875 
L 45.40625 9.625 
Q 42.625 4.78125 38.28125 2.390625 
Q 33.9375 0 27.875 0 
Q 17.828125 0 11.671875 7.65625 
Q 5.515625 15.328125 5.515625 27.984375 
Q 5.515625 40.671875 11.671875 48.328125 
Q 17.828125 56 27.875 56 
Q 33.9375 56 38.28125 53.609375 
Q 42.625 51.21875 45.40625 46.390625 
L 45.40625 54.6875 
L 54.390625 54.6875 
z
" id="DejaVuSans-103"/>
       <path d="M 39.40625 66.21875 
Q 28.65625 66.21875 22.328125 58.203125 
Q 16.015625 50.203125 16.015625 36.375 
Q 16.015625 22.609375 22.328125 14.59375 
Q 28.65625 6.59375 39.40625 6.59375 
Q 50.140625 6.59375 56.421875 14.59375 
Q 62.703125 22.609375 62.703125 36.375 
Q 62.703125 50.203125 56.421875 58.203125 
Q 50.140625 66.21875 39.40625 66.21875 
z
M 39.40625 74.21875 
Q 54.734375 74.21875 63.90625 63.9375 
Q 73.09375 53.65625 73.09375 36.375 
Q 73.09375 19.140625 63.90625 8.859375 
Q 54.734375 -1.421875 39.40625 -1.421875 
Q 24.03125 -1.421875 14.8125 8.828125 
Q 5.609375 19.09375 5.609375 36.375 
Q 5.609375 53.65625 14.8125 63.9375 
Q 24.03125 74.21875 39.40625 74.21875 
z
" id="DejaVuSans-79"/>
       <path d="M 45.40625 46.390625 
L 45.40625 75.984375 
L 54.390625 75.984375 
L 54.390625 0 
L 45.40625 0 
L 45.40625 8.203125 
Q 42.578125 3.328125 38.25 0.953125 
Q 33.9375 -1.421875 27.875 -1.421875 
Q 17.96875 -1.421875 11.734375 6.484375 
Q 5.515625 14.40625 5.515625 27.296875 
Q 5.515625 40.1875 11.734375 48.09375 
Q 17.96875 56 27.875 56 
Q 33.9375 56 38.25 53.625 
Q 42.578125 51.265625 45.40625 46.390625 
z
M 14.796875 27.296875 
Q 14.796875 17.390625 18.875 11.75 
Q 22.953125 6.109375 30.078125 6.109375 
Q 37.203125 6.109375 41.296875 11.75 
Q 45.40625 17.390625 45.40625 27.296875 
Q 45.40625 37.203125 41.296875 42.84375 
Q 37.203125 48.484375 30.078125 48.484375 
Q 22.953125 48.484375 18.875 42.84375 
Q 14.796875 37.203125 14.796875 27.296875 
z
" id="DejaVuSans-100"/>
       <path d="M 44.28125 53.078125 
L 44.28125 44.578125 
Q 40.484375 46.53125 36.375 47.5 
Q 32.28125 48.484375 27.875 48.484375 
Q 21.1875 48.484375 17.84375 46.4375 
Q 14.5 44.390625 14.5 40.28125 
Q 14.5 37.15625 16.890625 35.375 
Q 19.28125 33.59375 26.515625 31.984375 
L 29.59375 31.296875 
Q 39.15625 29.25 43.1875 25.515625 
Q 47.21875 21.78125 47.21875 15.09375 
Q 47.21875 7.46875 41.1875 3.015625 
Q 35.15625 -1.421875 24.609375 -1.421875 
Q 20.21875 -1.421875 15.453125 -0.5625 
Q 10.6875 0.296875 5.421875 2 
L 5.421875 11.28125 
Q 10.40625 8.6875 15.234375 7.390625 
Q 20.0625 6.109375 24.8125 6.109375 
Q 31.15625 6.109375 34.5625 8.28125 
Q 37.984375 10.453125 37.984375 14.40625 
Q 37.984375 18.0625 35.515625 20.015625 
Q 33.0625 21.96875 24.703125 23.78125 
L 21.578125 24.515625 
Q 13.234375 26.265625 9.515625 29.90625 
Q 5.8125 33.546875 5.8125 39.890625 
Q 5.8125 47.609375 11.28125 51.796875 
Q 16.75 56 26.8125 56 
Q 31.78125 56 36.171875 55.265625 
Q 40.578125 54.546875 44.28125 53.078125 
z
" id="DejaVuSans-115"/>
      </defs>
      <use xlink:href="#DejaVuSans-76"/>
      <use x="53.962891" xlink:href="#DejaVuSans-111"/>
      <use x="115.144531" xlink:href="#DejaVuSans-103"/>
      <use x="178.621094" xlink:href="#DejaVuSans-79"/>
      <use x="257.332031" xlink:href="#DejaVuSans-100"/>
      <use x="320.808594" xlink:href="#DejaVuSans-100"/>
      <use x="384.285156" xlink:href="#DejaVuSans-115"/>
     </g>
    </g>
   </g>
   <g id="line2d_16">
    <path clip-path="url(#p269f733554)" d="M 229.005 304.985277 
L 287.595 304.985277 
L 287.595 245.600309 
L 229.005 245.600309 
L 229.005 304.985277 
" style="fill:none;stroke:#000000;stroke-linecap:square;"/>
   </g>
   <g id="line2d_17">
    <path clip-path="url(#p269f733554)" d="M 258.3 304.985277 
L 258.3 337.836147 
" style="fill:none;stroke:#000000;stroke-linecap:square;"/>
   </g>
   <g id="line2d_18">
    <path clip-path="url(#p269f733554)" d="M 258.3 245.600309 
L 258.3 221.963979 
" style="fill:none;stroke:#000000;stroke-linecap:square;"/>
   </g>
   <g id="line2d_19">
    <path clip-path="url(#p269f733554)" d="M 243.6525 337.836147 
L 272.9475 337.836147 
" style="fill:none;stroke:#000000;stroke-linecap:square;"/>
   </g>
   <g id="line2d_20">
    <path clip-path="url(#p269f733554)" d="M 243.6525 221.963979 
L 272.9475 221.963979 
" style="fill:none;stroke:#000000;stroke-linecap:square;"/>
   </g>
   <g id="line2d_21">
    <path clip-path="url(#p269f733554)" d="M 229.005 270.627651 
L 287.595 270.627651 
" style="fill:none;stroke:#ff7f0e;stroke-linecap:square;"/>
   </g>
   <g id="patch_3">
    <path d="M 63 576.72 
L 63 77.76 
" style="fill:none;stroke:#000000;stroke-linecap:square;stroke-linejoin:miter;stroke-width:0.8;"/>
   </g>
   <g id="patch_4">
    <path d="M 453.6 576.72 
L 453.6 77.76 
" style="fill:none;stroke:#000000;stroke-linecap:square;stroke-linejoin:miter;stroke-width:0.8;"/>
   </g>
   <g id="patch_5">
    <path d="M 63 576.72 
L 453.6 576.72 
" style="fill:none;stroke:#000000;stroke-linecap:square;stroke-linejoin:miter;stroke-width:0.8;"/>
   </g>
   <g id="patch_6">
    <path d="M 63 77.76 
L 453.6 77.76 
" style="fill:none;stroke:#000000;stroke-linecap:square;stroke-linejoin:miter;stroke-width:0.8;"/>
   </g>
   <g id="text_17">
    <!-- 0.0 -->
    <g style="fill:#2f4f4f;" transform="translate(265.95508 305.377629)scale(0.1 -0.1)">
     <use xlink:href="#DejaVuSans-48"/>
     <use x="63.623047" xlink:href="#DejaVuSans-46"/>
     <use x="95.410156" xlink:href="#DejaVuSans-48"/>
    </g>
   </g>
   <g id="text_18">
    <!-- 1 -->
    <g style="fill:#556b2f;" transform="translate(273.490768 244.662639)scale(0.1 -0.1)">
     <use xlink:href="#DejaVuSans-49"/>
    </g>
   </g>
   <g id="text_19">
    <!-- 2 -->
    <g style="fill:#8b4513;" transform="translate(260.350286 221.207979)scale(0.1 -0.1)">
     <use xlink:href="#DejaVuSans-50"/>
    </g>
   </g>
   <g id="text_20">
    <!-- 3 -->
    <g style="fill:#2e8b57;" transform="translate(247.689577 294.673872)scale(0.1 -0.1)">
     <use xlink:href="#DejaVuSans-51"/>
    </g>
   </g>
   <g id="text_21">
    <!-- 4 -->
    <g style="fill:#228b22;" transform="translate(283.586126 249.023279)scale(0.1 -0.1)">
     <defs>
      <path d="M 37.796875 64.3125 
L 12.890625 25.390625 
L 37.796875 25.390625 
z
M 35.203125 72.90625 
L 47.609375 72.90625 
L 47.609375 25.390625 
L 58.015625 25.390625 
L 58.015625 17.1875 
L 47.609375 17.1875 
L 47.609375 0 
L 37.796875 0 
L 37.796875 17.1875 
L 4.890625 17.1875 
L 4.890625 26.703125 
z
" id="DejaVuSans-52"/>
     </defs>
     <use xlink:href="#DejaVuSans-52"/>
    </g>
   </g>
   <g id="text_22">
    <!-- 5 -->
    <g style="fill:#708090;" transform="translate(220.489738 336.079171)scale(0.1 -0.1)">
     <use xlink:href="#DejaVuSans-53"/>
    </g>
   </g>
   <g id="text_23">
    <!-- 6 -->
    <g style="fill:#8b0000;" transform="translate(268.082665 302.763962)scale(0.1 -0.1)">
     <defs>
      <path d="M 33.015625 40.375 
Q 26.375 40.375 22.484375 35.828125 
Q 18.609375 31.296875 18.609375 23.390625 
Q 18.609375 15.53125 22.484375 10.953125 
Q 26.375 6.390625 33.015625 6.390625 
Q 39.65625 6.390625 43.53125 10.953125 
Q 47.40625 15.53125 47.40625 23.390625 
Q 47.40625 31.296875 43.53125 35.828125 
Q 39.65625 40.375 33.015625 40.375 
z
M 52.59375 71.296875 
L 52.59375 62.3125 
Q 48.875 64.0625 45.09375 64.984375 
Q 41.3125 65.921875 37.59375 65.921875 
Q 27.828125 65.921875 22.671875 59.328125 
Q 17.53125 52.734375 16.796875 39.40625 
Q 19.671875 43.65625 24.015625 45.921875 
Q 28.375 48.1875 33.59375 48.1875 
Q 44.578125 48.1875 50.953125 41.515625 
Q 57.328125 34.859375 57.328125 23.390625 
Q 57.328125 12.15625 50.6875 5.359375 
Q 44.046875 -1.421875 33.015625 -1.421875 
Q 20.359375 -1.421875 13.671875 8.265625 
Q 6.984375 17.96875 6.984375 36.375 
Q 6.984375 53.65625 15.1875 63.9375 
Q 23.390625 74.21875 37.203125 74.21875 
Q 40.921875 74.21875 44.703125 73.484375 
Q 48.484375 72.75 52.59375 71.296875 
z
" id="DejaVuSans-54"/>
     </defs>
     <use xlink:href="#DejaVuSans-54"/>
    </g>
   </g>
   <g id="text_24">
    <!-- 9 -->
    <g style="fill:#008080;" transform="translate(228.287372 246.79107)scale(0.1 -0.1)">
     <defs>
      <path d="M 10.984375 1.515625 
L 10.984375 10.5 
Q 14.703125 8.734375 18.5 7.8125 
Q 22.3125 6.890625 25.984375 6.890625 
Q 35.75 6.890625 40.890625 13.453125 
Q 46.046875 20.015625 46.78125 33.40625 
Q 43.953125 29.203125 39.59375 26.953125 
Q 35.25 24.703125 29.984375 24.703125 
Q 19.046875 24.703125 12.671875 31.3125 
Q 6.296875 37.9375 6.296875 49.421875 
Q 6.296875 60.640625 12.9375 67.421875 
Q 19.578125 74.21875 30.609375 74.21875 
Q 43.265625 74.21875 49.921875 64.515625 
Q 56.59375 54.828125 56.59375 36.375 
Q 56.59375 19.140625 48.40625 8.859375 
Q 40.234375 -1.421875 26.421875 -1.421875 
Q 22.703125 -1.421875 18.890625 -0.6875 
Q 15.09375 0.046875 10.984375 1.515625 
z
M 30.609375 32.421875 
Q 37.25 32.421875 41.125 36.953125 
Q 45.015625 41.5 45.015625 49.421875 
Q 45.015625 57.28125 41.125 61.84375 
Q 37.25 66.40625 30.609375 66.40625 
Q 23.96875 66.40625 20.09375 61.84375 
Q 16.21875 57.28125 16.21875 49.421875 
Q 16.21875 41.5 20.09375 36.953125 
Q 23.96875 32.421875 30.609375 32.421875 
z
" id="DejaVuSans-57"/>
     </defs>
     <use xlink:href="#DejaVuSans-57"/>
    </g>
   </g>
   <g id="text_25">
    <!-- 11 -->
    <g style="fill:#4682b4;" transform="translate(255.129592 238.222684)scale(0.1 -0.1)">
     <use xlink:href="#DejaVuSans-49"/>
     <use x="63.623047" xlink:href="#DejaVuSans-49"/>
    </g>
   </g>
   <g id="text_26">
    <!-- 12 -->
    <g style="fill:#d2691e;" transform="translate(256.709801 224.895726)scale(0.1 -0.1)">
     <use xlink:href="#DejaVuSans-49"/>
     <use x="63.623047" xlink:href="#DejaVuSans-50"/>
    </g>
   </g>
   <g id="text_27">
    <!-- 13 -->
    <g style="fill:#9acd32;" transform="translate(261.050187 307.757621)scale(0.1 -0.1)">
     <use xlink:href="#DejaVuSans-49"/>
     <use x="63.623047" xlink:href="#DejaVuSans-51"/>
    </g>
   </g>
   <g id="text_28">
    <!-- 14.0 -->
    <g style="fill:#32cd32;" transform="translate(273.313277 296.068342)scale(0.1 -0.1)">
     <use xlink:href="#DejaVuSans-49"/>
     <use x="63.623047" xlink:href="#DejaVuSans-52"/>
     <use x="127.246094" xlink:href="#DejaVuSans-46"/>
     <use x="159.033203" xlink:href="#DejaVuSans-48"/>
    </g>
   </g>
   <g id="text_29">
    <!-- 15 -->
    <g style="fill:#8fbc8f;" transform="translate(256.820715 269.871651)scale(0.1 -0.1)">
     <use xlink:href="#DejaVuSans-49"/>
     <use x="63.623047" xlink:href="#DejaVuSans-53"/>
    </g>
   </g>
   <g id="text_30">
    <!-- 16 -->
    <g style="fill:#800080;" transform="translate(274.054793 267.533012)scale(0.1 -0.1)">
     <use xlink:href="#DejaVuSans-49"/>
     <use x="63.623047" xlink:href="#DejaVuSans-54"/>
    </g>
   </g>
   <g id="text_31">
    <!-- 17 -->
    <g style="fill:#9932cc;" transform="translate(265.219716 267.755344)scale(0.1 -0.1)">
     <defs>
      <path d="M 8.203125 72.90625 
L 55.078125 72.90625 
L 55.078125 68.703125 
L 28.609375 0 
L 18.3125 0 
L 43.21875 64.59375 
L 8.203125 64.59375 
z
" id="DejaVuSans-55"/>
     </defs>
     <use xlink:href="#DejaVuSans-49"/>
     <use x="63.623047" xlink:href="#DejaVuSans-55"/>
    </g>
   </g>
   <g id="text_32">
    <!-- 27.1 -->
    <g style="fill:#ff4500;" transform="translate(251.068855 314.215575)scale(0.1 -0.1)">
     <use xlink:href="#DejaVuSans-50"/>
     <use x="63.623047" xlink:href="#DejaVuSans-55"/>
     <use x="127.246094" xlink:href="#DejaVuSans-46"/>
     <use x="159.033203" xlink:href="#DejaVuSans-49"/>
    </g>
   </g>
   <g id="text_33">
    <!-- 18 -->
    <g style="fill:#00ced1;" transform="translate(277.871573 245.025979)scale(0.1 -0.1)">
     <defs>
      <path d="M 31.78125 34.625 
Q 24.75 34.625 20.71875 30.859375 
Q 16.703125 27.09375 16.703125 20.515625 
Q 16.703125 13.921875 20.71875 10.15625 
Q 24.75 6.390625 31.78125 6.390625 
Q 38.8125 6.390625 42.859375 10.171875 
Q 46.921875 13.96875 46.921875 20.515625 
Q 46.921875 27.09375 42.890625 30.859375 
Q 38.875 34.625 31.78125 34.625 
z
M 21.921875 38.8125 
Q 15.578125 40.375 12.03125 44.71875 
Q 8.5 49.078125 8.5 55.328125 
Q 8.5 64.0625 14.71875 69.140625 
Q 20.953125 74.21875 31.78125 74.21875 
Q 42.671875 74.21875 48.875 69.140625 
Q 55.078125 64.0625 55.078125 55.328125 
Q 55.078125 49.078125 51.53125 44.71875 
Q 48 40.375 41.703125 38.8125 
Q 48.828125 37.15625 52.796875 32.3125 
Q 56.78125 27.484375 56.78125 20.515625 
Q 56.78125 9.90625 50.3125 4.234375 
Q 43.84375 -1.421875 31.78125 -1.421875 
Q 19.734375 -1.421875 13.25 4.234375 
Q 6.78125 9.90625 6.78125 20.515625 
Q 6.78125 27.484375 10.78125 32.3125 
Q 14.796875 37.15625 21.921875 38.8125 
z
M 18.3125 54.390625 
Q 18.3125 48.734375 21.84375 45.5625 
Q 25.390625 42.390625 31.78125 42.390625 
Q 38.140625 42.390625 41.71875 45.5625 
Q 45.3125 48.734375 45.3125 54.390625 
Q 45.3125 60.0625 41.71875 63.234375 
Q 38.140625 66.40625 31.78125 66.40625 
Q 25.390625 66.40625 21.84375 63.234375 
Q 18.3125 60.0625 18.3125 54.390625 
z
" id="DejaVuSans-56"/>
     </defs>
     <use xlink:href="#DejaVuSans-49"/>
     <use x="63.623047" xlink:href="#DejaVuSans-56"/>
    </g>
   </g>
   <g id="text_34">
    <!-- 20 -->
    <g style="fill:#ffd700;" transform="translate(262.624803 308.564239)scale(0.1 -0.1)">
     <use xlink:href="#DejaVuSans-50"/>
     <use x="63.623047" xlink:href="#DejaVuSans-48"/>
    </g>
   </g>
   <g id="text_35">
    <!-- 23.2 -->
    <g style="fill:#0000cd;" transform="translate(247.015513 337.080147)scale(0.1 -0.1)">
     <use xlink:href="#DejaVuSans-50"/>
     <use x="63.623047" xlink:href="#DejaVuSans-51"/>
     <use x="127.246094" xlink:href="#DejaVuSans-46"/>
     <use x="159.033203" xlink:href="#DejaVuSans-50"/>
    </g>
   </g>
   <g id="text_36">
    <!-- 24.1 -->
    <g style="fill:#deb887;" transform="translate(274.000457 231.533496)scale(0.1 -0.1)">
     <use xlink:href="#DejaVuSans-50"/>
     <use x="63.623047" xlink:href="#DejaVuSans-52"/>
     <use x="127.246094" xlink:href="#DejaVuSans-46"/>
     <use x="159.033203" xlink:href="#DejaVuSans-49"/>
    </g>
   </g>
   <g id="text_37">
    <!-- 22 -->
    <g style="fill:#dc143c;" transform="translate(247.209935 303.080924)scale(0.1 -0.1)">
     <use xlink:href="#DejaVuSans-50"/>
     <use x="63.623047" xlink:href="#DejaVuSans-50"/>
    </g>
   </g>
   <g id="text_38">
    <!-- 21.1 -->
    <g style="fill:#00bfff;" transform="translate(270.294777 330.199853)scale(0.1 -0.1)">
     <use xlink:href="#DejaVuSans-50"/>
     <use x="63.623047" xlink:href="#DejaVuSans-49"/>
     <use x="127.246094" xlink:href="#DejaVuSans-46"/>
     <use x="159.033203" xlink:href="#DejaVuSans-49"/>
    </g>
   </g>
   <g id="text_39">
    <!-- 19.2 -->
    <g style="fill:#0000ff;" transform="translate(276.040739 288.849228)scale(0.1 -0.1)">
     <use xlink:href="#DejaVuSans-49"/>
     <use x="63.623047" xlink:href="#DejaVuSans-57"/>
     <use x="127.246094" xlink:href="#DejaVuSans-46"/>
     <use x="159.033203" xlink:href="#DejaVuSans-50"/>
    </g>
   </g>
   <g id="text_40">
    <!-- 24.0 -->
    <g style="fill:#a020f0;" transform="translate(240.345579 252.902148)scale(0.1 -0.1)">
     <use xlink:href="#DejaVuSans-50"/>
     <use x="63.623047" xlink:href="#DejaVuSans-52"/>
     <use x="127.246094" xlink:href="#DejaVuSans-46"/>
     <use x="159.033203" xlink:href="#DejaVuSans-48"/>
    </g>
   </g>
   <g id="text_41">
    <!-- 25 -->
    <g style="fill:#ff6347;" transform="translate(228.711705 329.300866)scale(0.1 -0.1)">
     <use xlink:href="#DejaVuSans-50"/>
     <use x="63.623047" xlink:href="#DejaVuSans-53"/>
    </g>
   </g>
   <g id="text_42">
    <!-- 28 -->
    <g style="fill:#ff00ff;" transform="translate(270.634079 248.248227)scale(0.1 -0.1)">
     <use xlink:href="#DejaVuSans-50"/>
     <use x="63.623047" xlink:href="#DejaVuSans-56"/>
    </g>
   </g>
   <g id="text_43">
    <!-- 29 -->
    <g style="fill:#f0e68c;" transform="translate(266.714886 286.485154)scale(0.1 -0.1)">
     <use xlink:href="#DejaVuSans-50"/>
     <use x="63.623047" xlink:href="#DejaVuSans-57"/>
    </g>
   </g>
   <g id="text_44">
    <!-- 14.1 -->
    <g style="fill:#fa8072;" transform="translate(245.672227 243.650824)scale(0.1 -0.1)">
     <use xlink:href="#DejaVuSans-49"/>
     <use x="63.623047" xlink:href="#DejaVuSans-52"/>
     <use x="127.246094" xlink:href="#DejaVuSans-46"/>
     <use x="159.033203" xlink:href="#DejaVuSans-49"/>
    </g>
   </g>
   <g id="text_45">
    <!-- 10.1 -->
    <g style="fill:#ffff54;" transform="translate(249.814728 290.326594)scale(0.1 -0.1)">
     <use xlink:href="#DejaVuSans-49"/>
     <use x="63.623047" xlink:href="#DejaVuSans-48"/>
     <use x="127.246094" xlink:href="#DejaVuSans-46"/>
     <use x="159.033203" xlink:href="#DejaVuSans-49"/>
    </g>
   </g>
   <g id="text_46">
    <!-- 8.2 -->
    <g style="fill:#6495ed;" transform="translate(291.912176 224.463232)scale(0.1 -0.1)">
     <use xlink:href="#DejaVuSans-56"/>
     <use x="63.623047" xlink:href="#DejaVuSans-46"/>
     <use x="95.410156" xlink:href="#DejaVuSans-50"/>
    </g>
   </g>
   <g id="text_47">
    <!-- 7.1 -->
    <g style="fill:#7b68ee;" transform="translate(258.382363 222.667714)scale(0.1 -0.1)">
     <use xlink:href="#DejaVuSans-55"/>
     <use x="63.623047" xlink:href="#DejaVuSans-46"/>
     <use x="95.410156" xlink:href="#DejaVuSans-49"/>
    </g>
   </g>
  </g>
 </g>
 <defs>
  <clipPath id="p269f733554">
   <rect height="498.96" width="390.6" x="63" y="77.76"/>
  </clipPath>
 </defs>
</svg>
