<?xml version="1.0" encoding="utf-8" standalone="no"?>
<!DOCTYPE svg PUBLIC "-//W3C//DTD SVG 1.1//EN"
  "http://www.w3.org/Graphics/SVG/1.1/DTD/svg11.dtd">
<!-- Created with matplotlib (https://matplotlib.org/) -->
<svg height="648pt" version="1.1" viewBox="0 0 504 648" width="504pt" xmlns="http://www.w3.org/2000/svg" xmlns:xlink="http://www.w3.org/1999/xlink">
 <metadata>
  <rdf:RDF xmlns:cc="http://creativecommons.org/ns#" xmlns:dc="http://purl.org/dc/elements/1.1/" xmlns:rdf="http://www.w3.org/1999/02/22-rdf-syntax-ns#">
   <cc:Work>
    <dc:type rdf:resource="http://purl.org/dc/dcmitype/StillImage"/>
    <dc:date>2023-06-02T19:05:30.114686</dc:date>
    <dc:format>image/svg+xml</dc:format>
    <dc:creator>
     <cc:Agent>
      <dc:title>Matplotlib v3.3.4, https://matplotlib.org/</dc:title>
     </cc:Agent>
    </dc:creator>
   </cc:Work>
  </rdf:RDF>
 </metadata>
 <defs>
  <style type="text/css">*{stroke-linecap:butt;stroke-linejoin:round;}</style>
 </defs>
 <g id="figure_1">
  <g id="patch_1">
   <path d="M 0 648 
L 504 648 
L 504 0 
L 0 0 
z
" style="fill:#ffffff;"/>
  </g>
  <g id="axes_1">
   <g id="patch_2">
    <path d="M 63 576.72 
L 453.6 576.72 
L 453.6 77.76 
L 63 77.76 
z
" style="fill:#ffffff;"/>
   </g>
   <g id="PathCollection_1">
    <path clip-path="url(#pec681e941c)" d="M 276.68419 264.165744 
C 278.780805 264.165744 280.79183 263.332751 282.27436 261.85022 
C 283.756891 260.36769 284.589885 258.356665 284.589885 256.26005 
C 284.589885 254.163436 283.756891 252.152411 282.27436 250.66988 
C 280.79183 249.18735 278.780805 248.354356 276.68419 248.354356 
C 274.587576 248.354356 272.576551 249.18735 271.09402 250.66988 
C 269.61149 252.152411 268.778496 254.163436 268.778496 256.26005 
C 268.778496 258.356665 269.61149 260.36769 271.09402 261.85022 
C 272.576551 263.332751 274.587576 264.165744 276.68419 264.165744 
z
" style="fill:#2f4f4f;stroke:#2f4f4f;"/>
    <path clip-path="url(#pec681e941c)" d="M 242.793751 293.007742 
C 245.274499 293.007742 247.653975 292.022131 249.408129 290.267977 
C 251.162283 288.513823 252.147894 286.134347 252.147894 283.653599 
C 252.147894 281.172851 251.162283 278.793374 249.408129 277.03922 
C 247.653975 275.285067 245.274499 274.299455 242.793751 274.299455 
C 240.313003 274.299455 237.933526 275.285067 236.179373 277.03922 
C 234.425219 278.793374 233.439607 281.172851 233.439607 283.653599 
C 233.439607 286.134347 234.425219 288.513823 236.179373 290.267977 
C 237.933526 292.022131 240.313003 293.007742 242.793751 293.007742 
z
" style="fill:#556b2f;stroke:#556b2f;"/>
    <path clip-path="url(#pec681e941c)" d="M 262.203089 236.756832 
C 263.82712 236.756832 265.384853 236.111598 266.533216 234.963234 
C 267.681579 233.814871 268.326814 232.257138 268.326814 230.633107 
C 268.326814 229.009077 267.681579 227.451343 266.533216 226.30298 
C 265.384853 225.154617 263.82712 224.509383 262.203089 224.509383 
C 260.579059 224.509383 259.021325 225.154617 257.872962 226.30298 
C 256.724599 227.451343 256.079365 229.009077 256.079365 230.633107 
C 256.079365 232.257138 256.724599 233.814871 257.872962 234.963234 
C 259.021325 236.111598 260.579059 236.756832 262.203089 236.756832 
z
" style="fill:#8b4513;stroke:#8b4513;"/>
    <path clip-path="url(#pec681e941c)" d="M 266.280053 266.620047 
C 268.155322 266.620047 269.954037 265.874995 271.280053 264.548979 
C 272.606068 263.222964 273.351121 261.424248 273.351121 259.548979 
C 273.351121 257.67371 272.606068 255.874995 271.280053 254.548979 
C 269.954037 253.222964 268.155322 252.477911 266.280053 252.477911 
C 264.404784 252.477911 262.606068 253.222964 261.280053 254.548979 
C 259.954037 255.874995 259.208985 257.67371 259.208985 259.548979 
C 259.208985 261.424248 259.954037 263.222964 261.280053 264.548979 
C 262.606068 265.874995 264.404784 266.620047 266.280053 266.620047 
z
" style="fill:#2e8b57;stroke:#2e8b57;"/>
    <path clip-path="url(#pec681e941c)" d="M 241.722725 262.828623 
C 243.04874 262.828623 244.320624 262.301791 245.258259 261.364157 
C 246.195893 260.426522 246.722725 259.154638 246.722725 257.828623 
C 246.722725 256.502607 246.195893 255.230724 245.258259 254.293089 
C 244.320624 253.355455 243.04874 252.828623 241.722725 252.828623 
C 240.396709 252.828623 239.124826 253.355455 238.187191 254.293089 
C 237.249556 255.230724 236.722725 256.502607 236.722725 257.828623 
C 236.722725 259.154638 237.249556 260.426522 238.187191 261.364157 
C 239.124826 262.301791 240.396709 262.828623 241.722725 262.828623 
z
" style="fill:#228b22;stroke:#228b22;"/>
    <path clip-path="url(#pec681e941c)" d="M 252.680296 220.127569 
C 254.77691 220.127569 256.787935 219.294575 258.270466 217.812045 
C 259.752996 216.329515 260.58599 214.31849 260.58599 212.221875 
C 260.58599 210.12526 259.752996 208.114235 258.270466 206.631705 
C 256.787935 205.149175 254.77691 204.316181 252.680296 204.316181 
C 250.583681 204.316181 248.572656 205.149175 247.090126 206.631705 
C 245.607595 208.114235 244.774601 210.12526 244.774601 212.221875 
C 244.774601 214.31849 245.607595 216.329515 247.090126 217.812045 
C 248.572656 219.294575 250.583681 220.127569 252.680296 220.127569 
z
" style="fill:#708090;stroke:#708090;"/>
    <path clip-path="url(#pec681e941c)" d="M 247.115918 236.796534 
C 248.991187 236.796534 250.789902 236.051482 252.115918 234.725466 
C 253.441933 233.399451 254.186985 231.600736 254.186985 229.725466 
C 254.186985 227.850197 253.441933 226.051482 252.115918 224.725466 
C 250.789902 223.399451 248.991187 222.654399 247.115918 222.654399 
C 245.240648 222.654399 243.441933 223.399451 242.115918 224.725466 
C 240.789902 226.051482 240.04485 227.850197 240.04485 229.725466 
C 240.04485 231.600736 240.789902 233.399451 242.115918 234.725466 
C 243.441933 236.051482 245.240648 236.796534 247.115918 236.796534 
z
" style="fill:#8b0000;stroke:#8b0000;"/>
    <path clip-path="url(#pec681e941c)" d="M 286.716912 251.417543 
C 288.340943 251.417543 289.898676 250.772309 291.047039 249.623946 
C 292.195402 248.475582 292.840636 246.917849 292.840636 245.293818 
C 292.840636 243.669788 292.195402 242.112055 291.047039 240.963691 
C 289.898676 239.815328 288.340943 239.170094 286.716912 239.170094 
C 285.092881 239.170094 283.535148 239.815328 282.386785 240.963691 
C 281.238422 242.112055 280.593188 243.669788 280.593188 245.293818 
C 280.593188 246.917849 281.238422 248.475582 282.386785 249.623946 
C 283.535148 250.772309 285.092881 251.417543 286.716912 251.417543 
z
" style="fill:#808000;stroke:#808000;"/>
    <path clip-path="url(#pec681e941c)" d="M 257.956624 206.978694 
C 259.580655 206.978694 261.138388 206.33346 262.286751 205.185097 
C 263.435114 204.036734 264.080349 202.479001 264.080349 200.85497 
C 264.080349 199.230939 263.435114 197.673206 262.286751 196.524843 
C 261.138388 195.37648 259.580655 194.731246 257.956624 194.731246 
C 256.332593 194.731246 254.77486 195.37648 253.626497 196.524843 
C 252.478134 197.673206 251.8329 199.230939 251.8329 200.85497 
C 251.8329 202.479001 252.478134 204.036734 253.626497 205.185097 
C 254.77486 206.33346 256.332593 206.978694 257.956624 206.978694 
z
" style="fill:#008080;stroke:#008080;"/>
    <path clip-path="url(#pec681e941c)" d="M 264.010683 248.594581 
C 266.107298 248.594581 268.118323 247.761587 269.600853 246.279057 
C 271.083384 244.796527 271.916378 242.785502 271.916378 240.688887 
C 271.916378 238.592272 271.083384 236.581247 269.600853 235.098717 
C 268.118323 233.616187 266.107298 232.783193 264.010683 232.783193 
C 261.914069 232.783193 259.903044 233.616187 258.420513 235.098717 
C 256.937983 236.581247 256.104989 238.592272 256.104989 240.688887 
C 256.104989 242.785502 256.937983 244.796527 258.420513 246.279057 
C 259.903044 247.761587 261.914069 248.594581 264.010683 248.594581 
z
" style="fill:#b8860b;stroke:#b8860b;"/>
    <path clip-path="url(#pec681e941c)" d="M 282.660624 233.968707 
C 284.757239 233.968707 286.768264 233.135713 288.250794 231.653182 
C 289.733325 230.170652 290.566318 228.159627 290.566318 226.063012 
C 290.566318 223.966398 289.733325 221.955373 288.250794 220.472843 
C 286.768264 218.990312 284.757239 218.157318 282.660624 218.157318 
C 280.56401 218.157318 278.552985 218.990312 277.070454 220.472843 
C 275.587924 221.955373 274.75493 223.966398 274.75493 226.063012 
C 274.75493 228.159627 275.587924 230.170652 277.070454 231.653182 
C 278.552985 233.135713 280.56401 233.968707 282.660624 233.968707 
z
" style="fill:#4682b4;stroke:#4682b4;"/>
    <path clip-path="url(#pec681e941c)" d="M 251.138242 264.382869 
C 252.464257 264.382869 253.736141 263.856037 254.673776 262.918402 
C 255.61141 261.980768 256.138242 260.708884 256.138242 259.382869 
C 256.138242 258.056853 255.61141 256.784969 254.673776 255.847335 
C 253.736141 254.9097 252.464257 254.382869 251.138242 254.382869 
C 249.812226 254.382869 248.540342 254.9097 247.602708 255.847335 
C 246.665073 256.784969 246.138242 258.056853 246.138242 259.382869 
C 246.138242 260.708884 246.665073 261.980768 247.602708 262.918402 
C 248.540342 263.856037 249.812226 264.382869 251.138242 264.382869 
z
" style="fill:#9acd32;stroke:#9acd32;"/>
    <path clip-path="url(#pec681e941c)" d="M 243.649078 226.507297 
C 245.273109 226.507297 246.830842 225.862062 247.979205 224.713699 
C 249.127569 223.565336 249.772803 222.007603 249.772803 220.383572 
C 249.772803 218.759542 249.127569 217.201808 247.979205 216.053445 
C 246.830842 214.905082 245.273109 214.259848 243.649078 214.259848 
C 242.025048 214.259848 240.467315 214.905082 239.318951 216.053445 
C 238.170588 217.201808 237.525354 218.759542 237.525354 220.383572 
C 237.525354 222.007603 238.170588 223.565336 239.318951 224.713699 
C 240.467315 225.862062 242.025048 226.507297 243.649078 226.507297 
z
" style="fill:#32cd32;stroke:#32cd32;"/>
    <path clip-path="url(#pec681e941c)" d="M 266.412482 267.062291 
C 267.738498 267.062291 269.010381 266.535459 269.948016 265.597825 
C 270.885651 264.66019 271.412482 263.388306 271.412482 262.062291 
C 271.412482 260.736275 270.885651 259.464391 269.948016 258.526757 
C 269.010381 257.589122 267.738498 257.062291 266.412482 257.062291 
C 265.086467 257.062291 263.814583 257.589122 262.876948 258.526757 
C 261.939314 259.464391 261.412482 260.736275 261.412482 262.062291 
C 261.412482 263.388306 261.939314 264.66019 262.876948 265.597825 
C 263.814583 266.535459 265.086467 267.062291 266.412482 267.062291 
z
" style="fill:#8fbc8f;stroke:#8fbc8f;"/>
    <path clip-path="url(#pec681e941c)" d="M 291.34419 244.065152 
C 293.219459 244.065152 295.018175 243.320099 296.34419 241.994084 
C 297.670206 240.668068 298.415258 238.869353 298.415258 236.994084 
C 298.415258 235.118815 297.670206 233.320099 296.34419 231.994084 
C 295.018175 230.668068 293.219459 229.923016 291.34419 229.923016 
C 289.468921 229.923016 287.670206 230.668068 286.34419 231.994084 
C 285.018175 233.320099 284.273123 235.118815 284.273123 236.994084 
C 284.273123 238.869353 285.018175 240.668068 286.34419 241.994084 
C 287.670206 243.320099 289.468921 244.065152 291.34419 244.065152 
z
" style="fill:#800080;stroke:#800080;"/>
    <path clip-path="url(#pec681e941c)" d="M 279.157123 259.769196 
C 280.781154 259.769196 282.338887 259.123962 283.48725 257.975599 
C 284.635613 256.827236 285.280847 255.269503 285.280847 253.645472 
C 285.280847 252.021441 284.635613 250.463708 283.48725 249.315345 
C 282.338887 248.166982 280.781154 247.521748 279.157123 247.521748 
C 277.533092 247.521748 275.975359 248.166982 274.826996 249.315345 
C 273.678633 250.463708 273.033399 252.021441 273.033399 253.645472 
C 273.033399 255.269503 273.678633 256.827236 274.826996 257.975599 
C 275.975359 259.123962 277.533092 259.769196 279.157123 259.769196 
z
" style="fill:#b03060;stroke:#b03060;"/>
    <path clip-path="url(#pec681e941c)" d="M 255.594726 294.924545 
C 257.218757 294.924545 258.77649 294.279311 259.924853 293.130948 
C 261.073216 291.982585 261.71845 290.424852 261.71845 288.800821 
C 261.71845 287.17679 261.073216 285.619057 259.924853 284.470694 
C 258.77649 283.322331 257.218757 282.677097 255.594726 282.677097 
C 253.970695 282.677097 252.412962 283.322331 251.264599 284.470694 
C 250.116236 285.619057 249.471002 287.17679 249.471002 288.800821 
C 249.471002 290.424852 250.116236 291.982585 251.264599 293.130948 
C 252.412962 294.279311 253.970695 294.924545 255.594726 294.924545 
z
" style="fill:#9932cc;stroke:#9932cc;"/>
    <path clip-path="url(#pec681e941c)" d="M 243.571497 242.57021 
C 245.195528 242.57021 246.753261 241.924976 247.901624 240.776613 
C 249.049987 239.62825 249.695221 238.070516 249.695221 236.446486 
C 249.695221 234.822455 249.049987 233.264722 247.901624 232.116359 
C 246.753261 230.967996 245.195528 230.322761 243.571497 230.322761 
C 241.947466 230.322761 240.389733 230.967996 239.24137 232.116359 
C 238.093007 233.264722 237.447773 234.822455 237.447773 236.446486 
C 237.447773 238.070516 238.093007 239.62825 239.24137 240.776613 
C 240.389733 241.924976 241.947466 242.57021 243.571497 242.57021 
z
" style="fill:#ff4500;stroke:#ff4500;"/>
    <path clip-path="url(#pec681e941c)" d="M 277.763321 234.667391 
C 279.859936 234.667391 281.870961 233.834397 283.353491 232.351866 
C 284.836022 230.869336 285.669015 228.858311 285.669015 226.761696 
C 285.669015 224.665082 284.836022 222.654057 283.353491 221.171527 
C 281.870961 219.688996 279.859936 218.856002 277.763321 218.856002 
C 275.666707 218.856002 273.655682 219.688996 272.173151 221.171527 
C 270.690621 222.654057 269.857627 224.665082 269.857627 226.761696 
C 269.857627 228.858311 270.690621 230.869336 272.173151 232.351866 
C 273.655682 233.834397 275.666707 234.667391 277.763321 234.667391 
z
" style="fill:#00ced1;stroke:#00ced1;"/>
    <path clip-path="url(#pec681e941c)" d="M 264.293624 309.969446 
C 265.619639 309.969446 266.891523 309.442614 267.829158 308.50498 
C 268.766792 307.567345 269.293624 306.295461 269.293624 304.969446 
C 269.293624 303.64343 268.766792 302.371546 267.829158 301.433912 
C 266.891523 300.496277 265.619639 299.969446 264.293624 299.969446 
C 262.967608 299.969446 261.695724 300.496277 260.75809 301.433912 
C 259.820455 302.371546 259.293624 303.64343 259.293624 304.969446 
C 259.293624 306.295461 259.820455 307.567345 260.75809 308.50498 
C 261.695724 309.442614 262.967608 309.969446 264.293624 309.969446 
z
" style="fill:#ffd700;stroke:#ffd700;"/>
    <path clip-path="url(#pec681e941c)" d="M 266.946533 279.941225 
C 268.272549 279.941225 269.544433 279.414393 270.482067 278.476759 
C 271.419702 277.539124 271.946533 276.26724 271.946533 274.941225 
C 271.946533 273.615209 271.419702 272.343325 270.482067 271.405691 
C 269.544433 270.468056 268.272549 269.941225 266.946533 269.941225 
C 265.620518 269.941225 264.348634 270.468056 263.411 271.405691 
C 262.473365 272.343325 261.946533 273.615209 261.946533 274.941225 
C 261.946533 276.26724 262.473365 277.539124 263.411 278.476759 
C 264.348634 279.414393 265.620518 279.941225 266.946533 279.941225 
z
" style="fill:#0000cd;stroke:#0000cd;"/>
    <path clip-path="url(#pec681e941c)" d="M 261.568686 252.45244 
C 262.894701 252.45244 264.166585 251.925609 265.10422 250.987974 
C 266.041854 250.05034 266.568686 248.778456 266.568686 247.45244 
C 266.568686 246.126425 266.041854 244.854541 265.10422 243.916907 
C 264.166585 242.979272 262.894701 242.45244 261.568686 242.45244 
C 260.24267 242.45244 258.970787 242.979272 258.033152 243.916907 
C 257.095518 244.854541 256.568686 246.126425 256.568686 247.45244 
C 256.568686 248.778456 257.095518 250.05034 258.033152 250.987974 
C 258.970787 251.925609 260.24267 252.45244 261.568686 252.45244 
z
" style="fill:#deb887;stroke:#deb887;"/>
   </g>
   <g id="matplotlib.axis_1">
    <g id="xtick_1">
     <g id="line2d_1">
      <defs>
       <path d="M 0 0 
L 0 3.5 
" id="m91cf5be1f8" style="stroke:#000000;stroke-width:0.8;"/>
      </defs>
      <g>
       <use style="stroke:#000000;stroke-width:0.8;" x="258.3" xlink:href="#m91cf5be1f8" y="576.72"/>
      </g>
     </g>
     <g id="text_1">
      <!-- MeanPD -->
      <g transform="translate(237.811719 591.318438)scale(0.1 -0.1)">
       <defs>
        <path d="M 9.8125 72.90625 
L 24.515625 72.90625 
L 43.109375 23.296875 
L 61.8125 72.90625 
L 76.515625 72.90625 
L 76.515625 0 
L 66.890625 0 
L 66.890625 64.015625 
L 48.09375 14.015625 
L 38.1875 14.015625 
L 19.390625 64.015625 
L 19.390625 0 
L 9.8125 0 
z
" id="DejaVuSans-77"/>
        <path d="M 56.203125 29.59375 
L 56.203125 25.203125 
L 14.890625 25.203125 
Q 15.484375 15.921875 20.484375 11.0625 
Q 25.484375 6.203125 34.421875 6.203125 
Q 39.59375 6.203125 44.453125 7.46875 
Q 49.3125 8.734375 54.109375 11.28125 
L 54.109375 2.78125 
Q 49.265625 0.734375 44.1875 -0.34375 
Q 39.109375 -1.421875 33.890625 -1.421875 
Q 20.796875 -1.421875 13.15625 6.1875 
Q 5.515625 13.8125 5.515625 26.8125 
Q 5.515625 40.234375 12.765625 48.109375 
Q 20.015625 56 32.328125 56 
Q 43.359375 56 49.78125 48.890625 
Q 56.203125 41.796875 56.203125 29.59375 
z
M 47.21875 32.234375 
Q 47.125 39.59375 43.09375 43.984375 
Q 39.0625 48.390625 32.421875 48.390625 
Q 24.90625 48.390625 20.390625 44.140625 
Q 15.875 39.890625 15.1875 32.171875 
z
" id="DejaVuSans-101"/>
        <path d="M 34.28125 27.484375 
Q 23.390625 27.484375 19.1875 25 
Q 14.984375 22.515625 14.984375 16.5 
Q 14.984375 11.71875 18.140625 8.90625 
Q 21.296875 6.109375 26.703125 6.109375 
Q 34.1875 6.109375 38.703125 11.40625 
Q 43.21875 16.703125 43.21875 25.484375 
L 43.21875 27.484375 
z
M 52.203125 31.203125 
L 52.203125 0 
L 43.21875 0 
L 43.21875 8.296875 
Q 40.140625 3.328125 35.546875 0.953125 
Q 30.953125 -1.421875 24.3125 -1.421875 
Q 15.921875 -1.421875 10.953125 3.296875 
Q 6 8.015625 6 15.921875 
Q 6 25.140625 12.171875 29.828125 
Q 18.359375 34.515625 30.609375 34.515625 
L 43.21875 34.515625 
L 43.21875 35.40625 
Q 43.21875 41.609375 39.140625 45 
Q 35.0625 48.390625 27.6875 48.390625 
Q 23 48.390625 18.546875 47.265625 
Q 14.109375 46.140625 10.015625 43.890625 
L 10.015625 52.203125 
Q 14.9375 54.109375 19.578125 55.046875 
Q 24.21875 56 28.609375 56 
Q 40.484375 56 46.34375 49.84375 
Q 52.203125 43.703125 52.203125 31.203125 
z
" id="DejaVuSans-97"/>
        <path d="M 54.890625 33.015625 
L 54.890625 0 
L 45.90625 0 
L 45.90625 32.71875 
Q 45.90625 40.484375 42.875 44.328125 
Q 39.84375 48.1875 33.796875 48.1875 
Q 26.515625 48.1875 22.3125 43.546875 
Q 18.109375 38.921875 18.109375 30.90625 
L 18.109375 0 
L 9.078125 0 
L 9.078125 54.6875 
L 18.109375 54.6875 
L 18.109375 46.1875 
Q 21.34375 51.125 25.703125 53.5625 
Q 30.078125 56 35.796875 56 
Q 45.21875 56 50.046875 50.171875 
Q 54.890625 44.34375 54.890625 33.015625 
z
" id="DejaVuSans-110"/>
        <path d="M 19.671875 64.796875 
L 19.671875 37.40625 
L 32.078125 37.40625 
Q 38.96875 37.40625 42.71875 40.96875 
Q 46.484375 44.53125 46.484375 51.125 
Q 46.484375 57.671875 42.71875 61.234375 
Q 38.96875 64.796875 32.078125 64.796875 
z
M 9.8125 72.90625 
L 32.078125 72.90625 
Q 44.34375 72.90625 50.609375 67.359375 
Q 56.890625 61.8125 56.890625 51.125 
Q 56.890625 40.328125 50.609375 34.8125 
Q 44.34375 29.296875 32.078125 29.296875 
L 19.671875 29.296875 
L 19.671875 0 
L 9.8125 0 
z
" id="DejaVuSans-80"/>
        <path d="M 19.671875 64.796875 
L 19.671875 8.109375 
L 31.59375 8.109375 
Q 46.6875 8.109375 53.6875 14.9375 
Q 60.6875 21.78125 60.6875 36.53125 
Q 60.6875 51.171875 53.6875 57.984375 
Q 46.6875 64.796875 31.59375 64.796875 
z
M 9.8125 72.90625 
L 30.078125 72.90625 
Q 51.265625 72.90625 61.171875 64.09375 
Q 71.09375 55.28125 71.09375 36.53125 
Q 71.09375 17.671875 61.125 8.828125 
Q 51.171875 0 30.078125 0 
L 9.8125 0 
z
" id="DejaVuSans-68"/>
       </defs>
       <use xlink:href="#DejaVuSans-77"/>
       <use x="86.279297" xlink:href="#DejaVuSans-101"/>
       <use x="147.802734" xlink:href="#DejaVuSans-97"/>
       <use x="209.082031" xlink:href="#DejaVuSans-110"/>
       <use x="272.460938" xlink:href="#DejaVuSans-80"/>
       <use x="332.763672" xlink:href="#DejaVuSans-68"/>
      </g>
     </g>
    </g>
   </g>
   <g id="matplotlib.axis_2">
    <g id="ytick_1">
     <g id="line2d_2">
      <defs>
       <path d="M 0 0 
L -3.5 0 
" id="m4e629fe6c2" style="stroke:#000000;stroke-width:0.8;"/>
      </defs>
      <g>
       <use style="stroke:#000000;stroke-width:0.8;" x="63" xlink:href="#m4e629fe6c2" y="576.72"/>
      </g>
     </g>
     <g id="text_2">
      <!-- −3.5 -->
      <g transform="translate(31.717187 580.519219)scale(0.1 -0.1)">
       <defs>
        <path d="M 10.59375 35.5 
L 73.1875 35.5 
L 73.1875 27.203125 
L 10.59375 27.203125 
z
" id="DejaVuSans-8722"/>
        <path d="M 40.578125 39.3125 
Q 47.65625 37.796875 51.625 33 
Q 55.609375 28.21875 55.609375 21.1875 
Q 55.609375 10.40625 48.1875 4.484375 
Q 40.765625 -1.421875 27.09375 -1.421875 
Q 22.515625 -1.421875 17.65625 -0.515625 
Q 12.796875 0.390625 7.625 2.203125 
L 7.625 11.71875 
Q 11.71875 9.328125 16.59375 8.109375 
Q 21.484375 6.890625 26.8125 6.890625 
Q 36.078125 6.890625 40.9375 10.546875 
Q 45.796875 14.203125 45.796875 21.1875 
Q 45.796875 27.640625 41.28125 31.265625 
Q 36.765625 34.90625 28.71875 34.90625 
L 20.21875 34.90625 
L 20.21875 43.015625 
L 29.109375 43.015625 
Q 36.375 43.015625 40.234375 45.921875 
Q 44.09375 48.828125 44.09375 54.296875 
Q 44.09375 59.90625 40.109375 62.90625 
Q 36.140625 65.921875 28.71875 65.921875 
Q 24.65625 65.921875 20.015625 65.03125 
Q 15.375 64.15625 9.8125 62.3125 
L 9.8125 71.09375 
Q 15.4375 72.65625 20.34375 73.4375 
Q 25.25 74.21875 29.59375 74.21875 
Q 40.828125 74.21875 47.359375 69.109375 
Q 53.90625 64.015625 53.90625 55.328125 
Q 53.90625 49.265625 50.4375 45.09375 
Q 46.96875 40.921875 40.578125 39.3125 
z
" id="DejaVuSans-51"/>
        <path d="M 10.6875 12.40625 
L 21 12.40625 
L 21 0 
L 10.6875 0 
z
" id="DejaVuSans-46"/>
        <path d="M 10.796875 72.90625 
L 49.515625 72.90625 
L 49.515625 64.59375 
L 19.828125 64.59375 
L 19.828125 46.734375 
Q 21.96875 47.46875 24.109375 47.828125 
Q 26.265625 48.1875 28.421875 48.1875 
Q 40.625 48.1875 47.75 41.5 
Q 54.890625 34.8125 54.890625 23.390625 
Q 54.890625 11.625 47.5625 5.09375 
Q 40.234375 -1.421875 26.90625 -1.421875 
Q 22.3125 -1.421875 17.546875 -0.640625 
Q 12.796875 0.140625 7.71875 1.703125 
L 7.71875 11.625 
Q 12.109375 9.234375 16.796875 8.0625 
Q 21.484375 6.890625 26.703125 6.890625 
Q 35.15625 6.890625 40.078125 11.328125 
Q 45.015625 15.765625 45.015625 23.390625 
Q 45.015625 31 40.078125 35.4375 
Q 35.15625 39.890625 26.703125 39.890625 
Q 22.75 39.890625 18.8125 39.015625 
Q 14.890625 38.140625 10.796875 36.28125 
z
" id="DejaVuSans-53"/>
       </defs>
       <use xlink:href="#DejaVuSans-8722"/>
       <use x="83.789062" xlink:href="#DejaVuSans-51"/>
       <use x="147.412109" xlink:href="#DejaVuSans-46"/>
       <use x="179.199219" xlink:href="#DejaVuSans-53"/>
      </g>
     </g>
    </g>
    <g id="ytick_2">
     <g id="line2d_3">
      <g>
       <use style="stroke:#000000;stroke-width:0.8;" x="63" xlink:href="#m4e629fe6c2" y="538.92"/>
      </g>
     </g>
     <g id="text_3">
      <!-- −3.0 -->
      <g transform="translate(31.717187 542.719219)scale(0.1 -0.1)">
       <defs>
        <path d="M 31.78125 66.40625 
Q 24.171875 66.40625 20.328125 58.90625 
Q 16.5 51.421875 16.5 36.375 
Q 16.5 21.390625 20.328125 13.890625 
Q 24.171875 6.390625 31.78125 6.390625 
Q 39.453125 6.390625 43.28125 13.890625 
Q 47.125 21.390625 47.125 36.375 
Q 47.125 51.421875 43.28125 58.90625 
Q 39.453125 66.40625 31.78125 66.40625 
z
M 31.78125 74.21875 
Q 44.046875 74.21875 50.515625 64.515625 
Q 56.984375 54.828125 56.984375 36.375 
Q 56.984375 17.96875 50.515625 8.265625 
Q 44.046875 -1.421875 31.78125 -1.421875 
Q 19.53125 -1.421875 13.0625 8.265625 
Q 6.59375 17.96875 6.59375 36.375 
Q 6.59375 54.828125 13.0625 64.515625 
Q 19.53125 74.21875 31.78125 74.21875 
z
" id="DejaVuSans-48"/>
       </defs>
       <use xlink:href="#DejaVuSans-8722"/>
       <use x="83.789062" xlink:href="#DejaVuSans-51"/>
       <use x="147.412109" xlink:href="#DejaVuSans-46"/>
       <use x="179.199219" xlink:href="#DejaVuSans-48"/>
      </g>
     </g>
    </g>
    <g id="ytick_3">
     <g id="line2d_4">
      <g>
       <use style="stroke:#000000;stroke-width:0.8;" x="63" xlink:href="#m4e629fe6c2" y="501.12"/>
      </g>
     </g>
     <g id="text_4">
      <!-- −2.5 -->
      <g transform="translate(31.717187 504.919219)scale(0.1 -0.1)">
       <defs>
        <path d="M 19.1875 8.296875 
L 53.609375 8.296875 
L 53.609375 0 
L 7.328125 0 
L 7.328125 8.296875 
Q 12.9375 14.109375 22.625 23.890625 
Q 32.328125 33.6875 34.8125 36.53125 
Q 39.546875 41.84375 41.421875 45.53125 
Q 43.3125 49.21875 43.3125 52.78125 
Q 43.3125 58.59375 39.234375 62.25 
Q 35.15625 65.921875 28.609375 65.921875 
Q 23.96875 65.921875 18.8125 64.3125 
Q 13.671875 62.703125 7.8125 59.421875 
L 7.8125 69.390625 
Q 13.765625 71.78125 18.9375 73 
Q 24.125 74.21875 28.421875 74.21875 
Q 39.75 74.21875 46.484375 68.546875 
Q 53.21875 62.890625 53.21875 53.421875 
Q 53.21875 48.921875 51.53125 44.890625 
Q 49.859375 40.875 45.40625 35.40625 
Q 44.1875 33.984375 37.640625 27.21875 
Q 31.109375 20.453125 19.1875 8.296875 
z
" id="DejaVuSans-50"/>
       </defs>
       <use xlink:href="#DejaVuSans-8722"/>
       <use x="83.789062" xlink:href="#DejaVuSans-50"/>
       <use x="147.412109" xlink:href="#DejaVuSans-46"/>
       <use x="179.199219" xlink:href="#DejaVuSans-53"/>
      </g>
     </g>
    </g>
    <g id="ytick_4">
     <g id="line2d_5">
      <g>
       <use style="stroke:#000000;stroke-width:0.8;" x="63" xlink:href="#m4e629fe6c2" y="463.32"/>
      </g>
     </g>
     <g id="text_5">
      <!-- −2.0 -->
      <g transform="translate(31.717187 467.119219)scale(0.1 -0.1)">
       <use xlink:href="#DejaVuSans-8722"/>
       <use x="83.789062" xlink:href="#DejaVuSans-50"/>
       <use x="147.412109" xlink:href="#DejaVuSans-46"/>
       <use x="179.199219" xlink:href="#DejaVuSans-48"/>
      </g>
     </g>
    </g>
    <g id="ytick_5">
     <g id="line2d_6">
      <g>
       <use style="stroke:#000000;stroke-width:0.8;" x="63" xlink:href="#m4e629fe6c2" y="425.52"/>
      </g>
     </g>
     <g id="text_6">
      <!-- −1.5 -->
      <g transform="translate(31.717187 429.319219)scale(0.1 -0.1)">
       <defs>
        <path d="M 12.40625 8.296875 
L 28.515625 8.296875 
L 28.515625 63.921875 
L 10.984375 60.40625 
L 10.984375 69.390625 
L 28.421875 72.90625 
L 38.28125 72.90625 
L 38.28125 8.296875 
L 54.390625 8.296875 
L 54.390625 0 
L 12.40625 0 
z
" id="DejaVuSans-49"/>
       </defs>
       <use xlink:href="#DejaVuSans-8722"/>
       <use x="83.789062" xlink:href="#DejaVuSans-49"/>
       <use x="147.412109" xlink:href="#DejaVuSans-46"/>
       <use x="179.199219" xlink:href="#DejaVuSans-53"/>
      </g>
     </g>
    </g>
    <g id="ytick_6">
     <g id="line2d_7">
      <g>
       <use style="stroke:#000000;stroke-width:0.8;" x="63" xlink:href="#m4e629fe6c2" y="387.72"/>
      </g>
     </g>
     <g id="text_7">
      <!-- −1.0 -->
      <g transform="translate(31.717187 391.519219)scale(0.1 -0.1)">
       <use xlink:href="#DejaVuSans-8722"/>
       <use x="83.789062" xlink:href="#DejaVuSans-49"/>
       <use x="147.412109" xlink:href="#DejaVuSans-46"/>
       <use x="179.199219" xlink:href="#DejaVuSans-48"/>
      </g>
     </g>
    </g>
    <g id="ytick_7">
     <g id="line2d_8">
      <g>
       <use style="stroke:#000000;stroke-width:0.8;" x="63" xlink:href="#m4e629fe6c2" y="349.92"/>
      </g>
     </g>
     <g id="text_8">
      <!-- −0.5 -->
      <g transform="translate(31.717187 353.719219)scale(0.1 -0.1)">
       <use xlink:href="#DejaVuSans-8722"/>
       <use x="83.789062" xlink:href="#DejaVuSans-48"/>
       <use x="147.412109" xlink:href="#DejaVuSans-46"/>
       <use x="179.199219" xlink:href="#DejaVuSans-53"/>
      </g>
     </g>
    </g>
    <g id="ytick_8">
     <g id="line2d_9">
      <g>
       <use style="stroke:#000000;stroke-width:0.8;" x="63" xlink:href="#m4e629fe6c2" y="312.12"/>
      </g>
     </g>
     <g id="text_9">
      <!-- 0.0 -->
      <g transform="translate(40.096875 315.919219)scale(0.1 -0.1)">
       <use xlink:href="#DejaVuSans-48"/>
       <use x="63.623047" xlink:href="#DejaVuSans-46"/>
       <use x="95.410156" xlink:href="#DejaVuSans-48"/>
      </g>
     </g>
    </g>
    <g id="ytick_9">
     <g id="line2d_10">
      <g>
       <use style="stroke:#000000;stroke-width:0.8;" x="63" xlink:href="#m4e629fe6c2" y="274.32"/>
      </g>
     </g>
     <g id="text_10">
      <!-- 0.5 -->
      <g transform="translate(40.096875 278.119219)scale(0.1 -0.1)">
       <use xlink:href="#DejaVuSans-48"/>
       <use x="63.623047" xlink:href="#DejaVuSans-46"/>
       <use x="95.410156" xlink:href="#DejaVuSans-53"/>
      </g>
     </g>
    </g>
    <g id="ytick_10">
     <g id="line2d_11">
      <g>
       <use style="stroke:#000000;stroke-width:0.8;" x="63" xlink:href="#m4e629fe6c2" y="236.52"/>
      </g>
     </g>
     <g id="text_11">
      <!-- 1.0 -->
      <g transform="translate(40.096875 240.319219)scale(0.1 -0.1)">
       <use xlink:href="#DejaVuSans-49"/>
       <use x="63.623047" xlink:href="#DejaVuSans-46"/>
       <use x="95.410156" xlink:href="#DejaVuSans-48"/>
      </g>
     </g>
    </g>
    <g id="ytick_11">
     <g id="line2d_12">
      <g>
       <use style="stroke:#000000;stroke-width:0.8;" x="63" xlink:href="#m4e629fe6c2" y="198.72"/>
      </g>
     </g>
     <g id="text_12">
      <!-- 1.5 -->
      <g transform="translate(40.096875 202.519219)scale(0.1 -0.1)">
       <use xlink:href="#DejaVuSans-49"/>
       <use x="63.623047" xlink:href="#DejaVuSans-46"/>
       <use x="95.410156" xlink:href="#DejaVuSans-53"/>
      </g>
     </g>
    </g>
    <g id="ytick_12">
     <g id="line2d_13">
      <g>
       <use style="stroke:#000000;stroke-width:0.8;" x="63" xlink:href="#m4e629fe6c2" y="160.92"/>
      </g>
     </g>
     <g id="text_13">
      <!-- 2.0 -->
      <g transform="translate(40.096875 164.719219)scale(0.1 -0.1)">
       <use xlink:href="#DejaVuSans-50"/>
       <use x="63.623047" xlink:href="#DejaVuSans-46"/>
       <use x="95.410156" xlink:href="#DejaVuSans-48"/>
      </g>
     </g>
    </g>
    <g id="ytick_13">
     <g id="line2d_14">
      <g>
       <use style="stroke:#000000;stroke-width:0.8;" x="63" xlink:href="#m4e629fe6c2" y="123.12"/>
      </g>
     </g>
     <g id="text_14">
      <!-- 2.5 -->
      <g transform="translate(40.096875 126.919219)scale(0.1 -0.1)">
       <use xlink:href="#DejaVuSans-50"/>
       <use x="63.623047" xlink:href="#DejaVuSans-46"/>
       <use x="95.410156" xlink:href="#DejaVuSans-53"/>
      </g>
     </g>
    </g>
    <g id="ytick_14">
     <g id="line2d_15">
      <g>
       <use style="stroke:#000000;stroke-width:0.8;" x="63" xlink:href="#m4e629fe6c2" y="85.32"/>
      </g>
     </g>
     <g id="text_15">
      <!-- 3.0 -->
      <g transform="translate(40.096875 89.119219)scale(0.1 -0.1)">
       <use xlink:href="#DejaVuSans-51"/>
       <use x="63.623047" xlink:href="#DejaVuSans-46"/>
       <use x="95.410156" xlink:href="#DejaVuSans-48"/>
      </g>
     </g>
    </g>
    <g id="text_16">
     <!-- LogOdds -->
     <g transform="translate(25.6375 349.061094)rotate(-90)scale(0.1 -0.1)">
      <defs>
       <path d="M 9.8125 72.90625 
L 19.671875 72.90625 
L 19.671875 8.296875 
L 55.171875 8.296875 
L 55.171875 0 
L 9.8125 0 
z
" id="DejaVuSans-76"/>
       <path d="M 30.609375 48.390625 
Q 23.390625 48.390625 19.1875 42.75 
Q 14.984375 37.109375 14.984375 27.296875 
Q 14.984375 17.484375 19.15625 11.84375 
Q 23.34375 6.203125 30.609375 6.203125 
Q 37.796875 6.203125 41.984375 11.859375 
Q 46.1875 17.53125 46.1875 27.296875 
Q 46.1875 37.015625 41.984375 42.703125 
Q 37.796875 48.390625 30.609375 48.390625 
z
M 30.609375 56 
Q 42.328125 56 49.015625 48.375 
Q 55.71875 40.765625 55.71875 27.296875 
Q 55.71875 13.875 49.015625 6.21875 
Q 42.328125 -1.421875 30.609375 -1.421875 
Q 18.84375 -1.421875 12.171875 6.21875 
Q 5.515625 13.875 5.515625 27.296875 
Q 5.515625 40.765625 12.171875 48.375 
Q 18.84375 56 30.609375 56 
z
" id="DejaVuSans-111"/>
       <path d="M 45.40625 27.984375 
Q 45.40625 37.75 41.375 43.109375 
Q 37.359375 48.484375 30.078125 48.484375 
Q 22.859375 48.484375 18.828125 43.109375 
Q 14.796875 37.75 14.796875 27.984375 
Q 14.796875 18.265625 18.828125 12.890625 
Q 22.859375 7.515625 30.078125 7.515625 
Q 37.359375 7.515625 41.375 12.890625 
Q 45.40625 18.265625 45.40625 27.984375 
z
M 54.390625 6.78125 
Q 54.390625 -7.171875 48.1875 -13.984375 
Q 42 -20.796875 29.203125 -20.796875 
Q 24.46875 -20.796875 20.265625 -20.09375 
Q 16.0625 -19.390625 12.109375 -17.921875 
L 12.109375 -9.1875 
Q 16.0625 -11.328125 19.921875 -12.34375 
Q 23.78125 -13.375 27.78125 -13.375 
Q 36.625 -13.375 41.015625 -8.765625 
Q 45.40625 -4.15625 45.40625 5.171875 
L 45.40625 9.625 
Q 42.625 4.78125 38.28125 2.390625 
Q 33.9375 0 27.875 0 
Q 17.828125 0 11.671875 7.65625 
Q 5.515625 15.328125 5.515625 27.984375 
Q 5.515625 40.671875 11.671875 48.328125 
Q 17.828125 56 27.875 56 
Q 33.9375 56 38.28125 53.609375 
Q 42.625 51.21875 45.40625 46.390625 
L 45.40625 54.6875 
L 54.390625 54.6875 
z
" id="DejaVuSans-103"/>
       <path d="M 39.40625 66.21875 
Q 28.65625 66.21875 22.328125 58.203125 
Q 16.015625 50.203125 16.015625 36.375 
Q 16.015625 22.609375 22.328125 14.59375 
Q 28.65625 6.59375 39.40625 6.59375 
Q 50.140625 6.59375 56.421875 14.59375 
Q 62.703125 22.609375 62.703125 36.375 
Q 62.703125 50.203125 56.421875 58.203125 
Q 50.140625 66.21875 39.40625 66.21875 
z
M 39.40625 74.21875 
Q 54.734375 74.21875 63.90625 63.9375 
Q 73.09375 53.65625 73.09375 36.375 
Q 73.09375 19.140625 63.90625 8.859375 
Q 54.734375 -1.421875 39.40625 -1.421875 
Q 24.03125 -1.421875 14.8125 8.828125 
Q 5.609375 19.09375 5.609375 36.375 
Q 5.609375 53.65625 14.8125 63.9375 
Q 24.03125 74.21875 39.40625 74.21875 
z
" id="DejaVuSans-79"/>
       <path d="M 45.40625 46.390625 
L 45.40625 75.984375 
L 54.390625 75.984375 
L 54.390625 0 
L 45.40625 0 
L 45.40625 8.203125 
Q 42.578125 3.328125 38.25 0.953125 
Q 33.9375 -1.421875 27.875 -1.421875 
Q 17.96875 -1.421875 11.734375 6.484375 
Q 5.515625 14.40625 5.515625 27.296875 
Q 5.515625 40.1875 11.734375 48.09375 
Q 17.96875 56 27.875 56 
Q 33.9375 56 38.25 53.625 
Q 42.578125 51.265625 45.40625 46.390625 
z
M 14.796875 27.296875 
Q 14.796875 17.390625 18.875 11.75 
Q 22.953125 6.109375 30.078125 6.109375 
Q 37.203125 6.109375 41.296875 11.75 
Q 45.40625 17.390625 45.40625 27.296875 
Q 45.40625 37.203125 41.296875 42.84375 
Q 37.203125 48.484375 30.078125 48.484375 
Q 22.953125 48.484375 18.875 42.84375 
Q 14.796875 37.203125 14.796875 27.296875 
z
" id="DejaVuSans-100"/>
       <path d="M 44.28125 53.078125 
L 44.28125 44.578125 
Q 40.484375 46.53125 36.375 47.5 
Q 32.28125 48.484375 27.875 48.484375 
Q 21.1875 48.484375 17.84375 46.4375 
Q 14.5 44.390625 14.5 40.28125 
Q 14.5 37.15625 16.890625 35.375 
Q 19.28125 33.59375 26.515625 31.984375 
L 29.59375 31.296875 
Q 39.15625 29.25 43.1875 25.515625 
Q 47.21875 21.78125 47.21875 15.09375 
Q 47.21875 7.46875 41.1875 3.015625 
Q 35.15625 -1.421875 24.609375 -1.421875 
Q 20.21875 -1.421875 15.453125 -0.5625 
Q 10.6875 0.296875 5.421875 2 
L 5.421875 11.28125 
Q 10.40625 8.6875 15.234375 7.390625 
Q 20.0625 6.109375 24.8125 6.109375 
Q 31.15625 6.109375 34.5625 8.28125 
Q 37.984375 10.453125 37.984375 14.40625 
Q 37.984375 18.0625 35.515625 20.015625 
Q 33.0625 21.96875 24.703125 23.78125 
L 21.578125 24.515625 
Q 13.234375 26.265625 9.515625 29.90625 
Q 5.8125 33.546875 5.8125 39.890625 
Q 5.8125 47.609375 11.28125 51.796875 
Q 16.75 56 26.8125 56 
Q 31.78125 56 36.171875 55.265625 
Q 40.578125 54.546875 44.28125 53.078125 
z
" id="DejaVuSans-115"/>
      </defs>
      <use xlink:href="#DejaVuSans-76"/>
      <use x="53.962891" xlink:href="#DejaVuSans-111"/>
      <use x="115.144531" xlink:href="#DejaVuSans-103"/>
      <use x="178.621094" xlink:href="#DejaVuSans-79"/>
      <use x="257.332031" xlink:href="#DejaVuSans-100"/>
      <use x="320.808594" xlink:href="#DejaVuSans-100"/>
      <use x="384.285156" xlink:href="#DejaVuSans-115"/>
     </g>
    </g>
   </g>
   <g id="line2d_16">
    <path clip-path="url(#pec681e941c)" d="M 229.005 259.507451 
L 287.595 259.507451 
L 287.595 229.952377 
L 229.005 229.952377 
L 229.005 259.507451 
" style="fill:none;stroke:#000000;stroke-linecap:square;"/>
   </g>
   <g id="line2d_17">
    <path clip-path="url(#pec681e941c)" d="M 258.3 259.507451 
L 258.3 288.800821 
" style="fill:none;stroke:#000000;stroke-linecap:square;"/>
   </g>
   <g id="line2d_18">
    <path clip-path="url(#pec681e941c)" d="M 258.3 229.952377 
L 258.3 200.85497 
" style="fill:none;stroke:#000000;stroke-linecap:square;"/>
   </g>
   <g id="line2d_19">
    <path clip-path="url(#pec681e941c)" d="M 243.6525 288.800821 
L 272.9475 288.800821 
" style="fill:none;stroke:#000000;stroke-linecap:square;"/>
   </g>
   <g id="line2d_20">
    <path clip-path="url(#pec681e941c)" d="M 243.6525 200.85497 
L 272.9475 200.85497 
" style="fill:none;stroke:#000000;stroke-linecap:square;"/>
   </g>
   <g id="line2d_21">
    <path clip-path="url(#pec681e941c)" d="M 229.005 246.373129 
L 287.595 246.373129 
" style="fill:none;stroke:#ff7f0e;stroke-linecap:square;"/>
   </g>
   <g id="patch_3">
    <path d="M 63 576.72 
L 63 77.76 
" style="fill:none;stroke:#000000;stroke-linecap:square;stroke-linejoin:miter;stroke-width:0.8;"/>
   </g>
   <g id="patch_4">
    <path d="M 453.6 576.72 
L 453.6 77.76 
" style="fill:none;stroke:#000000;stroke-linecap:square;stroke-linejoin:miter;stroke-width:0.8;"/>
   </g>
   <g id="patch_5">
    <path d="M 63 576.72 
L 453.6 576.72 
" style="fill:none;stroke:#000000;stroke-linecap:square;stroke-linejoin:miter;stroke-width:0.8;"/>
   </g>
   <g id="patch_6">
    <path d="M 63 77.76 
L 453.6 77.76 
" style="fill:none;stroke:#000000;stroke-linecap:square;stroke-linejoin:miter;stroke-width:0.8;"/>
   </g>
   <g id="text_17">
    <!-- 0 -->
    <g style="fill:#2f4f4f;" transform="translate(280.59019 255.50405)scale(0.1 -0.1)">
     <use xlink:href="#DejaVuSans-48"/>
    </g>
   </g>
   <g id="text_18">
    <!-- 1 -->
    <g style="fill:#556b2f;" transform="translate(246.699751 282.897599)scale(0.1 -0.1)">
     <use xlink:href="#DejaVuSans-49"/>
    </g>
   </g>
   <g id="text_19">
    <!-- 2 -->
    <g style="fill:#8b4513;" transform="translate(266.109089 229.877107)scale(0.1 -0.1)">
     <use xlink:href="#DejaVuSans-50"/>
    </g>
   </g>
   <g id="text_20">
    <!-- 3.0 -->
    <g style="fill:#2e8b57;" transform="translate(270.186053 258.792979)scale(0.1 -0.1)">
     <use xlink:href="#DejaVuSans-51"/>
     <use x="63.623047" xlink:href="#DejaVuSans-46"/>
     <use x="95.410156" xlink:href="#DejaVuSans-48"/>
    </g>
   </g>
   <g id="text_21">
    <!-- 4.0 -->
    <g style="fill:#228b22;" transform="translate(245.628725 257.072623)scale(0.1 -0.1)">
     <defs>
      <path d="M 37.796875 64.3125 
L 12.890625 25.390625 
L 37.796875 25.390625 
z
M 35.203125 72.90625 
L 47.609375 72.90625 
L 47.609375 25.390625 
L 58.015625 25.390625 
L 58.015625 17.1875 
L 47.609375 17.1875 
L 47.609375 0 
L 37.796875 0 
L 37.796875 17.1875 
L 4.890625 17.1875 
L 4.890625 26.703125 
z
" id="DejaVuSans-52"/>
     </defs>
     <use xlink:href="#DejaVuSans-52"/>
     <use x="63.623047" xlink:href="#DejaVuSans-46"/>
     <use x="95.410156" xlink:href="#DejaVuSans-48"/>
    </g>
   </g>
   <g id="text_22">
    <!-- 5 -->
    <g style="fill:#708090;" transform="translate(256.586296 211.465875)scale(0.1 -0.1)">
     <use xlink:href="#DejaVuSans-53"/>
    </g>
   </g>
   <g id="text_23">
    <!-- 6 -->
    <g style="fill:#8b0000;" transform="translate(251.021918 228.969466)scale(0.1 -0.1)">
     <defs>
      <path d="M 33.015625 40.375 
Q 26.375 40.375 22.484375 35.828125 
Q 18.609375 31.296875 18.609375 23.390625 
Q 18.609375 15.53125 22.484375 10.953125 
Q 26.375 6.390625 33.015625 6.390625 
Q 39.65625 6.390625 43.53125 10.953125 
Q 47.40625 15.53125 47.40625 23.390625 
Q 47.40625 31.296875 43.53125 35.828125 
Q 39.65625 40.375 33.015625 40.375 
z
M 52.59375 71.296875 
L 52.59375 62.3125 
Q 48.875 64.0625 45.09375 64.984375 
Q 41.3125 65.921875 37.59375 65.921875 
Q 27.828125 65.921875 22.671875 59.328125 
Q 17.53125 52.734375 16.796875 39.40625 
Q 19.671875 43.65625 24.015625 45.921875 
Q 28.375 48.1875 33.59375 48.1875 
Q 44.578125 48.1875 50.953125 41.515625 
Q 57.328125 34.859375 57.328125 23.390625 
Q 57.328125 12.15625 50.6875 5.359375 
Q 44.046875 -1.421875 33.015625 -1.421875 
Q 20.359375 -1.421875 13.671875 8.265625 
Q 6.984375 17.96875 6.984375 36.375 
Q 6.984375 53.65625 15.1875 63.9375 
Q 23.390625 74.21875 37.203125 74.21875 
Q 40.921875 74.21875 44.703125 73.484375 
Q 48.484375 72.75 52.59375 71.296875 
z
" id="DejaVuSans-54"/>
     </defs>
     <use xlink:href="#DejaVuSans-54"/>
    </g>
   </g>
   <g id="text_24">
    <!-- 7 -->
    <g style="fill:#808000;" transform="translate(290.622912 244.537818)scale(0.1 -0.1)">
     <defs>
      <path d="M 8.203125 72.90625 
L 55.078125 72.90625 
L 55.078125 68.703125 
L 28.609375 0 
L 18.3125 0 
L 43.21875 64.59375 
L 8.203125 64.59375 
z
" id="DejaVuSans-55"/>
     </defs>
     <use xlink:href="#DejaVuSans-55"/>
    </g>
   </g>
   <g id="text_25">
    <!-- 8.0 -->
    <g style="fill:#008080;" transform="translate(261.862624 200.09897)scale(0.1 -0.1)">
     <defs>
      <path d="M 31.78125 34.625 
Q 24.75 34.625 20.71875 30.859375 
Q 16.703125 27.09375 16.703125 20.515625 
Q 16.703125 13.921875 20.71875 10.15625 
Q 24.75 6.390625 31.78125 6.390625 
Q 38.8125 6.390625 42.859375 10.171875 
Q 46.921875 13.96875 46.921875 20.515625 
Q 46.921875 27.09375 42.890625 30.859375 
Q 38.875 34.625 31.78125 34.625 
z
M 21.921875 38.8125 
Q 15.578125 40.375 12.03125 44.71875 
Q 8.5 49.078125 8.5 55.328125 
Q 8.5 64.0625 14.71875 69.140625 
Q 20.953125 74.21875 31.78125 74.21875 
Q 42.671875 74.21875 48.875 69.140625 
Q 55.078125 64.0625 55.078125 55.328125 
Q 55.078125 49.078125 51.53125 44.71875 
Q 48 40.375 41.703125 38.8125 
Q 48.828125 37.15625 52.796875 32.3125 
Q 56.78125 27.484375 56.78125 20.515625 
Q 56.78125 9.90625 50.3125 4.234375 
Q 43.84375 -1.421875 31.78125 -1.421875 
Q 19.734375 -1.421875 13.25 4.234375 
Q 6.78125 9.90625 6.78125 20.515625 
Q 6.78125 27.484375 10.78125 32.3125 
Q 14.796875 37.15625 21.921875 38.8125 
z
M 18.3125 54.390625 
Q 18.3125 48.734375 21.84375 45.5625 
Q 25.390625 42.390625 31.78125 42.390625 
Q 38.140625 42.390625 41.71875 45.5625 
Q 45.3125 48.734375 45.3125 54.390625 
Q 45.3125 60.0625 41.71875 63.234375 
Q 38.140625 66.40625 31.78125 66.40625 
Q 25.390625 66.40625 21.84375 63.234375 
Q 18.3125 60.0625 18.3125 54.390625 
z
" id="DejaVuSans-56"/>
     </defs>
     <use xlink:href="#DejaVuSans-56"/>
     <use x="63.623047" xlink:href="#DejaVuSans-46"/>
     <use x="95.410156" xlink:href="#DejaVuSans-48"/>
    </g>
   </g>
   <g id="text_26">
    <!-- 9 -->
    <g style="fill:#b8860b;" transform="translate(267.916683 239.932887)scale(0.1 -0.1)">
     <defs>
      <path d="M 10.984375 1.515625 
L 10.984375 10.5 
Q 14.703125 8.734375 18.5 7.8125 
Q 22.3125 6.890625 25.984375 6.890625 
Q 35.75 6.890625 40.890625 13.453125 
Q 46.046875 20.015625 46.78125 33.40625 
Q 43.953125 29.203125 39.59375 26.953125 
Q 35.25 24.703125 29.984375 24.703125 
Q 19.046875 24.703125 12.671875 31.3125 
Q 6.296875 37.9375 6.296875 49.421875 
Q 6.296875 60.640625 12.9375 67.421875 
Q 19.578125 74.21875 30.609375 74.21875 
Q 43.265625 74.21875 49.921875 64.515625 
Q 56.59375 54.828125 56.59375 36.375 
Q 56.59375 19.140625 48.40625 8.859375 
Q 40.234375 -1.421875 26.421875 -1.421875 
Q 22.703125 -1.421875 18.890625 -0.6875 
Q 15.09375 0.046875 10.984375 1.515625 
z
M 30.609375 32.421875 
Q 37.25 32.421875 41.125 36.953125 
Q 45.015625 41.5 45.015625 49.421875 
Q 45.015625 57.28125 41.125 61.84375 
Q 37.25 66.40625 30.609375 66.40625 
Q 23.96875 66.40625 20.09375 61.84375 
Q 16.21875 57.28125 16.21875 49.421875 
Q 16.21875 41.5 20.09375 36.953125 
Q 23.96875 32.421875 30.609375 32.421875 
z
" id="DejaVuSans-57"/>
     </defs>
     <use xlink:href="#DejaVuSans-57"/>
    </g>
   </g>
   <g id="text_27">
    <!-- 10 -->
    <g style="fill:#4682b4;" transform="translate(286.566624 225.307012)scale(0.1 -0.1)">
     <use xlink:href="#DejaVuSans-49"/>
     <use x="63.623047" xlink:href="#DejaVuSans-48"/>
    </g>
   </g>
   <g id="text_28">
    <!-- 11.0 -->
    <g style="fill:#9acd32;" transform="translate(255.044242 258.626869)scale(0.1 -0.1)">
     <use xlink:href="#DejaVuSans-49"/>
     <use x="63.623047" xlink:href="#DejaVuSans-49"/>
     <use x="127.246094" xlink:href="#DejaVuSans-46"/>
     <use x="159.033203" xlink:href="#DejaVuSans-48"/>
    </g>
   </g>
   <g id="text_29">
    <!-- 12.0 -->
    <g style="fill:#32cd32;" transform="translate(247.555078 219.627572)scale(0.1 -0.1)">
     <use xlink:href="#DejaVuSans-49"/>
     <use x="63.623047" xlink:href="#DejaVuSans-50"/>
     <use x="127.246094" xlink:href="#DejaVuSans-46"/>
     <use x="159.033203" xlink:href="#DejaVuSans-48"/>
    </g>
   </g>
   <g id="text_30">
    <!-- 12.1 -->
    <g style="fill:#8fbc8f;" transform="translate(270.318482 261.306291)scale(0.1 -0.1)">
     <use xlink:href="#DejaVuSans-49"/>
     <use x="63.623047" xlink:href="#DejaVuSans-50"/>
     <use x="127.246094" xlink:href="#DejaVuSans-46"/>
     <use x="159.033203" xlink:href="#DejaVuSans-49"/>
    </g>
   </g>
   <g id="text_31">
    <!-- 13 -->
    <g style="fill:#800080;" transform="translate(295.25019 236.238084)scale(0.1 -0.1)">
     <use xlink:href="#DejaVuSans-49"/>
     <use x="63.623047" xlink:href="#DejaVuSans-51"/>
    </g>
   </g>
   <g id="text_32">
    <!-- 11.1 -->
    <g style="fill:#b03060;" transform="translate(283.063123 252.889472)scale(0.1 -0.1)">
     <use xlink:href="#DejaVuSans-49"/>
     <use x="63.623047" xlink:href="#DejaVuSans-49"/>
     <use x="127.246094" xlink:href="#DejaVuSans-46"/>
     <use x="159.033203" xlink:href="#DejaVuSans-49"/>
    </g>
   </g>
   <g id="text_33">
    <!-- 14 -->
    <g style="fill:#9932cc;" transform="translate(259.500726 288.044821)scale(0.1 -0.1)">
     <use xlink:href="#DejaVuSans-49"/>
     <use x="63.623047" xlink:href="#DejaVuSans-52"/>
    </g>
   </g>
   <g id="text_34">
    <!-- 15.0 -->
    <g style="fill:#ff4500;" transform="translate(247.477497 235.690486)scale(0.1 -0.1)">
     <use xlink:href="#DejaVuSans-49"/>
     <use x="63.623047" xlink:href="#DejaVuSans-53"/>
     <use x="127.246094" xlink:href="#DejaVuSans-46"/>
     <use x="159.033203" xlink:href="#DejaVuSans-48"/>
    </g>
   </g>
   <g id="text_35">
    <!-- 16 -->
    <g style="fill:#00ced1;" transform="translate(281.669321 226.005696)scale(0.1 -0.1)">
     <use xlink:href="#DejaVuSans-49"/>
     <use x="63.623047" xlink:href="#DejaVuSans-54"/>
    </g>
   </g>
   <g id="text_36">
    <!-- 17 -->
    <g style="fill:#ffd700;" transform="translate(268.199624 304.213446)scale(0.1 -0.1)">
     <use xlink:href="#DejaVuSans-49"/>
     <use x="63.623047" xlink:href="#DejaVuSans-55"/>
    </g>
   </g>
   <g id="text_37">
    <!-- 18.0 -->
    <g style="fill:#0000cd;" transform="translate(270.852533 274.185225)scale(0.1 -0.1)">
     <use xlink:href="#DejaVuSans-49"/>
     <use x="63.623047" xlink:href="#DejaVuSans-56"/>
     <use x="127.246094" xlink:href="#DejaVuSans-46"/>
     <use x="159.033203" xlink:href="#DejaVuSans-48"/>
    </g>
   </g>
   <g id="text_38">
    <!-- 4.1 -->
    <g style="fill:#deb887;" transform="translate(265.474686 246.69644)scale(0.1 -0.1)">
     <use xlink:href="#DejaVuSans-52"/>
     <use x="63.623047" xlink:href="#DejaVuSans-46"/>
     <use x="95.410156" xlink:href="#DejaVuSans-49"/>
    </g>
   </g>
  </g>
 </g>
 <defs>
  <clipPath id="pec681e941c">
   <rect height="498.96" width="390.6" x="63" y="77.76"/>
  </clipPath>
 </defs>
</svg>
