<?xml version="1.0" encoding="utf-8" standalone="no"?>
<!DOCTYPE svg PUBLIC "-//W3C//DTD SVG 1.1//EN"
  "http://www.w3.org/Graphics/SVG/1.1/DTD/svg11.dtd">
<!-- Created with matplotlib (https://matplotlib.org/) -->
<svg height="648pt" version="1.1" viewBox="0 0 504 648" width="504pt" xmlns="http://www.w3.org/2000/svg" xmlns:xlink="http://www.w3.org/1999/xlink">
 <metadata>
  <rdf:RDF xmlns:cc="http://creativecommons.org/ns#" xmlns:dc="http://purl.org/dc/elements/1.1/" xmlns:rdf="http://www.w3.org/1999/02/22-rdf-syntax-ns#">
   <cc:Work>
    <dc:type rdf:resource="http://purl.org/dc/dcmitype/StillImage"/>
    <dc:date>2023-06-02T19:09:49.814647</dc:date>
    <dc:format>image/svg+xml</dc:format>
    <dc:creator>
     <cc:Agent>
      <dc:title>Matplotlib v3.3.4, https://matplotlib.org/</dc:title>
     </cc:Agent>
    </dc:creator>
   </cc:Work>
  </rdf:RDF>
 </metadata>
 <defs>
  <style type="text/css">*{stroke-linecap:butt;stroke-linejoin:round;}</style>
 </defs>
 <g id="figure_1">
  <g id="patch_1">
   <path d="M 0 648 
L 504 648 
L 504 0 
L 0 0 
z
" style="fill:#ffffff;"/>
  </g>
  <g id="axes_1">
   <g id="patch_2">
    <path d="M 63 576.72 
L 453.6 576.72 
L 453.6 77.76 
L 63 77.76 
z
" style="fill:#ffffff;"/>
   </g>
   <g id="PathCollection_1">
    <path clip-path="url(#p34cadec8b1)" d="M 248.015434 231.197798 
C 250.112049 231.197798 252.123074 230.364804 253.605604 228.882274 
C 255.088135 227.399744 255.921128 225.388719 255.921128 223.292104 
C 255.921128 221.195489 255.088135 219.184464 253.605604 217.701934 
C 252.123074 216.219404 250.112049 215.38641 248.015434 215.38641 
C 245.91882 215.38641 243.907795 216.219404 242.425264 217.701934 
C 240.942734 219.184464 240.10974 221.195489 240.10974 223.292104 
C 240.10974 225.388719 240.942734 227.399744 242.425264 228.882274 
C 243.907795 230.364804 245.91882 231.197798 248.015434 231.197798 
z
" style="fill:#2f4f4f;stroke:#2f4f4f;"/>
    <path clip-path="url(#p34cadec8b1)" d="M 266.314032 206.364825 
C 268.79478 206.364825 271.174257 205.379214 272.928411 203.62506 
C 274.682564 201.870906 275.668176 199.49143 275.668176 197.010682 
C 275.668176 194.529934 274.682564 192.150457 272.928411 190.396304 
C 271.174257 188.64215 268.79478 187.656538 266.314032 187.656538 
C 263.833284 187.656538 261.453808 188.64215 259.699654 190.396304 
C 257.9455 192.150457 256.959889 194.529934 256.959889 197.010682 
C 256.959889 199.49143 257.9455 201.870906 259.699654 203.62506 
C 261.453808 205.379214 263.833284 206.364825 266.314032 206.364825 
z
" style="fill:#556b2f;stroke:#556b2f;"/>
    <path clip-path="url(#p34cadec8b1)" d="M 254.112243 231.218893 
C 256.925146 231.218893 259.623219 230.101315 261.612243 228.112291 
C 263.601266 226.123268 264.718844 223.425195 264.718844 220.612291 
C 264.718844 217.799388 263.601266 215.101315 261.612243 213.112291 
C 259.623219 211.123268 256.925146 210.00569 254.112243 210.00569 
C 251.299339 210.00569 248.601266 211.123268 246.612243 213.112291 
C 244.623219 215.101315 243.505641 217.799388 243.505641 220.612291 
C 243.505641 223.425195 244.623219 226.123268 246.612243 228.112291 
C 248.601266 230.101315 251.299339 231.218893 254.112243 231.218893 
z
" style="fill:#8b4513;stroke:#8b4513;"/>
    <path clip-path="url(#p34cadec8b1)" d="M 263.37355 229.650031 
C 266.186453 229.650031 268.884526 228.532452 270.87355 226.543429 
C 272.862573 224.554406 273.980151 221.856333 273.980151 219.043429 
C 273.980151 216.230525 272.862573 213.532452 270.87355 211.543429 
C 268.884526 209.554406 266.186453 208.436827 263.37355 208.436827 
C 260.560646 208.436827 257.862573 209.554406 255.87355 211.543429 
C 253.884526 213.532452 252.766948 216.230525 252.766948 219.043429 
C 252.766948 221.856333 253.884526 224.554406 255.87355 226.543429 
C 257.862573 228.532452 260.560646 229.650031 263.37355 229.650031 
z
" style="fill:#2e8b57;stroke:#2e8b57;"/>
    <path clip-path="url(#p34cadec8b1)" d="M 242.682374 199.005505 
C 244.778989 199.005505 246.790013 198.172511 248.272544 196.689981 
C 249.755074 195.20745 250.588068 193.196425 250.588068 191.099811 
C 250.588068 189.003196 249.755074 186.992171 248.272544 185.509641 
C 246.790013 184.02711 244.778989 183.194117 242.682374 183.194117 
C 240.585759 183.194117 238.574734 184.02711 237.092204 185.509641 
C 235.609674 186.992171 234.77668 189.003196 234.77668 191.099811 
C 234.77668 193.196425 235.609674 195.20745 237.092204 196.689981 
C 238.574734 198.172511 240.585759 199.005505 242.682374 199.005505 
z
" style="fill:#228b22;stroke:#228b22;"/>
    <path clip-path="url(#p34cadec8b1)" d="M 215.695231 187.234591 
C 218.508134 187.234591 221.206207 186.117012 223.195231 184.127989 
C 225.184254 182.138966 226.301832 179.440893 226.301832 176.627989 
C 226.301832 173.815085 225.184254 171.117012 223.195231 169.127989 
C 221.206207 167.138966 218.508134 166.021387 215.695231 166.021387 
C 212.882327 166.021387 210.184254 167.138966 208.195231 169.127989 
C 206.206207 171.117012 205.088629 173.815085 205.088629 176.627989 
C 205.088629 179.440893 206.206207 182.138966 208.195231 184.127989 
C 210.184254 186.117012 212.882327 187.234591 215.695231 187.234591 
z
" style="fill:#708090;stroke:#708090;"/>
    <path clip-path="url(#p34cadec8b1)" d="M 279.802317 233.452765 
C 281.677586 233.452765 283.476301 232.707713 284.802317 231.381697 
C 286.128332 230.055682 286.873384 228.256966 286.873384 226.381697 
C 286.873384 224.506428 286.128332 222.707713 284.802317 221.381697 
C 283.476301 220.055682 281.677586 219.310629 279.802317 219.310629 
C 277.927047 219.310629 276.128332 220.055682 274.802317 221.381697 
C 273.476301 222.707713 272.731249 224.506428 272.731249 226.381697 
C 272.731249 228.256966 273.476301 230.055682 274.802317 231.381697 
C 276.128332 232.707713 277.927047 233.452765 279.802317 233.452765 
z
" style="fill:#8b0000;stroke:#8b0000;"/>
    <path clip-path="url(#p34cadec8b1)" d="M 249.773344 237.586563 
C 252.070071 237.586563 254.273038 236.674064 255.897069 235.050034 
C 257.5211 233.426003 258.433599 231.223035 258.433599 228.926309 
C 258.433599 226.629583 257.5211 224.426616 255.897069 222.802585 
C 254.273038 221.178554 252.070071 220.266055 249.773344 220.266055 
C 247.476618 220.266055 245.273651 221.178554 243.64962 222.802585 
C 242.025589 224.426616 241.11309 226.629583 241.11309 228.926309 
C 241.11309 231.223035 242.025589 233.426003 243.64962 235.050034 
C 245.273651 236.674064 247.476618 237.586563 249.773344 237.586563 
z
" style="fill:#808000;stroke:#808000;"/>
    <path clip-path="url(#p34cadec8b1)" d="M 253.922943 211.782995 
C 257.032725 211.782995 260.015557 210.547466 262.214505 208.348518 
C 264.413453 206.14957 265.648982 203.166738 265.648982 200.056956 
C 265.648982 196.947174 264.413453 193.964342 262.214505 191.765394 
C 260.015557 189.566446 257.032725 188.330916 253.922943 188.330916 
C 250.813161 188.330916 247.830329 189.566446 245.631381 191.765394 
C 243.432433 193.964342 242.196903 196.947174 242.196903 200.056956 
C 242.196903 203.166738 243.432433 206.14957 245.631381 208.348518 
C 247.830329 210.547466 250.813161 211.782995 253.922943 211.782995 
z
" style="fill:#483d8b;stroke:#483d8b;"/>
    <path clip-path="url(#p34cadec8b1)" d="M 239.27601 237.984177 
C 241.372625 237.984177 243.38365 237.151183 244.86618 235.668653 
C 246.34871 234.186122 247.181704 232.175097 247.181704 230.078483 
C 247.181704 227.981868 246.34871 225.970843 244.86618 224.488313 
C 243.38365 223.005782 241.372625 222.172789 239.27601 222.172789 
C 237.179395 222.172789 235.16837 223.005782 233.68584 224.488313 
C 232.20331 225.970843 231.370316 227.981868 231.370316 230.078483 
C 231.370316 232.175097 232.20331 234.186122 233.68584 235.668653 
C 235.16837 237.151183 237.179395 237.984177 239.27601 237.984177 
z
" style="fill:#008080;stroke:#008080;"/>
    <path clip-path="url(#p34cadec8b1)" d="M 251.237557 201.717099 
C 253.889588 201.717099 256.433356 200.663436 258.308625 198.788166 
C 260.183894 196.912897 261.237557 194.36913 261.237557 191.717099 
C 261.237557 189.065068 260.183894 186.5213 258.308625 184.646031 
C 256.433356 182.770762 253.889588 181.717099 251.237557 181.717099 
C 248.585526 181.717099 246.041758 182.770762 244.166489 184.646031 
C 242.29122 186.5213 241.237557 189.065068 241.237557 191.717099 
C 241.237557 194.36913 242.29122 196.912897 244.166489 198.788166 
C 246.041758 200.663436 248.585526 201.717099 251.237557 201.717099 
z
" style="fill:#b8860b;stroke:#b8860b;"/>
    <path clip-path="url(#p34cadec8b1)" d="M 247.386347 195.882098 
C 250.767036 195.882098 254.009717 194.538936 256.400225 192.148427 
C 258.790733 189.757919 260.133896 186.515238 260.133896 183.134549 
C 260.133896 179.75386 258.790733 176.511179 256.400225 174.120671 
C 254.009717 171.730162 250.767036 170.387 247.386347 170.387 
C 244.005657 170.387 240.762977 171.730162 238.372469 174.120671 
C 235.98196 176.511179 234.638798 179.75386 234.638798 183.134549 
C 234.638798 186.515238 235.98196 189.757919 238.372469 192.148427 
C 240.762977 194.538936 244.005657 195.882098 247.386347 195.882098 
z
" style="fill:#4682b4;stroke:#4682b4;"/>
    <path clip-path="url(#p34cadec8b1)" d="M 237.0134 234.860881 
C 239.310126 234.860881 241.513094 233.948382 243.137124 232.324352 
C 244.761155 230.700321 245.673654 228.497353 245.673654 226.200627 
C 245.673654 223.903901 244.761155 221.700934 243.137124 220.076903 
C 241.513094 218.452872 239.310126 217.540373 237.0134 217.540373 
C 234.716674 217.540373 232.513706 218.452872 230.889676 220.076903 
C 229.265645 221.700934 228.353146 223.903901 228.353146 226.200627 
C 228.353146 228.497353 229.265645 230.700321 230.889676 232.324352 
C 232.513706 233.948382 234.716674 234.860881 237.0134 234.860881 
z
" style="fill:#d2691e;stroke:#d2691e;"/>
    <path clip-path="url(#p34cadec8b1)" d="M 236.428748 199.486536 
C 238.525363 199.486536 240.536388 198.653542 242.018918 197.171012 
C 243.501448 195.688481 244.334442 193.677456 244.334442 191.580842 
C 244.334442 189.484227 243.501448 187.473202 242.018918 185.990672 
C 240.536388 184.508142 238.525363 183.675148 236.428748 183.675148 
C 234.332134 183.675148 232.321109 184.508142 230.838578 185.990672 
C 229.356048 187.473202 228.523054 189.484227 228.523054 191.580842 
C 228.523054 193.677456 229.356048 195.688481 230.838578 197.171012 
C 232.321109 198.653542 234.332134 199.486536 236.428748 199.486536 
z
" style="fill:#9acd32;stroke:#9acd32;"/>
    <path clip-path="url(#p34cadec8b1)" d="M 240.406324 220.369329 
C 242.887072 220.369329 245.266549 219.383717 247.020702 217.629563 
C 248.774856 215.87541 249.760467 213.495933 249.760467 211.015185 
C 249.760467 208.534437 248.774856 206.15496 247.020702 204.400807 
C 245.266549 202.646653 242.887072 201.661042 240.406324 201.661042 
C 237.925576 201.661042 235.546099 202.646653 233.791946 204.400807 
C 232.037792 206.15496 231.052181 208.534437 231.052181 211.015185 
C 231.052181 213.495933 232.037792 215.87541 233.791946 217.629563 
C 235.546099 219.383717 237.925576 220.369329 240.406324 220.369329 
z
" style="fill:#32cd32;stroke:#32cd32;"/>
    <path clip-path="url(#p34cadec8b1)" d="M 269.163839 219.624799 
C 271.039108 219.624799 272.837824 218.879747 274.163839 217.553731 
C 275.489855 216.227716 276.234907 214.429 276.234907 212.553731 
C 276.234907 210.678462 275.489855 208.879747 274.163839 207.553731 
C 272.837824 206.227716 271.039108 205.482664 269.163839 205.482664 
C 267.28857 205.482664 265.489855 206.227716 264.163839 207.553731 
C 262.837824 208.879747 262.092771 210.678462 262.092771 212.553731 
C 262.092771 214.429 262.837824 216.227716 264.163839 217.553731 
C 265.489855 218.879747 267.28857 219.624799 269.163839 219.624799 
z
" style="fill:#8fbc8f;stroke:#8fbc8f;"/>
    <path clip-path="url(#p34cadec8b1)" d="M 223.794436 206.451208 
C 225.891051 206.451208 227.902076 205.618214 229.384606 204.135684 
C 230.867136 202.653153 231.70013 200.642128 231.70013 198.545514 
C 231.70013 196.448899 230.867136 194.437874 229.384606 192.955344 
C 227.902076 191.472813 225.891051 190.63982 223.794436 190.63982 
C 221.697822 190.63982 219.686797 191.472813 218.204266 192.955344 
C 216.721736 194.437874 215.888742 196.448899 215.888742 198.545514 
C 215.888742 200.642128 216.721736 202.653153 218.204266 204.135684 
C 219.686797 205.618214 221.697822 206.451208 223.794436 206.451208 
z
" style="fill:#800080;stroke:#800080;"/>
    <path clip-path="url(#p34cadec8b1)" d="M 254.488516 139.607297 
C 257.453577 139.607297 260.297596 138.429266 262.39421 136.332652 
C 264.490825 134.236037 265.668856 131.392018 265.668856 128.426957 
C 265.668856 125.461897 264.490825 122.617878 262.39421 120.521263 
C 260.297596 118.424649 257.453577 117.246618 254.488516 117.246618 
C 251.523455 117.246618 248.679436 118.424649 246.582822 120.521263 
C 244.486207 122.617878 243.308176 125.461897 243.308176 128.426957 
C 243.308176 131.392018 244.486207 134.236037 246.582822 136.332652 
C 248.679436 138.429266 251.523455 139.607297 254.488516 139.607297 
z
" style="fill:#b03060;stroke:#b03060;"/>
    <path clip-path="url(#p34cadec8b1)" d="M 266.883528 223.41967 
C 269.535559 223.41967 272.079327 222.366007 273.954596 220.490738 
C 275.829865 218.615469 276.883528 216.071701 276.883528 213.41967 
C 276.883528 210.767639 275.829865 208.223871 273.954596 206.348602 
C 272.079327 204.473333 269.535559 203.41967 266.883528 203.41967 
C 264.231497 203.41967 261.68773 204.473333 259.812461 206.348602 
C 257.937192 208.223871 256.883528 210.767639 256.883528 213.41967 
C 256.883528 216.071701 257.937192 218.615469 259.812461 220.490738 
C 261.68773 222.366007 264.231497 223.41967 266.883528 223.41967 
z
" style="fill:#9932cc;stroke:#9932cc;"/>
    <path clip-path="url(#p34cadec8b1)" d="M 263.726992 199.304363 
C 266.379023 199.304363 268.92279 198.2507 270.798059 196.375431 
C 272.673329 194.500162 273.726992 191.956394 273.726992 189.304363 
C 273.726992 186.652332 272.673329 184.108564 270.798059 182.233295 
C 268.92279 180.358026 266.379023 179.304363 263.726992 179.304363 
C 261.074961 179.304363 258.531193 180.358026 256.655924 182.233295 
C 254.780655 184.108564 253.726992 186.652332 253.726992 189.304363 
C 253.726992 191.956394 254.780655 194.500162 256.655924 196.375431 
C 258.531193 198.2507 261.074961 199.304363 263.726992 199.304363 
z
" style="fill:#ff4500;stroke:#ff4500;"/>
    <path clip-path="url(#p34cadec8b1)" d="M 229.353929 214.589206 
C 231.834677 214.589206 234.214154 213.603594 235.968308 211.849441 
C 237.722461 210.095287 238.708073 207.71581 238.708073 205.235063 
C 238.708073 202.754315 237.722461 200.374838 235.968308 198.620684 
C 234.214154 196.866531 231.834677 195.880919 229.353929 195.880919 
C 226.873181 195.880919 224.493705 196.866531 222.739551 198.620684 
C 220.985397 200.374838 219.999786 202.754315 219.999786 205.235063 
C 219.999786 207.71581 220.985397 210.095287 222.739551 211.849441 
C 224.493705 213.603594 226.873181 214.589206 229.353929 214.589206 
z
" style="fill:#00ced1;stroke:#00ced1;"/>
    <path clip-path="url(#p34cadec8b1)" d="M 255.12712 210.550982 
C 257.607868 210.550982 259.987345 209.56537 261.741498 207.811216 
C 263.495652 206.057063 264.481264 203.677586 264.481264 201.196838 
C 264.481264 198.71609 263.495652 196.336613 261.741498 194.58246 
C 259.987345 192.828306 257.607868 191.842695 255.12712 191.842695 
C 252.646372 191.842695 250.266895 192.828306 248.512742 194.58246 
C 246.758588 196.336613 245.772977 198.71609 245.772977 201.196838 
C 245.772977 203.677586 246.758588 206.057063 248.512742 207.811216 
C 250.266895 209.56537 252.646372 210.550982 255.12712 210.550982 
z
" style="fill:#dc143c;stroke:#dc143c;"/>
    <path clip-path="url(#p34cadec8b1)" d="M 254.790734 233.394453 
C 256.666004 233.394453 258.464719 232.649401 259.790734 231.323385 
C 261.11675 229.99737 261.861802 228.198654 261.861802 226.323385 
C 261.861802 224.448116 261.11675 222.649401 259.790734 221.323385 
C 258.464719 219.99737 256.666004 219.252317 254.790734 219.252317 
C 252.915465 219.252317 251.11675 219.99737 249.790734 221.323385 
C 248.464719 222.649401 247.719667 224.448116 247.719667 226.323385 
C 247.719667 228.198654 248.464719 229.99737 249.790734 231.323385 
C 251.11675 232.649401 252.915465 233.394453 254.790734 233.394453 
z
" style="fill:#ffd700;stroke:#ffd700;"/>
    <path clip-path="url(#p34cadec8b1)" d="M 260.497122 237.395536 
C 263.606904 237.395536 266.589736 236.160007 268.788684 233.961059 
C 270.987632 231.762111 272.223162 228.779279 272.223162 225.669497 
C 272.223162 222.559715 270.987632 219.576883 268.788684 217.377935 
C 266.589736 215.178987 263.606904 213.943457 260.497122 213.943457 
C 257.38734 213.943457 254.404508 215.178987 252.20556 217.377935 
C 250.006612 219.576883 248.771083 222.559715 248.771083 225.669497 
C 248.771083 228.779279 250.006612 231.762111 252.20556 233.961059 
C 254.404508 236.160007 257.38734 237.395536 260.497122 237.395536 
z
" style="fill:#0000cd;stroke:#0000cd;"/>
    <path clip-path="url(#p34cadec8b1)" d="M 248.725118 238.192235 
C 250.349149 238.192235 251.906882 237.547001 253.055245 236.398637 
C 254.203609 235.250274 254.848843 233.692541 254.848843 232.06851 
C 254.848843 230.44448 254.203609 228.886747 253.055245 227.738383 
C 251.906882 226.59002 250.349149 225.944786 248.725118 225.944786 
C 247.101088 225.944786 245.543355 226.59002 244.394991 227.738383 
C 243.246628 228.886747 242.601394 230.44448 242.601394 232.06851 
C 242.601394 233.692541 243.246628 235.250274 244.394991 236.398637 
C 245.543355 237.547001 247.101088 238.192235 248.725118 238.192235 
z
" style="fill:#deb887;stroke:#deb887;"/>
    <path clip-path="url(#p34cadec8b1)" d="M 287.886735 231.38517 
C 289.762004 231.38517 291.56072 230.640118 292.886735 229.314102 
C 294.212751 227.988087 294.957803 226.189371 294.957803 224.314102 
C 294.957803 222.438833 294.212751 220.640118 292.886735 219.314102 
C 291.56072 217.988087 289.762004 217.243034 287.886735 217.243034 
C 286.011466 217.243034 284.212751 217.988087 282.886735 219.314102 
C 281.56072 220.640118 280.815667 222.438833 280.815667 224.314102 
C 280.815667 226.189371 281.56072 227.988087 282.886735 229.314102 
C 284.212751 230.640118 286.011466 231.38517 287.886735 231.38517 
z
" style="fill:#00ff00;stroke:#00ff00;"/>
    <path clip-path="url(#p34cadec8b1)" d="M 262.029777 230.519959 
C 263.653807 230.519959 265.211541 229.874725 266.359904 228.726362 
C 267.508267 227.577999 268.153501 226.020266 268.153501 224.396235 
C 268.153501 222.772204 267.508267 221.214471 266.359904 220.066108 
C 265.211541 218.917745 263.653807 218.272511 262.029777 218.272511 
C 260.405746 218.272511 258.848013 218.917745 257.69965 220.066108 
C 256.551287 221.214471 255.906052 222.772204 255.906052 224.396235 
C 255.906052 226.020266 256.551287 227.577999 257.69965 228.726362 
C 258.848013 229.874725 260.405746 230.519959 262.029777 230.519959 
z
" style="fill:#0000ff;stroke:#0000ff;"/>
    <path clip-path="url(#p34cadec8b1)" d="M 259.383335 228.689934 
C 261.007365 228.689934 262.565099 228.0447 263.713462 226.896337 
C 264.861825 225.747974 265.507059 224.19024 265.507059 222.56621 
C 265.507059 220.942179 264.861825 219.384446 263.713462 218.236083 
C 262.565099 217.08772 261.007365 216.442485 259.383335 216.442485 
C 257.759304 216.442485 256.201571 217.08772 255.053208 218.236083 
C 253.904845 219.384446 253.25961 220.942179 253.25961 222.56621 
C 253.25961 224.19024 253.904845 225.747974 255.053208 226.896337 
C 256.201571 228.0447 257.759304 228.689934 259.383335 228.689934 
z
" style="fill:#adff2f;stroke:#adff2f;"/>
    <path clip-path="url(#p34cadec8b1)" d="M 211.163072 223.078754 
C 213.459798 223.078754 215.662765 222.166255 217.286796 220.542224 
C 218.910827 218.918193 219.823326 216.715226 219.823326 214.4185 
C 219.823326 212.121774 218.910827 209.918806 217.286796 208.294775 
C 215.662765 206.670745 213.459798 205.758246 211.163072 205.758246 
C 208.866345 205.758246 206.663378 206.670745 205.039347 208.294775 
C 203.415317 209.918806 202.502818 212.121774 202.502818 214.4185 
C 202.502818 216.715226 203.415317 218.918193 205.039347 220.542224 
C 206.663378 222.166255 208.866345 223.078754 211.163072 223.078754 
z
" style="fill:#da70d6;stroke:#da70d6;"/>
   </g>
   <g id="matplotlib.axis_1">
    <g id="xtick_1">
     <g id="line2d_1">
      <defs>
       <path d="M 0 0 
L 0 3.5 
" id="mc4cafd020f" style="stroke:#000000;stroke-width:0.8;"/>
      </defs>
      <g>
       <use style="stroke:#000000;stroke-width:0.8;" x="258.3" xlink:href="#mc4cafd020f" y="576.72"/>
      </g>
     </g>
     <g id="text_1">
      <!-- MeanPD -->
      <g transform="translate(237.811719 591.318438)scale(0.1 -0.1)">
       <defs>
        <path d="M 9.8125 72.90625 
L 24.515625 72.90625 
L 43.109375 23.296875 
L 61.8125 72.90625 
L 76.515625 72.90625 
L 76.515625 0 
L 66.890625 0 
L 66.890625 64.015625 
L 48.09375 14.015625 
L 38.1875 14.015625 
L 19.390625 64.015625 
L 19.390625 0 
L 9.8125 0 
z
" id="DejaVuSans-77"/>
        <path d="M 56.203125 29.59375 
L 56.203125 25.203125 
L 14.890625 25.203125 
Q 15.484375 15.921875 20.484375 11.0625 
Q 25.484375 6.203125 34.421875 6.203125 
Q 39.59375 6.203125 44.453125 7.46875 
Q 49.3125 8.734375 54.109375 11.28125 
L 54.109375 2.78125 
Q 49.265625 0.734375 44.1875 -0.34375 
Q 39.109375 -1.421875 33.890625 -1.421875 
Q 20.796875 -1.421875 13.15625 6.1875 
Q 5.515625 13.8125 5.515625 26.8125 
Q 5.515625 40.234375 12.765625 48.109375 
Q 20.015625 56 32.328125 56 
Q 43.359375 56 49.78125 48.890625 
Q 56.203125 41.796875 56.203125 29.59375 
z
M 47.21875 32.234375 
Q 47.125 39.59375 43.09375 43.984375 
Q 39.0625 48.390625 32.421875 48.390625 
Q 24.90625 48.390625 20.390625 44.140625 
Q 15.875 39.890625 15.1875 32.171875 
z
" id="DejaVuSans-101"/>
        <path d="M 34.28125 27.484375 
Q 23.390625 27.484375 19.1875 25 
Q 14.984375 22.515625 14.984375 16.5 
Q 14.984375 11.71875 18.140625 8.90625 
Q 21.296875 6.109375 26.703125 6.109375 
Q 34.1875 6.109375 38.703125 11.40625 
Q 43.21875 16.703125 43.21875 25.484375 
L 43.21875 27.484375 
z
M 52.203125 31.203125 
L 52.203125 0 
L 43.21875 0 
L 43.21875 8.296875 
Q 40.140625 3.328125 35.546875 0.953125 
Q 30.953125 -1.421875 24.3125 -1.421875 
Q 15.921875 -1.421875 10.953125 3.296875 
Q 6 8.015625 6 15.921875 
Q 6 25.140625 12.171875 29.828125 
Q 18.359375 34.515625 30.609375 34.515625 
L 43.21875 34.515625 
L 43.21875 35.40625 
Q 43.21875 41.609375 39.140625 45 
Q 35.0625 48.390625 27.6875 48.390625 
Q 23 48.390625 18.546875 47.265625 
Q 14.109375 46.140625 10.015625 43.890625 
L 10.015625 52.203125 
Q 14.9375 54.109375 19.578125 55.046875 
Q 24.21875 56 28.609375 56 
Q 40.484375 56 46.34375 49.84375 
Q 52.203125 43.703125 52.203125 31.203125 
z
" id="DejaVuSans-97"/>
        <path d="M 54.890625 33.015625 
L 54.890625 0 
L 45.90625 0 
L 45.90625 32.71875 
Q 45.90625 40.484375 42.875 44.328125 
Q 39.84375 48.1875 33.796875 48.1875 
Q 26.515625 48.1875 22.3125 43.546875 
Q 18.109375 38.921875 18.109375 30.90625 
L 18.109375 0 
L 9.078125 0 
L 9.078125 54.6875 
L 18.109375 54.6875 
L 18.109375 46.1875 
Q 21.34375 51.125 25.703125 53.5625 
Q 30.078125 56 35.796875 56 
Q 45.21875 56 50.046875 50.171875 
Q 54.890625 44.34375 54.890625 33.015625 
z
" id="DejaVuSans-110"/>
        <path d="M 19.671875 64.796875 
L 19.671875 37.40625 
L 32.078125 37.40625 
Q 38.96875 37.40625 42.71875 40.96875 
Q 46.484375 44.53125 46.484375 51.125 
Q 46.484375 57.671875 42.71875 61.234375 
Q 38.96875 64.796875 32.078125 64.796875 
z
M 9.8125 72.90625 
L 32.078125 72.90625 
Q 44.34375 72.90625 50.609375 67.359375 
Q 56.890625 61.8125 56.890625 51.125 
Q 56.890625 40.328125 50.609375 34.8125 
Q 44.34375 29.296875 32.078125 29.296875 
L 19.671875 29.296875 
L 19.671875 0 
L 9.8125 0 
z
" id="DejaVuSans-80"/>
        <path d="M 19.671875 64.796875 
L 19.671875 8.109375 
L 31.59375 8.109375 
Q 46.6875 8.109375 53.6875 14.9375 
Q 60.6875 21.78125 60.6875 36.53125 
Q 60.6875 51.171875 53.6875 57.984375 
Q 46.6875 64.796875 31.59375 64.796875 
z
M 9.8125 72.90625 
L 30.078125 72.90625 
Q 51.265625 72.90625 61.171875 64.09375 
Q 71.09375 55.28125 71.09375 36.53125 
Q 71.09375 17.671875 61.125 8.828125 
Q 51.171875 0 30.078125 0 
L 9.8125 0 
z
" id="DejaVuSans-68"/>
       </defs>
       <use xlink:href="#DejaVuSans-77"/>
       <use x="86.279297" xlink:href="#DejaVuSans-101"/>
       <use x="147.802734" xlink:href="#DejaVuSans-97"/>
       <use x="209.082031" xlink:href="#DejaVuSans-110"/>
       <use x="272.460938" xlink:href="#DejaVuSans-80"/>
       <use x="332.763672" xlink:href="#DejaVuSans-68"/>
      </g>
     </g>
    </g>
   </g>
   <g id="matplotlib.axis_2">
    <g id="ytick_1">
     <g id="line2d_2">
      <defs>
       <path d="M 0 0 
L -3.5 0 
" id="m9fc2c898ef" style="stroke:#000000;stroke-width:0.8;"/>
      </defs>
      <g>
       <use style="stroke:#000000;stroke-width:0.8;" x="63" xlink:href="#m9fc2c898ef" y="576.72"/>
      </g>
     </g>
     <g id="text_2">
      <!-- −3.5 -->
      <g transform="translate(31.717187 580.519219)scale(0.1 -0.1)">
       <defs>
        <path d="M 10.59375 35.5 
L 73.1875 35.5 
L 73.1875 27.203125 
L 10.59375 27.203125 
z
" id="DejaVuSans-8722"/>
        <path d="M 40.578125 39.3125 
Q 47.65625 37.796875 51.625 33 
Q 55.609375 28.21875 55.609375 21.1875 
Q 55.609375 10.40625 48.1875 4.484375 
Q 40.765625 -1.421875 27.09375 -1.421875 
Q 22.515625 -1.421875 17.65625 -0.515625 
Q 12.796875 0.390625 7.625 2.203125 
L 7.625 11.71875 
Q 11.71875 9.328125 16.59375 8.109375 
Q 21.484375 6.890625 26.8125 6.890625 
Q 36.078125 6.890625 40.9375 10.546875 
Q 45.796875 14.203125 45.796875 21.1875 
Q 45.796875 27.640625 41.28125 31.265625 
Q 36.765625 34.90625 28.71875 34.90625 
L 20.21875 34.90625 
L 20.21875 43.015625 
L 29.109375 43.015625 
Q 36.375 43.015625 40.234375 45.921875 
Q 44.09375 48.828125 44.09375 54.296875 
Q 44.09375 59.90625 40.109375 62.90625 
Q 36.140625 65.921875 28.71875 65.921875 
Q 24.65625 65.921875 20.015625 65.03125 
Q 15.375 64.15625 9.8125 62.3125 
L 9.8125 71.09375 
Q 15.4375 72.65625 20.34375 73.4375 
Q 25.25 74.21875 29.59375 74.21875 
Q 40.828125 74.21875 47.359375 69.109375 
Q 53.90625 64.015625 53.90625 55.328125 
Q 53.90625 49.265625 50.4375 45.09375 
Q 46.96875 40.921875 40.578125 39.3125 
z
" id="DejaVuSans-51"/>
        <path d="M 10.6875 12.40625 
L 21 12.40625 
L 21 0 
L 10.6875 0 
z
" id="DejaVuSans-46"/>
        <path d="M 10.796875 72.90625 
L 49.515625 72.90625 
L 49.515625 64.59375 
L 19.828125 64.59375 
L 19.828125 46.734375 
Q 21.96875 47.46875 24.109375 47.828125 
Q 26.265625 48.1875 28.421875 48.1875 
Q 40.625 48.1875 47.75 41.5 
Q 54.890625 34.8125 54.890625 23.390625 
Q 54.890625 11.625 47.5625 5.09375 
Q 40.234375 -1.421875 26.90625 -1.421875 
Q 22.3125 -1.421875 17.546875 -0.640625 
Q 12.796875 0.140625 7.71875 1.703125 
L 7.71875 11.625 
Q 12.109375 9.234375 16.796875 8.0625 
Q 21.484375 6.890625 26.703125 6.890625 
Q 35.15625 6.890625 40.078125 11.328125 
Q 45.015625 15.765625 45.015625 23.390625 
Q 45.015625 31 40.078125 35.4375 
Q 35.15625 39.890625 26.703125 39.890625 
Q 22.75 39.890625 18.8125 39.015625 
Q 14.890625 38.140625 10.796875 36.28125 
z
" id="DejaVuSans-53"/>
       </defs>
       <use xlink:href="#DejaVuSans-8722"/>
       <use x="83.789062" xlink:href="#DejaVuSans-51"/>
       <use x="147.412109" xlink:href="#DejaVuSans-46"/>
       <use x="179.199219" xlink:href="#DejaVuSans-53"/>
      </g>
     </g>
    </g>
    <g id="ytick_2">
     <g id="line2d_3">
      <g>
       <use style="stroke:#000000;stroke-width:0.8;" x="63" xlink:href="#m9fc2c898ef" y="538.92"/>
      </g>
     </g>
     <g id="text_3">
      <!-- −3.0 -->
      <g transform="translate(31.717187 542.719219)scale(0.1 -0.1)">
       <defs>
        <path d="M 31.78125 66.40625 
Q 24.171875 66.40625 20.328125 58.90625 
Q 16.5 51.421875 16.5 36.375 
Q 16.5 21.390625 20.328125 13.890625 
Q 24.171875 6.390625 31.78125 6.390625 
Q 39.453125 6.390625 43.28125 13.890625 
Q 47.125 21.390625 47.125 36.375 
Q 47.125 51.421875 43.28125 58.90625 
Q 39.453125 66.40625 31.78125 66.40625 
z
M 31.78125 74.21875 
Q 44.046875 74.21875 50.515625 64.515625 
Q 56.984375 54.828125 56.984375 36.375 
Q 56.984375 17.96875 50.515625 8.265625 
Q 44.046875 -1.421875 31.78125 -1.421875 
Q 19.53125 -1.421875 13.0625 8.265625 
Q 6.59375 17.96875 6.59375 36.375 
Q 6.59375 54.828125 13.0625 64.515625 
Q 19.53125 74.21875 31.78125 74.21875 
z
" id="DejaVuSans-48"/>
       </defs>
       <use xlink:href="#DejaVuSans-8722"/>
       <use x="83.789062" xlink:href="#DejaVuSans-51"/>
       <use x="147.412109" xlink:href="#DejaVuSans-46"/>
       <use x="179.199219" xlink:href="#DejaVuSans-48"/>
      </g>
     </g>
    </g>
    <g id="ytick_3">
     <g id="line2d_4">
      <g>
       <use style="stroke:#000000;stroke-width:0.8;" x="63" xlink:href="#m9fc2c898ef" y="501.12"/>
      </g>
     </g>
     <g id="text_4">
      <!-- −2.5 -->
      <g transform="translate(31.717187 504.919219)scale(0.1 -0.1)">
       <defs>
        <path d="M 19.1875 8.296875 
L 53.609375 8.296875 
L 53.609375 0 
L 7.328125 0 
L 7.328125 8.296875 
Q 12.9375 14.109375 22.625 23.890625 
Q 32.328125 33.6875 34.8125 36.53125 
Q 39.546875 41.84375 41.421875 45.53125 
Q 43.3125 49.21875 43.3125 52.78125 
Q 43.3125 58.59375 39.234375 62.25 
Q 35.15625 65.921875 28.609375 65.921875 
Q 23.96875 65.921875 18.8125 64.3125 
Q 13.671875 62.703125 7.8125 59.421875 
L 7.8125 69.390625 
Q 13.765625 71.78125 18.9375 73 
Q 24.125 74.21875 28.421875 74.21875 
Q 39.75 74.21875 46.484375 68.546875 
Q 53.21875 62.890625 53.21875 53.421875 
Q 53.21875 48.921875 51.53125 44.890625 
Q 49.859375 40.875 45.40625 35.40625 
Q 44.1875 33.984375 37.640625 27.21875 
Q 31.109375 20.453125 19.1875 8.296875 
z
" id="DejaVuSans-50"/>
       </defs>
       <use xlink:href="#DejaVuSans-8722"/>
       <use x="83.789062" xlink:href="#DejaVuSans-50"/>
       <use x="147.412109" xlink:href="#DejaVuSans-46"/>
       <use x="179.199219" xlink:href="#DejaVuSans-53"/>
      </g>
     </g>
    </g>
    <g id="ytick_4">
     <g id="line2d_5">
      <g>
       <use style="stroke:#000000;stroke-width:0.8;" x="63" xlink:href="#m9fc2c898ef" y="463.32"/>
      </g>
     </g>
     <g id="text_5">
      <!-- −2.0 -->
      <g transform="translate(31.717187 467.119219)scale(0.1 -0.1)">
       <use xlink:href="#DejaVuSans-8722"/>
       <use x="83.789062" xlink:href="#DejaVuSans-50"/>
       <use x="147.412109" xlink:href="#DejaVuSans-46"/>
       <use x="179.199219" xlink:href="#DejaVuSans-48"/>
      </g>
     </g>
    </g>
    <g id="ytick_5">
     <g id="line2d_6">
      <g>
       <use style="stroke:#000000;stroke-width:0.8;" x="63" xlink:href="#m9fc2c898ef" y="425.52"/>
      </g>
     </g>
     <g id="text_6">
      <!-- −1.5 -->
      <g transform="translate(31.717187 429.319219)scale(0.1 -0.1)">
       <defs>
        <path d="M 12.40625 8.296875 
L 28.515625 8.296875 
L 28.515625 63.921875 
L 10.984375 60.40625 
L 10.984375 69.390625 
L 28.421875 72.90625 
L 38.28125 72.90625 
L 38.28125 8.296875 
L 54.390625 8.296875 
L 54.390625 0 
L 12.40625 0 
z
" id="DejaVuSans-49"/>
       </defs>
       <use xlink:href="#DejaVuSans-8722"/>
       <use x="83.789062" xlink:href="#DejaVuSans-49"/>
       <use x="147.412109" xlink:href="#DejaVuSans-46"/>
       <use x="179.199219" xlink:href="#DejaVuSans-53"/>
      </g>
     </g>
    </g>
    <g id="ytick_6">
     <g id="line2d_7">
      <g>
       <use style="stroke:#000000;stroke-width:0.8;" x="63" xlink:href="#m9fc2c898ef" y="387.72"/>
      </g>
     </g>
     <g id="text_7">
      <!-- −1.0 -->
      <g transform="translate(31.717187 391.519219)scale(0.1 -0.1)">
       <use xlink:href="#DejaVuSans-8722"/>
       <use x="83.789062" xlink:href="#DejaVuSans-49"/>
       <use x="147.412109" xlink:href="#DejaVuSans-46"/>
       <use x="179.199219" xlink:href="#DejaVuSans-48"/>
      </g>
     </g>
    </g>
    <g id="ytick_7">
     <g id="line2d_8">
      <g>
       <use style="stroke:#000000;stroke-width:0.8;" x="63" xlink:href="#m9fc2c898ef" y="349.92"/>
      </g>
     </g>
     <g id="text_8">
      <!-- −0.5 -->
      <g transform="translate(31.717187 353.719219)scale(0.1 -0.1)">
       <use xlink:href="#DejaVuSans-8722"/>
       <use x="83.789062" xlink:href="#DejaVuSans-48"/>
       <use x="147.412109" xlink:href="#DejaVuSans-46"/>
       <use x="179.199219" xlink:href="#DejaVuSans-53"/>
      </g>
     </g>
    </g>
    <g id="ytick_8">
     <g id="line2d_9">
      <g>
       <use style="stroke:#000000;stroke-width:0.8;" x="63" xlink:href="#m9fc2c898ef" y="312.12"/>
      </g>
     </g>
     <g id="text_9">
      <!-- 0.0 -->
      <g transform="translate(40.096875 315.919219)scale(0.1 -0.1)">
       <use xlink:href="#DejaVuSans-48"/>
       <use x="63.623047" xlink:href="#DejaVuSans-46"/>
       <use x="95.410156" xlink:href="#DejaVuSans-48"/>
      </g>
     </g>
    </g>
    <g id="ytick_9">
     <g id="line2d_10">
      <g>
       <use style="stroke:#000000;stroke-width:0.8;" x="63" xlink:href="#m9fc2c898ef" y="274.32"/>
      </g>
     </g>
     <g id="text_10">
      <!-- 0.5 -->
      <g transform="translate(40.096875 278.119219)scale(0.1 -0.1)">
       <use xlink:href="#DejaVuSans-48"/>
       <use x="63.623047" xlink:href="#DejaVuSans-46"/>
       <use x="95.410156" xlink:href="#DejaVuSans-53"/>
      </g>
     </g>
    </g>
    <g id="ytick_10">
     <g id="line2d_11">
      <g>
       <use style="stroke:#000000;stroke-width:0.8;" x="63" xlink:href="#m9fc2c898ef" y="236.52"/>
      </g>
     </g>
     <g id="text_11">
      <!-- 1.0 -->
      <g transform="translate(40.096875 240.319219)scale(0.1 -0.1)">
       <use xlink:href="#DejaVuSans-49"/>
       <use x="63.623047" xlink:href="#DejaVuSans-46"/>
       <use x="95.410156" xlink:href="#DejaVuSans-48"/>
      </g>
     </g>
    </g>
    <g id="ytick_11">
     <g id="line2d_12">
      <g>
       <use style="stroke:#000000;stroke-width:0.8;" x="63" xlink:href="#m9fc2c898ef" y="198.72"/>
      </g>
     </g>
     <g id="text_12">
      <!-- 1.5 -->
      <g transform="translate(40.096875 202.519219)scale(0.1 -0.1)">
       <use xlink:href="#DejaVuSans-49"/>
       <use x="63.623047" xlink:href="#DejaVuSans-46"/>
       <use x="95.410156" xlink:href="#DejaVuSans-53"/>
      </g>
     </g>
    </g>
    <g id="ytick_12">
     <g id="line2d_13">
      <g>
       <use style="stroke:#000000;stroke-width:0.8;" x="63" xlink:href="#m9fc2c898ef" y="160.92"/>
      </g>
     </g>
     <g id="text_13">
      <!-- 2.0 -->
      <g transform="translate(40.096875 164.719219)scale(0.1 -0.1)">
       <use xlink:href="#DejaVuSans-50"/>
       <use x="63.623047" xlink:href="#DejaVuSans-46"/>
       <use x="95.410156" xlink:href="#DejaVuSans-48"/>
      </g>
     </g>
    </g>
    <g id="ytick_13">
     <g id="line2d_14">
      <g>
       <use style="stroke:#000000;stroke-width:0.8;" x="63" xlink:href="#m9fc2c898ef" y="123.12"/>
      </g>
     </g>
     <g id="text_14">
      <!-- 2.5 -->
      <g transform="translate(40.096875 126.919219)scale(0.1 -0.1)">
       <use xlink:href="#DejaVuSans-50"/>
       <use x="63.623047" xlink:href="#DejaVuSans-46"/>
       <use x="95.410156" xlink:href="#DejaVuSans-53"/>
      </g>
     </g>
    </g>
    <g id="ytick_14">
     <g id="line2d_15">
      <g>
       <use style="stroke:#000000;stroke-width:0.8;" x="63" xlink:href="#m9fc2c898ef" y="85.32"/>
      </g>
     </g>
     <g id="text_15">
      <!-- 3.0 -->
      <g transform="translate(40.096875 89.119219)scale(0.1 -0.1)">
       <use xlink:href="#DejaVuSans-51"/>
       <use x="63.623047" xlink:href="#DejaVuSans-46"/>
       <use x="95.410156" xlink:href="#DejaVuSans-48"/>
      </g>
     </g>
    </g>
    <g id="text_16">
     <!-- LogOdds -->
     <g transform="translate(25.6375 349.061094)rotate(-90)scale(0.1 -0.1)">
      <defs>
       <path d="M 9.8125 72.90625 
L 19.671875 72.90625 
L 19.671875 8.296875 
L 55.171875 8.296875 
L 55.171875 0 
L 9.8125 0 
z
" id="DejaVuSans-76"/>
       <path d="M 30.609375 48.390625 
Q 23.390625 48.390625 19.1875 42.75 
Q 14.984375 37.109375 14.984375 27.296875 
Q 14.984375 17.484375 19.15625 11.84375 
Q 23.34375 6.203125 30.609375 6.203125 
Q 37.796875 6.203125 41.984375 11.859375 
Q 46.1875 17.53125 46.1875 27.296875 
Q 46.1875 37.015625 41.984375 42.703125 
Q 37.796875 48.390625 30.609375 48.390625 
z
M 30.609375 56 
Q 42.328125 56 49.015625 48.375 
Q 55.71875 40.765625 55.71875 27.296875 
Q 55.71875 13.875 49.015625 6.21875 
Q 42.328125 -1.421875 30.609375 -1.421875 
Q 18.84375 -1.421875 12.171875 6.21875 
Q 5.515625 13.875 5.515625 27.296875 
Q 5.515625 40.765625 12.171875 48.375 
Q 18.84375 56 30.609375 56 
z
" id="DejaVuSans-111"/>
       <path d="M 45.40625 27.984375 
Q 45.40625 37.75 41.375 43.109375 
Q 37.359375 48.484375 30.078125 48.484375 
Q 22.859375 48.484375 18.828125 43.109375 
Q 14.796875 37.75 14.796875 27.984375 
Q 14.796875 18.265625 18.828125 12.890625 
Q 22.859375 7.515625 30.078125 7.515625 
Q 37.359375 7.515625 41.375 12.890625 
Q 45.40625 18.265625 45.40625 27.984375 
z
M 54.390625 6.78125 
Q 54.390625 -7.171875 48.1875 -13.984375 
Q 42 -20.796875 29.203125 -20.796875 
Q 24.46875 -20.796875 20.265625 -20.09375 
Q 16.0625 -19.390625 12.109375 -17.921875 
L 12.109375 -9.1875 
Q 16.0625 -11.328125 19.921875 -12.34375 
Q 23.78125 -13.375 27.78125 -13.375 
Q 36.625 -13.375 41.015625 -8.765625 
Q 45.40625 -4.15625 45.40625 5.171875 
L 45.40625 9.625 
Q 42.625 4.78125 38.28125 2.390625 
Q 33.9375 0 27.875 0 
Q 17.828125 0 11.671875 7.65625 
Q 5.515625 15.328125 5.515625 27.984375 
Q 5.515625 40.671875 11.671875 48.328125 
Q 17.828125 56 27.875 56 
Q 33.9375 56 38.28125 53.609375 
Q 42.625 51.21875 45.40625 46.390625 
L 45.40625 54.6875 
L 54.390625 54.6875 
z
" id="DejaVuSans-103"/>
       <path d="M 39.40625 66.21875 
Q 28.65625 66.21875 22.328125 58.203125 
Q 16.015625 50.203125 16.015625 36.375 
Q 16.015625 22.609375 22.328125 14.59375 
Q 28.65625 6.59375 39.40625 6.59375 
Q 50.140625 6.59375 56.421875 14.59375 
Q 62.703125 22.609375 62.703125 36.375 
Q 62.703125 50.203125 56.421875 58.203125 
Q 50.140625 66.21875 39.40625 66.21875 
z
M 39.40625 74.21875 
Q 54.734375 74.21875 63.90625 63.9375 
Q 73.09375 53.65625 73.09375 36.375 
Q 73.09375 19.140625 63.90625 8.859375 
Q 54.734375 -1.421875 39.40625 -1.421875 
Q 24.03125 -1.421875 14.8125 8.828125 
Q 5.609375 19.09375 5.609375 36.375 
Q 5.609375 53.65625 14.8125 63.9375 
Q 24.03125 74.21875 39.40625 74.21875 
z
" id="DejaVuSans-79"/>
       <path d="M 45.40625 46.390625 
L 45.40625 75.984375 
L 54.390625 75.984375 
L 54.390625 0 
L 45.40625 0 
L 45.40625 8.203125 
Q 42.578125 3.328125 38.25 0.953125 
Q 33.9375 -1.421875 27.875 -1.421875 
Q 17.96875 -1.421875 11.734375 6.484375 
Q 5.515625 14.40625 5.515625 27.296875 
Q 5.515625 40.1875 11.734375 48.09375 
Q 17.96875 56 27.875 56 
Q 33.9375 56 38.25 53.625 
Q 42.578125 51.265625 45.40625 46.390625 
z
M 14.796875 27.296875 
Q 14.796875 17.390625 18.875 11.75 
Q 22.953125 6.109375 30.078125 6.109375 
Q 37.203125 6.109375 41.296875 11.75 
Q 45.40625 17.390625 45.40625 27.296875 
Q 45.40625 37.203125 41.296875 42.84375 
Q 37.203125 48.484375 30.078125 48.484375 
Q 22.953125 48.484375 18.875 42.84375 
Q 14.796875 37.203125 14.796875 27.296875 
z
" id="DejaVuSans-100"/>
       <path d="M 44.28125 53.078125 
L 44.28125 44.578125 
Q 40.484375 46.53125 36.375 47.5 
Q 32.28125 48.484375 27.875 48.484375 
Q 21.1875 48.484375 17.84375 46.4375 
Q 14.5 44.390625 14.5 40.28125 
Q 14.5 37.15625 16.890625 35.375 
Q 19.28125 33.59375 26.515625 31.984375 
L 29.59375 31.296875 
Q 39.15625 29.25 43.1875 25.515625 
Q 47.21875 21.78125 47.21875 15.09375 
Q 47.21875 7.46875 41.1875 3.015625 
Q 35.15625 -1.421875 24.609375 -1.421875 
Q 20.21875 -1.421875 15.453125 -0.5625 
Q 10.6875 0.296875 5.421875 2 
L 5.421875 11.28125 
Q 10.40625 8.6875 15.234375 7.390625 
Q 20.0625 6.109375 24.8125 6.109375 
Q 31.15625 6.109375 34.5625 8.28125 
Q 37.984375 10.453125 37.984375 14.40625 
Q 37.984375 18.0625 35.515625 20.015625 
Q 33.0625 21.96875 24.703125 23.78125 
L 21.578125 24.515625 
Q 13.234375 26.265625 9.515625 29.90625 
Q 5.8125 33.546875 5.8125 39.890625 
Q 5.8125 47.609375 11.28125 51.796875 
Q 16.75 56 26.8125 56 
Q 31.78125 56 36.171875 55.265625 
Q 40.578125 54.546875 44.28125 53.078125 
z
" id="DejaVuSans-115"/>
      </defs>
      <use xlink:href="#DejaVuSans-76"/>
      <use x="53.962891" xlink:href="#DejaVuSans-111"/>
      <use x="115.144531" xlink:href="#DejaVuSans-103"/>
      <use x="178.621094" xlink:href="#DejaVuSans-79"/>
      <use x="257.332031" xlink:href="#DejaVuSans-100"/>
      <use x="320.808594" xlink:href="#DejaVuSans-100"/>
      <use x="384.285156" xlink:href="#DejaVuSans-115"/>
     </g>
    </g>
   </g>
   <g id="line2d_16">
    <path clip-path="url(#p34cadec8b1)" d="M 229.005 224.396235 
L 287.595 224.396235 
L 287.595 197.010682 
L 229.005 197.010682 
L 229.005 224.396235 
" style="fill:none;stroke:#000000;stroke-linecap:square;"/>
   </g>
   <g id="line2d_17">
    <path clip-path="url(#p34cadec8b1)" d="M 258.3 224.396235 
L 258.3 232.06851 
" style="fill:none;stroke:#000000;stroke-linecap:square;"/>
   </g>
   <g id="line2d_18">
    <path clip-path="url(#p34cadec8b1)" d="M 258.3 197.010682 
L 258.3 176.627989 
" style="fill:none;stroke:#000000;stroke-linecap:square;"/>
   </g>
   <g id="line2d_19">
    <path clip-path="url(#p34cadec8b1)" d="M 243.6525 232.06851 
L 272.9475 232.06851 
" style="fill:none;stroke:#000000;stroke-linecap:square;"/>
   </g>
   <g id="line2d_20">
    <path clip-path="url(#p34cadec8b1)" d="M 243.6525 176.627989 
L 272.9475 176.627989 
" style="fill:none;stroke:#000000;stroke-linecap:square;"/>
   </g>
   <g id="line2d_21">
    <path clip-path="url(#p34cadec8b1)" d="M 229.005 213.41967 
L 287.595 213.41967 
" style="fill:none;stroke:#ff7f0e;stroke-linecap:square;"/>
   </g>
   <g id="patch_3">
    <path d="M 63 576.72 
L 63 77.76 
" style="fill:none;stroke:#000000;stroke-linecap:square;stroke-linejoin:miter;stroke-width:0.8;"/>
   </g>
   <g id="patch_4">
    <path d="M 453.6 576.72 
L 453.6 77.76 
" style="fill:none;stroke:#000000;stroke-linecap:square;stroke-linejoin:miter;stroke-width:0.8;"/>
   </g>
   <g id="patch_5">
    <path d="M 63 576.72 
L 453.6 576.72 
" style="fill:none;stroke:#000000;stroke-linecap:square;stroke-linejoin:miter;stroke-width:0.8;"/>
   </g>
   <g id="patch_6">
    <path d="M 63 77.76 
L 453.6 77.76 
" style="fill:none;stroke:#000000;stroke-linecap:square;stroke-linejoin:miter;stroke-width:0.8;"/>
   </g>
   <g id="text_17">
    <!-- 0 -->
    <g style="fill:#2f4f4f;" transform="translate(251.921434 222.536104)scale(0.1 -0.1)">
     <use xlink:href="#DejaVuSans-48"/>
    </g>
   </g>
   <g id="text_18">
    <!-- 1 -->
    <g style="fill:#556b2f;" transform="translate(270.220032 196.254682)scale(0.1 -0.1)">
     <use xlink:href="#DejaVuSans-49"/>
    </g>
   </g>
   <g id="text_19">
    <!-- 2 -->
    <g style="fill:#8b4513;" transform="translate(258.018243 219.856291)scale(0.1 -0.1)">
     <use xlink:href="#DejaVuSans-50"/>
    </g>
   </g>
   <g id="text_20">
    <!-- 3 -->
    <g style="fill:#2e8b57;" transform="translate(267.27955 218.287429)scale(0.1 -0.1)">
     <use xlink:href="#DejaVuSans-51"/>
    </g>
   </g>
   <g id="text_21">
    <!-- 4 -->
    <g style="fill:#228b22;" transform="translate(246.588374 190.343811)scale(0.1 -0.1)">
     <defs>
      <path d="M 37.796875 64.3125 
L 12.890625 25.390625 
L 37.796875 25.390625 
z
M 35.203125 72.90625 
L 47.609375 72.90625 
L 47.609375 25.390625 
L 58.015625 25.390625 
L 58.015625 17.1875 
L 47.609375 17.1875 
L 47.609375 0 
L 37.796875 0 
L 37.796875 17.1875 
L 4.890625 17.1875 
L 4.890625 26.703125 
z
" id="DejaVuSans-52"/>
     </defs>
     <use xlink:href="#DejaVuSans-52"/>
    </g>
   </g>
   <g id="text_22">
    <!-- 5 -->
    <g style="fill:#708090;" transform="translate(219.601231 175.871989)scale(0.1 -0.1)">
     <use xlink:href="#DejaVuSans-53"/>
    </g>
   </g>
   <g id="text_23">
    <!-- 6 -->
    <g style="fill:#8b0000;" transform="translate(283.708317 225.625697)scale(0.1 -0.1)">
     <defs>
      <path d="M 33.015625 40.375 
Q 26.375 40.375 22.484375 35.828125 
Q 18.609375 31.296875 18.609375 23.390625 
Q 18.609375 15.53125 22.484375 10.953125 
Q 26.375 6.390625 33.015625 6.390625 
Q 39.65625 6.390625 43.53125 10.953125 
Q 47.40625 15.53125 47.40625 23.390625 
Q 47.40625 31.296875 43.53125 35.828125 
Q 39.65625 40.375 33.015625 40.375 
z
M 52.59375 71.296875 
L 52.59375 62.3125 
Q 48.875 64.0625 45.09375 64.984375 
Q 41.3125 65.921875 37.59375 65.921875 
Q 27.828125 65.921875 22.671875 59.328125 
Q 17.53125 52.734375 16.796875 39.40625 
Q 19.671875 43.65625 24.015625 45.921875 
Q 28.375 48.1875 33.59375 48.1875 
Q 44.578125 48.1875 50.953125 41.515625 
Q 57.328125 34.859375 57.328125 23.390625 
Q 57.328125 12.15625 50.6875 5.359375 
Q 44.046875 -1.421875 33.015625 -1.421875 
Q 20.359375 -1.421875 13.671875 8.265625 
Q 6.984375 17.96875 6.984375 36.375 
Q 6.984375 53.65625 15.1875 63.9375 
Q 23.390625 74.21875 37.203125 74.21875 
Q 40.921875 74.21875 44.703125 73.484375 
Q 48.484375 72.75 52.59375 71.296875 
z
" id="DejaVuSans-54"/>
     </defs>
     <use xlink:href="#DejaVuSans-54"/>
    </g>
   </g>
   <g id="text_24">
    <!-- 7 -->
    <g style="fill:#808000;" transform="translate(253.679344 228.170309)scale(0.1 -0.1)">
     <defs>
      <path d="M 8.203125 72.90625 
L 55.078125 72.90625 
L 55.078125 68.703125 
L 28.609375 0 
L 18.3125 0 
L 43.21875 64.59375 
L 8.203125 64.59375 
z
" id="DejaVuSans-55"/>
     </defs>
     <use xlink:href="#DejaVuSans-55"/>
    </g>
   </g>
   <g id="text_25">
    <!-- 8 -->
    <g style="fill:#483d8b;" transform="translate(257.828943 199.300956)scale(0.1 -0.1)">
     <defs>
      <path d="M 31.78125 34.625 
Q 24.75 34.625 20.71875 30.859375 
Q 16.703125 27.09375 16.703125 20.515625 
Q 16.703125 13.921875 20.71875 10.15625 
Q 24.75 6.390625 31.78125 6.390625 
Q 38.8125 6.390625 42.859375 10.171875 
Q 46.921875 13.96875 46.921875 20.515625 
Q 46.921875 27.09375 42.890625 30.859375 
Q 38.875 34.625 31.78125 34.625 
z
M 21.921875 38.8125 
Q 15.578125 40.375 12.03125 44.71875 
Q 8.5 49.078125 8.5 55.328125 
Q 8.5 64.0625 14.71875 69.140625 
Q 20.953125 74.21875 31.78125 74.21875 
Q 42.671875 74.21875 48.875 69.140625 
Q 55.078125 64.0625 55.078125 55.328125 
Q 55.078125 49.078125 51.53125 44.71875 
Q 48 40.375 41.703125 38.8125 
Q 48.828125 37.15625 52.796875 32.3125 
Q 56.78125 27.484375 56.78125 20.515625 
Q 56.78125 9.90625 50.3125 4.234375 
Q 43.84375 -1.421875 31.78125 -1.421875 
Q 19.734375 -1.421875 13.25 4.234375 
Q 6.78125 9.90625 6.78125 20.515625 
Q 6.78125 27.484375 10.78125 32.3125 
Q 14.796875 37.15625 21.921875 38.8125 
z
M 18.3125 54.390625 
Q 18.3125 48.734375 21.84375 45.5625 
Q 25.390625 42.390625 31.78125 42.390625 
Q 38.140625 42.390625 41.71875 45.5625 
Q 45.3125 48.734375 45.3125 54.390625 
Q 45.3125 60.0625 41.71875 63.234375 
Q 38.140625 66.40625 31.78125 66.40625 
Q 25.390625 66.40625 21.84375 63.234375 
Q 18.3125 60.0625 18.3125 54.390625 
z
" id="DejaVuSans-56"/>
     </defs>
     <use xlink:href="#DejaVuSans-56"/>
    </g>
   </g>
   <g id="text_26">
    <!-- 9 -->
    <g style="fill:#008080;" transform="translate(243.18201 229.322483)scale(0.1 -0.1)">
     <defs>
      <path d="M 10.984375 1.515625 
L 10.984375 10.5 
Q 14.703125 8.734375 18.5 7.8125 
Q 22.3125 6.890625 25.984375 6.890625 
Q 35.75 6.890625 40.890625 13.453125 
Q 46.046875 20.015625 46.78125 33.40625 
Q 43.953125 29.203125 39.59375 26.953125 
Q 35.25 24.703125 29.984375 24.703125 
Q 19.046875 24.703125 12.671875 31.3125 
Q 6.296875 37.9375 6.296875 49.421875 
Q 6.296875 60.640625 12.9375 67.421875 
Q 19.578125 74.21875 30.609375 74.21875 
Q 43.265625 74.21875 49.921875 64.515625 
Q 56.59375 54.828125 56.59375 36.375 
Q 56.59375 19.140625 48.40625 8.859375 
Q 40.234375 -1.421875 26.421875 -1.421875 
Q 22.703125 -1.421875 18.890625 -0.6875 
Q 15.09375 0.046875 10.984375 1.515625 
z
M 30.609375 32.421875 
Q 37.25 32.421875 41.125 36.953125 
Q 45.015625 41.5 45.015625 49.421875 
Q 45.015625 57.28125 41.125 61.84375 
Q 37.25 66.40625 30.609375 66.40625 
Q 23.96875 66.40625 20.09375 61.84375 
Q 16.21875 57.28125 16.21875 49.421875 
Q 16.21875 41.5 20.09375 36.953125 
Q 23.96875 32.421875 30.609375 32.421875 
z
" id="DejaVuSans-57"/>
     </defs>
     <use xlink:href="#DejaVuSans-57"/>
    </g>
   </g>
   <g id="text_27">
    <!-- 10 -->
    <g style="fill:#b8860b;" transform="translate(255.143557 190.961099)scale(0.1 -0.1)">
     <use xlink:href="#DejaVuSans-49"/>
     <use x="63.623047" xlink:href="#DejaVuSans-48"/>
    </g>
   </g>
   <g id="text_28">
    <!-- 11 -->
    <g style="fill:#4682b4;" transform="translate(251.292347 182.378549)scale(0.1 -0.1)">
     <use xlink:href="#DejaVuSans-49"/>
     <use x="63.623047" xlink:href="#DejaVuSans-49"/>
    </g>
   </g>
   <g id="text_29">
    <!-- 12 -->
    <g style="fill:#d2691e;" transform="translate(240.9194 225.444627)scale(0.1 -0.1)">
     <use xlink:href="#DejaVuSans-49"/>
     <use x="63.623047" xlink:href="#DejaVuSans-50"/>
    </g>
   </g>
   <g id="text_30">
    <!-- 13 -->
    <g style="fill:#9acd32;" transform="translate(240.334748 190.824842)scale(0.1 -0.1)">
     <use xlink:href="#DejaVuSans-49"/>
     <use x="63.623047" xlink:href="#DejaVuSans-51"/>
    </g>
   </g>
   <g id="text_31">
    <!-- 14 -->
    <g style="fill:#32cd32;" transform="translate(244.312324 210.259185)scale(0.1 -0.1)">
     <use xlink:href="#DejaVuSans-49"/>
     <use x="63.623047" xlink:href="#DejaVuSans-52"/>
    </g>
   </g>
   <g id="text_32">
    <!-- 15 -->
    <g style="fill:#8fbc8f;" transform="translate(273.069839 211.797731)scale(0.1 -0.1)">
     <use xlink:href="#DejaVuSans-49"/>
     <use x="63.623047" xlink:href="#DejaVuSans-53"/>
    </g>
   </g>
   <g id="text_33">
    <!-- 16 -->
    <g style="fill:#800080;" transform="translate(227.700436 197.789514)scale(0.1 -0.1)">
     <use xlink:href="#DejaVuSans-49"/>
     <use x="63.623047" xlink:href="#DejaVuSans-54"/>
    </g>
   </g>
   <g id="text_34">
    <!-- 17 -->
    <g style="fill:#b03060;" transform="translate(258.394516 127.670957)scale(0.1 -0.1)">
     <use xlink:href="#DejaVuSans-49"/>
     <use x="63.623047" xlink:href="#DejaVuSans-55"/>
    </g>
   </g>
   <g id="text_35">
    <!-- 18 -->
    <g style="fill:#9932cc;" transform="translate(270.789528 212.66367)scale(0.1 -0.1)">
     <use xlink:href="#DejaVuSans-49"/>
     <use x="63.623047" xlink:href="#DejaVuSans-56"/>
    </g>
   </g>
   <g id="text_36">
    <!-- 19 -->
    <g style="fill:#ff4500;" transform="translate(267.632992 188.548363)scale(0.1 -0.1)">
     <use xlink:href="#DejaVuSans-49"/>
     <use x="63.623047" xlink:href="#DejaVuSans-57"/>
    </g>
   </g>
   <g id="text_37">
    <!-- 20 -->
    <g style="fill:#00ced1;" transform="translate(233.259929 204.479063)scale(0.1 -0.1)">
     <use xlink:href="#DejaVuSans-50"/>
     <use x="63.623047" xlink:href="#DejaVuSans-48"/>
    </g>
   </g>
   <g id="text_38">
    <!-- 25 -->
    <g style="fill:#dc143c;" transform="translate(259.03312 200.440838)scale(0.1 -0.1)">
     <use xlink:href="#DejaVuSans-50"/>
     <use x="63.623047" xlink:href="#DejaVuSans-53"/>
    </g>
   </g>
   <g id="text_39">
    <!-- 21 -->
    <g style="fill:#ffd700;" transform="translate(258.696734 225.567385)scale(0.1 -0.1)">
     <use xlink:href="#DejaVuSans-50"/>
     <use x="63.623047" xlink:href="#DejaVuSans-49"/>
    </g>
   </g>
   <g id="text_40">
    <!-- 22 -->
    <g style="fill:#0000cd;" transform="translate(264.403122 224.913497)scale(0.1 -0.1)">
     <use xlink:href="#DejaVuSans-50"/>
     <use x="63.623047" xlink:href="#DejaVuSans-50"/>
    </g>
   </g>
   <g id="text_41">
    <!-- 23 -->
    <g style="fill:#deb887;" transform="translate(252.631118 231.31251)scale(0.1 -0.1)">
     <use xlink:href="#DejaVuSans-50"/>
     <use x="63.623047" xlink:href="#DejaVuSans-51"/>
    </g>
   </g>
   <g id="text_42">
    <!-- 24 -->
    <g style="fill:#00ff00;" transform="translate(291.792735 223.558102)scale(0.1 -0.1)">
     <use xlink:href="#DejaVuSans-50"/>
     <use x="63.623047" xlink:href="#DejaVuSans-52"/>
    </g>
   </g>
   <g id="text_43">
    <!-- 26 -->
    <g style="fill:#0000ff;" transform="translate(265.935777 223.640235)scale(0.1 -0.1)">
     <use xlink:href="#DejaVuSans-50"/>
     <use x="63.623047" xlink:href="#DejaVuSans-54"/>
    </g>
   </g>
   <g id="text_44">
    <!-- 27 -->
    <g style="fill:#adff2f;" transform="translate(263.289335 221.81021)scale(0.1 -0.1)">
     <use xlink:href="#DejaVuSans-50"/>
     <use x="63.623047" xlink:href="#DejaVuSans-55"/>
    </g>
   </g>
   <g id="text_45">
    <!-- 28 -->
    <g style="fill:#da70d6;" transform="translate(215.069072 213.6625)scale(0.1 -0.1)">
     <use xlink:href="#DejaVuSans-50"/>
     <use x="63.623047" xlink:href="#DejaVuSans-56"/>
    </g>
   </g>
  </g>
 </g>
 <defs>
  <clipPath id="p34cadec8b1">
   <rect height="498.96" width="390.6" x="63" y="77.76"/>
  </clipPath>
 </defs>
</svg>
