<?xml version="1.0" encoding="utf-8" standalone="no"?>
<!DOCTYPE svg PUBLIC "-//W3C//DTD SVG 1.1//EN"
  "http://www.w3.org/Graphics/SVG/1.1/DTD/svg11.dtd">
<!-- Created with matplotlib (https://matplotlib.org/) -->
<svg height="648pt" version="1.1" viewBox="0 0 504 648" width="504pt" xmlns="http://www.w3.org/2000/svg" xmlns:xlink="http://www.w3.org/1999/xlink">
 <metadata>
  <rdf:RDF xmlns:cc="http://creativecommons.org/ns#" xmlns:dc="http://purl.org/dc/elements/1.1/" xmlns:rdf="http://www.w3.org/1999/02/22-rdf-syntax-ns#">
   <cc:Work>
    <dc:type rdf:resource="http://purl.org/dc/dcmitype/StillImage"/>
    <dc:date>2023-06-02T19:09:48.724744</dc:date>
    <dc:format>image/svg+xml</dc:format>
    <dc:creator>
     <cc:Agent>
      <dc:title>Matplotlib v3.3.4, https://matplotlib.org/</dc:title>
     </cc:Agent>
    </dc:creator>
   </cc:Work>
  </rdf:RDF>
 </metadata>
 <defs>
  <style type="text/css">*{stroke-linecap:butt;stroke-linejoin:round;}</style>
 </defs>
 <g id="figure_1">
  <g id="patch_1">
   <path d="M 0 648 
L 504 648 
L 504 0 
L 0 0 
z
" style="fill:#ffffff;"/>
  </g>
  <g id="axes_1">
   <g id="patch_2">
    <path d="M 63 576.72 
L 453.6 576.72 
L 453.6 77.76 
L 63 77.76 
z
" style="fill:#ffffff;"/>
   </g>
   <g id="PathCollection_1">
    <path clip-path="url(#p292512b591)" d="M 248.196497 231.197798 
C 250.293112 231.197798 252.304136 230.364804 253.786667 228.882274 
C 255.269197 227.399744 256.102191 225.388719 256.102191 223.292104 
C 256.102191 221.195489 255.269197 219.184464 253.786667 217.701934 
C 252.304136 216.219404 250.293112 215.38641 248.196497 215.38641 
C 246.099882 215.38641 244.088857 216.219404 242.606327 217.701934 
C 241.123797 219.184464 240.290803 221.195489 240.290803 223.292104 
C 240.290803 225.388719 241.123797 227.399744 242.606327 228.882274 
C 244.088857 230.364804 246.099882 231.197798 248.196497 231.197798 
z
" style="fill:#2f4f4f;stroke:#2f4f4f;"/>
    <path clip-path="url(#p292512b591)" d="M 238.446431 221.090289 
C 240.070462 221.090289 241.628195 220.445054 242.776558 219.296691 
C 243.924921 218.148328 244.570155 216.590595 244.570155 214.966564 
C 244.570155 213.342534 243.924921 211.7848 242.776558 210.636437 
C 241.628195 209.488074 240.070462 208.84284 238.446431 208.84284 
C 236.8224 208.84284 235.264667 209.488074 234.116304 210.636437 
C 232.967941 211.7848 232.322707 213.342534 232.322707 214.966564 
C 232.322707 216.590595 232.967941 218.148328 234.116304 219.296691 
C 235.264667 220.445054 236.8224 221.090289 238.446431 221.090289 
z
" style="fill:#556b2f;stroke:#556b2f;"/>
    <path clip-path="url(#p292512b591)" d="M 244.971661 231.218893 
C 247.784565 231.218893 250.482638 230.101315 252.471661 228.112291 
C 254.460685 226.123268 255.578263 223.425195 255.578263 220.612291 
C 255.578263 217.799388 254.460685 215.101315 252.471661 213.112291 
C 250.482638 211.123268 247.784565 210.00569 244.971661 210.00569 
C 242.158758 210.00569 239.460685 211.123268 237.471661 213.112291 
C 235.482638 215.101315 234.36506 217.799388 234.36506 220.612291 
C 234.36506 223.425195 235.482638 226.123268 237.471661 228.112291 
C 239.460685 230.101315 242.158758 231.218893 244.971661 231.218893 
z
" style="fill:#8b4513;stroke:#8b4513;"/>
    <path clip-path="url(#p292512b591)" d="M 255.307868 211.478361 
C 257.404483 211.478361 259.415508 210.645367 260.898038 209.162836 
C 262.380568 207.680306 263.213562 205.669281 263.213562 203.572666 
C 263.213562 201.476052 262.380568 199.465027 260.898038 197.982496 
C 259.415508 196.499966 257.404483 195.666972 255.307868 195.666972 
C 253.211254 195.666972 251.200229 196.499966 249.717698 197.982496 
C 248.235168 199.465027 247.402174 201.476052 247.402174 203.572666 
C 247.402174 205.669281 248.235168 207.680306 249.717698 209.162836 
C 251.200229 210.645367 253.211254 211.478361 255.307868 211.478361 
z
" style="fill:#2e8b57;stroke:#2e8b57;"/>
    <path clip-path="url(#p292512b591)" d="M 228.5997 199.005505 
C 230.696315 199.005505 232.70734 198.172511 234.18987 196.689981 
C 235.672401 195.20745 236.505395 193.196425 236.505395 191.099811 
C 236.505395 189.003196 235.672401 186.992171 234.18987 185.509641 
C 232.70734 184.02711 230.696315 183.194117 228.5997 183.194117 
C 226.503086 183.194117 224.492061 184.02711 223.009531 185.509641 
C 221.527 186.992171 220.694006 189.003196 220.694006 191.099811 
C 220.694006 193.196425 221.527 195.20745 223.009531 196.689981 
C 224.492061 198.172511 226.503086 199.005505 228.5997 199.005505 
z
" style="fill:#228b22;stroke:#228b22;"/>
    <path clip-path="url(#p292512b591)" d="M 257.279609 212.866287 
C 259.154878 212.866287 260.953593 212.121234 262.279609 210.795219 
C 263.605624 209.469203 264.350677 207.670488 264.350677 205.795219 
C 264.350677 203.91995 263.605624 202.121234 262.279609 200.795219 
C 260.953593 199.469203 259.154878 198.724151 257.279609 198.724151 
C 255.40434 198.724151 253.605624 199.469203 252.279609 200.795219 
C 250.953593 202.121234 250.208541 203.91995 250.208541 205.795219 
C 250.208541 207.670488 250.953593 209.469203 252.279609 210.795219 
C 253.605624 212.121234 255.40434 212.866287 257.279609 212.866287 
z
" style="fill:#708090;stroke:#708090;"/>
    <path clip-path="url(#p292512b591)" d="M 250.533662 233.452765 
C 252.408931 233.452765 254.207647 232.707713 255.533662 231.381697 
C 256.859678 230.055682 257.60473 228.256966 257.60473 226.381697 
C 257.60473 224.506428 256.859678 222.707713 255.533662 221.381697 
C 254.207647 220.055682 252.408931 219.310629 250.533662 219.310629 
C 248.658393 219.310629 246.859678 220.055682 245.533662 221.381697 
C 244.207647 222.707713 243.462595 224.506428 243.462595 226.381697 
C 243.462595 228.256966 244.207647 230.055682 245.533662 231.381697 
C 246.859678 232.707713 248.658393 233.452765 250.533662 233.452765 
z
" style="fill:#8b0000;stroke:#8b0000;"/>
    <path clip-path="url(#p292512b591)" d="M 283.985373 237.586563 
C 286.2821 237.586563 288.485067 236.674064 290.109098 235.050034 
C 291.733129 233.426003 292.645628 231.223035 292.645628 228.926309 
C 292.645628 226.629583 291.733129 224.426616 290.109098 222.802585 
C 288.485067 221.178554 286.2821 220.266055 283.985373 220.266055 
C 281.688647 220.266055 279.48568 221.178554 277.861649 222.802585 
C 276.237618 224.426616 275.325119 226.629583 275.325119 228.926309 
C 275.325119 231.223035 276.237618 233.426003 277.861649 235.050034 
C 279.48568 236.674064 281.688647 237.586563 283.985373 237.586563 
z
" style="fill:#808000;stroke:#808000;"/>
    <path clip-path="url(#p292512b591)" d="M 258.336036 228.507508 
C 260.211305 228.507508 262.010021 227.762456 263.336036 226.43644 
C 264.662052 225.110425 265.407104 223.311709 265.407104 221.43644 
C 265.407104 219.561171 264.662052 217.762456 263.336036 216.43644 
C 262.010021 215.110425 260.211305 214.365372 258.336036 214.365372 
C 256.460767 214.365372 254.662052 215.110425 253.336036 216.43644 
C 252.010021 217.762456 251.264969 219.561171 251.264969 221.43644 
C 251.264969 223.311709 252.010021 225.110425 253.336036 226.43644 
C 254.662052 227.762456 256.460767 228.507508 258.336036 228.507508 
z
" style="fill:#483d8b;stroke:#483d8b;"/>
    <path clip-path="url(#p292512b591)" d="M 277.001358 237.984177 
C 279.097973 237.984177 281.108998 237.151183 282.591528 235.668653 
C 284.074058 234.186122 284.907052 232.175097 284.907052 230.078483 
C 284.907052 227.981868 284.074058 225.970843 282.591528 224.488313 
C 281.108998 223.005782 279.097973 222.172789 277.001358 222.172789 
C 274.904744 222.172789 272.893719 223.005782 271.411188 224.488313 
C 269.928658 225.970843 269.095664 227.981868 269.095664 230.078483 
C 269.095664 232.175097 269.928658 234.186122 271.411188 235.668653 
C 272.893719 237.151183 274.904744 237.984177 277.001358 237.984177 
z
" style="fill:#008080;stroke:#008080;"/>
    <path clip-path="url(#p292512b591)" d="M 246.692827 177.363298 
C 248.989553 177.363298 251.19252 176.450799 252.816551 174.826768 
C 254.440582 173.202738 255.353081 170.99977 255.353081 168.703044 
C 255.353081 166.406318 254.440582 164.20335 252.816551 162.57932 
C 251.19252 160.955289 248.989553 160.04279 246.692827 160.04279 
C 244.3961 160.04279 242.193133 160.955289 240.569102 162.57932 
C 238.945072 164.20335 238.032573 166.406318 238.032573 168.703044 
C 238.032573 170.99977 238.945072 173.202738 240.569102 174.826768 
C 242.193133 176.450799 244.3961 177.363298 246.692827 177.363298 
z
" style="fill:#b8860b;stroke:#b8860b;"/>
    <path clip-path="url(#p292512b591)" d="M 272.872204 195.882098 
C 276.252893 195.882098 279.495574 194.538936 281.886082 192.148427 
C 284.276591 189.757919 285.619753 186.515238 285.619753 183.134549 
C 285.619753 179.75386 284.276591 176.511179 281.886082 174.120671 
C 279.495574 171.730162 276.252893 170.387 272.872204 170.387 
C 269.491514 170.387 266.248834 171.730162 263.858326 174.120671 
C 261.467817 176.511179 260.124655 179.75386 260.124655 183.134549 
C 260.124655 186.515238 261.467817 189.757919 263.858326 192.148427 
C 266.248834 194.538936 269.491514 195.882098 272.872204 195.882098 
z
" style="fill:#4682b4;stroke:#4682b4;"/>
    <path clip-path="url(#p292512b591)" d="M 264.841384 234.860881 
C 267.13811 234.860881 269.341077 233.948382 270.965108 232.324352 
C 272.589139 230.700321 273.501638 228.497353 273.501638 226.200627 
C 273.501638 223.903901 272.589139 221.700934 270.965108 220.076903 
C 269.341077 218.452872 267.13811 217.540373 264.841384 217.540373 
C 262.544657 217.540373 260.34169 218.452872 258.717659 220.076903 
C 257.093629 221.700934 256.18113 223.903901 256.18113 226.200627 
C 256.18113 228.497353 257.093629 230.700321 258.717659 232.324352 
C 260.34169 233.948382 262.544657 234.860881 264.841384 234.860881 
z
" style="fill:#d2691e;stroke:#d2691e;"/>
    <path clip-path="url(#p292512b591)" d="M 267.868055 199.486536 
C 269.96467 199.486536 271.975695 198.653542 273.458225 197.171012 
C 274.940755 195.688481 275.773749 193.677456 275.773749 191.580842 
C 275.773749 189.484227 274.940755 187.473202 273.458225 185.990672 
C 271.975695 184.508142 269.96467 183.675148 267.868055 183.675148 
C 265.771441 183.675148 263.760416 184.508142 262.277885 185.990672 
C 260.795355 187.473202 259.962361 189.484227 259.962361 191.580842 
C 259.962361 193.677456 260.795355 195.688481 262.277885 197.171012 
C 263.760416 198.653542 265.771441 199.486536 267.868055 199.486536 
z
" style="fill:#9acd32;stroke:#9acd32;"/>
    <path clip-path="url(#p292512b591)" d="M 263.569824 213.187519 
C 265.445093 213.187519 267.243809 212.442466 268.569824 211.116451 
C 269.89584 209.790435 270.640892 207.99172 270.640892 206.116451 
C 270.640892 204.241182 269.89584 202.442466 268.569824 201.116451 
C 267.243809 199.790435 265.445093 199.045383 263.569824 199.045383 
C 261.694555 199.045383 259.89584 199.790435 258.569824 201.116451 
C 257.243809 202.442466 256.498756 204.241182 256.498756 206.116451 
C 256.498756 207.99172 257.243809 209.790435 258.569824 211.116451 
C 259.89584 212.442466 261.694555 213.187519 263.569824 213.187519 
z
" style="fill:#32cd32;stroke:#32cd32;"/>
    <path clip-path="url(#p292512b591)" d="M 270.329786 219.624799 
C 272.205055 219.624799 274.003771 218.879747 275.329786 217.553731 
C 276.655802 216.227716 277.400854 214.429 277.400854 212.553731 
C 277.400854 210.678462 276.655802 208.879747 275.329786 207.553731 
C 274.003771 206.227716 272.205055 205.482664 270.329786 205.482664 
C 268.454517 205.482664 266.655802 206.227716 265.329786 207.553731 
C 264.003771 208.879747 263.258719 210.678462 263.258719 212.553731 
C 263.258719 214.429 264.003771 216.227716 265.329786 217.553731 
C 266.655802 218.879747 268.454517 219.624799 270.329786 219.624799 
z
" style="fill:#8fbc8f;stroke:#8fbc8f;"/>
    <path clip-path="url(#p292512b591)" d="M 277.636458 206.451208 
C 279.733072 206.451208 281.744097 205.618214 283.226628 204.135684 
C 284.709158 202.653153 285.542152 200.642128 285.542152 198.545514 
C 285.542152 196.448899 284.709158 194.437874 283.226628 192.955344 
C 281.744097 191.472813 279.733072 190.63982 277.636458 190.63982 
C 275.539843 190.63982 273.528818 191.472813 272.046288 192.955344 
C 270.563757 194.437874 269.730764 196.448899 269.730764 198.545514 
C 269.730764 200.642128 270.563757 202.653153 272.046288 204.135684 
C 273.528818 205.618214 275.539843 206.451208 277.636458 206.451208 
z
" style="fill:#800080;stroke:#800080;"/>
    <path clip-path="url(#p292512b591)" d="M 233.823386 254.236279 
C 235.698655 254.236279 237.49737 253.491226 238.823386 252.165211 
C 240.149401 250.839195 240.894453 249.04048 240.894453 247.165211 
C 240.894453 245.289942 240.149401 243.491226 238.823386 242.165211 
C 237.49737 240.839195 235.698655 240.094143 233.823386 240.094143 
C 231.948117 240.094143 230.149401 240.839195 228.823386 242.165211 
C 227.49737 243.491226 226.752318 245.289942 226.752318 247.165211 
C 226.752318 249.04048 227.49737 250.839195 228.823386 252.165211 
C 230.149401 253.491226 231.948117 254.236279 233.823386 254.236279 
z
" style="fill:#b03060;stroke:#b03060;"/>
    <path clip-path="url(#p292512b591)" d="M 262.074777 222.268763 
C 263.698807 222.268763 265.256541 221.623529 266.404904 220.475166 
C 267.553267 219.326802 268.198501 217.769069 268.198501 216.145039 
C 268.198501 214.521008 267.553267 212.963275 266.404904 211.814912 
C 265.256541 210.666548 263.698807 210.021314 262.074777 210.021314 
C 260.450746 210.021314 258.893013 210.666548 257.74465 211.814912 
C 256.596287 212.963275 255.951052 214.521008 255.951052 216.145039 
C 255.951052 217.769069 256.596287 219.326802 257.74465 220.475166 
C 258.893013 221.623529 260.450746 222.268763 262.074777 222.268763 
z
" style="fill:#9932cc;stroke:#9932cc;"/>
    <path clip-path="url(#p292512b591)" d="M 248.675202 255.077816 
C 250.771816 255.077816 252.782841 254.244822 254.265372 252.762292 
C 255.747902 251.279762 256.580896 249.268737 256.580896 247.172122 
C 256.580896 245.075507 255.747902 243.064482 254.265372 241.581952 
C 252.782841 240.099422 250.771816 239.266428 248.675202 239.266428 
C 246.578587 239.266428 244.567562 240.099422 243.085032 241.581952 
C 241.602501 243.064482 240.769508 245.075507 240.769508 247.172122 
C 240.769508 249.268737 241.602501 251.279762 243.085032 252.762292 
C 244.567562 254.244822 246.578587 255.077816 248.675202 255.077816 
z
" style="fill:#ff4500;stroke:#ff4500;"/>
    <path clip-path="url(#p292512b591)" d="M 259.611677 234.620396 
C 261.708292 234.620396 263.719317 233.787402 265.201847 232.304872 
C 266.684378 230.822342 267.517371 228.811317 267.517371 226.714702 
C 267.517371 224.618087 266.684378 222.607062 265.201847 221.124532 
C 263.719317 219.642002 261.708292 218.809008 259.611677 218.809008 
C 257.515063 218.809008 255.504038 219.642002 254.021507 221.124532 
C 252.538977 222.607062 251.705983 224.618087 251.705983 226.714702 
C 251.705983 228.811317 252.538977 230.822342 254.021507 232.304872 
C 255.504038 233.787402 257.515063 234.620396 259.611677 234.620396 
z
" style="fill:#00ced1;stroke:#00ced1;"/>
    <path clip-path="url(#p292512b591)" d="M 288.545111 273.26069 
C 289.871126 273.26069 291.14301 272.733858 292.080645 271.796224 
C 293.018279 270.858589 293.545111 269.586706 293.545111 268.26069 
C 293.545111 266.934675 293.018279 265.662791 292.080645 264.725156 
C 291.14301 263.787522 289.871126 263.26069 288.545111 263.26069 
C 287.219095 263.26069 285.947211 263.787522 285.009577 264.725156 
C 284.071942 265.662791 283.545111 266.934675 283.545111 268.26069 
C 283.545111 269.586706 284.071942 270.858589 285.009577 271.796224 
C 285.947211 272.733858 287.219095 273.26069 288.545111 273.26069 
z
" style="fill:#ff8c00;stroke:#ff8c00;"/>
    <path clip-path="url(#p292512b591)" d="M 258.529806 233.394453 
C 260.405075 233.394453 262.20379 232.649401 263.529806 231.323385 
C 264.855821 229.99737 265.600874 228.198654 265.600874 226.323385 
C 265.600874 224.448116 264.855821 222.649401 263.529806 221.323385 
C 262.20379 219.99737 260.405075 219.252317 258.529806 219.252317 
C 256.654537 219.252317 254.855821 219.99737 253.529806 221.323385 
C 252.20379 222.649401 251.458738 224.448116 251.458738 226.323385 
C 251.458738 228.198654 252.20379 229.99737 253.529806 231.323385 
C 254.855821 232.649401 256.654537 233.394453 258.529806 233.394453 
z
" style="fill:#ffd700;stroke:#ffd700;"/>
    <path clip-path="url(#p292512b591)" d="M 250.350231 237.395536 
C 253.460013 237.395536 256.442845 236.160007 258.641793 233.961059 
C 260.840741 231.762111 262.07627 228.779279 262.07627 225.669497 
C 262.07627 222.559715 260.840741 219.576883 258.641793 217.377935 
C 256.442845 215.178987 253.460013 213.943457 250.350231 213.943457 
C 247.240449 213.943457 244.257617 215.178987 242.058669 217.377935 
C 239.859721 219.576883 238.624191 222.559715 238.624191 225.669497 
C 238.624191 228.779279 239.859721 231.762111 242.058669 233.961059 
C 244.257617 236.160007 247.240449 237.395536 250.350231 237.395536 
z
" style="fill:#0000cd;stroke:#0000cd;"/>
    <path clip-path="url(#p292512b591)" d="M 290.894302 238.192235 
C 292.518333 238.192235 294.076066 237.547001 295.224429 236.398637 
C 296.372792 235.250274 297.018026 233.692541 297.018026 232.06851 
C 297.018026 230.44448 296.372792 228.886747 295.224429 227.738383 
C 294.076066 226.59002 292.518333 225.944786 290.894302 225.944786 
C 289.270271 225.944786 287.712538 226.59002 286.564175 227.738383 
C 285.415812 228.886747 284.770578 230.44448 284.770578 232.06851 
C 284.770578 233.692541 285.415812 235.250274 286.564175 236.398637 
C 287.712538 237.547001 289.270271 238.192235 290.894302 238.192235 
z
" style="fill:#deb887;stroke:#deb887;"/>
    <path clip-path="url(#p292512b591)" d="M 259.262678 231.38517 
C 261.137947 231.38517 262.936663 230.640118 264.262678 229.314102 
C 265.588694 227.988087 266.333746 226.189371 266.333746 224.314102 
C 266.333746 222.438833 265.588694 220.640118 264.262678 219.314102 
C 262.936663 217.988087 261.137947 217.243034 259.262678 217.243034 
C 257.387409 217.243034 255.588694 217.988087 254.262678 219.314102 
C 252.936663 220.640118 252.19161 222.438833 252.19161 224.314102 
C 252.19161 226.189371 252.936663 227.988087 254.262678 229.314102 
C 255.588694 230.640118 257.387409 231.38517 259.262678 231.38517 
z
" style="fill:#00ff00;stroke:#00ff00;"/>
    <path clip-path="url(#p292512b591)" d="M 246.756251 238.279742 
C 248.082266 238.279742 249.35415 237.752911 250.291784 236.815276 
C 251.229419 235.877642 251.756251 234.605758 251.756251 233.279742 
C 251.756251 231.953727 251.229419 230.681843 250.291784 229.744208 
C 249.35415 228.806574 248.082266 228.279742 246.756251 228.279742 
C 245.430235 228.279742 244.158351 228.806574 243.220717 229.744208 
C 242.283082 230.681843 241.756251 231.953727 241.756251 233.279742 
C 241.756251 234.605758 242.283082 235.877642 243.220717 236.815276 
C 244.158351 237.752911 245.430235 238.279742 246.756251 238.279742 
z
" style="fill:#00fa9a;stroke:#00fa9a;"/>
    <path clip-path="url(#p292512b591)" d="M 258.399277 203.367272 
C 260.495892 203.367272 262.506917 202.534278 263.989447 201.051748 
C 265.471977 199.569217 266.304971 197.558192 266.304971 195.461578 
C 266.304971 193.364963 265.471977 191.353938 263.989447 189.871408 
C 262.506917 188.388877 260.495892 187.555884 258.399277 187.555884 
C 256.302663 187.555884 254.291638 188.388877 252.809107 189.871408 
C 251.326577 191.353938 250.493583 193.364963 250.493583 195.461578 
C 250.493583 197.558192 251.326577 199.569217 252.809107 201.051748 
C 254.291638 202.534278 256.302663 203.367272 258.399277 203.367272 
z
" style="fill:#dc143c;stroke:#dc143c;"/>
    <path clip-path="url(#p292512b591)" d="M 248.755073 225.236184 
C 250.379104 225.236184 251.936837 224.59095 253.0852 223.442587 
C 254.233563 222.294224 254.878798 220.736491 254.878798 219.11246 
C 254.878798 217.488429 254.233563 215.930696 253.0852 214.782333 
C 251.936837 213.63397 250.379104 212.988736 248.755073 212.988736 
C 247.131043 212.988736 245.573309 213.63397 244.424946 214.782333 
C 243.276583 215.930696 242.631349 217.488429 242.631349 219.11246 
C 242.631349 220.736491 243.276583 222.294224 244.424946 223.442587 
C 245.573309 224.59095 247.131043 225.236184 248.755073 225.236184 
z
" style="fill:#f4a460;stroke:#f4a460;"/>
    <path clip-path="url(#p292512b591)" d="M 248.725821 230.519959 
C 250.349852 230.519959 251.907585 229.874725 253.055948 228.726362 
C 254.204311 227.577999 254.849545 226.020266 254.849545 224.396235 
C 254.849545 222.772204 254.204311 221.214471 253.055948 220.066108 
C 251.907585 218.917745 250.349852 218.272511 248.725821 218.272511 
C 247.10179 218.272511 245.544057 218.917745 244.395694 220.066108 
C 243.247331 221.214471 242.602097 222.772204 242.602097 224.396235 
C 242.602097 226.020266 243.247331 227.577999 244.395694 228.726362 
C 245.544057 229.874725 247.10179 230.519959 248.725821 230.519959 
z
" style="fill:#0000ff;stroke:#0000ff;"/>
    <path clip-path="url(#p292512b591)" d="M 285.454979 181.576835 
C 287.330248 181.576835 289.128963 180.831782 290.454979 179.505767 
C 291.780994 178.179751 292.526047 176.381036 292.526047 174.505767 
C 292.526047 172.630498 291.780994 170.831782 290.454979 169.505767 
C 289.128963 168.179751 287.330248 167.434699 285.454979 167.434699 
C 283.57971 167.434699 281.780994 168.179751 280.454979 169.505767 
C 279.128963 170.831782 278.383911 172.630498 278.383911 174.505767 
C 278.383911 176.381036 279.128963 178.179751 280.454979 179.505767 
C 281.780994 180.831782 283.57971 181.576835 285.454979 181.576835 
z
" style="fill:#a020f0;stroke:#a020f0;"/>
    <path clip-path="url(#p292512b591)" d="M 261.616462 228.689934 
C 263.240493 228.689934 264.798226 228.0447 265.946589 226.896337 
C 267.094952 225.747974 267.740187 224.19024 267.740187 222.56621 
C 267.740187 220.942179 267.094952 219.384446 265.946589 218.236083 
C 264.798226 217.08772 263.240493 216.442485 261.616462 216.442485 
C 259.992432 216.442485 258.434698 217.08772 257.286335 218.236083 
C 256.137972 219.384446 255.492738 220.942179 255.492738 222.56621 
C 255.492738 224.19024 256.137972 225.747974 257.286335 226.896337 
C 258.434698 228.0447 259.992432 228.689934 261.616462 228.689934 
z
" style="fill:#adff2f;stroke:#adff2f;"/>
    <path clip-path="url(#p292512b591)" d="M 242.962306 244.863406 
C 245.259033 244.863406 247.462 243.950907 249.086031 242.326877 
C 250.710061 240.702846 251.62256 238.499878 251.62256 236.203152 
C 251.62256 233.906426 250.710061 231.703458 249.086031 230.079428 
C 247.462 228.455397 245.259033 227.542898 242.962306 227.542898 
C 240.66558 227.542898 238.462613 228.455397 236.838582 230.079428 
C 235.214551 231.703458 234.302052 233.906426 234.302052 236.203152 
C 234.302052 238.499878 235.214551 240.702846 236.838582 242.326877 
C 238.462613 243.950907 240.66558 244.863406 242.962306 244.863406 
z
" style="fill:#ff6347;stroke:#ff6347;"/>
    <path clip-path="url(#p292512b591)" d="M 239.439594 223.078754 
C 241.73632 223.078754 243.939288 222.166255 245.563318 220.542224 
C 247.187349 218.918193 248.099848 216.715226 248.099848 214.4185 
C 248.099848 212.121774 247.187349 209.918806 245.563318 208.294775 
C 243.939288 206.670745 241.73632 205.758246 239.439594 205.758246 
C 237.142868 205.758246 234.9399 206.670745 233.31587 208.294775 
C 231.691839 209.918806 230.77934 212.121774 230.77934 214.4185 
C 230.77934 216.715226 231.691839 218.918193 233.31587 220.542224 
C 234.9399 222.166255 237.142868 223.078754 239.439594 223.078754 
z
" style="fill:#da70d6;stroke:#da70d6;"/>
    <path clip-path="url(#p292512b591)" d="M 271.717667 240.647589 
C 273.341697 240.647589 274.89943 240.002354 276.047794 238.853991 
C 277.196157 237.705628 277.841391 236.147895 277.841391 234.523864 
C 277.841391 232.899834 277.196157 231.3421 276.047794 230.193737 
C 274.89943 229.045374 273.341697 228.40014 271.717667 228.40014 
C 270.093636 228.40014 268.535903 229.045374 267.38754 230.193737 
C 266.239176 231.3421 265.593942 232.899834 265.593942 234.523864 
C 265.593942 236.147895 266.239176 237.705628 267.38754 238.853991 
C 268.535903 240.002354 270.093636 240.647589 271.717667 240.647589 
z
" style="fill:#b0c4de;stroke:#b0c4de;"/>
    <path clip-path="url(#p292512b591)" d="M 253.391262 285.965463 
C 254.717277 285.965463 255.989161 285.438632 256.926796 284.500997 
C 257.86443 283.563363 258.391262 282.291479 258.391262 280.965463 
C 258.391262 279.639448 257.86443 278.367564 256.926796 277.429929 
C 255.989161 276.492295 254.717277 275.965463 253.391262 275.965463 
C 252.065246 275.965463 250.793362 276.492295 249.855728 277.429929 
C 248.918093 278.367564 248.391262 279.639448 248.391262 280.965463 
C 248.391262 282.291479 248.918093 283.563363 249.855728 284.500997 
C 250.793362 285.438632 252.065246 285.965463 253.391262 285.965463 
z
" style="fill:#f0e68c;stroke:#f0e68c;"/>
    <path clip-path="url(#p292512b591)" d="M 263.185647 249.032529 
C 265.282261 249.032529 267.293286 248.199535 268.775817 246.717004 
C 270.258347 245.234474 271.091341 243.223449 271.091341 241.126834 
C 271.091341 239.03022 270.258347 237.019195 268.775817 235.536664 
C 267.293286 234.054134 265.282261 233.22114 263.185647 233.22114 
C 261.089032 233.22114 259.078007 234.054134 257.595477 235.536664 
C 256.112947 237.019195 255.279953 239.03022 255.279953 241.126834 
C 255.279953 243.223449 256.112947 245.234474 257.595477 246.717004 
C 259.078007 248.199535 261.089032 249.032529 263.185647 249.032529 
z
" style="fill:#ffff54;stroke:#ffff54;"/>
    <path clip-path="url(#p292512b591)" d="M 265.500687 227.714413 
C 267.124717 227.714413 268.68245 227.069179 269.830814 225.920816 
C 270.979177 224.772453 271.624411 223.21472 271.624411 221.590689 
C 271.624411 219.966658 270.979177 218.408925 269.830814 217.260562 
C 268.68245 216.112199 267.124717 215.466965 265.500687 215.466965 
C 263.876656 215.466965 262.318923 216.112199 261.17056 217.260562 
C 260.022196 218.408925 259.376962 219.966658 259.376962 221.590689 
C 259.376962 223.21472 260.022196 224.772453 261.17056 225.920816 
C 262.318923 227.069179 263.876656 227.714413 265.500687 227.714413 
z
" style="fill:#6495ed;stroke:#6495ed;"/>
    <path clip-path="url(#p292512b591)" d="M 259.019686 239.214033 
C 260.345702 239.214033 261.617585 238.687201 262.55522 237.749567 
C 263.492854 236.811932 264.019686 235.540048 264.019686 234.214033 
C 264.019686 232.888017 263.492854 231.616133 262.55522 230.678499 
C 261.617585 229.740864 260.345702 229.214033 259.019686 229.214033 
C 257.693671 229.214033 256.421787 229.740864 255.484152 230.678499 
C 254.546518 231.616133 254.019686 232.888017 254.019686 234.214033 
C 254.019686 235.540048 254.546518 236.811932 255.484152 237.749567 
C 256.421787 238.687201 257.693671 239.214033 259.019686 239.214033 
z
" style="fill:#dda0dd;stroke:#dda0dd;"/>
    <path clip-path="url(#p292512b591)" d="M 246.084178 267.124666 
C 247.708209 267.124666 249.265942 266.479432 250.414305 265.331069 
C 251.562668 264.182706 252.207903 262.624973 252.207903 261.000942 
C 252.207903 259.376911 251.562668 257.819178 250.414305 256.670815 
C 249.265942 255.522452 247.708209 254.877218 246.084178 254.877218 
C 244.460148 254.877218 242.902414 255.522452 241.754051 256.670815 
C 240.605688 257.819178 239.960454 259.376911 239.960454 261.000942 
C 239.960454 262.624973 240.605688 264.182706 241.754051 265.331069 
C 242.902414 266.479432 244.460148 267.124666 246.084178 267.124666 
z
" style="fill:#7b68ee;stroke:#7b68ee;"/>
    <path clip-path="url(#p292512b591)" d="M 258.660989 261.902279 
C 259.987004 261.902279 261.258888 261.375448 262.196523 260.437813 
C 263.134157 259.500179 263.660989 258.228295 263.660989 256.902279 
C 263.660989 255.576264 263.134157 254.30438 262.196523 253.366745 
C 261.258888 252.429111 259.987004 251.902279 258.660989 251.902279 
C 257.334973 251.902279 256.063089 252.429111 255.125455 253.366745 
C 254.18782 254.30438 253.660989 255.576264 253.660989 256.902279 
C 253.660989 258.228295 254.18782 259.500179 255.125455 260.437813 
C 256.063089 261.375448 257.334973 261.902279 258.660989 261.902279 
z
" style="fill:#afeeee;stroke:#afeeee;"/>
    <path clip-path="url(#p292512b591)" d="M 278.00013 233.968695 
C 279.326146 233.968695 280.598029 233.441864 281.535664 232.504229 
C 282.473299 231.566595 283.00013 230.294711 283.00013 228.968695 
C 283.00013 227.64268 282.473299 226.370796 281.535664 225.433161 
C 280.598029 224.495527 279.326146 223.968695 278.00013 223.968695 
C 276.674115 223.968695 275.402231 224.495527 274.464596 225.433161 
C 273.526962 226.370796 273.00013 227.64268 273.00013 228.968695 
C 273.00013 230.294711 273.526962 231.566595 274.464596 232.504229 
C 275.402231 233.441864 276.674115 233.968695 278.00013 233.968695 
z
" style="fill:#7fffd4;stroke:#7fffd4;"/>
   </g>
   <g id="matplotlib.axis_1">
    <g id="xtick_1">
     <g id="line2d_1">
      <defs>
       <path d="M 0 0 
L 0 3.5 
" id="mf3d40342a5" style="stroke:#000000;stroke-width:0.8;"/>
      </defs>
      <g>
       <use style="stroke:#000000;stroke-width:0.8;" x="258.3" xlink:href="#mf3d40342a5" y="576.72"/>
      </g>
     </g>
     <g id="text_1">
      <!-- MeanPD -->
      <g transform="translate(237.811719 591.318438)scale(0.1 -0.1)">
       <defs>
        <path d="M 9.8125 72.90625 
L 24.515625 72.90625 
L 43.109375 23.296875 
L 61.8125 72.90625 
L 76.515625 72.90625 
L 76.515625 0 
L 66.890625 0 
L 66.890625 64.015625 
L 48.09375 14.015625 
L 38.1875 14.015625 
L 19.390625 64.015625 
L 19.390625 0 
L 9.8125 0 
z
" id="DejaVuSans-77"/>
        <path d="M 56.203125 29.59375 
L 56.203125 25.203125 
L 14.890625 25.203125 
Q 15.484375 15.921875 20.484375 11.0625 
Q 25.484375 6.203125 34.421875 6.203125 
Q 39.59375 6.203125 44.453125 7.46875 
Q 49.3125 8.734375 54.109375 11.28125 
L 54.109375 2.78125 
Q 49.265625 0.734375 44.1875 -0.34375 
Q 39.109375 -1.421875 33.890625 -1.421875 
Q 20.796875 -1.421875 13.15625 6.1875 
Q 5.515625 13.8125 5.515625 26.8125 
Q 5.515625 40.234375 12.765625 48.109375 
Q 20.015625 56 32.328125 56 
Q 43.359375 56 49.78125 48.890625 
Q 56.203125 41.796875 56.203125 29.59375 
z
M 47.21875 32.234375 
Q 47.125 39.59375 43.09375 43.984375 
Q 39.0625 48.390625 32.421875 48.390625 
Q 24.90625 48.390625 20.390625 44.140625 
Q 15.875 39.890625 15.1875 32.171875 
z
" id="DejaVuSans-101"/>
        <path d="M 34.28125 27.484375 
Q 23.390625 27.484375 19.1875 25 
Q 14.984375 22.515625 14.984375 16.5 
Q 14.984375 11.71875 18.140625 8.90625 
Q 21.296875 6.109375 26.703125 6.109375 
Q 34.1875 6.109375 38.703125 11.40625 
Q 43.21875 16.703125 43.21875 25.484375 
L 43.21875 27.484375 
z
M 52.203125 31.203125 
L 52.203125 0 
L 43.21875 0 
L 43.21875 8.296875 
Q 40.140625 3.328125 35.546875 0.953125 
Q 30.953125 -1.421875 24.3125 -1.421875 
Q 15.921875 -1.421875 10.953125 3.296875 
Q 6 8.015625 6 15.921875 
Q 6 25.140625 12.171875 29.828125 
Q 18.359375 34.515625 30.609375 34.515625 
L 43.21875 34.515625 
L 43.21875 35.40625 
Q 43.21875 41.609375 39.140625 45 
Q 35.0625 48.390625 27.6875 48.390625 
Q 23 48.390625 18.546875 47.265625 
Q 14.109375 46.140625 10.015625 43.890625 
L 10.015625 52.203125 
Q 14.9375 54.109375 19.578125 55.046875 
Q 24.21875 56 28.609375 56 
Q 40.484375 56 46.34375 49.84375 
Q 52.203125 43.703125 52.203125 31.203125 
z
" id="DejaVuSans-97"/>
        <path d="M 54.890625 33.015625 
L 54.890625 0 
L 45.90625 0 
L 45.90625 32.71875 
Q 45.90625 40.484375 42.875 44.328125 
Q 39.84375 48.1875 33.796875 48.1875 
Q 26.515625 48.1875 22.3125 43.546875 
Q 18.109375 38.921875 18.109375 30.90625 
L 18.109375 0 
L 9.078125 0 
L 9.078125 54.6875 
L 18.109375 54.6875 
L 18.109375 46.1875 
Q 21.34375 51.125 25.703125 53.5625 
Q 30.078125 56 35.796875 56 
Q 45.21875 56 50.046875 50.171875 
Q 54.890625 44.34375 54.890625 33.015625 
z
" id="DejaVuSans-110"/>
        <path d="M 19.671875 64.796875 
L 19.671875 37.40625 
L 32.078125 37.40625 
Q 38.96875 37.40625 42.71875 40.96875 
Q 46.484375 44.53125 46.484375 51.125 
Q 46.484375 57.671875 42.71875 61.234375 
Q 38.96875 64.796875 32.078125 64.796875 
z
M 9.8125 72.90625 
L 32.078125 72.90625 
Q 44.34375 72.90625 50.609375 67.359375 
Q 56.890625 61.8125 56.890625 51.125 
Q 56.890625 40.328125 50.609375 34.8125 
Q 44.34375 29.296875 32.078125 29.296875 
L 19.671875 29.296875 
L 19.671875 0 
L 9.8125 0 
z
" id="DejaVuSans-80"/>
        <path d="M 19.671875 64.796875 
L 19.671875 8.109375 
L 31.59375 8.109375 
Q 46.6875 8.109375 53.6875 14.9375 
Q 60.6875 21.78125 60.6875 36.53125 
Q 60.6875 51.171875 53.6875 57.984375 
Q 46.6875 64.796875 31.59375 64.796875 
z
M 9.8125 72.90625 
L 30.078125 72.90625 
Q 51.265625 72.90625 61.171875 64.09375 
Q 71.09375 55.28125 71.09375 36.53125 
Q 71.09375 17.671875 61.125 8.828125 
Q 51.171875 0 30.078125 0 
L 9.8125 0 
z
" id="DejaVuSans-68"/>
       </defs>
       <use xlink:href="#DejaVuSans-77"/>
       <use x="86.279297" xlink:href="#DejaVuSans-101"/>
       <use x="147.802734" xlink:href="#DejaVuSans-97"/>
       <use x="209.082031" xlink:href="#DejaVuSans-110"/>
       <use x="272.460938" xlink:href="#DejaVuSans-80"/>
       <use x="332.763672" xlink:href="#DejaVuSans-68"/>
      </g>
     </g>
    </g>
   </g>
   <g id="matplotlib.axis_2">
    <g id="ytick_1">
     <g id="line2d_2">
      <defs>
       <path d="M 0 0 
L -3.5 0 
" id="mb53a5439c4" style="stroke:#000000;stroke-width:0.8;"/>
      </defs>
      <g>
       <use style="stroke:#000000;stroke-width:0.8;" x="63" xlink:href="#mb53a5439c4" y="576.72"/>
      </g>
     </g>
     <g id="text_2">
      <!-- −3.5 -->
      <g transform="translate(31.717187 580.519219)scale(0.1 -0.1)">
       <defs>
        <path d="M 10.59375 35.5 
L 73.1875 35.5 
L 73.1875 27.203125 
L 10.59375 27.203125 
z
" id="DejaVuSans-8722"/>
        <path d="M 40.578125 39.3125 
Q 47.65625 37.796875 51.625 33 
Q 55.609375 28.21875 55.609375 21.1875 
Q 55.609375 10.40625 48.1875 4.484375 
Q 40.765625 -1.421875 27.09375 -1.421875 
Q 22.515625 -1.421875 17.65625 -0.515625 
Q 12.796875 0.390625 7.625 2.203125 
L 7.625 11.71875 
Q 11.71875 9.328125 16.59375 8.109375 
Q 21.484375 6.890625 26.8125 6.890625 
Q 36.078125 6.890625 40.9375 10.546875 
Q 45.796875 14.203125 45.796875 21.1875 
Q 45.796875 27.640625 41.28125 31.265625 
Q 36.765625 34.90625 28.71875 34.90625 
L 20.21875 34.90625 
L 20.21875 43.015625 
L 29.109375 43.015625 
Q 36.375 43.015625 40.234375 45.921875 
Q 44.09375 48.828125 44.09375 54.296875 
Q 44.09375 59.90625 40.109375 62.90625 
Q 36.140625 65.921875 28.71875 65.921875 
Q 24.65625 65.921875 20.015625 65.03125 
Q 15.375 64.15625 9.8125 62.3125 
L 9.8125 71.09375 
Q 15.4375 72.65625 20.34375 73.4375 
Q 25.25 74.21875 29.59375 74.21875 
Q 40.828125 74.21875 47.359375 69.109375 
Q 53.90625 64.015625 53.90625 55.328125 
Q 53.90625 49.265625 50.4375 45.09375 
Q 46.96875 40.921875 40.578125 39.3125 
z
" id="DejaVuSans-51"/>
        <path d="M 10.6875 12.40625 
L 21 12.40625 
L 21 0 
L 10.6875 0 
z
" id="DejaVuSans-46"/>
        <path d="M 10.796875 72.90625 
L 49.515625 72.90625 
L 49.515625 64.59375 
L 19.828125 64.59375 
L 19.828125 46.734375 
Q 21.96875 47.46875 24.109375 47.828125 
Q 26.265625 48.1875 28.421875 48.1875 
Q 40.625 48.1875 47.75 41.5 
Q 54.890625 34.8125 54.890625 23.390625 
Q 54.890625 11.625 47.5625 5.09375 
Q 40.234375 -1.421875 26.90625 -1.421875 
Q 22.3125 -1.421875 17.546875 -0.640625 
Q 12.796875 0.140625 7.71875 1.703125 
L 7.71875 11.625 
Q 12.109375 9.234375 16.796875 8.0625 
Q 21.484375 6.890625 26.703125 6.890625 
Q 35.15625 6.890625 40.078125 11.328125 
Q 45.015625 15.765625 45.015625 23.390625 
Q 45.015625 31 40.078125 35.4375 
Q 35.15625 39.890625 26.703125 39.890625 
Q 22.75 39.890625 18.8125 39.015625 
Q 14.890625 38.140625 10.796875 36.28125 
z
" id="DejaVuSans-53"/>
       </defs>
       <use xlink:href="#DejaVuSans-8722"/>
       <use x="83.789062" xlink:href="#DejaVuSans-51"/>
       <use x="147.412109" xlink:href="#DejaVuSans-46"/>
       <use x="179.199219" xlink:href="#DejaVuSans-53"/>
      </g>
     </g>
    </g>
    <g id="ytick_2">
     <g id="line2d_3">
      <g>
       <use style="stroke:#000000;stroke-width:0.8;" x="63" xlink:href="#mb53a5439c4" y="538.92"/>
      </g>
     </g>
     <g id="text_3">
      <!-- −3.0 -->
      <g transform="translate(31.717187 542.719219)scale(0.1 -0.1)">
       <defs>
        <path d="M 31.78125 66.40625 
Q 24.171875 66.40625 20.328125 58.90625 
Q 16.5 51.421875 16.5 36.375 
Q 16.5 21.390625 20.328125 13.890625 
Q 24.171875 6.390625 31.78125 6.390625 
Q 39.453125 6.390625 43.28125 13.890625 
Q 47.125 21.390625 47.125 36.375 
Q 47.125 51.421875 43.28125 58.90625 
Q 39.453125 66.40625 31.78125 66.40625 
z
M 31.78125 74.21875 
Q 44.046875 74.21875 50.515625 64.515625 
Q 56.984375 54.828125 56.984375 36.375 
Q 56.984375 17.96875 50.515625 8.265625 
Q 44.046875 -1.421875 31.78125 -1.421875 
Q 19.53125 -1.421875 13.0625 8.265625 
Q 6.59375 17.96875 6.59375 36.375 
Q 6.59375 54.828125 13.0625 64.515625 
Q 19.53125 74.21875 31.78125 74.21875 
z
" id="DejaVuSans-48"/>
       </defs>
       <use xlink:href="#DejaVuSans-8722"/>
       <use x="83.789062" xlink:href="#DejaVuSans-51"/>
       <use x="147.412109" xlink:href="#DejaVuSans-46"/>
       <use x="179.199219" xlink:href="#DejaVuSans-48"/>
      </g>
     </g>
    </g>
    <g id="ytick_3">
     <g id="line2d_4">
      <g>
       <use style="stroke:#000000;stroke-width:0.8;" x="63" xlink:href="#mb53a5439c4" y="501.12"/>
      </g>
     </g>
     <g id="text_4">
      <!-- −2.5 -->
      <g transform="translate(31.717187 504.919219)scale(0.1 -0.1)">
       <defs>
        <path d="M 19.1875 8.296875 
L 53.609375 8.296875 
L 53.609375 0 
L 7.328125 0 
L 7.328125 8.296875 
Q 12.9375 14.109375 22.625 23.890625 
Q 32.328125 33.6875 34.8125 36.53125 
Q 39.546875 41.84375 41.421875 45.53125 
Q 43.3125 49.21875 43.3125 52.78125 
Q 43.3125 58.59375 39.234375 62.25 
Q 35.15625 65.921875 28.609375 65.921875 
Q 23.96875 65.921875 18.8125 64.3125 
Q 13.671875 62.703125 7.8125 59.421875 
L 7.8125 69.390625 
Q 13.765625 71.78125 18.9375 73 
Q 24.125 74.21875 28.421875 74.21875 
Q 39.75 74.21875 46.484375 68.546875 
Q 53.21875 62.890625 53.21875 53.421875 
Q 53.21875 48.921875 51.53125 44.890625 
Q 49.859375 40.875 45.40625 35.40625 
Q 44.1875 33.984375 37.640625 27.21875 
Q 31.109375 20.453125 19.1875 8.296875 
z
" id="DejaVuSans-50"/>
       </defs>
       <use xlink:href="#DejaVuSans-8722"/>
       <use x="83.789062" xlink:href="#DejaVuSans-50"/>
       <use x="147.412109" xlink:href="#DejaVuSans-46"/>
       <use x="179.199219" xlink:href="#DejaVuSans-53"/>
      </g>
     </g>
    </g>
    <g id="ytick_4">
     <g id="line2d_5">
      <g>
       <use style="stroke:#000000;stroke-width:0.8;" x="63" xlink:href="#mb53a5439c4" y="463.32"/>
      </g>
     </g>
     <g id="text_5">
      <!-- −2.0 -->
      <g transform="translate(31.717187 467.119219)scale(0.1 -0.1)">
       <use xlink:href="#DejaVuSans-8722"/>
       <use x="83.789062" xlink:href="#DejaVuSans-50"/>
       <use x="147.412109" xlink:href="#DejaVuSans-46"/>
       <use x="179.199219" xlink:href="#DejaVuSans-48"/>
      </g>
     </g>
    </g>
    <g id="ytick_5">
     <g id="line2d_6">
      <g>
       <use style="stroke:#000000;stroke-width:0.8;" x="63" xlink:href="#mb53a5439c4" y="425.52"/>
      </g>
     </g>
     <g id="text_6">
      <!-- −1.5 -->
      <g transform="translate(31.717187 429.319219)scale(0.1 -0.1)">
       <defs>
        <path d="M 12.40625 8.296875 
L 28.515625 8.296875 
L 28.515625 63.921875 
L 10.984375 60.40625 
L 10.984375 69.390625 
L 28.421875 72.90625 
L 38.28125 72.90625 
L 38.28125 8.296875 
L 54.390625 8.296875 
L 54.390625 0 
L 12.40625 0 
z
" id="DejaVuSans-49"/>
       </defs>
       <use xlink:href="#DejaVuSans-8722"/>
       <use x="83.789062" xlink:href="#DejaVuSans-49"/>
       <use x="147.412109" xlink:href="#DejaVuSans-46"/>
       <use x="179.199219" xlink:href="#DejaVuSans-53"/>
      </g>
     </g>
    </g>
    <g id="ytick_6">
     <g id="line2d_7">
      <g>
       <use style="stroke:#000000;stroke-width:0.8;" x="63" xlink:href="#mb53a5439c4" y="387.72"/>
      </g>
     </g>
     <g id="text_7">
      <!-- −1.0 -->
      <g transform="translate(31.717187 391.519219)scale(0.1 -0.1)">
       <use xlink:href="#DejaVuSans-8722"/>
       <use x="83.789062" xlink:href="#DejaVuSans-49"/>
       <use x="147.412109" xlink:href="#DejaVuSans-46"/>
       <use x="179.199219" xlink:href="#DejaVuSans-48"/>
      </g>
     </g>
    </g>
    <g id="ytick_7">
     <g id="line2d_8">
      <g>
       <use style="stroke:#000000;stroke-width:0.8;" x="63" xlink:href="#mb53a5439c4" y="349.92"/>
      </g>
     </g>
     <g id="text_8">
      <!-- −0.5 -->
      <g transform="translate(31.717187 353.719219)scale(0.1 -0.1)">
       <use xlink:href="#DejaVuSans-8722"/>
       <use x="83.789062" xlink:href="#DejaVuSans-48"/>
       <use x="147.412109" xlink:href="#DejaVuSans-46"/>
       <use x="179.199219" xlink:href="#DejaVuSans-53"/>
      </g>
     </g>
    </g>
    <g id="ytick_8">
     <g id="line2d_9">
      <g>
       <use style="stroke:#000000;stroke-width:0.8;" x="63" xlink:href="#mb53a5439c4" y="312.12"/>
      </g>
     </g>
     <g id="text_9">
      <!-- 0.0 -->
      <g transform="translate(40.096875 315.919219)scale(0.1 -0.1)">
       <use xlink:href="#DejaVuSans-48"/>
       <use x="63.623047" xlink:href="#DejaVuSans-46"/>
       <use x="95.410156" xlink:href="#DejaVuSans-48"/>
      </g>
     </g>
    </g>
    <g id="ytick_9">
     <g id="line2d_10">
      <g>
       <use style="stroke:#000000;stroke-width:0.8;" x="63" xlink:href="#mb53a5439c4" y="274.32"/>
      </g>
     </g>
     <g id="text_10">
      <!-- 0.5 -->
      <g transform="translate(40.096875 278.119219)scale(0.1 -0.1)">
       <use xlink:href="#DejaVuSans-48"/>
       <use x="63.623047" xlink:href="#DejaVuSans-46"/>
       <use x="95.410156" xlink:href="#DejaVuSans-53"/>
      </g>
     </g>
    </g>
    <g id="ytick_10">
     <g id="line2d_11">
      <g>
       <use style="stroke:#000000;stroke-width:0.8;" x="63" xlink:href="#mb53a5439c4" y="236.52"/>
      </g>
     </g>
     <g id="text_11">
      <!-- 1.0 -->
      <g transform="translate(40.096875 240.319219)scale(0.1 -0.1)">
       <use xlink:href="#DejaVuSans-49"/>
       <use x="63.623047" xlink:href="#DejaVuSans-46"/>
       <use x="95.410156" xlink:href="#DejaVuSans-48"/>
      </g>
     </g>
    </g>
    <g id="ytick_11">
     <g id="line2d_12">
      <g>
       <use style="stroke:#000000;stroke-width:0.8;" x="63" xlink:href="#mb53a5439c4" y="198.72"/>
      </g>
     </g>
     <g id="text_12">
      <!-- 1.5 -->
      <g transform="translate(40.096875 202.519219)scale(0.1 -0.1)">
       <use xlink:href="#DejaVuSans-49"/>
       <use x="63.623047" xlink:href="#DejaVuSans-46"/>
       <use x="95.410156" xlink:href="#DejaVuSans-53"/>
      </g>
     </g>
    </g>
    <g id="ytick_12">
     <g id="line2d_13">
      <g>
       <use style="stroke:#000000;stroke-width:0.8;" x="63" xlink:href="#mb53a5439c4" y="160.92"/>
      </g>
     </g>
     <g id="text_13">
      <!-- 2.0 -->
      <g transform="translate(40.096875 164.719219)scale(0.1 -0.1)">
       <use xlink:href="#DejaVuSans-50"/>
       <use x="63.623047" xlink:href="#DejaVuSans-46"/>
       <use x="95.410156" xlink:href="#DejaVuSans-48"/>
      </g>
     </g>
    </g>
    <g id="ytick_13">
     <g id="line2d_14">
      <g>
       <use style="stroke:#000000;stroke-width:0.8;" x="63" xlink:href="#mb53a5439c4" y="123.12"/>
      </g>
     </g>
     <g id="text_14">
      <!-- 2.5 -->
      <g transform="translate(40.096875 126.919219)scale(0.1 -0.1)">
       <use xlink:href="#DejaVuSans-50"/>
       <use x="63.623047" xlink:href="#DejaVuSans-46"/>
       <use x="95.410156" xlink:href="#DejaVuSans-53"/>
      </g>
     </g>
    </g>
    <g id="ytick_14">
     <g id="line2d_15">
      <g>
       <use style="stroke:#000000;stroke-width:0.8;" x="63" xlink:href="#mb53a5439c4" y="85.32"/>
      </g>
     </g>
     <g id="text_15">
      <!-- 3.0 -->
      <g transform="translate(40.096875 89.119219)scale(0.1 -0.1)">
       <use xlink:href="#DejaVuSans-51"/>
       <use x="63.623047" xlink:href="#DejaVuSans-46"/>
       <use x="95.410156" xlink:href="#DejaVuSans-48"/>
      </g>
     </g>
    </g>
    <g id="text_16">
     <!-- LogOdds -->
     <g transform="translate(25.6375 349.061094)rotate(-90)scale(0.1 -0.1)">
      <defs>
       <path d="M 9.8125 72.90625 
L 19.671875 72.90625 
L 19.671875 8.296875 
L 55.171875 8.296875 
L 55.171875 0 
L 9.8125 0 
z
" id="DejaVuSans-76"/>
       <path d="M 30.609375 48.390625 
Q 23.390625 48.390625 19.1875 42.75 
Q 14.984375 37.109375 14.984375 27.296875 
Q 14.984375 17.484375 19.15625 11.84375 
Q 23.34375 6.203125 30.609375 6.203125 
Q 37.796875 6.203125 41.984375 11.859375 
Q 46.1875 17.53125 46.1875 27.296875 
Q 46.1875 37.015625 41.984375 42.703125 
Q 37.796875 48.390625 30.609375 48.390625 
z
M 30.609375 56 
Q 42.328125 56 49.015625 48.375 
Q 55.71875 40.765625 55.71875 27.296875 
Q 55.71875 13.875 49.015625 6.21875 
Q 42.328125 -1.421875 30.609375 -1.421875 
Q 18.84375 -1.421875 12.171875 6.21875 
Q 5.515625 13.875 5.515625 27.296875 
Q 5.515625 40.765625 12.171875 48.375 
Q 18.84375 56 30.609375 56 
z
" id="DejaVuSans-111"/>
       <path d="M 45.40625 27.984375 
Q 45.40625 37.75 41.375 43.109375 
Q 37.359375 48.484375 30.078125 48.484375 
Q 22.859375 48.484375 18.828125 43.109375 
Q 14.796875 37.75 14.796875 27.984375 
Q 14.796875 18.265625 18.828125 12.890625 
Q 22.859375 7.515625 30.078125 7.515625 
Q 37.359375 7.515625 41.375 12.890625 
Q 45.40625 18.265625 45.40625 27.984375 
z
M 54.390625 6.78125 
Q 54.390625 -7.171875 48.1875 -13.984375 
Q 42 -20.796875 29.203125 -20.796875 
Q 24.46875 -20.796875 20.265625 -20.09375 
Q 16.0625 -19.390625 12.109375 -17.921875 
L 12.109375 -9.1875 
Q 16.0625 -11.328125 19.921875 -12.34375 
Q 23.78125 -13.375 27.78125 -13.375 
Q 36.625 -13.375 41.015625 -8.765625 
Q 45.40625 -4.15625 45.40625 5.171875 
L 45.40625 9.625 
Q 42.625 4.78125 38.28125 2.390625 
Q 33.9375 0 27.875 0 
Q 17.828125 0 11.671875 7.65625 
Q 5.515625 15.328125 5.515625 27.984375 
Q 5.515625 40.671875 11.671875 48.328125 
Q 17.828125 56 27.875 56 
Q 33.9375 56 38.28125 53.609375 
Q 42.625 51.21875 45.40625 46.390625 
L 45.40625 54.6875 
L 54.390625 54.6875 
z
" id="DejaVuSans-103"/>
       <path d="M 39.40625 66.21875 
Q 28.65625 66.21875 22.328125 58.203125 
Q 16.015625 50.203125 16.015625 36.375 
Q 16.015625 22.609375 22.328125 14.59375 
Q 28.65625 6.59375 39.40625 6.59375 
Q 50.140625 6.59375 56.421875 14.59375 
Q 62.703125 22.609375 62.703125 36.375 
Q 62.703125 50.203125 56.421875 58.203125 
Q 50.140625 66.21875 39.40625 66.21875 
z
M 39.40625 74.21875 
Q 54.734375 74.21875 63.90625 63.9375 
Q 73.09375 53.65625 73.09375 36.375 
Q 73.09375 19.140625 63.90625 8.859375 
Q 54.734375 -1.421875 39.40625 -1.421875 
Q 24.03125 -1.421875 14.8125 8.828125 
Q 5.609375 19.09375 5.609375 36.375 
Q 5.609375 53.65625 14.8125 63.9375 
Q 24.03125 74.21875 39.40625 74.21875 
z
" id="DejaVuSans-79"/>
       <path d="M 45.40625 46.390625 
L 45.40625 75.984375 
L 54.390625 75.984375 
L 54.390625 0 
L 45.40625 0 
L 45.40625 8.203125 
Q 42.578125 3.328125 38.25 0.953125 
Q 33.9375 -1.421875 27.875 -1.421875 
Q 17.96875 -1.421875 11.734375 6.484375 
Q 5.515625 14.40625 5.515625 27.296875 
Q 5.515625 40.1875 11.734375 48.09375 
Q 17.96875 56 27.875 56 
Q 33.9375 56 38.25 53.625 
Q 42.578125 51.265625 45.40625 46.390625 
z
M 14.796875 27.296875 
Q 14.796875 17.390625 18.875 11.75 
Q 22.953125 6.109375 30.078125 6.109375 
Q 37.203125 6.109375 41.296875 11.75 
Q 45.40625 17.390625 45.40625 27.296875 
Q 45.40625 37.203125 41.296875 42.84375 
Q 37.203125 48.484375 30.078125 48.484375 
Q 22.953125 48.484375 18.875 42.84375 
Q 14.796875 37.203125 14.796875 27.296875 
z
" id="DejaVuSans-100"/>
       <path d="M 44.28125 53.078125 
L 44.28125 44.578125 
Q 40.484375 46.53125 36.375 47.5 
Q 32.28125 48.484375 27.875 48.484375 
Q 21.1875 48.484375 17.84375 46.4375 
Q 14.5 44.390625 14.5 40.28125 
Q 14.5 37.15625 16.890625 35.375 
Q 19.28125 33.59375 26.515625 31.984375 
L 29.59375 31.296875 
Q 39.15625 29.25 43.1875 25.515625 
Q 47.21875 21.78125 47.21875 15.09375 
Q 47.21875 7.46875 41.1875 3.015625 
Q 35.15625 -1.421875 24.609375 -1.421875 
Q 20.21875 -1.421875 15.453125 -0.5625 
Q 10.6875 0.296875 5.421875 2 
L 5.421875 11.28125 
Q 10.40625 8.6875 15.234375 7.390625 
Q 20.0625 6.109375 24.8125 6.109375 
Q 31.15625 6.109375 34.5625 8.28125 
Q 37.984375 10.453125 37.984375 14.40625 
Q 37.984375 18.0625 35.515625 20.015625 
Q 33.0625 21.96875 24.703125 23.78125 
L 21.578125 24.515625 
Q 13.234375 26.265625 9.515625 29.90625 
Q 5.8125 33.546875 5.8125 39.890625 
Q 5.8125 47.609375 11.28125 51.796875 
Q 16.75 56 26.8125 56 
Q 31.78125 56 36.171875 55.265625 
Q 40.578125 54.546875 44.28125 53.078125 
z
" id="DejaVuSans-115"/>
      </defs>
      <use xlink:href="#DejaVuSans-76"/>
      <use x="53.962891" xlink:href="#DejaVuSans-111"/>
      <use x="115.144531" xlink:href="#DejaVuSans-103"/>
      <use x="178.621094" xlink:href="#DejaVuSans-79"/>
      <use x="257.332031" xlink:href="#DejaVuSans-100"/>
      <use x="320.808594" xlink:href="#DejaVuSans-100"/>
      <use x="384.285156" xlink:href="#DejaVuSans-115"/>
     </g>
    </g>
   </g>
   <g id="line2d_16">
    <path clip-path="url(#p292512b591)" d="M 229.005 232.976934 
L 287.595 232.976934 
L 287.595 213.019923 
L 229.005 213.019923 
L 229.005 232.976934 
" style="fill:none;stroke:#000000;stroke-linecap:square;"/>
   </g>
   <g id="line2d_17">
    <path clip-path="url(#p292512b591)" d="M 258.3 232.976934 
L 258.3 261.000942 
" style="fill:none;stroke:#000000;stroke-linecap:square;"/>
   </g>
   <g id="line2d_18">
    <path clip-path="url(#p292512b591)" d="M 258.3 213.019923 
L 258.3 183.134549 
" style="fill:none;stroke:#000000;stroke-linecap:square;"/>
   </g>
   <g id="line2d_19">
    <path clip-path="url(#p292512b591)" d="M 243.6525 261.000942 
L 272.9475 261.000942 
" style="fill:none;stroke:#000000;stroke-linecap:square;"/>
   </g>
   <g id="line2d_20">
    <path clip-path="url(#p292512b591)" d="M 243.6525 183.134549 
L 272.9475 183.134549 
" style="fill:none;stroke:#000000;stroke-linecap:square;"/>
   </g>
   <g id="line2d_21">
    <path clip-path="url(#p292512b591)" d="M 229.005 224.355169 
L 287.595 224.355169 
" style="fill:none;stroke:#ff7f0e;stroke-linecap:square;"/>
   </g>
   <g id="patch_3">
    <path d="M 63 576.72 
L 63 77.76 
" style="fill:none;stroke:#000000;stroke-linecap:square;stroke-linejoin:miter;stroke-width:0.8;"/>
   </g>
   <g id="patch_4">
    <path d="M 453.6 576.72 
L 453.6 77.76 
" style="fill:none;stroke:#000000;stroke-linecap:square;stroke-linejoin:miter;stroke-width:0.8;"/>
   </g>
   <g id="patch_5">
    <path d="M 63 576.72 
L 453.6 576.72 
" style="fill:none;stroke:#000000;stroke-linecap:square;stroke-linejoin:miter;stroke-width:0.8;"/>
   </g>
   <g id="patch_6">
    <path d="M 63 77.76 
L 453.6 77.76 
" style="fill:none;stroke:#000000;stroke-linecap:square;stroke-linejoin:miter;stroke-width:0.8;"/>
   </g>
   <g id="text_17">
    <!-- 0 -->
    <g style="fill:#2f4f4f;" transform="translate(252.102497 222.536104)scale(0.1 -0.1)">
     <use xlink:href="#DejaVuSans-48"/>
    </g>
   </g>
   <g id="text_18">
    <!-- 1.0 -->
    <g style="fill:#556b2f;" transform="translate(242.352431 214.210564)scale(0.1 -0.1)">
     <use xlink:href="#DejaVuSans-49"/>
     <use x="63.623047" xlink:href="#DejaVuSans-46"/>
     <use x="95.410156" xlink:href="#DejaVuSans-48"/>
    </g>
   </g>
   <g id="text_19">
    <!-- 2 -->
    <g style="fill:#8b4513;" transform="translate(248.877661 219.856291)scale(0.1 -0.1)">
     <use xlink:href="#DejaVuSans-50"/>
    </g>
   </g>
   <g id="text_20">
    <!-- 3.0 -->
    <g style="fill:#2e8b57;" transform="translate(259.213868 202.816666)scale(0.1 -0.1)">
     <use xlink:href="#DejaVuSans-51"/>
     <use x="63.623047" xlink:href="#DejaVuSans-46"/>
     <use x="95.410156" xlink:href="#DejaVuSans-48"/>
    </g>
   </g>
   <g id="text_21">
    <!-- 4 -->
    <g style="fill:#228b22;" transform="translate(232.5057 190.343811)scale(0.1 -0.1)">
     <defs>
      <path d="M 37.796875 64.3125 
L 12.890625 25.390625 
L 37.796875 25.390625 
z
M 35.203125 72.90625 
L 47.609375 72.90625 
L 47.609375 25.390625 
L 58.015625 25.390625 
L 58.015625 17.1875 
L 47.609375 17.1875 
L 47.609375 0 
L 37.796875 0 
L 37.796875 17.1875 
L 4.890625 17.1875 
L 4.890625 26.703125 
z
" id="DejaVuSans-52"/>
     </defs>
     <use xlink:href="#DejaVuSans-52"/>
    </g>
   </g>
   <g id="text_22">
    <!-- 5.0 -->
    <g style="fill:#708090;" transform="translate(261.185609 205.039219)scale(0.1 -0.1)">
     <use xlink:href="#DejaVuSans-53"/>
     <use x="63.623047" xlink:href="#DejaVuSans-46"/>
     <use x="95.410156" xlink:href="#DejaVuSans-48"/>
    </g>
   </g>
   <g id="text_23">
    <!-- 6 -->
    <g style="fill:#8b0000;" transform="translate(254.439662 225.625697)scale(0.1 -0.1)">
     <defs>
      <path d="M 33.015625 40.375 
Q 26.375 40.375 22.484375 35.828125 
Q 18.609375 31.296875 18.609375 23.390625 
Q 18.609375 15.53125 22.484375 10.953125 
Q 26.375 6.390625 33.015625 6.390625 
Q 39.65625 6.390625 43.53125 10.953125 
Q 47.40625 15.53125 47.40625 23.390625 
Q 47.40625 31.296875 43.53125 35.828125 
Q 39.65625 40.375 33.015625 40.375 
z
M 52.59375 71.296875 
L 52.59375 62.3125 
Q 48.875 64.0625 45.09375 64.984375 
Q 41.3125 65.921875 37.59375 65.921875 
Q 27.828125 65.921875 22.671875 59.328125 
Q 17.53125 52.734375 16.796875 39.40625 
Q 19.671875 43.65625 24.015625 45.921875 
Q 28.375 48.1875 33.59375 48.1875 
Q 44.578125 48.1875 50.953125 41.515625 
Q 57.328125 34.859375 57.328125 23.390625 
Q 57.328125 12.15625 50.6875 5.359375 
Q 44.046875 -1.421875 33.015625 -1.421875 
Q 20.359375 -1.421875 13.671875 8.265625 
Q 6.984375 17.96875 6.984375 36.375 
Q 6.984375 53.65625 15.1875 63.9375 
Q 23.390625 74.21875 37.203125 74.21875 
Q 40.921875 74.21875 44.703125 73.484375 
Q 48.484375 72.75 52.59375 71.296875 
z
" id="DejaVuSans-54"/>
     </defs>
     <use xlink:href="#DejaVuSans-54"/>
    </g>
   </g>
   <g id="text_24">
    <!-- 7 -->
    <g style="fill:#808000;" transform="translate(287.891373 228.170309)scale(0.1 -0.1)">
     <defs>
      <path d="M 8.203125 72.90625 
L 55.078125 72.90625 
L 55.078125 68.703125 
L 28.609375 0 
L 18.3125 0 
L 43.21875 64.59375 
L 8.203125 64.59375 
z
" id="DejaVuSans-55"/>
     </defs>
     <use xlink:href="#DejaVuSans-55"/>
    </g>
   </g>
   <g id="text_25">
    <!-- 8.0 -->
    <g style="fill:#483d8b;" transform="translate(262.242036 220.68044)scale(0.1 -0.1)">
     <defs>
      <path d="M 31.78125 34.625 
Q 24.75 34.625 20.71875 30.859375 
Q 16.703125 27.09375 16.703125 20.515625 
Q 16.703125 13.921875 20.71875 10.15625 
Q 24.75 6.390625 31.78125 6.390625 
Q 38.8125 6.390625 42.859375 10.171875 
Q 46.921875 13.96875 46.921875 20.515625 
Q 46.921875 27.09375 42.890625 30.859375 
Q 38.875 34.625 31.78125 34.625 
z
M 21.921875 38.8125 
Q 15.578125 40.375 12.03125 44.71875 
Q 8.5 49.078125 8.5 55.328125 
Q 8.5 64.0625 14.71875 69.140625 
Q 20.953125 74.21875 31.78125 74.21875 
Q 42.671875 74.21875 48.875 69.140625 
Q 55.078125 64.0625 55.078125 55.328125 
Q 55.078125 49.078125 51.53125 44.71875 
Q 48 40.375 41.703125 38.8125 
Q 48.828125 37.15625 52.796875 32.3125 
Q 56.78125 27.484375 56.78125 20.515625 
Q 56.78125 9.90625 50.3125 4.234375 
Q 43.84375 -1.421875 31.78125 -1.421875 
Q 19.734375 -1.421875 13.25 4.234375 
Q 6.78125 9.90625 6.78125 20.515625 
Q 6.78125 27.484375 10.78125 32.3125 
Q 14.796875 37.15625 21.921875 38.8125 
z
M 18.3125 54.390625 
Q 18.3125 48.734375 21.84375 45.5625 
Q 25.390625 42.390625 31.78125 42.390625 
Q 38.140625 42.390625 41.71875 45.5625 
Q 45.3125 48.734375 45.3125 54.390625 
Q 45.3125 60.0625 41.71875 63.234375 
Q 38.140625 66.40625 31.78125 66.40625 
Q 25.390625 66.40625 21.84375 63.234375 
Q 18.3125 60.0625 18.3125 54.390625 
z
" id="DejaVuSans-56"/>
     </defs>
     <use xlink:href="#DejaVuSans-56"/>
     <use x="63.623047" xlink:href="#DejaVuSans-46"/>
     <use x="95.410156" xlink:href="#DejaVuSans-48"/>
    </g>
   </g>
   <g id="text_26">
    <!-- 9 -->
    <g style="fill:#008080;" transform="translate(280.907358 229.322483)scale(0.1 -0.1)">
     <defs>
      <path d="M 10.984375 1.515625 
L 10.984375 10.5 
Q 14.703125 8.734375 18.5 7.8125 
Q 22.3125 6.890625 25.984375 6.890625 
Q 35.75 6.890625 40.890625 13.453125 
Q 46.046875 20.015625 46.78125 33.40625 
Q 43.953125 29.203125 39.59375 26.953125 
Q 35.25 24.703125 29.984375 24.703125 
Q 19.046875 24.703125 12.671875 31.3125 
Q 6.296875 37.9375 6.296875 49.421875 
Q 6.296875 60.640625 12.9375 67.421875 
Q 19.578125 74.21875 30.609375 74.21875 
Q 43.265625 74.21875 49.921875 64.515625 
Q 56.59375 54.828125 56.59375 36.375 
Q 56.59375 19.140625 48.40625 8.859375 
Q 40.234375 -1.421875 26.421875 -1.421875 
Q 22.703125 -1.421875 18.890625 -0.6875 
Q 15.09375 0.046875 10.984375 1.515625 
z
M 30.609375 32.421875 
Q 37.25 32.421875 41.125 36.953125 
Q 45.015625 41.5 45.015625 49.421875 
Q 45.015625 57.28125 41.125 61.84375 
Q 37.25 66.40625 30.609375 66.40625 
Q 23.96875 66.40625 20.09375 61.84375 
Q 16.21875 57.28125 16.21875 49.421875 
Q 16.21875 41.5 20.09375 36.953125 
Q 23.96875 32.421875 30.609375 32.421875 
z
" id="DejaVuSans-57"/>
     </defs>
     <use xlink:href="#DejaVuSans-57"/>
    </g>
   </g>
   <g id="text_27">
    <!-- 10.0 -->
    <g style="fill:#b8860b;" transform="translate(250.598827 167.947044)scale(0.1 -0.1)">
     <use xlink:href="#DejaVuSans-49"/>
     <use x="63.623047" xlink:href="#DejaVuSans-48"/>
     <use x="127.246094" xlink:href="#DejaVuSans-46"/>
     <use x="159.033203" xlink:href="#DejaVuSans-48"/>
    </g>
   </g>
   <g id="text_28">
    <!-- 11 -->
    <g style="fill:#4682b4;" transform="translate(276.778204 182.378549)scale(0.1 -0.1)">
     <use xlink:href="#DejaVuSans-49"/>
     <use x="63.623047" xlink:href="#DejaVuSans-49"/>
    </g>
   </g>
   <g id="text_29">
    <!-- 12 -->
    <g style="fill:#d2691e;" transform="translate(268.747384 225.444627)scale(0.1 -0.1)">
     <use xlink:href="#DejaVuSans-49"/>
     <use x="63.623047" xlink:href="#DejaVuSans-50"/>
    </g>
   </g>
   <g id="text_30">
    <!-- 13 -->
    <g style="fill:#9acd32;" transform="translate(271.774055 190.824842)scale(0.1 -0.1)">
     <use xlink:href="#DejaVuSans-49"/>
     <use x="63.623047" xlink:href="#DejaVuSans-51"/>
    </g>
   </g>
   <g id="text_31">
    <!-- 14.0 -->
    <g style="fill:#32cd32;" transform="translate(267.475824 205.360451)scale(0.1 -0.1)">
     <use xlink:href="#DejaVuSans-49"/>
     <use x="63.623047" xlink:href="#DejaVuSans-52"/>
     <use x="127.246094" xlink:href="#DejaVuSans-46"/>
     <use x="159.033203" xlink:href="#DejaVuSans-48"/>
    </g>
   </g>
   <g id="text_32">
    <!-- 15 -->
    <g style="fill:#8fbc8f;" transform="translate(274.235786 211.797731)scale(0.1 -0.1)">
     <use xlink:href="#DejaVuSans-49"/>
     <use x="63.623047" xlink:href="#DejaVuSans-53"/>
    </g>
   </g>
   <g id="text_33">
    <!-- 16 -->
    <g style="fill:#800080;" transform="translate(281.542458 197.789514)scale(0.1 -0.1)">
     <use xlink:href="#DejaVuSans-49"/>
     <use x="63.623047" xlink:href="#DejaVuSans-54"/>
    </g>
   </g>
   <g id="text_34">
    <!-- 17.0 -->
    <g style="fill:#b03060;" transform="translate(237.729386 246.409211)scale(0.1 -0.1)">
     <use xlink:href="#DejaVuSans-49"/>
     <use x="63.623047" xlink:href="#DejaVuSans-55"/>
     <use x="127.246094" xlink:href="#DejaVuSans-46"/>
     <use x="159.033203" xlink:href="#DejaVuSans-48"/>
    </g>
   </g>
   <g id="text_35">
    <!-- 18.0 -->
    <g style="fill:#9932cc;" transform="translate(265.980777 215.389039)scale(0.1 -0.1)">
     <use xlink:href="#DejaVuSans-49"/>
     <use x="63.623047" xlink:href="#DejaVuSans-56"/>
     <use x="127.246094" xlink:href="#DejaVuSans-46"/>
     <use x="159.033203" xlink:href="#DejaVuSans-48"/>
    </g>
   </g>
   <g id="text_36">
    <!-- 19.0 -->
    <g style="fill:#ff4500;" transform="translate(252.581202 246.416122)scale(0.1 -0.1)">
     <use xlink:href="#DejaVuSans-49"/>
     <use x="63.623047" xlink:href="#DejaVuSans-57"/>
     <use x="127.246094" xlink:href="#DejaVuSans-46"/>
     <use x="159.033203" xlink:href="#DejaVuSans-48"/>
    </g>
   </g>
   <g id="text_37">
    <!-- 20.0 -->
    <g style="fill:#00ced1;" transform="translate(263.517677 225.958702)scale(0.1 -0.1)">
     <use xlink:href="#DejaVuSans-50"/>
     <use x="63.623047" xlink:href="#DejaVuSans-48"/>
     <use x="127.246094" xlink:href="#DejaVuSans-46"/>
     <use x="159.033203" xlink:href="#DejaVuSans-48"/>
    </g>
   </g>
   <g id="text_38">
    <!-- 25.1 -->
    <g style="fill:#ff8c00;" transform="translate(292.451111 267.50469)scale(0.1 -0.1)">
     <use xlink:href="#DejaVuSans-50"/>
     <use x="63.623047" xlink:href="#DejaVuSans-53"/>
     <use x="127.246094" xlink:href="#DejaVuSans-46"/>
     <use x="159.033203" xlink:href="#DejaVuSans-49"/>
    </g>
   </g>
   <g id="text_39">
    <!-- 21 -->
    <g style="fill:#ffd700;" transform="translate(262.435806 225.567385)scale(0.1 -0.1)">
     <use xlink:href="#DejaVuSans-50"/>
     <use x="63.623047" xlink:href="#DejaVuSans-49"/>
    </g>
   </g>
   <g id="text_40">
    <!-- 22 -->
    <g style="fill:#0000cd;" transform="translate(254.256231 224.913497)scale(0.1 -0.1)">
     <use xlink:href="#DejaVuSans-50"/>
     <use x="63.623047" xlink:href="#DejaVuSans-50"/>
    </g>
   </g>
   <g id="text_41">
    <!-- 23 -->
    <g style="fill:#deb887;" transform="translate(294.800302 231.31251)scale(0.1 -0.1)">
     <use xlink:href="#DejaVuSans-50"/>
     <use x="63.623047" xlink:href="#DejaVuSans-51"/>
    </g>
   </g>
   <g id="text_42">
    <!-- 24 -->
    <g style="fill:#00ff00;" transform="translate(263.168678 223.558102)scale(0.1 -0.1)">
     <use xlink:href="#DejaVuSans-50"/>
     <use x="63.623047" xlink:href="#DejaVuSans-52"/>
    </g>
   </g>
   <g id="text_43">
    <!-- 20.1 -->
    <g style="fill:#00fa9a;" transform="translate(250.662251 232.523742)scale(0.1 -0.1)">
     <use xlink:href="#DejaVuSans-50"/>
     <use x="63.623047" xlink:href="#DejaVuSans-48"/>
     <use x="127.246094" xlink:href="#DejaVuSans-46"/>
     <use x="159.033203" xlink:href="#DejaVuSans-49"/>
    </g>
   </g>
   <g id="text_44">
    <!-- 25.0 -->
    <g style="fill:#dc143c;" transform="translate(262.305277 194.705578)scale(0.1 -0.1)">
     <use xlink:href="#DejaVuSans-50"/>
     <use x="63.623047" xlink:href="#DejaVuSans-53"/>
     <use x="127.246094" xlink:href="#DejaVuSans-46"/>
     <use x="159.033203" xlink:href="#DejaVuSans-48"/>
    </g>
   </g>
   <g id="text_45">
    <!-- 19.1 -->
    <g style="fill:#f4a460;" transform="translate(252.661073 218.35646)scale(0.1 -0.1)">
     <use xlink:href="#DejaVuSans-49"/>
     <use x="63.623047" xlink:href="#DejaVuSans-57"/>
     <use x="127.246094" xlink:href="#DejaVuSans-46"/>
     <use x="159.033203" xlink:href="#DejaVuSans-49"/>
    </g>
   </g>
   <g id="text_46">
    <!-- 26 -->
    <g style="fill:#0000ff;" transform="translate(252.631821 223.640235)scale(0.1 -0.1)">
     <use xlink:href="#DejaVuSans-50"/>
     <use x="63.623047" xlink:href="#DejaVuSans-54"/>
    </g>
   </g>
   <g id="text_47">
    <!-- 18.1 -->
    <g style="fill:#a020f0;" transform="translate(289.360979 173.749767)scale(0.1 -0.1)">
     <use xlink:href="#DejaVuSans-49"/>
     <use x="63.623047" xlink:href="#DejaVuSans-56"/>
     <use x="127.246094" xlink:href="#DejaVuSans-46"/>
     <use x="159.033203" xlink:href="#DejaVuSans-49"/>
    </g>
   </g>
   <g id="text_48">
    <!-- 27 -->
    <g style="fill:#adff2f;" transform="translate(265.522462 221.81021)scale(0.1 -0.1)">
     <use xlink:href="#DejaVuSans-50"/>
     <use x="63.623047" xlink:href="#DejaVuSans-55"/>
    </g>
   </g>
   <g id="text_49">
    <!-- 17.1 -->
    <g style="fill:#ff6347;" transform="translate(246.868306 235.447152)scale(0.1 -0.1)">
     <use xlink:href="#DejaVuSans-49"/>
     <use x="63.623047" xlink:href="#DejaVuSans-55"/>
     <use x="127.246094" xlink:href="#DejaVuSans-46"/>
     <use x="159.033203" xlink:href="#DejaVuSans-49"/>
    </g>
   </g>
   <g id="text_50">
    <!-- 28 -->
    <g style="fill:#da70d6;" transform="translate(243.345594 213.6625)scale(0.1 -0.1)">
     <use xlink:href="#DejaVuSans-50"/>
     <use x="63.623047" xlink:href="#DejaVuSans-56"/>
    </g>
   </g>
   <g id="text_51">
    <!-- 14.1 -->
    <g style="fill:#b0c4de;" transform="translate(275.623667 233.767864)scale(0.1 -0.1)">
     <use xlink:href="#DejaVuSans-49"/>
     <use x="63.623047" xlink:href="#DejaVuSans-52"/>
     <use x="127.246094" xlink:href="#DejaVuSans-46"/>
     <use x="159.033203" xlink:href="#DejaVuSans-49"/>
    </g>
   </g>
   <g id="text_52">
    <!-- 10.1 -->
    <g style="fill:#f0e68c;" transform="translate(257.297262 280.209463)scale(0.1 -0.1)">
     <use xlink:href="#DejaVuSans-49"/>
     <use x="63.623047" xlink:href="#DejaVuSans-48"/>
     <use x="127.246094" xlink:href="#DejaVuSans-46"/>
     <use x="159.033203" xlink:href="#DejaVuSans-49"/>
    </g>
   </g>
   <g id="text_53">
    <!-- 8.1 -->
    <g style="fill:#ffff54;" transform="translate(267.091647 240.370834)scale(0.1 -0.1)">
     <use xlink:href="#DejaVuSans-56"/>
     <use x="63.623047" xlink:href="#DejaVuSans-46"/>
     <use x="95.410156" xlink:href="#DejaVuSans-49"/>
    </g>
   </g>
   <g id="text_54">
    <!-- 5.2 -->
    <g style="fill:#6495ed;" transform="translate(269.406687 220.834689)scale(0.1 -0.1)">
     <use xlink:href="#DejaVuSans-53"/>
     <use x="63.623047" xlink:href="#DejaVuSans-46"/>
     <use x="95.410156" xlink:href="#DejaVuSans-50"/>
    </g>
   </g>
   <g id="text_55">
    <!-- 5.1 -->
    <g style="fill:#dda0dd;" transform="translate(262.925686 233.458033)scale(0.1 -0.1)">
     <use xlink:href="#DejaVuSans-53"/>
     <use x="63.623047" xlink:href="#DejaVuSans-46"/>
     <use x="95.410156" xlink:href="#DejaVuSans-49"/>
    </g>
   </g>
   <g id="text_56">
    <!-- 3.1 -->
    <g style="fill:#7b68ee;" transform="translate(249.990178 260.244942)scale(0.1 -0.1)">
     <use xlink:href="#DejaVuSans-51"/>
     <use x="63.623047" xlink:href="#DejaVuSans-46"/>
     <use x="95.410156" xlink:href="#DejaVuSans-49"/>
    </g>
   </g>
   <g id="text_57">
    <!-- 1.2 -->
    <g style="fill:#afeeee;" transform="translate(262.566989 256.146279)scale(0.1 -0.1)">
     <use xlink:href="#DejaVuSans-49"/>
     <use x="63.623047" xlink:href="#DejaVuSans-46"/>
     <use x="95.410156" xlink:href="#DejaVuSans-50"/>
    </g>
   </g>
   <g id="text_58">
    <!-- 1.1 -->
    <g style="fill:#7fffd4;" transform="translate(281.90613 228.212695)scale(0.1 -0.1)">
     <use xlink:href="#DejaVuSans-49"/>
     <use x="63.623047" xlink:href="#DejaVuSans-46"/>
     <use x="95.410156" xlink:href="#DejaVuSans-49"/>
    </g>
   </g>
  </g>
 </g>
 <defs>
  <clipPath id="p292512b591">
   <rect height="498.96" width="390.6" x="63" y="77.76"/>
  </clipPath>
 </defs>
</svg>
