<?xml version="1.0" encoding="utf-8" standalone="no"?>
<!DOCTYPE svg PUBLIC "-//W3C//DTD SVG 1.1//EN"
  "http://www.w3.org/Graphics/SVG/1.1/DTD/svg11.dtd">
<!-- Created with matplotlib (https://matplotlib.org/) -->
<svg height="576pt" version="1.1" viewBox="0 0 504 576" width="504pt" xmlns="http://www.w3.org/2000/svg" xmlns:xlink="http://www.w3.org/1999/xlink">
 <metadata>
  <rdf:RDF xmlns:cc="http://creativecommons.org/ns#" xmlns:dc="http://purl.org/dc/elements/1.1/" xmlns:rdf="http://www.w3.org/1999/02/22-rdf-syntax-ns#">
   <cc:Work>
    <dc:type rdf:resource="http://purl.org/dc/dcmitype/StillImage"/>
    <dc:date>2023-06-02T18:35:19.027611</dc:date>
    <dc:format>image/svg+xml</dc:format>
    <dc:creator>
     <cc:Agent>
      <dc:title>Matplotlib v3.3.4, https://matplotlib.org/</dc:title>
     </cc:Agent>
    </dc:creator>
   </cc:Work>
  </rdf:RDF>
 </metadata>
 <defs>
  <style type="text/css">*{stroke-linecap:butt;stroke-linejoin:round;}</style>
 </defs>
 <g id="figure_1">
  <g id="patch_1">
   <path d="M 0 576 
L 504 576 
L 504 0 
L 0 0 
z
" style="fill:#ffffff;"/>
  </g>
  <g id="axes_1">
   <g id="patch_2">
    <path d="M 63 279.911489 
L 453.6 279.911489 
L 453.6 69.12 
L 63 69.12 
z
" style="fill:#ffffff;"/>
   </g>
   <g id="patch_3">
    <path clip-path="url(#p7337eeea03)" d="M 80.754545 322.858398 
L 83.272921 322.858398 
L 83.272921 69.12 
L 80.754545 69.12 
z
" style="fill:#2f4f4f;"/>
   </g>
   <g id="patch_4">
    <path clip-path="url(#p7337eeea03)" d="M 93.346422 322.858398 
L 95.864797 322.858398 
L 95.864797 88.460842 
L 93.346422 88.460842 
z
" style="fill:#2f4f4f;"/>
   </g>
   <g id="patch_5">
    <path clip-path="url(#p7337eeea03)" d="M 105.938298 322.858398 
L 108.456673 322.858398 
L 108.456673 132.532764 
L 105.938298 132.532764 
z
" style="fill:#2f4f4f;"/>
   </g>
   <g id="patch_6">
    <path clip-path="url(#p7337eeea03)" d="M 118.530174 322.858398 
L 121.048549 322.858398 
L 121.048549 141.641791 
L 118.530174 141.641791 
z
" style="fill:#2f4f4f;"/>
   </g>
   <g id="patch_7">
    <path clip-path="url(#p7337eeea03)" d="M 131.12205 322.858398 
L 133.640426 322.858398 
L 133.640426 171.5989 
L 131.12205 171.5989 
z
" style="fill:#2f4f4f;"/>
   </g>
   <g id="patch_8">
    <path clip-path="url(#p7337eeea03)" d="M 143.713926 322.858398 
L 146.232302 322.858398 
L 146.232302 197.826794 
L 143.713926 197.826794 
z
" style="fill:#2f4f4f;"/>
   </g>
   <g id="patch_9">
    <path clip-path="url(#p7337eeea03)" d="M 156.305803 322.858398 
L 158.824178 322.858398 
L 158.824178 233.655783 
L 156.305803 233.655783 
z
" style="fill:#2f4f4f;"/>
   </g>
   <g id="patch_10">
    <path clip-path="url(#p7337eeea03)" d="M 168.897679 322.858398 
L 171.416054 322.858398 
L 171.416054 247.16242 
L 168.897679 247.16242 
z
" style="fill:#2f4f4f;"/>
   </g>
   <g id="patch_11">
    <path clip-path="url(#p7337eeea03)" d="M 181.489555 322.858398 
L 184.00793 322.858398 
L 184.00793 251.804733 
L 181.489555 251.804733 
z
" style="fill:#2f4f4f;"/>
   </g>
   <g id="patch_12">
    <path clip-path="url(#p7337eeea03)" d="M 194.081431 322.858398 
L 196.599807 322.858398 
L 196.599807 255.573126 
L 194.081431 255.573126 
z
" style="fill:#2f4f4f;"/>
   </g>
   <g id="patch_13">
    <path clip-path="url(#p7337eeea03)" d="M 206.673308 322.858398 
L 209.191683 322.858398 
L 209.191683 258.209136 
L 206.673308 258.209136 
z
" style="fill:#2f4f4f;"/>
   </g>
   <g id="patch_14">
    <path clip-path="url(#p7337eeea03)" d="M 219.265184 322.858398 
L 221.783559 322.858398 
L 221.783559 264.115004 
L 219.265184 264.115004 
z
" style="fill:#2f4f4f;"/>
   </g>
   <g id="patch_15">
    <path clip-path="url(#p7337eeea03)" d="M 231.85706 322.858398 
L 234.375435 322.858398 
L 234.375435 271.587154 
L 231.85706 271.587154 
z
" style="fill:#2f4f4f;"/>
   </g>
   <g id="patch_16">
    <path clip-path="url(#p7337eeea03)" d="M 244.448936 322.858398 
L 246.967311 322.858398 
L 246.967311 266.25324 
L 244.448936 266.25324 
z
" style="fill:#2f4f4f;"/>
   </g>
   <g id="patch_17">
    <path clip-path="url(#p7337eeea03)" d="M 257.040812 322.858398 
L 259.559188 322.858398 
L 259.559188 272.198392 
L 257.040812 272.198392 
z
" style="fill:#2f4f4f;"/>
   </g>
   <g id="patch_18">
    <path clip-path="url(#p7337eeea03)" d="M 269.632689 322.858398 
L 272.151064 322.858398 
L 272.151064 277.274706 
L 269.632689 277.274706 
z
" style="fill:#2f4f4f;"/>
   </g>
   <g id="patch_19">
    <path clip-path="url(#p7337eeea03)" d="M 282.224565 322.858398 
L 284.74294 322.858398 
L 284.74294 277.778273 
L 282.224565 277.778273 
z
" style="fill:#2f4f4f;"/>
   </g>
   <g id="patch_20">
    <path clip-path="url(#p7337eeea03)" d="M 294.816441 322.858398 
L 297.334816 322.858398 
L 297.334816 277.824445 
L 294.816441 277.824445 
z
" style="fill:#2f4f4f;"/>
   </g>
   <g id="patch_21">
    <path clip-path="url(#p7337eeea03)" d="M 307.408317 322.858398 
L 309.926692 322.858398 
L 309.926692 270.210421 
L 307.408317 270.210421 
z
" style="fill:#2f4f4f;"/>
   </g>
   <g id="patch_22">
    <path clip-path="url(#p7337eeea03)" d="M 320.000193 322.858398 
L 322.518569 322.858398 
L 322.518569 269.108136 
L 320.000193 269.108136 
z
" style="fill:#2f4f4f;"/>
   </g>
   <g id="patch_23">
    <path clip-path="url(#p7337eeea03)" d="M 332.59207 322.858398 
L 335.110445 322.858398 
L 335.110445 267.836745 
L 332.59207 267.836745 
z
" style="fill:#2f4f4f;"/>
   </g>
   <g id="patch_24">
    <path clip-path="url(#p7337eeea03)" d="M 345.183946 322.858398 
L 347.702321 322.858398 
L 347.702321 266.942919 
L 345.183946 266.942919 
z
" style="fill:#2f4f4f;"/>
   </g>
   <g id="patch_25">
    <path clip-path="url(#p7337eeea03)" d="M 357.775822 322.858398 
L 360.294197 322.858398 
L 360.294197 262.753108 
L 357.775822 262.753108 
z
" style="fill:#2f4f4f;"/>
   </g>
   <g id="patch_26">
    <path clip-path="url(#p7337eeea03)" d="M 370.367698 322.858398 
L 372.886074 322.858398 
L 372.886074 258.183545 
L 370.367698 258.183545 
z
" style="fill:#2f4f4f;"/>
   </g>
   <g id="patch_27">
    <path clip-path="url(#p7337eeea03)" d="M 382.959574 322.858398 
L 385.47795 322.858398 
L 385.47795 254.334228 
L 382.959574 254.334228 
z
" style="fill:#2f4f4f;"/>
   </g>
   <g id="patch_28">
    <path clip-path="url(#p7337eeea03)" d="M 395.551451 322.858398 
L 398.069826 322.858398 
L 398.069826 250.101677 
L 395.551451 250.101677 
z
" style="fill:#2f4f4f;"/>
   </g>
   <g id="patch_29">
    <path clip-path="url(#p7337eeea03)" d="M 408.143327 322.858398 
L 410.661702 322.858398 
L 410.661702 243.573953 
L 408.143327 243.573953 
z
" style="fill:#2f4f4f;"/>
   </g>
   <g id="patch_30">
    <path clip-path="url(#p7337eeea03)" d="M 420.735203 322.858398 
L 423.253578 322.858398 
L 423.253578 238.92979 
L 420.735203 238.92979 
z
" style="fill:#2f4f4f;"/>
   </g>
   <g id="patch_31">
    <path clip-path="url(#p7337eeea03)" d="M 433.327079 322.858398 
L 435.845455 322.858398 
L 435.845455 233.043237 
L 433.327079 233.043237 
z
" style="fill:#2f4f4f;"/>
   </g>
   <g id="matplotlib.axis_1">
    <g id="xtick_1">
     <g id="line2d_1">
      <defs>
       <path d="M 0 0 
L 0 3.5 
" id="m6f8b32ca44" style="stroke:#000000;stroke-width:0.8;"/>
      </defs>
      <g>
       <use style="stroke:#000000;stroke-width:0.8;" x="87.050484" xlink:href="#m6f8b32ca44" y="279.911489"/>
      </g>
     </g>
     <g id="text_1">
      <!-- 1 -->
      <g transform="translate(83.869234 294.509927)scale(0.1 -0.1)">
       <defs>
        <path d="M 12.40625 8.296875 
L 28.515625 8.296875 
L 28.515625 63.921875 
L 10.984375 60.40625 
L 10.984375 69.390625 
L 28.421875 72.90625 
L 38.28125 72.90625 
L 38.28125 8.296875 
L 54.390625 8.296875 
L 54.390625 0 
L 12.40625 0 
z
" id="DejaVuSans-49"/>
       </defs>
       <use xlink:href="#DejaVuSans-49"/>
      </g>
     </g>
    </g>
    <g id="xtick_2">
     <g id="line2d_2">
      <g>
       <use style="stroke:#000000;stroke-width:0.8;" x="99.64236" xlink:href="#m6f8b32ca44" y="279.911489"/>
      </g>
     </g>
     <g id="text_2">
      <!-- 2 -->
      <g transform="translate(96.46111 294.509927)scale(0.1 -0.1)">
       <defs>
        <path d="M 19.1875 8.296875 
L 53.609375 8.296875 
L 53.609375 0 
L 7.328125 0 
L 7.328125 8.296875 
Q 12.9375 14.109375 22.625 23.890625 
Q 32.328125 33.6875 34.8125 36.53125 
Q 39.546875 41.84375 41.421875 45.53125 
Q 43.3125 49.21875 43.3125 52.78125 
Q 43.3125 58.59375 39.234375 62.25 
Q 35.15625 65.921875 28.609375 65.921875 
Q 23.96875 65.921875 18.8125 64.3125 
Q 13.671875 62.703125 7.8125 59.421875 
L 7.8125 69.390625 
Q 13.765625 71.78125 18.9375 73 
Q 24.125 74.21875 28.421875 74.21875 
Q 39.75 74.21875 46.484375 68.546875 
Q 53.21875 62.890625 53.21875 53.421875 
Q 53.21875 48.921875 51.53125 44.890625 
Q 49.859375 40.875 45.40625 35.40625 
Q 44.1875 33.984375 37.640625 27.21875 
Q 31.109375 20.453125 19.1875 8.296875 
z
" id="DejaVuSans-50"/>
       </defs>
       <use xlink:href="#DejaVuSans-50"/>
      </g>
     </g>
    </g>
    <g id="xtick_3">
     <g id="line2d_3">
      <g>
       <use style="stroke:#000000;stroke-width:0.8;" x="112.234236" xlink:href="#m6f8b32ca44" y="279.911489"/>
      </g>
     </g>
     <g id="text_3">
      <!-- 3 -->
      <g transform="translate(109.052986 294.509927)scale(0.1 -0.1)">
       <defs>
        <path d="M 40.578125 39.3125 
Q 47.65625 37.796875 51.625 33 
Q 55.609375 28.21875 55.609375 21.1875 
Q 55.609375 10.40625 48.1875 4.484375 
Q 40.765625 -1.421875 27.09375 -1.421875 
Q 22.515625 -1.421875 17.65625 -0.515625 
Q 12.796875 0.390625 7.625 2.203125 
L 7.625 11.71875 
Q 11.71875 9.328125 16.59375 8.109375 
Q 21.484375 6.890625 26.8125 6.890625 
Q 36.078125 6.890625 40.9375 10.546875 
Q 45.796875 14.203125 45.796875 21.1875 
Q 45.796875 27.640625 41.28125 31.265625 
Q 36.765625 34.90625 28.71875 34.90625 
L 20.21875 34.90625 
L 20.21875 43.015625 
L 29.109375 43.015625 
Q 36.375 43.015625 40.234375 45.921875 
Q 44.09375 48.828125 44.09375 54.296875 
Q 44.09375 59.90625 40.109375 62.90625 
Q 36.140625 65.921875 28.71875 65.921875 
Q 24.65625 65.921875 20.015625 65.03125 
Q 15.375 64.15625 9.8125 62.3125 
L 9.8125 71.09375 
Q 15.4375 72.65625 20.34375 73.4375 
Q 25.25 74.21875 29.59375 74.21875 
Q 40.828125 74.21875 47.359375 69.109375 
Q 53.90625 64.015625 53.90625 55.328125 
Q 53.90625 49.265625 50.4375 45.09375 
Q 46.96875 40.921875 40.578125 39.3125 
z
" id="DejaVuSans-51"/>
       </defs>
       <use xlink:href="#DejaVuSans-51"/>
      </g>
     </g>
    </g>
    <g id="xtick_4">
     <g id="line2d_4">
      <g>
       <use style="stroke:#000000;stroke-width:0.8;" x="124.826112" xlink:href="#m6f8b32ca44" y="279.911489"/>
      </g>
     </g>
     <g id="text_4">
      <!-- 4 -->
      <g transform="translate(121.644862 294.509927)scale(0.1 -0.1)">
       <defs>
        <path d="M 37.796875 64.3125 
L 12.890625 25.390625 
L 37.796875 25.390625 
z
M 35.203125 72.90625 
L 47.609375 72.90625 
L 47.609375 25.390625 
L 58.015625 25.390625 
L 58.015625 17.1875 
L 47.609375 17.1875 
L 47.609375 0 
L 37.796875 0 
L 37.796875 17.1875 
L 4.890625 17.1875 
L 4.890625 26.703125 
z
" id="DejaVuSans-52"/>
       </defs>
       <use xlink:href="#DejaVuSans-52"/>
      </g>
     </g>
    </g>
    <g id="xtick_5">
     <g id="line2d_5">
      <g>
       <use style="stroke:#000000;stroke-width:0.8;" x="137.417988" xlink:href="#m6f8b32ca44" y="279.911489"/>
      </g>
     </g>
     <g id="text_5">
      <!-- 5 -->
      <g transform="translate(134.236738 294.509927)scale(0.1 -0.1)">
       <defs>
        <path d="M 10.796875 72.90625 
L 49.515625 72.90625 
L 49.515625 64.59375 
L 19.828125 64.59375 
L 19.828125 46.734375 
Q 21.96875 47.46875 24.109375 47.828125 
Q 26.265625 48.1875 28.421875 48.1875 
Q 40.625 48.1875 47.75 41.5 
Q 54.890625 34.8125 54.890625 23.390625 
Q 54.890625 11.625 47.5625 5.09375 
Q 40.234375 -1.421875 26.90625 -1.421875 
Q 22.3125 -1.421875 17.546875 -0.640625 
Q 12.796875 0.140625 7.71875 1.703125 
L 7.71875 11.625 
Q 12.109375 9.234375 16.796875 8.0625 
Q 21.484375 6.890625 26.703125 6.890625 
Q 35.15625 6.890625 40.078125 11.328125 
Q 45.015625 15.765625 45.015625 23.390625 
Q 45.015625 31 40.078125 35.4375 
Q 35.15625 39.890625 26.703125 39.890625 
Q 22.75 39.890625 18.8125 39.015625 
Q 14.890625 38.140625 10.796875 36.28125 
z
" id="DejaVuSans-53"/>
       </defs>
       <use xlink:href="#DejaVuSans-53"/>
      </g>
     </g>
    </g>
    <g id="xtick_6">
     <g id="line2d_6">
      <g>
       <use style="stroke:#000000;stroke-width:0.8;" x="150.009865" xlink:href="#m6f8b32ca44" y="279.911489"/>
      </g>
     </g>
     <g id="text_6">
      <!-- 6 -->
      <g transform="translate(146.828615 294.509927)scale(0.1 -0.1)">
       <defs>
        <path d="M 33.015625 40.375 
Q 26.375 40.375 22.484375 35.828125 
Q 18.609375 31.296875 18.609375 23.390625 
Q 18.609375 15.53125 22.484375 10.953125 
Q 26.375 6.390625 33.015625 6.390625 
Q 39.65625 6.390625 43.53125 10.953125 
Q 47.40625 15.53125 47.40625 23.390625 
Q 47.40625 31.296875 43.53125 35.828125 
Q 39.65625 40.375 33.015625 40.375 
z
M 52.59375 71.296875 
L 52.59375 62.3125 
Q 48.875 64.0625 45.09375 64.984375 
Q 41.3125 65.921875 37.59375 65.921875 
Q 27.828125 65.921875 22.671875 59.328125 
Q 17.53125 52.734375 16.796875 39.40625 
Q 19.671875 43.65625 24.015625 45.921875 
Q 28.375 48.1875 33.59375 48.1875 
Q 44.578125 48.1875 50.953125 41.515625 
Q 57.328125 34.859375 57.328125 23.390625 
Q 57.328125 12.15625 50.6875 5.359375 
Q 44.046875 -1.421875 33.015625 -1.421875 
Q 20.359375 -1.421875 13.671875 8.265625 
Q 6.984375 17.96875 6.984375 36.375 
Q 6.984375 53.65625 15.1875 63.9375 
Q 23.390625 74.21875 37.203125 74.21875 
Q 40.921875 74.21875 44.703125 73.484375 
Q 48.484375 72.75 52.59375 71.296875 
z
" id="DejaVuSans-54"/>
       </defs>
       <use xlink:href="#DejaVuSans-54"/>
      </g>
     </g>
    </g>
    <g id="xtick_7">
     <g id="line2d_7">
      <g>
       <use style="stroke:#000000;stroke-width:0.8;" x="162.601741" xlink:href="#m6f8b32ca44" y="279.911489"/>
      </g>
     </g>
     <g id="text_7">
      <!-- 7 -->
      <g transform="translate(159.420491 294.509927)scale(0.1 -0.1)">
       <defs>
        <path d="M 8.203125 72.90625 
L 55.078125 72.90625 
L 55.078125 68.703125 
L 28.609375 0 
L 18.3125 0 
L 43.21875 64.59375 
L 8.203125 64.59375 
z
" id="DejaVuSans-55"/>
       </defs>
       <use xlink:href="#DejaVuSans-55"/>
      </g>
     </g>
    </g>
    <g id="xtick_8">
     <g id="line2d_8">
      <g>
       <use style="stroke:#000000;stroke-width:0.8;" x="175.193617" xlink:href="#m6f8b32ca44" y="279.911489"/>
      </g>
     </g>
     <g id="text_8">
      <!-- 8 -->
      <g transform="translate(172.012367 294.509927)scale(0.1 -0.1)">
       <defs>
        <path d="M 31.78125 34.625 
Q 24.75 34.625 20.71875 30.859375 
Q 16.703125 27.09375 16.703125 20.515625 
Q 16.703125 13.921875 20.71875 10.15625 
Q 24.75 6.390625 31.78125 6.390625 
Q 38.8125 6.390625 42.859375 10.171875 
Q 46.921875 13.96875 46.921875 20.515625 
Q 46.921875 27.09375 42.890625 30.859375 
Q 38.875 34.625 31.78125 34.625 
z
M 21.921875 38.8125 
Q 15.578125 40.375 12.03125 44.71875 
Q 8.5 49.078125 8.5 55.328125 
Q 8.5 64.0625 14.71875 69.140625 
Q 20.953125 74.21875 31.78125 74.21875 
Q 42.671875 74.21875 48.875 69.140625 
Q 55.078125 64.0625 55.078125 55.328125 
Q 55.078125 49.078125 51.53125 44.71875 
Q 48 40.375 41.703125 38.8125 
Q 48.828125 37.15625 52.796875 32.3125 
Q 56.78125 27.484375 56.78125 20.515625 
Q 56.78125 9.90625 50.3125 4.234375 
Q 43.84375 -1.421875 31.78125 -1.421875 
Q 19.734375 -1.421875 13.25 4.234375 
Q 6.78125 9.90625 6.78125 20.515625 
Q 6.78125 27.484375 10.78125 32.3125 
Q 14.796875 37.15625 21.921875 38.8125 
z
M 18.3125 54.390625 
Q 18.3125 48.734375 21.84375 45.5625 
Q 25.390625 42.390625 31.78125 42.390625 
Q 38.140625 42.390625 41.71875 45.5625 
Q 45.3125 48.734375 45.3125 54.390625 
Q 45.3125 60.0625 41.71875 63.234375 
Q 38.140625 66.40625 31.78125 66.40625 
Q 25.390625 66.40625 21.84375 63.234375 
Q 18.3125 60.0625 18.3125 54.390625 
z
" id="DejaVuSans-56"/>
       </defs>
       <use xlink:href="#DejaVuSans-56"/>
      </g>
     </g>
    </g>
    <g id="xtick_9">
     <g id="line2d_9">
      <g>
       <use style="stroke:#000000;stroke-width:0.8;" x="187.785493" xlink:href="#m6f8b32ca44" y="279.911489"/>
      </g>
     </g>
     <g id="text_9">
      <!-- 9 -->
      <g transform="translate(184.604243 294.509927)scale(0.1 -0.1)">
       <defs>
        <path d="M 10.984375 1.515625 
L 10.984375 10.5 
Q 14.703125 8.734375 18.5 7.8125 
Q 22.3125 6.890625 25.984375 6.890625 
Q 35.75 6.890625 40.890625 13.453125 
Q 46.046875 20.015625 46.78125 33.40625 
Q 43.953125 29.203125 39.59375 26.953125 
Q 35.25 24.703125 29.984375 24.703125 
Q 19.046875 24.703125 12.671875 31.3125 
Q 6.296875 37.9375 6.296875 49.421875 
Q 6.296875 60.640625 12.9375 67.421875 
Q 19.578125 74.21875 30.609375 74.21875 
Q 43.265625 74.21875 49.921875 64.515625 
Q 56.59375 54.828125 56.59375 36.375 
Q 56.59375 19.140625 48.40625 8.859375 
Q 40.234375 -1.421875 26.421875 -1.421875 
Q 22.703125 -1.421875 18.890625 -0.6875 
Q 15.09375 0.046875 10.984375 1.515625 
z
M 30.609375 32.421875 
Q 37.25 32.421875 41.125 36.953125 
Q 45.015625 41.5 45.015625 49.421875 
Q 45.015625 57.28125 41.125 61.84375 
Q 37.25 66.40625 30.609375 66.40625 
Q 23.96875 66.40625 20.09375 61.84375 
Q 16.21875 57.28125 16.21875 49.421875 
Q 16.21875 41.5 20.09375 36.953125 
Q 23.96875 32.421875 30.609375 32.421875 
z
" id="DejaVuSans-57"/>
       </defs>
       <use xlink:href="#DejaVuSans-57"/>
      </g>
     </g>
    </g>
    <g id="xtick_10">
     <g id="line2d_10">
      <g>
       <use style="stroke:#000000;stroke-width:0.8;" x="200.377369" xlink:href="#m6f8b32ca44" y="279.911489"/>
      </g>
     </g>
     <g id="text_10">
      <!-- 10 -->
      <g transform="translate(194.014869 294.509927)scale(0.1 -0.1)">
       <defs>
        <path d="M 31.78125 66.40625 
Q 24.171875 66.40625 20.328125 58.90625 
Q 16.5 51.421875 16.5 36.375 
Q 16.5 21.390625 20.328125 13.890625 
Q 24.171875 6.390625 31.78125 6.390625 
Q 39.453125 6.390625 43.28125 13.890625 
Q 47.125 21.390625 47.125 36.375 
Q 47.125 51.421875 43.28125 58.90625 
Q 39.453125 66.40625 31.78125 66.40625 
z
M 31.78125 74.21875 
Q 44.046875 74.21875 50.515625 64.515625 
Q 56.984375 54.828125 56.984375 36.375 
Q 56.984375 17.96875 50.515625 8.265625 
Q 44.046875 -1.421875 31.78125 -1.421875 
Q 19.53125 -1.421875 13.0625 8.265625 
Q 6.59375 17.96875 6.59375 36.375 
Q 6.59375 54.828125 13.0625 64.515625 
Q 19.53125 74.21875 31.78125 74.21875 
z
" id="DejaVuSans-48"/>
       </defs>
       <use xlink:href="#DejaVuSans-49"/>
       <use x="63.623047" xlink:href="#DejaVuSans-48"/>
      </g>
     </g>
    </g>
    <g id="xtick_11">
     <g id="line2d_11">
      <g>
       <use style="stroke:#000000;stroke-width:0.8;" x="212.969246" xlink:href="#m6f8b32ca44" y="279.911489"/>
      </g>
     </g>
     <g id="text_11">
      <!-- 11 -->
      <g transform="translate(206.606746 294.509927)scale(0.1 -0.1)">
       <use xlink:href="#DejaVuSans-49"/>
       <use x="63.623047" xlink:href="#DejaVuSans-49"/>
      </g>
     </g>
    </g>
    <g id="xtick_12">
     <g id="line2d_12">
      <g>
       <use style="stroke:#000000;stroke-width:0.8;" x="225.561122" xlink:href="#m6f8b32ca44" y="279.911489"/>
      </g>
     </g>
     <g id="text_12">
      <!-- 12 -->
      <g transform="translate(219.198622 294.509927)scale(0.1 -0.1)">
       <use xlink:href="#DejaVuSans-49"/>
       <use x="63.623047" xlink:href="#DejaVuSans-50"/>
      </g>
     </g>
    </g>
    <g id="xtick_13">
     <g id="line2d_13">
      <g>
       <use style="stroke:#000000;stroke-width:0.8;" x="238.152998" xlink:href="#m6f8b32ca44" y="279.911489"/>
      </g>
     </g>
     <g id="text_13">
      <!-- 13 -->
      <g transform="translate(231.790498 294.509927)scale(0.1 -0.1)">
       <use xlink:href="#DejaVuSans-49"/>
       <use x="63.623047" xlink:href="#DejaVuSans-51"/>
      </g>
     </g>
    </g>
    <g id="xtick_14">
     <g id="line2d_14">
      <g>
       <use style="stroke:#000000;stroke-width:0.8;" x="250.744874" xlink:href="#m6f8b32ca44" y="279.911489"/>
      </g>
     </g>
     <g id="text_14">
      <!-- 14 -->
      <g transform="translate(244.382374 294.509927)scale(0.1 -0.1)">
       <use xlink:href="#DejaVuSans-49"/>
       <use x="63.623047" xlink:href="#DejaVuSans-52"/>
      </g>
     </g>
    </g>
    <g id="xtick_15">
     <g id="line2d_15">
      <g>
       <use style="stroke:#000000;stroke-width:0.8;" x="263.33675" xlink:href="#m6f8b32ca44" y="279.911489"/>
      </g>
     </g>
     <g id="text_15">
      <!-- 15 -->
      <g transform="translate(256.97425 294.509927)scale(0.1 -0.1)">
       <use xlink:href="#DejaVuSans-49"/>
       <use x="63.623047" xlink:href="#DejaVuSans-53"/>
      </g>
     </g>
    </g>
    <g id="xtick_16">
     <g id="line2d_16">
      <g>
       <use style="stroke:#000000;stroke-width:0.8;" x="275.928627" xlink:href="#m6f8b32ca44" y="279.911489"/>
      </g>
     </g>
     <g id="text_16">
      <!-- 16 -->
      <g transform="translate(269.566127 294.509927)scale(0.1 -0.1)">
       <use xlink:href="#DejaVuSans-49"/>
       <use x="63.623047" xlink:href="#DejaVuSans-54"/>
      </g>
     </g>
    </g>
    <g id="xtick_17">
     <g id="line2d_17">
      <g>
       <use style="stroke:#000000;stroke-width:0.8;" x="288.520503" xlink:href="#m6f8b32ca44" y="279.911489"/>
      </g>
     </g>
     <g id="text_17">
      <!-- 17 -->
      <g transform="translate(282.158003 294.509927)scale(0.1 -0.1)">
       <use xlink:href="#DejaVuSans-49"/>
       <use x="63.623047" xlink:href="#DejaVuSans-55"/>
      </g>
     </g>
    </g>
    <g id="xtick_18">
     <g id="line2d_18">
      <g>
       <use style="stroke:#000000;stroke-width:0.8;" x="301.112379" xlink:href="#m6f8b32ca44" y="279.911489"/>
      </g>
     </g>
     <g id="text_18">
      <!-- 18 -->
      <g transform="translate(294.749879 294.509927)scale(0.1 -0.1)">
       <use xlink:href="#DejaVuSans-49"/>
       <use x="63.623047" xlink:href="#DejaVuSans-56"/>
      </g>
     </g>
    </g>
    <g id="xtick_19">
     <g id="line2d_19">
      <g>
       <use style="stroke:#000000;stroke-width:0.8;" x="313.704255" xlink:href="#m6f8b32ca44" y="279.911489"/>
      </g>
     </g>
     <g id="text_19">
      <!-- 19 -->
      <g transform="translate(307.341755 294.509927)scale(0.1 -0.1)">
       <use xlink:href="#DejaVuSans-49"/>
       <use x="63.623047" xlink:href="#DejaVuSans-57"/>
      </g>
     </g>
    </g>
    <g id="xtick_20">
     <g id="line2d_20">
      <g>
       <use style="stroke:#000000;stroke-width:0.8;" x="326.296132" xlink:href="#m6f8b32ca44" y="279.911489"/>
      </g>
     </g>
     <g id="text_20">
      <!-- 20 -->
      <g transform="translate(319.933632 294.509927)scale(0.1 -0.1)">
       <use xlink:href="#DejaVuSans-50"/>
       <use x="63.623047" xlink:href="#DejaVuSans-48"/>
      </g>
     </g>
    </g>
    <g id="xtick_21">
     <g id="line2d_21">
      <g>
       <use style="stroke:#000000;stroke-width:0.8;" x="338.888008" xlink:href="#m6f8b32ca44" y="279.911489"/>
      </g>
     </g>
     <g id="text_21">
      <!-- 21 -->
      <g transform="translate(332.525508 294.509927)scale(0.1 -0.1)">
       <use xlink:href="#DejaVuSans-50"/>
       <use x="63.623047" xlink:href="#DejaVuSans-49"/>
      </g>
     </g>
    </g>
    <g id="xtick_22">
     <g id="line2d_22">
      <g>
       <use style="stroke:#000000;stroke-width:0.8;" x="351.479884" xlink:href="#m6f8b32ca44" y="279.911489"/>
      </g>
     </g>
     <g id="text_22">
      <!-- 22 -->
      <g transform="translate(345.117384 294.509927)scale(0.1 -0.1)">
       <use xlink:href="#DejaVuSans-50"/>
       <use x="63.623047" xlink:href="#DejaVuSans-50"/>
      </g>
     </g>
    </g>
    <g id="xtick_23">
     <g id="line2d_23">
      <g>
       <use style="stroke:#000000;stroke-width:0.8;" x="364.07176" xlink:href="#m6f8b32ca44" y="279.911489"/>
      </g>
     </g>
     <g id="text_23">
      <!-- 23 -->
      <g transform="translate(357.70926 294.509927)scale(0.1 -0.1)">
       <use xlink:href="#DejaVuSans-50"/>
       <use x="63.623047" xlink:href="#DejaVuSans-51"/>
      </g>
     </g>
    </g>
    <g id="xtick_24">
     <g id="line2d_24">
      <g>
       <use style="stroke:#000000;stroke-width:0.8;" x="376.663636" xlink:href="#m6f8b32ca44" y="279.911489"/>
      </g>
     </g>
     <g id="text_24">
      <!-- 24 -->
      <g transform="translate(370.301136 294.509927)scale(0.1 -0.1)">
       <use xlink:href="#DejaVuSans-50"/>
       <use x="63.623047" xlink:href="#DejaVuSans-52"/>
      </g>
     </g>
    </g>
    <g id="xtick_25">
     <g id="line2d_25">
      <g>
       <use style="stroke:#000000;stroke-width:0.8;" x="389.255513" xlink:href="#m6f8b32ca44" y="279.911489"/>
      </g>
     </g>
     <g id="text_25">
      <!-- 25 -->
      <g transform="translate(382.893013 294.509927)scale(0.1 -0.1)">
       <use xlink:href="#DejaVuSans-50"/>
       <use x="63.623047" xlink:href="#DejaVuSans-53"/>
      </g>
     </g>
    </g>
    <g id="xtick_26">
     <g id="line2d_26">
      <g>
       <use style="stroke:#000000;stroke-width:0.8;" x="401.847389" xlink:href="#m6f8b32ca44" y="279.911489"/>
      </g>
     </g>
     <g id="text_26">
      <!-- 26 -->
      <g transform="translate(395.484889 294.509927)scale(0.1 -0.1)">
       <use xlink:href="#DejaVuSans-50"/>
       <use x="63.623047" xlink:href="#DejaVuSans-54"/>
      </g>
     </g>
    </g>
    <g id="xtick_27">
     <g id="line2d_27">
      <g>
       <use style="stroke:#000000;stroke-width:0.8;" x="414.439265" xlink:href="#m6f8b32ca44" y="279.911489"/>
      </g>
     </g>
     <g id="text_27">
      <!-- 27 -->
      <g transform="translate(408.076765 294.509927)scale(0.1 -0.1)">
       <use xlink:href="#DejaVuSans-50"/>
       <use x="63.623047" xlink:href="#DejaVuSans-55"/>
      </g>
     </g>
    </g>
    <g id="xtick_28">
     <g id="line2d_28">
      <g>
       <use style="stroke:#000000;stroke-width:0.8;" x="427.031141" xlink:href="#m6f8b32ca44" y="279.911489"/>
      </g>
     </g>
     <g id="text_28">
      <!-- 28 -->
      <g transform="translate(420.668641 294.509927)scale(0.1 -0.1)">
       <use xlink:href="#DejaVuSans-50"/>
       <use x="63.623047" xlink:href="#DejaVuSans-56"/>
      </g>
     </g>
    </g>
    <g id="xtick_29">
     <g id="line2d_29">
      <g>
       <use style="stroke:#000000;stroke-width:0.8;" x="439.623017" xlink:href="#m6f8b32ca44" y="279.911489"/>
      </g>
     </g>
     <g id="text_29">
      <!-- 29 -->
      <g transform="translate(433.260517 294.509927)scale(0.1 -0.1)">
       <use xlink:href="#DejaVuSans-50"/>
       <use x="63.623047" xlink:href="#DejaVuSans-57"/>
      </g>
     </g>
    </g>
    <g id="text_30">
     <!-- Number of Gaussian components -->
     <g transform="translate(174.797656 308.188052)scale(0.1 -0.1)">
      <defs>
       <path d="M 9.8125 72.90625 
L 23.09375 72.90625 
L 55.421875 11.921875 
L 55.421875 72.90625 
L 64.984375 72.90625 
L 64.984375 0 
L 51.703125 0 
L 19.390625 60.984375 
L 19.390625 0 
L 9.8125 0 
z
" id="DejaVuSans-78"/>
       <path d="M 8.5 21.578125 
L 8.5 54.6875 
L 17.484375 54.6875 
L 17.484375 21.921875 
Q 17.484375 14.15625 20.5 10.265625 
Q 23.53125 6.390625 29.59375 6.390625 
Q 36.859375 6.390625 41.078125 11.03125 
Q 45.3125 15.671875 45.3125 23.6875 
L 45.3125 54.6875 
L 54.296875 54.6875 
L 54.296875 0 
L 45.3125 0 
L 45.3125 8.40625 
Q 42.046875 3.421875 37.71875 1 
Q 33.40625 -1.421875 27.6875 -1.421875 
Q 18.265625 -1.421875 13.375 4.4375 
Q 8.5 10.296875 8.5 21.578125 
z
M 31.109375 56 
z
" id="DejaVuSans-117"/>
       <path d="M 52 44.1875 
Q 55.375 50.25 60.0625 53.125 
Q 64.75 56 71.09375 56 
Q 79.640625 56 84.28125 50.015625 
Q 88.921875 44.046875 88.921875 33.015625 
L 88.921875 0 
L 79.890625 0 
L 79.890625 32.71875 
Q 79.890625 40.578125 77.09375 44.375 
Q 74.3125 48.1875 68.609375 48.1875 
Q 61.625 48.1875 57.5625 43.546875 
Q 53.515625 38.921875 53.515625 30.90625 
L 53.515625 0 
L 44.484375 0 
L 44.484375 32.71875 
Q 44.484375 40.625 41.703125 44.40625 
Q 38.921875 48.1875 33.109375 48.1875 
Q 26.21875 48.1875 22.15625 43.53125 
Q 18.109375 38.875 18.109375 30.90625 
L 18.109375 0 
L 9.078125 0 
L 9.078125 54.6875 
L 18.109375 54.6875 
L 18.109375 46.1875 
Q 21.1875 51.21875 25.484375 53.609375 
Q 29.78125 56 35.6875 56 
Q 41.65625 56 45.828125 52.96875 
Q 50 49.953125 52 44.1875 
z
" id="DejaVuSans-109"/>
       <path d="M 48.6875 27.296875 
Q 48.6875 37.203125 44.609375 42.84375 
Q 40.53125 48.484375 33.40625 48.484375 
Q 26.265625 48.484375 22.1875 42.84375 
Q 18.109375 37.203125 18.109375 27.296875 
Q 18.109375 17.390625 22.1875 11.75 
Q 26.265625 6.109375 33.40625 6.109375 
Q 40.53125 6.109375 44.609375 11.75 
Q 48.6875 17.390625 48.6875 27.296875 
z
M 18.109375 46.390625 
Q 20.953125 51.265625 25.265625 53.625 
Q 29.59375 56 35.59375 56 
Q 45.5625 56 51.78125 48.09375 
Q 58.015625 40.1875 58.015625 27.296875 
Q 58.015625 14.40625 51.78125 6.484375 
Q 45.5625 -1.421875 35.59375 -1.421875 
Q 29.59375 -1.421875 25.265625 0.953125 
Q 20.953125 3.328125 18.109375 8.203125 
L 18.109375 0 
L 9.078125 0 
L 9.078125 75.984375 
L 18.109375 75.984375 
z
" id="DejaVuSans-98"/>
       <path d="M 56.203125 29.59375 
L 56.203125 25.203125 
L 14.890625 25.203125 
Q 15.484375 15.921875 20.484375 11.0625 
Q 25.484375 6.203125 34.421875 6.203125 
Q 39.59375 6.203125 44.453125 7.46875 
Q 49.3125 8.734375 54.109375 11.28125 
L 54.109375 2.78125 
Q 49.265625 0.734375 44.1875 -0.34375 
Q 39.109375 -1.421875 33.890625 -1.421875 
Q 20.796875 -1.421875 13.15625 6.1875 
Q 5.515625 13.8125 5.515625 26.8125 
Q 5.515625 40.234375 12.765625 48.109375 
Q 20.015625 56 32.328125 56 
Q 43.359375 56 49.78125 48.890625 
Q 56.203125 41.796875 56.203125 29.59375 
z
M 47.21875 32.234375 
Q 47.125 39.59375 43.09375 43.984375 
Q 39.0625 48.390625 32.421875 48.390625 
Q 24.90625 48.390625 20.390625 44.140625 
Q 15.875 39.890625 15.1875 32.171875 
z
" id="DejaVuSans-101"/>
       <path d="M 41.109375 46.296875 
Q 39.59375 47.171875 37.8125 47.578125 
Q 36.03125 48 33.890625 48 
Q 26.265625 48 22.1875 43.046875 
Q 18.109375 38.09375 18.109375 28.8125 
L 18.109375 0 
L 9.078125 0 
L 9.078125 54.6875 
L 18.109375 54.6875 
L 18.109375 46.1875 
Q 20.953125 51.171875 25.484375 53.578125 
Q 30.03125 56 36.53125 56 
Q 37.453125 56 38.578125 55.875 
Q 39.703125 55.765625 41.0625 55.515625 
z
" id="DejaVuSans-114"/>
       <path id="DejaVuSans-32"/>
       <path d="M 30.609375 48.390625 
Q 23.390625 48.390625 19.1875 42.75 
Q 14.984375 37.109375 14.984375 27.296875 
Q 14.984375 17.484375 19.15625 11.84375 
Q 23.34375 6.203125 30.609375 6.203125 
Q 37.796875 6.203125 41.984375 11.859375 
Q 46.1875 17.53125 46.1875 27.296875 
Q 46.1875 37.015625 41.984375 42.703125 
Q 37.796875 48.390625 30.609375 48.390625 
z
M 30.609375 56 
Q 42.328125 56 49.015625 48.375 
Q 55.71875 40.765625 55.71875 27.296875 
Q 55.71875 13.875 49.015625 6.21875 
Q 42.328125 -1.421875 30.609375 -1.421875 
Q 18.84375 -1.421875 12.171875 6.21875 
Q 5.515625 13.875 5.515625 27.296875 
Q 5.515625 40.765625 12.171875 48.375 
Q 18.84375 56 30.609375 56 
z
" id="DejaVuSans-111"/>
       <path d="M 37.109375 75.984375 
L 37.109375 68.5 
L 28.515625 68.5 
Q 23.6875 68.5 21.796875 66.546875 
Q 19.921875 64.59375 19.921875 59.515625 
L 19.921875 54.6875 
L 34.71875 54.6875 
L 34.71875 47.703125 
L 19.921875 47.703125 
L 19.921875 0 
L 10.890625 0 
L 10.890625 47.703125 
L 2.296875 47.703125 
L 2.296875 54.6875 
L 10.890625 54.6875 
L 10.890625 58.5 
Q 10.890625 67.625 15.140625 71.796875 
Q 19.390625 75.984375 28.609375 75.984375 
z
" id="DejaVuSans-102"/>
       <path d="M 59.515625 10.40625 
L 59.515625 29.984375 
L 43.40625 29.984375 
L 43.40625 38.09375 
L 69.28125 38.09375 
L 69.28125 6.78125 
Q 63.578125 2.734375 56.6875 0.65625 
Q 49.8125 -1.421875 42 -1.421875 
Q 24.90625 -1.421875 15.25 8.5625 
Q 5.609375 18.5625 5.609375 36.375 
Q 5.609375 54.25 15.25 64.234375 
Q 24.90625 74.21875 42 74.21875 
Q 49.125 74.21875 55.546875 72.453125 
Q 61.96875 70.703125 67.390625 67.28125 
L 67.390625 56.78125 
Q 61.921875 61.421875 55.765625 63.765625 
Q 49.609375 66.109375 42.828125 66.109375 
Q 29.4375 66.109375 22.71875 58.640625 
Q 16.015625 51.171875 16.015625 36.375 
Q 16.015625 21.625 22.71875 14.15625 
Q 29.4375 6.6875 42.828125 6.6875 
Q 48.046875 6.6875 52.140625 7.59375 
Q 56.25 8.5 59.515625 10.40625 
z
" id="DejaVuSans-71"/>
       <path d="M 34.28125 27.484375 
Q 23.390625 27.484375 19.1875 25 
Q 14.984375 22.515625 14.984375 16.5 
Q 14.984375 11.71875 18.140625 8.90625 
Q 21.296875 6.109375 26.703125 6.109375 
Q 34.1875 6.109375 38.703125 11.40625 
Q 43.21875 16.703125 43.21875 25.484375 
L 43.21875 27.484375 
z
M 52.203125 31.203125 
L 52.203125 0 
L 43.21875 0 
L 43.21875 8.296875 
Q 40.140625 3.328125 35.546875 0.953125 
Q 30.953125 -1.421875 24.3125 -1.421875 
Q 15.921875 -1.421875 10.953125 3.296875 
Q 6 8.015625 6 15.921875 
Q 6 25.140625 12.171875 29.828125 
Q 18.359375 34.515625 30.609375 34.515625 
L 43.21875 34.515625 
L 43.21875 35.40625 
Q 43.21875 41.609375 39.140625 45 
Q 35.0625 48.390625 27.6875 48.390625 
Q 23 48.390625 18.546875 47.265625 
Q 14.109375 46.140625 10.015625 43.890625 
L 10.015625 52.203125 
Q 14.9375 54.109375 19.578125 55.046875 
Q 24.21875 56 28.609375 56 
Q 40.484375 56 46.34375 49.84375 
Q 52.203125 43.703125 52.203125 31.203125 
z
" id="DejaVuSans-97"/>
       <path d="M 44.28125 53.078125 
L 44.28125 44.578125 
Q 40.484375 46.53125 36.375 47.5 
Q 32.28125 48.484375 27.875 48.484375 
Q 21.1875 48.484375 17.84375 46.4375 
Q 14.5 44.390625 14.5 40.28125 
Q 14.5 37.15625 16.890625 35.375 
Q 19.28125 33.59375 26.515625 31.984375 
L 29.59375 31.296875 
Q 39.15625 29.25 43.1875 25.515625 
Q 47.21875 21.78125 47.21875 15.09375 
Q 47.21875 7.46875 41.1875 3.015625 
Q 35.15625 -1.421875 24.609375 -1.421875 
Q 20.21875 -1.421875 15.453125 -0.5625 
Q 10.6875 0.296875 5.421875 2 
L 5.421875 11.28125 
Q 10.40625 8.6875 15.234375 7.390625 
Q 20.0625 6.109375 24.8125 6.109375 
Q 31.15625 6.109375 34.5625 8.28125 
Q 37.984375 10.453125 37.984375 14.40625 
Q 37.984375 18.0625 35.515625 20.015625 
Q 33.0625 21.96875 24.703125 23.78125 
L 21.578125 24.515625 
Q 13.234375 26.265625 9.515625 29.90625 
Q 5.8125 33.546875 5.8125 39.890625 
Q 5.8125 47.609375 11.28125 51.796875 
Q 16.75 56 26.8125 56 
Q 31.78125 56 36.171875 55.265625 
Q 40.578125 54.546875 44.28125 53.078125 
z
" id="DejaVuSans-115"/>
       <path d="M 9.421875 54.6875 
L 18.40625 54.6875 
L 18.40625 0 
L 9.421875 0 
z
M 9.421875 75.984375 
L 18.40625 75.984375 
L 18.40625 64.59375 
L 9.421875 64.59375 
z
" id="DejaVuSans-105"/>
       <path d="M 54.890625 33.015625 
L 54.890625 0 
L 45.90625 0 
L 45.90625 32.71875 
Q 45.90625 40.484375 42.875 44.328125 
Q 39.84375 48.1875 33.796875 48.1875 
Q 26.515625 48.1875 22.3125 43.546875 
Q 18.109375 38.921875 18.109375 30.90625 
L 18.109375 0 
L 9.078125 0 
L 9.078125 54.6875 
L 18.109375 54.6875 
L 18.109375 46.1875 
Q 21.34375 51.125 25.703125 53.5625 
Q 30.078125 56 35.796875 56 
Q 45.21875 56 50.046875 50.171875 
Q 54.890625 44.34375 54.890625 33.015625 
z
" id="DejaVuSans-110"/>
       <path d="M 48.78125 52.59375 
L 48.78125 44.1875 
Q 44.96875 46.296875 41.140625 47.34375 
Q 37.3125 48.390625 33.40625 48.390625 
Q 24.65625 48.390625 19.8125 42.84375 
Q 14.984375 37.3125 14.984375 27.296875 
Q 14.984375 17.28125 19.8125 11.734375 
Q 24.65625 6.203125 33.40625 6.203125 
Q 37.3125 6.203125 41.140625 7.25 
Q 44.96875 8.296875 48.78125 10.40625 
L 48.78125 2.09375 
Q 45.015625 0.34375 40.984375 -0.53125 
Q 36.96875 -1.421875 32.421875 -1.421875 
Q 20.0625 -1.421875 12.78125 6.34375 
Q 5.515625 14.109375 5.515625 27.296875 
Q 5.515625 40.671875 12.859375 48.328125 
Q 20.21875 56 33.015625 56 
Q 37.15625 56 41.109375 55.140625 
Q 45.0625 54.296875 48.78125 52.59375 
z
" id="DejaVuSans-99"/>
       <path d="M 18.109375 8.203125 
L 18.109375 -20.796875 
L 9.078125 -20.796875 
L 9.078125 54.6875 
L 18.109375 54.6875 
L 18.109375 46.390625 
Q 20.953125 51.265625 25.265625 53.625 
Q 29.59375 56 35.59375 56 
Q 45.5625 56 51.78125 48.09375 
Q 58.015625 40.1875 58.015625 27.296875 
Q 58.015625 14.40625 51.78125 6.484375 
Q 45.5625 -1.421875 35.59375 -1.421875 
Q 29.59375 -1.421875 25.265625 0.953125 
Q 20.953125 3.328125 18.109375 8.203125 
z
M 48.6875 27.296875 
Q 48.6875 37.203125 44.609375 42.84375 
Q 40.53125 48.484375 33.40625 48.484375 
Q 26.265625 48.484375 22.1875 42.84375 
Q 18.109375 37.203125 18.109375 27.296875 
Q 18.109375 17.390625 22.1875 11.75 
Q 26.265625 6.109375 33.40625 6.109375 
Q 40.53125 6.109375 44.609375 11.75 
Q 48.6875 17.390625 48.6875 27.296875 
z
" id="DejaVuSans-112"/>
       <path d="M 18.3125 70.21875 
L 18.3125 54.6875 
L 36.8125 54.6875 
L 36.8125 47.703125 
L 18.3125 47.703125 
L 18.3125 18.015625 
Q 18.3125 11.328125 20.140625 9.421875 
Q 21.96875 7.515625 27.59375 7.515625 
L 36.8125 7.515625 
L 36.8125 0 
L 27.59375 0 
Q 17.1875 0 13.234375 3.875 
Q 9.28125 7.765625 9.28125 18.015625 
L 9.28125 47.703125 
L 2.6875 47.703125 
L 2.6875 54.6875 
L 9.28125 54.6875 
L 9.28125 70.21875 
z
" id="DejaVuSans-116"/>
      </defs>
      <use xlink:href="#DejaVuSans-78"/>
      <use x="74.804688" xlink:href="#DejaVuSans-117"/>
      <use x="138.183594" xlink:href="#DejaVuSans-109"/>
      <use x="235.595703" xlink:href="#DejaVuSans-98"/>
      <use x="299.072266" xlink:href="#DejaVuSans-101"/>
      <use x="360.595703" xlink:href="#DejaVuSans-114"/>
      <use x="401.708984" xlink:href="#DejaVuSans-32"/>
      <use x="433.496094" xlink:href="#DejaVuSans-111"/>
      <use x="494.677734" xlink:href="#DejaVuSans-102"/>
      <use x="529.882812" xlink:href="#DejaVuSans-32"/>
      <use x="561.669922" xlink:href="#DejaVuSans-71"/>
      <use x="639.160156" xlink:href="#DejaVuSans-97"/>
      <use x="700.439453" xlink:href="#DejaVuSans-117"/>
      <use x="763.818359" xlink:href="#DejaVuSans-115"/>
      <use x="815.917969" xlink:href="#DejaVuSans-115"/>
      <use x="868.017578" xlink:href="#DejaVuSans-105"/>
      <use x="895.800781" xlink:href="#DejaVuSans-97"/>
      <use x="957.080078" xlink:href="#DejaVuSans-110"/>
      <use x="1020.458984" xlink:href="#DejaVuSans-32"/>
      <use x="1052.246094" xlink:href="#DejaVuSans-99"/>
      <use x="1107.226562" xlink:href="#DejaVuSans-111"/>
      <use x="1168.408203" xlink:href="#DejaVuSans-109"/>
      <use x="1265.820312" xlink:href="#DejaVuSans-112"/>
      <use x="1329.296875" xlink:href="#DejaVuSans-111"/>
      <use x="1390.478516" xlink:href="#DejaVuSans-110"/>
      <use x="1453.857422" xlink:href="#DejaVuSans-101"/>
      <use x="1515.380859" xlink:href="#DejaVuSans-110"/>
      <use x="1578.759766" xlink:href="#DejaVuSans-116"/>
      <use x="1617.96875" xlink:href="#DejaVuSans-115"/>
     </g>
    </g>
   </g>
   <g id="matplotlib.axis_2">
    <g id="ytick_1">
     <g id="line2d_30">
      <defs>
       <path d="M 0 0 
L -3.5 0 
" id="me75b120784" style="stroke:#000000;stroke-width:0.8;"/>
      </defs>
      <g>
       <use style="stroke:#000000;stroke-width:0.8;" x="63" xlink:href="#me75b120784" y="247.23135"/>
      </g>
     </g>
     <g id="text_31">
      <!-- 200 -->
      <g transform="translate(36.9125 251.030569)scale(0.1 -0.1)">
       <use xlink:href="#DejaVuSans-50"/>
       <use x="63.623047" xlink:href="#DejaVuSans-48"/>
       <use x="127.246094" xlink:href="#DejaVuSans-48"/>
      </g>
     </g>
    </g>
    <g id="ytick_2">
     <g id="line2d_31">
      <g>
       <use style="stroke:#000000;stroke-width:0.8;" x="63" xlink:href="#me75b120784" y="209.417827"/>
      </g>
     </g>
     <g id="text_32">
      <!-- 300 -->
      <g transform="translate(36.9125 213.217045)scale(0.1 -0.1)">
       <use xlink:href="#DejaVuSans-51"/>
       <use x="63.623047" xlink:href="#DejaVuSans-48"/>
       <use x="127.246094" xlink:href="#DejaVuSans-48"/>
      </g>
     </g>
    </g>
    <g id="ytick_3">
     <g id="line2d_32">
      <g>
       <use style="stroke:#000000;stroke-width:0.8;" x="63" xlink:href="#me75b120784" y="171.604303"/>
      </g>
     </g>
     <g id="text_33">
      <!-- 400 -->
      <g transform="translate(36.9125 175.403521)scale(0.1 -0.1)">
       <use xlink:href="#DejaVuSans-52"/>
       <use x="63.623047" xlink:href="#DejaVuSans-48"/>
       <use x="127.246094" xlink:href="#DejaVuSans-48"/>
      </g>
     </g>
    </g>
    <g id="ytick_4">
     <g id="line2d_33">
      <g>
       <use style="stroke:#000000;stroke-width:0.8;" x="63" xlink:href="#me75b120784" y="133.790779"/>
      </g>
     </g>
     <g id="text_34">
      <!-- 500 -->
      <g transform="translate(36.9125 137.589998)scale(0.1 -0.1)">
       <use xlink:href="#DejaVuSans-53"/>
       <use x="63.623047" xlink:href="#DejaVuSans-48"/>
       <use x="127.246094" xlink:href="#DejaVuSans-48"/>
      </g>
     </g>
    </g>
    <g id="ytick_5">
     <g id="line2d_34">
      <g>
       <use style="stroke:#000000;stroke-width:0.8;" x="63" xlink:href="#me75b120784" y="95.977255"/>
      </g>
     </g>
     <g id="text_35">
      <!-- 600 -->
      <g transform="translate(36.9125 99.776474)scale(0.1 -0.1)">
       <use xlink:href="#DejaVuSans-54"/>
       <use x="63.623047" xlink:href="#DejaVuSans-48"/>
       <use x="127.246094" xlink:href="#DejaVuSans-48"/>
      </g>
     </g>
    </g>
    <g id="text_36">
     <!-- BIC score -->
     <g transform="translate(30.832812 197.934495)rotate(-90)scale(0.1 -0.1)">
      <defs>
       <path d="M 19.671875 34.8125 
L 19.671875 8.109375 
L 35.5 8.109375 
Q 43.453125 8.109375 47.28125 11.40625 
Q 51.125 14.703125 51.125 21.484375 
Q 51.125 28.328125 47.28125 31.5625 
Q 43.453125 34.8125 35.5 34.8125 
z
M 19.671875 64.796875 
L 19.671875 42.828125 
L 34.28125 42.828125 
Q 41.5 42.828125 45.03125 45.53125 
Q 48.578125 48.25 48.578125 53.8125 
Q 48.578125 59.328125 45.03125 62.0625 
Q 41.5 64.796875 34.28125 64.796875 
z
M 9.8125 72.90625 
L 35.015625 72.90625 
Q 46.296875 72.90625 52.390625 68.21875 
Q 58.5 63.53125 58.5 54.890625 
Q 58.5 48.1875 55.375 44.234375 
Q 52.25 40.28125 46.1875 39.3125 
Q 53.46875 37.75 57.5 32.78125 
Q 61.53125 27.828125 61.53125 20.40625 
Q 61.53125 10.640625 54.890625 5.3125 
Q 48.25 0 35.984375 0 
L 9.8125 0 
z
" id="DejaVuSans-66"/>
       <path d="M 9.8125 72.90625 
L 19.671875 72.90625 
L 19.671875 0 
L 9.8125 0 
z
" id="DejaVuSans-73"/>
       <path d="M 64.40625 67.28125 
L 64.40625 56.890625 
Q 59.421875 61.53125 53.78125 63.8125 
Q 48.140625 66.109375 41.796875 66.109375 
Q 29.296875 66.109375 22.65625 58.46875 
Q 16.015625 50.828125 16.015625 36.375 
Q 16.015625 21.96875 22.65625 14.328125 
Q 29.296875 6.6875 41.796875 6.6875 
Q 48.140625 6.6875 53.78125 8.984375 
Q 59.421875 11.28125 64.40625 15.921875 
L 64.40625 5.609375 
Q 59.234375 2.09375 53.4375 0.328125 
Q 47.65625 -1.421875 41.21875 -1.421875 
Q 24.65625 -1.421875 15.125 8.703125 
Q 5.609375 18.84375 5.609375 36.375 
Q 5.609375 53.953125 15.125 64.078125 
Q 24.65625 74.21875 41.21875 74.21875 
Q 47.75 74.21875 53.53125 72.484375 
Q 59.328125 70.75 64.40625 67.28125 
z
" id="DejaVuSans-67"/>
      </defs>
      <use xlink:href="#DejaVuSans-66"/>
      <use x="68.603516" xlink:href="#DejaVuSans-73"/>
      <use x="98.095703" xlink:href="#DejaVuSans-67"/>
      <use x="167.919922" xlink:href="#DejaVuSans-32"/>
      <use x="199.707031" xlink:href="#DejaVuSans-115"/>
      <use x="251.806641" xlink:href="#DejaVuSans-99"/>
      <use x="306.787109" xlink:href="#DejaVuSans-111"/>
      <use x="367.96875" xlink:href="#DejaVuSans-114"/>
      <use x="406.832031" xlink:href="#DejaVuSans-101"/>
     </g>
    </g>
   </g>
   <g id="patch_32">
    <path d="M 63 279.911489 
L 63 69.12 
" style="fill:none;stroke:#000000;stroke-linecap:square;stroke-linejoin:miter;stroke-width:0.8;"/>
   </g>
   <g id="patch_33">
    <path d="M 453.6 279.911489 
L 453.6 69.12 
" style="fill:none;stroke:#000000;stroke-linecap:square;stroke-linejoin:miter;stroke-width:0.8;"/>
   </g>
   <g id="patch_34">
    <path d="M 63 279.911489 
L 453.6 279.911489 
" style="fill:none;stroke:#000000;stroke-linecap:square;stroke-linejoin:miter;stroke-width:0.8;"/>
   </g>
   <g id="patch_35">
    <path d="M 63 69.12 
L 453.6 69.12 
" style="fill:none;stroke:#000000;stroke-linecap:square;stroke-linejoin:miter;stroke-width:0.8;"/>
   </g>
   <g id="text_37">
    <!-- * -->
    <g transform="translate(296.705222 271.563312)scale(0.14 -0.14)">
     <defs>
      <path d="M 47.015625 60.890625 
L 29.5 51.421875 
L 47.015625 41.890625 
L 44.1875 37.109375 
L 27.78125 47.015625 
L 27.78125 28.609375 
L 22.21875 28.609375 
L 22.21875 47.015625 
L 5.8125 37.109375 
L 2.984375 41.890625 
L 20.515625 51.421875 
L 2.984375 60.890625 
L 5.8125 65.71875 
L 22.21875 55.8125 
L 22.21875 74.21875 
L 27.78125 74.21875 
L 27.78125 55.8125 
L 44.1875 65.71875 
z
" id="DejaVuSans-42"/>
     </defs>
     <use xlink:href="#DejaVuSans-42"/>
    </g>
   </g>
   <g id="text_38">
    <!-- BIC score per model -->
    <g transform="translate(197.732813 63.12)scale(0.12 -0.12)">
     <defs>
      <path d="M 45.40625 46.390625 
L 45.40625 75.984375 
L 54.390625 75.984375 
L 54.390625 0 
L 45.40625 0 
L 45.40625 8.203125 
Q 42.578125 3.328125 38.25 0.953125 
Q 33.9375 -1.421875 27.875 -1.421875 
Q 17.96875 -1.421875 11.734375 6.484375 
Q 5.515625 14.40625 5.515625 27.296875 
Q 5.515625 40.1875 11.734375 48.09375 
Q 17.96875 56 27.875 56 
Q 33.9375 56 38.25 53.625 
Q 42.578125 51.265625 45.40625 46.390625 
z
M 14.796875 27.296875 
Q 14.796875 17.390625 18.875 11.75 
Q 22.953125 6.109375 30.078125 6.109375 
Q 37.203125 6.109375 41.296875 11.75 
Q 45.40625 17.390625 45.40625 27.296875 
Q 45.40625 37.203125 41.296875 42.84375 
Q 37.203125 48.484375 30.078125 48.484375 
Q 22.953125 48.484375 18.875 42.84375 
Q 14.796875 37.203125 14.796875 27.296875 
z
" id="DejaVuSans-100"/>
      <path d="M 9.421875 75.984375 
L 18.40625 75.984375 
L 18.40625 0 
L 9.421875 0 
z
" id="DejaVuSans-108"/>
     </defs>
     <use xlink:href="#DejaVuSans-66"/>
     <use x="68.603516" xlink:href="#DejaVuSans-73"/>
     <use x="98.095703" xlink:href="#DejaVuSans-67"/>
     <use x="167.919922" xlink:href="#DejaVuSans-32"/>
     <use x="199.707031" xlink:href="#DejaVuSans-115"/>
     <use x="251.806641" xlink:href="#DejaVuSans-99"/>
     <use x="306.787109" xlink:href="#DejaVuSans-111"/>
     <use x="367.96875" xlink:href="#DejaVuSans-114"/>
     <use x="406.832031" xlink:href="#DejaVuSans-101"/>
     <use x="468.355469" xlink:href="#DejaVuSans-32"/>
     <use x="500.142578" xlink:href="#DejaVuSans-112"/>
     <use x="563.619141" xlink:href="#DejaVuSans-101"/>
     <use x="625.142578" xlink:href="#DejaVuSans-114"/>
     <use x="666.255859" xlink:href="#DejaVuSans-32"/>
     <use x="698.042969" xlink:href="#DejaVuSans-109"/>
     <use x="795.455078" xlink:href="#DejaVuSans-111"/>
     <use x="856.636719" xlink:href="#DejaVuSans-100"/>
     <use x="920.113281" xlink:href="#DejaVuSans-101"/>
     <use x="981.636719" xlink:href="#DejaVuSans-108"/>
    </g>
   </g>
   <g id="legend_1">
    <g id="patch_36">
     <path d="M 399.185938 91.798125 
L 446.6 91.798125 
Q 448.6 91.798125 448.6 89.798125 
L 448.6 76.12 
Q 448.6 74.12 446.6 74.12 
L 399.185938 74.12 
Q 397.185938 74.12 397.185938 76.12 
L 397.185938 89.798125 
Q 397.185938 91.798125 399.185938 91.798125 
z
" style="fill:#ffffff;opacity:0.8;stroke:#cccccc;stroke-linejoin:miter;"/>
    </g>
    <g id="patch_37">
     <path d="M 401.185938 85.718438 
L 421.185938 85.718438 
L 421.185938 78.718438 
L 401.185938 78.718438 
z
" style="fill:#2f4f4f;"/>
    </g>
    <g id="text_39">
     <!-- full -->
     <g transform="translate(429.185938 85.718438)scale(0.1 -0.1)">
      <use xlink:href="#DejaVuSans-102"/>
      <use x="35.205078" xlink:href="#DejaVuSans-117"/>
      <use x="98.583984" xlink:href="#DejaVuSans-108"/>
      <use x="126.367188" xlink:href="#DejaVuSans-108"/>
     </g>
    </g>
   </g>
  </g>
  <g id="axes_2">
   <g id="patch_38">
    <path d="M 63 564.48 
L 453.6 564.48 
L 453.6 353.688511 
L 63 353.688511 
z
" style="fill:#ffffff;"/>
   </g>
   <g id="PathCollection_1">
    <defs>
     <path d="M 0 2.345208 
C 0.621956 2.345208 1.218523 2.098102 1.658312 1.658312 
C 2.098102 1.218523 2.345208 0.621956 2.345208 0 
C 2.345208 -0.621956 2.098102 -1.218523 1.658312 -1.658312 
C 1.218523 -2.098102 0.621956 -2.345208 0 -2.345208 
C -0.621956 -2.345208 -1.218523 -2.098102 -1.658312 -1.658312 
C -2.098102 -1.218523 -2.345208 -0.621956 -2.345208 0 
C -2.345208 0.621956 -2.098102 1.218523 -1.658312 1.658312 
C -1.218523 2.098102 -0.621956 2.345208 0 2.345208 
z
" id="mdaee67c209" style="stroke:#2f4f4f;"/>
    </defs>
    <g clip-path="url(#p5ed6d8b3bd)">
     <use style="fill:#2f4f4f;stroke:#2f4f4f;" x="98.834494" xlink:href="#mdaee67c209" y="408.861254"/>
     <use style="fill:#2f4f4f;stroke:#2f4f4f;" x="96.811701" xlink:href="#mdaee67c209" y="410.98733"/>
     <use style="fill:#2f4f4f;stroke:#2f4f4f;" x="97.809021" xlink:href="#mdaee67c209" y="409.55266"/>
    </g>
   </g>
   <g id="PathCollection_2">
    <defs>
     <path d="M 0 2.345208 
C 0.621956 2.345208 1.218523 2.098102 1.658312 1.658312 
C 2.098102 1.218523 2.345208 0.621956 2.345208 0 
C 2.345208 -0.621956 2.098102 -1.218523 1.658312 -1.658312 
C 1.218523 -2.098102 0.621956 -2.345208 0 -2.345208 
C -0.621956 -2.345208 -1.218523 -2.098102 -1.658312 -1.658312 
C -2.098102 -1.218523 -2.345208 -0.621956 -2.345208 0 
C -2.345208 0.621956 -2.098102 1.218523 -1.658312 1.658312 
C -1.218523 2.098102 -0.621956 2.345208 0 2.345208 
z
" id="m83de5356a8" style="stroke:#556b2f;"/>
    </defs>
    <g clip-path="url(#p5ed6d8b3bd)">
     <use style="fill:#556b2f;stroke:#556b2f;" x="240.880894" xlink:href="#m83de5356a8" y="412.331643"/>
     <use style="fill:#556b2f;stroke:#556b2f;" x="238.138654" xlink:href="#m83de5356a8" y="410.105679"/>
     <use style="fill:#556b2f;stroke:#556b2f;" x="238.467362" xlink:href="#m83de5356a8" y="410.372795"/>
    </g>
   </g>
   <g id="PathCollection_3">
    <defs>
     <path d="M 0 2.345208 
C 0.621956 2.345208 1.218523 2.098102 1.658312 1.658312 
C 2.098102 1.218523 2.345208 0.621956 2.345208 0 
C 2.345208 -0.621956 2.098102 -1.218523 1.658312 -1.658312 
C 1.218523 -2.098102 0.621956 -2.345208 0 -2.345208 
C -0.621956 -2.345208 -1.218523 -2.098102 -1.658312 -1.658312 
C -2.098102 -1.218523 -2.345208 -0.621956 -2.345208 0 
C -2.345208 0.621956 -2.098102 1.218523 -1.658312 1.658312 
C -1.218523 2.098102 -0.621956 2.345208 0 2.345208 
z
" id="mc628f5b030" style="stroke:#8b4513;"/>
    </defs>
    <g clip-path="url(#p5ed6d8b3bd)">
     <use style="fill:#8b4513;stroke:#8b4513;" x="449.776849" xlink:href="#mc628f5b030" y="366.112844"/>
     <use style="fill:#8b4513;stroke:#8b4513;" x="450.745133" xlink:href="#mc628f5b030" y="368.060017"/>
    </g>
   </g>
   <g id="PathCollection_4">
    <defs>
     <path d="M 0 2.345208 
C 0.621956 2.345208 1.218523 2.098102 1.658312 1.658312 
C 2.098102 1.218523 2.345208 0.621956 2.345208 0 
C 2.345208 -0.621956 2.098102 -1.218523 1.658312 -1.658312 
C 1.218523 -2.098102 0.621956 -2.345208 0 -2.345208 
C -0.621956 -2.345208 -1.218523 -2.098102 -1.658312 -1.658312 
C -2.098102 -1.218523 -2.345208 -0.621956 -2.345208 0 
C -2.345208 0.621956 -2.098102 1.218523 -1.658312 1.658312 
C -1.218523 2.098102 -0.621956 2.345208 0 2.345208 
z
" id="me985dd319e" style="stroke:#2e8b57;"/>
    </defs>
    <g clip-path="url(#p5ed6d8b3bd)">
     <use style="fill:#2e8b57;stroke:#2e8b57;" x="271.956438" xlink:href="#me985dd319e" y="554.182211"/>
     <use style="fill:#2e8b57;stroke:#2e8b57;" x="272.161602" xlink:href="#me985dd319e" y="553.822827"/>
    </g>
   </g>
   <g id="PathCollection_5">
    <defs>
     <path d="M 0 2.345208 
C 0.621956 2.345208 1.218523 2.098102 1.658312 1.658312 
C 2.098102 1.218523 2.345208 0.621956 2.345208 0 
C 2.345208 -0.621956 2.098102 -1.218523 1.658312 -1.658312 
C 1.218523 -2.098102 0.621956 -2.345208 0 -2.345208 
C -0.621956 -2.345208 -1.218523 -2.098102 -1.658312 -1.658312 
C -2.098102 -1.218523 -2.345208 -0.621956 -2.345208 0 
C -2.345208 0.621956 -2.098102 1.218523 -1.658312 1.658312 
C -1.218523 2.098102 -0.621956 2.345208 0 2.345208 
z
" id="ma755f12395" style="stroke:#228b22;"/>
    </defs>
    <g clip-path="url(#p5ed6d8b3bd)">
     <use style="fill:#228b22;stroke:#228b22;" x="66.281146" xlink:href="#ma755f12395" y="541.51626"/>
     <use style="fill:#228b22;stroke:#228b22;" x="67.334457" xlink:href="#ma755f12395" y="540.562643"/>
     <use style="fill:#228b22;stroke:#228b22;" x="65.854867" xlink:href="#ma755f12395" y="541.902568"/>
     <use style="fill:#228b22;stroke:#228b22;" x="66.951685" xlink:href="#ma755f12395" y="540.909055"/>
    </g>
   </g>
   <g id="PathCollection_6">
    <defs>
     <path d="M 0 2.345208 
C 0.621956 2.345208 1.218523 2.098102 1.658312 1.658312 
C 2.098102 1.218523 2.345208 0.621956 2.345208 0 
C 2.345208 -0.621956 2.098102 -1.218523 1.658312 -1.658312 
C 1.218523 -2.098102 0.621956 -2.345208 0 -2.345208 
C -0.621956 -2.345208 -1.218523 -2.098102 -1.658312 -1.658312 
C -2.098102 -1.218523 -2.345208 -0.621956 -2.345208 0 
C -2.345208 0.621956 -2.098102 1.218523 -1.658312 1.658312 
C -1.218523 2.098102 -0.621956 2.345208 0 2.345208 
z
" id="m2c811c1918" style="stroke:#708090;"/>
    </defs>
    <g clip-path="url(#p5ed6d8b3bd)">
     <use style="fill:#708090;stroke:#708090;" x="376.594026" xlink:href="#m2c811c1918" y="360.522178"/>
     <use style="fill:#708090;stroke:#708090;" x="375.226049" xlink:href="#m2c811c1918" y="361.761417"/>
     <use style="fill:#708090;stroke:#708090;" x="375.723668" xlink:href="#m2c811c1918" y="361.309863"/>
    </g>
   </g>
   <g id="PathCollection_7">
    <defs>
     <path d="M 0 2.345208 
C 0.621956 2.345208 1.218523 2.098102 1.658312 1.658312 
C 2.098102 1.218523 2.345208 0.621956 2.345208 0 
C 2.345208 -0.621956 2.098102 -1.218523 1.658312 -1.658312 
C 1.218523 -2.098102 0.621956 -2.345208 0 -2.345208 
C -0.621956 -2.345208 -1.218523 -2.098102 -1.658312 -1.658312 
C -2.098102 -1.218523 -2.345208 -0.621956 -2.345208 0 
C -2.345208 0.621956 -2.098102 1.218523 -1.658312 1.658312 
C -1.218523 2.098102 -0.621956 2.345208 0 2.345208 
z
" id="m8abfb6a6e8" style="stroke:#8b0000;"/>
    </defs>
    <g clip-path="url(#p5ed6d8b3bd)">
     <use style="fill:#8b0000;stroke:#8b0000;" x="320.736883" xlink:href="#m8abfb6a6e8" y="356.679296"/>
     <use style="fill:#8b0000;stroke:#8b0000;" x="319.467226" xlink:href="#m8abfb6a6e8" y="357.830181"/>
     <use style="fill:#8b0000;stroke:#8b0000;" x="315.498034" xlink:href="#m8abfb6a6e8" y="361.44254"/>
     <use style="fill:#8b0000;stroke:#8b0000;" x="315.161754" xlink:href="#m8abfb6a6e8" y="361.796026"/>
     <use style="fill:#8b0000;stroke:#8b0000;" x="317.418388" xlink:href="#m8abfb6a6e8" y="359.682417"/>
    </g>
   </g>
   <g id="PathCollection_8">
    <defs>
     <path d="M 0 2.345208 
C 0.621956 2.345208 1.218523 2.098102 1.658312 1.658312 
C 2.098102 1.218523 2.345208 0.621956 2.345208 0 
C 2.345208 -0.621956 2.098102 -1.218523 1.658312 -1.658312 
C 1.218523 -2.098102 0.621956 -2.345208 0 -2.345208 
C -0.621956 -2.345208 -1.218523 -2.098102 -1.658312 -1.658312 
C -2.098102 -1.218523 -2.345208 -0.621956 -2.345208 0 
C -2.345208 0.621956 -2.098102 1.218523 -1.658312 1.658312 
C -1.218523 2.098102 -0.621956 2.345208 0 2.345208 
z
" id="m19a4b983a4" style="stroke:#808000;"/>
    </defs>
    <g clip-path="url(#p5ed6d8b3bd)">
     <use style="fill:#808000;stroke:#808000;" x="238.549258" xlink:href="#m19a4b983a4" y="453.251109"/>
     <use style="fill:#808000;stroke:#808000;" x="237.917132" xlink:href="#m19a4b983a4" y="453.930642"/>
     <use style="fill:#808000;stroke:#808000;" x="239.174234" xlink:href="#m19a4b983a4" y="452.829176"/>
    </g>
   </g>
   <g id="PathCollection_9">
    <defs>
     <path d="M 0 2.345208 
C 0.621956 2.345208 1.218523 2.098102 1.658312 1.658312 
C 2.098102 1.218523 2.345208 0.621956 2.345208 0 
C 2.345208 -0.621956 2.098102 -1.218523 1.658312 -1.658312 
C 1.218523 -2.098102 0.621956 -2.345208 0 -2.345208 
C -0.621956 -2.345208 -1.218523 -2.098102 -1.658312 -1.658312 
C -2.098102 -1.218523 -2.345208 -0.621956 -2.345208 0 
C -2.345208 0.621956 -2.098102 1.218523 -1.658312 1.658312 
C -1.218523 2.098102 -0.621956 2.345208 0 2.345208 
z
" id="m1abe84b84f" style="stroke:#483d8b;"/>
    </defs>
    <g clip-path="url(#p5ed6d8b3bd)">
     <use style="fill:#483d8b;stroke:#483d8b;" x="252.892101" xlink:href="#m1abe84b84f" y="417.883339"/>
     <use style="fill:#483d8b;stroke:#483d8b;" x="252.878408" xlink:href="#m1abe84b84f" y="417.946683"/>
    </g>
   </g>
   <g id="PathCollection_10">
    <defs>
     <path d="M 0 2.345208 
C 0.621956 2.345208 1.218523 2.098102 1.658312 1.658312 
C 2.098102 1.218523 2.345208 0.621956 2.345208 0 
C 2.345208 -0.621956 2.098102 -1.218523 1.658312 -1.658312 
C 1.218523 -2.098102 0.621956 -2.345208 0 -2.345208 
C -0.621956 -2.345208 -1.218523 -2.098102 -1.658312 -1.658312 
C -2.098102 -1.218523 -2.345208 -0.621956 -2.345208 0 
C -2.345208 0.621956 -2.098102 1.218523 -1.658312 1.658312 
C -1.218523 2.098102 -0.621956 2.345208 0 2.345208 
z
" id="m91037088e2" style="stroke:#008080;"/>
    </defs>
    <g clip-path="url(#p5ed6d8b3bd)">
     <use style="fill:#008080;stroke:#008080;" x="449.813645" xlink:href="#m91037088e2" y="374.014461"/>
     <use style="fill:#008080;stroke:#008080;" x="449.638677" xlink:href="#m91037088e2" y="373.545449"/>
     <use style="fill:#008080;stroke:#008080;" x="449.672165" xlink:href="#m91037088e2" y="372.86436"/>
    </g>
   </g>
   <g id="PathCollection_11">
    <defs>
     <path d="M 0 2.345208 
C 0.621956 2.345208 1.218523 2.098102 1.658312 1.658312 
C 2.098102 1.218523 2.345208 0.621956 2.345208 0 
C 2.345208 -0.621956 2.098102 -1.218523 1.658312 -1.658312 
C 1.218523 -2.098102 0.621956 -2.345208 0 -2.345208 
C -0.621956 -2.345208 -1.218523 -2.098102 -1.658312 -1.658312 
C -2.098102 -1.218523 -2.345208 -0.621956 -2.345208 0 
C -2.345208 0.621956 -2.098102 1.218523 -1.658312 1.658312 
C -1.218523 2.098102 -0.621956 2.345208 0 2.345208 
z
" id="me98cb97934" style="stroke:#4682b4;"/>
    </defs>
    <g clip-path="url(#p5ed6d8b3bd)">
     <use style="fill:#4682b4;stroke:#4682b4;" x="102.489275" xlink:href="#me98cb97934" y="414.161235"/>
     <use style="fill:#4682b4;stroke:#4682b4;" x="103.309068" xlink:href="#me98cb97934" y="414.165429"/>
     <use style="fill:#4682b4;stroke:#4682b4;" x="98.513783" xlink:href="#me98cb97934" y="413.266368"/>
    </g>
   </g>
   <g id="PathCollection_12">
    <defs>
     <path d="M 0 2.345208 
C 0.621956 2.345208 1.218523 2.098102 1.658312 1.658312 
C 2.098102 1.218523 2.345208 0.621956 2.345208 0 
C 2.345208 -0.621956 2.098102 -1.218523 1.658312 -1.658312 
C 1.218523 -2.098102 0.621956 -2.345208 0 -2.345208 
C -0.621956 -2.345208 -1.218523 -2.098102 -1.658312 -1.658312 
C -2.098102 -1.218523 -2.345208 -0.621956 -2.345208 0 
C -2.345208 0.621956 -2.098102 1.218523 -1.658312 1.658312 
C -1.218523 2.098102 -0.621956 2.345208 0 2.345208 
z
" id="mde4b81fa7b" style="stroke:#d2691e;"/>
    </defs>
    <g clip-path="url(#p5ed6d8b3bd)">
     <use style="fill:#d2691e;stroke:#d2691e;" x="232.973894" xlink:href="#mde4b81fa7b" y="455.075017"/>
     <use style="fill:#d2691e;stroke:#d2691e;" x="228.916636" xlink:href="#mde4b81fa7b" y="452.361903"/>
     <use style="fill:#d2691e;stroke:#d2691e;" x="229.149096" xlink:href="#mde4b81fa7b" y="452.722525"/>
    </g>
   </g>
   <g id="PathCollection_13">
    <defs>
     <path d="M 0 2.345208 
C 0.621956 2.345208 1.218523 2.098102 1.658312 1.658312 
C 2.098102 1.218523 2.345208 0.621956 2.345208 0 
C 2.345208 -0.621956 2.098102 -1.218523 1.658312 -1.658312 
C 1.218523 -2.098102 0.621956 -2.345208 0 -2.345208 
C -0.621956 -2.345208 -1.218523 -2.098102 -1.658312 -1.658312 
C -2.098102 -1.218523 -2.345208 -0.621956 -2.345208 0 
C -2.345208 0.621956 -2.098102 1.218523 -1.658312 1.658312 
C -1.218523 2.098102 -0.621956 2.345208 0 2.345208 
z
" id="m15e8ddf1dd" style="stroke:#32cd32;"/>
    </defs>
    <g clip-path="url(#p5ed6d8b3bd)">
     <use style="fill:#32cd32;stroke:#32cd32;" x="270.294848" xlink:href="#m15e8ddf1dd" y="561.890542"/>
     <use style="fill:#32cd32;stroke:#32cd32;" x="270.236665" xlink:href="#m15e8ddf1dd" y="561.895176"/>
    </g>
   </g>
   <g id="PathCollection_14">
    <defs>
     <path d="M 0 2.345208 
C 0.621956 2.345208 1.218523 2.098102 1.658312 1.658312 
C 2.098102 1.218523 2.345208 0.621956 2.345208 0 
C 2.345208 -0.621956 2.098102 -1.218523 1.658312 -1.658312 
C 1.218523 -2.098102 0.621956 -2.345208 0 -2.345208 
C -0.621956 -2.345208 -1.218523 -2.098102 -1.658312 -1.658312 
C -2.098102 -1.218523 -2.345208 -0.621956 -2.345208 0 
C -2.345208 0.621956 -2.098102 1.218523 -1.658312 1.658312 
C -1.218523 2.098102 -0.621956 2.345208 0 2.345208 
z
" id="m2fb5ad60bd" style="stroke:#800080;"/>
    </defs>
    <g clip-path="url(#p5ed6d8b3bd)">
     <use style="fill:#800080;stroke:#800080;" x="381.369871" xlink:href="#m2fb5ad60bd" y="356.273335"/>
     <use style="fill:#800080;stroke:#800080;" x="380.487513" xlink:href="#m2fb5ad60bd" y="357.066511"/>
    </g>
   </g>
   <g id="PathCollection_15">
    <defs>
     <path d="M 0 2.345208 
C 0.621956 2.345208 1.218523 2.098102 1.658312 1.658312 
C 2.098102 1.218523 2.345208 0.621956 2.345208 0 
C 2.345208 -0.621956 2.098102 -1.218523 1.658312 -1.658312 
C 1.218523 -2.098102 0.621956 -2.345208 0 -2.345208 
C -0.621956 -2.345208 -1.218523 -2.098102 -1.658312 -1.658312 
C -2.098102 -1.218523 -2.345208 -0.621956 -2.345208 0 
C -2.345208 0.621956 -2.098102 1.218523 -1.658312 1.658312 
C -1.218523 2.098102 -0.621956 2.345208 0 2.345208 
z
" id="mb7803aa332" style="stroke:#b03060;"/>
    </defs>
    <g clip-path="url(#p5ed6d8b3bd)">
     <use style="fill:#b03060;stroke:#b03060;" x="248.790101" xlink:href="#mb7803aa332" y="416.248088"/>
     <use style="fill:#b03060;stroke:#b03060;" x="246.287596" xlink:href="#mb7803aa332" y="418.919946"/>
     <use style="fill:#b03060;stroke:#b03060;" x="246.882527" xlink:href="#mb7803aa332" y="418.740066"/>
    </g>
   </g>
   <g id="PathCollection_16">
    <defs>
     <path d="M 0 2.345208 
C 0.621956 2.345208 1.218523 2.098102 1.658312 1.658312 
C 2.098102 1.218523 2.345208 0.621956 2.345208 0 
C 2.345208 -0.621956 2.098102 -1.218523 1.658312 -1.658312 
C 1.218523 -2.098102 0.621956 -2.345208 0 -2.345208 
C -0.621956 -2.345208 -1.218523 -2.098102 -1.658312 -1.658312 
C -2.098102 -1.218523 -2.345208 -0.621956 -2.345208 0 
C -2.345208 0.621956 -2.098102 1.218523 -1.658312 1.658312 
C -1.218523 2.098102 -0.621956 2.345208 0 2.345208 
z
" id="m712a576e34" style="stroke:#9932cc;"/>
    </defs>
    <g clip-path="url(#p5ed6d8b3bd)">
     <use style="fill:#9932cc;stroke:#9932cc;" x="275.730521" xlink:href="#m712a576e34" y="554.355784"/>
     <use style="fill:#9932cc;stroke:#9932cc;" x="276.862132" xlink:href="#m712a576e34" y="553.011686"/>
     <use style="fill:#9932cc;stroke:#9932cc;" x="277.617368" xlink:href="#m712a576e34" y="552.217801"/>
    </g>
   </g>
   <g id="PathCollection_17">
    <defs>
     <path d="M 0 2.345208 
C 0.621956 2.345208 1.218523 2.098102 1.658312 1.658312 
C 2.098102 1.218523 2.345208 0.621956 2.345208 0 
C 2.345208 -0.621956 2.098102 -1.218523 1.658312 -1.658312 
C 1.218523 -2.098102 0.621956 -2.345208 0 -2.345208 
C -0.621956 -2.345208 -1.218523 -2.098102 -1.658312 -1.658312 
C -2.098102 -1.218523 -2.345208 -0.621956 -2.345208 0 
C -2.345208 0.621956 -2.098102 1.218523 -1.658312 1.658312 
C -1.218523 2.098102 -0.621956 2.345208 0 2.345208 
z
" id="m55269acc32" style="stroke:#00ced1;"/>
    </defs>
    <g clip-path="url(#p5ed6d8b3bd)">
     <use style="fill:#00ced1;stroke:#00ced1;" x="104.221034" xlink:href="#m55269acc32" y="407.028054"/>
     <use style="fill:#00ced1;stroke:#00ced1;" x="103.457586" xlink:href="#m55269acc32" y="407.678154"/>
    </g>
   </g>
   <g id="PathCollection_18">
    <defs>
     <path d="M 0 2.345208 
C 0.621956 2.345208 1.218523 2.098102 1.658312 1.658312 
C 2.098102 1.218523 2.345208 0.621956 2.345208 0 
C 2.345208 -0.621956 2.098102 -1.218523 1.658312 -1.658312 
C 1.218523 -2.098102 0.621956 -2.345208 0 -2.345208 
C -0.621956 -2.345208 -1.218523 -2.098102 -1.658312 -1.658312 
C -2.098102 -1.218523 -2.345208 -0.621956 -2.345208 0 
C -2.345208 0.621956 -2.098102 1.218523 -1.658312 1.658312 
C -1.218523 2.098102 -0.621956 2.345208 0 2.345208 
z
" id="mf518ef1767" style="stroke:#ff8c00;"/>
    </defs>
    <g clip-path="url(#p5ed6d8b3bd)">
     <use style="fill:#ff8c00;stroke:#ff8c00;" x="448.135086" xlink:href="#mf518ef1767" y="362.876773"/>
     <use style="fill:#ff8c00;stroke:#ff8c00;" x="447.575235" xlink:href="#mf518ef1767" y="363.283943"/>
    </g>
   </g>
   <g id="matplotlib.axis_3">
    <g id="xtick_30">
     <g id="line2d_35">
      <g>
       <use style="stroke:#000000;stroke-width:0.8;" x="130.154729" xlink:href="#m6f8b32ca44" y="564.48"/>
      </g>
     </g>
     <g id="text_40">
      <!-- 10 -->
      <g transform="translate(119.602385 579.078437)scale(0.1 -0.1)">
       <defs>
        <path d="M 10.59375 35.5 
L 73.1875 35.5 
L 73.1875 27.203125 
L 10.59375 27.203125 
z
" id="DejaVuSans-8722"/>
       </defs>
       <use xlink:href="#DejaVuSans-8722"/>
       <use x="83.789062" xlink:href="#DejaVuSans-49"/>
       <use x="147.412109" xlink:href="#DejaVuSans-48"/>
      </g>
     </g>
    </g>
    <g id="xtick_31">
     <g id="line2d_36">
      <g>
       <use style="stroke:#000000;stroke-width:0.8;" x="201.526401" xlink:href="#m6f8b32ca44" y="564.48"/>
      </g>
     </g>
     <g id="text_41">
      <!-- 5 -->
      <g transform="translate(194.155307 579.078437)scale(0.1 -0.1)">
       <use xlink:href="#DejaVuSans-8722"/>
       <use x="83.789062" xlink:href="#DejaVuSans-53"/>
      </g>
     </g>
    </g>
    <g id="xtick_32">
     <g id="line2d_37">
      <g>
       <use style="stroke:#000000;stroke-width:0.8;" x="272.898074" xlink:href="#m6f8b32ca44" y="564.48"/>
      </g>
     </g>
     <g id="text_42">
      <!-- 0 -->
      <g transform="translate(269.716824 579.078437)scale(0.1 -0.1)">
       <use xlink:href="#DejaVuSans-48"/>
      </g>
     </g>
    </g>
    <g id="xtick_33">
     <g id="line2d_38">
      <g>
       <use style="stroke:#000000;stroke-width:0.8;" x="344.269746" xlink:href="#m6f8b32ca44" y="564.48"/>
      </g>
     </g>
     <g id="text_43">
      <!-- 5 -->
      <g transform="translate(341.088496 579.078437)scale(0.1 -0.1)">
       <use xlink:href="#DejaVuSans-53"/>
      </g>
     </g>
    </g>
    <g id="xtick_34">
     <g id="line2d_39">
      <g>
       <use style="stroke:#000000;stroke-width:0.8;" x="415.641419" xlink:href="#m6f8b32ca44" y="564.48"/>
      </g>
     </g>
     <g id="text_44">
      <!-- 10 -->
      <g transform="translate(409.278919 579.078437)scale(0.1 -0.1)">
       <use xlink:href="#DejaVuSans-49"/>
       <use x="63.623047" xlink:href="#DejaVuSans-48"/>
      </g>
     </g>
    </g>
    <g id="text_45">
     <!-- UMAP Dimension 1 -->
     <g transform="translate(210.955469 592.756562)scale(0.1 -0.1)">
      <defs>
       <path d="M 8.6875 72.90625 
L 18.609375 72.90625 
L 18.609375 28.609375 
Q 18.609375 16.890625 22.84375 11.734375 
Q 27.09375 6.59375 36.625 6.59375 
Q 46.09375 6.59375 50.34375 11.734375 
Q 54.59375 16.890625 54.59375 28.609375 
L 54.59375 72.90625 
L 64.5 72.90625 
L 64.5 27.390625 
Q 64.5 13.140625 57.4375 5.859375 
Q 50.390625 -1.421875 36.625 -1.421875 
Q 22.796875 -1.421875 15.734375 5.859375 
Q 8.6875 13.140625 8.6875 27.390625 
z
" id="DejaVuSans-85"/>
       <path d="M 9.8125 72.90625 
L 24.515625 72.90625 
L 43.109375 23.296875 
L 61.8125 72.90625 
L 76.515625 72.90625 
L 76.515625 0 
L 66.890625 0 
L 66.890625 64.015625 
L 48.09375 14.015625 
L 38.1875 14.015625 
L 19.390625 64.015625 
L 19.390625 0 
L 9.8125 0 
z
" id="DejaVuSans-77"/>
       <path d="M 34.1875 63.1875 
L 20.796875 26.90625 
L 47.609375 26.90625 
z
M 28.609375 72.90625 
L 39.796875 72.90625 
L 67.578125 0 
L 57.328125 0 
L 50.6875 18.703125 
L 17.828125 18.703125 
L 11.1875 0 
L 0.78125 0 
z
" id="DejaVuSans-65"/>
       <path d="M 19.671875 64.796875 
L 19.671875 37.40625 
L 32.078125 37.40625 
Q 38.96875 37.40625 42.71875 40.96875 
Q 46.484375 44.53125 46.484375 51.125 
Q 46.484375 57.671875 42.71875 61.234375 
Q 38.96875 64.796875 32.078125 64.796875 
z
M 9.8125 72.90625 
L 32.078125 72.90625 
Q 44.34375 72.90625 50.609375 67.359375 
Q 56.890625 61.8125 56.890625 51.125 
Q 56.890625 40.328125 50.609375 34.8125 
Q 44.34375 29.296875 32.078125 29.296875 
L 19.671875 29.296875 
L 19.671875 0 
L 9.8125 0 
z
" id="DejaVuSans-80"/>
       <path d="M 19.671875 64.796875 
L 19.671875 8.109375 
L 31.59375 8.109375 
Q 46.6875 8.109375 53.6875 14.9375 
Q 60.6875 21.78125 60.6875 36.53125 
Q 60.6875 51.171875 53.6875 57.984375 
Q 46.6875 64.796875 31.59375 64.796875 
z
M 9.8125 72.90625 
L 30.078125 72.90625 
Q 51.265625 72.90625 61.171875 64.09375 
Q 71.09375 55.28125 71.09375 36.53125 
Q 71.09375 17.671875 61.125 8.828125 
Q 51.171875 0 30.078125 0 
L 9.8125 0 
z
" id="DejaVuSans-68"/>
      </defs>
      <use xlink:href="#DejaVuSans-85"/>
      <use x="73.193359" xlink:href="#DejaVuSans-77"/>
      <use x="159.472656" xlink:href="#DejaVuSans-65"/>
      <use x="227.880859" xlink:href="#DejaVuSans-80"/>
      <use x="288.183594" xlink:href="#DejaVuSans-32"/>
      <use x="319.970703" xlink:href="#DejaVuSans-68"/>
      <use x="396.972656" xlink:href="#DejaVuSans-105"/>
      <use x="424.755859" xlink:href="#DejaVuSans-109"/>
      <use x="522.167969" xlink:href="#DejaVuSans-101"/>
      <use x="583.691406" xlink:href="#DejaVuSans-110"/>
      <use x="647.070312" xlink:href="#DejaVuSans-115"/>
      <use x="699.169922" xlink:href="#DejaVuSans-105"/>
      <use x="726.953125" xlink:href="#DejaVuSans-111"/>
      <use x="788.134766" xlink:href="#DejaVuSans-110"/>
      <use x="851.513672" xlink:href="#DejaVuSans-32"/>
      <use x="883.300781" xlink:href="#DejaVuSans-49"/>
     </g>
    </g>
   </g>
   <g id="matplotlib.axis_4">
    <g id="ytick_6">
     <g id="line2d_40">
      <g>
       <use style="stroke:#000000;stroke-width:0.8;" x="63" xlink:href="#me75b120784" y="560.66303"/>
      </g>
     </g>
     <g id="text_46">
      <!-- 8 -->
      <g transform="translate(41.257812 564.462249)scale(0.1 -0.1)">
       <use xlink:href="#DejaVuSans-8722"/>
       <use x="83.789062" xlink:href="#DejaVuSans-56"/>
      </g>
     </g>
    </g>
    <g id="ytick_7">
     <g id="line2d_41">
      <g>
       <use style="stroke:#000000;stroke-width:0.8;" x="63" xlink:href="#me75b120784" y="534.814791"/>
      </g>
     </g>
     <g id="text_47">
      <!-- 6 -->
      <g transform="translate(41.257812 538.61401)scale(0.1 -0.1)">
       <use xlink:href="#DejaVuSans-8722"/>
       <use x="83.789062" xlink:href="#DejaVuSans-54"/>
      </g>
     </g>
    </g>
    <g id="ytick_8">
     <g id="line2d_42">
      <g>
       <use style="stroke:#000000;stroke-width:0.8;" x="63" xlink:href="#me75b120784" y="508.966552"/>
      </g>
     </g>
     <g id="text_48">
      <!-- 4 -->
      <g transform="translate(41.257812 512.765771)scale(0.1 -0.1)">
       <use xlink:href="#DejaVuSans-8722"/>
       <use x="83.789062" xlink:href="#DejaVuSans-52"/>
      </g>
     </g>
    </g>
    <g id="ytick_9">
     <g id="line2d_43">
      <g>
       <use style="stroke:#000000;stroke-width:0.8;" x="63" xlink:href="#me75b120784" y="483.118313"/>
      </g>
     </g>
     <g id="text_49">
      <!-- 2 -->
      <g transform="translate(41.257812 486.917531)scale(0.1 -0.1)">
       <use xlink:href="#DejaVuSans-8722"/>
       <use x="83.789062" xlink:href="#DejaVuSans-50"/>
      </g>
     </g>
    </g>
    <g id="ytick_10">
     <g id="line2d_44">
      <g>
       <use style="stroke:#000000;stroke-width:0.8;" x="63" xlink:href="#me75b120784" y="457.270073"/>
      </g>
     </g>
     <g id="text_50">
      <!-- 0 -->
      <g transform="translate(49.6375 461.069292)scale(0.1 -0.1)">
       <use xlink:href="#DejaVuSans-48"/>
      </g>
     </g>
    </g>
    <g id="ytick_11">
     <g id="line2d_45">
      <g>
       <use style="stroke:#000000;stroke-width:0.8;" x="63" xlink:href="#me75b120784" y="431.421834"/>
      </g>
     </g>
     <g id="text_51">
      <!-- 2 -->
      <g transform="translate(49.6375 435.221053)scale(0.1 -0.1)">
       <use xlink:href="#DejaVuSans-50"/>
      </g>
     </g>
    </g>
    <g id="ytick_12">
     <g id="line2d_46">
      <g>
       <use style="stroke:#000000;stroke-width:0.8;" x="63" xlink:href="#me75b120784" y="405.573595"/>
      </g>
     </g>
     <g id="text_52">
      <!-- 4 -->
      <g transform="translate(49.6375 409.372814)scale(0.1 -0.1)">
       <use xlink:href="#DejaVuSans-52"/>
      </g>
     </g>
    </g>
    <g id="ytick_13">
     <g id="line2d_47">
      <g>
       <use style="stroke:#000000;stroke-width:0.8;" x="63" xlink:href="#me75b120784" y="379.725356"/>
      </g>
     </g>
     <g id="text_53">
      <!-- 6 -->
      <g transform="translate(49.6375 383.524574)scale(0.1 -0.1)">
       <use xlink:href="#DejaVuSans-54"/>
      </g>
     </g>
    </g>
    <g id="ytick_14">
     <g id="line2d_48">
      <g>
       <use style="stroke:#000000;stroke-width:0.8;" x="63" xlink:href="#me75b120784" y="353.877116"/>
      </g>
     </g>
     <g id="text_54">
      <!-- 8 -->
      <g transform="translate(49.6375 357.676335)scale(0.1 -0.1)">
       <use xlink:href="#DejaVuSans-56"/>
      </g>
     </g>
    </g>
    <g id="text_55">
     <!-- UMAP Dimension 2 -->
     <g transform="translate(35.178125 506.428787)rotate(-90)scale(0.1 -0.1)">
      <use xlink:href="#DejaVuSans-85"/>
      <use x="73.193359" xlink:href="#DejaVuSans-77"/>
      <use x="159.472656" xlink:href="#DejaVuSans-65"/>
      <use x="227.880859" xlink:href="#DejaVuSans-80"/>
      <use x="288.183594" xlink:href="#DejaVuSans-32"/>
      <use x="319.970703" xlink:href="#DejaVuSans-68"/>
      <use x="396.972656" xlink:href="#DejaVuSans-105"/>
      <use x="424.755859" xlink:href="#DejaVuSans-109"/>
      <use x="522.167969" xlink:href="#DejaVuSans-101"/>
      <use x="583.691406" xlink:href="#DejaVuSans-110"/>
      <use x="647.070312" xlink:href="#DejaVuSans-115"/>
      <use x="699.169922" xlink:href="#DejaVuSans-105"/>
      <use x="726.953125" xlink:href="#DejaVuSans-111"/>
      <use x="788.134766" xlink:href="#DejaVuSans-110"/>
      <use x="851.513672" xlink:href="#DejaVuSans-32"/>
      <use x="883.300781" xlink:href="#DejaVuSans-50"/>
     </g>
    </g>
   </g>
   <g id="patch_39">
    <path d="M 63 564.48 
L 63 353.688511 
" style="fill:none;stroke:#000000;stroke-linecap:square;stroke-linejoin:miter;stroke-width:0.8;"/>
   </g>
   <g id="patch_40">
    <path d="M 453.6 564.48 
L 453.6 353.688511 
" style="fill:none;stroke:#000000;stroke-linecap:square;stroke-linejoin:miter;stroke-width:0.8;"/>
   </g>
   <g id="patch_41">
    <path d="M 63 564.48 
L 453.6 564.48 
" style="fill:none;stroke:#000000;stroke-linecap:square;stroke-linejoin:miter;stroke-width:0.8;"/>
   </g>
   <g id="patch_42">
    <path d="M 63 353.688511 
L 453.6 353.688511 
" style="fill:none;stroke:#000000;stroke-linecap:square;stroke-linejoin:miter;stroke-width:0.8;"/>
   </g>
   <g id="text_56">
    <!-- 0 -->
    <g style="fill:#2f4f4f;" transform="translate(97.818405 409.800414)scale(0.1 -0.1)">
     <use xlink:href="#DejaVuSans-48"/>
    </g>
   </g>
   <g id="text_57">
    <!-- 1 -->
    <g style="fill:#556b2f;" transform="translate(239.162303 410.936706)scale(0.1 -0.1)">
     <use xlink:href="#DejaVuSans-49"/>
    </g>
   </g>
   <g id="text_58">
    <!-- 2 -->
    <g style="fill:#8b4513;" transform="translate(450.260955 367.086359)scale(0.1 -0.1)">
     <use xlink:href="#DejaVuSans-50"/>
    </g>
   </g>
   <g id="text_59">
    <!-- 3 -->
    <g style="fill:#2e8b57;" transform="translate(272.05902 554.002519)scale(0.1 -0.1)">
     <use xlink:href="#DejaVuSans-51"/>
    </g>
   </g>
   <g id="text_60">
    <!-- 4 -->
    <g style="fill:#228b22;" transform="translate(66.605539 541.222632)scale(0.1 -0.1)">
     <use xlink:href="#DejaVuSans-52"/>
    </g>
   </g>
   <g id="text_61">
    <!-- 5 -->
    <g style="fill:#708090;" transform="translate(375.847915 361.197819)scale(0.1 -0.1)">
     <use xlink:href="#DejaVuSans-53"/>
    </g>
   </g>
   <g id="text_62">
    <!-- 6 -->
    <g style="fill:#8b0000;" transform="translate(317.656457 359.486092)scale(0.1 -0.1)">
     <use xlink:href="#DejaVuSans-54"/>
    </g>
   </g>
   <g id="text_63">
    <!-- 7 -->
    <g style="fill:#808000;" transform="translate(238.546875 453.336976)scale(0.1 -0.1)">
     <use xlink:href="#DejaVuSans-55"/>
    </g>
   </g>
   <g id="text_64">
    <!-- 8 -->
    <g style="fill:#483d8b;" transform="translate(252.885254 417.915011)scale(0.1 -0.1)">
     <use xlink:href="#DejaVuSans-56"/>
    </g>
   </g>
   <g id="text_65">
    <!-- 9 -->
    <g style="fill:#008080;" transform="translate(449.708162 373.474757)scale(0.1 -0.1)">
     <use xlink:href="#DejaVuSans-57"/>
    </g>
   </g>
   <g id="text_66">
    <!-- 10 -->
    <g style="fill:#4682b4;" transform="translate(101.437375 413.864344)scale(0.1 -0.1)">
     <use xlink:href="#DejaVuSans-49"/>
     <use x="63.623047" xlink:href="#DejaVuSans-48"/>
    </g>
   </g>
   <g id="text_67">
    <!-- 11 -->
    <g style="fill:#d2691e;" transform="translate(230.346542 453.386482)scale(0.1 -0.1)">
     <use xlink:href="#DejaVuSans-49"/>
     <use x="63.623047" xlink:href="#DejaVuSans-49"/>
    </g>
   </g>
   <g id="text_68">
    <!-- 12 -->
    <g style="fill:#32cd32;" transform="translate(270.265757 561.892859)scale(0.1 -0.1)">
     <use xlink:href="#DejaVuSans-49"/>
     <use x="63.623047" xlink:href="#DejaVuSans-50"/>
    </g>
   </g>
   <g id="text_69">
    <!-- 13 -->
    <g style="fill:#800080;" transform="translate(380.928692 356.669923)scale(0.1 -0.1)">
     <use xlink:href="#DejaVuSans-49"/>
     <use x="63.623047" xlink:href="#DejaVuSans-51"/>
    </g>
   </g>
   <g id="text_70">
    <!-- 14 -->
    <g style="fill:#b03060;" transform="translate(247.320075 417.969367)scale(0.1 -0.1)">
     <use xlink:href="#DejaVuSans-49"/>
     <use x="63.623047" xlink:href="#DejaVuSans-52"/>
    </g>
   </g>
   <g id="text_71">
    <!-- 15 -->
    <g style="fill:#9932cc;" transform="translate(276.736674 553.195091)scale(0.1 -0.1)">
     <use xlink:href="#DejaVuSans-49"/>
     <use x="63.623047" xlink:href="#DejaVuSans-53"/>
    </g>
   </g>
   <g id="text_72">
    <!-- 16 -->
    <g style="fill:#00ced1;" transform="translate(103.83931 407.353104)scale(0.1 -0.1)">
     <use xlink:href="#DejaVuSans-49"/>
     <use x="63.623047" xlink:href="#DejaVuSans-54"/>
    </g>
   </g>
   <g id="text_73">
    <!-- 17 -->
    <g style="fill:#ff8c00;" transform="translate(447.855156 363.080361)scale(0.1 -0.1)">
     <use xlink:href="#DejaVuSans-49"/>
     <use x="63.623047" xlink:href="#DejaVuSans-55"/>
    </g>
   </g>
   <g id="text_74">
    <!-- Selected GMM: full model, 18 Gaussian components -->
    <g transform="translate(101.753438 347.688511)scale(0.12 -0.12)">
     <defs>
      <path d="M 53.515625 70.515625 
L 53.515625 60.890625 
Q 47.90625 63.578125 42.921875 64.890625 
Q 37.9375 66.21875 33.296875 66.21875 
Q 25.25 66.21875 20.875 63.09375 
Q 16.5 59.96875 16.5 54.203125 
Q 16.5 49.359375 19.40625 46.890625 
Q 22.3125 44.4375 30.421875 42.921875 
L 36.375 41.703125 
Q 47.40625 39.59375 52.65625 34.296875 
Q 57.90625 29 57.90625 20.125 
Q 57.90625 9.515625 50.796875 4.046875 
Q 43.703125 -1.421875 29.984375 -1.421875 
Q 24.8125 -1.421875 18.96875 -0.25 
Q 13.140625 0.921875 6.890625 3.21875 
L 6.890625 13.375 
Q 12.890625 10.015625 18.65625 8.296875 
Q 24.421875 6.59375 29.984375 6.59375 
Q 38.421875 6.59375 43.015625 9.90625 
Q 47.609375 13.234375 47.609375 19.390625 
Q 47.609375 24.75 44.3125 27.78125 
Q 41.015625 30.8125 33.5 32.328125 
L 27.484375 33.5 
Q 16.453125 35.6875 11.515625 40.375 
Q 6.59375 45.0625 6.59375 53.421875 
Q 6.59375 63.09375 13.40625 68.65625 
Q 20.21875 74.21875 32.171875 74.21875 
Q 37.3125 74.21875 42.625 73.28125 
Q 47.953125 72.359375 53.515625 70.515625 
z
" id="DejaVuSans-83"/>
      <path d="M 11.71875 12.40625 
L 22.015625 12.40625 
L 22.015625 0 
L 11.71875 0 
z
M 11.71875 51.703125 
L 22.015625 51.703125 
L 22.015625 39.3125 
L 11.71875 39.3125 
z
" id="DejaVuSans-58"/>
      <path d="M 11.71875 12.40625 
L 22.015625 12.40625 
L 22.015625 4 
L 14.015625 -11.625 
L 7.71875 -11.625 
L 11.71875 4 
z
" id="DejaVuSans-44"/>
     </defs>
     <use xlink:href="#DejaVuSans-83"/>
     <use x="63.476562" xlink:href="#DejaVuSans-101"/>
     <use x="125" xlink:href="#DejaVuSans-108"/>
     <use x="152.783203" xlink:href="#DejaVuSans-101"/>
     <use x="214.306641" xlink:href="#DejaVuSans-99"/>
     <use x="269.287109" xlink:href="#DejaVuSans-116"/>
     <use x="308.496094" xlink:href="#DejaVuSans-101"/>
     <use x="370.019531" xlink:href="#DejaVuSans-100"/>
     <use x="433.496094" xlink:href="#DejaVuSans-32"/>
     <use x="465.283203" xlink:href="#DejaVuSans-71"/>
     <use x="542.773438" xlink:href="#DejaVuSans-77"/>
     <use x="629.052734" xlink:href="#DejaVuSans-77"/>
     <use x="715.332031" xlink:href="#DejaVuSans-58"/>
     <use x="749.023438" xlink:href="#DejaVuSans-32"/>
     <use x="780.810547" xlink:href="#DejaVuSans-102"/>
     <use x="816.015625" xlink:href="#DejaVuSans-117"/>
     <use x="879.394531" xlink:href="#DejaVuSans-108"/>
     <use x="907.177734" xlink:href="#DejaVuSans-108"/>
     <use x="934.960938" xlink:href="#DejaVuSans-32"/>
     <use x="966.748047" xlink:href="#DejaVuSans-109"/>
     <use x="1064.160156" xlink:href="#DejaVuSans-111"/>
     <use x="1125.341797" xlink:href="#DejaVuSans-100"/>
     <use x="1188.818359" xlink:href="#DejaVuSans-101"/>
     <use x="1250.341797" xlink:href="#DejaVuSans-108"/>
     <use x="1278.125" xlink:href="#DejaVuSans-44"/>
     <use x="1309.912109" xlink:href="#DejaVuSans-32"/>
     <use x="1341.699219" xlink:href="#DejaVuSans-49"/>
     <use x="1405.322266" xlink:href="#DejaVuSans-56"/>
     <use x="1468.945312" xlink:href="#DejaVuSans-32"/>
     <use x="1500.732422" xlink:href="#DejaVuSans-71"/>
     <use x="1578.222656" xlink:href="#DejaVuSans-97"/>
     <use x="1639.501953" xlink:href="#DejaVuSans-117"/>
     <use x="1702.880859" xlink:href="#DejaVuSans-115"/>
     <use x="1754.980469" xlink:href="#DejaVuSans-115"/>
     <use x="1807.080078" xlink:href="#DejaVuSans-105"/>
     <use x="1834.863281" xlink:href="#DejaVuSans-97"/>
     <use x="1896.142578" xlink:href="#DejaVuSans-110"/>
     <use x="1959.521484" xlink:href="#DejaVuSans-32"/>
     <use x="1991.308594" xlink:href="#DejaVuSans-99"/>
     <use x="2046.289062" xlink:href="#DejaVuSans-111"/>
     <use x="2107.470703" xlink:href="#DejaVuSans-109"/>
     <use x="2204.882812" xlink:href="#DejaVuSans-112"/>
     <use x="2268.359375" xlink:href="#DejaVuSans-111"/>
     <use x="2329.541016" xlink:href="#DejaVuSans-110"/>
     <use x="2392.919922" xlink:href="#DejaVuSans-101"/>
     <use x="2454.443359" xlink:href="#DejaVuSans-110"/>
     <use x="2517.822266" xlink:href="#DejaVuSans-116"/>
     <use x="2557.03125" xlink:href="#DejaVuSans-115"/>
    </g>
   </g>
  </g>
 </g>
 <defs>
  <clipPath id="p7337eeea03">
   <rect height="210.791489" width="390.6" x="63" y="69.12"/>
  </clipPath>
  <clipPath id="p5ed6d8b3bd">
   <rect height="210.791489" width="390.6" x="63" y="353.688511"/>
  </clipPath>
 </defs>
</svg>
