<?xml version="1.0" encoding="utf-8" standalone="no"?>
<!DOCTYPE svg PUBLIC "-//W3C//DTD SVG 1.1//EN"
  "http://www.w3.org/Graphics/SVG/1.1/DTD/svg11.dtd">
<!-- Created with matplotlib (https://matplotlib.org/) -->
<svg height="648pt" version="1.1" viewBox="0 0 504 648" width="504pt" xmlns="http://www.w3.org/2000/svg" xmlns:xlink="http://www.w3.org/1999/xlink">
 <metadata>
  <rdf:RDF xmlns:cc="http://creativecommons.org/ns#" xmlns:dc="http://purl.org/dc/elements/1.1/" xmlns:rdf="http://www.w3.org/1999/02/22-rdf-syntax-ns#">
   <cc:Work>
    <dc:type rdf:resource="http://purl.org/dc/dcmitype/StillImage"/>
    <dc:date>2023-06-02T19:17:09.825435</dc:date>
    <dc:format>image/svg+xml</dc:format>
    <dc:creator>
     <cc:Agent>
      <dc:title>Matplotlib v3.3.4, https://matplotlib.org/</dc:title>
     </cc:Agent>
    </dc:creator>
   </cc:Work>
  </rdf:RDF>
 </metadata>
 <defs>
  <style type="text/css">*{stroke-linecap:butt;stroke-linejoin:round;}</style>
 </defs>
 <g id="figure_1">
  <g id="patch_1">
   <path d="M 0 648 
L 504 648 
L 504 0 
L 0 0 
z
" style="fill:#ffffff;"/>
  </g>
  <g id="axes_1">
   <g id="patch_2">
    <path d="M 63 576.72 
L 453.6 576.72 
L 453.6 77.76 
L 63 77.76 
z
" style="fill:#ffffff;"/>
   </g>
   <g id="PathCollection_1">
    <path clip-path="url(#p2c5eddaeba)" d="M 240.352374 262.712534 
C 243.860682 262.712534 247.22577 261.318669 249.706518 258.837921 
C 252.187266 256.357173 253.581131 252.992085 253.581131 249.483777 
C 253.581131 245.97547 252.187266 242.610382 249.706518 240.129634 
C 247.22577 237.648886 243.860682 236.255021 240.352374 236.255021 
C 236.844067 236.255021 233.478979 237.648886 230.998231 240.129634 
C 228.517483 242.610382 227.123618 245.97547 227.123618 249.483777 
C 227.123618 252.992085 228.517483 256.357173 230.998231 258.837921 
C 233.478979 261.318669 236.844067 262.712534 240.352374 262.712534 
z
" style="fill:#2f4f4f;stroke:#2f4f4f;"/>
    <path clip-path="url(#p2c5eddaeba)" d="M 209.210921 280.104538 
C 211.307535 280.104538 213.31856 279.271544 214.801091 277.789013 
C 216.283621 276.306483 217.116615 274.295458 217.116615 272.198843 
C 217.116615 270.102229 216.283621 268.091204 214.801091 266.608673 
C 213.31856 265.126143 211.307535 264.293149 209.210921 264.293149 
C 207.114306 264.293149 205.103281 265.126143 203.620751 266.608673 
C 202.13822 268.091204 201.305226 270.102229 201.305226 272.198843 
C 201.305226 274.295458 202.13822 276.306483 203.620751 277.789013 
C 205.103281 279.271544 207.114306 280.104538 209.210921 280.104538 
z
" style="fill:#556b2f;stroke:#556b2f;"/>
    <path clip-path="url(#p2c5eddaeba)" d="M 236.120257 311.043256 
C 239.230039 311.043256 242.212871 309.807727 244.411819 307.608779 
C 246.610767 305.409831 247.846297 302.426999 247.846297 299.317217 
C 247.846297 296.207435 246.610767 293.224603 244.411819 291.025655 
C 242.212871 288.826707 239.230039 287.591177 236.120257 287.591177 
C 233.010475 287.591177 230.027643 288.826707 227.828695 291.025655 
C 225.629748 293.224603 224.394218 296.207435 224.394218 299.317217 
C 224.394218 302.426999 225.629748 305.409831 227.828695 307.608779 
C 230.027643 309.807727 233.010475 311.043256 236.120257 311.043256 
z
" style="fill:#8b4513;stroke:#8b4513;"/>
    <path clip-path="url(#p2c5eddaeba)" d="M 252.273526 325.307628 
C 253.897556 325.307628 255.45529 324.662394 256.603653 323.514031 
C 257.752016 322.365668 258.39725 320.807935 258.39725 319.183904 
C 258.39725 317.559873 257.752016 316.00214 256.603653 314.853777 
C 255.45529 313.705414 253.897556 313.06018 252.273526 313.06018 
C 250.649495 313.06018 249.091762 313.705414 247.943399 314.853777 
C 246.795036 316.00214 246.149801 317.559873 246.149801 319.183904 
C 246.149801 320.807935 246.795036 322.365668 247.943399 323.514031 
C 249.091762 324.662394 250.649495 325.307628 252.273526 325.307628 
z
" style="fill:#2e8b57;stroke:#2e8b57;"/>
    <path clip-path="url(#p2c5eddaeba)" d="M 225.206669 311.833606 
C 226.532684 311.833606 227.804568 311.306775 228.742203 310.36914 
C 229.679837 309.431506 230.206669 308.159622 230.206669 306.833606 
C 230.206669 305.507591 229.679837 304.235707 228.742203 303.298072 
C 227.804568 302.360438 226.532684 301.833606 225.206669 301.833606 
C 223.880653 301.833606 222.608769 302.360438 221.671135 303.298072 
C 220.7335 304.235707 220.206669 305.507591 220.206669 306.833606 
C 220.206669 308.159622 220.7335 309.431506 221.671135 310.36914 
C 222.608769 311.306775 223.880653 311.833606 225.206669 311.833606 
z
" style="fill:#228b22;stroke:#228b22;"/>
    <path clip-path="url(#p2c5eddaeba)" d="M 263.561232 370.38004 
C 264.887248 370.38004 266.159131 369.853208 267.096766 368.915574 
C 268.034401 367.977939 268.561232 366.706055 268.561232 365.38004 
C 268.561232 364.054024 268.034401 362.78214 267.096766 361.844506 
C 266.159131 360.906871 264.887248 360.38004 263.561232 360.38004 
C 262.235217 360.38004 260.963333 360.906871 260.025698 361.844506 
C 259.088064 362.78214 258.561232 364.054024 258.561232 365.38004 
C 258.561232 366.706055 259.088064 367.977939 260.025698 368.915574 
C 260.963333 369.853208 262.235217 370.38004 263.561232 370.38004 
z
" style="fill:#708090;stroke:#708090;"/>
    <path clip-path="url(#p2c5eddaeba)" d="M 239.137772 312.537118 
C 240.463787 312.537118 241.735671 312.010286 242.673306 311.072652 
C 243.61094 310.135017 244.137772 308.863133 244.137772 307.537118 
C 244.137772 306.211102 243.61094 304.939218 242.673306 304.001584 
C 241.735671 303.063949 240.463787 302.537118 239.137772 302.537118 
C 237.811756 302.537118 236.539872 303.063949 235.602238 304.001584 
C 234.664603 304.939218 234.137772 306.211102 234.137772 307.537118 
C 234.137772 308.863133 234.664603 310.135017 235.602238 311.072652 
C 236.539872 312.010286 237.811756 312.537118 239.137772 312.537118 
z
" style="fill:#8b0000;stroke:#8b0000;"/>
    <path clip-path="url(#p2c5eddaeba)" d="M 257.448702 310.803383 
C 259.072733 310.803383 260.630466 310.158149 261.778829 309.009786 
C 262.927192 307.861423 263.572426 306.303689 263.572426 304.679659 
C 263.572426 303.055628 262.927192 301.497895 261.778829 300.349532 
C 260.630466 299.201169 259.072733 298.555934 257.448702 298.555934 
C 255.824671 298.555934 254.266938 299.201169 253.118575 300.349532 
C 251.970212 301.497895 251.324978 303.055628 251.324978 304.679659 
C 251.324978 306.303689 251.970212 307.861423 253.118575 309.009786 
C 254.266938 310.158149 255.824671 310.803383 257.448702 310.803383 
z
" style="fill:#808000;stroke:#808000;"/>
    <path clip-path="url(#p2c5eddaeba)" d="M 257.543652 261.955999 
C 259.840378 261.955999 262.043345 261.0435 263.667376 259.419469 
C 265.291407 257.795439 266.203906 255.592471 266.203906 253.295745 
C 266.203906 250.999019 265.291407 248.796051 263.667376 247.172021 
C 262.043345 245.54799 259.840378 244.635491 257.543652 244.635491 
C 255.246926 244.635491 253.043958 245.54799 251.419927 247.172021 
C 249.795897 248.796051 248.883398 250.999019 248.883398 253.295745 
C 248.883398 255.592471 249.795897 257.795439 251.419927 259.419469 
C 253.043958 261.0435 255.246926 261.955999 257.543652 261.955999 
z
" style="fill:#483d8b;stroke:#483d8b;"/>
    <path clip-path="url(#p2c5eddaeba)" d="M 278.07517 335.301713 
C 280.371897 335.301713 282.574864 334.389214 284.198895 332.765183 
C 285.822925 331.141152 286.735424 328.938185 286.735424 326.641459 
C 286.735424 324.344732 285.822925 322.141765 284.198895 320.517734 
C 282.574864 318.893704 280.371897 317.981205 278.07517 317.981205 
C 275.778444 317.981205 273.575477 318.893704 271.951446 320.517734 
C 270.327415 322.141765 269.414916 324.344732 269.414916 326.641459 
C 269.414916 328.938185 270.327415 331.141152 271.951446 332.765183 
C 273.575477 334.389214 275.778444 335.301713 278.07517 335.301713 
z
" style="fill:#008080;stroke:#008080;"/>
    <path clip-path="url(#p2c5eddaeba)" d="M 230.26059 270.768294 
C 233.641279 270.768294 236.883959 269.425132 239.274468 267.034623 
C 241.664976 264.644115 243.008139 261.401435 243.008139 258.020745 
C 243.008139 254.640056 241.664976 251.397375 239.274468 249.006867 
C 236.883959 246.616359 233.641279 245.273196 230.26059 245.273196 
C 226.8799 245.273196 223.63722 246.616359 221.246712 249.006867 
C 218.856203 251.397375 217.513041 254.640056 217.513041 258.020745 
C 217.513041 261.401435 218.856203 264.644115 221.246712 267.034623 
C 223.63722 269.425132 226.8799 270.768294 230.26059 270.768294 
z
" style="fill:#b8860b;stroke:#b8860b;"/>
    <path clip-path="url(#p2c5eddaeba)" d="M 234.548672 256.998285 
C 237.02942 256.998285 239.408896 256.012674 241.16305 254.25852 
C 242.917204 252.504367 243.902815 250.12489 243.902815 247.644142 
C 243.902815 245.163394 242.917204 242.783917 241.16305 241.029764 
C 239.408896 239.27561 237.02942 238.289999 234.548672 238.289999 
C 232.067924 238.289999 229.688447 239.27561 227.934294 241.029764 
C 226.18014 242.783917 225.194528 245.163394 225.194528 247.644142 
C 225.194528 250.12489 226.18014 252.504367 227.934294 254.25852 
C 229.688447 256.012674 232.067924 256.998285 234.548672 256.998285 
z
" style="fill:#4682b4;stroke:#4682b4;"/>
    <path clip-path="url(#p2c5eddaeba)" d="M 277.383544 289.435884 
C 279.258813 289.435884 281.057528 288.690831 282.383544 287.364816 
C 283.709559 286.0388 284.454612 284.240085 284.454612 282.364816 
C 284.454612 280.489547 283.709559 278.690831 282.383544 277.364816 
C 281.057528 276.0388 279.258813 275.293748 277.383544 275.293748 
C 275.508275 275.293748 273.709559 276.0388 272.383544 277.364816 
C 271.057528 278.690831 270.312476 280.489547 270.312476 282.364816 
C 270.312476 284.240085 271.057528 286.0388 272.383544 287.364816 
C 273.709559 288.690831 275.508275 289.435884 277.383544 289.435884 
z
" style="fill:#d2691e;stroke:#d2691e;"/>
    <path clip-path="url(#p2c5eddaeba)" d="M 247.653106 315.038112 
C 250.133854 315.038112 252.513331 314.0525 254.267484 312.298347 
C 256.021638 310.544193 257.00725 308.164716 257.00725 305.683969 
C 257.00725 303.203221 256.021638 300.823744 254.267484 299.06959 
C 252.513331 297.315437 250.133854 296.329825 247.653106 296.329825 
C 245.172358 296.329825 242.792882 297.315437 241.038728 299.06959 
C 239.284574 300.823744 238.298963 303.203221 238.298963 305.683969 
C 238.298963 308.164716 239.284574 310.544193 241.038728 312.298347 
C 242.792882 314.0525 245.172358 315.038112 247.653106 315.038112 
z
" style="fill:#9acd32;stroke:#9acd32;"/>
    <path clip-path="url(#p2c5eddaeba)" d="M 277.424218 327.088116 
C 278.750233 327.088116 280.022117 326.561284 280.959752 325.62365 
C 281.897386 324.686015 282.424218 323.414131 282.424218 322.088116 
C 282.424218 320.7621 281.897386 319.490216 280.959752 318.552582 
C 280.022117 317.614947 278.750233 317.088116 277.424218 317.088116 
C 276.098202 317.088116 274.826319 317.614947 273.888684 318.552582 
C 272.951049 319.490216 272.424218 320.7621 272.424218 322.088116 
C 272.424218 323.414131 272.951049 324.686015 273.888684 325.62365 
C 274.826319 326.561284 276.098202 327.088116 277.424218 327.088116 
z
" style="fill:#32cd32;stroke:#32cd32;"/>
    <path clip-path="url(#p2c5eddaeba)" d="M 226.163896 284.439073 
C 228.644644 284.439073 231.024121 283.453461 232.778274 281.699307 
C 234.532428 279.945154 235.518039 277.565677 235.518039 275.084929 
C 235.518039 272.604181 234.532428 270.224704 232.778274 268.470551 
C 231.024121 266.716397 228.644644 265.730786 226.163896 265.730786 
C 223.683148 265.730786 221.303671 266.716397 219.549518 268.470551 
C 217.795364 270.224704 216.809753 272.604181 216.809753 275.084929 
C 216.809753 277.565677 217.795364 279.945154 219.549518 281.699307 
C 221.303671 283.453461 223.683148 284.439073 226.163896 284.439073 
z
" style="fill:#8fbc8f;stroke:#8fbc8f;"/>
    <path clip-path="url(#p2c5eddaeba)" d="M 258.616245 243.730887 
C 261.268276 243.730887 263.812043 242.677224 265.687312 240.801955 
C 267.562582 238.926685 268.616245 236.382918 268.616245 233.730887 
C 268.616245 231.078856 267.562582 228.535088 265.687312 226.659819 
C 263.812043 224.78455 261.268276 223.730887 258.616245 223.730887 
C 255.964214 223.730887 253.420446 224.78455 251.545177 226.659819 
C 249.669908 228.535088 248.616245 231.078856 248.616245 233.730887 
C 248.616245 236.382918 249.669908 238.926685 251.545177 240.801955 
C 253.420446 242.677224 255.964214 243.730887 258.616245 243.730887 
z
" style="fill:#800080;stroke:#800080;"/>
    <path clip-path="url(#p2c5eddaeba)" d="M 268.141778 312.043056 
C 270.238393 312.043056 272.249418 311.210062 273.731948 309.727531 
C 275.214479 308.245001 276.047473 306.233976 276.047473 304.137362 
C 276.047473 302.040747 275.214479 300.029722 273.731948 298.547192 
C 272.249418 297.064661 270.238393 296.231667 268.141778 296.231667 
C 266.045164 296.231667 264.034139 297.064661 262.551608 298.547192 
C 261.069078 300.029722 260.236084 302.040747 260.236084 304.137362 
C 260.236084 306.233976 261.069078 308.245001 262.551608 309.727531 
C 264.034139 311.210062 266.045164 312.043056 268.141778 312.043056 
z
" style="fill:#b03060;stroke:#b03060;"/>
    <path clip-path="url(#p2c5eddaeba)" d="M 265.739407 260.992613 
C 267.614676 260.992613 269.413392 260.24756 270.739407 258.921545 
C 272.065423 257.595529 272.810475 255.796814 272.810475 253.921545 
C 272.810475 252.046276 272.065423 250.24756 270.739407 248.921545 
C 269.413392 247.595529 267.614676 246.850477 265.739407 246.850477 
C 263.864138 246.850477 262.065423 247.595529 260.739407 248.921545 
C 259.413392 250.24756 258.668339 252.046276 258.668339 253.921545 
C 258.668339 255.796814 259.413392 257.595529 260.739407 258.921545 
C 262.065423 260.24756 263.864138 260.992613 265.739407 260.992613 
z
" style="fill:#9932cc;stroke:#9932cc;"/>
    <path clip-path="url(#p2c5eddaeba)" d="M 230.233637 344.672178 
C 231.559652 344.672178 232.831536 344.145347 233.769171 343.207712 
C 234.706805 342.270077 235.233637 340.998194 235.233637 339.672178 
C 235.233637 338.346163 234.706805 337.074279 233.769171 336.136644 
C 232.831536 335.19901 231.559652 334.672178 230.233637 334.672178 
C 228.907621 334.672178 227.635737 335.19901 226.698103 336.136644 
C 225.760468 337.074279 225.233637 338.346163 225.233637 339.672178 
C 225.233637 340.998194 225.760468 342.270077 226.698103 343.207712 
C 227.635737 344.145347 228.907621 344.672178 230.233637 344.672178 
z
" style="fill:#ff4500;stroke:#ff4500;"/>
    <path clip-path="url(#p2c5eddaeba)" d="M 290.665391 268.397288 
C 292.289422 268.397288 293.847155 267.752054 294.995518 266.60369 
C 296.143881 265.455327 296.789115 263.897594 296.789115 262.273563 
C 296.789115 260.649533 296.143881 259.0918 294.995518 257.943436 
C 293.847155 256.795073 292.289422 256.149839 290.665391 256.149839 
C 289.04136 256.149839 287.483627 256.795073 286.335264 257.943436 
C 285.186901 259.0918 284.541667 260.649533 284.541667 262.273563 
C 284.541667 263.897594 285.186901 265.455327 286.335264 266.60369 
C 287.483627 267.752054 289.04136 268.397288 290.665391 268.397288 
z
" style="fill:#00ced1;stroke:#00ced1;"/>
    <path clip-path="url(#p2c5eddaeba)" d="M 268.800748 247.777169 
C 271.097474 247.777169 273.300441 246.86467 274.924472 245.24064 
C 276.548503 243.616609 277.461002 241.413642 277.461002 239.116915 
C 277.461002 236.820189 276.548503 234.617222 274.924472 232.993191 
C 273.300441 231.36916 271.097474 230.456661 268.800748 230.456661 
C 266.504021 230.456661 264.301054 231.36916 262.677023 232.993191 
C 261.052993 234.617222 260.140494 236.820189 260.140494 239.116915 
C 260.140494 241.413642 261.052993 243.616609 262.677023 245.24064 
C 264.301054 246.86467 266.504021 247.777169 268.800748 247.777169 
z
" style="fill:#ff8c00;stroke:#ff8c00;"/>
    <path clip-path="url(#p2c5eddaeba)" d="M 263.686504 242.079154 
C 265.310535 242.079154 266.868268 241.43392 268.016631 240.285557 
C 269.164995 239.137194 269.810229 237.57946 269.810229 235.95543 
C 269.810229 234.331399 269.164995 232.773666 268.016631 231.625303 
C 266.868268 230.47694 265.310535 229.831705 263.686504 229.831705 
C 262.062474 229.831705 260.504741 230.47694 259.356377 231.625303 
C 258.208014 232.773666 257.56278 234.331399 257.56278 235.95543 
C 257.56278 237.57946 258.208014 239.137194 259.356377 240.285557 
C 260.504741 241.43392 262.062474 242.079154 263.686504 242.079154 
z
" style="fill:#ffd700;stroke:#ffd700;"/>
    <path clip-path="url(#p2c5eddaeba)" d="M 238.282857 279.373551 
C 240.158126 279.373551 241.956841 278.628498 243.282857 277.302483 
C 244.608872 275.976467 245.353925 274.177752 245.353925 272.302483 
C 245.353925 270.427214 244.608872 268.628498 243.282857 267.302483 
C 241.956841 265.976467 240.158126 265.231415 238.282857 265.231415 
C 236.407588 265.231415 234.608872 265.976467 233.282857 267.302483 
C 231.956841 268.628498 231.211789 270.427214 231.211789 272.302483 
C 231.211789 274.177752 231.956841 275.976467 233.282857 277.302483 
C 234.608872 278.628498 236.407588 279.373551 238.282857 279.373551 
z
" style="fill:#0000cd;stroke:#0000cd;"/>
    <path clip-path="url(#p2c5eddaeba)" d="M 250.898071 309.237662 
C 252.994686 309.237662 255.005711 308.404668 256.488241 306.922137 
C 257.970771 305.439607 258.803765 303.428582 258.803765 301.331968 
C 258.803765 299.235353 257.970771 297.224328 256.488241 295.741798 
C 255.005711 294.259267 252.994686 293.426273 250.898071 293.426273 
C 248.801456 293.426273 246.790432 294.259267 245.307901 295.741798 
C 243.825371 297.224328 242.992377 299.235353 242.992377 301.331968 
C 242.992377 303.428582 243.825371 305.439607 245.307901 306.922137 
C 246.790432 308.404668 248.801456 309.237662 250.898071 309.237662 
z
" style="fill:#deb887;stroke:#deb887;"/>
    <path clip-path="url(#p2c5eddaeba)" d="M 267.156592 277.310282 
C 269.031861 277.310282 270.830576 276.56523 272.156592 275.239215 
C 273.482607 273.913199 274.22766 272.114484 274.22766 270.239215 
C 274.22766 268.363945 273.482607 266.56523 272.156592 265.239215 
C 270.830576 263.913199 269.031861 263.168147 267.156592 263.168147 
C 265.281323 263.168147 263.482607 263.913199 262.156592 265.239215 
C 260.830576 266.56523 260.085524 268.363945 260.085524 270.239215 
C 260.085524 272.114484 260.830576 273.913199 262.156592 275.239215 
C 263.482607 276.56523 265.281323 277.310282 267.156592 277.310282 
z
" style="fill:#00ff00;stroke:#00ff00;"/>
    <path clip-path="url(#p2c5eddaeba)" d="M 276.760943 276.737415 
C 278.384973 276.737415 279.942707 276.09218 281.09107 274.943817 
C 282.239433 273.795454 282.884667 272.237721 282.884667 270.61369 
C 282.884667 268.98966 282.239433 267.431926 281.09107 266.283563 
C 279.942707 265.1352 278.384973 264.489966 276.760943 264.489966 
C 275.136912 264.489966 273.579179 265.1352 272.430816 266.283563 
C 271.282452 267.431926 270.637218 268.98966 270.637218 270.61369 
C 270.637218 272.237721 271.282452 273.795454 272.430816 274.943817 
C 273.579179 276.09218 275.136912 276.737415 276.760943 276.737415 
z
" style="fill:#00fa9a;stroke:#00fa9a;"/>
    <path clip-path="url(#p2c5eddaeba)" d="M 262.433672 290.161738 
C 264.057703 290.161738 265.615436 289.516504 266.763799 288.368141 
C 267.912162 287.219778 268.557396 285.662044 268.557396 284.038014 
C 268.557396 282.413983 267.912162 280.85625 266.763799 279.707887 
C 265.615436 278.559524 264.057703 277.914289 262.433672 277.914289 
C 260.809641 277.914289 259.251908 278.559524 258.103545 279.707887 
C 256.955182 280.85625 256.309948 282.413983 256.309948 284.038014 
C 256.309948 285.662044 256.955182 287.219778 258.103545 288.368141 
C 259.251908 289.516504 260.809641 290.161738 262.433672 290.161738 
z
" style="fill:#dc143c;stroke:#dc143c;"/>
    <path clip-path="url(#p2c5eddaeba)" d="M 270.202282 295.529169 
C 272.298896 295.529169 274.309921 294.696175 275.792451 293.213644 
C 277.274982 291.731114 278.107976 289.720089 278.107976 287.623474 
C 278.107976 285.52686 277.274982 283.515835 275.792451 282.033304 
C 274.309921 280.550774 272.298896 279.71778 270.202282 279.71778 
C 268.105667 279.71778 266.094642 280.550774 264.612112 282.033304 
C 263.129581 283.515835 262.296587 285.52686 262.296587 287.623474 
C 262.296587 289.720089 263.129581 291.731114 264.612112 293.213644 
C 266.094642 294.696175 268.105667 295.529169 270.202282 295.529169 
z
" style="fill:#00bfff;stroke:#00bfff;"/>
    <path clip-path="url(#p2c5eddaeba)" d="M 285.314485 300.962338 
C 287.189754 300.962338 288.988469 300.217285 290.314485 298.89127 
C 291.6405 297.565254 292.385552 295.766539 292.385552 293.89127 
C 292.385552 292.016001 291.6405 290.217285 290.314485 288.89127 
C 288.988469 287.565254 287.189754 286.820202 285.314485 286.820202 
C 283.439215 286.820202 281.6405 287.565254 280.314485 288.89127 
C 278.988469 290.217285 278.243417 292.016001 278.243417 293.89127 
C 278.243417 295.766539 278.988469 297.565254 280.314485 298.89127 
C 281.6405 300.217285 283.439215 300.962338 285.314485 300.962338 
z
" style="fill:#f4a460;stroke:#f4a460;"/>
    <path clip-path="url(#p2c5eddaeba)" d="M 253.474944 262.579842 
C 255.571558 262.579842 257.582583 261.746848 259.065114 260.264318 
C 260.547644 258.781788 261.380638 256.770763 261.380638 254.674148 
C 261.380638 252.577533 260.547644 250.566508 259.065114 249.083978 
C 257.582583 247.601448 255.571558 246.768454 253.474944 246.768454 
C 251.378329 246.768454 249.367304 247.601448 247.884774 249.083978 
C 246.402243 250.566508 245.56925 252.577533 245.56925 254.674148 
C 245.56925 256.770763 246.402243 258.781788 247.884774 260.264318 
C 249.367304 261.746848 251.378329 262.579842 253.474944 262.579842 
z
" style="fill:#0000ff;stroke:#0000ff;"/>
    <path clip-path="url(#p2c5eddaeba)" d="M 253.431355 300.031584 
C 255.52797 300.031584 257.538995 299.19859 259.021525 297.716059 
C 260.504055 296.233529 261.337049 294.222504 261.337049 292.125889 
C 261.337049 290.029275 260.504055 288.01825 259.021525 286.535719 
C 257.538995 285.053189 255.52797 284.220195 253.431355 284.220195 
C 251.33474 284.220195 249.323715 285.053189 247.841185 286.535719 
C 246.358655 288.01825 245.525661 290.029275 245.525661 292.125889 
C 245.525661 294.222504 246.358655 296.233529 247.841185 297.716059 
C 249.323715 299.19859 251.33474 300.031584 253.431355 300.031584 
z
" style="fill:#a020f0;stroke:#a020f0;"/>
    <path clip-path="url(#p2c5eddaeba)" d="M 269.583197 212.730516 
C 272.063945 212.730516 274.443422 211.744904 276.197576 209.990751 
C 277.951729 208.236597 278.937341 205.85712 278.937341 203.376372 
C 278.937341 200.895625 277.951729 198.516148 276.197576 196.761994 
C 274.443422 195.007841 272.063945 194.022229 269.583197 194.022229 
C 267.10245 194.022229 264.722973 195.007841 262.968819 196.761994 
C 261.214665 198.516148 260.229054 200.895625 260.229054 203.376372 
C 260.229054 205.85712 261.214665 208.236597 262.968819 209.990751 
C 264.722973 211.744904 267.10245 212.730516 269.583197 212.730516 
z
" style="fill:#adff2f;stroke:#adff2f;"/>
    <path clip-path="url(#p2c5eddaeba)" d="M 256.716164 277.823939 
C 258.591433 277.823939 260.390149 277.078886 261.716164 275.752871 
C 263.04218 274.426855 263.787232 272.62814 263.787232 270.752871 
C 263.787232 268.877602 263.04218 267.078886 261.716164 265.752871 
C 260.390149 264.426855 258.591433 263.681803 256.716164 263.681803 
C 254.840895 263.681803 253.04218 264.426855 251.716164 265.752871 
C 250.390149 267.078886 249.645096 268.877602 249.645096 270.752871 
C 249.645096 272.62814 250.390149 274.426855 251.716164 275.752871 
C 253.04218 277.078886 254.840895 277.823939 256.716164 277.823939 
z
" style="fill:#ff6347;stroke:#ff6347;"/>
    <path clip-path="url(#p2c5eddaeba)" d="M 239.881871 347.636065 
C 241.505901 347.636065 243.063634 346.990831 244.211998 345.842468 
C 245.360361 344.694105 246.005595 343.136372 246.005595 341.512341 
C 246.005595 339.88831 245.360361 338.330577 244.211998 337.182214 
C 243.063634 336.033851 241.505901 335.388617 239.881871 335.388617 
C 238.25784 335.388617 236.700107 336.033851 235.551743 337.182214 
C 234.40338 338.330577 233.758146 339.88831 233.758146 341.512341 
C 233.758146 343.136372 234.40338 344.694105 235.551743 345.842468 
C 236.700107 346.990831 238.25784 347.636065 239.881871 347.636065 
z
" style="fill:#da70d6;stroke:#da70d6;"/>
    <path clip-path="url(#p2c5eddaeba)" d="M 252.375306 266.369239 
C 254.856054 266.369239 257.235531 265.383627 258.989684 263.629474 
C 260.743838 261.87532 261.729449 259.495843 261.729449 257.015096 
C 261.729449 254.534348 260.743838 252.154871 258.989684 250.400717 
C 257.235531 248.646564 254.856054 247.660952 252.375306 247.660952 
C 249.894558 247.660952 247.515081 248.646564 245.760928 250.400717 
C 244.006774 252.154871 243.021163 254.534348 243.021163 257.015096 
C 243.021163 259.495843 244.006774 261.87532 245.760928 263.629474 
C 247.515081 265.383627 249.894558 266.369239 252.375306 266.369239 
z
" style="fill:#b0c4de;stroke:#b0c4de;"/>
    <path clip-path="url(#p2c5eddaeba)" d="M 267.815108 328.154697 
C 269.690377 328.154697 271.489092 327.409644 272.815108 326.083629 
C 274.141123 324.757613 274.886175 322.958898 274.886175 321.083629 
C 274.886175 319.20836 274.141123 317.409644 272.815108 316.083629 
C 271.489092 314.757613 269.690377 314.012561 267.815108 314.012561 
C 265.939839 314.012561 264.141123 314.757613 262.815108 316.083629 
C 261.489092 317.409644 260.74404 319.20836 260.74404 321.083629 
C 260.74404 322.958898 261.489092 324.757613 262.815108 326.083629 
C 264.141123 327.409644 265.939839 328.154697 267.815108 328.154697 
z
" style="fill:#ff00ff;stroke:#ff00ff;"/>
    <path clip-path="url(#p2c5eddaeba)" d="M 249.619612 287.013063 
C 251.243643 287.013063 252.801376 286.367829 253.949739 285.219466 
C 255.098102 284.071103 255.743337 282.51337 255.743337 280.889339 
C 255.743337 279.265308 255.098102 277.707575 253.949739 276.559212 
C 252.801376 275.410849 251.243643 274.765615 249.619612 274.765615 
C 247.995582 274.765615 246.437848 275.410849 245.289485 276.559212 
C 244.141122 277.707575 243.495888 279.265308 243.495888 280.889339 
C 243.495888 282.51337 244.141122 284.071103 245.289485 285.219466 
C 246.437848 286.367829 247.995582 287.013063 249.619612 287.013063 
z
" style="fill:#f0e68c;stroke:#f0e68c;"/>
    <path clip-path="url(#p2c5eddaeba)" d="M 246.002633 284.881382 
C 247.877902 284.881382 249.676618 284.136329 251.002633 282.810314 
C 252.328649 281.484298 253.073701 279.685583 253.073701 277.810314 
C 253.073701 275.935045 252.328649 274.136329 251.002633 272.810314 
C 249.676618 271.484298 247.877902 270.739246 246.002633 270.739246 
C 244.127364 270.739246 242.328649 271.484298 241.002633 272.810314 
C 239.676618 274.136329 238.931565 275.935045 238.931565 277.810314 
C 238.931565 279.685583 239.676618 281.484298 241.002633 282.810314 
C 242.328649 284.136329 244.127364 284.881382 246.002633 284.881382 
z
" style="fill:#fa8072;stroke:#fa8072;"/>
    <path clip-path="url(#p2c5eddaeba)" d="M 268.07343 244.893761 
C 269.697461 244.893761 271.255194 244.248527 272.403557 243.100163 
C 273.55192 241.9518 274.197155 240.394067 274.197155 238.770036 
C 274.197155 237.146006 273.55192 235.588272 272.403557 234.439909 
C 271.255194 233.291546 269.697461 232.646312 268.07343 232.646312 
C 266.4494 232.646312 264.891666 233.291546 263.743303 234.439909 
C 262.59494 235.588272 261.949706 237.146006 261.949706 238.770036 
C 261.949706 240.394067 262.59494 241.9518 263.743303 243.100163 
C 264.891666 244.248527 266.4494 244.893761 268.07343 244.893761 
z
" style="fill:#ffff54;stroke:#ffff54;"/>
    <path clip-path="url(#p2c5eddaeba)" d="M 242.846241 332.906164 
C 244.470272 332.906164 246.028005 332.260929 247.176368 331.112566 
C 248.324731 329.964203 248.969966 328.40647 248.969966 326.782439 
C 248.969966 325.158409 248.324731 323.600675 247.176368 322.452312 
C 246.028005 321.303949 244.470272 320.658715 242.846241 320.658715 
C 241.222211 320.658715 239.664477 321.303949 238.516114 322.452312 
C 237.367751 323.600675 236.722517 325.158409 236.722517 326.782439 
C 236.722517 328.40647 237.367751 329.964203 238.516114 331.112566 
C 239.664477 332.260929 241.222211 332.906164 242.846241 332.906164 
z
" style="fill:#6495ed;stroke:#6495ed;"/>
    <path clip-path="url(#p2c5eddaeba)" d="M 271.457227 270.212633 
C 273.081257 270.212633 274.638991 269.567399 275.787354 268.419036 
C 276.935717 267.270672 277.580951 265.712939 277.580951 264.088909 
C 277.580951 262.464878 276.935717 260.907145 275.787354 259.758781 
C 274.638991 258.610418 273.081257 257.965184 271.457227 257.965184 
C 269.833196 257.965184 268.275463 258.610418 267.1271 259.758781 
C 265.978737 260.907145 265.333502 262.464878 265.333502 264.088909 
C 265.333502 265.712939 265.978737 267.270672 267.1271 268.419036 
C 268.275463 269.567399 269.833196 270.212633 271.457227 270.212633 
z
" style="fill:#dda0dd;stroke:#dda0dd;"/>
    <path clip-path="url(#p2c5eddaeba)" d="M 234.624057 283.452802 
C 236.499326 283.452802 238.298041 282.70775 239.624057 281.381734 
C 240.950072 280.055719 241.695124 278.257003 241.695124 276.381734 
C 241.695124 274.506465 240.950072 272.70775 239.624057 271.381734 
C 238.298041 270.055719 236.499326 269.310666 234.624057 269.310666 
C 232.748788 269.310666 230.950072 270.055719 229.624057 271.381734 
C 228.298041 272.70775 227.552989 274.506465 227.552989 276.381734 
C 227.552989 278.257003 228.298041 280.055719 229.624057 281.381734 
C 230.950072 282.70775 232.748788 283.452802 234.624057 283.452802 
z
" style="fill:#90ee90;stroke:#90ee90;"/>
    <path clip-path="url(#p2c5eddaeba)" d="M 243.292258 278.52411 
C 244.618273 278.52411 245.890157 277.997279 246.827792 277.059644 
C 247.765426 276.12201 248.292258 274.850126 248.292258 273.52411 
C 248.292258 272.198095 247.765426 270.926211 246.827792 269.988576 
C 245.890157 269.050942 244.618273 268.52411 243.292258 268.52411 
C 241.966242 268.52411 240.694358 269.050942 239.756724 269.988576 
C 238.819089 270.926211 238.292258 272.198095 238.292258 273.52411 
C 238.292258 274.850126 238.819089 276.12201 239.756724 277.059644 
C 240.694358 277.997279 241.966242 278.52411 243.292258 278.52411 
z
" style="fill:#7b68ee;stroke:#7b68ee;"/>
    <path clip-path="url(#p2c5eddaeba)" d="M 276.110956 307.068667 
C 278.591704 307.068667 280.971181 306.083056 282.725334 304.328902 
C 284.479488 302.574748 285.465099 300.195271 285.465099 297.714524 
C 285.465099 295.233776 284.479488 292.854299 282.725334 291.100145 
C 280.971181 289.345992 278.591704 288.36038 276.110956 288.36038 
C 273.630208 288.36038 271.250731 289.345992 269.496578 291.100145 
C 267.742424 292.854299 266.756813 295.233776 266.756813 297.714524 
C 266.756813 300.195271 267.742424 302.574748 269.496578 304.328902 
C 271.250731 306.083056 273.630208 307.068667 276.110956 307.068667 
z
" style="fill:#afeeee;stroke:#afeeee;"/>
    <path clip-path="url(#p2c5eddaeba)" d="M 259.331219 336.765831 
C 260.95525 336.765831 262.512983 336.120597 263.661346 334.972234 
C 264.809709 333.823871 265.454943 332.266137 265.454943 330.642107 
C 265.454943 329.018076 264.809709 327.460343 263.661346 326.31198 
C 262.512983 325.163617 260.95525 324.518382 259.331219 324.518382 
C 257.707188 324.518382 256.149455 325.163617 255.001092 326.31198 
C 253.852729 327.460343 253.207495 329.018076 253.207495 330.642107 
C 253.207495 332.266137 253.852729 333.823871 255.001092 334.972234 
C 256.149455 336.120597 257.707188 336.765831 259.331219 336.765831 
z
" style="fill:#7fffd4;stroke:#7fffd4;"/>
    <path clip-path="url(#p2c5eddaeba)" d="M 252.402475 282.770189 
C 254.49909 282.770189 256.510115 281.937195 257.992645 280.454665 
C 259.475176 278.972135 260.30817 276.96111 260.30817 274.864495 
C 260.30817 272.76788 259.475176 270.756855 257.992645 269.274325 
C 256.510115 267.791795 254.49909 266.958801 252.402475 266.958801 
C 250.305861 266.958801 248.294836 267.791795 246.812306 269.274325 
C 245.329775 270.756855 244.496781 272.76788 244.496781 274.864495 
C 244.496781 276.96111 245.329775 278.972135 246.812306 280.454665 
C 248.294836 281.937195 250.305861 282.770189 252.402475 282.770189 
z
" style="fill:#ff69b4;stroke:#ff69b4;"/>
    <path clip-path="url(#p2c5eddaeba)" d="M 276.818738 343.004173 
C 278.144753 343.004173 279.416637 342.477341 280.354272 341.539707 
C 281.291906 340.602072 281.818738 339.330188 281.818738 338.004173 
C 281.818738 336.678157 281.291906 335.406274 280.354272 334.468639 
C 279.416637 333.531004 278.144753 333.004173 276.818738 333.004173 
C 275.492722 333.004173 274.220838 333.531004 273.283204 334.468639 
C 272.345569 335.406274 271.818738 336.678157 271.818738 338.004173 
C 271.818738 339.330188 272.345569 340.602072 273.283204 341.539707 
C 274.220838 342.477341 275.492722 343.004173 276.818738 343.004173 
z
" style="fill:#ffb6c1;stroke:#ffb6c1;"/>
    <path clip-path="url(#p2c5eddaeba)" d="M 229.848045 303.799286 
C 231.723314 303.799286 233.52203 303.054233 234.848045 301.728218 
C 236.174061 300.402202 236.919113 298.603487 236.919113 296.728218 
C 236.919113 294.852949 236.174061 293.054233 234.848045 291.728218 
C 233.52203 290.402202 231.723314 289.65715 229.848045 289.65715 
C 227.972776 289.65715 226.174061 290.402202 224.848045 291.728218 
C 223.52203 293.054233 222.776977 294.852949 222.776977 296.728218 
C 222.776977 298.603487 223.52203 300.402202 224.848045 301.728218 
C 226.174061 303.054233 227.972776 303.799286 229.848045 303.799286 
z
" style="fill:#2f4f4f;stroke:#2f4f4f;"/>
    <path clip-path="url(#p2c5eddaeba)" d="M 232.904364 268.432897 
C 234.528394 268.432897 236.086127 267.787663 237.234491 266.6393 
C 238.382854 265.490936 239.028088 263.933203 239.028088 262.309173 
C 239.028088 260.685142 238.382854 259.127409 237.234491 257.979046 
C 236.086127 256.830682 234.528394 256.185448 232.904364 256.185448 
C 231.280333 256.185448 229.7226 256.830682 228.574237 257.979046 
C 227.425873 259.127409 226.780639 260.685142 226.780639 262.309173 
C 226.780639 263.933203 227.425873 265.490936 228.574237 266.6393 
C 229.7226 267.787663 231.280333 268.432897 232.904364 268.432897 
z
" style="fill:#556b2f;stroke:#556b2f;"/>
    <path clip-path="url(#p2c5eddaeba)" d="M 281.206537 287.40972 
C 282.830567 287.40972 284.388301 286.764485 285.536664 285.616122 
C 286.685027 284.467759 287.330261 282.910026 287.330261 281.285995 
C 287.330261 279.661965 286.685027 278.104231 285.536664 276.955868 
C 284.388301 275.807505 282.830567 275.162271 281.206537 275.162271 
C 279.582506 275.162271 278.024773 275.807505 276.87641 276.955868 
C 275.728046 278.104231 275.082812 279.661965 275.082812 281.285995 
C 275.082812 282.910026 275.728046 284.467759 276.87641 285.616122 
C 278.024773 286.764485 279.582506 287.40972 281.206537 287.40972 
z
" style="fill:#8b4513;stroke:#8b4513;"/>
    <path clip-path="url(#p2c5eddaeba)" d="M 268.560432 302.152922 
C 270.184463 302.152922 271.742196 301.507688 272.890559 300.359325 
C 274.038923 299.210962 274.684157 297.653228 274.684157 296.029198 
C 274.684157 294.405167 274.038923 292.847434 272.890559 291.699071 
C 271.742196 290.550707 270.184463 289.905473 268.560432 289.905473 
C 266.936402 289.905473 265.378669 290.550707 264.230305 291.699071 
C 263.081942 292.847434 262.436708 294.405167 262.436708 296.029198 
C 262.436708 297.653228 263.081942 299.210962 264.230305 300.359325 
C 265.378669 301.507688 266.936402 302.152922 268.560432 302.152922 
z
" style="fill:#2e8b57;stroke:#2e8b57;"/>
    <path clip-path="url(#p2c5eddaeba)" d="M 259.572977 352.456669 
C 260.898992 352.456669 262.170876 351.929837 263.108511 350.992202 
C 264.046145 350.054568 264.572977 348.782684 264.572977 347.456669 
C 264.572977 346.130653 264.046145 344.858769 263.108511 343.921135 
C 262.170876 342.9835 260.898992 342.456669 259.572977 342.456669 
C 258.246961 342.456669 256.975077 342.9835 256.037443 343.921135 
C 255.099808 344.858769 254.572977 346.130653 254.572977 347.456669 
C 254.572977 348.782684 255.099808 350.054568 256.037443 350.992202 
C 256.975077 351.929837 258.246961 352.456669 259.572977 352.456669 
z
" style="fill:#228b22;stroke:#228b22;"/>
    <path clip-path="url(#p2c5eddaeba)" d="M 262.056812 282.295365 
C 263.680843 282.295365 265.238576 281.650131 266.386939 280.501768 
C 267.535303 279.353404 268.180537 277.795671 268.180537 276.17164 
C 268.180537 274.54761 267.535303 272.989877 266.386939 271.841513 
C 265.238576 270.69315 263.680843 270.047916 262.056812 270.047916 
C 260.432782 270.047916 258.875048 270.69315 257.726685 271.841513 
C 256.578322 272.989877 255.933088 274.54761 255.933088 276.17164 
C 255.933088 277.795671 256.578322 279.353404 257.726685 280.501768 
C 258.875048 281.650131 260.432782 282.295365 262.056812 282.295365 
z
" style="fill:#708090;stroke:#708090;"/>
    <path clip-path="url(#p2c5eddaeba)" d="M 274.847106 313.724087 
C 277.143832 313.724087 279.346799 312.811588 280.97083 311.187557 
C 282.594861 309.563527 283.50736 307.360559 283.50736 305.063833 
C 283.50736 302.767107 282.594861 300.564139 280.97083 298.940109 
C 279.346799 297.316078 277.143832 296.403579 274.847106 296.403579 
C 272.550379 296.403579 270.347412 297.316078 268.723381 298.940109 
C 267.099351 300.564139 266.186852 302.767107 266.186852 305.063833 
C 266.186852 307.360559 267.099351 309.563527 268.723381 311.187557 
C 270.347412 312.811588 272.550379 313.724087 274.847106 313.724087 
z
" style="fill:#8b0000;stroke:#8b0000;"/>
    <path clip-path="url(#p2c5eddaeba)" d="M 251.570062 216.622883 
C 253.194093 216.622883 254.751826 215.977649 255.900189 214.829286 
C 257.048552 213.680923 257.693787 212.12319 257.693787 210.499159 
C 257.693787 208.875128 257.048552 207.317395 255.900189 206.169032 
C 254.751826 205.020669 253.194093 204.375435 251.570062 204.375435 
C 249.946032 204.375435 248.388298 205.020669 247.239935 206.169032 
C 246.091572 207.317395 245.446338 208.875128 245.446338 210.499159 
C 245.446338 212.12319 246.091572 213.680923 247.239935 214.829286 
C 248.388298 215.977649 249.946032 216.622883 251.570062 216.622883 
z
" style="fill:#808000;stroke:#808000;"/>
    <path clip-path="url(#p2c5eddaeba)" d="M 257.853381 295.401275 
C 259.72865 295.401275 261.527366 294.656223 262.853381 293.330207 
C 264.179397 292.004192 264.924449 290.205476 264.924449 288.330207 
C 264.924449 286.454938 264.179397 284.656223 262.853381 283.330207 
C 261.527366 282.004192 259.72865 281.259139 257.853381 281.259139 
C 255.978112 281.259139 254.179397 282.004192 252.853381 283.330207 
C 251.527366 284.656223 250.782313 286.454938 250.782313 288.330207 
C 250.782313 290.205476 251.527366 292.004192 252.853381 293.330207 
C 254.179397 294.656223 255.978112 295.401275 257.853381 295.401275 
z
" style="fill:#008080;stroke:#008080;"/>
    <path clip-path="url(#p2c5eddaeba)" d="M 251.062558 316.44351 
C 252.388574 316.44351 253.660458 315.916679 254.598092 314.979044 
C 255.535727 314.04141 256.062558 312.769526 256.062558 311.44351 
C 256.062558 310.117495 255.535727 308.845611 254.598092 307.907976 
C 253.660458 306.970342 252.388574 306.44351 251.062558 306.44351 
C 249.736543 306.44351 248.464659 306.970342 247.527024 307.907976 
C 246.58939 308.845611 246.062558 310.117495 246.062558 311.44351 
C 246.062558 312.769526 246.58939 314.04141 247.527024 314.979044 
C 248.464659 315.916679 249.736543 316.44351 251.062558 316.44351 
z
" style="fill:#b8860b;stroke:#b8860b;"/>
    <path clip-path="url(#p2c5eddaeba)" d="M 281.661912 261.638863 
C 283.537181 261.638863 285.335896 260.89381 286.661912 259.567795 
C 287.987927 258.241779 288.732979 256.443064 288.732979 254.567795 
C 288.732979 252.692526 287.987927 250.89381 286.661912 249.567795 
C 285.335896 248.241779 283.537181 247.496727 281.661912 247.496727 
C 279.786643 247.496727 277.987927 248.241779 276.661912 249.567795 
C 275.335896 250.89381 274.590844 252.692526 274.590844 254.567795 
C 274.590844 256.443064 275.335896 258.241779 276.661912 259.567795 
C 277.987927 260.89381 279.786643 261.638863 281.661912 261.638863 
z
" style="fill:#4682b4;stroke:#4682b4;"/>
    <path clip-path="url(#p2c5eddaeba)" d="M 264.8768 284.684584 
C 267.357548 284.684584 269.737025 283.698972 271.491179 281.944818 
C 273.245332 280.190665 274.230944 277.811188 274.230944 275.33044 
C 274.230944 272.849692 273.245332 270.470216 271.491179 268.716062 
C 269.737025 266.961908 267.357548 265.976297 264.8768 265.976297 
C 262.396052 265.976297 260.016576 266.961908 258.262422 268.716062 
C 256.508268 270.470216 255.522657 272.849692 255.522657 275.33044 
C 255.522657 277.811188 256.508268 280.190665 258.262422 281.944818 
C 260.016576 283.698972 262.396052 284.684584 264.8768 284.684584 
z
" style="fill:#d2691e;stroke:#d2691e;"/>
    <path clip-path="url(#p2c5eddaeba)" d="M 217.43593 248.791581 
C 219.05996 248.791581 220.617694 248.146347 221.766057 246.997984 
C 222.91442 245.849621 223.559654 244.291888 223.559654 242.667857 
C 223.559654 241.043826 222.91442 239.486093 221.766057 238.33773 
C 220.617694 237.189367 219.05996 236.544133 217.43593 236.544133 
C 215.811899 236.544133 214.254166 237.189367 213.105803 238.33773 
C 211.95744 239.486093 211.312205 241.043826 211.312205 242.667857 
C 211.312205 244.291888 211.95744 245.849621 213.105803 246.997984 
C 214.254166 248.146347 215.811899 248.791581 217.43593 248.791581 
z
" style="fill:#32cd32;stroke:#32cd32;"/>
    <path clip-path="url(#p2c5eddaeba)" d="M 264.831057 247.924898 
C 267.311804 247.924898 269.691281 246.939286 271.445435 245.185132 
C 273.199588 243.430979 274.1852 241.051502 274.1852 238.570754 
C 274.1852 236.090006 273.199588 233.710529 271.445435 231.956376 
C 269.691281 230.202222 267.311804 229.216611 264.831057 229.216611 
C 262.350309 229.216611 259.970832 230.202222 258.216678 231.956376 
C 256.462525 233.710529 255.476913 236.090006 255.476913 238.570754 
C 255.476913 241.051502 256.462525 243.430979 258.216678 245.185132 
C 259.970832 246.939286 262.350309 247.924898 264.831057 247.924898 
z
" style="fill:#8fbc8f;stroke:#8fbc8f;"/>
    <path clip-path="url(#p2c5eddaeba)" d="M 254.123366 228.158401 
C 255.998635 228.158401 257.79735 227.413348 259.123366 226.087333 
C 260.449381 224.761317 261.194434 222.962602 261.194434 221.087333 
C 261.194434 219.212064 260.449381 217.413348 259.123366 216.087333 
C 257.79735 214.761317 255.998635 214.016265 254.123366 214.016265 
C 252.248097 214.016265 250.449381 214.761317 249.123366 216.087333 
C 247.79735 217.413348 247.052298 219.212064 247.052298 221.087333 
C 247.052298 222.962602 247.79735 224.761317 249.123366 226.087333 
C 250.449381 227.413348 252.248097 228.158401 254.123366 228.158401 
z
" style="fill:#800080;stroke:#800080;"/>
    <path clip-path="url(#p2c5eddaeba)" d="M 254.697385 284.969822 
C 256.321416 284.969822 257.879149 284.324588 259.027512 283.176225 
C 260.175875 282.027861 260.821109 280.470128 260.821109 278.846098 
C 260.821109 277.222067 260.175875 275.664334 259.027512 274.515971 
C 257.879149 273.367607 256.321416 272.722373 254.697385 272.722373 
C 253.073354 272.722373 251.515621 273.367607 250.367258 274.515971 
C 249.218895 275.664334 248.573661 277.222067 248.573661 278.846098 
C 248.573661 280.470128 249.218895 282.027861 250.367258 283.176225 
C 251.515621 284.324588 253.073354 284.969822 254.697385 284.969822 
z
" style="fill:#b03060;stroke:#b03060;"/>
    <path clip-path="url(#p2c5eddaeba)" d="M 241.34989 219.742998 
C 243.446504 219.742998 245.457529 218.910004 246.94006 217.427474 
C 248.42259 215.944944 249.255584 213.933919 249.255584 211.837304 
C 249.255584 209.740689 248.42259 207.729664 246.94006 206.247134 
C 245.457529 204.764604 243.446504 203.93161 241.34989 203.93161 
C 239.253275 203.93161 237.24225 204.764604 235.75972 206.247134 
C 234.277189 207.729664 233.444196 209.740689 233.444196 211.837304 
C 233.444196 213.933919 234.277189 215.944944 235.75972 217.427474 
C 237.24225 218.910004 239.253275 219.742998 241.34989 219.742998 
z
" style="fill:#9932cc;stroke:#9932cc;"/>
    <path clip-path="url(#p2c5eddaeba)" d="M 247.609745 267.938357 
C 249.906472 267.938357 252.109439 267.025858 253.73347 265.401827 
C 255.357501 263.777797 256.27 261.574829 256.27 259.278103 
C 256.27 256.981377 255.357501 254.778409 253.73347 253.154379 
C 252.109439 251.530348 249.906472 250.617849 247.609745 250.617849 
C 245.313019 250.617849 243.110052 251.530348 241.486021 253.154379 
C 239.86199 254.778409 238.949491 256.981377 238.949491 259.278103 
C 238.949491 261.574829 239.86199 263.777797 241.486021 265.401827 
C 243.110052 267.025858 245.313019 267.938357 247.609745 267.938357 
z
" style="fill:#00ced1;stroke:#00ced1;"/>
    <path clip-path="url(#p2c5eddaeba)" d="M 244.130479 244.888924 
C 246.427206 244.888924 248.630173 243.976425 250.254204 242.352395 
C 251.878234 240.728364 252.790733 238.525397 252.790733 236.22867 
C 252.790733 233.931944 251.878234 231.728977 250.254204 230.104946 
C 248.630173 228.480915 246.427206 227.568416 244.130479 227.568416 
C 241.833753 227.568416 239.630786 228.480915 238.006755 230.104946 
C 236.382724 231.728977 235.470225 233.931944 235.470225 236.22867 
C 235.470225 238.525397 236.382724 240.728364 238.006755 242.352395 
C 239.630786 243.976425 241.833753 244.888924 244.130479 244.888924 
z
" style="fill:#ff8c00;stroke:#ff8c00;"/>
    <path clip-path="url(#p2c5eddaeba)" d="M 253.395758 290.324 
C 255.019788 290.324 256.577522 289.678766 257.725885 288.530403 
C 258.874248 287.382039 259.519482 285.824306 259.519482 284.200275 
C 259.519482 282.576245 258.874248 281.018512 257.725885 279.870148 
C 256.577522 278.721785 255.019788 278.076551 253.395758 278.076551 
C 251.771727 278.076551 250.213994 278.721785 249.065631 279.870148 
C 247.917268 281.018512 247.272033 282.576245 247.272033 284.200275 
C 247.272033 285.824306 247.917268 287.382039 249.065631 288.530403 
C 250.213994 289.678766 251.771727 290.324 253.395758 290.324 
z
" style="fill:#ffd700;stroke:#ffd700;"/>
    <path clip-path="url(#p2c5eddaeba)" d="M 242.107818 231.437402 
C 243.731848 231.437402 245.289582 230.792168 246.437945 229.643805 
C 247.586308 228.495442 248.231542 226.937708 248.231542 225.313678 
C 248.231542 223.689647 247.586308 222.131914 246.437945 220.983551 
C 245.289582 219.835188 243.731848 219.189953 242.107818 219.189953 
C 240.483787 219.189953 238.926054 219.835188 237.777691 220.983551 
C 236.629328 222.131914 235.984093 223.689647 235.984093 225.313678 
C 235.984093 226.937708 236.629328 228.495442 237.777691 229.643805 
C 238.926054 230.792168 240.483787 231.437402 242.107818 231.437402 
z
" style="fill:#0000cd;stroke:#0000cd;"/>
    <path clip-path="url(#p2c5eddaeba)" d="M 276.10096 316.924829 
C 277.426975 316.924829 278.698859 316.397997 279.636494 315.460363 
C 280.574128 314.522728 281.10096 313.250844 281.10096 311.924829 
C 281.10096 310.598813 280.574128 309.326929 279.636494 308.389295 
C 278.698859 307.45166 277.426975 306.924829 276.10096 306.924829 
C 274.774944 306.924829 273.503061 307.45166 272.565426 308.389295 
C 271.627791 309.326929 271.10096 310.598813 271.10096 311.924829 
C 271.10096 313.250844 271.627791 314.522728 272.565426 315.460363 
C 273.503061 316.397997 274.774944 316.924829 276.10096 316.924829 
z
" style="fill:#deb887;stroke:#deb887;"/>
    <path clip-path="url(#p2c5eddaeba)" d="M 263.081861 269.869411 
C 265.178476 269.869411 267.1895 269.036417 268.672031 267.553887 
C 270.154561 266.071357 270.987555 264.060332 270.987555 261.963717 
C 270.987555 259.867102 270.154561 257.856078 268.672031 256.373547 
C 267.1895 254.891017 265.178476 254.058023 263.081861 254.058023 
C 260.985246 254.058023 258.974221 254.891017 257.491691 256.373547 
C 256.009161 257.856078 255.176167 259.867102 255.176167 261.963717 
C 255.176167 264.060332 256.009161 266.071357 257.491691 267.553887 
C 258.974221 269.036417 260.985246 269.869411 263.081861 269.869411 
z
" style="fill:#00ff00;stroke:#00ff00;"/>
    <path clip-path="url(#p2c5eddaeba)" d="M 256.795145 189.723306 
C 258.419175 189.723306 259.976908 189.078072 261.125272 187.929709 
C 262.273635 186.781346 262.918869 185.223613 262.918869 183.599582 
C 262.918869 181.975551 262.273635 180.417818 261.125272 179.269455 
C 259.976908 178.121092 258.419175 177.475858 256.795145 177.475858 
C 255.171114 177.475858 253.613381 178.121092 252.465018 179.269455 
C 251.316654 180.417818 250.67142 181.975551 250.67142 183.599582 
C 250.67142 185.223613 251.316654 186.781346 252.465018 187.929709 
C 253.613381 189.078072 255.171114 189.723306 256.795145 189.723306 
z
" style="fill:#dc143c;stroke:#dc143c;"/>
    <path clip-path="url(#p2c5eddaeba)" d="M 246.310987 335.318012 
C 247.637003 335.318012 248.908887 334.79118 249.846521 333.853546 
C 250.784156 332.915911 251.310987 331.644027 251.310987 330.318012 
C 251.310987 328.991996 250.784156 327.720113 249.846521 326.782478 
C 248.908887 325.844843 247.637003 325.318012 246.310987 325.318012 
C 244.984972 325.318012 243.713088 325.844843 242.775454 326.782478 
C 241.837819 327.720113 241.310987 328.991996 241.310987 330.318012 
C 241.310987 331.644027 241.837819 332.915911 242.775454 333.853546 
C 243.713088 334.79118 244.984972 335.318012 246.310987 335.318012 
z
" style="fill:#00bfff;stroke:#00bfff;"/>
    <path clip-path="url(#p2c5eddaeba)" d="M 241.405444 255.685265 
C 243.029475 255.685265 244.587208 255.040031 245.735571 253.891668 
C 246.883934 252.743305 247.529169 251.185572 247.529169 249.561541 
C 247.529169 247.93751 246.883934 246.379777 245.735571 245.231414 
C 244.587208 244.083051 243.029475 243.437817 241.405444 243.437817 
C 239.781414 243.437817 238.22368 244.083051 237.075317 245.231414 
C 235.926954 246.379777 235.28172 247.93751 235.28172 249.561541 
C 235.28172 251.185572 235.926954 252.743305 237.075317 253.891668 
C 238.22368 255.040031 239.781414 255.685265 241.405444 255.685265 
z
" style="fill:#f4a460;stroke:#f4a460;"/>
    <path clip-path="url(#p2c5eddaeba)" d="M 254.915571 314.997341 
C 256.539602 314.997341 258.097335 314.352106 259.245698 313.203743 
C 260.394062 312.05538 261.039296 310.497647 261.039296 308.873616 
C 261.039296 307.249586 260.394062 305.691852 259.245698 304.543489 
C 258.097335 303.395126 256.539602 302.749892 254.915571 302.749892 
C 253.291541 302.749892 251.733808 303.395126 250.585444 304.543489 
C 249.437081 305.691852 248.791847 307.249586 248.791847 308.873616 
C 248.791847 310.497647 249.437081 312.05538 250.585444 313.203743 
C 251.733808 314.352106 253.291541 314.997341 254.915571 314.997341 
z
" style="fill:#a020f0;stroke:#a020f0;"/>
    <path clip-path="url(#p2c5eddaeba)" d="M 226.122983 264.231555 
C 229.088043 264.231555 231.932062 263.053524 234.028677 260.95691 
C 236.125291 258.860295 237.303323 256.016276 237.303323 253.051215 
C 237.303323 250.086155 236.125291 247.242136 234.028677 245.145521 
C 231.932062 243.048907 229.088043 241.870876 226.122983 241.870876 
C 223.157922 241.870876 220.313903 243.048907 218.217288 245.145521 
C 216.120674 247.242136 214.942643 250.086155 214.942643 253.051215 
C 214.942643 256.016276 216.120674 258.860295 218.217288 260.95691 
C 220.313903 263.053524 223.157922 264.231555 226.122983 264.231555 
z
" style="fill:#da70d6;stroke:#da70d6;"/>
   </g>
   <g id="matplotlib.axis_1">
    <g id="xtick_1">
     <g id="line2d_1">
      <defs>
       <path d="M 0 0 
L 0 3.5 
" id="m54ea6d0cb6" style="stroke:#000000;stroke-width:0.8;"/>
      </defs>
      <g>
       <use style="stroke:#000000;stroke-width:0.8;" x="258.3" xlink:href="#m54ea6d0cb6" y="576.72"/>
      </g>
     </g>
     <g id="text_1">
      <!-- MeanPD -->
      <g transform="translate(237.811719 591.318438)scale(0.1 -0.1)">
       <defs>
        <path d="M 9.8125 72.90625 
L 24.515625 72.90625 
L 43.109375 23.296875 
L 61.8125 72.90625 
L 76.515625 72.90625 
L 76.515625 0 
L 66.890625 0 
L 66.890625 64.015625 
L 48.09375 14.015625 
L 38.1875 14.015625 
L 19.390625 64.015625 
L 19.390625 0 
L 9.8125 0 
z
" id="DejaVuSans-77"/>
        <path d="M 56.203125 29.59375 
L 56.203125 25.203125 
L 14.890625 25.203125 
Q 15.484375 15.921875 20.484375 11.0625 
Q 25.484375 6.203125 34.421875 6.203125 
Q 39.59375 6.203125 44.453125 7.46875 
Q 49.3125 8.734375 54.109375 11.28125 
L 54.109375 2.78125 
Q 49.265625 0.734375 44.1875 -0.34375 
Q 39.109375 -1.421875 33.890625 -1.421875 
Q 20.796875 -1.421875 13.15625 6.1875 
Q 5.515625 13.8125 5.515625 26.8125 
Q 5.515625 40.234375 12.765625 48.109375 
Q 20.015625 56 32.328125 56 
Q 43.359375 56 49.78125 48.890625 
Q 56.203125 41.796875 56.203125 29.59375 
z
M 47.21875 32.234375 
Q 47.125 39.59375 43.09375 43.984375 
Q 39.0625 48.390625 32.421875 48.390625 
Q 24.90625 48.390625 20.390625 44.140625 
Q 15.875 39.890625 15.1875 32.171875 
z
" id="DejaVuSans-101"/>
        <path d="M 34.28125 27.484375 
Q 23.390625 27.484375 19.1875 25 
Q 14.984375 22.515625 14.984375 16.5 
Q 14.984375 11.71875 18.140625 8.90625 
Q 21.296875 6.109375 26.703125 6.109375 
Q 34.1875 6.109375 38.703125 11.40625 
Q 43.21875 16.703125 43.21875 25.484375 
L 43.21875 27.484375 
z
M 52.203125 31.203125 
L 52.203125 0 
L 43.21875 0 
L 43.21875 8.296875 
Q 40.140625 3.328125 35.546875 0.953125 
Q 30.953125 -1.421875 24.3125 -1.421875 
Q 15.921875 -1.421875 10.953125 3.296875 
Q 6 8.015625 6 15.921875 
Q 6 25.140625 12.171875 29.828125 
Q 18.359375 34.515625 30.609375 34.515625 
L 43.21875 34.515625 
L 43.21875 35.40625 
Q 43.21875 41.609375 39.140625 45 
Q 35.0625 48.390625 27.6875 48.390625 
Q 23 48.390625 18.546875 47.265625 
Q 14.109375 46.140625 10.015625 43.890625 
L 10.015625 52.203125 
Q 14.9375 54.109375 19.578125 55.046875 
Q 24.21875 56 28.609375 56 
Q 40.484375 56 46.34375 49.84375 
Q 52.203125 43.703125 52.203125 31.203125 
z
" id="DejaVuSans-97"/>
        <path d="M 54.890625 33.015625 
L 54.890625 0 
L 45.90625 0 
L 45.90625 32.71875 
Q 45.90625 40.484375 42.875 44.328125 
Q 39.84375 48.1875 33.796875 48.1875 
Q 26.515625 48.1875 22.3125 43.546875 
Q 18.109375 38.921875 18.109375 30.90625 
L 18.109375 0 
L 9.078125 0 
L 9.078125 54.6875 
L 18.109375 54.6875 
L 18.109375 46.1875 
Q 21.34375 51.125 25.703125 53.5625 
Q 30.078125 56 35.796875 56 
Q 45.21875 56 50.046875 50.171875 
Q 54.890625 44.34375 54.890625 33.015625 
z
" id="DejaVuSans-110"/>
        <path d="M 19.671875 64.796875 
L 19.671875 37.40625 
L 32.078125 37.40625 
Q 38.96875 37.40625 42.71875 40.96875 
Q 46.484375 44.53125 46.484375 51.125 
Q 46.484375 57.671875 42.71875 61.234375 
Q 38.96875 64.796875 32.078125 64.796875 
z
M 9.8125 72.90625 
L 32.078125 72.90625 
Q 44.34375 72.90625 50.609375 67.359375 
Q 56.890625 61.8125 56.890625 51.125 
Q 56.890625 40.328125 50.609375 34.8125 
Q 44.34375 29.296875 32.078125 29.296875 
L 19.671875 29.296875 
L 19.671875 0 
L 9.8125 0 
z
" id="DejaVuSans-80"/>
        <path d="M 19.671875 64.796875 
L 19.671875 8.109375 
L 31.59375 8.109375 
Q 46.6875 8.109375 53.6875 14.9375 
Q 60.6875 21.78125 60.6875 36.53125 
Q 60.6875 51.171875 53.6875 57.984375 
Q 46.6875 64.796875 31.59375 64.796875 
z
M 9.8125 72.90625 
L 30.078125 72.90625 
Q 51.265625 72.90625 61.171875 64.09375 
Q 71.09375 55.28125 71.09375 36.53125 
Q 71.09375 17.671875 61.125 8.828125 
Q 51.171875 0 30.078125 0 
L 9.8125 0 
z
" id="DejaVuSans-68"/>
       </defs>
       <use xlink:href="#DejaVuSans-77"/>
       <use x="86.279297" xlink:href="#DejaVuSans-101"/>
       <use x="147.802734" xlink:href="#DejaVuSans-97"/>
       <use x="209.082031" xlink:href="#DejaVuSans-110"/>
       <use x="272.460938" xlink:href="#DejaVuSans-80"/>
       <use x="332.763672" xlink:href="#DejaVuSans-68"/>
      </g>
     </g>
    </g>
   </g>
   <g id="matplotlib.axis_2">
    <g id="ytick_1">
     <g id="line2d_2">
      <defs>
       <path d="M 0 0 
L -3.5 0 
" id="m1bc32655c2" style="stroke:#000000;stroke-width:0.8;"/>
      </defs>
      <g>
       <use style="stroke:#000000;stroke-width:0.8;" x="63" xlink:href="#m1bc32655c2" y="576.72"/>
      </g>
     </g>
     <g id="text_2">
      <!-- 3.5 -->
      <g transform="translate(31.717187 580.519219)scale(0.1 -0.1)">
       <defs>
        <path d="M 10.59375 35.5 
L 73.1875 35.5 
L 73.1875 27.203125 
L 10.59375 27.203125 
z
" id="DejaVuSans-8722"/>
        <path d="M 40.578125 39.3125 
Q 47.65625 37.796875 51.625 33 
Q 55.609375 28.21875 55.609375 21.1875 
Q 55.609375 10.40625 48.1875 4.484375 
Q 40.765625 -1.421875 27.09375 -1.421875 
Q 22.515625 -1.421875 17.65625 -0.515625 
Q 12.796875 0.390625 7.625 2.203125 
L 7.625 11.71875 
Q 11.71875 9.328125 16.59375 8.109375 
Q 21.484375 6.890625 26.8125 6.890625 
Q 36.078125 6.890625 40.9375 10.546875 
Q 45.796875 14.203125 45.796875 21.1875 
Q 45.796875 27.640625 41.28125 31.265625 
Q 36.765625 34.90625 28.71875 34.90625 
L 20.21875 34.90625 
L 20.21875 43.015625 
L 29.109375 43.015625 
Q 36.375 43.015625 40.234375 45.921875 
Q 44.09375 48.828125 44.09375 54.296875 
Q 44.09375 59.90625 40.109375 62.90625 
Q 36.140625 65.921875 28.71875 65.921875 
Q 24.65625 65.921875 20.015625 65.03125 
Q 15.375 64.15625 9.8125 62.3125 
L 9.8125 71.09375 
Q 15.4375 72.65625 20.34375 73.4375 
Q 25.25 74.21875 29.59375 74.21875 
Q 40.828125 74.21875 47.359375 69.109375 
Q 53.90625 64.015625 53.90625 55.328125 
Q 53.90625 49.265625 50.4375 45.09375 
Q 46.96875 40.921875 40.578125 39.3125 
z
" id="DejaVuSans-51"/>
        <path d="M 10.6875 12.40625 
L 21 12.40625 
L 21 0 
L 10.6875 0 
z
" id="DejaVuSans-46"/>
        <path d="M 10.796875 72.90625 
L 49.515625 72.90625 
L 49.515625 64.59375 
L 19.828125 64.59375 
L 19.828125 46.734375 
Q 21.96875 47.46875 24.109375 47.828125 
Q 26.265625 48.1875 28.421875 48.1875 
Q 40.625 48.1875 47.75 41.5 
Q 54.890625 34.8125 54.890625 23.390625 
Q 54.890625 11.625 47.5625 5.09375 
Q 40.234375 -1.421875 26.90625 -1.421875 
Q 22.3125 -1.421875 17.546875 -0.640625 
Q 12.796875 0.140625 7.71875 1.703125 
L 7.71875 11.625 
Q 12.109375 9.234375 16.796875 8.0625 
Q 21.484375 6.890625 26.703125 6.890625 
Q 35.15625 6.890625 40.078125 11.328125 
Q 45.015625 15.765625 45.015625 23.390625 
Q 45.015625 31 40.078125 35.4375 
Q 35.15625 39.890625 26.703125 39.890625 
Q 22.75 39.890625 18.8125 39.015625 
Q 14.890625 38.140625 10.796875 36.28125 
z
" id="DejaVuSans-53"/>
       </defs>
       <use xlink:href="#DejaVuSans-8722"/>
       <use x="83.789062" xlink:href="#DejaVuSans-51"/>
       <use x="147.412109" xlink:href="#DejaVuSans-46"/>
       <use x="179.199219" xlink:href="#DejaVuSans-53"/>
      </g>
     </g>
    </g>
    <g id="ytick_2">
     <g id="line2d_3">
      <g>
       <use style="stroke:#000000;stroke-width:0.8;" x="63" xlink:href="#m1bc32655c2" y="538.92"/>
      </g>
     </g>
     <g id="text_3">
      <!-- 3.0 -->
      <g transform="translate(31.717187 542.719219)scale(0.1 -0.1)">
       <defs>
        <path d="M 31.78125 66.40625 
Q 24.171875 66.40625 20.328125 58.90625 
Q 16.5 51.421875 16.5 36.375 
Q 16.5 21.390625 20.328125 13.890625 
Q 24.171875 6.390625 31.78125 6.390625 
Q 39.453125 6.390625 43.28125 13.890625 
Q 47.125 21.390625 47.125 36.375 
Q 47.125 51.421875 43.28125 58.90625 
Q 39.453125 66.40625 31.78125 66.40625 
z
M 31.78125 74.21875 
Q 44.046875 74.21875 50.515625 64.515625 
Q 56.984375 54.828125 56.984375 36.375 
Q 56.984375 17.96875 50.515625 8.265625 
Q 44.046875 -1.421875 31.78125 -1.421875 
Q 19.53125 -1.421875 13.0625 8.265625 
Q 6.59375 17.96875 6.59375 36.375 
Q 6.59375 54.828125 13.0625 64.515625 
Q 19.53125 74.21875 31.78125 74.21875 
z
" id="DejaVuSans-48"/>
       </defs>
       <use xlink:href="#DejaVuSans-8722"/>
       <use x="83.789062" xlink:href="#DejaVuSans-51"/>
       <use x="147.412109" xlink:href="#DejaVuSans-46"/>
       <use x="179.199219" xlink:href="#DejaVuSans-48"/>
      </g>
     </g>
    </g>
    <g id="ytick_3">
     <g id="line2d_4">
      <g>
       <use style="stroke:#000000;stroke-width:0.8;" x="63" xlink:href="#m1bc32655c2" y="501.12"/>
      </g>
     </g>
     <g id="text_4">
      <!-- 2.5 -->
      <g transform="translate(31.717187 504.919219)scale(0.1 -0.1)">
       <defs>
        <path d="M 19.1875 8.296875 
L 53.609375 8.296875 
L 53.609375 0 
L 7.328125 0 
L 7.328125 8.296875 
Q 12.9375 14.109375 22.625 23.890625 
Q 32.328125 33.6875 34.8125 36.53125 
Q 39.546875 41.84375 41.421875 45.53125 
Q 43.3125 49.21875 43.3125 52.78125 
Q 43.3125 58.59375 39.234375 62.25 
Q 35.15625 65.921875 28.609375 65.921875 
Q 23.96875 65.921875 18.8125 64.3125 
Q 13.671875 62.703125 7.8125 59.421875 
L 7.8125 69.390625 
Q 13.765625 71.78125 18.9375 73 
Q 24.125 74.21875 28.421875 74.21875 
Q 39.75 74.21875 46.484375 68.546875 
Q 53.21875 62.890625 53.21875 53.421875 
Q 53.21875 48.921875 51.53125 44.890625 
Q 49.859375 40.875 45.40625 35.40625 
Q 44.1875 33.984375 37.640625 27.21875 
Q 31.109375 20.453125 19.1875 8.296875 
z
" id="DejaVuSans-50"/>
       </defs>
       <use xlink:href="#DejaVuSans-8722"/>
       <use x="83.789062" xlink:href="#DejaVuSans-50"/>
       <use x="147.412109" xlink:href="#DejaVuSans-46"/>
       <use x="179.199219" xlink:href="#DejaVuSans-53"/>
      </g>
     </g>
    </g>
    <g id="ytick_4">
     <g id="line2d_5">
      <g>
       <use style="stroke:#000000;stroke-width:0.8;" x="63" xlink:href="#m1bc32655c2" y="463.32"/>
      </g>
     </g>
     <g id="text_5">
      <!-- 2.0 -->
      <g transform="translate(31.717187 467.119219)scale(0.1 -0.1)">
       <use xlink:href="#DejaVuSans-8722"/>
       <use x="83.789062" xlink:href="#DejaVuSans-50"/>
       <use x="147.412109" xlink:href="#DejaVuSans-46"/>
       <use x="179.199219" xlink:href="#DejaVuSans-48"/>
      </g>
     </g>
    </g>
    <g id="ytick_5">
     <g id="line2d_6">
      <g>
       <use style="stroke:#000000;stroke-width:0.8;" x="63" xlink:href="#m1bc32655c2" y="425.52"/>
      </g>
     </g>
     <g id="text_6">
      <!-- 1.5 -->
      <g transform="translate(31.717187 429.319219)scale(0.1 -0.1)">
       <defs>
        <path d="M 12.40625 8.296875 
L 28.515625 8.296875 
L 28.515625 63.921875 
L 10.984375 60.40625 
L 10.984375 69.390625 
L 28.421875 72.90625 
L 38.28125 72.90625 
L 38.28125 8.296875 
L 54.390625 8.296875 
L 54.390625 0 
L 12.40625 0 
z
" id="DejaVuSans-49"/>
       </defs>
       <use xlink:href="#DejaVuSans-8722"/>
       <use x="83.789062" xlink:href="#DejaVuSans-49"/>
       <use x="147.412109" xlink:href="#DejaVuSans-46"/>
       <use x="179.199219" xlink:href="#DejaVuSans-53"/>
      </g>
     </g>
    </g>
    <g id="ytick_6">
     <g id="line2d_7">
      <g>
       <use style="stroke:#000000;stroke-width:0.8;" x="63" xlink:href="#m1bc32655c2" y="387.72"/>
      </g>
     </g>
     <g id="text_7">
      <!-- 1.0 -->
      <g transform="translate(31.717187 391.519219)scale(0.1 -0.1)">
       <use xlink:href="#DejaVuSans-8722"/>
       <use x="83.789062" xlink:href="#DejaVuSans-49"/>
       <use x="147.412109" xlink:href="#DejaVuSans-46"/>
       <use x="179.199219" xlink:href="#DejaVuSans-48"/>
      </g>
     </g>
    </g>
    <g id="ytick_7">
     <g id="line2d_8">
      <g>
       <use style="stroke:#000000;stroke-width:0.8;" x="63" xlink:href="#m1bc32655c2" y="349.92"/>
      </g>
     </g>
     <g id="text_8">
      <!-- 0.5 -->
      <g transform="translate(31.717187 353.719219)scale(0.1 -0.1)">
       <use xlink:href="#DejaVuSans-8722"/>
       <use x="83.789062" xlink:href="#DejaVuSans-48"/>
       <use x="147.412109" xlink:href="#DejaVuSans-46"/>
       <use x="179.199219" xlink:href="#DejaVuSans-53"/>
      </g>
     </g>
    </g>
    <g id="ytick_8">
     <g id="line2d_9">
      <g>
       <use style="stroke:#000000;stroke-width:0.8;" x="63" xlink:href="#m1bc32655c2" y="312.12"/>
      </g>
     </g>
     <g id="text_9">
      <!-- 0.0 -->
      <g transform="translate(40.096875 315.919219)scale(0.1 -0.1)">
       <use xlink:href="#DejaVuSans-48"/>
       <use x="63.623047" xlink:href="#DejaVuSans-46"/>
       <use x="95.410156" xlink:href="#DejaVuSans-48"/>
      </g>
     </g>
    </g>
    <g id="ytick_9">
     <g id="line2d_10">
      <g>
       <use style="stroke:#000000;stroke-width:0.8;" x="63" xlink:href="#m1bc32655c2" y="274.32"/>
      </g>
     </g>
     <g id="text_10">
      <!-- 0.5 -->
      <g transform="translate(40.096875 278.119219)scale(0.1 -0.1)">
       <use xlink:href="#DejaVuSans-48"/>
       <use x="63.623047" xlink:href="#DejaVuSans-46"/>
       <use x="95.410156" xlink:href="#DejaVuSans-53"/>
      </g>
     </g>
    </g>
    <g id="ytick_10">
     <g id="line2d_11">
      <g>
       <use style="stroke:#000000;stroke-width:0.8;" x="63" xlink:href="#m1bc32655c2" y="236.52"/>
      </g>
     </g>
     <g id="text_11">
      <!-- 1.0 -->
      <g transform="translate(40.096875 240.319219)scale(0.1 -0.1)">
       <use xlink:href="#DejaVuSans-49"/>
       <use x="63.623047" xlink:href="#DejaVuSans-46"/>
       <use x="95.410156" xlink:href="#DejaVuSans-48"/>
      </g>
     </g>
    </g>
    <g id="ytick_11">
     <g id="line2d_12">
      <g>
       <use style="stroke:#000000;stroke-width:0.8;" x="63" xlink:href="#m1bc32655c2" y="198.72"/>
      </g>
     </g>
     <g id="text_12">
      <!-- 1.5 -->
      <g transform="translate(40.096875 202.519219)scale(0.1 -0.1)">
       <use xlink:href="#DejaVuSans-49"/>
       <use x="63.623047" xlink:href="#DejaVuSans-46"/>
       <use x="95.410156" xlink:href="#DejaVuSans-53"/>
      </g>
     </g>
    </g>
    <g id="ytick_12">
     <g id="line2d_13">
      <g>
       <use style="stroke:#000000;stroke-width:0.8;" x="63" xlink:href="#m1bc32655c2" y="160.92"/>
      </g>
     </g>
     <g id="text_13">
      <!-- 2.0 -->
      <g transform="translate(40.096875 164.719219)scale(0.1 -0.1)">
       <use xlink:href="#DejaVuSans-50"/>
       <use x="63.623047" xlink:href="#DejaVuSans-46"/>
       <use x="95.410156" xlink:href="#DejaVuSans-48"/>
      </g>
     </g>
    </g>
    <g id="ytick_13">
     <g id="line2d_14">
      <g>
       <use style="stroke:#000000;stroke-width:0.8;" x="63" xlink:href="#m1bc32655c2" y="123.12"/>
      </g>
     </g>
     <g id="text_14">
      <!-- 2.5 -->
      <g transform="translate(40.096875 126.919219)scale(0.1 -0.1)">
       <use xlink:href="#DejaVuSans-50"/>
       <use x="63.623047" xlink:href="#DejaVuSans-46"/>
       <use x="95.410156" xlink:href="#DejaVuSans-53"/>
      </g>
     </g>
    </g>
    <g id="ytick_14">
     <g id="line2d_15">
      <g>
       <use style="stroke:#000000;stroke-width:0.8;" x="63" xlink:href="#m1bc32655c2" y="85.32"/>
      </g>
     </g>
     <g id="text_15">
      <!-- 3.0 -->
      <g transform="translate(40.096875 89.119219)scale(0.1 -0.1)">
       <use xlink:href="#DejaVuSans-51"/>
       <use x="63.623047" xlink:href="#DejaVuSans-46"/>
       <use x="95.410156" xlink:href="#DejaVuSans-48"/>
      </g>
     </g>
    </g>
    <g id="text_16">
     <!-- LogOdds -->
     <g transform="translate(25.6375 349.061094)rotate(-90)scale(0.1 -0.1)">
      <defs>
       <path d="M 9.8125 72.90625 
L 19.671875 72.90625 
L 19.671875 8.296875 
L 55.171875 8.296875 
L 55.171875 0 
L 9.8125 0 
z
" id="DejaVuSans-76"/>
       <path d="M 30.609375 48.390625 
Q 23.390625 48.390625 19.1875 42.75 
Q 14.984375 37.109375 14.984375 27.296875 
Q 14.984375 17.484375 19.15625 11.84375 
Q 23.34375 6.203125 30.609375 6.203125 
Q 37.796875 6.203125 41.984375 11.859375 
Q 46.1875 17.53125 46.1875 27.296875 
Q 46.1875 37.015625 41.984375 42.703125 
Q 37.796875 48.390625 30.609375 48.390625 
z
M 30.609375 56 
Q 42.328125 56 49.015625 48.375 
Q 55.71875 40.765625 55.71875 27.296875 
Q 55.71875 13.875 49.015625 6.21875 
Q 42.328125 -1.421875 30.609375 -1.421875 
Q 18.84375 -1.421875 12.171875 6.21875 
Q 5.515625 13.875 5.515625 27.296875 
Q 5.515625 40.765625 12.171875 48.375 
Q 18.84375 56 30.609375 56 
z
" id="DejaVuSans-111"/>
       <path d="M 45.40625 27.984375 
Q 45.40625 37.75 41.375 43.109375 
Q 37.359375 48.484375 30.078125 48.484375 
Q 22.859375 48.484375 18.828125 43.109375 
Q 14.796875 37.75 14.796875 27.984375 
Q 14.796875 18.265625 18.828125 12.890625 
Q 22.859375 7.515625 30.078125 7.515625 
Q 37.359375 7.515625 41.375 12.890625 
Q 45.40625 18.265625 45.40625 27.984375 
z
M 54.390625 6.78125 
Q 54.390625 -7.171875 48.1875 -13.984375 
Q 42 -20.796875 29.203125 -20.796875 
Q 24.46875 -20.796875 20.265625 -20.09375 
Q 16.0625 -19.390625 12.109375 -17.921875 
L 12.109375 -9.1875 
Q 16.0625 -11.328125 19.921875 -12.34375 
Q 23.78125 -13.375 27.78125 -13.375 
Q 36.625 -13.375 41.015625 -8.765625 
Q 45.40625 -4.15625 45.40625 5.171875 
L 45.40625 9.625 
Q 42.625 4.78125 38.28125 2.390625 
Q 33.9375 0 27.875 0 
Q 17.828125 0 11.671875 7.65625 
Q 5.515625 15.328125 5.515625 27.984375 
Q 5.515625 40.671875 11.671875 48.328125 
Q 17.828125 56 27.875 56 
Q 33.9375 56 38.28125 53.609375 
Q 42.625 51.21875 45.40625 46.390625 
L 45.40625 54.6875 
L 54.390625 54.6875 
z
" id="DejaVuSans-103"/>
       <path d="M 39.40625 66.21875 
Q 28.65625 66.21875 22.328125 58.203125 
Q 16.015625 50.203125 16.015625 36.375 
Q 16.015625 22.609375 22.328125 14.59375 
Q 28.65625 6.59375 39.40625 6.59375 
Q 50.140625 6.59375 56.421875 14.59375 
Q 62.703125 22.609375 62.703125 36.375 
Q 62.703125 50.203125 56.421875 58.203125 
Q 50.140625 66.21875 39.40625 66.21875 
z
M 39.40625 74.21875 
Q 54.734375 74.21875 63.90625 63.9375 
Q 73.09375 53.65625 73.09375 36.375 
Q 73.09375 19.140625 63.90625 8.859375 
Q 54.734375 -1.421875 39.40625 -1.421875 
Q 24.03125 -1.421875 14.8125 8.828125 
Q 5.609375 19.09375 5.609375 36.375 
Q 5.609375 53.65625 14.8125 63.9375 
Q 24.03125 74.21875 39.40625 74.21875 
z
" id="DejaVuSans-79"/>
       <path d="M 45.40625 46.390625 
L 45.40625 75.984375 
L 54.390625 75.984375 
L 54.390625 0 
L 45.40625 0 
L 45.40625 8.203125 
Q 42.578125 3.328125 38.25 0.953125 
Q 33.9375 -1.421875 27.875 -1.421875 
Q 17.96875 -1.421875 11.734375 6.484375 
Q 5.515625 14.40625 5.515625 27.296875 
Q 5.515625 40.1875 11.734375 48.09375 
Q 17.96875 56 27.875 56 
Q 33.9375 56 38.25 53.625 
Q 42.578125 51.265625 45.40625 46.390625 
z
M 14.796875 27.296875 
Q 14.796875 17.390625 18.875 11.75 
Q 22.953125 6.109375 30.078125 6.109375 
Q 37.203125 6.109375 41.296875 11.75 
Q 45.40625 17.390625 45.40625 27.296875 
Q 45.40625 37.203125 41.296875 42.84375 
Q 37.203125 48.484375 30.078125 48.484375 
Q 22.953125 48.484375 18.875 42.84375 
Q 14.796875 37.203125 14.796875 27.296875 
z
" id="DejaVuSans-100"/>
       <path d="M 44.28125 53.078125 
L 44.28125 44.578125 
Q 40.484375 46.53125 36.375 47.5 
Q 32.28125 48.484375 27.875 48.484375 
Q 21.1875 48.484375 17.84375 46.4375 
Q 14.5 44.390625 14.5 40.28125 
Q 14.5 37.15625 16.890625 35.375 
Q 19.28125 33.59375 26.515625 31.984375 
L 29.59375 31.296875 
Q 39.15625 29.25 43.1875 25.515625 
Q 47.21875 21.78125 47.21875 15.09375 
Q 47.21875 7.46875 41.1875 3.015625 
Q 35.15625 -1.421875 24.609375 -1.421875 
Q 20.21875 -1.421875 15.453125 -0.5625 
Q 10.6875 0.296875 5.421875 2 
L 5.421875 11.28125 
Q 10.40625 8.6875 15.234375 7.390625 
Q 20.0625 6.109375 24.8125 6.109375 
Q 31.15625 6.109375 34.5625 8.28125 
Q 37.984375 10.453125 37.984375 14.40625 
Q 37.984375 18.0625 35.515625 20.015625 
Q 33.0625 21.96875 24.703125 23.78125 
L 21.578125 24.515625 
Q 13.234375 26.265625 9.515625 29.90625 
Q 5.8125 33.546875 5.8125 39.890625 
Q 5.8125 47.609375 11.28125 51.796875 
Q 16.75 56 26.8125 56 
Q 31.78125 56 36.171875 55.265625 
Q 40.578125 54.546875 44.28125 53.078125 
z
" id="DejaVuSans-115"/>
      </defs>
      <use xlink:href="#DejaVuSans-76"/>
      <use x="53.962891" xlink:href="#DejaVuSans-111"/>
      <use x="115.144531" xlink:href="#DejaVuSans-103"/>
      <use x="178.621094" xlink:href="#DejaVuSans-79"/>
      <use x="257.332031" xlink:href="#DejaVuSans-100"/>
      <use x="320.808594" xlink:href="#DejaVuSans-100"/>
      <use x="384.285156" xlink:href="#DejaVuSans-115"/>
     </g>
    </g>
   </g>
   <g id="line2d_16">
    <path clip-path="url(#p2c5eddaeba)" d="M 229.005 304.775702 
L 287.595 304.775702 
L 287.595 254.406232 
L 229.005 254.406232 
L 229.005 304.775702 
" style="fill:none;stroke:#000000;stroke-linecap:square;"/>
   </g>
   <g id="line2d_17">
    <path clip-path="url(#p2c5eddaeba)" d="M 258.3 304.775702 
L 258.3 365.38004 
" style="fill:none;stroke:#000000;stroke-linecap:square;"/>
   </g>
   <g id="line2d_18">
    <path clip-path="url(#p2c5eddaeba)" d="M 258.3 254.406232 
L 258.3 183.599582 
" style="fill:none;stroke:#000000;stroke-linecap:square;"/>
   </g>
   <g id="line2d_19">
    <path clip-path="url(#p2c5eddaeba)" d="M 243.6525 365.38004 
L 272.9475 365.38004 
" style="fill:none;stroke:#000000;stroke-linecap:square;"/>
   </g>
   <g id="line2d_20">
    <path clip-path="url(#p2c5eddaeba)" d="M 243.6525 183.599582 
L 272.9475 183.599582 
" style="fill:none;stroke:#000000;stroke-linecap:square;"/>
   </g>
   <g id="line2d_21">
    <path clip-path="url(#p2c5eddaeba)" d="M 229.005 276.276687 
L 287.595 276.276687 
" style="fill:none;stroke:#ff7f0e;stroke-linecap:square;"/>
   </g>
   <g id="patch_3">
    <path d="M 63 576.72 
L 63 77.76 
" style="fill:none;stroke:#000000;stroke-linecap:square;stroke-linejoin:miter;stroke-width:0.8;"/>
   </g>
   <g id="patch_4">
    <path d="M 453.6 576.72 
L 453.6 77.76 
" style="fill:none;stroke:#000000;stroke-linecap:square;stroke-linejoin:miter;stroke-width:0.8;"/>
   </g>
   <g id="patch_5">
    <path d="M 63 576.72 
L 453.6 576.72 
" style="fill:none;stroke:#000000;stroke-linecap:square;stroke-linejoin:miter;stroke-width:0.8;"/>
   </g>
   <g id="patch_6">
    <path d="M 63 77.76 
L 453.6 77.76 
" style="fill:none;stroke:#000000;stroke-linecap:square;stroke-linejoin:miter;stroke-width:0.8;"/>
   </g>
   <g id="text_17">
    <!-- 0.0 -->
    <g style="fill:#2f4f4f;" transform="translate(244.258374 248.727777)scale(0.1 -0.1)">
     <use xlink:href="#DejaVuSans-48"/>
     <use x="63.623047" xlink:href="#DejaVuSans-46"/>
     <use x="95.410156" xlink:href="#DejaVuSans-48"/>
    </g>
   </g>
   <g id="text_18">
    <!-- 1 -->
    <g style="fill:#556b2f;" transform="translate(213.116921 271.442843)scale(0.1 -0.1)">
     <use xlink:href="#DejaVuSans-49"/>
    </g>
   </g>
   <g id="text_19">
    <!-- 2 -->
    <g style="fill:#8b4513;" transform="translate(240.026257 298.561217)scale(0.1 -0.1)">
     <use xlink:href="#DejaVuSans-50"/>
    </g>
   </g>
   <g id="text_20">
    <!-- 3 -->
    <g style="fill:#2e8b57;" transform="translate(256.179526 318.427904)scale(0.1 -0.1)">
     <use xlink:href="#DejaVuSans-51"/>
    </g>
   </g>
   <g id="text_21">
    <!-- 4.0 -->
    <g style="fill:#228b22;" transform="translate(229.112669 306.077606)scale(0.1 -0.1)">
     <defs>
      <path d="M 37.796875 64.3125 
L 12.890625 25.390625 
L 37.796875 25.390625 
z
M 35.203125 72.90625 
L 47.609375 72.90625 
L 47.609375 25.390625 
L 58.015625 25.390625 
L 58.015625 17.1875 
L 47.609375 17.1875 
L 47.609375 0 
L 37.796875 0 
L 37.796875 17.1875 
L 4.890625 17.1875 
L 4.890625 26.703125 
z
" id="DejaVuSans-52"/>
     </defs>
     <use xlink:href="#DejaVuSans-52"/>
     <use x="63.623047" xlink:href="#DejaVuSans-46"/>
     <use x="95.410156" xlink:href="#DejaVuSans-48"/>
    </g>
   </g>
   <g id="text_22">
    <!-- 5.0 -->
    <g style="fill:#708090;" transform="translate(267.467232 364.62404)scale(0.1 -0.1)">
     <use xlink:href="#DejaVuSans-53"/>
     <use x="63.623047" xlink:href="#DejaVuSans-46"/>
     <use x="95.410156" xlink:href="#DejaVuSans-48"/>
    </g>
   </g>
   <g id="text_23">
    <!-- 6.0 -->
    <g style="fill:#8b0000;" transform="translate(243.043772 306.781118)scale(0.1 -0.1)">
     <defs>
      <path d="M 33.015625 40.375 
Q 26.375 40.375 22.484375 35.828125 
Q 18.609375 31.296875 18.609375 23.390625 
Q 18.609375 15.53125 22.484375 10.953125 
Q 26.375 6.390625 33.015625 6.390625 
Q 39.65625 6.390625 43.53125 10.953125 
Q 47.40625 15.53125 47.40625 23.390625 
Q 47.40625 31.296875 43.53125 35.828125 
Q 39.65625 40.375 33.015625 40.375 
z
M 52.59375 71.296875 
L 52.59375 62.3125 
Q 48.875 64.0625 45.09375 64.984375 
Q 41.3125 65.921875 37.59375 65.921875 
Q 27.828125 65.921875 22.671875 59.328125 
Q 17.53125 52.734375 16.796875 39.40625 
Q 19.671875 43.65625 24.015625 45.921875 
Q 28.375 48.1875 33.59375 48.1875 
Q 44.578125 48.1875 50.953125 41.515625 
Q 57.328125 34.859375 57.328125 23.390625 
Q 57.328125 12.15625 50.6875 5.359375 
Q 44.046875 -1.421875 33.015625 -1.421875 
Q 20.359375 -1.421875 13.671875 8.265625 
Q 6.984375 17.96875 6.984375 36.375 
Q 6.984375 53.65625 15.1875 63.9375 
Q 23.390625 74.21875 37.203125 74.21875 
Q 40.921875 74.21875 44.703125 73.484375 
Q 48.484375 72.75 52.59375 71.296875 
z
" id="DejaVuSans-54"/>
     </defs>
     <use xlink:href="#DejaVuSans-54"/>
     <use x="63.623047" xlink:href="#DejaVuSans-46"/>
     <use x="95.410156" xlink:href="#DejaVuSans-48"/>
    </g>
   </g>
   <g id="text_24">
    <!-- 7 -->
    <g style="fill:#808000;" transform="translate(261.354702 303.923659)scale(0.1 -0.1)">
     <defs>
      <path d="M 8.203125 72.90625 
L 55.078125 72.90625 
L 55.078125 68.703125 
L 28.609375 0 
L 18.3125 0 
L 43.21875 64.59375 
L 8.203125 64.59375 
z
" id="DejaVuSans-55"/>
     </defs>
     <use xlink:href="#DejaVuSans-55"/>
    </g>
   </g>
   <g id="text_25">
    <!-- 8 -->
    <g style="fill:#483d8b;" transform="translate(261.449652 252.539745)scale(0.1 -0.1)">
     <defs>
      <path d="M 31.78125 34.625 
Q 24.75 34.625 20.71875 30.859375 
Q 16.703125 27.09375 16.703125 20.515625 
Q 16.703125 13.921875 20.71875 10.15625 
Q 24.75 6.390625 31.78125 6.390625 
Q 38.8125 6.390625 42.859375 10.171875 
Q 46.921875 13.96875 46.921875 20.515625 
Q 46.921875 27.09375 42.890625 30.859375 
Q 38.875 34.625 31.78125 34.625 
z
M 21.921875 38.8125 
Q 15.578125 40.375 12.03125 44.71875 
Q 8.5 49.078125 8.5 55.328125 
Q 8.5 64.0625 14.71875 69.140625 
Q 20.953125 74.21875 31.78125 74.21875 
Q 42.671875 74.21875 48.875 69.140625 
Q 55.078125 64.0625 55.078125 55.328125 
Q 55.078125 49.078125 51.53125 44.71875 
Q 48 40.375 41.703125 38.8125 
Q 48.828125 37.15625 52.796875 32.3125 
Q 56.78125 27.484375 56.78125 20.515625 
Q 56.78125 9.90625 50.3125 4.234375 
Q 43.84375 -1.421875 31.78125 -1.421875 
Q 19.734375 -1.421875 13.25 4.234375 
Q 6.78125 9.90625 6.78125 20.515625 
Q 6.78125 27.484375 10.78125 32.3125 
Q 14.796875 37.15625 21.921875 38.8125 
z
M 18.3125 54.390625 
Q 18.3125 48.734375 21.84375 45.5625 
Q 25.390625 42.390625 31.78125 42.390625 
Q 38.140625 42.390625 41.71875 45.5625 
Q 45.3125 48.734375 45.3125 54.390625 
Q 45.3125 60.0625 41.71875 63.234375 
Q 38.140625 66.40625 31.78125 66.40625 
Q 25.390625 66.40625 21.84375 63.234375 
Q 18.3125 60.0625 18.3125 54.390625 
z
" id="DejaVuSans-56"/>
     </defs>
     <use xlink:href="#DejaVuSans-56"/>
    </g>
   </g>
   <g id="text_26">
    <!-- 9.0 -->
    <g style="fill:#008080;" transform="translate(281.98117 325.885459)scale(0.1 -0.1)">
     <defs>
      <path d="M 10.984375 1.515625 
L 10.984375 10.5 
Q 14.703125 8.734375 18.5 7.8125 
Q 22.3125 6.890625 25.984375 6.890625 
Q 35.75 6.890625 40.890625 13.453125 
Q 46.046875 20.015625 46.78125 33.40625 
Q 43.953125 29.203125 39.59375 26.953125 
Q 35.25 24.703125 29.984375 24.703125 
Q 19.046875 24.703125 12.671875 31.3125 
Q 6.296875 37.9375 6.296875 49.421875 
Q 6.296875 60.640625 12.9375 67.421875 
Q 19.578125 74.21875 30.609375 74.21875 
Q 43.265625 74.21875 49.921875 64.515625 
Q 56.59375 54.828125 56.59375 36.375 
Q 56.59375 19.140625 48.40625 8.859375 
Q 40.234375 -1.421875 26.421875 -1.421875 
Q 22.703125 -1.421875 18.890625 -0.6875 
Q 15.09375 0.046875 10.984375 1.515625 
z
M 30.609375 32.421875 
Q 37.25 32.421875 41.125 36.953125 
Q 45.015625 41.5 45.015625 49.421875 
Q 45.015625 57.28125 41.125 61.84375 
Q 37.25 66.40625 30.609375 66.40625 
Q 23.96875 66.40625 20.09375 61.84375 
Q 16.21875 57.28125 16.21875 49.421875 
Q 16.21875 41.5 20.09375 36.953125 
Q 23.96875 32.421875 30.609375 32.421875 
z
" id="DejaVuSans-57"/>
     </defs>
     <use xlink:href="#DejaVuSans-57"/>
     <use x="63.623047" xlink:href="#DejaVuSans-46"/>
     <use x="95.410156" xlink:href="#DejaVuSans-48"/>
    </g>
   </g>
   <g id="text_27">
    <!-- 10.0 -->
    <g style="fill:#b8860b;" transform="translate(234.16659 257.264745)scale(0.1 -0.1)">
     <use xlink:href="#DejaVuSans-49"/>
     <use x="63.623047" xlink:href="#DejaVuSans-48"/>
     <use x="127.246094" xlink:href="#DejaVuSans-46"/>
     <use x="159.033203" xlink:href="#DejaVuSans-48"/>
    </g>
   </g>
   <g id="text_28">
    <!-- 11 -->
    <g style="fill:#4682b4;" transform="translate(238.454672 246.888142)scale(0.1 -0.1)">
     <use xlink:href="#DejaVuSans-49"/>
     <use x="63.623047" xlink:href="#DejaVuSans-49"/>
    </g>
   </g>
   <g id="text_29">
    <!-- 12 -->
    <g style="fill:#d2691e;" transform="translate(281.289544 281.608816)scale(0.1 -0.1)">
     <use xlink:href="#DejaVuSans-49"/>
     <use x="63.623047" xlink:href="#DejaVuSans-50"/>
    </g>
   </g>
   <g id="text_30">
    <!-- 13 -->
    <g style="fill:#9acd32;" transform="translate(251.559106 304.927969)scale(0.1 -0.1)">
     <use xlink:href="#DejaVuSans-49"/>
     <use x="63.623047" xlink:href="#DejaVuSans-51"/>
    </g>
   </g>
   <g id="text_31">
    <!-- 14.0 -->
    <g style="fill:#32cd32;" transform="translate(281.330218 321.332116)scale(0.1 -0.1)">
     <use xlink:href="#DejaVuSans-49"/>
     <use x="63.623047" xlink:href="#DejaVuSans-52"/>
     <use x="127.246094" xlink:href="#DejaVuSans-46"/>
     <use x="159.033203" xlink:href="#DejaVuSans-48"/>
    </g>
   </g>
   <g id="text_32">
    <!-- 15 -->
    <g style="fill:#8fbc8f;" transform="translate(230.069896 274.328929)scale(0.1 -0.1)">
     <use xlink:href="#DejaVuSans-49"/>
     <use x="63.623047" xlink:href="#DejaVuSans-53"/>
    </g>
   </g>
   <g id="text_33">
    <!-- 16 -->
    <g style="fill:#800080;" transform="translate(262.522245 232.974887)scale(0.1 -0.1)">
     <use xlink:href="#DejaVuSans-49"/>
     <use x="63.623047" xlink:href="#DejaVuSans-54"/>
    </g>
   </g>
   <g id="text_34">
    <!-- 17.0 -->
    <g style="fill:#b03060;" transform="translate(272.047778 303.381362)scale(0.1 -0.1)">
     <use xlink:href="#DejaVuSans-49"/>
     <use x="63.623047" xlink:href="#DejaVuSans-55"/>
     <use x="127.246094" xlink:href="#DejaVuSans-46"/>
     <use x="159.033203" xlink:href="#DejaVuSans-48"/>
    </g>
   </g>
   <g id="text_35">
    <!-- 18 -->
    <g style="fill:#9932cc;" transform="translate(269.645407 253.165545)scale(0.1 -0.1)">
     <use xlink:href="#DejaVuSans-49"/>
     <use x="63.623047" xlink:href="#DejaVuSans-56"/>
    </g>
   </g>
   <g id="text_36">
    <!-- 19.0 -->
    <g style="fill:#ff4500;" transform="translate(234.139637 338.916178)scale(0.1 -0.1)">
     <use xlink:href="#DejaVuSans-49"/>
     <use x="63.623047" xlink:href="#DejaVuSans-57"/>
     <use x="127.246094" xlink:href="#DejaVuSans-46"/>
     <use x="159.033203" xlink:href="#DejaVuSans-48"/>
    </g>
   </g>
   <g id="text_37">
    <!-- 20.0 -->
    <g style="fill:#00ced1;" transform="translate(294.571391 261.517563)scale(0.1 -0.1)">
     <use xlink:href="#DejaVuSans-50"/>
     <use x="63.623047" xlink:href="#DejaVuSans-48"/>
     <use x="127.246094" xlink:href="#DejaVuSans-46"/>
     <use x="159.033203" xlink:href="#DejaVuSans-48"/>
    </g>
   </g>
   <g id="text_38">
    <!-- 21.0 -->
    <g style="fill:#ff8c00;" transform="translate(272.706748 238.360915)scale(0.1 -0.1)">
     <use xlink:href="#DejaVuSans-50"/>
     <use x="63.623047" xlink:href="#DejaVuSans-49"/>
     <use x="127.246094" xlink:href="#DejaVuSans-46"/>
     <use x="159.033203" xlink:href="#DejaVuSans-48"/>
    </g>
   </g>
   <g id="text_39">
    <!-- 22.0 -->
    <g style="fill:#ffd700;" transform="translate(267.592504 235.19943)scale(0.1 -0.1)">
     <use xlink:href="#DejaVuSans-50"/>
     <use x="63.623047" xlink:href="#DejaVuSans-50"/>
     <use x="127.246094" xlink:href="#DejaVuSans-46"/>
     <use x="159.033203" xlink:href="#DejaVuSans-48"/>
    </g>
   </g>
   <g id="text_40">
    <!-- 23 -->
    <g style="fill:#0000cd;" transform="translate(242.188857 271.546483)scale(0.1 -0.1)">
     <use xlink:href="#DejaVuSans-50"/>
     <use x="63.623047" xlink:href="#DejaVuSans-51"/>
    </g>
   </g>
   <g id="text_41">
    <!-- 24 -->
    <g style="fill:#deb887;" transform="translate(254.804071 300.575968)scale(0.1 -0.1)">
     <use xlink:href="#DejaVuSans-50"/>
     <use x="63.623047" xlink:href="#DejaVuSans-52"/>
    </g>
   </g>
   <g id="text_42">
    <!-- 25 -->
    <g style="fill:#00ff00;" transform="translate(271.062592 269.483215)scale(0.1 -0.1)">
     <use xlink:href="#DejaVuSans-50"/>
     <use x="63.623047" xlink:href="#DejaVuSans-53"/>
    </g>
   </g>
   <g id="text_43">
    <!-- 26.0 -->
    <g style="fill:#00fa9a;" transform="translate(280.666943 269.85769)scale(0.1 -0.1)">
     <use xlink:href="#DejaVuSans-50"/>
     <use x="63.623047" xlink:href="#DejaVuSans-54"/>
     <use x="127.246094" xlink:href="#DejaVuSans-46"/>
     <use x="159.033203" xlink:href="#DejaVuSans-48"/>
    </g>
   </g>
   <g id="text_44">
    <!-- 27 -->
    <g style="fill:#dc143c;" transform="translate(266.339672 283.282014)scale(0.1 -0.1)">
     <use xlink:href="#DejaVuSans-50"/>
     <use x="63.623047" xlink:href="#DejaVuSans-55"/>
    </g>
   </g>
   <g id="text_45">
    <!-- 28 -->
    <g style="fill:#00bfff;" transform="translate(274.108282 286.867474)scale(0.1 -0.1)">
     <use xlink:href="#DejaVuSans-50"/>
     <use x="63.623047" xlink:href="#DejaVuSans-56"/>
    </g>
   </g>
   <g id="text_46">
    <!-- 29 -->
    <g style="fill:#f4a460;" transform="translate(289.220485 293.13527)scale(0.1 -0.1)">
     <use xlink:href="#DejaVuSans-50"/>
     <use x="63.623047" xlink:href="#DejaVuSans-57"/>
    </g>
   </g>
   <g id="text_47">
    <!-- 30 -->
    <g style="fill:#0000ff;" transform="translate(257.380944 253.918148)scale(0.1 -0.1)">
     <use xlink:href="#DejaVuSans-51"/>
     <use x="63.623047" xlink:href="#DejaVuSans-48"/>
    </g>
   </g>
   <g id="text_48">
    <!-- 31 -->
    <g style="fill:#a020f0;" transform="translate(257.337355 291.369889)scale(0.1 -0.1)">
     <use xlink:href="#DejaVuSans-51"/>
     <use x="63.623047" xlink:href="#DejaVuSans-49"/>
    </g>
   </g>
   <g id="text_49">
    <!-- 32 -->
    <g style="fill:#adff2f;" transform="translate(273.489197 202.620372)scale(0.1 -0.1)">
     <use xlink:href="#DejaVuSans-51"/>
     <use x="63.623047" xlink:href="#DejaVuSans-50"/>
    </g>
   </g>
   <g id="text_50">
    <!-- 33.0 -->
    <g style="fill:#ff6347;" transform="translate(260.622164 269.996871)scale(0.1 -0.1)">
     <use xlink:href="#DejaVuSans-51"/>
     <use x="63.623047" xlink:href="#DejaVuSans-51"/>
     <use x="127.246094" xlink:href="#DejaVuSans-46"/>
     <use x="159.033203" xlink:href="#DejaVuSans-48"/>
    </g>
   </g>
   <g id="text_51">
    <!-- 34 -->
    <g style="fill:#da70d6;" transform="translate(243.787871 340.756341)scale(0.1 -0.1)">
     <use xlink:href="#DejaVuSans-51"/>
     <use x="63.623047" xlink:href="#DejaVuSans-52"/>
    </g>
   </g>
   <g id="text_52">
    <!-- 35 -->
    <g style="fill:#b0c4de;" transform="translate(256.281306 256.259096)scale(0.1 -0.1)">
     <use xlink:href="#DejaVuSans-51"/>
     <use x="63.623047" xlink:href="#DejaVuSans-53"/>
    </g>
   </g>
   <g id="text_53">
    <!-- 47.1 -->
    <g style="fill:#ff00ff;" transform="translate(271.721108 320.327629)scale(0.1 -0.1)">
     <use xlink:href="#DejaVuSans-52"/>
     <use x="63.623047" xlink:href="#DejaVuSans-55"/>
     <use x="127.246094" xlink:href="#DejaVuSans-46"/>
     <use x="159.033203" xlink:href="#DejaVuSans-49"/>
    </g>
   </g>
   <g id="text_54">
    <!-- 36.0 -->
    <g style="fill:#f0e68c;" transform="translate(253.525612 280.133339)scale(0.1 -0.1)">
     <use xlink:href="#DejaVuSans-51"/>
     <use x="63.623047" xlink:href="#DejaVuSans-54"/>
     <use x="127.246094" xlink:href="#DejaVuSans-46"/>
     <use x="159.033203" xlink:href="#DejaVuSans-48"/>
    </g>
   </g>
   <g id="text_55">
    <!-- 37 -->
    <g style="fill:#fa8072;" transform="translate(249.908633 277.054314)scale(0.1 -0.1)">
     <use xlink:href="#DejaVuSans-51"/>
     <use x="63.623047" xlink:href="#DejaVuSans-55"/>
    </g>
   </g>
   <g id="text_56">
    <!-- 38.0 -->
    <g style="fill:#ffff54;" transform="translate(271.97943 238.014036)scale(0.1 -0.1)">
     <use xlink:href="#DejaVuSans-51"/>
     <use x="63.623047" xlink:href="#DejaVuSans-56"/>
     <use x="127.246094" xlink:href="#DejaVuSans-46"/>
     <use x="159.033203" xlink:href="#DejaVuSans-48"/>
    </g>
   </g>
   <g id="text_57">
    <!-- 39.0 -->
    <g style="fill:#6495ed;" transform="translate(246.752241 326.026439)scale(0.1 -0.1)">
     <use xlink:href="#DejaVuSans-51"/>
     <use x="63.623047" xlink:href="#DejaVuSans-57"/>
     <use x="127.246094" xlink:href="#DejaVuSans-46"/>
     <use x="159.033203" xlink:href="#DejaVuSans-48"/>
    </g>
   </g>
   <g id="text_58">
    <!-- 40 -->
    <g style="fill:#dda0dd;" transform="translate(275.363227 263.332909)scale(0.1 -0.1)">
     <use xlink:href="#DejaVuSans-52"/>
     <use x="63.623047" xlink:href="#DejaVuSans-48"/>
    </g>
   </g>
   <g id="text_59">
    <!-- 41.0 -->
    <g style="fill:#90ee90;" transform="translate(238.530057 275.625734)scale(0.1 -0.1)">
     <use xlink:href="#DejaVuSans-52"/>
     <use x="63.623047" xlink:href="#DejaVuSans-49"/>
     <use x="127.246094" xlink:href="#DejaVuSans-46"/>
     <use x="159.033203" xlink:href="#DejaVuSans-48"/>
    </g>
   </g>
   <g id="text_60">
    <!-- 41.1 -->
    <g style="fill:#7b68ee;" transform="translate(247.198258 272.76811)scale(0.1 -0.1)">
     <use xlink:href="#DejaVuSans-52"/>
     <use x="63.623047" xlink:href="#DejaVuSans-49"/>
     <use x="127.246094" xlink:href="#DejaVuSans-46"/>
     <use x="159.033203" xlink:href="#DejaVuSans-49"/>
    </g>
   </g>
   <g id="text_61">
    <!-- 42 -->
    <g style="fill:#afeeee;" transform="translate(280.016956 296.958524)scale(0.1 -0.1)">
     <use xlink:href="#DejaVuSans-52"/>
     <use x="63.623047" xlink:href="#DejaVuSans-50"/>
    </g>
   </g>
   <g id="text_62">
    <!-- 39.1 -->
    <g style="fill:#7fffd4;" transform="translate(263.237219 329.886107)scale(0.1 -0.1)">
     <use xlink:href="#DejaVuSans-51"/>
     <use x="63.623047" xlink:href="#DejaVuSans-57"/>
     <use x="127.246094" xlink:href="#DejaVuSans-46"/>
     <use x="159.033203" xlink:href="#DejaVuSans-49"/>
    </g>
   </g>
   <g id="text_63">
    <!-- 43 -->
    <g style="fill:#ff69b4;" transform="translate(256.308475 274.108495)scale(0.1 -0.1)">
     <use xlink:href="#DejaVuSans-52"/>
     <use x="63.623047" xlink:href="#DejaVuSans-51"/>
    </g>
   </g>
   <g id="text_64">
    <!-- 38.1 -->
    <g style="fill:#ffb6c1;" transform="translate(280.724738 337.248173)scale(0.1 -0.1)">
     <use xlink:href="#DejaVuSans-51"/>
     <use x="63.623047" xlink:href="#DejaVuSans-56"/>
     <use x="127.246094" xlink:href="#DejaVuSans-46"/>
     <use x="159.033203" xlink:href="#DejaVuSans-49"/>
    </g>
   </g>
   <g id="text_65">
    <!-- 44 -->
    <g style="fill:#2f4f4f;" transform="translate(233.754045 295.972218)scale(0.1 -0.1)">
     <use xlink:href="#DejaVuSans-52"/>
     <use x="63.623047" xlink:href="#DejaVuSans-52"/>
    </g>
   </g>
   <g id="text_66">
    <!-- 45 -->
    <g style="fill:#556b2f;" transform="translate(236.810364 261.553173)scale(0.1 -0.1)">
     <use xlink:href="#DejaVuSans-52"/>
     <use x="63.623047" xlink:href="#DejaVuSans-53"/>
    </g>
   </g>
   <g id="text_67">
    <!-- 36.1 -->
    <g style="fill:#8b4513;" transform="translate(285.112537 280.529995)scale(0.1 -0.1)">
     <use xlink:href="#DejaVuSans-51"/>
     <use x="63.623047" xlink:href="#DejaVuSans-54"/>
     <use x="127.246094" xlink:href="#DejaVuSans-46"/>
     <use x="159.033203" xlink:href="#DejaVuSans-49"/>
    </g>
   </g>
   <g id="text_68">
    <!-- 46 -->
    <g style="fill:#2e8b57;" transform="translate(272.466432 295.273198)scale(0.1 -0.1)">
     <use xlink:href="#DejaVuSans-52"/>
     <use x="63.623047" xlink:href="#DejaVuSans-54"/>
    </g>
   </g>
   <g id="text_69">
    <!-- 47.0 -->
    <g style="fill:#228b22;" transform="translate(263.478977 346.700669)scale(0.1 -0.1)">
     <use xlink:href="#DejaVuSans-52"/>
     <use x="63.623047" xlink:href="#DejaVuSans-55"/>
     <use x="127.246094" xlink:href="#DejaVuSans-46"/>
     <use x="159.033203" xlink:href="#DejaVuSans-48"/>
    </g>
   </g>
   <g id="text_70">
    <!-- 48 -->
    <g style="fill:#708090;" transform="translate(265.962812 275.41564)scale(0.1 -0.1)">
     <use xlink:href="#DejaVuSans-52"/>
     <use x="63.623047" xlink:href="#DejaVuSans-56"/>
    </g>
   </g>
   <g id="text_71">
    <!-- 33.1 -->
    <g style="fill:#8b0000;" transform="translate(278.753106 304.307833)scale(0.1 -0.1)">
     <use xlink:href="#DejaVuSans-51"/>
     <use x="63.623047" xlink:href="#DejaVuSans-51"/>
     <use x="127.246094" xlink:href="#DejaVuSans-46"/>
     <use x="159.033203" xlink:href="#DejaVuSans-49"/>
    </g>
   </g>
   <g id="text_72">
    <!-- 26.2 -->
    <g style="fill:#808000;" transform="translate(255.476062 209.743159)scale(0.1 -0.1)">
     <use xlink:href="#DejaVuSans-50"/>
     <use x="63.623047" xlink:href="#DejaVuSans-54"/>
     <use x="127.246094" xlink:href="#DejaVuSans-46"/>
     <use x="159.033203" xlink:href="#DejaVuSans-50"/>
    </g>
   </g>
   <g id="text_73">
    <!-- 22.1 -->
    <g style="fill:#008080;" transform="translate(261.759381 287.574207)scale(0.1 -0.1)">
     <use xlink:href="#DejaVuSans-50"/>
     <use x="63.623047" xlink:href="#DejaVuSans-50"/>
     <use x="127.246094" xlink:href="#DejaVuSans-46"/>
     <use x="159.033203" xlink:href="#DejaVuSans-49"/>
    </g>
   </g>
   <g id="text_74">
    <!-- 19.3 -->
    <g style="fill:#b8860b;" transform="translate(254.968558 310.68751)scale(0.1 -0.1)">
     <use xlink:href="#DejaVuSans-49"/>
     <use x="63.623047" xlink:href="#DejaVuSans-57"/>
     <use x="127.246094" xlink:href="#DejaVuSans-46"/>
     <use x="159.033203" xlink:href="#DejaVuSans-51"/>
    </g>
   </g>
   <g id="text_75">
    <!-- 20.2 -->
    <g style="fill:#4682b4;" transform="translate(285.567912 253.811795)scale(0.1 -0.1)">
     <use xlink:href="#DejaVuSans-50"/>
     <use x="63.623047" xlink:href="#DejaVuSans-48"/>
     <use x="127.246094" xlink:href="#DejaVuSans-46"/>
     <use x="159.033203" xlink:href="#DejaVuSans-50"/>
    </g>
   </g>
   <g id="text_76">
    <!-- 21.1 -->
    <g style="fill:#d2691e;" transform="translate(268.7828 274.57444)scale(0.1 -0.1)">
     <use xlink:href="#DejaVuSans-50"/>
     <use x="63.623047" xlink:href="#DejaVuSans-49"/>
     <use x="127.246094" xlink:href="#DejaVuSans-46"/>
     <use x="159.033203" xlink:href="#DejaVuSans-49"/>
    </g>
   </g>
   <g id="text_77">
    <!-- 20.1 -->
    <g style="fill:#32cd32;" transform="translate(221.34193 241.911857)scale(0.1 -0.1)">
     <use xlink:href="#DejaVuSans-50"/>
     <use x="63.623047" xlink:href="#DejaVuSans-48"/>
     <use x="127.246094" xlink:href="#DejaVuSans-46"/>
     <use x="159.033203" xlink:href="#DejaVuSans-49"/>
    </g>
   </g>
   <g id="text_78">
    <!-- 19.1 -->
    <g style="fill:#8fbc8f;" transform="translate(268.737057 237.814754)scale(0.1 -0.1)">
     <use xlink:href="#DejaVuSans-49"/>
     <use x="63.623047" xlink:href="#DejaVuSans-57"/>
     <use x="127.246094" xlink:href="#DejaVuSans-46"/>
     <use x="159.033203" xlink:href="#DejaVuSans-49"/>
    </g>
   </g>
   <g id="text_79">
    <!-- 17.1 -->
    <g style="fill:#800080;" transform="translate(258.029366 220.331333)scale(0.1 -0.1)">
     <use xlink:href="#DejaVuSans-49"/>
     <use x="63.623047" xlink:href="#DejaVuSans-55"/>
     <use x="127.246094" xlink:href="#DejaVuSans-46"/>
     <use x="159.033203" xlink:href="#DejaVuSans-49"/>
    </g>
   </g>
   <g id="text_80">
    <!-- 14.2 -->
    <g style="fill:#b03060;" transform="translate(258.603385 278.090098)scale(0.1 -0.1)">
     <use xlink:href="#DejaVuSans-49"/>
     <use x="63.623047" xlink:href="#DejaVuSans-52"/>
     <use x="127.246094" xlink:href="#DejaVuSans-46"/>
     <use x="159.033203" xlink:href="#DejaVuSans-50"/>
    </g>
   </g>
   <g id="text_81">
    <!-- 14.1 -->
    <g style="fill:#9932cc;" transform="translate(245.25589 211.081304)scale(0.1 -0.1)">
     <use xlink:href="#DejaVuSans-49"/>
     <use x="63.623047" xlink:href="#DejaVuSans-52"/>
     <use x="127.246094" xlink:href="#DejaVuSans-46"/>
     <use x="159.033203" xlink:href="#DejaVuSans-49"/>
    </g>
   </g>
   <g id="text_82">
    <!-- 5.7 -->
    <g style="fill:#00ced1;" transform="translate(251.515745 258.522103)scale(0.1 -0.1)">
     <use xlink:href="#DejaVuSans-53"/>
     <use x="63.623047" xlink:href="#DejaVuSans-46"/>
     <use x="95.410156" xlink:href="#DejaVuSans-55"/>
    </g>
   </g>
   <g id="text_83">
    <!-- 5.6 -->
    <g style="fill:#ff8c00;" transform="translate(248.036479 235.47267)scale(0.1 -0.1)">
     <use xlink:href="#DejaVuSans-53"/>
     <use x="63.623047" xlink:href="#DejaVuSans-46"/>
     <use x="95.410156" xlink:href="#DejaVuSans-54"/>
    </g>
   </g>
   <g id="text_84">
    <!-- 10.1 -->
    <g style="fill:#ffd700;" transform="translate(257.301758 283.444275)scale(0.1 -0.1)">
     <use xlink:href="#DejaVuSans-49"/>
     <use x="63.623047" xlink:href="#DejaVuSans-48"/>
     <use x="127.246094" xlink:href="#DejaVuSans-46"/>
     <use x="159.033203" xlink:href="#DejaVuSans-49"/>
    </g>
   </g>
   <g id="text_85">
    <!-- 5.5 -->
    <g style="fill:#0000cd;" transform="translate(246.013818 224.557678)scale(0.1 -0.1)">
     <use xlink:href="#DejaVuSans-53"/>
     <use x="63.623047" xlink:href="#DejaVuSans-46"/>
     <use x="95.410156" xlink:href="#DejaVuSans-53"/>
    </g>
   </g>
   <g id="text_86">
    <!-- 9.1 -->
    <g style="fill:#deb887;" transform="translate(280.00696 311.168829)scale(0.1 -0.1)">
     <use xlink:href="#DejaVuSans-57"/>
     <use x="63.623047" xlink:href="#DejaVuSans-46"/>
     <use x="95.410156" xlink:href="#DejaVuSans-49"/>
    </g>
   </g>
   <g id="text_87">
    <!-- 5.4 -->
    <g style="fill:#00ff00;" transform="translate(266.987861 261.207717)scale(0.1 -0.1)">
     <use xlink:href="#DejaVuSans-53"/>
     <use x="63.623047" xlink:href="#DejaVuSans-46"/>
     <use x="95.410156" xlink:href="#DejaVuSans-52"/>
    </g>
   </g>
   <g id="text_88">
    <!-- 6.2 -->
    <g style="fill:#dc143c;" transform="translate(260.701145 182.843582)scale(0.1 -0.1)">
     <use xlink:href="#DejaVuSans-54"/>
     <use x="63.623047" xlink:href="#DejaVuSans-46"/>
     <use x="95.410156" xlink:href="#DejaVuSans-50"/>
    </g>
   </g>
   <g id="text_89">
    <!-- 5.2 -->
    <g style="fill:#00bfff;" transform="translate(250.216987 329.562012)scale(0.1 -0.1)">
     <use xlink:href="#DejaVuSans-53"/>
     <use x="63.623047" xlink:href="#DejaVuSans-46"/>
     <use x="95.410156" xlink:href="#DejaVuSans-50"/>
    </g>
   </g>
   <g id="text_90">
    <!-- 6.1 -->
    <g style="fill:#f4a460;" transform="translate(245.311444 248.805541)scale(0.1 -0.1)">
     <use xlink:href="#DejaVuSans-54"/>
     <use x="63.623047" xlink:href="#DejaVuSans-46"/>
     <use x="95.410156" xlink:href="#DejaVuSans-49"/>
    </g>
   </g>
   <g id="text_91">
    <!-- 4.1 -->
    <g style="fill:#a020f0;" transform="translate(258.821571 308.117616)scale(0.1 -0.1)">
     <use xlink:href="#DejaVuSans-52"/>
     <use x="63.623047" xlink:href="#DejaVuSans-46"/>
     <use x="95.410156" xlink:href="#DejaVuSans-49"/>
    </g>
   </g>
   <g id="text_92">
    <!-- 0.1 -->
    <g style="fill:#da70d6;" transform="translate(230.028983 252.295215)scale(0.1 -0.1)">
     <use xlink:href="#DejaVuSans-48"/>
     <use x="63.623047" xlink:href="#DejaVuSans-46"/>
     <use x="95.410156" xlink:href="#DejaVuSans-49"/>
    </g>
   </g>
  </g>
 </g>
 <defs>
  <clipPath id="p2c5eddaeba">
   <rect height="498.96" width="390.6" x="63" y="77.76"/>
  </clipPath>
 </defs>
</svg>
