<?xml version="1.0" encoding="utf-8" standalone="no"?>
<!DOCTYPE svg PUBLIC "-//W3C//DTD SVG 1.1//EN"
  "http://www.w3.org/Graphics/SVG/1.1/DTD/svg11.dtd">
<!-- Created with matplotlib (https://matplotlib.org/) -->
<svg height="648pt" version="1.1" viewBox="0 0 504 648" width="504pt" xmlns="http://www.w3.org/2000/svg" xmlns:xlink="http://www.w3.org/1999/xlink">
 <metadata>
  <rdf:RDF xmlns:cc="http://creativecommons.org/ns#" xmlns:dc="http://purl.org/dc/elements/1.1/" xmlns:rdf="http://www.w3.org/1999/02/22-rdf-syntax-ns#">
   <cc:Work>
    <dc:type rdf:resource="http://purl.org/dc/dcmitype/StillImage"/>
    <dc:date>2023-06-02T11:37:57.541983</dc:date>
    <dc:format>image/svg+xml</dc:format>
    <dc:creator>
     <cc:Agent>
      <dc:title>Matplotlib v3.3.4, https://matplotlib.org/</dc:title>
     </cc:Agent>
    </dc:creator>
   </cc:Work>
  </rdf:RDF>
 </metadata>
 <defs>
  <style type="text/css">*{stroke-linecap:butt;stroke-linejoin:round;}</style>
 </defs>
 <g id="figure_1">
  <g id="patch_1">
   <path d="M 0 648 
L 504 648 
L 504 0 
L 0 0 
z
" style="fill:#ffffff;"/>
  </g>
  <g id="axes_1">
   <g id="patch_2">
    <path d="M 63 576.72 
L 453.6 576.72 
L 453.6 77.76 
L 63 77.76 
z
" style="fill:#ffffff;"/>
   </g>
   <g id="PathCollection_1">
    <path clip-path="url(#p2c055ceae8)" d="M 258.080186 246.190827 
C 259.955455 246.190827 261.754171 245.445774 263.080186 244.119759 
C 264.406202 242.793743 265.151254 240.995028 265.151254 239.119759 
C 265.151254 237.24449 264.406202 235.445774 263.080186 234.119759 
C 261.754171 232.793743 259.955455 232.048691 258.080186 232.048691 
C 256.204917 232.048691 254.406202 232.793743 253.080186 234.119759 
C 251.754171 235.445774 251.009118 237.24449 251.009118 239.119759 
C 251.009118 240.995028 251.754171 242.793743 253.080186 244.119759 
C 254.406202 245.445774 256.204917 246.190827 258.080186 246.190827 
z
" style="fill:#556b2f;stroke:#556b2f;"/>
    <path clip-path="url(#p2c055ceae8)" d="M 253.162692 240.918263 
C 255.459418 240.918263 257.662386 240.005764 259.286416 238.381734 
C 260.910447 236.757703 261.822946 234.554735 261.822946 232.258009 
C 261.822946 229.961283 260.910447 227.758316 259.286416 226.134285 
C 257.662386 224.510254 255.459418 223.597755 253.162692 223.597755 
C 250.865966 223.597755 248.662998 224.510254 247.038968 226.134285 
C 245.414937 227.758316 244.502438 229.961283 244.502438 232.258009 
C 244.502438 234.554735 245.414937 236.757703 247.038968 238.381734 
C 248.662998 240.005764 250.865966 240.918263 253.162692 240.918263 
z
" style="fill:#8b4513;stroke:#8b4513;"/>
    <path clip-path="url(#p2c055ceae8)" d="M 273.233547 240.022503 
C 274.857578 240.022503 276.415311 239.377269 277.563674 238.228906 
C 278.712038 237.080543 279.357272 235.522809 279.357272 233.898779 
C 279.357272 232.274748 278.712038 230.717015 277.563674 229.568652 
C 276.415311 228.420289 274.857578 227.775054 273.233547 227.775054 
C 271.609517 227.775054 270.051783 228.420289 268.90342 229.568652 
C 267.755057 230.717015 267.109823 232.274748 267.109823 233.898779 
C 267.109823 235.522809 267.755057 237.080543 268.90342 238.228906 
C 270.051783 239.377269 271.609517 240.022503 273.233547 240.022503 
z
" style="fill:#2e8b57;stroke:#2e8b57;"/>
    <path clip-path="url(#p2c055ceae8)" d="M 267.206411 295.040318 
C 269.303025 295.040318 271.31405 294.207324 272.796581 292.724794 
C 274.279111 291.242264 275.112105 289.231239 275.112105 287.134624 
C 275.112105 285.03801 274.279111 283.026985 272.796581 281.544454 
C 271.31405 280.061924 269.303025 279.22893 267.206411 279.22893 
C 265.109796 279.22893 263.098771 280.061924 261.616241 281.544454 
C 260.13371 283.026985 259.300716 285.03801 259.300716 287.134624 
C 259.300716 289.231239 260.13371 291.242264 261.616241 292.724794 
C 263.098771 294.207324 265.109796 295.040318 267.206411 295.040318 
z
" style="fill:#228b22;stroke:#228b22;"/>
    <path clip-path="url(#p2c055ceae8)" d="M 263.219999 244.191393 
C 264.546014 244.191393 265.817898 243.664561 266.755532 242.726927 
C 267.693167 241.789292 268.219999 240.517408 268.219999 239.191393 
C 268.219999 237.865377 267.693167 236.593493 266.755532 235.655859 
C 265.817898 234.718224 264.546014 234.191393 263.219999 234.191393 
C 261.893983 234.191393 260.622099 234.718224 259.684465 235.655859 
C 258.74683 236.593493 258.219999 237.865377 258.219999 239.191393 
C 258.219999 240.517408 258.74683 241.789292 259.684465 242.726927 
C 260.622099 243.664561 261.893983 244.191393 263.219999 244.191393 
z
" style="fill:#708090;stroke:#708090;"/>
    <path clip-path="url(#p2c055ceae8)" d="M 250.862046 192.955546 
C 252.95866 192.955546 254.969685 192.122552 256.452216 190.640021 
C 257.934746 189.157491 258.76774 187.146466 258.76774 185.049852 
C 258.76774 182.953237 257.934746 180.942212 256.452216 179.459682 
C 254.969685 177.977151 252.95866 177.144157 250.862046 177.144157 
C 248.765431 177.144157 246.754406 177.977151 245.271876 179.459682 
C 243.789345 180.942212 242.956351 182.953237 242.956351 185.049852 
C 242.956351 187.146466 243.789345 189.157491 245.271876 190.640021 
C 246.754406 192.122552 248.765431 192.955546 250.862046 192.955546 
z
" style="fill:#8b0000;stroke:#8b0000;"/>
    <path clip-path="url(#p2c055ceae8)" d="M 290.3976 254.069691 
C 291.723615 254.069691 292.995499 253.542859 293.933134 252.605224 
C 294.870768 251.66759 295.3976 250.395706 295.3976 249.069691 
C 295.3976 247.743675 294.870768 246.471791 293.933134 245.534157 
C 292.995499 244.596522 291.723615 244.069691 290.3976 244.069691 
C 289.071584 244.069691 287.799701 244.596522 286.862066 245.534157 
C 285.924431 246.471791 285.3976 247.743675 285.3976 249.069691 
C 285.3976 250.395706 285.924431 251.66759 286.862066 252.605224 
C 287.799701 253.542859 289.071584 254.069691 290.3976 254.069691 
z
" style="fill:#808000;stroke:#808000;"/>
    <path clip-path="url(#p2c055ceae8)" d="M 252.209282 253.031433 
C 254.69003 253.031433 257.069506 252.045821 258.82366 250.291668 
C 260.577814 248.537514 261.563425 246.158037 261.563425 243.677289 
C 261.563425 241.196542 260.577814 238.817065 258.82366 237.062911 
C 257.069506 235.308757 254.69003 234.323146 252.209282 234.323146 
C 249.728534 234.323146 247.349057 235.308757 245.594904 237.062911 
C 243.84075 238.817065 242.855138 241.196542 242.855138 243.677289 
C 242.855138 246.158037 243.84075 248.537514 245.594904 250.291668 
C 247.349057 252.045821 249.728534 253.031433 252.209282 253.031433 
z
" style="fill:#008080;stroke:#008080;"/>
    <path clip-path="url(#p2c055ceae8)" d="M 233.587511 231.326104 
C 235.211542 231.326104 236.769275 230.68087 237.917638 229.532507 
C 239.066001 228.384144 239.711235 226.82641 239.711235 225.20238 
C 239.711235 223.578349 239.066001 222.020616 237.917638 220.872253 
C 236.769275 219.72389 235.211542 219.078655 233.587511 219.078655 
C 231.96348 219.078655 230.405747 219.72389 229.257384 220.872253 
C 228.109021 222.020616 227.463787 223.578349 227.463787 225.20238 
C 227.463787 226.82641 228.109021 228.384144 229.257384 229.532507 
C 230.405747 230.68087 231.96348 231.326104 233.587511 231.326104 
z
" style="fill:#b8860b;stroke:#b8860b;"/>
    <path clip-path="url(#p2c055ceae8)" d="M 260.782875 241.177408 
C 262.406905 241.177408 263.964639 240.532173 265.113002 239.38381 
C 266.261365 238.235447 266.906599 236.677714 266.906599 235.053683 
C 266.906599 233.429653 266.261365 231.871919 265.113002 230.723556 
C 263.964639 229.575193 262.406905 228.929959 260.782875 228.929959 
C 259.158844 228.929959 257.601111 229.575193 256.452748 230.723556 
C 255.304384 231.871919 254.65915 233.429653 254.65915 235.053683 
C 254.65915 236.677714 255.304384 238.235447 256.452748 239.38381 
C 257.601111 240.532173 259.158844 241.177408 260.782875 241.177408 
z
" style="fill:#4682b4;stroke:#4682b4;"/>
    <path clip-path="url(#p2c055ceae8)" d="M 271.261043 240.964883 
C 272.587058 240.964883 273.858942 240.438051 274.796577 239.500417 
C 275.734211 238.562782 276.261043 237.290898 276.261043 235.964883 
C 276.261043 234.638867 275.734211 233.366984 274.796577 232.429349 
C 273.858942 231.491714 272.587058 230.964883 271.261043 230.964883 
C 269.935027 230.964883 268.663143 231.491714 267.725509 232.429349 
C 266.787874 233.366984 266.261043 234.638867 266.261043 235.964883 
C 266.261043 237.290898 266.787874 238.562782 267.725509 239.500417 
C 268.663143 240.438051 269.935027 240.964883 271.261043 240.964883 
z
" style="fill:#d2691e;stroke:#d2691e;"/>
    <path clip-path="url(#p2c055ceae8)" d="M 232.530631 232.689831 
C 234.627246 232.689831 236.638271 231.856837 238.120801 230.374307 
C 239.603332 228.891777 240.436325 226.880752 240.436325 224.784137 
C 240.436325 222.687522 239.603332 220.676497 238.120801 219.193967 
C 236.638271 217.711437 234.627246 216.878443 232.530631 216.878443 
C 230.434017 216.878443 228.422992 217.711437 226.940461 219.193967 
C 225.457931 220.676497 224.624937 222.687522 224.624937 224.784137 
C 224.624937 226.880752 225.457931 228.891777 226.940461 230.374307 
C 228.422992 231.856837 230.434017 232.689831 232.530631 232.689831 
z
" style="fill:#32cd32;stroke:#32cd32;"/>
    <path clip-path="url(#p2c055ceae8)" d="M 256.677067 246.507799 
C 258.003082 246.507799 259.274966 245.980967 260.212601 245.043333 
C 261.150235 244.105698 261.677067 242.833814 261.677067 241.507799 
C 261.677067 240.181783 261.150235 238.909899 260.212601 237.972265 
C 259.274966 237.03463 258.003082 236.507799 256.677067 236.507799 
C 255.351051 236.507799 254.079167 237.03463 253.141533 237.972265 
C 252.203898 238.909899 251.677067 240.181783 251.677067 241.507799 
C 251.677067 242.833814 252.203898 244.105698 253.141533 245.043333 
C 254.079167 245.980967 255.351051 246.507799 256.677067 246.507799 
z
" style="fill:#8fbc8f;stroke:#8fbc8f;"/>
    <path clip-path="url(#p2c055ceae8)" d="M 237.646544 254.089732 
C 239.743159 254.089732 241.754184 253.256739 243.236714 251.774208 
C 244.719244 250.291678 245.552238 248.280653 245.552238 246.184038 
C 245.552238 244.087424 244.719244 242.076399 243.236714 240.593868 
C 241.754184 239.111338 239.743159 238.278344 237.646544 238.278344 
C 235.549929 238.278344 233.538904 239.111338 232.056374 240.593868 
C 230.573844 242.076399 229.74085 244.087424 229.74085 246.184038 
C 229.74085 248.280653 230.573844 250.291678 232.056374 251.774208 
C 233.538904 253.256739 235.549929 254.089732 237.646544 254.089732 
z
" style="fill:#b03060;stroke:#b03060;"/>
    <path clip-path="url(#p2c055ceae8)" d="M 246.96098 358.624967 
C 248.585011 358.624967 250.142744 357.979733 251.291107 356.83137 
C 252.43947 355.683006 253.084705 354.125273 253.084705 352.501243 
C 253.084705 350.877212 252.43947 349.319479 251.291107 348.171116 
C 250.142744 347.022752 248.585011 346.377518 246.96098 346.377518 
C 245.33695 346.377518 243.779216 347.022752 242.630853 348.171116 
C 241.48249 349.319479 240.837256 350.877212 240.837256 352.501243 
C 240.837256 354.125273 241.48249 355.683006 242.630853 356.83137 
C 243.779216 357.979733 245.33695 358.624967 246.96098 358.624967 
z
" style="fill:#9932cc;stroke:#9932cc;"/>
    <path clip-path="url(#p2c055ceae8)" d="M 248.618607 239.316851 
C 249.944623 239.316851 251.216506 238.790019 252.154141 237.852385 
C 253.091775 236.91475 253.618607 235.642866 253.618607 234.316851 
C 253.618607 232.990835 253.091775 231.718951 252.154141 230.781317 
C 251.216506 229.843682 249.944623 229.316851 248.618607 229.316851 
C 247.292592 229.316851 246.020708 229.843682 245.083073 230.781317 
C 244.145439 231.718951 243.618607 232.990835 243.618607 234.316851 
C 243.618607 235.642866 244.145439 236.91475 245.083073 237.852385 
C 246.020708 238.790019 247.292592 239.316851 248.618607 239.316851 
z
" style="fill:#ff8c00;stroke:#ff8c00;"/>
    <path clip-path="url(#p2c055ceae8)" d="M 259.495662 225.968339 
C 260.821678 225.968339 262.093562 225.441507 263.031196 224.503872 
C 263.968831 223.566238 264.495662 222.294354 264.495662 220.968339 
C 264.495662 219.642323 263.968831 218.370439 263.031196 217.432805 
C 262.093562 216.49517 260.821678 215.968339 259.495662 215.968339 
C 258.169647 215.968339 256.897763 216.49517 255.960129 217.432805 
C 255.022494 218.370439 254.495662 219.642323 254.495662 220.968339 
C 254.495662 222.294354 255.022494 223.566238 255.960129 224.503872 
C 256.897763 225.441507 258.169647 225.968339 259.495662 225.968339 
z
" style="fill:#ffd700;stroke:#ffd700;"/>
    <path clip-path="url(#p2c055ceae8)" d="M 259.675125 224.493323 
C 261.001141 224.493323 262.273024 223.966491 263.210659 223.028857 
C 264.148294 222.091222 264.675125 220.819338 264.675125 219.493323 
C 264.675125 218.167307 264.148294 216.895423 263.210659 215.957789 
C 262.273024 215.020154 261.001141 214.493323 259.675125 214.493323 
C 258.34911 214.493323 257.077226 215.020154 256.139591 215.957789 
C 255.201957 216.895423 254.675125 218.167307 254.675125 219.493323 
C 254.675125 220.819338 255.201957 222.091222 256.139591 223.028857 
C 257.077226 223.966491 258.34911 224.493323 259.675125 224.493323 
z
" style="fill:#00bfff;stroke:#00bfff;"/>
    <path clip-path="url(#p2c055ceae8)" d="M 253.873106 238.888236 
C 255.748375 238.888236 257.54709 238.143183 258.873106 236.817168 
C 260.199121 235.491152 260.944174 233.692437 260.944174 231.817168 
C 260.944174 229.941899 260.199121 228.143183 258.873106 226.817168 
C 257.54709 225.491152 255.748375 224.7461 253.873106 224.7461 
C 251.997837 224.7461 250.199121 225.491152 248.873106 226.817168 
C 247.54709 228.143183 246.802038 229.941899 246.802038 231.817168 
C 246.802038 233.692437 247.54709 235.491152 248.873106 236.817168 
C 250.199121 238.143183 251.997837 238.888236 253.873106 238.888236 
z
" style="fill:#0000ff;stroke:#0000ff;"/>
    <path clip-path="url(#p2c055ceae8)" d="M 237.96623 267.655123 
C 239.292246 267.655123 240.56413 267.128292 241.501764 266.190657 
C 242.439399 265.253022 242.96623 263.981139 242.96623 262.655123 
C 242.96623 261.329108 242.439399 260.057224 241.501764 259.119589 
C 240.56413 258.181955 239.292246 257.655123 237.96623 257.655123 
C 236.640215 257.655123 235.368331 258.181955 234.430696 259.119589 
C 233.493062 260.057224 232.96623 261.329108 232.96623 262.655123 
C 232.96623 263.981139 233.493062 265.253022 234.430696 266.190657 
C 235.368331 267.128292 236.640215 267.655123 237.96623 267.655123 
z
" style="fill:#a020f0;stroke:#a020f0;"/>
    <path clip-path="url(#p2c055ceae8)" d="M 237.747149 288.183898 
C 239.073165 288.183898 240.345049 287.657067 241.282683 286.719432 
C 242.220318 285.781798 242.747149 284.509914 242.747149 283.183898 
C 242.747149 281.857883 242.220318 280.585999 241.282683 279.648364 
C 240.345049 278.71073 239.073165 278.183898 237.747149 278.183898 
C 236.421134 278.183898 235.14925 278.71073 234.211615 279.648364 
C 233.273981 280.585999 232.747149 281.857883 232.747149 283.183898 
C 232.747149 284.509914 233.273981 285.781798 234.211615 286.719432 
C 235.14925 287.657067 236.421134 288.183898 237.747149 288.183898 
z
" style="fill:#da70d6;stroke:#da70d6;"/>
    <path clip-path="url(#p2c055ceae8)" d="M 253.131156 267.058351 
C 255.006425 267.058351 256.80514 266.313299 258.131156 264.987283 
C 259.457171 263.661268 260.202223 261.862552 260.202223 259.987283 
C 260.202223 258.112014 259.457171 256.313299 258.131156 254.987283 
C 256.80514 253.661268 255.006425 252.916215 253.131156 252.916215 
C 251.255886 252.916215 249.457171 253.661268 248.131156 254.987283 
C 246.80514 256.313299 246.060088 258.112014 246.060088 259.987283 
C 246.060088 261.862552 246.80514 263.661268 248.131156 264.987283 
C 249.457171 266.313299 251.255886 267.058351 253.131156 267.058351 
z
" style="fill:#ff00ff;stroke:#ff00ff;"/>
    <path clip-path="url(#p2c055ceae8)" d="M 233.528118 249.284188 
C 235.152149 249.284188 236.709882 248.638953 237.858245 247.49059 
C 239.006609 246.342227 239.651843 244.784494 239.651843 243.160463 
C 239.651843 241.536432 239.006609 239.978699 237.858245 238.830336 
C 236.709882 237.681973 235.152149 237.036739 233.528118 237.036739 
C 231.904088 237.036739 230.346354 237.681973 229.197991 238.830336 
C 228.049628 239.978699 227.404394 241.536432 227.404394 243.160463 
C 227.404394 244.784494 228.049628 246.342227 229.197991 247.49059 
C 230.346354 248.638953 231.904088 249.284188 233.528118 249.284188 
z
" style="fill:#f0e68c;stroke:#f0e68c;"/>
    <path clip-path="url(#p2c055ceae8)" d="M 269.13047 261.85395 
C 270.456485 261.85395 271.728369 261.327118 272.666003 260.389484 
C 273.603638 259.451849 274.13047 258.179965 274.13047 256.85395 
C 274.13047 255.527934 273.603638 254.25605 272.666003 253.318416 
C 271.728369 252.380781 270.456485 251.85395 269.13047 251.85395 
C 267.804454 251.85395 266.53257 252.380781 265.594936 253.318416 
C 264.657301 254.25605 264.13047 255.527934 264.13047 256.85395 
C 264.13047 258.179965 264.657301 259.451849 265.594936 260.389484 
C 266.53257 261.327118 267.804454 261.85395 269.13047 261.85395 
z
" style="fill:#fa8072;stroke:#fa8072;"/>
    <path clip-path="url(#p2c055ceae8)" d="M 252.947769 437.30675 
C 254.273785 437.30675 255.545668 436.779918 256.483303 435.842284 
C 257.420938 434.904649 257.947769 433.632765 257.947769 432.30675 
C 257.947769 430.980734 257.420938 429.70885 256.483303 428.771216 
C 255.545668 427.833581 254.273785 427.30675 252.947769 427.30675 
C 251.621754 427.30675 250.34987 427.833581 249.412235 428.771216 
C 248.474601 429.70885 247.947769 430.980734 247.947769 432.30675 
C 247.947769 433.632765 248.474601 434.904649 249.412235 435.842284 
C 250.34987 436.779918 251.621754 437.30675 252.947769 437.30675 
z
" style="fill:#ffff54;stroke:#ffff54;"/>
    <path clip-path="url(#p2c055ceae8)" d="M 271.0156 387.267446 
C 272.341615 387.267446 273.613499 386.740614 274.551133 385.80298 
C 275.488768 384.865345 276.0156 383.593461 276.0156 382.267446 
C 276.0156 380.94143 275.488768 379.669546 274.551133 378.731912 
C 273.613499 377.794277 272.341615 377.267446 271.0156 377.267446 
C 269.689584 377.267446 268.4177 377.794277 267.480066 378.731912 
C 266.542431 379.669546 266.0156 380.94143 266.0156 382.267446 
C 266.0156 383.593461 266.542431 384.865345 267.480066 385.80298 
C 268.4177 386.740614 269.689584 387.267446 271.0156 387.267446 
z
" style="fill:#6495ed;stroke:#6495ed;"/>
    <path clip-path="url(#p2c055ceae8)" d="M 245.669179 285.701907 
C 246.995194 285.701907 248.267078 285.175075 249.204712 284.237441 
C 250.142347 283.299806 250.669179 282.027922 250.669179 280.701907 
C 250.669179 279.375891 250.142347 278.104007 249.204712 277.166373 
C 248.267078 276.228738 246.995194 275.701907 245.669179 275.701907 
C 244.343163 275.701907 243.071279 276.228738 242.133645 277.166373 
C 241.19601 278.104007 240.669179 279.375891 240.669179 280.701907 
C 240.669179 282.027922 241.19601 283.299806 242.133645 284.237441 
C 243.071279 285.175075 244.343163 285.701907 245.669179 285.701907 
z
" style="fill:#90ee90;stroke:#90ee90;"/>
    <path clip-path="url(#p2c055ceae8)" d="M 275.477305 246.196592 
C 276.80332 246.196592 278.075204 245.66976 279.012839 244.732125 
C 279.950473 243.794491 280.477305 242.522607 280.477305 241.196592 
C 280.477305 239.870576 279.950473 238.598692 279.012839 237.661058 
C 278.075204 236.723423 276.80332 236.196592 275.477305 236.196592 
C 274.151289 236.196592 272.879405 236.723423 271.941771 237.661058 
C 271.004136 238.598692 270.477305 239.870576 270.477305 241.196592 
C 270.477305 242.522607 271.004136 243.794491 271.941771 244.732125 
C 272.879405 245.66976 274.151289 246.196592 275.477305 246.196592 
z
" style="fill:#afeeee;stroke:#afeeee;"/>
   </g>
   <g id="matplotlib.axis_1">
    <g id="xtick_1">
     <g id="line2d_1">
      <defs>
       <path d="M 0 0 
L 0 3.5 
" id="m08caccd4a1" style="stroke:#000000;stroke-width:0.8;"/>
      </defs>
      <g>
       <use style="stroke:#000000;stroke-width:0.8;" x="258.3" xlink:href="#m08caccd4a1" y="576.72"/>
      </g>
     </g>
     <g id="text_1">
      <!-- MeanPD -->
      <g transform="translate(237.811719 591.318438)scale(0.1 -0.1)">
       <defs>
        <path d="M 9.8125 72.90625 
L 24.515625 72.90625 
L 43.109375 23.296875 
L 61.8125 72.90625 
L 76.515625 72.90625 
L 76.515625 0 
L 66.890625 0 
L 66.890625 64.015625 
L 48.09375 14.015625 
L 38.1875 14.015625 
L 19.390625 64.015625 
L 19.390625 0 
L 9.8125 0 
z
" id="DejaVuSans-77"/>
        <path d="M 56.203125 29.59375 
L 56.203125 25.203125 
L 14.890625 25.203125 
Q 15.484375 15.921875 20.484375 11.0625 
Q 25.484375 6.203125 34.421875 6.203125 
Q 39.59375 6.203125 44.453125 7.46875 
Q 49.3125 8.734375 54.109375 11.28125 
L 54.109375 2.78125 
Q 49.265625 0.734375 44.1875 -0.34375 
Q 39.109375 -1.421875 33.890625 -1.421875 
Q 20.796875 -1.421875 13.15625 6.1875 
Q 5.515625 13.8125 5.515625 26.8125 
Q 5.515625 40.234375 12.765625 48.109375 
Q 20.015625 56 32.328125 56 
Q 43.359375 56 49.78125 48.890625 
Q 56.203125 41.796875 56.203125 29.59375 
z
M 47.21875 32.234375 
Q 47.125 39.59375 43.09375 43.984375 
Q 39.0625 48.390625 32.421875 48.390625 
Q 24.90625 48.390625 20.390625 44.140625 
Q 15.875 39.890625 15.1875 32.171875 
z
" id="DejaVuSans-101"/>
        <path d="M 34.28125 27.484375 
Q 23.390625 27.484375 19.1875 25 
Q 14.984375 22.515625 14.984375 16.5 
Q 14.984375 11.71875 18.140625 8.90625 
Q 21.296875 6.109375 26.703125 6.109375 
Q 34.1875 6.109375 38.703125 11.40625 
Q 43.21875 16.703125 43.21875 25.484375 
L 43.21875 27.484375 
z
M 52.203125 31.203125 
L 52.203125 0 
L 43.21875 0 
L 43.21875 8.296875 
Q 40.140625 3.328125 35.546875 0.953125 
Q 30.953125 -1.421875 24.3125 -1.421875 
Q 15.921875 -1.421875 10.953125 3.296875 
Q 6 8.015625 6 15.921875 
Q 6 25.140625 12.171875 29.828125 
Q 18.359375 34.515625 30.609375 34.515625 
L 43.21875 34.515625 
L 43.21875 35.40625 
Q 43.21875 41.609375 39.140625 45 
Q 35.0625 48.390625 27.6875 48.390625 
Q 23 48.390625 18.546875 47.265625 
Q 14.109375 46.140625 10.015625 43.890625 
L 10.015625 52.203125 
Q 14.9375 54.109375 19.578125 55.046875 
Q 24.21875 56 28.609375 56 
Q 40.484375 56 46.34375 49.84375 
Q 52.203125 43.703125 52.203125 31.203125 
z
" id="DejaVuSans-97"/>
        <path d="M 54.890625 33.015625 
L 54.890625 0 
L 45.90625 0 
L 45.90625 32.71875 
Q 45.90625 40.484375 42.875 44.328125 
Q 39.84375 48.1875 33.796875 48.1875 
Q 26.515625 48.1875 22.3125 43.546875 
Q 18.109375 38.921875 18.109375 30.90625 
L 18.109375 0 
L 9.078125 0 
L 9.078125 54.6875 
L 18.109375 54.6875 
L 18.109375 46.1875 
Q 21.34375 51.125 25.703125 53.5625 
Q 30.078125 56 35.796875 56 
Q 45.21875 56 50.046875 50.171875 
Q 54.890625 44.34375 54.890625 33.015625 
z
" id="DejaVuSans-110"/>
        <path d="M 19.671875 64.796875 
L 19.671875 37.40625 
L 32.078125 37.40625 
Q 38.96875 37.40625 42.71875 40.96875 
Q 46.484375 44.53125 46.484375 51.125 
Q 46.484375 57.671875 42.71875 61.234375 
Q 38.96875 64.796875 32.078125 64.796875 
z
M 9.8125 72.90625 
L 32.078125 72.90625 
Q 44.34375 72.90625 50.609375 67.359375 
Q 56.890625 61.8125 56.890625 51.125 
Q 56.890625 40.328125 50.609375 34.8125 
Q 44.34375 29.296875 32.078125 29.296875 
L 19.671875 29.296875 
L 19.671875 0 
L 9.8125 0 
z
" id="DejaVuSans-80"/>
        <path d="M 19.671875 64.796875 
L 19.671875 8.109375 
L 31.59375 8.109375 
Q 46.6875 8.109375 53.6875 14.9375 
Q 60.6875 21.78125 60.6875 36.53125 
Q 60.6875 51.171875 53.6875 57.984375 
Q 46.6875 64.796875 31.59375 64.796875 
z
M 9.8125 72.90625 
L 30.078125 72.90625 
Q 51.265625 72.90625 61.171875 64.09375 
Q 71.09375 55.28125 71.09375 36.53125 
Q 71.09375 17.671875 61.125 8.828125 
Q 51.171875 0 30.078125 0 
L 9.8125 0 
z
" id="DejaVuSans-68"/>
       </defs>
       <use xlink:href="#DejaVuSans-77"/>
       <use x="86.279297" xlink:href="#DejaVuSans-101"/>
       <use x="147.802734" xlink:href="#DejaVuSans-97"/>
       <use x="209.082031" xlink:href="#DejaVuSans-110"/>
       <use x="272.460938" xlink:href="#DejaVuSans-80"/>
       <use x="332.763672" xlink:href="#DejaVuSans-68"/>
      </g>
     </g>
    </g>
   </g>
   <g id="matplotlib.axis_2">
    <g id="ytick_1">
     <g id="line2d_2">
      <defs>
       <path d="M 0 0 
L -3.5 0 
" id="m473005cd37" style="stroke:#000000;stroke-width:0.8;"/>
      </defs>
      <g>
       <use style="stroke:#000000;stroke-width:0.8;" x="63" xlink:href="#m473005cd37" y="576.72"/>
      </g>
     </g>
     <g id="text_2">
      <!-- −3.5 -->
      <g transform="translate(31.717187 580.519219)scale(0.1 -0.1)">
       <defs>
        <path d="M 10.59375 35.5 
L 73.1875 35.5 
L 73.1875 27.203125 
L 10.59375 27.203125 
z
" id="DejaVuSans-8722"/>
        <path d="M 40.578125 39.3125 
Q 47.65625 37.796875 51.625 33 
Q 55.609375 28.21875 55.609375 21.1875 
Q 55.609375 10.40625 48.1875 4.484375 
Q 40.765625 -1.421875 27.09375 -1.421875 
Q 22.515625 -1.421875 17.65625 -0.515625 
Q 12.796875 0.390625 7.625 2.203125 
L 7.625 11.71875 
Q 11.71875 9.328125 16.59375 8.109375 
Q 21.484375 6.890625 26.8125 6.890625 
Q 36.078125 6.890625 40.9375 10.546875 
Q 45.796875 14.203125 45.796875 21.1875 
Q 45.796875 27.640625 41.28125 31.265625 
Q 36.765625 34.90625 28.71875 34.90625 
L 20.21875 34.90625 
L 20.21875 43.015625 
L 29.109375 43.015625 
Q 36.375 43.015625 40.234375 45.921875 
Q 44.09375 48.828125 44.09375 54.296875 
Q 44.09375 59.90625 40.109375 62.90625 
Q 36.140625 65.921875 28.71875 65.921875 
Q 24.65625 65.921875 20.015625 65.03125 
Q 15.375 64.15625 9.8125 62.3125 
L 9.8125 71.09375 
Q 15.4375 72.65625 20.34375 73.4375 
Q 25.25 74.21875 29.59375 74.21875 
Q 40.828125 74.21875 47.359375 69.109375 
Q 53.90625 64.015625 53.90625 55.328125 
Q 53.90625 49.265625 50.4375 45.09375 
Q 46.96875 40.921875 40.578125 39.3125 
z
" id="DejaVuSans-51"/>
        <path d="M 10.6875 12.40625 
L 21 12.40625 
L 21 0 
L 10.6875 0 
z
" id="DejaVuSans-46"/>
        <path d="M 10.796875 72.90625 
L 49.515625 72.90625 
L 49.515625 64.59375 
L 19.828125 64.59375 
L 19.828125 46.734375 
Q 21.96875 47.46875 24.109375 47.828125 
Q 26.265625 48.1875 28.421875 48.1875 
Q 40.625 48.1875 47.75 41.5 
Q 54.890625 34.8125 54.890625 23.390625 
Q 54.890625 11.625 47.5625 5.09375 
Q 40.234375 -1.421875 26.90625 -1.421875 
Q 22.3125 -1.421875 17.546875 -0.640625 
Q 12.796875 0.140625 7.71875 1.703125 
L 7.71875 11.625 
Q 12.109375 9.234375 16.796875 8.0625 
Q 21.484375 6.890625 26.703125 6.890625 
Q 35.15625 6.890625 40.078125 11.328125 
Q 45.015625 15.765625 45.015625 23.390625 
Q 45.015625 31 40.078125 35.4375 
Q 35.15625 39.890625 26.703125 39.890625 
Q 22.75 39.890625 18.8125 39.015625 
Q 14.890625 38.140625 10.796875 36.28125 
z
" id="DejaVuSans-53"/>
       </defs>
       <use xlink:href="#DejaVuSans-8722"/>
       <use x="83.789062" xlink:href="#DejaVuSans-51"/>
       <use x="147.412109" xlink:href="#DejaVuSans-46"/>
       <use x="179.199219" xlink:href="#DejaVuSans-53"/>
      </g>
     </g>
    </g>
    <g id="ytick_2">
     <g id="line2d_3">
      <g>
       <use style="stroke:#000000;stroke-width:0.8;" x="63" xlink:href="#m473005cd37" y="538.92"/>
      </g>
     </g>
     <g id="text_3">
      <!-- −3.0 -->
      <g transform="translate(31.717187 542.719219)scale(0.1 -0.1)">
       <defs>
        <path d="M 31.78125 66.40625 
Q 24.171875 66.40625 20.328125 58.90625 
Q 16.5 51.421875 16.5 36.375 
Q 16.5 21.390625 20.328125 13.890625 
Q 24.171875 6.390625 31.78125 6.390625 
Q 39.453125 6.390625 43.28125 13.890625 
Q 47.125 21.390625 47.125 36.375 
Q 47.125 51.421875 43.28125 58.90625 
Q 39.453125 66.40625 31.78125 66.40625 
z
M 31.78125 74.21875 
Q 44.046875 74.21875 50.515625 64.515625 
Q 56.984375 54.828125 56.984375 36.375 
Q 56.984375 17.96875 50.515625 8.265625 
Q 44.046875 -1.421875 31.78125 -1.421875 
Q 19.53125 -1.421875 13.0625 8.265625 
Q 6.59375 17.96875 6.59375 36.375 
Q 6.59375 54.828125 13.0625 64.515625 
Q 19.53125 74.21875 31.78125 74.21875 
z
" id="DejaVuSans-48"/>
       </defs>
       <use xlink:href="#DejaVuSans-8722"/>
       <use x="83.789062" xlink:href="#DejaVuSans-51"/>
       <use x="147.412109" xlink:href="#DejaVuSans-46"/>
       <use x="179.199219" xlink:href="#DejaVuSans-48"/>
      </g>
     </g>
    </g>
    <g id="ytick_3">
     <g id="line2d_4">
      <g>
       <use style="stroke:#000000;stroke-width:0.8;" x="63" xlink:href="#m473005cd37" y="501.12"/>
      </g>
     </g>
     <g id="text_4">
      <!-- −2.5 -->
      <g transform="translate(31.717187 504.919219)scale(0.1 -0.1)">
       <defs>
        <path d="M 19.1875 8.296875 
L 53.609375 8.296875 
L 53.609375 0 
L 7.328125 0 
L 7.328125 8.296875 
Q 12.9375 14.109375 22.625 23.890625 
Q 32.328125 33.6875 34.8125 36.53125 
Q 39.546875 41.84375 41.421875 45.53125 
Q 43.3125 49.21875 43.3125 52.78125 
Q 43.3125 58.59375 39.234375 62.25 
Q 35.15625 65.921875 28.609375 65.921875 
Q 23.96875 65.921875 18.8125 64.3125 
Q 13.671875 62.703125 7.8125 59.421875 
L 7.8125 69.390625 
Q 13.765625 71.78125 18.9375 73 
Q 24.125 74.21875 28.421875 74.21875 
Q 39.75 74.21875 46.484375 68.546875 
Q 53.21875 62.890625 53.21875 53.421875 
Q 53.21875 48.921875 51.53125 44.890625 
Q 49.859375 40.875 45.40625 35.40625 
Q 44.1875 33.984375 37.640625 27.21875 
Q 31.109375 20.453125 19.1875 8.296875 
z
" id="DejaVuSans-50"/>
       </defs>
       <use xlink:href="#DejaVuSans-8722"/>
       <use x="83.789062" xlink:href="#DejaVuSans-50"/>
       <use x="147.412109" xlink:href="#DejaVuSans-46"/>
       <use x="179.199219" xlink:href="#DejaVuSans-53"/>
      </g>
     </g>
    </g>
    <g id="ytick_4">
     <g id="line2d_5">
      <g>
       <use style="stroke:#000000;stroke-width:0.8;" x="63" xlink:href="#m473005cd37" y="463.32"/>
      </g>
     </g>
     <g id="text_5">
      <!-- −2.0 -->
      <g transform="translate(31.717187 467.119219)scale(0.1 -0.1)">
       <use xlink:href="#DejaVuSans-8722"/>
       <use x="83.789062" xlink:href="#DejaVuSans-50"/>
       <use x="147.412109" xlink:href="#DejaVuSans-46"/>
       <use x="179.199219" xlink:href="#DejaVuSans-48"/>
      </g>
     </g>
    </g>
    <g id="ytick_5">
     <g id="line2d_6">
      <g>
       <use style="stroke:#000000;stroke-width:0.8;" x="63" xlink:href="#m473005cd37" y="425.52"/>
      </g>
     </g>
     <g id="text_6">
      <!-- −1.5 -->
      <g transform="translate(31.717187 429.319219)scale(0.1 -0.1)">
       <defs>
        <path d="M 12.40625 8.296875 
L 28.515625 8.296875 
L 28.515625 63.921875 
L 10.984375 60.40625 
L 10.984375 69.390625 
L 28.421875 72.90625 
L 38.28125 72.90625 
L 38.28125 8.296875 
L 54.390625 8.296875 
L 54.390625 0 
L 12.40625 0 
z
" id="DejaVuSans-49"/>
       </defs>
       <use xlink:href="#DejaVuSans-8722"/>
       <use x="83.789062" xlink:href="#DejaVuSans-49"/>
       <use x="147.412109" xlink:href="#DejaVuSans-46"/>
       <use x="179.199219" xlink:href="#DejaVuSans-53"/>
      </g>
     </g>
    </g>
    <g id="ytick_6">
     <g id="line2d_7">
      <g>
       <use style="stroke:#000000;stroke-width:0.8;" x="63" xlink:href="#m473005cd37" y="387.72"/>
      </g>
     </g>
     <g id="text_7">
      <!-- −1.0 -->
      <g transform="translate(31.717187 391.519219)scale(0.1 -0.1)">
       <use xlink:href="#DejaVuSans-8722"/>
       <use x="83.789062" xlink:href="#DejaVuSans-49"/>
       <use x="147.412109" xlink:href="#DejaVuSans-46"/>
       <use x="179.199219" xlink:href="#DejaVuSans-48"/>
      </g>
     </g>
    </g>
    <g id="ytick_7">
     <g id="line2d_8">
      <g>
       <use style="stroke:#000000;stroke-width:0.8;" x="63" xlink:href="#m473005cd37" y="349.92"/>
      </g>
     </g>
     <g id="text_8">
      <!-- −0.5 -->
      <g transform="translate(31.717187 353.719219)scale(0.1 -0.1)">
       <use xlink:href="#DejaVuSans-8722"/>
       <use x="83.789062" xlink:href="#DejaVuSans-48"/>
       <use x="147.412109" xlink:href="#DejaVuSans-46"/>
       <use x="179.199219" xlink:href="#DejaVuSans-53"/>
      </g>
     </g>
    </g>
    <g id="ytick_8">
     <g id="line2d_9">
      <g>
       <use style="stroke:#000000;stroke-width:0.8;" x="63" xlink:href="#m473005cd37" y="312.12"/>
      </g>
     </g>
     <g id="text_9">
      <!-- 0.0 -->
      <g transform="translate(40.096875 315.919219)scale(0.1 -0.1)">
       <use xlink:href="#DejaVuSans-48"/>
       <use x="63.623047" xlink:href="#DejaVuSans-46"/>
       <use x="95.410156" xlink:href="#DejaVuSans-48"/>
      </g>
     </g>
    </g>
    <g id="ytick_9">
     <g id="line2d_10">
      <g>
       <use style="stroke:#000000;stroke-width:0.8;" x="63" xlink:href="#m473005cd37" y="274.32"/>
      </g>
     </g>
     <g id="text_10">
      <!-- 0.5 -->
      <g transform="translate(40.096875 278.119219)scale(0.1 -0.1)">
       <use xlink:href="#DejaVuSans-48"/>
       <use x="63.623047" xlink:href="#DejaVuSans-46"/>
       <use x="95.410156" xlink:href="#DejaVuSans-53"/>
      </g>
     </g>
    </g>
    <g id="ytick_10">
     <g id="line2d_11">
      <g>
       <use style="stroke:#000000;stroke-width:0.8;" x="63" xlink:href="#m473005cd37" y="236.52"/>
      </g>
     </g>
     <g id="text_11">
      <!-- 1.0 -->
      <g transform="translate(40.096875 240.319219)scale(0.1 -0.1)">
       <use xlink:href="#DejaVuSans-49"/>
       <use x="63.623047" xlink:href="#DejaVuSans-46"/>
       <use x="95.410156" xlink:href="#DejaVuSans-48"/>
      </g>
     </g>
    </g>
    <g id="ytick_11">
     <g id="line2d_12">
      <g>
       <use style="stroke:#000000;stroke-width:0.8;" x="63" xlink:href="#m473005cd37" y="198.72"/>
      </g>
     </g>
     <g id="text_12">
      <!-- 1.5 -->
      <g transform="translate(40.096875 202.519219)scale(0.1 -0.1)">
       <use xlink:href="#DejaVuSans-49"/>
       <use x="63.623047" xlink:href="#DejaVuSans-46"/>
       <use x="95.410156" xlink:href="#DejaVuSans-53"/>
      </g>
     </g>
    </g>
    <g id="ytick_12">
     <g id="line2d_13">
      <g>
       <use style="stroke:#000000;stroke-width:0.8;" x="63" xlink:href="#m473005cd37" y="160.92"/>
      </g>
     </g>
     <g id="text_13">
      <!-- 2.0 -->
      <g transform="translate(40.096875 164.719219)scale(0.1 -0.1)">
       <use xlink:href="#DejaVuSans-50"/>
       <use x="63.623047" xlink:href="#DejaVuSans-46"/>
       <use x="95.410156" xlink:href="#DejaVuSans-48"/>
      </g>
     </g>
    </g>
    <g id="ytick_13">
     <g id="line2d_14">
      <g>
       <use style="stroke:#000000;stroke-width:0.8;" x="63" xlink:href="#m473005cd37" y="123.12"/>
      </g>
     </g>
     <g id="text_14">
      <!-- 2.5 -->
      <g transform="translate(40.096875 126.919219)scale(0.1 -0.1)">
       <use xlink:href="#DejaVuSans-50"/>
       <use x="63.623047" xlink:href="#DejaVuSans-46"/>
       <use x="95.410156" xlink:href="#DejaVuSans-53"/>
      </g>
     </g>
    </g>
    <g id="ytick_14">
     <g id="line2d_15">
      <g>
       <use style="stroke:#000000;stroke-width:0.8;" x="63" xlink:href="#m473005cd37" y="85.32"/>
      </g>
     </g>
     <g id="text_15">
      <!-- 3.0 -->
      <g transform="translate(40.096875 89.119219)scale(0.1 -0.1)">
       <use xlink:href="#DejaVuSans-51"/>
       <use x="63.623047" xlink:href="#DejaVuSans-46"/>
       <use x="95.410156" xlink:href="#DejaVuSans-48"/>
      </g>
     </g>
    </g>
    <g id="text_16">
     <!-- LogOdds -->
     <g transform="translate(25.6375 349.061094)rotate(-90)scale(0.1 -0.1)">
      <defs>
       <path d="M 9.8125 72.90625 
L 19.671875 72.90625 
L 19.671875 8.296875 
L 55.171875 8.296875 
L 55.171875 0 
L 9.8125 0 
z
" id="DejaVuSans-76"/>
       <path d="M 30.609375 48.390625 
Q 23.390625 48.390625 19.1875 42.75 
Q 14.984375 37.109375 14.984375 27.296875 
Q 14.984375 17.484375 19.15625 11.84375 
Q 23.34375 6.203125 30.609375 6.203125 
Q 37.796875 6.203125 41.984375 11.859375 
Q 46.1875 17.53125 46.1875 27.296875 
Q 46.1875 37.015625 41.984375 42.703125 
Q 37.796875 48.390625 30.609375 48.390625 
z
M 30.609375 56 
Q 42.328125 56 49.015625 48.375 
Q 55.71875 40.765625 55.71875 27.296875 
Q 55.71875 13.875 49.015625 6.21875 
Q 42.328125 -1.421875 30.609375 -1.421875 
Q 18.84375 -1.421875 12.171875 6.21875 
Q 5.515625 13.875 5.515625 27.296875 
Q 5.515625 40.765625 12.171875 48.375 
Q 18.84375 56 30.609375 56 
z
" id="DejaVuSans-111"/>
       <path d="M 45.40625 27.984375 
Q 45.40625 37.75 41.375 43.109375 
Q 37.359375 48.484375 30.078125 48.484375 
Q 22.859375 48.484375 18.828125 43.109375 
Q 14.796875 37.75 14.796875 27.984375 
Q 14.796875 18.265625 18.828125 12.890625 
Q 22.859375 7.515625 30.078125 7.515625 
Q 37.359375 7.515625 41.375 12.890625 
Q 45.40625 18.265625 45.40625 27.984375 
z
M 54.390625 6.78125 
Q 54.390625 -7.171875 48.1875 -13.984375 
Q 42 -20.796875 29.203125 -20.796875 
Q 24.46875 -20.796875 20.265625 -20.09375 
Q 16.0625 -19.390625 12.109375 -17.921875 
L 12.109375 -9.1875 
Q 16.0625 -11.328125 19.921875 -12.34375 
Q 23.78125 -13.375 27.78125 -13.375 
Q 36.625 -13.375 41.015625 -8.765625 
Q 45.40625 -4.15625 45.40625 5.171875 
L 45.40625 9.625 
Q 42.625 4.78125 38.28125 2.390625 
Q 33.9375 0 27.875 0 
Q 17.828125 0 11.671875 7.65625 
Q 5.515625 15.328125 5.515625 27.984375 
Q 5.515625 40.671875 11.671875 48.328125 
Q 17.828125 56 27.875 56 
Q 33.9375 56 38.28125 53.609375 
Q 42.625 51.21875 45.40625 46.390625 
L 45.40625 54.6875 
L 54.390625 54.6875 
z
" id="DejaVuSans-103"/>
       <path d="M 39.40625 66.21875 
Q 28.65625 66.21875 22.328125 58.203125 
Q 16.015625 50.203125 16.015625 36.375 
Q 16.015625 22.609375 22.328125 14.59375 
Q 28.65625 6.59375 39.40625 6.59375 
Q 50.140625 6.59375 56.421875 14.59375 
Q 62.703125 22.609375 62.703125 36.375 
Q 62.703125 50.203125 56.421875 58.203125 
Q 50.140625 66.21875 39.40625 66.21875 
z
M 39.40625 74.21875 
Q 54.734375 74.21875 63.90625 63.9375 
Q 73.09375 53.65625 73.09375 36.375 
Q 73.09375 19.140625 63.90625 8.859375 
Q 54.734375 -1.421875 39.40625 -1.421875 
Q 24.03125 -1.421875 14.8125 8.828125 
Q 5.609375 19.09375 5.609375 36.375 
Q 5.609375 53.65625 14.8125 63.9375 
Q 24.03125 74.21875 39.40625 74.21875 
z
" id="DejaVuSans-79"/>
       <path d="M 45.40625 46.390625 
L 45.40625 75.984375 
L 54.390625 75.984375 
L 54.390625 0 
L 45.40625 0 
L 45.40625 8.203125 
Q 42.578125 3.328125 38.25 0.953125 
Q 33.9375 -1.421875 27.875 -1.421875 
Q 17.96875 -1.421875 11.734375 6.484375 
Q 5.515625 14.40625 5.515625 27.296875 
Q 5.515625 40.1875 11.734375 48.09375 
Q 17.96875 56 27.875 56 
Q 33.9375 56 38.25 53.625 
Q 42.578125 51.265625 45.40625 46.390625 
z
M 14.796875 27.296875 
Q 14.796875 17.390625 18.875 11.75 
Q 22.953125 6.109375 30.078125 6.109375 
Q 37.203125 6.109375 41.296875 11.75 
Q 45.40625 17.390625 45.40625 27.296875 
Q 45.40625 37.203125 41.296875 42.84375 
Q 37.203125 48.484375 30.078125 48.484375 
Q 22.953125 48.484375 18.875 42.84375 
Q 14.796875 37.203125 14.796875 27.296875 
z
" id="DejaVuSans-100"/>
       <path d="M 44.28125 53.078125 
L 44.28125 44.578125 
Q 40.484375 46.53125 36.375 47.5 
Q 32.28125 48.484375 27.875 48.484375 
Q 21.1875 48.484375 17.84375 46.4375 
Q 14.5 44.390625 14.5 40.28125 
Q 14.5 37.15625 16.890625 35.375 
Q 19.28125 33.59375 26.515625 31.984375 
L 29.59375 31.296875 
Q 39.15625 29.25 43.1875 25.515625 
Q 47.21875 21.78125 47.21875 15.09375 
Q 47.21875 7.46875 41.1875 3.015625 
Q 35.15625 -1.421875 24.609375 -1.421875 
Q 20.21875 -1.421875 15.453125 -0.5625 
Q 10.6875 0.296875 5.421875 2 
L 5.421875 11.28125 
Q 10.40625 8.6875 15.234375 7.390625 
Q 20.0625 6.109375 24.8125 6.109375 
Q 31.15625 6.109375 34.5625 8.28125 
Q 37.984375 10.453125 37.984375 14.40625 
Q 37.984375 18.0625 35.515625 20.015625 
Q 33.0625 21.96875 24.703125 23.78125 
L 21.578125 24.515625 
Q 13.234375 26.265625 9.515625 29.90625 
Q 5.8125 33.546875 5.8125 39.890625 
Q 5.8125 47.609375 11.28125 51.796875 
Q 16.75 56 26.8125 56 
Q 31.78125 56 36.171875 55.265625 
Q 40.578125 54.546875 44.28125 53.078125 
z
" id="DejaVuSans-115"/>
      </defs>
      <use xlink:href="#DejaVuSans-76"/>
      <use x="53.962891" xlink:href="#DejaVuSans-111"/>
      <use x="115.144531" xlink:href="#DejaVuSans-103"/>
      <use x="178.621094" xlink:href="#DejaVuSans-79"/>
      <use x="257.332031" xlink:href="#DejaVuSans-100"/>
      <use x="320.808594" xlink:href="#DejaVuSans-100"/>
      <use x="384.285156" xlink:href="#DejaVuSans-115"/>
     </g>
    </g>
   </g>
   <g id="line2d_16">
    <path clip-path="url(#p2c055ceae8)" d="M 229.005 260.654243 
L 287.595 260.654243 
L 287.595 233.488586 
L 229.005 233.488586 
L 229.005 260.654243 
" style="fill:none;stroke:#000000;stroke-linecap:square;"/>
   </g>
   <g id="line2d_17">
    <path clip-path="url(#p2c055ceae8)" d="M 258.3 260.654243 
L 258.3 287.134624 
" style="fill:none;stroke:#000000;stroke-linecap:square;"/>
   </g>
   <g id="line2d_18">
    <path clip-path="url(#p2c055ceae8)" d="M 258.3 233.488586 
L 258.3 219.493323 
" style="fill:none;stroke:#000000;stroke-linecap:square;"/>
   </g>
   <g id="line2d_19">
    <path clip-path="url(#p2c055ceae8)" d="M 243.6525 287.134624 
L 272.9475 287.134624 
" style="fill:none;stroke:#000000;stroke-linecap:square;"/>
   </g>
   <g id="line2d_20">
    <path clip-path="url(#p2c055ceae8)" d="M 243.6525 219.493323 
L 272.9475 219.493323 
" style="fill:none;stroke:#000000;stroke-linecap:square;"/>
   </g>
   <g id="line2d_21">
    <path clip-path="url(#p2c055ceae8)" d="M 229.005 241.352195 
L 287.595 241.352195 
" style="fill:none;stroke:#ff7f0e;stroke-linecap:square;"/>
   </g>
   <g id="patch_3">
    <path d="M 63 576.72 
L 63 77.76 
" style="fill:none;stroke:#000000;stroke-linecap:square;stroke-linejoin:miter;stroke-width:0.8;"/>
   </g>
   <g id="patch_4">
    <path d="M 453.6 576.72 
L 453.6 77.76 
" style="fill:none;stroke:#000000;stroke-linecap:square;stroke-linejoin:miter;stroke-width:0.8;"/>
   </g>
   <g id="patch_5">
    <path d="M 63 576.72 
L 453.6 576.72 
" style="fill:none;stroke:#000000;stroke-linecap:square;stroke-linejoin:miter;stroke-width:0.8;"/>
   </g>
   <g id="patch_6">
    <path d="M 63 77.76 
L 453.6 77.76 
" style="fill:none;stroke:#000000;stroke-linecap:square;stroke-linejoin:miter;stroke-width:0.8;"/>
   </g>
   <g id="text_17">
    <!-- 1 -->
    <g style="fill:#556b2f;" transform="translate(261.986186 238.363759)scale(0.1 -0.1)">
     <use xlink:href="#DejaVuSans-49"/>
    </g>
   </g>
   <g id="text_18">
    <!-- 2 -->
    <g style="fill:#8b4513;" transform="translate(257.068692 231.502009)scale(0.1 -0.1)">
     <use xlink:href="#DejaVuSans-50"/>
    </g>
   </g>
   <g id="text_19">
    <!-- 3.0 -->
    <g style="fill:#2e8b57;" transform="translate(277.139547 233.142779)scale(0.1 -0.1)">
     <use xlink:href="#DejaVuSans-51"/>
     <use x="63.623047" xlink:href="#DejaVuSans-46"/>
     <use x="95.410156" xlink:href="#DejaVuSans-48"/>
    </g>
   </g>
   <g id="text_20">
    <!-- 4.0 -->
    <g style="fill:#228b22;" transform="translate(271.112411 286.378624)scale(0.1 -0.1)">
     <defs>
      <path d="M 37.796875 64.3125 
L 12.890625 25.390625 
L 37.796875 25.390625 
z
M 35.203125 72.90625 
L 47.609375 72.90625 
L 47.609375 25.390625 
L 58.015625 25.390625 
L 58.015625 17.1875 
L 47.609375 17.1875 
L 47.609375 0 
L 37.796875 0 
L 37.796875 17.1875 
L 4.890625 17.1875 
L 4.890625 26.703125 
z
" id="DejaVuSans-52"/>
     </defs>
     <use xlink:href="#DejaVuSans-52"/>
     <use x="63.623047" xlink:href="#DejaVuSans-46"/>
     <use x="95.410156" xlink:href="#DejaVuSans-48"/>
    </g>
   </g>
   <g id="text_21">
    <!-- 5 -->
    <g style="fill:#708090;" transform="translate(267.125999 238.435393)scale(0.1 -0.1)">
     <use xlink:href="#DejaVuSans-53"/>
    </g>
   </g>
   <g id="text_22">
    <!-- 6 -->
    <g style="fill:#8b0000;" transform="translate(254.768046 184.293852)scale(0.1 -0.1)">
     <defs>
      <path d="M 33.015625 40.375 
Q 26.375 40.375 22.484375 35.828125 
Q 18.609375 31.296875 18.609375 23.390625 
Q 18.609375 15.53125 22.484375 10.953125 
Q 26.375 6.390625 33.015625 6.390625 
Q 39.65625 6.390625 43.53125 10.953125 
Q 47.40625 15.53125 47.40625 23.390625 
Q 47.40625 31.296875 43.53125 35.828125 
Q 39.65625 40.375 33.015625 40.375 
z
M 52.59375 71.296875 
L 52.59375 62.3125 
Q 48.875 64.0625 45.09375 64.984375 
Q 41.3125 65.921875 37.59375 65.921875 
Q 27.828125 65.921875 22.671875 59.328125 
Q 17.53125 52.734375 16.796875 39.40625 
Q 19.671875 43.65625 24.015625 45.921875 
Q 28.375 48.1875 33.59375 48.1875 
Q 44.578125 48.1875 50.953125 41.515625 
Q 57.328125 34.859375 57.328125 23.390625 
Q 57.328125 12.15625 50.6875 5.359375 
Q 44.046875 -1.421875 33.015625 -1.421875 
Q 20.359375 -1.421875 13.671875 8.265625 
Q 6.984375 17.96875 6.984375 36.375 
Q 6.984375 53.65625 15.1875 63.9375 
Q 23.390625 74.21875 37.203125 74.21875 
Q 40.921875 74.21875 44.703125 73.484375 
Q 48.484375 72.75 52.59375 71.296875 
z
" id="DejaVuSans-54"/>
     </defs>
     <use xlink:href="#DejaVuSans-54"/>
    </g>
   </g>
   <g id="text_23">
    <!-- 7.0 -->
    <g style="fill:#808000;" transform="translate(294.3036 248.313691)scale(0.1 -0.1)">
     <defs>
      <path d="M 8.203125 72.90625 
L 55.078125 72.90625 
L 55.078125 68.703125 
L 28.609375 0 
L 18.3125 0 
L 43.21875 64.59375 
L 8.203125 64.59375 
z
" id="DejaVuSans-55"/>
     </defs>
     <use xlink:href="#DejaVuSans-55"/>
     <use x="63.623047" xlink:href="#DejaVuSans-46"/>
     <use x="95.410156" xlink:href="#DejaVuSans-48"/>
    </g>
   </g>
   <g id="text_24">
    <!-- 9 -->
    <g style="fill:#008080;" transform="translate(256.115282 242.921289)scale(0.1 -0.1)">
     <defs>
      <path d="M 10.984375 1.515625 
L 10.984375 10.5 
Q 14.703125 8.734375 18.5 7.8125 
Q 22.3125 6.890625 25.984375 6.890625 
Q 35.75 6.890625 40.890625 13.453125 
Q 46.046875 20.015625 46.78125 33.40625 
Q 43.953125 29.203125 39.59375 26.953125 
Q 35.25 24.703125 29.984375 24.703125 
Q 19.046875 24.703125 12.671875 31.3125 
Q 6.296875 37.9375 6.296875 49.421875 
Q 6.296875 60.640625 12.9375 67.421875 
Q 19.578125 74.21875 30.609375 74.21875 
Q 43.265625 74.21875 49.921875 64.515625 
Q 56.59375 54.828125 56.59375 36.375 
Q 56.59375 19.140625 48.40625 8.859375 
Q 40.234375 -1.421875 26.421875 -1.421875 
Q 22.703125 -1.421875 18.890625 -0.6875 
Q 15.09375 0.046875 10.984375 1.515625 
z
M 30.609375 32.421875 
Q 37.25 32.421875 41.125 36.953125 
Q 45.015625 41.5 45.015625 49.421875 
Q 45.015625 57.28125 41.125 61.84375 
Q 37.25 66.40625 30.609375 66.40625 
Q 23.96875 66.40625 20.09375 61.84375 
Q 16.21875 57.28125 16.21875 49.421875 
Q 16.21875 41.5 20.09375 36.953125 
Q 23.96875 32.421875 30.609375 32.421875 
z
" id="DejaVuSans-57"/>
     </defs>
     <use xlink:href="#DejaVuSans-57"/>
    </g>
   </g>
   <g id="text_25">
    <!-- 10 -->
    <g style="fill:#b8860b;" transform="translate(237.493511 224.44638)scale(0.1 -0.1)">
     <use xlink:href="#DejaVuSans-49"/>
     <use x="63.623047" xlink:href="#DejaVuSans-48"/>
    </g>
   </g>
   <g id="text_26">
    <!-- 11 -->
    <g style="fill:#4682b4;" transform="translate(264.688875 234.297683)scale(0.1 -0.1)">
     <use xlink:href="#DejaVuSans-49"/>
     <use x="63.623047" xlink:href="#DejaVuSans-49"/>
    </g>
   </g>
   <g id="text_27">
    <!-- 12.0 -->
    <g style="fill:#d2691e;" transform="translate(275.167043 235.208883)scale(0.1 -0.1)">
     <use xlink:href="#DejaVuSans-49"/>
     <use x="63.623047" xlink:href="#DejaVuSans-50"/>
     <use x="127.246094" xlink:href="#DejaVuSans-46"/>
     <use x="159.033203" xlink:href="#DejaVuSans-48"/>
    </g>
   </g>
   <g id="text_28">
    <!-- 14 -->
    <g style="fill:#32cd32;" transform="translate(236.436631 224.028137)scale(0.1 -0.1)">
     <use xlink:href="#DejaVuSans-49"/>
     <use x="63.623047" xlink:href="#DejaVuSans-52"/>
    </g>
   </g>
   <g id="text_29">
    <!-- 15.0 -->
    <g style="fill:#8fbc8f;" transform="translate(260.583067 240.751799)scale(0.1 -0.1)">
     <use xlink:href="#DejaVuSans-49"/>
     <use x="63.623047" xlink:href="#DejaVuSans-53"/>
     <use x="127.246094" xlink:href="#DejaVuSans-46"/>
     <use x="159.033203" xlink:href="#DejaVuSans-48"/>
    </g>
   </g>
   <g id="text_30">
    <!-- 17 -->
    <g style="fill:#b03060;" transform="translate(241.552544 245.428038)scale(0.1 -0.1)">
     <use xlink:href="#DejaVuSans-49"/>
     <use x="63.623047" xlink:href="#DejaVuSans-55"/>
    </g>
   </g>
   <g id="text_31">
    <!-- 18.0 -->
    <g style="fill:#9932cc;" transform="translate(250.86698 351.745243)scale(0.1 -0.1)">
     <defs>
      <path d="M 31.78125 34.625 
Q 24.75 34.625 20.71875 30.859375 
Q 16.703125 27.09375 16.703125 20.515625 
Q 16.703125 13.921875 20.71875 10.15625 
Q 24.75 6.390625 31.78125 6.390625 
Q 38.8125 6.390625 42.859375 10.171875 
Q 46.921875 13.96875 46.921875 20.515625 
Q 46.921875 27.09375 42.890625 30.859375 
Q 38.875 34.625 31.78125 34.625 
z
M 21.921875 38.8125 
Q 15.578125 40.375 12.03125 44.71875 
Q 8.5 49.078125 8.5 55.328125 
Q 8.5 64.0625 14.71875 69.140625 
Q 20.953125 74.21875 31.78125 74.21875 
Q 42.671875 74.21875 48.875 69.140625 
Q 55.078125 64.0625 55.078125 55.328125 
Q 55.078125 49.078125 51.53125 44.71875 
Q 48 40.375 41.703125 38.8125 
Q 48.828125 37.15625 52.796875 32.3125 
Q 56.78125 27.484375 56.78125 20.515625 
Q 56.78125 9.90625 50.3125 4.234375 
Q 43.84375 -1.421875 31.78125 -1.421875 
Q 19.734375 -1.421875 13.25 4.234375 
Q 6.78125 9.90625 6.78125 20.515625 
Q 6.78125 27.484375 10.78125 32.3125 
Q 14.796875 37.15625 21.921875 38.8125 
z
M 18.3125 54.390625 
Q 18.3125 48.734375 21.84375 45.5625 
Q 25.390625 42.390625 31.78125 42.390625 
Q 38.140625 42.390625 41.71875 45.5625 
Q 45.3125 48.734375 45.3125 54.390625 
Q 45.3125 60.0625 41.71875 63.234375 
Q 38.140625 66.40625 31.78125 66.40625 
Q 25.390625 66.40625 21.84375 63.234375 
Q 18.3125 60.0625 18.3125 54.390625 
z
" id="DejaVuSans-56"/>
     </defs>
     <use xlink:href="#DejaVuSans-49"/>
     <use x="63.623047" xlink:href="#DejaVuSans-56"/>
     <use x="127.246094" xlink:href="#DejaVuSans-46"/>
     <use x="159.033203" xlink:href="#DejaVuSans-48"/>
    </g>
   </g>
   <g id="text_32">
    <!-- 22.3 -->
    <g style="fill:#ff8c00;" transform="translate(252.524607 233.560851)scale(0.1 -0.1)">
     <use xlink:href="#DejaVuSans-50"/>
     <use x="63.623047" xlink:href="#DejaVuSans-50"/>
     <use x="127.246094" xlink:href="#DejaVuSans-46"/>
     <use x="159.033203" xlink:href="#DejaVuSans-51"/>
    </g>
   </g>
   <g id="text_33">
    <!-- 21.0 -->
    <g style="fill:#ffd700;" transform="translate(263.401662 220.212339)scale(0.1 -0.1)">
     <use xlink:href="#DejaVuSans-50"/>
     <use x="63.623047" xlink:href="#DejaVuSans-49"/>
     <use x="127.246094" xlink:href="#DejaVuSans-46"/>
     <use x="159.033203" xlink:href="#DejaVuSans-48"/>
    </g>
   </g>
   <g id="text_34">
    <!-- 21.1 -->
    <g style="fill:#00bfff;" transform="translate(263.581125 218.737323)scale(0.1 -0.1)">
     <use xlink:href="#DejaVuSans-50"/>
     <use x="63.623047" xlink:href="#DejaVuSans-49"/>
     <use x="127.246094" xlink:href="#DejaVuSans-46"/>
     <use x="159.033203" xlink:href="#DejaVuSans-49"/>
    </g>
   </g>
   <g id="text_35">
    <!-- 20.1 -->
    <g style="fill:#0000ff;" transform="translate(257.779106 231.061168)scale(0.1 -0.1)">
     <use xlink:href="#DejaVuSans-50"/>
     <use x="63.623047" xlink:href="#DejaVuSans-48"/>
     <use x="127.246094" xlink:href="#DejaVuSans-46"/>
     <use x="159.033203" xlink:href="#DejaVuSans-49"/>
    </g>
   </g>
   <g id="text_36">
    <!-- 19.1 -->
    <g style="fill:#a020f0;" transform="translate(241.87223 261.899123)scale(0.1 -0.1)">
     <use xlink:href="#DejaVuSans-49"/>
     <use x="63.623047" xlink:href="#DejaVuSans-57"/>
     <use x="127.246094" xlink:href="#DejaVuSans-46"/>
     <use x="159.033203" xlink:href="#DejaVuSans-49"/>
    </g>
   </g>
   <g id="text_37">
    <!-- 16.2 -->
    <g style="fill:#da70d6;" transform="translate(241.653149 282.427898)scale(0.1 -0.1)">
     <use xlink:href="#DejaVuSans-49"/>
     <use x="63.623047" xlink:href="#DejaVuSans-54"/>
     <use x="127.246094" xlink:href="#DejaVuSans-46"/>
     <use x="159.033203" xlink:href="#DejaVuSans-50"/>
    </g>
   </g>
   <g id="text_38">
    <!-- 15.1 -->
    <g style="fill:#ff00ff;" transform="translate(257.037156 259.231283)scale(0.1 -0.1)">
     <use xlink:href="#DejaVuSans-49"/>
     <use x="63.623047" xlink:href="#DejaVuSans-53"/>
     <use x="127.246094" xlink:href="#DejaVuSans-46"/>
     <use x="159.033203" xlink:href="#DejaVuSans-49"/>
    </g>
   </g>
   <g id="text_39">
    <!-- 12.1 -->
    <g style="fill:#f0e68c;" transform="translate(237.434118 242.404463)scale(0.1 -0.1)">
     <use xlink:href="#DejaVuSans-49"/>
     <use x="63.623047" xlink:href="#DejaVuSans-50"/>
     <use x="127.246094" xlink:href="#DejaVuSans-46"/>
     <use x="159.033203" xlink:href="#DejaVuSans-49"/>
    </g>
   </g>
   <g id="text_40">
    <!-- 8.2 -->
    <g style="fill:#fa8072;" transform="translate(273.03647 256.09795)scale(0.1 -0.1)">
     <use xlink:href="#DejaVuSans-56"/>
     <use x="63.623047" xlink:href="#DejaVuSans-46"/>
     <use x="95.410156" xlink:href="#DejaVuSans-50"/>
    </g>
   </g>
   <g id="text_41">
    <!-- 8.1 -->
    <g style="fill:#ffff54;" transform="translate(256.853769 431.55075)scale(0.1 -0.1)">
     <use xlink:href="#DejaVuSans-56"/>
     <use x="63.623047" xlink:href="#DejaVuSans-46"/>
     <use x="95.410156" xlink:href="#DejaVuSans-49"/>
    </g>
   </g>
   <g id="text_42">
    <!-- 7.1 -->
    <g style="fill:#6495ed;" transform="translate(274.9216 381.511446)scale(0.1 -0.1)">
     <use xlink:href="#DejaVuSans-55"/>
     <use x="63.623047" xlink:href="#DejaVuSans-46"/>
     <use x="95.410156" xlink:href="#DejaVuSans-49"/>
    </g>
   </g>
   <g id="text_43">
    <!-- 4.1 -->
    <g style="fill:#90ee90;" transform="translate(249.575179 279.945907)scale(0.1 -0.1)">
     <use xlink:href="#DejaVuSans-52"/>
     <use x="63.623047" xlink:href="#DejaVuSans-46"/>
     <use x="95.410156" xlink:href="#DejaVuSans-49"/>
    </g>
   </g>
   <g id="text_44">
    <!-- 0.1 -->
    <g style="fill:#afeeee;" transform="translate(279.383305 240.440592)scale(0.1 -0.1)">
     <use xlink:href="#DejaVuSans-48"/>
     <use x="63.623047" xlink:href="#DejaVuSans-46"/>
     <use x="95.410156" xlink:href="#DejaVuSans-49"/>
    </g>
   </g>
  </g>
 </g>
 <defs>
  <clipPath id="p2c055ceae8">
   <rect height="498.96" width="390.6" x="63" y="77.76"/>
  </clipPath>
 </defs>
</svg>
