<?xml version="1.0" encoding="utf-8" standalone="no"?>
<!DOCTYPE svg PUBLIC "-//W3C//DTD SVG 1.1//EN"
  "http://www.w3.org/Graphics/SVG/1.1/DTD/svg11.dtd">
<!-- Created with matplotlib (https://matplotlib.org/) -->
<svg height="576pt" version="1.1" viewBox="0 0 288 576" width="288pt" xmlns="http://www.w3.org/2000/svg" xmlns:xlink="http://www.w3.org/1999/xlink">
 <metadata>
  <rdf:RDF xmlns:cc="http://creativecommons.org/ns#" xmlns:dc="http://purl.org/dc/elements/1.1/" xmlns:rdf="http://www.w3.org/1999/02/22-rdf-syntax-ns#">
   <cc:Work>
    <dc:type rdf:resource="http://purl.org/dc/dcmitype/StillImage"/>
    <dc:date>2022-06-22T09:13:04.406829</dc:date>
    <dc:format>image/svg+xml</dc:format>
    <dc:creator>
     <cc:Agent>
      <dc:title>Matplotlib v3.3.4, https://matplotlib.org/</dc:title>
     </cc:Agent>
    </dc:creator>
   </cc:Work>
  </rdf:RDF>
 </metadata>
 <defs>
  <style type="text/css">*{stroke-linecap:butt;stroke-linejoin:round;}</style>
 </defs>
 <g id="figure_1">
  <g id="patch_1">
   <path d="M 0 576 
L 288 576 
L 288 0 
L 0 0 
z
" style="fill:#ffffff;"/>
  </g>
  <g id="axes_1">
   <g id="patch_2">
    <path d="M 36 504 
L 259.2 504 
L 259.2 69.12 
L 36 69.12 
z
" style="fill:#ffffff;"/>
   </g>
   <g id="PathCollection_1">
    <path clip-path="url(#pe260b45998)" d="M 155.70345 390.945839 
C 159.790505 390.945839 163.710714 389.322035 166.600698 386.432051 
C 169.490682 383.542067 171.114486 379.621858 171.114486 375.534804 
C 171.114486 371.447749 169.490682 367.52754 166.600698 364.637556 
C 163.710714 361.747572 159.790505 360.123769 155.70345 360.123769 
C 151.616396 360.123769 147.696187 361.747572 144.806203 364.637556 
C 141.916219 367.52754 140.292415 371.447749 140.292415 375.534804 
C 140.292415 379.621858 141.916219 383.542067 144.806203 386.432051 
C 147.696187 389.322035 151.616396 390.945839 155.70345 390.945839 
z
" style="fill:#999999;stroke:#999999;"/>
    <path clip-path="url(#pe260b45998)" d="M 135.144212 267.426176 
C 139.231266 267.426176 143.151476 265.802372 146.04146 262.912388 
C 148.931443 260.022404 150.555247 256.102195 150.555247 252.015141 
C 150.555247 247.928087 148.931443 244.007877 146.04146 241.117893 
C 143.151476 238.22791 139.231266 236.604106 135.144212 236.604106 
C 131.057158 236.604106 127.136949 238.22791 124.246965 241.117893 
C 121.356981 244.007877 119.733177 247.928087 119.733177 252.015141 
C 119.733177 256.102195 121.356981 260.022404 124.246965 262.912388 
C 127.136949 265.802372 131.057158 267.426176 135.144212 267.426176 
z
" style="fill:#e69f00;stroke:#e69f00;"/>
    <path clip-path="url(#pe260b45998)" d="M 146.354928 362.641313 
C 149.735618 362.641313 152.978298 361.298151 155.368806 358.907642 
C 157.759315 356.517134 159.102477 353.274454 159.102477 349.893764 
C 159.102477 346.513075 157.759315 343.270394 155.368806 340.879886 
C 152.978298 338.489378 149.735618 337.146215 146.354928 337.146215 
C 142.974239 337.146215 139.731558 338.489378 137.34105 340.879886 
C 134.950542 343.270394 133.607379 346.513075 133.607379 349.893764 
C 133.607379 353.274454 134.950542 356.517134 137.34105 358.907642 
C 139.731558 361.298151 142.974239 362.641313 146.354928 362.641313 
z
" style="fill:#56b4e9;stroke:#56b4e9;"/>
    <path clip-path="url(#pe260b45998)" d="M 141.729074 474.617735 
C 144.209822 474.617735 146.589298 473.632124 148.343452 471.87797 
C 150.097606 470.123816 151.083217 467.744339 151.083217 465.263592 
C 151.083217 462.782844 150.097606 460.403367 148.343452 458.649213 
C 146.589298 456.89506 144.209822 455.909448 141.729074 455.909448 
C 139.248326 455.909448 136.868849 456.89506 135.114695 458.649213 
C 133.360542 460.403367 132.37493 462.782844 132.37493 465.263592 
C 132.37493 467.744339 133.360542 470.123816 135.114695 471.87797 
C 136.868849 473.632124 139.248326 474.617735 141.729074 474.617735 
z
" style="fill:#009e73;stroke:#009e73;"/>
    <path clip-path="url(#pe260b45998)" d="M 142.379672 299.563203 
C 144.476286 299.563203 146.487311 298.73021 147.969842 297.247679 
C 149.452372 295.765149 150.285366 293.754124 150.285366 291.657509 
C 150.285366 289.560895 149.452372 287.54987 147.969842 286.067339 
C 146.487311 284.584809 144.476286 283.751815 142.379672 283.751815 
C 140.283057 283.751815 138.272032 284.584809 136.789502 286.067339 
C 135.306971 287.54987 134.473977 289.560895 134.473977 291.657509 
C 134.473977 293.754124 135.306971 295.765149 136.789502 297.247679 
C 138.272032 298.73021 140.283057 299.563203 142.379672 299.563203 
z
" style="fill:#f0e442;stroke:#f0e442;"/>
    <path clip-path="url(#pe260b45998)" d="M 137.172062 310.89249 
C 139.65281 310.89249 142.032287 309.906879 143.78644 308.152725 
C 145.540594 306.398571 146.526206 304.019095 146.526206 301.538347 
C 146.526206 299.057599 145.540594 296.678122 143.78644 294.923969 
C 142.032287 293.169815 139.65281 292.184203 137.172062 292.184203 
C 134.691314 292.184203 132.311837 293.169815 130.557684 294.923969 
C 128.80353 296.678122 127.817919 299.057599 127.817919 301.538347 
C 127.817919 304.019095 128.80353 306.398571 130.557684 308.152725 
C 132.311837 309.906879 134.691314 310.89249 137.172062 310.89249 
z
" style="fill:#0072b2;stroke:#0072b2;"/>
    <path clip-path="url(#pe260b45998)" d="M 158.974561 368.663465 
C 161.271287 368.663465 163.474255 367.750966 165.098285 366.126935 
C 166.722316 364.502905 167.634815 362.299937 167.634815 360.003211 
C 167.634815 357.706485 166.722316 355.503517 165.098285 353.879487 
C 163.474255 352.255456 161.271287 351.342957 158.974561 351.342957 
C 156.677835 351.342957 154.474867 352.255456 152.850837 353.879487 
C 151.226806 355.503517 150.314307 357.706485 150.314307 360.003211 
C 150.314307 362.299937 151.226806 364.502905 152.850837 366.126935 
C 154.474867 367.750966 156.677835 368.663465 158.974561 368.663465 
z
" style="fill:#d55e00;stroke:#d55e00;"/>
    <path clip-path="url(#pe260b45998)" d="M 150.387901 336.782155 
C 152.011932 336.782155 153.569665 336.13692 154.718028 334.988557 
C 155.866391 333.840194 156.511626 332.282461 156.511626 330.65843 
C 156.511626 329.0344 155.866391 327.476666 154.718028 326.328303 
C 153.569665 325.17994 152.011932 324.534706 150.387901 324.534706 
C 148.763871 324.534706 147.206137 325.17994 146.057774 326.328303 
C 144.909411 327.476666 144.264177 329.0344 144.264177 330.65843 
C 144.264177 332.282461 144.909411 333.840194 146.057774 334.988557 
C 147.206137 336.13692 148.763871 336.782155 150.387901 336.782155 
z
" style="fill:#cc79a7;stroke:#cc79a7;"/>
    <path clip-path="url(#pe260b45998)" d="M 138.300519 221.707606 
C 140.397134 221.707606 142.408159 220.874612 143.890689 219.392082 
C 145.37322 217.909552 146.206213 215.898527 146.206213 213.801912 
C 146.206213 211.705297 145.37322 209.694272 143.890689 208.211742 
C 142.408159 206.729212 140.397134 205.896218 138.300519 205.896218 
C 136.203905 205.896218 134.19288 206.729212 132.710349 208.211742 
C 131.227819 209.694272 130.394825 211.705297 130.394825 213.801912 
C 130.394825 215.898527 131.227819 217.909552 132.710349 219.392082 
C 134.19288 220.874612 136.203905 221.707606 138.300519 221.707606 
z
" style="fill:#f46d43;stroke:#f46d43;"/>
    <path clip-path="url(#pe260b45998)" d="M 146.251808 320.863657 
C 148.548534 320.863657 150.751501 319.951158 152.375532 318.327128 
C 153.999563 316.703097 154.912062 314.50013 154.912062 312.203403 
C 154.912062 309.906677 153.999563 307.70371 152.375532 306.079679 
C 150.751501 304.455648 148.548534 303.543149 146.251808 303.543149 
C 143.955081 303.543149 141.752114 304.455648 140.128083 306.079679 
C 138.504053 307.70371 137.591554 309.906677 137.591554 312.203403 
C 137.591554 314.50013 138.504053 316.703097 140.128083 318.327128 
C 141.752114 319.951158 143.955081 320.863657 146.251808 320.863657 
z
" style="fill:#abd9e9;stroke:#abd9e9;"/>
    <path clip-path="url(#pe260b45998)" d="M 148.060484 235.493133 
C 149.684515 235.493133 151.242248 234.847899 152.390611 233.699536 
C 153.538975 232.551173 154.184209 230.99344 154.184209 229.369409 
C 154.184209 227.745378 153.538975 226.187645 152.390611 225.039282 
C 151.242248 223.890919 149.684515 223.245684 148.060484 223.245684 
C 146.436454 223.245684 144.87872 223.890919 143.730357 225.039282 
C 142.581994 226.187645 141.93676 227.745378 141.93676 229.369409 
C 141.93676 230.99344 142.581994 232.551173 143.730357 233.699536 
C 144.87872 234.847899 146.436454 235.493133 148.060484 235.493133 
z
" style="fill:#999999;stroke:#999999;"/>
    <path clip-path="url(#pe260b45998)" d="M 154.329093 409.394429 
C 155.953124 409.394429 157.510857 408.749194 158.65922 407.600831 
C 159.807583 406.452468 160.452818 404.894735 160.452818 403.270704 
C 160.452818 401.646674 159.807583 400.08894 158.65922 398.940577 
C 157.510857 397.792214 155.953124 397.14698 154.329093 397.14698 
C 152.705063 397.14698 151.147329 397.792214 149.998966 398.940577 
C 148.850603 400.08894 148.205369 401.646674 148.205369 403.270704 
C 148.205369 404.894735 148.850603 406.452468 149.998966 407.600831 
C 151.147329 408.749194 152.705063 409.394429 154.329093 409.394429 
z
" style="fill:#e69f00;stroke:#e69f00;"/>
    <path clip-path="url(#pe260b45998)" d="M 136.944236 501.792741 
C 138.568267 501.792741 140.126 501.147507 141.274363 499.999144 
C 142.422726 498.850781 143.067961 497.293047 143.067961 495.669017 
C 143.067961 494.044986 142.422726 492.487253 141.274363 491.33889 
C 140.126 490.190526 138.568267 489.545292 136.944236 489.545292 
C 135.320205 489.545292 133.762472 490.190526 132.614109 491.33889 
C 131.465746 492.487253 130.820512 494.044986 130.820512 495.669017 
C 130.820512 497.293047 131.465746 498.850781 132.614109 499.999144 
C 133.762472 501.147507 135.320205 501.792741 136.944236 501.792741 
z
" style="fill:#56b4e9;stroke:#56b4e9;"/>
    <path clip-path="url(#pe260b45998)" d="M 130.320081 349.48506 
C 132.972112 349.48506 135.515879 348.431397 137.391148 346.556128 
C 139.266417 344.680859 140.320081 342.137091 140.320081 339.48506 
C 140.320081 336.833029 139.266417 334.289261 137.391148 332.413992 
C 135.515879 330.538723 132.972112 329.48506 130.320081 329.48506 
C 127.66805 329.48506 125.124282 330.538723 123.249013 332.413992 
C 121.373744 334.289261 120.320081 336.833029 120.320081 339.48506 
C 120.320081 342.137091 121.373744 344.680859 123.249013 346.556128 
C 125.124282 348.431397 127.66805 349.48506 130.320081 349.48506 
z
" style="fill:#009e73;stroke:#009e73;"/>
    <path clip-path="url(#pe260b45998)" d="M 150.242699 316.195256 
C 152.339314 316.195256 154.350339 315.362262 155.832869 313.879731 
C 157.315399 312.397201 158.148393 310.386176 158.148393 308.289561 
C 158.148393 306.192947 157.315399 304.181922 155.832869 302.699391 
C 154.350339 301.216861 152.339314 300.383867 150.242699 300.383867 
C 148.146084 300.383867 146.13506 301.216861 144.652529 302.699391 
C 143.169999 304.181922 142.337005 306.192947 142.337005 308.289561 
C 142.337005 310.386176 143.169999 312.397201 144.652529 313.879731 
C 146.13506 315.362262 148.146084 316.195256 150.242699 316.195256 
z
" style="fill:#f0e442;stroke:#f0e442;"/>
    <path clip-path="url(#pe260b45998)" d="M 156.019979 405.24152 
C 157.345995 405.24152 158.617879 404.714688 159.555513 403.777054 
C 160.493148 402.839419 161.019979 401.567535 161.019979 400.24152 
C 161.019979 398.915504 160.493148 397.64362 159.555513 396.705986 
C 158.617879 395.768351 157.345995 395.24152 156.019979 395.24152 
C 154.693964 395.24152 153.42208 395.768351 152.484445 396.705986 
C 151.546811 397.64362 151.019979 398.915504 151.019979 400.24152 
C 151.019979 401.567535 151.546811 402.839419 152.484445 403.777054 
C 153.42208 404.714688 154.693964 405.24152 156.019979 405.24152 
z
" style="fill:#d55e00;stroke:#d55e00;"/>
    <path clip-path="url(#pe260b45998)" d="M 155.866052 362.754688 
C 157.192067 362.754688 158.463951 362.227857 159.401586 361.290222 
C 160.33922 360.352588 160.866052 359.080704 160.866052 357.754688 
C 160.866052 356.428673 160.33922 355.156789 159.401586 354.219154 
C 158.463951 353.28152 157.192067 352.754688 155.866052 352.754688 
C 154.540036 352.754688 153.268152 353.28152 152.330518 354.219154 
C 151.392883 355.156789 150.866052 356.428673 150.866052 357.754688 
C 150.866052 359.080704 151.392883 360.352588 152.330518 361.290222 
C 153.268152 362.227857 154.540036 362.754688 155.866052 362.754688 
z
" style="fill:#cc79a7;stroke:#cc79a7;"/>
    <path clip-path="url(#pe260b45998)" d="M 146.764382 370.486839 
C 148.090397 370.486839 149.362281 369.960007 150.299916 369.022373 
C 151.23755 368.084738 151.764382 366.812854 151.764382 365.486839 
C 151.764382 364.160823 151.23755 362.888939 150.299916 361.951305 
C 149.362281 361.01367 148.090397 360.486839 146.764382 360.486839 
C 145.438366 360.486839 144.166482 361.01367 143.228848 361.951305 
C 142.291213 362.888939 141.764382 364.160823 141.764382 365.486839 
C 141.764382 366.812854 142.291213 368.084738 143.228848 369.022373 
C 144.166482 369.960007 145.438366 370.486839 146.764382 370.486839 
z
" style="fill:#abd9e9;stroke:#abd9e9;"/>
   </g>
   <g id="matplotlib.axis_1">
    <g id="xtick_1">
     <g id="line2d_1">
      <defs>
       <path d="M 0 0 
L 0 3.5 
" id="m98129f03aa" style="stroke:#000000;stroke-width:0.8;"/>
      </defs>
      <g>
       <use style="stroke:#000000;stroke-width:0.8;" x="147.6" xlink:href="#m98129f03aa" y="504"/>
      </g>
     </g>
     <g id="text_1">
      <!-- MeanPD -->
      <g transform="translate(127.111719 518.598438)scale(0.1 -0.1)">
       <defs>
        <path d="M 9.8125 72.90625 
L 24.515625 72.90625 
L 43.109375 23.296875 
L 61.8125 72.90625 
L 76.515625 72.90625 
L 76.515625 0 
L 66.890625 0 
L 66.890625 64.015625 
L 48.09375 14.015625 
L 38.1875 14.015625 
L 19.390625 64.015625 
L 19.390625 0 
L 9.8125 0 
z
" id="DejaVuSans-77"/>
        <path d="M 56.203125 29.59375 
L 56.203125 25.203125 
L 14.890625 25.203125 
Q 15.484375 15.921875 20.484375 11.0625 
Q 25.484375 6.203125 34.421875 6.203125 
Q 39.59375 6.203125 44.453125 7.46875 
Q 49.3125 8.734375 54.109375 11.28125 
L 54.109375 2.78125 
Q 49.265625 0.734375 44.1875 -0.34375 
Q 39.109375 -1.421875 33.890625 -1.421875 
Q 20.796875 -1.421875 13.15625 6.1875 
Q 5.515625 13.8125 5.515625 26.8125 
Q 5.515625 40.234375 12.765625 48.109375 
Q 20.015625 56 32.328125 56 
Q 43.359375 56 49.78125 48.890625 
Q 56.203125 41.796875 56.203125 29.59375 
z
M 47.21875 32.234375 
Q 47.125 39.59375 43.09375 43.984375 
Q 39.0625 48.390625 32.421875 48.390625 
Q 24.90625 48.390625 20.390625 44.140625 
Q 15.875 39.890625 15.1875 32.171875 
z
" id="DejaVuSans-101"/>
        <path d="M 34.28125 27.484375 
Q 23.390625 27.484375 19.1875 25 
Q 14.984375 22.515625 14.984375 16.5 
Q 14.984375 11.71875 18.140625 8.90625 
Q 21.296875 6.109375 26.703125 6.109375 
Q 34.1875 6.109375 38.703125 11.40625 
Q 43.21875 16.703125 43.21875 25.484375 
L 43.21875 27.484375 
z
M 52.203125 31.203125 
L 52.203125 0 
L 43.21875 0 
L 43.21875 8.296875 
Q 40.140625 3.328125 35.546875 0.953125 
Q 30.953125 -1.421875 24.3125 -1.421875 
Q 15.921875 -1.421875 10.953125 3.296875 
Q 6 8.015625 6 15.921875 
Q 6 25.140625 12.171875 29.828125 
Q 18.359375 34.515625 30.609375 34.515625 
L 43.21875 34.515625 
L 43.21875 35.40625 
Q 43.21875 41.609375 39.140625 45 
Q 35.0625 48.390625 27.6875 48.390625 
Q 23 48.390625 18.546875 47.265625 
Q 14.109375 46.140625 10.015625 43.890625 
L 10.015625 52.203125 
Q 14.9375 54.109375 19.578125 55.046875 
Q 24.21875 56 28.609375 56 
Q 40.484375 56 46.34375 49.84375 
Q 52.203125 43.703125 52.203125 31.203125 
z
" id="DejaVuSans-97"/>
        <path d="M 54.890625 33.015625 
L 54.890625 0 
L 45.90625 0 
L 45.90625 32.71875 
Q 45.90625 40.484375 42.875 44.328125 
Q 39.84375 48.1875 33.796875 48.1875 
Q 26.515625 48.1875 22.3125 43.546875 
Q 18.109375 38.921875 18.109375 30.90625 
L 18.109375 0 
L 9.078125 0 
L 9.078125 54.6875 
L 18.109375 54.6875 
L 18.109375 46.1875 
Q 21.34375 51.125 25.703125 53.5625 
Q 30.078125 56 35.796875 56 
Q 45.21875 56 50.046875 50.171875 
Q 54.890625 44.34375 54.890625 33.015625 
z
" id="DejaVuSans-110"/>
        <path d="M 19.671875 64.796875 
L 19.671875 37.40625 
L 32.078125 37.40625 
Q 38.96875 37.40625 42.71875 40.96875 
Q 46.484375 44.53125 46.484375 51.125 
Q 46.484375 57.671875 42.71875 61.234375 
Q 38.96875 64.796875 32.078125 64.796875 
z
M 9.8125 72.90625 
L 32.078125 72.90625 
Q 44.34375 72.90625 50.609375 67.359375 
Q 56.890625 61.8125 56.890625 51.125 
Q 56.890625 40.328125 50.609375 34.8125 
Q 44.34375 29.296875 32.078125 29.296875 
L 19.671875 29.296875 
L 19.671875 0 
L 9.8125 0 
z
" id="DejaVuSans-80"/>
        <path d="M 19.671875 64.796875 
L 19.671875 8.109375 
L 31.59375 8.109375 
Q 46.6875 8.109375 53.6875 14.9375 
Q 60.6875 21.78125 60.6875 36.53125 
Q 60.6875 51.171875 53.6875 57.984375 
Q 46.6875 64.796875 31.59375 64.796875 
z
M 9.8125 72.90625 
L 30.078125 72.90625 
Q 51.265625 72.90625 61.171875 64.09375 
Q 71.09375 55.28125 71.09375 36.53125 
Q 71.09375 17.671875 61.125 8.828125 
Q 51.171875 0 30.078125 0 
L 9.8125 0 
z
" id="DejaVuSans-68"/>
       </defs>
       <use xlink:href="#DejaVuSans-77"/>
       <use x="86.279297" xlink:href="#DejaVuSans-101"/>
       <use x="147.802734" xlink:href="#DejaVuSans-97"/>
       <use x="209.082031" xlink:href="#DejaVuSans-110"/>
       <use x="272.460938" xlink:href="#DejaVuSans-80"/>
       <use x="332.763672" xlink:href="#DejaVuSans-68"/>
      </g>
     </g>
    </g>
   </g>
   <g id="matplotlib.axis_2">
    <g id="ytick_1">
     <g id="line2d_2">
      <defs>
       <path d="M 0 0 
L -3.5 0 
" id="m0e9615d518" style="stroke:#000000;stroke-width:0.8;"/>
      </defs>
      <g>
       <use style="stroke:#000000;stroke-width:0.8;" x="36" xlink:href="#m0e9615d518" y="494.747234"/>
      </g>
     </g>
     <g id="text_2">
      <!-- −1.5 -->
      <g transform="translate(4.717187 498.546453)scale(0.1 -0.1)">
       <defs>
        <path d="M 10.59375 35.5 
L 73.1875 35.5 
L 73.1875 27.203125 
L 10.59375 27.203125 
z
" id="DejaVuSans-8722"/>
        <path d="M 12.40625 8.296875 
L 28.515625 8.296875 
L 28.515625 63.921875 
L 10.984375 60.40625 
L 10.984375 69.390625 
L 28.421875 72.90625 
L 38.28125 72.90625 
L 38.28125 8.296875 
L 54.390625 8.296875 
L 54.390625 0 
L 12.40625 0 
z
" id="DejaVuSans-49"/>
        <path d="M 10.6875 12.40625 
L 21 12.40625 
L 21 0 
L 10.6875 0 
z
" id="DejaVuSans-46"/>
        <path d="M 10.796875 72.90625 
L 49.515625 72.90625 
L 49.515625 64.59375 
L 19.828125 64.59375 
L 19.828125 46.734375 
Q 21.96875 47.46875 24.109375 47.828125 
Q 26.265625 48.1875 28.421875 48.1875 
Q 40.625 48.1875 47.75 41.5 
Q 54.890625 34.8125 54.890625 23.390625 
Q 54.890625 11.625 47.5625 5.09375 
Q 40.234375 -1.421875 26.90625 -1.421875 
Q 22.3125 -1.421875 17.546875 -0.640625 
Q 12.796875 0.140625 7.71875 1.703125 
L 7.71875 11.625 
Q 12.109375 9.234375 16.796875 8.0625 
Q 21.484375 6.890625 26.703125 6.890625 
Q 35.15625 6.890625 40.078125 11.328125 
Q 45.015625 15.765625 45.015625 23.390625 
Q 45.015625 31 40.078125 35.4375 
Q 35.15625 39.890625 26.703125 39.890625 
Q 22.75 39.890625 18.8125 39.015625 
Q 14.890625 38.140625 10.796875 36.28125 
z
" id="DejaVuSans-53"/>
       </defs>
       <use xlink:href="#DejaVuSans-8722"/>
       <use x="83.789062" xlink:href="#DejaVuSans-49"/>
       <use x="147.412109" xlink:href="#DejaVuSans-46"/>
       <use x="179.199219" xlink:href="#DejaVuSans-53"/>
      </g>
     </g>
    </g>
    <g id="ytick_2">
     <g id="line2d_3">
      <g>
       <use style="stroke:#000000;stroke-width:0.8;" x="36" xlink:href="#m0e9615d518" y="448.483404"/>
      </g>
     </g>
     <g id="text_3">
      <!-- −1.0 -->
      <g transform="translate(4.717187 452.282623)scale(0.1 -0.1)">
       <defs>
        <path d="M 31.78125 66.40625 
Q 24.171875 66.40625 20.328125 58.90625 
Q 16.5 51.421875 16.5 36.375 
Q 16.5 21.390625 20.328125 13.890625 
Q 24.171875 6.390625 31.78125 6.390625 
Q 39.453125 6.390625 43.28125 13.890625 
Q 47.125 21.390625 47.125 36.375 
Q 47.125 51.421875 43.28125 58.90625 
Q 39.453125 66.40625 31.78125 66.40625 
z
M 31.78125 74.21875 
Q 44.046875 74.21875 50.515625 64.515625 
Q 56.984375 54.828125 56.984375 36.375 
Q 56.984375 17.96875 50.515625 8.265625 
Q 44.046875 -1.421875 31.78125 -1.421875 
Q 19.53125 -1.421875 13.0625 8.265625 
Q 6.59375 17.96875 6.59375 36.375 
Q 6.59375 54.828125 13.0625 64.515625 
Q 19.53125 74.21875 31.78125 74.21875 
z
" id="DejaVuSans-48"/>
       </defs>
       <use xlink:href="#DejaVuSans-8722"/>
       <use x="83.789062" xlink:href="#DejaVuSans-49"/>
       <use x="147.412109" xlink:href="#DejaVuSans-46"/>
       <use x="179.199219" xlink:href="#DejaVuSans-48"/>
      </g>
     </g>
    </g>
    <g id="ytick_3">
     <g id="line2d_4">
      <g>
       <use style="stroke:#000000;stroke-width:0.8;" x="36" xlink:href="#m0e9615d518" y="402.219574"/>
      </g>
     </g>
     <g id="text_4">
      <!-- −0.5 -->
      <g transform="translate(4.717187 406.018793)scale(0.1 -0.1)">
       <use xlink:href="#DejaVuSans-8722"/>
       <use x="83.789062" xlink:href="#DejaVuSans-48"/>
       <use x="147.412109" xlink:href="#DejaVuSans-46"/>
       <use x="179.199219" xlink:href="#DejaVuSans-53"/>
      </g>
     </g>
    </g>
    <g id="ytick_4">
     <g id="line2d_5">
      <g>
       <use style="stroke:#000000;stroke-width:0.8;" x="36" xlink:href="#m0e9615d518" y="355.955745"/>
      </g>
     </g>
     <g id="text_5">
      <!-- 0.0 -->
      <g transform="translate(13.096875 359.754963)scale(0.1 -0.1)">
       <use xlink:href="#DejaVuSans-48"/>
       <use x="63.623047" xlink:href="#DejaVuSans-46"/>
       <use x="95.410156" xlink:href="#DejaVuSans-48"/>
      </g>
     </g>
    </g>
    <g id="ytick_5">
     <g id="line2d_6">
      <g>
       <use style="stroke:#000000;stroke-width:0.8;" x="36" xlink:href="#m0e9615d518" y="309.691915"/>
      </g>
     </g>
     <g id="text_6">
      <!-- 0.5 -->
      <g transform="translate(13.096875 313.491134)scale(0.1 -0.1)">
       <use xlink:href="#DejaVuSans-48"/>
       <use x="63.623047" xlink:href="#DejaVuSans-46"/>
       <use x="95.410156" xlink:href="#DejaVuSans-53"/>
      </g>
     </g>
    </g>
    <g id="ytick_6">
     <g id="line2d_7">
      <g>
       <use style="stroke:#000000;stroke-width:0.8;" x="36" xlink:href="#m0e9615d518" y="263.428085"/>
      </g>
     </g>
     <g id="text_7">
      <!-- 1.0 -->
      <g transform="translate(13.096875 267.227304)scale(0.1 -0.1)">
       <use xlink:href="#DejaVuSans-49"/>
       <use x="63.623047" xlink:href="#DejaVuSans-46"/>
       <use x="95.410156" xlink:href="#DejaVuSans-48"/>
      </g>
     </g>
    </g>
    <g id="ytick_7">
     <g id="line2d_8">
      <g>
       <use style="stroke:#000000;stroke-width:0.8;" x="36" xlink:href="#m0e9615d518" y="217.164255"/>
      </g>
     </g>
     <g id="text_8">
      <!-- 1.5 -->
      <g transform="translate(13.096875 220.963474)scale(0.1 -0.1)">
       <use xlink:href="#DejaVuSans-49"/>
       <use x="63.623047" xlink:href="#DejaVuSans-46"/>
       <use x="95.410156" xlink:href="#DejaVuSans-53"/>
      </g>
     </g>
    </g>
    <g id="ytick_8">
     <g id="line2d_9">
      <g>
       <use style="stroke:#000000;stroke-width:0.8;" x="36" xlink:href="#m0e9615d518" y="170.900426"/>
      </g>
     </g>
     <g id="text_9">
      <!-- 2.0 -->
      <g transform="translate(13.096875 174.699644)scale(0.1 -0.1)">
       <defs>
        <path d="M 19.1875 8.296875 
L 53.609375 8.296875 
L 53.609375 0 
L 7.328125 0 
L 7.328125 8.296875 
Q 12.9375 14.109375 22.625 23.890625 
Q 32.328125 33.6875 34.8125 36.53125 
Q 39.546875 41.84375 41.421875 45.53125 
Q 43.3125 49.21875 43.3125 52.78125 
Q 43.3125 58.59375 39.234375 62.25 
Q 35.15625 65.921875 28.609375 65.921875 
Q 23.96875 65.921875 18.8125 64.3125 
Q 13.671875 62.703125 7.8125 59.421875 
L 7.8125 69.390625 
Q 13.765625 71.78125 18.9375 73 
Q 24.125 74.21875 28.421875 74.21875 
Q 39.75 74.21875 46.484375 68.546875 
Q 53.21875 62.890625 53.21875 53.421875 
Q 53.21875 48.921875 51.53125 44.890625 
Q 49.859375 40.875 45.40625 35.40625 
Q 44.1875 33.984375 37.640625 27.21875 
Q 31.109375 20.453125 19.1875 8.296875 
z
" id="DejaVuSans-50"/>
       </defs>
       <use xlink:href="#DejaVuSans-50"/>
       <use x="63.623047" xlink:href="#DejaVuSans-46"/>
       <use x="95.410156" xlink:href="#DejaVuSans-48"/>
      </g>
     </g>
    </g>
    <g id="ytick_9">
     <g id="line2d_10">
      <g>
       <use style="stroke:#000000;stroke-width:0.8;" x="36" xlink:href="#m0e9615d518" y="124.636596"/>
      </g>
     </g>
     <g id="text_10">
      <!-- 2.5 -->
      <g transform="translate(13.096875 128.435814)scale(0.1 -0.1)">
       <use xlink:href="#DejaVuSans-50"/>
       <use x="63.623047" xlink:href="#DejaVuSans-46"/>
       <use x="95.410156" xlink:href="#DejaVuSans-53"/>
      </g>
     </g>
    </g>
    <g id="ytick_10">
     <g id="line2d_11">
      <g>
       <use style="stroke:#000000;stroke-width:0.8;" x="36" xlink:href="#m0e9615d518" y="78.372766"/>
      </g>
     </g>
     <g id="text_11">
      <!-- 3.0 -->
      <g transform="translate(13.096875 82.171985)scale(0.1 -0.1)">
       <defs>
        <path d="M 40.578125 39.3125 
Q 47.65625 37.796875 51.625 33 
Q 55.609375 28.21875 55.609375 21.1875 
Q 55.609375 10.40625 48.1875 4.484375 
Q 40.765625 -1.421875 27.09375 -1.421875 
Q 22.515625 -1.421875 17.65625 -0.515625 
Q 12.796875 0.390625 7.625 2.203125 
L 7.625 11.71875 
Q 11.71875 9.328125 16.59375 8.109375 
Q 21.484375 6.890625 26.8125 6.890625 
Q 36.078125 6.890625 40.9375 10.546875 
Q 45.796875 14.203125 45.796875 21.1875 
Q 45.796875 27.640625 41.28125 31.265625 
Q 36.765625 34.90625 28.71875 34.90625 
L 20.21875 34.90625 
L 20.21875 43.015625 
L 29.109375 43.015625 
Q 36.375 43.015625 40.234375 45.921875 
Q 44.09375 48.828125 44.09375 54.296875 
Q 44.09375 59.90625 40.109375 62.90625 
Q 36.140625 65.921875 28.71875 65.921875 
Q 24.65625 65.921875 20.015625 65.03125 
Q 15.375 64.15625 9.8125 62.3125 
L 9.8125 71.09375 
Q 15.4375 72.65625 20.34375 73.4375 
Q 25.25 74.21875 29.59375 74.21875 
Q 40.828125 74.21875 47.359375 69.109375 
Q 53.90625 64.015625 53.90625 55.328125 
Q 53.90625 49.265625 50.4375 45.09375 
Q 46.96875 40.921875 40.578125 39.3125 
z
" id="DejaVuSans-51"/>
       </defs>
       <use xlink:href="#DejaVuSans-51"/>
       <use x="63.623047" xlink:href="#DejaVuSans-46"/>
       <use x="95.410156" xlink:href="#DejaVuSans-48"/>
      </g>
     </g>
    </g>
    <g id="text_12">
     <!-- LogOdds -->
     <g transform="translate(-1.3625 308.381094)rotate(-90)scale(0.1 -0.1)">
      <defs>
       <path d="M 9.8125 72.90625 
L 19.671875 72.90625 
L 19.671875 8.296875 
L 55.171875 8.296875 
L 55.171875 0 
L 9.8125 0 
z
" id="DejaVuSans-76"/>
       <path d="M 30.609375 48.390625 
Q 23.390625 48.390625 19.1875 42.75 
Q 14.984375 37.109375 14.984375 27.296875 
Q 14.984375 17.484375 19.15625 11.84375 
Q 23.34375 6.203125 30.609375 6.203125 
Q 37.796875 6.203125 41.984375 11.859375 
Q 46.1875 17.53125 46.1875 27.296875 
Q 46.1875 37.015625 41.984375 42.703125 
Q 37.796875 48.390625 30.609375 48.390625 
z
M 30.609375 56 
Q 42.328125 56 49.015625 48.375 
Q 55.71875 40.765625 55.71875 27.296875 
Q 55.71875 13.875 49.015625 6.21875 
Q 42.328125 -1.421875 30.609375 -1.421875 
Q 18.84375 -1.421875 12.171875 6.21875 
Q 5.515625 13.875 5.515625 27.296875 
Q 5.515625 40.765625 12.171875 48.375 
Q 18.84375 56 30.609375 56 
z
" id="DejaVuSans-111"/>
       <path d="M 45.40625 27.984375 
Q 45.40625 37.75 41.375 43.109375 
Q 37.359375 48.484375 30.078125 48.484375 
Q 22.859375 48.484375 18.828125 43.109375 
Q 14.796875 37.75 14.796875 27.984375 
Q 14.796875 18.265625 18.828125 12.890625 
Q 22.859375 7.515625 30.078125 7.515625 
Q 37.359375 7.515625 41.375 12.890625 
Q 45.40625 18.265625 45.40625 27.984375 
z
M 54.390625 6.78125 
Q 54.390625 -7.171875 48.1875 -13.984375 
Q 42 -20.796875 29.203125 -20.796875 
Q 24.46875 -20.796875 20.265625 -20.09375 
Q 16.0625 -19.390625 12.109375 -17.921875 
L 12.109375 -9.1875 
Q 16.0625 -11.328125 19.921875 -12.34375 
Q 23.78125 -13.375 27.78125 -13.375 
Q 36.625 -13.375 41.015625 -8.765625 
Q 45.40625 -4.15625 45.40625 5.171875 
L 45.40625 9.625 
Q 42.625 4.78125 38.28125 2.390625 
Q 33.9375 0 27.875 0 
Q 17.828125 0 11.671875 7.65625 
Q 5.515625 15.328125 5.515625 27.984375 
Q 5.515625 40.671875 11.671875 48.328125 
Q 17.828125 56 27.875 56 
Q 33.9375 56 38.28125 53.609375 
Q 42.625 51.21875 45.40625 46.390625 
L 45.40625 54.6875 
L 54.390625 54.6875 
z
" id="DejaVuSans-103"/>
       <path d="M 39.40625 66.21875 
Q 28.65625 66.21875 22.328125 58.203125 
Q 16.015625 50.203125 16.015625 36.375 
Q 16.015625 22.609375 22.328125 14.59375 
Q 28.65625 6.59375 39.40625 6.59375 
Q 50.140625 6.59375 56.421875 14.59375 
Q 62.703125 22.609375 62.703125 36.375 
Q 62.703125 50.203125 56.421875 58.203125 
Q 50.140625 66.21875 39.40625 66.21875 
z
M 39.40625 74.21875 
Q 54.734375 74.21875 63.90625 63.9375 
Q 73.09375 53.65625 73.09375 36.375 
Q 73.09375 19.140625 63.90625 8.859375 
Q 54.734375 -1.421875 39.40625 -1.421875 
Q 24.03125 -1.421875 14.8125 8.828125 
Q 5.609375 19.09375 5.609375 36.375 
Q 5.609375 53.65625 14.8125 63.9375 
Q 24.03125 74.21875 39.40625 74.21875 
z
" id="DejaVuSans-79"/>
       <path d="M 45.40625 46.390625 
L 45.40625 75.984375 
L 54.390625 75.984375 
L 54.390625 0 
L 45.40625 0 
L 45.40625 8.203125 
Q 42.578125 3.328125 38.25 0.953125 
Q 33.9375 -1.421875 27.875 -1.421875 
Q 17.96875 -1.421875 11.734375 6.484375 
Q 5.515625 14.40625 5.515625 27.296875 
Q 5.515625 40.1875 11.734375 48.09375 
Q 17.96875 56 27.875 56 
Q 33.9375 56 38.25 53.625 
Q 42.578125 51.265625 45.40625 46.390625 
z
M 14.796875 27.296875 
Q 14.796875 17.390625 18.875 11.75 
Q 22.953125 6.109375 30.078125 6.109375 
Q 37.203125 6.109375 41.296875 11.75 
Q 45.40625 17.390625 45.40625 27.296875 
Q 45.40625 37.203125 41.296875 42.84375 
Q 37.203125 48.484375 30.078125 48.484375 
Q 22.953125 48.484375 18.875 42.84375 
Q 14.796875 37.203125 14.796875 27.296875 
z
" id="DejaVuSans-100"/>
       <path d="M 44.28125 53.078125 
L 44.28125 44.578125 
Q 40.484375 46.53125 36.375 47.5 
Q 32.28125 48.484375 27.875 48.484375 
Q 21.1875 48.484375 17.84375 46.4375 
Q 14.5 44.390625 14.5 40.28125 
Q 14.5 37.15625 16.890625 35.375 
Q 19.28125 33.59375 26.515625 31.984375 
L 29.59375 31.296875 
Q 39.15625 29.25 43.1875 25.515625 
Q 47.21875 21.78125 47.21875 15.09375 
Q 47.21875 7.46875 41.1875 3.015625 
Q 35.15625 -1.421875 24.609375 -1.421875 
Q 20.21875 -1.421875 15.453125 -0.5625 
Q 10.6875 0.296875 5.421875 2 
L 5.421875 11.28125 
Q 10.40625 8.6875 15.234375 7.390625 
Q 20.0625 6.109375 24.8125 6.109375 
Q 31.15625 6.109375 34.5625 8.28125 
Q 37.984375 10.453125 37.984375 14.40625 
Q 37.984375 18.0625 35.515625 20.015625 
Q 33.0625 21.96875 24.703125 23.78125 
L 21.578125 24.515625 
Q 13.234375 26.265625 9.515625 29.90625 
Q 5.8125 33.546875 5.8125 39.890625 
Q 5.8125 47.609375 11.28125 51.796875 
Q 16.75 56 26.8125 56 
Q 31.78125 56 36.171875 55.265625 
Q 40.578125 54.546875 44.28125 53.078125 
z
" id="DejaVuSans-115"/>
      </defs>
      <use xlink:href="#DejaVuSans-76"/>
      <use x="53.962891" xlink:href="#DejaVuSans-111"/>
      <use x="115.144531" xlink:href="#DejaVuSans-103"/>
      <use x="178.621094" xlink:href="#DejaVuSans-79"/>
      <use x="257.332031" xlink:href="#DejaVuSans-100"/>
      <use x="320.808594" xlink:href="#DejaVuSans-100"/>
      <use x="384.285156" xlink:href="#DejaVuSans-115"/>
     </g>
    </g>
   </g>
   <g id="line2d_12">
    <path clip-path="url(#pe260b45998)" d="M 130.86 373.022812 
L 164.34 373.022812 
L 164.34 303.22615 
L 130.86 303.22615 
L 130.86 373.022812 
" style="fill:none;stroke:#000000;stroke-linecap:square;"/>
   </g>
   <g id="line2d_13">
    <path clip-path="url(#pe260b45998)" d="M 147.6 373.022812 
L 147.6 465.263592 
" style="fill:none;stroke:#000000;stroke-linecap:square;"/>
   </g>
   <g id="line2d_14">
    <path clip-path="url(#pe260b45998)" d="M 147.6 303.22615 
L 147.6 213.801912 
" style="fill:none;stroke:#000000;stroke-linecap:square;"/>
   </g>
   <g id="line2d_15">
    <path clip-path="url(#pe260b45998)" d="M 139.23 465.263592 
L 155.97 465.263592 
" style="fill:none;stroke:#000000;stroke-linecap:square;"/>
   </g>
   <g id="line2d_16">
    <path clip-path="url(#pe260b45998)" d="M 139.23 213.801912 
L 155.97 213.801912 
" style="fill:none;stroke:#000000;stroke-linecap:square;"/>
   </g>
   <g id="line2d_17">
    <path clip-path="url(#pe260b45998)" d="M 130.86 344.689412 
L 164.34 344.689412 
" style="fill:none;stroke:#ff7f0e;stroke-linecap:square;"/>
   </g>
   <g id="patch_3">
    <path d="M 36 504 
L 36 69.12 
" style="fill:none;stroke:#000000;stroke-linecap:square;stroke-linejoin:miter;stroke-width:0.8;"/>
   </g>
   <g id="patch_4">
    <path d="M 259.2 504 
L 259.2 69.12 
" style="fill:none;stroke:#000000;stroke-linecap:square;stroke-linejoin:miter;stroke-width:0.8;"/>
   </g>
   <g id="patch_5">
    <path d="M 36 504 
L 259.2 504 
" style="fill:none;stroke:#000000;stroke-linecap:square;stroke-linejoin:miter;stroke-width:0.8;"/>
   </g>
   <g id="patch_6">
    <path d="M 36 69.12 
L 259.2 69.12 
" style="fill:none;stroke:#000000;stroke-linecap:square;stroke-linejoin:miter;stroke-width:0.8;"/>
   </g>
   <g id="text_13">
    <!-- 0.0 -->
    <g style="fill:#999999;" transform="translate(157.93545 374.609527)scale(0.1 -0.1)">
     <use xlink:href="#DejaVuSans-48"/>
     <use x="63.623047" xlink:href="#DejaVuSans-46"/>
     <use x="95.410156" xlink:href="#DejaVuSans-48"/>
    </g>
   </g>
   <g id="text_14">
    <!-- 1.0 -->
    <g style="fill:#e69f00;" transform="translate(137.376212 251.089864)scale(0.1 -0.1)">
     <use xlink:href="#DejaVuSans-49"/>
     <use x="63.623047" xlink:href="#DejaVuSans-46"/>
     <use x="95.410156" xlink:href="#DejaVuSans-48"/>
    </g>
   </g>
   <g id="text_15">
    <!-- 2.0 -->
    <g style="fill:#56b4e9;" transform="translate(148.586928 348.968488)scale(0.1 -0.1)">
     <use xlink:href="#DejaVuSans-50"/>
     <use x="63.623047" xlink:href="#DejaVuSans-46"/>
     <use x="95.410156" xlink:href="#DejaVuSans-48"/>
    </g>
   </g>
   <g id="text_16">
    <!-- 3.0 -->
    <g style="fill:#009e73;" transform="translate(143.961074 464.338315)scale(0.1 -0.1)">
     <use xlink:href="#DejaVuSans-51"/>
     <use x="63.623047" xlink:href="#DejaVuSans-46"/>
     <use x="95.410156" xlink:href="#DejaVuSans-48"/>
    </g>
   </g>
   <g id="text_17">
    <!-- 4 -->
    <g style="fill:#f0e442;" transform="translate(144.611672 290.732233)scale(0.1 -0.1)">
     <defs>
      <path d="M 37.796875 64.3125 
L 12.890625 25.390625 
L 37.796875 25.390625 
z
M 35.203125 72.90625 
L 47.609375 72.90625 
L 47.609375 25.390625 
L 58.015625 25.390625 
L 58.015625 17.1875 
L 47.609375 17.1875 
L 47.609375 0 
L 37.796875 0 
L 37.796875 17.1875 
L 4.890625 17.1875 
L 4.890625 26.703125 
z
" id="DejaVuSans-52"/>
     </defs>
     <use xlink:href="#DejaVuSans-52"/>
    </g>
   </g>
   <g id="text_18">
    <!-- 5 -->
    <g style="fill:#0072b2;" transform="translate(139.404062 300.61307)scale(0.1 -0.1)">
     <use xlink:href="#DejaVuSans-53"/>
    </g>
   </g>
   <g id="text_19">
    <!-- 6 -->
    <g style="fill:#d55e00;" transform="translate(161.206561 359.077934)scale(0.1 -0.1)">
     <defs>
      <path d="M 33.015625 40.375 
Q 26.375 40.375 22.484375 35.828125 
Q 18.609375 31.296875 18.609375 23.390625 
Q 18.609375 15.53125 22.484375 10.953125 
Q 26.375 6.390625 33.015625 6.390625 
Q 39.65625 6.390625 43.53125 10.953125 
Q 47.40625 15.53125 47.40625 23.390625 
Q 47.40625 31.296875 43.53125 35.828125 
Q 39.65625 40.375 33.015625 40.375 
z
M 52.59375 71.296875 
L 52.59375 62.3125 
Q 48.875 64.0625 45.09375 64.984375 
Q 41.3125 65.921875 37.59375 65.921875 
Q 27.828125 65.921875 22.671875 59.328125 
Q 17.53125 52.734375 16.796875 39.40625 
Q 19.671875 43.65625 24.015625 45.921875 
Q 28.375 48.1875 33.59375 48.1875 
Q 44.578125 48.1875 50.953125 41.515625 
Q 57.328125 34.859375 57.328125 23.390625 
Q 57.328125 12.15625 50.6875 5.359375 
Q 44.046875 -1.421875 33.015625 -1.421875 
Q 20.359375 -1.421875 13.671875 8.265625 
Q 6.984375 17.96875 6.984375 36.375 
Q 6.984375 53.65625 15.1875 63.9375 
Q 23.390625 74.21875 37.203125 74.21875 
Q 40.921875 74.21875 44.703125 73.484375 
Q 48.484375 72.75 52.59375 71.296875 
z
" id="DejaVuSans-54"/>
     </defs>
     <use xlink:href="#DejaVuSans-54"/>
    </g>
   </g>
   <g id="text_20">
    <!-- 7.0 -->
    <g style="fill:#cc79a7;" transform="translate(152.619901 329.733154)scale(0.1 -0.1)">
     <defs>
      <path d="M 8.203125 72.90625 
L 55.078125 72.90625 
L 55.078125 68.703125 
L 28.609375 0 
L 18.3125 0 
L 43.21875 64.59375 
L 8.203125 64.59375 
z
" id="DejaVuSans-55"/>
     </defs>
     <use xlink:href="#DejaVuSans-55"/>
     <use x="63.623047" xlink:href="#DejaVuSans-46"/>
     <use x="95.410156" xlink:href="#DejaVuSans-48"/>
    </g>
   </g>
   <g id="text_21">
    <!-- 8.0 -->
    <g style="fill:#f46d43;" transform="translate(140.532519 212.876635)scale(0.1 -0.1)">
     <defs>
      <path d="M 31.78125 34.625 
Q 24.75 34.625 20.71875 30.859375 
Q 16.703125 27.09375 16.703125 20.515625 
Q 16.703125 13.921875 20.71875 10.15625 
Q 24.75 6.390625 31.78125 6.390625 
Q 38.8125 6.390625 42.859375 10.171875 
Q 46.921875 13.96875 46.921875 20.515625 
Q 46.921875 27.09375 42.890625 30.859375 
Q 38.875 34.625 31.78125 34.625 
z
M 21.921875 38.8125 
Q 15.578125 40.375 12.03125 44.71875 
Q 8.5 49.078125 8.5 55.328125 
Q 8.5 64.0625 14.71875 69.140625 
Q 20.953125 74.21875 31.78125 74.21875 
Q 42.671875 74.21875 48.875 69.140625 
Q 55.078125 64.0625 55.078125 55.328125 
Q 55.078125 49.078125 51.53125 44.71875 
Q 48 40.375 41.703125 38.8125 
Q 48.828125 37.15625 52.796875 32.3125 
Q 56.78125 27.484375 56.78125 20.515625 
Q 56.78125 9.90625 50.3125 4.234375 
Q 43.84375 -1.421875 31.78125 -1.421875 
Q 19.734375 -1.421875 13.25 4.234375 
Q 6.78125 9.90625 6.78125 20.515625 
Q 6.78125 27.484375 10.78125 32.3125 
Q 14.796875 37.15625 21.921875 38.8125 
z
M 18.3125 54.390625 
Q 18.3125 48.734375 21.84375 45.5625 
Q 25.390625 42.390625 31.78125 42.390625 
Q 38.140625 42.390625 41.71875 45.5625 
Q 45.3125 48.734375 45.3125 54.390625 
Q 45.3125 60.0625 41.71875 63.234375 
Q 38.140625 66.40625 31.78125 66.40625 
Q 25.390625 66.40625 21.84375 63.234375 
Q 18.3125 60.0625 18.3125 54.390625 
z
" id="DejaVuSans-56"/>
     </defs>
     <use xlink:href="#DejaVuSans-56"/>
     <use x="63.623047" xlink:href="#DejaVuSans-46"/>
     <use x="95.410156" xlink:href="#DejaVuSans-48"/>
    </g>
   </g>
   <g id="text_22">
    <!-- 9.0 -->
    <g style="fill:#abd9e9;" transform="translate(148.483808 311.278127)scale(0.1 -0.1)">
     <defs>
      <path d="M 10.984375 1.515625 
L 10.984375 10.5 
Q 14.703125 8.734375 18.5 7.8125 
Q 22.3125 6.890625 25.984375 6.890625 
Q 35.75 6.890625 40.890625 13.453125 
Q 46.046875 20.015625 46.78125 33.40625 
Q 43.953125 29.203125 39.59375 26.953125 
Q 35.25 24.703125 29.984375 24.703125 
Q 19.046875 24.703125 12.671875 31.3125 
Q 6.296875 37.9375 6.296875 49.421875 
Q 6.296875 60.640625 12.9375 67.421875 
Q 19.578125 74.21875 30.609375 74.21875 
Q 43.265625 74.21875 49.921875 64.515625 
Q 56.59375 54.828125 56.59375 36.375 
Q 56.59375 19.140625 48.40625 8.859375 
Q 40.234375 -1.421875 26.421875 -1.421875 
Q 22.703125 -1.421875 18.890625 -0.6875 
Q 15.09375 0.046875 10.984375 1.515625 
z
M 30.609375 32.421875 
Q 37.25 32.421875 41.125 36.953125 
Q 45.015625 41.5 45.015625 49.421875 
Q 45.015625 57.28125 41.125 61.84375 
Q 37.25 66.40625 30.609375 66.40625 
Q 23.96875 66.40625 20.09375 61.84375 
Q 16.21875 57.28125 16.21875 49.421875 
Q 16.21875 41.5 20.09375 36.953125 
Q 23.96875 32.421875 30.609375 32.421875 
z
" id="DejaVuSans-57"/>
     </defs>
     <use xlink:href="#DejaVuSans-57"/>
     <use x="63.623047" xlink:href="#DejaVuSans-46"/>
     <use x="95.410156" xlink:href="#DejaVuSans-48"/>
    </g>
   </g>
   <g id="text_23">
    <!-- 9.3 -->
    <g style="fill:#999999;" transform="translate(150.292484 228.444132)scale(0.1 -0.1)">
     <use xlink:href="#DejaVuSans-57"/>
     <use x="63.623047" xlink:href="#DejaVuSans-46"/>
     <use x="95.410156" xlink:href="#DejaVuSans-51"/>
    </g>
   </g>
   <g id="text_24">
    <!-- 9.2 -->
    <g style="fill:#e69f00;" transform="translate(156.561093 402.345428)scale(0.1 -0.1)">
     <use xlink:href="#DejaVuSans-57"/>
     <use x="63.623047" xlink:href="#DejaVuSans-46"/>
     <use x="95.410156" xlink:href="#DejaVuSans-50"/>
    </g>
   </g>
   <g id="text_25">
    <!-- 9.1 -->
    <g style="fill:#56b4e9;" transform="translate(139.176236 494.74374)scale(0.1 -0.1)">
     <use xlink:href="#DejaVuSans-57"/>
     <use x="63.623047" xlink:href="#DejaVuSans-46"/>
     <use x="95.410156" xlink:href="#DejaVuSans-49"/>
    </g>
   </g>
   <g id="text_26">
    <!-- 8.1 -->
    <g style="fill:#009e73;" transform="translate(132.552081 338.559783)scale(0.1 -0.1)">
     <use xlink:href="#DejaVuSans-56"/>
     <use x="63.623047" xlink:href="#DejaVuSans-46"/>
     <use x="95.410156" xlink:href="#DejaVuSans-49"/>
    </g>
   </g>
   <g id="text_27">
    <!-- 7.1 -->
    <g style="fill:#f0e442;" transform="translate(152.474699 307.364285)scale(0.1 -0.1)">
     <use xlink:href="#DejaVuSans-55"/>
     <use x="63.623047" xlink:href="#DejaVuSans-46"/>
     <use x="95.410156" xlink:href="#DejaVuSans-49"/>
    </g>
   </g>
   <g id="text_28">
    <!-- 3.1 -->
    <g style="fill:#d55e00;" transform="translate(158.251979 399.316243)scale(0.1 -0.1)">
     <use xlink:href="#DejaVuSans-51"/>
     <use x="63.623047" xlink:href="#DejaVuSans-46"/>
     <use x="95.410156" xlink:href="#DejaVuSans-49"/>
    </g>
   </g>
   <g id="text_29">
    <!-- 0.3 -->
    <g style="fill:#cc79a7;" transform="translate(158.098052 356.829412)scale(0.1 -0.1)">
     <use xlink:href="#DejaVuSans-48"/>
     <use x="63.623047" xlink:href="#DejaVuSans-46"/>
     <use x="95.410156" xlink:href="#DejaVuSans-51"/>
    </g>
   </g>
   <g id="text_30">
    <!-- 0.2 -->
    <g style="fill:#abd9e9;" transform="translate(148.996382 364.561562)scale(0.1 -0.1)">
     <use xlink:href="#DejaVuSans-48"/>
     <use x="63.623047" xlink:href="#DejaVuSans-46"/>
     <use x="95.410156" xlink:href="#DejaVuSans-50"/>
    </g>
   </g>
   <g id="legend_1">
    <g id="patch_7">
     <path d="M 248.2 82.12 
L 252.2 82.12 
Q 254.2 82.12 254.2 80.12 
L 254.2 76.12 
Q 254.2 74.12 252.2 74.12 
L 248.2 74.12 
Q 246.2 74.12 246.2 76.12 
L 246.2 80.12 
Q 246.2 82.12 248.2 82.12 
z
" style="fill:#ffffff;opacity:0.8;stroke:#cccccc;stroke-linejoin:miter;"/>
    </g>
   </g>
  </g>
 </g>
 <defs>
  <clipPath id="pe260b45998">
   <rect height="434.88" width="223.2" x="36" y="69.12"/>
  </clipPath>
 </defs>
</svg>
