<?xml version="1.0" encoding="utf-8" standalone="no"?>
<!DOCTYPE svg PUBLIC "-//W3C//DTD SVG 1.1//EN"
  "http://www.w3.org/Graphics/SVG/1.1/DTD/svg11.dtd">
<!-- Created with matplotlib (https://matplotlib.org/) -->
<svg height="576pt" version="1.1" viewBox="0 0 288 576" width="288pt" xmlns="http://www.w3.org/2000/svg" xmlns:xlink="http://www.w3.org/1999/xlink">
 <metadata>
  <rdf:RDF xmlns:cc="http://creativecommons.org/ns#" xmlns:dc="http://purl.org/dc/elements/1.1/" xmlns:rdf="http://www.w3.org/1999/02/22-rdf-syntax-ns#">
   <cc:Work>
    <dc:type rdf:resource="http://purl.org/dc/dcmitype/StillImage"/>
    <dc:date>2022-06-06T11:00:09.829931</dc:date>
    <dc:format>image/svg+xml</dc:format>
    <dc:creator>
     <cc:Agent>
      <dc:title>Matplotlib v3.3.4, https://matplotlib.org/</dc:title>
     </cc:Agent>
    </dc:creator>
   </cc:Work>
  </rdf:RDF>
 </metadata>
 <defs>
  <style type="text/css">*{stroke-linecap:butt;stroke-linejoin:round;}</style>
 </defs>
 <g id="figure_1">
  <g id="patch_1">
   <path d="M 0 576 
L 288 576 
L 288 0 
L 0 0 
z
" style="fill:#ffffff;"/>
  </g>
  <g id="axes_1">
   <g id="patch_2">
    <path d="M 36 504 
L 259.2 504 
L 259.2 69.12 
L 36 69.12 
z
" style="fill:#ffffff;"/>
   </g>
   <g id="PathCollection_1">
    <path clip-path="url(#padbfc92673)" d="M 142.770972 327.771117 
C 146.858026 327.771117 150.778235 326.147313 153.668219 323.257329 
C 156.558203 320.367345 158.182007 316.447136 158.182007 312.360082 
C 158.182007 308.273028 156.558203 304.352818 153.668219 301.462834 
C 150.778235 298.572851 146.858026 296.949047 142.770972 296.949047 
C 138.683917 296.949047 134.763708 298.572851 131.873724 301.462834 
C 128.98374 304.352818 127.359937 308.273028 127.359937 312.360082 
C 127.359937 316.447136 128.98374 320.367345 131.873724 323.257329 
C 134.763708 326.147313 138.683917 327.771117 142.770972 327.771117 
z
" style="fill:#999999;stroke:#999999;"/>
    <path clip-path="url(#padbfc92673)" d="M 158.598888 154.853907 
C 162.685942 154.853907 166.606151 153.230103 169.496135 150.340119 
C 172.386119 147.450135 174.009923 143.529926 174.009923 139.442872 
C 174.009923 135.355817 172.386119 131.435608 169.496135 128.545624 
C 166.606151 125.65564 162.685942 124.031837 158.598888 124.031837 
C 154.511834 124.031837 150.591624 125.65564 147.70164 128.545624 
C 144.811657 131.435608 143.187853 135.355817 143.187853 139.442872 
C 143.187853 143.529926 144.811657 147.450135 147.70164 150.340119 
C 150.591624 153.230103 154.511834 154.853907 158.598888 154.853907 
z
" style="fill:#e69f00;stroke:#e69f00;"/>
    <path clip-path="url(#padbfc92673)" d="M 139.506945 221.596571 
C 142.887635 221.596571 146.130315 220.253409 148.520823 217.862901 
C 150.911332 215.472392 152.254494 212.229712 152.254494 208.849023 
C 152.254494 205.468333 150.911332 202.225653 148.520823 199.835144 
C 146.130315 197.444636 142.887635 196.101474 139.506945 196.101474 
C 136.126256 196.101474 132.883576 197.444636 130.493067 199.835144 
C 128.102559 202.225653 126.759396 205.468333 126.759396 208.849023 
C 126.759396 212.229712 128.102559 215.472392 130.493067 217.862901 
C 132.883576 220.253409 136.126256 221.596571 139.506945 221.596571 
z
" style="fill:#56b4e9;stroke:#56b4e9;"/>
    <path clip-path="url(#padbfc92673)" d="M 150.154557 373.281553 
C 152.635304 373.281553 155.014781 372.295942 156.768935 370.541788 
C 158.523088 368.787634 159.5087 366.408158 159.5087 363.92741 
C 159.5087 361.446662 158.523088 359.067185 156.768935 357.313032 
C 155.014781 355.558878 152.635304 354.573266 150.154557 354.573266 
C 147.673809 354.573266 145.294332 355.558878 143.540178 357.313032 
C 141.786025 359.067185 140.800413 361.446662 140.800413 363.92741 
C 140.800413 366.408158 141.786025 368.787634 143.540178 370.541788 
C 145.294332 372.295942 147.673809 373.281553 150.154557 373.281553 
z
" style="fill:#009e73;stroke:#009e73;"/>
    <path clip-path="url(#padbfc92673)" d="M 139.383033 201.143157 
C 141.479648 201.143157 143.490673 200.310163 144.973203 198.827633 
C 146.455733 197.345102 147.288727 195.334078 147.288727 193.237463 
C 147.288727 191.140848 146.455733 189.129823 144.973203 187.647293 
C 143.490673 186.164763 141.479648 185.331769 139.383033 185.331769 
C 137.286418 185.331769 135.275394 186.164763 133.792863 187.647293 
C 132.310333 189.129823 131.477339 191.140848 131.477339 193.237463 
C 131.477339 195.334078 132.310333 197.345102 133.792863 198.827633 
C 135.275394 200.310163 137.286418 201.143157 139.383033 201.143157 
z
" style="fill:#f0e442;stroke:#f0e442;"/>
    <path clip-path="url(#padbfc92673)" d="M 153.59248 156.601803 
C 156.073227 156.601803 158.452704 155.616191 160.206858 153.862037 
C 161.961012 152.107884 162.946623 149.728407 162.946623 147.247659 
C 162.946623 144.766911 161.961012 142.387434 160.206858 140.633281 
C 158.452704 138.879127 156.073227 137.893516 153.59248 137.893516 
C 151.111732 137.893516 148.732255 138.879127 146.978101 140.633281 
C 145.223948 142.387434 144.238336 144.766911 144.238336 147.247659 
C 144.238336 149.728407 145.223948 152.107884 146.978101 153.862037 
C 148.732255 155.616191 151.111732 156.601803 153.59248 156.601803 
z
" style="fill:#0072b2;stroke:#0072b2;"/>
    <path clip-path="url(#padbfc92673)" d="M 151.278759 217.782365 
C 153.575485 217.782365 155.778453 216.869866 157.402483 215.245835 
C 159.026514 213.621804 159.939013 211.418837 159.939013 209.12211 
C 159.939013 206.825384 159.026514 204.622417 157.402483 202.998386 
C 155.778453 201.374355 153.575485 200.461856 151.278759 200.461856 
C 148.982033 200.461856 146.779065 201.374355 145.155034 202.998386 
C 143.531004 204.622417 142.618505 206.825384 142.618505 209.12211 
C 142.618505 211.418837 143.531004 213.621804 145.155034 215.245835 
C 146.779065 216.869866 148.982033 217.782365 151.278759 217.782365 
z
" style="fill:#d55e00;stroke:#d55e00;"/>
    <path clip-path="url(#padbfc92673)" d="M 134.496268 181.883522 
C 136.120299 181.883522 137.678032 181.238288 138.826395 180.089925 
C 139.974758 178.941562 140.619993 177.383828 140.619993 175.759798 
C 140.619993 174.135767 139.974758 172.578034 138.826395 171.429671 
C 137.678032 170.281307 136.120299 169.636073 134.496268 169.636073 
C 132.872238 169.636073 131.314504 170.281307 130.166141 171.429671 
C 129.017778 172.578034 128.372544 174.135767 128.372544 175.759798 
C 128.372544 177.383828 129.017778 178.941562 130.166141 180.089925 
C 131.314504 181.238288 132.872238 181.883522 134.496268 181.883522 
z
" style="fill:#cc79a7;stroke:#cc79a7;"/>
    <path clip-path="url(#padbfc92673)" d="M 164.108956 96.792967 
C 166.205571 96.792967 168.216596 95.959973 169.699126 94.477443 
C 171.181657 92.994912 172.01465 90.983887 172.01465 88.887273 
C 172.01465 86.790658 171.181657 84.779633 169.699126 83.297103 
C 168.216596 81.814572 166.205571 80.981579 164.108956 80.981579 
C 162.012342 80.981579 160.001317 81.814572 158.518786 83.297103 
C 157.036256 84.779633 156.203262 86.790658 156.203262 88.887273 
C 156.203262 90.983887 157.036256 92.994912 158.518786 94.477443 
C 160.001317 95.959973 162.012342 96.792967 164.108956 96.792967 
z
" style="fill:#f46d43;stroke:#f46d43;"/>
    <path clip-path="url(#padbfc92673)" d="M 139.78708 170.676032 
C 142.083806 170.676032 144.286773 169.763533 145.910804 168.139502 
C 147.534835 166.515471 148.447334 164.312504 148.447334 162.015778 
C 148.447334 159.719051 147.534835 157.516084 145.910804 155.892053 
C 144.286773 154.268023 142.083806 153.355524 139.78708 153.355524 
C 137.490354 153.355524 135.287386 154.268023 133.663355 155.892053 
C 132.039325 157.516084 131.126826 159.719051 131.126826 162.015778 
C 131.126826 164.312504 132.039325 166.515471 133.663355 168.139502 
C 135.287386 169.763533 137.490354 170.676032 139.78708 170.676032 
z
" style="fill:#abd9e9;stroke:#abd9e9;"/>
    <path clip-path="url(#padbfc92673)" d="M 153.781725 105.727644 
C 155.405756 105.727644 156.963489 105.08241 158.111852 103.934047 
C 159.260216 102.785684 159.90545 101.227951 159.90545 99.60392 
C 159.90545 97.979889 159.260216 96.422156 158.111852 95.273793 
C 156.963489 94.12543 155.405756 93.480196 153.781725 93.480196 
C 152.157695 93.480196 150.599962 94.12543 149.451598 95.273793 
C 148.303235 96.422156 147.658001 97.979889 147.658001 99.60392 
C 147.658001 101.227951 148.303235 102.785684 149.451598 103.934047 
C 150.599962 105.08241 152.157695 105.727644 153.781725 105.727644 
z
" style="fill:#999999;stroke:#999999;"/>
    <path clip-path="url(#padbfc92673)" d="M 145.330872 358.813816 
C 146.954902 358.813816 148.512636 358.168582 149.660999 357.020219 
C 150.809362 355.871856 151.454596 354.314122 151.454596 352.690092 
C 151.454596 351.066061 150.809362 349.508328 149.660999 348.359965 
C 148.512636 347.211602 146.954902 346.566367 145.330872 346.566367 
C 143.706841 346.566367 142.149108 347.211602 141.000745 348.359965 
C 139.852382 349.508328 139.207147 351.066061 139.207147 352.690092 
C 139.207147 354.314122 139.852382 355.871856 141.000745 357.020219 
C 142.149108 358.168582 143.706841 358.813816 145.330872 358.813816 
z
" style="fill:#e69f00;stroke:#e69f00;"/>
    <path clip-path="url(#padbfc92673)" d="M 137.495082 490.356452 
C 139.119112 490.356452 140.676846 489.711217 141.825209 488.562854 
C 142.973572 487.414491 143.618806 485.856758 143.618806 484.232727 
C 143.618806 482.608697 142.973572 481.050963 141.825209 479.9026 
C 140.676846 478.754237 139.119112 478.109003 137.495082 478.109003 
C 135.871051 478.109003 134.313318 478.754237 133.164955 479.9026 
C 132.016591 481.050963 131.371357 482.608697 131.371357 484.232727 
C 131.371357 485.856758 132.016591 487.414491 133.164955 488.562854 
C 134.313318 489.711217 135.871051 490.356452 137.495082 490.356452 
z
" style="fill:#56b4e9;stroke:#56b4e9;"/>
    <path clip-path="url(#padbfc92673)" d="M 139.119948 215.167835 
C 141.771979 215.167835 144.315746 214.114172 146.191015 212.238903 
C 148.066285 210.363634 149.119948 207.819866 149.119948 205.167835 
C 149.119948 202.515804 148.066285 199.972037 146.191015 198.096768 
C 144.315746 196.221498 141.771979 195.167835 139.119948 195.167835 
C 136.467917 195.167835 133.924149 196.221498 132.04888 198.096768 
C 130.173611 199.972037 129.119948 202.515804 129.119948 205.167835 
C 129.119948 207.819866 130.173611 210.363634 132.04888 212.238903 
C 133.924149 214.114172 136.467917 215.167835 139.119948 215.167835 
z
" style="fill:#009e73;stroke:#009e73;"/>
    <path clip-path="url(#padbfc92673)" d="M 153.0591 176.913667 
C 155.155715 176.913667 157.16674 176.080673 158.64927 174.598143 
C 160.131801 173.115612 160.964795 171.104587 160.964795 169.007973 
C 160.964795 166.911358 160.131801 164.900333 158.64927 163.417803 
C 157.16674 161.935272 155.155715 161.102278 153.0591 161.102278 
C 150.962486 161.102278 148.951461 161.935272 147.46893 163.417803 
C 145.9864 164.900333 145.153406 166.911358 145.153406 169.007973 
C 145.153406 171.104587 145.9864 173.115612 147.46893 174.598143 
C 148.951461 176.080673 150.962486 176.913667 153.0591 176.913667 
z
" style="fill:#f0e442;stroke:#f0e442;"/>
    <path clip-path="url(#padbfc92673)" d="M 131.930723 234.906032 
C 133.256738 234.906032 134.528622 234.3792 135.466256 233.441566 
C 136.403891 232.503931 136.930723 231.232047 136.930723 229.906032 
C 136.930723 228.580016 136.403891 227.308133 135.466256 226.370498 
C 134.528622 225.432863 133.256738 224.906032 131.930723 224.906032 
C 130.604707 224.906032 129.332823 225.432863 128.395189 226.370498 
C 127.457554 227.308133 126.930723 228.580016 126.930723 229.906032 
C 126.930723 231.232047 127.457554 232.503931 128.395189 233.441566 
C 129.332823 234.3792 130.604707 234.906032 131.930723 234.906032 
z
" style="fill:#d55e00;stroke:#d55e00;"/>
    <path clip-path="url(#padbfc92673)" d="M 141.892429 194.894363 
C 143.218444 194.894363 144.490328 194.367531 145.427963 193.429897 
C 146.365597 192.492262 146.892429 191.220378 146.892429 189.894363 
C 146.892429 188.568347 146.365597 187.296463 145.427963 186.358829 
C 144.490328 185.421194 143.218444 184.894363 141.892429 184.894363 
C 140.566413 184.894363 139.29453 185.421194 138.356895 186.358829 
C 137.419261 187.296463 136.892429 188.568347 136.892429 189.894363 
C 136.892429 191.220378 137.419261 192.492262 138.356895 193.429897 
C 139.29453 194.367531 140.566413 194.894363 141.892429 194.894363 
z
" style="fill:#cc79a7;stroke:#cc79a7;"/>
    <path clip-path="url(#padbfc92673)" d="M 149.917902 259.376575 
C 151.243917 259.376575 152.515801 258.849744 153.453436 257.912109 
C 154.39107 256.974475 154.917902 255.702591 154.917902 254.376575 
C 154.917902 253.05056 154.39107 251.778676 153.453436 250.841042 
C 152.515801 249.903407 151.243917 249.376575 149.917902 249.376575 
C 148.591886 249.376575 147.320002 249.903407 146.382368 250.841042 
C 145.444733 251.778676 144.917902 253.05056 144.917902 254.376575 
C 144.917902 255.702591 145.444733 256.974475 146.382368 257.912109 
C 147.320002 258.849744 148.591886 259.376575 149.917902 259.376575 
z
" style="fill:#abd9e9;stroke:#abd9e9;"/>
   </g>
   <g id="matplotlib.axis_1">
    <g id="xtick_1">
     <g id="line2d_1">
      <defs>
       <path d="M 0 0 
L 0 3.5 
" id="mdebce02782" style="stroke:#000000;stroke-width:0.8;"/>
      </defs>
      <g>
       <use style="stroke:#000000;stroke-width:0.8;" x="147.6" xlink:href="#mdebce02782" y="504"/>
      </g>
     </g>
     <g id="text_1">
      <!-- MeanPD -->
      <g transform="translate(127.111719 518.598438)scale(0.1 -0.1)">
       <defs>
        <path d="M 9.8125 72.90625 
L 24.515625 72.90625 
L 43.109375 23.296875 
L 61.8125 72.90625 
L 76.515625 72.90625 
L 76.515625 0 
L 66.890625 0 
L 66.890625 64.015625 
L 48.09375 14.015625 
L 38.1875 14.015625 
L 19.390625 64.015625 
L 19.390625 0 
L 9.8125 0 
z
" id="DejaVuSans-77"/>
        <path d="M 56.203125 29.59375 
L 56.203125 25.203125 
L 14.890625 25.203125 
Q 15.484375 15.921875 20.484375 11.0625 
Q 25.484375 6.203125 34.421875 6.203125 
Q 39.59375 6.203125 44.453125 7.46875 
Q 49.3125 8.734375 54.109375 11.28125 
L 54.109375 2.78125 
Q 49.265625 0.734375 44.1875 -0.34375 
Q 39.109375 -1.421875 33.890625 -1.421875 
Q 20.796875 -1.421875 13.15625 6.1875 
Q 5.515625 13.8125 5.515625 26.8125 
Q 5.515625 40.234375 12.765625 48.109375 
Q 20.015625 56 32.328125 56 
Q 43.359375 56 49.78125 48.890625 
Q 56.203125 41.796875 56.203125 29.59375 
z
M 47.21875 32.234375 
Q 47.125 39.59375 43.09375 43.984375 
Q 39.0625 48.390625 32.421875 48.390625 
Q 24.90625 48.390625 20.390625 44.140625 
Q 15.875 39.890625 15.1875 32.171875 
z
" id="DejaVuSans-101"/>
        <path d="M 34.28125 27.484375 
Q 23.390625 27.484375 19.1875 25 
Q 14.984375 22.515625 14.984375 16.5 
Q 14.984375 11.71875 18.140625 8.90625 
Q 21.296875 6.109375 26.703125 6.109375 
Q 34.1875 6.109375 38.703125 11.40625 
Q 43.21875 16.703125 43.21875 25.484375 
L 43.21875 27.484375 
z
M 52.203125 31.203125 
L 52.203125 0 
L 43.21875 0 
L 43.21875 8.296875 
Q 40.140625 3.328125 35.546875 0.953125 
Q 30.953125 -1.421875 24.3125 -1.421875 
Q 15.921875 -1.421875 10.953125 3.296875 
Q 6 8.015625 6 15.921875 
Q 6 25.140625 12.171875 29.828125 
Q 18.359375 34.515625 30.609375 34.515625 
L 43.21875 34.515625 
L 43.21875 35.40625 
Q 43.21875 41.609375 39.140625 45 
Q 35.0625 48.390625 27.6875 48.390625 
Q 23 48.390625 18.546875 47.265625 
Q 14.109375 46.140625 10.015625 43.890625 
L 10.015625 52.203125 
Q 14.9375 54.109375 19.578125 55.046875 
Q 24.21875 56 28.609375 56 
Q 40.484375 56 46.34375 49.84375 
Q 52.203125 43.703125 52.203125 31.203125 
z
" id="DejaVuSans-97"/>
        <path d="M 54.890625 33.015625 
L 54.890625 0 
L 45.90625 0 
L 45.90625 32.71875 
Q 45.90625 40.484375 42.875 44.328125 
Q 39.84375 48.1875 33.796875 48.1875 
Q 26.515625 48.1875 22.3125 43.546875 
Q 18.109375 38.921875 18.109375 30.90625 
L 18.109375 0 
L 9.078125 0 
L 9.078125 54.6875 
L 18.109375 54.6875 
L 18.109375 46.1875 
Q 21.34375 51.125 25.703125 53.5625 
Q 30.078125 56 35.796875 56 
Q 45.21875 56 50.046875 50.171875 
Q 54.890625 44.34375 54.890625 33.015625 
z
" id="DejaVuSans-110"/>
        <path d="M 19.671875 64.796875 
L 19.671875 37.40625 
L 32.078125 37.40625 
Q 38.96875 37.40625 42.71875 40.96875 
Q 46.484375 44.53125 46.484375 51.125 
Q 46.484375 57.671875 42.71875 61.234375 
Q 38.96875 64.796875 32.078125 64.796875 
z
M 9.8125 72.90625 
L 32.078125 72.90625 
Q 44.34375 72.90625 50.609375 67.359375 
Q 56.890625 61.8125 56.890625 51.125 
Q 56.890625 40.328125 50.609375 34.8125 
Q 44.34375 29.296875 32.078125 29.296875 
L 19.671875 29.296875 
L 19.671875 0 
L 9.8125 0 
z
" id="DejaVuSans-80"/>
        <path d="M 19.671875 64.796875 
L 19.671875 8.109375 
L 31.59375 8.109375 
Q 46.6875 8.109375 53.6875 14.9375 
Q 60.6875 21.78125 60.6875 36.53125 
Q 60.6875 51.171875 53.6875 57.984375 
Q 46.6875 64.796875 31.59375 64.796875 
z
M 9.8125 72.90625 
L 30.078125 72.90625 
Q 51.265625 72.90625 61.171875 64.09375 
Q 71.09375 55.28125 71.09375 36.53125 
Q 71.09375 17.671875 61.125 8.828125 
Q 51.171875 0 30.078125 0 
L 9.8125 0 
z
" id="DejaVuSans-68"/>
       </defs>
       <use xlink:href="#DejaVuSans-77"/>
       <use x="86.279297" xlink:href="#DejaVuSans-101"/>
       <use x="147.802734" xlink:href="#DejaVuSans-97"/>
       <use x="209.082031" xlink:href="#DejaVuSans-110"/>
       <use x="272.460938" xlink:href="#DejaVuSans-80"/>
       <use x="332.763672" xlink:href="#DejaVuSans-68"/>
      </g>
     </g>
    </g>
   </g>
   <g id="matplotlib.axis_2">
    <g id="ytick_1">
     <g id="line2d_2">
      <defs>
       <path d="M 0 0 
L -3.5 0 
" id="m752ab4b97f" style="stroke:#000000;stroke-width:0.8;"/>
      </defs>
      <g>
       <use style="stroke:#000000;stroke-width:0.8;" x="36" xlink:href="#m752ab4b97f" y="447.574332"/>
      </g>
     </g>
     <g id="text_2">
      <!-- −2.0 -->
      <g transform="translate(4.717187 451.373551)scale(0.1 -0.1)">
       <defs>
        <path d="M 10.59375 35.5 
L 73.1875 35.5 
L 73.1875 27.203125 
L 10.59375 27.203125 
z
" id="DejaVuSans-8722"/>
        <path d="M 19.1875 8.296875 
L 53.609375 8.296875 
L 53.609375 0 
L 7.328125 0 
L 7.328125 8.296875 
Q 12.9375 14.109375 22.625 23.890625 
Q 32.328125 33.6875 34.8125 36.53125 
Q 39.546875 41.84375 41.421875 45.53125 
Q 43.3125 49.21875 43.3125 52.78125 
Q 43.3125 58.59375 39.234375 62.25 
Q 35.15625 65.921875 28.609375 65.921875 
Q 23.96875 65.921875 18.8125 64.3125 
Q 13.671875 62.703125 7.8125 59.421875 
L 7.8125 69.390625 
Q 13.765625 71.78125 18.9375 73 
Q 24.125 74.21875 28.421875 74.21875 
Q 39.75 74.21875 46.484375 68.546875 
Q 53.21875 62.890625 53.21875 53.421875 
Q 53.21875 48.921875 51.53125 44.890625 
Q 49.859375 40.875 45.40625 35.40625 
Q 44.1875 33.984375 37.640625 27.21875 
Q 31.109375 20.453125 19.1875 8.296875 
z
" id="DejaVuSans-50"/>
        <path d="M 10.6875 12.40625 
L 21 12.40625 
L 21 0 
L 10.6875 0 
z
" id="DejaVuSans-46"/>
        <path d="M 31.78125 66.40625 
Q 24.171875 66.40625 20.328125 58.90625 
Q 16.5 51.421875 16.5 36.375 
Q 16.5 21.390625 20.328125 13.890625 
Q 24.171875 6.390625 31.78125 6.390625 
Q 39.453125 6.390625 43.28125 13.890625 
Q 47.125 21.390625 47.125 36.375 
Q 47.125 51.421875 43.28125 58.90625 
Q 39.453125 66.40625 31.78125 66.40625 
z
M 31.78125 74.21875 
Q 44.046875 74.21875 50.515625 64.515625 
Q 56.984375 54.828125 56.984375 36.375 
Q 56.984375 17.96875 50.515625 8.265625 
Q 44.046875 -1.421875 31.78125 -1.421875 
Q 19.53125 -1.421875 13.0625 8.265625 
Q 6.59375 17.96875 6.59375 36.375 
Q 6.59375 54.828125 13.0625 64.515625 
Q 19.53125 74.21875 31.78125 74.21875 
z
" id="DejaVuSans-48"/>
       </defs>
       <use xlink:href="#DejaVuSans-8722"/>
       <use x="83.789062" xlink:href="#DejaVuSans-50"/>
       <use x="147.412109" xlink:href="#DejaVuSans-46"/>
       <use x="179.199219" xlink:href="#DejaVuSans-48"/>
      </g>
     </g>
    </g>
    <g id="ytick_2">
     <g id="line2d_3">
      <g>
       <use style="stroke:#000000;stroke-width:0.8;" x="36" xlink:href="#m752ab4b97f" y="351.806109"/>
      </g>
     </g>
     <g id="text_3">
      <!-- −1.5 -->
      <g transform="translate(4.717187 355.605327)scale(0.1 -0.1)">
       <defs>
        <path d="M 12.40625 8.296875 
L 28.515625 8.296875 
L 28.515625 63.921875 
L 10.984375 60.40625 
L 10.984375 69.390625 
L 28.421875 72.90625 
L 38.28125 72.90625 
L 38.28125 8.296875 
L 54.390625 8.296875 
L 54.390625 0 
L 12.40625 0 
z
" id="DejaVuSans-49"/>
        <path d="M 10.796875 72.90625 
L 49.515625 72.90625 
L 49.515625 64.59375 
L 19.828125 64.59375 
L 19.828125 46.734375 
Q 21.96875 47.46875 24.109375 47.828125 
Q 26.265625 48.1875 28.421875 48.1875 
Q 40.625 48.1875 47.75 41.5 
Q 54.890625 34.8125 54.890625 23.390625 
Q 54.890625 11.625 47.5625 5.09375 
Q 40.234375 -1.421875 26.90625 -1.421875 
Q 22.3125 -1.421875 17.546875 -0.640625 
Q 12.796875 0.140625 7.71875 1.703125 
L 7.71875 11.625 
Q 12.109375 9.234375 16.796875 8.0625 
Q 21.484375 6.890625 26.703125 6.890625 
Q 35.15625 6.890625 40.078125 11.328125 
Q 45.015625 15.765625 45.015625 23.390625 
Q 45.015625 31 40.078125 35.4375 
Q 35.15625 39.890625 26.703125 39.890625 
Q 22.75 39.890625 18.8125 39.015625 
Q 14.890625 38.140625 10.796875 36.28125 
z
" id="DejaVuSans-53"/>
       </defs>
       <use xlink:href="#DejaVuSans-8722"/>
       <use x="83.789062" xlink:href="#DejaVuSans-49"/>
       <use x="147.412109" xlink:href="#DejaVuSans-46"/>
       <use x="179.199219" xlink:href="#DejaVuSans-53"/>
      </g>
     </g>
    </g>
    <g id="ytick_3">
     <g id="line2d_4">
      <g>
       <use style="stroke:#000000;stroke-width:0.8;" x="36" xlink:href="#m752ab4b97f" y="256.037886"/>
      </g>
     </g>
     <g id="text_4">
      <!-- −1.0 -->
      <g transform="translate(4.717187 259.837104)scale(0.1 -0.1)">
       <use xlink:href="#DejaVuSans-8722"/>
       <use x="83.789062" xlink:href="#DejaVuSans-49"/>
       <use x="147.412109" xlink:href="#DejaVuSans-46"/>
       <use x="179.199219" xlink:href="#DejaVuSans-48"/>
      </g>
     </g>
    </g>
    <g id="ytick_4">
     <g id="line2d_5">
      <g>
       <use style="stroke:#000000;stroke-width:0.8;" x="36" xlink:href="#m752ab4b97f" y="160.269662"/>
      </g>
     </g>
     <g id="text_5">
      <!-- −0.5 -->
      <g transform="translate(4.717187 164.068881)scale(0.1 -0.1)">
       <use xlink:href="#DejaVuSans-8722"/>
       <use x="83.789062" xlink:href="#DejaVuSans-48"/>
       <use x="147.412109" xlink:href="#DejaVuSans-46"/>
       <use x="179.199219" xlink:href="#DejaVuSans-53"/>
      </g>
     </g>
    </g>
    <g id="text_6">
     <!-- LogOdds -->
     <g transform="translate(-1.3625 308.381094)rotate(-90)scale(0.1 -0.1)">
      <defs>
       <path d="M 9.8125 72.90625 
L 19.671875 72.90625 
L 19.671875 8.296875 
L 55.171875 8.296875 
L 55.171875 0 
L 9.8125 0 
z
" id="DejaVuSans-76"/>
       <path d="M 30.609375 48.390625 
Q 23.390625 48.390625 19.1875 42.75 
Q 14.984375 37.109375 14.984375 27.296875 
Q 14.984375 17.484375 19.15625 11.84375 
Q 23.34375 6.203125 30.609375 6.203125 
Q 37.796875 6.203125 41.984375 11.859375 
Q 46.1875 17.53125 46.1875 27.296875 
Q 46.1875 37.015625 41.984375 42.703125 
Q 37.796875 48.390625 30.609375 48.390625 
z
M 30.609375 56 
Q 42.328125 56 49.015625 48.375 
Q 55.71875 40.765625 55.71875 27.296875 
Q 55.71875 13.875 49.015625 6.21875 
Q 42.328125 -1.421875 30.609375 -1.421875 
Q 18.84375 -1.421875 12.171875 6.21875 
Q 5.515625 13.875 5.515625 27.296875 
Q 5.515625 40.765625 12.171875 48.375 
Q 18.84375 56 30.609375 56 
z
" id="DejaVuSans-111"/>
       <path d="M 45.40625 27.984375 
Q 45.40625 37.75 41.375 43.109375 
Q 37.359375 48.484375 30.078125 48.484375 
Q 22.859375 48.484375 18.828125 43.109375 
Q 14.796875 37.75 14.796875 27.984375 
Q 14.796875 18.265625 18.828125 12.890625 
Q 22.859375 7.515625 30.078125 7.515625 
Q 37.359375 7.515625 41.375 12.890625 
Q 45.40625 18.265625 45.40625 27.984375 
z
M 54.390625 6.78125 
Q 54.390625 -7.171875 48.1875 -13.984375 
Q 42 -20.796875 29.203125 -20.796875 
Q 24.46875 -20.796875 20.265625 -20.09375 
Q 16.0625 -19.390625 12.109375 -17.921875 
L 12.109375 -9.1875 
Q 16.0625 -11.328125 19.921875 -12.34375 
Q 23.78125 -13.375 27.78125 -13.375 
Q 36.625 -13.375 41.015625 -8.765625 
Q 45.40625 -4.15625 45.40625 5.171875 
L 45.40625 9.625 
Q 42.625 4.78125 38.28125 2.390625 
Q 33.9375 0 27.875 0 
Q 17.828125 0 11.671875 7.65625 
Q 5.515625 15.328125 5.515625 27.984375 
Q 5.515625 40.671875 11.671875 48.328125 
Q 17.828125 56 27.875 56 
Q 33.9375 56 38.28125 53.609375 
Q 42.625 51.21875 45.40625 46.390625 
L 45.40625 54.6875 
L 54.390625 54.6875 
z
" id="DejaVuSans-103"/>
       <path d="M 39.40625 66.21875 
Q 28.65625 66.21875 22.328125 58.203125 
Q 16.015625 50.203125 16.015625 36.375 
Q 16.015625 22.609375 22.328125 14.59375 
Q 28.65625 6.59375 39.40625 6.59375 
Q 50.140625 6.59375 56.421875 14.59375 
Q 62.703125 22.609375 62.703125 36.375 
Q 62.703125 50.203125 56.421875 58.203125 
Q 50.140625 66.21875 39.40625 66.21875 
z
M 39.40625 74.21875 
Q 54.734375 74.21875 63.90625 63.9375 
Q 73.09375 53.65625 73.09375 36.375 
Q 73.09375 19.140625 63.90625 8.859375 
Q 54.734375 -1.421875 39.40625 -1.421875 
Q 24.03125 -1.421875 14.8125 8.828125 
Q 5.609375 19.09375 5.609375 36.375 
Q 5.609375 53.65625 14.8125 63.9375 
Q 24.03125 74.21875 39.40625 74.21875 
z
" id="DejaVuSans-79"/>
       <path d="M 45.40625 46.390625 
L 45.40625 75.984375 
L 54.390625 75.984375 
L 54.390625 0 
L 45.40625 0 
L 45.40625 8.203125 
Q 42.578125 3.328125 38.25 0.953125 
Q 33.9375 -1.421875 27.875 -1.421875 
Q 17.96875 -1.421875 11.734375 6.484375 
Q 5.515625 14.40625 5.515625 27.296875 
Q 5.515625 40.1875 11.734375 48.09375 
Q 17.96875 56 27.875 56 
Q 33.9375 56 38.25 53.625 
Q 42.578125 51.265625 45.40625 46.390625 
z
M 14.796875 27.296875 
Q 14.796875 17.390625 18.875 11.75 
Q 22.953125 6.109375 30.078125 6.109375 
Q 37.203125 6.109375 41.296875 11.75 
Q 45.40625 17.390625 45.40625 27.296875 
Q 45.40625 37.203125 41.296875 42.84375 
Q 37.203125 48.484375 30.078125 48.484375 
Q 22.953125 48.484375 18.875 42.84375 
Q 14.796875 37.203125 14.796875 27.296875 
z
" id="DejaVuSans-100"/>
       <path d="M 44.28125 53.078125 
L 44.28125 44.578125 
Q 40.484375 46.53125 36.375 47.5 
Q 32.28125 48.484375 27.875 48.484375 
Q 21.1875 48.484375 17.84375 46.4375 
Q 14.5 44.390625 14.5 40.28125 
Q 14.5 37.15625 16.890625 35.375 
Q 19.28125 33.59375 26.515625 31.984375 
L 29.59375 31.296875 
Q 39.15625 29.25 43.1875 25.515625 
Q 47.21875 21.78125 47.21875 15.09375 
Q 47.21875 7.46875 41.1875 3.015625 
Q 35.15625 -1.421875 24.609375 -1.421875 
Q 20.21875 -1.421875 15.453125 -0.5625 
Q 10.6875 0.296875 5.421875 2 
L 5.421875 11.28125 
Q 10.40625 8.6875 15.234375 7.390625 
Q 20.0625 6.109375 24.8125 6.109375 
Q 31.15625 6.109375 34.5625 8.28125 
Q 37.984375 10.453125 37.984375 14.40625 
Q 37.984375 18.0625 35.515625 20.015625 
Q 33.0625 21.96875 24.703125 23.78125 
L 21.578125 24.515625 
Q 13.234375 26.265625 9.515625 29.90625 
Q 5.8125 33.546875 5.8125 39.890625 
Q 5.8125 47.609375 11.28125 51.796875 
Q 16.75 56 26.8125 56 
Q 31.78125 56 36.171875 55.265625 
Q 40.578125 54.546875 44.28125 53.078125 
z
" id="DejaVuSans-115"/>
      </defs>
      <use xlink:href="#DejaVuSans-76"/>
      <use x="53.962891" xlink:href="#DejaVuSans-111"/>
      <use x="115.144531" xlink:href="#DejaVuSans-103"/>
      <use x="178.621094" xlink:href="#DejaVuSans-79"/>
      <use x="257.332031" xlink:href="#DejaVuSans-100"/>
      <use x="320.808594" xlink:href="#DejaVuSans-100"/>
      <use x="384.285156" xlink:href="#DejaVuSans-115"/>
     </g>
    </g>
   </g>
   <g id="line2d_6">
    <path clip-path="url(#padbfc92673)" d="M 130.86 248.25894 
L 164.34 248.25894 
L 164.34 163.763826 
L 130.86 163.763826 
L 130.86 248.25894 
" style="fill:none;stroke:#000000;stroke-linecap:square;"/>
   </g>
   <g id="line2d_7">
    <path clip-path="url(#padbfc92673)" d="M 147.6 248.25894 
L 147.6 363.92741 
" style="fill:none;stroke:#000000;stroke-linecap:square;"/>
   </g>
   <g id="line2d_8">
    <path clip-path="url(#padbfc92673)" d="M 147.6 163.763826 
L 147.6 88.887273 
" style="fill:none;stroke:#000000;stroke-linecap:square;"/>
   </g>
   <g id="line2d_9">
    <path clip-path="url(#padbfc92673)" d="M 139.23 363.92741 
L 155.97 363.92741 
" style="fill:none;stroke:#000000;stroke-linecap:square;"/>
   </g>
   <g id="line2d_10">
    <path clip-path="url(#padbfc92673)" d="M 139.23 88.887273 
L 155.97 88.887273 
" style="fill:none;stroke:#000000;stroke-linecap:square;"/>
   </g>
   <g id="line2d_11">
    <path clip-path="url(#padbfc92673)" d="M 130.86 199.202649 
L 164.34 199.202649 
" style="fill:none;stroke:#ff7f0e;stroke-linecap:square;"/>
   </g>
   <g id="patch_3">
    <path d="M 36 504 
L 36 69.12 
" style="fill:none;stroke:#000000;stroke-linecap:square;stroke-linejoin:miter;stroke-width:0.8;"/>
   </g>
   <g id="patch_4">
    <path d="M 259.2 504 
L 259.2 69.12 
" style="fill:none;stroke:#000000;stroke-linecap:square;stroke-linejoin:miter;stroke-width:0.8;"/>
   </g>
   <g id="patch_5">
    <path d="M 36 504 
L 259.2 504 
" style="fill:none;stroke:#000000;stroke-linecap:square;stroke-linejoin:miter;stroke-width:0.8;"/>
   </g>
   <g id="patch_6">
    <path d="M 36 69.12 
L 259.2 69.12 
" style="fill:none;stroke:#000000;stroke-linecap:square;stroke-linejoin:miter;stroke-width:0.8;"/>
   </g>
   <g id="text_7">
    <!-- 0.0 -->
    <g style="fill:#999999;" transform="translate(145.002972 310.444717)scale(0.1 -0.1)">
     <use xlink:href="#DejaVuSans-48"/>
     <use x="63.623047" xlink:href="#DejaVuSans-46"/>
     <use x="95.410156" xlink:href="#DejaVuSans-48"/>
    </g>
   </g>
   <g id="text_8">
    <!-- 1.0 -->
    <g style="fill:#e69f00;" transform="translate(160.830888 137.527507)scale(0.1 -0.1)">
     <use xlink:href="#DejaVuSans-49"/>
     <use x="63.623047" xlink:href="#DejaVuSans-46"/>
     <use x="95.410156" xlink:href="#DejaVuSans-48"/>
    </g>
   </g>
   <g id="text_9">
    <!-- 2.0 -->
    <g style="fill:#56b4e9;" transform="translate(141.738945 206.933658)scale(0.1 -0.1)">
     <use xlink:href="#DejaVuSans-50"/>
     <use x="63.623047" xlink:href="#DejaVuSans-46"/>
     <use x="95.410156" xlink:href="#DejaVuSans-48"/>
    </g>
   </g>
   <g id="text_10">
    <!-- 3.0 -->
    <g style="fill:#009e73;" transform="translate(152.386557 362.012045)scale(0.1 -0.1)">
     <defs>
      <path d="M 40.578125 39.3125 
Q 47.65625 37.796875 51.625 33 
Q 55.609375 28.21875 55.609375 21.1875 
Q 55.609375 10.40625 48.1875 4.484375 
Q 40.765625 -1.421875 27.09375 -1.421875 
Q 22.515625 -1.421875 17.65625 -0.515625 
Q 12.796875 0.390625 7.625 2.203125 
L 7.625 11.71875 
Q 11.71875 9.328125 16.59375 8.109375 
Q 21.484375 6.890625 26.8125 6.890625 
Q 36.078125 6.890625 40.9375 10.546875 
Q 45.796875 14.203125 45.796875 21.1875 
Q 45.796875 27.640625 41.28125 31.265625 
Q 36.765625 34.90625 28.71875 34.90625 
L 20.21875 34.90625 
L 20.21875 43.015625 
L 29.109375 43.015625 
Q 36.375 43.015625 40.234375 45.921875 
Q 44.09375 48.828125 44.09375 54.296875 
Q 44.09375 59.90625 40.109375 62.90625 
Q 36.140625 65.921875 28.71875 65.921875 
Q 24.65625 65.921875 20.015625 65.03125 
Q 15.375 64.15625 9.8125 62.3125 
L 9.8125 71.09375 
Q 15.4375 72.65625 20.34375 73.4375 
Q 25.25 74.21875 29.59375 74.21875 
Q 40.828125 74.21875 47.359375 69.109375 
Q 53.90625 64.015625 53.90625 55.328125 
Q 53.90625 49.265625 50.4375 45.09375 
Q 46.96875 40.921875 40.578125 39.3125 
z
" id="DejaVuSans-51"/>
     </defs>
     <use xlink:href="#DejaVuSans-51"/>
     <use x="63.623047" xlink:href="#DejaVuSans-46"/>
     <use x="95.410156" xlink:href="#DejaVuSans-48"/>
    </g>
   </g>
   <g id="text_11">
    <!-- 4 -->
    <g style="fill:#f0e442;" transform="translate(141.615033 191.322098)scale(0.1 -0.1)">
     <defs>
      <path d="M 37.796875 64.3125 
L 12.890625 25.390625 
L 37.796875 25.390625 
z
M 35.203125 72.90625 
L 47.609375 72.90625 
L 47.609375 25.390625 
L 58.015625 25.390625 
L 58.015625 17.1875 
L 47.609375 17.1875 
L 47.609375 0 
L 37.796875 0 
L 37.796875 17.1875 
L 4.890625 17.1875 
L 4.890625 26.703125 
z
" id="DejaVuSans-52"/>
     </defs>
     <use xlink:href="#DejaVuSans-52"/>
    </g>
   </g>
   <g id="text_12">
    <!-- 5 -->
    <g style="fill:#0072b2;" transform="translate(155.82448 145.332295)scale(0.1 -0.1)">
     <use xlink:href="#DejaVuSans-53"/>
    </g>
   </g>
   <g id="text_13">
    <!-- 6 -->
    <g style="fill:#d55e00;" transform="translate(153.510759 207.206746)scale(0.1 -0.1)">
     <defs>
      <path d="M 33.015625 40.375 
Q 26.375 40.375 22.484375 35.828125 
Q 18.609375 31.296875 18.609375 23.390625 
Q 18.609375 15.53125 22.484375 10.953125 
Q 26.375 6.390625 33.015625 6.390625 
Q 39.65625 6.390625 43.53125 10.953125 
Q 47.40625 15.53125 47.40625 23.390625 
Q 47.40625 31.296875 43.53125 35.828125 
Q 39.65625 40.375 33.015625 40.375 
z
M 52.59375 71.296875 
L 52.59375 62.3125 
Q 48.875 64.0625 45.09375 64.984375 
Q 41.3125 65.921875 37.59375 65.921875 
Q 27.828125 65.921875 22.671875 59.328125 
Q 17.53125 52.734375 16.796875 39.40625 
Q 19.671875 43.65625 24.015625 45.921875 
Q 28.375 48.1875 33.59375 48.1875 
Q 44.578125 48.1875 50.953125 41.515625 
Q 57.328125 34.859375 57.328125 23.390625 
Q 57.328125 12.15625 50.6875 5.359375 
Q 44.046875 -1.421875 33.015625 -1.421875 
Q 20.359375 -1.421875 13.671875 8.265625 
Q 6.984375 17.96875 6.984375 36.375 
Q 6.984375 53.65625 15.1875 63.9375 
Q 23.390625 74.21875 37.203125 74.21875 
Q 40.921875 74.21875 44.703125 73.484375 
Q 48.484375 72.75 52.59375 71.296875 
z
" id="DejaVuSans-54"/>
     </defs>
     <use xlink:href="#DejaVuSans-54"/>
    </g>
   </g>
   <g id="text_14">
    <!-- 7.0 -->
    <g style="fill:#cc79a7;" transform="translate(136.728268 173.844433)scale(0.1 -0.1)">
     <defs>
      <path d="M 8.203125 72.90625 
L 55.078125 72.90625 
L 55.078125 68.703125 
L 28.609375 0 
L 18.3125 0 
L 43.21875 64.59375 
L 8.203125 64.59375 
z
" id="DejaVuSans-55"/>
     </defs>
     <use xlink:href="#DejaVuSans-55"/>
     <use x="63.623047" xlink:href="#DejaVuSans-46"/>
     <use x="95.410156" xlink:href="#DejaVuSans-48"/>
    </g>
   </g>
   <g id="text_15">
    <!-- 8.0 -->
    <g style="fill:#f46d43;" transform="translate(166.340956 86.971908)scale(0.1 -0.1)">
     <defs>
      <path d="M 31.78125 34.625 
Q 24.75 34.625 20.71875 30.859375 
Q 16.703125 27.09375 16.703125 20.515625 
Q 16.703125 13.921875 20.71875 10.15625 
Q 24.75 6.390625 31.78125 6.390625 
Q 38.8125 6.390625 42.859375 10.171875 
Q 46.921875 13.96875 46.921875 20.515625 
Q 46.921875 27.09375 42.890625 30.859375 
Q 38.875 34.625 31.78125 34.625 
z
M 21.921875 38.8125 
Q 15.578125 40.375 12.03125 44.71875 
Q 8.5 49.078125 8.5 55.328125 
Q 8.5 64.0625 14.71875 69.140625 
Q 20.953125 74.21875 31.78125 74.21875 
Q 42.671875 74.21875 48.875 69.140625 
Q 55.078125 64.0625 55.078125 55.328125 
Q 55.078125 49.078125 51.53125 44.71875 
Q 48 40.375 41.703125 38.8125 
Q 48.828125 37.15625 52.796875 32.3125 
Q 56.78125 27.484375 56.78125 20.515625 
Q 56.78125 9.90625 50.3125 4.234375 
Q 43.84375 -1.421875 31.78125 -1.421875 
Q 19.734375 -1.421875 13.25 4.234375 
Q 6.78125 9.90625 6.78125 20.515625 
Q 6.78125 27.484375 10.78125 32.3125 
Q 14.796875 37.15625 21.921875 38.8125 
z
M 18.3125 54.390625 
Q 18.3125 48.734375 21.84375 45.5625 
Q 25.390625 42.390625 31.78125 42.390625 
Q 38.140625 42.390625 41.71875 45.5625 
Q 45.3125 48.734375 45.3125 54.390625 
Q 45.3125 60.0625 41.71875 63.234375 
Q 38.140625 66.40625 31.78125 66.40625 
Q 25.390625 66.40625 21.84375 63.234375 
Q 18.3125 60.0625 18.3125 54.390625 
z
" id="DejaVuSans-56"/>
     </defs>
     <use xlink:href="#DejaVuSans-56"/>
     <use x="63.623047" xlink:href="#DejaVuSans-46"/>
     <use x="95.410156" xlink:href="#DejaVuSans-48"/>
    </g>
   </g>
   <g id="text_16">
    <!-- 9.0 -->
    <g style="fill:#abd9e9;" transform="translate(142.01908 160.100413)scale(0.1 -0.1)">
     <defs>
      <path d="M 10.984375 1.515625 
L 10.984375 10.5 
Q 14.703125 8.734375 18.5 7.8125 
Q 22.3125 6.890625 25.984375 6.890625 
Q 35.75 6.890625 40.890625 13.453125 
Q 46.046875 20.015625 46.78125 33.40625 
Q 43.953125 29.203125 39.59375 26.953125 
Q 35.25 24.703125 29.984375 24.703125 
Q 19.046875 24.703125 12.671875 31.3125 
Q 6.296875 37.9375 6.296875 49.421875 
Q 6.296875 60.640625 12.9375 67.421875 
Q 19.578125 74.21875 30.609375 74.21875 
Q 43.265625 74.21875 49.921875 64.515625 
Q 56.59375 54.828125 56.59375 36.375 
Q 56.59375 19.140625 48.40625 8.859375 
Q 40.234375 -1.421875 26.421875 -1.421875 
Q 22.703125 -1.421875 18.890625 -0.6875 
Q 15.09375 0.046875 10.984375 1.515625 
z
M 30.609375 32.421875 
Q 37.25 32.421875 41.125 36.953125 
Q 45.015625 41.5 45.015625 49.421875 
Q 45.015625 57.28125 41.125 61.84375 
Q 37.25 66.40625 30.609375 66.40625 
Q 23.96875 66.40625 20.09375 61.84375 
Q 16.21875 57.28125 16.21875 49.421875 
Q 16.21875 41.5 20.09375 36.953125 
Q 23.96875 32.421875 30.609375 32.421875 
z
" id="DejaVuSans-57"/>
     </defs>
     <use xlink:href="#DejaVuSans-57"/>
     <use x="63.623047" xlink:href="#DejaVuSans-46"/>
     <use x="95.410156" xlink:href="#DejaVuSans-48"/>
    </g>
   </g>
   <g id="text_17">
    <!-- 9.3 -->
    <g style="fill:#999999;" transform="translate(156.013725 97.688555)scale(0.1 -0.1)">
     <use xlink:href="#DejaVuSans-57"/>
     <use x="63.623047" xlink:href="#DejaVuSans-46"/>
     <use x="95.410156" xlink:href="#DejaVuSans-51"/>
    </g>
   </g>
   <g id="text_18">
    <!-- 9.2 -->
    <g style="fill:#e69f00;" transform="translate(147.562872 350.774727)scale(0.1 -0.1)">
     <use xlink:href="#DejaVuSans-57"/>
     <use x="63.623047" xlink:href="#DejaVuSans-46"/>
     <use x="95.410156" xlink:href="#DejaVuSans-50"/>
    </g>
   </g>
   <g id="text_19">
    <!-- 9.1 -->
    <g style="fill:#56b4e9;" transform="translate(139.727082 482.317363)scale(0.1 -0.1)">
     <use xlink:href="#DejaVuSans-57"/>
     <use x="63.623047" xlink:href="#DejaVuSans-46"/>
     <use x="95.410156" xlink:href="#DejaVuSans-49"/>
    </g>
   </g>
   <g id="text_20">
    <!-- 8.1 -->
    <g style="fill:#009e73;" transform="translate(141.351948 203.252471)scale(0.1 -0.1)">
     <use xlink:href="#DejaVuSans-56"/>
     <use x="63.623047" xlink:href="#DejaVuSans-46"/>
     <use x="95.410156" xlink:href="#DejaVuSans-49"/>
    </g>
   </g>
   <g id="text_21">
    <!-- 7.1 -->
    <g style="fill:#f0e442;" transform="translate(155.2911 167.092608)scale(0.1 -0.1)">
     <use xlink:href="#DejaVuSans-55"/>
     <use x="63.623047" xlink:href="#DejaVuSans-46"/>
     <use x="95.410156" xlink:href="#DejaVuSans-49"/>
    </g>
   </g>
   <g id="text_22">
    <!-- 3.1 -->
    <g style="fill:#d55e00;" transform="translate(134.162723 227.990667)scale(0.1 -0.1)">
     <use xlink:href="#DejaVuSans-51"/>
     <use x="63.623047" xlink:href="#DejaVuSans-46"/>
     <use x="95.410156" xlink:href="#DejaVuSans-49"/>
    </g>
   </g>
   <g id="text_23">
    <!-- 0.3 -->
    <g style="fill:#cc79a7;" transform="translate(144.124429 187.978998)scale(0.1 -0.1)">
     <use xlink:href="#DejaVuSans-48"/>
     <use x="63.623047" xlink:href="#DejaVuSans-46"/>
     <use x="95.410156" xlink:href="#DejaVuSans-51"/>
    </g>
   </g>
   <g id="text_24">
    <!-- 0.2 -->
    <g style="fill:#abd9e9;" transform="translate(152.149902 252.461211)scale(0.1 -0.1)">
     <use xlink:href="#DejaVuSans-48"/>
     <use x="63.623047" xlink:href="#DejaVuSans-46"/>
     <use x="95.410156" xlink:href="#DejaVuSans-50"/>
    </g>
   </g>
   <g id="legend_1">
    <g id="patch_7">
     <path d="M 248.2 82.12 
L 252.2 82.12 
Q 254.2 82.12 254.2 80.12 
L 254.2 76.12 
Q 254.2 74.12 252.2 74.12 
L 248.2 74.12 
Q 246.2 74.12 246.2 76.12 
L 246.2 80.12 
Q 246.2 82.12 248.2 82.12 
z
" style="fill:#ffffff;opacity:0.8;stroke:#cccccc;stroke-linejoin:miter;"/>
    </g>
   </g>
  </g>
 </g>
 <defs>
  <clipPath id="padbfc92673">
   <rect height="434.88" width="223.2" x="36" y="69.12"/>
  </clipPath>
 </defs>
</svg>
