<?xml version="1.0" encoding="utf-8" standalone="no"?>
<!DOCTYPE svg PUBLIC "-//W3C//DTD SVG 1.1//EN"
  "http://www.w3.org/Graphics/SVG/1.1/DTD/svg11.dtd">
<!-- Created with matplotlib (https://matplotlib.org/) -->
<svg height="576pt" version="1.1" viewBox="0 0 288 576" width="288pt" xmlns="http://www.w3.org/2000/svg" xmlns:xlink="http://www.w3.org/1999/xlink">
 <metadata>
  <rdf:RDF xmlns:cc="http://creativecommons.org/ns#" xmlns:dc="http://purl.org/dc/elements/1.1/" xmlns:rdf="http://www.w3.org/1999/02/22-rdf-syntax-ns#">
   <cc:Work>
    <dc:type rdf:resource="http://purl.org/dc/dcmitype/StillImage"/>
    <dc:date>2022-06-22T09:00:39.029424</dc:date>
    <dc:format>image/svg+xml</dc:format>
    <dc:creator>
     <cc:Agent>
      <dc:title>Matplotlib v3.3.4, https://matplotlib.org/</dc:title>
     </cc:Agent>
    </dc:creator>
   </cc:Work>
  </rdf:RDF>
 </metadata>
 <defs>
  <style type="text/css">*{stroke-linecap:butt;stroke-linejoin:round;}</style>
 </defs>
 <g id="figure_1">
  <g id="patch_1">
   <path d="M 0 576 
L 288 576 
L 288 0 
L 0 0 
z
" style="fill:#ffffff;"/>
  </g>
  <g id="axes_1">
   <g id="patch_2">
    <path d="M 36 504 
L 259.2 504 
L 259.2 69.12 
L 36 69.12 
z
" style="fill:#ffffff;"/>
   </g>
   <g id="PathCollection_1">
    <path clip-path="url(#p60c5a7bf66)" d="M 143.824456 382.186848 
C 147.91151 382.186848 151.831719 380.563044 154.721703 377.67306 
C 157.611687 374.783077 159.235491 370.862867 159.235491 366.775813 
C 159.235491 362.688759 157.611687 358.768549 154.721703 355.878566 
C 151.831719 352.988582 147.91151 351.364778 143.824456 351.364778 
C 139.737402 351.364778 135.817192 352.988582 132.927208 355.878566 
C 130.037225 358.768549 128.413421 362.688759 128.413421 366.775813 
C 128.413421 370.862867 130.037225 374.783077 132.927208 377.67306 
C 135.817192 380.563044 139.737402 382.186848 143.824456 382.186848 
z
" style="fill:#999999;stroke:#999999;"/>
    <path clip-path="url(#p60c5a7bf66)" d="M 142.056348 250.24539 
C 146.143402 250.24539 150.063611 248.621586 152.953595 245.731602 
C 155.843579 242.841619 157.467383 238.921409 157.467383 234.834355 
C 157.467383 230.747301 155.843579 226.827091 152.953595 223.937108 
C 150.063611 221.047124 146.143402 219.42332 142.056348 219.42332 
C 137.969293 219.42332 134.049084 221.047124 131.1591 223.937108 
C 128.269117 226.827091 126.645313 230.747301 126.645313 234.834355 
C 126.645313 238.921409 128.269117 242.841619 131.1591 245.731602 
C 134.049084 248.621586 137.969293 250.24539 142.056348 250.24539 
z
" style="fill:#e69f00;stroke:#e69f00;"/>
    <path clip-path="url(#p60c5a7bf66)" d="M 150.267543 352.13407 
C 153.648232 352.13407 156.890912 350.790907 159.281421 348.400399 
C 161.671929 346.009891 163.015091 342.76721 163.015091 339.386521 
C 163.015091 336.005831 161.671929 332.763151 159.281421 330.372643 
C 156.890912 327.982134 153.648232 326.638972 150.267543 326.638972 
C 146.886853 326.638972 143.644173 327.982134 141.253664 330.372643 
C 138.863156 332.763151 137.519994 336.005831 137.519994 339.386521 
C 137.519994 342.76721 138.863156 346.009891 141.253664 348.400399 
C 143.644173 350.790907 146.886853 352.13407 150.267543 352.13407 
z
" style="fill:#56b4e9;stroke:#56b4e9;"/>
    <path clip-path="url(#p60c5a7bf66)" d="M 130.361812 471.976616 
C 132.84256 471.976616 135.222037 470.991005 136.97619 469.236851 
C 138.730344 467.482698 139.715956 465.103221 139.715956 462.622473 
C 139.715956 460.141725 138.730344 457.762248 136.97619 456.008095 
C 135.222037 454.253941 132.84256 453.268329 130.361812 453.268329 
C 127.881064 453.268329 125.501587 454.253941 123.747434 456.008095 
C 121.99328 457.762248 121.007669 460.141725 121.007669 462.622473 
C 121.007669 465.103221 121.99328 467.482698 123.747434 469.236851 
C 125.501587 470.991005 127.881064 471.976616 130.361812 471.976616 
z
" style="fill:#009e73;stroke:#009e73;"/>
    <path clip-path="url(#p60c5a7bf66)" d="M 132.072292 285.085306 
C 134.168907 285.085306 136.179932 284.252312 137.662462 282.769782 
C 139.144993 281.287252 139.977987 279.276227 139.977987 277.179612 
C 139.977987 275.082997 139.144993 273.071973 137.662462 271.589442 
C 136.179932 270.106912 134.168907 269.273918 132.072292 269.273918 
C 129.975678 269.273918 127.964653 270.106912 126.482123 271.589442 
C 124.999592 273.071973 124.166598 275.082997 124.166598 277.179612 
C 124.166598 279.276227 124.999592 281.287252 126.482123 282.769782 
C 127.964653 284.252312 129.975678 285.085306 132.072292 285.085306 
z
" style="fill:#f0e442;stroke:#f0e442;"/>
    <path clip-path="url(#p60c5a7bf66)" d="M 152.115821 297.088287 
C 154.596568 297.088287 156.976045 296.102675 158.730199 294.348521 
C 160.484352 292.594368 161.469964 290.214891 161.469964 287.734143 
C 161.469964 285.253395 160.484352 282.873919 158.730199 281.119765 
C 156.976045 279.365611 154.596568 278.38 152.115821 278.38 
C 149.635073 278.38 147.255596 279.365611 145.501442 281.119765 
C 143.747289 282.873919 142.761677 285.253395 142.761677 287.734143 
C 142.761677 290.214891 143.747289 292.594368 145.501442 294.348521 
C 147.255596 296.102675 149.635073 297.088287 152.115821 297.088287 
z
" style="fill:#0072b2;stroke:#0072b2;"/>
    <path clip-path="url(#p60c5a7bf66)" d="M 164.77886 358.845502 
C 167.075586 358.845502 169.278553 357.933003 170.902584 356.308972 
C 172.526615 354.684942 173.439114 352.481974 173.439114 350.185248 
C 173.439114 347.888522 172.526615 345.685554 170.902584 344.061524 
C 169.278553 342.437493 167.075586 341.524994 164.77886 341.524994 
C 162.482133 341.524994 160.279166 342.437493 158.655135 344.061524 
C 157.031105 345.685554 156.118606 347.888522 156.118606 350.185248 
C 156.118606 352.481974 157.031105 354.684942 158.655135 356.308972 
C 160.279166 357.933003 162.482133 358.845502 164.77886 358.845502 
z
" style="fill:#d55e00;stroke:#d55e00;"/>
    <path clip-path="url(#p60c5a7bf66)" d="M 154.760105 324.963411 
C 156.384136 324.963411 157.941869 324.318177 159.090232 323.169814 
C 160.238596 322.021451 160.88383 320.463718 160.88383 318.839687 
C 160.88383 317.215656 160.238596 315.657923 159.090232 314.50956 
C 157.941869 313.361197 156.384136 312.715963 154.760105 312.715963 
C 153.136075 312.715963 151.578342 313.361197 150.429978 314.50956 
C 149.281615 315.657923 148.636381 317.215656 148.636381 318.839687 
C 148.636381 320.463718 149.281615 322.021451 150.429978 323.169814 
C 151.578342 324.318177 153.136075 324.963411 154.760105 324.963411 
z
" style="fill:#cc79a7;stroke:#cc79a7;"/>
    <path clip-path="url(#p60c5a7bf66)" d="M 165.533765 201.921373 
C 167.630379 201.921373 169.641404 201.088379 171.123935 199.605849 
C 172.606465 198.123318 173.439459 196.112293 173.439459 194.015679 
C 173.439459 191.919064 172.606465 189.908039 171.123935 188.425509 
C 169.641404 186.942978 167.630379 186.109985 165.533765 186.109985 
C 163.43715 186.109985 161.426125 186.942978 159.943595 188.425509 
C 158.461064 189.908039 157.628071 191.919064 157.628071 194.015679 
C 157.628071 196.112293 158.461064 198.123318 159.943595 199.605849 
C 161.426125 201.088379 163.43715 201.921373 165.533765 201.921373 
z
" style="fill:#f46d43;stroke:#f46d43;"/>
    <path clip-path="url(#p60c5a7bf66)" d="M 139.343141 307.786617 
C 141.639867 307.786617 143.842834 306.874118 145.466865 305.250087 
C 147.090896 303.626056 148.003395 301.423089 148.003395 299.126363 
C 148.003395 296.829636 147.090896 294.626669 145.466865 293.002638 
C 143.842834 291.378608 141.639867 290.466109 139.343141 290.466109 
C 137.046414 290.466109 134.843447 291.378608 133.219416 293.002638 
C 131.595386 294.626669 130.682887 296.829636 130.682887 299.126363 
C 130.682887 301.423089 131.595386 303.626056 133.219416 305.250087 
C 134.843447 306.874118 137.046414 307.786617 139.343141 307.786617 
z
" style="fill:#abd9e9;stroke:#abd9e9;"/>
    <path clip-path="url(#p60c5a7bf66)" d="M 135.144778 216.76832 
C 136.768809 216.76832 138.326542 216.123086 139.474905 214.974723 
C 140.623269 213.82636 141.268503 212.268626 141.268503 210.644596 
C 141.268503 209.020565 140.623269 207.462832 139.474905 206.314469 
C 138.326542 205.166106 136.768809 204.520871 135.144778 204.520871 
C 133.520748 204.520871 131.963015 205.166106 130.814651 206.314469 
C 129.666288 207.462832 129.021054 209.020565 129.021054 210.644596 
C 129.021054 212.268626 129.666288 213.82636 130.814651 214.974723 
C 131.963015 216.123086 133.520748 216.76832 135.144778 216.76832 
z
" style="fill:#999999;stroke:#999999;"/>
    <path clip-path="url(#p60c5a7bf66)" d="M 150.964383 402.526522 
C 152.588413 402.526522 154.146146 401.881288 155.29451 400.732925 
C 156.442873 399.584562 157.088107 398.026828 157.088107 396.402798 
C 157.088107 394.778767 156.442873 393.221034 155.29451 392.072671 
C 154.146146 390.924308 152.588413 390.279073 150.964383 390.279073 
C 149.340352 390.279073 147.782619 390.924308 146.634256 392.072671 
C 145.485892 393.221034 144.840658 394.778767 144.840658 396.402798 
C 144.840658 398.026828 145.485892 399.584562 146.634256 400.732925 
C 147.782619 401.881288 149.340352 402.526522 150.964383 402.526522 
z
" style="fill:#e69f00;stroke:#e69f00;"/>
    <path clip-path="url(#p60c5a7bf66)" d="M 164.76172 501.224719 
C 166.38575 501.224719 167.943484 500.579485 169.091847 499.431122 
C 170.24021 498.282759 170.885444 496.725026 170.885444 495.100995 
C 170.885444 493.476964 170.24021 491.919231 169.091847 490.770868 
C 167.943484 489.622505 166.38575 488.977271 164.76172 488.977271 
C 163.137689 488.977271 161.579956 489.622505 160.431593 490.770868 
C 159.283229 491.919231 158.637995 493.476964 158.637995 495.100995 
C 158.637995 496.725026 159.283229 498.282759 160.431593 499.431122 
C 161.579956 500.579485 163.137689 501.224719 164.76172 501.224719 
z
" style="fill:#56b4e9;stroke:#56b4e9;"/>
    <path clip-path="url(#p60c5a7bf66)" d="M 134.429085 338.268132 
C 137.081116 338.268132 139.624883 337.214469 141.500152 335.3392 
C 143.375421 333.463931 144.429085 330.920163 144.429085 328.268132 
C 144.429085 325.616101 143.375421 323.072333 141.500152 321.197064 
C 139.624883 319.321795 137.081116 318.268132 134.429085 318.268132 
C 131.777054 318.268132 129.233286 319.321795 127.358017 321.197064 
C 125.482748 323.072333 124.429085 325.616101 124.429085 328.268132 
C 124.429085 330.920163 125.482748 333.463931 127.358017 335.3392 
C 129.233286 337.214469 131.777054 338.268132 134.429085 338.268132 
z
" style="fill:#009e73;stroke:#009e73;"/>
    <path clip-path="url(#p60c5a7bf66)" d="M 140.666872 302.851362 
C 142.763487 302.851362 144.774512 302.018368 146.257042 300.535838 
C 147.739572 299.053307 148.572566 297.042282 148.572566 294.945668 
C 148.572566 292.849053 147.739572 290.838028 146.257042 289.355498 
C 144.774512 287.872967 142.763487 287.039974 140.666872 287.039974 
C 138.570258 287.039974 136.559233 287.872967 135.076702 289.355498 
C 133.594172 290.838028 132.761178 292.849053 132.761178 294.945668 
C 132.761178 297.042282 133.594172 299.053307 135.076702 300.535838 
C 136.559233 302.018368 138.570258 302.851362 140.666872 302.851362 
z
" style="fill:#f0e442;stroke:#f0e442;"/>
    <path clip-path="url(#p60c5a7bf66)" d="M 142.529316 398.167078 
C 143.855331 398.167078 145.127215 397.640246 146.06485 396.702612 
C 147.002484 395.764977 147.529316 394.493093 147.529316 393.167078 
C 147.529316 391.841062 147.002484 390.569178 146.06485 389.631544 
C 145.127215 388.693909 143.855331 388.167078 142.529316 388.167078 
C 141.2033 388.167078 139.931417 388.693909 138.993782 389.631544 
C 138.056147 390.569178 137.529316 391.841062 137.529316 393.167078 
C 137.529316 394.493093 138.056147 395.764977 138.993782 396.702612 
C 139.931417 397.640246 141.2033 398.167078 142.529316 398.167078 
z
" style="fill:#d55e00;stroke:#d55e00;"/>
    <path clip-path="url(#p60c5a7bf66)" d="M 147.571379 352.783417 
C 148.897395 352.783417 150.169279 352.256586 151.106913 351.318951 
C 152.044548 350.381316 152.571379 349.109433 152.571379 347.783417 
C 152.571379 346.457402 152.044548 345.185518 151.106913 344.247883 
C 150.169279 343.310249 148.897395 342.783417 147.571379 342.783417 
C 146.245364 342.783417 144.97348 343.310249 144.035846 344.247883 
C 143.098211 345.185518 142.571379 346.457402 142.571379 347.783417 
C 142.571379 349.109433 143.098211 350.381316 144.035846 351.318951 
C 144.97348 352.256586 146.245364 352.783417 147.571379 352.783417 
z
" style="fill:#cc79a7;stroke:#cc79a7;"/>
    <path clip-path="url(#p60c5a7bf66)" d="M 150.697275 361.04276 
C 152.023291 361.04276 153.295175 360.515928 154.232809 359.578293 
C 155.170444 358.640659 155.697275 357.368775 155.697275 356.04276 
C 155.697275 354.716744 155.170444 353.44486 154.232809 352.507226 
C 153.295175 351.569591 152.023291 351.04276 150.697275 351.04276 
C 149.37126 351.04276 148.099376 351.569591 147.161741 352.507226 
C 146.224107 353.44486 145.697275 354.716744 145.697275 356.04276 
C 145.697275 357.368775 146.224107 358.640659 147.161741 359.578293 
C 148.099376 360.515928 149.37126 361.04276 150.697275 361.04276 
z
" style="fill:#abd9e9;stroke:#abd9e9;"/>
   </g>
   <g id="matplotlib.axis_1">
    <g id="xtick_1">
     <g id="line2d_1">
      <defs>
       <path d="M 0 0 
L 0 3.5 
" id="m269b3c4ab6" style="stroke:#000000;stroke-width:0.8;"/>
      </defs>
      <g>
       <use style="stroke:#000000;stroke-width:0.8;" x="147.6" xlink:href="#m269b3c4ab6" y="504"/>
      </g>
     </g>
     <g id="text_1">
      <!-- MeanPD -->
      <g transform="translate(127.111719 518.598438)scale(0.1 -0.1)">
       <defs>
        <path d="M 9.8125 72.90625 
L 24.515625 72.90625 
L 43.109375 23.296875 
L 61.8125 72.90625 
L 76.515625 72.90625 
L 76.515625 0 
L 66.890625 0 
L 66.890625 64.015625 
L 48.09375 14.015625 
L 38.1875 14.015625 
L 19.390625 64.015625 
L 19.390625 0 
L 9.8125 0 
z
" id="DejaVuSans-77"/>
        <path d="M 56.203125 29.59375 
L 56.203125 25.203125 
L 14.890625 25.203125 
Q 15.484375 15.921875 20.484375 11.0625 
Q 25.484375 6.203125 34.421875 6.203125 
Q 39.59375 6.203125 44.453125 7.46875 
Q 49.3125 8.734375 54.109375 11.28125 
L 54.109375 2.78125 
Q 49.265625 0.734375 44.1875 -0.34375 
Q 39.109375 -1.421875 33.890625 -1.421875 
Q 20.796875 -1.421875 13.15625 6.1875 
Q 5.515625 13.8125 5.515625 26.8125 
Q 5.515625 40.234375 12.765625 48.109375 
Q 20.015625 56 32.328125 56 
Q 43.359375 56 49.78125 48.890625 
Q 56.203125 41.796875 56.203125 29.59375 
z
M 47.21875 32.234375 
Q 47.125 39.59375 43.09375 43.984375 
Q 39.0625 48.390625 32.421875 48.390625 
Q 24.90625 48.390625 20.390625 44.140625 
Q 15.875 39.890625 15.1875 32.171875 
z
" id="DejaVuSans-101"/>
        <path d="M 34.28125 27.484375 
Q 23.390625 27.484375 19.1875 25 
Q 14.984375 22.515625 14.984375 16.5 
Q 14.984375 11.71875 18.140625 8.90625 
Q 21.296875 6.109375 26.703125 6.109375 
Q 34.1875 6.109375 38.703125 11.40625 
Q 43.21875 16.703125 43.21875 25.484375 
L 43.21875 27.484375 
z
M 52.203125 31.203125 
L 52.203125 0 
L 43.21875 0 
L 43.21875 8.296875 
Q 40.140625 3.328125 35.546875 0.953125 
Q 30.953125 -1.421875 24.3125 -1.421875 
Q 15.921875 -1.421875 10.953125 3.296875 
Q 6 8.015625 6 15.921875 
Q 6 25.140625 12.171875 29.828125 
Q 18.359375 34.515625 30.609375 34.515625 
L 43.21875 34.515625 
L 43.21875 35.40625 
Q 43.21875 41.609375 39.140625 45 
Q 35.0625 48.390625 27.6875 48.390625 
Q 23 48.390625 18.546875 47.265625 
Q 14.109375 46.140625 10.015625 43.890625 
L 10.015625 52.203125 
Q 14.9375 54.109375 19.578125 55.046875 
Q 24.21875 56 28.609375 56 
Q 40.484375 56 46.34375 49.84375 
Q 52.203125 43.703125 52.203125 31.203125 
z
" id="DejaVuSans-97"/>
        <path d="M 54.890625 33.015625 
L 54.890625 0 
L 45.90625 0 
L 45.90625 32.71875 
Q 45.90625 40.484375 42.875 44.328125 
Q 39.84375 48.1875 33.796875 48.1875 
Q 26.515625 48.1875 22.3125 43.546875 
Q 18.109375 38.921875 18.109375 30.90625 
L 18.109375 0 
L 9.078125 0 
L 9.078125 54.6875 
L 18.109375 54.6875 
L 18.109375 46.1875 
Q 21.34375 51.125 25.703125 53.5625 
Q 30.078125 56 35.796875 56 
Q 45.21875 56 50.046875 50.171875 
Q 54.890625 44.34375 54.890625 33.015625 
z
" id="DejaVuSans-110"/>
        <path d="M 19.671875 64.796875 
L 19.671875 37.40625 
L 32.078125 37.40625 
Q 38.96875 37.40625 42.71875 40.96875 
Q 46.484375 44.53125 46.484375 51.125 
Q 46.484375 57.671875 42.71875 61.234375 
Q 38.96875 64.796875 32.078125 64.796875 
z
M 9.8125 72.90625 
L 32.078125 72.90625 
Q 44.34375 72.90625 50.609375 67.359375 
Q 56.890625 61.8125 56.890625 51.125 
Q 56.890625 40.328125 50.609375 34.8125 
Q 44.34375 29.296875 32.078125 29.296875 
L 19.671875 29.296875 
L 19.671875 0 
L 9.8125 0 
z
" id="DejaVuSans-80"/>
        <path d="M 19.671875 64.796875 
L 19.671875 8.109375 
L 31.59375 8.109375 
Q 46.6875 8.109375 53.6875 14.9375 
Q 60.6875 21.78125 60.6875 36.53125 
Q 60.6875 51.171875 53.6875 57.984375 
Q 46.6875 64.796875 31.59375 64.796875 
z
M 9.8125 72.90625 
L 30.078125 72.90625 
Q 51.265625 72.90625 61.171875 64.09375 
Q 71.09375 55.28125 71.09375 36.53125 
Q 71.09375 17.671875 61.125 8.828125 
Q 51.171875 0 30.078125 0 
L 9.8125 0 
z
" id="DejaVuSans-68"/>
       </defs>
       <use xlink:href="#DejaVuSans-77"/>
       <use x="86.279297" xlink:href="#DejaVuSans-101"/>
       <use x="147.802734" xlink:href="#DejaVuSans-97"/>
       <use x="209.082031" xlink:href="#DejaVuSans-110"/>
       <use x="272.460938" xlink:href="#DejaVuSans-80"/>
       <use x="332.763672" xlink:href="#DejaVuSans-68"/>
      </g>
     </g>
    </g>
   </g>
   <g id="matplotlib.axis_2">
    <g id="ytick_1">
     <g id="line2d_2">
      <defs>
       <path d="M 0 0 
L -3.5 0 
" id="mc14ff01729" style="stroke:#000000;stroke-width:0.8;"/>
      </defs>
      <g>
       <use style="stroke:#000000;stroke-width:0.8;" x="36" xlink:href="#mc14ff01729" y="494.116364"/>
      </g>
     </g>
     <g id="text_2">
      <!-- −1.5 -->
      <g transform="translate(4.717187 497.915582)scale(0.1 -0.1)">
       <defs>
        <path d="M 10.59375 35.5 
L 73.1875 35.5 
L 73.1875 27.203125 
L 10.59375 27.203125 
z
" id="DejaVuSans-8722"/>
        <path d="M 12.40625 8.296875 
L 28.515625 8.296875 
L 28.515625 63.921875 
L 10.984375 60.40625 
L 10.984375 69.390625 
L 28.421875 72.90625 
L 38.28125 72.90625 
L 38.28125 8.296875 
L 54.390625 8.296875 
L 54.390625 0 
L 12.40625 0 
z
" id="DejaVuSans-49"/>
        <path d="M 10.6875 12.40625 
L 21 12.40625 
L 21 0 
L 10.6875 0 
z
" id="DejaVuSans-46"/>
        <path d="M 10.796875 72.90625 
L 49.515625 72.90625 
L 49.515625 64.59375 
L 19.828125 64.59375 
L 19.828125 46.734375 
Q 21.96875 47.46875 24.109375 47.828125 
Q 26.265625 48.1875 28.421875 48.1875 
Q 40.625 48.1875 47.75 41.5 
Q 54.890625 34.8125 54.890625 23.390625 
Q 54.890625 11.625 47.5625 5.09375 
Q 40.234375 -1.421875 26.90625 -1.421875 
Q 22.3125 -1.421875 17.546875 -0.640625 
Q 12.796875 0.140625 7.71875 1.703125 
L 7.71875 11.625 
Q 12.109375 9.234375 16.796875 8.0625 
Q 21.484375 6.890625 26.703125 6.890625 
Q 35.15625 6.890625 40.078125 11.328125 
Q 45.015625 15.765625 45.015625 23.390625 
Q 45.015625 31 40.078125 35.4375 
Q 35.15625 39.890625 26.703125 39.890625 
Q 22.75 39.890625 18.8125 39.015625 
Q 14.890625 38.140625 10.796875 36.28125 
z
" id="DejaVuSans-53"/>
       </defs>
       <use xlink:href="#DejaVuSans-8722"/>
       <use x="83.789062" xlink:href="#DejaVuSans-49"/>
       <use x="147.412109" xlink:href="#DejaVuSans-46"/>
       <use x="179.199219" xlink:href="#DejaVuSans-53"/>
      </g>
     </g>
    </g>
    <g id="ytick_2">
     <g id="line2d_3">
      <g>
       <use style="stroke:#000000;stroke-width:0.8;" x="36" xlink:href="#mc14ff01729" y="444.698182"/>
      </g>
     </g>
     <g id="text_3">
      <!-- −1.0 -->
      <g transform="translate(4.717187 448.497401)scale(0.1 -0.1)">
       <defs>
        <path d="M 31.78125 66.40625 
Q 24.171875 66.40625 20.328125 58.90625 
Q 16.5 51.421875 16.5 36.375 
Q 16.5 21.390625 20.328125 13.890625 
Q 24.171875 6.390625 31.78125 6.390625 
Q 39.453125 6.390625 43.28125 13.890625 
Q 47.125 21.390625 47.125 36.375 
Q 47.125 51.421875 43.28125 58.90625 
Q 39.453125 66.40625 31.78125 66.40625 
z
M 31.78125 74.21875 
Q 44.046875 74.21875 50.515625 64.515625 
Q 56.984375 54.828125 56.984375 36.375 
Q 56.984375 17.96875 50.515625 8.265625 
Q 44.046875 -1.421875 31.78125 -1.421875 
Q 19.53125 -1.421875 13.0625 8.265625 
Q 6.59375 17.96875 6.59375 36.375 
Q 6.59375 54.828125 13.0625 64.515625 
Q 19.53125 74.21875 31.78125 74.21875 
z
" id="DejaVuSans-48"/>
       </defs>
       <use xlink:href="#DejaVuSans-8722"/>
       <use x="83.789062" xlink:href="#DejaVuSans-49"/>
       <use x="147.412109" xlink:href="#DejaVuSans-46"/>
       <use x="179.199219" xlink:href="#DejaVuSans-48"/>
      </g>
     </g>
    </g>
    <g id="ytick_3">
     <g id="line2d_4">
      <g>
       <use style="stroke:#000000;stroke-width:0.8;" x="36" xlink:href="#mc14ff01729" y="395.28"/>
      </g>
     </g>
     <g id="text_4">
      <!-- −0.5 -->
      <g transform="translate(4.717187 399.079219)scale(0.1 -0.1)">
       <use xlink:href="#DejaVuSans-8722"/>
       <use x="83.789062" xlink:href="#DejaVuSans-48"/>
       <use x="147.412109" xlink:href="#DejaVuSans-46"/>
       <use x="179.199219" xlink:href="#DejaVuSans-53"/>
      </g>
     </g>
    </g>
    <g id="ytick_4">
     <g id="line2d_5">
      <g>
       <use style="stroke:#000000;stroke-width:0.8;" x="36" xlink:href="#mc14ff01729" y="345.861818"/>
      </g>
     </g>
     <g id="text_5">
      <!-- 0.0 -->
      <g transform="translate(13.096875 349.661037)scale(0.1 -0.1)">
       <use xlink:href="#DejaVuSans-48"/>
       <use x="63.623047" xlink:href="#DejaVuSans-46"/>
       <use x="95.410156" xlink:href="#DejaVuSans-48"/>
      </g>
     </g>
    </g>
    <g id="ytick_5">
     <g id="line2d_6">
      <g>
       <use style="stroke:#000000;stroke-width:0.8;" x="36" xlink:href="#mc14ff01729" y="296.443636"/>
      </g>
     </g>
     <g id="text_6">
      <!-- 0.5 -->
      <g transform="translate(13.096875 300.242855)scale(0.1 -0.1)">
       <use xlink:href="#DejaVuSans-48"/>
       <use x="63.623047" xlink:href="#DejaVuSans-46"/>
       <use x="95.410156" xlink:href="#DejaVuSans-53"/>
      </g>
     </g>
    </g>
    <g id="ytick_6">
     <g id="line2d_7">
      <g>
       <use style="stroke:#000000;stroke-width:0.8;" x="36" xlink:href="#mc14ff01729" y="247.025455"/>
      </g>
     </g>
     <g id="text_7">
      <!-- 1.0 -->
      <g transform="translate(13.096875 250.824673)scale(0.1 -0.1)">
       <use xlink:href="#DejaVuSans-49"/>
       <use x="63.623047" xlink:href="#DejaVuSans-46"/>
       <use x="95.410156" xlink:href="#DejaVuSans-48"/>
      </g>
     </g>
    </g>
    <g id="ytick_7">
     <g id="line2d_8">
      <g>
       <use style="stroke:#000000;stroke-width:0.8;" x="36" xlink:href="#mc14ff01729" y="197.607273"/>
      </g>
     </g>
     <g id="text_8">
      <!-- 1.5 -->
      <g transform="translate(13.096875 201.406491)scale(0.1 -0.1)">
       <use xlink:href="#DejaVuSans-49"/>
       <use x="63.623047" xlink:href="#DejaVuSans-46"/>
       <use x="95.410156" xlink:href="#DejaVuSans-53"/>
      </g>
     </g>
    </g>
    <g id="ytick_8">
     <g id="line2d_9">
      <g>
       <use style="stroke:#000000;stroke-width:0.8;" x="36" xlink:href="#mc14ff01729" y="148.189091"/>
      </g>
     </g>
     <g id="text_9">
      <!-- 2.0 -->
      <g transform="translate(13.096875 151.98831)scale(0.1 -0.1)">
       <defs>
        <path d="M 19.1875 8.296875 
L 53.609375 8.296875 
L 53.609375 0 
L 7.328125 0 
L 7.328125 8.296875 
Q 12.9375 14.109375 22.625 23.890625 
Q 32.328125 33.6875 34.8125 36.53125 
Q 39.546875 41.84375 41.421875 45.53125 
Q 43.3125 49.21875 43.3125 52.78125 
Q 43.3125 58.59375 39.234375 62.25 
Q 35.15625 65.921875 28.609375 65.921875 
Q 23.96875 65.921875 18.8125 64.3125 
Q 13.671875 62.703125 7.8125 59.421875 
L 7.8125 69.390625 
Q 13.765625 71.78125 18.9375 73 
Q 24.125 74.21875 28.421875 74.21875 
Q 39.75 74.21875 46.484375 68.546875 
Q 53.21875 62.890625 53.21875 53.421875 
Q 53.21875 48.921875 51.53125 44.890625 
Q 49.859375 40.875 45.40625 35.40625 
Q 44.1875 33.984375 37.640625 27.21875 
Q 31.109375 20.453125 19.1875 8.296875 
z
" id="DejaVuSans-50"/>
       </defs>
       <use xlink:href="#DejaVuSans-50"/>
       <use x="63.623047" xlink:href="#DejaVuSans-46"/>
       <use x="95.410156" xlink:href="#DejaVuSans-48"/>
      </g>
     </g>
    </g>
    <g id="ytick_9">
     <g id="line2d_10">
      <g>
       <use style="stroke:#000000;stroke-width:0.8;" x="36" xlink:href="#mc14ff01729" y="98.770909"/>
      </g>
     </g>
     <g id="text_10">
      <!-- 2.5 -->
      <g transform="translate(13.096875 102.570128)scale(0.1 -0.1)">
       <use xlink:href="#DejaVuSans-50"/>
       <use x="63.623047" xlink:href="#DejaVuSans-46"/>
       <use x="95.410156" xlink:href="#DejaVuSans-53"/>
      </g>
     </g>
    </g>
    <g id="text_11">
     <!-- LogOdds -->
     <g transform="translate(-1.3625 308.381094)rotate(-90)scale(0.1 -0.1)">
      <defs>
       <path d="M 9.8125 72.90625 
L 19.671875 72.90625 
L 19.671875 8.296875 
L 55.171875 8.296875 
L 55.171875 0 
L 9.8125 0 
z
" id="DejaVuSans-76"/>
       <path d="M 30.609375 48.390625 
Q 23.390625 48.390625 19.1875 42.75 
Q 14.984375 37.109375 14.984375 27.296875 
Q 14.984375 17.484375 19.15625 11.84375 
Q 23.34375 6.203125 30.609375 6.203125 
Q 37.796875 6.203125 41.984375 11.859375 
Q 46.1875 17.53125 46.1875 27.296875 
Q 46.1875 37.015625 41.984375 42.703125 
Q 37.796875 48.390625 30.609375 48.390625 
z
M 30.609375 56 
Q 42.328125 56 49.015625 48.375 
Q 55.71875 40.765625 55.71875 27.296875 
Q 55.71875 13.875 49.015625 6.21875 
Q 42.328125 -1.421875 30.609375 -1.421875 
Q 18.84375 -1.421875 12.171875 6.21875 
Q 5.515625 13.875 5.515625 27.296875 
Q 5.515625 40.765625 12.171875 48.375 
Q 18.84375 56 30.609375 56 
z
" id="DejaVuSans-111"/>
       <path d="M 45.40625 27.984375 
Q 45.40625 37.75 41.375 43.109375 
Q 37.359375 48.484375 30.078125 48.484375 
Q 22.859375 48.484375 18.828125 43.109375 
Q 14.796875 37.75 14.796875 27.984375 
Q 14.796875 18.265625 18.828125 12.890625 
Q 22.859375 7.515625 30.078125 7.515625 
Q 37.359375 7.515625 41.375 12.890625 
Q 45.40625 18.265625 45.40625 27.984375 
z
M 54.390625 6.78125 
Q 54.390625 -7.171875 48.1875 -13.984375 
Q 42 -20.796875 29.203125 -20.796875 
Q 24.46875 -20.796875 20.265625 -20.09375 
Q 16.0625 -19.390625 12.109375 -17.921875 
L 12.109375 -9.1875 
Q 16.0625 -11.328125 19.921875 -12.34375 
Q 23.78125 -13.375 27.78125 -13.375 
Q 36.625 -13.375 41.015625 -8.765625 
Q 45.40625 -4.15625 45.40625 5.171875 
L 45.40625 9.625 
Q 42.625 4.78125 38.28125 2.390625 
Q 33.9375 0 27.875 0 
Q 17.828125 0 11.671875 7.65625 
Q 5.515625 15.328125 5.515625 27.984375 
Q 5.515625 40.671875 11.671875 48.328125 
Q 17.828125 56 27.875 56 
Q 33.9375 56 38.28125 53.609375 
Q 42.625 51.21875 45.40625 46.390625 
L 45.40625 54.6875 
L 54.390625 54.6875 
z
" id="DejaVuSans-103"/>
       <path d="M 39.40625 66.21875 
Q 28.65625 66.21875 22.328125 58.203125 
Q 16.015625 50.203125 16.015625 36.375 
Q 16.015625 22.609375 22.328125 14.59375 
Q 28.65625 6.59375 39.40625 6.59375 
Q 50.140625 6.59375 56.421875 14.59375 
Q 62.703125 22.609375 62.703125 36.375 
Q 62.703125 50.203125 56.421875 58.203125 
Q 50.140625 66.21875 39.40625 66.21875 
z
M 39.40625 74.21875 
Q 54.734375 74.21875 63.90625 63.9375 
Q 73.09375 53.65625 73.09375 36.375 
Q 73.09375 19.140625 63.90625 8.859375 
Q 54.734375 -1.421875 39.40625 -1.421875 
Q 24.03125 -1.421875 14.8125 8.828125 
Q 5.609375 19.09375 5.609375 36.375 
Q 5.609375 53.65625 14.8125 63.9375 
Q 24.03125 74.21875 39.40625 74.21875 
z
" id="DejaVuSans-79"/>
       <path d="M 45.40625 46.390625 
L 45.40625 75.984375 
L 54.390625 75.984375 
L 54.390625 0 
L 45.40625 0 
L 45.40625 8.203125 
Q 42.578125 3.328125 38.25 0.953125 
Q 33.9375 -1.421875 27.875 -1.421875 
Q 17.96875 -1.421875 11.734375 6.484375 
Q 5.515625 14.40625 5.515625 27.296875 
Q 5.515625 40.1875 11.734375 48.09375 
Q 17.96875 56 27.875 56 
Q 33.9375 56 38.25 53.625 
Q 42.578125 51.265625 45.40625 46.390625 
z
M 14.796875 27.296875 
Q 14.796875 17.390625 18.875 11.75 
Q 22.953125 6.109375 30.078125 6.109375 
Q 37.203125 6.109375 41.296875 11.75 
Q 45.40625 17.390625 45.40625 27.296875 
Q 45.40625 37.203125 41.296875 42.84375 
Q 37.203125 48.484375 30.078125 48.484375 
Q 22.953125 48.484375 18.875 42.84375 
Q 14.796875 37.203125 14.796875 27.296875 
z
" id="DejaVuSans-100"/>
       <path d="M 44.28125 53.078125 
L 44.28125 44.578125 
Q 40.484375 46.53125 36.375 47.5 
Q 32.28125 48.484375 27.875 48.484375 
Q 21.1875 48.484375 17.84375 46.4375 
Q 14.5 44.390625 14.5 40.28125 
Q 14.5 37.15625 16.890625 35.375 
Q 19.28125 33.59375 26.515625 31.984375 
L 29.59375 31.296875 
Q 39.15625 29.25 43.1875 25.515625 
Q 47.21875 21.78125 47.21875 15.09375 
Q 47.21875 7.46875 41.1875 3.015625 
Q 35.15625 -1.421875 24.609375 -1.421875 
Q 20.21875 -1.421875 15.453125 -0.5625 
Q 10.6875 0.296875 5.421875 2 
L 5.421875 11.28125 
Q 10.40625 8.6875 15.234375 7.390625 
Q 20.0625 6.109375 24.8125 6.109375 
Q 31.15625 6.109375 34.5625 8.28125 
Q 37.984375 10.453125 37.984375 14.40625 
Q 37.984375 18.0625 35.515625 20.015625 
Q 33.0625 21.96875 24.703125 23.78125 
L 21.578125 24.515625 
Q 13.234375 26.265625 9.515625 29.90625 
Q 5.8125 33.546875 5.8125 39.890625 
Q 5.8125 47.609375 11.28125 51.796875 
Q 16.75 56 26.8125 56 
Q 31.78125 56 36.171875 55.265625 
Q 40.578125 54.546875 44.28125 53.078125 
z
" id="DejaVuSans-115"/>
      </defs>
      <use xlink:href="#DejaVuSans-76"/>
      <use x="53.962891" xlink:href="#DejaVuSans-111"/>
      <use x="115.144531" xlink:href="#DejaVuSans-103"/>
      <use x="178.621094" xlink:href="#DejaVuSans-79"/>
      <use x="257.332031" xlink:href="#DejaVuSans-100"/>
      <use x="320.808594" xlink:href="#DejaVuSans-100"/>
      <use x="384.285156" xlink:href="#DejaVuSans-115"/>
     </g>
    </g>
   </g>
   <g id="line2d_11">
    <path clip-path="url(#p60c5a7bf66)" d="M 130.86 364.09255 
L 164.34 364.09255 
L 164.34 289.537024 
L 130.86 289.537024 
L 130.86 364.09255 
" style="fill:none;stroke:#000000;stroke-linecap:square;"/>
   </g>
   <g id="line2d_12">
    <path clip-path="url(#p60c5a7bf66)" d="M 147.6 364.09255 
L 147.6 462.622473 
" style="fill:none;stroke:#000000;stroke-linecap:square;"/>
   </g>
   <g id="line2d_13">
    <path clip-path="url(#p60c5a7bf66)" d="M 147.6 289.537024 
L 147.6 194.015679 
" style="fill:none;stroke:#000000;stroke-linecap:square;"/>
   </g>
   <g id="line2d_14">
    <path clip-path="url(#p60c5a7bf66)" d="M 139.23 462.622473 
L 155.97 462.622473 
" style="fill:none;stroke:#000000;stroke-linecap:square;"/>
   </g>
   <g id="line2d_15">
    <path clip-path="url(#p60c5a7bf66)" d="M 139.23 194.015679 
L 155.97 194.015679 
" style="fill:none;stroke:#000000;stroke-linecap:square;"/>
   </g>
   <g id="line2d_16">
    <path clip-path="url(#p60c5a7bf66)" d="M 130.86 333.827326 
L 164.34 333.827326 
" style="fill:none;stroke:#ff7f0e;stroke-linecap:square;"/>
   </g>
   <g id="patch_3">
    <path d="M 36 504 
L 36 69.12 
" style="fill:none;stroke:#000000;stroke-linecap:square;stroke-linejoin:miter;stroke-width:0.8;"/>
   </g>
   <g id="patch_4">
    <path d="M 259.2 504 
L 259.2 69.12 
" style="fill:none;stroke:#000000;stroke-linecap:square;stroke-linejoin:miter;stroke-width:0.8;"/>
   </g>
   <g id="patch_5">
    <path d="M 36 504 
L 259.2 504 
" style="fill:none;stroke:#000000;stroke-linecap:square;stroke-linejoin:miter;stroke-width:0.8;"/>
   </g>
   <g id="patch_6">
    <path d="M 36 69.12 
L 259.2 69.12 
" style="fill:none;stroke:#000000;stroke-linecap:square;stroke-linejoin:miter;stroke-width:0.8;"/>
   </g>
   <g id="text_12">
    <!-- 0.0 -->
    <g style="fill:#999999;" transform="translate(146.056456 365.787449)scale(0.1 -0.1)">
     <use xlink:href="#DejaVuSans-48"/>
     <use x="63.623047" xlink:href="#DejaVuSans-46"/>
     <use x="95.410156" xlink:href="#DejaVuSans-48"/>
    </g>
   </g>
   <g id="text_13">
    <!-- 1.0 -->
    <g style="fill:#e69f00;" transform="translate(144.288348 233.845991)scale(0.1 -0.1)">
     <use xlink:href="#DejaVuSans-49"/>
     <use x="63.623047" xlink:href="#DejaVuSans-46"/>
     <use x="95.410156" xlink:href="#DejaVuSans-48"/>
    </g>
   </g>
   <g id="text_14">
    <!-- 2.0 -->
    <g style="fill:#56b4e9;" transform="translate(152.499543 338.398157)scale(0.1 -0.1)">
     <use xlink:href="#DejaVuSans-50"/>
     <use x="63.623047" xlink:href="#DejaVuSans-46"/>
     <use x="95.410156" xlink:href="#DejaVuSans-48"/>
    </g>
   </g>
   <g id="text_15">
    <!-- 3.0 -->
    <g style="fill:#009e73;" transform="translate(132.593812 461.634109)scale(0.1 -0.1)">
     <defs>
      <path d="M 40.578125 39.3125 
Q 47.65625 37.796875 51.625 33 
Q 55.609375 28.21875 55.609375 21.1875 
Q 55.609375 10.40625 48.1875 4.484375 
Q 40.765625 -1.421875 27.09375 -1.421875 
Q 22.515625 -1.421875 17.65625 -0.515625 
Q 12.796875 0.390625 7.625 2.203125 
L 7.625 11.71875 
Q 11.71875 9.328125 16.59375 8.109375 
Q 21.484375 6.890625 26.8125 6.890625 
Q 36.078125 6.890625 40.9375 10.546875 
Q 45.796875 14.203125 45.796875 21.1875 
Q 45.796875 27.640625 41.28125 31.265625 
Q 36.765625 34.90625 28.71875 34.90625 
L 20.21875 34.90625 
L 20.21875 43.015625 
L 29.109375 43.015625 
Q 36.375 43.015625 40.234375 45.921875 
Q 44.09375 48.828125 44.09375 54.296875 
Q 44.09375 59.90625 40.109375 62.90625 
Q 36.140625 65.921875 28.71875 65.921875 
Q 24.65625 65.921875 20.015625 65.03125 
Q 15.375 64.15625 9.8125 62.3125 
L 9.8125 71.09375 
Q 15.4375 72.65625 20.34375 73.4375 
Q 25.25 74.21875 29.59375 74.21875 
Q 40.828125 74.21875 47.359375 69.109375 
Q 53.90625 64.015625 53.90625 55.328125 
Q 53.90625 49.265625 50.4375 45.09375 
Q 46.96875 40.921875 40.578125 39.3125 
z
" id="DejaVuSans-51"/>
     </defs>
     <use xlink:href="#DejaVuSans-51"/>
     <use x="63.623047" xlink:href="#DejaVuSans-46"/>
     <use x="95.410156" xlink:href="#DejaVuSans-48"/>
    </g>
   </g>
   <g id="text_16">
    <!-- 4 -->
    <g style="fill:#f0e442;" transform="translate(134.304292 276.191248)scale(0.1 -0.1)">
     <defs>
      <path d="M 37.796875 64.3125 
L 12.890625 25.390625 
L 37.796875 25.390625 
z
M 35.203125 72.90625 
L 47.609375 72.90625 
L 47.609375 25.390625 
L 58.015625 25.390625 
L 58.015625 17.1875 
L 47.609375 17.1875 
L 47.609375 0 
L 37.796875 0 
L 37.796875 17.1875 
L 4.890625 17.1875 
L 4.890625 26.703125 
z
" id="DejaVuSans-52"/>
     </defs>
     <use xlink:href="#DejaVuSans-52"/>
    </g>
   </g>
   <g id="text_17">
    <!-- 5 -->
    <g style="fill:#0072b2;" transform="translate(154.347821 286.74578)scale(0.1 -0.1)">
     <use xlink:href="#DejaVuSans-53"/>
    </g>
   </g>
   <g id="text_18">
    <!-- 6 -->
    <g style="fill:#d55e00;" transform="translate(167.01086 349.196884)scale(0.1 -0.1)">
     <defs>
      <path d="M 33.015625 40.375 
Q 26.375 40.375 22.484375 35.828125 
Q 18.609375 31.296875 18.609375 23.390625 
Q 18.609375 15.53125 22.484375 10.953125 
Q 26.375 6.390625 33.015625 6.390625 
Q 39.65625 6.390625 43.53125 10.953125 
Q 47.40625 15.53125 47.40625 23.390625 
Q 47.40625 31.296875 43.53125 35.828125 
Q 39.65625 40.375 33.015625 40.375 
z
M 52.59375 71.296875 
L 52.59375 62.3125 
Q 48.875 64.0625 45.09375 64.984375 
Q 41.3125 65.921875 37.59375 65.921875 
Q 27.828125 65.921875 22.671875 59.328125 
Q 17.53125 52.734375 16.796875 39.40625 
Q 19.671875 43.65625 24.015625 45.921875 
Q 28.375 48.1875 33.59375 48.1875 
Q 44.578125 48.1875 50.953125 41.515625 
Q 57.328125 34.859375 57.328125 23.390625 
Q 57.328125 12.15625 50.6875 5.359375 
Q 44.046875 -1.421875 33.015625 -1.421875 
Q 20.359375 -1.421875 13.671875 8.265625 
Q 6.984375 17.96875 6.984375 36.375 
Q 6.984375 53.65625 15.1875 63.9375 
Q 23.390625 74.21875 37.203125 74.21875 
Q 40.921875 74.21875 44.703125 73.484375 
Q 48.484375 72.75 52.59375 71.296875 
z
" id="DejaVuSans-54"/>
     </defs>
     <use xlink:href="#DejaVuSans-54"/>
    </g>
   </g>
   <g id="text_19">
    <!-- 7.0 -->
    <g style="fill:#cc79a7;" transform="translate(156.992105 317.851323)scale(0.1 -0.1)">
     <defs>
      <path d="M 8.203125 72.90625 
L 55.078125 72.90625 
L 55.078125 68.703125 
L 28.609375 0 
L 18.3125 0 
L 43.21875 64.59375 
L 8.203125 64.59375 
z
" id="DejaVuSans-55"/>
     </defs>
     <use xlink:href="#DejaVuSans-55"/>
     <use x="63.623047" xlink:href="#DejaVuSans-46"/>
     <use x="95.410156" xlink:href="#DejaVuSans-48"/>
    </g>
   </g>
   <g id="text_20">
    <!-- 8.0 -->
    <g style="fill:#f46d43;" transform="translate(167.765765 193.027315)scale(0.1 -0.1)">
     <defs>
      <path d="M 31.78125 34.625 
Q 24.75 34.625 20.71875 30.859375 
Q 16.703125 27.09375 16.703125 20.515625 
Q 16.703125 13.921875 20.71875 10.15625 
Q 24.75 6.390625 31.78125 6.390625 
Q 38.8125 6.390625 42.859375 10.171875 
Q 46.921875 13.96875 46.921875 20.515625 
Q 46.921875 27.09375 42.890625 30.859375 
Q 38.875 34.625 31.78125 34.625 
z
M 21.921875 38.8125 
Q 15.578125 40.375 12.03125 44.71875 
Q 8.5 49.078125 8.5 55.328125 
Q 8.5 64.0625 14.71875 69.140625 
Q 20.953125 74.21875 31.78125 74.21875 
Q 42.671875 74.21875 48.875 69.140625 
Q 55.078125 64.0625 55.078125 55.328125 
Q 55.078125 49.078125 51.53125 44.71875 
Q 48 40.375 41.703125 38.8125 
Q 48.828125 37.15625 52.796875 32.3125 
Q 56.78125 27.484375 56.78125 20.515625 
Q 56.78125 9.90625 50.3125 4.234375 
Q 43.84375 -1.421875 31.78125 -1.421875 
Q 19.734375 -1.421875 13.25 4.234375 
Q 6.78125 9.90625 6.78125 20.515625 
Q 6.78125 27.484375 10.78125 32.3125 
Q 14.796875 37.15625 21.921875 38.8125 
z
M 18.3125 54.390625 
Q 18.3125 48.734375 21.84375 45.5625 
Q 25.390625 42.390625 31.78125 42.390625 
Q 38.140625 42.390625 41.71875 45.5625 
Q 45.3125 48.734375 45.3125 54.390625 
Q 45.3125 60.0625 41.71875 63.234375 
Q 38.140625 66.40625 31.78125 66.40625 
Q 25.390625 66.40625 21.84375 63.234375 
Q 18.3125 60.0625 18.3125 54.390625 
z
" id="DejaVuSans-56"/>
     </defs>
     <use xlink:href="#DejaVuSans-56"/>
     <use x="63.623047" xlink:href="#DejaVuSans-46"/>
     <use x="95.410156" xlink:href="#DejaVuSans-48"/>
    </g>
   </g>
   <g id="text_21">
    <!-- 9.0 -->
    <g style="fill:#abd9e9;" transform="translate(141.575141 298.137999)scale(0.1 -0.1)">
     <defs>
      <path d="M 10.984375 1.515625 
L 10.984375 10.5 
Q 14.703125 8.734375 18.5 7.8125 
Q 22.3125 6.890625 25.984375 6.890625 
Q 35.75 6.890625 40.890625 13.453125 
Q 46.046875 20.015625 46.78125 33.40625 
Q 43.953125 29.203125 39.59375 26.953125 
Q 35.25 24.703125 29.984375 24.703125 
Q 19.046875 24.703125 12.671875 31.3125 
Q 6.296875 37.9375 6.296875 49.421875 
Q 6.296875 60.640625 12.9375 67.421875 
Q 19.578125 74.21875 30.609375 74.21875 
Q 43.265625 74.21875 49.921875 64.515625 
Q 56.59375 54.828125 56.59375 36.375 
Q 56.59375 19.140625 48.40625 8.859375 
Q 40.234375 -1.421875 26.421875 -1.421875 
Q 22.703125 -1.421875 18.890625 -0.6875 
Q 15.09375 0.046875 10.984375 1.515625 
z
M 30.609375 32.421875 
Q 37.25 32.421875 41.125 36.953125 
Q 45.015625 41.5 45.015625 49.421875 
Q 45.015625 57.28125 41.125 61.84375 
Q 37.25 66.40625 30.609375 66.40625 
Q 23.96875 66.40625 20.09375 61.84375 
Q 16.21875 57.28125 16.21875 49.421875 
Q 16.21875 41.5 20.09375 36.953125 
Q 23.96875 32.421875 30.609375 32.421875 
z
" id="DejaVuSans-57"/>
     </defs>
     <use xlink:href="#DejaVuSans-57"/>
     <use x="63.623047" xlink:href="#DejaVuSans-46"/>
     <use x="95.410156" xlink:href="#DejaVuSans-48"/>
    </g>
   </g>
   <g id="text_22">
    <!-- 9.3 -->
    <g style="fill:#999999;" transform="translate(137.376778 209.656232)scale(0.1 -0.1)">
     <use xlink:href="#DejaVuSans-57"/>
     <use x="63.623047" xlink:href="#DejaVuSans-46"/>
     <use x="95.410156" xlink:href="#DejaVuSans-51"/>
    </g>
   </g>
   <g id="text_23">
    <!-- 9.2 -->
    <g style="fill:#e69f00;" transform="translate(153.196383 395.414434)scale(0.1 -0.1)">
     <use xlink:href="#DejaVuSans-57"/>
     <use x="63.623047" xlink:href="#DejaVuSans-46"/>
     <use x="95.410156" xlink:href="#DejaVuSans-50"/>
    </g>
   </g>
   <g id="text_24">
    <!-- 9.1 -->
    <g style="fill:#56b4e9;" transform="translate(166.99372 494.112631)scale(0.1 -0.1)">
     <use xlink:href="#DejaVuSans-57"/>
     <use x="63.623047" xlink:href="#DejaVuSans-46"/>
     <use x="95.410156" xlink:href="#DejaVuSans-49"/>
    </g>
   </g>
   <g id="text_25">
    <!-- 8.1 -->
    <g style="fill:#009e73;" transform="translate(136.661085 327.279769)scale(0.1 -0.1)">
     <use xlink:href="#DejaVuSans-56"/>
     <use x="63.623047" xlink:href="#DejaVuSans-46"/>
     <use x="95.410156" xlink:href="#DejaVuSans-49"/>
    </g>
   </g>
   <g id="text_26">
    <!-- 7.1 -->
    <g style="fill:#f0e442;" transform="translate(142.898872 293.957304)scale(0.1 -0.1)">
     <use xlink:href="#DejaVuSans-55"/>
     <use x="63.623047" xlink:href="#DejaVuSans-46"/>
     <use x="95.410156" xlink:href="#DejaVuSans-49"/>
    </g>
   </g>
   <g id="text_27">
    <!-- 3.1 -->
    <g style="fill:#d55e00;" transform="translate(144.761316 392.178714)scale(0.1 -0.1)">
     <use xlink:href="#DejaVuSans-51"/>
     <use x="63.623047" xlink:href="#DejaVuSans-46"/>
     <use x="95.410156" xlink:href="#DejaVuSans-49"/>
    </g>
   </g>
   <g id="text_28">
    <!-- 0.3 -->
    <g style="fill:#cc79a7;" transform="translate(149.803379 346.795053)scale(0.1 -0.1)">
     <use xlink:href="#DejaVuSans-48"/>
     <use x="63.623047" xlink:href="#DejaVuSans-46"/>
     <use x="95.410156" xlink:href="#DejaVuSans-51"/>
    </g>
   </g>
   <g id="text_29">
    <!-- 0.2 -->
    <g style="fill:#abd9e9;" transform="translate(152.929275 355.054396)scale(0.1 -0.1)">
     <use xlink:href="#DejaVuSans-48"/>
     <use x="63.623047" xlink:href="#DejaVuSans-46"/>
     <use x="95.410156" xlink:href="#DejaVuSans-50"/>
    </g>
   </g>
   <g id="legend_1">
    <g id="patch_7">
     <path d="M 248.2 82.12 
L 252.2 82.12 
Q 254.2 82.12 254.2 80.12 
L 254.2 76.12 
Q 254.2 74.12 252.2 74.12 
L 248.2 74.12 
Q 246.2 74.12 246.2 76.12 
L 246.2 80.12 
Q 246.2 82.12 248.2 82.12 
z
" style="fill:#ffffff;opacity:0.8;stroke:#cccccc;stroke-linejoin:miter;"/>
    </g>
   </g>
  </g>
 </g>
 <defs>
  <clipPath id="p60c5a7bf66">
   <rect height="434.88" width="223.2" x="36" y="69.12"/>
  </clipPath>
 </defs>
</svg>
