<?xml version="1.0" encoding="utf-8" standalone="no"?>
<!DOCTYPE svg PUBLIC "-//W3C//DTD SVG 1.1//EN"
  "http://www.w3.org/Graphics/SVG/1.1/DTD/svg11.dtd">
<!-- Created with matplotlib (https://matplotlib.org/) -->
<svg height="648pt" version="1.1" viewBox="0 0 504 648" width="504pt" xmlns="http://www.w3.org/2000/svg" xmlns:xlink="http://www.w3.org/1999/xlink">
 <metadata>
  <rdf:RDF xmlns:cc="http://creativecommons.org/ns#" xmlns:dc="http://purl.org/dc/elements/1.1/" xmlns:rdf="http://www.w3.org/1999/02/22-rdf-syntax-ns#">
   <cc:Work>
    <dc:type rdf:resource="http://purl.org/dc/dcmitype/StillImage"/>
    <dc:date>2022-04-21T08:39:14.560524</dc:date>
    <dc:format>image/svg+xml</dc:format>
    <dc:creator>
     <cc:Agent>
      <dc:title>Matplotlib v3.3.4, https://matplotlib.org/</dc:title>
     </cc:Agent>
    </dc:creator>
   </cc:Work>
  </rdf:RDF>
 </metadata>
 <defs>
  <style type="text/css">*{stroke-linecap:butt;stroke-linejoin:round;}</style>
 </defs>
 <g id="figure_1">
  <g id="patch_1">
   <path d="M 0 648 
L 504 648 
L 504 0 
L 0 0 
z
" style="fill:#ffffff;"/>
  </g>
  <g id="axes_1">
   <g id="patch_2">
    <path d="M 55.760938 620.521875 
L 493.2 620.521875 
L 493.2 10.8 
L 55.760938 10.8 
z
" style="fill:#ffffff;"/>
   </g>
   <g id="PathCollection_1">
    <path clip-path="url(#pd818396d6f)" d="M 262.777213 367.244881 
C 266.864267 367.244881 270.784477 365.621077 273.674461 362.731093 
C 276.564444 359.841109 278.188248 355.9209 278.188248 351.833846 
C 278.188248 347.746791 276.564444 343.826582 273.674461 340.936598 
C 270.784477 338.046614 266.864267 336.422811 262.777213 336.422811 
C 258.690159 336.422811 254.76995 338.046614 251.879966 340.936598 
C 248.989982 343.826582 247.366178 347.746791 247.366178 351.833846 
C 247.366178 355.9209 248.989982 359.841109 251.879966 362.731093 
C 254.76995 365.621077 258.690159 367.244881 262.777213 367.244881 
z
" style="fill:#999999;stroke:#999999;"/>
    <path clip-path="url(#pd818396d6f)" d="M 284.921568 124.806954 
C 289.008623 124.806954 292.928832 123.18315 295.818816 120.293166 
C 298.7088 117.403182 300.332603 113.482973 300.332603 109.395919 
C 300.332603 105.308864 298.7088 101.388655 295.818816 98.498671 
C 292.928832 95.608687 289.008623 93.984884 284.921568 93.984884 
C 280.834514 93.984884 276.914305 95.608687 274.024321 98.498671 
C 271.134337 101.388655 269.510533 105.308864 269.510533 109.395919 
C 269.510533 113.482973 271.134337 117.403182 274.024321 120.293166 
C 276.914305 123.18315 280.834514 124.806954 284.921568 124.806954 
z
" style="fill:#e69f00;stroke:#e69f00;"/>
    <path clip-path="url(#pd818396d6f)" d="M 246.812614 219.454102 
C 250.193303 219.454102 253.435984 218.110939 255.826492 215.720431 
C 258.217001 213.329923 259.560163 210.087242 259.560163 206.706553 
C 259.560163 203.325863 258.217001 200.083183 255.826492 197.692675 
C 253.435984 195.302166 250.193303 193.959004 246.812614 193.959004 
C 243.431925 193.959004 240.189244 195.302166 237.798736 197.692675 
C 235.408227 200.083183 234.065065 203.325863 234.065065 206.706553 
C 234.065065 210.087242 235.408227 213.329923 237.798736 215.720431 
C 240.189244 218.110939 243.431925 219.454102 246.812614 219.454102 
z
" style="fill:#56b4e9;stroke:#56b4e9;"/>
    <path clip-path="url(#pd818396d6f)" d="M 303.691692 433.487768 
C 306.17244 433.487768 308.551916 432.502156 310.30607 430.748003 
C 312.060224 428.993849 313.045835 426.614372 313.045835 424.133625 
C 313.045835 421.652877 312.060224 419.2734 310.30607 417.519246 
C 308.551916 415.765093 306.17244 414.779481 303.691692 414.779481 
C 301.210944 414.779481 298.831467 415.765093 297.077313 417.519246 
C 295.32316 419.2734 294.337548 421.652877 294.337548 424.133625 
C 294.337548 426.614372 295.32316 428.993849 297.077313 430.748003 
C 298.831467 432.502156 301.210944 433.487768 303.691692 433.487768 
z
" style="fill:#009e73;stroke:#009e73;"/>
    <path clip-path="url(#pd818396d6f)" d="M 279.063361 192.724118 
C 281.159976 192.724118 283.171001 191.891124 284.653531 190.408594 
C 286.136062 188.926063 286.969056 186.915039 286.969056 184.818424 
C 286.969056 182.721809 286.136062 180.710784 284.653531 179.228254 
C 283.171001 177.745724 281.159976 176.91273 279.063361 176.91273 
C 276.966747 176.91273 274.955722 177.745724 273.473191 179.228254 
C 271.990661 180.710784 271.157667 182.721809 271.157667 184.818424 
C 271.157667 186.915039 271.990661 188.926063 273.473191 190.408594 
C 274.955722 191.891124 276.966747 192.724118 279.063361 192.724118 
z
" style="fill:#f0e442;stroke:#f0e442;"/>
    <path clip-path="url(#pd818396d6f)" d="M 273.260065 129.692735 
C 275.740813 129.692735 278.12029 128.707124 279.874443 126.95297 
C 281.628597 125.198816 282.614208 122.81934 282.614208 120.338592 
C 282.614208 117.857844 281.628597 115.478367 279.874443 113.724213 
C 278.12029 111.97006 275.740813 110.984448 273.260065 110.984448 
C 270.779317 110.984448 268.39984 111.97006 266.645687 113.724213 
C 264.891533 115.478367 263.905921 117.857844 263.905921 120.338592 
C 263.905921 122.81934 264.891533 125.198816 266.645687 126.95297 
C 268.39984 128.707124 270.779317 129.692735 273.260065 129.692735 
z
" style="fill:#0072b2;stroke:#0072b2;"/>
    <path clip-path="url(#pd818396d6f)" d="M 282.251988 215.749689 
C 284.548714 215.749689 286.751682 214.83719 288.375713 213.213159 
C 289.999743 211.589128 290.912242 209.386161 290.912242 207.089435 
C 290.912242 204.792708 289.999743 202.589741 288.375713 200.96571 
C 286.751682 199.34168 284.548714 198.429181 282.251988 198.429181 
C 279.955262 198.429181 277.752295 199.34168 276.128264 200.96571 
C 274.504233 202.589741 273.591734 204.792708 273.591734 207.089435 
C 273.591734 209.386161 274.504233 211.589128 276.128264 213.213159 
C 277.752295 214.83719 279.955262 215.749689 282.251988 215.749689 
z
" style="fill:#d55e00;stroke:#d55e00;"/>
    <path clip-path="url(#pd818396d6f)" d="M 279.315769 166.437653 
C 280.9398 166.437653 282.497533 165.792419 283.645896 164.644056 
C 284.794259 163.495693 285.439493 161.937959 285.439493 160.313929 
C 285.439493 158.689898 284.794259 157.132165 283.645896 155.983802 
C 282.497533 154.835439 280.9398 154.190204 279.315769 154.190204 
C 277.691738 154.190204 276.134005 154.835439 274.985642 155.983802 
C 273.837279 157.132165 273.192044 158.689898 273.192044 160.313929 
C 273.192044 161.937959 273.837279 163.495693 274.985642 164.644056 
C 276.134005 165.792419 277.691738 166.437653 279.315769 166.437653 
z
" style="fill:#cc79a7;stroke:#cc79a7;"/>
    <path clip-path="url(#pd818396d6f)" d="M 233.299121 46.420325 
C 235.395735 46.420325 237.40676 45.587331 238.889291 44.104801 
C 240.371821 42.62227 241.204815 40.611245 241.204815 38.514631 
C 241.204815 36.418016 240.371821 34.406991 238.889291 32.924461 
C 237.40676 31.44193 235.395735 30.608937 233.299121 30.608937 
C 231.202506 30.608937 229.191481 31.44193 227.708951 32.924461 
C 226.22642 34.406991 225.393427 36.418016 225.393427 38.514631 
C 225.393427 40.611245 226.22642 42.62227 227.708951 44.104801 
C 229.191481 45.587331 231.202506 46.420325 233.299121 46.420325 
z
" style="fill:#f46d43;stroke:#f46d43;"/>
    <path clip-path="url(#pd818396d6f)" d="M 295.251501 149.704431 
C 297.548227 149.704431 299.751194 148.791932 301.375225 147.167901 
C 302.999256 145.543871 303.911755 143.340903 303.911755 141.044177 
C 303.911755 138.747451 302.999256 136.544483 301.375225 134.920453 
C 299.751194 133.296422 297.548227 132.383923 295.251501 132.383923 
C 292.954774 132.383923 290.751807 133.296422 289.127776 134.920453 
C 287.503746 136.544483 286.591247 138.747451 286.591247 141.044177 
C 286.591247 143.340903 287.503746 145.543871 289.127776 147.167901 
C 290.751807 148.791932 292.954774 149.704431 295.251501 149.704431 
z
" style="fill:#abd9e9;stroke:#abd9e9;"/>
    <path clip-path="url(#pd818396d6f)" d="M 282.308252 59.66359 
C 283.932282 59.66359 285.490016 59.018356 286.638379 57.869993 
C 287.786742 56.72163 288.431976 55.163896 288.431976 53.539866 
C 288.431976 51.915835 287.786742 50.358102 286.638379 49.209739 
C 285.490016 48.061376 283.932282 47.416141 282.308252 47.416141 
C 280.684221 47.416141 279.126488 48.061376 277.978125 49.209739 
C 276.829761 50.358102 276.184527 51.915835 276.184527 53.539866 
C 276.184527 55.163896 276.829761 56.72163 277.978125 57.869993 
C 279.126488 59.018356 280.684221 59.66359 282.308252 59.66359 
z
" style="fill:#999999;stroke:#999999;"/>
    <path clip-path="url(#pd818396d6f)" d="M 301.024431 414.502109 
C 302.648462 414.502109 304.206195 413.856875 305.354558 412.708512 
C 306.502922 411.560149 307.148156 410.002415 307.148156 408.378385 
C 307.148156 406.754354 306.502922 405.196621 305.354558 404.048258 
C 304.206195 402.899895 302.648462 402.25466 301.024431 402.25466 
C 299.400401 402.25466 297.842668 402.899895 296.694304 404.048258 
C 295.545941 405.196621 294.900707 406.754354 294.900707 408.378385 
C 294.900707 410.002415 295.545941 411.560149 296.694304 412.708512 
C 297.842668 413.856875 299.400401 414.502109 301.024431 414.502109 
z
" style="fill:#e69f00;stroke:#e69f00;"/>
    <path clip-path="url(#pd818396d6f)" d="M 264.5768 598.930969 
C 266.200831 598.930969 267.758564 598.285734 268.906928 597.137371 
C 270.055291 595.989008 270.700525 594.431275 270.700525 592.807244 
C 270.700525 591.183214 270.055291 589.62548 268.906928 588.477117 
C 267.758564 587.328754 266.200831 586.68352 264.5768 586.68352 
C 262.95277 586.68352 261.395037 587.328754 260.246673 588.477117 
C 259.09831 589.62548 258.453076 591.183214 258.453076 592.807244 
C 258.453076 594.431275 259.09831 595.989008 260.246673 597.137371 
C 261.395037 598.285734 262.95277 598.930969 264.5768 598.930969 
z
" style="fill:#56b4e9;stroke:#56b4e9;"/>
    <path clip-path="url(#pd818396d6f)" d="M 273.724228 211.545358 
C 276.376259 211.545358 278.920026 210.491695 280.795295 208.616426 
C 282.670565 206.741157 283.724228 204.197389 283.724228 201.545358 
C 283.724228 198.893327 282.670565 196.349559 280.795295 194.47429 
C 278.920026 192.599021 276.376259 191.545358 273.724228 191.545358 
C 271.072197 191.545358 268.528429 192.599021 266.65316 194.47429 
C 264.777891 196.349559 263.724228 198.893327 263.724228 201.545358 
C 263.724228 204.197389 264.777891 206.741157 266.65316 208.616426 
C 268.528429 210.491695 271.072197 211.545358 273.724228 211.545358 
z
" style="fill:#009e73;stroke:#009e73;"/>
    <path clip-path="url(#pd818396d6f)" d="M 303.740607 158.753252 
C 305.837221 158.753252 307.848246 157.920258 309.330777 156.437728 
C 310.813307 154.955197 311.646301 152.944172 311.646301 150.847558 
C 311.646301 148.750943 310.813307 146.739918 309.330777 145.257388 
C 307.848246 143.774857 305.837221 142.941864 303.740607 142.941864 
C 301.643992 142.941864 299.632967 143.774857 298.150437 145.257388 
C 296.667906 146.739918 295.834913 148.750943 295.834913 150.847558 
C 295.834913 152.944172 296.667906 154.955197 298.150437 156.437728 
C 299.632967 157.920258 301.643992 158.753252 303.740607 158.753252 
z
" style="fill:#f0e442;stroke:#f0e442;"/>
    <path clip-path="url(#pd818396d6f)" d="M 297.570407 241.229454 
C 298.896422 241.229454 300.168306 240.702622 301.105941 239.764988 
C 302.043575 238.827353 302.570407 237.555469 302.570407 236.229454 
C 302.570407 234.903438 302.043575 233.631554 301.105941 232.69392 
C 300.168306 231.756285 298.896422 231.229454 297.570407 231.229454 
C 296.244391 231.229454 294.972508 231.756285 294.034873 232.69392 
C 293.097239 233.631554 292.570407 234.903438 292.570407 236.229454 
C 292.570407 237.555469 293.097239 238.827353 294.034873 239.764988 
C 294.972508 240.702622 296.244391 241.229454 297.570407 241.229454 
z
" style="fill:#d55e00;stroke:#d55e00;"/>
    <path clip-path="url(#pd818396d6f)" d="M 292.420128 185.131243 
C 293.746143 185.131243 295.018027 184.604411 295.955662 183.666777 
C 296.893296 182.729142 297.420128 181.457258 297.420128 180.131243 
C 297.420128 178.805227 296.893296 177.533344 295.955662 176.595709 
C 295.018027 175.658075 293.746143 175.131243 292.420128 175.131243 
C 291.094112 175.131243 289.822229 175.658075 288.884594 176.595709 
C 287.94696 177.533344 287.420128 178.805227 287.420128 180.131243 
C 287.420128 181.457258 287.94696 182.729142 288.884594 183.666777 
C 289.822229 184.604411 291.094112 185.131243 292.420128 185.131243 
z
" style="fill:#cc79a7;stroke:#cc79a7;"/>
    <path clip-path="url(#pd818396d6f)" d="M 298.386016 275.538288 
C 299.712031 275.538288 300.983915 275.011456 301.92155 274.073822 
C 302.859184 273.136187 303.386016 271.864303 303.386016 270.538288 
C 303.386016 269.212272 302.859184 267.940388 301.92155 267.002754 
C 300.983915 266.065119 299.712031 265.538288 298.386016 265.538288 
C 297.06 265.538288 295.788116 266.065119 294.850482 267.002754 
C 293.912847 267.940388 293.386016 269.212272 293.386016 270.538288 
C 293.386016 271.864303 293.912847 273.136187 294.850482 274.073822 
C 295.788116 275.011456 297.06 275.538288 298.386016 275.538288 
z
" style="fill:#abd9e9;stroke:#abd9e9;"/>
   </g>
   <g id="matplotlib.axis_1">
    <g id="xtick_1">
     <g id="line2d_1">
      <defs>
       <path d="M 0 0 
L 0 3.5 
" id="mbfea95d15e" style="stroke:#000000;stroke-width:0.8;"/>
      </defs>
      <g>
       <use style="stroke:#000000;stroke-width:0.8;" x="274.480469" xlink:href="#mbfea95d15e" y="620.521875"/>
      </g>
     </g>
     <g id="text_1">
      <!-- MeanPD -->
      <g transform="translate(253.992188 635.120312)scale(0.1 -0.1)">
       <defs>
        <path d="M 9.8125 72.90625 
L 24.515625 72.90625 
L 43.109375 23.296875 
L 61.8125 72.90625 
L 76.515625 72.90625 
L 76.515625 0 
L 66.890625 0 
L 66.890625 64.015625 
L 48.09375 14.015625 
L 38.1875 14.015625 
L 19.390625 64.015625 
L 19.390625 0 
L 9.8125 0 
z
" id="DejaVuSans-77"/>
        <path d="M 56.203125 29.59375 
L 56.203125 25.203125 
L 14.890625 25.203125 
Q 15.484375 15.921875 20.484375 11.0625 
Q 25.484375 6.203125 34.421875 6.203125 
Q 39.59375 6.203125 44.453125 7.46875 
Q 49.3125 8.734375 54.109375 11.28125 
L 54.109375 2.78125 
Q 49.265625 0.734375 44.1875 -0.34375 
Q 39.109375 -1.421875 33.890625 -1.421875 
Q 20.796875 -1.421875 13.15625 6.1875 
Q 5.515625 13.8125 5.515625 26.8125 
Q 5.515625 40.234375 12.765625 48.109375 
Q 20.015625 56 32.328125 56 
Q 43.359375 56 49.78125 48.890625 
Q 56.203125 41.796875 56.203125 29.59375 
z
M 47.21875 32.234375 
Q 47.125 39.59375 43.09375 43.984375 
Q 39.0625 48.390625 32.421875 48.390625 
Q 24.90625 48.390625 20.390625 44.140625 
Q 15.875 39.890625 15.1875 32.171875 
z
" id="DejaVuSans-101"/>
        <path d="M 34.28125 27.484375 
Q 23.390625 27.484375 19.1875 25 
Q 14.984375 22.515625 14.984375 16.5 
Q 14.984375 11.71875 18.140625 8.90625 
Q 21.296875 6.109375 26.703125 6.109375 
Q 34.1875 6.109375 38.703125 11.40625 
Q 43.21875 16.703125 43.21875 25.484375 
L 43.21875 27.484375 
z
M 52.203125 31.203125 
L 52.203125 0 
L 43.21875 0 
L 43.21875 8.296875 
Q 40.140625 3.328125 35.546875 0.953125 
Q 30.953125 -1.421875 24.3125 -1.421875 
Q 15.921875 -1.421875 10.953125 3.296875 
Q 6 8.015625 6 15.921875 
Q 6 25.140625 12.171875 29.828125 
Q 18.359375 34.515625 30.609375 34.515625 
L 43.21875 34.515625 
L 43.21875 35.40625 
Q 43.21875 41.609375 39.140625 45 
Q 35.0625 48.390625 27.6875 48.390625 
Q 23 48.390625 18.546875 47.265625 
Q 14.109375 46.140625 10.015625 43.890625 
L 10.015625 52.203125 
Q 14.9375 54.109375 19.578125 55.046875 
Q 24.21875 56 28.609375 56 
Q 40.484375 56 46.34375 49.84375 
Q 52.203125 43.703125 52.203125 31.203125 
z
" id="DejaVuSans-97"/>
        <path d="M 54.890625 33.015625 
L 54.890625 0 
L 45.90625 0 
L 45.90625 32.71875 
Q 45.90625 40.484375 42.875 44.328125 
Q 39.84375 48.1875 33.796875 48.1875 
Q 26.515625 48.1875 22.3125 43.546875 
Q 18.109375 38.921875 18.109375 30.90625 
L 18.109375 0 
L 9.078125 0 
L 9.078125 54.6875 
L 18.109375 54.6875 
L 18.109375 46.1875 
Q 21.34375 51.125 25.703125 53.5625 
Q 30.078125 56 35.796875 56 
Q 45.21875 56 50.046875 50.171875 
Q 54.890625 44.34375 54.890625 33.015625 
z
" id="DejaVuSans-110"/>
        <path d="M 19.671875 64.796875 
L 19.671875 37.40625 
L 32.078125 37.40625 
Q 38.96875 37.40625 42.71875 40.96875 
Q 46.484375 44.53125 46.484375 51.125 
Q 46.484375 57.671875 42.71875 61.234375 
Q 38.96875 64.796875 32.078125 64.796875 
z
M 9.8125 72.90625 
L 32.078125 72.90625 
Q 44.34375 72.90625 50.609375 67.359375 
Q 56.890625 61.8125 56.890625 51.125 
Q 56.890625 40.328125 50.609375 34.8125 
Q 44.34375 29.296875 32.078125 29.296875 
L 19.671875 29.296875 
L 19.671875 0 
L 9.8125 0 
z
" id="DejaVuSans-80"/>
        <path d="M 19.671875 64.796875 
L 19.671875 8.109375 
L 31.59375 8.109375 
Q 46.6875 8.109375 53.6875 14.9375 
Q 60.6875 21.78125 60.6875 36.53125 
Q 60.6875 51.171875 53.6875 57.984375 
Q 46.6875 64.796875 31.59375 64.796875 
z
M 9.8125 72.90625 
L 30.078125 72.90625 
Q 51.265625 72.90625 61.171875 64.09375 
Q 71.09375 55.28125 71.09375 36.53125 
Q 71.09375 17.671875 61.125 8.828125 
Q 51.171875 0 30.078125 0 
L 9.8125 0 
z
" id="DejaVuSans-68"/>
       </defs>
       <use xlink:href="#DejaVuSans-77"/>
       <use x="86.279297" xlink:href="#DejaVuSans-101"/>
       <use x="147.802734" xlink:href="#DejaVuSans-97"/>
       <use x="209.082031" xlink:href="#DejaVuSans-110"/>
       <use x="272.460938" xlink:href="#DejaVuSans-80"/>
       <use x="332.763672" xlink:href="#DejaVuSans-68"/>
      </g>
     </g>
    </g>
   </g>
   <g id="matplotlib.axis_2">
    <g id="ytick_1">
     <g id="line2d_2">
      <defs>
       <path d="M 0 0 
L -3.5 0 
" id="m28c209ac83" style="stroke:#000000;stroke-width:0.8;"/>
      </defs>
      <g>
       <use style="stroke:#000000;stroke-width:0.8;" x="55.760938" xlink:href="#m28c209ac83" y="541.410478"/>
      </g>
     </g>
     <g id="text_2">
      <!-- −2.0 -->
      <g transform="translate(24.478125 545.209697)scale(0.1 -0.1)">
       <defs>
        <path d="M 10.59375 35.5 
L 73.1875 35.5 
L 73.1875 27.203125 
L 10.59375 27.203125 
z
" id="DejaVuSans-8722"/>
        <path d="M 19.1875 8.296875 
L 53.609375 8.296875 
L 53.609375 0 
L 7.328125 0 
L 7.328125 8.296875 
Q 12.9375 14.109375 22.625 23.890625 
Q 32.328125 33.6875 34.8125 36.53125 
Q 39.546875 41.84375 41.421875 45.53125 
Q 43.3125 49.21875 43.3125 52.78125 
Q 43.3125 58.59375 39.234375 62.25 
Q 35.15625 65.921875 28.609375 65.921875 
Q 23.96875 65.921875 18.8125 64.3125 
Q 13.671875 62.703125 7.8125 59.421875 
L 7.8125 69.390625 
Q 13.765625 71.78125 18.9375 73 
Q 24.125 74.21875 28.421875 74.21875 
Q 39.75 74.21875 46.484375 68.546875 
Q 53.21875 62.890625 53.21875 53.421875 
Q 53.21875 48.921875 51.53125 44.890625 
Q 49.859375 40.875 45.40625 35.40625 
Q 44.1875 33.984375 37.640625 27.21875 
Q 31.109375 20.453125 19.1875 8.296875 
z
" id="DejaVuSans-50"/>
        <path d="M 10.6875 12.40625 
L 21 12.40625 
L 21 0 
L 10.6875 0 
z
" id="DejaVuSans-46"/>
        <path d="M 31.78125 66.40625 
Q 24.171875 66.40625 20.328125 58.90625 
Q 16.5 51.421875 16.5 36.375 
Q 16.5 21.390625 20.328125 13.890625 
Q 24.171875 6.390625 31.78125 6.390625 
Q 39.453125 6.390625 43.28125 13.890625 
Q 47.125 21.390625 47.125 36.375 
Q 47.125 51.421875 43.28125 58.90625 
Q 39.453125 66.40625 31.78125 66.40625 
z
M 31.78125 74.21875 
Q 44.046875 74.21875 50.515625 64.515625 
Q 56.984375 54.828125 56.984375 36.375 
Q 56.984375 17.96875 50.515625 8.265625 
Q 44.046875 -1.421875 31.78125 -1.421875 
Q 19.53125 -1.421875 13.0625 8.265625 
Q 6.59375 17.96875 6.59375 36.375 
Q 6.59375 54.828125 13.0625 64.515625 
Q 19.53125 74.21875 31.78125 74.21875 
z
" id="DejaVuSans-48"/>
       </defs>
       <use xlink:href="#DejaVuSans-8722"/>
       <use x="83.789062" xlink:href="#DejaVuSans-50"/>
       <use x="147.412109" xlink:href="#DejaVuSans-46"/>
       <use x="179.199219" xlink:href="#DejaVuSans-48"/>
      </g>
     </g>
    </g>
    <g id="ytick_2">
     <g id="line2d_3">
      <g>
       <use style="stroke:#000000;stroke-width:0.8;" x="55.760938" xlink:href="#m28c209ac83" y="407.139"/>
      </g>
     </g>
     <g id="text_3">
      <!-- −1.5 -->
      <g transform="translate(24.478125 410.938219)scale(0.1 -0.1)">
       <defs>
        <path d="M 12.40625 8.296875 
L 28.515625 8.296875 
L 28.515625 63.921875 
L 10.984375 60.40625 
L 10.984375 69.390625 
L 28.421875 72.90625 
L 38.28125 72.90625 
L 38.28125 8.296875 
L 54.390625 8.296875 
L 54.390625 0 
L 12.40625 0 
z
" id="DejaVuSans-49"/>
        <path d="M 10.796875 72.90625 
L 49.515625 72.90625 
L 49.515625 64.59375 
L 19.828125 64.59375 
L 19.828125 46.734375 
Q 21.96875 47.46875 24.109375 47.828125 
Q 26.265625 48.1875 28.421875 48.1875 
Q 40.625 48.1875 47.75 41.5 
Q 54.890625 34.8125 54.890625 23.390625 
Q 54.890625 11.625 47.5625 5.09375 
Q 40.234375 -1.421875 26.90625 -1.421875 
Q 22.3125 -1.421875 17.546875 -0.640625 
Q 12.796875 0.140625 7.71875 1.703125 
L 7.71875 11.625 
Q 12.109375 9.234375 16.796875 8.0625 
Q 21.484375 6.890625 26.703125 6.890625 
Q 35.15625 6.890625 40.078125 11.328125 
Q 45.015625 15.765625 45.015625 23.390625 
Q 45.015625 31 40.078125 35.4375 
Q 35.15625 39.890625 26.703125 39.890625 
Q 22.75 39.890625 18.8125 39.015625 
Q 14.890625 38.140625 10.796875 36.28125 
z
" id="DejaVuSans-53"/>
       </defs>
       <use xlink:href="#DejaVuSans-8722"/>
       <use x="83.789062" xlink:href="#DejaVuSans-49"/>
       <use x="147.412109" xlink:href="#DejaVuSans-46"/>
       <use x="179.199219" xlink:href="#DejaVuSans-53"/>
      </g>
     </g>
    </g>
    <g id="ytick_3">
     <g id="line2d_4">
      <g>
       <use style="stroke:#000000;stroke-width:0.8;" x="55.760938" xlink:href="#m28c209ac83" y="272.867521"/>
      </g>
     </g>
     <g id="text_4">
      <!-- −1.0 -->
      <g transform="translate(24.478125 276.66674)scale(0.1 -0.1)">
       <use xlink:href="#DejaVuSans-8722"/>
       <use x="83.789062" xlink:href="#DejaVuSans-49"/>
       <use x="147.412109" xlink:href="#DejaVuSans-46"/>
       <use x="179.199219" xlink:href="#DejaVuSans-48"/>
      </g>
     </g>
    </g>
    <g id="ytick_4">
     <g id="line2d_5">
      <g>
       <use style="stroke:#000000;stroke-width:0.8;" x="55.760938" xlink:href="#m28c209ac83" y="138.596043"/>
      </g>
     </g>
     <g id="text_5">
      <!-- −0.5 -->
      <g transform="translate(24.478125 142.395261)scale(0.1 -0.1)">
       <use xlink:href="#DejaVuSans-8722"/>
       <use x="83.789062" xlink:href="#DejaVuSans-48"/>
       <use x="147.412109" xlink:href="#DejaVuSans-46"/>
       <use x="179.199219" xlink:href="#DejaVuSans-53"/>
      </g>
     </g>
    </g>
    <g id="text_6">
     <!-- LogOdds -->
     <g transform="translate(18.398438 337.482031)rotate(-90)scale(0.1 -0.1)">
      <defs>
       <path d="M 9.8125 72.90625 
L 19.671875 72.90625 
L 19.671875 8.296875 
L 55.171875 8.296875 
L 55.171875 0 
L 9.8125 0 
z
" id="DejaVuSans-76"/>
       <path d="M 30.609375 48.390625 
Q 23.390625 48.390625 19.1875 42.75 
Q 14.984375 37.109375 14.984375 27.296875 
Q 14.984375 17.484375 19.15625 11.84375 
Q 23.34375 6.203125 30.609375 6.203125 
Q 37.796875 6.203125 41.984375 11.859375 
Q 46.1875 17.53125 46.1875 27.296875 
Q 46.1875 37.015625 41.984375 42.703125 
Q 37.796875 48.390625 30.609375 48.390625 
z
M 30.609375 56 
Q 42.328125 56 49.015625 48.375 
Q 55.71875 40.765625 55.71875 27.296875 
Q 55.71875 13.875 49.015625 6.21875 
Q 42.328125 -1.421875 30.609375 -1.421875 
Q 18.84375 -1.421875 12.171875 6.21875 
Q 5.515625 13.875 5.515625 27.296875 
Q 5.515625 40.765625 12.171875 48.375 
Q 18.84375 56 30.609375 56 
z
" id="DejaVuSans-111"/>
       <path d="M 45.40625 27.984375 
Q 45.40625 37.75 41.375 43.109375 
Q 37.359375 48.484375 30.078125 48.484375 
Q 22.859375 48.484375 18.828125 43.109375 
Q 14.796875 37.75 14.796875 27.984375 
Q 14.796875 18.265625 18.828125 12.890625 
Q 22.859375 7.515625 30.078125 7.515625 
Q 37.359375 7.515625 41.375 12.890625 
Q 45.40625 18.265625 45.40625 27.984375 
z
M 54.390625 6.78125 
Q 54.390625 -7.171875 48.1875 -13.984375 
Q 42 -20.796875 29.203125 -20.796875 
Q 24.46875 -20.796875 20.265625 -20.09375 
Q 16.0625 -19.390625 12.109375 -17.921875 
L 12.109375 -9.1875 
Q 16.0625 -11.328125 19.921875 -12.34375 
Q 23.78125 -13.375 27.78125 -13.375 
Q 36.625 -13.375 41.015625 -8.765625 
Q 45.40625 -4.15625 45.40625 5.171875 
L 45.40625 9.625 
Q 42.625 4.78125 38.28125 2.390625 
Q 33.9375 0 27.875 0 
Q 17.828125 0 11.671875 7.65625 
Q 5.515625 15.328125 5.515625 27.984375 
Q 5.515625 40.671875 11.671875 48.328125 
Q 17.828125 56 27.875 56 
Q 33.9375 56 38.28125 53.609375 
Q 42.625 51.21875 45.40625 46.390625 
L 45.40625 54.6875 
L 54.390625 54.6875 
z
" id="DejaVuSans-103"/>
       <path d="M 39.40625 66.21875 
Q 28.65625 66.21875 22.328125 58.203125 
Q 16.015625 50.203125 16.015625 36.375 
Q 16.015625 22.609375 22.328125 14.59375 
Q 28.65625 6.59375 39.40625 6.59375 
Q 50.140625 6.59375 56.421875 14.59375 
Q 62.703125 22.609375 62.703125 36.375 
Q 62.703125 50.203125 56.421875 58.203125 
Q 50.140625 66.21875 39.40625 66.21875 
z
M 39.40625 74.21875 
Q 54.734375 74.21875 63.90625 63.9375 
Q 73.09375 53.65625 73.09375 36.375 
Q 73.09375 19.140625 63.90625 8.859375 
Q 54.734375 -1.421875 39.40625 -1.421875 
Q 24.03125 -1.421875 14.8125 8.828125 
Q 5.609375 19.09375 5.609375 36.375 
Q 5.609375 53.65625 14.8125 63.9375 
Q 24.03125 74.21875 39.40625 74.21875 
z
" id="DejaVuSans-79"/>
       <path d="M 45.40625 46.390625 
L 45.40625 75.984375 
L 54.390625 75.984375 
L 54.390625 0 
L 45.40625 0 
L 45.40625 8.203125 
Q 42.578125 3.328125 38.25 0.953125 
Q 33.9375 -1.421875 27.875 -1.421875 
Q 17.96875 -1.421875 11.734375 6.484375 
Q 5.515625 14.40625 5.515625 27.296875 
Q 5.515625 40.1875 11.734375 48.09375 
Q 17.96875 56 27.875 56 
Q 33.9375 56 38.25 53.625 
Q 42.578125 51.265625 45.40625 46.390625 
z
M 14.796875 27.296875 
Q 14.796875 17.390625 18.875 11.75 
Q 22.953125 6.109375 30.078125 6.109375 
Q 37.203125 6.109375 41.296875 11.75 
Q 45.40625 17.390625 45.40625 27.296875 
Q 45.40625 37.203125 41.296875 42.84375 
Q 37.203125 48.484375 30.078125 48.484375 
Q 22.953125 48.484375 18.875 42.84375 
Q 14.796875 37.203125 14.796875 27.296875 
z
" id="DejaVuSans-100"/>
       <path d="M 44.28125 53.078125 
L 44.28125 44.578125 
Q 40.484375 46.53125 36.375 47.5 
Q 32.28125 48.484375 27.875 48.484375 
Q 21.1875 48.484375 17.84375 46.4375 
Q 14.5 44.390625 14.5 40.28125 
Q 14.5 37.15625 16.890625 35.375 
Q 19.28125 33.59375 26.515625 31.984375 
L 29.59375 31.296875 
Q 39.15625 29.25 43.1875 25.515625 
Q 47.21875 21.78125 47.21875 15.09375 
Q 47.21875 7.46875 41.1875 3.015625 
Q 35.15625 -1.421875 24.609375 -1.421875 
Q 20.21875 -1.421875 15.453125 -0.5625 
Q 10.6875 0.296875 5.421875 2 
L 5.421875 11.28125 
Q 10.40625 8.6875 15.234375 7.390625 
Q 20.0625 6.109375 24.8125 6.109375 
Q 31.15625 6.109375 34.5625 8.28125 
Q 37.984375 10.453125 37.984375 14.40625 
Q 37.984375 18.0625 35.515625 20.015625 
Q 33.0625 21.96875 24.703125 23.78125 
L 21.578125 24.515625 
Q 13.234375 26.265625 9.515625 29.90625 
Q 5.8125 33.546875 5.8125 39.890625 
Q 5.8125 47.609375 11.28125 51.796875 
Q 16.75 56 26.8125 56 
Q 31.78125 56 36.171875 55.265625 
Q 40.578125 54.546875 44.28125 53.078125 
z
" id="DejaVuSans-115"/>
      </defs>
      <use xlink:href="#DejaVuSans-76"/>
      <use x="53.962891" xlink:href="#DejaVuSans-111"/>
      <use x="115.144531" xlink:href="#DejaVuSans-103"/>
      <use x="178.621094" xlink:href="#DejaVuSans-79"/>
      <use x="257.332031" xlink:href="#DejaVuSans-100"/>
      <use x="320.808594" xlink:href="#DejaVuSans-100"/>
      <use x="384.285156" xlink:href="#DejaVuSans-115"/>
     </g>
    </g>
   </g>
   <g id="line2d_6">
    <path clip-path="url(#pd818396d6f)" d="M 241.672539 261.961079 
L 307.288398 261.961079 
L 307.288398 143.495022 
L 241.672539 143.495022 
L 241.672539 261.961079 
" style="fill:none;stroke:#000000;stroke-linecap:square;"/>
   </g>
   <g id="line2d_7">
    <path clip-path="url(#pd818396d6f)" d="M 274.480469 261.961079 
L 274.480469 424.133625 
" style="fill:none;stroke:#000000;stroke-linecap:square;"/>
   </g>
   <g id="line2d_8">
    <path clip-path="url(#pd818396d6f)" d="M 274.480469 143.495022 
L 274.480469 38.514631 
" style="fill:none;stroke:#000000;stroke-linecap:square;"/>
   </g>
   <g id="line2d_9">
    <path clip-path="url(#pd818396d6f)" d="M 258.076504 424.133625 
L 290.884434 424.133625 
" style="fill:none;stroke:#000000;stroke-linecap:square;"/>
   </g>
   <g id="line2d_10">
    <path clip-path="url(#pd818396d6f)" d="M 258.076504 38.514631 
L 290.884434 38.514631 
" style="fill:none;stroke:#000000;stroke-linecap:square;"/>
   </g>
   <g id="line2d_11">
    <path clip-path="url(#pd818396d6f)" d="M 241.672539 193.181891 
L 307.288398 193.181891 
" style="fill:none;stroke:#ff7f0e;stroke-linecap:square;"/>
   </g>
   <g id="patch_3">
    <path d="M 55.760938 620.521875 
L 55.760938 10.8 
" style="fill:none;stroke:#000000;stroke-linecap:square;stroke-linejoin:miter;stroke-width:0.8;"/>
   </g>
   <g id="patch_4">
    <path d="M 493.2 620.521875 
L 493.2 10.8 
" style="fill:none;stroke:#000000;stroke-linecap:square;stroke-linejoin:miter;stroke-width:0.8;"/>
   </g>
   <g id="patch_5">
    <path d="M 55.760938 620.521875 
L 493.2 620.521875 
" style="fill:none;stroke:#000000;stroke-linecap:square;stroke-linejoin:miter;stroke-width:0.8;"/>
   </g>
   <g id="patch_6">
    <path d="M 55.760938 10.8 
L 493.2 10.8 
" style="fill:none;stroke:#000000;stroke-linecap:square;stroke-linejoin:miter;stroke-width:0.8;"/>
   </g>
   <g id="text_7">
    <!-- 0.0 -->
    <g style="fill:#999999;" transform="translate(267.151604 349.148416)scale(0.1 -0.1)">
     <use xlink:href="#DejaVuSans-48"/>
     <use x="63.623047" xlink:href="#DejaVuSans-46"/>
     <use x="95.410156" xlink:href="#DejaVuSans-48"/>
    </g>
   </g>
   <g id="text_8">
    <!-- 1.0 -->
    <g style="fill:#e69f00;" transform="translate(289.295959 106.710489)scale(0.1 -0.1)">
     <use xlink:href="#DejaVuSans-49"/>
     <use x="63.623047" xlink:href="#DejaVuSans-46"/>
     <use x="95.410156" xlink:href="#DejaVuSans-48"/>
    </g>
   </g>
   <g id="text_9">
    <!-- 2.0 -->
    <g style="fill:#56b4e9;" transform="translate(251.187005 204.021123)scale(0.1 -0.1)">
     <use xlink:href="#DejaVuSans-50"/>
     <use x="63.623047" xlink:href="#DejaVuSans-46"/>
     <use x="95.410156" xlink:href="#DejaVuSans-48"/>
    </g>
   </g>
   <g id="text_10">
    <!-- 3.0 -->
    <g style="fill:#009e73;" transform="translate(308.066082 421.448195)scale(0.1 -0.1)">
     <defs>
      <path d="M 40.578125 39.3125 
Q 47.65625 37.796875 51.625 33 
Q 55.609375 28.21875 55.609375 21.1875 
Q 55.609375 10.40625 48.1875 4.484375 
Q 40.765625 -1.421875 27.09375 -1.421875 
Q 22.515625 -1.421875 17.65625 -0.515625 
Q 12.796875 0.390625 7.625 2.203125 
L 7.625 11.71875 
Q 11.71875 9.328125 16.59375 8.109375 
Q 21.484375 6.890625 26.8125 6.890625 
Q 36.078125 6.890625 40.9375 10.546875 
Q 45.796875 14.203125 45.796875 21.1875 
Q 45.796875 27.640625 41.28125 31.265625 
Q 36.765625 34.90625 28.71875 34.90625 
L 20.21875 34.90625 
L 20.21875 43.015625 
L 29.109375 43.015625 
Q 36.375 43.015625 40.234375 45.921875 
Q 44.09375 48.828125 44.09375 54.296875 
Q 44.09375 59.90625 40.109375 62.90625 
Q 36.140625 65.921875 28.71875 65.921875 
Q 24.65625 65.921875 20.015625 65.03125 
Q 15.375 64.15625 9.8125 62.3125 
L 9.8125 71.09375 
Q 15.4375 72.65625 20.34375 73.4375 
Q 25.25 74.21875 29.59375 74.21875 
Q 40.828125 74.21875 47.359375 69.109375 
Q 53.90625 64.015625 53.90625 55.328125 
Q 53.90625 49.265625 50.4375 45.09375 
Q 46.96875 40.921875 40.578125 39.3125 
z
" id="DejaVuSans-51"/>
     </defs>
     <use xlink:href="#DejaVuSans-51"/>
     <use x="63.623047" xlink:href="#DejaVuSans-46"/>
     <use x="95.410156" xlink:href="#DejaVuSans-48"/>
    </g>
   </g>
   <g id="text_11">
    <!-- 4 -->
    <g style="fill:#f0e442;" transform="translate(283.437752 182.132994)scale(0.1 -0.1)">
     <defs>
      <path d="M 37.796875 64.3125 
L 12.890625 25.390625 
L 37.796875 25.390625 
z
M 35.203125 72.90625 
L 47.609375 72.90625 
L 47.609375 25.390625 
L 58.015625 25.390625 
L 58.015625 17.1875 
L 47.609375 17.1875 
L 47.609375 0 
L 37.796875 0 
L 37.796875 17.1875 
L 4.890625 17.1875 
L 4.890625 26.703125 
z
" id="DejaVuSans-52"/>
     </defs>
     <use xlink:href="#DejaVuSans-52"/>
    </g>
   </g>
   <g id="text_12">
    <!-- 5 -->
    <g style="fill:#0072b2;" transform="translate(277.634456 117.653162)scale(0.1 -0.1)">
     <use xlink:href="#DejaVuSans-53"/>
    </g>
   </g>
   <g id="text_13">
    <!-- 6 -->
    <g style="fill:#d55e00;" transform="translate(286.626379 204.404005)scale(0.1 -0.1)">
     <defs>
      <path d="M 33.015625 40.375 
Q 26.375 40.375 22.484375 35.828125 
Q 18.609375 31.296875 18.609375 23.390625 
Q 18.609375 15.53125 22.484375 10.953125 
Q 26.375 6.390625 33.015625 6.390625 
Q 39.65625 6.390625 43.53125 10.953125 
Q 47.40625 15.53125 47.40625 23.390625 
Q 47.40625 31.296875 43.53125 35.828125 
Q 39.65625 40.375 33.015625 40.375 
z
M 52.59375 71.296875 
L 52.59375 62.3125 
Q 48.875 64.0625 45.09375 64.984375 
Q 41.3125 65.921875 37.59375 65.921875 
Q 27.828125 65.921875 22.671875 59.328125 
Q 17.53125 52.734375 16.796875 39.40625 
Q 19.671875 43.65625 24.015625 45.921875 
Q 28.375 48.1875 33.59375 48.1875 
Q 44.578125 48.1875 50.953125 41.515625 
Q 57.328125 34.859375 57.328125 23.390625 
Q 57.328125 12.15625 50.6875 5.359375 
Q 44.046875 -1.421875 33.015625 -1.421875 
Q 20.359375 -1.421875 13.671875 8.265625 
Q 6.984375 17.96875 6.984375 36.375 
Q 6.984375 53.65625 15.1875 63.9375 
Q 23.390625 74.21875 37.203125 74.21875 
Q 40.921875 74.21875 44.703125 73.484375 
Q 48.484375 72.75 52.59375 71.296875 
z
" id="DejaVuSans-54"/>
     </defs>
     <use xlink:href="#DejaVuSans-54"/>
    </g>
   </g>
   <g id="text_14">
    <!-- 7.0 -->
    <g style="fill:#cc79a7;" transform="translate(283.690159 157.628499)scale(0.1 -0.1)">
     <defs>
      <path d="M 8.203125 72.90625 
L 55.078125 72.90625 
L 55.078125 68.703125 
L 28.609375 0 
L 18.3125 0 
L 43.21875 64.59375 
L 8.203125 64.59375 
z
" id="DejaVuSans-55"/>
     </defs>
     <use xlink:href="#DejaVuSans-55"/>
     <use x="63.623047" xlink:href="#DejaVuSans-46"/>
     <use x="95.410156" xlink:href="#DejaVuSans-48"/>
    </g>
   </g>
   <g id="text_15">
    <!-- 8.0 -->
    <g style="fill:#f46d43;" transform="translate(237.673511 35.829201)scale(0.1 -0.1)">
     <defs>
      <path d="M 31.78125 34.625 
Q 24.75 34.625 20.71875 30.859375 
Q 16.703125 27.09375 16.703125 20.515625 
Q 16.703125 13.921875 20.71875 10.15625 
Q 24.75 6.390625 31.78125 6.390625 
Q 38.8125 6.390625 42.859375 10.171875 
Q 46.921875 13.96875 46.921875 20.515625 
Q 46.921875 27.09375 42.890625 30.859375 
Q 38.875 34.625 31.78125 34.625 
z
M 21.921875 38.8125 
Q 15.578125 40.375 12.03125 44.71875 
Q 8.5 49.078125 8.5 55.328125 
Q 8.5 64.0625 14.71875 69.140625 
Q 20.953125 74.21875 31.78125 74.21875 
Q 42.671875 74.21875 48.875 69.140625 
Q 55.078125 64.0625 55.078125 55.328125 
Q 55.078125 49.078125 51.53125 44.71875 
Q 48 40.375 41.703125 38.8125 
Q 48.828125 37.15625 52.796875 32.3125 
Q 56.78125 27.484375 56.78125 20.515625 
Q 56.78125 9.90625 50.3125 4.234375 
Q 43.84375 -1.421875 31.78125 -1.421875 
Q 19.734375 -1.421875 13.25 4.234375 
Q 6.78125 9.90625 6.78125 20.515625 
Q 6.78125 27.484375 10.78125 32.3125 
Q 14.796875 37.15625 21.921875 38.8125 
z
M 18.3125 54.390625 
Q 18.3125 48.734375 21.84375 45.5625 
Q 25.390625 42.390625 31.78125 42.390625 
Q 38.140625 42.390625 41.71875 45.5625 
Q 45.3125 48.734375 45.3125 54.390625 
Q 45.3125 60.0625 41.71875 63.234375 
Q 38.140625 66.40625 31.78125 66.40625 
Q 25.390625 66.40625 21.84375 63.234375 
Q 18.3125 60.0625 18.3125 54.390625 
z
" id="DejaVuSans-56"/>
     </defs>
     <use xlink:href="#DejaVuSans-56"/>
     <use x="63.623047" xlink:href="#DejaVuSans-46"/>
     <use x="95.410156" xlink:href="#DejaVuSans-48"/>
    </g>
   </g>
   <g id="text_16">
    <!-- 9.0 -->
    <g style="fill:#abd9e9;" transform="translate(299.625891 138.358748)scale(0.1 -0.1)">
     <defs>
      <path d="M 10.984375 1.515625 
L 10.984375 10.5 
Q 14.703125 8.734375 18.5 7.8125 
Q 22.3125 6.890625 25.984375 6.890625 
Q 35.75 6.890625 40.890625 13.453125 
Q 46.046875 20.015625 46.78125 33.40625 
Q 43.953125 29.203125 39.59375 26.953125 
Q 35.25 24.703125 29.984375 24.703125 
Q 19.046875 24.703125 12.671875 31.3125 
Q 6.296875 37.9375 6.296875 49.421875 
Q 6.296875 60.640625 12.9375 67.421875 
Q 19.578125 74.21875 30.609375 74.21875 
Q 43.265625 74.21875 49.921875 64.515625 
Q 56.59375 54.828125 56.59375 36.375 
Q 56.59375 19.140625 48.40625 8.859375 
Q 40.234375 -1.421875 26.421875 -1.421875 
Q 22.703125 -1.421875 18.890625 -0.6875 
Q 15.09375 0.046875 10.984375 1.515625 
z
M 30.609375 32.421875 
Q 37.25 32.421875 41.125 36.953125 
Q 45.015625 41.5 45.015625 49.421875 
Q 45.015625 57.28125 41.125 61.84375 
Q 37.25 66.40625 30.609375 66.40625 
Q 23.96875 66.40625 20.09375 61.84375 
Q 16.21875 57.28125 16.21875 49.421875 
Q 16.21875 41.5 20.09375 36.953125 
Q 23.96875 32.421875 30.609375 32.421875 
z
" id="DejaVuSans-57"/>
     </defs>
     <use xlink:href="#DejaVuSans-57"/>
     <use x="63.623047" xlink:href="#DejaVuSans-46"/>
     <use x="95.410156" xlink:href="#DejaVuSans-48"/>
    </g>
   </g>
   <g id="text_17">
    <!-- 9.3 -->
    <g style="fill:#999999;" transform="translate(286.682642 50.854436)scale(0.1 -0.1)">
     <use xlink:href="#DejaVuSans-57"/>
     <use x="63.623047" xlink:href="#DejaVuSans-46"/>
     <use x="95.410156" xlink:href="#DejaVuSans-51"/>
    </g>
   </g>
   <g id="text_18">
    <!-- 9.2 -->
    <g style="fill:#e69f00;" transform="translate(305.398822 405.692955)scale(0.1 -0.1)">
     <use xlink:href="#DejaVuSans-57"/>
     <use x="63.623047" xlink:href="#DejaVuSans-46"/>
     <use x="95.410156" xlink:href="#DejaVuSans-50"/>
    </g>
   </g>
   <g id="text_19">
    <!-- 9.1 -->
    <g style="fill:#56b4e9;" transform="translate(268.951191 590.121815)scale(0.1 -0.1)">
     <use xlink:href="#DejaVuSans-57"/>
     <use x="63.623047" xlink:href="#DejaVuSans-46"/>
     <use x="95.410156" xlink:href="#DejaVuSans-49"/>
    </g>
   </g>
   <g id="text_20">
    <!-- 8.1 -->
    <g style="fill:#009e73;" transform="translate(278.098618 198.859928)scale(0.1 -0.1)">
     <use xlink:href="#DejaVuSans-56"/>
     <use x="63.623047" xlink:href="#DejaVuSans-46"/>
     <use x="95.410156" xlink:href="#DejaVuSans-49"/>
    </g>
   </g>
   <g id="text_21">
    <!-- 7.1 -->
    <g style="fill:#f0e442;" transform="translate(308.114997 148.162128)scale(0.1 -0.1)">
     <use xlink:href="#DejaVuSans-55"/>
     <use x="63.623047" xlink:href="#DejaVuSans-46"/>
     <use x="95.410156" xlink:href="#DejaVuSans-49"/>
    </g>
   </g>
   <g id="text_22">
    <!-- 3.1 -->
    <g style="fill:#d55e00;" transform="translate(301.944798 233.544024)scale(0.1 -0.1)">
     <use xlink:href="#DejaVuSans-51"/>
     <use x="63.623047" xlink:href="#DejaVuSans-46"/>
     <use x="95.410156" xlink:href="#DejaVuSans-49"/>
    </g>
   </g>
   <g id="text_23">
    <!-- 0.3 -->
    <g style="fill:#cc79a7;" transform="translate(296.794519 177.445813)scale(0.1 -0.1)">
     <use xlink:href="#DejaVuSans-48"/>
     <use x="63.623047" xlink:href="#DejaVuSans-46"/>
     <use x="95.410156" xlink:href="#DejaVuSans-51"/>
    </g>
   </g>
   <g id="text_24">
    <!-- 0.2 -->
    <g style="fill:#abd9e9;" transform="translate(302.760406 267.852858)scale(0.1 -0.1)">
     <use xlink:href="#DejaVuSans-48"/>
     <use x="63.623047" xlink:href="#DejaVuSans-46"/>
     <use x="95.410156" xlink:href="#DejaVuSans-50"/>
    </g>
   </g>
   <g id="legend_1">
    <g id="patch_7">
     <path d="M 482.2 23.8 
L 486.2 23.8 
Q 488.2 23.8 488.2 21.8 
L 488.2 17.8 
Q 488.2 15.8 486.2 15.8 
L 482.2 15.8 
Q 480.2 15.8 480.2 17.8 
L 480.2 21.8 
Q 480.2 23.8 482.2 23.8 
z
" style="fill:#ffffff;opacity:0.8;stroke:#cccccc;stroke-linejoin:miter;"/>
    </g>
   </g>
  </g>
 </g>
 <defs>
  <clipPath id="pd818396d6f">
   <rect height="609.721875" width="437.439062" x="55.760938" y="10.8"/>
  </clipPath>
 </defs>
</svg>
