<?xml version="1.0" encoding="utf-8" standalone="no"?>
<!DOCTYPE svg PUBLIC "-//W3C//DTD SVG 1.1//EN"
  "http://www.w3.org/Graphics/SVG/1.1/DTD/svg11.dtd">
<!-- Created with matplotlib (https://matplotlib.org/) -->
<svg height="576pt" version="1.1" viewBox="0 0 648 576" width="648pt" xmlns="http://www.w3.org/2000/svg" xmlns:xlink="http://www.w3.org/1999/xlink">
 <metadata>
  <rdf:RDF xmlns:cc="http://creativecommons.org/ns#" xmlns:dc="http://purl.org/dc/elements/1.1/" xmlns:rdf="http://www.w3.org/1999/02/22-rdf-syntax-ns#">
   <cc:Work>
    <dc:type rdf:resource="http://purl.org/dc/dcmitype/StillImage"/>
    <dc:date>2022-06-22T09:14:16.826557</dc:date>
    <dc:format>image/svg+xml</dc:format>
    <dc:creator>
     <cc:Agent>
      <dc:title>Matplotlib v3.3.4, https://matplotlib.org/</dc:title>
     </cc:Agent>
    </dc:creator>
   </cc:Work>
  </rdf:RDF>
 </metadata>
 <defs>
  <style type="text/css">*{stroke-linecap:butt;stroke-linejoin:round;}</style>
 </defs>
 <g id="figure_1">
  <g id="patch_1">
   <path d="M 0 576 
L 648 576 
L 648 0 
L 0 0 
z
" style="fill:#ffffff;"/>
  </g>
  <g id="axes_1">
   <g id="patch_2">
    <path d="M 81 504 
L 583.2 504 
L 583.2 69.12 
L 81 69.12 
z
" style="fill:#ffffff;"/>
   </g>
   <g id="PathCollection_1">
    <path clip-path="url(#p44a6fed85e)" d="M 298.410919 204.993818 
C 303.416517 204.993818 308.217774 203.005073 311.757266 199.46558 
C 315.296759 195.926087 317.285505 191.124831 317.285505 186.119232 
C 317.285505 181.113633 315.296759 176.312377 311.757266 172.772884 
C 308.217774 169.233391 303.416517 167.244646 298.410919 167.244646 
C 293.40532 167.244646 288.604064 169.233391 285.064571 172.772884 
C 281.525078 176.312377 279.536333 181.113633 279.536333 186.119232 
C 279.536333 191.124831 281.525078 195.926087 285.064571 199.46558 
C 288.604064 203.005073 293.40532 204.993818 298.410919 204.993818 
z
" style="fill:#999999;stroke:#999999;"/>
    <path clip-path="url(#p44a6fed85e)" d="M 498.478041 149.680992 
C 503.48364 149.680992 508.284896 147.692247 511.824389 144.152754 
C 515.363882 140.613261 517.352627 135.812005 517.352627 130.806406 
C 517.352627 125.800807 515.363882 120.999551 511.824389 117.460058 
C 508.284896 113.920565 503.48364 111.93182 498.478041 111.93182 
C 493.472443 111.93182 488.671186 113.920565 485.131693 117.460058 
C 481.592201 120.999551 479.603455 125.800807 479.603455 130.806406 
C 479.603455 135.812005 481.592201 140.613261 485.131693 144.152754 
C 488.671186 147.692247 493.472443 149.680992 498.478041 149.680992 
z
" style="fill:#e69f00;stroke:#e69f00;"/>
    <path clip-path="url(#p44a6fed85e)" d="M 339.942193 211.296194 
C 344.082675 211.296194 348.054131 209.651163 350.981894 206.7234 
C 353.909657 203.795637 355.554688 199.824181 355.554688 195.683699 
C 355.554688 191.543217 353.909657 187.571761 350.981894 184.643998 
C 348.054131 181.716235 344.082675 180.071204 339.942193 180.071204 
C 335.801711 180.071204 331.830255 181.716235 328.902492 184.643998 
C 325.974729 187.571761 324.329698 191.543217 324.329698 195.683699 
C 324.329698 199.824181 325.974729 203.795637 328.902492 206.7234 
C 331.830255 209.651163 335.801711 211.296194 339.942193 211.296194 
z
" style="fill:#56b4e9;stroke:#56b4e9;"/>
    <path clip-path="url(#p44a6fed85e)" d="M 153.075512 442.229135 
C 156.113795 442.229135 159.028047 441.022013 161.176438 438.873622 
C 163.324828 436.725231 164.531951 433.810979 164.531951 430.772696 
C 164.531951 427.734413 163.324828 424.820161 161.176438 422.67177 
C 159.028047 420.523379 156.113795 419.316257 153.075512 419.316257 
C 150.037229 419.316257 147.122977 420.523379 144.974586 422.67177 
C 142.826195 424.820161 141.619073 427.734413 141.619073 430.772696 
C 141.619073 433.810979 142.826195 436.725231 144.974586 438.873622 
C 147.122977 441.022013 150.037229 442.229135 153.075512 442.229135 
z
" style="fill:#009e73;stroke:#009e73;"/>
    <path clip-path="url(#p44a6fed85e)" d="M 434.268551 166.432756 
C 436.836369 166.432756 439.299362 165.412551 441.115083 163.59683 
C 442.930805 161.781108 443.95101 159.318116 443.95101 156.750298 
C 443.95101 154.18248 442.930805 151.719487 441.115083 149.903766 
C 439.299362 148.088044 436.836369 147.06784 434.268551 147.06784 
C 431.700733 147.06784 429.237741 148.088044 427.422019 149.903766 
C 425.606298 151.719487 424.586093 154.18248 424.586093 156.750298 
C 424.586093 159.318116 425.606298 161.781108 427.422019 163.59683 
C 429.237741 165.412551 431.700733 166.432756 434.268551 166.432756 
z
" style="fill:#f0e442;stroke:#f0e442;"/>
    <path clip-path="url(#p44a6fed85e)" d="M 418.264372 167.895699 
C 421.302656 167.895699 424.216908 166.688576 426.365298 164.540186 
C 428.513689 162.391795 429.720812 159.477543 429.720812 156.43926 
C 429.720812 153.400977 428.513689 150.486725 426.365298 148.338334 
C 424.216908 146.189943 421.302656 144.982821 418.264372 144.982821 
C 415.226089 144.982821 412.311837 146.189943 410.163447 148.338334 
C 408.015056 150.486725 406.807933 153.400977 406.807933 156.43926 
C 406.807933 159.477543 408.015056 162.391795 410.163447 164.540186 
C 412.311837 166.688576 415.226089 167.895699 418.264372 167.895699 
z
" style="fill:#0072b2;stroke:#0072b2;"/>
    <path clip-path="url(#p44a6fed85e)" d="M 323.567732 241.003483 
C 326.380635 241.003483 329.078708 239.885904 331.067732 237.896881 
C 333.056755 235.907858 334.174333 233.209785 334.174333 230.396881 
C 334.174333 227.583977 333.056755 224.885904 331.067732 222.896881 
C 329.078708 220.907858 326.380635 219.790279 323.567732 219.790279 
C 320.754828 219.790279 318.056755 220.907858 316.067732 222.896881 
C 314.078708 224.885904 312.96113 227.583977 312.96113 230.396881 
C 312.96113 233.209785 314.078708 235.907858 316.067732 237.896881 
C 318.056755 239.885904 320.754828 241.003483 323.567732 241.003483 
z
" style="fill:#d55e00;stroke:#d55e00;"/>
    <path clip-path="url(#p44a6fed85e)" d="M 371.098025 192.428534 
C 373.087048 192.428534 374.994874 191.638287 376.401326 190.231835 
C 377.807778 188.825383 378.598025 186.917557 378.598025 184.928534 
C 378.598025 182.939511 377.807778 181.031685 376.401326 179.625233 
C 374.994874 178.218781 373.087048 177.428534 371.098025 177.428534 
C 369.109002 177.428534 367.201176 178.218781 365.794724 179.625233 
C 364.388272 181.031685 363.598025 182.939511 363.598025 184.928534 
C 363.598025 186.917557 364.388272 188.825383 365.794724 190.231835 
C 367.201176 191.638287 369.109002 192.428534 371.098025 192.428534 
z
" style="fill:#cc79a7;stroke:#cc79a7;"/>
    <path clip-path="url(#p44a6fed85e)" d="M 560.372727 98.569731 
C 562.940545 98.569731 565.403538 97.549526 567.219259 95.733805 
C 569.034981 93.918083 570.055186 91.455091 570.055186 88.887273 
C 570.055186 86.319455 569.034981 83.856462 567.219259 82.040741 
C 565.403538 80.225019 562.940545 79.204814 560.372727 79.204814 
C 557.804909 79.204814 555.341917 80.225019 553.526195 82.040741 
C 551.710474 83.856462 550.690269 86.319455 550.690269 88.887273 
C 550.690269 91.455091 551.710474 93.918083 553.526195 95.733805 
C 555.341917 97.549526 557.804909 98.569731 560.372727 98.569731 
z
" style="fill:#f46d43;stroke:#f46d43;"/>
    <path clip-path="url(#p44a6fed85e)" d="M 400.98998 154.920031 
C 403.802883 154.920031 406.500956 153.802452 408.48998 151.813429 
C 410.479003 149.824406 411.596581 147.126333 411.596581 144.313429 
C 411.596581 141.500525 410.479003 138.802452 408.48998 136.813429 
C 406.500956 134.824406 403.802883 133.706827 400.98998 133.706827 
C 398.177076 133.706827 395.479003 134.824406 393.48998 136.813429 
C 391.500956 138.802452 390.383378 141.500525 390.383378 144.313429 
C 390.383378 147.126333 391.500956 149.824406 393.48998 151.813429 
C 395.479003 153.802452 398.177076 154.920031 400.98998 154.920031 
z
" style="fill:#abd9e9;stroke:#abd9e9;"/>
    <path clip-path="url(#p44a6fed85e)" d="M 535.15776 98.394281 
C 537.146783 98.394281 539.054609 97.604034 540.46106 96.197582 
C 541.867512 94.79113 542.65776 92.883305 542.65776 90.894281 
C 542.65776 88.905258 541.867512 86.997432 540.46106 85.590981 
C 539.054609 84.184529 537.146783 83.394281 535.15776 83.394281 
C 533.168736 83.394281 531.260911 84.184529 529.854459 85.590981 
C 528.448007 86.997432 527.65776 88.905258 527.65776 90.894281 
C 527.65776 92.883305 528.448007 94.79113 529.854459 96.197582 
C 531.260911 97.604034 533.168736 98.394281 535.15776 98.394281 
z
" style="fill:#999999;stroke:#999999;"/>
    <path clip-path="url(#p44a6fed85e)" d="M 253.486558 245.821312 
C 255.475582 245.821312 257.383407 245.031064 258.789859 243.624613 
C 260.196311 242.218161 260.986558 240.310335 260.986558 238.321312 
C 260.986558 236.332288 260.196311 234.424463 258.789859 233.018011 
C 257.383407 231.611559 255.475582 230.821312 253.486558 230.821312 
C 251.497535 230.821312 249.589709 231.611559 248.183258 233.018011 
C 246.776806 234.424463 245.986558 236.332288 245.986558 238.321312 
C 245.986558 240.310335 246.776806 242.218161 248.183258 243.624613 
C 249.589709 245.031064 251.497535 245.821312 253.486558 245.821312 
z
" style="fill:#e69f00;stroke:#e69f00;"/>
    <path clip-path="url(#p44a6fed85e)" d="M 103.827273 491.732727 
C 105.816296 491.732727 107.724122 490.94248 109.130574 489.536028 
C 110.537025 488.129576 111.327273 486.221751 111.327273 484.232727 
C 111.327273 482.243704 110.537025 480.335878 109.130574 478.929426 
C 107.724122 477.522975 105.816296 476.732727 103.827273 476.732727 
C 101.838249 476.732727 99.930424 477.522975 98.523972 478.929426 
C 97.11752 480.335878 96.327273 482.243704 96.327273 484.232727 
C 96.327273 486.221751 97.11752 488.129576 98.523972 489.536028 
C 99.930424 490.94248 101.838249 491.732727 103.827273 491.732727 
z
" style="fill:#56b4e9;stroke:#56b4e9;"/>
    <path clip-path="url(#p44a6fed85e)" d="M 356.801367 203.166318 
C 360.049428 203.166318 363.164895 201.875849 365.461621 199.579123 
C 367.758347 197.282397 369.048816 194.166931 369.048816 190.918869 
C 369.048816 187.670808 367.758347 184.555341 365.461621 182.258615 
C 363.164895 179.961889 360.049428 178.67142 356.801367 178.67142 
C 353.553306 178.67142 350.437839 179.961889 348.141113 182.258615 
C 345.844387 184.555341 344.553918 187.670808 344.553918 190.918869 
C 344.553918 194.166931 345.844387 197.282397 348.141113 199.579123 
C 350.437839 201.875849 353.553306 203.166318 356.801367 203.166318 
z
" style="fill:#009e73;stroke:#009e73;"/>
    <path clip-path="url(#p44a6fed85e)" d="M 407.329303 178.757136 
C 409.897121 178.757136 412.360114 177.736931 414.175835 175.921209 
C 415.991557 174.105488 417.011762 171.642495 417.011762 169.074677 
C 417.011762 166.506859 415.991557 164.043867 414.175835 162.228145 
C 412.360114 160.412424 409.897121 159.392219 407.329303 159.392219 
C 404.761485 159.392219 402.298493 160.412424 400.482771 162.228145 
C 398.66705 164.043867 397.646845 166.506859 397.646845 169.074677 
C 397.646845 171.642495 398.66705 174.105488 400.482771 175.921209 
C 402.298493 177.736931 404.761485 178.757136 407.329303 178.757136 
z
" style="fill:#f0e442;stroke:#f0e442;"/>
    <path clip-path="url(#p44a6fed85e)" d="M 258.392986 284.235556 
C 260.017016 284.235556 261.57475 283.590321 262.723113 282.441958 
C 263.871476 281.293595 264.51671 279.735862 264.51671 278.111831 
C 264.51671 276.487801 263.871476 274.930067 262.723113 273.781704 
C 261.57475 272.633341 260.017016 271.988107 258.392986 271.988107 
C 256.768955 271.988107 255.211222 272.633341 254.062859 273.781704 
C 252.914495 274.930067 252.269261 276.487801 252.269261 278.111831 
C 252.269261 279.735862 252.914495 281.293595 254.062859 282.441958 
C 255.211222 283.590321 256.768955 284.235556 258.392986 284.235556 
z
" style="fill:#d55e00;stroke:#d55e00;"/>
    <path clip-path="url(#p44a6fed85e)" d="M 327.209706 193.561765 
C 328.833737 193.561765 330.39147 192.916531 331.539833 191.768167 
C 332.688196 190.619804 333.33343 189.062071 333.33343 187.43804 
C 333.33343 185.81401 332.688196 184.256277 331.539833 183.107913 
C 330.39147 181.95955 328.833737 181.314316 327.209706 181.314316 
C 325.585675 181.314316 324.027942 181.95955 322.879579 183.107913 
C 321.731216 184.256277 321.085982 185.81401 321.085982 187.43804 
C 321.085982 189.062071 321.731216 190.619804 322.879579 191.768167 
C 324.027942 192.916531 325.585675 193.561765 327.209706 193.561765 
z
" style="fill:#cc79a7;stroke:#cc79a7;"/>
    <path clip-path="url(#p44a6fed85e)" d="M 314.685796 155.74545 
C 316.309827 155.74545 317.86756 155.100216 319.015923 153.951853 
C 320.164287 152.80349 320.809521 151.245756 320.809521 149.621726 
C 320.809521 147.997695 320.164287 146.439962 319.015923 145.291599 
C 317.86756 144.143236 316.309827 143.498001 314.685796 143.498001 
C 313.061766 143.498001 311.504033 144.143236 310.355669 145.291599 
C 309.207306 146.439962 308.562072 147.997695 308.562072 149.621726 
C 308.562072 151.245756 309.207306 152.80349 310.355669 153.951853 
C 311.504033 155.100216 313.061766 155.74545 314.685796 155.74545 
z
" style="fill:#abd9e9;stroke:#abd9e9;"/>
   </g>
   <g id="matplotlib.axis_1">
    <g id="xtick_1">
     <g id="line2d_1">
      <defs>
       <path d="M 0 0 
L 0 3.5 
" id="m581db37469" style="stroke:#000000;stroke-width:0.8;"/>
      </defs>
      <g>
       <use style="stroke:#000000;stroke-width:0.8;" x="105.320301" xlink:href="#m581db37469" y="504"/>
      </g>
     </g>
     <g id="text_1">
      <!-- −1.5 -->
      <g transform="translate(93.178895 518.598438)scale(0.1 -0.1)">
       <defs>
        <path d="M 10.59375 35.5 
L 73.1875 35.5 
L 73.1875 27.203125 
L 10.59375 27.203125 
z
" id="DejaVuSans-8722"/>
        <path d="M 12.40625 8.296875 
L 28.515625 8.296875 
L 28.515625 63.921875 
L 10.984375 60.40625 
L 10.984375 69.390625 
L 28.421875 72.90625 
L 38.28125 72.90625 
L 38.28125 8.296875 
L 54.390625 8.296875 
L 54.390625 0 
L 12.40625 0 
z
" id="DejaVuSans-49"/>
        <path d="M 10.6875 12.40625 
L 21 12.40625 
L 21 0 
L 10.6875 0 
z
" id="DejaVuSans-46"/>
        <path d="M 10.796875 72.90625 
L 49.515625 72.90625 
L 49.515625 64.59375 
L 19.828125 64.59375 
L 19.828125 46.734375 
Q 21.96875 47.46875 24.109375 47.828125 
Q 26.265625 48.1875 28.421875 48.1875 
Q 40.625 48.1875 47.75 41.5 
Q 54.890625 34.8125 54.890625 23.390625 
Q 54.890625 11.625 47.5625 5.09375 
Q 40.234375 -1.421875 26.90625 -1.421875 
Q 22.3125 -1.421875 17.546875 -0.640625 
Q 12.796875 0.140625 7.71875 1.703125 
L 7.71875 11.625 
Q 12.109375 9.234375 16.796875 8.0625 
Q 21.484375 6.890625 26.703125 6.890625 
Q 35.15625 6.890625 40.078125 11.328125 
Q 45.015625 15.765625 45.015625 23.390625 
Q 45.015625 31 40.078125 35.4375 
Q 35.15625 39.890625 26.703125 39.890625 
Q 22.75 39.890625 18.8125 39.015625 
Q 14.890625 38.140625 10.796875 36.28125 
z
" id="DejaVuSans-53"/>
       </defs>
       <use xlink:href="#DejaVuSans-8722"/>
       <use x="83.789062" xlink:href="#DejaVuSans-49"/>
       <use x="147.412109" xlink:href="#DejaVuSans-46"/>
       <use x="179.199219" xlink:href="#DejaVuSans-53"/>
      </g>
     </g>
    </g>
    <g id="xtick_2">
     <g id="line2d_2">
      <g>
       <use style="stroke:#000000;stroke-width:0.8;" x="180.254697" xlink:href="#m581db37469" y="504"/>
      </g>
     </g>
     <g id="text_2">
      <!-- −1.0 -->
      <g transform="translate(168.113291 518.598438)scale(0.1 -0.1)">
       <defs>
        <path d="M 31.78125 66.40625 
Q 24.171875 66.40625 20.328125 58.90625 
Q 16.5 51.421875 16.5 36.375 
Q 16.5 21.390625 20.328125 13.890625 
Q 24.171875 6.390625 31.78125 6.390625 
Q 39.453125 6.390625 43.28125 13.890625 
Q 47.125 21.390625 47.125 36.375 
Q 47.125 51.421875 43.28125 58.90625 
Q 39.453125 66.40625 31.78125 66.40625 
z
M 31.78125 74.21875 
Q 44.046875 74.21875 50.515625 64.515625 
Q 56.984375 54.828125 56.984375 36.375 
Q 56.984375 17.96875 50.515625 8.265625 
Q 44.046875 -1.421875 31.78125 -1.421875 
Q 19.53125 -1.421875 13.0625 8.265625 
Q 6.59375 17.96875 6.59375 36.375 
Q 6.59375 54.828125 13.0625 64.515625 
Q 19.53125 74.21875 31.78125 74.21875 
z
" id="DejaVuSans-48"/>
       </defs>
       <use xlink:href="#DejaVuSans-8722"/>
       <use x="83.789062" xlink:href="#DejaVuSans-49"/>
       <use x="147.412109" xlink:href="#DejaVuSans-46"/>
       <use x="179.199219" xlink:href="#DejaVuSans-48"/>
      </g>
     </g>
    </g>
    <g id="xtick_3">
     <g id="line2d_3">
      <g>
       <use style="stroke:#000000;stroke-width:0.8;" x="255.189093" xlink:href="#m581db37469" y="504"/>
      </g>
     </g>
     <g id="text_3">
      <!-- −0.5 -->
      <g transform="translate(243.047687 518.598438)scale(0.1 -0.1)">
       <use xlink:href="#DejaVuSans-8722"/>
       <use x="83.789062" xlink:href="#DejaVuSans-48"/>
       <use x="147.412109" xlink:href="#DejaVuSans-46"/>
       <use x="179.199219" xlink:href="#DejaVuSans-53"/>
      </g>
     </g>
    </g>
    <g id="xtick_4">
     <g id="line2d_4">
      <g>
       <use style="stroke:#000000;stroke-width:0.8;" x="330.123489" xlink:href="#m581db37469" y="504"/>
      </g>
     </g>
     <g id="text_4">
      <!-- 0.0 -->
      <g transform="translate(322.171926 518.598438)scale(0.1 -0.1)">
       <use xlink:href="#DejaVuSans-48"/>
       <use x="63.623047" xlink:href="#DejaVuSans-46"/>
       <use x="95.410156" xlink:href="#DejaVuSans-48"/>
      </g>
     </g>
    </g>
    <g id="xtick_5">
     <g id="line2d_5">
      <g>
       <use style="stroke:#000000;stroke-width:0.8;" x="405.057885" xlink:href="#m581db37469" y="504"/>
      </g>
     </g>
     <g id="text_5">
      <!-- 0.5 -->
      <g transform="translate(397.106322 518.598438)scale(0.1 -0.1)">
       <use xlink:href="#DejaVuSans-48"/>
       <use x="63.623047" xlink:href="#DejaVuSans-46"/>
       <use x="95.410156" xlink:href="#DejaVuSans-53"/>
      </g>
     </g>
    </g>
    <g id="xtick_6">
     <g id="line2d_6">
      <g>
       <use style="stroke:#000000;stroke-width:0.8;" x="479.992281" xlink:href="#m581db37469" y="504"/>
      </g>
     </g>
     <g id="text_6">
      <!-- 1.0 -->
      <g transform="translate(472.040718 518.598438)scale(0.1 -0.1)">
       <use xlink:href="#DejaVuSans-49"/>
       <use x="63.623047" xlink:href="#DejaVuSans-46"/>
       <use x="95.410156" xlink:href="#DejaVuSans-48"/>
      </g>
     </g>
    </g>
    <g id="xtick_7">
     <g id="line2d_7">
      <g>
       <use style="stroke:#000000;stroke-width:0.8;" x="554.926676" xlink:href="#m581db37469" y="504"/>
      </g>
     </g>
     <g id="text_7">
      <!-- 1.5 -->
      <g transform="translate(546.975114 518.598438)scale(0.1 -0.1)">
       <use xlink:href="#DejaVuSans-49"/>
       <use x="63.623047" xlink:href="#DejaVuSans-46"/>
       <use x="95.410156" xlink:href="#DejaVuSans-53"/>
      </g>
     </g>
    </g>
    <g id="text_8">
     <!-- Log Odd Tree Mean Pairwise Distance -->
     <g transform="translate(238.582031 532.276562)scale(0.1 -0.1)">
      <defs>
       <path d="M 9.8125 72.90625 
L 19.671875 72.90625 
L 19.671875 8.296875 
L 55.171875 8.296875 
L 55.171875 0 
L 9.8125 0 
z
" id="DejaVuSans-76"/>
       <path d="M 30.609375 48.390625 
Q 23.390625 48.390625 19.1875 42.75 
Q 14.984375 37.109375 14.984375 27.296875 
Q 14.984375 17.484375 19.15625 11.84375 
Q 23.34375 6.203125 30.609375 6.203125 
Q 37.796875 6.203125 41.984375 11.859375 
Q 46.1875 17.53125 46.1875 27.296875 
Q 46.1875 37.015625 41.984375 42.703125 
Q 37.796875 48.390625 30.609375 48.390625 
z
M 30.609375 56 
Q 42.328125 56 49.015625 48.375 
Q 55.71875 40.765625 55.71875 27.296875 
Q 55.71875 13.875 49.015625 6.21875 
Q 42.328125 -1.421875 30.609375 -1.421875 
Q 18.84375 -1.421875 12.171875 6.21875 
Q 5.515625 13.875 5.515625 27.296875 
Q 5.515625 40.765625 12.171875 48.375 
Q 18.84375 56 30.609375 56 
z
" id="DejaVuSans-111"/>
       <path d="M 45.40625 27.984375 
Q 45.40625 37.75 41.375 43.109375 
Q 37.359375 48.484375 30.078125 48.484375 
Q 22.859375 48.484375 18.828125 43.109375 
Q 14.796875 37.75 14.796875 27.984375 
Q 14.796875 18.265625 18.828125 12.890625 
Q 22.859375 7.515625 30.078125 7.515625 
Q 37.359375 7.515625 41.375 12.890625 
Q 45.40625 18.265625 45.40625 27.984375 
z
M 54.390625 6.78125 
Q 54.390625 -7.171875 48.1875 -13.984375 
Q 42 -20.796875 29.203125 -20.796875 
Q 24.46875 -20.796875 20.265625 -20.09375 
Q 16.0625 -19.390625 12.109375 -17.921875 
L 12.109375 -9.1875 
Q 16.0625 -11.328125 19.921875 -12.34375 
Q 23.78125 -13.375 27.78125 -13.375 
Q 36.625 -13.375 41.015625 -8.765625 
Q 45.40625 -4.15625 45.40625 5.171875 
L 45.40625 9.625 
Q 42.625 4.78125 38.28125 2.390625 
Q 33.9375 0 27.875 0 
Q 17.828125 0 11.671875 7.65625 
Q 5.515625 15.328125 5.515625 27.984375 
Q 5.515625 40.671875 11.671875 48.328125 
Q 17.828125 56 27.875 56 
Q 33.9375 56 38.28125 53.609375 
Q 42.625 51.21875 45.40625 46.390625 
L 45.40625 54.6875 
L 54.390625 54.6875 
z
" id="DejaVuSans-103"/>
       <path id="DejaVuSans-32"/>
       <path d="M 39.40625 66.21875 
Q 28.65625 66.21875 22.328125 58.203125 
Q 16.015625 50.203125 16.015625 36.375 
Q 16.015625 22.609375 22.328125 14.59375 
Q 28.65625 6.59375 39.40625 6.59375 
Q 50.140625 6.59375 56.421875 14.59375 
Q 62.703125 22.609375 62.703125 36.375 
Q 62.703125 50.203125 56.421875 58.203125 
Q 50.140625 66.21875 39.40625 66.21875 
z
M 39.40625 74.21875 
Q 54.734375 74.21875 63.90625 63.9375 
Q 73.09375 53.65625 73.09375 36.375 
Q 73.09375 19.140625 63.90625 8.859375 
Q 54.734375 -1.421875 39.40625 -1.421875 
Q 24.03125 -1.421875 14.8125 8.828125 
Q 5.609375 19.09375 5.609375 36.375 
Q 5.609375 53.65625 14.8125 63.9375 
Q 24.03125 74.21875 39.40625 74.21875 
z
" id="DejaVuSans-79"/>
       <path d="M 45.40625 46.390625 
L 45.40625 75.984375 
L 54.390625 75.984375 
L 54.390625 0 
L 45.40625 0 
L 45.40625 8.203125 
Q 42.578125 3.328125 38.25 0.953125 
Q 33.9375 -1.421875 27.875 -1.421875 
Q 17.96875 -1.421875 11.734375 6.484375 
Q 5.515625 14.40625 5.515625 27.296875 
Q 5.515625 40.1875 11.734375 48.09375 
Q 17.96875 56 27.875 56 
Q 33.9375 56 38.25 53.625 
Q 42.578125 51.265625 45.40625 46.390625 
z
M 14.796875 27.296875 
Q 14.796875 17.390625 18.875 11.75 
Q 22.953125 6.109375 30.078125 6.109375 
Q 37.203125 6.109375 41.296875 11.75 
Q 45.40625 17.390625 45.40625 27.296875 
Q 45.40625 37.203125 41.296875 42.84375 
Q 37.203125 48.484375 30.078125 48.484375 
Q 22.953125 48.484375 18.875 42.84375 
Q 14.796875 37.203125 14.796875 27.296875 
z
" id="DejaVuSans-100"/>
       <path d="M -0.296875 72.90625 
L 61.375 72.90625 
L 61.375 64.59375 
L 35.5 64.59375 
L 35.5 0 
L 25.59375 0 
L 25.59375 64.59375 
L -0.296875 64.59375 
z
" id="DejaVuSans-84"/>
       <path d="M 41.109375 46.296875 
Q 39.59375 47.171875 37.8125 47.578125 
Q 36.03125 48 33.890625 48 
Q 26.265625 48 22.1875 43.046875 
Q 18.109375 38.09375 18.109375 28.8125 
L 18.109375 0 
L 9.078125 0 
L 9.078125 54.6875 
L 18.109375 54.6875 
L 18.109375 46.1875 
Q 20.953125 51.171875 25.484375 53.578125 
Q 30.03125 56 36.53125 56 
Q 37.453125 56 38.578125 55.875 
Q 39.703125 55.765625 41.0625 55.515625 
z
" id="DejaVuSans-114"/>
       <path d="M 56.203125 29.59375 
L 56.203125 25.203125 
L 14.890625 25.203125 
Q 15.484375 15.921875 20.484375 11.0625 
Q 25.484375 6.203125 34.421875 6.203125 
Q 39.59375 6.203125 44.453125 7.46875 
Q 49.3125 8.734375 54.109375 11.28125 
L 54.109375 2.78125 
Q 49.265625 0.734375 44.1875 -0.34375 
Q 39.109375 -1.421875 33.890625 -1.421875 
Q 20.796875 -1.421875 13.15625 6.1875 
Q 5.515625 13.8125 5.515625 26.8125 
Q 5.515625 40.234375 12.765625 48.109375 
Q 20.015625 56 32.328125 56 
Q 43.359375 56 49.78125 48.890625 
Q 56.203125 41.796875 56.203125 29.59375 
z
M 47.21875 32.234375 
Q 47.125 39.59375 43.09375 43.984375 
Q 39.0625 48.390625 32.421875 48.390625 
Q 24.90625 48.390625 20.390625 44.140625 
Q 15.875 39.890625 15.1875 32.171875 
z
" id="DejaVuSans-101"/>
       <path d="M 9.8125 72.90625 
L 24.515625 72.90625 
L 43.109375 23.296875 
L 61.8125 72.90625 
L 76.515625 72.90625 
L 76.515625 0 
L 66.890625 0 
L 66.890625 64.015625 
L 48.09375 14.015625 
L 38.1875 14.015625 
L 19.390625 64.015625 
L 19.390625 0 
L 9.8125 0 
z
" id="DejaVuSans-77"/>
       <path d="M 34.28125 27.484375 
Q 23.390625 27.484375 19.1875 25 
Q 14.984375 22.515625 14.984375 16.5 
Q 14.984375 11.71875 18.140625 8.90625 
Q 21.296875 6.109375 26.703125 6.109375 
Q 34.1875 6.109375 38.703125 11.40625 
Q 43.21875 16.703125 43.21875 25.484375 
L 43.21875 27.484375 
z
M 52.203125 31.203125 
L 52.203125 0 
L 43.21875 0 
L 43.21875 8.296875 
Q 40.140625 3.328125 35.546875 0.953125 
Q 30.953125 -1.421875 24.3125 -1.421875 
Q 15.921875 -1.421875 10.953125 3.296875 
Q 6 8.015625 6 15.921875 
Q 6 25.140625 12.171875 29.828125 
Q 18.359375 34.515625 30.609375 34.515625 
L 43.21875 34.515625 
L 43.21875 35.40625 
Q 43.21875 41.609375 39.140625 45 
Q 35.0625 48.390625 27.6875 48.390625 
Q 23 48.390625 18.546875 47.265625 
Q 14.109375 46.140625 10.015625 43.890625 
L 10.015625 52.203125 
Q 14.9375 54.109375 19.578125 55.046875 
Q 24.21875 56 28.609375 56 
Q 40.484375 56 46.34375 49.84375 
Q 52.203125 43.703125 52.203125 31.203125 
z
" id="DejaVuSans-97"/>
       <path d="M 54.890625 33.015625 
L 54.890625 0 
L 45.90625 0 
L 45.90625 32.71875 
Q 45.90625 40.484375 42.875 44.328125 
Q 39.84375 48.1875 33.796875 48.1875 
Q 26.515625 48.1875 22.3125 43.546875 
Q 18.109375 38.921875 18.109375 30.90625 
L 18.109375 0 
L 9.078125 0 
L 9.078125 54.6875 
L 18.109375 54.6875 
L 18.109375 46.1875 
Q 21.34375 51.125 25.703125 53.5625 
Q 30.078125 56 35.796875 56 
Q 45.21875 56 50.046875 50.171875 
Q 54.890625 44.34375 54.890625 33.015625 
z
" id="DejaVuSans-110"/>
       <path d="M 19.671875 64.796875 
L 19.671875 37.40625 
L 32.078125 37.40625 
Q 38.96875 37.40625 42.71875 40.96875 
Q 46.484375 44.53125 46.484375 51.125 
Q 46.484375 57.671875 42.71875 61.234375 
Q 38.96875 64.796875 32.078125 64.796875 
z
M 9.8125 72.90625 
L 32.078125 72.90625 
Q 44.34375 72.90625 50.609375 67.359375 
Q 56.890625 61.8125 56.890625 51.125 
Q 56.890625 40.328125 50.609375 34.8125 
Q 44.34375 29.296875 32.078125 29.296875 
L 19.671875 29.296875 
L 19.671875 0 
L 9.8125 0 
z
" id="DejaVuSans-80"/>
       <path d="M 9.421875 54.6875 
L 18.40625 54.6875 
L 18.40625 0 
L 9.421875 0 
z
M 9.421875 75.984375 
L 18.40625 75.984375 
L 18.40625 64.59375 
L 9.421875 64.59375 
z
" id="DejaVuSans-105"/>
       <path d="M 4.203125 54.6875 
L 13.1875 54.6875 
L 24.421875 12.015625 
L 35.59375 54.6875 
L 46.1875 54.6875 
L 57.421875 12.015625 
L 68.609375 54.6875 
L 77.59375 54.6875 
L 63.28125 0 
L 52.6875 0 
L 40.921875 44.828125 
L 29.109375 0 
L 18.5 0 
z
" id="DejaVuSans-119"/>
       <path d="M 44.28125 53.078125 
L 44.28125 44.578125 
Q 40.484375 46.53125 36.375 47.5 
Q 32.28125 48.484375 27.875 48.484375 
Q 21.1875 48.484375 17.84375 46.4375 
Q 14.5 44.390625 14.5 40.28125 
Q 14.5 37.15625 16.890625 35.375 
Q 19.28125 33.59375 26.515625 31.984375 
L 29.59375 31.296875 
Q 39.15625 29.25 43.1875 25.515625 
Q 47.21875 21.78125 47.21875 15.09375 
Q 47.21875 7.46875 41.1875 3.015625 
Q 35.15625 -1.421875 24.609375 -1.421875 
Q 20.21875 -1.421875 15.453125 -0.5625 
Q 10.6875 0.296875 5.421875 2 
L 5.421875 11.28125 
Q 10.40625 8.6875 15.234375 7.390625 
Q 20.0625 6.109375 24.8125 6.109375 
Q 31.15625 6.109375 34.5625 8.28125 
Q 37.984375 10.453125 37.984375 14.40625 
Q 37.984375 18.0625 35.515625 20.015625 
Q 33.0625 21.96875 24.703125 23.78125 
L 21.578125 24.515625 
Q 13.234375 26.265625 9.515625 29.90625 
Q 5.8125 33.546875 5.8125 39.890625 
Q 5.8125 47.609375 11.28125 51.796875 
Q 16.75 56 26.8125 56 
Q 31.78125 56 36.171875 55.265625 
Q 40.578125 54.546875 44.28125 53.078125 
z
" id="DejaVuSans-115"/>
       <path d="M 19.671875 64.796875 
L 19.671875 8.109375 
L 31.59375 8.109375 
Q 46.6875 8.109375 53.6875 14.9375 
Q 60.6875 21.78125 60.6875 36.53125 
Q 60.6875 51.171875 53.6875 57.984375 
Q 46.6875 64.796875 31.59375 64.796875 
z
M 9.8125 72.90625 
L 30.078125 72.90625 
Q 51.265625 72.90625 61.171875 64.09375 
Q 71.09375 55.28125 71.09375 36.53125 
Q 71.09375 17.671875 61.125 8.828125 
Q 51.171875 0 30.078125 0 
L 9.8125 0 
z
" id="DejaVuSans-68"/>
       <path d="M 18.3125 70.21875 
L 18.3125 54.6875 
L 36.8125 54.6875 
L 36.8125 47.703125 
L 18.3125 47.703125 
L 18.3125 18.015625 
Q 18.3125 11.328125 20.140625 9.421875 
Q 21.96875 7.515625 27.59375 7.515625 
L 36.8125 7.515625 
L 36.8125 0 
L 27.59375 0 
Q 17.1875 0 13.234375 3.875 
Q 9.28125 7.765625 9.28125 18.015625 
L 9.28125 47.703125 
L 2.6875 47.703125 
L 2.6875 54.6875 
L 9.28125 54.6875 
L 9.28125 70.21875 
z
" id="DejaVuSans-116"/>
       <path d="M 48.78125 52.59375 
L 48.78125 44.1875 
Q 44.96875 46.296875 41.140625 47.34375 
Q 37.3125 48.390625 33.40625 48.390625 
Q 24.65625 48.390625 19.8125 42.84375 
Q 14.984375 37.3125 14.984375 27.296875 
Q 14.984375 17.28125 19.8125 11.734375 
Q 24.65625 6.203125 33.40625 6.203125 
Q 37.3125 6.203125 41.140625 7.25 
Q 44.96875 8.296875 48.78125 10.40625 
L 48.78125 2.09375 
Q 45.015625 0.34375 40.984375 -0.53125 
Q 36.96875 -1.421875 32.421875 -1.421875 
Q 20.0625 -1.421875 12.78125 6.34375 
Q 5.515625 14.109375 5.515625 27.296875 
Q 5.515625 40.671875 12.859375 48.328125 
Q 20.21875 56 33.015625 56 
Q 37.15625 56 41.109375 55.140625 
Q 45.0625 54.296875 48.78125 52.59375 
z
" id="DejaVuSans-99"/>
      </defs>
      <use xlink:href="#DejaVuSans-76"/>
      <use x="53.962891" xlink:href="#DejaVuSans-111"/>
      <use x="115.144531" xlink:href="#DejaVuSans-103"/>
      <use x="178.621094" xlink:href="#DejaVuSans-32"/>
      <use x="210.408203" xlink:href="#DejaVuSans-79"/>
      <use x="289.119141" xlink:href="#DejaVuSans-100"/>
      <use x="352.595703" xlink:href="#DejaVuSans-100"/>
      <use x="416.072266" xlink:href="#DejaVuSans-32"/>
      <use x="447.859375" xlink:href="#DejaVuSans-84"/>
      <use x="494.193359" xlink:href="#DejaVuSans-114"/>
      <use x="533.056641" xlink:href="#DejaVuSans-101"/>
      <use x="594.580078" xlink:href="#DejaVuSans-101"/>
      <use x="656.103516" xlink:href="#DejaVuSans-32"/>
      <use x="687.890625" xlink:href="#DejaVuSans-77"/>
      <use x="774.169922" xlink:href="#DejaVuSans-101"/>
      <use x="835.693359" xlink:href="#DejaVuSans-97"/>
      <use x="896.972656" xlink:href="#DejaVuSans-110"/>
      <use x="960.351562" xlink:href="#DejaVuSans-32"/>
      <use x="992.138672" xlink:href="#DejaVuSans-80"/>
      <use x="1047.941406" xlink:href="#DejaVuSans-97"/>
      <use x="1109.220703" xlink:href="#DejaVuSans-105"/>
      <use x="1137.003906" xlink:href="#DejaVuSans-114"/>
      <use x="1178.117188" xlink:href="#DejaVuSans-119"/>
      <use x="1259.904297" xlink:href="#DejaVuSans-105"/>
      <use x="1287.6875" xlink:href="#DejaVuSans-115"/>
      <use x="1339.787109" xlink:href="#DejaVuSans-101"/>
      <use x="1401.310547" xlink:href="#DejaVuSans-32"/>
      <use x="1433.097656" xlink:href="#DejaVuSans-68"/>
      <use x="1510.099609" xlink:href="#DejaVuSans-105"/>
      <use x="1537.882812" xlink:href="#DejaVuSans-115"/>
      <use x="1589.982422" xlink:href="#DejaVuSans-116"/>
      <use x="1629.191406" xlink:href="#DejaVuSans-97"/>
      <use x="1690.470703" xlink:href="#DejaVuSans-110"/>
      <use x="1753.849609" xlink:href="#DejaVuSans-99"/>
      <use x="1808.830078" xlink:href="#DejaVuSans-101"/>
     </g>
    </g>
   </g>
   <g id="matplotlib.axis_2">
    <g id="ytick_1">
     <g id="line2d_8">
      <defs>
       <path d="M 0 0 
L -3.5 0 
" id="m9afb34cc81" style="stroke:#000000;stroke-width:0.8;"/>
      </defs>
      <g>
       <use style="stroke:#000000;stroke-width:0.8;" x="81" xlink:href="#m9afb34cc81" y="463.051978"/>
      </g>
     </g>
     <g id="text_9">
      <!-- −1.4 -->
      <g transform="translate(49.717187 466.851197)scale(0.1 -0.1)">
       <defs>
        <path d="M 37.796875 64.3125 
L 12.890625 25.390625 
L 37.796875 25.390625 
z
M 35.203125 72.90625 
L 47.609375 72.90625 
L 47.609375 25.390625 
L 58.015625 25.390625 
L 58.015625 17.1875 
L 47.609375 17.1875 
L 47.609375 0 
L 37.796875 0 
L 37.796875 17.1875 
L 4.890625 17.1875 
L 4.890625 26.703125 
z
" id="DejaVuSans-52"/>
       </defs>
       <use xlink:href="#DejaVuSans-8722"/>
       <use x="83.789062" xlink:href="#DejaVuSans-49"/>
       <use x="147.412109" xlink:href="#DejaVuSans-46"/>
       <use x="179.199219" xlink:href="#DejaVuSans-52"/>
      </g>
     </g>
    </g>
    <g id="ytick_2">
     <g id="line2d_9">
      <g>
       <use style="stroke:#000000;stroke-width:0.8;" x="81" xlink:href="#m9afb34cc81" y="413.468054"/>
      </g>
     </g>
     <g id="text_10">
      <!-- −1.2 -->
      <g transform="translate(49.717187 417.267272)scale(0.1 -0.1)">
       <defs>
        <path d="M 19.1875 8.296875 
L 53.609375 8.296875 
L 53.609375 0 
L 7.328125 0 
L 7.328125 8.296875 
Q 12.9375 14.109375 22.625 23.890625 
Q 32.328125 33.6875 34.8125 36.53125 
Q 39.546875 41.84375 41.421875 45.53125 
Q 43.3125 49.21875 43.3125 52.78125 
Q 43.3125 58.59375 39.234375 62.25 
Q 35.15625 65.921875 28.609375 65.921875 
Q 23.96875 65.921875 18.8125 64.3125 
Q 13.671875 62.703125 7.8125 59.421875 
L 7.8125 69.390625 
Q 13.765625 71.78125 18.9375 73 
Q 24.125 74.21875 28.421875 74.21875 
Q 39.75 74.21875 46.484375 68.546875 
Q 53.21875 62.890625 53.21875 53.421875 
Q 53.21875 48.921875 51.53125 44.890625 
Q 49.859375 40.875 45.40625 35.40625 
Q 44.1875 33.984375 37.640625 27.21875 
Q 31.109375 20.453125 19.1875 8.296875 
z
" id="DejaVuSans-50"/>
       </defs>
       <use xlink:href="#DejaVuSans-8722"/>
       <use x="83.789062" xlink:href="#DejaVuSans-49"/>
       <use x="147.412109" xlink:href="#DejaVuSans-46"/>
       <use x="179.199219" xlink:href="#DejaVuSans-50"/>
      </g>
     </g>
    </g>
    <g id="ytick_3">
     <g id="line2d_10">
      <g>
       <use style="stroke:#000000;stroke-width:0.8;" x="81" xlink:href="#m9afb34cc81" y="363.884129"/>
      </g>
     </g>
     <g id="text_11">
      <!-- −1.0 -->
      <g transform="translate(49.717187 367.683348)scale(0.1 -0.1)">
       <use xlink:href="#DejaVuSans-8722"/>
       <use x="83.789062" xlink:href="#DejaVuSans-49"/>
       <use x="147.412109" xlink:href="#DejaVuSans-46"/>
       <use x="179.199219" xlink:href="#DejaVuSans-48"/>
      </g>
     </g>
    </g>
    <g id="ytick_4">
     <g id="line2d_11">
      <g>
       <use style="stroke:#000000;stroke-width:0.8;" x="81" xlink:href="#m9afb34cc81" y="314.300204"/>
      </g>
     </g>
     <g id="text_12">
      <!-- −0.8 -->
      <g transform="translate(49.717187 318.099423)scale(0.1 -0.1)">
       <defs>
        <path d="M 31.78125 34.625 
Q 24.75 34.625 20.71875 30.859375 
Q 16.703125 27.09375 16.703125 20.515625 
Q 16.703125 13.921875 20.71875 10.15625 
Q 24.75 6.390625 31.78125 6.390625 
Q 38.8125 6.390625 42.859375 10.171875 
Q 46.921875 13.96875 46.921875 20.515625 
Q 46.921875 27.09375 42.890625 30.859375 
Q 38.875 34.625 31.78125 34.625 
z
M 21.921875 38.8125 
Q 15.578125 40.375 12.03125 44.71875 
Q 8.5 49.078125 8.5 55.328125 
Q 8.5 64.0625 14.71875 69.140625 
Q 20.953125 74.21875 31.78125 74.21875 
Q 42.671875 74.21875 48.875 69.140625 
Q 55.078125 64.0625 55.078125 55.328125 
Q 55.078125 49.078125 51.53125 44.71875 
Q 48 40.375 41.703125 38.8125 
Q 48.828125 37.15625 52.796875 32.3125 
Q 56.78125 27.484375 56.78125 20.515625 
Q 56.78125 9.90625 50.3125 4.234375 
Q 43.84375 -1.421875 31.78125 -1.421875 
Q 19.734375 -1.421875 13.25 4.234375 
Q 6.78125 9.90625 6.78125 20.515625 
Q 6.78125 27.484375 10.78125 32.3125 
Q 14.796875 37.15625 21.921875 38.8125 
z
M 18.3125 54.390625 
Q 18.3125 48.734375 21.84375 45.5625 
Q 25.390625 42.390625 31.78125 42.390625 
Q 38.140625 42.390625 41.71875 45.5625 
Q 45.3125 48.734375 45.3125 54.390625 
Q 45.3125 60.0625 41.71875 63.234375 
Q 38.140625 66.40625 31.78125 66.40625 
Q 25.390625 66.40625 21.84375 63.234375 
Q 18.3125 60.0625 18.3125 54.390625 
z
" id="DejaVuSans-56"/>
       </defs>
       <use xlink:href="#DejaVuSans-8722"/>
       <use x="83.789062" xlink:href="#DejaVuSans-48"/>
       <use x="147.412109" xlink:href="#DejaVuSans-46"/>
       <use x="179.199219" xlink:href="#DejaVuSans-56"/>
      </g>
     </g>
    </g>
    <g id="ytick_5">
     <g id="line2d_12">
      <g>
       <use style="stroke:#000000;stroke-width:0.8;" x="81" xlink:href="#m9afb34cc81" y="264.716279"/>
      </g>
     </g>
     <g id="text_13">
      <!-- −0.6 -->
      <g transform="translate(49.717187 268.515498)scale(0.1 -0.1)">
       <defs>
        <path d="M 33.015625 40.375 
Q 26.375 40.375 22.484375 35.828125 
Q 18.609375 31.296875 18.609375 23.390625 
Q 18.609375 15.53125 22.484375 10.953125 
Q 26.375 6.390625 33.015625 6.390625 
Q 39.65625 6.390625 43.53125 10.953125 
Q 47.40625 15.53125 47.40625 23.390625 
Q 47.40625 31.296875 43.53125 35.828125 
Q 39.65625 40.375 33.015625 40.375 
z
M 52.59375 71.296875 
L 52.59375 62.3125 
Q 48.875 64.0625 45.09375 64.984375 
Q 41.3125 65.921875 37.59375 65.921875 
Q 27.828125 65.921875 22.671875 59.328125 
Q 17.53125 52.734375 16.796875 39.40625 
Q 19.671875 43.65625 24.015625 45.921875 
Q 28.375 48.1875 33.59375 48.1875 
Q 44.578125 48.1875 50.953125 41.515625 
Q 57.328125 34.859375 57.328125 23.390625 
Q 57.328125 12.15625 50.6875 5.359375 
Q 44.046875 -1.421875 33.015625 -1.421875 
Q 20.359375 -1.421875 13.671875 8.265625 
Q 6.984375 17.96875 6.984375 36.375 
Q 6.984375 53.65625 15.1875 63.9375 
Q 23.390625 74.21875 37.203125 74.21875 
Q 40.921875 74.21875 44.703125 73.484375 
Q 48.484375 72.75 52.59375 71.296875 
z
" id="DejaVuSans-54"/>
       </defs>
       <use xlink:href="#DejaVuSans-8722"/>
       <use x="83.789062" xlink:href="#DejaVuSans-48"/>
       <use x="147.412109" xlink:href="#DejaVuSans-46"/>
       <use x="179.199219" xlink:href="#DejaVuSans-54"/>
      </g>
     </g>
    </g>
    <g id="ytick_6">
     <g id="line2d_13">
      <g>
       <use style="stroke:#000000;stroke-width:0.8;" x="81" xlink:href="#m9afb34cc81" y="215.132355"/>
      </g>
     </g>
     <g id="text_14">
      <!-- −0.4 -->
      <g transform="translate(49.717187 218.931573)scale(0.1 -0.1)">
       <use xlink:href="#DejaVuSans-8722"/>
       <use x="83.789062" xlink:href="#DejaVuSans-48"/>
       <use x="147.412109" xlink:href="#DejaVuSans-46"/>
       <use x="179.199219" xlink:href="#DejaVuSans-52"/>
      </g>
     </g>
    </g>
    <g id="ytick_7">
     <g id="line2d_14">
      <g>
       <use style="stroke:#000000;stroke-width:0.8;" x="81" xlink:href="#m9afb34cc81" y="165.54843"/>
      </g>
     </g>
     <g id="text_15">
      <!-- −0.2 -->
      <g transform="translate(49.717187 169.347649)scale(0.1 -0.1)">
       <use xlink:href="#DejaVuSans-8722"/>
       <use x="83.789062" xlink:href="#DejaVuSans-48"/>
       <use x="147.412109" xlink:href="#DejaVuSans-46"/>
       <use x="179.199219" xlink:href="#DejaVuSans-50"/>
      </g>
     </g>
    </g>
    <g id="ytick_8">
     <g id="line2d_15">
      <g>
       <use style="stroke:#000000;stroke-width:0.8;" x="81" xlink:href="#m9afb34cc81" y="115.964505"/>
      </g>
     </g>
     <g id="text_16">
      <!-- 0.0 -->
      <g transform="translate(58.096875 119.763724)scale(0.1 -0.1)">
       <use xlink:href="#DejaVuSans-48"/>
       <use x="63.623047" xlink:href="#DejaVuSans-46"/>
       <use x="95.410156" xlink:href="#DejaVuSans-48"/>
      </g>
     </g>
    </g>
    <g id="text_17">
     <!-- Log Odd Parent Mean Pairwise Distance -->
     <g transform="translate(43.6375 385.667813)rotate(-90)scale(0.1 -0.1)">
      <use xlink:href="#DejaVuSans-76"/>
      <use x="53.962891" xlink:href="#DejaVuSans-111"/>
      <use x="115.144531" xlink:href="#DejaVuSans-103"/>
      <use x="178.621094" xlink:href="#DejaVuSans-32"/>
      <use x="210.408203" xlink:href="#DejaVuSans-79"/>
      <use x="289.119141" xlink:href="#DejaVuSans-100"/>
      <use x="352.595703" xlink:href="#DejaVuSans-100"/>
      <use x="416.072266" xlink:href="#DejaVuSans-32"/>
      <use x="447.859375" xlink:href="#DejaVuSans-80"/>
      <use x="503.662109" xlink:href="#DejaVuSans-97"/>
      <use x="564.941406" xlink:href="#DejaVuSans-114"/>
      <use x="603.804688" xlink:href="#DejaVuSans-101"/>
      <use x="665.328125" xlink:href="#DejaVuSans-110"/>
      <use x="728.707031" xlink:href="#DejaVuSans-116"/>
      <use x="767.916016" xlink:href="#DejaVuSans-32"/>
      <use x="799.703125" xlink:href="#DejaVuSans-77"/>
      <use x="885.982422" xlink:href="#DejaVuSans-101"/>
      <use x="947.505859" xlink:href="#DejaVuSans-97"/>
      <use x="1008.785156" xlink:href="#DejaVuSans-110"/>
      <use x="1072.164062" xlink:href="#DejaVuSans-32"/>
      <use x="1103.951172" xlink:href="#DejaVuSans-80"/>
      <use x="1159.753906" xlink:href="#DejaVuSans-97"/>
      <use x="1221.033203" xlink:href="#DejaVuSans-105"/>
      <use x="1248.816406" xlink:href="#DejaVuSans-114"/>
      <use x="1289.929688" xlink:href="#DejaVuSans-119"/>
      <use x="1371.716797" xlink:href="#DejaVuSans-105"/>
      <use x="1399.5" xlink:href="#DejaVuSans-115"/>
      <use x="1451.599609" xlink:href="#DejaVuSans-101"/>
      <use x="1513.123047" xlink:href="#DejaVuSans-32"/>
      <use x="1544.910156" xlink:href="#DejaVuSans-68"/>
      <use x="1621.912109" xlink:href="#DejaVuSans-105"/>
      <use x="1649.695312" xlink:href="#DejaVuSans-115"/>
      <use x="1701.794922" xlink:href="#DejaVuSans-116"/>
      <use x="1741.003906" xlink:href="#DejaVuSans-97"/>
      <use x="1802.283203" xlink:href="#DejaVuSans-110"/>
      <use x="1865.662109" xlink:href="#DejaVuSans-99"/>
      <use x="1920.642578" xlink:href="#DejaVuSans-101"/>
     </g>
    </g>
   </g>
   <g id="patch_3">
    <path d="M 81 504 
L 81 69.12 
" style="fill:none;stroke:#000000;stroke-linecap:square;stroke-linejoin:miter;stroke-width:0.8;"/>
   </g>
   <g id="patch_4">
    <path d="M 583.2 504 
L 583.2 69.12 
" style="fill:none;stroke:#000000;stroke-linecap:square;stroke-linejoin:miter;stroke-width:0.8;"/>
   </g>
   <g id="patch_5">
    <path d="M 81 504 
L 583.2 504 
" style="fill:none;stroke:#000000;stroke-linecap:square;stroke-linejoin:miter;stroke-width:0.8;"/>
   </g>
   <g id="patch_6">
    <path d="M 81 69.12 
L 583.2 69.12 
" style="fill:none;stroke:#000000;stroke-linecap:square;stroke-linejoin:miter;stroke-width:0.8;"/>
   </g>
   <g id="text_18">
    <!-- 0.0 -->
    <g style="fill:#999999;" transform="translate(298.410919 186.119232)scale(0.18 -0.18)">
     <use xlink:href="#DejaVuSans-48"/>
     <use x="63.623047" xlink:href="#DejaVuSans-46"/>
     <use x="95.410156" xlink:href="#DejaVuSans-48"/>
    </g>
   </g>
   <g id="text_19">
    <!-- 1.0 -->
    <g style="fill:#e69f00;" transform="translate(498.478041 130.806406)scale(0.18 -0.18)">
     <use xlink:href="#DejaVuSans-49"/>
     <use x="63.623047" xlink:href="#DejaVuSans-46"/>
     <use x="95.410156" xlink:href="#DejaVuSans-48"/>
    </g>
   </g>
   <g id="text_20">
    <!-- 2.0 -->
    <g style="fill:#56b4e9;" transform="translate(339.942193 195.683699)scale(0.18 -0.18)">
     <use xlink:href="#DejaVuSans-50"/>
     <use x="63.623047" xlink:href="#DejaVuSans-46"/>
     <use x="95.410156" xlink:href="#DejaVuSans-48"/>
    </g>
   </g>
   <g id="text_21">
    <!-- 3.0 -->
    <g style="fill:#009e73;" transform="translate(153.075512 430.772696)scale(0.18 -0.18)">
     <defs>
      <path d="M 40.578125 39.3125 
Q 47.65625 37.796875 51.625 33 
Q 55.609375 28.21875 55.609375 21.1875 
Q 55.609375 10.40625 48.1875 4.484375 
Q 40.765625 -1.421875 27.09375 -1.421875 
Q 22.515625 -1.421875 17.65625 -0.515625 
Q 12.796875 0.390625 7.625 2.203125 
L 7.625 11.71875 
Q 11.71875 9.328125 16.59375 8.109375 
Q 21.484375 6.890625 26.8125 6.890625 
Q 36.078125 6.890625 40.9375 10.546875 
Q 45.796875 14.203125 45.796875 21.1875 
Q 45.796875 27.640625 41.28125 31.265625 
Q 36.765625 34.90625 28.71875 34.90625 
L 20.21875 34.90625 
L 20.21875 43.015625 
L 29.109375 43.015625 
Q 36.375 43.015625 40.234375 45.921875 
Q 44.09375 48.828125 44.09375 54.296875 
Q 44.09375 59.90625 40.109375 62.90625 
Q 36.140625 65.921875 28.71875 65.921875 
Q 24.65625 65.921875 20.015625 65.03125 
Q 15.375 64.15625 9.8125 62.3125 
L 9.8125 71.09375 
Q 15.4375 72.65625 20.34375 73.4375 
Q 25.25 74.21875 29.59375 74.21875 
Q 40.828125 74.21875 47.359375 69.109375 
Q 53.90625 64.015625 53.90625 55.328125 
Q 53.90625 49.265625 50.4375 45.09375 
Q 46.96875 40.921875 40.578125 39.3125 
z
" id="DejaVuSans-51"/>
     </defs>
     <use xlink:href="#DejaVuSans-51"/>
     <use x="63.623047" xlink:href="#DejaVuSans-46"/>
     <use x="95.410156" xlink:href="#DejaVuSans-48"/>
    </g>
   </g>
   <g id="text_22">
    <!-- 4 -->
    <g style="fill:#f0e442;" transform="translate(434.268551 156.750298)scale(0.18 -0.18)">
     <use xlink:href="#DejaVuSans-52"/>
    </g>
   </g>
   <g id="text_23">
    <!-- 5 -->
    <g style="fill:#0072b2;" transform="translate(418.264372 156.43926)scale(0.18 -0.18)">
     <use xlink:href="#DejaVuSans-53"/>
    </g>
   </g>
   <g id="text_24">
    <!-- 6 -->
    <g style="fill:#d55e00;" transform="translate(323.567732 230.396881)scale(0.18 -0.18)">
     <use xlink:href="#DejaVuSans-54"/>
    </g>
   </g>
   <g id="text_25">
    <!-- 7.0 -->
    <g style="fill:#cc79a7;" transform="translate(371.098025 184.928534)scale(0.18 -0.18)">
     <defs>
      <path d="M 8.203125 72.90625 
L 55.078125 72.90625 
L 55.078125 68.703125 
L 28.609375 0 
L 18.3125 0 
L 43.21875 64.59375 
L 8.203125 64.59375 
z
" id="DejaVuSans-55"/>
     </defs>
     <use xlink:href="#DejaVuSans-55"/>
     <use x="63.623047" xlink:href="#DejaVuSans-46"/>
     <use x="95.410156" xlink:href="#DejaVuSans-48"/>
    </g>
   </g>
   <g id="text_26">
    <!-- 8.0 -->
    <g style="fill:#f46d43;" transform="translate(560.372727 88.887273)scale(0.18 -0.18)">
     <use xlink:href="#DejaVuSans-56"/>
     <use x="63.623047" xlink:href="#DejaVuSans-46"/>
     <use x="95.410156" xlink:href="#DejaVuSans-48"/>
    </g>
   </g>
   <g id="text_27">
    <!-- 9.0 -->
    <g style="fill:#abd9e9;" transform="translate(400.98998 144.313429)scale(0.18 -0.18)">
     <defs>
      <path d="M 10.984375 1.515625 
L 10.984375 10.5 
Q 14.703125 8.734375 18.5 7.8125 
Q 22.3125 6.890625 25.984375 6.890625 
Q 35.75 6.890625 40.890625 13.453125 
Q 46.046875 20.015625 46.78125 33.40625 
Q 43.953125 29.203125 39.59375 26.953125 
Q 35.25 24.703125 29.984375 24.703125 
Q 19.046875 24.703125 12.671875 31.3125 
Q 6.296875 37.9375 6.296875 49.421875 
Q 6.296875 60.640625 12.9375 67.421875 
Q 19.578125 74.21875 30.609375 74.21875 
Q 43.265625 74.21875 49.921875 64.515625 
Q 56.59375 54.828125 56.59375 36.375 
Q 56.59375 19.140625 48.40625 8.859375 
Q 40.234375 -1.421875 26.421875 -1.421875 
Q 22.703125 -1.421875 18.890625 -0.6875 
Q 15.09375 0.046875 10.984375 1.515625 
z
M 30.609375 32.421875 
Q 37.25 32.421875 41.125 36.953125 
Q 45.015625 41.5 45.015625 49.421875 
Q 45.015625 57.28125 41.125 61.84375 
Q 37.25 66.40625 30.609375 66.40625 
Q 23.96875 66.40625 20.09375 61.84375 
Q 16.21875 57.28125 16.21875 49.421875 
Q 16.21875 41.5 20.09375 36.953125 
Q 23.96875 32.421875 30.609375 32.421875 
z
" id="DejaVuSans-57"/>
     </defs>
     <use xlink:href="#DejaVuSans-57"/>
     <use x="63.623047" xlink:href="#DejaVuSans-46"/>
     <use x="95.410156" xlink:href="#DejaVuSans-48"/>
    </g>
   </g>
   <g id="text_28">
    <!-- 9.3 -->
    <g style="fill:#999999;" transform="translate(535.15776 90.894281)scale(0.18 -0.18)">
     <use xlink:href="#DejaVuSans-57"/>
     <use x="63.623047" xlink:href="#DejaVuSans-46"/>
     <use x="95.410156" xlink:href="#DejaVuSans-51"/>
    </g>
   </g>
   <g id="text_29">
    <!-- 9.2 -->
    <g style="fill:#e69f00;" transform="translate(253.486558 238.321312)scale(0.18 -0.18)">
     <use xlink:href="#DejaVuSans-57"/>
     <use x="63.623047" xlink:href="#DejaVuSans-46"/>
     <use x="95.410156" xlink:href="#DejaVuSans-50"/>
    </g>
   </g>
   <g id="text_30">
    <!-- 9.1 -->
    <g style="fill:#56b4e9;" transform="translate(103.827273 484.232727)scale(0.18 -0.18)">
     <use xlink:href="#DejaVuSans-57"/>
     <use x="63.623047" xlink:href="#DejaVuSans-46"/>
     <use x="95.410156" xlink:href="#DejaVuSans-49"/>
    </g>
   </g>
   <g id="text_31">
    <!-- 8.1 -->
    <g style="fill:#009e73;" transform="translate(356.801367 190.918869)scale(0.18 -0.18)">
     <use xlink:href="#DejaVuSans-56"/>
     <use x="63.623047" xlink:href="#DejaVuSans-46"/>
     <use x="95.410156" xlink:href="#DejaVuSans-49"/>
    </g>
   </g>
   <g id="text_32">
    <!-- 7.1 -->
    <g style="fill:#f0e442;" transform="translate(407.329303 169.074677)scale(0.18 -0.18)">
     <use xlink:href="#DejaVuSans-55"/>
     <use x="63.623047" xlink:href="#DejaVuSans-46"/>
     <use x="95.410156" xlink:href="#DejaVuSans-49"/>
    </g>
   </g>
   <g id="text_33">
    <!-- 3.1 -->
    <g style="fill:#d55e00;" transform="translate(258.392986 278.111831)scale(0.18 -0.18)">
     <use xlink:href="#DejaVuSans-51"/>
     <use x="63.623047" xlink:href="#DejaVuSans-46"/>
     <use x="95.410156" xlink:href="#DejaVuSans-49"/>
    </g>
   </g>
   <g id="text_34">
    <!-- 0.3 -->
    <g style="fill:#cc79a7;" transform="translate(327.209706 187.43804)scale(0.18 -0.18)">
     <use xlink:href="#DejaVuSans-48"/>
     <use x="63.623047" xlink:href="#DejaVuSans-46"/>
     <use x="95.410156" xlink:href="#DejaVuSans-51"/>
    </g>
   </g>
   <g id="text_35">
    <!-- 0.2 -->
    <g style="fill:#abd9e9;" transform="translate(314.685796 149.621726)scale(0.18 -0.18)">
     <use xlink:href="#DejaVuSans-48"/>
     <use x="63.623047" xlink:href="#DejaVuSans-46"/>
     <use x="95.410156" xlink:href="#DejaVuSans-50"/>
    </g>
   </g>
   <g id="text_36">
    <!-- uniprot OMP -->
    <g transform="translate(295.239375 63.12)scale(0.12 -0.12)">
     <defs>
      <path d="M 8.5 21.578125 
L 8.5 54.6875 
L 17.484375 54.6875 
L 17.484375 21.921875 
Q 17.484375 14.15625 20.5 10.265625 
Q 23.53125 6.390625 29.59375 6.390625 
Q 36.859375 6.390625 41.078125 11.03125 
Q 45.3125 15.671875 45.3125 23.6875 
L 45.3125 54.6875 
L 54.296875 54.6875 
L 54.296875 0 
L 45.3125 0 
L 45.3125 8.40625 
Q 42.046875 3.421875 37.71875 1 
Q 33.40625 -1.421875 27.6875 -1.421875 
Q 18.265625 -1.421875 13.375 4.4375 
Q 8.5 10.296875 8.5 21.578125 
z
M 31.109375 56 
z
" id="DejaVuSans-117"/>
      <path d="M 18.109375 8.203125 
L 18.109375 -20.796875 
L 9.078125 -20.796875 
L 9.078125 54.6875 
L 18.109375 54.6875 
L 18.109375 46.390625 
Q 20.953125 51.265625 25.265625 53.625 
Q 29.59375 56 35.59375 56 
Q 45.5625 56 51.78125 48.09375 
Q 58.015625 40.1875 58.015625 27.296875 
Q 58.015625 14.40625 51.78125 6.484375 
Q 45.5625 -1.421875 35.59375 -1.421875 
Q 29.59375 -1.421875 25.265625 0.953125 
Q 20.953125 3.328125 18.109375 8.203125 
z
M 48.6875 27.296875 
Q 48.6875 37.203125 44.609375 42.84375 
Q 40.53125 48.484375 33.40625 48.484375 
Q 26.265625 48.484375 22.1875 42.84375 
Q 18.109375 37.203125 18.109375 27.296875 
Q 18.109375 17.390625 22.1875 11.75 
Q 26.265625 6.109375 33.40625 6.109375 
Q 40.53125 6.109375 44.609375 11.75 
Q 48.6875 17.390625 48.6875 27.296875 
z
" id="DejaVuSans-112"/>
     </defs>
     <use xlink:href="#DejaVuSans-117"/>
     <use x="63.378906" xlink:href="#DejaVuSans-110"/>
     <use x="126.757812" xlink:href="#DejaVuSans-105"/>
     <use x="154.541016" xlink:href="#DejaVuSans-112"/>
     <use x="218.017578" xlink:href="#DejaVuSans-114"/>
     <use x="256.880859" xlink:href="#DejaVuSans-111"/>
     <use x="318.0625" xlink:href="#DejaVuSans-116"/>
     <use x="357.271484" xlink:href="#DejaVuSans-32"/>
     <use x="389.058594" xlink:href="#DejaVuSans-79"/>
     <use x="467.769531" xlink:href="#DejaVuSans-77"/>
     <use x="554.048828" xlink:href="#DejaVuSans-80"/>
    </g>
   </g>
  </g>
 </g>
 <defs>
  <clipPath id="p44a6fed85e">
   <rect height="434.88" width="502.2" x="81" y="69.12"/>
  </clipPath>
 </defs>
</svg>
