<?xml version="1.0" encoding="utf-8" standalone="no"?>
<!DOCTYPE svg PUBLIC "-//W3C//DTD SVG 1.1//EN"
  "http://www.w3.org/Graphics/SVG/1.1/DTD/svg11.dtd">
<!-- Created with matplotlib (https://matplotlib.org/) -->
<svg height="576pt" version="1.1" viewBox="0 0 648 576" width="648pt" xmlns="http://www.w3.org/2000/svg" xmlns:xlink="http://www.w3.org/1999/xlink">
 <metadata>
  <rdf:RDF xmlns:cc="http://creativecommons.org/ns#" xmlns:dc="http://purl.org/dc/elements/1.1/" xmlns:rdf="http://www.w3.org/1999/02/22-rdf-syntax-ns#">
   <cc:Work>
    <dc:type rdf:resource="http://purl.org/dc/dcmitype/StillImage"/>
    <dc:date>2023-03-28T13:01:54.430507</dc:date>
    <dc:format>image/svg+xml</dc:format>
    <dc:creator>
     <cc:Agent>
      <dc:title>Matplotlib v3.3.4, https://matplotlib.org/</dc:title>
     </cc:Agent>
    </dc:creator>
   </cc:Work>
  </rdf:RDF>
 </metadata>
 <defs>
  <style type="text/css">*{stroke-linecap:butt;stroke-linejoin:round;}</style>
 </defs>
 <g id="figure_1">
  <g id="patch_1">
   <path d="M 0 576 
L 648 576 
L 648 0 
L 0 0 
z
" style="fill:#ffffff;"/>
  </g>
  <g id="axes_1">
   <g id="patch_2">
    <path d="M 81 512.64 
L 583.2 512.64 
L 583.2 69.12 
L 81 69.12 
z
" style="fill:#ffffff;"/>
   </g>
   <g id="PathCollection_1">
    <path clip-path="url(#pf10105f098)" d="M 355.573186 201.706332 
C 361.540256 201.706332 367.263734 199.33559 371.483089 195.116235 
C 375.702445 190.896879 378.073186 185.173402 378.073186 179.206332 
C 378.073186 173.239262 375.702445 167.515785 371.483089 163.29643 
C 367.263734 159.077074 361.540256 156.706332 355.573186 156.706332 
C 349.606117 156.706332 343.882639 159.077074 339.663284 163.29643 
C 335.443928 167.515785 333.073186 173.239262 333.073186 179.206332 
C 333.073186 185.173402 335.443928 190.896879 339.663284 195.116235 
C 343.882639 199.33559 349.606117 201.706332 355.573186 201.706332 
z
" style="fill:#999999;stroke:#999999;"/>
    <path clip-path="url(#pf10105f098)" d="M 348.211923 210.045539 
C 350.200946 210.045539 352.108772 209.255291 353.515224 207.848839 
C 354.921675 206.442388 355.711923 204.534562 355.711923 202.545539 
C 355.711923 200.556515 354.921675 198.64869 353.515224 197.242238 
C 352.108772 195.835786 350.200946 195.045539 348.211923 195.045539 
C 346.222899 195.045539 344.315074 195.835786 342.908622 197.242238 
C 341.50217 198.64869 340.711923 200.556515 340.711923 202.545539 
C 340.711923 204.534562 341.50217 206.442388 342.908622 207.848839 
C 344.315074 209.255291 346.222899 210.045539 348.211923 210.045539 
z
" style="fill:#e69f00;stroke:#e69f00;"/>
    <path clip-path="url(#pf10105f098)" d="M 560.372727 98.962458 
C 562.940545 98.962458 565.403538 97.942253 567.219259 96.126532 
C 569.034981 94.31081 570.055186 91.847818 570.055186 89.28 
C 570.055186 86.712182 569.034981 84.24919 567.219259 82.433468 
C 565.403538 80.617747 562.940545 79.597542 560.372727 79.597542 
C 557.804909 79.597542 555.341917 80.617747 553.526195 82.433468 
C 551.710474 84.24919 550.690269 86.712182 550.690269 89.28 
C 550.690269 91.847818 551.710474 94.31081 553.526195 96.126532 
C 555.341917 97.942253 557.804909 98.962458 560.372727 98.962458 
z
" style="fill:#56b4e9;stroke:#56b4e9;"/>
    <path clip-path="url(#pf10105f098)" d="M 103.827273 503.936439 
C 106.865556 503.936439 109.779808 502.729317 111.928199 500.580926 
C 114.076589 498.432535 115.283712 495.518283 115.283712 492.48 
C 115.283712 489.441717 114.076589 486.527465 111.928199 484.379074 
C 109.779808 482.230683 106.865556 481.023561 103.827273 481.023561 
C 100.78899 481.023561 97.874738 482.230683 95.726347 484.379074 
C 93.577956 486.527465 92.370833 489.441717 92.370833 492.48 
C 92.370833 495.518283 93.577956 498.432535 95.726347 500.580926 
C 97.874738 502.729317 100.78899 503.936439 103.827273 503.936439 
z
" style="fill:#009e73;stroke:#009e73;"/>
    <path clip-path="url(#pf10105f098)" d="M 419.020697 178.996206 
C 421.588515 178.996206 424.051507 177.976001 425.867229 176.16028 
C 427.68295 174.344558 428.703155 171.881566 428.703155 169.313748 
C 428.703155 166.74593 427.68295 164.282937 425.867229 162.467216 
C 424.051507 160.651494 421.588515 159.63129 419.020697 159.63129 
C 416.452879 159.63129 413.989886 160.651494 412.174165 162.467216 
C 410.358443 164.282937 409.338238 166.74593 409.338238 169.313748 
C 409.338238 171.881566 410.358443 174.344558 412.174165 176.16028 
C 413.989886 177.976001 416.452879 178.996206 419.020697 178.996206 
z
" style="fill:#f0e442;stroke:#f0e442;"/>
    <path clip-path="url(#pf10105f098)" d="M 381.718255 165.253022 
C 384.531159 165.253022 387.229232 164.135443 389.218255 162.14642 
C 391.207278 160.157397 392.324857 157.459324 392.324857 154.64642 
C 392.324857 151.833516 391.207278 149.135443 389.218255 147.14642 
C 387.229232 145.157397 384.531159 144.039818 381.718255 144.039818 
C 378.905352 144.039818 376.207278 145.157397 374.218255 147.14642 
C 372.229232 149.135443 371.111654 151.833516 371.111654 154.64642 
C 371.111654 157.459324 372.229232 160.157397 374.218255 162.14642 
C 376.207278 164.135443 378.905352 165.253022 381.718255 165.253022 
z
" style="fill:#0072b2;stroke:#0072b2;"/>
    <path clip-path="url(#pf10105f098)" d="M 401.081377 180.403367 
C 404.11966 180.403367 407.033912 179.196244 409.182303 177.047853 
C 411.330693 174.899463 412.537816 171.985211 412.537816 168.946927 
C 412.537816 165.908644 411.330693 162.994392 409.182303 160.846002 
C 407.033912 158.697611 404.11966 157.490488 401.081377 157.490488 
C 398.043094 157.490488 395.128842 158.697611 392.980451 160.846002 
C 390.83206 162.994392 389.624938 165.908644 389.624938 168.946927 
C 389.624938 171.985211 390.83206 174.899463 392.980451 177.047853 
C 395.128842 179.196244 398.043094 180.403367 401.081377 180.403367 
z
" style="fill:#d55e00;stroke:#d55e00;"/>
    <path clip-path="url(#pf10105f098)" d="M 294.934516 266.774893 
C 297.74742 266.774893 300.445493 265.657314 302.434516 263.668291 
C 304.423539 261.679268 305.541118 258.981195 305.541118 256.168291 
C 305.541118 253.355387 304.423539 250.657314 302.434516 248.668291 
C 300.445493 246.679268 297.74742 245.561689 294.934516 245.561689 
C 292.121612 245.561689 289.423539 246.679268 287.434516 248.668291 
C 285.445493 250.657314 284.327914 253.355387 284.327914 256.168291 
C 284.327914 258.981195 285.445493 261.679268 287.434516 263.668291 
C 289.423539 265.657314 292.121612 266.774893 294.934516 266.774893 
z
" style="fill:#cc79a7;stroke:#cc79a7;"/>
    <path clip-path="url(#pf10105f098)" d="M 313.288891 230.842056 
C 317.429373 230.842056 321.400829 229.197025 324.328592 226.269262 
C 327.256355 223.341499 328.901386 219.370043 328.901386 215.229561 
C 328.901386 211.089079 327.256355 207.117623 324.328592 204.18986 
C 321.400829 201.262097 317.429373 199.617066 313.288891 199.617066 
C 309.148409 199.617066 305.176953 201.262097 302.24919 204.18986 
C 299.321427 207.117623 297.676396 211.089079 297.676396 215.229561 
C 297.676396 219.370043 299.321427 223.341499 302.24919 226.269262 
C 305.176953 229.197025 309.148409 230.842056 313.288891 230.842056 
z
" style="fill:#f46d43;stroke:#f46d43;"/>
    <path clip-path="url(#pf10105f098)" d="M 388.824097 193.53087 
C 391.391915 193.53087 393.854907 192.510665 395.670629 190.694944 
C 397.48635 188.879222 398.506555 186.41623 398.506555 183.848412 
C 398.506555 181.280594 397.48635 178.817602 395.670629 177.00188 
C 393.854907 175.186159 391.391915 174.165954 388.824097 174.165954 
C 386.256279 174.165954 383.793286 175.186159 381.977565 177.00188 
C 380.161843 178.817602 379.141638 181.280594 379.141638 183.848412 
C 379.141638 186.41623 380.161843 188.879222 381.977565 190.694944 
C 383.793286 192.510665 386.256279 193.53087 388.824097 193.53087 
z
" style="fill:#abd9e9;stroke:#abd9e9;"/>
    <path clip-path="url(#pf10105f098)" d="M 299.016859 211.62883 
C 300.640889 211.62883 302.198623 210.983596 303.346986 209.835233 
C 304.495349 208.68687 305.140583 207.129137 305.140583 205.505106 
C 305.140583 203.881075 304.495349 202.323342 303.346986 201.174979 
C 302.198623 200.026616 300.640889 199.381382 299.016859 199.381382 
C 297.392828 199.381382 295.835095 200.026616 294.686732 201.174979 
C 293.538368 202.323342 292.893134 203.881075 292.893134 205.505106 
C 292.893134 207.129137 293.538368 208.68687 294.686732 209.835233 
C 295.835095 210.983596 297.392828 211.62883 299.016859 211.62883 
z
" style="fill:#e69f00;stroke:#e69f00;"/>
    <path clip-path="url(#pf10105f098)" d="M 532.108898 99.146951 
C 534.097921 99.146951 536.005747 98.356703 537.412199 96.950251 
C 538.818651 95.5438 539.608898 93.635974 539.608898 91.646951 
C 539.608898 89.657927 538.818651 87.750102 537.412199 86.34365 
C 536.005747 84.937198 534.097921 84.146951 532.108898 84.146951 
C 530.119875 84.146951 528.212049 84.937198 526.805597 86.34365 
C 525.399146 87.750102 524.608898 89.657927 524.608898 91.646951 
C 524.608898 93.635974 525.399146 95.5438 526.805597 96.950251 
C 528.212049 98.356703 530.119875 99.146951 532.108898 99.146951 
z
" style="fill:#009e73;stroke:#009e73;"/>
    <path clip-path="url(#pf10105f098)" d="M 505.174662 148.839654 
C 508.422723 148.839654 511.53819 147.549186 513.834916 145.25246 
C 516.131642 142.955733 517.422111 139.840267 517.422111 136.592205 
C 517.422111 133.344144 516.131642 130.228678 513.834916 127.931951 
C 511.53819 125.635225 508.422723 124.344757 505.174662 124.344757 
C 501.926601 124.344757 498.811134 125.635225 496.514408 127.931951 
C 494.217682 130.228678 492.927213 133.344144 492.927213 136.592205 
C 492.927213 139.840267 494.217682 142.955733 496.514408 145.25246 
C 498.811134 147.549186 501.926601 148.839654 505.174662 148.839654 
z
" style="fill:#f0e442;stroke:#f0e442;"/>
    <path clip-path="url(#pf10105f098)" d="M 200.748586 378.208299 
C 202.372616 378.208299 203.93035 377.563064 205.078713 376.414701 
C 206.227076 375.266338 206.87231 373.708605 206.87231 372.084574 
C 206.87231 370.460544 206.227076 368.90281 205.078713 367.754447 
C 203.93035 366.606084 202.372616 365.96085 200.748586 365.96085 
C 199.124555 365.96085 197.566822 366.606084 196.418459 367.754447 
C 195.270096 368.90281 194.624861 370.460544 194.624861 372.084574 
C 194.624861 373.708605 195.270096 375.266338 196.418459 376.414701 
C 197.566822 377.563064 199.124555 378.208299 200.748586 378.208299 
z
" style="fill:#d55e00;stroke:#d55e00;"/>
    <path clip-path="url(#pf10105f098)" d="M 318.220809 227.784585 
C 320.209832 227.784585 322.117658 226.994337 323.524109 225.587886 
C 324.930561 224.181434 325.720809 222.273608 325.720809 220.284585 
C 325.720809 218.295561 324.930561 216.387736 323.524109 214.981284 
C 322.117658 213.574832 320.209832 212.784585 318.220809 212.784585 
C 316.231785 212.784585 314.32396 213.574832 312.917508 214.981284 
C 311.511056 216.387736 310.720809 218.295561 310.720809 220.284585 
C 310.720809 222.273608 311.511056 224.181434 312.917508 225.587886 
C 314.32396 226.994337 316.231785 227.784585 318.220809 227.784585 
z
" style="fill:#cc79a7;stroke:#cc79a7;"/>
    <path clip-path="url(#pf10105f098)" d="M 332.186588 221.857644 
C 335.434649 221.857644 338.550116 220.567175 340.846842 218.270449 
C 343.143568 215.973723 344.434037 212.858256 344.434037 209.610195 
C 344.434037 206.362134 343.143568 203.246667 340.846842 200.949941 
C 338.550116 198.653215 335.434649 197.362746 332.186588 197.362746 
C 328.938527 197.362746 325.82306 198.653215 323.526334 200.949941 
C 321.229608 203.246667 319.939139 206.362134 319.939139 209.610195 
C 319.939139 212.858256 321.229608 215.973723 323.526334 218.270449 
C 325.82306 220.567175 328.938527 221.857644 332.186588 221.857644 
z
" style="fill:#f46d43;stroke:#f46d43;"/>
    <path clip-path="url(#pf10105f098)" d="M 221.879182 318.564283 
C 223.503213 318.564283 225.060946 317.919049 226.209309 316.770685 
C 227.357672 315.622322 228.002906 314.064589 228.002906 312.440558 
C 228.002906 310.816528 227.357672 309.258795 226.209309 308.110431 
C 225.060946 306.962068 223.503213 306.316834 221.879182 306.316834 
C 220.255151 306.316834 218.697418 306.962068 217.549055 308.110431 
C 216.400692 309.258795 215.755458 310.816528 215.755458 312.440558 
C 215.755458 314.064589 216.400692 315.622322 217.549055 316.770685 
C 218.697418 317.919049 220.255151 318.564283 221.879182 318.564283 
z
" style="fill:#abd9e9;stroke:#abd9e9;"/>
    <path clip-path="url(#pf10105f098)" d="M 453.452506 170.619595 
C 455.44153 170.619595 457.349356 169.829347 458.755807 168.422896 
C 460.162259 167.016444 460.952506 165.108618 460.952506 163.119595 
C 460.952506 161.130572 460.162259 159.222746 458.755807 157.816294 
C 457.349356 156.409842 455.44153 155.619595 453.452506 155.619595 
C 451.463483 155.619595 449.555657 156.409842 448.149206 157.816294 
C 446.742754 159.222746 445.952506 161.130572 445.952506 163.119595 
C 445.952506 165.108618 446.742754 167.016444 448.149206 168.422896 
C 449.555657 169.829347 451.463483 170.619595 453.452506 170.619595 
z
" style="fill:#999999;stroke:#999999;"/>
    <path clip-path="url(#pf10105f098)" d="M 302.473677 247.098737 
C 304.462701 247.098737 306.370526 246.30849 307.776978 244.902038 
C 309.18343 243.495586 309.973677 241.587761 309.973677 239.598737 
C 309.973677 237.609714 309.18343 235.701888 307.776978 234.295437 
C 306.370526 232.888985 304.462701 232.098737 302.473677 232.098737 
C 300.484654 232.098737 298.576828 232.888985 297.170376 234.295437 
C 295.763925 235.701888 294.973677 237.609714 294.973677 239.598737 
C 294.973677 241.587761 295.763925 243.495586 297.170376 244.902038 
C 298.576828 246.30849 300.484654 247.098737 302.473677 247.098737 
z
" style="fill:#56b4e9;stroke:#56b4e9;"/>
   </g>
   <g id="matplotlib.axis_1">
    <g id="xtick_1">
     <g id="line2d_1">
      <defs>
       <path d="M 0 0 
L 0 3.5 
" id="ma250da86bf" style="stroke:#000000;stroke-width:0.8;"/>
      </defs>
      <g>
       <use style="stroke:#000000;stroke-width:0.8;" x="134.292822" xlink:href="#ma250da86bf" y="512.64"/>
      </g>
     </g>
     <g id="text_1">
      <!-- −1.0 -->
      <g transform="translate(122.151416 527.238438)scale(0.1 -0.1)">
       <defs>
        <path d="M 10.59375 35.5 
L 73.1875 35.5 
L 73.1875 27.203125 
L 10.59375 27.203125 
z
" id="DejaVuSans-8722"/>
        <path d="M 12.40625 8.296875 
L 28.515625 8.296875 
L 28.515625 63.921875 
L 10.984375 60.40625 
L 10.984375 69.390625 
L 28.421875 72.90625 
L 38.28125 72.90625 
L 38.28125 8.296875 
L 54.390625 8.296875 
L 54.390625 0 
L 12.40625 0 
z
" id="DejaVuSans-49"/>
        <path d="M 10.6875 12.40625 
L 21 12.40625 
L 21 0 
L 10.6875 0 
z
" id="DejaVuSans-46"/>
        <path d="M 31.78125 66.40625 
Q 24.171875 66.40625 20.328125 58.90625 
Q 16.5 51.421875 16.5 36.375 
Q 16.5 21.390625 20.328125 13.890625 
Q 24.171875 6.390625 31.78125 6.390625 
Q 39.453125 6.390625 43.28125 13.890625 
Q 47.125 21.390625 47.125 36.375 
Q 47.125 51.421875 43.28125 58.90625 
Q 39.453125 66.40625 31.78125 66.40625 
z
M 31.78125 74.21875 
Q 44.046875 74.21875 50.515625 64.515625 
Q 56.984375 54.828125 56.984375 36.375 
Q 56.984375 17.96875 50.515625 8.265625 
Q 44.046875 -1.421875 31.78125 -1.421875 
Q 19.53125 -1.421875 13.0625 8.265625 
Q 6.59375 17.96875 6.59375 36.375 
Q 6.59375 54.828125 13.0625 64.515625 
Q 19.53125 74.21875 31.78125 74.21875 
z
" id="DejaVuSans-48"/>
       </defs>
       <use xlink:href="#DejaVuSans-8722"/>
       <use x="83.789062" xlink:href="#DejaVuSans-49"/>
       <use x="147.412109" xlink:href="#DejaVuSans-46"/>
       <use x="179.199219" xlink:href="#DejaVuSans-48"/>
      </g>
     </g>
    </g>
    <g id="xtick_2">
     <g id="line2d_2">
      <g>
       <use style="stroke:#000000;stroke-width:0.8;" x="218.287892" xlink:href="#ma250da86bf" y="512.64"/>
      </g>
     </g>
     <g id="text_2">
      <!-- −0.5 -->
      <g transform="translate(206.146485 527.238438)scale(0.1 -0.1)">
       <defs>
        <path d="M 10.796875 72.90625 
L 49.515625 72.90625 
L 49.515625 64.59375 
L 19.828125 64.59375 
L 19.828125 46.734375 
Q 21.96875 47.46875 24.109375 47.828125 
Q 26.265625 48.1875 28.421875 48.1875 
Q 40.625 48.1875 47.75 41.5 
Q 54.890625 34.8125 54.890625 23.390625 
Q 54.890625 11.625 47.5625 5.09375 
Q 40.234375 -1.421875 26.90625 -1.421875 
Q 22.3125 -1.421875 17.546875 -0.640625 
Q 12.796875 0.140625 7.71875 1.703125 
L 7.71875 11.625 
Q 12.109375 9.234375 16.796875 8.0625 
Q 21.484375 6.890625 26.703125 6.890625 
Q 35.15625 6.890625 40.078125 11.328125 
Q 45.015625 15.765625 45.015625 23.390625 
Q 45.015625 31 40.078125 35.4375 
Q 35.15625 39.890625 26.703125 39.890625 
Q 22.75 39.890625 18.8125 39.015625 
Q 14.890625 38.140625 10.796875 36.28125 
z
" id="DejaVuSans-53"/>
       </defs>
       <use xlink:href="#DejaVuSans-8722"/>
       <use x="83.789062" xlink:href="#DejaVuSans-48"/>
       <use x="147.412109" xlink:href="#DejaVuSans-46"/>
       <use x="179.199219" xlink:href="#DejaVuSans-53"/>
      </g>
     </g>
    </g>
    <g id="xtick_3">
     <g id="line2d_3">
      <g>
       <use style="stroke:#000000;stroke-width:0.8;" x="302.282961" xlink:href="#ma250da86bf" y="512.64"/>
      </g>
     </g>
     <g id="text_3">
      <!-- 0.0 -->
      <g transform="translate(294.331398 527.238438)scale(0.1 -0.1)">
       <use xlink:href="#DejaVuSans-48"/>
       <use x="63.623047" xlink:href="#DejaVuSans-46"/>
       <use x="95.410156" xlink:href="#DejaVuSans-48"/>
      </g>
     </g>
    </g>
    <g id="xtick_4">
     <g id="line2d_4">
      <g>
       <use style="stroke:#000000;stroke-width:0.8;" x="386.27803" xlink:href="#ma250da86bf" y="512.64"/>
      </g>
     </g>
     <g id="text_4">
      <!-- 0.5 -->
      <g transform="translate(378.326468 527.238438)scale(0.1 -0.1)">
       <use xlink:href="#DejaVuSans-48"/>
       <use x="63.623047" xlink:href="#DejaVuSans-46"/>
       <use x="95.410156" xlink:href="#DejaVuSans-53"/>
      </g>
     </g>
    </g>
    <g id="xtick_5">
     <g id="line2d_5">
      <g>
       <use style="stroke:#000000;stroke-width:0.8;" x="470.273099" xlink:href="#ma250da86bf" y="512.64"/>
      </g>
     </g>
     <g id="text_5">
      <!-- 1.0 -->
      <g transform="translate(462.321537 527.238438)scale(0.1 -0.1)">
       <use xlink:href="#DejaVuSans-49"/>
       <use x="63.623047" xlink:href="#DejaVuSans-46"/>
       <use x="95.410156" xlink:href="#DejaVuSans-48"/>
      </g>
     </g>
    </g>
    <g id="xtick_6">
     <g id="line2d_6">
      <g>
       <use style="stroke:#000000;stroke-width:0.8;" x="554.268169" xlink:href="#ma250da86bf" y="512.64"/>
      </g>
     </g>
     <g id="text_6">
      <!-- 1.5 -->
      <g transform="translate(546.316606 527.238438)scale(0.1 -0.1)">
       <use xlink:href="#DejaVuSans-49"/>
       <use x="63.623047" xlink:href="#DejaVuSans-46"/>
       <use x="95.410156" xlink:href="#DejaVuSans-53"/>
      </g>
     </g>
    </g>
    <g id="text_7">
     <!-- Log Odd Tree Mean Pairwise Distance -->
     <g transform="translate(238.582031 540.916563)scale(0.1 -0.1)">
      <defs>
       <path d="M 9.8125 72.90625 
L 19.671875 72.90625 
L 19.671875 8.296875 
L 55.171875 8.296875 
L 55.171875 0 
L 9.8125 0 
z
" id="DejaVuSans-76"/>
       <path d="M 30.609375 48.390625 
Q 23.390625 48.390625 19.1875 42.75 
Q 14.984375 37.109375 14.984375 27.296875 
Q 14.984375 17.484375 19.15625 11.84375 
Q 23.34375 6.203125 30.609375 6.203125 
Q 37.796875 6.203125 41.984375 11.859375 
Q 46.1875 17.53125 46.1875 27.296875 
Q 46.1875 37.015625 41.984375 42.703125 
Q 37.796875 48.390625 30.609375 48.390625 
z
M 30.609375 56 
Q 42.328125 56 49.015625 48.375 
Q 55.71875 40.765625 55.71875 27.296875 
Q 55.71875 13.875 49.015625 6.21875 
Q 42.328125 -1.421875 30.609375 -1.421875 
Q 18.84375 -1.421875 12.171875 6.21875 
Q 5.515625 13.875 5.515625 27.296875 
Q 5.515625 40.765625 12.171875 48.375 
Q 18.84375 56 30.609375 56 
z
" id="DejaVuSans-111"/>
       <path d="M 45.40625 27.984375 
Q 45.40625 37.75 41.375 43.109375 
Q 37.359375 48.484375 30.078125 48.484375 
Q 22.859375 48.484375 18.828125 43.109375 
Q 14.796875 37.75 14.796875 27.984375 
Q 14.796875 18.265625 18.828125 12.890625 
Q 22.859375 7.515625 30.078125 7.515625 
Q 37.359375 7.515625 41.375 12.890625 
Q 45.40625 18.265625 45.40625 27.984375 
z
M 54.390625 6.78125 
Q 54.390625 -7.171875 48.1875 -13.984375 
Q 42 -20.796875 29.203125 -20.796875 
Q 24.46875 -20.796875 20.265625 -20.09375 
Q 16.0625 -19.390625 12.109375 -17.921875 
L 12.109375 -9.1875 
Q 16.0625 -11.328125 19.921875 -12.34375 
Q 23.78125 -13.375 27.78125 -13.375 
Q 36.625 -13.375 41.015625 -8.765625 
Q 45.40625 -4.15625 45.40625 5.171875 
L 45.40625 9.625 
Q 42.625 4.78125 38.28125 2.390625 
Q 33.9375 0 27.875 0 
Q 17.828125 0 11.671875 7.65625 
Q 5.515625 15.328125 5.515625 27.984375 
Q 5.515625 40.671875 11.671875 48.328125 
Q 17.828125 56 27.875 56 
Q 33.9375 56 38.28125 53.609375 
Q 42.625 51.21875 45.40625 46.390625 
L 45.40625 54.6875 
L 54.390625 54.6875 
z
" id="DejaVuSans-103"/>
       <path id="DejaVuSans-32"/>
       <path d="M 39.40625 66.21875 
Q 28.65625 66.21875 22.328125 58.203125 
Q 16.015625 50.203125 16.015625 36.375 
Q 16.015625 22.609375 22.328125 14.59375 
Q 28.65625 6.59375 39.40625 6.59375 
Q 50.140625 6.59375 56.421875 14.59375 
Q 62.703125 22.609375 62.703125 36.375 
Q 62.703125 50.203125 56.421875 58.203125 
Q 50.140625 66.21875 39.40625 66.21875 
z
M 39.40625 74.21875 
Q 54.734375 74.21875 63.90625 63.9375 
Q 73.09375 53.65625 73.09375 36.375 
Q 73.09375 19.140625 63.90625 8.859375 
Q 54.734375 -1.421875 39.40625 -1.421875 
Q 24.03125 -1.421875 14.8125 8.828125 
Q 5.609375 19.09375 5.609375 36.375 
Q 5.609375 53.65625 14.8125 63.9375 
Q 24.03125 74.21875 39.40625 74.21875 
z
" id="DejaVuSans-79"/>
       <path d="M 45.40625 46.390625 
L 45.40625 75.984375 
L 54.390625 75.984375 
L 54.390625 0 
L 45.40625 0 
L 45.40625 8.203125 
Q 42.578125 3.328125 38.25 0.953125 
Q 33.9375 -1.421875 27.875 -1.421875 
Q 17.96875 -1.421875 11.734375 6.484375 
Q 5.515625 14.40625 5.515625 27.296875 
Q 5.515625 40.1875 11.734375 48.09375 
Q 17.96875 56 27.875 56 
Q 33.9375 56 38.25 53.625 
Q 42.578125 51.265625 45.40625 46.390625 
z
M 14.796875 27.296875 
Q 14.796875 17.390625 18.875 11.75 
Q 22.953125 6.109375 30.078125 6.109375 
Q 37.203125 6.109375 41.296875 11.75 
Q 45.40625 17.390625 45.40625 27.296875 
Q 45.40625 37.203125 41.296875 42.84375 
Q 37.203125 48.484375 30.078125 48.484375 
Q 22.953125 48.484375 18.875 42.84375 
Q 14.796875 37.203125 14.796875 27.296875 
z
" id="DejaVuSans-100"/>
       <path d="M -0.296875 72.90625 
L 61.375 72.90625 
L 61.375 64.59375 
L 35.5 64.59375 
L 35.5 0 
L 25.59375 0 
L 25.59375 64.59375 
L -0.296875 64.59375 
z
" id="DejaVuSans-84"/>
       <path d="M 41.109375 46.296875 
Q 39.59375 47.171875 37.8125 47.578125 
Q 36.03125 48 33.890625 48 
Q 26.265625 48 22.1875 43.046875 
Q 18.109375 38.09375 18.109375 28.8125 
L 18.109375 0 
L 9.078125 0 
L 9.078125 54.6875 
L 18.109375 54.6875 
L 18.109375 46.1875 
Q 20.953125 51.171875 25.484375 53.578125 
Q 30.03125 56 36.53125 56 
Q 37.453125 56 38.578125 55.875 
Q 39.703125 55.765625 41.0625 55.515625 
z
" id="DejaVuSans-114"/>
       <path d="M 56.203125 29.59375 
L 56.203125 25.203125 
L 14.890625 25.203125 
Q 15.484375 15.921875 20.484375 11.0625 
Q 25.484375 6.203125 34.421875 6.203125 
Q 39.59375 6.203125 44.453125 7.46875 
Q 49.3125 8.734375 54.109375 11.28125 
L 54.109375 2.78125 
Q 49.265625 0.734375 44.1875 -0.34375 
Q 39.109375 -1.421875 33.890625 -1.421875 
Q 20.796875 -1.421875 13.15625 6.1875 
Q 5.515625 13.8125 5.515625 26.8125 
Q 5.515625 40.234375 12.765625 48.109375 
Q 20.015625 56 32.328125 56 
Q 43.359375 56 49.78125 48.890625 
Q 56.203125 41.796875 56.203125 29.59375 
z
M 47.21875 32.234375 
Q 47.125 39.59375 43.09375 43.984375 
Q 39.0625 48.390625 32.421875 48.390625 
Q 24.90625 48.390625 20.390625 44.140625 
Q 15.875 39.890625 15.1875 32.171875 
z
" id="DejaVuSans-101"/>
       <path d="M 9.8125 72.90625 
L 24.515625 72.90625 
L 43.109375 23.296875 
L 61.8125 72.90625 
L 76.515625 72.90625 
L 76.515625 0 
L 66.890625 0 
L 66.890625 64.015625 
L 48.09375 14.015625 
L 38.1875 14.015625 
L 19.390625 64.015625 
L 19.390625 0 
L 9.8125 0 
z
" id="DejaVuSans-77"/>
       <path d="M 34.28125 27.484375 
Q 23.390625 27.484375 19.1875 25 
Q 14.984375 22.515625 14.984375 16.5 
Q 14.984375 11.71875 18.140625 8.90625 
Q 21.296875 6.109375 26.703125 6.109375 
Q 34.1875 6.109375 38.703125 11.40625 
Q 43.21875 16.703125 43.21875 25.484375 
L 43.21875 27.484375 
z
M 52.203125 31.203125 
L 52.203125 0 
L 43.21875 0 
L 43.21875 8.296875 
Q 40.140625 3.328125 35.546875 0.953125 
Q 30.953125 -1.421875 24.3125 -1.421875 
Q 15.921875 -1.421875 10.953125 3.296875 
Q 6 8.015625 6 15.921875 
Q 6 25.140625 12.171875 29.828125 
Q 18.359375 34.515625 30.609375 34.515625 
L 43.21875 34.515625 
L 43.21875 35.40625 
Q 43.21875 41.609375 39.140625 45 
Q 35.0625 48.390625 27.6875 48.390625 
Q 23 48.390625 18.546875 47.265625 
Q 14.109375 46.140625 10.015625 43.890625 
L 10.015625 52.203125 
Q 14.9375 54.109375 19.578125 55.046875 
Q 24.21875 56 28.609375 56 
Q 40.484375 56 46.34375 49.84375 
Q 52.203125 43.703125 52.203125 31.203125 
z
" id="DejaVuSans-97"/>
       <path d="M 54.890625 33.015625 
L 54.890625 0 
L 45.90625 0 
L 45.90625 32.71875 
Q 45.90625 40.484375 42.875 44.328125 
Q 39.84375 48.1875 33.796875 48.1875 
Q 26.515625 48.1875 22.3125 43.546875 
Q 18.109375 38.921875 18.109375 30.90625 
L 18.109375 0 
L 9.078125 0 
L 9.078125 54.6875 
L 18.109375 54.6875 
L 18.109375 46.1875 
Q 21.34375 51.125 25.703125 53.5625 
Q 30.078125 56 35.796875 56 
Q 45.21875 56 50.046875 50.171875 
Q 54.890625 44.34375 54.890625 33.015625 
z
" id="DejaVuSans-110"/>
       <path d="M 19.671875 64.796875 
L 19.671875 37.40625 
L 32.078125 37.40625 
Q 38.96875 37.40625 42.71875 40.96875 
Q 46.484375 44.53125 46.484375 51.125 
Q 46.484375 57.671875 42.71875 61.234375 
Q 38.96875 64.796875 32.078125 64.796875 
z
M 9.8125 72.90625 
L 32.078125 72.90625 
Q 44.34375 72.90625 50.609375 67.359375 
Q 56.890625 61.8125 56.890625 51.125 
Q 56.890625 40.328125 50.609375 34.8125 
Q 44.34375 29.296875 32.078125 29.296875 
L 19.671875 29.296875 
L 19.671875 0 
L 9.8125 0 
z
" id="DejaVuSans-80"/>
       <path d="M 9.421875 54.6875 
L 18.40625 54.6875 
L 18.40625 0 
L 9.421875 0 
z
M 9.421875 75.984375 
L 18.40625 75.984375 
L 18.40625 64.59375 
L 9.421875 64.59375 
z
" id="DejaVuSans-105"/>
       <path d="M 4.203125 54.6875 
L 13.1875 54.6875 
L 24.421875 12.015625 
L 35.59375 54.6875 
L 46.1875 54.6875 
L 57.421875 12.015625 
L 68.609375 54.6875 
L 77.59375 54.6875 
L 63.28125 0 
L 52.6875 0 
L 40.921875 44.828125 
L 29.109375 0 
L 18.5 0 
z
" id="DejaVuSans-119"/>
       <path d="M 44.28125 53.078125 
L 44.28125 44.578125 
Q 40.484375 46.53125 36.375 47.5 
Q 32.28125 48.484375 27.875 48.484375 
Q 21.1875 48.484375 17.84375 46.4375 
Q 14.5 44.390625 14.5 40.28125 
Q 14.5 37.15625 16.890625 35.375 
Q 19.28125 33.59375 26.515625 31.984375 
L 29.59375 31.296875 
Q 39.15625 29.25 43.1875 25.515625 
Q 47.21875 21.78125 47.21875 15.09375 
Q 47.21875 7.46875 41.1875 3.015625 
Q 35.15625 -1.421875 24.609375 -1.421875 
Q 20.21875 -1.421875 15.453125 -0.5625 
Q 10.6875 0.296875 5.421875 2 
L 5.421875 11.28125 
Q 10.40625 8.6875 15.234375 7.390625 
Q 20.0625 6.109375 24.8125 6.109375 
Q 31.15625 6.109375 34.5625 8.28125 
Q 37.984375 10.453125 37.984375 14.40625 
Q 37.984375 18.0625 35.515625 20.015625 
Q 33.0625 21.96875 24.703125 23.78125 
L 21.578125 24.515625 
Q 13.234375 26.265625 9.515625 29.90625 
Q 5.8125 33.546875 5.8125 39.890625 
Q 5.8125 47.609375 11.28125 51.796875 
Q 16.75 56 26.8125 56 
Q 31.78125 56 36.171875 55.265625 
Q 40.578125 54.546875 44.28125 53.078125 
z
" id="DejaVuSans-115"/>
       <path d="M 19.671875 64.796875 
L 19.671875 8.109375 
L 31.59375 8.109375 
Q 46.6875 8.109375 53.6875 14.9375 
Q 60.6875 21.78125 60.6875 36.53125 
Q 60.6875 51.171875 53.6875 57.984375 
Q 46.6875 64.796875 31.59375 64.796875 
z
M 9.8125 72.90625 
L 30.078125 72.90625 
Q 51.265625 72.90625 61.171875 64.09375 
Q 71.09375 55.28125 71.09375 36.53125 
Q 71.09375 17.671875 61.125 8.828125 
Q 51.171875 0 30.078125 0 
L 9.8125 0 
z
" id="DejaVuSans-68"/>
       <path d="M 18.3125 70.21875 
L 18.3125 54.6875 
L 36.8125 54.6875 
L 36.8125 47.703125 
L 18.3125 47.703125 
L 18.3125 18.015625 
Q 18.3125 11.328125 20.140625 9.421875 
Q 21.96875 7.515625 27.59375 7.515625 
L 36.8125 7.515625 
L 36.8125 0 
L 27.59375 0 
Q 17.1875 0 13.234375 3.875 
Q 9.28125 7.765625 9.28125 18.015625 
L 9.28125 47.703125 
L 2.6875 47.703125 
L 2.6875 54.6875 
L 9.28125 54.6875 
L 9.28125 70.21875 
z
" id="DejaVuSans-116"/>
       <path d="M 48.78125 52.59375 
L 48.78125 44.1875 
Q 44.96875 46.296875 41.140625 47.34375 
Q 37.3125 48.390625 33.40625 48.390625 
Q 24.65625 48.390625 19.8125 42.84375 
Q 14.984375 37.3125 14.984375 27.296875 
Q 14.984375 17.28125 19.8125 11.734375 
Q 24.65625 6.203125 33.40625 6.203125 
Q 37.3125 6.203125 41.140625 7.25 
Q 44.96875 8.296875 48.78125 10.40625 
L 48.78125 2.09375 
Q 45.015625 0.34375 40.984375 -0.53125 
Q 36.96875 -1.421875 32.421875 -1.421875 
Q 20.0625 -1.421875 12.78125 6.34375 
Q 5.515625 14.109375 5.515625 27.296875 
Q 5.515625 40.671875 12.859375 48.328125 
Q 20.21875 56 33.015625 56 
Q 37.15625 56 41.109375 55.140625 
Q 45.0625 54.296875 48.78125 52.59375 
z
" id="DejaVuSans-99"/>
      </defs>
      <use xlink:href="#DejaVuSans-76"/>
      <use x="53.962891" xlink:href="#DejaVuSans-111"/>
      <use x="115.144531" xlink:href="#DejaVuSans-103"/>
      <use x="178.621094" xlink:href="#DejaVuSans-32"/>
      <use x="210.408203" xlink:href="#DejaVuSans-79"/>
      <use x="289.119141" xlink:href="#DejaVuSans-100"/>
      <use x="352.595703" xlink:href="#DejaVuSans-100"/>
      <use x="416.072266" xlink:href="#DejaVuSans-32"/>
      <use x="447.859375" xlink:href="#DejaVuSans-84"/>
      <use x="494.193359" xlink:href="#DejaVuSans-114"/>
      <use x="533.056641" xlink:href="#DejaVuSans-101"/>
      <use x="594.580078" xlink:href="#DejaVuSans-101"/>
      <use x="656.103516" xlink:href="#DejaVuSans-32"/>
      <use x="687.890625" xlink:href="#DejaVuSans-77"/>
      <use x="774.169922" xlink:href="#DejaVuSans-101"/>
      <use x="835.693359" xlink:href="#DejaVuSans-97"/>
      <use x="896.972656" xlink:href="#DejaVuSans-110"/>
      <use x="960.351562" xlink:href="#DejaVuSans-32"/>
      <use x="992.138672" xlink:href="#DejaVuSans-80"/>
      <use x="1047.941406" xlink:href="#DejaVuSans-97"/>
      <use x="1109.220703" xlink:href="#DejaVuSans-105"/>
      <use x="1137.003906" xlink:href="#DejaVuSans-114"/>
      <use x="1178.117188" xlink:href="#DejaVuSans-119"/>
      <use x="1259.904297" xlink:href="#DejaVuSans-105"/>
      <use x="1287.6875" xlink:href="#DejaVuSans-115"/>
      <use x="1339.787109" xlink:href="#DejaVuSans-101"/>
      <use x="1401.310547" xlink:href="#DejaVuSans-32"/>
      <use x="1433.097656" xlink:href="#DejaVuSans-68"/>
      <use x="1510.099609" xlink:href="#DejaVuSans-105"/>
      <use x="1537.882812" xlink:href="#DejaVuSans-115"/>
      <use x="1589.982422" xlink:href="#DejaVuSans-116"/>
      <use x="1629.191406" xlink:href="#DejaVuSans-97"/>
      <use x="1690.470703" xlink:href="#DejaVuSans-110"/>
      <use x="1753.849609" xlink:href="#DejaVuSans-99"/>
      <use x="1808.830078" xlink:href="#DejaVuSans-101"/>
     </g>
    </g>
   </g>
   <g id="matplotlib.axis_2">
    <g id="ytick_1">
     <g id="line2d_7">
      <defs>
       <path d="M 0 0 
L -3.5 0 
" id="mfecc6891d5" style="stroke:#000000;stroke-width:0.8;"/>
      </defs>
      <g>
       <use style="stroke:#000000;stroke-width:0.8;" x="81" xlink:href="#mfecc6891d5" y="472.0719"/>
      </g>
     </g>
     <g id="text_8">
      <!-- −1.2 -->
      <g transform="translate(49.717187 475.871119)scale(0.1 -0.1)">
       <defs>
        <path d="M 19.1875 8.296875 
L 53.609375 8.296875 
L 53.609375 0 
L 7.328125 0 
L 7.328125 8.296875 
Q 12.9375 14.109375 22.625 23.890625 
Q 32.328125 33.6875 34.8125 36.53125 
Q 39.546875 41.84375 41.421875 45.53125 
Q 43.3125 49.21875 43.3125 52.78125 
Q 43.3125 58.59375 39.234375 62.25 
Q 35.15625 65.921875 28.609375 65.921875 
Q 23.96875 65.921875 18.8125 64.3125 
Q 13.671875 62.703125 7.8125 59.421875 
L 7.8125 69.390625 
Q 13.765625 71.78125 18.9375 73 
Q 24.125 74.21875 28.421875 74.21875 
Q 39.75 74.21875 46.484375 68.546875 
Q 53.21875 62.890625 53.21875 53.421875 
Q 53.21875 48.921875 51.53125 44.890625 
Q 49.859375 40.875 45.40625 35.40625 
Q 44.1875 33.984375 37.640625 27.21875 
Q 31.109375 20.453125 19.1875 8.296875 
z
" id="DejaVuSans-50"/>
       </defs>
       <use xlink:href="#DejaVuSans-8722"/>
       <use x="83.789062" xlink:href="#DejaVuSans-49"/>
       <use x="147.412109" xlink:href="#DejaVuSans-46"/>
       <use x="179.199219" xlink:href="#DejaVuSans-50"/>
      </g>
     </g>
    </g>
    <g id="ytick_2">
     <g id="line2d_8">
      <g>
       <use style="stroke:#000000;stroke-width:0.8;" x="81" xlink:href="#mfecc6891d5" y="413.595472"/>
      </g>
     </g>
     <g id="text_9">
      <!-- −1.0 -->
      <g transform="translate(49.717187 417.394691)scale(0.1 -0.1)">
       <use xlink:href="#DejaVuSans-8722"/>
       <use x="83.789062" xlink:href="#DejaVuSans-49"/>
       <use x="147.412109" xlink:href="#DejaVuSans-46"/>
       <use x="179.199219" xlink:href="#DejaVuSans-48"/>
      </g>
     </g>
    </g>
    <g id="ytick_3">
     <g id="line2d_9">
      <g>
       <use style="stroke:#000000;stroke-width:0.8;" x="81" xlink:href="#mfecc6891d5" y="355.119044"/>
      </g>
     </g>
     <g id="text_10">
      <!-- −0.8 -->
      <g transform="translate(49.717187 358.918262)scale(0.1 -0.1)">
       <defs>
        <path d="M 31.78125 34.625 
Q 24.75 34.625 20.71875 30.859375 
Q 16.703125 27.09375 16.703125 20.515625 
Q 16.703125 13.921875 20.71875 10.15625 
Q 24.75 6.390625 31.78125 6.390625 
Q 38.8125 6.390625 42.859375 10.171875 
Q 46.921875 13.96875 46.921875 20.515625 
Q 46.921875 27.09375 42.890625 30.859375 
Q 38.875 34.625 31.78125 34.625 
z
M 21.921875 38.8125 
Q 15.578125 40.375 12.03125 44.71875 
Q 8.5 49.078125 8.5 55.328125 
Q 8.5 64.0625 14.71875 69.140625 
Q 20.953125 74.21875 31.78125 74.21875 
Q 42.671875 74.21875 48.875 69.140625 
Q 55.078125 64.0625 55.078125 55.328125 
Q 55.078125 49.078125 51.53125 44.71875 
Q 48 40.375 41.703125 38.8125 
Q 48.828125 37.15625 52.796875 32.3125 
Q 56.78125 27.484375 56.78125 20.515625 
Q 56.78125 9.90625 50.3125 4.234375 
Q 43.84375 -1.421875 31.78125 -1.421875 
Q 19.734375 -1.421875 13.25 4.234375 
Q 6.78125 9.90625 6.78125 20.515625 
Q 6.78125 27.484375 10.78125 32.3125 
Q 14.796875 37.15625 21.921875 38.8125 
z
M 18.3125 54.390625 
Q 18.3125 48.734375 21.84375 45.5625 
Q 25.390625 42.390625 31.78125 42.390625 
Q 38.140625 42.390625 41.71875 45.5625 
Q 45.3125 48.734375 45.3125 54.390625 
Q 45.3125 60.0625 41.71875 63.234375 
Q 38.140625 66.40625 31.78125 66.40625 
Q 25.390625 66.40625 21.84375 63.234375 
Q 18.3125 60.0625 18.3125 54.390625 
z
" id="DejaVuSans-56"/>
       </defs>
       <use xlink:href="#DejaVuSans-8722"/>
       <use x="83.789062" xlink:href="#DejaVuSans-48"/>
       <use x="147.412109" xlink:href="#DejaVuSans-46"/>
       <use x="179.199219" xlink:href="#DejaVuSans-56"/>
      </g>
     </g>
    </g>
    <g id="ytick_4">
     <g id="line2d_10">
      <g>
       <use style="stroke:#000000;stroke-width:0.8;" x="81" xlink:href="#mfecc6891d5" y="296.642615"/>
      </g>
     </g>
     <g id="text_11">
      <!-- −0.6 -->
      <g transform="translate(49.717187 300.441834)scale(0.1 -0.1)">
       <defs>
        <path d="M 33.015625 40.375 
Q 26.375 40.375 22.484375 35.828125 
Q 18.609375 31.296875 18.609375 23.390625 
Q 18.609375 15.53125 22.484375 10.953125 
Q 26.375 6.390625 33.015625 6.390625 
Q 39.65625 6.390625 43.53125 10.953125 
Q 47.40625 15.53125 47.40625 23.390625 
Q 47.40625 31.296875 43.53125 35.828125 
Q 39.65625 40.375 33.015625 40.375 
z
M 52.59375 71.296875 
L 52.59375 62.3125 
Q 48.875 64.0625 45.09375 64.984375 
Q 41.3125 65.921875 37.59375 65.921875 
Q 27.828125 65.921875 22.671875 59.328125 
Q 17.53125 52.734375 16.796875 39.40625 
Q 19.671875 43.65625 24.015625 45.921875 
Q 28.375 48.1875 33.59375 48.1875 
Q 44.578125 48.1875 50.953125 41.515625 
Q 57.328125 34.859375 57.328125 23.390625 
Q 57.328125 12.15625 50.6875 5.359375 
Q 44.046875 -1.421875 33.015625 -1.421875 
Q 20.359375 -1.421875 13.671875 8.265625 
Q 6.984375 17.96875 6.984375 36.375 
Q 6.984375 53.65625 15.1875 63.9375 
Q 23.390625 74.21875 37.203125 74.21875 
Q 40.921875 74.21875 44.703125 73.484375 
Q 48.484375 72.75 52.59375 71.296875 
z
" id="DejaVuSans-54"/>
       </defs>
       <use xlink:href="#DejaVuSans-8722"/>
       <use x="83.789062" xlink:href="#DejaVuSans-48"/>
       <use x="147.412109" xlink:href="#DejaVuSans-46"/>
       <use x="179.199219" xlink:href="#DejaVuSans-54"/>
      </g>
     </g>
    </g>
    <g id="ytick_5">
     <g id="line2d_11">
      <g>
       <use style="stroke:#000000;stroke-width:0.8;" x="81" xlink:href="#mfecc6891d5" y="238.166187"/>
      </g>
     </g>
     <g id="text_12">
      <!-- −0.4 -->
      <g transform="translate(49.717187 241.965406)scale(0.1 -0.1)">
       <defs>
        <path d="M 37.796875 64.3125 
L 12.890625 25.390625 
L 37.796875 25.390625 
z
M 35.203125 72.90625 
L 47.609375 72.90625 
L 47.609375 25.390625 
L 58.015625 25.390625 
L 58.015625 17.1875 
L 47.609375 17.1875 
L 47.609375 0 
L 37.796875 0 
L 37.796875 17.1875 
L 4.890625 17.1875 
L 4.890625 26.703125 
z
" id="DejaVuSans-52"/>
       </defs>
       <use xlink:href="#DejaVuSans-8722"/>
       <use x="83.789062" xlink:href="#DejaVuSans-48"/>
       <use x="147.412109" xlink:href="#DejaVuSans-46"/>
       <use x="179.199219" xlink:href="#DejaVuSans-52"/>
      </g>
     </g>
    </g>
    <g id="ytick_6">
     <g id="line2d_12">
      <g>
       <use style="stroke:#000000;stroke-width:0.8;" x="81" xlink:href="#mfecc6891d5" y="179.689758"/>
      </g>
     </g>
     <g id="text_13">
      <!-- −0.2 -->
      <g transform="translate(49.717187 183.488977)scale(0.1 -0.1)">
       <use xlink:href="#DejaVuSans-8722"/>
       <use x="83.789062" xlink:href="#DejaVuSans-48"/>
       <use x="147.412109" xlink:href="#DejaVuSans-46"/>
       <use x="179.199219" xlink:href="#DejaVuSans-50"/>
      </g>
     </g>
    </g>
    <g id="ytick_7">
     <g id="line2d_13">
      <g>
       <use style="stroke:#000000;stroke-width:0.8;" x="81" xlink:href="#mfecc6891d5" y="121.21333"/>
      </g>
     </g>
     <g id="text_14">
      <!-- 0.0 -->
      <g transform="translate(58.096875 125.012549)scale(0.1 -0.1)">
       <use xlink:href="#DejaVuSans-48"/>
       <use x="63.623047" xlink:href="#DejaVuSans-46"/>
       <use x="95.410156" xlink:href="#DejaVuSans-48"/>
      </g>
     </g>
    </g>
    <g id="text_15">
     <!-- Log Odd Parent Mean Pairwise Distance -->
     <g transform="translate(43.6375 389.987813)rotate(-90)scale(0.1 -0.1)">
      <use xlink:href="#DejaVuSans-76"/>
      <use x="53.962891" xlink:href="#DejaVuSans-111"/>
      <use x="115.144531" xlink:href="#DejaVuSans-103"/>
      <use x="178.621094" xlink:href="#DejaVuSans-32"/>
      <use x="210.408203" xlink:href="#DejaVuSans-79"/>
      <use x="289.119141" xlink:href="#DejaVuSans-100"/>
      <use x="352.595703" xlink:href="#DejaVuSans-100"/>
      <use x="416.072266" xlink:href="#DejaVuSans-32"/>
      <use x="447.859375" xlink:href="#DejaVuSans-80"/>
      <use x="503.662109" xlink:href="#DejaVuSans-97"/>
      <use x="564.941406" xlink:href="#DejaVuSans-114"/>
      <use x="603.804688" xlink:href="#DejaVuSans-101"/>
      <use x="665.328125" xlink:href="#DejaVuSans-110"/>
      <use x="728.707031" xlink:href="#DejaVuSans-116"/>
      <use x="767.916016" xlink:href="#DejaVuSans-32"/>
      <use x="799.703125" xlink:href="#DejaVuSans-77"/>
      <use x="885.982422" xlink:href="#DejaVuSans-101"/>
      <use x="947.505859" xlink:href="#DejaVuSans-97"/>
      <use x="1008.785156" xlink:href="#DejaVuSans-110"/>
      <use x="1072.164062" xlink:href="#DejaVuSans-32"/>
      <use x="1103.951172" xlink:href="#DejaVuSans-80"/>
      <use x="1159.753906" xlink:href="#DejaVuSans-97"/>
      <use x="1221.033203" xlink:href="#DejaVuSans-105"/>
      <use x="1248.816406" xlink:href="#DejaVuSans-114"/>
      <use x="1289.929688" xlink:href="#DejaVuSans-119"/>
      <use x="1371.716797" xlink:href="#DejaVuSans-105"/>
      <use x="1399.5" xlink:href="#DejaVuSans-115"/>
      <use x="1451.599609" xlink:href="#DejaVuSans-101"/>
      <use x="1513.123047" xlink:href="#DejaVuSans-32"/>
      <use x="1544.910156" xlink:href="#DejaVuSans-68"/>
      <use x="1621.912109" xlink:href="#DejaVuSans-105"/>
      <use x="1649.695312" xlink:href="#DejaVuSans-115"/>
      <use x="1701.794922" xlink:href="#DejaVuSans-116"/>
      <use x="1741.003906" xlink:href="#DejaVuSans-97"/>
      <use x="1802.283203" xlink:href="#DejaVuSans-110"/>
      <use x="1865.662109" xlink:href="#DejaVuSans-99"/>
      <use x="1920.642578" xlink:href="#DejaVuSans-101"/>
     </g>
    </g>
   </g>
   <g id="patch_3">
    <path d="M 81 512.64 
L 81 69.12 
" style="fill:none;stroke:#000000;stroke-linecap:square;stroke-linejoin:miter;stroke-width:0.8;"/>
   </g>
   <g id="patch_4">
    <path d="M 583.2 512.64 
L 583.2 69.12 
" style="fill:none;stroke:#000000;stroke-linecap:square;stroke-linejoin:miter;stroke-width:0.8;"/>
   </g>
   <g id="patch_5">
    <path d="M 81 512.64 
L 583.2 512.64 
" style="fill:none;stroke:#000000;stroke-linecap:square;stroke-linejoin:miter;stroke-width:0.8;"/>
   </g>
   <g id="patch_6">
    <path d="M 81 69.12 
L 583.2 69.12 
" style="fill:none;stroke:#000000;stroke-linecap:square;stroke-linejoin:miter;stroke-width:0.8;"/>
   </g>
   <g id="text_16">
    <!-- 0 -->
    <g style="fill:#999999;" transform="translate(355.573186 179.206332)scale(0.18 -0.18)">
     <use xlink:href="#DejaVuSans-48"/>
    </g>
   </g>
   <g id="text_17">
    <!-- 1.0 -->
    <g style="fill:#e69f00;" transform="translate(348.211923 202.545539)scale(0.18 -0.18)">
     <use xlink:href="#DejaVuSans-49"/>
     <use x="63.623047" xlink:href="#DejaVuSans-46"/>
     <use x="95.410156" xlink:href="#DejaVuSans-48"/>
    </g>
   </g>
   <g id="text_18">
    <!-- 2.0 -->
    <g style="fill:#56b4e9;" transform="translate(560.372727 89.28)scale(0.18 -0.18)">
     <use xlink:href="#DejaVuSans-50"/>
     <use x="63.623047" xlink:href="#DejaVuSans-46"/>
     <use x="95.410156" xlink:href="#DejaVuSans-48"/>
    </g>
   </g>
   <g id="text_19">
    <!-- 3.0 -->
    <g style="fill:#009e73;" transform="translate(103.827273 492.48)scale(0.18 -0.18)">
     <defs>
      <path d="M 40.578125 39.3125 
Q 47.65625 37.796875 51.625 33 
Q 55.609375 28.21875 55.609375 21.1875 
Q 55.609375 10.40625 48.1875 4.484375 
Q 40.765625 -1.421875 27.09375 -1.421875 
Q 22.515625 -1.421875 17.65625 -0.515625 
Q 12.796875 0.390625 7.625 2.203125 
L 7.625 11.71875 
Q 11.71875 9.328125 16.59375 8.109375 
Q 21.484375 6.890625 26.8125 6.890625 
Q 36.078125 6.890625 40.9375 10.546875 
Q 45.796875 14.203125 45.796875 21.1875 
Q 45.796875 27.640625 41.28125 31.265625 
Q 36.765625 34.90625 28.71875 34.90625 
L 20.21875 34.90625 
L 20.21875 43.015625 
L 29.109375 43.015625 
Q 36.375 43.015625 40.234375 45.921875 
Q 44.09375 48.828125 44.09375 54.296875 
Q 44.09375 59.90625 40.109375 62.90625 
Q 36.140625 65.921875 28.71875 65.921875 
Q 24.65625 65.921875 20.015625 65.03125 
Q 15.375 64.15625 9.8125 62.3125 
L 9.8125 71.09375 
Q 15.4375 72.65625 20.34375 73.4375 
Q 25.25 74.21875 29.59375 74.21875 
Q 40.828125 74.21875 47.359375 69.109375 
Q 53.90625 64.015625 53.90625 55.328125 
Q 53.90625 49.265625 50.4375 45.09375 
Q 46.96875 40.921875 40.578125 39.3125 
z
" id="DejaVuSans-51"/>
     </defs>
     <use xlink:href="#DejaVuSans-51"/>
     <use x="63.623047" xlink:href="#DejaVuSans-46"/>
     <use x="95.410156" xlink:href="#DejaVuSans-48"/>
    </g>
   </g>
   <g id="text_20">
    <!-- 4 -->
    <g style="fill:#f0e442;" transform="translate(419.020697 169.313748)scale(0.18 -0.18)">
     <use xlink:href="#DejaVuSans-52"/>
    </g>
   </g>
   <g id="text_21">
    <!-- 5.0 -->
    <g style="fill:#0072b2;" transform="translate(381.718255 154.64642)scale(0.18 -0.18)">
     <use xlink:href="#DejaVuSans-53"/>
     <use x="63.623047" xlink:href="#DejaVuSans-46"/>
     <use x="95.410156" xlink:href="#DejaVuSans-48"/>
    </g>
   </g>
   <g id="text_22">
    <!-- 6.0 -->
    <g style="fill:#d55e00;" transform="translate(401.081377 168.946927)scale(0.18 -0.18)">
     <use xlink:href="#DejaVuSans-54"/>
     <use x="63.623047" xlink:href="#DejaVuSans-46"/>
     <use x="95.410156" xlink:href="#DejaVuSans-48"/>
    </g>
   </g>
   <g id="text_23">
    <!-- 7 -->
    <g style="fill:#cc79a7;" transform="translate(294.934516 256.168291)scale(0.18 -0.18)">
     <defs>
      <path d="M 8.203125 72.90625 
L 55.078125 72.90625 
L 55.078125 68.703125 
L 28.609375 0 
L 18.3125 0 
L 43.21875 64.59375 
L 8.203125 64.59375 
z
" id="DejaVuSans-55"/>
     </defs>
     <use xlink:href="#DejaVuSans-55"/>
    </g>
   </g>
   <g id="text_24">
    <!-- 8.0 -->
    <g style="fill:#f46d43;" transform="translate(313.288891 215.229561)scale(0.18 -0.18)">
     <use xlink:href="#DejaVuSans-56"/>
     <use x="63.623047" xlink:href="#DejaVuSans-46"/>
     <use x="95.410156" xlink:href="#DejaVuSans-48"/>
    </g>
   </g>
   <g id="text_25">
    <!-- 9 -->
    <g style="fill:#abd9e9;" transform="translate(388.824097 183.848412)scale(0.18 -0.18)">
     <defs>
      <path d="M 10.984375 1.515625 
L 10.984375 10.5 
Q 14.703125 8.734375 18.5 7.8125 
Q 22.3125 6.890625 25.984375 6.890625 
Q 35.75 6.890625 40.890625 13.453125 
Q 46.046875 20.015625 46.78125 33.40625 
Q 43.953125 29.203125 39.59375 26.953125 
Q 35.25 24.703125 29.984375 24.703125 
Q 19.046875 24.703125 12.671875 31.3125 
Q 6.296875 37.9375 6.296875 49.421875 
Q 6.296875 60.640625 12.9375 67.421875 
Q 19.578125 74.21875 30.609375 74.21875 
Q 43.265625 74.21875 49.921875 64.515625 
Q 56.59375 54.828125 56.59375 36.375 
Q 56.59375 19.140625 48.40625 8.859375 
Q 40.234375 -1.421875 26.421875 -1.421875 
Q 22.703125 -1.421875 18.890625 -0.6875 
Q 15.09375 0.046875 10.984375 1.515625 
z
M 30.609375 32.421875 
Q 37.25 32.421875 41.125 36.953125 
Q 45.015625 41.5 45.015625 49.421875 
Q 45.015625 57.28125 41.125 61.84375 
Q 37.25 66.40625 30.609375 66.40625 
Q 23.96875 66.40625 20.09375 61.84375 
Q 16.21875 57.28125 16.21875 49.421875 
Q 16.21875 41.5 20.09375 36.953125 
Q 23.96875 32.421875 30.609375 32.421875 
z
" id="DejaVuSans-57"/>
     </defs>
     <use xlink:href="#DejaVuSans-57"/>
    </g>
   </g>
   <g id="text_26">
    <!-- 5.3 -->
    <g style="fill:#e69f00;" transform="translate(299.016859 205.505106)scale(0.18 -0.18)">
     <use xlink:href="#DejaVuSans-53"/>
     <use x="63.623047" xlink:href="#DejaVuSans-46"/>
     <use x="95.410156" xlink:href="#DejaVuSans-51"/>
    </g>
   </g>
   <g id="text_27">
    <!-- 5.2 -->
    <g style="fill:#009e73;" transform="translate(532.108898 91.646951)scale(0.18 -0.18)">
     <use xlink:href="#DejaVuSans-53"/>
     <use x="63.623047" xlink:href="#DejaVuSans-46"/>
     <use x="95.410156" xlink:href="#DejaVuSans-50"/>
    </g>
   </g>
   <g id="text_28">
    <!-- 6.1 -->
    <g style="fill:#f0e442;" transform="translate(505.174662 136.592205)scale(0.18 -0.18)">
     <use xlink:href="#DejaVuSans-54"/>
     <use x="63.623047" xlink:href="#DejaVuSans-46"/>
     <use x="95.410156" xlink:href="#DejaVuSans-49"/>
    </g>
   </g>
   <g id="text_29">
    <!-- 1.4 -->
    <g style="fill:#d55e00;" transform="translate(200.748586 372.084574)scale(0.18 -0.18)">
     <use xlink:href="#DejaVuSans-49"/>
     <use x="63.623047" xlink:href="#DejaVuSans-46"/>
     <use x="95.410156" xlink:href="#DejaVuSans-52"/>
    </g>
   </g>
   <g id="text_30">
    <!-- 1.3 -->
    <g style="fill:#cc79a7;" transform="translate(318.220809 220.284585)scale(0.18 -0.18)">
     <use xlink:href="#DejaVuSans-49"/>
     <use x="63.623047" xlink:href="#DejaVuSans-46"/>
     <use x="95.410156" xlink:href="#DejaVuSans-51"/>
    </g>
   </g>
   <g id="text_31">
    <!-- 2.2 -->
    <g style="fill:#f46d43;" transform="translate(332.186588 209.610195)scale(0.18 -0.18)">
     <use xlink:href="#DejaVuSans-50"/>
     <use x="63.623047" xlink:href="#DejaVuSans-46"/>
     <use x="95.410156" xlink:href="#DejaVuSans-50"/>
    </g>
   </g>
   <g id="text_32">
    <!-- 3.1 -->
    <g style="fill:#abd9e9;" transform="translate(221.879182 312.440558)scale(0.18 -0.18)">
     <use xlink:href="#DejaVuSans-51"/>
     <use x="63.623047" xlink:href="#DejaVuSans-46"/>
     <use x="95.410156" xlink:href="#DejaVuSans-49"/>
    </g>
   </g>
   <g id="text_33">
    <!-- 1.2 -->
    <g style="fill:#999999;" transform="translate(453.452506 163.119595)scale(0.18 -0.18)">
     <use xlink:href="#DejaVuSans-49"/>
     <use x="63.623047" xlink:href="#DejaVuSans-46"/>
     <use x="95.410156" xlink:href="#DejaVuSans-50"/>
    </g>
   </g>
   <g id="text_34">
    <!-- 1.1 -->
    <g style="fill:#56b4e9;" transform="translate(302.473677 239.598737)scale(0.18 -0.18)">
     <use xlink:href="#DejaVuSans-49"/>
     <use x="63.623047" xlink:href="#DejaVuSans-46"/>
     <use x="95.410156" xlink:href="#DejaVuSans-49"/>
    </g>
   </g>
   <g id="text_35">
    <!-- uniprot OMP -->
    <g transform="translate(295.239375 63.12)scale(0.12 -0.12)">
     <defs>
      <path d="M 8.5 21.578125 
L 8.5 54.6875 
L 17.484375 54.6875 
L 17.484375 21.921875 
Q 17.484375 14.15625 20.5 10.265625 
Q 23.53125 6.390625 29.59375 6.390625 
Q 36.859375 6.390625 41.078125 11.03125 
Q 45.3125 15.671875 45.3125 23.6875 
L 45.3125 54.6875 
L 54.296875 54.6875 
L 54.296875 0 
L 45.3125 0 
L 45.3125 8.40625 
Q 42.046875 3.421875 37.71875 1 
Q 33.40625 -1.421875 27.6875 -1.421875 
Q 18.265625 -1.421875 13.375 4.4375 
Q 8.5 10.296875 8.5 21.578125 
z
M 31.109375 56 
z
" id="DejaVuSans-117"/>
      <path d="M 18.109375 8.203125 
L 18.109375 -20.796875 
L 9.078125 -20.796875 
L 9.078125 54.6875 
L 18.109375 54.6875 
L 18.109375 46.390625 
Q 20.953125 51.265625 25.265625 53.625 
Q 29.59375 56 35.59375 56 
Q 45.5625 56 51.78125 48.09375 
Q 58.015625 40.1875 58.015625 27.296875 
Q 58.015625 14.40625 51.78125 6.484375 
Q 45.5625 -1.421875 35.59375 -1.421875 
Q 29.59375 -1.421875 25.265625 0.953125 
Q 20.953125 3.328125 18.109375 8.203125 
z
M 48.6875 27.296875 
Q 48.6875 37.203125 44.609375 42.84375 
Q 40.53125 48.484375 33.40625 48.484375 
Q 26.265625 48.484375 22.1875 42.84375 
Q 18.109375 37.203125 18.109375 27.296875 
Q 18.109375 17.390625 22.1875 11.75 
Q 26.265625 6.109375 33.40625 6.109375 
Q 40.53125 6.109375 44.609375 11.75 
Q 48.6875 17.390625 48.6875 27.296875 
z
" id="DejaVuSans-112"/>
     </defs>
     <use xlink:href="#DejaVuSans-117"/>
     <use x="63.378906" xlink:href="#DejaVuSans-110"/>
     <use x="126.757812" xlink:href="#DejaVuSans-105"/>
     <use x="154.541016" xlink:href="#DejaVuSans-112"/>
     <use x="218.017578" xlink:href="#DejaVuSans-114"/>
     <use x="256.880859" xlink:href="#DejaVuSans-111"/>
     <use x="318.0625" xlink:href="#DejaVuSans-116"/>
     <use x="357.271484" xlink:href="#DejaVuSans-32"/>
     <use x="389.058594" xlink:href="#DejaVuSans-79"/>
     <use x="467.769531" xlink:href="#DejaVuSans-77"/>
     <use x="554.048828" xlink:href="#DejaVuSans-80"/>
    </g>
   </g>
  </g>
 </g>
 <defs>
  <clipPath id="pf10105f098">
   <rect height="443.52" width="502.2" x="81" y="69.12"/>
  </clipPath>
 </defs>
</svg>
