<?xml version="1.0" encoding="utf-8" standalone="no"?>
<!DOCTYPE svg PUBLIC "-//W3C//DTD SVG 1.1//EN"
  "http://www.w3.org/Graphics/SVG/1.1/DTD/svg11.dtd">
<!-- Created with matplotlib (https://matplotlib.org/) -->
<svg height="576pt" version="1.1" viewBox="0 0 288 576" width="288pt" xmlns="http://www.w3.org/2000/svg" xmlns:xlink="http://www.w3.org/1999/xlink">
 <metadata>
  <rdf:RDF xmlns:cc="http://creativecommons.org/ns#" xmlns:dc="http://purl.org/dc/elements/1.1/" xmlns:rdf="http://www.w3.org/1999/02/22-rdf-syntax-ns#">
   <cc:Work>
    <dc:type rdf:resource="http://purl.org/dc/dcmitype/StillImage"/>
    <dc:date>2023-03-20T16:36:37.225356</dc:date>
    <dc:format>image/svg+xml</dc:format>
    <dc:creator>
     <cc:Agent>
      <dc:title>Matplotlib v3.3.4, https://matplotlib.org/</dc:title>
     </cc:Agent>
    </dc:creator>
   </cc:Work>
  </rdf:RDF>
 </metadata>
 <defs>
  <style type="text/css">*{stroke-linecap:butt;stroke-linejoin:round;}</style>
 </defs>
 <g id="figure_1">
  <g id="patch_1">
   <path d="M 0 576 
L 288 576 
L 288 0 
L 0 0 
z
" style="fill:#ffffff;"/>
  </g>
  <g id="axes_1">
   <g id="patch_2">
    <path d="M 36 512.64 
L 259.2 512.64 
L 259.2 69.12 
L 36 69.12 
z
" style="fill:#ffffff;"/>
   </g>
   <g id="PathCollection_1">
    <path clip-path="url(#p5a48dee498)" d="M 155.366705 350.090651 
C 160.238798 350.090651 164.911997 348.154948 168.357087 344.709859 
C 171.802176 341.26477 173.737879 336.59157 173.737879 331.719478 
C 173.737879 326.847386 171.802176 322.174186 168.357087 318.729097 
C 164.911997 315.284007 160.238798 313.348305 155.366705 313.348305 
C 150.494613 313.348305 145.821414 315.284007 142.376324 318.729097 
C 138.931235 322.174186 136.995532 326.847386 136.995532 331.719478 
C 136.995532 336.59157 138.931235 341.26477 142.376324 344.709859 
C 145.821414 348.154948 150.494613 350.090651 155.366705 350.090651 
z
" style="fill:#999999;stroke:#999999;"/>
    <path clip-path="url(#p5a48dee498)" d="M 137.827086 341.978282 
C 139.451117 341.978282 141.00885 341.333048 142.157213 340.184685 
C 143.305576 339.036322 143.950811 337.478589 143.950811 335.854558 
C 143.950811 334.230527 143.305576 332.672794 142.157213 331.524431 
C 141.00885 330.376068 139.451117 329.730834 137.827086 329.730834 
C 136.203056 329.730834 134.645322 330.376068 133.496959 331.524431 
C 132.348596 332.672794 131.703362 334.230527 131.703362 335.854558 
C 131.703362 337.478589 132.348596 339.036322 133.496959 340.184685 
C 134.645322 341.333048 136.203056 341.978282 137.827086 341.978282 
z
" style="fill:#e69f00;stroke:#e69f00;"/>
    <path clip-path="url(#p5a48dee498)" d="M 136.936465 224.582081 
C 139.033079 224.582081 141.044104 223.749087 142.526635 222.266557 
C 144.009165 220.784027 144.842159 218.773002 144.842159 216.676387 
C 144.842159 214.579772 144.009165 212.568748 142.526635 211.086217 
C 141.044104 209.603687 139.033079 208.770693 136.936465 208.770693 
C 134.83985 208.770693 132.828825 209.603687 131.346295 211.086217 
C 129.863764 212.568748 129.030771 214.579772 129.030771 216.676387 
C 129.030771 218.773002 129.863764 220.784027 131.346295 222.266557 
C 132.828825 223.749087 134.83985 224.582081 136.936465 224.582081 
z
" style="fill:#56b4e9;stroke:#56b4e9;"/>
    <path clip-path="url(#p5a48dee498)" d="M 134.118507 482.488138 
C 136.599255 482.488138 138.978732 481.502526 140.732885 479.748372 
C 142.487039 477.994219 143.47265 475.614742 143.47265 473.133994 
C 143.47265 470.653246 142.487039 468.273769 140.732885 466.519616 
C 138.978732 464.765462 136.599255 463.779851 134.118507 463.779851 
C 131.637759 463.779851 129.258282 464.765462 127.504129 466.519616 
C 125.749975 468.273769 124.764364 470.653246 124.764364 473.133994 
C 124.764364 475.614742 125.749975 477.994219 127.504129 479.748372 
C 129.258282 481.502526 131.637759 482.488138 134.118507 482.488138 
z
" style="fill:#009e73;stroke:#009e73;"/>
    <path clip-path="url(#p5a48dee498)" d="M 122.151587 303.984478 
C 124.248202 303.984478 126.259227 303.151485 127.741757 301.668954 
C 129.224287 300.186424 130.057281 298.175399 130.057281 296.078784 
C 130.057281 293.98217 129.224287 291.971145 127.741757 290.488614 
C 126.259227 289.006084 124.248202 288.17309 122.151587 288.17309 
C 120.054972 288.17309 118.043947 289.006084 116.561417 290.488614 
C 115.078887 291.971145 114.245893 293.98217 114.245893 296.078784 
C 114.245893 298.175399 115.078887 300.186424 116.561417 301.668954 
C 118.043947 303.151485 120.054972 303.984478 122.151587 303.984478 
z
" style="fill:#f0e442;stroke:#f0e442;"/>
    <path clip-path="url(#p5a48dee498)" d="M 162.808115 325.693129 
C 165.104841 325.693129 167.307809 324.78063 168.931839 323.156599 
C 170.55587 321.532569 171.468369 319.329601 171.468369 317.032875 
C 171.468369 314.736149 170.55587 312.533181 168.931839 310.909151 
C 167.307809 309.28512 165.104841 308.372621 162.808115 308.372621 
C 160.511389 308.372621 158.308421 309.28512 156.684391 310.909151 
C 155.06036 312.533181 154.147861 314.736149 154.147861 317.032875 
C 154.147861 319.329601 155.06036 321.532569 156.684391 323.156599 
C 158.308421 324.78063 160.511389 325.693129 162.808115 325.693129 
z
" style="fill:#0072b2;stroke:#0072b2;"/>
    <path clip-path="url(#p5a48dee498)" d="M 144.079544 315.510073 
C 146.560292 315.510073 148.939769 314.524462 150.693922 312.770308 
C 152.448076 311.016155 153.433688 308.636678 153.433688 306.15593 
C 153.433688 303.675182 152.448076 301.295705 150.693922 299.541552 
C 148.939769 297.787398 146.560292 296.801786 144.079544 296.801786 
C 141.598796 296.801786 139.219319 297.787398 137.465166 299.541552 
C 135.711012 301.295705 134.725401 303.675182 134.725401 306.15593 
C 134.725401 308.636678 135.711012 311.016155 137.465166 312.770308 
C 139.219319 314.524462 141.598796 315.510073 144.079544 315.510073 
z
" style="fill:#d55e00;stroke:#d55e00;"/>
    <path clip-path="url(#p5a48dee498)" d="M 145.749755 374.442602 
C 148.046481 374.442602 150.249449 373.530103 151.873479 371.906072 
C 153.49751 370.282041 154.410009 368.079074 154.410009 365.782348 
C 154.410009 363.485621 153.49751 361.282654 151.873479 359.658623 
C 150.249449 358.034593 148.046481 357.122094 145.749755 357.122094 
C 143.453029 357.122094 141.250061 358.034593 139.626031 359.658623 
C 138.002 361.282654 137.089501 363.485621 137.089501 365.782348 
C 137.089501 368.079074 138.002 370.282041 139.626031 371.906072 
C 141.250061 373.530103 143.453029 374.442602 145.749755 374.442602 
z
" style="fill:#cc79a7;stroke:#cc79a7;"/>
    <path clip-path="url(#p5a48dee498)" d="M 153.647125 368.2196 
C 157.027815 368.2196 160.270495 366.876438 162.661003 364.485929 
C 165.051512 362.095421 166.394674 358.85274 166.394674 355.472051 
C 166.394674 352.091361 165.051512 348.848681 162.661003 346.458173 
C 160.270495 344.067664 157.027815 342.724502 153.647125 342.724502 
C 150.266436 342.724502 147.023755 344.067664 144.633247 346.458173 
C 142.242739 348.848681 140.899576 352.091361 140.899576 355.472051 
C 140.899576 358.85274 142.242739 362.095421 144.633247 364.485929 
C 147.023755 366.876438 150.266436 368.2196 153.647125 368.2196 
z
" style="fill:#f46d43;stroke:#f46d43;"/>
    <path clip-path="url(#p5a48dee498)" d="M 137.414182 320.946969 
C 139.510796 320.946969 141.521821 320.113975 143.004351 318.631444 
C 144.486882 317.148914 145.319876 315.137889 145.319876 313.041274 
C 145.319876 310.94466 144.486882 308.933635 143.004351 307.451105 
C 141.521821 305.968574 139.510796 305.13558 137.414182 305.13558 
C 135.317567 305.13558 133.306542 305.968574 131.824012 307.451105 
C 130.341481 308.933635 129.508487 310.94466 129.508487 313.041274 
C 129.508487 315.137889 130.341481 317.148914 131.824012 318.631444 
C 133.306542 320.113975 135.317567 320.946969 137.414182 320.946969 
z
" style="fill:#abd9e9;stroke:#abd9e9;"/>
    <path clip-path="url(#p5a48dee498)" d="M 144.807931 368.489152 
C 146.133946 368.489152 147.40583 367.962321 148.343464 367.024686 
C 149.281099 366.087052 149.807931 364.815168 149.807931 363.489152 
C 149.807931 362.163137 149.281099 360.891253 148.343464 359.953618 
C 147.40583 359.015984 146.133946 358.489152 144.807931 358.489152 
C 143.481915 358.489152 142.210031 359.015984 141.272397 359.953618 
C 140.334762 360.891253 139.807931 362.163137 139.807931 363.489152 
C 139.807931 364.815168 140.334762 366.087052 141.272397 367.024686 
C 142.210031 367.962321 143.481915 368.489152 144.807931 368.489152 
z
" style="fill:#e69f00;stroke:#e69f00;"/>
    <path clip-path="url(#p5a48dee498)" d="M 148.537491 238.676896 
C 150.161521 238.676896 151.719255 238.031662 152.867618 236.883299 
C 154.015981 235.734936 154.661215 234.177203 154.661215 232.553172 
C 154.661215 230.929141 154.015981 229.371408 152.867618 228.223045 
C 151.719255 227.074682 150.161521 226.429448 148.537491 226.429448 
C 146.91346 226.429448 145.355727 227.074682 144.207364 228.223045 
C 143.059001 229.371408 142.413766 230.929141 142.413766 232.553172 
C 142.413766 234.177203 143.059001 235.734936 144.207364 236.883299 
C 145.355727 238.031662 146.91346 238.676896 148.537491 238.676896 
z
" style="fill:#009e73;stroke:#009e73;"/>
    <path clip-path="url(#p5a48dee498)" d="M 158.804517 257.683078 
C 161.456548 257.683078 164.000316 256.629415 165.875585 254.754146 
C 167.750854 252.878877 168.804517 250.335109 168.804517 247.683078 
C 168.804517 245.031047 167.750854 242.487279 165.875585 240.61201 
C 164.000316 238.736741 161.456548 237.683078 158.804517 237.683078 
C 156.152486 237.683078 153.608719 238.736741 151.733449 240.61201 
C 149.85818 242.487279 148.804517 245.031047 148.804517 247.683078 
C 148.804517 250.335109 149.85818 252.878877 151.733449 254.754146 
C 153.608719 256.629415 156.152486 257.683078 158.804517 257.683078 
z
" style="fill:#f0e442;stroke:#f0e442;"/>
    <path clip-path="url(#p5a48dee498)" d="M 148.906639 423.689891 
C 150.232655 423.689891 151.504539 423.163059 152.442173 422.225424 
C 153.379808 421.28779 153.906639 420.015906 153.906639 418.689891 
C 153.906639 417.363875 153.379808 416.091991 152.442173 415.154357 
C 151.504539 414.216722 150.232655 413.689891 148.906639 413.689891 
C 147.580624 413.689891 146.30874 414.216722 145.371105 415.154357 
C 144.433471 416.091991 143.906639 417.363875 143.906639 418.689891 
C 143.906639 420.015906 144.433471 421.28779 145.371105 422.225424 
C 146.30874 423.163059 147.580624 423.689891 148.906639 423.689891 
z
" style="fill:#d55e00;stroke:#d55e00;"/>
    <path clip-path="url(#p5a48dee498)" d="M 152.09007 358.825344 
C 153.714101 358.825344 155.271834 358.18011 156.420197 357.031747 
C 157.56856 355.883384 158.213795 354.32565 158.213795 352.70162 
C 158.213795 351.077589 157.56856 349.519856 156.420197 348.371493 
C 155.271834 347.223129 153.714101 346.577895 152.09007 346.577895 
C 150.46604 346.577895 148.908306 347.223129 147.759943 348.371493 
C 146.61158 349.519856 145.966346 351.077589 145.966346 352.70162 
C 145.966346 354.32565 146.61158 355.883384 147.759943 357.031747 
C 148.908306 358.18011 150.46604 358.825344 152.09007 358.825344 
z
" style="fill:#cc79a7;stroke:#cc79a7;"/>
    <path clip-path="url(#p5a48dee498)" d="M 142.17852 354.856551 
C 144.830551 354.856551 147.374319 353.802888 149.249588 351.927619 
C 151.124857 350.05235 152.17852 347.508582 152.17852 344.856551 
C 152.17852 342.20452 151.124857 339.660752 149.249588 337.785483 
C 147.374319 335.910214 144.830551 334.856551 142.17852 334.856551 
C 139.526489 334.856551 136.982722 335.910214 135.107453 337.785483 
C 133.232183 339.660752 132.17852 342.20452 132.17852 344.856551 
C 132.17852 347.508582 133.232183 350.05235 135.107453 351.927619 
C 136.982722 353.802888 139.526489 354.856551 142.17852 354.856551 
z
" style="fill:#f46d43;stroke:#f46d43;"/>
    <path clip-path="url(#p5a48dee498)" d="M 149.20173 411.820093 
C 150.527745 411.820093 151.799629 411.293261 152.737264 410.355627 
C 153.674898 409.417992 154.20173 408.146108 154.20173 406.820093 
C 154.20173 405.494077 153.674898 404.222194 152.737264 403.284559 
C 151.799629 402.346924 150.527745 401.820093 149.20173 401.820093 
C 147.875714 401.820093 146.60383 402.346924 145.666196 403.284559 
C 144.728561 404.222194 144.20173 405.494077 144.20173 406.820093 
C 144.20173 408.146108 144.728561 409.417992 145.666196 410.355627 
C 146.60383 411.293261 147.875714 411.820093 149.20173 411.820093 
z
" style="fill:#abd9e9;stroke:#abd9e9;"/>
    <path clip-path="url(#p5a48dee498)" d="M 154.655941 282.860952 
C 156.279971 282.860952 157.837705 282.215718 158.986068 281.067355 
C 160.134431 279.918992 160.779665 278.361259 160.779665 276.737228 
C 160.779665 275.113197 160.134431 273.555464 158.986068 272.407101 
C 157.837705 271.258738 156.279971 270.613504 154.655941 270.613504 
C 153.03191 270.613504 151.474177 271.258738 150.325814 272.407101 
C 149.177451 273.555464 148.532216 275.113197 148.532216 276.737228 
C 148.532216 278.361259 149.177451 279.918992 150.325814 281.067355 
C 151.474177 282.215718 153.03191 282.860952 154.655941 282.860952 
z
" style="fill:#999999;stroke:#999999;"/>
    <path clip-path="url(#p5a48dee498)" d="M 142.76076 367.67106 
C 144.38479 367.67106 145.942524 367.025826 147.090887 365.877463 
C 148.23925 364.7291 148.884484 363.171367 148.884484 361.547336 
C 148.884484 359.923305 148.23925 358.365572 147.090887 357.217209 
C 145.942524 356.068846 144.38479 355.423612 142.76076 355.423612 
C 141.136729 355.423612 139.578996 356.068846 138.430633 357.217209 
C 137.28227 358.365572 136.637035 359.923305 136.637035 361.547336 
C 136.637035 363.171367 137.28227 364.7291 138.430633 365.877463 
C 139.578996 367.025826 141.136729 367.67106 142.76076 367.67106 
z
" style="fill:#56b4e9;stroke:#56b4e9;"/>
   </g>
   <g id="matplotlib.axis_1">
    <g id="xtick_1">
     <g id="line2d_1">
      <defs>
       <path d="M 0 0 
L 0 3.5 
" id="m5a3a31d335" style="stroke:#000000;stroke-width:0.8;"/>
      </defs>
      <g>
       <use style="stroke:#000000;stroke-width:0.8;" x="147.6" xlink:href="#m5a3a31d335" y="512.64"/>
      </g>
     </g>
     <g id="text_1">
      <!-- MeanPD -->
      <g transform="translate(127.111719 527.238438)scale(0.1 -0.1)">
       <defs>
        <path d="M 9.8125 72.90625 
L 24.515625 72.90625 
L 43.109375 23.296875 
L 61.8125 72.90625 
L 76.515625 72.90625 
L 76.515625 0 
L 66.890625 0 
L 66.890625 64.015625 
L 48.09375 14.015625 
L 38.1875 14.015625 
L 19.390625 64.015625 
L 19.390625 0 
L 9.8125 0 
z
" id="DejaVuSans-77"/>
        <path d="M 56.203125 29.59375 
L 56.203125 25.203125 
L 14.890625 25.203125 
Q 15.484375 15.921875 20.484375 11.0625 
Q 25.484375 6.203125 34.421875 6.203125 
Q 39.59375 6.203125 44.453125 7.46875 
Q 49.3125 8.734375 54.109375 11.28125 
L 54.109375 2.78125 
Q 49.265625 0.734375 44.1875 -0.34375 
Q 39.109375 -1.421875 33.890625 -1.421875 
Q 20.796875 -1.421875 13.15625 6.1875 
Q 5.515625 13.8125 5.515625 26.8125 
Q 5.515625 40.234375 12.765625 48.109375 
Q 20.015625 56 32.328125 56 
Q 43.359375 56 49.78125 48.890625 
Q 56.203125 41.796875 56.203125 29.59375 
z
M 47.21875 32.234375 
Q 47.125 39.59375 43.09375 43.984375 
Q 39.0625 48.390625 32.421875 48.390625 
Q 24.90625 48.390625 20.390625 44.140625 
Q 15.875 39.890625 15.1875 32.171875 
z
" id="DejaVuSans-101"/>
        <path d="M 34.28125 27.484375 
Q 23.390625 27.484375 19.1875 25 
Q 14.984375 22.515625 14.984375 16.5 
Q 14.984375 11.71875 18.140625 8.90625 
Q 21.296875 6.109375 26.703125 6.109375 
Q 34.1875 6.109375 38.703125 11.40625 
Q 43.21875 16.703125 43.21875 25.484375 
L 43.21875 27.484375 
z
M 52.203125 31.203125 
L 52.203125 0 
L 43.21875 0 
L 43.21875 8.296875 
Q 40.140625 3.328125 35.546875 0.953125 
Q 30.953125 -1.421875 24.3125 -1.421875 
Q 15.921875 -1.421875 10.953125 3.296875 
Q 6 8.015625 6 15.921875 
Q 6 25.140625 12.171875 29.828125 
Q 18.359375 34.515625 30.609375 34.515625 
L 43.21875 34.515625 
L 43.21875 35.40625 
Q 43.21875 41.609375 39.140625 45 
Q 35.0625 48.390625 27.6875 48.390625 
Q 23 48.390625 18.546875 47.265625 
Q 14.109375 46.140625 10.015625 43.890625 
L 10.015625 52.203125 
Q 14.9375 54.109375 19.578125 55.046875 
Q 24.21875 56 28.609375 56 
Q 40.484375 56 46.34375 49.84375 
Q 52.203125 43.703125 52.203125 31.203125 
z
" id="DejaVuSans-97"/>
        <path d="M 54.890625 33.015625 
L 54.890625 0 
L 45.90625 0 
L 45.90625 32.71875 
Q 45.90625 40.484375 42.875 44.328125 
Q 39.84375 48.1875 33.796875 48.1875 
Q 26.515625 48.1875 22.3125 43.546875 
Q 18.109375 38.921875 18.109375 30.90625 
L 18.109375 0 
L 9.078125 0 
L 9.078125 54.6875 
L 18.109375 54.6875 
L 18.109375 46.1875 
Q 21.34375 51.125 25.703125 53.5625 
Q 30.078125 56 35.796875 56 
Q 45.21875 56 50.046875 50.171875 
Q 54.890625 44.34375 54.890625 33.015625 
z
" id="DejaVuSans-110"/>
        <path d="M 19.671875 64.796875 
L 19.671875 37.40625 
L 32.078125 37.40625 
Q 38.96875 37.40625 42.71875 40.96875 
Q 46.484375 44.53125 46.484375 51.125 
Q 46.484375 57.671875 42.71875 61.234375 
Q 38.96875 64.796875 32.078125 64.796875 
z
M 9.8125 72.90625 
L 32.078125 72.90625 
Q 44.34375 72.90625 50.609375 67.359375 
Q 56.890625 61.8125 56.890625 51.125 
Q 56.890625 40.328125 50.609375 34.8125 
Q 44.34375 29.296875 32.078125 29.296875 
L 19.671875 29.296875 
L 19.671875 0 
L 9.8125 0 
z
" id="DejaVuSans-80"/>
        <path d="M 19.671875 64.796875 
L 19.671875 8.109375 
L 31.59375 8.109375 
Q 46.6875 8.109375 53.6875 14.9375 
Q 60.6875 21.78125 60.6875 36.53125 
Q 60.6875 51.171875 53.6875 57.984375 
Q 46.6875 64.796875 31.59375 64.796875 
z
M 9.8125 72.90625 
L 30.078125 72.90625 
Q 51.265625 72.90625 61.171875 64.09375 
Q 71.09375 55.28125 71.09375 36.53125 
Q 71.09375 17.671875 61.125 8.828125 
Q 51.171875 0 30.078125 0 
L 9.8125 0 
z
" id="DejaVuSans-68"/>
       </defs>
       <use xlink:href="#DejaVuSans-77"/>
       <use x="86.279297" xlink:href="#DejaVuSans-101"/>
       <use x="147.802734" xlink:href="#DejaVuSans-97"/>
       <use x="209.082031" xlink:href="#DejaVuSans-110"/>
       <use x="272.460938" xlink:href="#DejaVuSans-80"/>
       <use x="332.763672" xlink:href="#DejaVuSans-68"/>
      </g>
     </g>
    </g>
   </g>
   <g id="matplotlib.axis_2">
    <g id="ytick_1">
     <g id="line2d_2">
      <defs>
       <path d="M 0 0 
L -3.5 0 
" id="m3c169bac9e" style="stroke:#000000;stroke-width:0.8;"/>
      </defs>
      <g>
       <use style="stroke:#000000;stroke-width:0.8;" x="36" xlink:href="#m3c169bac9e" y="503.203404"/>
      </g>
     </g>
     <g id="text_2">
      <!-- −1.5 -->
      <g transform="translate(4.717187 507.002623)scale(0.1 -0.1)">
       <defs>
        <path d="M 10.59375 35.5 
L 73.1875 35.5 
L 73.1875 27.203125 
L 10.59375 27.203125 
z
" id="DejaVuSans-8722"/>
        <path d="M 12.40625 8.296875 
L 28.515625 8.296875 
L 28.515625 63.921875 
L 10.984375 60.40625 
L 10.984375 69.390625 
L 28.421875 72.90625 
L 38.28125 72.90625 
L 38.28125 8.296875 
L 54.390625 8.296875 
L 54.390625 0 
L 12.40625 0 
z
" id="DejaVuSans-49"/>
        <path d="M 10.6875 12.40625 
L 21 12.40625 
L 21 0 
L 10.6875 0 
z
" id="DejaVuSans-46"/>
        <path d="M 10.796875 72.90625 
L 49.515625 72.90625 
L 49.515625 64.59375 
L 19.828125 64.59375 
L 19.828125 46.734375 
Q 21.96875 47.46875 24.109375 47.828125 
Q 26.265625 48.1875 28.421875 48.1875 
Q 40.625 48.1875 47.75 41.5 
Q 54.890625 34.8125 54.890625 23.390625 
Q 54.890625 11.625 47.5625 5.09375 
Q 40.234375 -1.421875 26.90625 -1.421875 
Q 22.3125 -1.421875 17.546875 -0.640625 
Q 12.796875 0.140625 7.71875 1.703125 
L 7.71875 11.625 
Q 12.109375 9.234375 16.796875 8.0625 
Q 21.484375 6.890625 26.703125 6.890625 
Q 35.15625 6.890625 40.078125 11.328125 
Q 45.015625 15.765625 45.015625 23.390625 
Q 45.015625 31 40.078125 35.4375 
Q 35.15625 39.890625 26.703125 39.890625 
Q 22.75 39.890625 18.8125 39.015625 
Q 14.890625 38.140625 10.796875 36.28125 
z
" id="DejaVuSans-53"/>
       </defs>
       <use xlink:href="#DejaVuSans-8722"/>
       <use x="83.789062" xlink:href="#DejaVuSans-49"/>
       <use x="147.412109" xlink:href="#DejaVuSans-46"/>
       <use x="179.199219" xlink:href="#DejaVuSans-53"/>
      </g>
     </g>
    </g>
    <g id="ytick_2">
     <g id="line2d_3">
      <g>
       <use style="stroke:#000000;stroke-width:0.8;" x="36" xlink:href="#m3c169bac9e" y="456.020426"/>
      </g>
     </g>
     <g id="text_3">
      <!-- −1.0 -->
      <g transform="translate(4.717187 459.819644)scale(0.1 -0.1)">
       <defs>
        <path d="M 31.78125 66.40625 
Q 24.171875 66.40625 20.328125 58.90625 
Q 16.5 51.421875 16.5 36.375 
Q 16.5 21.390625 20.328125 13.890625 
Q 24.171875 6.390625 31.78125 6.390625 
Q 39.453125 6.390625 43.28125 13.890625 
Q 47.125 21.390625 47.125 36.375 
Q 47.125 51.421875 43.28125 58.90625 
Q 39.453125 66.40625 31.78125 66.40625 
z
M 31.78125 74.21875 
Q 44.046875 74.21875 50.515625 64.515625 
Q 56.984375 54.828125 56.984375 36.375 
Q 56.984375 17.96875 50.515625 8.265625 
Q 44.046875 -1.421875 31.78125 -1.421875 
Q 19.53125 -1.421875 13.0625 8.265625 
Q 6.59375 17.96875 6.59375 36.375 
Q 6.59375 54.828125 13.0625 64.515625 
Q 19.53125 74.21875 31.78125 74.21875 
z
" id="DejaVuSans-48"/>
       </defs>
       <use xlink:href="#DejaVuSans-8722"/>
       <use x="83.789062" xlink:href="#DejaVuSans-49"/>
       <use x="147.412109" xlink:href="#DejaVuSans-46"/>
       <use x="179.199219" xlink:href="#DejaVuSans-48"/>
      </g>
     </g>
    </g>
    <g id="ytick_3">
     <g id="line2d_4">
      <g>
       <use style="stroke:#000000;stroke-width:0.8;" x="36" xlink:href="#m3c169bac9e" y="408.837447"/>
      </g>
     </g>
     <g id="text_4">
      <!-- −0.5 -->
      <g transform="translate(4.717187 412.636666)scale(0.1 -0.1)">
       <use xlink:href="#DejaVuSans-8722"/>
       <use x="83.789062" xlink:href="#DejaVuSans-48"/>
       <use x="147.412109" xlink:href="#DejaVuSans-46"/>
       <use x="179.199219" xlink:href="#DejaVuSans-53"/>
      </g>
     </g>
    </g>
    <g id="ytick_4">
     <g id="line2d_5">
      <g>
       <use style="stroke:#000000;stroke-width:0.8;" x="36" xlink:href="#m3c169bac9e" y="361.654468"/>
      </g>
     </g>
     <g id="text_5">
      <!-- 0.0 -->
      <g transform="translate(13.096875 365.453687)scale(0.1 -0.1)">
       <use xlink:href="#DejaVuSans-48"/>
       <use x="63.623047" xlink:href="#DejaVuSans-46"/>
       <use x="95.410156" xlink:href="#DejaVuSans-48"/>
      </g>
     </g>
    </g>
    <g id="ytick_5">
     <g id="line2d_6">
      <g>
       <use style="stroke:#000000;stroke-width:0.8;" x="36" xlink:href="#m3c169bac9e" y="314.471489"/>
      </g>
     </g>
     <g id="text_6">
      <!-- 0.5 -->
      <g transform="translate(13.096875 318.270708)scale(0.1 -0.1)">
       <use xlink:href="#DejaVuSans-48"/>
       <use x="63.623047" xlink:href="#DejaVuSans-46"/>
       <use x="95.410156" xlink:href="#DejaVuSans-53"/>
      </g>
     </g>
    </g>
    <g id="ytick_6">
     <g id="line2d_7">
      <g>
       <use style="stroke:#000000;stroke-width:0.8;" x="36" xlink:href="#m3c169bac9e" y="267.288511"/>
      </g>
     </g>
     <g id="text_7">
      <!-- 1.0 -->
      <g transform="translate(13.096875 271.087729)scale(0.1 -0.1)">
       <use xlink:href="#DejaVuSans-49"/>
       <use x="63.623047" xlink:href="#DejaVuSans-46"/>
       <use x="95.410156" xlink:href="#DejaVuSans-48"/>
      </g>
     </g>
    </g>
    <g id="ytick_7">
     <g id="line2d_8">
      <g>
       <use style="stroke:#000000;stroke-width:0.8;" x="36" xlink:href="#m3c169bac9e" y="220.105532"/>
      </g>
     </g>
     <g id="text_8">
      <!-- 1.5 -->
      <g transform="translate(13.096875 223.904751)scale(0.1 -0.1)">
       <use xlink:href="#DejaVuSans-49"/>
       <use x="63.623047" xlink:href="#DejaVuSans-46"/>
       <use x="95.410156" xlink:href="#DejaVuSans-53"/>
      </g>
     </g>
    </g>
    <g id="ytick_8">
     <g id="line2d_9">
      <g>
       <use style="stroke:#000000;stroke-width:0.8;" x="36" xlink:href="#m3c169bac9e" y="172.922553"/>
      </g>
     </g>
     <g id="text_9">
      <!-- 2.0 -->
      <g transform="translate(13.096875 176.721772)scale(0.1 -0.1)">
       <defs>
        <path d="M 19.1875 8.296875 
L 53.609375 8.296875 
L 53.609375 0 
L 7.328125 0 
L 7.328125 8.296875 
Q 12.9375 14.109375 22.625 23.890625 
Q 32.328125 33.6875 34.8125 36.53125 
Q 39.546875 41.84375 41.421875 45.53125 
Q 43.3125 49.21875 43.3125 52.78125 
Q 43.3125 58.59375 39.234375 62.25 
Q 35.15625 65.921875 28.609375 65.921875 
Q 23.96875 65.921875 18.8125 64.3125 
Q 13.671875 62.703125 7.8125 59.421875 
L 7.8125 69.390625 
Q 13.765625 71.78125 18.9375 73 
Q 24.125 74.21875 28.421875 74.21875 
Q 39.75 74.21875 46.484375 68.546875 
Q 53.21875 62.890625 53.21875 53.421875 
Q 53.21875 48.921875 51.53125 44.890625 
Q 49.859375 40.875 45.40625 35.40625 
Q 44.1875 33.984375 37.640625 27.21875 
Q 31.109375 20.453125 19.1875 8.296875 
z
" id="DejaVuSans-50"/>
       </defs>
       <use xlink:href="#DejaVuSans-50"/>
       <use x="63.623047" xlink:href="#DejaVuSans-46"/>
       <use x="95.410156" xlink:href="#DejaVuSans-48"/>
      </g>
     </g>
    </g>
    <g id="ytick_9">
     <g id="line2d_10">
      <g>
       <use style="stroke:#000000;stroke-width:0.8;" x="36" xlink:href="#m3c169bac9e" y="125.739574"/>
      </g>
     </g>
     <g id="text_10">
      <!-- 2.5 -->
      <g transform="translate(13.096875 129.538793)scale(0.1 -0.1)">
       <use xlink:href="#DejaVuSans-50"/>
       <use x="63.623047" xlink:href="#DejaVuSans-46"/>
       <use x="95.410156" xlink:href="#DejaVuSans-53"/>
      </g>
     </g>
    </g>
    <g id="ytick_10">
     <g id="line2d_11">
      <g>
       <use style="stroke:#000000;stroke-width:0.8;" x="36" xlink:href="#m3c169bac9e" y="78.556596"/>
      </g>
     </g>
     <g id="text_11">
      <!-- 3.0 -->
      <g transform="translate(13.096875 82.355814)scale(0.1 -0.1)">
       <defs>
        <path d="M 40.578125 39.3125 
Q 47.65625 37.796875 51.625 33 
Q 55.609375 28.21875 55.609375 21.1875 
Q 55.609375 10.40625 48.1875 4.484375 
Q 40.765625 -1.421875 27.09375 -1.421875 
Q 22.515625 -1.421875 17.65625 -0.515625 
Q 12.796875 0.390625 7.625 2.203125 
L 7.625 11.71875 
Q 11.71875 9.328125 16.59375 8.109375 
Q 21.484375 6.890625 26.8125 6.890625 
Q 36.078125 6.890625 40.9375 10.546875 
Q 45.796875 14.203125 45.796875 21.1875 
Q 45.796875 27.640625 41.28125 31.265625 
Q 36.765625 34.90625 28.71875 34.90625 
L 20.21875 34.90625 
L 20.21875 43.015625 
L 29.109375 43.015625 
Q 36.375 43.015625 40.234375 45.921875 
Q 44.09375 48.828125 44.09375 54.296875 
Q 44.09375 59.90625 40.109375 62.90625 
Q 36.140625 65.921875 28.71875 65.921875 
Q 24.65625 65.921875 20.015625 65.03125 
Q 15.375 64.15625 9.8125 62.3125 
L 9.8125 71.09375 
Q 15.4375 72.65625 20.34375 73.4375 
Q 25.25 74.21875 29.59375 74.21875 
Q 40.828125 74.21875 47.359375 69.109375 
Q 53.90625 64.015625 53.90625 55.328125 
Q 53.90625 49.265625 50.4375 45.09375 
Q 46.96875 40.921875 40.578125 39.3125 
z
" id="DejaVuSans-51"/>
       </defs>
       <use xlink:href="#DejaVuSans-51"/>
       <use x="63.623047" xlink:href="#DejaVuSans-46"/>
       <use x="95.410156" xlink:href="#DejaVuSans-48"/>
      </g>
     </g>
    </g>
    <g id="text_12">
     <!-- LogOdds -->
     <g transform="translate(-1.3625 312.701094)rotate(-90)scale(0.1 -0.1)">
      <defs>
       <path d="M 9.8125 72.90625 
L 19.671875 72.90625 
L 19.671875 8.296875 
L 55.171875 8.296875 
L 55.171875 0 
L 9.8125 0 
z
" id="DejaVuSans-76"/>
       <path d="M 30.609375 48.390625 
Q 23.390625 48.390625 19.1875 42.75 
Q 14.984375 37.109375 14.984375 27.296875 
Q 14.984375 17.484375 19.15625 11.84375 
Q 23.34375 6.203125 30.609375 6.203125 
Q 37.796875 6.203125 41.984375 11.859375 
Q 46.1875 17.53125 46.1875 27.296875 
Q 46.1875 37.015625 41.984375 42.703125 
Q 37.796875 48.390625 30.609375 48.390625 
z
M 30.609375 56 
Q 42.328125 56 49.015625 48.375 
Q 55.71875 40.765625 55.71875 27.296875 
Q 55.71875 13.875 49.015625 6.21875 
Q 42.328125 -1.421875 30.609375 -1.421875 
Q 18.84375 -1.421875 12.171875 6.21875 
Q 5.515625 13.875 5.515625 27.296875 
Q 5.515625 40.765625 12.171875 48.375 
Q 18.84375 56 30.609375 56 
z
" id="DejaVuSans-111"/>
       <path d="M 45.40625 27.984375 
Q 45.40625 37.75 41.375 43.109375 
Q 37.359375 48.484375 30.078125 48.484375 
Q 22.859375 48.484375 18.828125 43.109375 
Q 14.796875 37.75 14.796875 27.984375 
Q 14.796875 18.265625 18.828125 12.890625 
Q 22.859375 7.515625 30.078125 7.515625 
Q 37.359375 7.515625 41.375 12.890625 
Q 45.40625 18.265625 45.40625 27.984375 
z
M 54.390625 6.78125 
Q 54.390625 -7.171875 48.1875 -13.984375 
Q 42 -20.796875 29.203125 -20.796875 
Q 24.46875 -20.796875 20.265625 -20.09375 
Q 16.0625 -19.390625 12.109375 -17.921875 
L 12.109375 -9.1875 
Q 16.0625 -11.328125 19.921875 -12.34375 
Q 23.78125 -13.375 27.78125 -13.375 
Q 36.625 -13.375 41.015625 -8.765625 
Q 45.40625 -4.15625 45.40625 5.171875 
L 45.40625 9.625 
Q 42.625 4.78125 38.28125 2.390625 
Q 33.9375 0 27.875 0 
Q 17.828125 0 11.671875 7.65625 
Q 5.515625 15.328125 5.515625 27.984375 
Q 5.515625 40.671875 11.671875 48.328125 
Q 17.828125 56 27.875 56 
Q 33.9375 56 38.28125 53.609375 
Q 42.625 51.21875 45.40625 46.390625 
L 45.40625 54.6875 
L 54.390625 54.6875 
z
" id="DejaVuSans-103"/>
       <path d="M 39.40625 66.21875 
Q 28.65625 66.21875 22.328125 58.203125 
Q 16.015625 50.203125 16.015625 36.375 
Q 16.015625 22.609375 22.328125 14.59375 
Q 28.65625 6.59375 39.40625 6.59375 
Q 50.140625 6.59375 56.421875 14.59375 
Q 62.703125 22.609375 62.703125 36.375 
Q 62.703125 50.203125 56.421875 58.203125 
Q 50.140625 66.21875 39.40625 66.21875 
z
M 39.40625 74.21875 
Q 54.734375 74.21875 63.90625 63.9375 
Q 73.09375 53.65625 73.09375 36.375 
Q 73.09375 19.140625 63.90625 8.859375 
Q 54.734375 -1.421875 39.40625 -1.421875 
Q 24.03125 -1.421875 14.8125 8.828125 
Q 5.609375 19.09375 5.609375 36.375 
Q 5.609375 53.65625 14.8125 63.9375 
Q 24.03125 74.21875 39.40625 74.21875 
z
" id="DejaVuSans-79"/>
       <path d="M 45.40625 46.390625 
L 45.40625 75.984375 
L 54.390625 75.984375 
L 54.390625 0 
L 45.40625 0 
L 45.40625 8.203125 
Q 42.578125 3.328125 38.25 0.953125 
Q 33.9375 -1.421875 27.875 -1.421875 
Q 17.96875 -1.421875 11.734375 6.484375 
Q 5.515625 14.40625 5.515625 27.296875 
Q 5.515625 40.1875 11.734375 48.09375 
Q 17.96875 56 27.875 56 
Q 33.9375 56 38.25 53.625 
Q 42.578125 51.265625 45.40625 46.390625 
z
M 14.796875 27.296875 
Q 14.796875 17.390625 18.875 11.75 
Q 22.953125 6.109375 30.078125 6.109375 
Q 37.203125 6.109375 41.296875 11.75 
Q 45.40625 17.390625 45.40625 27.296875 
Q 45.40625 37.203125 41.296875 42.84375 
Q 37.203125 48.484375 30.078125 48.484375 
Q 22.953125 48.484375 18.875 42.84375 
Q 14.796875 37.203125 14.796875 27.296875 
z
" id="DejaVuSans-100"/>
       <path d="M 44.28125 53.078125 
L 44.28125 44.578125 
Q 40.484375 46.53125 36.375 47.5 
Q 32.28125 48.484375 27.875 48.484375 
Q 21.1875 48.484375 17.84375 46.4375 
Q 14.5 44.390625 14.5 40.28125 
Q 14.5 37.15625 16.890625 35.375 
Q 19.28125 33.59375 26.515625 31.984375 
L 29.59375 31.296875 
Q 39.15625 29.25 43.1875 25.515625 
Q 47.21875 21.78125 47.21875 15.09375 
Q 47.21875 7.46875 41.1875 3.015625 
Q 35.15625 -1.421875 24.609375 -1.421875 
Q 20.21875 -1.421875 15.453125 -0.5625 
Q 10.6875 0.296875 5.421875 2 
L 5.421875 11.28125 
Q 10.40625 8.6875 15.234375 7.390625 
Q 20.0625 6.109375 24.8125 6.109375 
Q 31.15625 6.109375 34.5625 8.28125 
Q 37.984375 10.453125 37.984375 14.40625 
Q 37.984375 18.0625 35.515625 20.015625 
Q 33.0625 21.96875 24.703125 23.78125 
L 21.578125 24.515625 
Q 13.234375 26.265625 9.515625 29.90625 
Q 5.8125 33.546875 5.8125 39.890625 
Q 5.8125 47.609375 11.28125 51.796875 
Q 16.75 56 26.8125 56 
Q 31.78125 56 36.171875 55.265625 
Q 40.578125 54.546875 44.28125 53.078125 
z
" id="DejaVuSans-115"/>
      </defs>
      <use xlink:href="#DejaVuSans-76"/>
      <use x="53.962891" xlink:href="#DejaVuSans-111"/>
      <use x="115.144531" xlink:href="#DejaVuSans-103"/>
      <use x="178.621094" xlink:href="#DejaVuSans-79"/>
      <use x="257.332031" xlink:href="#DejaVuSans-100"/>
      <use x="320.808594" xlink:href="#DejaVuSans-100"/>
      <use x="384.285156" xlink:href="#DejaVuSans-115"/>
     </g>
    </g>
   </g>
   <g id="line2d_12">
    <path clip-path="url(#p5a48dee498)" d="M 130.86 362.518244 
L 164.34 362.518244 
L 164.34 301.117357 
L 130.86 301.117357 
L 130.86 362.518244 
" style="fill:none;stroke:#000000;stroke-linecap:square;"/>
   </g>
   <g id="line2d_13">
    <path clip-path="url(#p5a48dee498)" d="M 147.6 362.518244 
L 147.6 418.689891 
" style="fill:none;stroke:#000000;stroke-linecap:square;"/>
   </g>
   <g id="line2d_14">
    <path clip-path="url(#p5a48dee498)" d="M 147.6 301.117357 
L 147.6 216.676387 
" style="fill:none;stroke:#000000;stroke-linecap:square;"/>
   </g>
   <g id="line2d_15">
    <path clip-path="url(#p5a48dee498)" d="M 139.23 418.689891 
L 155.97 418.689891 
" style="fill:none;stroke:#000000;stroke-linecap:square;"/>
   </g>
   <g id="line2d_16">
    <path clip-path="url(#p5a48dee498)" d="M 139.23 216.676387 
L 155.97 216.676387 
" style="fill:none;stroke:#000000;stroke-linecap:square;"/>
   </g>
   <g id="line2d_17">
    <path clip-path="url(#p5a48dee498)" d="M 130.86 335.854558 
L 164.34 335.854558 
" style="fill:none;stroke:#ff7f0e;stroke-linecap:square;"/>
   </g>
   <g id="patch_3">
    <path d="M 36 512.64 
L 36 69.12 
" style="fill:none;stroke:#000000;stroke-linecap:square;stroke-linejoin:miter;stroke-width:0.8;"/>
   </g>
   <g id="patch_4">
    <path d="M 259.2 512.64 
L 259.2 69.12 
" style="fill:none;stroke:#000000;stroke-linecap:square;stroke-linejoin:miter;stroke-width:0.8;"/>
   </g>
   <g id="patch_5">
    <path d="M 36 512.64 
L 259.2 512.64 
" style="fill:none;stroke:#000000;stroke-linecap:square;stroke-linejoin:miter;stroke-width:0.8;"/>
   </g>
   <g id="patch_6">
    <path d="M 36 69.12 
L 259.2 69.12 
" style="fill:none;stroke:#000000;stroke-linecap:square;stroke-linejoin:miter;stroke-width:0.8;"/>
   </g>
   <g id="text_13">
    <!-- 0 -->
    <g style="fill:#999999;" transform="translate(157.598705 330.775818)scale(0.1 -0.1)">
     <use xlink:href="#DejaVuSans-48"/>
    </g>
   </g>
   <g id="text_14">
    <!-- 1.0 -->
    <g style="fill:#e69f00;" transform="translate(140.059086 334.910899)scale(0.1 -0.1)">
     <use xlink:href="#DejaVuSans-49"/>
     <use x="63.623047" xlink:href="#DejaVuSans-46"/>
     <use x="95.410156" xlink:href="#DejaVuSans-48"/>
    </g>
   </g>
   <g id="text_15">
    <!-- 2.0 -->
    <g style="fill:#56b4e9;" transform="translate(139.168465 215.732727)scale(0.1 -0.1)">
     <use xlink:href="#DejaVuSans-50"/>
     <use x="63.623047" xlink:href="#DejaVuSans-46"/>
     <use x="95.410156" xlink:href="#DejaVuSans-48"/>
    </g>
   </g>
   <g id="text_16">
    <!-- 3.0 -->
    <g style="fill:#009e73;" transform="translate(136.350507 472.190335)scale(0.1 -0.1)">
     <use xlink:href="#DejaVuSans-51"/>
     <use x="63.623047" xlink:href="#DejaVuSans-46"/>
     <use x="95.410156" xlink:href="#DejaVuSans-48"/>
    </g>
   </g>
   <g id="text_17">
    <!-- 4 -->
    <g style="fill:#f0e442;" transform="translate(124.383587 295.135125)scale(0.1 -0.1)">
     <defs>
      <path d="M 37.796875 64.3125 
L 12.890625 25.390625 
L 37.796875 25.390625 
z
M 35.203125 72.90625 
L 47.609375 72.90625 
L 47.609375 25.390625 
L 58.015625 25.390625 
L 58.015625 17.1875 
L 47.609375 17.1875 
L 47.609375 0 
L 37.796875 0 
L 37.796875 17.1875 
L 4.890625 17.1875 
L 4.890625 26.703125 
z
" id="DejaVuSans-52"/>
     </defs>
     <use xlink:href="#DejaVuSans-52"/>
    </g>
   </g>
   <g id="text_18">
    <!-- 5.0 -->
    <g style="fill:#0072b2;" transform="translate(165.040115 316.089215)scale(0.1 -0.1)">
     <use xlink:href="#DejaVuSans-53"/>
     <use x="63.623047" xlink:href="#DejaVuSans-46"/>
     <use x="95.410156" xlink:href="#DejaVuSans-48"/>
    </g>
   </g>
   <g id="text_19">
    <!-- 6.0 -->
    <g style="fill:#d55e00;" transform="translate(146.311544 305.21227)scale(0.1 -0.1)">
     <defs>
      <path d="M 33.015625 40.375 
Q 26.375 40.375 22.484375 35.828125 
Q 18.609375 31.296875 18.609375 23.390625 
Q 18.609375 15.53125 22.484375 10.953125 
Q 26.375 6.390625 33.015625 6.390625 
Q 39.65625 6.390625 43.53125 10.953125 
Q 47.40625 15.53125 47.40625 23.390625 
Q 47.40625 31.296875 43.53125 35.828125 
Q 39.65625 40.375 33.015625 40.375 
z
M 52.59375 71.296875 
L 52.59375 62.3125 
Q 48.875 64.0625 45.09375 64.984375 
Q 41.3125 65.921875 37.59375 65.921875 
Q 27.828125 65.921875 22.671875 59.328125 
Q 17.53125 52.734375 16.796875 39.40625 
Q 19.671875 43.65625 24.015625 45.921875 
Q 28.375 48.1875 33.59375 48.1875 
Q 44.578125 48.1875 50.953125 41.515625 
Q 57.328125 34.859375 57.328125 23.390625 
Q 57.328125 12.15625 50.6875 5.359375 
Q 44.046875 -1.421875 33.015625 -1.421875 
Q 20.359375 -1.421875 13.671875 8.265625 
Q 6.984375 17.96875 6.984375 36.375 
Q 6.984375 53.65625 15.1875 63.9375 
Q 23.390625 74.21875 37.203125 74.21875 
Q 40.921875 74.21875 44.703125 73.484375 
Q 48.484375 72.75 52.59375 71.296875 
z
" id="DejaVuSans-54"/>
     </defs>
     <use xlink:href="#DejaVuSans-54"/>
     <use x="63.623047" xlink:href="#DejaVuSans-46"/>
     <use x="95.410156" xlink:href="#DejaVuSans-48"/>
    </g>
   </g>
   <g id="text_20">
    <!-- 7 -->
    <g style="fill:#cc79a7;" transform="translate(147.981755 364.838688)scale(0.1 -0.1)">
     <defs>
      <path d="M 8.203125 72.90625 
L 55.078125 72.90625 
L 55.078125 68.703125 
L 28.609375 0 
L 18.3125 0 
L 43.21875 64.59375 
L 8.203125 64.59375 
z
" id="DejaVuSans-55"/>
     </defs>
     <use xlink:href="#DejaVuSans-55"/>
    </g>
   </g>
   <g id="text_21">
    <!-- 8.0 -->
    <g style="fill:#f46d43;" transform="translate(155.879125 354.528391)scale(0.1 -0.1)">
     <defs>
      <path d="M 31.78125 34.625 
Q 24.75 34.625 20.71875 30.859375 
Q 16.703125 27.09375 16.703125 20.515625 
Q 16.703125 13.921875 20.71875 10.15625 
Q 24.75 6.390625 31.78125 6.390625 
Q 38.8125 6.390625 42.859375 10.171875 
Q 46.921875 13.96875 46.921875 20.515625 
Q 46.921875 27.09375 42.890625 30.859375 
Q 38.875 34.625 31.78125 34.625 
z
M 21.921875 38.8125 
Q 15.578125 40.375 12.03125 44.71875 
Q 8.5 49.078125 8.5 55.328125 
Q 8.5 64.0625 14.71875 69.140625 
Q 20.953125 74.21875 31.78125 74.21875 
Q 42.671875 74.21875 48.875 69.140625 
Q 55.078125 64.0625 55.078125 55.328125 
Q 55.078125 49.078125 51.53125 44.71875 
Q 48 40.375 41.703125 38.8125 
Q 48.828125 37.15625 52.796875 32.3125 
Q 56.78125 27.484375 56.78125 20.515625 
Q 56.78125 9.90625 50.3125 4.234375 
Q 43.84375 -1.421875 31.78125 -1.421875 
Q 19.734375 -1.421875 13.25 4.234375 
Q 6.78125 9.90625 6.78125 20.515625 
Q 6.78125 27.484375 10.78125 32.3125 
Q 14.796875 37.15625 21.921875 38.8125 
z
M 18.3125 54.390625 
Q 18.3125 48.734375 21.84375 45.5625 
Q 25.390625 42.390625 31.78125 42.390625 
Q 38.140625 42.390625 41.71875 45.5625 
Q 45.3125 48.734375 45.3125 54.390625 
Q 45.3125 60.0625 41.71875 63.234375 
Q 38.140625 66.40625 31.78125 66.40625 
Q 25.390625 66.40625 21.84375 63.234375 
Q 18.3125 60.0625 18.3125 54.390625 
z
" id="DejaVuSans-56"/>
     </defs>
     <use xlink:href="#DejaVuSans-56"/>
     <use x="63.623047" xlink:href="#DejaVuSans-46"/>
     <use x="95.410156" xlink:href="#DejaVuSans-48"/>
    </g>
   </g>
   <g id="text_22">
    <!-- 9 -->
    <g style="fill:#abd9e9;" transform="translate(139.646182 312.097615)scale(0.1 -0.1)">
     <defs>
      <path d="M 10.984375 1.515625 
L 10.984375 10.5 
Q 14.703125 8.734375 18.5 7.8125 
Q 22.3125 6.890625 25.984375 6.890625 
Q 35.75 6.890625 40.890625 13.453125 
Q 46.046875 20.015625 46.78125 33.40625 
Q 43.953125 29.203125 39.59375 26.953125 
Q 35.25 24.703125 29.984375 24.703125 
Q 19.046875 24.703125 12.671875 31.3125 
Q 6.296875 37.9375 6.296875 49.421875 
Q 6.296875 60.640625 12.9375 67.421875 
Q 19.578125 74.21875 30.609375 74.21875 
Q 43.265625 74.21875 49.921875 64.515625 
Q 56.59375 54.828125 56.59375 36.375 
Q 56.59375 19.140625 48.40625 8.859375 
Q 40.234375 -1.421875 26.421875 -1.421875 
Q 22.703125 -1.421875 18.890625 -0.6875 
Q 15.09375 0.046875 10.984375 1.515625 
z
M 30.609375 32.421875 
Q 37.25 32.421875 41.125 36.953125 
Q 45.015625 41.5 45.015625 49.421875 
Q 45.015625 57.28125 41.125 61.84375 
Q 37.25 66.40625 30.609375 66.40625 
Q 23.96875 66.40625 20.09375 61.84375 
Q 16.21875 57.28125 16.21875 49.421875 
Q 16.21875 41.5 20.09375 36.953125 
Q 23.96875 32.421875 30.609375 32.421875 
z
" id="DejaVuSans-57"/>
     </defs>
     <use xlink:href="#DejaVuSans-57"/>
    </g>
   </g>
   <g id="text_23">
    <!-- 5.3 -->
    <g style="fill:#e69f00;" transform="translate(147.039931 362.545493)scale(0.1 -0.1)">
     <use xlink:href="#DejaVuSans-53"/>
     <use x="63.623047" xlink:href="#DejaVuSans-46"/>
     <use x="95.410156" xlink:href="#DejaVuSans-51"/>
    </g>
   </g>
   <g id="text_24">
    <!-- 5.2 -->
    <g style="fill:#009e73;" transform="translate(150.769491 231.609512)scale(0.1 -0.1)">
     <use xlink:href="#DejaVuSans-53"/>
     <use x="63.623047" xlink:href="#DejaVuSans-46"/>
     <use x="95.410156" xlink:href="#DejaVuSans-50"/>
    </g>
   </g>
   <g id="text_25">
    <!-- 6.1 -->
    <g style="fill:#f0e442;" transform="translate(161.036517 246.739418)scale(0.1 -0.1)">
     <use xlink:href="#DejaVuSans-54"/>
     <use x="63.623047" xlink:href="#DejaVuSans-46"/>
     <use x="95.410156" xlink:href="#DejaVuSans-49"/>
    </g>
   </g>
   <g id="text_26">
    <!-- 1.4 -->
    <g style="fill:#d55e00;" transform="translate(151.138639 417.746231)scale(0.1 -0.1)">
     <use xlink:href="#DejaVuSans-49"/>
     <use x="63.623047" xlink:href="#DejaVuSans-46"/>
     <use x="95.410156" xlink:href="#DejaVuSans-52"/>
    </g>
   </g>
   <g id="text_27">
    <!-- 1.3 -->
    <g style="fill:#cc79a7;" transform="translate(154.32207 351.75796)scale(0.1 -0.1)">
     <use xlink:href="#DejaVuSans-49"/>
     <use x="63.623047" xlink:href="#DejaVuSans-46"/>
     <use x="95.410156" xlink:href="#DejaVuSans-51"/>
    </g>
   </g>
   <g id="text_28">
    <!-- 2.2 -->
    <g style="fill:#f46d43;" transform="translate(144.41052 343.912892)scale(0.1 -0.1)">
     <use xlink:href="#DejaVuSans-50"/>
     <use x="63.623047" xlink:href="#DejaVuSans-46"/>
     <use x="95.410156" xlink:href="#DejaVuSans-50"/>
    </g>
   </g>
   <g id="text_29">
    <!-- 3.1 -->
    <g style="fill:#abd9e9;" transform="translate(151.43373 405.876433)scale(0.1 -0.1)">
     <use xlink:href="#DejaVuSans-51"/>
     <use x="63.623047" xlink:href="#DejaVuSans-46"/>
     <use x="95.410156" xlink:href="#DejaVuSans-49"/>
    </g>
   </g>
   <g id="text_30">
    <!-- 1.2 -->
    <g style="fill:#999999;" transform="translate(156.887941 275.793569)scale(0.1 -0.1)">
     <use xlink:href="#DejaVuSans-49"/>
     <use x="63.623047" xlink:href="#DejaVuSans-46"/>
     <use x="95.410156" xlink:href="#DejaVuSans-50"/>
    </g>
   </g>
   <g id="text_31">
    <!-- 1.1 -->
    <g style="fill:#56b4e9;" transform="translate(144.99276 360.603676)scale(0.1 -0.1)">
     <use xlink:href="#DejaVuSans-49"/>
     <use x="63.623047" xlink:href="#DejaVuSans-46"/>
     <use x="95.410156" xlink:href="#DejaVuSans-49"/>
    </g>
   </g>
   <g id="legend_1">
    <g id="patch_7">
     <path d="M 248.2 82.12 
L 252.2 82.12 
Q 254.2 82.12 254.2 80.12 
L 254.2 76.12 
Q 254.2 74.12 252.2 74.12 
L 248.2 74.12 
Q 246.2 74.12 246.2 76.12 
L 246.2 80.12 
Q 246.2 82.12 248.2 82.12 
z
" style="fill:#ffffff;opacity:0.8;stroke:#cccccc;stroke-linejoin:miter;"/>
    </g>
   </g>
  </g>
 </g>
 <defs>
  <clipPath id="p5a48dee498">
   <rect height="443.52" width="223.2" x="36" y="69.12"/>
  </clipPath>
 </defs>
</svg>
