<?xml version="1.0" encoding="utf-8" standalone="no"?>
<!DOCTYPE svg PUBLIC "-//W3C//DTD SVG 1.1//EN"
  "http://www.w3.org/Graphics/SVG/1.1/DTD/svg11.dtd">
<!-- Created with matplotlib (https://matplotlib.org/) -->
<svg height="576pt" version="1.1" viewBox="0 0 288 576" width="288pt" xmlns="http://www.w3.org/2000/svg" xmlns:xlink="http://www.w3.org/1999/xlink">
 <metadata>
  <rdf:RDF xmlns:cc="http://creativecommons.org/ns#" xmlns:dc="http://purl.org/dc/elements/1.1/" xmlns:rdf="http://www.w3.org/1999/02/22-rdf-syntax-ns#">
   <cc:Work>
    <dc:type rdf:resource="http://purl.org/dc/dcmitype/StillImage"/>
    <dc:date>2023-03-28T13:01:50.660027</dc:date>
    <dc:format>image/svg+xml</dc:format>
    <dc:creator>
     <cc:Agent>
      <dc:title>Matplotlib v3.3.4, https://matplotlib.org/</dc:title>
     </cc:Agent>
    </dc:creator>
   </cc:Work>
  </rdf:RDF>
 </metadata>
 <defs>
  <style type="text/css">*{stroke-linecap:butt;stroke-linejoin:round;}</style>
 </defs>
 <g id="figure_1">
  <g id="patch_1">
   <path d="M 0 576 
L 288 576 
L 288 0 
L 0 0 
z
" style="fill:#ffffff;"/>
  </g>
  <g id="axes_1">
   <g id="patch_2">
    <path d="M 36 512.64 
L 259.2 512.64 
L 259.2 69.12 
L 36 69.12 
z
" style="fill:#ffffff;"/>
   </g>
   <g id="PathCollection_1">
    <path clip-path="url(#p2748ba2a02)" d="M 144.749582 350.090651 
C 149.621674 350.090651 154.294873 348.154948 157.739963 344.709859 
C 161.185052 341.26477 163.120755 336.59157 163.120755 331.719478 
C 163.120755 326.847386 161.185052 322.174186 157.739963 318.729097 
C 154.294873 315.284007 149.621674 313.348305 144.749582 313.348305 
C 139.87749 313.348305 135.20429 315.284007 131.759201 318.729097 
C 128.314111 322.174186 126.378409 326.847386 126.378409 331.719478 
C 126.378409 336.59157 128.314111 341.26477 131.759201 344.709859 
C 135.20429 348.154948 139.87749 350.090651 144.749582 350.090651 
z
" style="fill:#999999;stroke:#999999;"/>
    <path clip-path="url(#p2748ba2a02)" d="M 140.501106 341.978282 
C 142.125137 341.978282 143.68287 341.333048 144.831233 340.184685 
C 145.979596 339.036322 146.624831 337.478589 146.624831 335.854558 
C 146.624831 334.230527 145.979596 332.672794 144.831233 331.524431 
C 143.68287 330.376068 142.125137 329.730834 140.501106 329.730834 
C 138.877076 329.730834 137.319342 330.376068 136.170979 331.524431 
C 135.022616 332.672794 134.377382 334.230527 134.377382 335.854558 
C 134.377382 337.478589 135.022616 339.036322 136.170979 340.184685 
C 137.319342 341.333048 138.877076 341.978282 140.501106 341.978282 
z
" style="fill:#e69f00;stroke:#e69f00;"/>
    <path clip-path="url(#p2748ba2a02)" d="M 140.642708 224.582081 
C 142.739323 224.582081 144.750348 223.749087 146.232878 222.266557 
C 147.715409 220.784027 148.548402 218.773002 148.548402 216.676387 
C 148.548402 214.579772 147.715409 212.568748 146.232878 211.086217 
C 144.750348 209.603687 142.739323 208.770693 140.642708 208.770693 
C 138.546094 208.770693 136.535069 209.603687 135.052538 211.086217 
C 133.570008 212.568748 132.737014 214.579772 132.737014 216.676387 
C 132.737014 218.773002 133.570008 220.784027 135.052538 222.266557 
C 136.535069 223.749087 138.546094 224.582081 140.642708 224.582081 
z
" style="fill:#56b4e9;stroke:#56b4e9;"/>
    <path clip-path="url(#p2748ba2a02)" d="M 151.295433 482.488138 
C 153.77618 482.488138 156.155657 481.502526 157.909811 479.748372 
C 159.663965 477.994219 160.649576 475.614742 160.649576 473.133994 
C 160.649576 470.653246 159.663965 468.273769 157.909811 466.519616 
C 156.155657 464.765462 153.77618 463.779851 151.295433 463.779851 
C 148.814685 463.779851 146.435208 464.765462 144.681054 466.519616 
C 142.926901 468.273769 141.941289 470.653246 141.941289 473.133994 
C 141.941289 475.614742 142.926901 477.994219 144.681054 479.748372 
C 146.435208 481.502526 148.814685 482.488138 151.295433 482.488138 
z
" style="fill:#009e73;stroke:#009e73;"/>
    <path clip-path="url(#p2748ba2a02)" d="M 139.912202 303.984478 
C 142.008817 303.984478 144.019842 303.151485 145.502372 301.668954 
C 146.984903 300.186424 147.817897 298.175399 147.817897 296.078784 
C 147.817897 293.98217 146.984903 291.971145 145.502372 290.488614 
C 144.019842 289.006084 142.008817 288.17309 139.912202 288.17309 
C 137.815588 288.17309 135.804563 289.006084 134.322033 290.488614 
C 132.839502 291.971145 132.006508 293.98217 132.006508 296.078784 
C 132.006508 298.175399 132.839502 300.186424 134.322033 301.668954 
C 135.804563 303.151485 137.815588 303.984478 139.912202 303.984478 
z
" style="fill:#f0e442;stroke:#f0e442;"/>
    <path clip-path="url(#p2748ba2a02)" d="M 138.798153 325.693129 
C 141.094879 325.693129 143.297847 324.78063 144.921877 323.156599 
C 146.545908 321.532569 147.458407 319.329601 147.458407 317.032875 
C 147.458407 314.736149 146.545908 312.533181 144.921877 310.909151 
C 143.297847 309.28512 141.094879 308.372621 138.798153 308.372621 
C 136.501427 308.372621 134.298459 309.28512 132.674429 310.909151 
C 131.050398 312.533181 130.137899 314.736149 130.137899 317.032875 
C 130.137899 319.329601 131.050398 321.532569 132.674429 323.156599 
C 134.298459 324.78063 136.501427 325.693129 138.798153 325.693129 
z
" style="fill:#0072b2;stroke:#0072b2;"/>
    <path clip-path="url(#p2748ba2a02)" d="M 131.824003 315.510073 
C 134.304751 315.510073 136.684228 314.524462 138.438382 312.770308 
C 140.192535 311.016155 141.178147 308.636678 141.178147 306.15593 
C 141.178147 303.675182 140.192535 301.295705 138.438382 299.541552 
C 136.684228 297.787398 134.304751 296.801786 131.824003 296.801786 
C 129.343255 296.801786 126.963779 297.787398 125.209625 299.541552 
C 123.455471 301.295705 122.46986 303.675182 122.46986 306.15593 
C 122.46986 308.636678 123.455471 311.016155 125.209625 312.770308 
C 126.963779 314.524462 129.343255 315.510073 131.824003 315.510073 
z
" style="fill:#d55e00;stroke:#d55e00;"/>
    <path clip-path="url(#p2748ba2a02)" d="M 146.339387 374.442602 
C 148.636113 374.442602 150.839081 373.530103 152.463111 371.906072 
C 154.087142 370.282041 154.999641 368.079074 154.999641 365.782348 
C 154.999641 363.485621 154.087142 361.282654 152.463111 359.658623 
C 150.839081 358.034593 148.636113 357.122094 146.339387 357.122094 
C 144.042661 357.122094 141.839693 358.034593 140.215663 359.658623 
C 138.591632 361.282654 137.679133 363.485621 137.679133 365.782348 
C 137.679133 368.079074 138.591632 370.282041 140.215663 371.906072 
C 141.839693 373.530103 144.042661 374.442602 146.339387 374.442602 
z
" style="fill:#cc79a7;stroke:#cc79a7;"/>
    <path clip-path="url(#p2748ba2a02)" d="M 165.815214 368.2196 
C 169.195903 368.2196 172.438583 366.876438 174.829092 364.485929 
C 177.2196 362.095421 178.562762 358.85274 178.562762 355.472051 
C 178.562762 352.091361 177.2196 348.848681 174.829092 346.458173 
C 172.438583 344.067664 169.195903 342.724502 165.815214 342.724502 
C 162.434524 342.724502 159.191844 344.067664 156.801336 346.458173 
C 154.410827 348.848681 153.067665 352.091361 153.067665 355.472051 
C 153.067665 358.85274 154.410827 362.095421 156.801336 364.485929 
C 159.191844 366.876438 162.434524 368.2196 165.815214 368.2196 
z
" style="fill:#f46d43;stroke:#f46d43;"/>
    <path clip-path="url(#p2748ba2a02)" d="M 144.797554 320.946969 
C 146.894168 320.946969 148.905193 320.113975 150.387724 318.631444 
C 151.870254 317.148914 152.703248 315.137889 152.703248 313.041274 
C 152.703248 310.94466 151.870254 308.933635 150.387724 307.451105 
C 148.905193 305.968574 146.894168 305.13558 144.797554 305.13558 
C 142.700939 305.13558 140.689914 305.968574 139.207384 307.451105 
C 137.724853 308.933635 136.89186 310.94466 136.89186 313.041274 
C 136.89186 315.137889 137.724853 317.148914 139.207384 318.631444 
C 140.689914 320.113975 142.700939 320.946969 144.797554 320.946969 
z
" style="fill:#abd9e9;stroke:#abd9e9;"/>
    <path clip-path="url(#p2748ba2a02)" d="M 153.963562 368.489152 
C 155.289577 368.489152 156.561461 367.962321 157.499096 367.024686 
C 158.43673 366.087052 158.963562 364.815168 158.963562 363.489152 
C 158.963562 362.163137 158.43673 360.891253 157.499096 359.953618 
C 156.561461 359.015984 155.289577 358.489152 153.963562 358.489152 
C 152.637546 358.489152 151.365662 359.015984 150.428028 359.953618 
C 149.490393 360.891253 148.963562 362.163137 148.963562 363.489152 
C 148.963562 364.815168 149.490393 366.087052 150.428028 367.024686 
C 151.365662 367.962321 152.637546 368.489152 153.963562 368.489152 
z
" style="fill:#e69f00;stroke:#e69f00;"/>
    <path clip-path="url(#p2748ba2a02)" d="M 153.263805 238.676896 
C 154.887835 238.676896 156.445568 238.031662 157.593932 236.883299 
C 158.742295 235.734936 159.387529 234.177203 159.387529 232.553172 
C 159.387529 230.929141 158.742295 229.371408 157.593932 228.223045 
C 156.445568 227.074682 154.887835 226.429448 153.263805 226.429448 
C 151.639774 226.429448 150.082041 227.074682 148.933677 228.223045 
C 147.785314 229.371408 147.14008 230.929141 147.14008 232.553172 
C 147.14008 234.177203 147.785314 235.734936 148.933677 236.883299 
C 150.082041 238.031662 151.639774 238.676896 153.263805 238.676896 
z
" style="fill:#009e73;stroke:#009e73;"/>
    <path clip-path="url(#p2748ba2a02)" d="M 153.11851 257.683078 
C 155.770541 257.683078 158.314309 256.629415 160.189578 254.754146 
C 162.064847 252.878877 163.11851 250.335109 163.11851 247.683078 
C 163.11851 245.031047 162.064847 242.487279 160.189578 240.61201 
C 158.314309 238.736741 155.770541 237.683078 153.11851 237.683078 
C 150.466479 237.683078 147.922712 238.736741 146.047443 240.61201 
C 144.172173 242.487279 143.11851 245.031047 143.11851 247.683078 
C 143.11851 250.335109 144.172173 252.878877 146.047443 254.754146 
C 147.922712 256.629415 150.466479 257.683078 153.11851 257.683078 
z
" style="fill:#f0e442;stroke:#f0e442;"/>
    <path clip-path="url(#p2748ba2a02)" d="M 166.969406 423.689891 
C 168.295421 423.689891 169.567305 423.163059 170.50494 422.225424 
C 171.442574 421.28779 171.969406 420.015906 171.969406 418.689891 
C 171.969406 417.363875 171.442574 416.091991 170.50494 415.154357 
C 169.567305 414.216722 168.295421 413.689891 166.969406 413.689891 
C 165.64339 413.689891 164.371506 414.216722 163.433872 415.154357 
C 162.496237 416.091991 161.969406 417.363875 161.969406 418.689891 
C 161.969406 420.015906 162.496237 421.28779 163.433872 422.225424 
C 164.371506 423.163059 165.64339 423.689891 166.969406 423.689891 
z
" style="fill:#d55e00;stroke:#d55e00;"/>
    <path clip-path="url(#p2748ba2a02)" d="M 143.118617 358.825344 
C 144.742647 358.825344 146.300381 358.18011 147.448744 357.031747 
C 148.597107 355.883384 149.242341 354.32565 149.242341 352.70162 
C 149.242341 351.077589 148.597107 349.519856 147.448744 348.371493 
C 146.300381 347.223129 144.742647 346.577895 143.118617 346.577895 
C 141.494586 346.577895 139.936853 347.223129 138.78849 348.371493 
C 137.640127 349.519856 136.994892 351.077589 136.994892 352.70162 
C 136.994892 354.32565 137.640127 355.883384 138.78849 357.031747 
C 139.936853 358.18011 141.494586 358.825344 143.118617 358.825344 
z
" style="fill:#cc79a7;stroke:#cc79a7;"/>
    <path clip-path="url(#p2748ba2a02)" d="M 169.146412 354.856551 
C 171.798443 354.856551 174.342211 353.802888 176.21748 351.927619 
C 178.092749 350.05235 179.146412 347.508582 179.146412 344.856551 
C 179.146412 342.20452 178.092749 339.660752 176.21748 337.785483 
C 174.342211 335.910214 171.798443 334.856551 169.146412 334.856551 
C 166.494381 334.856551 163.950614 335.910214 162.075345 337.785483 
C 160.200075 339.660752 159.146412 342.20452 159.146412 344.856551 
C 159.146412 347.508582 160.200075 350.05235 162.075345 351.927619 
C 163.950614 353.802888 166.494381 354.856551 169.146412 354.856551 
z
" style="fill:#f46d43;stroke:#f46d43;"/>
    <path clip-path="url(#p2748ba2a02)" d="M 152.247446 411.820093 
C 153.573461 411.820093 154.845345 411.293261 155.78298 410.355627 
C 156.720614 409.417992 157.247446 408.146108 157.247446 406.820093 
C 157.247446 405.494077 156.720614 404.222194 155.78298 403.284559 
C 154.845345 402.346924 153.573461 401.820093 152.247446 401.820093 
C 150.92143 401.820093 149.649546 402.346924 148.711912 403.284559 
C 147.774277 404.222194 147.247446 405.494077 147.247446 406.820093 
C 147.247446 408.146108 147.774277 409.417992 148.711912 410.355627 
C 149.649546 411.293261 150.92143 411.820093 152.247446 411.820093 
z
" style="fill:#abd9e9;stroke:#abd9e9;"/>
    <path clip-path="url(#p2748ba2a02)" d="M 137.422857 282.860952 
C 139.046888 282.860952 140.604621 282.215718 141.752984 281.067355 
C 142.901347 279.918992 143.546582 278.361259 143.546582 276.737228 
C 143.546582 275.113197 142.901347 273.555464 141.752984 272.407101 
C 140.604621 271.258738 139.046888 270.613504 137.422857 270.613504 
C 135.798827 270.613504 134.241093 271.258738 133.09273 272.407101 
C 131.944367 273.555464 131.299133 275.113197 131.299133 276.737228 
C 131.299133 278.361259 131.944367 279.918992 133.09273 281.067355 
C 134.241093 282.215718 135.798827 282.860952 137.422857 282.860952 
z
" style="fill:#999999;stroke:#999999;"/>
    <path clip-path="url(#p2748ba2a02)" d="M 147.676377 367.67106 
C 149.300407 367.67106 150.858141 367.025826 152.006504 365.877463 
C 153.154867 364.7291 153.800101 363.171367 153.800101 361.547336 
C 153.800101 359.923305 153.154867 358.365572 152.006504 357.217209 
C 150.858141 356.068846 149.300407 355.423612 147.676377 355.423612 
C 146.052346 355.423612 144.494613 356.068846 143.34625 357.217209 
C 142.197887 358.365572 141.552652 359.923305 141.552652 361.547336 
C 141.552652 363.171367 142.197887 364.7291 143.34625 365.877463 
C 144.494613 367.025826 146.052346 367.67106 147.676377 367.67106 
z
" style="fill:#56b4e9;stroke:#56b4e9;"/>
   </g>
   <g id="matplotlib.axis_1">
    <g id="xtick_1">
     <g id="line2d_1">
      <defs>
       <path d="M 0 0 
L 0 3.5 
" id="mb2409d41e9" style="stroke:#000000;stroke-width:0.8;"/>
      </defs>
      <g>
       <use style="stroke:#000000;stroke-width:0.8;" x="147.6" xlink:href="#mb2409d41e9" y="512.64"/>
      </g>
     </g>
     <g id="text_1">
      <!-- MeanPD -->
      <g transform="translate(127.111719 527.238438)scale(0.1 -0.1)">
       <defs>
        <path d="M 9.8125 72.90625 
L 24.515625 72.90625 
L 43.109375 23.296875 
L 61.8125 72.90625 
L 76.515625 72.90625 
L 76.515625 0 
L 66.890625 0 
L 66.890625 64.015625 
L 48.09375 14.015625 
L 38.1875 14.015625 
L 19.390625 64.015625 
L 19.390625 0 
L 9.8125 0 
z
" id="DejaVuSans-77"/>
        <path d="M 56.203125 29.59375 
L 56.203125 25.203125 
L 14.890625 25.203125 
Q 15.484375 15.921875 20.484375 11.0625 
Q 25.484375 6.203125 34.421875 6.203125 
Q 39.59375 6.203125 44.453125 7.46875 
Q 49.3125 8.734375 54.109375 11.28125 
L 54.109375 2.78125 
Q 49.265625 0.734375 44.1875 -0.34375 
Q 39.109375 -1.421875 33.890625 -1.421875 
Q 20.796875 -1.421875 13.15625 6.1875 
Q 5.515625 13.8125 5.515625 26.8125 
Q 5.515625 40.234375 12.765625 48.109375 
Q 20.015625 56 32.328125 56 
Q 43.359375 56 49.78125 48.890625 
Q 56.203125 41.796875 56.203125 29.59375 
z
M 47.21875 32.234375 
Q 47.125 39.59375 43.09375 43.984375 
Q 39.0625 48.390625 32.421875 48.390625 
Q 24.90625 48.390625 20.390625 44.140625 
Q 15.875 39.890625 15.1875 32.171875 
z
" id="DejaVuSans-101"/>
        <path d="M 34.28125 27.484375 
Q 23.390625 27.484375 19.1875 25 
Q 14.984375 22.515625 14.984375 16.5 
Q 14.984375 11.71875 18.140625 8.90625 
Q 21.296875 6.109375 26.703125 6.109375 
Q 34.1875 6.109375 38.703125 11.40625 
Q 43.21875 16.703125 43.21875 25.484375 
L 43.21875 27.484375 
z
M 52.203125 31.203125 
L 52.203125 0 
L 43.21875 0 
L 43.21875 8.296875 
Q 40.140625 3.328125 35.546875 0.953125 
Q 30.953125 -1.421875 24.3125 -1.421875 
Q 15.921875 -1.421875 10.953125 3.296875 
Q 6 8.015625 6 15.921875 
Q 6 25.140625 12.171875 29.828125 
Q 18.359375 34.515625 30.609375 34.515625 
L 43.21875 34.515625 
L 43.21875 35.40625 
Q 43.21875 41.609375 39.140625 45 
Q 35.0625 48.390625 27.6875 48.390625 
Q 23 48.390625 18.546875 47.265625 
Q 14.109375 46.140625 10.015625 43.890625 
L 10.015625 52.203125 
Q 14.9375 54.109375 19.578125 55.046875 
Q 24.21875 56 28.609375 56 
Q 40.484375 56 46.34375 49.84375 
Q 52.203125 43.703125 52.203125 31.203125 
z
" id="DejaVuSans-97"/>
        <path d="M 54.890625 33.015625 
L 54.890625 0 
L 45.90625 0 
L 45.90625 32.71875 
Q 45.90625 40.484375 42.875 44.328125 
Q 39.84375 48.1875 33.796875 48.1875 
Q 26.515625 48.1875 22.3125 43.546875 
Q 18.109375 38.921875 18.109375 30.90625 
L 18.109375 0 
L 9.078125 0 
L 9.078125 54.6875 
L 18.109375 54.6875 
L 18.109375 46.1875 
Q 21.34375 51.125 25.703125 53.5625 
Q 30.078125 56 35.796875 56 
Q 45.21875 56 50.046875 50.171875 
Q 54.890625 44.34375 54.890625 33.015625 
z
" id="DejaVuSans-110"/>
        <path d="M 19.671875 64.796875 
L 19.671875 37.40625 
L 32.078125 37.40625 
Q 38.96875 37.40625 42.71875 40.96875 
Q 46.484375 44.53125 46.484375 51.125 
Q 46.484375 57.671875 42.71875 61.234375 
Q 38.96875 64.796875 32.078125 64.796875 
z
M 9.8125 72.90625 
L 32.078125 72.90625 
Q 44.34375 72.90625 50.609375 67.359375 
Q 56.890625 61.8125 56.890625 51.125 
Q 56.890625 40.328125 50.609375 34.8125 
Q 44.34375 29.296875 32.078125 29.296875 
L 19.671875 29.296875 
L 19.671875 0 
L 9.8125 0 
z
" id="DejaVuSans-80"/>
        <path d="M 19.671875 64.796875 
L 19.671875 8.109375 
L 31.59375 8.109375 
Q 46.6875 8.109375 53.6875 14.9375 
Q 60.6875 21.78125 60.6875 36.53125 
Q 60.6875 51.171875 53.6875 57.984375 
Q 46.6875 64.796875 31.59375 64.796875 
z
M 9.8125 72.90625 
L 30.078125 72.90625 
Q 51.265625 72.90625 61.171875 64.09375 
Q 71.09375 55.28125 71.09375 36.53125 
Q 71.09375 17.671875 61.125 8.828125 
Q 51.171875 0 30.078125 0 
L 9.8125 0 
z
" id="DejaVuSans-68"/>
       </defs>
       <use xlink:href="#DejaVuSans-77"/>
       <use x="86.279297" xlink:href="#DejaVuSans-101"/>
       <use x="147.802734" xlink:href="#DejaVuSans-97"/>
       <use x="209.082031" xlink:href="#DejaVuSans-110"/>
       <use x="272.460938" xlink:href="#DejaVuSans-80"/>
       <use x="332.763672" xlink:href="#DejaVuSans-68"/>
      </g>
     </g>
    </g>
   </g>
   <g id="matplotlib.axis_2">
    <g id="ytick_1">
     <g id="line2d_2">
      <defs>
       <path d="M 0 0 
L -3.5 0 
" id="m79c1a9d6ee" style="stroke:#000000;stroke-width:0.8;"/>
      </defs>
      <g>
       <use style="stroke:#000000;stroke-width:0.8;" x="36" xlink:href="#m79c1a9d6ee" y="503.203404"/>
      </g>
     </g>
     <g id="text_2">
      <!-- −1.5 -->
      <g transform="translate(4.717187 507.002623)scale(0.1 -0.1)">
       <defs>
        <path d="M 10.59375 35.5 
L 73.1875 35.5 
L 73.1875 27.203125 
L 10.59375 27.203125 
z
" id="DejaVuSans-8722"/>
        <path d="M 12.40625 8.296875 
L 28.515625 8.296875 
L 28.515625 63.921875 
L 10.984375 60.40625 
L 10.984375 69.390625 
L 28.421875 72.90625 
L 38.28125 72.90625 
L 38.28125 8.296875 
L 54.390625 8.296875 
L 54.390625 0 
L 12.40625 0 
z
" id="DejaVuSans-49"/>
        <path d="M 10.6875 12.40625 
L 21 12.40625 
L 21 0 
L 10.6875 0 
z
" id="DejaVuSans-46"/>
        <path d="M 10.796875 72.90625 
L 49.515625 72.90625 
L 49.515625 64.59375 
L 19.828125 64.59375 
L 19.828125 46.734375 
Q 21.96875 47.46875 24.109375 47.828125 
Q 26.265625 48.1875 28.421875 48.1875 
Q 40.625 48.1875 47.75 41.5 
Q 54.890625 34.8125 54.890625 23.390625 
Q 54.890625 11.625 47.5625 5.09375 
Q 40.234375 -1.421875 26.90625 -1.421875 
Q 22.3125 -1.421875 17.546875 -0.640625 
Q 12.796875 0.140625 7.71875 1.703125 
L 7.71875 11.625 
Q 12.109375 9.234375 16.796875 8.0625 
Q 21.484375 6.890625 26.703125 6.890625 
Q 35.15625 6.890625 40.078125 11.328125 
Q 45.015625 15.765625 45.015625 23.390625 
Q 45.015625 31 40.078125 35.4375 
Q 35.15625 39.890625 26.703125 39.890625 
Q 22.75 39.890625 18.8125 39.015625 
Q 14.890625 38.140625 10.796875 36.28125 
z
" id="DejaVuSans-53"/>
       </defs>
       <use xlink:href="#DejaVuSans-8722"/>
       <use x="83.789062" xlink:href="#DejaVuSans-49"/>
       <use x="147.412109" xlink:href="#DejaVuSans-46"/>
       <use x="179.199219" xlink:href="#DejaVuSans-53"/>
      </g>
     </g>
    </g>
    <g id="ytick_2">
     <g id="line2d_3">
      <g>
       <use style="stroke:#000000;stroke-width:0.8;" x="36" xlink:href="#m79c1a9d6ee" y="456.020426"/>
      </g>
     </g>
     <g id="text_3">
      <!-- −1.0 -->
      <g transform="translate(4.717187 459.819644)scale(0.1 -0.1)">
       <defs>
        <path d="M 31.78125 66.40625 
Q 24.171875 66.40625 20.328125 58.90625 
Q 16.5 51.421875 16.5 36.375 
Q 16.5 21.390625 20.328125 13.890625 
Q 24.171875 6.390625 31.78125 6.390625 
Q 39.453125 6.390625 43.28125 13.890625 
Q 47.125 21.390625 47.125 36.375 
Q 47.125 51.421875 43.28125 58.90625 
Q 39.453125 66.40625 31.78125 66.40625 
z
M 31.78125 74.21875 
Q 44.046875 74.21875 50.515625 64.515625 
Q 56.984375 54.828125 56.984375 36.375 
Q 56.984375 17.96875 50.515625 8.265625 
Q 44.046875 -1.421875 31.78125 -1.421875 
Q 19.53125 -1.421875 13.0625 8.265625 
Q 6.59375 17.96875 6.59375 36.375 
Q 6.59375 54.828125 13.0625 64.515625 
Q 19.53125 74.21875 31.78125 74.21875 
z
" id="DejaVuSans-48"/>
       </defs>
       <use xlink:href="#DejaVuSans-8722"/>
       <use x="83.789062" xlink:href="#DejaVuSans-49"/>
       <use x="147.412109" xlink:href="#DejaVuSans-46"/>
       <use x="179.199219" xlink:href="#DejaVuSans-48"/>
      </g>
     </g>
    </g>
    <g id="ytick_3">
     <g id="line2d_4">
      <g>
       <use style="stroke:#000000;stroke-width:0.8;" x="36" xlink:href="#m79c1a9d6ee" y="408.837447"/>
      </g>
     </g>
     <g id="text_4">
      <!-- −0.5 -->
      <g transform="translate(4.717187 412.636666)scale(0.1 -0.1)">
       <use xlink:href="#DejaVuSans-8722"/>
       <use x="83.789062" xlink:href="#DejaVuSans-48"/>
       <use x="147.412109" xlink:href="#DejaVuSans-46"/>
       <use x="179.199219" xlink:href="#DejaVuSans-53"/>
      </g>
     </g>
    </g>
    <g id="ytick_4">
     <g id="line2d_5">
      <g>
       <use style="stroke:#000000;stroke-width:0.8;" x="36" xlink:href="#m79c1a9d6ee" y="361.654468"/>
      </g>
     </g>
     <g id="text_5">
      <!-- 0.0 -->
      <g transform="translate(13.096875 365.453687)scale(0.1 -0.1)">
       <use xlink:href="#DejaVuSans-48"/>
       <use x="63.623047" xlink:href="#DejaVuSans-46"/>
       <use x="95.410156" xlink:href="#DejaVuSans-48"/>
      </g>
     </g>
    </g>
    <g id="ytick_5">
     <g id="line2d_6">
      <g>
       <use style="stroke:#000000;stroke-width:0.8;" x="36" xlink:href="#m79c1a9d6ee" y="314.471489"/>
      </g>
     </g>
     <g id="text_6">
      <!-- 0.5 -->
      <g transform="translate(13.096875 318.270708)scale(0.1 -0.1)">
       <use xlink:href="#DejaVuSans-48"/>
       <use x="63.623047" xlink:href="#DejaVuSans-46"/>
       <use x="95.410156" xlink:href="#DejaVuSans-53"/>
      </g>
     </g>
    </g>
    <g id="ytick_6">
     <g id="line2d_7">
      <g>
       <use style="stroke:#000000;stroke-width:0.8;" x="36" xlink:href="#m79c1a9d6ee" y="267.288511"/>
      </g>
     </g>
     <g id="text_7">
      <!-- 1.0 -->
      <g transform="translate(13.096875 271.087729)scale(0.1 -0.1)">
       <use xlink:href="#DejaVuSans-49"/>
       <use x="63.623047" xlink:href="#DejaVuSans-46"/>
       <use x="95.410156" xlink:href="#DejaVuSans-48"/>
      </g>
     </g>
    </g>
    <g id="ytick_7">
     <g id="line2d_8">
      <g>
       <use style="stroke:#000000;stroke-width:0.8;" x="36" xlink:href="#m79c1a9d6ee" y="220.105532"/>
      </g>
     </g>
     <g id="text_8">
      <!-- 1.5 -->
      <g transform="translate(13.096875 223.904751)scale(0.1 -0.1)">
       <use xlink:href="#DejaVuSans-49"/>
       <use x="63.623047" xlink:href="#DejaVuSans-46"/>
       <use x="95.410156" xlink:href="#DejaVuSans-53"/>
      </g>
     </g>
    </g>
    <g id="ytick_8">
     <g id="line2d_9">
      <g>
       <use style="stroke:#000000;stroke-width:0.8;" x="36" xlink:href="#m79c1a9d6ee" y="172.922553"/>
      </g>
     </g>
     <g id="text_9">
      <!-- 2.0 -->
      <g transform="translate(13.096875 176.721772)scale(0.1 -0.1)">
       <defs>
        <path d="M 19.1875 8.296875 
L 53.609375 8.296875 
L 53.609375 0 
L 7.328125 0 
L 7.328125 8.296875 
Q 12.9375 14.109375 22.625 23.890625 
Q 32.328125 33.6875 34.8125 36.53125 
Q 39.546875 41.84375 41.421875 45.53125 
Q 43.3125 49.21875 43.3125 52.78125 
Q 43.3125 58.59375 39.234375 62.25 
Q 35.15625 65.921875 28.609375 65.921875 
Q 23.96875 65.921875 18.8125 64.3125 
Q 13.671875 62.703125 7.8125 59.421875 
L 7.8125 69.390625 
Q 13.765625 71.78125 18.9375 73 
Q 24.125 74.21875 28.421875 74.21875 
Q 39.75 74.21875 46.484375 68.546875 
Q 53.21875 62.890625 53.21875 53.421875 
Q 53.21875 48.921875 51.53125 44.890625 
Q 49.859375 40.875 45.40625 35.40625 
Q 44.1875 33.984375 37.640625 27.21875 
Q 31.109375 20.453125 19.1875 8.296875 
z
" id="DejaVuSans-50"/>
       </defs>
       <use xlink:href="#DejaVuSans-50"/>
       <use x="63.623047" xlink:href="#DejaVuSans-46"/>
       <use x="95.410156" xlink:href="#DejaVuSans-48"/>
      </g>
     </g>
    </g>
    <g id="ytick_9">
     <g id="line2d_10">
      <g>
       <use style="stroke:#000000;stroke-width:0.8;" x="36" xlink:href="#m79c1a9d6ee" y="125.739574"/>
      </g>
     </g>
     <g id="text_10">
      <!-- 2.5 -->
      <g transform="translate(13.096875 129.538793)scale(0.1 -0.1)">
       <use xlink:href="#DejaVuSans-50"/>
       <use x="63.623047" xlink:href="#DejaVuSans-46"/>
       <use x="95.410156" xlink:href="#DejaVuSans-53"/>
      </g>
     </g>
    </g>
    <g id="ytick_10">
     <g id="line2d_11">
      <g>
       <use style="stroke:#000000;stroke-width:0.8;" x="36" xlink:href="#m79c1a9d6ee" y="78.556596"/>
      </g>
     </g>
     <g id="text_11">
      <!-- 3.0 -->
      <g transform="translate(13.096875 82.355814)scale(0.1 -0.1)">
       <defs>
        <path d="M 40.578125 39.3125 
Q 47.65625 37.796875 51.625 33 
Q 55.609375 28.21875 55.609375 21.1875 
Q 55.609375 10.40625 48.1875 4.484375 
Q 40.765625 -1.421875 27.09375 -1.421875 
Q 22.515625 -1.421875 17.65625 -0.515625 
Q 12.796875 0.390625 7.625 2.203125 
L 7.625 11.71875 
Q 11.71875 9.328125 16.59375 8.109375 
Q 21.484375 6.890625 26.8125 6.890625 
Q 36.078125 6.890625 40.9375 10.546875 
Q 45.796875 14.203125 45.796875 21.1875 
Q 45.796875 27.640625 41.28125 31.265625 
Q 36.765625 34.90625 28.71875 34.90625 
L 20.21875 34.90625 
L 20.21875 43.015625 
L 29.109375 43.015625 
Q 36.375 43.015625 40.234375 45.921875 
Q 44.09375 48.828125 44.09375 54.296875 
Q 44.09375 59.90625 40.109375 62.90625 
Q 36.140625 65.921875 28.71875 65.921875 
Q 24.65625 65.921875 20.015625 65.03125 
Q 15.375 64.15625 9.8125 62.3125 
L 9.8125 71.09375 
Q 15.4375 72.65625 20.34375 73.4375 
Q 25.25 74.21875 29.59375 74.21875 
Q 40.828125 74.21875 47.359375 69.109375 
Q 53.90625 64.015625 53.90625 55.328125 
Q 53.90625 49.265625 50.4375 45.09375 
Q 46.96875 40.921875 40.578125 39.3125 
z
" id="DejaVuSans-51"/>
       </defs>
       <use xlink:href="#DejaVuSans-51"/>
       <use x="63.623047" xlink:href="#DejaVuSans-46"/>
       <use x="95.410156" xlink:href="#DejaVuSans-48"/>
      </g>
     </g>
    </g>
    <g id="text_12">
     <!-- LogOdds -->
     <g transform="translate(-1.3625 312.701094)rotate(-90)scale(0.1 -0.1)">
      <defs>
       <path d="M 9.8125 72.90625 
L 19.671875 72.90625 
L 19.671875 8.296875 
L 55.171875 8.296875 
L 55.171875 0 
L 9.8125 0 
z
" id="DejaVuSans-76"/>
       <path d="M 30.609375 48.390625 
Q 23.390625 48.390625 19.1875 42.75 
Q 14.984375 37.109375 14.984375 27.296875 
Q 14.984375 17.484375 19.15625 11.84375 
Q 23.34375 6.203125 30.609375 6.203125 
Q 37.796875 6.203125 41.984375 11.859375 
Q 46.1875 17.53125 46.1875 27.296875 
Q 46.1875 37.015625 41.984375 42.703125 
Q 37.796875 48.390625 30.609375 48.390625 
z
M 30.609375 56 
Q 42.328125 56 49.015625 48.375 
Q 55.71875 40.765625 55.71875 27.296875 
Q 55.71875 13.875 49.015625 6.21875 
Q 42.328125 -1.421875 30.609375 -1.421875 
Q 18.84375 -1.421875 12.171875 6.21875 
Q 5.515625 13.875 5.515625 27.296875 
Q 5.515625 40.765625 12.171875 48.375 
Q 18.84375 56 30.609375 56 
z
" id="DejaVuSans-111"/>
       <path d="M 45.40625 27.984375 
Q 45.40625 37.75 41.375 43.109375 
Q 37.359375 48.484375 30.078125 48.484375 
Q 22.859375 48.484375 18.828125 43.109375 
Q 14.796875 37.75 14.796875 27.984375 
Q 14.796875 18.265625 18.828125 12.890625 
Q 22.859375 7.515625 30.078125 7.515625 
Q 37.359375 7.515625 41.375 12.890625 
Q 45.40625 18.265625 45.40625 27.984375 
z
M 54.390625 6.78125 
Q 54.390625 -7.171875 48.1875 -13.984375 
Q 42 -20.796875 29.203125 -20.796875 
Q 24.46875 -20.796875 20.265625 -20.09375 
Q 16.0625 -19.390625 12.109375 -17.921875 
L 12.109375 -9.1875 
Q 16.0625 -11.328125 19.921875 -12.34375 
Q 23.78125 -13.375 27.78125 -13.375 
Q 36.625 -13.375 41.015625 -8.765625 
Q 45.40625 -4.15625 45.40625 5.171875 
L 45.40625 9.625 
Q 42.625 4.78125 38.28125 2.390625 
Q 33.9375 0 27.875 0 
Q 17.828125 0 11.671875 7.65625 
Q 5.515625 15.328125 5.515625 27.984375 
Q 5.515625 40.671875 11.671875 48.328125 
Q 17.828125 56 27.875 56 
Q 33.9375 56 38.28125 53.609375 
Q 42.625 51.21875 45.40625 46.390625 
L 45.40625 54.6875 
L 54.390625 54.6875 
z
" id="DejaVuSans-103"/>
       <path d="M 39.40625 66.21875 
Q 28.65625 66.21875 22.328125 58.203125 
Q 16.015625 50.203125 16.015625 36.375 
Q 16.015625 22.609375 22.328125 14.59375 
Q 28.65625 6.59375 39.40625 6.59375 
Q 50.140625 6.59375 56.421875 14.59375 
Q 62.703125 22.609375 62.703125 36.375 
Q 62.703125 50.203125 56.421875 58.203125 
Q 50.140625 66.21875 39.40625 66.21875 
z
M 39.40625 74.21875 
Q 54.734375 74.21875 63.90625 63.9375 
Q 73.09375 53.65625 73.09375 36.375 
Q 73.09375 19.140625 63.90625 8.859375 
Q 54.734375 -1.421875 39.40625 -1.421875 
Q 24.03125 -1.421875 14.8125 8.828125 
Q 5.609375 19.09375 5.609375 36.375 
Q 5.609375 53.65625 14.8125 63.9375 
Q 24.03125 74.21875 39.40625 74.21875 
z
" id="DejaVuSans-79"/>
       <path d="M 45.40625 46.390625 
L 45.40625 75.984375 
L 54.390625 75.984375 
L 54.390625 0 
L 45.40625 0 
L 45.40625 8.203125 
Q 42.578125 3.328125 38.25 0.953125 
Q 33.9375 -1.421875 27.875 -1.421875 
Q 17.96875 -1.421875 11.734375 6.484375 
Q 5.515625 14.40625 5.515625 27.296875 
Q 5.515625 40.1875 11.734375 48.09375 
Q 17.96875 56 27.875 56 
Q 33.9375 56 38.25 53.625 
Q 42.578125 51.265625 45.40625 46.390625 
z
M 14.796875 27.296875 
Q 14.796875 17.390625 18.875 11.75 
Q 22.953125 6.109375 30.078125 6.109375 
Q 37.203125 6.109375 41.296875 11.75 
Q 45.40625 17.390625 45.40625 27.296875 
Q 45.40625 37.203125 41.296875 42.84375 
Q 37.203125 48.484375 30.078125 48.484375 
Q 22.953125 48.484375 18.875 42.84375 
Q 14.796875 37.203125 14.796875 27.296875 
z
" id="DejaVuSans-100"/>
       <path d="M 44.28125 53.078125 
L 44.28125 44.578125 
Q 40.484375 46.53125 36.375 47.5 
Q 32.28125 48.484375 27.875 48.484375 
Q 21.1875 48.484375 17.84375 46.4375 
Q 14.5 44.390625 14.5 40.28125 
Q 14.5 37.15625 16.890625 35.375 
Q 19.28125 33.59375 26.515625 31.984375 
L 29.59375 31.296875 
Q 39.15625 29.25 43.1875 25.515625 
Q 47.21875 21.78125 47.21875 15.09375 
Q 47.21875 7.46875 41.1875 3.015625 
Q 35.15625 -1.421875 24.609375 -1.421875 
Q 20.21875 -1.421875 15.453125 -0.5625 
Q 10.6875 0.296875 5.421875 2 
L 5.421875 11.28125 
Q 10.40625 8.6875 15.234375 7.390625 
Q 20.0625 6.109375 24.8125 6.109375 
Q 31.15625 6.109375 34.5625 8.28125 
Q 37.984375 10.453125 37.984375 14.40625 
Q 37.984375 18.0625 35.515625 20.015625 
Q 33.0625 21.96875 24.703125 23.78125 
L 21.578125 24.515625 
Q 13.234375 26.265625 9.515625 29.90625 
Q 5.8125 33.546875 5.8125 39.890625 
Q 5.8125 47.609375 11.28125 51.796875 
Q 16.75 56 26.8125 56 
Q 31.78125 56 36.171875 55.265625 
Q 40.578125 54.546875 44.28125 53.078125 
z
" id="DejaVuSans-115"/>
      </defs>
      <use xlink:href="#DejaVuSans-76"/>
      <use x="53.962891" xlink:href="#DejaVuSans-111"/>
      <use x="115.144531" xlink:href="#DejaVuSans-103"/>
      <use x="178.621094" xlink:href="#DejaVuSans-79"/>
      <use x="257.332031" xlink:href="#DejaVuSans-100"/>
      <use x="320.808594" xlink:href="#DejaVuSans-100"/>
      <use x="384.285156" xlink:href="#DejaVuSans-115"/>
     </g>
    </g>
   </g>
   <g id="line2d_12">
    <path clip-path="url(#p2748ba2a02)" d="M 130.86 362.518244 
L 164.34 362.518244 
L 164.34 301.117357 
L 130.86 301.117357 
L 130.86 362.518244 
" style="fill:none;stroke:#000000;stroke-linecap:square;"/>
   </g>
   <g id="line2d_13">
    <path clip-path="url(#p2748ba2a02)" d="M 147.6 362.518244 
L 147.6 418.689891 
" style="fill:none;stroke:#000000;stroke-linecap:square;"/>
   </g>
   <g id="line2d_14">
    <path clip-path="url(#p2748ba2a02)" d="M 147.6 301.117357 
L 147.6 216.676387 
" style="fill:none;stroke:#000000;stroke-linecap:square;"/>
   </g>
   <g id="line2d_15">
    <path clip-path="url(#p2748ba2a02)" d="M 139.23 418.689891 
L 155.97 418.689891 
" style="fill:none;stroke:#000000;stroke-linecap:square;"/>
   </g>
   <g id="line2d_16">
    <path clip-path="url(#p2748ba2a02)" d="M 139.23 216.676387 
L 155.97 216.676387 
" style="fill:none;stroke:#000000;stroke-linecap:square;"/>
   </g>
   <g id="line2d_17">
    <path clip-path="url(#p2748ba2a02)" d="M 130.86 335.854558 
L 164.34 335.854558 
" style="fill:none;stroke:#ff7f0e;stroke-linecap:square;"/>
   </g>
   <g id="patch_3">
    <path d="M 36 512.64 
L 36 69.12 
" style="fill:none;stroke:#000000;stroke-linecap:square;stroke-linejoin:miter;stroke-width:0.8;"/>
   </g>
   <g id="patch_4">
    <path d="M 259.2 512.64 
L 259.2 69.12 
" style="fill:none;stroke:#000000;stroke-linecap:square;stroke-linejoin:miter;stroke-width:0.8;"/>
   </g>
   <g id="patch_5">
    <path d="M 36 512.64 
L 259.2 512.64 
" style="fill:none;stroke:#000000;stroke-linecap:square;stroke-linejoin:miter;stroke-width:0.8;"/>
   </g>
   <g id="patch_6">
    <path d="M 36 69.12 
L 259.2 69.12 
" style="fill:none;stroke:#000000;stroke-linecap:square;stroke-linejoin:miter;stroke-width:0.8;"/>
   </g>
   <g id="text_13">
    <!-- 0 -->
    <g style="fill:#999999;" transform="translate(146.981582 330.775818)scale(0.1 -0.1)">
     <use xlink:href="#DejaVuSans-48"/>
    </g>
   </g>
   <g id="text_14">
    <!-- 1.0 -->
    <g style="fill:#e69f00;" transform="translate(142.733106 334.910899)scale(0.1 -0.1)">
     <use xlink:href="#DejaVuSans-49"/>
     <use x="63.623047" xlink:href="#DejaVuSans-46"/>
     <use x="95.410156" xlink:href="#DejaVuSans-48"/>
    </g>
   </g>
   <g id="text_15">
    <!-- 2.0 -->
    <g style="fill:#56b4e9;" transform="translate(142.874708 215.732727)scale(0.1 -0.1)">
     <use xlink:href="#DejaVuSans-50"/>
     <use x="63.623047" xlink:href="#DejaVuSans-46"/>
     <use x="95.410156" xlink:href="#DejaVuSans-48"/>
    </g>
   </g>
   <g id="text_16">
    <!-- 3.0 -->
    <g style="fill:#009e73;" transform="translate(153.527433 472.190335)scale(0.1 -0.1)">
     <use xlink:href="#DejaVuSans-51"/>
     <use x="63.623047" xlink:href="#DejaVuSans-46"/>
     <use x="95.410156" xlink:href="#DejaVuSans-48"/>
    </g>
   </g>
   <g id="text_17">
    <!-- 4 -->
    <g style="fill:#f0e442;" transform="translate(142.144202 295.135125)scale(0.1 -0.1)">
     <defs>
      <path d="M 37.796875 64.3125 
L 12.890625 25.390625 
L 37.796875 25.390625 
z
M 35.203125 72.90625 
L 47.609375 72.90625 
L 47.609375 25.390625 
L 58.015625 25.390625 
L 58.015625 17.1875 
L 47.609375 17.1875 
L 47.609375 0 
L 37.796875 0 
L 37.796875 17.1875 
L 4.890625 17.1875 
L 4.890625 26.703125 
z
" id="DejaVuSans-52"/>
     </defs>
     <use xlink:href="#DejaVuSans-52"/>
    </g>
   </g>
   <g id="text_18">
    <!-- 5.0 -->
    <g style="fill:#0072b2;" transform="translate(141.030153 316.089215)scale(0.1 -0.1)">
     <use xlink:href="#DejaVuSans-53"/>
     <use x="63.623047" xlink:href="#DejaVuSans-46"/>
     <use x="95.410156" xlink:href="#DejaVuSans-48"/>
    </g>
   </g>
   <g id="text_19">
    <!-- 6.0 -->
    <g style="fill:#d55e00;" transform="translate(134.056003 305.21227)scale(0.1 -0.1)">
     <defs>
      <path d="M 33.015625 40.375 
Q 26.375 40.375 22.484375 35.828125 
Q 18.609375 31.296875 18.609375 23.390625 
Q 18.609375 15.53125 22.484375 10.953125 
Q 26.375 6.390625 33.015625 6.390625 
Q 39.65625 6.390625 43.53125 10.953125 
Q 47.40625 15.53125 47.40625 23.390625 
Q 47.40625 31.296875 43.53125 35.828125 
Q 39.65625 40.375 33.015625 40.375 
z
M 52.59375 71.296875 
L 52.59375 62.3125 
Q 48.875 64.0625 45.09375 64.984375 
Q 41.3125 65.921875 37.59375 65.921875 
Q 27.828125 65.921875 22.671875 59.328125 
Q 17.53125 52.734375 16.796875 39.40625 
Q 19.671875 43.65625 24.015625 45.921875 
Q 28.375 48.1875 33.59375 48.1875 
Q 44.578125 48.1875 50.953125 41.515625 
Q 57.328125 34.859375 57.328125 23.390625 
Q 57.328125 12.15625 50.6875 5.359375 
Q 44.046875 -1.421875 33.015625 -1.421875 
Q 20.359375 -1.421875 13.671875 8.265625 
Q 6.984375 17.96875 6.984375 36.375 
Q 6.984375 53.65625 15.1875 63.9375 
Q 23.390625 74.21875 37.203125 74.21875 
Q 40.921875 74.21875 44.703125 73.484375 
Q 48.484375 72.75 52.59375 71.296875 
z
" id="DejaVuSans-54"/>
     </defs>
     <use xlink:href="#DejaVuSans-54"/>
     <use x="63.623047" xlink:href="#DejaVuSans-46"/>
     <use x="95.410156" xlink:href="#DejaVuSans-48"/>
    </g>
   </g>
   <g id="text_20">
    <!-- 7 -->
    <g style="fill:#cc79a7;" transform="translate(148.571387 364.838688)scale(0.1 -0.1)">
     <defs>
      <path d="M 8.203125 72.90625 
L 55.078125 72.90625 
L 55.078125 68.703125 
L 28.609375 0 
L 18.3125 0 
L 43.21875 64.59375 
L 8.203125 64.59375 
z
" id="DejaVuSans-55"/>
     </defs>
     <use xlink:href="#DejaVuSans-55"/>
    </g>
   </g>
   <g id="text_21">
    <!-- 8.0 -->
    <g style="fill:#f46d43;" transform="translate(168.047214 354.528391)scale(0.1 -0.1)">
     <defs>
      <path d="M 31.78125 34.625 
Q 24.75 34.625 20.71875 30.859375 
Q 16.703125 27.09375 16.703125 20.515625 
Q 16.703125 13.921875 20.71875 10.15625 
Q 24.75 6.390625 31.78125 6.390625 
Q 38.8125 6.390625 42.859375 10.171875 
Q 46.921875 13.96875 46.921875 20.515625 
Q 46.921875 27.09375 42.890625 30.859375 
Q 38.875 34.625 31.78125 34.625 
z
M 21.921875 38.8125 
Q 15.578125 40.375 12.03125 44.71875 
Q 8.5 49.078125 8.5 55.328125 
Q 8.5 64.0625 14.71875 69.140625 
Q 20.953125 74.21875 31.78125 74.21875 
Q 42.671875 74.21875 48.875 69.140625 
Q 55.078125 64.0625 55.078125 55.328125 
Q 55.078125 49.078125 51.53125 44.71875 
Q 48 40.375 41.703125 38.8125 
Q 48.828125 37.15625 52.796875 32.3125 
Q 56.78125 27.484375 56.78125 20.515625 
Q 56.78125 9.90625 50.3125 4.234375 
Q 43.84375 -1.421875 31.78125 -1.421875 
Q 19.734375 -1.421875 13.25 4.234375 
Q 6.78125 9.90625 6.78125 20.515625 
Q 6.78125 27.484375 10.78125 32.3125 
Q 14.796875 37.15625 21.921875 38.8125 
z
M 18.3125 54.390625 
Q 18.3125 48.734375 21.84375 45.5625 
Q 25.390625 42.390625 31.78125 42.390625 
Q 38.140625 42.390625 41.71875 45.5625 
Q 45.3125 48.734375 45.3125 54.390625 
Q 45.3125 60.0625 41.71875 63.234375 
Q 38.140625 66.40625 31.78125 66.40625 
Q 25.390625 66.40625 21.84375 63.234375 
Q 18.3125 60.0625 18.3125 54.390625 
z
" id="DejaVuSans-56"/>
     </defs>
     <use xlink:href="#DejaVuSans-56"/>
     <use x="63.623047" xlink:href="#DejaVuSans-46"/>
     <use x="95.410156" xlink:href="#DejaVuSans-48"/>
    </g>
   </g>
   <g id="text_22">
    <!-- 9 -->
    <g style="fill:#abd9e9;" transform="translate(147.029554 312.097615)scale(0.1 -0.1)">
     <defs>
      <path d="M 10.984375 1.515625 
L 10.984375 10.5 
Q 14.703125 8.734375 18.5 7.8125 
Q 22.3125 6.890625 25.984375 6.890625 
Q 35.75 6.890625 40.890625 13.453125 
Q 46.046875 20.015625 46.78125 33.40625 
Q 43.953125 29.203125 39.59375 26.953125 
Q 35.25 24.703125 29.984375 24.703125 
Q 19.046875 24.703125 12.671875 31.3125 
Q 6.296875 37.9375 6.296875 49.421875 
Q 6.296875 60.640625 12.9375 67.421875 
Q 19.578125 74.21875 30.609375 74.21875 
Q 43.265625 74.21875 49.921875 64.515625 
Q 56.59375 54.828125 56.59375 36.375 
Q 56.59375 19.140625 48.40625 8.859375 
Q 40.234375 -1.421875 26.421875 -1.421875 
Q 22.703125 -1.421875 18.890625 -0.6875 
Q 15.09375 0.046875 10.984375 1.515625 
z
M 30.609375 32.421875 
Q 37.25 32.421875 41.125 36.953125 
Q 45.015625 41.5 45.015625 49.421875 
Q 45.015625 57.28125 41.125 61.84375 
Q 37.25 66.40625 30.609375 66.40625 
Q 23.96875 66.40625 20.09375 61.84375 
Q 16.21875 57.28125 16.21875 49.421875 
Q 16.21875 41.5 20.09375 36.953125 
Q 23.96875 32.421875 30.609375 32.421875 
z
" id="DejaVuSans-57"/>
     </defs>
     <use xlink:href="#DejaVuSans-57"/>
    </g>
   </g>
   <g id="text_23">
    <!-- 5.3 -->
    <g style="fill:#e69f00;" transform="translate(156.195562 362.545493)scale(0.1 -0.1)">
     <use xlink:href="#DejaVuSans-53"/>
     <use x="63.623047" xlink:href="#DejaVuSans-46"/>
     <use x="95.410156" xlink:href="#DejaVuSans-51"/>
    </g>
   </g>
   <g id="text_24">
    <!-- 5.2 -->
    <g style="fill:#009e73;" transform="translate(155.495805 231.609512)scale(0.1 -0.1)">
     <use xlink:href="#DejaVuSans-53"/>
     <use x="63.623047" xlink:href="#DejaVuSans-46"/>
     <use x="95.410156" xlink:href="#DejaVuSans-50"/>
    </g>
   </g>
   <g id="text_25">
    <!-- 6.1 -->
    <g style="fill:#f0e442;" transform="translate(155.35051 246.739418)scale(0.1 -0.1)">
     <use xlink:href="#DejaVuSans-54"/>
     <use x="63.623047" xlink:href="#DejaVuSans-46"/>
     <use x="95.410156" xlink:href="#DejaVuSans-49"/>
    </g>
   </g>
   <g id="text_26">
    <!-- 1.4 -->
    <g style="fill:#d55e00;" transform="translate(169.201406 417.746231)scale(0.1 -0.1)">
     <use xlink:href="#DejaVuSans-49"/>
     <use x="63.623047" xlink:href="#DejaVuSans-46"/>
     <use x="95.410156" xlink:href="#DejaVuSans-52"/>
    </g>
   </g>
   <g id="text_27">
    <!-- 1.3 -->
    <g style="fill:#cc79a7;" transform="translate(145.350617 351.75796)scale(0.1 -0.1)">
     <use xlink:href="#DejaVuSans-49"/>
     <use x="63.623047" xlink:href="#DejaVuSans-46"/>
     <use x="95.410156" xlink:href="#DejaVuSans-51"/>
    </g>
   </g>
   <g id="text_28">
    <!-- 2.2 -->
    <g style="fill:#f46d43;" transform="translate(171.378412 343.912892)scale(0.1 -0.1)">
     <use xlink:href="#DejaVuSans-50"/>
     <use x="63.623047" xlink:href="#DejaVuSans-46"/>
     <use x="95.410156" xlink:href="#DejaVuSans-50"/>
    </g>
   </g>
   <g id="text_29">
    <!-- 3.1 -->
    <g style="fill:#abd9e9;" transform="translate(154.479446 405.876433)scale(0.1 -0.1)">
     <use xlink:href="#DejaVuSans-51"/>
     <use x="63.623047" xlink:href="#DejaVuSans-46"/>
     <use x="95.410156" xlink:href="#DejaVuSans-49"/>
    </g>
   </g>
   <g id="text_30">
    <!-- 1.2 -->
    <g style="fill:#999999;" transform="translate(139.654857 275.793569)scale(0.1 -0.1)">
     <use xlink:href="#DejaVuSans-49"/>
     <use x="63.623047" xlink:href="#DejaVuSans-46"/>
     <use x="95.410156" xlink:href="#DejaVuSans-50"/>
    </g>
   </g>
   <g id="text_31">
    <!-- 1.1 -->
    <g style="fill:#56b4e9;" transform="translate(149.908377 360.603676)scale(0.1 -0.1)">
     <use xlink:href="#DejaVuSans-49"/>
     <use x="63.623047" xlink:href="#DejaVuSans-46"/>
     <use x="95.410156" xlink:href="#DejaVuSans-49"/>
    </g>
   </g>
   <g id="legend_1">
    <g id="patch_7">
     <path d="M 248.2 82.12 
L 252.2 82.12 
Q 254.2 82.12 254.2 80.12 
L 254.2 76.12 
Q 254.2 74.12 252.2 74.12 
L 248.2 74.12 
Q 246.2 74.12 246.2 76.12 
L 246.2 80.12 
Q 246.2 82.12 248.2 82.12 
z
" style="fill:#ffffff;opacity:0.8;stroke:#cccccc;stroke-linejoin:miter;"/>
    </g>
   </g>
  </g>
 </g>
 <defs>
  <clipPath id="p2748ba2a02">
   <rect height="443.52" width="223.2" x="36" y="69.12"/>
  </clipPath>
 </defs>
</svg>
