<?xml version="1.0" encoding="utf-8" standalone="no"?>
<!DOCTYPE svg PUBLIC "-//W3C//DTD SVG 1.1//EN"
  "http://www.w3.org/Graphics/SVG/1.1/DTD/svg11.dtd">
<!-- Created with matplotlib (https://matplotlib.org/) -->
<svg height="648pt" version="1.1" viewBox="0 0 504 648" width="504pt" xmlns="http://www.w3.org/2000/svg" xmlns:xlink="http://www.w3.org/1999/xlink">
 <metadata>
  <rdf:RDF xmlns:cc="http://creativecommons.org/ns#" xmlns:dc="http://purl.org/dc/elements/1.1/" xmlns:rdf="http://www.w3.org/1999/02/22-rdf-syntax-ns#">
   <cc:Work>
    <dc:type rdf:resource="http://purl.org/dc/dcmitype/StillImage"/>
    <dc:date>2023-06-02T12:07:32.649881</dc:date>
    <dc:format>image/svg+xml</dc:format>
    <dc:creator>
     <cc:Agent>
      <dc:title>Matplotlib v3.3.4, https://matplotlib.org/</dc:title>
     </cc:Agent>
    </dc:creator>
   </cc:Work>
  </rdf:RDF>
 </metadata>
 <defs>
  <style type="text/css">*{stroke-linecap:butt;stroke-linejoin:round;}</style>
 </defs>
 <g id="figure_1">
  <g id="patch_1">
   <path d="M 0 648 
L 504 648 
L 504 0 
L 0 0 
z
" style="fill:#ffffff;"/>
  </g>
  <g id="axes_1">
   <g id="patch_2">
    <path d="M 63 576.72 
L 453.6 576.72 
L 453.6 77.76 
L 63 77.76 
z
" style="fill:#ffffff;"/>
   </g>
   <g id="PathCollection_1">
    <path clip-path="url(#p27f2a482c8)" d="M 247.745529 246.190827 
C 249.620798 246.190827 251.419513 245.445774 252.745529 244.119759 
C 254.071544 242.793743 254.816597 240.995028 254.816597 239.119759 
C 254.816597 237.24449 254.071544 235.445774 252.745529 234.119759 
C 251.419513 232.793743 249.620798 232.048691 247.745529 232.048691 
C 245.87026 232.048691 244.071544 232.793743 242.745529 234.119759 
C 241.419513 235.445774 240.674461 237.24449 240.674461 239.119759 
C 240.674461 240.995028 241.419513 242.793743 242.745529 244.119759 
C 244.071544 245.445774 245.87026 246.190827 247.745529 246.190827 
z
" style="fill:#556b2f;stroke:#556b2f;"/>
    <path clip-path="url(#p27f2a482c8)" d="M 274.55943 240.918263 
C 276.856156 240.918263 279.059123 240.005764 280.683154 238.381734 
C 282.307185 236.757703 283.219684 234.554735 283.219684 232.258009 
C 283.219684 229.961283 282.307185 227.758316 280.683154 226.134285 
C 279.059123 224.510254 276.856156 223.597755 274.55943 223.597755 
C 272.262703 223.597755 270.059736 224.510254 268.435705 226.134285 
C 266.811674 227.758316 265.899175 229.961283 265.899175 232.258009 
C 265.899175 234.554735 266.811674 236.757703 268.435705 238.381734 
C 270.059736 240.005764 272.262703 240.918263 274.55943 240.918263 
z
" style="fill:#8b4513;stroke:#8b4513;"/>
    <path clip-path="url(#p27f2a482c8)" d="M 286.638844 240.022503 
C 288.262875 240.022503 289.820608 239.377269 290.968971 238.228906 
C 292.117334 237.080543 292.762568 235.522809 292.762568 233.898779 
C 292.762568 232.274748 292.117334 230.717015 290.968971 229.568652 
C 289.820608 228.420289 288.262875 227.775054 286.638844 227.775054 
C 285.014813 227.775054 283.45708 228.420289 282.308717 229.568652 
C 281.160354 230.717015 280.51512 232.274748 280.51512 233.898779 
C 280.51512 235.522809 281.160354 237.080543 282.308717 238.228906 
C 283.45708 239.377269 285.014813 240.022503 286.638844 240.022503 
z
" style="fill:#2e8b57;stroke:#2e8b57;"/>
    <path clip-path="url(#p27f2a482c8)" d="M 245.861965 295.040318 
C 247.95858 295.040318 249.969605 294.207324 251.452135 292.724794 
C 252.934665 291.242264 253.767659 289.231239 253.767659 287.134624 
C 253.767659 285.03801 252.934665 283.026985 251.452135 281.544454 
C 249.969605 280.061924 247.95858 279.22893 245.861965 279.22893 
C 243.765351 279.22893 241.754326 280.061924 240.271795 281.544454 
C 238.789265 283.026985 237.956271 285.03801 237.956271 287.134624 
C 237.956271 289.231239 238.789265 291.242264 240.271795 292.724794 
C 241.754326 294.207324 243.765351 295.040318 245.861965 295.040318 
z
" style="fill:#228b22;stroke:#228b22;"/>
    <path clip-path="url(#p27f2a482c8)" d="M 266.558093 244.191393 
C 267.884109 244.191393 269.155993 243.664561 270.093627 242.726927 
C 271.031262 241.789292 271.558093 240.517408 271.558093 239.191393 
C 271.558093 237.865377 271.031262 236.593493 270.093627 235.655859 
C 269.155993 234.718224 267.884109 234.191393 266.558093 234.191393 
C 265.232078 234.191393 263.960194 234.718224 263.02256 235.655859 
C 262.084925 236.593493 261.558093 237.865377 261.558093 239.191393 
C 261.558093 240.517408 262.084925 241.789292 263.02256 242.726927 
C 263.960194 243.664561 265.232078 244.191393 266.558093 244.191393 
z
" style="fill:#708090;stroke:#708090;"/>
    <path clip-path="url(#p27f2a482c8)" d="M 282.311357 192.955546 
C 284.407972 192.955546 286.418997 192.122552 287.901527 190.640021 
C 289.384058 189.157491 290.217052 187.146466 290.217052 185.049852 
C 290.217052 182.953237 289.384058 180.942212 287.901527 179.459682 
C 286.418997 177.977151 284.407972 177.144157 282.311357 177.144157 
C 280.214743 177.144157 278.203718 177.977151 276.721187 179.459682 
C 275.238657 180.942212 274.405663 182.953237 274.405663 185.049852 
C 274.405663 187.146466 275.238657 189.157491 276.721187 190.640021 
C 278.203718 192.122552 280.214743 192.955546 282.311357 192.955546 
z
" style="fill:#8b0000;stroke:#8b0000;"/>
    <path clip-path="url(#p27f2a482c8)" d="M 243.594631 254.069691 
C 244.920647 254.069691 246.192531 253.542859 247.130165 252.605224 
C 248.0678 251.66759 248.594631 250.395706 248.594631 249.069691 
C 248.594631 247.743675 248.0678 246.471791 247.130165 245.534157 
C 246.192531 244.596522 244.920647 244.069691 243.594631 244.069691 
C 242.268616 244.069691 240.996732 244.596522 240.059097 245.534157 
C 239.121463 246.471791 238.594631 247.743675 238.594631 249.069691 
C 238.594631 250.395706 239.121463 251.66759 240.059097 252.605224 
C 240.996732 253.542859 242.268616 254.069691 243.594631 254.069691 
z
" style="fill:#808000;stroke:#808000;"/>
    <path clip-path="url(#p27f2a482c8)" d="M 255.411587 253.031433 
C 257.892335 253.031433 260.271812 252.045821 262.025966 250.291668 
C 263.780119 248.537514 264.765731 246.158037 264.765731 243.677289 
C 264.765731 241.196542 263.780119 238.817065 262.025966 237.062911 
C 260.271812 235.308757 257.892335 234.323146 255.411587 234.323146 
C 252.930839 234.323146 250.551363 235.308757 248.797209 237.062911 
C 247.043055 238.817065 246.057444 241.196542 246.057444 243.677289 
C 246.057444 246.158037 247.043055 248.537514 248.797209 250.291668 
C 250.551363 252.045821 252.930839 253.031433 255.411587 253.031433 
z
" style="fill:#008080;stroke:#008080;"/>
    <path clip-path="url(#p27f2a482c8)" d="M 268.107878 231.326104 
C 269.731908 231.326104 271.289642 230.68087 272.438005 229.532507 
C 273.586368 228.384144 274.231602 226.82641 274.231602 225.20238 
C 274.231602 223.578349 273.586368 222.020616 272.438005 220.872253 
C 271.289642 219.72389 269.731908 219.078655 268.107878 219.078655 
C 266.483847 219.078655 264.926114 219.72389 263.777751 220.872253 
C 262.629388 222.020616 261.984153 223.578349 261.984153 225.20238 
C 261.984153 226.82641 262.629388 228.384144 263.777751 229.532507 
C 264.926114 230.68087 266.483847 231.326104 268.107878 231.326104 
z
" style="fill:#b8860b;stroke:#b8860b;"/>
    <path clip-path="url(#p27f2a482c8)" d="M 228.813151 241.177408 
C 230.437182 241.177408 231.994915 240.532173 233.143278 239.38381 
C 234.291641 238.235447 234.936876 236.677714 234.936876 235.053683 
C 234.936876 233.429653 234.291641 231.871919 233.143278 230.723556 
C 231.994915 229.575193 230.437182 228.929959 228.813151 228.929959 
C 227.18912 228.929959 225.631387 229.575193 224.483024 230.723556 
C 223.334661 231.871919 222.689427 233.429653 222.689427 235.053683 
C 222.689427 236.677714 223.334661 238.235447 224.483024 239.38381 
C 225.631387 240.532173 227.18912 241.177408 228.813151 241.177408 
z
" style="fill:#4682b4;stroke:#4682b4;"/>
    <path clip-path="url(#p27f2a482c8)" d="M 269.495258 240.964883 
C 270.821273 240.964883 272.093157 240.438051 273.030792 239.500417 
C 273.968426 238.562782 274.495258 237.290898 274.495258 235.964883 
C 274.495258 234.638867 273.968426 233.366984 273.030792 232.429349 
C 272.093157 231.491714 270.821273 230.964883 269.495258 230.964883 
C 268.169242 230.964883 266.897358 231.491714 265.959724 232.429349 
C 265.022089 233.366984 264.495258 234.638867 264.495258 235.964883 
C 264.495258 237.290898 265.022089 238.562782 265.959724 239.500417 
C 266.897358 240.438051 268.169242 240.964883 269.495258 240.964883 
z
" style="fill:#d2691e;stroke:#d2691e;"/>
    <path clip-path="url(#p27f2a482c8)" d="M 267.348044 232.689831 
C 269.444659 232.689831 271.455684 231.856837 272.938214 230.374307 
C 274.420744 228.891777 275.253738 226.880752 275.253738 224.784137 
C 275.253738 222.687522 274.420744 220.676497 272.938214 219.193967 
C 271.455684 217.711437 269.444659 216.878443 267.348044 216.878443 
C 265.251429 216.878443 263.240405 217.711437 261.757874 219.193967 
C 260.275344 220.676497 259.44235 222.687522 259.44235 224.784137 
C 259.44235 226.880752 260.275344 228.891777 261.757874 230.374307 
C 263.240405 231.856837 265.251429 232.689831 267.348044 232.689831 
z
" style="fill:#32cd32;stroke:#32cd32;"/>
    <path clip-path="url(#p27f2a482c8)" d="M 238.277169 246.507799 
C 239.603184 246.507799 240.875068 245.980967 241.812703 245.043333 
C 242.750337 244.105698 243.277169 242.833814 243.277169 241.507799 
C 243.277169 240.181783 242.750337 238.909899 241.812703 237.972265 
C 240.875068 237.03463 239.603184 236.507799 238.277169 236.507799 
C 236.951153 236.507799 235.679269 237.03463 234.741635 237.972265 
C 233.804 238.909899 233.277169 240.181783 233.277169 241.507799 
C 233.277169 242.833814 233.804 244.105698 234.741635 245.043333 
C 235.679269 245.980967 236.951153 246.507799 238.277169 246.507799 
z
" style="fill:#8fbc8f;stroke:#8fbc8f;"/>
    <path clip-path="url(#p27f2a482c8)" d="M 259.010808 254.089732 
C 261.107423 254.089732 263.118448 253.256739 264.600978 251.774208 
C 266.083509 250.291678 266.916503 248.280653 266.916503 246.184038 
C 266.916503 244.087424 266.083509 242.076399 264.600978 240.593868 
C 263.118448 239.111338 261.107423 238.278344 259.010808 238.278344 
C 256.914194 238.278344 254.903169 239.111338 253.420639 240.593868 
C 251.938108 242.076399 251.105114 244.087424 251.105114 246.184038 
C 251.105114 248.280653 251.938108 250.291678 253.420639 251.774208 
C 254.903169 253.256739 256.914194 254.089732 259.010808 254.089732 
z
" style="fill:#b03060;stroke:#b03060;"/>
    <path clip-path="url(#p27f2a482c8)" d="M 279.212526 358.624967 
C 280.836557 358.624967 282.39429 357.979733 283.542653 356.83137 
C 284.691016 355.683006 285.336251 354.125273 285.336251 352.501243 
C 285.336251 350.877212 284.691016 349.319479 283.542653 348.171116 
C 282.39429 347.022752 280.836557 346.377518 279.212526 346.377518 
C 277.588496 346.377518 276.030762 347.022752 274.882399 348.171116 
C 273.734036 349.319479 273.088802 350.877212 273.088802 352.501243 
C 273.088802 354.125273 273.734036 355.683006 274.882399 356.83137 
C 276.030762 357.979733 277.588496 358.624967 279.212526 358.624967 
z
" style="fill:#9932cc;stroke:#9932cc;"/>
    <path clip-path="url(#p27f2a482c8)" d="M 250.196298 239.316851 
C 251.522313 239.316851 252.794197 238.790019 253.731832 237.852385 
C 254.669466 236.91475 255.196298 235.642866 255.196298 234.316851 
C 255.196298 232.990835 254.669466 231.718951 253.731832 230.781317 
C 252.794197 229.843682 251.522313 229.316851 250.196298 229.316851 
C 248.870282 229.316851 247.598398 229.843682 246.660764 230.781317 
C 245.723129 231.718951 245.196298 232.990835 245.196298 234.316851 
C 245.196298 235.642866 245.723129 236.91475 246.660764 237.852385 
C 247.598398 238.790019 248.870282 239.316851 250.196298 239.316851 
z
" style="fill:#ff8c00;stroke:#ff8c00;"/>
    <path clip-path="url(#p27f2a482c8)" d="M 269.633177 225.968339 
C 270.959193 225.968339 272.231076 225.441507 273.168711 224.503872 
C 274.106345 223.566238 274.633177 222.294354 274.633177 220.968339 
C 274.633177 219.642323 274.106345 218.370439 273.168711 217.432805 
C 272.231076 216.49517 270.959193 215.968339 269.633177 215.968339 
C 268.307162 215.968339 267.035278 216.49517 266.097643 217.432805 
C 265.160009 218.370439 264.633177 219.642323 264.633177 220.968339 
C 264.633177 222.294354 265.160009 223.566238 266.097643 224.503872 
C 267.035278 225.441507 268.307162 225.968339 269.633177 225.968339 
z
" style="fill:#ffd700;stroke:#ffd700;"/>
    <path clip-path="url(#p27f2a482c8)" d="M 251.490613 224.493323 
C 252.816629 224.493323 254.088513 223.966491 255.026147 223.028857 
C 255.963782 222.091222 256.490613 220.819338 256.490613 219.493323 
C 256.490613 218.167307 255.963782 216.895423 255.026147 215.957789 
C 254.088513 215.020154 252.816629 214.493323 251.490613 214.493323 
C 250.164598 214.493323 248.892714 215.020154 247.955079 215.957789 
C 247.017445 216.895423 246.490613 218.167307 246.490613 219.493323 
C 246.490613 220.819338 247.017445 222.091222 247.955079 223.028857 
C 248.892714 223.966491 250.164598 224.493323 251.490613 224.493323 
z
" style="fill:#00bfff;stroke:#00bfff;"/>
    <path clip-path="url(#p27f2a482c8)" d="M 244.206345 238.888236 
C 246.081615 238.888236 247.88033 238.143183 249.206345 236.817168 
C 250.532361 235.491152 251.277413 233.692437 251.277413 231.817168 
C 251.277413 229.941899 250.532361 228.143183 249.206345 226.817168 
C 247.88033 225.491152 246.081615 224.7461 244.206345 224.7461 
C 242.331076 224.7461 240.532361 225.491152 239.206345 226.817168 
C 237.88033 228.143183 237.135278 229.941899 237.135278 231.817168 
C 237.135278 233.692437 237.88033 235.491152 239.206345 236.817168 
C 240.532361 238.143183 242.331076 238.888236 244.206345 238.888236 
z
" style="fill:#0000ff;stroke:#0000ff;"/>
    <path clip-path="url(#p27f2a482c8)" d="M 248.123605 267.655123 
C 249.449621 267.655123 250.721505 267.128292 251.659139 266.190657 
C 252.596774 265.253022 253.123605 263.981139 253.123605 262.655123 
C 253.123605 261.329108 252.596774 260.057224 251.659139 259.119589 
C 250.721505 258.181955 249.449621 257.655123 248.123605 257.655123 
C 246.79759 257.655123 245.525706 258.181955 244.588071 259.119589 
C 243.650437 260.057224 243.123605 261.329108 243.123605 262.655123 
C 243.123605 263.981139 243.650437 265.253022 244.588071 266.190657 
C 245.525706 267.128292 246.79759 267.655123 248.123605 267.655123 
z
" style="fill:#a020f0;stroke:#a020f0;"/>
    <path clip-path="url(#p27f2a482c8)" d="M 268.957725 288.183898 
C 270.283741 288.183898 271.555624 287.657067 272.493259 286.719432 
C 273.430893 285.781798 273.957725 284.509914 273.957725 283.183898 
C 273.957725 281.857883 273.430893 280.585999 272.493259 279.648364 
C 271.555624 278.71073 270.283741 278.183898 268.957725 278.183898 
C 267.63171 278.183898 266.359826 278.71073 265.422191 279.648364 
C 264.484557 280.585999 263.957725 281.857883 263.957725 283.183898 
C 263.957725 284.509914 264.484557 285.781798 265.422191 286.719432 
C 266.359826 287.657067 267.63171 288.183898 268.957725 288.183898 
z
" style="fill:#da70d6;stroke:#da70d6;"/>
    <path clip-path="url(#p27f2a482c8)" d="M 267.865937 267.058351 
C 269.741206 267.058351 271.539921 266.313299 272.865937 264.987283 
C 274.191952 263.661268 274.937005 261.862552 274.937005 259.987283 
C 274.937005 258.112014 274.191952 256.313299 272.865937 254.987283 
C 271.539921 253.661268 269.741206 252.916215 267.865937 252.916215 
C 265.990668 252.916215 264.191952 253.661268 262.865937 254.987283 
C 261.539921 256.313299 260.794869 258.112014 260.794869 259.987283 
C 260.794869 261.862552 261.539921 263.661268 262.865937 264.987283 
C 264.191952 266.313299 265.990668 267.058351 267.865937 267.058351 
z
" style="fill:#ff00ff;stroke:#ff00ff;"/>
    <path clip-path="url(#p27f2a482c8)" d="M 297.270322 249.284188 
C 298.894353 249.284188 300.452086 248.638953 301.600449 247.49059 
C 302.748812 246.342227 303.394046 244.784494 303.394046 243.160463 
C 303.394046 241.536432 302.748812 239.978699 301.600449 238.830336 
C 300.452086 237.681973 298.894353 237.036739 297.270322 237.036739 
C 295.646291 237.036739 294.088558 237.681973 292.940195 238.830336 
C 291.791832 239.978699 291.146597 241.536432 291.146597 243.160463 
C 291.146597 244.784494 291.791832 246.342227 292.940195 247.49059 
C 294.088558 248.638953 295.646291 249.284188 297.270322 249.284188 
z
" style="fill:#f0e68c;stroke:#f0e68c;"/>
    <path clip-path="url(#p27f2a482c8)" d="M 251.418759 261.85395 
C 252.744774 261.85395 254.016658 261.327118 254.954292 260.389484 
C 255.891927 259.451849 256.418759 258.179965 256.418759 256.85395 
C 256.418759 255.527934 255.891927 254.25605 254.954292 253.318416 
C 254.016658 252.380781 252.744774 251.85395 251.418759 251.85395 
C 250.092743 251.85395 248.820859 252.380781 247.883225 253.318416 
C 246.94559 254.25605 246.418759 255.527934 246.418759 256.85395 
C 246.418759 258.179965 246.94559 259.451849 247.883225 260.389484 
C 248.820859 261.327118 250.092743 261.85395 251.418759 261.85395 
z
" style="fill:#fa8072;stroke:#fa8072;"/>
    <path clip-path="url(#p27f2a482c8)" d="M 255.864674 437.30675 
C 257.19069 437.30675 258.462574 436.779918 259.400208 435.842284 
C 260.337843 434.904649 260.864674 433.632765 260.864674 432.30675 
C 260.864674 430.980734 260.337843 429.70885 259.400208 428.771216 
C 258.462574 427.833581 257.19069 427.30675 255.864674 427.30675 
C 254.538659 427.30675 253.266775 427.833581 252.32914 428.771216 
C 251.391506 429.70885 250.864674 430.980734 250.864674 432.30675 
C 250.864674 433.632765 251.391506 434.904649 252.32914 435.842284 
C 253.266775 436.779918 254.538659 437.30675 255.864674 437.30675 
z
" style="fill:#ffff54;stroke:#ffff54;"/>
    <path clip-path="url(#p27f2a482c8)" d="M 282.064572 387.267446 
C 283.390588 387.267446 284.662471 386.740614 285.600106 385.80298 
C 286.53774 384.865345 287.064572 383.593461 287.064572 382.267446 
C 287.064572 380.94143 286.53774 379.669546 285.600106 378.731912 
C 284.662471 377.794277 283.390588 377.267446 282.064572 377.267446 
C 280.738557 377.267446 279.466673 377.794277 278.529038 378.731912 
C 277.591404 379.669546 277.064572 380.94143 277.064572 382.267446 
C 277.064572 383.593461 277.591404 384.865345 278.529038 385.80298 
C 279.466673 386.740614 280.738557 387.267446 282.064572 387.267446 
z
" style="fill:#6495ed;stroke:#6495ed;"/>
    <path clip-path="url(#p27f2a482c8)" d="M 239.351458 285.701907 
C 240.677474 285.701907 241.949358 285.175075 242.886992 284.237441 
C 243.824627 283.299806 244.351458 282.027922 244.351458 280.701907 
C 244.351458 279.375891 243.824627 278.104007 242.886992 277.166373 
C 241.949358 276.228738 240.677474 275.701907 239.351458 275.701907 
C 238.025443 275.701907 236.753559 276.228738 235.815924 277.166373 
C 234.87829 278.104007 234.351458 279.375891 234.351458 280.701907 
C 234.351458 282.027922 234.87829 283.299806 235.815924 284.237441 
C 236.753559 285.175075 238.025443 285.701907 239.351458 285.701907 
z
" style="fill:#90ee90;stroke:#90ee90;"/>
    <path clip-path="url(#p27f2a482c8)" d="M 256.498898 246.196592 
C 257.824913 246.196592 259.096797 245.66976 260.034431 244.732125 
C 260.972066 243.794491 261.498898 242.522607 261.498898 241.196592 
C 261.498898 239.870576 260.972066 238.598692 260.034431 237.661058 
C 259.096797 236.723423 257.824913 236.196592 256.498898 236.196592 
C 255.172882 236.196592 253.900998 236.723423 252.963364 237.661058 
C 252.025729 238.598692 251.498898 239.870576 251.498898 241.196592 
C 251.498898 242.522607 252.025729 243.794491 252.963364 244.732125 
C 253.900998 245.66976 255.172882 246.196592 256.498898 246.196592 
z
" style="fill:#afeeee;stroke:#afeeee;"/>
   </g>
   <g id="matplotlib.axis_1">
    <g id="xtick_1">
     <g id="line2d_1">
      <defs>
       <path d="M 0 0 
L 0 3.5 
" id="mb8502541b6" style="stroke:#000000;stroke-width:0.8;"/>
      </defs>
      <g>
       <use style="stroke:#000000;stroke-width:0.8;" x="258.3" xlink:href="#mb8502541b6" y="576.72"/>
      </g>
     </g>
     <g id="text_1">
      <!-- MeanPD -->
      <g transform="translate(237.811719 591.318438)scale(0.1 -0.1)">
       <defs>
        <path d="M 9.8125 72.90625 
L 24.515625 72.90625 
L 43.109375 23.296875 
L 61.8125 72.90625 
L 76.515625 72.90625 
L 76.515625 0 
L 66.890625 0 
L 66.890625 64.015625 
L 48.09375 14.015625 
L 38.1875 14.015625 
L 19.390625 64.015625 
L 19.390625 0 
L 9.8125 0 
z
" id="DejaVuSans-77"/>
        <path d="M 56.203125 29.59375 
L 56.203125 25.203125 
L 14.890625 25.203125 
Q 15.484375 15.921875 20.484375 11.0625 
Q 25.484375 6.203125 34.421875 6.203125 
Q 39.59375 6.203125 44.453125 7.46875 
Q 49.3125 8.734375 54.109375 11.28125 
L 54.109375 2.78125 
Q 49.265625 0.734375 44.1875 -0.34375 
Q 39.109375 -1.421875 33.890625 -1.421875 
Q 20.796875 -1.421875 13.15625 6.1875 
Q 5.515625 13.8125 5.515625 26.8125 
Q 5.515625 40.234375 12.765625 48.109375 
Q 20.015625 56 32.328125 56 
Q 43.359375 56 49.78125 48.890625 
Q 56.203125 41.796875 56.203125 29.59375 
z
M 47.21875 32.234375 
Q 47.125 39.59375 43.09375 43.984375 
Q 39.0625 48.390625 32.421875 48.390625 
Q 24.90625 48.390625 20.390625 44.140625 
Q 15.875 39.890625 15.1875 32.171875 
z
" id="DejaVuSans-101"/>
        <path d="M 34.28125 27.484375 
Q 23.390625 27.484375 19.1875 25 
Q 14.984375 22.515625 14.984375 16.5 
Q 14.984375 11.71875 18.140625 8.90625 
Q 21.296875 6.109375 26.703125 6.109375 
Q 34.1875 6.109375 38.703125 11.40625 
Q 43.21875 16.703125 43.21875 25.484375 
L 43.21875 27.484375 
z
M 52.203125 31.203125 
L 52.203125 0 
L 43.21875 0 
L 43.21875 8.296875 
Q 40.140625 3.328125 35.546875 0.953125 
Q 30.953125 -1.421875 24.3125 -1.421875 
Q 15.921875 -1.421875 10.953125 3.296875 
Q 6 8.015625 6 15.921875 
Q 6 25.140625 12.171875 29.828125 
Q 18.359375 34.515625 30.609375 34.515625 
L 43.21875 34.515625 
L 43.21875 35.40625 
Q 43.21875 41.609375 39.140625 45 
Q 35.0625 48.390625 27.6875 48.390625 
Q 23 48.390625 18.546875 47.265625 
Q 14.109375 46.140625 10.015625 43.890625 
L 10.015625 52.203125 
Q 14.9375 54.109375 19.578125 55.046875 
Q 24.21875 56 28.609375 56 
Q 40.484375 56 46.34375 49.84375 
Q 52.203125 43.703125 52.203125 31.203125 
z
" id="DejaVuSans-97"/>
        <path d="M 54.890625 33.015625 
L 54.890625 0 
L 45.90625 0 
L 45.90625 32.71875 
Q 45.90625 40.484375 42.875 44.328125 
Q 39.84375 48.1875 33.796875 48.1875 
Q 26.515625 48.1875 22.3125 43.546875 
Q 18.109375 38.921875 18.109375 30.90625 
L 18.109375 0 
L 9.078125 0 
L 9.078125 54.6875 
L 18.109375 54.6875 
L 18.109375 46.1875 
Q 21.34375 51.125 25.703125 53.5625 
Q 30.078125 56 35.796875 56 
Q 45.21875 56 50.046875 50.171875 
Q 54.890625 44.34375 54.890625 33.015625 
z
" id="DejaVuSans-110"/>
        <path d="M 19.671875 64.796875 
L 19.671875 37.40625 
L 32.078125 37.40625 
Q 38.96875 37.40625 42.71875 40.96875 
Q 46.484375 44.53125 46.484375 51.125 
Q 46.484375 57.671875 42.71875 61.234375 
Q 38.96875 64.796875 32.078125 64.796875 
z
M 9.8125 72.90625 
L 32.078125 72.90625 
Q 44.34375 72.90625 50.609375 67.359375 
Q 56.890625 61.8125 56.890625 51.125 
Q 56.890625 40.328125 50.609375 34.8125 
Q 44.34375 29.296875 32.078125 29.296875 
L 19.671875 29.296875 
L 19.671875 0 
L 9.8125 0 
z
" id="DejaVuSans-80"/>
        <path d="M 19.671875 64.796875 
L 19.671875 8.109375 
L 31.59375 8.109375 
Q 46.6875 8.109375 53.6875 14.9375 
Q 60.6875 21.78125 60.6875 36.53125 
Q 60.6875 51.171875 53.6875 57.984375 
Q 46.6875 64.796875 31.59375 64.796875 
z
M 9.8125 72.90625 
L 30.078125 72.90625 
Q 51.265625 72.90625 61.171875 64.09375 
Q 71.09375 55.28125 71.09375 36.53125 
Q 71.09375 17.671875 61.125 8.828125 
Q 51.171875 0 30.078125 0 
L 9.8125 0 
z
" id="DejaVuSans-68"/>
       </defs>
       <use xlink:href="#DejaVuSans-77"/>
       <use x="86.279297" xlink:href="#DejaVuSans-101"/>
       <use x="147.802734" xlink:href="#DejaVuSans-97"/>
       <use x="209.082031" xlink:href="#DejaVuSans-110"/>
       <use x="272.460938" xlink:href="#DejaVuSans-80"/>
       <use x="332.763672" xlink:href="#DejaVuSans-68"/>
      </g>
     </g>
    </g>
   </g>
   <g id="matplotlib.axis_2">
    <g id="ytick_1">
     <g id="line2d_2">
      <defs>
       <path d="M 0 0 
L -3.5 0 
" id="m045d548caa" style="stroke:#000000;stroke-width:0.8;"/>
      </defs>
      <g>
       <use style="stroke:#000000;stroke-width:0.8;" x="63" xlink:href="#m045d548caa" y="576.72"/>
      </g>
     </g>
     <g id="text_2">
      <!-- −3.5 -->
      <g transform="translate(31.717187 580.519219)scale(0.1 -0.1)">
       <defs>
        <path d="M 10.59375 35.5 
L 73.1875 35.5 
L 73.1875 27.203125 
L 10.59375 27.203125 
z
" id="DejaVuSans-8722"/>
        <path d="M 40.578125 39.3125 
Q 47.65625 37.796875 51.625 33 
Q 55.609375 28.21875 55.609375 21.1875 
Q 55.609375 10.40625 48.1875 4.484375 
Q 40.765625 -1.421875 27.09375 -1.421875 
Q 22.515625 -1.421875 17.65625 -0.515625 
Q 12.796875 0.390625 7.625 2.203125 
L 7.625 11.71875 
Q 11.71875 9.328125 16.59375 8.109375 
Q 21.484375 6.890625 26.8125 6.890625 
Q 36.078125 6.890625 40.9375 10.546875 
Q 45.796875 14.203125 45.796875 21.1875 
Q 45.796875 27.640625 41.28125 31.265625 
Q 36.765625 34.90625 28.71875 34.90625 
L 20.21875 34.90625 
L 20.21875 43.015625 
L 29.109375 43.015625 
Q 36.375 43.015625 40.234375 45.921875 
Q 44.09375 48.828125 44.09375 54.296875 
Q 44.09375 59.90625 40.109375 62.90625 
Q 36.140625 65.921875 28.71875 65.921875 
Q 24.65625 65.921875 20.015625 65.03125 
Q 15.375 64.15625 9.8125 62.3125 
L 9.8125 71.09375 
Q 15.4375 72.65625 20.34375 73.4375 
Q 25.25 74.21875 29.59375 74.21875 
Q 40.828125 74.21875 47.359375 69.109375 
Q 53.90625 64.015625 53.90625 55.328125 
Q 53.90625 49.265625 50.4375 45.09375 
Q 46.96875 40.921875 40.578125 39.3125 
z
" id="DejaVuSans-51"/>
        <path d="M 10.6875 12.40625 
L 21 12.40625 
L 21 0 
L 10.6875 0 
z
" id="DejaVuSans-46"/>
        <path d="M 10.796875 72.90625 
L 49.515625 72.90625 
L 49.515625 64.59375 
L 19.828125 64.59375 
L 19.828125 46.734375 
Q 21.96875 47.46875 24.109375 47.828125 
Q 26.265625 48.1875 28.421875 48.1875 
Q 40.625 48.1875 47.75 41.5 
Q 54.890625 34.8125 54.890625 23.390625 
Q 54.890625 11.625 47.5625 5.09375 
Q 40.234375 -1.421875 26.90625 -1.421875 
Q 22.3125 -1.421875 17.546875 -0.640625 
Q 12.796875 0.140625 7.71875 1.703125 
L 7.71875 11.625 
Q 12.109375 9.234375 16.796875 8.0625 
Q 21.484375 6.890625 26.703125 6.890625 
Q 35.15625 6.890625 40.078125 11.328125 
Q 45.015625 15.765625 45.015625 23.390625 
Q 45.015625 31 40.078125 35.4375 
Q 35.15625 39.890625 26.703125 39.890625 
Q 22.75 39.890625 18.8125 39.015625 
Q 14.890625 38.140625 10.796875 36.28125 
z
" id="DejaVuSans-53"/>
       </defs>
       <use xlink:href="#DejaVuSans-8722"/>
       <use x="83.789062" xlink:href="#DejaVuSans-51"/>
       <use x="147.412109" xlink:href="#DejaVuSans-46"/>
       <use x="179.199219" xlink:href="#DejaVuSans-53"/>
      </g>
     </g>
    </g>
    <g id="ytick_2">
     <g id="line2d_3">
      <g>
       <use style="stroke:#000000;stroke-width:0.8;" x="63" xlink:href="#m045d548caa" y="538.92"/>
      </g>
     </g>
     <g id="text_3">
      <!-- −3.0 -->
      <g transform="translate(31.717187 542.719219)scale(0.1 -0.1)">
       <defs>
        <path d="M 31.78125 66.40625 
Q 24.171875 66.40625 20.328125 58.90625 
Q 16.5 51.421875 16.5 36.375 
Q 16.5 21.390625 20.328125 13.890625 
Q 24.171875 6.390625 31.78125 6.390625 
Q 39.453125 6.390625 43.28125 13.890625 
Q 47.125 21.390625 47.125 36.375 
Q 47.125 51.421875 43.28125 58.90625 
Q 39.453125 66.40625 31.78125 66.40625 
z
M 31.78125 74.21875 
Q 44.046875 74.21875 50.515625 64.515625 
Q 56.984375 54.828125 56.984375 36.375 
Q 56.984375 17.96875 50.515625 8.265625 
Q 44.046875 -1.421875 31.78125 -1.421875 
Q 19.53125 -1.421875 13.0625 8.265625 
Q 6.59375 17.96875 6.59375 36.375 
Q 6.59375 54.828125 13.0625 64.515625 
Q 19.53125 74.21875 31.78125 74.21875 
z
" id="DejaVuSans-48"/>
       </defs>
       <use xlink:href="#DejaVuSans-8722"/>
       <use x="83.789062" xlink:href="#DejaVuSans-51"/>
       <use x="147.412109" xlink:href="#DejaVuSans-46"/>
       <use x="179.199219" xlink:href="#DejaVuSans-48"/>
      </g>
     </g>
    </g>
    <g id="ytick_3">
     <g id="line2d_4">
      <g>
       <use style="stroke:#000000;stroke-width:0.8;" x="63" xlink:href="#m045d548caa" y="501.12"/>
      </g>
     </g>
     <g id="text_4">
      <!-- −2.5 -->
      <g transform="translate(31.717187 504.919219)scale(0.1 -0.1)">
       <defs>
        <path d="M 19.1875 8.296875 
L 53.609375 8.296875 
L 53.609375 0 
L 7.328125 0 
L 7.328125 8.296875 
Q 12.9375 14.109375 22.625 23.890625 
Q 32.328125 33.6875 34.8125 36.53125 
Q 39.546875 41.84375 41.421875 45.53125 
Q 43.3125 49.21875 43.3125 52.78125 
Q 43.3125 58.59375 39.234375 62.25 
Q 35.15625 65.921875 28.609375 65.921875 
Q 23.96875 65.921875 18.8125 64.3125 
Q 13.671875 62.703125 7.8125 59.421875 
L 7.8125 69.390625 
Q 13.765625 71.78125 18.9375 73 
Q 24.125 74.21875 28.421875 74.21875 
Q 39.75 74.21875 46.484375 68.546875 
Q 53.21875 62.890625 53.21875 53.421875 
Q 53.21875 48.921875 51.53125 44.890625 
Q 49.859375 40.875 45.40625 35.40625 
Q 44.1875 33.984375 37.640625 27.21875 
Q 31.109375 20.453125 19.1875 8.296875 
z
" id="DejaVuSans-50"/>
       </defs>
       <use xlink:href="#DejaVuSans-8722"/>
       <use x="83.789062" xlink:href="#DejaVuSans-50"/>
       <use x="147.412109" xlink:href="#DejaVuSans-46"/>
       <use x="179.199219" xlink:href="#DejaVuSans-53"/>
      </g>
     </g>
    </g>
    <g id="ytick_4">
     <g id="line2d_5">
      <g>
       <use style="stroke:#000000;stroke-width:0.8;" x="63" xlink:href="#m045d548caa" y="463.32"/>
      </g>
     </g>
     <g id="text_5">
      <!-- −2.0 -->
      <g transform="translate(31.717187 467.119219)scale(0.1 -0.1)">
       <use xlink:href="#DejaVuSans-8722"/>
       <use x="83.789062" xlink:href="#DejaVuSans-50"/>
       <use x="147.412109" xlink:href="#DejaVuSans-46"/>
       <use x="179.199219" xlink:href="#DejaVuSans-48"/>
      </g>
     </g>
    </g>
    <g id="ytick_5">
     <g id="line2d_6">
      <g>
       <use style="stroke:#000000;stroke-width:0.8;" x="63" xlink:href="#m045d548caa" y="425.52"/>
      </g>
     </g>
     <g id="text_6">
      <!-- −1.5 -->
      <g transform="translate(31.717187 429.319219)scale(0.1 -0.1)">
       <defs>
        <path d="M 12.40625 8.296875 
L 28.515625 8.296875 
L 28.515625 63.921875 
L 10.984375 60.40625 
L 10.984375 69.390625 
L 28.421875 72.90625 
L 38.28125 72.90625 
L 38.28125 8.296875 
L 54.390625 8.296875 
L 54.390625 0 
L 12.40625 0 
z
" id="DejaVuSans-49"/>
       </defs>
       <use xlink:href="#DejaVuSans-8722"/>
       <use x="83.789062" xlink:href="#DejaVuSans-49"/>
       <use x="147.412109" xlink:href="#DejaVuSans-46"/>
       <use x="179.199219" xlink:href="#DejaVuSans-53"/>
      </g>
     </g>
    </g>
    <g id="ytick_6">
     <g id="line2d_7">
      <g>
       <use style="stroke:#000000;stroke-width:0.8;" x="63" xlink:href="#m045d548caa" y="387.72"/>
      </g>
     </g>
     <g id="text_7">
      <!-- −1.0 -->
      <g transform="translate(31.717187 391.519219)scale(0.1 -0.1)">
       <use xlink:href="#DejaVuSans-8722"/>
       <use x="83.789062" xlink:href="#DejaVuSans-49"/>
       <use x="147.412109" xlink:href="#DejaVuSans-46"/>
       <use x="179.199219" xlink:href="#DejaVuSans-48"/>
      </g>
     </g>
    </g>
    <g id="ytick_7">
     <g id="line2d_8">
      <g>
       <use style="stroke:#000000;stroke-width:0.8;" x="63" xlink:href="#m045d548caa" y="349.92"/>
      </g>
     </g>
     <g id="text_8">
      <!-- −0.5 -->
      <g transform="translate(31.717187 353.719219)scale(0.1 -0.1)">
       <use xlink:href="#DejaVuSans-8722"/>
       <use x="83.789062" xlink:href="#DejaVuSans-48"/>
       <use x="147.412109" xlink:href="#DejaVuSans-46"/>
       <use x="179.199219" xlink:href="#DejaVuSans-53"/>
      </g>
     </g>
    </g>
    <g id="ytick_8">
     <g id="line2d_9">
      <g>
       <use style="stroke:#000000;stroke-width:0.8;" x="63" xlink:href="#m045d548caa" y="312.12"/>
      </g>
     </g>
     <g id="text_9">
      <!-- 0.0 -->
      <g transform="translate(40.096875 315.919219)scale(0.1 -0.1)">
       <use xlink:href="#DejaVuSans-48"/>
       <use x="63.623047" xlink:href="#DejaVuSans-46"/>
       <use x="95.410156" xlink:href="#DejaVuSans-48"/>
      </g>
     </g>
    </g>
    <g id="ytick_9">
     <g id="line2d_10">
      <g>
       <use style="stroke:#000000;stroke-width:0.8;" x="63" xlink:href="#m045d548caa" y="274.32"/>
      </g>
     </g>
     <g id="text_10">
      <!-- 0.5 -->
      <g transform="translate(40.096875 278.119219)scale(0.1 -0.1)">
       <use xlink:href="#DejaVuSans-48"/>
       <use x="63.623047" xlink:href="#DejaVuSans-46"/>
       <use x="95.410156" xlink:href="#DejaVuSans-53"/>
      </g>
     </g>
    </g>
    <g id="ytick_10">
     <g id="line2d_11">
      <g>
       <use style="stroke:#000000;stroke-width:0.8;" x="63" xlink:href="#m045d548caa" y="236.52"/>
      </g>
     </g>
     <g id="text_11">
      <!-- 1.0 -->
      <g transform="translate(40.096875 240.319219)scale(0.1 -0.1)">
       <use xlink:href="#DejaVuSans-49"/>
       <use x="63.623047" xlink:href="#DejaVuSans-46"/>
       <use x="95.410156" xlink:href="#DejaVuSans-48"/>
      </g>
     </g>
    </g>
    <g id="ytick_11">
     <g id="line2d_12">
      <g>
       <use style="stroke:#000000;stroke-width:0.8;" x="63" xlink:href="#m045d548caa" y="198.72"/>
      </g>
     </g>
     <g id="text_12">
      <!-- 1.5 -->
      <g transform="translate(40.096875 202.519219)scale(0.1 -0.1)">
       <use xlink:href="#DejaVuSans-49"/>
       <use x="63.623047" xlink:href="#DejaVuSans-46"/>
       <use x="95.410156" xlink:href="#DejaVuSans-53"/>
      </g>
     </g>
    </g>
    <g id="ytick_12">
     <g id="line2d_13">
      <g>
       <use style="stroke:#000000;stroke-width:0.8;" x="63" xlink:href="#m045d548caa" y="160.92"/>
      </g>
     </g>
     <g id="text_13">
      <!-- 2.0 -->
      <g transform="translate(40.096875 164.719219)scale(0.1 -0.1)">
       <use xlink:href="#DejaVuSans-50"/>
       <use x="63.623047" xlink:href="#DejaVuSans-46"/>
       <use x="95.410156" xlink:href="#DejaVuSans-48"/>
      </g>
     </g>
    </g>
    <g id="ytick_13">
     <g id="line2d_14">
      <g>
       <use style="stroke:#000000;stroke-width:0.8;" x="63" xlink:href="#m045d548caa" y="123.12"/>
      </g>
     </g>
     <g id="text_14">
      <!-- 2.5 -->
      <g transform="translate(40.096875 126.919219)scale(0.1 -0.1)">
       <use xlink:href="#DejaVuSans-50"/>
       <use x="63.623047" xlink:href="#DejaVuSans-46"/>
       <use x="95.410156" xlink:href="#DejaVuSans-53"/>
      </g>
     </g>
    </g>
    <g id="ytick_14">
     <g id="line2d_15">
      <g>
       <use style="stroke:#000000;stroke-width:0.8;" x="63" xlink:href="#m045d548caa" y="85.32"/>
      </g>
     </g>
     <g id="text_15">
      <!-- 3.0 -->
      <g transform="translate(40.096875 89.119219)scale(0.1 -0.1)">
       <use xlink:href="#DejaVuSans-51"/>
       <use x="63.623047" xlink:href="#DejaVuSans-46"/>
       <use x="95.410156" xlink:href="#DejaVuSans-48"/>
      </g>
     </g>
    </g>
    <g id="text_16">
     <!-- LogOdds -->
     <g transform="translate(25.6375 349.061094)rotate(-90)scale(0.1 -0.1)">
      <defs>
       <path d="M 9.8125 72.90625 
L 19.671875 72.90625 
L 19.671875 8.296875 
L 55.171875 8.296875 
L 55.171875 0 
L 9.8125 0 
z
" id="DejaVuSans-76"/>
       <path d="M 30.609375 48.390625 
Q 23.390625 48.390625 19.1875 42.75 
Q 14.984375 37.109375 14.984375 27.296875 
Q 14.984375 17.484375 19.15625 11.84375 
Q 23.34375 6.203125 30.609375 6.203125 
Q 37.796875 6.203125 41.984375 11.859375 
Q 46.1875 17.53125 46.1875 27.296875 
Q 46.1875 37.015625 41.984375 42.703125 
Q 37.796875 48.390625 30.609375 48.390625 
z
M 30.609375 56 
Q 42.328125 56 49.015625 48.375 
Q 55.71875 40.765625 55.71875 27.296875 
Q 55.71875 13.875 49.015625 6.21875 
Q 42.328125 -1.421875 30.609375 -1.421875 
Q 18.84375 -1.421875 12.171875 6.21875 
Q 5.515625 13.875 5.515625 27.296875 
Q 5.515625 40.765625 12.171875 48.375 
Q 18.84375 56 30.609375 56 
z
" id="DejaVuSans-111"/>
       <path d="M 45.40625 27.984375 
Q 45.40625 37.75 41.375 43.109375 
Q 37.359375 48.484375 30.078125 48.484375 
Q 22.859375 48.484375 18.828125 43.109375 
Q 14.796875 37.75 14.796875 27.984375 
Q 14.796875 18.265625 18.828125 12.890625 
Q 22.859375 7.515625 30.078125 7.515625 
Q 37.359375 7.515625 41.375 12.890625 
Q 45.40625 18.265625 45.40625 27.984375 
z
M 54.390625 6.78125 
Q 54.390625 -7.171875 48.1875 -13.984375 
Q 42 -20.796875 29.203125 -20.796875 
Q 24.46875 -20.796875 20.265625 -20.09375 
Q 16.0625 -19.390625 12.109375 -17.921875 
L 12.109375 -9.1875 
Q 16.0625 -11.328125 19.921875 -12.34375 
Q 23.78125 -13.375 27.78125 -13.375 
Q 36.625 -13.375 41.015625 -8.765625 
Q 45.40625 -4.15625 45.40625 5.171875 
L 45.40625 9.625 
Q 42.625 4.78125 38.28125 2.390625 
Q 33.9375 0 27.875 0 
Q 17.828125 0 11.671875 7.65625 
Q 5.515625 15.328125 5.515625 27.984375 
Q 5.515625 40.671875 11.671875 48.328125 
Q 17.828125 56 27.875 56 
Q 33.9375 56 38.28125 53.609375 
Q 42.625 51.21875 45.40625 46.390625 
L 45.40625 54.6875 
L 54.390625 54.6875 
z
" id="DejaVuSans-103"/>
       <path d="M 39.40625 66.21875 
Q 28.65625 66.21875 22.328125 58.203125 
Q 16.015625 50.203125 16.015625 36.375 
Q 16.015625 22.609375 22.328125 14.59375 
Q 28.65625 6.59375 39.40625 6.59375 
Q 50.140625 6.59375 56.421875 14.59375 
Q 62.703125 22.609375 62.703125 36.375 
Q 62.703125 50.203125 56.421875 58.203125 
Q 50.140625 66.21875 39.40625 66.21875 
z
M 39.40625 74.21875 
Q 54.734375 74.21875 63.90625 63.9375 
Q 73.09375 53.65625 73.09375 36.375 
Q 73.09375 19.140625 63.90625 8.859375 
Q 54.734375 -1.421875 39.40625 -1.421875 
Q 24.03125 -1.421875 14.8125 8.828125 
Q 5.609375 19.09375 5.609375 36.375 
Q 5.609375 53.65625 14.8125 63.9375 
Q 24.03125 74.21875 39.40625 74.21875 
z
" id="DejaVuSans-79"/>
       <path d="M 45.40625 46.390625 
L 45.40625 75.984375 
L 54.390625 75.984375 
L 54.390625 0 
L 45.40625 0 
L 45.40625 8.203125 
Q 42.578125 3.328125 38.25 0.953125 
Q 33.9375 -1.421875 27.875 -1.421875 
Q 17.96875 -1.421875 11.734375 6.484375 
Q 5.515625 14.40625 5.515625 27.296875 
Q 5.515625 40.1875 11.734375 48.09375 
Q 17.96875 56 27.875 56 
Q 33.9375 56 38.25 53.625 
Q 42.578125 51.265625 45.40625 46.390625 
z
M 14.796875 27.296875 
Q 14.796875 17.390625 18.875 11.75 
Q 22.953125 6.109375 30.078125 6.109375 
Q 37.203125 6.109375 41.296875 11.75 
Q 45.40625 17.390625 45.40625 27.296875 
Q 45.40625 37.203125 41.296875 42.84375 
Q 37.203125 48.484375 30.078125 48.484375 
Q 22.953125 48.484375 18.875 42.84375 
Q 14.796875 37.203125 14.796875 27.296875 
z
" id="DejaVuSans-100"/>
       <path d="M 44.28125 53.078125 
L 44.28125 44.578125 
Q 40.484375 46.53125 36.375 47.5 
Q 32.28125 48.484375 27.875 48.484375 
Q 21.1875 48.484375 17.84375 46.4375 
Q 14.5 44.390625 14.5 40.28125 
Q 14.5 37.15625 16.890625 35.375 
Q 19.28125 33.59375 26.515625 31.984375 
L 29.59375 31.296875 
Q 39.15625 29.25 43.1875 25.515625 
Q 47.21875 21.78125 47.21875 15.09375 
Q 47.21875 7.46875 41.1875 3.015625 
Q 35.15625 -1.421875 24.609375 -1.421875 
Q 20.21875 -1.421875 15.453125 -0.5625 
Q 10.6875 0.296875 5.421875 2 
L 5.421875 11.28125 
Q 10.40625 8.6875 15.234375 7.390625 
Q 20.0625 6.109375 24.8125 6.109375 
Q 31.15625 6.109375 34.5625 8.28125 
Q 37.984375 10.453125 37.984375 14.40625 
Q 37.984375 18.0625 35.515625 20.015625 
Q 33.0625 21.96875 24.703125 23.78125 
L 21.578125 24.515625 
Q 13.234375 26.265625 9.515625 29.90625 
Q 5.8125 33.546875 5.8125 39.890625 
Q 5.8125 47.609375 11.28125 51.796875 
Q 16.75 56 26.8125 56 
Q 31.78125 56 36.171875 55.265625 
Q 40.578125 54.546875 44.28125 53.078125 
z
" id="DejaVuSans-115"/>
      </defs>
      <use xlink:href="#DejaVuSans-76"/>
      <use x="53.962891" xlink:href="#DejaVuSans-111"/>
      <use x="115.144531" xlink:href="#DejaVuSans-103"/>
      <use x="178.621094" xlink:href="#DejaVuSans-79"/>
      <use x="257.332031" xlink:href="#DejaVuSans-100"/>
      <use x="320.808594" xlink:href="#DejaVuSans-100"/>
      <use x="384.285156" xlink:href="#DejaVuSans-115"/>
     </g>
    </g>
   </g>
   <g id="line2d_16">
    <path clip-path="url(#p27f2a482c8)" d="M 229.005 260.654243 
L 287.595 260.654243 
L 287.595 233.488586 
L 229.005 233.488586 
L 229.005 260.654243 
" style="fill:none;stroke:#000000;stroke-linecap:square;"/>
   </g>
   <g id="line2d_17">
    <path clip-path="url(#p27f2a482c8)" d="M 258.3 260.654243 
L 258.3 287.134624 
" style="fill:none;stroke:#000000;stroke-linecap:square;"/>
   </g>
   <g id="line2d_18">
    <path clip-path="url(#p27f2a482c8)" d="M 258.3 233.488586 
L 258.3 219.493323 
" style="fill:none;stroke:#000000;stroke-linecap:square;"/>
   </g>
   <g id="line2d_19">
    <path clip-path="url(#p27f2a482c8)" d="M 243.6525 287.134624 
L 272.9475 287.134624 
" style="fill:none;stroke:#000000;stroke-linecap:square;"/>
   </g>
   <g id="line2d_20">
    <path clip-path="url(#p27f2a482c8)" d="M 243.6525 219.493323 
L 272.9475 219.493323 
" style="fill:none;stroke:#000000;stroke-linecap:square;"/>
   </g>
   <g id="line2d_21">
    <path clip-path="url(#p27f2a482c8)" d="M 229.005 241.352195 
L 287.595 241.352195 
" style="fill:none;stroke:#ff7f0e;stroke-linecap:square;"/>
   </g>
   <g id="patch_3">
    <path d="M 63 576.72 
L 63 77.76 
" style="fill:none;stroke:#000000;stroke-linecap:square;stroke-linejoin:miter;stroke-width:0.8;"/>
   </g>
   <g id="patch_4">
    <path d="M 453.6 576.72 
L 453.6 77.76 
" style="fill:none;stroke:#000000;stroke-linecap:square;stroke-linejoin:miter;stroke-width:0.8;"/>
   </g>
   <g id="patch_5">
    <path d="M 63 576.72 
L 453.6 576.72 
" style="fill:none;stroke:#000000;stroke-linecap:square;stroke-linejoin:miter;stroke-width:0.8;"/>
   </g>
   <g id="patch_6">
    <path d="M 63 77.76 
L 453.6 77.76 
" style="fill:none;stroke:#000000;stroke-linecap:square;stroke-linejoin:miter;stroke-width:0.8;"/>
   </g>
   <g id="text_17">
    <!-- 1 -->
    <g style="fill:#556b2f;" transform="translate(251.651529 238.363759)scale(0.1 -0.1)">
     <use xlink:href="#DejaVuSans-49"/>
    </g>
   </g>
   <g id="text_18">
    <!-- 2 -->
    <g style="fill:#8b4513;" transform="translate(278.46543 231.502009)scale(0.1 -0.1)">
     <use xlink:href="#DejaVuSans-50"/>
    </g>
   </g>
   <g id="text_19">
    <!-- 3.0 -->
    <g style="fill:#2e8b57;" transform="translate(290.544844 233.142779)scale(0.1 -0.1)">
     <use xlink:href="#DejaVuSans-51"/>
     <use x="63.623047" xlink:href="#DejaVuSans-46"/>
     <use x="95.410156" xlink:href="#DejaVuSans-48"/>
    </g>
   </g>
   <g id="text_20">
    <!-- 4.0 -->
    <g style="fill:#228b22;" transform="translate(249.767965 286.378624)scale(0.1 -0.1)">
     <defs>
      <path d="M 37.796875 64.3125 
L 12.890625 25.390625 
L 37.796875 25.390625 
z
M 35.203125 72.90625 
L 47.609375 72.90625 
L 47.609375 25.390625 
L 58.015625 25.390625 
L 58.015625 17.1875 
L 47.609375 17.1875 
L 47.609375 0 
L 37.796875 0 
L 37.796875 17.1875 
L 4.890625 17.1875 
L 4.890625 26.703125 
z
" id="DejaVuSans-52"/>
     </defs>
     <use xlink:href="#DejaVuSans-52"/>
     <use x="63.623047" xlink:href="#DejaVuSans-46"/>
     <use x="95.410156" xlink:href="#DejaVuSans-48"/>
    </g>
   </g>
   <g id="text_21">
    <!-- 5 -->
    <g style="fill:#708090;" transform="translate(270.464093 238.435393)scale(0.1 -0.1)">
     <use xlink:href="#DejaVuSans-53"/>
    </g>
   </g>
   <g id="text_22">
    <!-- 6 -->
    <g style="fill:#8b0000;" transform="translate(286.217357 184.293852)scale(0.1 -0.1)">
     <defs>
      <path d="M 33.015625 40.375 
Q 26.375 40.375 22.484375 35.828125 
Q 18.609375 31.296875 18.609375 23.390625 
Q 18.609375 15.53125 22.484375 10.953125 
Q 26.375 6.390625 33.015625 6.390625 
Q 39.65625 6.390625 43.53125 10.953125 
Q 47.40625 15.53125 47.40625 23.390625 
Q 47.40625 31.296875 43.53125 35.828125 
Q 39.65625 40.375 33.015625 40.375 
z
M 52.59375 71.296875 
L 52.59375 62.3125 
Q 48.875 64.0625 45.09375 64.984375 
Q 41.3125 65.921875 37.59375 65.921875 
Q 27.828125 65.921875 22.671875 59.328125 
Q 17.53125 52.734375 16.796875 39.40625 
Q 19.671875 43.65625 24.015625 45.921875 
Q 28.375 48.1875 33.59375 48.1875 
Q 44.578125 48.1875 50.953125 41.515625 
Q 57.328125 34.859375 57.328125 23.390625 
Q 57.328125 12.15625 50.6875 5.359375 
Q 44.046875 -1.421875 33.015625 -1.421875 
Q 20.359375 -1.421875 13.671875 8.265625 
Q 6.984375 17.96875 6.984375 36.375 
Q 6.984375 53.65625 15.1875 63.9375 
Q 23.390625 74.21875 37.203125 74.21875 
Q 40.921875 74.21875 44.703125 73.484375 
Q 48.484375 72.75 52.59375 71.296875 
z
" id="DejaVuSans-54"/>
     </defs>
     <use xlink:href="#DejaVuSans-54"/>
    </g>
   </g>
   <g id="text_23">
    <!-- 7.0 -->
    <g style="fill:#808000;" transform="translate(247.500631 248.313691)scale(0.1 -0.1)">
     <defs>
      <path d="M 8.203125 72.90625 
L 55.078125 72.90625 
L 55.078125 68.703125 
L 28.609375 0 
L 18.3125 0 
L 43.21875 64.59375 
L 8.203125 64.59375 
z
" id="DejaVuSans-55"/>
     </defs>
     <use xlink:href="#DejaVuSans-55"/>
     <use x="63.623047" xlink:href="#DejaVuSans-46"/>
     <use x="95.410156" xlink:href="#DejaVuSans-48"/>
    </g>
   </g>
   <g id="text_24">
    <!-- 9 -->
    <g style="fill:#008080;" transform="translate(259.317587 242.921289)scale(0.1 -0.1)">
     <defs>
      <path d="M 10.984375 1.515625 
L 10.984375 10.5 
Q 14.703125 8.734375 18.5 7.8125 
Q 22.3125 6.890625 25.984375 6.890625 
Q 35.75 6.890625 40.890625 13.453125 
Q 46.046875 20.015625 46.78125 33.40625 
Q 43.953125 29.203125 39.59375 26.953125 
Q 35.25 24.703125 29.984375 24.703125 
Q 19.046875 24.703125 12.671875 31.3125 
Q 6.296875 37.9375 6.296875 49.421875 
Q 6.296875 60.640625 12.9375 67.421875 
Q 19.578125 74.21875 30.609375 74.21875 
Q 43.265625 74.21875 49.921875 64.515625 
Q 56.59375 54.828125 56.59375 36.375 
Q 56.59375 19.140625 48.40625 8.859375 
Q 40.234375 -1.421875 26.421875 -1.421875 
Q 22.703125 -1.421875 18.890625 -0.6875 
Q 15.09375 0.046875 10.984375 1.515625 
z
M 30.609375 32.421875 
Q 37.25 32.421875 41.125 36.953125 
Q 45.015625 41.5 45.015625 49.421875 
Q 45.015625 57.28125 41.125 61.84375 
Q 37.25 66.40625 30.609375 66.40625 
Q 23.96875 66.40625 20.09375 61.84375 
Q 16.21875 57.28125 16.21875 49.421875 
Q 16.21875 41.5 20.09375 36.953125 
Q 23.96875 32.421875 30.609375 32.421875 
z
" id="DejaVuSans-57"/>
     </defs>
     <use xlink:href="#DejaVuSans-57"/>
    </g>
   </g>
   <g id="text_25">
    <!-- 10 -->
    <g style="fill:#b8860b;" transform="translate(272.013878 224.44638)scale(0.1 -0.1)">
     <use xlink:href="#DejaVuSans-49"/>
     <use x="63.623047" xlink:href="#DejaVuSans-48"/>
    </g>
   </g>
   <g id="text_26">
    <!-- 11 -->
    <g style="fill:#4682b4;" transform="translate(232.719151 234.297683)scale(0.1 -0.1)">
     <use xlink:href="#DejaVuSans-49"/>
     <use x="63.623047" xlink:href="#DejaVuSans-49"/>
    </g>
   </g>
   <g id="text_27">
    <!-- 12.0 -->
    <g style="fill:#d2691e;" transform="translate(273.401258 235.208883)scale(0.1 -0.1)">
     <use xlink:href="#DejaVuSans-49"/>
     <use x="63.623047" xlink:href="#DejaVuSans-50"/>
     <use x="127.246094" xlink:href="#DejaVuSans-46"/>
     <use x="159.033203" xlink:href="#DejaVuSans-48"/>
    </g>
   </g>
   <g id="text_28">
    <!-- 14 -->
    <g style="fill:#32cd32;" transform="translate(271.254044 224.028137)scale(0.1 -0.1)">
     <use xlink:href="#DejaVuSans-49"/>
     <use x="63.623047" xlink:href="#DejaVuSans-52"/>
    </g>
   </g>
   <g id="text_29">
    <!-- 15.0 -->
    <g style="fill:#8fbc8f;" transform="translate(242.183169 240.751799)scale(0.1 -0.1)">
     <use xlink:href="#DejaVuSans-49"/>
     <use x="63.623047" xlink:href="#DejaVuSans-53"/>
     <use x="127.246094" xlink:href="#DejaVuSans-46"/>
     <use x="159.033203" xlink:href="#DejaVuSans-48"/>
    </g>
   </g>
   <g id="text_30">
    <!-- 17 -->
    <g style="fill:#b03060;" transform="translate(262.916808 245.428038)scale(0.1 -0.1)">
     <use xlink:href="#DejaVuSans-49"/>
     <use x="63.623047" xlink:href="#DejaVuSans-55"/>
    </g>
   </g>
   <g id="text_31">
    <!-- 18.0 -->
    <g style="fill:#9932cc;" transform="translate(283.118526 351.745243)scale(0.1 -0.1)">
     <defs>
      <path d="M 31.78125 34.625 
Q 24.75 34.625 20.71875 30.859375 
Q 16.703125 27.09375 16.703125 20.515625 
Q 16.703125 13.921875 20.71875 10.15625 
Q 24.75 6.390625 31.78125 6.390625 
Q 38.8125 6.390625 42.859375 10.171875 
Q 46.921875 13.96875 46.921875 20.515625 
Q 46.921875 27.09375 42.890625 30.859375 
Q 38.875 34.625 31.78125 34.625 
z
M 21.921875 38.8125 
Q 15.578125 40.375 12.03125 44.71875 
Q 8.5 49.078125 8.5 55.328125 
Q 8.5 64.0625 14.71875 69.140625 
Q 20.953125 74.21875 31.78125 74.21875 
Q 42.671875 74.21875 48.875 69.140625 
Q 55.078125 64.0625 55.078125 55.328125 
Q 55.078125 49.078125 51.53125 44.71875 
Q 48 40.375 41.703125 38.8125 
Q 48.828125 37.15625 52.796875 32.3125 
Q 56.78125 27.484375 56.78125 20.515625 
Q 56.78125 9.90625 50.3125 4.234375 
Q 43.84375 -1.421875 31.78125 -1.421875 
Q 19.734375 -1.421875 13.25 4.234375 
Q 6.78125 9.90625 6.78125 20.515625 
Q 6.78125 27.484375 10.78125 32.3125 
Q 14.796875 37.15625 21.921875 38.8125 
z
M 18.3125 54.390625 
Q 18.3125 48.734375 21.84375 45.5625 
Q 25.390625 42.390625 31.78125 42.390625 
Q 38.140625 42.390625 41.71875 45.5625 
Q 45.3125 48.734375 45.3125 54.390625 
Q 45.3125 60.0625 41.71875 63.234375 
Q 38.140625 66.40625 31.78125 66.40625 
Q 25.390625 66.40625 21.84375 63.234375 
Q 18.3125 60.0625 18.3125 54.390625 
z
" id="DejaVuSans-56"/>
     </defs>
     <use xlink:href="#DejaVuSans-49"/>
     <use x="63.623047" xlink:href="#DejaVuSans-56"/>
     <use x="127.246094" xlink:href="#DejaVuSans-46"/>
     <use x="159.033203" xlink:href="#DejaVuSans-48"/>
    </g>
   </g>
   <g id="text_32">
    <!-- 22.3 -->
    <g style="fill:#ff8c00;" transform="translate(254.102298 233.560851)scale(0.1 -0.1)">
     <use xlink:href="#DejaVuSans-50"/>
     <use x="63.623047" xlink:href="#DejaVuSans-50"/>
     <use x="127.246094" xlink:href="#DejaVuSans-46"/>
     <use x="159.033203" xlink:href="#DejaVuSans-51"/>
    </g>
   </g>
   <g id="text_33">
    <!-- 21.0 -->
    <g style="fill:#ffd700;" transform="translate(273.539177 220.212339)scale(0.1 -0.1)">
     <use xlink:href="#DejaVuSans-50"/>
     <use x="63.623047" xlink:href="#DejaVuSans-49"/>
     <use x="127.246094" xlink:href="#DejaVuSans-46"/>
     <use x="159.033203" xlink:href="#DejaVuSans-48"/>
    </g>
   </g>
   <g id="text_34">
    <!-- 21.1 -->
    <g style="fill:#00bfff;" transform="translate(255.396613 218.737323)scale(0.1 -0.1)">
     <use xlink:href="#DejaVuSans-50"/>
     <use x="63.623047" xlink:href="#DejaVuSans-49"/>
     <use x="127.246094" xlink:href="#DejaVuSans-46"/>
     <use x="159.033203" xlink:href="#DejaVuSans-49"/>
    </g>
   </g>
   <g id="text_35">
    <!-- 20.1 -->
    <g style="fill:#0000ff;" transform="translate(248.112345 231.061168)scale(0.1 -0.1)">
     <use xlink:href="#DejaVuSans-50"/>
     <use x="63.623047" xlink:href="#DejaVuSans-48"/>
     <use x="127.246094" xlink:href="#DejaVuSans-46"/>
     <use x="159.033203" xlink:href="#DejaVuSans-49"/>
    </g>
   </g>
   <g id="text_36">
    <!-- 19.1 -->
    <g style="fill:#a020f0;" transform="translate(252.029605 261.899123)scale(0.1 -0.1)">
     <use xlink:href="#DejaVuSans-49"/>
     <use x="63.623047" xlink:href="#DejaVuSans-57"/>
     <use x="127.246094" xlink:href="#DejaVuSans-46"/>
     <use x="159.033203" xlink:href="#DejaVuSans-49"/>
    </g>
   </g>
   <g id="text_37">
    <!-- 16.2 -->
    <g style="fill:#da70d6;" transform="translate(272.863725 282.427898)scale(0.1 -0.1)">
     <use xlink:href="#DejaVuSans-49"/>
     <use x="63.623047" xlink:href="#DejaVuSans-54"/>
     <use x="127.246094" xlink:href="#DejaVuSans-46"/>
     <use x="159.033203" xlink:href="#DejaVuSans-50"/>
    </g>
   </g>
   <g id="text_38">
    <!-- 15.1 -->
    <g style="fill:#ff00ff;" transform="translate(271.771937 259.231283)scale(0.1 -0.1)">
     <use xlink:href="#DejaVuSans-49"/>
     <use x="63.623047" xlink:href="#DejaVuSans-53"/>
     <use x="127.246094" xlink:href="#DejaVuSans-46"/>
     <use x="159.033203" xlink:href="#DejaVuSans-49"/>
    </g>
   </g>
   <g id="text_39">
    <!-- 12.1 -->
    <g style="fill:#f0e68c;" transform="translate(301.176322 242.404463)scale(0.1 -0.1)">
     <use xlink:href="#DejaVuSans-49"/>
     <use x="63.623047" xlink:href="#DejaVuSans-50"/>
     <use x="127.246094" xlink:href="#DejaVuSans-46"/>
     <use x="159.033203" xlink:href="#DejaVuSans-49"/>
    </g>
   </g>
   <g id="text_40">
    <!-- 8.2 -->
    <g style="fill:#fa8072;" transform="translate(255.324759 256.09795)scale(0.1 -0.1)">
     <use xlink:href="#DejaVuSans-56"/>
     <use x="63.623047" xlink:href="#DejaVuSans-46"/>
     <use x="95.410156" xlink:href="#DejaVuSans-50"/>
    </g>
   </g>
   <g id="text_41">
    <!-- 8.1 -->
    <g style="fill:#ffff54;" transform="translate(259.770674 431.55075)scale(0.1 -0.1)">
     <use xlink:href="#DejaVuSans-56"/>
     <use x="63.623047" xlink:href="#DejaVuSans-46"/>
     <use x="95.410156" xlink:href="#DejaVuSans-49"/>
    </g>
   </g>
   <g id="text_42">
    <!-- 7.1 -->
    <g style="fill:#6495ed;" transform="translate(285.970572 381.511446)scale(0.1 -0.1)">
     <use xlink:href="#DejaVuSans-55"/>
     <use x="63.623047" xlink:href="#DejaVuSans-46"/>
     <use x="95.410156" xlink:href="#DejaVuSans-49"/>
    </g>
   </g>
   <g id="text_43">
    <!-- 4.1 -->
    <g style="fill:#90ee90;" transform="translate(243.257458 279.945907)scale(0.1 -0.1)">
     <use xlink:href="#DejaVuSans-52"/>
     <use x="63.623047" xlink:href="#DejaVuSans-46"/>
     <use x="95.410156" xlink:href="#DejaVuSans-49"/>
    </g>
   </g>
   <g id="text_44">
    <!-- 0.1 -->
    <g style="fill:#afeeee;" transform="translate(260.404898 240.440592)scale(0.1 -0.1)">
     <use xlink:href="#DejaVuSans-48"/>
     <use x="63.623047" xlink:href="#DejaVuSans-46"/>
     <use x="95.410156" xlink:href="#DejaVuSans-49"/>
    </g>
   </g>
  </g>
 </g>
 <defs>
  <clipPath id="p27f2a482c8">
   <rect height="498.96" width="390.6" x="63" y="77.76"/>
  </clipPath>
 </defs>
</svg>
