<?xml version="1.0" encoding="utf-8" standalone="no"?>
<!DOCTYPE svg PUBLIC "-//W3C//DTD SVG 1.1//EN"
  "http://www.w3.org/Graphics/SVG/1.1/DTD/svg11.dtd">
<!-- Created with matplotlib (https://matplotlib.org/) -->
<svg height="648pt" version="1.1" viewBox="0 0 504 648" width="504pt" xmlns="http://www.w3.org/2000/svg" xmlns:xlink="http://www.w3.org/1999/xlink">
 <metadata>
  <rdf:RDF xmlns:cc="http://creativecommons.org/ns#" xmlns:dc="http://purl.org/dc/elements/1.1/" xmlns:rdf="http://www.w3.org/1999/02/22-rdf-syntax-ns#">
   <cc:Work>
    <dc:type rdf:resource="http://purl.org/dc/dcmitype/StillImage"/>
    <dc:date>2023-06-14T23:52:25.339417</dc:date>
    <dc:format>image/svg+xml</dc:format>
    <dc:creator>
     <cc:Agent>
      <dc:title>Matplotlib v3.3.4, https://matplotlib.org/</dc:title>
     </cc:Agent>
    </dc:creator>
   </cc:Work>
  </rdf:RDF>
 </metadata>
 <defs>
  <style type="text/css">*{stroke-linecap:butt;stroke-linejoin:round;}</style>
 </defs>
 <g id="figure_1">
  <g id="patch_1">
   <path d="M 0 648 
L 504 648 
L 504 0 
L 0 0 
z
" style="fill:#ffffff;"/>
  </g>
  <g id="axes_1">
   <g id="patch_2">
    <path d="M 63 576.72 
L 453.6 576.72 
L 453.6 77.76 
L 63 77.76 
z
" style="fill:#ffffff;"/>
   </g>
   <g id="PathCollection_1">
    <path clip-path="url(#p8d7520d868)" d="M 228.123807 -649.594395 
C 229.999076 -649.594395 231.797792 -650.339447 233.123807 -651.665462 
C 234.449823 -652.991478 235.194875 -654.790193 235.194875 -656.665462 
C 235.194875 -658.540732 234.449823 -660.339447 233.123807 -661.665462 
C 231.797792 -662.991478 229.999076 -663.73653 228.123807 -663.73653 
C 226.248538 -663.73653 224.449823 -662.991478 223.123807 -661.665462 
C 221.797792 -660.339447 221.052739 -658.540732 221.052739 -656.665462 
C 221.052739 -654.790193 221.797792 -652.991478 223.123807 -651.665462 
C 224.449823 -650.339447 226.248538 -649.594395 228.123807 -649.594395 
z
" style="fill:#2f4f4f;stroke:#2f4f4f;"/>
    <path clip-path="url(#p8d7520d868)" d="M 282.346507 402.650475 
C 284.643234 402.650475 286.846201 401.737976 288.470232 400.113945 
C 290.094262 398.489915 291.006761 396.286947 291.006761 393.990221 
C 291.006761 391.693495 290.094262 389.490527 288.470232 387.866496 
C 286.846201 386.242466 284.643234 385.329967 282.346507 385.329967 
C 280.049781 385.329967 277.846814 386.242466 276.222783 387.866496 
C 274.598752 389.490527 273.686253 391.693495 273.686253 393.990221 
C 273.686253 396.286947 274.598752 398.489915 276.222783 400.113945 
C 277.846814 401.737976 280.049781 402.650475 282.346507 402.650475 
z
" style="fill:#556b2f;stroke:#556b2f;"/>
    <path clip-path="url(#p8d7520d868)" d="M 275.410008 370.780615 
C 279.041451 370.780615 282.524649 369.337827 285.092467 366.770009 
C 287.660285 364.202191 289.103072 360.718994 289.103072 357.087551 
C 289.103072 353.456108 287.660285 349.97291 285.092467 347.405092 
C 282.524649 344.837274 279.041451 343.394487 275.410008 343.394487 
C 271.778565 343.394487 268.295368 344.837274 265.72755 347.405092 
C 263.159732 349.97291 261.716944 353.456108 261.716944 357.087551 
C 261.716944 360.718994 263.159732 364.202191 265.72755 366.770009 
C 268.295368 369.337827 271.778565 370.780615 275.410008 370.780615 
z
" style="fill:#8b4513;stroke:#8b4513;"/>
    <path clip-path="url(#p8d7520d868)" d="M 278.132833 275.446306 
C 280.945737 275.446306 283.64381 274.328727 285.632833 272.339704 
C 287.621856 270.350681 288.739435 267.652608 288.739435 264.839704 
C 288.739435 262.0268 287.621856 259.328727 285.632833 257.339704 
C 283.64381 255.350681 280.945737 254.233102 278.132833 254.233102 
C 275.31993 254.233102 272.621856 255.350681 270.632833 257.339704 
C 268.64381 259.328727 267.526232 262.0268 267.526232 264.839704 
C 267.526232 267.652608 268.64381 270.350681 270.632833 272.339704 
C 272.621856 274.328727 275.31993 275.446306 278.132833 275.446306 
z
" style="fill:#2e8b57;stroke:#2e8b57;"/>
    <path clip-path="url(#p8d7520d868)" d="M 277.392258 325.910201 
C 280.044289 325.910201 282.588057 324.856537 284.463326 322.981268 
C 286.338595 321.105999 287.392258 318.562232 287.392258 315.910201 
C 287.392258 313.25817 286.338595 310.714402 284.463326 308.839133 
C 282.588057 306.963864 280.044289 305.910201 277.392258 305.910201 
C 274.740227 305.910201 272.19646 306.963864 270.32119 308.839133 
C 268.445921 310.714402 267.392258 313.25817 267.392258 315.910201 
C 267.392258 318.562232 268.445921 321.105999 270.32119 322.981268 
C 272.19646 324.856537 274.740227 325.910201 277.392258 325.910201 
z
" style="fill:#228b22;stroke:#228b22;"/>
    <path clip-path="url(#p8d7520d868)" d="M 240.171263 382.418369 
C 243.551952 382.418369 246.794633 381.075207 249.185141 378.684699 
C 251.57565 376.29419 252.918812 373.05151 252.918812 369.670821 
C 252.918812 366.290131 251.57565 363.047451 249.185141 360.656942 
C 246.794633 358.266434 243.551952 356.923272 240.171263 356.923272 
C 236.790574 356.923272 233.547893 358.266434 231.157385 360.656942 
C 228.766876 363.047451 227.423714 366.290131 227.423714 369.670821 
C 227.423714 373.05151 228.766876 376.29419 231.157385 378.684699 
C 233.547893 381.075207 236.790574 382.418369 240.171263 382.418369 
z
" style="fill:#708090;stroke:#708090;"/>
    <path clip-path="url(#p8d7520d868)" d="M 264.521211 332.462972 
C 267.001959 332.462972 269.381436 331.477361 271.13559 329.723207 
C 272.889743 327.969053 273.875355 325.589577 273.875355 323.108829 
C 273.875355 320.628081 272.889743 318.248604 271.13559 316.494451 
C 269.381436 314.740297 267.001959 313.754685 264.521211 313.754685 
C 262.040464 313.754685 259.660987 314.740297 257.906833 316.494451 
C 256.15268 318.248604 255.167068 320.628081 255.167068 323.108829 
C 255.167068 325.589577 256.15268 327.969053 257.906833 329.723207 
C 259.660987 331.477361 262.040464 332.462972 264.521211 332.462972 
z
" style="fill:#8b0000;stroke:#8b0000;"/>
    <path clip-path="url(#p8d7520d868)" d="M 260.721701 291.374281 
C 262.818316 291.374281 264.829341 290.541287 266.311871 289.058757 
C 267.794401 287.576227 268.627395 285.565202 268.627395 283.468587 
C 268.627395 281.371972 267.794401 279.360947 266.311871 277.878417 
C 264.829341 276.395887 262.818316 275.562893 260.721701 275.562893 
C 258.625086 275.562893 256.614062 276.395887 255.131531 277.878417 
C 253.649001 279.360947 252.816007 281.371972 252.816007 283.468587 
C 252.816007 285.565202 253.649001 287.576227 255.131531 289.058757 
C 256.614062 290.541287 258.625086 291.374281 260.721701 291.374281 
z
" style="fill:#808000;stroke:#808000;"/>
    <path clip-path="url(#p8d7520d868)" d="M 266.109503 302.240303 
C 268.761534 302.240303 271.305301 301.18664 273.18057 299.311371 
C 275.05584 297.436102 276.109503 294.892334 276.109503 292.240303 
C 276.109503 289.588272 275.05584 287.044505 273.18057 285.169236 
C 271.305301 283.293966 268.761534 282.240303 266.109503 282.240303 
C 263.457472 282.240303 260.913704 283.293966 259.038435 285.169236 
C 257.163166 287.044505 256.109503 289.588272 256.109503 292.240303 
C 256.109503 294.892334 257.163166 297.436102 259.038435 299.311371 
C 260.913704 301.18664 263.457472 302.240303 266.109503 302.240303 
z
" style="fill:#483d8b;stroke:#483d8b;"/>
    <path clip-path="url(#p8d7520d868)" d="M 236.289328 288.435398 
C 240.267374 288.435398 244.083026 286.854904 246.89593 284.042 
C 249.708833 281.229096 251.289328 277.413445 251.289328 273.435398 
C 251.289328 269.457352 249.708833 265.6417 246.89593 262.828797 
C 244.083026 260.015893 240.267374 258.435398 236.289328 258.435398 
C 232.311281 258.435398 228.49563 260.015893 225.682726 262.828797 
C 222.869822 265.6417 221.289328 269.457352 221.289328 273.435398 
C 221.289328 277.413445 222.869822 281.229096 225.682726 284.042 
C 228.49563 286.854904 232.311281 288.435398 236.289328 288.435398 
z
" style="fill:#008080;stroke:#008080;"/>
    <path clip-path="url(#p8d7520d868)" d="M 224.289999 303.569772 
C 226.386613 303.569772 228.397638 302.736778 229.880169 301.254247 
C 231.362699 299.771717 232.195693 297.760692 232.195693 295.664077 
C 232.195693 293.567463 231.362699 291.556438 229.880169 290.073907 
C 228.397638 288.591377 226.386613 287.758383 224.289999 287.758383 
C 222.193384 287.758383 220.182359 288.591377 218.699829 290.073907 
C 217.217298 291.556438 216.384304 293.567463 216.384304 295.664077 
C 216.384304 297.760692 217.217298 299.771717 218.699829 301.254247 
C 220.182359 302.736778 222.193384 303.569772 224.289999 303.569772 
z
" style="fill:#b8860b;stroke:#b8860b;"/>
    <path clip-path="url(#p8d7520d868)" d="M 284.90902 225.898028 
C 288.018802 225.898028 291.001634 224.662498 293.200582 222.46355 
C 295.39953 220.264602 296.63506 217.28177 296.63506 214.171988 
C 296.63506 211.062206 295.39953 208.079374 293.200582 205.880426 
C 291.001634 203.681478 288.018802 202.445949 284.90902 202.445949 
C 281.799238 202.445949 278.816406 203.681478 276.617458 205.880426 
C 274.418511 208.079374 273.182981 211.062206 273.182981 214.171988 
C 273.182981 217.28177 274.418511 220.264602 276.617458 222.46355 
C 278.816406 224.662498 281.799238 225.898028 284.90902 225.898028 
z
" style="fill:#4682b4;stroke:#4682b4;"/>
    <path clip-path="url(#p8d7520d868)" d="M 279.726434 275.845758 
C 282.539338 275.845758 285.237411 274.728179 287.226434 272.739156 
C 289.215458 270.750133 290.333036 268.05206 290.333036 265.239156 
C 290.333036 262.426253 289.215458 259.728179 287.226434 257.739156 
C 285.237411 255.750133 282.539338 254.632555 279.726434 254.632555 
C 276.913531 254.632555 274.215458 255.750133 272.226434 257.739156 
C 270.237411 259.728179 269.119833 262.426253 269.119833 265.239156 
C 269.119833 268.05206 270.237411 270.750133 272.226434 272.739156 
C 274.215458 274.728179 276.913531 275.845758 279.726434 275.845758 
z
" style="fill:#d2691e;stroke:#d2691e;"/>
    <path clip-path="url(#p8d7520d868)" d="M 273.773857 366.478759 
C 276.070583 366.478759 278.273551 365.56626 279.897581 363.942229 
C 281.521612 362.318199 282.434111 360.115231 282.434111 357.818505 
C 282.434111 355.521779 281.521612 353.318811 279.897581 351.69478 
C 278.273551 350.07075 276.070583 349.158251 273.773857 349.158251 
C 271.477131 349.158251 269.274163 350.07075 267.650132 351.69478 
C 266.026102 353.318811 265.113603 355.521779 265.113603 357.818505 
C 265.113603 360.115231 266.026102 362.318199 267.650132 363.942229 
C 269.274163 365.56626 271.477131 366.478759 273.773857 366.478759 
z
" style="fill:#9acd32;stroke:#9acd32;"/>
    <path clip-path="url(#p8d7520d868)" d="M 257.087071 300.396212 
C 260.953038 300.396212 264.661184 298.860247 267.394835 296.126596 
C 270.128486 293.392945 271.664451 289.684799 271.664451 285.818832 
C 271.664451 281.952866 270.128486 278.244719 267.394835 275.511068 
C 264.661184 272.777417 260.953038 271.241453 257.087071 271.241453 
C 253.221105 271.241453 249.512958 272.777417 246.779307 275.511068 
C 244.045656 278.244719 242.509692 281.952866 242.509692 285.818832 
C 242.509692 289.684799 244.045656 293.392945 246.779307 296.126596 
C 249.512958 298.860247 253.221105 300.396212 257.087071 300.396212 
z
" style="fill:#32cd32;stroke:#32cd32;"/>
    <path clip-path="url(#p8d7520d868)" d="M 293.34611 360.373637 
C 296.455892 360.373637 299.438724 359.138107 301.637672 356.939159 
C 303.83662 354.740211 305.07215 351.757379 305.07215 348.647597 
C 305.07215 345.537815 303.83662 342.554983 301.637672 340.356035 
C 299.438724 338.157087 296.455892 336.921558 293.34611 336.921558 
C 290.236328 336.921558 287.253496 338.157087 285.054548 340.356035 
C 282.8556 342.554983 281.620071 345.537815 281.620071 348.647597 
C 281.620071 351.757379 282.8556 354.740211 285.054548 356.939159 
C 287.253496 359.138107 290.236328 360.373637 293.34611 360.373637 
z
" style="fill:#8fbc8f;stroke:#8fbc8f;"/>
    <path clip-path="url(#p8d7520d868)" d="M 235.542706 313.48487 
C 237.839432 313.48487 240.0424 312.572371 241.66643 310.94834 
C 243.290461 309.324309 244.20296 307.121342 244.20296 304.824615 
C 244.20296 302.527889 243.290461 300.324922 241.66643 298.700891 
C 240.0424 297.07686 237.839432 296.164361 235.542706 296.164361 
C 233.24598 296.164361 231.043012 297.07686 229.418982 298.700891 
C 227.794951 300.324922 226.882452 302.527889 226.882452 304.824615 
C 226.882452 307.121342 227.794951 309.324309 229.418982 310.94834 
C 231.043012 312.572371 233.24598 313.48487 235.542706 313.48487 
z
" style="fill:#800080;stroke:#800080;"/>
    <path clip-path="url(#p8d7520d868)" d="M 263.232735 397.037915 
C 265.108004 397.037915 266.906719 396.292863 268.232735 394.966848 
C 269.55875 393.640832 270.303803 391.842117 270.303803 389.966848 
C 270.303803 388.091579 269.55875 386.292863 268.232735 384.966848 
C 266.906719 383.640832 265.108004 382.89578 263.232735 382.89578 
C 261.357466 382.89578 259.55875 383.640832 258.232735 384.966848 
C 256.906719 386.292863 256.161667 388.091579 256.161667 389.966848 
C 256.161667 391.842117 256.906719 393.640832 258.232735 394.966848 
C 259.55875 396.292863 261.357466 397.037915 263.232735 397.037915 
z
" style="fill:#b03060;stroke:#b03060;"/>
    <path clip-path="url(#p8d7520d868)" d="M 264.823588 273.056644 
C 268.071649 273.056644 271.187116 271.766176 273.483842 269.469449 
C 275.780568 267.172723 277.071037 264.057257 277.071037 260.809195 
C 277.071037 257.561134 275.780568 254.445667 273.483842 252.148941 
C 271.187116 249.852215 268.071649 248.561747 264.823588 248.561747 
C 261.575527 248.561747 258.46006 249.852215 256.163334 252.148941 
C 253.866608 254.445667 252.576139 257.561134 252.576139 260.809195 
C 252.576139 264.057257 253.866608 267.172723 256.163334 269.469449 
C 258.46006 271.766176 261.575527 273.056644 264.823588 273.056644 
z
" style="fill:#9932cc;stroke:#9932cc;"/>
    <path clip-path="url(#p8d7520d868)" d="M 276.104485 320.01861 
C 278.2011 320.01861 280.212125 319.185616 281.694655 317.703086 
C 283.177186 316.220556 284.010179 314.209531 284.010179 312.112916 
C 284.010179 310.016301 283.177186 308.005276 281.694655 306.522746 
C 280.212125 305.040216 278.2011 304.207222 276.104485 304.207222 
C 274.007871 304.207222 271.996846 305.040216 270.514315 306.522746 
C 269.031785 308.005276 268.198791 310.016301 268.198791 312.112916 
C 268.198791 314.209531 269.031785 316.220556 270.514315 317.703086 
C 271.996846 319.185616 274.007871 320.01861 276.104485 320.01861 
z
" style="fill:#ff4500;stroke:#ff4500;"/>
    <path clip-path="url(#p8d7520d868)" d="M 233.122679 322.803739 
C 234.746709 322.803739 236.304443 322.158504 237.452806 321.010141 
C 238.601169 319.861778 239.246403 318.304045 239.246403 316.680014 
C 239.246403 315.055983 238.601169 313.49825 237.452806 312.349887 
C 236.304443 311.201524 234.746709 310.55629 233.122679 310.55629 
C 231.498648 310.55629 229.940915 311.201524 228.792552 312.349887 
C 227.644189 313.49825 226.998954 315.055983 226.998954 316.680014 
C 226.998954 318.304045 227.644189 319.861778 228.792552 321.010141 
C 229.940915 322.158504 231.498648 322.803739 233.122679 322.803739 
z
" style="fill:#00ced1;stroke:#00ced1;"/>
    <path clip-path="url(#p8d7520d868)" d="M 256.833546 420.484812 
C 259.485577 420.484812 262.029345 419.431149 263.904614 417.55588 
C 265.779883 415.680611 266.833546 413.136843 266.833546 410.484812 
C 266.833546 407.832781 265.779883 405.289013 263.904614 403.413744 
C 262.029345 401.538475 259.485577 400.484812 256.833546 400.484812 
C 254.181515 400.484812 251.637748 401.538475 249.762479 403.413744 
C 247.887209 405.289013 246.833546 407.832781 246.833546 410.484812 
C 246.833546 413.136843 247.887209 415.680611 249.762479 417.55588 
C 251.637748 419.431149 254.181515 420.484812 256.833546 420.484812 
z
" style="fill:#ff8c00;stroke:#ff8c00;"/>
    <path clip-path="url(#p8d7520d868)" d="M 253.790706 334.091433 
C 256.087432 334.091433 258.2904 333.178934 259.91443 331.554903 
C 261.538461 329.930873 262.45096 327.727905 262.45096 325.431179 
C 262.45096 323.134453 261.538461 320.931485 259.91443 319.307455 
C 258.2904 317.683424 256.087432 316.770925 253.790706 316.770925 
C 251.49398 316.770925 249.291012 317.683424 247.666982 319.307455 
C 246.042951 320.931485 245.130452 323.134453 245.130452 325.431179 
C 245.130452 327.727905 246.042951 329.930873 247.666982 331.554903 
C 249.291012 333.178934 251.49398 334.091433 253.790706 334.091433 
z
" style="fill:#ffd700;stroke:#ffd700;"/>
    <path clip-path="url(#p8d7520d868)" d="M 275.153796 269.190197 
C 277.805827 269.190197 280.349594 268.136534 282.224863 266.261265 
C 284.100133 264.385995 285.153796 261.842228 285.153796 259.190197 
C 285.153796 256.538166 284.100133 253.994398 282.224863 252.119129 
C 280.349594 250.24386 277.805827 249.190197 275.153796 249.190197 
C 272.501765 249.190197 269.957997 250.24386 268.082728 252.119129 
C 266.207459 253.994398 265.153796 256.538166 265.153796 259.190197 
C 265.153796 261.842228 266.207459 264.385995 268.082728 266.261265 
C 269.957997 268.136534 272.501765 269.190197 275.153796 269.190197 
z
" style="fill:#0000cd;stroke:#0000cd;"/>
    <path clip-path="url(#p8d7520d868)" d="M 274.69812 341.940734 
C 276.994847 341.940734 279.197814 341.028235 280.821845 339.404204 
C 282.445875 337.780174 283.358374 335.577206 283.358374 333.28048 
C 283.358374 330.983754 282.445875 328.780786 280.821845 327.156756 
C 279.197814 325.532725 276.994847 324.620226 274.69812 324.620226 
C 272.401394 324.620226 270.198427 325.532725 268.574396 327.156756 
C 266.950365 328.780786 266.037866 330.983754 266.037866 333.28048 
C 266.037866 335.577206 266.950365 337.780174 268.574396 339.404204 
C 270.198427 341.028235 272.401394 341.940734 274.69812 341.940734 
z
" style="fill:#deb887;stroke:#deb887;"/>
    <path clip-path="url(#p8d7520d868)" d="M 261.574674 253.173647 
C 263.8714 253.173647 266.074368 252.261148 267.698398 250.637117 
C 269.322429 249.013086 270.234928 246.810119 270.234928 244.513393 
C 270.234928 242.216666 269.322429 240.013699 267.698398 238.389668 
C 266.074368 236.765638 263.8714 235.853139 261.574674 235.853139 
C 259.277948 235.853139 257.07498 236.765638 255.45095 238.389668 
C 253.826919 240.013699 252.91442 242.216666 252.91442 244.513393 
C 252.91442 246.810119 253.826919 249.013086 255.45095 250.637117 
C 257.07498 252.261148 259.277948 253.173647 261.574674 253.173647 
z
" style="fill:#00ff00;stroke:#00ff00;"/>
    <path clip-path="url(#p8d7520d868)" d="M 258.65188 331.558328 
C 260.275911 331.558328 261.833644 330.913093 262.982007 329.76473 
C 264.130371 328.616367 264.775605 327.058634 264.775605 325.434603 
C 264.775605 323.810573 264.130371 322.252839 262.982007 321.104476 
C 261.833644 319.956113 260.275911 319.310879 258.65188 319.310879 
C 257.02785 319.310879 255.470117 319.956113 254.321753 321.104476 
C 253.17339 322.252839 252.528156 323.810573 252.528156 325.434603 
C 252.528156 327.058634 253.17339 328.616367 254.321753 329.76473 
C 255.470117 330.913093 257.02785 331.558328 258.65188 331.558328 
z
" style="fill:#00fa9a;stroke:#00fa9a;"/>
    <path clip-path="url(#p8d7520d868)" d="M 259.082101 319.173786 
C 260.95737 319.173786 262.756086 318.428734 264.082101 317.102718 
C 265.408117 315.776703 266.153169 313.977987 266.153169 312.102718 
C 266.153169 310.227449 265.408117 308.428734 264.082101 307.102718 
C 262.756086 305.776703 260.95737 305.03165 259.082101 305.03165 
C 257.206832 305.03165 255.408117 305.776703 254.082101 307.102718 
C 252.756086 308.428734 252.011033 310.227449 252.011033 312.102718 
C 252.011033 313.977987 252.756086 315.776703 254.082101 317.102718 
C 255.408117 318.428734 257.206832 319.173786 259.082101 319.173786 
z
" style="fill:#dc143c;stroke:#dc143c;"/>
    <path clip-path="url(#p8d7520d868)" d="M 290.808408 273.995709 
C 292.905023 273.995709 294.916048 273.162715 296.398578 271.680185 
C 297.881108 270.197654 298.714102 268.186629 298.714102 266.090015 
C 298.714102 263.9934 297.881108 261.982375 296.398578 260.499845 
C 294.916048 259.017314 292.905023 258.184321 290.808408 258.184321 
C 288.711794 258.184321 286.700769 259.017314 285.218238 260.499845 
C 283.735708 261.982375 282.902714 263.9934 282.902714 266.090015 
C 282.902714 268.186629 283.735708 270.197654 285.218238 271.680185 
C 286.700769 273.162715 288.711794 273.995709 290.808408 273.995709 
z
" style="fill:#00bfff;stroke:#00bfff;"/>
    <path clip-path="url(#p8d7520d868)" d="M 253.243726 364.96227 
C 255.34034 364.96227 257.351365 364.129276 258.833896 362.646745 
C 260.316426 361.164215 261.14942 359.15319 261.14942 357.056575 
C 261.14942 354.959961 260.316426 352.948936 258.833896 351.466405 
C 257.351365 349.983875 255.34034 349.150881 253.243726 349.150881 
C 251.147111 349.150881 249.136086 349.983875 247.653556 351.466405 
C 246.171025 352.948936 245.338032 354.959961 245.338032 357.056575 
C 245.338032 359.15319 246.171025 361.164215 247.653556 362.646745 
C 249.136086 364.129276 251.147111 364.96227 253.243726 364.96227 
z
" style="fill:#f4a460;stroke:#f4a460;"/>
    <path clip-path="url(#p8d7520d868)" d="M 228.46204 263.223725 
C 230.558655 263.223725 232.56968 262.390731 234.05221 260.9082 
C 235.534741 259.42567 236.367734 257.414645 236.367734 255.31803 
C 236.367734 253.221416 235.534741 251.210391 234.05221 249.72786 
C 232.56968 248.24533 230.558655 247.412336 228.46204 247.412336 
C 226.365426 247.412336 224.354401 248.24533 222.87187 249.72786 
C 221.38934 251.210391 220.556346 253.221416 220.556346 255.31803 
C 220.556346 257.414645 221.38934 259.42567 222.87187 260.9082 
C 224.354401 262.390731 226.365426 263.223725 228.46204 263.223725 
z
" style="fill:#0000ff;stroke:#0000ff;"/>
    <path clip-path="url(#p8d7520d868)" d="M 229.397304 354.315353 
C 231.021334 354.315353 232.579068 353.670119 233.727431 352.521756 
C 234.875794 351.373393 235.521028 349.815659 235.521028 348.191629 
C 235.521028 346.567598 234.875794 345.009865 233.727431 343.861502 
C 232.579068 342.713138 231.021334 342.067904 229.397304 342.067904 
C 227.773273 342.067904 226.21554 342.713138 225.067177 343.861502 
C 223.918814 345.009865 223.273579 346.567598 223.273579 348.191629 
C 223.273579 349.815659 223.918814 351.373393 225.067177 352.521756 
C 226.21554 353.670119 227.773273 354.315353 229.397304 354.315353 
z
" style="fill:#a020f0;stroke:#a020f0;"/>
    <path clip-path="url(#p8d7520d868)" d="M 266.651877 290.749639 
C 268.948603 290.749639 271.15157 289.83714 272.775601 288.213109 
C 274.399632 286.589078 275.312131 284.386111 275.312131 282.089385 
C 275.312131 279.792659 274.399632 277.589691 272.775601 275.96566 
C 271.15157 274.34163 268.948603 273.429131 266.651877 273.429131 
C 264.35515 273.429131 262.152183 274.34163 260.528152 275.96566 
C 258.904122 277.589691 257.991623 279.792659 257.991623 282.089385 
C 257.991623 284.386111 258.904122 286.589078 260.528152 288.213109 
C 262.152183 289.83714 264.35515 290.749639 266.651877 290.749639 
z
" style="fill:#adff2f;stroke:#adff2f;"/>
    <path clip-path="url(#p8d7520d868)" d="M 240.024011 308.801788 
C 241.648041 308.801788 243.205775 308.156554 244.354138 307.008191 
C 245.502501 305.859828 246.147735 304.302095 246.147735 302.678064 
C 246.147735 301.054033 245.502501 299.4963 244.354138 298.347937 
C 243.205775 297.199574 241.648041 296.55434 240.024011 296.55434 
C 238.39998 296.55434 236.842247 297.199574 235.693884 298.347937 
C 234.545521 299.4963 233.900286 301.054033 233.900286 302.678064 
C 233.900286 304.302095 234.545521 305.859828 235.693884 307.008191 
C 236.842247 308.156554 238.39998 308.801788 240.024011 308.801788 
z
" style="fill:#ff6347;stroke:#ff6347;"/>
    <path clip-path="url(#p8d7520d868)" d="M 240.462683 273.596921 
C 242.559297 273.596921 244.570322 272.763927 246.052853 271.281397 
C 247.535383 269.798866 248.368377 267.787841 248.368377 265.691227 
C 248.368377 263.594612 247.535383 261.583587 246.052853 260.101057 
C 244.570322 258.618526 242.559297 257.785532 240.462683 257.785532 
C 238.366068 257.785532 236.355043 258.618526 234.872513 260.101057 
C 233.389982 261.583587 232.556988 263.594612 232.556988 265.691227 
C 232.556988 267.787841 233.389982 269.798866 234.872513 271.281397 
C 236.355043 272.763927 238.366068 273.596921 240.462683 273.596921 
z
" style="fill:#da70d6;stroke:#da70d6;"/>
    <path clip-path="url(#p8d7520d868)" d="M 240.33139 341.948921 
C 242.206659 341.948921 244.005374 341.203869 245.33139 339.877853 
C 246.657405 338.551838 247.402458 336.753122 247.402458 334.877853 
C 247.402458 333.002584 246.657405 331.203869 245.33139 329.877853 
C 244.005374 328.551838 242.206659 327.806785 240.33139 327.806785 
C 238.456121 327.806785 236.657405 328.551838 235.33139 329.877853 
C 234.005374 331.203869 233.260322 333.002584 233.260322 334.877853 
C 233.260322 336.753122 234.005374 338.551838 235.33139 339.877853 
C 236.657405 341.203869 238.456121 341.948921 240.33139 341.948921 
z
" style="fill:#b0c4de;stroke:#b0c4de;"/>
    <path clip-path="url(#p8d7520d868)" d="M 255.5373 289.940159 
C 258.018048 289.940159 260.397525 288.954547 262.151678 287.200394 
C 263.905832 285.44624 264.891444 283.066763 264.891444 280.586015 
C 264.891444 278.105268 263.905832 275.725791 262.151678 273.971637 
C 260.397525 272.217484 258.018048 271.231872 255.5373 271.231872 
C 253.056552 271.231872 250.677075 272.217484 248.922922 273.971637 
C 247.168768 275.725791 246.183157 278.105268 246.183157 280.586015 
C 246.183157 283.066763 247.168768 285.44624 248.922922 287.200394 
C 250.677075 288.954547 253.056552 289.940159 255.5373 289.940159 
z
" style="fill:#ff00ff;stroke:#ff00ff;"/>
    <path clip-path="url(#p8d7520d868)" d="M 255.968985 345.01078 
C 258.065599 345.01078 260.076624 344.177787 261.559155 342.695256 
C 263.041685 341.212726 263.874679 339.201701 263.874679 337.105086 
C 263.874679 335.008472 263.041685 332.997447 261.559155 331.514916 
C 260.076624 330.032386 258.065599 329.199392 255.968985 329.199392 
C 253.87237 329.199392 251.861345 330.032386 250.378815 331.514916 
C 248.896284 332.997447 248.063291 335.008472 248.063291 337.105086 
C 248.063291 339.201701 248.896284 341.212726 250.378815 342.695256 
C 251.861345 344.177787 253.87237 345.01078 255.968985 345.01078 
z
" style="fill:#f0e68c;stroke:#f0e68c;"/>
    <path clip-path="url(#p8d7520d868)" d="M 263.876728 317.475407 
C 266.528759 317.475407 269.072527 316.421743 270.947796 314.546474 
C 272.823065 312.671205 273.876728 310.127438 273.876728 307.475407 
C 273.876728 304.823376 272.823065 302.279608 270.947796 300.404339 
C 269.072527 298.52907 266.528759 297.475407 263.876728 297.475407 
C 261.224697 297.475407 258.680929 298.52907 256.80566 300.404339 
C 254.930391 302.279608 253.876728 304.823376 253.876728 307.475407 
C 253.876728 310.127438 254.930391 312.671205 256.80566 314.546474 
C 258.680929 316.421743 261.224697 317.475407 263.876728 317.475407 
z
" style="fill:#fa8072;stroke:#fa8072;"/>
    <path clip-path="url(#p8d7520d868)" d="M 276.144581 286.040488 
C 277.768612 286.040488 279.326345 285.395254 280.474708 284.246891 
C 281.623071 283.098528 282.268305 281.540795 282.268305 279.916764 
C 282.268305 278.292733 281.623071 276.735 280.474708 275.586637 
C 279.326345 274.438274 277.768612 273.793039 276.144581 273.793039 
C 274.52055 273.793039 272.962817 274.438274 271.814454 275.586637 
C 270.666091 276.735 270.020857 278.292733 270.020857 279.916764 
C 270.020857 281.540795 270.666091 283.098528 271.814454 284.246891 
C 272.962817 285.395254 274.52055 286.040488 276.144581 286.040488 
z
" style="fill:#ffff54;stroke:#ffff54;"/>
    <path clip-path="url(#p8d7520d868)" d="M 266.000808 296.390963 
C 268.813711 296.390963 271.511784 295.273384 273.500808 293.284361 
C 275.489831 291.295338 276.607409 288.597265 276.607409 285.784361 
C 276.607409 282.971457 275.489831 280.273384 273.500808 278.284361 
C 271.511784 276.295338 268.813711 275.177759 266.000808 275.177759 
C 263.187904 275.177759 260.489831 276.295338 258.500808 278.284361 
C 256.511784 280.273384 255.394206 282.971457 255.394206 285.784361 
C 255.394206 288.597265 256.511784 291.295338 258.500808 293.284361 
C 260.489831 295.273384 263.187904 296.390963 266.000808 296.390963 
z
" style="fill:#6495ed;stroke:#6495ed;"/>
    <path clip-path="url(#p8d7520d868)" d="M 259.956235 322.103556 
C 261.580266 322.103556 263.137999 321.458322 264.286362 320.309959 
C 265.434725 319.161596 266.07996 317.603862 266.07996 315.979832 
C 266.07996 314.355801 265.434725 312.798068 264.286362 311.649705 
C 263.137999 310.501342 261.580266 309.856107 259.956235 309.856107 
C 258.332205 309.856107 256.774471 310.501342 255.626108 311.649705 
C 254.477745 312.798068 253.832511 314.355801 253.832511 315.979832 
C 253.832511 317.603862 254.477745 319.161596 255.626108 320.309959 
C 256.774471 321.458322 258.332205 322.103556 259.956235 322.103556 
z
" style="fill:#dda0dd;stroke:#dda0dd;"/>
    <path clip-path="url(#p8d7520d868)" d="M 240.409751 355.263608 
C 242.28502 355.263608 244.083735 354.518556 245.409751 353.19254 
C 246.735766 351.866525 247.480819 350.067809 247.480819 348.19254 
C 247.480819 346.317271 246.735766 344.518556 245.409751 343.19254 
C 244.083735 341.866525 242.28502 341.121472 240.409751 341.121472 
C 238.534482 341.121472 236.735766 341.866525 235.409751 343.19254 
C 234.083735 344.518556 233.338683 346.317271 233.338683 348.19254 
C 233.338683 350.067809 234.083735 351.866525 235.409751 353.19254 
C 236.735766 354.518556 238.534482 355.263608 240.409751 355.263608 
z
" style="fill:#90ee90;stroke:#90ee90;"/>
    <path clip-path="url(#p8d7520d868)" d="M 271.110036 324.720479 
C 274.618343 324.720479 277.983431 323.326613 280.464179 320.845865 
C 282.944927 318.365118 284.338792 315.000029 284.338792 311.491722 
C 284.338792 307.983415 282.944927 304.618326 280.464179 302.137579 
C 277.983431 299.656831 274.618343 298.262965 271.110036 298.262965 
C 267.601729 298.262965 264.23664 299.656831 261.755892 302.137579 
C 259.275145 304.618326 257.881279 307.983415 257.881279 311.491722 
C 257.881279 315.000029 259.275145 318.365118 261.755892 320.845865 
C 264.23664 323.326613 267.601729 324.720479 271.110036 324.720479 
z
" style="fill:#7b68ee;stroke:#7b68ee;"/>
    <path clip-path="url(#p8d7520d868)" d="M 255.253398 382.893549 
C 257.905429 382.893549 260.449196 381.839885 262.324465 379.964616 
C 264.199734 378.089347 265.253398 375.54558 265.253398 372.893549 
C 265.253398 370.241518 264.199734 367.69775 262.324465 365.822481 
C 260.449196 363.947212 257.905429 362.893549 255.253398 362.893549 
C 252.601367 362.893549 250.057599 363.947212 248.18233 365.822481 
C 246.307061 367.69775 245.253398 370.241518 245.253398 372.893549 
C 245.253398 375.54558 246.307061 378.089347 248.18233 379.964616 
C 250.057599 381.839885 252.601367 382.893549 255.253398 382.893549 
z
" style="fill:#afeeee;stroke:#afeeee;"/>
    <path clip-path="url(#p8d7520d868)" d="M 262.739337 314.036275 
C 264.835951 314.036275 266.846976 313.203282 268.329507 311.720751 
C 269.812037 310.238221 270.645031 308.227196 270.645031 306.130581 
C 270.645031 304.033967 269.812037 302.022942 268.329507 300.540411 
C 266.846976 299.057881 264.835951 298.224887 262.739337 298.224887 
C 260.642722 298.224887 258.631697 299.057881 257.149167 300.540411 
C 255.666637 302.022942 254.833643 304.033967 254.833643 306.130581 
C 254.833643 308.227196 255.666637 310.238221 257.149167 311.720751 
C 258.631697 313.203282 260.642722 314.036275 262.739337 314.036275 
z
" style="fill:#7fffd4;stroke:#7fffd4;"/>
    <path clip-path="url(#p8d7520d868)" d="M 276.624396 308.794963 
C 278.248426 308.794963 279.80616 308.149728 280.954523 307.001365 
C 282.102886 305.853002 282.74812 304.295269 282.74812 302.671238 
C 282.74812 301.047207 282.102886 299.489474 280.954523 298.341111 
C 279.80616 297.192748 278.248426 296.547514 276.624396 296.547514 
C 275.000365 296.547514 273.442632 297.192748 272.294269 298.341111 
C 271.145906 299.489474 270.500671 301.047207 270.500671 302.671238 
C 270.500671 304.295269 271.145906 305.853002 272.294269 307.001365 
C 273.442632 308.149728 275.000365 308.794963 276.624396 308.794963 
z
" style="fill:#ff69b4;stroke:#ff69b4;"/>
    <path clip-path="url(#p8d7520d868)" d="M 280.567335 316.253343 
C 282.442604 316.253343 284.24132 315.508291 285.567335 314.182276 
C 286.893351 312.85626 287.638403 311.057545 287.638403 309.182276 
C 287.638403 307.307006 286.893351 305.508291 285.567335 304.182276 
C 284.24132 302.85626 282.442604 302.111208 280.567335 302.111208 
C 278.692066 302.111208 276.893351 302.85626 275.567335 304.182276 
C 274.24132 305.508291 273.496267 307.307006 273.496267 309.182276 
C 273.496267 311.057545 274.24132 312.85626 275.567335 314.182276 
C 276.893351 315.508291 278.692066 316.253343 280.567335 316.253343 
z
" style="fill:#ffb6c1;stroke:#ffb6c1;"/>
   </g>
   <g id="matplotlib.axis_1">
    <g id="xtick_1">
     <g id="line2d_1">
      <defs>
       <path d="M 0 0 
L 0 3.5 
" id="mad9db77e34" style="stroke:#000000;stroke-width:0.8;"/>
      </defs>
      <g>
       <use style="stroke:#000000;stroke-width:0.8;" x="258.3" xlink:href="#mad9db77e34" y="576.72"/>
      </g>
     </g>
     <g id="text_1">
      <!-- MeanPD -->
      <g transform="translate(237.811719 591.318438)scale(0.1 -0.1)">
       <defs>
        <path d="M 9.8125 72.90625 
L 24.515625 72.90625 
L 43.109375 23.296875 
L 61.8125 72.90625 
L 76.515625 72.90625 
L 76.515625 0 
L 66.890625 0 
L 66.890625 64.015625 
L 48.09375 14.015625 
L 38.1875 14.015625 
L 19.390625 64.015625 
L 19.390625 0 
L 9.8125 0 
z
" id="DejaVuSans-77"/>
        <path d="M 56.203125 29.59375 
L 56.203125 25.203125 
L 14.890625 25.203125 
Q 15.484375 15.921875 20.484375 11.0625 
Q 25.484375 6.203125 34.421875 6.203125 
Q 39.59375 6.203125 44.453125 7.46875 
Q 49.3125 8.734375 54.109375 11.28125 
L 54.109375 2.78125 
Q 49.265625 0.734375 44.1875 -0.34375 
Q 39.109375 -1.421875 33.890625 -1.421875 
Q 20.796875 -1.421875 13.15625 6.1875 
Q 5.515625 13.8125 5.515625 26.8125 
Q 5.515625 40.234375 12.765625 48.109375 
Q 20.015625 56 32.328125 56 
Q 43.359375 56 49.78125 48.890625 
Q 56.203125 41.796875 56.203125 29.59375 
z
M 47.21875 32.234375 
Q 47.125 39.59375 43.09375 43.984375 
Q 39.0625 48.390625 32.421875 48.390625 
Q 24.90625 48.390625 20.390625 44.140625 
Q 15.875 39.890625 15.1875 32.171875 
z
" id="DejaVuSans-101"/>
        <path d="M 34.28125 27.484375 
Q 23.390625 27.484375 19.1875 25 
Q 14.984375 22.515625 14.984375 16.5 
Q 14.984375 11.71875 18.140625 8.90625 
Q 21.296875 6.109375 26.703125 6.109375 
Q 34.1875 6.109375 38.703125 11.40625 
Q 43.21875 16.703125 43.21875 25.484375 
L 43.21875 27.484375 
z
M 52.203125 31.203125 
L 52.203125 0 
L 43.21875 0 
L 43.21875 8.296875 
Q 40.140625 3.328125 35.546875 0.953125 
Q 30.953125 -1.421875 24.3125 -1.421875 
Q 15.921875 -1.421875 10.953125 3.296875 
Q 6 8.015625 6 15.921875 
Q 6 25.140625 12.171875 29.828125 
Q 18.359375 34.515625 30.609375 34.515625 
L 43.21875 34.515625 
L 43.21875 35.40625 
Q 43.21875 41.609375 39.140625 45 
Q 35.0625 48.390625 27.6875 48.390625 
Q 23 48.390625 18.546875 47.265625 
Q 14.109375 46.140625 10.015625 43.890625 
L 10.015625 52.203125 
Q 14.9375 54.109375 19.578125 55.046875 
Q 24.21875 56 28.609375 56 
Q 40.484375 56 46.34375 49.84375 
Q 52.203125 43.703125 52.203125 31.203125 
z
" id="DejaVuSans-97"/>
        <path d="M 54.890625 33.015625 
L 54.890625 0 
L 45.90625 0 
L 45.90625 32.71875 
Q 45.90625 40.484375 42.875 44.328125 
Q 39.84375 48.1875 33.796875 48.1875 
Q 26.515625 48.1875 22.3125 43.546875 
Q 18.109375 38.921875 18.109375 30.90625 
L 18.109375 0 
L 9.078125 0 
L 9.078125 54.6875 
L 18.109375 54.6875 
L 18.109375 46.1875 
Q 21.34375 51.125 25.703125 53.5625 
Q 30.078125 56 35.796875 56 
Q 45.21875 56 50.046875 50.171875 
Q 54.890625 44.34375 54.890625 33.015625 
z
" id="DejaVuSans-110"/>
        <path d="M 19.671875 64.796875 
L 19.671875 37.40625 
L 32.078125 37.40625 
Q 38.96875 37.40625 42.71875 40.96875 
Q 46.484375 44.53125 46.484375 51.125 
Q 46.484375 57.671875 42.71875 61.234375 
Q 38.96875 64.796875 32.078125 64.796875 
z
M 9.8125 72.90625 
L 32.078125 72.90625 
Q 44.34375 72.90625 50.609375 67.359375 
Q 56.890625 61.8125 56.890625 51.125 
Q 56.890625 40.328125 50.609375 34.8125 
Q 44.34375 29.296875 32.078125 29.296875 
L 19.671875 29.296875 
L 19.671875 0 
L 9.8125 0 
z
" id="DejaVuSans-80"/>
        <path d="M 19.671875 64.796875 
L 19.671875 8.109375 
L 31.59375 8.109375 
Q 46.6875 8.109375 53.6875 14.9375 
Q 60.6875 21.78125 60.6875 36.53125 
Q 60.6875 51.171875 53.6875 57.984375 
Q 46.6875 64.796875 31.59375 64.796875 
z
M 9.8125 72.90625 
L 30.078125 72.90625 
Q 51.265625 72.90625 61.171875 64.09375 
Q 71.09375 55.28125 71.09375 36.53125 
Q 71.09375 17.671875 61.125 8.828125 
Q 51.171875 0 30.078125 0 
L 9.8125 0 
z
" id="DejaVuSans-68"/>
       </defs>
       <use xlink:href="#DejaVuSans-77"/>
       <use x="86.279297" xlink:href="#DejaVuSans-101"/>
       <use x="147.802734" xlink:href="#DejaVuSans-97"/>
       <use x="209.082031" xlink:href="#DejaVuSans-110"/>
       <use x="272.460938" xlink:href="#DejaVuSans-80"/>
       <use x="332.763672" xlink:href="#DejaVuSans-68"/>
      </g>
     </g>
    </g>
   </g>
   <g id="matplotlib.axis_2">
    <g id="ytick_1">
     <g id="line2d_2">
      <defs>
       <path d="M 0 0 
L -3.5 0 
" id="m4fce514685" style="stroke:#000000;stroke-width:0.8;"/>
      </defs>
      <g>
       <use style="stroke:#000000;stroke-width:0.8;" x="63" xlink:href="#m4fce514685" y="576.72"/>
      </g>
     </g>
     <g id="text_2">
      <!-- −3.5 -->
      <g transform="translate(31.717187 580.519219)scale(0.1 -0.1)">
       <defs>
        <path d="M 10.59375 35.5 
L 73.1875 35.5 
L 73.1875 27.203125 
L 10.59375 27.203125 
z
" id="DejaVuSans-8722"/>
        <path d="M 40.578125 39.3125 
Q 47.65625 37.796875 51.625 33 
Q 55.609375 28.21875 55.609375 21.1875 
Q 55.609375 10.40625 48.1875 4.484375 
Q 40.765625 -1.421875 27.09375 -1.421875 
Q 22.515625 -1.421875 17.65625 -0.515625 
Q 12.796875 0.390625 7.625 2.203125 
L 7.625 11.71875 
Q 11.71875 9.328125 16.59375 8.109375 
Q 21.484375 6.890625 26.8125 6.890625 
Q 36.078125 6.890625 40.9375 10.546875 
Q 45.796875 14.203125 45.796875 21.1875 
Q 45.796875 27.640625 41.28125 31.265625 
Q 36.765625 34.90625 28.71875 34.90625 
L 20.21875 34.90625 
L 20.21875 43.015625 
L 29.109375 43.015625 
Q 36.375 43.015625 40.234375 45.921875 
Q 44.09375 48.828125 44.09375 54.296875 
Q 44.09375 59.90625 40.109375 62.90625 
Q 36.140625 65.921875 28.71875 65.921875 
Q 24.65625 65.921875 20.015625 65.03125 
Q 15.375 64.15625 9.8125 62.3125 
L 9.8125 71.09375 
Q 15.4375 72.65625 20.34375 73.4375 
Q 25.25 74.21875 29.59375 74.21875 
Q 40.828125 74.21875 47.359375 69.109375 
Q 53.90625 64.015625 53.90625 55.328125 
Q 53.90625 49.265625 50.4375 45.09375 
Q 46.96875 40.921875 40.578125 39.3125 
z
" id="DejaVuSans-51"/>
        <path d="M 10.6875 12.40625 
L 21 12.40625 
L 21 0 
L 10.6875 0 
z
" id="DejaVuSans-46"/>
        <path d="M 10.796875 72.90625 
L 49.515625 72.90625 
L 49.515625 64.59375 
L 19.828125 64.59375 
L 19.828125 46.734375 
Q 21.96875 47.46875 24.109375 47.828125 
Q 26.265625 48.1875 28.421875 48.1875 
Q 40.625 48.1875 47.75 41.5 
Q 54.890625 34.8125 54.890625 23.390625 
Q 54.890625 11.625 47.5625 5.09375 
Q 40.234375 -1.421875 26.90625 -1.421875 
Q 22.3125 -1.421875 17.546875 -0.640625 
Q 12.796875 0.140625 7.71875 1.703125 
L 7.71875 11.625 
Q 12.109375 9.234375 16.796875 8.0625 
Q 21.484375 6.890625 26.703125 6.890625 
Q 35.15625 6.890625 40.078125 11.328125 
Q 45.015625 15.765625 45.015625 23.390625 
Q 45.015625 31 40.078125 35.4375 
Q 35.15625 39.890625 26.703125 39.890625 
Q 22.75 39.890625 18.8125 39.015625 
Q 14.890625 38.140625 10.796875 36.28125 
z
" id="DejaVuSans-53"/>
       </defs>
       <use xlink:href="#DejaVuSans-8722"/>
       <use x="83.789062" xlink:href="#DejaVuSans-51"/>
       <use x="147.412109" xlink:href="#DejaVuSans-46"/>
       <use x="179.199219" xlink:href="#DejaVuSans-53"/>
      </g>
     </g>
    </g>
    <g id="ytick_2">
     <g id="line2d_3">
      <g>
       <use style="stroke:#000000;stroke-width:0.8;" x="63" xlink:href="#m4fce514685" y="538.92"/>
      </g>
     </g>
     <g id="text_3">
      <!-- −3.0 -->
      <g transform="translate(31.717187 542.719219)scale(0.1 -0.1)">
       <defs>
        <path d="M 31.78125 66.40625 
Q 24.171875 66.40625 20.328125 58.90625 
Q 16.5 51.421875 16.5 36.375 
Q 16.5 21.390625 20.328125 13.890625 
Q 24.171875 6.390625 31.78125 6.390625 
Q 39.453125 6.390625 43.28125 13.890625 
Q 47.125 21.390625 47.125 36.375 
Q 47.125 51.421875 43.28125 58.90625 
Q 39.453125 66.40625 31.78125 66.40625 
z
M 31.78125 74.21875 
Q 44.046875 74.21875 50.515625 64.515625 
Q 56.984375 54.828125 56.984375 36.375 
Q 56.984375 17.96875 50.515625 8.265625 
Q 44.046875 -1.421875 31.78125 -1.421875 
Q 19.53125 -1.421875 13.0625 8.265625 
Q 6.59375 17.96875 6.59375 36.375 
Q 6.59375 54.828125 13.0625 64.515625 
Q 19.53125 74.21875 31.78125 74.21875 
z
" id="DejaVuSans-48"/>
       </defs>
       <use xlink:href="#DejaVuSans-8722"/>
       <use x="83.789062" xlink:href="#DejaVuSans-51"/>
       <use x="147.412109" xlink:href="#DejaVuSans-46"/>
       <use x="179.199219" xlink:href="#DejaVuSans-48"/>
      </g>
     </g>
    </g>
    <g id="ytick_3">
     <g id="line2d_4">
      <g>
       <use style="stroke:#000000;stroke-width:0.8;" x="63" xlink:href="#m4fce514685" y="501.12"/>
      </g>
     </g>
     <g id="text_4">
      <!-- −2.5 -->
      <g transform="translate(31.717187 504.919219)scale(0.1 -0.1)">
       <defs>
        <path d="M 19.1875 8.296875 
L 53.609375 8.296875 
L 53.609375 0 
L 7.328125 0 
L 7.328125 8.296875 
Q 12.9375 14.109375 22.625 23.890625 
Q 32.328125 33.6875 34.8125 36.53125 
Q 39.546875 41.84375 41.421875 45.53125 
Q 43.3125 49.21875 43.3125 52.78125 
Q 43.3125 58.59375 39.234375 62.25 
Q 35.15625 65.921875 28.609375 65.921875 
Q 23.96875 65.921875 18.8125 64.3125 
Q 13.671875 62.703125 7.8125 59.421875 
L 7.8125 69.390625 
Q 13.765625 71.78125 18.9375 73 
Q 24.125 74.21875 28.421875 74.21875 
Q 39.75 74.21875 46.484375 68.546875 
Q 53.21875 62.890625 53.21875 53.421875 
Q 53.21875 48.921875 51.53125 44.890625 
Q 49.859375 40.875 45.40625 35.40625 
Q 44.1875 33.984375 37.640625 27.21875 
Q 31.109375 20.453125 19.1875 8.296875 
z
" id="DejaVuSans-50"/>
       </defs>
       <use xlink:href="#DejaVuSans-8722"/>
       <use x="83.789062" xlink:href="#DejaVuSans-50"/>
       <use x="147.412109" xlink:href="#DejaVuSans-46"/>
       <use x="179.199219" xlink:href="#DejaVuSans-53"/>
      </g>
     </g>
    </g>
    <g id="ytick_4">
     <g id="line2d_5">
      <g>
       <use style="stroke:#000000;stroke-width:0.8;" x="63" xlink:href="#m4fce514685" y="463.32"/>
      </g>
     </g>
     <g id="text_5">
      <!-- −2.0 -->
      <g transform="translate(31.717187 467.119219)scale(0.1 -0.1)">
       <use xlink:href="#DejaVuSans-8722"/>
       <use x="83.789062" xlink:href="#DejaVuSans-50"/>
       <use x="147.412109" xlink:href="#DejaVuSans-46"/>
       <use x="179.199219" xlink:href="#DejaVuSans-48"/>
      </g>
     </g>
    </g>
    <g id="ytick_5">
     <g id="line2d_6">
      <g>
       <use style="stroke:#000000;stroke-width:0.8;" x="63" xlink:href="#m4fce514685" y="425.52"/>
      </g>
     </g>
     <g id="text_6">
      <!-- −1.5 -->
      <g transform="translate(31.717187 429.319219)scale(0.1 -0.1)">
       <defs>
        <path d="M 12.40625 8.296875 
L 28.515625 8.296875 
L 28.515625 63.921875 
L 10.984375 60.40625 
L 10.984375 69.390625 
L 28.421875 72.90625 
L 38.28125 72.90625 
L 38.28125 8.296875 
L 54.390625 8.296875 
L 54.390625 0 
L 12.40625 0 
z
" id="DejaVuSans-49"/>
       </defs>
       <use xlink:href="#DejaVuSans-8722"/>
       <use x="83.789062" xlink:href="#DejaVuSans-49"/>
       <use x="147.412109" xlink:href="#DejaVuSans-46"/>
       <use x="179.199219" xlink:href="#DejaVuSans-53"/>
      </g>
     </g>
    </g>
    <g id="ytick_6">
     <g id="line2d_7">
      <g>
       <use style="stroke:#000000;stroke-width:0.8;" x="63" xlink:href="#m4fce514685" y="387.72"/>
      </g>
     </g>
     <g id="text_7">
      <!-- −1.0 -->
      <g transform="translate(31.717187 391.519219)scale(0.1 -0.1)">
       <use xlink:href="#DejaVuSans-8722"/>
       <use x="83.789062" xlink:href="#DejaVuSans-49"/>
       <use x="147.412109" xlink:href="#DejaVuSans-46"/>
       <use x="179.199219" xlink:href="#DejaVuSans-48"/>
      </g>
     </g>
    </g>
    <g id="ytick_7">
     <g id="line2d_8">
      <g>
       <use style="stroke:#000000;stroke-width:0.8;" x="63" xlink:href="#m4fce514685" y="349.92"/>
      </g>
     </g>
     <g id="text_8">
      <!-- −0.5 -->
      <g transform="translate(31.717187 353.719219)scale(0.1 -0.1)">
       <use xlink:href="#DejaVuSans-8722"/>
       <use x="83.789062" xlink:href="#DejaVuSans-48"/>
       <use x="147.412109" xlink:href="#DejaVuSans-46"/>
       <use x="179.199219" xlink:href="#DejaVuSans-53"/>
      </g>
     </g>
    </g>
    <g id="ytick_8">
     <g id="line2d_9">
      <g>
       <use style="stroke:#000000;stroke-width:0.8;" x="63" xlink:href="#m4fce514685" y="312.12"/>
      </g>
     </g>
     <g id="text_9">
      <!-- 0.0 -->
      <g transform="translate(40.096875 315.919219)scale(0.1 -0.1)">
       <use xlink:href="#DejaVuSans-48"/>
       <use x="63.623047" xlink:href="#DejaVuSans-46"/>
       <use x="95.410156" xlink:href="#DejaVuSans-48"/>
      </g>
     </g>
    </g>
    <g id="ytick_9">
     <g id="line2d_10">
      <g>
       <use style="stroke:#000000;stroke-width:0.8;" x="63" xlink:href="#m4fce514685" y="274.32"/>
      </g>
     </g>
     <g id="text_10">
      <!-- 0.5 -->
      <g transform="translate(40.096875 278.119219)scale(0.1 -0.1)">
       <use xlink:href="#DejaVuSans-48"/>
       <use x="63.623047" xlink:href="#DejaVuSans-46"/>
       <use x="95.410156" xlink:href="#DejaVuSans-53"/>
      </g>
     </g>
    </g>
    <g id="ytick_10">
     <g id="line2d_11">
      <g>
       <use style="stroke:#000000;stroke-width:0.8;" x="63" xlink:href="#m4fce514685" y="236.52"/>
      </g>
     </g>
     <g id="text_11">
      <!-- 1.0 -->
      <g transform="translate(40.096875 240.319219)scale(0.1 -0.1)">
       <use xlink:href="#DejaVuSans-49"/>
       <use x="63.623047" xlink:href="#DejaVuSans-46"/>
       <use x="95.410156" xlink:href="#DejaVuSans-48"/>
      </g>
     </g>
    </g>
    <g id="ytick_11">
     <g id="line2d_12">
      <g>
       <use style="stroke:#000000;stroke-width:0.8;" x="63" xlink:href="#m4fce514685" y="198.72"/>
      </g>
     </g>
     <g id="text_12">
      <!-- 1.5 -->
      <g transform="translate(40.096875 202.519219)scale(0.1 -0.1)">
       <use xlink:href="#DejaVuSans-49"/>
       <use x="63.623047" xlink:href="#DejaVuSans-46"/>
       <use x="95.410156" xlink:href="#DejaVuSans-53"/>
      </g>
     </g>
    </g>
    <g id="ytick_12">
     <g id="line2d_13">
      <g>
       <use style="stroke:#000000;stroke-width:0.8;" x="63" xlink:href="#m4fce514685" y="160.92"/>
      </g>
     </g>
     <g id="text_13">
      <!-- 2.0 -->
      <g transform="translate(40.096875 164.719219)scale(0.1 -0.1)">
       <use xlink:href="#DejaVuSans-50"/>
       <use x="63.623047" xlink:href="#DejaVuSans-46"/>
       <use x="95.410156" xlink:href="#DejaVuSans-48"/>
      </g>
     </g>
    </g>
    <g id="ytick_13">
     <g id="line2d_14">
      <g>
       <use style="stroke:#000000;stroke-width:0.8;" x="63" xlink:href="#m4fce514685" y="123.12"/>
      </g>
     </g>
     <g id="text_14">
      <!-- 2.5 -->
      <g transform="translate(40.096875 126.919219)scale(0.1 -0.1)">
       <use xlink:href="#DejaVuSans-50"/>
       <use x="63.623047" xlink:href="#DejaVuSans-46"/>
       <use x="95.410156" xlink:href="#DejaVuSans-53"/>
      </g>
     </g>
    </g>
    <g id="ytick_14">
     <g id="line2d_15">
      <g>
       <use style="stroke:#000000;stroke-width:0.8;" x="63" xlink:href="#m4fce514685" y="85.32"/>
      </g>
     </g>
     <g id="text_15">
      <!-- 3.0 -->
      <g transform="translate(40.096875 89.119219)scale(0.1 -0.1)">
       <use xlink:href="#DejaVuSans-51"/>
       <use x="63.623047" xlink:href="#DejaVuSans-46"/>
       <use x="95.410156" xlink:href="#DejaVuSans-48"/>
      </g>
     </g>
    </g>
    <g id="text_16">
     <!-- LogOdds -->
     <g transform="translate(25.6375 349.061094)rotate(-90)scale(0.1 -0.1)">
      <defs>
       <path d="M 9.8125 72.90625 
L 19.671875 72.90625 
L 19.671875 8.296875 
L 55.171875 8.296875 
L 55.171875 0 
L 9.8125 0 
z
" id="DejaVuSans-76"/>
       <path d="M 30.609375 48.390625 
Q 23.390625 48.390625 19.1875 42.75 
Q 14.984375 37.109375 14.984375 27.296875 
Q 14.984375 17.484375 19.15625 11.84375 
Q 23.34375 6.203125 30.609375 6.203125 
Q 37.796875 6.203125 41.984375 11.859375 
Q 46.1875 17.53125 46.1875 27.296875 
Q 46.1875 37.015625 41.984375 42.703125 
Q 37.796875 48.390625 30.609375 48.390625 
z
M 30.609375 56 
Q 42.328125 56 49.015625 48.375 
Q 55.71875 40.765625 55.71875 27.296875 
Q 55.71875 13.875 49.015625 6.21875 
Q 42.328125 -1.421875 30.609375 -1.421875 
Q 18.84375 -1.421875 12.171875 6.21875 
Q 5.515625 13.875 5.515625 27.296875 
Q 5.515625 40.765625 12.171875 48.375 
Q 18.84375 56 30.609375 56 
z
" id="DejaVuSans-111"/>
       <path d="M 45.40625 27.984375 
Q 45.40625 37.75 41.375 43.109375 
Q 37.359375 48.484375 30.078125 48.484375 
Q 22.859375 48.484375 18.828125 43.109375 
Q 14.796875 37.75 14.796875 27.984375 
Q 14.796875 18.265625 18.828125 12.890625 
Q 22.859375 7.515625 30.078125 7.515625 
Q 37.359375 7.515625 41.375 12.890625 
Q 45.40625 18.265625 45.40625 27.984375 
z
M 54.390625 6.78125 
Q 54.390625 -7.171875 48.1875 -13.984375 
Q 42 -20.796875 29.203125 -20.796875 
Q 24.46875 -20.796875 20.265625 -20.09375 
Q 16.0625 -19.390625 12.109375 -17.921875 
L 12.109375 -9.1875 
Q 16.0625 -11.328125 19.921875 -12.34375 
Q 23.78125 -13.375 27.78125 -13.375 
Q 36.625 -13.375 41.015625 -8.765625 
Q 45.40625 -4.15625 45.40625 5.171875 
L 45.40625 9.625 
Q 42.625 4.78125 38.28125 2.390625 
Q 33.9375 0 27.875 0 
Q 17.828125 0 11.671875 7.65625 
Q 5.515625 15.328125 5.515625 27.984375 
Q 5.515625 40.671875 11.671875 48.328125 
Q 17.828125 56 27.875 56 
Q 33.9375 56 38.28125 53.609375 
Q 42.625 51.21875 45.40625 46.390625 
L 45.40625 54.6875 
L 54.390625 54.6875 
z
" id="DejaVuSans-103"/>
       <path d="M 39.40625 66.21875 
Q 28.65625 66.21875 22.328125 58.203125 
Q 16.015625 50.203125 16.015625 36.375 
Q 16.015625 22.609375 22.328125 14.59375 
Q 28.65625 6.59375 39.40625 6.59375 
Q 50.140625 6.59375 56.421875 14.59375 
Q 62.703125 22.609375 62.703125 36.375 
Q 62.703125 50.203125 56.421875 58.203125 
Q 50.140625 66.21875 39.40625 66.21875 
z
M 39.40625 74.21875 
Q 54.734375 74.21875 63.90625 63.9375 
Q 73.09375 53.65625 73.09375 36.375 
Q 73.09375 19.140625 63.90625 8.859375 
Q 54.734375 -1.421875 39.40625 -1.421875 
Q 24.03125 -1.421875 14.8125 8.828125 
Q 5.609375 19.09375 5.609375 36.375 
Q 5.609375 53.65625 14.8125 63.9375 
Q 24.03125 74.21875 39.40625 74.21875 
z
" id="DejaVuSans-79"/>
       <path d="M 45.40625 46.390625 
L 45.40625 75.984375 
L 54.390625 75.984375 
L 54.390625 0 
L 45.40625 0 
L 45.40625 8.203125 
Q 42.578125 3.328125 38.25 0.953125 
Q 33.9375 -1.421875 27.875 -1.421875 
Q 17.96875 -1.421875 11.734375 6.484375 
Q 5.515625 14.40625 5.515625 27.296875 
Q 5.515625 40.1875 11.734375 48.09375 
Q 17.96875 56 27.875 56 
Q 33.9375 56 38.25 53.625 
Q 42.578125 51.265625 45.40625 46.390625 
z
M 14.796875 27.296875 
Q 14.796875 17.390625 18.875 11.75 
Q 22.953125 6.109375 30.078125 6.109375 
Q 37.203125 6.109375 41.296875 11.75 
Q 45.40625 17.390625 45.40625 27.296875 
Q 45.40625 37.203125 41.296875 42.84375 
Q 37.203125 48.484375 30.078125 48.484375 
Q 22.953125 48.484375 18.875 42.84375 
Q 14.796875 37.203125 14.796875 27.296875 
z
" id="DejaVuSans-100"/>
       <path d="M 44.28125 53.078125 
L 44.28125 44.578125 
Q 40.484375 46.53125 36.375 47.5 
Q 32.28125 48.484375 27.875 48.484375 
Q 21.1875 48.484375 17.84375 46.4375 
Q 14.5 44.390625 14.5 40.28125 
Q 14.5 37.15625 16.890625 35.375 
Q 19.28125 33.59375 26.515625 31.984375 
L 29.59375 31.296875 
Q 39.15625 29.25 43.1875 25.515625 
Q 47.21875 21.78125 47.21875 15.09375 
Q 47.21875 7.46875 41.1875 3.015625 
Q 35.15625 -1.421875 24.609375 -1.421875 
Q 20.21875 -1.421875 15.453125 -0.5625 
Q 10.6875 0.296875 5.421875 2 
L 5.421875 11.28125 
Q 10.40625 8.6875 15.234375 7.390625 
Q 20.0625 6.109375 24.8125 6.109375 
Q 31.15625 6.109375 34.5625 8.28125 
Q 37.984375 10.453125 37.984375 14.40625 
Q 37.984375 18.0625 35.515625 20.015625 
Q 33.0625 21.96875 24.703125 23.78125 
L 21.578125 24.515625 
Q 13.234375 26.265625 9.515625 29.90625 
Q 5.8125 33.546875 5.8125 39.890625 
Q 5.8125 47.609375 11.28125 51.796875 
Q 16.75 56 26.8125 56 
Q 31.78125 56 36.171875 55.265625 
Q 40.578125 54.546875 44.28125 53.078125 
z
" id="DejaVuSans-115"/>
      </defs>
      <use xlink:href="#DejaVuSans-76"/>
      <use x="53.962891" xlink:href="#DejaVuSans-111"/>
      <use x="115.144531" xlink:href="#DejaVuSans-103"/>
      <use x="178.621094" xlink:href="#DejaVuSans-79"/>
      <use x="257.332031" xlink:href="#DejaVuSans-100"/>
      <use x="320.808594" xlink:href="#DejaVuSans-100"/>
      <use x="384.285156" xlink:href="#DejaVuSans-115"/>
     </g>
    </g>
   </g>
   <g id="line2d_16">
    <path clip-path="url(#p8d7520d868)" d="M 229.005 335.434662 
L 287.595 335.434662 
L 287.595 280.418703 
L 229.005 280.418703 
L 229.005 335.434662 
" style="fill:none;stroke:#000000;stroke-linecap:square;"/>
   </g>
   <g id="line2d_17">
    <path clip-path="url(#p8d7520d868)" d="M 258.3 335.434662 
L 258.3 410.484812 
" style="fill:none;stroke:#000000;stroke-linecap:square;"/>
   </g>
   <g id="line2d_18">
    <path clip-path="url(#p8d7520d868)" d="M 258.3 280.418703 
L 258.3 214.171988 
" style="fill:none;stroke:#000000;stroke-linecap:square;"/>
   </g>
   <g id="line2d_19">
    <path clip-path="url(#p8d7520d868)" d="M 243.6525 410.484812 
L 272.9475 410.484812 
" style="fill:none;stroke:#000000;stroke-linecap:square;"/>
   </g>
   <g id="line2d_20">
    <path clip-path="url(#p8d7520d868)" d="M 243.6525 214.171988 
L 272.9475 214.171988 
" style="fill:none;stroke:#000000;stroke-linecap:square;"/>
   </g>
   <g id="line2d_21">
    <path clip-path="url(#p8d7520d868)" d="M 229.005 308.328841 
L 287.595 308.328841 
" style="fill:none;stroke:#ff7f0e;stroke-linecap:square;"/>
   </g>
   <g id="patch_3">
    <path d="M 63 576.72 
L 63 77.76 
" style="fill:none;stroke:#000000;stroke-linecap:square;stroke-linejoin:miter;stroke-width:0.8;"/>
   </g>
   <g id="patch_4">
    <path d="M 453.6 576.72 
L 453.6 77.76 
" style="fill:none;stroke:#000000;stroke-linecap:square;stroke-linejoin:miter;stroke-width:0.8;"/>
   </g>
   <g id="patch_5">
    <path d="M 63 576.72 
L 453.6 576.72 
" style="fill:none;stroke:#000000;stroke-linecap:square;stroke-linejoin:miter;stroke-width:0.8;"/>
   </g>
   <g id="patch_6">
    <path d="M 63 77.76 
L 453.6 77.76 
" style="fill:none;stroke:#000000;stroke-linecap:square;stroke-linejoin:miter;stroke-width:0.8;"/>
   </g>
   <g id="text_17">
    <!-- 1 -->
    <g style="fill:#556b2f;" transform="translate(286.252507 393.234221)scale(0.1 -0.1)">
     <use xlink:href="#DejaVuSans-49"/>
    </g>
   </g>
   <g id="text_18">
    <!-- 2 -->
    <g style="fill:#8b4513;" transform="translate(279.316008 356.331551)scale(0.1 -0.1)">
     <use xlink:href="#DejaVuSans-50"/>
    </g>
   </g>
   <g id="text_19">
    <!-- 3 -->
    <g style="fill:#2e8b57;" transform="translate(282.038833 264.083704)scale(0.1 -0.1)">
     <use xlink:href="#DejaVuSans-51"/>
    </g>
   </g>
   <g id="text_20">
    <!-- 4 -->
    <g style="fill:#228b22;" transform="translate(281.298258 315.154201)scale(0.1 -0.1)">
     <defs>
      <path d="M 37.796875 64.3125 
L 12.890625 25.390625 
L 37.796875 25.390625 
z
M 35.203125 72.90625 
L 47.609375 72.90625 
L 47.609375 25.390625 
L 58.015625 25.390625 
L 58.015625 17.1875 
L 47.609375 17.1875 
L 47.609375 0 
L 37.796875 0 
L 37.796875 17.1875 
L 4.890625 17.1875 
L 4.890625 26.703125 
z
" id="DejaVuSans-52"/>
     </defs>
     <use xlink:href="#DejaVuSans-52"/>
    </g>
   </g>
   <g id="text_21">
    <!-- 5 -->
    <g style="fill:#708090;" transform="translate(244.077263 368.914821)scale(0.1 -0.1)">
     <use xlink:href="#DejaVuSans-53"/>
    </g>
   </g>
   <g id="text_22">
    <!-- 6 -->
    <g style="fill:#8b0000;" transform="translate(268.427211 322.352829)scale(0.1 -0.1)">
     <defs>
      <path d="M 33.015625 40.375 
Q 26.375 40.375 22.484375 35.828125 
Q 18.609375 31.296875 18.609375 23.390625 
Q 18.609375 15.53125 22.484375 10.953125 
Q 26.375 6.390625 33.015625 6.390625 
Q 39.65625 6.390625 43.53125 10.953125 
Q 47.40625 15.53125 47.40625 23.390625 
Q 47.40625 31.296875 43.53125 35.828125 
Q 39.65625 40.375 33.015625 40.375 
z
M 52.59375 71.296875 
L 52.59375 62.3125 
Q 48.875 64.0625 45.09375 64.984375 
Q 41.3125 65.921875 37.59375 65.921875 
Q 27.828125 65.921875 22.671875 59.328125 
Q 17.53125 52.734375 16.796875 39.40625 
Q 19.671875 43.65625 24.015625 45.921875 
Q 28.375 48.1875 33.59375 48.1875 
Q 44.578125 48.1875 50.953125 41.515625 
Q 57.328125 34.859375 57.328125 23.390625 
Q 57.328125 12.15625 50.6875 5.359375 
Q 44.046875 -1.421875 33.015625 -1.421875 
Q 20.359375 -1.421875 13.671875 8.265625 
Q 6.984375 17.96875 6.984375 36.375 
Q 6.984375 53.65625 15.1875 63.9375 
Q 23.390625 74.21875 37.203125 74.21875 
Q 40.921875 74.21875 44.703125 73.484375 
Q 48.484375 72.75 52.59375 71.296875 
z
" id="DejaVuSans-54"/>
     </defs>
     <use xlink:href="#DejaVuSans-54"/>
    </g>
   </g>
   <g id="text_23">
    <!-- 7 -->
    <g style="fill:#808000;" transform="translate(264.627701 282.712587)scale(0.1 -0.1)">
     <defs>
      <path d="M 8.203125 72.90625 
L 55.078125 72.90625 
L 55.078125 68.703125 
L 28.609375 0 
L 18.3125 0 
L 43.21875 64.59375 
L 8.203125 64.59375 
z
" id="DejaVuSans-55"/>
     </defs>
     <use xlink:href="#DejaVuSans-55"/>
    </g>
   </g>
   <g id="text_24">
    <!-- 8 -->
    <g style="fill:#483d8b;" transform="translate(270.015503 291.484303)scale(0.1 -0.1)">
     <defs>
      <path d="M 31.78125 34.625 
Q 24.75 34.625 20.71875 30.859375 
Q 16.703125 27.09375 16.703125 20.515625 
Q 16.703125 13.921875 20.71875 10.15625 
Q 24.75 6.390625 31.78125 6.390625 
Q 38.8125 6.390625 42.859375 10.171875 
Q 46.921875 13.96875 46.921875 20.515625 
Q 46.921875 27.09375 42.890625 30.859375 
Q 38.875 34.625 31.78125 34.625 
z
M 21.921875 38.8125 
Q 15.578125 40.375 12.03125 44.71875 
Q 8.5 49.078125 8.5 55.328125 
Q 8.5 64.0625 14.71875 69.140625 
Q 20.953125 74.21875 31.78125 74.21875 
Q 42.671875 74.21875 48.875 69.140625 
Q 55.078125 64.0625 55.078125 55.328125 
Q 55.078125 49.078125 51.53125 44.71875 
Q 48 40.375 41.703125 38.8125 
Q 48.828125 37.15625 52.796875 32.3125 
Q 56.78125 27.484375 56.78125 20.515625 
Q 56.78125 9.90625 50.3125 4.234375 
Q 43.84375 -1.421875 31.78125 -1.421875 
Q 19.734375 -1.421875 13.25 4.234375 
Q 6.78125 9.90625 6.78125 20.515625 
Q 6.78125 27.484375 10.78125 32.3125 
Q 14.796875 37.15625 21.921875 38.8125 
z
M 18.3125 54.390625 
Q 18.3125 48.734375 21.84375 45.5625 
Q 25.390625 42.390625 31.78125 42.390625 
Q 38.140625 42.390625 41.71875 45.5625 
Q 45.3125 48.734375 45.3125 54.390625 
Q 45.3125 60.0625 41.71875 63.234375 
Q 38.140625 66.40625 31.78125 66.40625 
Q 25.390625 66.40625 21.84375 63.234375 
Q 18.3125 60.0625 18.3125 54.390625 
z
" id="DejaVuSans-56"/>
     </defs>
     <use xlink:href="#DejaVuSans-56"/>
    </g>
   </g>
   <g id="text_25">
    <!-- 9 -->
    <g style="fill:#008080;" transform="translate(240.195328 272.679398)scale(0.1 -0.1)">
     <defs>
      <path d="M 10.984375 1.515625 
L 10.984375 10.5 
Q 14.703125 8.734375 18.5 7.8125 
Q 22.3125 6.890625 25.984375 6.890625 
Q 35.75 6.890625 40.890625 13.453125 
Q 46.046875 20.015625 46.78125 33.40625 
Q 43.953125 29.203125 39.59375 26.953125 
Q 35.25 24.703125 29.984375 24.703125 
Q 19.046875 24.703125 12.671875 31.3125 
Q 6.296875 37.9375 6.296875 49.421875 
Q 6.296875 60.640625 12.9375 67.421875 
Q 19.578125 74.21875 30.609375 74.21875 
Q 43.265625 74.21875 49.921875 64.515625 
Q 56.59375 54.828125 56.59375 36.375 
Q 56.59375 19.140625 48.40625 8.859375 
Q 40.234375 -1.421875 26.421875 -1.421875 
Q 22.703125 -1.421875 18.890625 -0.6875 
Q 15.09375 0.046875 10.984375 1.515625 
z
M 30.609375 32.421875 
Q 37.25 32.421875 41.125 36.953125 
Q 45.015625 41.5 45.015625 49.421875 
Q 45.015625 57.28125 41.125 61.84375 
Q 37.25 66.40625 30.609375 66.40625 
Q 23.96875 66.40625 20.09375 61.84375 
Q 16.21875 57.28125 16.21875 49.421875 
Q 16.21875 41.5 20.09375 36.953125 
Q 23.96875 32.421875 30.609375 32.421875 
z
" id="DejaVuSans-57"/>
     </defs>
     <use xlink:href="#DejaVuSans-57"/>
    </g>
   </g>
   <g id="text_26">
    <!-- 10 -->
    <g style="fill:#b8860b;" transform="translate(228.195999 294.908077)scale(0.1 -0.1)">
     <use xlink:href="#DejaVuSans-49"/>
     <use x="63.623047" xlink:href="#DejaVuSans-48"/>
    </g>
   </g>
   <g id="text_27">
    <!-- 11 -->
    <g style="fill:#4682b4;" transform="translate(288.81502 213.415988)scale(0.1 -0.1)">
     <use xlink:href="#DejaVuSans-49"/>
     <use x="63.623047" xlink:href="#DejaVuSans-49"/>
    </g>
   </g>
   <g id="text_28">
    <!-- 12 -->
    <g style="fill:#d2691e;" transform="translate(283.632434 264.483156)scale(0.1 -0.1)">
     <use xlink:href="#DejaVuSans-49"/>
     <use x="63.623047" xlink:href="#DejaVuSans-50"/>
    </g>
   </g>
   <g id="text_29">
    <!-- 13 -->
    <g style="fill:#9acd32;" transform="translate(277.679857 357.062505)scale(0.1 -0.1)">
     <use xlink:href="#DejaVuSans-49"/>
     <use x="63.623047" xlink:href="#DejaVuSans-51"/>
    </g>
   </g>
   <g id="text_30">
    <!-- 14 -->
    <g style="fill:#32cd32;" transform="translate(260.993071 285.062832)scale(0.1 -0.1)">
     <use xlink:href="#DejaVuSans-49"/>
     <use x="63.623047" xlink:href="#DejaVuSans-52"/>
    </g>
   </g>
   <g id="text_31">
    <!-- 15 -->
    <g style="fill:#8fbc8f;" transform="translate(297.25211 347.891597)scale(0.1 -0.1)">
     <use xlink:href="#DejaVuSans-49"/>
     <use x="63.623047" xlink:href="#DejaVuSans-53"/>
    </g>
   </g>
   <g id="text_32">
    <!-- 16 -->
    <g style="fill:#800080;" transform="translate(239.448706 304.068615)scale(0.1 -0.1)">
     <use xlink:href="#DejaVuSans-49"/>
     <use x="63.623047" xlink:href="#DejaVuSans-54"/>
    </g>
   </g>
   <g id="text_33">
    <!-- 17 -->
    <g style="fill:#b03060;" transform="translate(267.138735 389.210848)scale(0.1 -0.1)">
     <use xlink:href="#DejaVuSans-49"/>
     <use x="63.623047" xlink:href="#DejaVuSans-55"/>
    </g>
   </g>
   <g id="text_34">
    <!-- 18 -->
    <g style="fill:#9932cc;" transform="translate(268.729588 260.053195)scale(0.1 -0.1)">
     <use xlink:href="#DejaVuSans-49"/>
     <use x="63.623047" xlink:href="#DejaVuSans-56"/>
    </g>
   </g>
   <g id="text_35">
    <!-- 19 -->
    <g style="fill:#ff4500;" transform="translate(280.010485 311.356916)scale(0.1 -0.1)">
     <use xlink:href="#DejaVuSans-49"/>
     <use x="63.623047" xlink:href="#DejaVuSans-57"/>
    </g>
   </g>
   <g id="text_36">
    <!-- 20 -->
    <g style="fill:#00ced1;" transform="translate(237.028679 315.924014)scale(0.1 -0.1)">
     <use xlink:href="#DejaVuSans-50"/>
     <use x="63.623047" xlink:href="#DejaVuSans-48"/>
    </g>
   </g>
   <g id="text_37">
    <!-- 21 -->
    <g style="fill:#ff8c00;" transform="translate(260.739546 409.728812)scale(0.1 -0.1)">
     <use xlink:href="#DejaVuSans-50"/>
     <use x="63.623047" xlink:href="#DejaVuSans-49"/>
    </g>
   </g>
   <g id="text_38">
    <!-- 22 -->
    <g style="fill:#ffd700;" transform="translate(257.696706 324.675179)scale(0.1 -0.1)">
     <use xlink:href="#DejaVuSans-50"/>
     <use x="63.623047" xlink:href="#DejaVuSans-50"/>
    </g>
   </g>
   <g id="text_39">
    <!-- 23 -->
    <g style="fill:#0000cd;" transform="translate(279.059796 258.434197)scale(0.1 -0.1)">
     <use xlink:href="#DejaVuSans-50"/>
     <use x="63.623047" xlink:href="#DejaVuSans-51"/>
    </g>
   </g>
   <g id="text_40">
    <!-- 24 -->
    <g style="fill:#deb887;" transform="translate(278.60412 332.52448)scale(0.1 -0.1)">
     <use xlink:href="#DejaVuSans-50"/>
     <use x="63.623047" xlink:href="#DejaVuSans-52"/>
    </g>
   </g>
   <g id="text_41">
    <!-- 25 -->
    <g style="fill:#00ff00;" transform="translate(265.480674 243.757393)scale(0.1 -0.1)">
     <use xlink:href="#DejaVuSans-50"/>
     <use x="63.623047" xlink:href="#DejaVuSans-53"/>
    </g>
   </g>
   <g id="text_42">
    <!-- 26 -->
    <g style="fill:#00fa9a;" transform="translate(262.55788 324.678603)scale(0.1 -0.1)">
     <use xlink:href="#DejaVuSans-50"/>
     <use x="63.623047" xlink:href="#DejaVuSans-54"/>
    </g>
   </g>
   <g id="text_43">
    <!-- 27 -->
    <g style="fill:#dc143c;" transform="translate(262.988101 311.346718)scale(0.1 -0.1)">
     <use xlink:href="#DejaVuSans-50"/>
     <use x="63.623047" xlink:href="#DejaVuSans-55"/>
    </g>
   </g>
   <g id="text_44">
    <!-- 28 -->
    <g style="fill:#00bfff;" transform="translate(294.714408 265.334015)scale(0.1 -0.1)">
     <use xlink:href="#DejaVuSans-50"/>
     <use x="63.623047" xlink:href="#DejaVuSans-56"/>
    </g>
   </g>
   <g id="text_45">
    <!-- 29 -->
    <g style="fill:#f4a460;" transform="translate(257.149726 356.300575)scale(0.1 -0.1)">
     <use xlink:href="#DejaVuSans-50"/>
     <use x="63.623047" xlink:href="#DejaVuSans-57"/>
    </g>
   </g>
   <g id="text_46">
    <!-- 30 -->
    <g style="fill:#0000ff;" transform="translate(232.36804 254.56203)scale(0.1 -0.1)">
     <use xlink:href="#DejaVuSans-51"/>
     <use x="63.623047" xlink:href="#DejaVuSans-48"/>
    </g>
   </g>
   <g id="text_47">
    <!-- 31 -->
    <g style="fill:#a020f0;" transform="translate(233.303304 347.435629)scale(0.1 -0.1)">
     <use xlink:href="#DejaVuSans-51"/>
     <use x="63.623047" xlink:href="#DejaVuSans-49"/>
    </g>
   </g>
   <g id="text_48">
    <!-- 32 -->
    <g style="fill:#adff2f;" transform="translate(270.557877 281.333385)scale(0.1 -0.1)">
     <use xlink:href="#DejaVuSans-51"/>
     <use x="63.623047" xlink:href="#DejaVuSans-50"/>
    </g>
   </g>
   <g id="text_49">
    <!-- 33 -->
    <g style="fill:#ff6347;" transform="translate(243.930011 301.922064)scale(0.1 -0.1)">
     <use xlink:href="#DejaVuSans-51"/>
     <use x="63.623047" xlink:href="#DejaVuSans-51"/>
    </g>
   </g>
   <g id="text_50">
    <!-- 34 -->
    <g style="fill:#da70d6;" transform="translate(244.368683 264.935227)scale(0.1 -0.1)">
     <use xlink:href="#DejaVuSans-51"/>
     <use x="63.623047" xlink:href="#DejaVuSans-52"/>
    </g>
   </g>
   <g id="text_51">
    <!-- 35 -->
    <g style="fill:#b0c4de;" transform="translate(244.23739 334.121853)scale(0.1 -0.1)">
     <use xlink:href="#DejaVuSans-51"/>
     <use x="63.623047" xlink:href="#DejaVuSans-53"/>
    </g>
   </g>
   <g id="text_52">
    <!-- 36 -->
    <g style="fill:#ff00ff;" transform="translate(259.4433 279.830015)scale(0.1 -0.1)">
     <use xlink:href="#DejaVuSans-51"/>
     <use x="63.623047" xlink:href="#DejaVuSans-54"/>
    </g>
   </g>
   <g id="text_53">
    <!-- 37 -->
    <g style="fill:#f0e68c;" transform="translate(259.874985 336.349086)scale(0.1 -0.1)">
     <use xlink:href="#DejaVuSans-51"/>
     <use x="63.623047" xlink:href="#DejaVuSans-55"/>
    </g>
   </g>
   <g id="text_54">
    <!-- 38 -->
    <g style="fill:#fa8072;" transform="translate(267.782728 306.719407)scale(0.1 -0.1)">
     <use xlink:href="#DejaVuSans-51"/>
     <use x="63.623047" xlink:href="#DejaVuSans-56"/>
    </g>
   </g>
   <g id="text_55">
    <!-- 39 -->
    <g style="fill:#ffff54;" transform="translate(280.050581 279.160764)scale(0.1 -0.1)">
     <use xlink:href="#DejaVuSans-51"/>
     <use x="63.623047" xlink:href="#DejaVuSans-57"/>
    </g>
   </g>
   <g id="text_56">
    <!-- 40 -->
    <g style="fill:#6495ed;" transform="translate(269.906808 285.028361)scale(0.1 -0.1)">
     <use xlink:href="#DejaVuSans-52"/>
     <use x="63.623047" xlink:href="#DejaVuSans-48"/>
    </g>
   </g>
   <g id="text_57">
    <!-- 41 -->
    <g style="fill:#dda0dd;" transform="translate(263.862235 315.223832)scale(0.1 -0.1)">
     <use xlink:href="#DejaVuSans-52"/>
     <use x="63.623047" xlink:href="#DejaVuSans-49"/>
    </g>
   </g>
   <g id="text_58">
    <!-- 42 -->
    <g style="fill:#90ee90;" transform="translate(244.315751 347.43654)scale(0.1 -0.1)">
     <use xlink:href="#DejaVuSans-52"/>
     <use x="63.623047" xlink:href="#DejaVuSans-50"/>
    </g>
   </g>
   <g id="text_59">
    <!-- 43 -->
    <g style="fill:#7b68ee;" transform="translate(275.016036 310.735722)scale(0.1 -0.1)">
     <use xlink:href="#DejaVuSans-52"/>
     <use x="63.623047" xlink:href="#DejaVuSans-51"/>
    </g>
   </g>
   <g id="text_60">
    <!-- 44 -->
    <g style="fill:#afeeee;" transform="translate(259.159398 372.137549)scale(0.1 -0.1)">
     <use xlink:href="#DejaVuSans-52"/>
     <use x="63.623047" xlink:href="#DejaVuSans-52"/>
    </g>
   </g>
   <g id="text_61">
    <!-- 45 -->
    <g style="fill:#7fffd4;" transform="translate(266.645337 305.374581)scale(0.1 -0.1)">
     <use xlink:href="#DejaVuSans-52"/>
     <use x="63.623047" xlink:href="#DejaVuSans-53"/>
    </g>
   </g>
   <g id="text_62">
    <!-- 46 -->
    <g style="fill:#ff69b4;" transform="translate(280.530396 301.915238)scale(0.1 -0.1)">
     <use xlink:href="#DejaVuSans-52"/>
     <use x="63.623047" xlink:href="#DejaVuSans-54"/>
    </g>
   </g>
   <g id="text_63">
    <!-- 47 -->
    <g style="fill:#ffb6c1;" transform="translate(284.473335 308.426276)scale(0.1 -0.1)">
     <use xlink:href="#DejaVuSans-52"/>
     <use x="63.623047" xlink:href="#DejaVuSans-55"/>
    </g>
   </g>
  </g>
 </g>
 <defs>
  <clipPath id="p8d7520d868">
   <rect height="498.96" width="390.6" x="63" y="77.76"/>
  </clipPath>
 </defs>
</svg>
