<?xml version="1.0" encoding="utf-8" standalone="no"?>
<!DOCTYPE svg PUBLIC "-//W3C//DTD SVG 1.1//EN"
  "http://www.w3.org/Graphics/SVG/1.1/DTD/svg11.dtd">
<!-- Created with matplotlib (https://matplotlib.org/) -->
<svg height="648pt" version="1.1" viewBox="0 0 504 648" width="504pt" xmlns="http://www.w3.org/2000/svg" xmlns:xlink="http://www.w3.org/1999/xlink">
 <metadata>
  <rdf:RDF xmlns:cc="http://creativecommons.org/ns#" xmlns:dc="http://purl.org/dc/elements/1.1/" xmlns:rdf="http://www.w3.org/1999/02/22-rdf-syntax-ns#">
   <cc:Work>
    <dc:type rdf:resource="http://purl.org/dc/dcmitype/StillImage"/>
    <dc:date>2023-06-14T23:52:22.530658</dc:date>
    <dc:format>image/svg+xml</dc:format>
    <dc:creator>
     <cc:Agent>
      <dc:title>Matplotlib v3.3.4, https://matplotlib.org/</dc:title>
     </cc:Agent>
    </dc:creator>
   </cc:Work>
  </rdf:RDF>
 </metadata>
 <defs>
  <style type="text/css">*{stroke-linecap:butt;stroke-linejoin:round;}</style>
 </defs>
 <g id="figure_1">
  <g id="patch_1">
   <path d="M 0 648 
L 504 648 
L 504 0 
L 0 0 
z
" style="fill:#ffffff;"/>
  </g>
  <g id="axes_1">
   <g id="patch_2">
    <path d="M 63 576.72 
L 453.6 576.72 
L 453.6 77.76 
L 63 77.76 
z
" style="fill:#ffffff;"/>
   </g>
   <g id="PathCollection_1">
    <path clip-path="url(#p38522c3be2)" d="M 243.623366 402.650475 
C 245.920092 402.650475 248.12306 401.737976 249.74709 400.113945 
C 251.371121 398.489915 252.28362 396.286947 252.28362 393.990221 
C 252.28362 391.693495 251.371121 389.490527 249.74709 387.866496 
C 248.12306 386.242466 245.920092 385.329967 243.623366 385.329967 
C 241.32664 385.329967 239.123672 386.242466 237.499642 387.866496 
C 235.875611 389.490527 234.963112 391.693495 234.963112 393.990221 
C 234.963112 396.286947 235.875611 398.489915 237.499642 400.113945 
C 239.123672 401.737976 241.32664 402.650475 243.623366 402.650475 
z
" style="fill:#556b2f;stroke:#556b2f;"/>
    <path clip-path="url(#p38522c3be2)" d="M 275.106543 325.910201 
C 277.758574 325.910201 280.302342 324.856537 282.177611 322.981268 
C 284.05288 321.105999 285.106543 318.562232 285.106543 315.910201 
C 285.106543 313.25817 284.05288 310.714402 282.177611 308.839133 
C 280.302342 306.963864 277.758574 305.910201 275.106543 305.910201 
C 272.454512 305.910201 269.910745 306.963864 268.035476 308.839133 
C 266.160207 310.714402 265.106543 313.25817 265.106543 315.910201 
C 265.106543 318.562232 266.160207 321.105999 268.035476 322.981268 
C 269.910745 324.856537 272.454512 325.910201 275.106543 325.910201 
z
" style="fill:#228b22;stroke:#228b22;"/>
    <path clip-path="url(#p38522c3be2)" d="M 261.317982 332.462972 
C 263.798729 332.462972 266.178206 331.477361 267.93236 329.723207 
C 269.686513 327.969053 270.672125 325.589577 270.672125 323.108829 
C 270.672125 320.628081 269.686513 318.248604 267.93236 316.494451 
C 266.178206 314.740297 263.798729 313.754685 261.317982 313.754685 
C 258.837234 313.754685 256.457757 314.740297 254.703603 316.494451 
C 252.94945 318.248604 251.963838 320.628081 251.963838 323.108829 
C 251.963838 325.589577 252.94945 327.969053 254.703603 329.723207 
C 256.457757 331.477361 258.837234 332.462972 261.317982 332.462972 
z
" style="fill:#8b0000;stroke:#8b0000;"/>
    <path clip-path="url(#p38522c3be2)" d="M 241.410725 -674.08864 
C 242.736741 -674.08864 244.008624 -674.615471 244.946259 -675.553106 
C 245.883893 -676.49074 246.410725 -677.762624 246.410725 -679.08864 
C 246.410725 -680.414655 245.883893 -681.686539 244.946259 -682.624173 
C 244.008624 -683.561808 242.736741 -684.08864 241.410725 -684.08864 
C 240.08471 -684.08864 238.812826 -683.561808 237.875191 -682.624173 
C 236.937557 -681.686539 236.410725 -680.414655 236.410725 -679.08864 
C 236.410725 -677.762624 236.937557 -676.49074 237.875191 -675.553106 
C 238.812826 -674.615471 240.08471 -674.08864 241.410725 -674.08864 
z
" style="fill:#008080;stroke:#008080;"/>
    <path clip-path="url(#p38522c3be2)" d="M 226.877206 303.569772 
C 228.97382 303.569772 230.984845 302.736778 232.467376 301.254247 
C 233.949906 299.771717 234.7829 297.760692 234.7829 295.664077 
C 234.7829 293.567463 233.949906 291.556438 232.467376 290.073907 
C 230.984845 288.591377 228.97382 287.758383 226.877206 287.758383 
C 224.780591 287.758383 222.769566 288.591377 221.287036 290.073907 
C 219.804505 291.556438 218.971512 293.567463 218.971512 295.664077 
C 218.971512 297.760692 219.804505 299.771717 221.287036 301.254247 
C 222.769566 302.736778 224.780591 303.569772 226.877206 303.569772 
z
" style="fill:#b8860b;stroke:#b8860b;"/>
    <path clip-path="url(#p38522c3be2)" d="M 264.822002 281.037079 
C 266.148018 281.037079 267.419902 280.510248 268.357536 279.572613 
C 269.295171 278.634979 269.822002 277.363095 269.822002 276.037079 
C 269.822002 274.711064 269.295171 273.43918 268.357536 272.501545 
C 267.419902 271.563911 266.148018 271.037079 264.822002 271.037079 
C 263.495987 271.037079 262.224103 271.563911 261.286468 272.501545 
C 260.348834 273.43918 259.822002 274.711064 259.822002 276.037079 
C 259.822002 277.363095 260.348834 278.634979 261.286468 279.572613 
C 262.224103 280.510248 263.495987 281.037079 264.822002 281.037079 
z
" style="fill:#4682b4;stroke:#4682b4;"/>
    <path clip-path="url(#p38522c3be2)" d="M 256.578988 366.478759 
C 258.875714 366.478759 261.078681 365.56626 262.702712 363.942229 
C 264.326743 362.318199 265.239242 360.115231 265.239242 357.818505 
C 265.239242 355.521779 264.326743 353.318811 262.702712 351.69478 
C 261.078681 350.07075 258.875714 349.158251 256.578988 349.158251 
C 254.282262 349.158251 252.079294 350.07075 250.455263 351.69478 
C 248.831233 353.318811 247.918734 355.521779 247.918734 357.818505 
C 247.918734 360.115231 248.831233 362.318199 250.455263 363.942229 
C 252.079294 365.56626 254.282262 366.478759 256.578988 366.478759 
z
" style="fill:#9acd32;stroke:#9acd32;"/>
    <path clip-path="url(#p38522c3be2)" d="M 262.041767 313.48487 
C 264.338493 313.48487 266.54146 312.572371 268.165491 310.94834 
C 269.789522 309.324309 270.702021 307.121342 270.702021 304.824615 
C 270.702021 302.527889 269.789522 300.324922 268.165491 298.700891 
C 266.54146 297.07686 264.338493 296.164361 262.041767 296.164361 
C 259.74504 296.164361 257.542073 297.07686 255.918042 298.700891 
C 254.294012 300.324922 253.381513 302.527889 253.381513 304.824615 
C 253.381513 307.121342 254.294012 309.324309 255.918042 310.94834 
C 257.542073 312.572371 259.74504 313.48487 262.041767 313.48487 
z
" style="fill:#800080;stroke:#800080;"/>
    <path clip-path="url(#p38522c3be2)" d="M 261.414656 397.037915 
C 263.289925 397.037915 265.08864 396.292863 266.414656 394.966848 
C 267.740671 393.640832 268.485723 391.842117 268.485723 389.966848 
C 268.485723 388.091579 267.740671 386.292863 266.414656 384.966848 
C 265.08864 383.640832 263.289925 382.89578 261.414656 382.89578 
C 259.539387 382.89578 257.740671 383.640832 256.414656 384.966848 
C 255.08864 386.292863 254.343588 388.091579 254.343588 389.966848 
C 254.343588 391.842117 255.08864 393.640832 256.414656 394.966848 
C 257.740671 396.292863 259.539387 397.037915 261.414656 397.037915 
z
" style="fill:#b03060;stroke:#b03060;"/>
    <path clip-path="url(#p38522c3be2)" d="M 265.53289 273.056644 
C 268.780952 273.056644 271.896418 271.766176 274.193144 269.469449 
C 276.489871 267.172723 277.780339 264.057257 277.780339 260.809195 
C 277.780339 257.561134 276.489871 254.445667 274.193144 252.148941 
C 271.896418 249.852215 268.780952 248.561747 265.53289 248.561747 
C 262.284829 248.561747 259.169363 249.852215 256.872636 252.148941 
C 254.57591 254.445667 253.285442 257.561134 253.285442 260.809195 
C 253.285442 264.057257 254.57591 267.172723 256.872636 269.469449 
C 259.169363 271.766176 262.284829 273.056644 265.53289 273.056644 
z
" style="fill:#9932cc;stroke:#9932cc;"/>
    <path clip-path="url(#p38522c3be2)" d="M 276.006754 322.803739 
C 277.630785 322.803739 279.188518 322.158504 280.336881 321.010141 
C 281.485244 319.861778 282.130478 318.304045 282.130478 316.680014 
C 282.130478 315.055983 281.485244 313.49825 280.336881 312.349887 
C 279.188518 311.201524 277.630785 310.55629 276.006754 310.55629 
C 274.382723 310.55629 272.82499 311.201524 271.676627 312.349887 
C 270.528264 313.49825 269.88303 315.055983 269.88303 316.680014 
C 269.88303 318.304045 270.528264 319.861778 271.676627 321.010141 
C 272.82499 322.158504 274.382723 322.803739 276.006754 322.803739 
z
" style="fill:#00ced1;stroke:#00ced1;"/>
    <path clip-path="url(#p38522c3be2)" d="M 230.380394 420.484812 
C 233.032425 420.484812 235.576193 419.431149 237.451462 417.55588 
C 239.326731 415.680611 240.380394 413.136843 240.380394 410.484812 
C 240.380394 407.832781 239.326731 405.289013 237.451462 403.413744 
C 235.576193 401.538475 233.032425 400.484812 230.380394 400.484812 
C 227.728363 400.484812 225.184595 401.538475 223.309326 403.413744 
C 221.434057 405.289013 220.380394 407.832781 220.380394 410.484812 
C 220.380394 413.136843 221.434057 415.680611 223.309326 417.55588 
C 225.184595 419.431149 227.728363 420.484812 230.380394 420.484812 
z
" style="fill:#ff8c00;stroke:#ff8c00;"/>
    <path clip-path="url(#p38522c3be2)" d="M 272.639745 269.190197 
C 275.291776 269.190197 277.835544 268.136534 279.710813 266.261265 
C 281.586082 264.385995 282.639745 261.842228 282.639745 259.190197 
C 282.639745 256.538166 281.586082 253.994398 279.710813 252.119129 
C 277.835544 250.24386 275.291776 249.190197 272.639745 249.190197 
C 269.987714 249.190197 267.443947 250.24386 265.568678 252.119129 
C 263.693408 253.994398 262.639745 256.538166 262.639745 259.190197 
C 262.639745 261.842228 263.693408 264.385995 265.568678 266.261265 
C 267.443947 268.136534 269.987714 269.190197 272.639745 269.190197 
z
" style="fill:#0000cd;stroke:#0000cd;"/>
    <path clip-path="url(#p38522c3be2)" d="M 248.057382 358.94734 
C 249.932651 358.94734 251.731367 358.202288 253.057382 356.876272 
C 254.383398 355.550257 255.12845 353.751542 255.12845 351.876272 
C 255.12845 350.001003 254.383398 348.202288 253.057382 346.876272 
C 251.731367 345.550257 249.932651 344.805205 248.057382 344.805205 
C 246.182113 344.805205 244.383398 345.550257 243.057382 346.876272 
C 241.731367 348.202288 240.986314 350.001003 240.986314 351.876272 
C 240.986314 353.751542 241.731367 355.550257 243.057382 356.876272 
C 244.383398 358.202288 246.182113 358.94734 248.057382 358.94734 
z
" style="fill:#00ff00;stroke:#00ff00;"/>
    <path clip-path="url(#p38522c3be2)" d="M 273.009951 331.558328 
C 274.633981 331.558328 276.191715 330.913093 277.340078 329.76473 
C 278.488441 328.616367 279.133675 327.058634 279.133675 325.434603 
C 279.133675 323.810573 278.488441 322.252839 277.340078 321.104476 
C 276.191715 319.956113 274.633981 319.310879 273.009951 319.310879 
C 271.38592 319.310879 269.828187 319.956113 268.679824 321.104476 
C 267.531461 322.252839 266.886226 323.810573 266.886226 325.434603 
C 266.886226 327.058634 267.531461 328.616367 268.679824 329.76473 
C 269.828187 330.913093 271.38592 331.558328 273.009951 331.558328 
z
" style="fill:#00fa9a;stroke:#00fa9a;"/>
    <path clip-path="url(#p38522c3be2)" d="M 267.213269 319.173786 
C 269.088538 319.173786 270.887253 318.428734 272.213269 317.102718 
C 273.539284 315.776703 274.284337 313.977987 274.284337 312.102718 
C 274.284337 310.227449 273.539284 308.428734 272.213269 307.102718 
C 270.887253 305.776703 269.088538 305.03165 267.213269 305.03165 
C 265.338 305.03165 263.539284 305.776703 262.213269 307.102718 
C 260.887253 308.428734 260.142201 310.227449 260.142201 312.102718 
C 260.142201 313.977987 260.887253 315.776703 262.213269 317.102718 
C 263.539284 318.428734 265.338 319.173786 267.213269 319.173786 
z
" style="fill:#dc143c;stroke:#dc143c;"/>
    <path clip-path="url(#p38522c3be2)" d="M 230.993829 273.995709 
C 233.090444 273.995709 235.101469 273.162715 236.583999 271.680185 
C 238.066529 270.197654 238.899523 268.186629 238.899523 266.090015 
C 238.899523 263.9934 238.066529 261.982375 236.583999 260.499845 
C 235.101469 259.017314 233.090444 258.184321 230.993829 258.184321 
C 228.897214 258.184321 226.88619 259.017314 225.403659 260.499845 
C 223.921129 261.982375 223.088135 263.9934 223.088135 266.090015 
C 223.088135 268.186629 223.921129 270.197654 225.403659 271.680185 
C 226.88619 273.162715 228.897214 273.995709 230.993829 273.995709 
z
" style="fill:#00bfff;stroke:#00bfff;"/>
    <path clip-path="url(#p38522c3be2)" d="M 249.781615 364.96227 
C 251.87823 364.96227 253.889255 364.129276 255.371785 362.646745 
C 256.854316 361.164215 257.68731 359.15319 257.68731 357.056575 
C 257.68731 354.959961 256.854316 352.948936 255.371785 351.466405 
C 253.889255 349.983875 251.87823 349.150881 249.781615 349.150881 
C 247.685001 349.150881 245.673976 349.983875 244.191445 351.466405 
C 242.708915 352.948936 241.875921 354.959961 241.875921 357.056575 
C 241.875921 359.15319 242.708915 361.164215 244.191445 362.646745 
C 245.673976 364.129276 247.685001 364.96227 249.781615 364.96227 
z
" style="fill:#f4a460;stroke:#f4a460;"/>
    <path clip-path="url(#p38522c3be2)" d="M 210.625756 354.315353 
C 212.249787 354.315353 213.80752 353.670119 214.955883 352.521756 
C 216.104246 351.373393 216.749481 349.815659 216.749481 348.191629 
C 216.749481 346.567598 216.104246 345.009865 214.955883 343.861502 
C 213.80752 342.713138 212.249787 342.067904 210.625756 342.067904 
C 209.001726 342.067904 207.443992 342.713138 206.295629 343.861502 
C 205.147266 345.009865 204.502032 346.567598 204.502032 348.191629 
C 204.502032 349.815659 205.147266 351.373393 206.295629 352.521756 
C 207.443992 353.670119 209.001726 354.315353 210.625756 354.315353 
z
" style="fill:#a020f0;stroke:#a020f0;"/>
    <path clip-path="url(#p38522c3be2)" d="M 270.856925 290.749639 
C 273.153651 290.749639 275.356619 289.83714 276.98065 288.213109 
C 278.60468 286.589078 279.517179 284.386111 279.517179 282.089385 
C 279.517179 279.792659 278.60468 277.589691 276.98065 275.96566 
C 275.356619 274.34163 273.153651 273.429131 270.856925 273.429131 
C 268.560199 273.429131 266.357232 274.34163 264.733201 275.96566 
C 263.10917 277.589691 262.196671 279.792659 262.196671 282.089385 
C 262.196671 284.386111 263.10917 286.589078 264.733201 288.213109 
C 266.357232 289.83714 268.560199 290.749639 270.856925 290.749639 
z
" style="fill:#adff2f;stroke:#adff2f;"/>
    <path clip-path="url(#p38522c3be2)" d="M 254.850154 308.801788 
C 256.474185 308.801788 258.031918 308.156554 259.180282 307.008191 
C 260.328645 305.859828 260.973879 304.302095 260.973879 302.678064 
C 260.973879 301.054033 260.328645 299.4963 259.180282 298.347937 
C 258.031918 297.199574 256.474185 296.55434 254.850154 296.55434 
C 253.226124 296.55434 251.668391 297.199574 250.520027 298.347937 
C 249.371664 299.4963 248.72643 301.054033 248.72643 302.678064 
C 248.72643 304.302095 249.371664 305.859828 250.520027 307.008191 
C 251.668391 308.156554 253.226124 308.801788 254.850154 308.801788 
z
" style="fill:#ff6347;stroke:#ff6347;"/>
    <path clip-path="url(#p38522c3be2)" d="M 254.857144 273.596921 
C 256.953759 273.596921 258.964784 272.763927 260.447314 271.281397 
C 261.929844 269.798866 262.762838 267.787841 262.762838 265.691227 
C 262.762838 263.594612 261.929844 261.583587 260.447314 260.101057 
C 258.964784 258.618526 256.953759 257.785532 254.857144 257.785532 
C 252.760529 257.785532 250.749504 258.618526 249.266974 260.101057 
C 247.784444 261.583587 246.95145 263.594612 246.95145 265.691227 
C 246.95145 267.787841 247.784444 269.798866 249.266974 271.281397 
C 250.749504 272.763927 252.760529 273.596921 254.857144 273.596921 
z
" style="fill:#da70d6;stroke:#da70d6;"/>
    <path clip-path="url(#p38522c3be2)" d="M 264.808475 341.948921 
C 266.683744 341.948921 268.482459 341.203869 269.808475 339.877853 
C 271.13449 338.551838 271.879543 336.753122 271.879543 334.877853 
C 271.879543 333.002584 271.13449 331.203869 269.808475 329.877853 
C 268.482459 328.551838 266.683744 327.806785 264.808475 327.806785 
C 262.933206 327.806785 261.13449 328.551838 259.808475 329.877853 
C 258.482459 331.203869 257.737407 333.002584 257.737407 334.877853 
C 257.737407 336.753122 258.482459 338.551838 259.808475 339.877853 
C 261.13449 341.203869 262.933206 341.948921 264.808475 341.948921 
z
" style="fill:#b0c4de;stroke:#b0c4de;"/>
    <path clip-path="url(#p38522c3be2)" d="M 264.431191 289.940159 
C 266.911939 289.940159 269.291416 288.954547 271.04557 287.200394 
C 272.799723 285.44624 273.785335 283.066763 273.785335 280.586015 
C 273.785335 278.105268 272.799723 275.725791 271.04557 273.971637 
C 269.291416 272.217484 266.911939 271.231872 264.431191 271.231872 
C 261.950443 271.231872 259.570967 272.217484 257.816813 273.971637 
C 256.062659 275.725791 255.077048 278.105268 255.077048 280.586015 
C 255.077048 283.066763 256.062659 285.44624 257.816813 287.200394 
C 259.570967 288.954547 261.950443 289.940159 264.431191 289.940159 
z
" style="fill:#ff00ff;stroke:#ff00ff;"/>
    <path clip-path="url(#p38522c3be2)" d="M 273.899625 345.01078 
C 275.996239 345.01078 278.007264 344.177787 279.489795 342.695256 
C 280.972325 341.212726 281.805319 339.201701 281.805319 337.105086 
C 281.805319 335.008472 280.972325 332.997447 279.489795 331.514916 
C 278.007264 330.032386 275.996239 329.199392 273.899625 329.199392 
C 271.80301 329.199392 269.791985 330.032386 268.309455 331.514916 
C 266.826925 332.997447 265.993931 335.008472 265.993931 337.105086 
C 265.993931 339.201701 266.826925 341.212726 268.309455 342.695256 
C 269.791985 344.177787 271.80301 345.01078 273.899625 345.01078 
z
" style="fill:#f0e68c;stroke:#f0e68c;"/>
    <path clip-path="url(#p38522c3be2)" d="M 254.120787 315.568693 
C 255.446802 315.568693 256.718686 315.041861 257.656321 314.104227 
C 258.593955 313.166592 259.120787 311.894708 259.120787 310.568693 
C 259.120787 309.242677 258.593955 307.970794 257.656321 307.033159 
C 256.718686 306.095524 255.446802 305.568693 254.120787 305.568693 
C 252.794771 305.568693 251.522887 306.095524 250.585253 307.033159 
C 249.647618 307.970794 249.120787 309.242677 249.120787 310.568693 
C 249.120787 311.894708 249.647618 313.166592 250.585253 314.104227 
C 251.522887 315.041861 252.794771 315.568693 254.120787 315.568693 
z
" style="fill:#fa8072;stroke:#fa8072;"/>
    <path clip-path="url(#p38522c3be2)" d="M 260.650494 286.040488 
C 262.274525 286.040488 263.832258 285.395254 264.980621 284.246891 
C 266.128984 283.098528 266.774218 281.540795 266.774218 279.916764 
C 266.774218 278.292733 266.128984 276.735 264.980621 275.586637 
C 263.832258 274.438274 262.274525 273.793039 260.650494 273.793039 
C 259.026463 273.793039 257.46873 274.438274 256.320367 275.586637 
C 255.172004 276.735 254.52677 278.292733 254.52677 279.916764 
C 254.52677 281.540795 255.172004 283.098528 256.320367 284.246891 
C 257.46873 285.395254 259.026463 286.040488 260.650494 286.040488 
z
" style="fill:#ffff54;stroke:#ffff54;"/>
    <path clip-path="url(#p38522c3be2)" d="M 259.345751 252.176816 
C 260.671766 252.176816 261.94365 251.649984 262.881285 250.71235 
C 263.818919 249.774715 264.345751 248.502831 264.345751 247.176816 
C 264.345751 245.8508 263.818919 244.578916 262.881285 243.641282 
C 261.94365 242.703647 260.671766 242.176816 259.345751 242.176816 
C 258.019735 242.176816 256.747851 242.703647 255.810217 243.641282 
C 254.872582 244.578916 254.345751 245.8508 254.345751 247.176816 
C 254.345751 248.502831 254.872582 249.774715 255.810217 250.71235 
C 256.747851 251.649984 258.019735 252.176816 259.345751 252.176816 
z
" style="fill:#6495ed;stroke:#6495ed;"/>
    <path clip-path="url(#p38522c3be2)" d="M 245.294847 322.103556 
C 246.918878 322.103556 248.476611 321.458322 249.624974 320.309959 
C 250.773338 319.161596 251.418572 317.603862 251.418572 315.979832 
C 251.418572 314.355801 250.773338 312.798068 249.624974 311.649705 
C 248.476611 310.501342 246.918878 309.856107 245.294847 309.856107 
C 243.670817 309.856107 242.113084 310.501342 240.96472 311.649705 
C 239.816357 312.798068 239.171123 314.355801 239.171123 315.979832 
C 239.171123 317.603862 239.816357 319.161596 240.96472 320.309959 
C 242.113084 321.458322 243.670817 322.103556 245.294847 322.103556 
z
" style="fill:#dda0dd;stroke:#dda0dd;"/>
    <path clip-path="url(#p38522c3be2)" d="M 252.498841 355.263608 
C 254.37411 355.263608 256.172825 354.518556 257.498841 353.19254 
C 258.824856 351.866525 259.569909 350.067809 259.569909 348.19254 
C 259.569909 346.317271 258.824856 344.518556 257.498841 343.19254 
C 256.172825 341.866525 254.37411 341.121472 252.498841 341.121472 
C 250.623572 341.121472 248.824856 341.866525 247.498841 343.19254 
C 246.172825 344.518556 245.427773 346.317271 245.427773 348.19254 
C 245.427773 350.067809 246.172825 351.866525 247.498841 353.19254 
C 248.824856 354.518556 250.623572 355.263608 252.498841 355.263608 
z
" style="fill:#90ee90;stroke:#90ee90;"/>
    <path clip-path="url(#p38522c3be2)" d="M 251.95825 308.794963 
C 253.582281 308.794963 255.140014 308.149728 256.288377 307.001365 
C 257.43674 305.853002 258.081974 304.295269 258.081974 302.671238 
C 258.081974 301.047207 257.43674 299.489474 256.288377 298.341111 
C 255.140014 297.192748 253.582281 296.547514 251.95825 296.547514 
C 250.334219 296.547514 248.776486 297.192748 247.628123 298.341111 
C 246.47976 299.489474 245.834526 301.047207 245.834526 302.671238 
C 245.834526 304.295269 246.47976 305.853002 247.628123 307.001365 
C 248.776486 308.149728 250.334219 308.794963 251.95825 308.794963 
z
" style="fill:#ff69b4;stroke:#ff69b4;"/>
    <path clip-path="url(#p38522c3be2)" d="M 262.531329 317.093579 
C 263.857344 317.093579 265.129228 316.566747 266.066863 315.629113 
C 267.004497 314.691478 267.531329 313.419594 267.531329 312.093579 
C 267.531329 310.767563 267.004497 309.49568 266.066863 308.558045 
C 265.129228 307.62041 263.857344 307.093579 262.531329 307.093579 
C 261.205313 307.093579 259.933429 307.62041 258.995795 308.558045 
C 258.05816 309.49568 257.531329 310.767563 257.531329 312.093579 
C 257.531329 313.419594 258.05816 314.691478 258.995795 315.629113 
C 259.933429 316.566747 261.205313 317.093579 262.531329 317.093579 
z
" style="fill:#8b4513;stroke:#8b4513;"/>
    <path clip-path="url(#p38522c3be2)" d="M 253.552113 317.120398 
C 254.878129 317.120398 256.150012 316.593566 257.087647 315.655932 
C 258.025282 314.718297 258.552113 313.446413 258.552113 312.120398 
C 258.552113 310.794382 258.025282 309.522498 257.087647 308.584864 
C 256.150012 307.647229 254.878129 307.120398 253.552113 307.120398 
C 252.226098 307.120398 250.954214 307.647229 250.016579 308.584864 
C 249.078945 309.522498 248.552113 310.794382 248.552113 312.120398 
C 248.552113 313.446413 249.078945 314.718297 250.016579 315.655932 
C 250.954214 316.593566 252.226098 317.120398 253.552113 317.120398 
z
" style="fill:#2e8b57;stroke:#2e8b57;"/>
    <path clip-path="url(#p38522c3be2)" d="M 238.65813 -629.384349 
C 239.984146 -629.384349 241.25603 -629.911181 242.193664 -630.848816 
C 243.131299 -631.78645 243.65813 -633.058334 243.65813 -634.384349 
C 243.65813 -635.710365 243.131299 -636.982249 242.193664 -637.919883 
C 241.25603 -638.857518 239.984146 -639.384349 238.65813 -639.384349 
C 237.332115 -639.384349 236.060231 -638.857518 235.122596 -637.919883 
C 234.184962 -636.982249 233.65813 -635.710365 233.65813 -634.384349 
C 233.65813 -633.058334 234.184962 -631.78645 235.122596 -630.848816 
C 236.060231 -629.911181 237.332115 -629.384349 238.65813 -629.384349 
z
" style="fill:#228b22;stroke:#228b22;"/>
    <path clip-path="url(#p38522c3be2)" d="M 233.013583 294.362132 
C 234.339599 294.362132 235.611483 293.835301 236.549117 292.897666 
C 237.486752 291.960032 238.013583 290.688148 238.013583 289.362132 
C 238.013583 288.036117 237.486752 286.764233 236.549117 285.826598 
C 235.611483 284.888964 234.339599 284.362132 233.013583 284.362132 
C 231.687568 284.362132 230.415684 284.888964 229.478049 285.826598 
C 228.540415 286.764233 228.013583 288.036117 228.013583 289.362132 
C 228.013583 290.688148 228.540415 291.960032 229.478049 292.897666 
C 230.415684 293.835301 231.687568 294.362132 233.013583 294.362132 
z
" style="fill:#8b0000;stroke:#8b0000;"/>
    <path clip-path="url(#p38522c3be2)" d="M 253.693403 -613.330356 
C 255.317434 -613.330356 256.875167 -613.97559 258.02353 -615.123953 
C 259.171894 -616.272316 259.817128 -617.83005 259.817128 -619.45408 
C 259.817128 -621.078111 259.171894 -622.635844 258.02353 -623.784207 
C 256.875167 -624.93257 255.317434 -625.577805 253.693403 -625.577805 
C 252.069373 -625.577805 250.511639 -624.93257 249.363276 -623.784207 
C 248.214913 -622.635844 247.569679 -621.078111 247.569679 -619.45408 
C 247.569679 -617.83005 248.214913 -616.272316 249.363276 -615.123953 
C 250.511639 -613.97559 252.069373 -613.330356 253.693403 -613.330356 
z
" style="fill:#008080;stroke:#008080;"/>
    <path clip-path="url(#p38522c3be2)" d="M 272.113837 315.422799 
C 273.439853 315.422799 274.711737 314.895968 275.649371 313.958333 
C 276.587006 313.020698 277.113837 311.748815 277.113837 310.422799 
C 277.113837 309.096784 276.587006 307.8249 275.649371 306.887265 
C 274.711737 305.949631 273.439853 305.422799 272.113837 305.422799 
C 270.787822 305.422799 269.515938 305.949631 268.578303 306.887265 
C 267.640669 307.8249 267.113837 309.096784 267.113837 310.422799 
C 267.113837 311.748815 267.640669 313.020698 268.578303 313.958333 
C 269.515938 314.895968 270.787822 315.422799 272.113837 315.422799 
z
" style="fill:#b8860b;stroke:#b8860b;"/>
    <path clip-path="url(#p38522c3be2)" d="M 217.941153 279.661435 
C 219.816422 279.661435 221.615138 278.916382 222.941153 277.590367 
C 224.267169 276.264351 225.012221 274.465636 225.012221 272.590367 
C 225.012221 270.715098 224.267169 268.916382 222.941153 267.590367 
C 221.615138 266.264351 219.816422 265.519299 217.941153 265.519299 
C 216.065884 265.519299 214.267169 266.264351 212.941153 267.590367 
C 211.615138 268.916382 210.870085 270.715098 210.870085 272.590367 
C 210.870085 274.465636 211.615138 276.264351 212.941153 277.590367 
C 214.267169 278.916382 216.065884 279.661435 217.941153 279.661435 
z
" style="fill:#d2691e;stroke:#d2691e;"/>
    <path clip-path="url(#p38522c3be2)" d="M 268.887931 303.808555 
C 270.213946 303.808555 271.48583 303.281724 272.423465 302.344089 
C 273.361099 301.406455 273.887931 300.134571 273.887931 298.808555 
C 273.887931 297.48254 273.361099 296.210656 272.423465 295.273021 
C 271.48583 294.335387 270.213946 293.808555 268.887931 293.808555 
C 267.561915 293.808555 266.290032 294.335387 265.352397 295.273021 
C 264.414762 296.210656 263.887931 297.48254 263.887931 298.808555 
C 263.887931 300.134571 264.414762 301.406455 265.352397 302.344089 
C 266.290032 303.281724 267.561915 303.808555 268.887931 303.808555 
z
" style="fill:#b03060;stroke:#b03060;"/>
    <path clip-path="url(#p38522c3be2)" d="M 275.1869 -650.784059 
C 276.810931 -650.784059 278.368664 -651.429293 279.517027 -652.577656 
C 280.66539 -653.726019 281.310625 -655.283752 281.310625 -656.907783 
C 281.310625 -658.531814 280.66539 -660.089547 279.517027 -661.23791 
C 278.368664 -662.386273 276.810931 -663.031507 275.1869 -663.031507 
C 273.56287 -663.031507 272.005136 -662.386273 270.856773 -661.23791 
C 269.70841 -660.089547 269.063176 -658.531814 269.063176 -656.907783 
C 269.063176 -655.283752 269.70841 -653.726019 270.856773 -652.577656 
C 272.005136 -651.429293 273.56287 -650.784059 275.1869 -650.784059 
z
" style="fill:#9932cc;stroke:#9932cc;"/>
    <path clip-path="url(#p38522c3be2)" d="M 253.195491 286.040488 
C 254.819521 286.040488 256.377255 285.395254 257.525618 284.246891 
C 258.673981 283.098528 259.319215 281.540795 259.319215 279.916764 
C 259.319215 278.292733 258.673981 276.735 257.525618 275.586637 
C 256.377255 274.438274 254.819521 273.793039 253.195491 273.793039 
C 251.57146 273.793039 250.013727 274.438274 248.865364 275.586637 
C 247.717001 276.735 247.071766 278.292733 247.071766 279.916764 
C 247.071766 281.540795 247.717001 283.098528 248.865364 284.246891 
C 250.013727 285.395254 251.57146 286.040488 253.195491 286.040488 
z
" style="fill:#00ced1;stroke:#00ced1;"/>
    <path clip-path="url(#p38522c3be2)" d="M 254.197846 1261.997657 
C 255.523862 1261.997657 256.795746 1261.470825 257.73338 1260.53319 
C 258.671015 1259.595556 259.197846 1258.323672 259.197846 1256.997657 
C 259.197846 1255.671641 258.671015 1254.399757 257.73338 1253.462123 
C 256.795746 1252.524488 255.523862 1251.997657 254.197846 1251.997657 
C 252.871831 1251.997657 251.599947 1252.524488 250.662312 1253.462123 
C 249.724678 1254.399757 249.197846 1255.671641 249.197846 1256.997657 
C 249.197846 1258.323672 249.724678 1259.595556 250.662312 1260.53319 
C 251.599947 1261.470825 252.871831 1261.997657 254.197846 1261.997657 
z
" style="fill:#0000cd;stroke:#0000cd;"/>
    <path clip-path="url(#p38522c3be2)" d="M 242.059497 -655.808573 
C 243.934767 -655.808573 245.733482 -656.553625 247.059497 -657.879641 
C 248.385513 -659.205656 249.130565 -661.004372 249.130565 -662.879641 
C 249.130565 -664.75491 248.385513 -666.553625 247.059497 -667.879641 
C 245.733482 -669.205656 243.934767 -669.950709 242.059497 -669.950709 
C 240.184228 -669.950709 238.385513 -669.205656 237.059497 -667.879641 
C 235.733482 -666.553625 234.98843 -664.75491 234.98843 -662.879641 
C 234.98843 -661.004372 235.733482 -659.205656 237.059497 -657.879641 
C 238.385513 -656.553625 240.184228 -655.808573 242.059497 -655.808573 
z
" style="fill:#f4a460;stroke:#f4a460;"/>
    <path clip-path="url(#p38522c3be2)" d="M 252.294675 277.969225 
C 254.39129 277.969225 256.402315 277.136231 257.884845 275.653701 
C 259.367376 274.17117 260.200369 272.160146 260.200369 270.063531 
C 260.200369 267.966916 259.367376 265.955891 257.884845 264.473361 
C 256.402315 262.990831 254.39129 262.157837 252.294675 262.157837 
C 250.198061 262.157837 248.187036 262.990831 246.704505 264.473361 
C 245.221975 265.955891 244.388981 267.966916 244.388981 270.063531 
C 244.388981 272.160146 245.221975 274.17117 246.704505 275.653701 
C 248.187036 277.136231 250.198061 277.969225 252.294675 277.969225 
z
" style="fill:#adff2f;stroke:#adff2f;"/>
    <path clip-path="url(#p38522c3be2)" d="M 246.856834 286.040488 
C 248.480865 286.040488 250.038598 285.395254 251.186961 284.246891 
C 252.335324 283.098528 252.980558 281.540795 252.980558 279.916764 
C 252.980558 278.292733 252.335324 276.735 251.186961 275.586637 
C 250.038598 274.438274 248.480865 273.793039 246.856834 273.793039 
C 245.232803 273.793039 243.67507 274.438274 242.526707 275.586637 
C 241.378344 276.735 240.73311 278.292733 240.73311 279.916764 
C 240.73311 281.540795 241.378344 283.098528 242.526707 284.246891 
C 243.67507 285.395254 245.232803 286.040488 246.856834 286.040488 
z
" style="fill:#da70d6;stroke:#da70d6;"/>
    <path clip-path="url(#p38522c3be2)" d="M 257.272198 -631.664892 
C 259.368812 -631.664892 261.379837 -632.497886 262.862368 -633.980417 
C 264.344898 -635.462947 265.177892 -637.473972 265.177892 -639.570587 
C 265.177892 -641.667201 264.344898 -643.678226 262.862368 -645.160757 
C 261.379837 -646.643287 259.368812 -647.476281 257.272198 -647.476281 
C 255.175583 -647.476281 253.164558 -646.643287 251.682028 -645.160757 
C 250.199497 -643.678226 249.366504 -641.667201 249.366504 -639.570587 
C 249.366504 -637.473972 250.199497 -635.462947 251.682028 -633.980417 
C 253.164558 -632.497886 255.175583 -631.664892 257.272198 -631.664892 
z
" style="fill:#b0c4de;stroke:#b0c4de;"/>
    <path clip-path="url(#p38522c3be2)" d="M 261.95448 -610.779664 
C 264.251206 -610.779664 266.454173 -611.692163 268.078204 -613.316194 
C 269.702235 -614.940225 270.614734 -617.143192 270.614734 -619.439918 
C 270.614734 -621.736644 269.702235 -623.939612 268.078204 -625.563643 
C 266.454173 -627.187673 264.251206 -628.100172 261.95448 -628.100172 
C 259.657754 -628.100172 257.454786 -627.187673 255.830755 -625.563643 
C 254.206725 -623.939612 253.294226 -621.736644 253.294226 -619.439918 
C 253.294226 -617.143192 254.206725 -614.940225 255.830755 -613.316194 
C 257.454786 -611.692163 259.657754 -610.779664 261.95448 -610.779664 
z
" style="fill:#ffff54;stroke:#ffff54;"/>
    <path clip-path="url(#p38522c3be2)" d="M 270.62659 330.438559 
C 271.952606 330.438559 273.224489 329.911728 274.162124 328.974093 
C 275.099759 328.036459 275.62659 326.764575 275.62659 325.438559 
C 275.62659 324.112544 275.099759 322.84066 274.162124 321.903025 
C 273.224489 320.965391 271.952606 320.438559 270.62659 320.438559 
C 269.300575 320.438559 268.028691 320.965391 267.091056 321.903025 
C 266.153422 322.84066 265.62659 324.112544 265.62659 325.438559 
C 265.62659 326.764575 266.153422 328.036459 267.091056 328.974093 
C 268.028691 329.911728 269.300575 330.438559 270.62659 330.438559 
z
" style="fill:#90ee90;stroke:#90ee90;"/>
    <path clip-path="url(#p38522c3be2)" d="M 251.119989 256.359569 
C 252.446004 256.359569 253.717888 255.832737 254.655523 254.895103 
C 255.593157 253.957468 256.119989 252.685584 256.119989 251.359569 
C 256.119989 250.033553 255.593157 248.761669 254.655523 247.824035 
C 253.717888 246.8864 252.446004 246.359569 251.119989 246.359569 
C 249.793973 246.359569 248.52209 246.8864 247.584455 247.824035 
C 246.64682 248.761669 246.119989 250.033553 246.119989 251.359569 
C 246.119989 252.685584 246.64682 253.957468 247.584455 254.895103 
C 248.52209 255.832737 249.793973 256.359569 251.119989 256.359569 
z
" style="fill:#7b68ee;stroke:#7b68ee;"/>
    <path clip-path="url(#p38522c3be2)" d="M 268.035808 261.715267 
C 270.332534 261.715267 272.535502 260.802768 274.159532 259.178737 
C 275.783563 257.554706 276.696062 255.351739 276.696062 253.055013 
C 276.696062 250.758287 275.783563 248.555319 274.159532 246.931288 
C 272.535502 245.307258 270.332534 244.394759 268.035808 244.394759 
C 265.739082 244.394759 263.536114 245.307258 261.912084 246.931288 
C 260.288053 248.555319 259.375554 250.758287 259.375554 253.055013 
C 259.375554 255.351739 260.288053 257.554706 261.912084 259.178737 
C 263.536114 260.802768 265.739082 261.715267 268.035808 261.715267 
z
" style="fill:#2f4f4f;stroke:#2f4f4f;"/>
    <path clip-path="url(#p38522c3be2)" d="M 266.481642 317.121661 
C 267.807657 317.121661 269.079541 316.594829 270.017176 315.657195 
C 270.95481 314.71956 271.481642 313.447676 271.481642 312.121661 
C 271.481642 310.795645 270.95481 309.523761 270.017176 308.586127 
C 269.079541 307.648492 267.807657 307.121661 266.481642 307.121661 
C 265.155626 307.121661 263.883742 307.648492 262.946108 308.586127 
C 262.008473 309.523761 261.481642 310.795645 261.481642 312.121661 
C 261.481642 313.447676 262.008473 314.71956 262.946108 315.657195 
C 263.883742 316.594829 265.155626 317.121661 266.481642 317.121661 
z
" style="fill:#8b4513;stroke:#8b4513;"/>
    <path clip-path="url(#p38522c3be2)" d="M 245.137612 286.040488 
C 246.761643 286.040488 248.319376 285.395254 249.467739 284.246891 
C 250.616102 283.098528 251.261336 281.540795 251.261336 279.916764 
C 251.261336 278.292733 250.616102 276.735 249.467739 275.586637 
C 248.319376 274.438274 246.761643 273.793039 245.137612 273.793039 
C 243.513581 273.793039 241.955848 274.438274 240.807485 275.586637 
C 239.659122 276.735 239.013888 278.292733 239.013888 279.916764 
C 239.013888 281.540795 239.659122 283.098528 240.807485 284.246891 
C 241.955848 285.395254 243.513581 286.040488 245.137612 286.040488 
z
" style="fill:#708090;stroke:#708090;"/>
    <path clip-path="url(#p38522c3be2)" d="M 240.256172 238.383726 
C 241.582188 238.383726 242.854072 237.856894 243.791706 236.91926 
C 244.729341 235.981625 245.256172 234.709741 245.256172 233.383726 
C 245.256172 232.05771 244.729341 230.785827 243.791706 229.848192 
C 242.854072 228.910557 241.582188 228.383726 240.256172 228.383726 
C 238.930157 228.383726 237.658273 228.910557 236.720638 229.848192 
C 235.783004 230.785827 235.256172 232.05771 235.256172 233.383726 
C 235.256172 234.709741 235.783004 235.981625 236.720638 236.91926 
C 237.658273 237.856894 238.930157 238.383726 240.256172 238.383726 
z
" style="fill:#8b0000;stroke:#8b0000;"/>
    <path clip-path="url(#p38522c3be2)" d="M 258.472603 -663.911457 
C 261.124634 -663.911457 263.668402 -664.96512 265.543671 -666.840389 
C 267.41894 -668.715658 268.472603 -671.259426 268.472603 -673.911457 
C 268.472603 -676.563488 267.41894 -679.107255 265.543671 -680.982524 
C 263.668402 -682.857794 261.124634 -683.911457 258.472603 -683.911457 
C 255.820572 -683.911457 253.276804 -682.857794 251.401535 -680.982524 
C 249.526266 -679.107255 248.472603 -676.563488 248.472603 -673.911457 
C 248.472603 -671.259426 249.526266 -668.715658 251.401535 -666.840389 
C 253.276804 -664.96512 255.820572 -663.911457 258.472603 -663.911457 
z
" style="fill:#b8860b;stroke:#b8860b;"/>
    <path clip-path="url(#p38522c3be2)" d="M 251.865187 303.80665 
C 253.191202 303.80665 254.463086 303.279819 255.400721 302.342184 
C 256.338355 301.40455 256.865187 300.132666 256.865187 298.80665 
C 256.865187 297.480635 256.338355 296.208751 255.400721 295.271116 
C 254.463086 294.333482 253.191202 293.80665 251.865187 293.80665 
C 250.539171 293.80665 249.267288 294.333482 248.329653 295.271116 
C 247.392018 296.208751 246.865187 297.480635 246.865187 298.80665 
C 246.865187 300.132666 247.392018 301.40455 248.329653 302.342184 
C 249.267288 303.279819 250.539171 303.80665 251.865187 303.80665 
z
" style="fill:#4682b4;stroke:#4682b4;"/>
    <path clip-path="url(#p38522c3be2)" d="M 258.211229 253.218388 
C 259.537244 253.218388 260.809128 252.691557 261.746763 251.753922 
C 262.684397 250.816287 263.211229 249.544404 263.211229 248.218388 
C 263.211229 246.892373 262.684397 245.620489 261.746763 244.682854 
C 260.809128 243.74522 259.537244 243.218388 258.211229 243.218388 
C 256.885213 243.218388 255.613329 243.74522 254.675695 244.682854 
C 253.73806 245.620489 253.211229 246.892373 253.211229 248.218388 
C 253.211229 249.544404 253.73806 250.816287 254.675695 251.753922 
C 255.613329 252.691557 256.885213 253.218388 258.211229 253.218388 
z
" style="fill:#8fbc8f;stroke:#8fbc8f;"/>
    <path clip-path="url(#p38522c3be2)" d="M 252.14855 324.447883 
C 253.474566 324.447883 254.746449 323.921051 255.684084 322.983416 
C 256.621719 322.045782 257.14855 320.773898 257.14855 319.447883 
C 257.14855 318.121867 256.621719 316.849983 255.684084 315.912349 
C 254.746449 314.974714 253.474566 314.447883 252.14855 314.447883 
C 250.822535 314.447883 249.550651 314.974714 248.613016 315.912349 
C 247.675382 316.849983 247.14855 318.121867 247.14855 319.447883 
C 247.14855 320.773898 247.675382 322.045782 248.613016 322.983416 
C 249.550651 323.921051 250.822535 324.447883 252.14855 324.447883 
z
" style="fill:#800080;stroke:#800080;"/>
    <path clip-path="url(#p38522c3be2)" d="M 268.641395 294.360426 
C 269.96741 294.360426 271.239294 293.833595 272.176929 292.89596 
C 273.114563 291.958326 273.641395 290.686442 273.641395 289.360426 
C 273.641395 288.034411 273.114563 286.762527 272.176929 285.824893 
C 271.239294 284.887258 269.96741 284.360426 268.641395 284.360426 
C 267.315379 284.360426 266.043496 284.887258 265.105861 285.824893 
C 264.168227 286.762527 263.641395 288.034411 263.641395 289.360426 
C 263.641395 290.686442 264.168227 291.958326 265.105861 292.89596 
C 266.043496 293.833595 267.315379 294.360426 268.641395 294.360426 
z
" style="fill:#b03060;stroke:#b03060;"/>
    <path clip-path="url(#p38522c3be2)" d="M 267.445676 294.362132 
C 268.771692 294.362132 270.043576 293.835301 270.98121 292.897666 
C 271.918845 291.960032 272.445676 290.688148 272.445676 289.362132 
C 272.445676 288.036117 271.918845 286.764233 270.98121 285.826598 
C 270.043576 284.888964 268.771692 284.362132 267.445676 284.362132 
C 266.119661 284.362132 264.847777 284.888964 263.910142 285.826598 
C 262.972508 286.764233 262.445676 288.036117 262.445676 289.362132 
C 262.445676 290.688148 262.972508 291.960032 263.910142 292.897666 
C 264.847777 293.835301 266.119661 294.362132 267.445676 294.362132 
z
" style="fill:#9932cc;stroke:#9932cc;"/>
    <path clip-path="url(#p38522c3be2)" d="M 245.293754 264.269371 
C 246.619769 264.269371 247.891653 263.742539 248.829288 262.804905 
C 249.766922 261.86727 250.293754 260.595386 250.293754 259.269371 
C 250.293754 257.943355 249.766922 256.671472 248.829288 255.733837 
C 247.891653 254.796202 246.619769 254.269371 245.293754 254.269371 
C 243.967738 254.269371 242.695854 254.796202 241.75822 255.733837 
C 240.820585 256.671472 240.293754 257.943355 240.293754 259.269371 
C 240.293754 260.595386 240.820585 261.86727 241.75822 262.804905 
C 242.695854 263.742539 243.967738 264.269371 245.293754 264.269371 
z
" style="fill:#ff4500;stroke:#ff4500;"/>
    <path clip-path="url(#p38522c3be2)" d="M 250.851029 294.362132 
C 252.177045 294.362132 253.448929 293.835301 254.386563 292.897666 
C 255.324198 291.960032 255.851029 290.688148 255.851029 289.362132 
C 255.851029 288.036117 255.324198 286.764233 254.386563 285.826598 
C 253.448929 284.888964 252.177045 284.362132 250.851029 284.362132 
C 249.525014 284.362132 248.25313 284.888964 247.315496 285.826598 
C 246.377861 286.764233 245.851029 288.036117 245.851029 289.362132 
C 245.851029 290.688148 246.377861 291.960032 247.315496 292.897666 
C 248.25313 293.835301 249.525014 294.362132 250.851029 294.362132 
z
" style="fill:#00ced1;stroke:#00ced1;"/>
    <path clip-path="url(#p38522c3be2)" d="M 274.760964 262.22922 
C 276.636233 262.22922 278.434948 261.484168 279.760964 260.158152 
C 281.086979 258.832137 281.832032 257.033421 281.832032 255.158152 
C 281.832032 253.282883 281.086979 251.484168 279.760964 250.158152 
C 278.434948 248.832137 276.636233 248.087084 274.760964 248.087084 
C 272.885695 248.087084 271.086979 248.832137 269.760964 250.158152 
C 268.434948 251.484168 267.689896 253.282883 267.689896 255.158152 
C 267.689896 257.033421 268.434948 258.832137 269.760964 260.158152 
C 271.086979 261.484168 272.885695 262.22922 274.760964 262.22922 
z
" style="fill:#0000cd;stroke:#0000cd;"/>
    <path clip-path="url(#p38522c3be2)" d="M 296.383268 333.78171 
C 298.007299 333.78171 299.565032 333.136476 300.713396 331.988113 
C 301.861759 330.83975 302.506993 329.282017 302.506993 327.657986 
C 302.506993 326.033955 301.861759 324.476222 300.713396 323.327859 
C 299.565032 322.179496 298.007299 321.534262 296.383268 321.534262 
C 294.759238 321.534262 293.201505 322.179496 292.053141 323.327859 
C 290.904778 324.476222 290.259544 326.033955 290.259544 327.657986 
C 290.259544 329.282017 290.904778 330.83975 292.053141 331.988113 
C 293.201505 333.136476 294.759238 333.78171 296.383268 333.78171 
z
" style="fill:#00fa9a;stroke:#00fa9a;"/>
    <path clip-path="url(#p38522c3be2)" d="M 262.663064 337.663751 
C 263.98908 337.663751 265.260964 337.136919 266.198598 336.199285 
C 267.136233 335.26165 267.663064 333.989766 267.663064 332.663751 
C 267.663064 331.337735 267.136233 330.065852 266.198598 329.128217 
C 265.260964 328.190582 263.98908 327.663751 262.663064 327.663751 
C 261.337049 327.663751 260.065165 328.190582 259.12753 329.128217 
C 258.189896 330.065852 257.663064 331.337735 257.663064 332.663751 
C 257.663064 333.989766 258.189896 335.26165 259.12753 336.199285 
C 260.065165 337.136919 261.337049 337.663751 262.663064 337.663751 
z
" style="fill:#dc143c;stroke:#dc143c;"/>
    <path clip-path="url(#p38522c3be2)" d="M 260.032494 -614.658289 
C 261.656525 -614.658289 263.214258 -615.303524 264.362621 -616.451887 
C 265.510984 -617.60025 266.156219 -619.157983 266.156219 -620.782014 
C 266.156219 -622.406044 265.510984 -623.963778 264.362621 -625.112141 
C 263.214258 -626.260504 261.656525 -626.905738 260.032494 -626.905738 
C 258.408463 -626.905738 256.85073 -626.260504 255.702367 -625.112141 
C 254.554004 -623.963778 253.90877 -622.406044 253.90877 -620.782014 
C 253.90877 -619.157983 254.554004 -617.60025 255.702367 -616.451887 
C 256.85073 -615.303524 258.408463 -614.658289 260.032494 -614.658289 
z
" style="fill:#00bfff;stroke:#00bfff;"/>
    <path clip-path="url(#p38522c3be2)" d="M 258.600803 1275.308161 
C 259.926819 1275.308161 261.198703 1274.78133 262.136337 1273.843695 
C 263.073972 1272.906061 263.600803 1271.634177 263.600803 1270.308161 
C 263.600803 1268.982146 263.073972 1267.710262 262.136337 1266.772627 
C 261.198703 1265.834993 259.926819 1265.308161 258.600803 1265.308161 
C 257.274788 1265.308161 256.002904 1265.834993 255.06527 1266.772627 
C 254.127635 1267.710262 253.600803 1268.982146 253.600803 1270.308161 
C 253.600803 1271.634177 254.127635 1272.906061 255.06527 1273.843695 
C 256.002904 1274.78133 257.274788 1275.308161 258.600803 1275.308161 
z
" style="fill:#a020f0;stroke:#a020f0;"/>
    <path clip-path="url(#p38522c3be2)" d="M 243.584152 -636.489355 
C 245.208182 -636.489355 246.765915 -637.13459 247.914279 -638.282953 
C 249.062642 -639.431316 249.707876 -640.989049 249.707876 -642.61308 
C 249.707876 -644.23711 249.062642 -645.794844 247.914279 -646.943207 
C 246.765915 -648.09157 245.208182 -648.736804 243.584152 -648.736804 
C 241.960121 -648.736804 240.402388 -648.09157 239.254025 -646.943207 
C 238.105661 -645.794844 237.460427 -644.23711 237.460427 -642.61308 
C 237.460427 -640.989049 238.105661 -639.431316 239.254025 -638.282953 
C 240.402388 -637.13459 241.960121 -636.489355 243.584152 -636.489355 
z
" style="fill:#fa8072;stroke:#fa8072;"/>
    <path clip-path="url(#p38522c3be2)" d="M 245.925877 261.266815 
C 248.222603 261.266815 250.425571 260.354316 252.049601 258.730285 
C 253.673632 257.106254 254.586131 254.903287 254.586131 252.606561 
C 254.586131 250.309834 253.673632 248.106867 252.049601 246.482836 
C 250.425571 244.858805 248.222603 243.946306 245.925877 243.946306 
C 243.629151 243.946306 241.426183 244.858805 239.802153 246.482836 
C 238.178122 248.106867 237.265623 250.309834 237.265623 252.606561 
C 237.265623 254.903287 238.178122 257.106254 239.802153 258.730285 
C 241.426183 260.354316 243.629151 261.266815 245.925877 261.266815 
z
" style="fill:#ffff54;stroke:#ffff54;"/>
   </g>
   <g id="matplotlib.axis_1">
    <g id="xtick_1">
     <g id="line2d_1">
      <defs>
       <path d="M 0 0 
L 0 3.5 
" id="m9507c6d786" style="stroke:#000000;stroke-width:0.8;"/>
      </defs>
      <g>
       <use style="stroke:#000000;stroke-width:0.8;" x="258.3" xlink:href="#m9507c6d786" y="576.72"/>
      </g>
     </g>
     <g id="text_1">
      <!-- MeanPD -->
      <g transform="translate(237.811719 591.318438)scale(0.1 -0.1)">
       <defs>
        <path d="M 9.8125 72.90625 
L 24.515625 72.90625 
L 43.109375 23.296875 
L 61.8125 72.90625 
L 76.515625 72.90625 
L 76.515625 0 
L 66.890625 0 
L 66.890625 64.015625 
L 48.09375 14.015625 
L 38.1875 14.015625 
L 19.390625 64.015625 
L 19.390625 0 
L 9.8125 0 
z
" id="DejaVuSans-77"/>
        <path d="M 56.203125 29.59375 
L 56.203125 25.203125 
L 14.890625 25.203125 
Q 15.484375 15.921875 20.484375 11.0625 
Q 25.484375 6.203125 34.421875 6.203125 
Q 39.59375 6.203125 44.453125 7.46875 
Q 49.3125 8.734375 54.109375 11.28125 
L 54.109375 2.78125 
Q 49.265625 0.734375 44.1875 -0.34375 
Q 39.109375 -1.421875 33.890625 -1.421875 
Q 20.796875 -1.421875 13.15625 6.1875 
Q 5.515625 13.8125 5.515625 26.8125 
Q 5.515625 40.234375 12.765625 48.109375 
Q 20.015625 56 32.328125 56 
Q 43.359375 56 49.78125 48.890625 
Q 56.203125 41.796875 56.203125 29.59375 
z
M 47.21875 32.234375 
Q 47.125 39.59375 43.09375 43.984375 
Q 39.0625 48.390625 32.421875 48.390625 
Q 24.90625 48.390625 20.390625 44.140625 
Q 15.875 39.890625 15.1875 32.171875 
z
" id="DejaVuSans-101"/>
        <path d="M 34.28125 27.484375 
Q 23.390625 27.484375 19.1875 25 
Q 14.984375 22.515625 14.984375 16.5 
Q 14.984375 11.71875 18.140625 8.90625 
Q 21.296875 6.109375 26.703125 6.109375 
Q 34.1875 6.109375 38.703125 11.40625 
Q 43.21875 16.703125 43.21875 25.484375 
L 43.21875 27.484375 
z
M 52.203125 31.203125 
L 52.203125 0 
L 43.21875 0 
L 43.21875 8.296875 
Q 40.140625 3.328125 35.546875 0.953125 
Q 30.953125 -1.421875 24.3125 -1.421875 
Q 15.921875 -1.421875 10.953125 3.296875 
Q 6 8.015625 6 15.921875 
Q 6 25.140625 12.171875 29.828125 
Q 18.359375 34.515625 30.609375 34.515625 
L 43.21875 34.515625 
L 43.21875 35.40625 
Q 43.21875 41.609375 39.140625 45 
Q 35.0625 48.390625 27.6875 48.390625 
Q 23 48.390625 18.546875 47.265625 
Q 14.109375 46.140625 10.015625 43.890625 
L 10.015625 52.203125 
Q 14.9375 54.109375 19.578125 55.046875 
Q 24.21875 56 28.609375 56 
Q 40.484375 56 46.34375 49.84375 
Q 52.203125 43.703125 52.203125 31.203125 
z
" id="DejaVuSans-97"/>
        <path d="M 54.890625 33.015625 
L 54.890625 0 
L 45.90625 0 
L 45.90625 32.71875 
Q 45.90625 40.484375 42.875 44.328125 
Q 39.84375 48.1875 33.796875 48.1875 
Q 26.515625 48.1875 22.3125 43.546875 
Q 18.109375 38.921875 18.109375 30.90625 
L 18.109375 0 
L 9.078125 0 
L 9.078125 54.6875 
L 18.109375 54.6875 
L 18.109375 46.1875 
Q 21.34375 51.125 25.703125 53.5625 
Q 30.078125 56 35.796875 56 
Q 45.21875 56 50.046875 50.171875 
Q 54.890625 44.34375 54.890625 33.015625 
z
" id="DejaVuSans-110"/>
        <path d="M 19.671875 64.796875 
L 19.671875 37.40625 
L 32.078125 37.40625 
Q 38.96875 37.40625 42.71875 40.96875 
Q 46.484375 44.53125 46.484375 51.125 
Q 46.484375 57.671875 42.71875 61.234375 
Q 38.96875 64.796875 32.078125 64.796875 
z
M 9.8125 72.90625 
L 32.078125 72.90625 
Q 44.34375 72.90625 50.609375 67.359375 
Q 56.890625 61.8125 56.890625 51.125 
Q 56.890625 40.328125 50.609375 34.8125 
Q 44.34375 29.296875 32.078125 29.296875 
L 19.671875 29.296875 
L 19.671875 0 
L 9.8125 0 
z
" id="DejaVuSans-80"/>
        <path d="M 19.671875 64.796875 
L 19.671875 8.109375 
L 31.59375 8.109375 
Q 46.6875 8.109375 53.6875 14.9375 
Q 60.6875 21.78125 60.6875 36.53125 
Q 60.6875 51.171875 53.6875 57.984375 
Q 46.6875 64.796875 31.59375 64.796875 
z
M 9.8125 72.90625 
L 30.078125 72.90625 
Q 51.265625 72.90625 61.171875 64.09375 
Q 71.09375 55.28125 71.09375 36.53125 
Q 71.09375 17.671875 61.125 8.828125 
Q 51.171875 0 30.078125 0 
L 9.8125 0 
z
" id="DejaVuSans-68"/>
       </defs>
       <use xlink:href="#DejaVuSans-77"/>
       <use x="86.279297" xlink:href="#DejaVuSans-101"/>
       <use x="147.802734" xlink:href="#DejaVuSans-97"/>
       <use x="209.082031" xlink:href="#DejaVuSans-110"/>
       <use x="272.460938" xlink:href="#DejaVuSans-80"/>
       <use x="332.763672" xlink:href="#DejaVuSans-68"/>
      </g>
     </g>
    </g>
   </g>
   <g id="matplotlib.axis_2">
    <g id="ytick_1">
     <g id="line2d_2">
      <defs>
       <path d="M 0 0 
L -3.5 0 
" id="me1f1269034" style="stroke:#000000;stroke-width:0.8;"/>
      </defs>
      <g>
       <use style="stroke:#000000;stroke-width:0.8;" x="63" xlink:href="#me1f1269034" y="576.72"/>
      </g>
     </g>
     <g id="text_2">
      <!-- 3.5 -->
      <g transform="translate(31.717187 580.519219)scale(0.1 -0.1)">
       <defs>
        <path d="M 10.59375 35.5 
L 73.1875 35.5 
L 73.1875 27.203125 
L 10.59375 27.203125 
z
" id="DejaVuSans-8722"/>
        <path d="M 40.578125 39.3125 
Q 47.65625 37.796875 51.625 33 
Q 55.609375 28.21875 55.609375 21.1875 
Q 55.609375 10.40625 48.1875 4.484375 
Q 40.765625 -1.421875 27.09375 -1.421875 
Q 22.515625 -1.421875 17.65625 -0.515625 
Q 12.796875 0.390625 7.625 2.203125 
L 7.625 11.71875 
Q 11.71875 9.328125 16.59375 8.109375 
Q 21.484375 6.890625 26.8125 6.890625 
Q 36.078125 6.890625 40.9375 10.546875 
Q 45.796875 14.203125 45.796875 21.1875 
Q 45.796875 27.640625 41.28125 31.265625 
Q 36.765625 34.90625 28.71875 34.90625 
L 20.21875 34.90625 
L 20.21875 43.015625 
L 29.109375 43.015625 
Q 36.375 43.015625 40.234375 45.921875 
Q 44.09375 48.828125 44.09375 54.296875 
Q 44.09375 59.90625 40.109375 62.90625 
Q 36.140625 65.921875 28.71875 65.921875 
Q 24.65625 65.921875 20.015625 65.03125 
Q 15.375 64.15625 9.8125 62.3125 
L 9.8125 71.09375 
Q 15.4375 72.65625 20.34375 73.4375 
Q 25.25 74.21875 29.59375 74.21875 
Q 40.828125 74.21875 47.359375 69.109375 
Q 53.90625 64.015625 53.90625 55.328125 
Q 53.90625 49.265625 50.4375 45.09375 
Q 46.96875 40.921875 40.578125 39.3125 
z
" id="DejaVuSans-51"/>
        <path d="M 10.6875 12.40625 
L 21 12.40625 
L 21 0 
L 10.6875 0 
z
" id="DejaVuSans-46"/>
        <path d="M 10.796875 72.90625 
L 49.515625 72.90625 
L 49.515625 64.59375 
L 19.828125 64.59375 
L 19.828125 46.734375 
Q 21.96875 47.46875 24.109375 47.828125 
Q 26.265625 48.1875 28.421875 48.1875 
Q 40.625 48.1875 47.75 41.5 
Q 54.890625 34.8125 54.890625 23.390625 
Q 54.890625 11.625 47.5625 5.09375 
Q 40.234375 -1.421875 26.90625 -1.421875 
Q 22.3125 -1.421875 17.546875 -0.640625 
Q 12.796875 0.140625 7.71875 1.703125 
L 7.71875 11.625 
Q 12.109375 9.234375 16.796875 8.0625 
Q 21.484375 6.890625 26.703125 6.890625 
Q 35.15625 6.890625 40.078125 11.328125 
Q 45.015625 15.765625 45.015625 23.390625 
Q 45.015625 31 40.078125 35.4375 
Q 35.15625 39.890625 26.703125 39.890625 
Q 22.75 39.890625 18.8125 39.015625 
Q 14.890625 38.140625 10.796875 36.28125 
z
" id="DejaVuSans-53"/>
       </defs>
       <use xlink:href="#DejaVuSans-8722"/>
       <use x="83.789062" xlink:href="#DejaVuSans-51"/>
       <use x="147.412109" xlink:href="#DejaVuSans-46"/>
       <use x="179.199219" xlink:href="#DejaVuSans-53"/>
      </g>
     </g>
    </g>
    <g id="ytick_2">
     <g id="line2d_3">
      <g>
       <use style="stroke:#000000;stroke-width:0.8;" x="63" xlink:href="#me1f1269034" y="538.92"/>
      </g>
     </g>
     <g id="text_3">
      <!-- 3.0 -->
      <g transform="translate(31.717187 542.719219)scale(0.1 -0.1)">
       <defs>
        <path d="M 31.78125 66.40625 
Q 24.171875 66.40625 20.328125 58.90625 
Q 16.5 51.421875 16.5 36.375 
Q 16.5 21.390625 20.328125 13.890625 
Q 24.171875 6.390625 31.78125 6.390625 
Q 39.453125 6.390625 43.28125 13.890625 
Q 47.125 21.390625 47.125 36.375 
Q 47.125 51.421875 43.28125 58.90625 
Q 39.453125 66.40625 31.78125 66.40625 
z
M 31.78125 74.21875 
Q 44.046875 74.21875 50.515625 64.515625 
Q 56.984375 54.828125 56.984375 36.375 
Q 56.984375 17.96875 50.515625 8.265625 
Q 44.046875 -1.421875 31.78125 -1.421875 
Q 19.53125 -1.421875 13.0625 8.265625 
Q 6.59375 17.96875 6.59375 36.375 
Q 6.59375 54.828125 13.0625 64.515625 
Q 19.53125 74.21875 31.78125 74.21875 
z
" id="DejaVuSans-48"/>
       </defs>
       <use xlink:href="#DejaVuSans-8722"/>
       <use x="83.789062" xlink:href="#DejaVuSans-51"/>
       <use x="147.412109" xlink:href="#DejaVuSans-46"/>
       <use x="179.199219" xlink:href="#DejaVuSans-48"/>
      </g>
     </g>
    </g>
    <g id="ytick_3">
     <g id="line2d_4">
      <g>
       <use style="stroke:#000000;stroke-width:0.8;" x="63" xlink:href="#me1f1269034" y="501.12"/>
      </g>
     </g>
     <g id="text_4">
      <!-- 2.5 -->
      <g transform="translate(31.717187 504.919219)scale(0.1 -0.1)">
       <defs>
        <path d="M 19.1875 8.296875 
L 53.609375 8.296875 
L 53.609375 0 
L 7.328125 0 
L 7.328125 8.296875 
Q 12.9375 14.109375 22.625 23.890625 
Q 32.328125 33.6875 34.8125 36.53125 
Q 39.546875 41.84375 41.421875 45.53125 
Q 43.3125 49.21875 43.3125 52.78125 
Q 43.3125 58.59375 39.234375 62.25 
Q 35.15625 65.921875 28.609375 65.921875 
Q 23.96875 65.921875 18.8125 64.3125 
Q 13.671875 62.703125 7.8125 59.421875 
L 7.8125 69.390625 
Q 13.765625 71.78125 18.9375 73 
Q 24.125 74.21875 28.421875 74.21875 
Q 39.75 74.21875 46.484375 68.546875 
Q 53.21875 62.890625 53.21875 53.421875 
Q 53.21875 48.921875 51.53125 44.890625 
Q 49.859375 40.875 45.40625 35.40625 
Q 44.1875 33.984375 37.640625 27.21875 
Q 31.109375 20.453125 19.1875 8.296875 
z
" id="DejaVuSans-50"/>
       </defs>
       <use xlink:href="#DejaVuSans-8722"/>
       <use x="83.789062" xlink:href="#DejaVuSans-50"/>
       <use x="147.412109" xlink:href="#DejaVuSans-46"/>
       <use x="179.199219" xlink:href="#DejaVuSans-53"/>
      </g>
     </g>
    </g>
    <g id="ytick_4">
     <g id="line2d_5">
      <g>
       <use style="stroke:#000000;stroke-width:0.8;" x="63" xlink:href="#me1f1269034" y="463.32"/>
      </g>
     </g>
     <g id="text_5">
      <!-- 2.0 -->
      <g transform="translate(31.717187 467.119219)scale(0.1 -0.1)">
       <use xlink:href="#DejaVuSans-8722"/>
       <use x="83.789062" xlink:href="#DejaVuSans-50"/>
       <use x="147.412109" xlink:href="#DejaVuSans-46"/>
       <use x="179.199219" xlink:href="#DejaVuSans-48"/>
      </g>
     </g>
    </g>
    <g id="ytick_5">
     <g id="line2d_6">
      <g>
       <use style="stroke:#000000;stroke-width:0.8;" x="63" xlink:href="#me1f1269034" y="425.52"/>
      </g>
     </g>
     <g id="text_6">
      <!-- 1.5 -->
      <g transform="translate(31.717187 429.319219)scale(0.1 -0.1)">
       <defs>
        <path d="M 12.40625 8.296875 
L 28.515625 8.296875 
L 28.515625 63.921875 
L 10.984375 60.40625 
L 10.984375 69.390625 
L 28.421875 72.90625 
L 38.28125 72.90625 
L 38.28125 8.296875 
L 54.390625 8.296875 
L 54.390625 0 
L 12.40625 0 
z
" id="DejaVuSans-49"/>
       </defs>
       <use xlink:href="#DejaVuSans-8722"/>
       <use x="83.789062" xlink:href="#DejaVuSans-49"/>
       <use x="147.412109" xlink:href="#DejaVuSans-46"/>
       <use x="179.199219" xlink:href="#DejaVuSans-53"/>
      </g>
     </g>
    </g>
    <g id="ytick_6">
     <g id="line2d_7">
      <g>
       <use style="stroke:#000000;stroke-width:0.8;" x="63" xlink:href="#me1f1269034" y="387.72"/>
      </g>
     </g>
     <g id="text_7">
      <!-- 1.0 -->
      <g transform="translate(31.717187 391.519219)scale(0.1 -0.1)">
       <use xlink:href="#DejaVuSans-8722"/>
       <use x="83.789062" xlink:href="#DejaVuSans-49"/>
       <use x="147.412109" xlink:href="#DejaVuSans-46"/>
       <use x="179.199219" xlink:href="#DejaVuSans-48"/>
      </g>
     </g>
    </g>
    <g id="ytick_7">
     <g id="line2d_8">
      <g>
       <use style="stroke:#000000;stroke-width:0.8;" x="63" xlink:href="#me1f1269034" y="349.92"/>
      </g>
     </g>
     <g id="text_8">
      <!-- 0.5 -->
      <g transform="translate(31.717187 353.719219)scale(0.1 -0.1)">
       <use xlink:href="#DejaVuSans-8722"/>
       <use x="83.789062" xlink:href="#DejaVuSans-48"/>
       <use x="147.412109" xlink:href="#DejaVuSans-46"/>
       <use x="179.199219" xlink:href="#DejaVuSans-53"/>
      </g>
     </g>
    </g>
    <g id="ytick_8">
     <g id="line2d_9">
      <g>
       <use style="stroke:#000000;stroke-width:0.8;" x="63" xlink:href="#me1f1269034" y="312.12"/>
      </g>
     </g>
     <g id="text_9">
      <!-- 0.0 -->
      <g transform="translate(40.096875 315.919219)scale(0.1 -0.1)">
       <use xlink:href="#DejaVuSans-48"/>
       <use x="63.623047" xlink:href="#DejaVuSans-46"/>
       <use x="95.410156" xlink:href="#DejaVuSans-48"/>
      </g>
     </g>
    </g>
    <g id="ytick_9">
     <g id="line2d_10">
      <g>
       <use style="stroke:#000000;stroke-width:0.8;" x="63" xlink:href="#me1f1269034" y="274.32"/>
      </g>
     </g>
     <g id="text_10">
      <!-- 0.5 -->
      <g transform="translate(40.096875 278.119219)scale(0.1 -0.1)">
       <use xlink:href="#DejaVuSans-48"/>
       <use x="63.623047" xlink:href="#DejaVuSans-46"/>
       <use x="95.410156" xlink:href="#DejaVuSans-53"/>
      </g>
     </g>
    </g>
    <g id="ytick_10">
     <g id="line2d_11">
      <g>
       <use style="stroke:#000000;stroke-width:0.8;" x="63" xlink:href="#me1f1269034" y="236.52"/>
      </g>
     </g>
     <g id="text_11">
      <!-- 1.0 -->
      <g transform="translate(40.096875 240.319219)scale(0.1 -0.1)">
       <use xlink:href="#DejaVuSans-49"/>
       <use x="63.623047" xlink:href="#DejaVuSans-46"/>
       <use x="95.410156" xlink:href="#DejaVuSans-48"/>
      </g>
     </g>
    </g>
    <g id="ytick_11">
     <g id="line2d_12">
      <g>
       <use style="stroke:#000000;stroke-width:0.8;" x="63" xlink:href="#me1f1269034" y="198.72"/>
      </g>
     </g>
     <g id="text_12">
      <!-- 1.5 -->
      <g transform="translate(40.096875 202.519219)scale(0.1 -0.1)">
       <use xlink:href="#DejaVuSans-49"/>
       <use x="63.623047" xlink:href="#DejaVuSans-46"/>
       <use x="95.410156" xlink:href="#DejaVuSans-53"/>
      </g>
     </g>
    </g>
    <g id="ytick_12">
     <g id="line2d_13">
      <g>
       <use style="stroke:#000000;stroke-width:0.8;" x="63" xlink:href="#me1f1269034" y="160.92"/>
      </g>
     </g>
     <g id="text_13">
      <!-- 2.0 -->
      <g transform="translate(40.096875 164.719219)scale(0.1 -0.1)">
       <use xlink:href="#DejaVuSans-50"/>
       <use x="63.623047" xlink:href="#DejaVuSans-46"/>
       <use x="95.410156" xlink:href="#DejaVuSans-48"/>
      </g>
     </g>
    </g>
    <g id="ytick_13">
     <g id="line2d_14">
      <g>
       <use style="stroke:#000000;stroke-width:0.8;" x="63" xlink:href="#me1f1269034" y="123.12"/>
      </g>
     </g>
     <g id="text_14">
      <!-- 2.5 -->
      <g transform="translate(40.096875 126.919219)scale(0.1 -0.1)">
       <use xlink:href="#DejaVuSans-50"/>
       <use x="63.623047" xlink:href="#DejaVuSans-46"/>
       <use x="95.410156" xlink:href="#DejaVuSans-53"/>
      </g>
     </g>
    </g>
    <g id="ytick_14">
     <g id="line2d_15">
      <g>
       <use style="stroke:#000000;stroke-width:0.8;" x="63" xlink:href="#me1f1269034" y="85.32"/>
      </g>
     </g>
     <g id="text_15">
      <!-- 3.0 -->
      <g transform="translate(40.096875 89.119219)scale(0.1 -0.1)">
       <use xlink:href="#DejaVuSans-51"/>
       <use x="63.623047" xlink:href="#DejaVuSans-46"/>
       <use x="95.410156" xlink:href="#DejaVuSans-48"/>
      </g>
     </g>
    </g>
    <g id="text_16">
     <!-- LogOdds -->
     <g transform="translate(25.6375 349.061094)rotate(-90)scale(0.1 -0.1)">
      <defs>
       <path d="M 9.8125 72.90625 
L 19.671875 72.90625 
L 19.671875 8.296875 
L 55.171875 8.296875 
L 55.171875 0 
L 9.8125 0 
z
" id="DejaVuSans-76"/>
       <path d="M 30.609375 48.390625 
Q 23.390625 48.390625 19.1875 42.75 
Q 14.984375 37.109375 14.984375 27.296875 
Q 14.984375 17.484375 19.15625 11.84375 
Q 23.34375 6.203125 30.609375 6.203125 
Q 37.796875 6.203125 41.984375 11.859375 
Q 46.1875 17.53125 46.1875 27.296875 
Q 46.1875 37.015625 41.984375 42.703125 
Q 37.796875 48.390625 30.609375 48.390625 
z
M 30.609375 56 
Q 42.328125 56 49.015625 48.375 
Q 55.71875 40.765625 55.71875 27.296875 
Q 55.71875 13.875 49.015625 6.21875 
Q 42.328125 -1.421875 30.609375 -1.421875 
Q 18.84375 -1.421875 12.171875 6.21875 
Q 5.515625 13.875 5.515625 27.296875 
Q 5.515625 40.765625 12.171875 48.375 
Q 18.84375 56 30.609375 56 
z
" id="DejaVuSans-111"/>
       <path d="M 45.40625 27.984375 
Q 45.40625 37.75 41.375 43.109375 
Q 37.359375 48.484375 30.078125 48.484375 
Q 22.859375 48.484375 18.828125 43.109375 
Q 14.796875 37.75 14.796875 27.984375 
Q 14.796875 18.265625 18.828125 12.890625 
Q 22.859375 7.515625 30.078125 7.515625 
Q 37.359375 7.515625 41.375 12.890625 
Q 45.40625 18.265625 45.40625 27.984375 
z
M 54.390625 6.78125 
Q 54.390625 -7.171875 48.1875 -13.984375 
Q 42 -20.796875 29.203125 -20.796875 
Q 24.46875 -20.796875 20.265625 -20.09375 
Q 16.0625 -19.390625 12.109375 -17.921875 
L 12.109375 -9.1875 
Q 16.0625 -11.328125 19.921875 -12.34375 
Q 23.78125 -13.375 27.78125 -13.375 
Q 36.625 -13.375 41.015625 -8.765625 
Q 45.40625 -4.15625 45.40625 5.171875 
L 45.40625 9.625 
Q 42.625 4.78125 38.28125 2.390625 
Q 33.9375 0 27.875 0 
Q 17.828125 0 11.671875 7.65625 
Q 5.515625 15.328125 5.515625 27.984375 
Q 5.515625 40.671875 11.671875 48.328125 
Q 17.828125 56 27.875 56 
Q 33.9375 56 38.28125 53.609375 
Q 42.625 51.21875 45.40625 46.390625 
L 45.40625 54.6875 
L 54.390625 54.6875 
z
" id="DejaVuSans-103"/>
       <path d="M 39.40625 66.21875 
Q 28.65625 66.21875 22.328125 58.203125 
Q 16.015625 50.203125 16.015625 36.375 
Q 16.015625 22.609375 22.328125 14.59375 
Q 28.65625 6.59375 39.40625 6.59375 
Q 50.140625 6.59375 56.421875 14.59375 
Q 62.703125 22.609375 62.703125 36.375 
Q 62.703125 50.203125 56.421875 58.203125 
Q 50.140625 66.21875 39.40625 66.21875 
z
M 39.40625 74.21875 
Q 54.734375 74.21875 63.90625 63.9375 
Q 73.09375 53.65625 73.09375 36.375 
Q 73.09375 19.140625 63.90625 8.859375 
Q 54.734375 -1.421875 39.40625 -1.421875 
Q 24.03125 -1.421875 14.8125 8.828125 
Q 5.609375 19.09375 5.609375 36.375 
Q 5.609375 53.65625 14.8125 63.9375 
Q 24.03125 74.21875 39.40625 74.21875 
z
" id="DejaVuSans-79"/>
       <path d="M 45.40625 46.390625 
L 45.40625 75.984375 
L 54.390625 75.984375 
L 54.390625 0 
L 45.40625 0 
L 45.40625 8.203125 
Q 42.578125 3.328125 38.25 0.953125 
Q 33.9375 -1.421875 27.875 -1.421875 
Q 17.96875 -1.421875 11.734375 6.484375 
Q 5.515625 14.40625 5.515625 27.296875 
Q 5.515625 40.1875 11.734375 48.09375 
Q 17.96875 56 27.875 56 
Q 33.9375 56 38.25 53.625 
Q 42.578125 51.265625 45.40625 46.390625 
z
M 14.796875 27.296875 
Q 14.796875 17.390625 18.875 11.75 
Q 22.953125 6.109375 30.078125 6.109375 
Q 37.203125 6.109375 41.296875 11.75 
Q 45.40625 17.390625 45.40625 27.296875 
Q 45.40625 37.203125 41.296875 42.84375 
Q 37.203125 48.484375 30.078125 48.484375 
Q 22.953125 48.484375 18.875 42.84375 
Q 14.796875 37.203125 14.796875 27.296875 
z
" id="DejaVuSans-100"/>
       <path d="M 44.28125 53.078125 
L 44.28125 44.578125 
Q 40.484375 46.53125 36.375 47.5 
Q 32.28125 48.484375 27.875 48.484375 
Q 21.1875 48.484375 17.84375 46.4375 
Q 14.5 44.390625 14.5 40.28125 
Q 14.5 37.15625 16.890625 35.375 
Q 19.28125 33.59375 26.515625 31.984375 
L 29.59375 31.296875 
Q 39.15625 29.25 43.1875 25.515625 
Q 47.21875 21.78125 47.21875 15.09375 
Q 47.21875 7.46875 41.1875 3.015625 
Q 35.15625 -1.421875 24.609375 -1.421875 
Q 20.21875 -1.421875 15.453125 -0.5625 
Q 10.6875 0.296875 5.421875 2 
L 5.421875 11.28125 
Q 10.40625 8.6875 15.234375 7.390625 
Q 20.0625 6.109375 24.8125 6.109375 
Q 31.15625 6.109375 34.5625 8.28125 
Q 37.984375 10.453125 37.984375 14.40625 
Q 37.984375 18.0625 35.515625 20.015625 
Q 33.0625 21.96875 24.703125 23.78125 
L 21.578125 24.515625 
Q 13.234375 26.265625 9.515625 29.90625 
Q 5.8125 33.546875 5.8125 39.890625 
Q 5.8125 47.609375 11.28125 51.796875 
Q 16.75 56 26.8125 56 
Q 31.78125 56 36.171875 55.265625 
Q 40.578125 54.546875 44.28125 53.078125 
z
" id="DejaVuSans-115"/>
      </defs>
      <use xlink:href="#DejaVuSans-76"/>
      <use x="53.962891" xlink:href="#DejaVuSans-111"/>
      <use x="115.144531" xlink:href="#DejaVuSans-103"/>
      <use x="178.621094" xlink:href="#DejaVuSans-79"/>
      <use x="257.332031" xlink:href="#DejaVuSans-100"/>
      <use x="320.808594" xlink:href="#DejaVuSans-100"/>
      <use x="384.285156" xlink:href="#DejaVuSans-115"/>
     </g>
    </g>
   </g>
   <g id="line2d_16">
    <path clip-path="url(#p38522c3be2)" d="M 229.005 320.363119 
L 287.595 320.363119 
L 287.595 258.182186 
L 229.005 258.182186 
L 229.005 320.363119 
" style="fill:none;stroke:#000000;stroke-linecap:square;"/>
   </g>
   <g id="line2d_17">
    <path clip-path="url(#p38522c3be2)" d="M 258.3 320.363119 
L 258.3 410.484812 
" style="fill:none;stroke:#000000;stroke-linecap:square;"/>
   </g>
   <g id="line2d_18">
    <path clip-path="url(#p38522c3be2)" d="M 258.3 258.182186 
L 258.3 233.383726 
" style="fill:none;stroke:#000000;stroke-linecap:square;"/>
   </g>
   <g id="line2d_19">
    <path clip-path="url(#p38522c3be2)" d="M 243.6525 410.484812 
L 272.9475 410.484812 
" style="fill:none;stroke:#000000;stroke-linecap:square;"/>
   </g>
   <g id="line2d_20">
    <path clip-path="url(#p38522c3be2)" d="M 243.6525 233.383726 
L 272.9475 233.383726 
" style="fill:none;stroke:#000000;stroke-linecap:square;"/>
   </g>
   <g id="line2d_21">
    <path clip-path="url(#p38522c3be2)" d="M 229.005 289.362132 
L 287.595 289.362132 
" style="fill:none;stroke:#ff7f0e;stroke-linecap:square;"/>
   </g>
   <g id="patch_3">
    <path d="M 63 576.72 
L 63 77.76 
" style="fill:none;stroke:#000000;stroke-linecap:square;stroke-linejoin:miter;stroke-width:0.8;"/>
   </g>
   <g id="patch_4">
    <path d="M 453.6 576.72 
L 453.6 77.76 
" style="fill:none;stroke:#000000;stroke-linecap:square;stroke-linejoin:miter;stroke-width:0.8;"/>
   </g>
   <g id="patch_5">
    <path d="M 63 576.72 
L 453.6 576.72 
" style="fill:none;stroke:#000000;stroke-linecap:square;stroke-linejoin:miter;stroke-width:0.8;"/>
   </g>
   <g id="patch_6">
    <path d="M 63 77.76 
L 453.6 77.76 
" style="fill:none;stroke:#000000;stroke-linecap:square;stroke-linejoin:miter;stroke-width:0.8;"/>
   </g>
   <g id="text_17">
    <!-- 1 -->
    <g style="fill:#556b2f;" transform="translate(247.529366 393.234221)scale(0.1 -0.1)">
     <use xlink:href="#DejaVuSans-49"/>
    </g>
   </g>
   <g id="text_18">
    <!-- 4 -->
    <g style="fill:#228b22;" transform="translate(279.012543 315.154201)scale(0.1 -0.1)">
     <defs>
      <path d="M 37.796875 64.3125 
L 12.890625 25.390625 
L 37.796875 25.390625 
z
M 35.203125 72.90625 
L 47.609375 72.90625 
L 47.609375 25.390625 
L 58.015625 25.390625 
L 58.015625 17.1875 
L 47.609375 17.1875 
L 47.609375 0 
L 37.796875 0 
L 37.796875 17.1875 
L 4.890625 17.1875 
L 4.890625 26.703125 
z
" id="DejaVuSans-52"/>
     </defs>
     <use xlink:href="#DejaVuSans-52"/>
    </g>
   </g>
   <g id="text_19">
    <!-- 6 -->
    <g style="fill:#8b0000;" transform="translate(265.223982 322.352829)scale(0.1 -0.1)">
     <defs>
      <path d="M 33.015625 40.375 
Q 26.375 40.375 22.484375 35.828125 
Q 18.609375 31.296875 18.609375 23.390625 
Q 18.609375 15.53125 22.484375 10.953125 
Q 26.375 6.390625 33.015625 6.390625 
Q 39.65625 6.390625 43.53125 10.953125 
Q 47.40625 15.53125 47.40625 23.390625 
Q 47.40625 31.296875 43.53125 35.828125 
Q 39.65625 40.375 33.015625 40.375 
z
M 52.59375 71.296875 
L 52.59375 62.3125 
Q 48.875 64.0625 45.09375 64.984375 
Q 41.3125 65.921875 37.59375 65.921875 
Q 27.828125 65.921875 22.671875 59.328125 
Q 17.53125 52.734375 16.796875 39.40625 
Q 19.671875 43.65625 24.015625 45.921875 
Q 28.375 48.1875 33.59375 48.1875 
Q 44.578125 48.1875 50.953125 41.515625 
Q 57.328125 34.859375 57.328125 23.390625 
Q 57.328125 12.15625 50.6875 5.359375 
Q 44.046875 -1.421875 33.015625 -1.421875 
Q 20.359375 -1.421875 13.671875 8.265625 
Q 6.984375 17.96875 6.984375 36.375 
Q 6.984375 53.65625 15.1875 63.9375 
Q 23.390625 74.21875 37.203125 74.21875 
Q 40.921875 74.21875 44.703125 73.484375 
Q 48.484375 72.75 52.59375 71.296875 
z
" id="DejaVuSans-54"/>
     </defs>
     <use xlink:href="#DejaVuSans-54"/>
    </g>
   </g>
   <g id="text_20">
    <!-- 10 -->
    <g style="fill:#b8860b;" transform="translate(230.783206 294.908077)scale(0.1 -0.1)">
     <use xlink:href="#DejaVuSans-49"/>
     <use x="63.623047" xlink:href="#DejaVuSans-48"/>
    </g>
   </g>
   <g id="text_21">
    <!-- 11.0 -->
    <g style="fill:#4682b4;" transform="translate(268.728002 275.281079)scale(0.1 -0.1)">
     <use xlink:href="#DejaVuSans-49"/>
     <use x="63.623047" xlink:href="#DejaVuSans-49"/>
     <use x="127.246094" xlink:href="#DejaVuSans-46"/>
     <use x="159.033203" xlink:href="#DejaVuSans-48"/>
    </g>
   </g>
   <g id="text_22">
    <!-- 13 -->
    <g style="fill:#9acd32;" transform="translate(260.484988 357.062505)scale(0.1 -0.1)">
     <use xlink:href="#DejaVuSans-49"/>
     <use x="63.623047" xlink:href="#DejaVuSans-51"/>
    </g>
   </g>
   <g id="text_23">
    <!-- 16 -->
    <g style="fill:#800080;" transform="translate(265.947767 304.068615)scale(0.1 -0.1)">
     <use xlink:href="#DejaVuSans-49"/>
     <use x="63.623047" xlink:href="#DejaVuSans-54"/>
    </g>
   </g>
   <g id="text_24">
    <!-- 17 -->
    <g style="fill:#b03060;" transform="translate(265.320656 389.210848)scale(0.1 -0.1)">
     <defs>
      <path d="M 8.203125 72.90625 
L 55.078125 72.90625 
L 55.078125 68.703125 
L 28.609375 0 
L 18.3125 0 
L 43.21875 64.59375 
L 8.203125 64.59375 
z
" id="DejaVuSans-55"/>
     </defs>
     <use xlink:href="#DejaVuSans-49"/>
     <use x="63.623047" xlink:href="#DejaVuSans-55"/>
    </g>
   </g>
   <g id="text_25">
    <!-- 18 -->
    <g style="fill:#9932cc;" transform="translate(269.43889 260.053195)scale(0.1 -0.1)">
     <defs>
      <path d="M 31.78125 34.625 
Q 24.75 34.625 20.71875 30.859375 
Q 16.703125 27.09375 16.703125 20.515625 
Q 16.703125 13.921875 20.71875 10.15625 
Q 24.75 6.390625 31.78125 6.390625 
Q 38.8125 6.390625 42.859375 10.171875 
Q 46.921875 13.96875 46.921875 20.515625 
Q 46.921875 27.09375 42.890625 30.859375 
Q 38.875 34.625 31.78125 34.625 
z
M 21.921875 38.8125 
Q 15.578125 40.375 12.03125 44.71875 
Q 8.5 49.078125 8.5 55.328125 
Q 8.5 64.0625 14.71875 69.140625 
Q 20.953125 74.21875 31.78125 74.21875 
Q 42.671875 74.21875 48.875 69.140625 
Q 55.078125 64.0625 55.078125 55.328125 
Q 55.078125 49.078125 51.53125 44.71875 
Q 48 40.375 41.703125 38.8125 
Q 48.828125 37.15625 52.796875 32.3125 
Q 56.78125 27.484375 56.78125 20.515625 
Q 56.78125 9.90625 50.3125 4.234375 
Q 43.84375 -1.421875 31.78125 -1.421875 
Q 19.734375 -1.421875 13.25 4.234375 
Q 6.78125 9.90625 6.78125 20.515625 
Q 6.78125 27.484375 10.78125 32.3125 
Q 14.796875 37.15625 21.921875 38.8125 
z
M 18.3125 54.390625 
Q 18.3125 48.734375 21.84375 45.5625 
Q 25.390625 42.390625 31.78125 42.390625 
Q 38.140625 42.390625 41.71875 45.5625 
Q 45.3125 48.734375 45.3125 54.390625 
Q 45.3125 60.0625 41.71875 63.234375 
Q 38.140625 66.40625 31.78125 66.40625 
Q 25.390625 66.40625 21.84375 63.234375 
Q 18.3125 60.0625 18.3125 54.390625 
z
" id="DejaVuSans-56"/>
     </defs>
     <use xlink:href="#DejaVuSans-49"/>
     <use x="63.623047" xlink:href="#DejaVuSans-56"/>
    </g>
   </g>
   <g id="text_26">
    <!-- 20 -->
    <g style="fill:#00ced1;" transform="translate(279.912754 315.924014)scale(0.1 -0.1)">
     <use xlink:href="#DejaVuSans-50"/>
     <use x="63.623047" xlink:href="#DejaVuSans-48"/>
    </g>
   </g>
   <g id="text_27">
    <!-- 21 -->
    <g style="fill:#ff8c00;" transform="translate(234.286394 409.728812)scale(0.1 -0.1)">
     <use xlink:href="#DejaVuSans-50"/>
     <use x="63.623047" xlink:href="#DejaVuSans-49"/>
    </g>
   </g>
   <g id="text_28">
    <!-- 23 -->
    <g style="fill:#0000cd;" transform="translate(276.545745 258.434197)scale(0.1 -0.1)">
     <use xlink:href="#DejaVuSans-50"/>
     <use x="63.623047" xlink:href="#DejaVuSans-51"/>
    </g>
   </g>
   <g id="text_29">
    <!-- 25.0 -->
    <g style="fill:#00ff00;" transform="translate(251.963382 351.120272)scale(0.1 -0.1)">
     <use xlink:href="#DejaVuSans-50"/>
     <use x="63.623047" xlink:href="#DejaVuSans-53"/>
     <use x="127.246094" xlink:href="#DejaVuSans-46"/>
     <use x="159.033203" xlink:href="#DejaVuSans-48"/>
    </g>
   </g>
   <g id="text_30">
    <!-- 26 -->
    <g style="fill:#00fa9a;" transform="translate(276.915951 324.678603)scale(0.1 -0.1)">
     <use xlink:href="#DejaVuSans-50"/>
     <use x="63.623047" xlink:href="#DejaVuSans-54"/>
    </g>
   </g>
   <g id="text_31">
    <!-- 27 -->
    <g style="fill:#dc143c;" transform="translate(271.119269 311.346718)scale(0.1 -0.1)">
     <use xlink:href="#DejaVuSans-50"/>
     <use x="63.623047" xlink:href="#DejaVuSans-55"/>
    </g>
   </g>
   <g id="text_32">
    <!-- 28 -->
    <g style="fill:#00bfff;" transform="translate(234.899829 265.334015)scale(0.1 -0.1)">
     <use xlink:href="#DejaVuSans-50"/>
     <use x="63.623047" xlink:href="#DejaVuSans-56"/>
    </g>
   </g>
   <g id="text_33">
    <!-- 29 -->
    <g style="fill:#f4a460;" transform="translate(253.687615 356.300575)scale(0.1 -0.1)">
     <defs>
      <path d="M 10.984375 1.515625 
L 10.984375 10.5 
Q 14.703125 8.734375 18.5 7.8125 
Q 22.3125 6.890625 25.984375 6.890625 
Q 35.75 6.890625 40.890625 13.453125 
Q 46.046875 20.015625 46.78125 33.40625 
Q 43.953125 29.203125 39.59375 26.953125 
Q 35.25 24.703125 29.984375 24.703125 
Q 19.046875 24.703125 12.671875 31.3125 
Q 6.296875 37.9375 6.296875 49.421875 
Q 6.296875 60.640625 12.9375 67.421875 
Q 19.578125 74.21875 30.609375 74.21875 
Q 43.265625 74.21875 49.921875 64.515625 
Q 56.59375 54.828125 56.59375 36.375 
Q 56.59375 19.140625 48.40625 8.859375 
Q 40.234375 -1.421875 26.421875 -1.421875 
Q 22.703125 -1.421875 18.890625 -0.6875 
Q 15.09375 0.046875 10.984375 1.515625 
z
M 30.609375 32.421875 
Q 37.25 32.421875 41.125 36.953125 
Q 45.015625 41.5 45.015625 49.421875 
Q 45.015625 57.28125 41.125 61.84375 
Q 37.25 66.40625 30.609375 66.40625 
Q 23.96875 66.40625 20.09375 61.84375 
Q 16.21875 57.28125 16.21875 49.421875 
Q 16.21875 41.5 20.09375 36.953125 
Q 23.96875 32.421875 30.609375 32.421875 
z
" id="DejaVuSans-57"/>
     </defs>
     <use xlink:href="#DejaVuSans-50"/>
     <use x="63.623047" xlink:href="#DejaVuSans-57"/>
    </g>
   </g>
   <g id="text_34">
    <!-- 31 -->
    <g style="fill:#a020f0;" transform="translate(214.531756 347.435629)scale(0.1 -0.1)">
     <use xlink:href="#DejaVuSans-51"/>
     <use x="63.623047" xlink:href="#DejaVuSans-49"/>
    </g>
   </g>
   <g id="text_35">
    <!-- 32 -->
    <g style="fill:#adff2f;" transform="translate(274.762925 281.333385)scale(0.1 -0.1)">
     <use xlink:href="#DejaVuSans-51"/>
     <use x="63.623047" xlink:href="#DejaVuSans-50"/>
    </g>
   </g>
   <g id="text_36">
    <!-- 33 -->
    <g style="fill:#ff6347;" transform="translate(258.756154 301.922064)scale(0.1 -0.1)">
     <use xlink:href="#DejaVuSans-51"/>
     <use x="63.623047" xlink:href="#DejaVuSans-51"/>
    </g>
   </g>
   <g id="text_37">
    <!-- 34 -->
    <g style="fill:#da70d6;" transform="translate(258.763144 264.935227)scale(0.1 -0.1)">
     <use xlink:href="#DejaVuSans-51"/>
     <use x="63.623047" xlink:href="#DejaVuSans-52"/>
    </g>
   </g>
   <g id="text_38">
    <!-- 35 -->
    <g style="fill:#b0c4de;" transform="translate(268.714475 334.121853)scale(0.1 -0.1)">
     <use xlink:href="#DejaVuSans-51"/>
     <use x="63.623047" xlink:href="#DejaVuSans-53"/>
    </g>
   </g>
   <g id="text_39">
    <!-- 36 -->
    <g style="fill:#ff00ff;" transform="translate(268.337191 279.830015)scale(0.1 -0.1)">
     <use xlink:href="#DejaVuSans-51"/>
     <use x="63.623047" xlink:href="#DejaVuSans-54"/>
    </g>
   </g>
   <g id="text_40">
    <!-- 37 -->
    <g style="fill:#f0e68c;" transform="translate(277.805625 336.349086)scale(0.1 -0.1)">
     <use xlink:href="#DejaVuSans-51"/>
     <use x="63.623047" xlink:href="#DejaVuSans-55"/>
    </g>
   </g>
   <g id="text_41">
    <!-- 38.0 -->
    <g style="fill:#fa8072;" transform="translate(258.026787 309.812693)scale(0.1 -0.1)">
     <use xlink:href="#DejaVuSans-51"/>
     <use x="63.623047" xlink:href="#DejaVuSans-56"/>
     <use x="127.246094" xlink:href="#DejaVuSans-46"/>
     <use x="159.033203" xlink:href="#DejaVuSans-48"/>
    </g>
   </g>
   <g id="text_42">
    <!-- 39 -->
    <g style="fill:#ffff54;" transform="translate(264.556494 279.160764)scale(0.1 -0.1)">
     <use xlink:href="#DejaVuSans-51"/>
     <use x="63.623047" xlink:href="#DejaVuSans-57"/>
    </g>
   </g>
   <g id="text_43">
    <!-- 40.0 -->
    <g style="fill:#6495ed;" transform="translate(263.251751 246.420816)scale(0.1 -0.1)">
     <use xlink:href="#DejaVuSans-52"/>
     <use x="63.623047" xlink:href="#DejaVuSans-48"/>
     <use x="127.246094" xlink:href="#DejaVuSans-46"/>
     <use x="159.033203" xlink:href="#DejaVuSans-48"/>
    </g>
   </g>
   <g id="text_44">
    <!-- 41 -->
    <g style="fill:#dda0dd;" transform="translate(249.200847 315.223832)scale(0.1 -0.1)">
     <use xlink:href="#DejaVuSans-52"/>
     <use x="63.623047" xlink:href="#DejaVuSans-49"/>
    </g>
   </g>
   <g id="text_45">
    <!-- 42 -->
    <g style="fill:#90ee90;" transform="translate(256.404841 347.43654)scale(0.1 -0.1)">
     <use xlink:href="#DejaVuSans-52"/>
     <use x="63.623047" xlink:href="#DejaVuSans-50"/>
    </g>
   </g>
   <g id="text_46">
    <!-- 46 -->
    <g style="fill:#ff69b4;" transform="translate(255.86425 301.915238)scale(0.1 -0.1)">
     <use xlink:href="#DejaVuSans-52"/>
     <use x="63.623047" xlink:href="#DejaVuSans-54"/>
    </g>
   </g>
   <g id="text_47">
    <!-- 43.7 -->
    <g style="fill:#8b4513;" transform="translate(266.437329 311.337579)scale(0.1 -0.1)">
     <use xlink:href="#DejaVuSans-52"/>
     <use x="63.623047" xlink:href="#DejaVuSans-51"/>
     <use x="127.246094" xlink:href="#DejaVuSans-46"/>
     <use x="159.033203" xlink:href="#DejaVuSans-55"/>
    </g>
   </g>
   <g id="text_48">
    <!-- 43.6 -->
    <g style="fill:#2e8b57;" transform="translate(257.458113 311.364398)scale(0.1 -0.1)">
     <use xlink:href="#DejaVuSans-52"/>
     <use x="63.623047" xlink:href="#DejaVuSans-51"/>
     <use x="127.246094" xlink:href="#DejaVuSans-46"/>
     <use x="159.033203" xlink:href="#DejaVuSans-54"/>
    </g>
   </g>
   <g id="text_49">
    <!-- 44.4 -->
    <g style="fill:#8b0000;" transform="translate(236.919583 288.606132)scale(0.1 -0.1)">
     <use xlink:href="#DejaVuSans-52"/>
     <use x="63.623047" xlink:href="#DejaVuSans-52"/>
     <use x="127.246094" xlink:href="#DejaVuSans-46"/>
     <use x="159.033203" xlink:href="#DejaVuSans-52"/>
    </g>
   </g>
   <g id="text_50">
    <!-- 43.3 -->
    <g style="fill:#b8860b;" transform="translate(276.019837 309.666799)scale(0.1 -0.1)">
     <use xlink:href="#DejaVuSans-52"/>
     <use x="63.623047" xlink:href="#DejaVuSans-51"/>
     <use x="127.246094" xlink:href="#DejaVuSans-46"/>
     <use x="159.033203" xlink:href="#DejaVuSans-51"/>
    </g>
   </g>
   <g id="text_51">
    <!-- 45.1 -->
    <g style="fill:#d2691e;" transform="translate(221.847153 271.834367)scale(0.1 -0.1)">
     <use xlink:href="#DejaVuSans-52"/>
     <use x="63.623047" xlink:href="#DejaVuSans-53"/>
     <use x="127.246094" xlink:href="#DejaVuSans-46"/>
     <use x="159.033203" xlink:href="#DejaVuSans-49"/>
    </g>
   </g>
   <g id="text_52">
    <!-- 43.1 -->
    <g style="fill:#b03060;" transform="translate(272.793931 298.052555)scale(0.1 -0.1)">
     <use xlink:href="#DejaVuSans-52"/>
     <use x="63.623047" xlink:href="#DejaVuSans-51"/>
     <use x="127.246094" xlink:href="#DejaVuSans-46"/>
     <use x="159.033203" xlink:href="#DejaVuSans-49"/>
    </g>
   </g>
   <g id="text_53">
    <!-- 38.3 -->
    <g style="fill:#00ced1;" transform="translate(257.101491 279.160764)scale(0.1 -0.1)">
     <use xlink:href="#DejaVuSans-51"/>
     <use x="63.623047" xlink:href="#DejaVuSans-56"/>
     <use x="127.246094" xlink:href="#DejaVuSans-46"/>
     <use x="159.033203" xlink:href="#DejaVuSans-51"/>
    </g>
   </g>
   <g id="text_54">
    <!-- 22.1 -->
    <g style="fill:#adff2f;" transform="translate(256.200675 269.307531)scale(0.1 -0.1)">
     <use xlink:href="#DejaVuSans-50"/>
     <use x="63.623047" xlink:href="#DejaVuSans-50"/>
     <use x="127.246094" xlink:href="#DejaVuSans-46"/>
     <use x="159.033203" xlink:href="#DejaVuSans-49"/>
    </g>
   </g>
   <g id="text_55">
    <!-- 19.2 -->
    <g style="fill:#da70d6;" transform="translate(250.762834 279.160764)scale(0.1 -0.1)">
     <use xlink:href="#DejaVuSans-49"/>
     <use x="63.623047" xlink:href="#DejaVuSans-57"/>
     <use x="127.246094" xlink:href="#DejaVuSans-46"/>
     <use x="159.033203" xlink:href="#DejaVuSans-50"/>
    </g>
   </g>
   <g id="text_56">
    <!-- 15.3 -->
    <g style="fill:#90ee90;" transform="translate(274.53259 324.682559)scale(0.1 -0.1)">
     <use xlink:href="#DejaVuSans-49"/>
     <use x="63.623047" xlink:href="#DejaVuSans-53"/>
     <use x="127.246094" xlink:href="#DejaVuSans-46"/>
     <use x="159.033203" xlink:href="#DejaVuSans-51"/>
    </g>
   </g>
   <g id="text_57">
    <!-- 12.5 -->
    <g style="fill:#7b68ee;" transform="translate(255.025989 250.603569)scale(0.1 -0.1)">
     <use xlink:href="#DejaVuSans-49"/>
     <use x="63.623047" xlink:href="#DejaVuSans-50"/>
     <use x="127.246094" xlink:href="#DejaVuSans-46"/>
     <use x="159.033203" xlink:href="#DejaVuSans-53"/>
    </g>
   </g>
   <g id="text_58">
    <!-- 14.2 -->
    <g style="fill:#2f4f4f;" transform="translate(271.941808 252.299013)scale(0.1 -0.1)">
     <use xlink:href="#DejaVuSans-49"/>
     <use x="63.623047" xlink:href="#DejaVuSans-52"/>
     <use x="127.246094" xlink:href="#DejaVuSans-46"/>
     <use x="159.033203" xlink:href="#DejaVuSans-50"/>
    </g>
   </g>
   <g id="text_59">
    <!-- 11.4 -->
    <g style="fill:#8b4513;" transform="translate(270.387642 311.365661)scale(0.1 -0.1)">
     <use xlink:href="#DejaVuSans-49"/>
     <use x="63.623047" xlink:href="#DejaVuSans-49"/>
     <use x="127.246094" xlink:href="#DejaVuSans-46"/>
     <use x="159.033203" xlink:href="#DejaVuSans-52"/>
    </g>
   </g>
   <g id="text_60">
    <!-- 5.9 -->
    <g style="fill:#708090;" transform="translate(249.043612 279.160764)scale(0.1 -0.1)">
     <use xlink:href="#DejaVuSans-53"/>
     <use x="63.623047" xlink:href="#DejaVuSans-46"/>
     <use x="95.410156" xlink:href="#DejaVuSans-57"/>
    </g>
   </g>
   <g id="text_61">
    <!-- 11.3 -->
    <g style="fill:#8b0000;" transform="translate(244.162172 232.627726)scale(0.1 -0.1)">
     <use xlink:href="#DejaVuSans-49"/>
     <use x="63.623047" xlink:href="#DejaVuSans-49"/>
     <use x="127.246094" xlink:href="#DejaVuSans-46"/>
     <use x="159.033203" xlink:href="#DejaVuSans-51"/>
    </g>
   </g>
   <g id="text_62">
    <!-- 11.2 -->
    <g style="fill:#4682b4;" transform="translate(255.771187 298.05065)scale(0.1 -0.1)">
     <use xlink:href="#DejaVuSans-49"/>
     <use x="63.623047" xlink:href="#DejaVuSans-49"/>
     <use x="127.246094" xlink:href="#DejaVuSans-46"/>
     <use x="159.033203" xlink:href="#DejaVuSans-50"/>
    </g>
   </g>
   <g id="text_63">
    <!-- 9.3 -->
    <g style="fill:#8fbc8f;" transform="translate(262.117229 247.462388)scale(0.1 -0.1)">
     <use xlink:href="#DejaVuSans-57"/>
     <use x="63.623047" xlink:href="#DejaVuSans-46"/>
     <use x="95.410156" xlink:href="#DejaVuSans-51"/>
    </g>
   </g>
   <g id="text_64">
    <!-- 11.1 -->
    <g style="fill:#800080;" transform="translate(256.05455 318.691883)scale(0.1 -0.1)">
     <use xlink:href="#DejaVuSans-49"/>
     <use x="63.623047" xlink:href="#DejaVuSans-49"/>
     <use x="127.246094" xlink:href="#DejaVuSans-46"/>
     <use x="159.033203" xlink:href="#DejaVuSans-49"/>
    </g>
   </g>
   <g id="text_65">
    <!-- 5.6 -->
    <g style="fill:#b03060;" transform="translate(272.547395 288.604426)scale(0.1 -0.1)">
     <use xlink:href="#DejaVuSans-53"/>
     <use x="63.623047" xlink:href="#DejaVuSans-46"/>
     <use x="95.410156" xlink:href="#DejaVuSans-54"/>
    </g>
   </g>
   <g id="text_66">
    <!-- 8.3 -->
    <g style="fill:#9932cc;" transform="translate(271.351676 288.606132)scale(0.1 -0.1)">
     <use xlink:href="#DejaVuSans-56"/>
     <use x="63.623047" xlink:href="#DejaVuSans-46"/>
     <use x="95.410156" xlink:href="#DejaVuSans-51"/>
    </g>
   </g>
   <g id="text_67">
    <!-- 9.2 -->
    <g style="fill:#ff4500;" transform="translate(249.199754 258.513371)scale(0.1 -0.1)">
     <use xlink:href="#DejaVuSans-57"/>
     <use x="63.623047" xlink:href="#DejaVuSans-46"/>
     <use x="95.410156" xlink:href="#DejaVuSans-50"/>
    </g>
   </g>
   <g id="text_68">
    <!-- 2.8 -->
    <g style="fill:#00ced1;" transform="translate(254.757029 288.606132)scale(0.1 -0.1)">
     <use xlink:href="#DejaVuSans-50"/>
     <use x="63.623047" xlink:href="#DejaVuSans-46"/>
     <use x="95.410156" xlink:href="#DejaVuSans-56"/>
    </g>
   </g>
   <g id="text_69">
    <!-- 9.1 -->
    <g style="fill:#0000cd;" transform="translate(278.666964 254.402152)scale(0.1 -0.1)">
     <use xlink:href="#DejaVuSans-57"/>
     <use x="63.623047" xlink:href="#DejaVuSans-46"/>
     <use x="95.410156" xlink:href="#DejaVuSans-49"/>
    </g>
   </g>
   <g id="text_70">
    <!-- 7.2 -->
    <g style="fill:#00fa9a;" transform="translate(300.289268 326.901986)scale(0.1 -0.1)">
     <use xlink:href="#DejaVuSans-55"/>
     <use x="63.623047" xlink:href="#DejaVuSans-46"/>
     <use x="95.410156" xlink:href="#DejaVuSans-50"/>
    </g>
   </g>
   <g id="text_71">
    <!-- 8.1 -->
    <g style="fill:#dc143c;" transform="translate(266.569064 331.907751)scale(0.1 -0.1)">
     <use xlink:href="#DejaVuSans-56"/>
     <use x="63.623047" xlink:href="#DejaVuSans-46"/>
     <use x="95.410156" xlink:href="#DejaVuSans-49"/>
    </g>
   </g>
   <g id="text_72">
    <!-- 3.1 -->
    <g style="fill:#ffff54;" transform="translate(249.831877 251.850561)scale(0.1 -0.1)">
     <use xlink:href="#DejaVuSans-51"/>
     <use x="63.623047" xlink:href="#DejaVuSans-46"/>
     <use x="95.410156" xlink:href="#DejaVuSans-49"/>
    </g>
   </g>
  </g>
 </g>
 <defs>
  <clipPath id="p38522c3be2">
   <rect height="498.96" width="390.6" x="63" y="77.76"/>
  </clipPath>
 </defs>
</svg>
