<?xml version="1.0" encoding="utf-8" standalone="no"?>
<!DOCTYPE svg PUBLIC "-//W3C//DTD SVG 1.1//EN"
  "http://www.w3.org/Graphics/SVG/1.1/DTD/svg11.dtd">
<!-- Created with matplotlib (https://matplotlib.org/) -->
<svg height="576pt" version="1.1" viewBox="0 0 504 576" width="504pt" xmlns="http://www.w3.org/2000/svg" xmlns:xlink="http://www.w3.org/1999/xlink">
 <metadata>
  <rdf:RDF xmlns:cc="http://creativecommons.org/ns#" xmlns:dc="http://purl.org/dc/elements/1.1/" xmlns:rdf="http://www.w3.org/1999/02/22-rdf-syntax-ns#">
   <cc:Work>
    <dc:type rdf:resource="http://purl.org/dc/dcmitype/StillImage"/>
    <dc:date>2023-04-14T13:21:11.319807</dc:date>
    <dc:format>image/svg+xml</dc:format>
    <dc:creator>
     <cc:Agent>
      <dc:title>Matplotlib v3.3.4, https://matplotlib.org/</dc:title>
     </cc:Agent>
    </dc:creator>
   </cc:Work>
  </rdf:RDF>
 </metadata>
 <defs>
  <style type="text/css">*{stroke-linecap:butt;stroke-linejoin:round;}</style>
 </defs>
 <g id="figure_1">
  <g id="patch_1">
   <path d="M 0 576 
L 504 576 
L 504 0 
L 0 0 
z
" style="fill:#ffffff;"/>
  </g>
  <g id="axes_1">
   <g id="patch_2">
    <path d="M 63 279.911489 
L 453.6 279.911489 
L 453.6 69.12 
L 63 69.12 
z
" style="fill:#ffffff;"/>
   </g>
   <g id="patch_3">
    <path clip-path="url(#pba4c586f19)" d="M 80.754545 257.117156 
L 84.656643 257.117156 
L 84.656643 69.12 
L 80.754545 69.12 
z
" style="fill:#999999;"/>
   </g>
   <g id="patch_4">
    <path clip-path="url(#pba4c586f19)" d="M 100.265035 257.117156 
L 104.167133 257.117156 
L 104.167133 91.686017 
L 100.265035 91.686017 
z
" style="fill:#999999;"/>
   </g>
   <g id="patch_5">
    <path clip-path="url(#pba4c586f19)" d="M 119.775524 257.117156 
L 123.677622 257.117156 
L 123.677622 130.578386 
L 119.775524 130.578386 
z
" style="fill:#999999;"/>
   </g>
   <g id="patch_6">
    <path clip-path="url(#pba4c586f19)" d="M 139.286014 257.117156 
L 143.188112 257.117156 
L 143.188112 157.108312 
L 139.286014 157.108312 
z
" style="fill:#999999;"/>
   </g>
   <g id="patch_7">
    <path clip-path="url(#pba4c586f19)" d="M 158.796503 257.117156 
L 162.698601 257.117156 
L 162.698601 177.299906 
L 158.796503 177.299906 
z
" style="fill:#999999;"/>
   </g>
   <g id="patch_8">
    <path clip-path="url(#pba4c586f19)" d="M 178.306993 257.117156 
L 182.209091 257.117156 
L 182.209091 198.86008 
L 178.306993 198.86008 
z
" style="fill:#999999;"/>
   </g>
   <g id="patch_9">
    <path clip-path="url(#pba4c586f19)" d="M 197.817483 257.117156 
L 201.71958 257.117156 
L 201.71958 218.039928 
L 197.817483 218.039928 
z
" style="fill:#999999;"/>
   </g>
   <g id="patch_10">
    <path clip-path="url(#pba4c586f19)" d="M 217.327972 257.117156 
L 221.23007 257.117156 
L 221.23007 229.643787 
L 217.327972 229.643787 
z
" style="fill:#999999;"/>
   </g>
   <g id="patch_11">
    <path clip-path="url(#pba4c586f19)" d="M 236.838462 257.117156 
L 240.740559 257.117156 
L 240.740559 241.6746 
L 236.838462 241.6746 
z
" style="fill:#999999;"/>
   </g>
   <g id="patch_12">
    <path clip-path="url(#pba4c586f19)" d="M 256.348951 257.117156 
L 260.251049 257.117156 
L 260.251049 250.837355 
L 256.348951 250.837355 
z
" style="fill:#999999;"/>
   </g>
   <g id="patch_13">
    <path clip-path="url(#pba4c586f19)" d="M 275.859441 257.117156 
L 279.761538 257.117156 
L 279.761538 256.444319 
L 275.859441 256.444319 
z
" style="fill:#999999;"/>
   </g>
   <g id="patch_14">
    <path clip-path="url(#pba4c586f19)" d="M 295.36993 257.117156 
L 299.272028 257.117156 
L 299.272028 262.378861 
L 295.36993 262.378861 
z
" style="fill:#999999;"/>
   </g>
   <g id="patch_15">
    <path clip-path="url(#pba4c586f19)" d="M 314.88042 257.117156 
L 318.782517 257.117156 
L 318.782517 266.428283 
L 314.88042 266.428283 
z
" style="fill:#999999;"/>
   </g>
   <g id="patch_16">
    <path clip-path="url(#pba4c586f19)" d="M 334.390909 257.117156 
L 338.293007 257.117156 
L 338.293007 268.935823 
L 334.390909 268.935823 
z
" style="fill:#999999;"/>
   </g>
   <g id="patch_17">
    <path clip-path="url(#pba4c586f19)" d="M 353.901399 257.117156 
L 357.803497 257.117156 
L 357.803497 269.494045 
L 353.901399 269.494045 
z
" style="fill:#999999;"/>
   </g>
   <g id="patch_18">
    <path clip-path="url(#pba4c586f19)" d="M 373.411888 257.117156 
L 377.313986 257.117156 
L 377.313986 271.903816 
L 373.411888 271.903816 
z
" style="fill:#999999;"/>
   </g>
   <g id="patch_19">
    <path clip-path="url(#pba4c586f19)" d="M 392.922378 257.117156 
L 396.824476 257.117156 
L 396.824476 272.996109 
L 392.922378 272.996109 
z
" style="fill:#999999;"/>
   </g>
   <g id="patch_20">
    <path clip-path="url(#pba4c586f19)" d="M 412.432867 257.117156 
L 416.334965 257.117156 
L 416.334965 274.382359 
L 412.432867 274.382359 
z
" style="fill:#999999;"/>
   </g>
   <g id="patch_21">
    <path clip-path="url(#pba4c586f19)" d="M 431.943357 257.117156 
L 435.845455 257.117156 
L 435.845455 277.824445 
L 431.943357 277.824445 
z
" style="fill:#999999;"/>
   </g>
   <g id="matplotlib.axis_1">
    <g id="xtick_1">
     <g id="line2d_1">
      <defs>
       <path d="M 0 0 
L 0 3.5 
" id="mf10123ff65" style="stroke:#000000;stroke-width:0.8;"/>
      </defs>
      <g>
       <use style="stroke:#000000;stroke-width:0.8;" x="90.50979" xlink:href="#mf10123ff65" y="279.911489"/>
      </g>
     </g>
     <g id="text_1">
      <!-- 1 -->
      <g transform="translate(87.32854 294.509927)scale(0.1 -0.1)">
       <defs>
        <path d="M 12.40625 8.296875 
L 28.515625 8.296875 
L 28.515625 63.921875 
L 10.984375 60.40625 
L 10.984375 69.390625 
L 28.421875 72.90625 
L 38.28125 72.90625 
L 38.28125 8.296875 
L 54.390625 8.296875 
L 54.390625 0 
L 12.40625 0 
z
" id="DejaVuSans-49"/>
       </defs>
       <use xlink:href="#DejaVuSans-49"/>
      </g>
     </g>
    </g>
    <g id="xtick_2">
     <g id="line2d_2">
      <g>
       <use style="stroke:#000000;stroke-width:0.8;" x="110.02028" xlink:href="#mf10123ff65" y="279.911489"/>
      </g>
     </g>
     <g id="text_2">
      <!-- 2 -->
      <g transform="translate(106.83903 294.509927)scale(0.1 -0.1)">
       <defs>
        <path d="M 19.1875 8.296875 
L 53.609375 8.296875 
L 53.609375 0 
L 7.328125 0 
L 7.328125 8.296875 
Q 12.9375 14.109375 22.625 23.890625 
Q 32.328125 33.6875 34.8125 36.53125 
Q 39.546875 41.84375 41.421875 45.53125 
Q 43.3125 49.21875 43.3125 52.78125 
Q 43.3125 58.59375 39.234375 62.25 
Q 35.15625 65.921875 28.609375 65.921875 
Q 23.96875 65.921875 18.8125 64.3125 
Q 13.671875 62.703125 7.8125 59.421875 
L 7.8125 69.390625 
Q 13.765625 71.78125 18.9375 73 
Q 24.125 74.21875 28.421875 74.21875 
Q 39.75 74.21875 46.484375 68.546875 
Q 53.21875 62.890625 53.21875 53.421875 
Q 53.21875 48.921875 51.53125 44.890625 
Q 49.859375 40.875 45.40625 35.40625 
Q 44.1875 33.984375 37.640625 27.21875 
Q 31.109375 20.453125 19.1875 8.296875 
z
" id="DejaVuSans-50"/>
       </defs>
       <use xlink:href="#DejaVuSans-50"/>
      </g>
     </g>
    </g>
    <g id="xtick_3">
     <g id="line2d_3">
      <g>
       <use style="stroke:#000000;stroke-width:0.8;" x="129.530769" xlink:href="#mf10123ff65" y="279.911489"/>
      </g>
     </g>
     <g id="text_3">
      <!-- 3 -->
      <g transform="translate(126.349519 294.509927)scale(0.1 -0.1)">
       <defs>
        <path d="M 40.578125 39.3125 
Q 47.65625 37.796875 51.625 33 
Q 55.609375 28.21875 55.609375 21.1875 
Q 55.609375 10.40625 48.1875 4.484375 
Q 40.765625 -1.421875 27.09375 -1.421875 
Q 22.515625 -1.421875 17.65625 -0.515625 
Q 12.796875 0.390625 7.625 2.203125 
L 7.625 11.71875 
Q 11.71875 9.328125 16.59375 8.109375 
Q 21.484375 6.890625 26.8125 6.890625 
Q 36.078125 6.890625 40.9375 10.546875 
Q 45.796875 14.203125 45.796875 21.1875 
Q 45.796875 27.640625 41.28125 31.265625 
Q 36.765625 34.90625 28.71875 34.90625 
L 20.21875 34.90625 
L 20.21875 43.015625 
L 29.109375 43.015625 
Q 36.375 43.015625 40.234375 45.921875 
Q 44.09375 48.828125 44.09375 54.296875 
Q 44.09375 59.90625 40.109375 62.90625 
Q 36.140625 65.921875 28.71875 65.921875 
Q 24.65625 65.921875 20.015625 65.03125 
Q 15.375 64.15625 9.8125 62.3125 
L 9.8125 71.09375 
Q 15.4375 72.65625 20.34375 73.4375 
Q 25.25 74.21875 29.59375 74.21875 
Q 40.828125 74.21875 47.359375 69.109375 
Q 53.90625 64.015625 53.90625 55.328125 
Q 53.90625 49.265625 50.4375 45.09375 
Q 46.96875 40.921875 40.578125 39.3125 
z
" id="DejaVuSans-51"/>
       </defs>
       <use xlink:href="#DejaVuSans-51"/>
      </g>
     </g>
    </g>
    <g id="xtick_4">
     <g id="line2d_4">
      <g>
       <use style="stroke:#000000;stroke-width:0.8;" x="149.041259" xlink:href="#mf10123ff65" y="279.911489"/>
      </g>
     </g>
     <g id="text_4">
      <!-- 4 -->
      <g transform="translate(145.860009 294.509927)scale(0.1 -0.1)">
       <defs>
        <path d="M 37.796875 64.3125 
L 12.890625 25.390625 
L 37.796875 25.390625 
z
M 35.203125 72.90625 
L 47.609375 72.90625 
L 47.609375 25.390625 
L 58.015625 25.390625 
L 58.015625 17.1875 
L 47.609375 17.1875 
L 47.609375 0 
L 37.796875 0 
L 37.796875 17.1875 
L 4.890625 17.1875 
L 4.890625 26.703125 
z
" id="DejaVuSans-52"/>
       </defs>
       <use xlink:href="#DejaVuSans-52"/>
      </g>
     </g>
    </g>
    <g id="xtick_5">
     <g id="line2d_5">
      <g>
       <use style="stroke:#000000;stroke-width:0.8;" x="168.551748" xlink:href="#mf10123ff65" y="279.911489"/>
      </g>
     </g>
     <g id="text_5">
      <!-- 5 -->
      <g transform="translate(165.370498 294.509927)scale(0.1 -0.1)">
       <defs>
        <path d="M 10.796875 72.90625 
L 49.515625 72.90625 
L 49.515625 64.59375 
L 19.828125 64.59375 
L 19.828125 46.734375 
Q 21.96875 47.46875 24.109375 47.828125 
Q 26.265625 48.1875 28.421875 48.1875 
Q 40.625 48.1875 47.75 41.5 
Q 54.890625 34.8125 54.890625 23.390625 
Q 54.890625 11.625 47.5625 5.09375 
Q 40.234375 -1.421875 26.90625 -1.421875 
Q 22.3125 -1.421875 17.546875 -0.640625 
Q 12.796875 0.140625 7.71875 1.703125 
L 7.71875 11.625 
Q 12.109375 9.234375 16.796875 8.0625 
Q 21.484375 6.890625 26.703125 6.890625 
Q 35.15625 6.890625 40.078125 11.328125 
Q 45.015625 15.765625 45.015625 23.390625 
Q 45.015625 31 40.078125 35.4375 
Q 35.15625 39.890625 26.703125 39.890625 
Q 22.75 39.890625 18.8125 39.015625 
Q 14.890625 38.140625 10.796875 36.28125 
z
" id="DejaVuSans-53"/>
       </defs>
       <use xlink:href="#DejaVuSans-53"/>
      </g>
     </g>
    </g>
    <g id="xtick_6">
     <g id="line2d_6">
      <g>
       <use style="stroke:#000000;stroke-width:0.8;" x="188.062238" xlink:href="#mf10123ff65" y="279.911489"/>
      </g>
     </g>
     <g id="text_6">
      <!-- 6 -->
      <g transform="translate(184.880988 294.509927)scale(0.1 -0.1)">
       <defs>
        <path d="M 33.015625 40.375 
Q 26.375 40.375 22.484375 35.828125 
Q 18.609375 31.296875 18.609375 23.390625 
Q 18.609375 15.53125 22.484375 10.953125 
Q 26.375 6.390625 33.015625 6.390625 
Q 39.65625 6.390625 43.53125 10.953125 
Q 47.40625 15.53125 47.40625 23.390625 
Q 47.40625 31.296875 43.53125 35.828125 
Q 39.65625 40.375 33.015625 40.375 
z
M 52.59375 71.296875 
L 52.59375 62.3125 
Q 48.875 64.0625 45.09375 64.984375 
Q 41.3125 65.921875 37.59375 65.921875 
Q 27.828125 65.921875 22.671875 59.328125 
Q 17.53125 52.734375 16.796875 39.40625 
Q 19.671875 43.65625 24.015625 45.921875 
Q 28.375 48.1875 33.59375 48.1875 
Q 44.578125 48.1875 50.953125 41.515625 
Q 57.328125 34.859375 57.328125 23.390625 
Q 57.328125 12.15625 50.6875 5.359375 
Q 44.046875 -1.421875 33.015625 -1.421875 
Q 20.359375 -1.421875 13.671875 8.265625 
Q 6.984375 17.96875 6.984375 36.375 
Q 6.984375 53.65625 15.1875 63.9375 
Q 23.390625 74.21875 37.203125 74.21875 
Q 40.921875 74.21875 44.703125 73.484375 
Q 48.484375 72.75 52.59375 71.296875 
z
" id="DejaVuSans-54"/>
       </defs>
       <use xlink:href="#DejaVuSans-54"/>
      </g>
     </g>
    </g>
    <g id="xtick_7">
     <g id="line2d_7">
      <g>
       <use style="stroke:#000000;stroke-width:0.8;" x="207.572727" xlink:href="#mf10123ff65" y="279.911489"/>
      </g>
     </g>
     <g id="text_7">
      <!-- 7 -->
      <g transform="translate(204.391477 294.509927)scale(0.1 -0.1)">
       <defs>
        <path d="M 8.203125 72.90625 
L 55.078125 72.90625 
L 55.078125 68.703125 
L 28.609375 0 
L 18.3125 0 
L 43.21875 64.59375 
L 8.203125 64.59375 
z
" id="DejaVuSans-55"/>
       </defs>
       <use xlink:href="#DejaVuSans-55"/>
      </g>
     </g>
    </g>
    <g id="xtick_8">
     <g id="line2d_8">
      <g>
       <use style="stroke:#000000;stroke-width:0.8;" x="227.083217" xlink:href="#mf10123ff65" y="279.911489"/>
      </g>
     </g>
     <g id="text_8">
      <!-- 8 -->
      <g transform="translate(223.901967 294.509927)scale(0.1 -0.1)">
       <defs>
        <path d="M 31.78125 34.625 
Q 24.75 34.625 20.71875 30.859375 
Q 16.703125 27.09375 16.703125 20.515625 
Q 16.703125 13.921875 20.71875 10.15625 
Q 24.75 6.390625 31.78125 6.390625 
Q 38.8125 6.390625 42.859375 10.171875 
Q 46.921875 13.96875 46.921875 20.515625 
Q 46.921875 27.09375 42.890625 30.859375 
Q 38.875 34.625 31.78125 34.625 
z
M 21.921875 38.8125 
Q 15.578125 40.375 12.03125 44.71875 
Q 8.5 49.078125 8.5 55.328125 
Q 8.5 64.0625 14.71875 69.140625 
Q 20.953125 74.21875 31.78125 74.21875 
Q 42.671875 74.21875 48.875 69.140625 
Q 55.078125 64.0625 55.078125 55.328125 
Q 55.078125 49.078125 51.53125 44.71875 
Q 48 40.375 41.703125 38.8125 
Q 48.828125 37.15625 52.796875 32.3125 
Q 56.78125 27.484375 56.78125 20.515625 
Q 56.78125 9.90625 50.3125 4.234375 
Q 43.84375 -1.421875 31.78125 -1.421875 
Q 19.734375 -1.421875 13.25 4.234375 
Q 6.78125 9.90625 6.78125 20.515625 
Q 6.78125 27.484375 10.78125 32.3125 
Q 14.796875 37.15625 21.921875 38.8125 
z
M 18.3125 54.390625 
Q 18.3125 48.734375 21.84375 45.5625 
Q 25.390625 42.390625 31.78125 42.390625 
Q 38.140625 42.390625 41.71875 45.5625 
Q 45.3125 48.734375 45.3125 54.390625 
Q 45.3125 60.0625 41.71875 63.234375 
Q 38.140625 66.40625 31.78125 66.40625 
Q 25.390625 66.40625 21.84375 63.234375 
Q 18.3125 60.0625 18.3125 54.390625 
z
" id="DejaVuSans-56"/>
       </defs>
       <use xlink:href="#DejaVuSans-56"/>
      </g>
     </g>
    </g>
    <g id="xtick_9">
     <g id="line2d_9">
      <g>
       <use style="stroke:#000000;stroke-width:0.8;" x="246.593706" xlink:href="#mf10123ff65" y="279.911489"/>
      </g>
     </g>
     <g id="text_9">
      <!-- 9 -->
      <g transform="translate(243.412456 294.509927)scale(0.1 -0.1)">
       <defs>
        <path d="M 10.984375 1.515625 
L 10.984375 10.5 
Q 14.703125 8.734375 18.5 7.8125 
Q 22.3125 6.890625 25.984375 6.890625 
Q 35.75 6.890625 40.890625 13.453125 
Q 46.046875 20.015625 46.78125 33.40625 
Q 43.953125 29.203125 39.59375 26.953125 
Q 35.25 24.703125 29.984375 24.703125 
Q 19.046875 24.703125 12.671875 31.3125 
Q 6.296875 37.9375 6.296875 49.421875 
Q 6.296875 60.640625 12.9375 67.421875 
Q 19.578125 74.21875 30.609375 74.21875 
Q 43.265625 74.21875 49.921875 64.515625 
Q 56.59375 54.828125 56.59375 36.375 
Q 56.59375 19.140625 48.40625 8.859375 
Q 40.234375 -1.421875 26.421875 -1.421875 
Q 22.703125 -1.421875 18.890625 -0.6875 
Q 15.09375 0.046875 10.984375 1.515625 
z
M 30.609375 32.421875 
Q 37.25 32.421875 41.125 36.953125 
Q 45.015625 41.5 45.015625 49.421875 
Q 45.015625 57.28125 41.125 61.84375 
Q 37.25 66.40625 30.609375 66.40625 
Q 23.96875 66.40625 20.09375 61.84375 
Q 16.21875 57.28125 16.21875 49.421875 
Q 16.21875 41.5 20.09375 36.953125 
Q 23.96875 32.421875 30.609375 32.421875 
z
" id="DejaVuSans-57"/>
       </defs>
       <use xlink:href="#DejaVuSans-57"/>
      </g>
     </g>
    </g>
    <g id="xtick_10">
     <g id="line2d_10">
      <g>
       <use style="stroke:#000000;stroke-width:0.8;" x="266.104196" xlink:href="#mf10123ff65" y="279.911489"/>
      </g>
     </g>
     <g id="text_10">
      <!-- 10 -->
      <g transform="translate(259.741696 294.509927)scale(0.1 -0.1)">
       <defs>
        <path d="M 31.78125 66.40625 
Q 24.171875 66.40625 20.328125 58.90625 
Q 16.5 51.421875 16.5 36.375 
Q 16.5 21.390625 20.328125 13.890625 
Q 24.171875 6.390625 31.78125 6.390625 
Q 39.453125 6.390625 43.28125 13.890625 
Q 47.125 21.390625 47.125 36.375 
Q 47.125 51.421875 43.28125 58.90625 
Q 39.453125 66.40625 31.78125 66.40625 
z
M 31.78125 74.21875 
Q 44.046875 74.21875 50.515625 64.515625 
Q 56.984375 54.828125 56.984375 36.375 
Q 56.984375 17.96875 50.515625 8.265625 
Q 44.046875 -1.421875 31.78125 -1.421875 
Q 19.53125 -1.421875 13.0625 8.265625 
Q 6.59375 17.96875 6.59375 36.375 
Q 6.59375 54.828125 13.0625 64.515625 
Q 19.53125 74.21875 31.78125 74.21875 
z
" id="DejaVuSans-48"/>
       </defs>
       <use xlink:href="#DejaVuSans-49"/>
       <use x="63.623047" xlink:href="#DejaVuSans-48"/>
      </g>
     </g>
    </g>
    <g id="xtick_11">
     <g id="line2d_11">
      <g>
       <use style="stroke:#000000;stroke-width:0.8;" x="285.614685" xlink:href="#mf10123ff65" y="279.911489"/>
      </g>
     </g>
     <g id="text_11">
      <!-- 11 -->
      <g transform="translate(279.252185 294.509927)scale(0.1 -0.1)">
       <use xlink:href="#DejaVuSans-49"/>
       <use x="63.623047" xlink:href="#DejaVuSans-49"/>
      </g>
     </g>
    </g>
    <g id="xtick_12">
     <g id="line2d_12">
      <g>
       <use style="stroke:#000000;stroke-width:0.8;" x="305.125175" xlink:href="#mf10123ff65" y="279.911489"/>
      </g>
     </g>
     <g id="text_12">
      <!-- 12 -->
      <g transform="translate(298.762675 294.509927)scale(0.1 -0.1)">
       <use xlink:href="#DejaVuSans-49"/>
       <use x="63.623047" xlink:href="#DejaVuSans-50"/>
      </g>
     </g>
    </g>
    <g id="xtick_13">
     <g id="line2d_13">
      <g>
       <use style="stroke:#000000;stroke-width:0.8;" x="324.635664" xlink:href="#mf10123ff65" y="279.911489"/>
      </g>
     </g>
     <g id="text_13">
      <!-- 13 -->
      <g transform="translate(318.273164 294.509927)scale(0.1 -0.1)">
       <use xlink:href="#DejaVuSans-49"/>
       <use x="63.623047" xlink:href="#DejaVuSans-51"/>
      </g>
     </g>
    </g>
    <g id="xtick_14">
     <g id="line2d_14">
      <g>
       <use style="stroke:#000000;stroke-width:0.8;" x="344.146154" xlink:href="#mf10123ff65" y="279.911489"/>
      </g>
     </g>
     <g id="text_14">
      <!-- 14 -->
      <g transform="translate(337.783654 294.509927)scale(0.1 -0.1)">
       <use xlink:href="#DejaVuSans-49"/>
       <use x="63.623047" xlink:href="#DejaVuSans-52"/>
      </g>
     </g>
    </g>
    <g id="xtick_15">
     <g id="line2d_15">
      <g>
       <use style="stroke:#000000;stroke-width:0.8;" x="363.656643" xlink:href="#mf10123ff65" y="279.911489"/>
      </g>
     </g>
     <g id="text_15">
      <!-- 15 -->
      <g transform="translate(357.294143 294.509927)scale(0.1 -0.1)">
       <use xlink:href="#DejaVuSans-49"/>
       <use x="63.623047" xlink:href="#DejaVuSans-53"/>
      </g>
     </g>
    </g>
    <g id="xtick_16">
     <g id="line2d_16">
      <g>
       <use style="stroke:#000000;stroke-width:0.8;" x="383.167133" xlink:href="#mf10123ff65" y="279.911489"/>
      </g>
     </g>
     <g id="text_16">
      <!-- 16 -->
      <g transform="translate(376.804633 294.509927)scale(0.1 -0.1)">
       <use xlink:href="#DejaVuSans-49"/>
       <use x="63.623047" xlink:href="#DejaVuSans-54"/>
      </g>
     </g>
    </g>
    <g id="xtick_17">
     <g id="line2d_17">
      <g>
       <use style="stroke:#000000;stroke-width:0.8;" x="402.677622" xlink:href="#mf10123ff65" y="279.911489"/>
      </g>
     </g>
     <g id="text_17">
      <!-- 17 -->
      <g transform="translate(396.315122 294.509927)scale(0.1 -0.1)">
       <use xlink:href="#DejaVuSans-49"/>
       <use x="63.623047" xlink:href="#DejaVuSans-55"/>
      </g>
     </g>
    </g>
    <g id="xtick_18">
     <g id="line2d_18">
      <g>
       <use style="stroke:#000000;stroke-width:0.8;" x="422.188112" xlink:href="#mf10123ff65" y="279.911489"/>
      </g>
     </g>
     <g id="text_18">
      <!-- 18 -->
      <g transform="translate(415.825612 294.509927)scale(0.1 -0.1)">
       <use xlink:href="#DejaVuSans-49"/>
       <use x="63.623047" xlink:href="#DejaVuSans-56"/>
      </g>
     </g>
    </g>
    <g id="xtick_19">
     <g id="line2d_19">
      <g>
       <use style="stroke:#000000;stroke-width:0.8;" x="441.698601" xlink:href="#mf10123ff65" y="279.911489"/>
      </g>
     </g>
     <g id="text_19">
      <!-- 19 -->
      <g transform="translate(435.336101 294.509927)scale(0.1 -0.1)">
       <use xlink:href="#DejaVuSans-49"/>
       <use x="63.623047" xlink:href="#DejaVuSans-57"/>
      </g>
     </g>
    </g>
    <g id="text_20">
     <!-- Number of Gaussian components -->
     <g transform="translate(174.797656 308.188052)scale(0.1 -0.1)">
      <defs>
       <path d="M 9.8125 72.90625 
L 23.09375 72.90625 
L 55.421875 11.921875 
L 55.421875 72.90625 
L 64.984375 72.90625 
L 64.984375 0 
L 51.703125 0 
L 19.390625 60.984375 
L 19.390625 0 
L 9.8125 0 
z
" id="DejaVuSans-78"/>
       <path d="M 8.5 21.578125 
L 8.5 54.6875 
L 17.484375 54.6875 
L 17.484375 21.921875 
Q 17.484375 14.15625 20.5 10.265625 
Q 23.53125 6.390625 29.59375 6.390625 
Q 36.859375 6.390625 41.078125 11.03125 
Q 45.3125 15.671875 45.3125 23.6875 
L 45.3125 54.6875 
L 54.296875 54.6875 
L 54.296875 0 
L 45.3125 0 
L 45.3125 8.40625 
Q 42.046875 3.421875 37.71875 1 
Q 33.40625 -1.421875 27.6875 -1.421875 
Q 18.265625 -1.421875 13.375 4.4375 
Q 8.5 10.296875 8.5 21.578125 
z
M 31.109375 56 
z
" id="DejaVuSans-117"/>
       <path d="M 52 44.1875 
Q 55.375 50.25 60.0625 53.125 
Q 64.75 56 71.09375 56 
Q 79.640625 56 84.28125 50.015625 
Q 88.921875 44.046875 88.921875 33.015625 
L 88.921875 0 
L 79.890625 0 
L 79.890625 32.71875 
Q 79.890625 40.578125 77.09375 44.375 
Q 74.3125 48.1875 68.609375 48.1875 
Q 61.625 48.1875 57.5625 43.546875 
Q 53.515625 38.921875 53.515625 30.90625 
L 53.515625 0 
L 44.484375 0 
L 44.484375 32.71875 
Q 44.484375 40.625 41.703125 44.40625 
Q 38.921875 48.1875 33.109375 48.1875 
Q 26.21875 48.1875 22.15625 43.53125 
Q 18.109375 38.875 18.109375 30.90625 
L 18.109375 0 
L 9.078125 0 
L 9.078125 54.6875 
L 18.109375 54.6875 
L 18.109375 46.1875 
Q 21.1875 51.21875 25.484375 53.609375 
Q 29.78125 56 35.6875 56 
Q 41.65625 56 45.828125 52.96875 
Q 50 49.953125 52 44.1875 
z
" id="DejaVuSans-109"/>
       <path d="M 48.6875 27.296875 
Q 48.6875 37.203125 44.609375 42.84375 
Q 40.53125 48.484375 33.40625 48.484375 
Q 26.265625 48.484375 22.1875 42.84375 
Q 18.109375 37.203125 18.109375 27.296875 
Q 18.109375 17.390625 22.1875 11.75 
Q 26.265625 6.109375 33.40625 6.109375 
Q 40.53125 6.109375 44.609375 11.75 
Q 48.6875 17.390625 48.6875 27.296875 
z
M 18.109375 46.390625 
Q 20.953125 51.265625 25.265625 53.625 
Q 29.59375 56 35.59375 56 
Q 45.5625 56 51.78125 48.09375 
Q 58.015625 40.1875 58.015625 27.296875 
Q 58.015625 14.40625 51.78125 6.484375 
Q 45.5625 -1.421875 35.59375 -1.421875 
Q 29.59375 -1.421875 25.265625 0.953125 
Q 20.953125 3.328125 18.109375 8.203125 
L 18.109375 0 
L 9.078125 0 
L 9.078125 75.984375 
L 18.109375 75.984375 
z
" id="DejaVuSans-98"/>
       <path d="M 56.203125 29.59375 
L 56.203125 25.203125 
L 14.890625 25.203125 
Q 15.484375 15.921875 20.484375 11.0625 
Q 25.484375 6.203125 34.421875 6.203125 
Q 39.59375 6.203125 44.453125 7.46875 
Q 49.3125 8.734375 54.109375 11.28125 
L 54.109375 2.78125 
Q 49.265625 0.734375 44.1875 -0.34375 
Q 39.109375 -1.421875 33.890625 -1.421875 
Q 20.796875 -1.421875 13.15625 6.1875 
Q 5.515625 13.8125 5.515625 26.8125 
Q 5.515625 40.234375 12.765625 48.109375 
Q 20.015625 56 32.328125 56 
Q 43.359375 56 49.78125 48.890625 
Q 56.203125 41.796875 56.203125 29.59375 
z
M 47.21875 32.234375 
Q 47.125 39.59375 43.09375 43.984375 
Q 39.0625 48.390625 32.421875 48.390625 
Q 24.90625 48.390625 20.390625 44.140625 
Q 15.875 39.890625 15.1875 32.171875 
z
" id="DejaVuSans-101"/>
       <path d="M 41.109375 46.296875 
Q 39.59375 47.171875 37.8125 47.578125 
Q 36.03125 48 33.890625 48 
Q 26.265625 48 22.1875 43.046875 
Q 18.109375 38.09375 18.109375 28.8125 
L 18.109375 0 
L 9.078125 0 
L 9.078125 54.6875 
L 18.109375 54.6875 
L 18.109375 46.1875 
Q 20.953125 51.171875 25.484375 53.578125 
Q 30.03125 56 36.53125 56 
Q 37.453125 56 38.578125 55.875 
Q 39.703125 55.765625 41.0625 55.515625 
z
" id="DejaVuSans-114"/>
       <path id="DejaVuSans-32"/>
       <path d="M 30.609375 48.390625 
Q 23.390625 48.390625 19.1875 42.75 
Q 14.984375 37.109375 14.984375 27.296875 
Q 14.984375 17.484375 19.15625 11.84375 
Q 23.34375 6.203125 30.609375 6.203125 
Q 37.796875 6.203125 41.984375 11.859375 
Q 46.1875 17.53125 46.1875 27.296875 
Q 46.1875 37.015625 41.984375 42.703125 
Q 37.796875 48.390625 30.609375 48.390625 
z
M 30.609375 56 
Q 42.328125 56 49.015625 48.375 
Q 55.71875 40.765625 55.71875 27.296875 
Q 55.71875 13.875 49.015625 6.21875 
Q 42.328125 -1.421875 30.609375 -1.421875 
Q 18.84375 -1.421875 12.171875 6.21875 
Q 5.515625 13.875 5.515625 27.296875 
Q 5.515625 40.765625 12.171875 48.375 
Q 18.84375 56 30.609375 56 
z
" id="DejaVuSans-111"/>
       <path d="M 37.109375 75.984375 
L 37.109375 68.5 
L 28.515625 68.5 
Q 23.6875 68.5 21.796875 66.546875 
Q 19.921875 64.59375 19.921875 59.515625 
L 19.921875 54.6875 
L 34.71875 54.6875 
L 34.71875 47.703125 
L 19.921875 47.703125 
L 19.921875 0 
L 10.890625 0 
L 10.890625 47.703125 
L 2.296875 47.703125 
L 2.296875 54.6875 
L 10.890625 54.6875 
L 10.890625 58.5 
Q 10.890625 67.625 15.140625 71.796875 
Q 19.390625 75.984375 28.609375 75.984375 
z
" id="DejaVuSans-102"/>
       <path d="M 59.515625 10.40625 
L 59.515625 29.984375 
L 43.40625 29.984375 
L 43.40625 38.09375 
L 69.28125 38.09375 
L 69.28125 6.78125 
Q 63.578125 2.734375 56.6875 0.65625 
Q 49.8125 -1.421875 42 -1.421875 
Q 24.90625 -1.421875 15.25 8.5625 
Q 5.609375 18.5625 5.609375 36.375 
Q 5.609375 54.25 15.25 64.234375 
Q 24.90625 74.21875 42 74.21875 
Q 49.125 74.21875 55.546875 72.453125 
Q 61.96875 70.703125 67.390625 67.28125 
L 67.390625 56.78125 
Q 61.921875 61.421875 55.765625 63.765625 
Q 49.609375 66.109375 42.828125 66.109375 
Q 29.4375 66.109375 22.71875 58.640625 
Q 16.015625 51.171875 16.015625 36.375 
Q 16.015625 21.625 22.71875 14.15625 
Q 29.4375 6.6875 42.828125 6.6875 
Q 48.046875 6.6875 52.140625 7.59375 
Q 56.25 8.5 59.515625 10.40625 
z
" id="DejaVuSans-71"/>
       <path d="M 34.28125 27.484375 
Q 23.390625 27.484375 19.1875 25 
Q 14.984375 22.515625 14.984375 16.5 
Q 14.984375 11.71875 18.140625 8.90625 
Q 21.296875 6.109375 26.703125 6.109375 
Q 34.1875 6.109375 38.703125 11.40625 
Q 43.21875 16.703125 43.21875 25.484375 
L 43.21875 27.484375 
z
M 52.203125 31.203125 
L 52.203125 0 
L 43.21875 0 
L 43.21875 8.296875 
Q 40.140625 3.328125 35.546875 0.953125 
Q 30.953125 -1.421875 24.3125 -1.421875 
Q 15.921875 -1.421875 10.953125 3.296875 
Q 6 8.015625 6 15.921875 
Q 6 25.140625 12.171875 29.828125 
Q 18.359375 34.515625 30.609375 34.515625 
L 43.21875 34.515625 
L 43.21875 35.40625 
Q 43.21875 41.609375 39.140625 45 
Q 35.0625 48.390625 27.6875 48.390625 
Q 23 48.390625 18.546875 47.265625 
Q 14.109375 46.140625 10.015625 43.890625 
L 10.015625 52.203125 
Q 14.9375 54.109375 19.578125 55.046875 
Q 24.21875 56 28.609375 56 
Q 40.484375 56 46.34375 49.84375 
Q 52.203125 43.703125 52.203125 31.203125 
z
" id="DejaVuSans-97"/>
       <path d="M 44.28125 53.078125 
L 44.28125 44.578125 
Q 40.484375 46.53125 36.375 47.5 
Q 32.28125 48.484375 27.875 48.484375 
Q 21.1875 48.484375 17.84375 46.4375 
Q 14.5 44.390625 14.5 40.28125 
Q 14.5 37.15625 16.890625 35.375 
Q 19.28125 33.59375 26.515625 31.984375 
L 29.59375 31.296875 
Q 39.15625 29.25 43.1875 25.515625 
Q 47.21875 21.78125 47.21875 15.09375 
Q 47.21875 7.46875 41.1875 3.015625 
Q 35.15625 -1.421875 24.609375 -1.421875 
Q 20.21875 -1.421875 15.453125 -0.5625 
Q 10.6875 0.296875 5.421875 2 
L 5.421875 11.28125 
Q 10.40625 8.6875 15.234375 7.390625 
Q 20.0625 6.109375 24.8125 6.109375 
Q 31.15625 6.109375 34.5625 8.28125 
Q 37.984375 10.453125 37.984375 14.40625 
Q 37.984375 18.0625 35.515625 20.015625 
Q 33.0625 21.96875 24.703125 23.78125 
L 21.578125 24.515625 
Q 13.234375 26.265625 9.515625 29.90625 
Q 5.8125 33.546875 5.8125 39.890625 
Q 5.8125 47.609375 11.28125 51.796875 
Q 16.75 56 26.8125 56 
Q 31.78125 56 36.171875 55.265625 
Q 40.578125 54.546875 44.28125 53.078125 
z
" id="DejaVuSans-115"/>
       <path d="M 9.421875 54.6875 
L 18.40625 54.6875 
L 18.40625 0 
L 9.421875 0 
z
M 9.421875 75.984375 
L 18.40625 75.984375 
L 18.40625 64.59375 
L 9.421875 64.59375 
z
" id="DejaVuSans-105"/>
       <path d="M 54.890625 33.015625 
L 54.890625 0 
L 45.90625 0 
L 45.90625 32.71875 
Q 45.90625 40.484375 42.875 44.328125 
Q 39.84375 48.1875 33.796875 48.1875 
Q 26.515625 48.1875 22.3125 43.546875 
Q 18.109375 38.921875 18.109375 30.90625 
L 18.109375 0 
L 9.078125 0 
L 9.078125 54.6875 
L 18.109375 54.6875 
L 18.109375 46.1875 
Q 21.34375 51.125 25.703125 53.5625 
Q 30.078125 56 35.796875 56 
Q 45.21875 56 50.046875 50.171875 
Q 54.890625 44.34375 54.890625 33.015625 
z
" id="DejaVuSans-110"/>
       <path d="M 48.78125 52.59375 
L 48.78125 44.1875 
Q 44.96875 46.296875 41.140625 47.34375 
Q 37.3125 48.390625 33.40625 48.390625 
Q 24.65625 48.390625 19.8125 42.84375 
Q 14.984375 37.3125 14.984375 27.296875 
Q 14.984375 17.28125 19.8125 11.734375 
Q 24.65625 6.203125 33.40625 6.203125 
Q 37.3125 6.203125 41.140625 7.25 
Q 44.96875 8.296875 48.78125 10.40625 
L 48.78125 2.09375 
Q 45.015625 0.34375 40.984375 -0.53125 
Q 36.96875 -1.421875 32.421875 -1.421875 
Q 20.0625 -1.421875 12.78125 6.34375 
Q 5.515625 14.109375 5.515625 27.296875 
Q 5.515625 40.671875 12.859375 48.328125 
Q 20.21875 56 33.015625 56 
Q 37.15625 56 41.109375 55.140625 
Q 45.0625 54.296875 48.78125 52.59375 
z
" id="DejaVuSans-99"/>
       <path d="M 18.109375 8.203125 
L 18.109375 -20.796875 
L 9.078125 -20.796875 
L 9.078125 54.6875 
L 18.109375 54.6875 
L 18.109375 46.390625 
Q 20.953125 51.265625 25.265625 53.625 
Q 29.59375 56 35.59375 56 
Q 45.5625 56 51.78125 48.09375 
Q 58.015625 40.1875 58.015625 27.296875 
Q 58.015625 14.40625 51.78125 6.484375 
Q 45.5625 -1.421875 35.59375 -1.421875 
Q 29.59375 -1.421875 25.265625 0.953125 
Q 20.953125 3.328125 18.109375 8.203125 
z
M 48.6875 27.296875 
Q 48.6875 37.203125 44.609375 42.84375 
Q 40.53125 48.484375 33.40625 48.484375 
Q 26.265625 48.484375 22.1875 42.84375 
Q 18.109375 37.203125 18.109375 27.296875 
Q 18.109375 17.390625 22.1875 11.75 
Q 26.265625 6.109375 33.40625 6.109375 
Q 40.53125 6.109375 44.609375 11.75 
Q 48.6875 17.390625 48.6875 27.296875 
z
" id="DejaVuSans-112"/>
       <path d="M 18.3125 70.21875 
L 18.3125 54.6875 
L 36.8125 54.6875 
L 36.8125 47.703125 
L 18.3125 47.703125 
L 18.3125 18.015625 
Q 18.3125 11.328125 20.140625 9.421875 
Q 21.96875 7.515625 27.59375 7.515625 
L 36.8125 7.515625 
L 36.8125 0 
L 27.59375 0 
Q 17.1875 0 13.234375 3.875 
Q 9.28125 7.765625 9.28125 18.015625 
L 9.28125 47.703125 
L 2.6875 47.703125 
L 2.6875 54.6875 
L 9.28125 54.6875 
L 9.28125 70.21875 
z
" id="DejaVuSans-116"/>
      </defs>
      <use xlink:href="#DejaVuSans-78"/>
      <use x="74.804688" xlink:href="#DejaVuSans-117"/>
      <use x="138.183594" xlink:href="#DejaVuSans-109"/>
      <use x="235.595703" xlink:href="#DejaVuSans-98"/>
      <use x="299.072266" xlink:href="#DejaVuSans-101"/>
      <use x="360.595703" xlink:href="#DejaVuSans-114"/>
      <use x="401.708984" xlink:href="#DejaVuSans-32"/>
      <use x="433.496094" xlink:href="#DejaVuSans-111"/>
      <use x="494.677734" xlink:href="#DejaVuSans-102"/>
      <use x="529.882812" xlink:href="#DejaVuSans-32"/>
      <use x="561.669922" xlink:href="#DejaVuSans-71"/>
      <use x="639.160156" xlink:href="#DejaVuSans-97"/>
      <use x="700.439453" xlink:href="#DejaVuSans-117"/>
      <use x="763.818359" xlink:href="#DejaVuSans-115"/>
      <use x="815.917969" xlink:href="#DejaVuSans-115"/>
      <use x="868.017578" xlink:href="#DejaVuSans-105"/>
      <use x="895.800781" xlink:href="#DejaVuSans-97"/>
      <use x="957.080078" xlink:href="#DejaVuSans-110"/>
      <use x="1020.458984" xlink:href="#DejaVuSans-32"/>
      <use x="1052.246094" xlink:href="#DejaVuSans-99"/>
      <use x="1107.226562" xlink:href="#DejaVuSans-111"/>
      <use x="1168.408203" xlink:href="#DejaVuSans-109"/>
      <use x="1265.820312" xlink:href="#DejaVuSans-112"/>
      <use x="1329.296875" xlink:href="#DejaVuSans-111"/>
      <use x="1390.478516" xlink:href="#DejaVuSans-110"/>
      <use x="1453.857422" xlink:href="#DejaVuSans-101"/>
      <use x="1515.380859" xlink:href="#DejaVuSans-110"/>
      <use x="1578.759766" xlink:href="#DejaVuSans-116"/>
      <use x="1617.96875" xlink:href="#DejaVuSans-115"/>
     </g>
    </g>
   </g>
   <g id="matplotlib.axis_2">
    <g id="ytick_1">
     <g id="line2d_20">
      <defs>
       <path d="M 0 0 
L -3.5 0 
" id="mb9ed0cdd66" style="stroke:#000000;stroke-width:0.8;"/>
      </defs>
      <g>
       <use style="stroke:#000000;stroke-width:0.8;" x="63" xlink:href="#mb9ed0cdd66" y="257.117156"/>
      </g>
     </g>
     <g id="text_21">
      <!-- 0 -->
      <g transform="translate(49.6375 260.916374)scale(0.1 -0.1)">
       <use xlink:href="#DejaVuSans-48"/>
      </g>
     </g>
    </g>
    <g id="ytick_2">
     <g id="line2d_21">
      <g>
       <use style="stroke:#000000;stroke-width:0.8;" x="63" xlink:href="#mb9ed0cdd66" y="222.789935"/>
      </g>
     </g>
     <g id="text_22">
      <!-- 1000 -->
      <g transform="translate(30.55 226.589154)scale(0.1 -0.1)">
       <use xlink:href="#DejaVuSans-49"/>
       <use x="63.623047" xlink:href="#DejaVuSans-48"/>
       <use x="127.246094" xlink:href="#DejaVuSans-48"/>
       <use x="190.869141" xlink:href="#DejaVuSans-48"/>
      </g>
     </g>
    </g>
    <g id="ytick_3">
     <g id="line2d_22">
      <g>
       <use style="stroke:#000000;stroke-width:0.8;" x="63" xlink:href="#mb9ed0cdd66" y="188.462714"/>
      </g>
     </g>
     <g id="text_23">
      <!-- 2000 -->
      <g transform="translate(30.55 192.261933)scale(0.1 -0.1)">
       <use xlink:href="#DejaVuSans-50"/>
       <use x="63.623047" xlink:href="#DejaVuSans-48"/>
       <use x="127.246094" xlink:href="#DejaVuSans-48"/>
       <use x="190.869141" xlink:href="#DejaVuSans-48"/>
      </g>
     </g>
    </g>
    <g id="ytick_4">
     <g id="line2d_23">
      <g>
       <use style="stroke:#000000;stroke-width:0.8;" x="63" xlink:href="#mb9ed0cdd66" y="154.135493"/>
      </g>
     </g>
     <g id="text_24">
      <!-- 3000 -->
      <g transform="translate(30.55 157.934712)scale(0.1 -0.1)">
       <use xlink:href="#DejaVuSans-51"/>
       <use x="63.623047" xlink:href="#DejaVuSans-48"/>
       <use x="127.246094" xlink:href="#DejaVuSans-48"/>
       <use x="190.869141" xlink:href="#DejaVuSans-48"/>
      </g>
     </g>
    </g>
    <g id="ytick_5">
     <g id="line2d_24">
      <g>
       <use style="stroke:#000000;stroke-width:0.8;" x="63" xlink:href="#mb9ed0cdd66" y="119.808273"/>
      </g>
     </g>
     <g id="text_25">
      <!-- 4000 -->
      <g transform="translate(30.55 123.607491)scale(0.1 -0.1)">
       <use xlink:href="#DejaVuSans-52"/>
       <use x="63.623047" xlink:href="#DejaVuSans-48"/>
       <use x="127.246094" xlink:href="#DejaVuSans-48"/>
       <use x="190.869141" xlink:href="#DejaVuSans-48"/>
      </g>
     </g>
    </g>
    <g id="ytick_6">
     <g id="line2d_25">
      <g>
       <use style="stroke:#000000;stroke-width:0.8;" x="63" xlink:href="#mb9ed0cdd66" y="85.481052"/>
      </g>
     </g>
     <g id="text_26">
      <!-- 5000 -->
      <g transform="translate(30.55 89.280271)scale(0.1 -0.1)">
       <use xlink:href="#DejaVuSans-53"/>
       <use x="63.623047" xlink:href="#DejaVuSans-48"/>
       <use x="127.246094" xlink:href="#DejaVuSans-48"/>
       <use x="190.869141" xlink:href="#DejaVuSans-48"/>
      </g>
     </g>
    </g>
    <g id="text_27">
     <!-- BIC score -->
     <g transform="translate(24.470312 197.934495)rotate(-90)scale(0.1 -0.1)">
      <defs>
       <path d="M 19.671875 34.8125 
L 19.671875 8.109375 
L 35.5 8.109375 
Q 43.453125 8.109375 47.28125 11.40625 
Q 51.125 14.703125 51.125 21.484375 
Q 51.125 28.328125 47.28125 31.5625 
Q 43.453125 34.8125 35.5 34.8125 
z
M 19.671875 64.796875 
L 19.671875 42.828125 
L 34.28125 42.828125 
Q 41.5 42.828125 45.03125 45.53125 
Q 48.578125 48.25 48.578125 53.8125 
Q 48.578125 59.328125 45.03125 62.0625 
Q 41.5 64.796875 34.28125 64.796875 
z
M 9.8125 72.90625 
L 35.015625 72.90625 
Q 46.296875 72.90625 52.390625 68.21875 
Q 58.5 63.53125 58.5 54.890625 
Q 58.5 48.1875 55.375 44.234375 
Q 52.25 40.28125 46.1875 39.3125 
Q 53.46875 37.75 57.5 32.78125 
Q 61.53125 27.828125 61.53125 20.40625 
Q 61.53125 10.640625 54.890625 5.3125 
Q 48.25 0 35.984375 0 
L 9.8125 0 
z
" id="DejaVuSans-66"/>
       <path d="M 9.8125 72.90625 
L 19.671875 72.90625 
L 19.671875 0 
L 9.8125 0 
z
" id="DejaVuSans-73"/>
       <path d="M 64.40625 67.28125 
L 64.40625 56.890625 
Q 59.421875 61.53125 53.78125 63.8125 
Q 48.140625 66.109375 41.796875 66.109375 
Q 29.296875 66.109375 22.65625 58.46875 
Q 16.015625 50.828125 16.015625 36.375 
Q 16.015625 21.96875 22.65625 14.328125 
Q 29.296875 6.6875 41.796875 6.6875 
Q 48.140625 6.6875 53.78125 8.984375 
Q 59.421875 11.28125 64.40625 15.921875 
L 64.40625 5.609375 
Q 59.234375 2.09375 53.4375 0.328125 
Q 47.65625 -1.421875 41.21875 -1.421875 
Q 24.65625 -1.421875 15.125 8.703125 
Q 5.609375 18.84375 5.609375 36.375 
Q 5.609375 53.953125 15.125 64.078125 
Q 24.65625 74.21875 41.21875 74.21875 
Q 47.75 74.21875 53.53125 72.484375 
Q 59.328125 70.75 64.40625 67.28125 
z
" id="DejaVuSans-67"/>
      </defs>
      <use xlink:href="#DejaVuSans-66"/>
      <use x="68.603516" xlink:href="#DejaVuSans-73"/>
      <use x="98.095703" xlink:href="#DejaVuSans-67"/>
      <use x="167.919922" xlink:href="#DejaVuSans-32"/>
      <use x="199.707031" xlink:href="#DejaVuSans-115"/>
      <use x="251.806641" xlink:href="#DejaVuSans-99"/>
      <use x="306.787109" xlink:href="#DejaVuSans-111"/>
      <use x="367.96875" xlink:href="#DejaVuSans-114"/>
      <use x="406.832031" xlink:href="#DejaVuSans-101"/>
     </g>
    </g>
   </g>
   <g id="patch_22">
    <path d="M 63 279.911489 
L 63 69.12 
" style="fill:none;stroke:#000000;stroke-linecap:square;stroke-linejoin:miter;stroke-width:0.8;"/>
   </g>
   <g id="patch_23">
    <path d="M 453.6 279.911489 
L 453.6 69.12 
" style="fill:none;stroke:#000000;stroke-linecap:square;stroke-linejoin:miter;stroke-width:0.8;"/>
   </g>
   <g id="patch_24">
    <path d="M 63 279.911489 
L 453.6 279.911489 
" style="fill:none;stroke:#000000;stroke-linecap:square;stroke-linejoin:miter;stroke-width:0.8;"/>
   </g>
   <g id="patch_25">
    <path d="M 63 69.12 
L 453.6 69.12 
" style="fill:none;stroke:#000000;stroke-linecap:square;stroke-linejoin:miter;stroke-width:0.8;"/>
   </g>
   <g id="text_28">
    <!-- * -->
    <g transform="translate(434.86993 271.563312)scale(0.14 -0.14)">
     <defs>
      <path d="M 47.015625 60.890625 
L 29.5 51.421875 
L 47.015625 41.890625 
L 44.1875 37.109375 
L 27.78125 47.015625 
L 27.78125 28.609375 
L 22.21875 28.609375 
L 22.21875 47.015625 
L 5.8125 37.109375 
L 2.984375 41.890625 
L 20.515625 51.421875 
L 2.984375 60.890625 
L 5.8125 65.71875 
L 22.21875 55.8125 
L 22.21875 74.21875 
L 27.78125 74.21875 
L 27.78125 55.8125 
L 44.1875 65.71875 
z
" id="DejaVuSans-42"/>
     </defs>
     <use xlink:href="#DejaVuSans-42"/>
    </g>
   </g>
   <g id="text_29">
    <!-- BIC score per model -->
    <g transform="translate(197.732813 63.12)scale(0.12 -0.12)">
     <defs>
      <path d="M 45.40625 46.390625 
L 45.40625 75.984375 
L 54.390625 75.984375 
L 54.390625 0 
L 45.40625 0 
L 45.40625 8.203125 
Q 42.578125 3.328125 38.25 0.953125 
Q 33.9375 -1.421875 27.875 -1.421875 
Q 17.96875 -1.421875 11.734375 6.484375 
Q 5.515625 14.40625 5.515625 27.296875 
Q 5.515625 40.1875 11.734375 48.09375 
Q 17.96875 56 27.875 56 
Q 33.9375 56 38.25 53.625 
Q 42.578125 51.265625 45.40625 46.390625 
z
M 14.796875 27.296875 
Q 14.796875 17.390625 18.875 11.75 
Q 22.953125 6.109375 30.078125 6.109375 
Q 37.203125 6.109375 41.296875 11.75 
Q 45.40625 17.390625 45.40625 27.296875 
Q 45.40625 37.203125 41.296875 42.84375 
Q 37.203125 48.484375 30.078125 48.484375 
Q 22.953125 48.484375 18.875 42.84375 
Q 14.796875 37.203125 14.796875 27.296875 
z
" id="DejaVuSans-100"/>
      <path d="M 9.421875 75.984375 
L 18.40625 75.984375 
L 18.40625 0 
L 9.421875 0 
z
" id="DejaVuSans-108"/>
     </defs>
     <use xlink:href="#DejaVuSans-66"/>
     <use x="68.603516" xlink:href="#DejaVuSans-73"/>
     <use x="98.095703" xlink:href="#DejaVuSans-67"/>
     <use x="167.919922" xlink:href="#DejaVuSans-32"/>
     <use x="199.707031" xlink:href="#DejaVuSans-115"/>
     <use x="251.806641" xlink:href="#DejaVuSans-99"/>
     <use x="306.787109" xlink:href="#DejaVuSans-111"/>
     <use x="367.96875" xlink:href="#DejaVuSans-114"/>
     <use x="406.832031" xlink:href="#DejaVuSans-101"/>
     <use x="468.355469" xlink:href="#DejaVuSans-32"/>
     <use x="500.142578" xlink:href="#DejaVuSans-112"/>
     <use x="563.619141" xlink:href="#DejaVuSans-101"/>
     <use x="625.142578" xlink:href="#DejaVuSans-114"/>
     <use x="666.255859" xlink:href="#DejaVuSans-32"/>
     <use x="698.042969" xlink:href="#DejaVuSans-109"/>
     <use x="795.455078" xlink:href="#DejaVuSans-111"/>
     <use x="856.636719" xlink:href="#DejaVuSans-100"/>
     <use x="920.113281" xlink:href="#DejaVuSans-101"/>
     <use x="981.636719" xlink:href="#DejaVuSans-108"/>
    </g>
   </g>
   <g id="legend_1">
    <g id="patch_26">
     <path d="M 399.185938 91.798125 
L 446.6 91.798125 
Q 448.6 91.798125 448.6 89.798125 
L 448.6 76.12 
Q 448.6 74.12 446.6 74.12 
L 399.185938 74.12 
Q 397.185938 74.12 397.185938 76.12 
L 397.185938 89.798125 
Q 397.185938 91.798125 399.185938 91.798125 
z
" style="fill:#ffffff;opacity:0.8;stroke:#cccccc;stroke-linejoin:miter;"/>
    </g>
    <g id="patch_27">
     <path d="M 401.185938 85.718438 
L 421.185938 85.718438 
L 421.185938 78.718438 
L 401.185938 78.718438 
z
" style="fill:#999999;"/>
    </g>
    <g id="text_30">
     <!-- full -->
     <g transform="translate(429.185938 85.718438)scale(0.1 -0.1)">
      <use xlink:href="#DejaVuSans-102"/>
      <use x="35.205078" xlink:href="#DejaVuSans-117"/>
      <use x="98.583984" xlink:href="#DejaVuSans-108"/>
      <use x="126.367188" xlink:href="#DejaVuSans-108"/>
     </g>
    </g>
   </g>
  </g>
  <g id="axes_2">
   <g id="patch_28">
    <path d="M 63 564.48 
L 453.6 564.48 
L 453.6 353.688511 
L 63 353.688511 
z
" style="fill:#ffffff;"/>
   </g>
   <g id="PathCollection_1">
    <defs>
     <path d="M 0 2.345208 
C 0.621956 2.345208 1.218523 2.098102 1.658312 1.658312 
C 2.098102 1.218523 2.345208 0.621956 2.345208 0 
C 2.345208 -0.621956 2.098102 -1.218523 1.658312 -1.658312 
C 1.218523 -2.098102 0.621956 -2.345208 0 -2.345208 
C -0.621956 -2.345208 -1.218523 -2.098102 -1.658312 -1.658312 
C -2.098102 -1.218523 -2.345208 -0.621956 -2.345208 0 
C -2.345208 0.621956 -2.098102 1.218523 -1.658312 1.658312 
C -1.218523 2.098102 -0.621956 2.345208 0 2.345208 
z
" id="mf8deee0e29" style="stroke:#999999;"/>
    </defs>
    <g clip-path="url(#pb98165a1c5)">
     <use style="fill:#999999;stroke:#999999;" x="65.816951" xlink:href="#mf8deee0e29" y="432.728413"/>
     <use style="fill:#999999;stroke:#999999;" x="66.91645" xlink:href="#mf8deee0e29" y="433.314807"/>
     <use style="fill:#999999;stroke:#999999;" x="67.123824" xlink:href="#mf8deee0e29" y="433.427325"/>
     <use style="fill:#999999;stroke:#999999;" x="67.123602" xlink:href="#mf8deee0e29" y="433.426609"/>
     <use style="fill:#999999;stroke:#999999;" x="69.206719" xlink:href="#mf8deee0e29" y="434.527216"/>
     <use style="fill:#999999;stroke:#999999;" x="70.17347" xlink:href="#mf8deee0e29" y="435.041145"/>
     <use style="fill:#999999;stroke:#999999;" x="69.749913" xlink:href="#mf8deee0e29" y="434.76726"/>
     <use style="fill:#999999;stroke:#999999;" x="69.482648" xlink:href="#mf8deee0e29" y="434.680364"/>
    </g>
   </g>
   <g id="PathCollection_2">
    <defs>
     <path d="M 0 2.345208 
C 0.621956 2.345208 1.218523 2.098102 1.658312 1.658312 
C 2.098102 1.218523 2.345208 0.621956 2.345208 0 
C 2.345208 -0.621956 2.098102 -1.218523 1.658312 -1.658312 
C 1.218523 -2.098102 0.621956 -2.345208 0 -2.345208 
C -0.621956 -2.345208 -1.218523 -2.098102 -1.658312 -1.658312 
C -2.098102 -1.218523 -2.345208 -0.621956 -2.345208 0 
C -2.345208 0.621956 -2.098102 1.218523 -1.658312 1.658312 
C -1.218523 2.098102 -0.621956 2.345208 0 2.345208 
z
" id="mf3a2dc5518" style="stroke:#e69f00;"/>
    </defs>
    <g clip-path="url(#pb98165a1c5)">
     <use style="fill:#e69f00;stroke:#e69f00;" x="301.150512" xlink:href="#mf3a2dc5518" y="471.673905"/>
     <use style="fill:#e69f00;stroke:#e69f00;" x="304.430928" xlink:href="#mf3a2dc5518" y="472.418603"/>
     <use style="fill:#e69f00;stroke:#e69f00;" x="304.086551" xlink:href="#mf3a2dc5518" y="473.282902"/>
     <use style="fill:#e69f00;stroke:#e69f00;" x="302.036263" xlink:href="#mf3a2dc5518" y="472.867033"/>
     <use style="fill:#e69f00;stroke:#e69f00;" x="302.866324" xlink:href="#mf3a2dc5518" y="472.371811"/>
     <use style="fill:#e69f00;stroke:#e69f00;" x="303.429001" xlink:href="#mf3a2dc5518" y="472.860262"/>
     <use style="fill:#e69f00;stroke:#e69f00;" x="302.400197" xlink:href="#mf3a2dc5518" y="472.404496"/>
     <use style="fill:#e69f00;stroke:#e69f00;" x="303.211197" xlink:href="#mf3a2dc5518" y="472.443663"/>
    </g>
   </g>
   <g id="PathCollection_3">
    <defs>
     <path d="M 0 2.345208 
C 0.621956 2.345208 1.218523 2.098102 1.658312 1.658312 
C 2.098102 1.218523 2.345208 0.621956 2.345208 0 
C 2.345208 -0.621956 2.098102 -1.218523 1.658312 -1.658312 
C 1.218523 -2.098102 0.621956 -2.345208 0 -2.345208 
C -0.621956 -2.345208 -1.218523 -2.098102 -1.658312 -1.658312 
C -2.098102 -1.218523 -2.345208 -0.621956 -2.345208 0 
C -2.345208 0.621956 -2.098102 1.218523 -1.658312 1.658312 
C -1.218523 2.098102 -0.621956 2.345208 0 2.345208 
z
" id="mda50b8b6ca" style="stroke:#56b4e9;"/>
    </defs>
    <g clip-path="url(#pb98165a1c5)">
     <use style="fill:#56b4e9;stroke:#56b4e9;" x="196.441902" xlink:href="#mda50b8b6ca" y="426.483415"/>
     <use style="fill:#56b4e9;stroke:#56b4e9;" x="193.682309" xlink:href="#mda50b8b6ca" y="422.351751"/>
     <use style="fill:#56b4e9;stroke:#56b4e9;" x="196.789851" xlink:href="#mda50b8b6ca" y="421.901493"/>
     <use style="fill:#56b4e9;stroke:#56b4e9;" x="202.26234" xlink:href="#mda50b8b6ca" y="420.697414"/>
     <use style="fill:#56b4e9;stroke:#56b4e9;" x="194.230534" xlink:href="#mda50b8b6ca" y="422.813668"/>
     <use style="fill:#56b4e9;stroke:#56b4e9;" x="194.856437" xlink:href="#mda50b8b6ca" y="425.533878"/>
     <use style="fill:#56b4e9;stroke:#56b4e9;" x="195.469553" xlink:href="#mda50b8b6ca" y="425.955997"/>
     <use style="fill:#56b4e9;stroke:#56b4e9;" x="196.017946" xlink:href="#mda50b8b6ca" y="425.898459"/>
     <use style="fill:#56b4e9;stroke:#56b4e9;" x="198.05184" xlink:href="#mda50b8b6ca" y="425.443611"/>
     <use style="fill:#56b4e9;stroke:#56b4e9;" x="197.070445" xlink:href="#mda50b8b6ca" y="425.808936"/>
     <use style="fill:#56b4e9;stroke:#56b4e9;" x="202.019484" xlink:href="#mda50b8b6ca" y="420.646666"/>
     <use style="fill:#56b4e9;stroke:#56b4e9;" x="196.443037" xlink:href="#mda50b8b6ca" y="426.164419"/>
     <use style="fill:#56b4e9;stroke:#56b4e9;" x="201.503739" xlink:href="#mda50b8b6ca" y="420.873529"/>
     <use style="fill:#56b4e9;stroke:#56b4e9;" x="193.781782" xlink:href="#mda50b8b6ca" y="421.717707"/>
     <use style="fill:#56b4e9;stroke:#56b4e9;" x="194.204616" xlink:href="#mda50b8b6ca" y="422.374764"/>
    </g>
   </g>
   <g id="PathCollection_4">
    <defs>
     <path d="M 0 2.345208 
C 0.621956 2.345208 1.218523 2.098102 1.658312 1.658312 
C 2.098102 1.218523 2.345208 0.621956 2.345208 0 
C 2.345208 -0.621956 2.098102 -1.218523 1.658312 -1.658312 
C 1.218523 -2.098102 0.621956 -2.345208 0 -2.345208 
C -0.621956 -2.345208 -1.218523 -2.098102 -1.658312 -1.658312 
C -2.098102 -1.218523 -2.345208 -0.621956 -2.345208 0 
C -2.345208 0.621956 -2.098102 1.218523 -1.658312 1.658312 
C -1.218523 2.098102 -0.621956 2.345208 0 2.345208 
z
" id="m670cd72393" style="stroke:#009e73;"/>
    </defs>
    <g clip-path="url(#pb98165a1c5)">
     <use style="fill:#009e73;stroke:#009e73;" x="140.26756" xlink:href="#m670cd72393" y="359.549723"/>
     <use style="fill:#009e73;stroke:#009e73;" x="141.530928" xlink:href="#m670cd72393" y="358.539635"/>
     <use style="fill:#009e73;stroke:#009e73;" x="140.233401" xlink:href="#m670cd72393" y="359.521223"/>
     <use style="fill:#009e73;stroke:#009e73;" x="141.040452" xlink:href="#m670cd72393" y="359.157543"/>
     <use style="fill:#009e73;stroke:#009e73;" x="142.235814" xlink:href="#m670cd72393" y="359.500987"/>
     <use style="fill:#009e73;stroke:#009e73;" x="140.823046" xlink:href="#m670cd72393" y="359.563505"/>
     <use style="fill:#009e73;stroke:#009e73;" x="143.149238" xlink:href="#m670cd72393" y="358.541856"/>
     <use style="fill:#009e73;stroke:#009e73;" x="142.989481" xlink:href="#m670cd72393" y="358.43026"/>
     <use style="fill:#009e73;stroke:#009e73;" x="141.880265" xlink:href="#m670cd72393" y="359.110742"/>
     <use style="fill:#009e73;stroke:#009e73;" x="142.002334" xlink:href="#m670cd72393" y="358.864966"/>
    </g>
   </g>
   <g id="PathCollection_5">
    <defs>
     <path d="M 0 2.345208 
C 0.621956 2.345208 1.218523 2.098102 1.658312 1.658312 
C 2.098102 1.218523 2.345208 0.621956 2.345208 0 
C 2.345208 -0.621956 2.098102 -1.218523 1.658312 -1.658312 
C 1.218523 -2.098102 0.621956 -2.345208 0 -2.345208 
C -0.621956 -2.345208 -1.218523 -2.098102 -1.658312 -1.658312 
C -2.098102 -1.218523 -2.345208 -0.621956 -2.345208 0 
C -2.345208 0.621956 -2.098102 1.218523 -1.658312 1.658312 
C -1.218523 2.098102 -0.621956 2.345208 0 2.345208 
z
" id="mc0381519dd" style="stroke:#f0e442;"/>
    </defs>
    <g clip-path="url(#pb98165a1c5)">
     <use style="fill:#f0e442;stroke:#f0e442;" x="118.542382" xlink:href="#mc0381519dd" y="561.642667"/>
     <use style="fill:#f0e442;stroke:#f0e442;" x="116.686267" xlink:href="#mc0381519dd" y="562.608245"/>
     <use style="fill:#f0e442;stroke:#f0e442;" x="115.903559" xlink:href="#mc0381519dd" y="563.015087"/>
     <use style="fill:#f0e442;stroke:#f0e442;" x="116.375753" xlink:href="#mc0381519dd" y="562.769919"/>
     <use style="fill:#f0e442;stroke:#f0e442;" x="119.162021" xlink:href="#mc0381519dd" y="561.320535"/>
     <use style="fill:#f0e442;stroke:#f0e442;" x="116.6169" xlink:href="#mc0381519dd" y="562.644533"/>
     <use style="fill:#f0e442;stroke:#f0e442;" x="118.175739" xlink:href="#mc0381519dd" y="561.833504"/>
     <use style="fill:#f0e442;stroke:#f0e442;" x="117.882818" xlink:href="#mc0381519dd" y="561.985936"/>
     <use style="fill:#f0e442;stroke:#f0e442;" x="116.995836" xlink:href="#mc0381519dd" y="562.44727"/>
     <use style="fill:#f0e442;stroke:#f0e442;" x="118.230212" xlink:href="#mc0381519dd" y="561.805144"/>
    </g>
   </g>
   <g id="PathCollection_6">
    <defs>
     <path d="M 0 2.345208 
C 0.621956 2.345208 1.218523 2.098102 1.658312 1.658312 
C 2.098102 1.218523 2.345208 0.621956 2.345208 0 
C 2.345208 -0.621956 2.098102 -1.218523 1.658312 -1.658312 
C 1.218523 -2.098102 0.621956 -2.345208 0 -2.345208 
C -0.621956 -2.345208 -1.218523 -2.098102 -1.658312 -1.658312 
C -2.098102 -1.218523 -2.345208 -0.621956 -2.345208 0 
C -2.345208 0.621956 -2.098102 1.218523 -1.658312 1.658312 
C -1.218523 2.098102 -0.621956 2.345208 0 2.345208 
z
" id="m77ebc87acd" style="stroke:#0072b2;"/>
    </defs>
    <g clip-path="url(#pb98165a1c5)">
     <use style="fill:#0072b2;stroke:#0072b2;" x="446.665897" xlink:href="#m77ebc87acd" y="464.466969"/>
     <use style="fill:#0072b2;stroke:#0072b2;" x="446.793181" xlink:href="#m77ebc87acd" y="464.919273"/>
     <use style="fill:#0072b2;stroke:#0072b2;" x="447.173556" xlink:href="#m77ebc87acd" y="464.84227"/>
     <use style="fill:#0072b2;stroke:#0072b2;" x="446.817574" xlink:href="#m77ebc87acd" y="464.880188"/>
    </g>
   </g>
   <g id="PathCollection_7">
    <defs>
     <path d="M 0 2.345208 
C 0.621956 2.345208 1.218523 2.098102 1.658312 1.658312 
C 2.098102 1.218523 2.345208 0.621956 2.345208 0 
C 2.345208 -0.621956 2.098102 -1.218523 1.658312 -1.658312 
C 1.218523 -2.098102 0.621956 -2.345208 0 -2.345208 
C -0.621956 -2.345208 -1.218523 -2.098102 -1.658312 -1.658312 
C -2.098102 -1.218523 -2.345208 -0.621956 -2.345208 0 
C -2.345208 0.621956 -2.098102 1.218523 -1.658312 1.658312 
C -1.218523 2.098102 -0.621956 2.345208 0 2.345208 
z
" id="m346e21fc40" style="stroke:#d55e00;"/>
    </defs>
    <g clip-path="url(#pb98165a1c5)">
     <use style="fill:#d55e00;stroke:#d55e00;" x="321.401003" xlink:href="#m346e21fc40" y="460.662428"/>
     <use style="fill:#d55e00;stroke:#d55e00;" x="321.27392" xlink:href="#m346e21fc40" y="460.691488"/>
     <use style="fill:#d55e00;stroke:#d55e00;" x="322.132753" xlink:href="#m346e21fc40" y="460.118313"/>
     <use style="fill:#d55e00;stroke:#d55e00;" x="321.559853" xlink:href="#m346e21fc40" y="460.531388"/>
     <use style="fill:#d55e00;stroke:#d55e00;" x="322.743411" xlink:href="#m346e21fc40" y="459.431868"/>
     <use style="fill:#d55e00;stroke:#d55e00;" x="322.166428" xlink:href="#m346e21fc40" y="459.468467"/>
     <use style="fill:#d55e00;stroke:#d55e00;" x="324.155317" xlink:href="#m346e21fc40" y="458.498154"/>
     <use style="fill:#d55e00;stroke:#d55e00;" x="323.957486" xlink:href="#m346e21fc40" y="458.211866"/>
     <use style="fill:#d55e00;stroke:#d55e00;" x="323.608422" xlink:href="#m346e21fc40" y="458.602179"/>
     <use style="fill:#d55e00;stroke:#d55e00;" x="324.051432" xlink:href="#m346e21fc40" y="458.998215"/>
     <use style="fill:#d55e00;stroke:#d55e00;" x="323.021405" xlink:href="#m346e21fc40" y="459.477953"/>
     <use style="fill:#d55e00;stroke:#d55e00;" x="321.240729" xlink:href="#m346e21fc40" y="460.670218"/>
     <use style="fill:#d55e00;stroke:#d55e00;" x="321.584555" xlink:href="#m346e21fc40" y="460.178128"/>
    </g>
   </g>
   <g id="PathCollection_8">
    <defs>
     <path d="M 0 2.345208 
C 0.621956 2.345208 1.218523 2.098102 1.658312 1.658312 
C 2.098102 1.218523 2.345208 0.621956 2.345208 0 
C 2.345208 -0.621956 2.098102 -1.218523 1.658312 -1.658312 
C 1.218523 -2.098102 0.621956 -2.345208 0 -2.345208 
C -0.621956 -2.345208 -1.218523 -2.098102 -1.658312 -1.658312 
C -2.098102 -1.218523 -2.345208 -0.621956 -2.345208 0 
C -2.345208 0.621956 -2.098102 1.218523 -1.658312 1.658312 
C -1.218523 2.098102 -0.621956 2.345208 0 2.345208 
z
" id="mcc507cad78" style="stroke:#cc79a7;"/>
    </defs>
    <g clip-path="url(#pb98165a1c5)">
     <use style="fill:#cc79a7;stroke:#cc79a7;" x="85.987003" xlink:href="#mcc507cad78" y="486.305878"/>
     <use style="fill:#cc79a7;stroke:#cc79a7;" x="86.774802" xlink:href="#mcc507cad78" y="486.196654"/>
     <use style="fill:#cc79a7;stroke:#cc79a7;" x="83.315247" xlink:href="#mcc507cad78" y="485.792408"/>
     <use style="fill:#cc79a7;stroke:#cc79a7;" x="82.30059" xlink:href="#mcc507cad78" y="486.437828"/>
     <use style="fill:#cc79a7;stroke:#cc79a7;" x="86.526792" xlink:href="#mcc507cad78" y="486.357869"/>
     <use style="fill:#cc79a7;stroke:#cc79a7;" x="81.926008" xlink:href="#mcc507cad78" y="486.616172"/>
     <use style="fill:#cc79a7;stroke:#cc79a7;" x="81.777628" xlink:href="#mcc507cad78" y="486.512789"/>
     <use style="fill:#cc79a7;stroke:#cc79a7;" x="81.646946" xlink:href="#mcc507cad78" y="486.624325"/>
     <use style="fill:#cc79a7;stroke:#cc79a7;" x="82.295516" xlink:href="#mcc507cad78" y="486.937617"/>
     <use style="fill:#cc79a7;stroke:#cc79a7;" x="86.419384" xlink:href="#mcc507cad78" y="486.35732"/>
     <use style="fill:#cc79a7;stroke:#cc79a7;" x="87.340086" xlink:href="#mcc507cad78" y="486.056043"/>
    </g>
   </g>
   <g id="PathCollection_9">
    <defs>
     <path d="M 0 2.345208 
C 0.621956 2.345208 1.218523 2.098102 1.658312 1.658312 
C 2.098102 1.218523 2.345208 0.621956 2.345208 0 
C 2.345208 -0.621956 2.098102 -1.218523 1.658312 -1.658312 
C 1.218523 -2.098102 0.621956 -2.345208 0 -2.345208 
C -0.621956 -2.345208 -1.218523 -2.098102 -1.658312 -1.658312 
C -2.098102 -1.218523 -2.345208 -0.621956 -2.345208 0 
C -2.345208 0.621956 -2.098102 1.218523 -1.658312 1.658312 
C -1.218523 2.098102 -0.621956 2.345208 0 2.345208 
z
" id="m4a31b52cb7" style="stroke:#abd9e9;"/>
    </defs>
    <g clip-path="url(#pb98165a1c5)">
     <use style="fill:#abd9e9;stroke:#abd9e9;" x="359.781942" xlink:href="#m4a31b52cb7" y="417.281358"/>
     <use style="fill:#abd9e9;stroke:#abd9e9;" x="359.132573" xlink:href="#m4a31b52cb7" y="416.945758"/>
     <use style="fill:#abd9e9;stroke:#abd9e9;" x="359.447103" xlink:href="#m4a31b52cb7" y="417.104505"/>
     <use style="fill:#abd9e9;stroke:#abd9e9;" x="360.318803" xlink:href="#m4a31b52cb7" y="417.572643"/>
     <use style="fill:#abd9e9;stroke:#abd9e9;" x="360.212286" xlink:href="#m4a31b52cb7" y="417.505514"/>
     <use style="fill:#abd9e9;stroke:#abd9e9;" x="358.831636" xlink:href="#m4a31b52cb7" y="416.763003"/>
     <use style="fill:#abd9e9;stroke:#abd9e9;" x="358.881873" xlink:href="#m4a31b52cb7" y="416.820841"/>
     <use style="fill:#abd9e9;stroke:#abd9e9;" x="359.09327" xlink:href="#m4a31b52cb7" y="416.931515"/>
     <use style="fill:#abd9e9;stroke:#abd9e9;" x="358.978934" xlink:href="#m4a31b52cb7" y="416.880677"/>
    </g>
   </g>
   <g id="PathCollection_10">
    <g clip-path="url(#pb98165a1c5)">
     <use style="fill:#999999;stroke:#999999;" x="224.803771" xlink:href="#mf8deee0e29" y="431.977897"/>
     <use style="fill:#999999;stroke:#999999;" x="225.605691" xlink:href="#mf8deee0e29" y="432.355394"/>
     <use style="fill:#999999;stroke:#999999;" x="225.209291" xlink:href="#mf8deee0e29" y="432.415344"/>
     <use style="fill:#999999;stroke:#999999;" x="224.999902" xlink:href="#mf8deee0e29" y="431.549187"/>
     <use style="fill:#999999;stroke:#999999;" x="226.371539" xlink:href="#mf8deee0e29" y="432.975313"/>
     <use style="fill:#999999;stroke:#999999;" x="225.97618" xlink:href="#mf8deee0e29" y="432.601418"/>
     <use style="fill:#999999;stroke:#999999;" x="225.614382" xlink:href="#mf8deee0e29" y="432.387536"/>
     <use style="fill:#999999;stroke:#999999;" x="223.989514" xlink:href="#mf8deee0e29" y="431.542331"/>
     <use style="fill:#999999;stroke:#999999;" x="223.934898" xlink:href="#mf8deee0e29" y="431.5295"/>
    </g>
   </g>
   <g id="PathCollection_11">
    <g clip-path="url(#pb98165a1c5)">
     <use style="fill:#e69f00;stroke:#e69f00;" x="73.011866" xlink:href="#mf3a2dc5518" y="431.626815"/>
     <use style="fill:#e69f00;stroke:#e69f00;" x="75.298871" xlink:href="#mf3a2dc5518" y="430.530106"/>
     <use style="fill:#e69f00;stroke:#e69f00;" x="82.572983" xlink:href="#mf3a2dc5518" y="433.50168"/>
     <use style="fill:#e69f00;stroke:#e69f00;" x="77.197654" xlink:href="#mf3a2dc5518" y="431.240576"/>
     <use style="fill:#e69f00;stroke:#e69f00;" x="83.226762" xlink:href="#mf3a2dc5518" y="433.750058"/>
     <use style="fill:#e69f00;stroke:#e69f00;" x="82.905596" xlink:href="#mf3a2dc5518" y="433.647441"/>
     <use style="fill:#e69f00;stroke:#e69f00;" x="77.223095" xlink:href="#mf3a2dc5518" y="431.38428"/>
     <use style="fill:#e69f00;stroke:#e69f00;" x="72.071057" xlink:href="#mf3a2dc5518" y="431.244288"/>
     <use style="fill:#e69f00;stroke:#e69f00;" x="72.612488" xlink:href="#mf3a2dc5518" y="431.386298"/>
     <use style="fill:#e69f00;stroke:#e69f00;" x="72.040945" xlink:href="#mf3a2dc5518" y="430.9541"/>
     <use style="fill:#e69f00;stroke:#e69f00;" x="76.983204" xlink:href="#mf3a2dc5518" y="431.14808"/>
     <use style="fill:#e69f00;stroke:#e69f00;" x="77.020298" xlink:href="#mf3a2dc5518" y="431.038007"/>
     <use style="fill:#e69f00;stroke:#e69f00;" x="74.392542" xlink:href="#mf3a2dc5518" y="431.971781"/>
     <use style="fill:#e69f00;stroke:#e69f00;" x="74.916267" xlink:href="#mf3a2dc5518" y="431.894877"/>
     <use style="fill:#e69f00;stroke:#e69f00;" x="74.342705" xlink:href="#mf3a2dc5518" y="432.034212"/>
     <use style="fill:#e69f00;stroke:#e69f00;" x="78.033151" xlink:href="#mf3a2dc5518" y="431.790884"/>
     <use style="fill:#e69f00;stroke:#e69f00;" x="72.003818" xlink:href="#mf3a2dc5518" y="431.163588"/>
     <use style="fill:#e69f00;stroke:#e69f00;" x="82.412985" xlink:href="#mf3a2dc5518" y="433.487273"/>
     <use style="fill:#e69f00;stroke:#e69f00;" x="76.020591" xlink:href="#mf3a2dc5518" y="430.699987"/>
     <use style="fill:#e69f00;stroke:#e69f00;" x="76.239768" xlink:href="#mf3a2dc5518" y="431.582787"/>
     <use style="fill:#e69f00;stroke:#e69f00;" x="76.092934" xlink:href="#mf3a2dc5518" y="430.52033"/>
     <use style="fill:#e69f00;stroke:#e69f00;" x="76.507329" xlink:href="#mf3a2dc5518" y="430.828952"/>
    </g>
   </g>
   <g id="PathCollection_12">
    <g clip-path="url(#pb98165a1c5)">
     <use style="fill:#009e73;stroke:#009e73;" x="207.330778" xlink:href="#m670cd72393" y="424.635055"/>
     <use style="fill:#009e73;stroke:#009e73;" x="207.783513" xlink:href="#m670cd72393" y="425.130938"/>
     <use style="fill:#009e73;stroke:#009e73;" x="204.743407" xlink:href="#m670cd72393" y="423.319334"/>
     <use style="fill:#009e73;stroke:#009e73;" x="206.803004" xlink:href="#m670cd72393" y="424.218447"/>
     <use style="fill:#009e73;stroke:#009e73;" x="209.021545" xlink:href="#m670cd72393" y="424.497288"/>
     <use style="fill:#009e73;stroke:#009e73;" x="209.282803" xlink:href="#m670cd72393" y="424.515583"/>
     <use style="fill:#009e73;stroke:#009e73;" x="204.359137" xlink:href="#m670cd72393" y="423.283123"/>
     <use style="fill:#009e73;stroke:#009e73;" x="209.717417" xlink:href="#m670cd72393" y="423.952299"/>
     <use style="fill:#009e73;stroke:#009e73;" x="205.962117" xlink:href="#m670cd72393" y="422.497621"/>
     <use style="fill:#009e73;stroke:#009e73;" x="204.539224" xlink:href="#m670cd72393" y="423.72173"/>
     <use style="fill:#009e73;stroke:#009e73;" x="204.973213" xlink:href="#m670cd72393" y="423.712045"/>
     <use style="fill:#009e73;stroke:#009e73;" x="207.007034" xlink:href="#m670cd72393" y="424.741377"/>
     <use style="fill:#009e73;stroke:#009e73;" x="209.628697" xlink:href="#m670cd72393" y="423.966322"/>
     <use style="fill:#009e73;stroke:#009e73;" x="208.852923" xlink:href="#m670cd72393" y="424.3391"/>
    </g>
   </g>
   <g id="PathCollection_13">
    <g clip-path="url(#pb98165a1c5)">
     <use style="fill:#d55e00;stroke:#d55e00;" x="136.90815" xlink:href="#m346e21fc40" y="357.067452"/>
     <use style="fill:#d55e00;stroke:#d55e00;" x="132.577242" xlink:href="#m346e21fc40" y="357.921832"/>
     <use style="fill:#d55e00;stroke:#d55e00;" x="132.664955" xlink:href="#m346e21fc40" y="357.889294"/>
     <use style="fill:#d55e00;stroke:#d55e00;" x="132.748529" xlink:href="#m346e21fc40" y="357.783454"/>
     <use style="fill:#d55e00;stroke:#d55e00;" x="133.892231" xlink:href="#m346e21fc40" y="357.1951"/>
     <use style="fill:#d55e00;stroke:#d55e00;" x="133.053257" xlink:href="#m346e21fc40" y="357.623562"/>
     <use style="fill:#d55e00;stroke:#d55e00;" x="133.045169" xlink:href="#m346e21fc40" y="357.59875"/>
     <use style="fill:#d55e00;stroke:#d55e00;" x="135.309356" xlink:href="#m346e21fc40" y="357.513041"/>
     <use style="fill:#d55e00;stroke:#d55e00;" x="132.732602" xlink:href="#m346e21fc40" y="357.773144"/>
     <use style="fill:#d55e00;stroke:#d55e00;" x="135.278306" xlink:href="#m346e21fc40" y="357.54196"/>
     <use style="fill:#d55e00;stroke:#d55e00;" x="135.938886" xlink:href="#m346e21fc40" y="357.229468"/>
     <use style="fill:#d55e00;stroke:#d55e00;" x="136.490914" xlink:href="#m346e21fc40" y="357.014406"/>
    </g>
   </g>
   <g id="PathCollection_14">
    <g clip-path="url(#pb98165a1c5)">
     <use style="fill:#abd9e9;stroke:#abd9e9;" x="204.011483" xlink:href="#m4a31b52cb7" y="428.086973"/>
     <use style="fill:#abd9e9;stroke:#abd9e9;" x="203.437361" xlink:href="#m4a31b52cb7" y="427.39376"/>
     <use style="fill:#abd9e9;stroke:#abd9e9;" x="203.327478" xlink:href="#m4a31b52cb7" y="427.925324"/>
     <use style="fill:#abd9e9;stroke:#abd9e9;" x="201.026974" xlink:href="#m4a31b52cb7" y="425.169797"/>
     <use style="fill:#abd9e9;stroke:#abd9e9;" x="202.943725" xlink:href="#m4a31b52cb7" y="427.397407"/>
     <use style="fill:#abd9e9;stroke:#abd9e9;" x="201.40577" xlink:href="#m4a31b52cb7" y="425.803935"/>
     <use style="fill:#abd9e9;stroke:#abd9e9;" x="205.022671" xlink:href="#m4a31b52cb7" y="427.447802"/>
     <use style="fill:#abd9e9;stroke:#abd9e9;" x="203.776318" xlink:href="#m4a31b52cb7" y="427.51925"/>
     <use style="fill:#abd9e9;stroke:#abd9e9;" x="202.812069" xlink:href="#m4a31b52cb7" y="427.440436"/>
     <use style="fill:#abd9e9;stroke:#abd9e9;" x="202.908082" xlink:href="#m4a31b52cb7" y="427.452496"/>
    </g>
   </g>
   <g id="PathCollection_15">
    <g clip-path="url(#pb98165a1c5)">
     <use style="fill:#999999;stroke:#999999;" x="295.646438" xlink:href="#mf8deee0e29" y="467.370867"/>
     <use style="fill:#999999;stroke:#999999;" x="295.68335" xlink:href="#mf8deee0e29" y="467.329332"/>
     <use style="fill:#999999;stroke:#999999;" x="296.252663" xlink:href="#mf8deee0e29" y="467.905195"/>
     <use style="fill:#999999;stroke:#999999;" x="295.625269" xlink:href="#mf8deee0e29" y="467.811398"/>
     <use style="fill:#999999;stroke:#999999;" x="297.279869" xlink:href="#mf8deee0e29" y="468.925356"/>
     <use style="fill:#999999;stroke:#999999;" x="296.216517" xlink:href="#mf8deee0e29" y="467.047165"/>
     <use style="fill:#999999;stroke:#999999;" x="298.005937" xlink:href="#mf8deee0e29" y="468.305022"/>
     <use style="fill:#999999;stroke:#999999;" x="295.522848" xlink:href="#mf8deee0e29" y="467.313986"/>
     <use style="fill:#999999;stroke:#999999;" x="298.525806" xlink:href="#mf8deee0e29" y="468.342585"/>
     <use style="fill:#999999;stroke:#999999;" x="296.910106" xlink:href="#mf8deee0e29" y="468.179563"/>
     <use style="fill:#999999;stroke:#999999;" x="297.282918" xlink:href="#mf8deee0e29" y="467.944308"/>
     <use style="fill:#999999;stroke:#999999;" x="296.028143" xlink:href="#mf8deee0e29" y="467.472903"/>
     <use style="fill:#999999;stroke:#999999;" x="298.443856" xlink:href="#mf8deee0e29" y="469.336651"/>
    </g>
   </g>
   <g id="PathCollection_16">
    <g clip-path="url(#pb98165a1c5)">
     <use style="fill:#e69f00;stroke:#e69f00;" x="325.514354" xlink:href="#mf3a2dc5518" y="452.026565"/>
     <use style="fill:#e69f00;stroke:#e69f00;" x="325.337222" xlink:href="#mf3a2dc5518" y="451.891252"/>
     <use style="fill:#e69f00;stroke:#e69f00;" x="326.047897" xlink:href="#mf3a2dc5518" y="451.58683"/>
     <use style="fill:#e69f00;stroke:#e69f00;" x="325.537901" xlink:href="#mf3a2dc5518" y="451.993621"/>
     <use style="fill:#e69f00;stroke:#e69f00;" x="328.620835" xlink:href="#mf3a2dc5518" y="454.645967"/>
     <use style="fill:#e69f00;stroke:#e69f00;" x="326.946301" xlink:href="#mf3a2dc5518" y="455.465238"/>
     <use style="fill:#e69f00;stroke:#e69f00;" x="325.5741" xlink:href="#mf3a2dc5518" y="452.608433"/>
     <use style="fill:#e69f00;stroke:#e69f00;" x="328.011735" xlink:href="#mf3a2dc5518" y="454.989525"/>
     <use style="fill:#e69f00;stroke:#e69f00;" x="328.250668" xlink:href="#mf3a2dc5518" y="454.655221"/>
     <use style="fill:#e69f00;stroke:#e69f00;" x="326.919383" xlink:href="#mf3a2dc5518" y="455.49137"/>
     <use style="fill:#e69f00;stroke:#e69f00;" x="328.994776" xlink:href="#mf3a2dc5518" y="454.39399"/>
    </g>
   </g>
   <g id="PathCollection_17">
    <g clip-path="url(#pb98165a1c5)">
     <use style="fill:#56b4e9;stroke:#56b4e9;" x="445.652271" xlink:href="#mda50b8b6ca" y="466.064788"/>
     <use style="fill:#56b4e9;stroke:#56b4e9;" x="448.095332" xlink:href="#mda50b8b6ca" y="467.227823"/>
     <use style="fill:#56b4e9;stroke:#56b4e9;" x="447.020106" xlink:href="#mda50b8b6ca" y="467.498373"/>
     <use style="fill:#56b4e9;stroke:#56b4e9;" x="448.090738" xlink:href="#mda50b8b6ca" y="468.176998"/>
     <use style="fill:#56b4e9;stroke:#56b4e9;" x="445.07925" xlink:href="#mda50b8b6ca" y="467.424969"/>
     <use style="fill:#56b4e9;stroke:#56b4e9;" x="445.858913" xlink:href="#mda50b8b6ca" y="467.544181"/>
     <use style="fill:#56b4e9;stroke:#56b4e9;" x="445.819852" xlink:href="#mda50b8b6ca" y="466.676597"/>
     <use style="fill:#56b4e9;stroke:#56b4e9;" x="450.783049" xlink:href="#mda50b8b6ca" y="467.23185"/>
     <use style="fill:#56b4e9;stroke:#56b4e9;" x="449.617181" xlink:href="#mda50b8b6ca" y="467.370945"/>
     <use style="fill:#56b4e9;stroke:#56b4e9;" x="449.660809" xlink:href="#mda50b8b6ca" y="467.324587"/>
     <use style="fill:#56b4e9;stroke:#56b4e9;" x="448.845954" xlink:href="#mda50b8b6ca" y="467.623593"/>
     <use style="fill:#56b4e9;stroke:#56b4e9;" x="445.724321" xlink:href="#mda50b8b6ca" y="467.092558"/>
     <use style="fill:#56b4e9;stroke:#56b4e9;" x="445.951998" xlink:href="#mda50b8b6ca" y="466.162887"/>
     <use style="fill:#56b4e9;stroke:#56b4e9;" x="447.826928" xlink:href="#mda50b8b6ca" y="467.002164"/>
    </g>
   </g>
   <g id="PathCollection_18">
    <g clip-path="url(#pb98165a1c5)">
     <use style="fill:#009e73;stroke:#009e73;" x="137.595325" xlink:href="#m670cd72393" y="355.713962"/>
     <use style="fill:#009e73;stroke:#009e73;" x="136.832478" xlink:href="#m670cd72393" y="355.88925"/>
     <use style="fill:#009e73;stroke:#009e73;" x="137.768454" xlink:href="#m670cd72393" y="355.597546"/>
     <use style="fill:#009e73;stroke:#009e73;" x="136.384702" xlink:href="#m670cd72393" y="356.232589"/>
     <use style="fill:#009e73;stroke:#009e73;" x="136.940248" xlink:href="#m670cd72393" y="355.871982"/>
     <use style="fill:#009e73;stroke:#009e73;" x="136.542616" xlink:href="#m670cd72393" y="356.153153"/>
     <use style="fill:#009e73;stroke:#009e73;" x="137.235444" xlink:href="#m670cd72393" y="355.917847"/>
     <use style="fill:#009e73;stroke:#009e73;" x="136.354415" xlink:href="#m670cd72393" y="355.153424"/>
    </g>
   </g>
   <g id="PathCollection_19">
    <g clip-path="url(#pb98165a1c5)">
     <use style="fill:#f0e442;stroke:#f0e442;" x="222.0571" xlink:href="#mc0381519dd" y="422.965378"/>
     <use style="fill:#f0e442;stroke:#f0e442;" x="211.895312" xlink:href="#mc0381519dd" y="419.154187"/>
     <use style="fill:#f0e442;stroke:#f0e442;" x="222.394304" xlink:href="#mc0381519dd" y="422.757594"/>
     <use style="fill:#f0e442;stroke:#f0e442;" x="207.071173" xlink:href="#mc0381519dd" y="421.050749"/>
     <use style="fill:#f0e442;stroke:#f0e442;" x="222.018315" xlink:href="#mc0381519dd" y="422.552343"/>
     <use style="fill:#f0e442;stroke:#f0e442;" x="209.492461" xlink:href="#mc0381519dd" y="420.373836"/>
     <use style="fill:#f0e442;stroke:#f0e442;" x="210.612248" xlink:href="#mc0381519dd" y="419.806972"/>
     <use style="fill:#f0e442;stroke:#f0e442;" x="222.485052" xlink:href="#mc0381519dd" y="422.783555"/>
     <use style="fill:#f0e442;stroke:#f0e442;" x="212.751505" xlink:href="#mc0381519dd" y="419.688143"/>
     <use style="fill:#f0e442;stroke:#f0e442;" x="212.042758" xlink:href="#mc0381519dd" y="418.884406"/>
     <use style="fill:#f0e442;stroke:#f0e442;" x="212.04574" xlink:href="#mc0381519dd" y="419.250084"/>
     <use style="fill:#f0e442;stroke:#f0e442;" x="211.321345" xlink:href="#mc0381519dd" y="419.435899"/>
    </g>
   </g>
   <g id="matplotlib.axis_3">
    <g id="xtick_20">
     <g id="line2d_26">
      <g>
       <use style="stroke:#000000;stroke-width:0.8;" x="117.694149" xlink:href="#mf10123ff65" y="564.48"/>
      </g>
     </g>
     <g id="text_31">
      <!-- 0 -->
      <g transform="translate(114.512899 579.078437)scale(0.1 -0.1)">
       <use xlink:href="#DejaVuSans-48"/>
      </g>
     </g>
    </g>
    <g id="xtick_21">
     <g id="line2d_27">
      <g>
       <use style="stroke:#000000;stroke-width:0.8;" x="188.117931" xlink:href="#mf10123ff65" y="564.48"/>
      </g>
     </g>
     <g id="text_32">
      <!-- 5 -->
      <g transform="translate(184.936681 579.078437)scale(0.1 -0.1)">
       <use xlink:href="#DejaVuSans-53"/>
      </g>
     </g>
    </g>
    <g id="xtick_22">
     <g id="line2d_28">
      <g>
       <use style="stroke:#000000;stroke-width:0.8;" x="258.541712" xlink:href="#mf10123ff65" y="564.48"/>
      </g>
     </g>
     <g id="text_33">
      <!-- 10 -->
      <g transform="translate(252.179212 579.078437)scale(0.1 -0.1)">
       <use xlink:href="#DejaVuSans-49"/>
       <use x="63.623047" xlink:href="#DejaVuSans-48"/>
      </g>
     </g>
    </g>
    <g id="xtick_23">
     <g id="line2d_29">
      <g>
       <use style="stroke:#000000;stroke-width:0.8;" x="328.965494" xlink:href="#mf10123ff65" y="564.48"/>
      </g>
     </g>
     <g id="text_34">
      <!-- 15 -->
      <g transform="translate(322.602994 579.078437)scale(0.1 -0.1)">
       <use xlink:href="#DejaVuSans-49"/>
       <use x="63.623047" xlink:href="#DejaVuSans-53"/>
      </g>
     </g>
    </g>
    <g id="xtick_24">
     <g id="line2d_30">
      <g>
       <use style="stroke:#000000;stroke-width:0.8;" x="399.389275" xlink:href="#mf10123ff65" y="564.48"/>
      </g>
     </g>
     <g id="text_35">
      <!-- 20 -->
      <g transform="translate(393.026775 579.078437)scale(0.1 -0.1)">
       <use xlink:href="#DejaVuSans-50"/>
       <use x="63.623047" xlink:href="#DejaVuSans-48"/>
      </g>
     </g>
    </g>
    <g id="text_36">
     <!-- UMAP Dimension 1 -->
     <g transform="translate(210.955469 592.756562)scale(0.1 -0.1)">
      <defs>
       <path d="M 8.6875 72.90625 
L 18.609375 72.90625 
L 18.609375 28.609375 
Q 18.609375 16.890625 22.84375 11.734375 
Q 27.09375 6.59375 36.625 6.59375 
Q 46.09375 6.59375 50.34375 11.734375 
Q 54.59375 16.890625 54.59375 28.609375 
L 54.59375 72.90625 
L 64.5 72.90625 
L 64.5 27.390625 
Q 64.5 13.140625 57.4375 5.859375 
Q 50.390625 -1.421875 36.625 -1.421875 
Q 22.796875 -1.421875 15.734375 5.859375 
Q 8.6875 13.140625 8.6875 27.390625 
z
" id="DejaVuSans-85"/>
       <path d="M 9.8125 72.90625 
L 24.515625 72.90625 
L 43.109375 23.296875 
L 61.8125 72.90625 
L 76.515625 72.90625 
L 76.515625 0 
L 66.890625 0 
L 66.890625 64.015625 
L 48.09375 14.015625 
L 38.1875 14.015625 
L 19.390625 64.015625 
L 19.390625 0 
L 9.8125 0 
z
" id="DejaVuSans-77"/>
       <path d="M 34.1875 63.1875 
L 20.796875 26.90625 
L 47.609375 26.90625 
z
M 28.609375 72.90625 
L 39.796875 72.90625 
L 67.578125 0 
L 57.328125 0 
L 50.6875 18.703125 
L 17.828125 18.703125 
L 11.1875 0 
L 0.78125 0 
z
" id="DejaVuSans-65"/>
       <path d="M 19.671875 64.796875 
L 19.671875 37.40625 
L 32.078125 37.40625 
Q 38.96875 37.40625 42.71875 40.96875 
Q 46.484375 44.53125 46.484375 51.125 
Q 46.484375 57.671875 42.71875 61.234375 
Q 38.96875 64.796875 32.078125 64.796875 
z
M 9.8125 72.90625 
L 32.078125 72.90625 
Q 44.34375 72.90625 50.609375 67.359375 
Q 56.890625 61.8125 56.890625 51.125 
Q 56.890625 40.328125 50.609375 34.8125 
Q 44.34375 29.296875 32.078125 29.296875 
L 19.671875 29.296875 
L 19.671875 0 
L 9.8125 0 
z
" id="DejaVuSans-80"/>
       <path d="M 19.671875 64.796875 
L 19.671875 8.109375 
L 31.59375 8.109375 
Q 46.6875 8.109375 53.6875 14.9375 
Q 60.6875 21.78125 60.6875 36.53125 
Q 60.6875 51.171875 53.6875 57.984375 
Q 46.6875 64.796875 31.59375 64.796875 
z
M 9.8125 72.90625 
L 30.078125 72.90625 
Q 51.265625 72.90625 61.171875 64.09375 
Q 71.09375 55.28125 71.09375 36.53125 
Q 71.09375 17.671875 61.125 8.828125 
Q 51.171875 0 30.078125 0 
L 9.8125 0 
z
" id="DejaVuSans-68"/>
      </defs>
      <use xlink:href="#DejaVuSans-85"/>
      <use x="73.193359" xlink:href="#DejaVuSans-77"/>
      <use x="159.472656" xlink:href="#DejaVuSans-65"/>
      <use x="227.880859" xlink:href="#DejaVuSans-80"/>
      <use x="288.183594" xlink:href="#DejaVuSans-32"/>
      <use x="319.970703" xlink:href="#DejaVuSans-68"/>
      <use x="396.972656" xlink:href="#DejaVuSans-105"/>
      <use x="424.755859" xlink:href="#DejaVuSans-109"/>
      <use x="522.167969" xlink:href="#DejaVuSans-101"/>
      <use x="583.691406" xlink:href="#DejaVuSans-110"/>
      <use x="647.070312" xlink:href="#DejaVuSans-115"/>
      <use x="699.169922" xlink:href="#DejaVuSans-105"/>
      <use x="726.953125" xlink:href="#DejaVuSans-111"/>
      <use x="788.134766" xlink:href="#DejaVuSans-110"/>
      <use x="851.513672" xlink:href="#DejaVuSans-32"/>
      <use x="883.300781" xlink:href="#DejaVuSans-49"/>
     </g>
    </g>
   </g>
   <g id="matplotlib.axis_4">
    <g id="ytick_7">
     <g id="line2d_31">
      <g>
       <use style="stroke:#000000;stroke-width:0.8;" x="63" xlink:href="#mb9ed0cdd66" y="549.452666"/>
      </g>
     </g>
     <g id="text_37">
      <!-- 10 -->
      <g transform="translate(34.895313 553.251885)scale(0.1 -0.1)">
       <defs>
        <path d="M 10.59375 35.5 
L 73.1875 35.5 
L 73.1875 27.203125 
L 10.59375 27.203125 
z
" id="DejaVuSans-8722"/>
       </defs>
       <use xlink:href="#DejaVuSans-8722"/>
       <use x="83.789062" xlink:href="#DejaVuSans-49"/>
       <use x="147.412109" xlink:href="#DejaVuSans-48"/>
      </g>
     </g>
    </g>
    <g id="ytick_8">
     <g id="line2d_32">
      <g>
       <use style="stroke:#000000;stroke-width:0.8;" x="63" xlink:href="#mb9ed0cdd66" y="512.829841"/>
      </g>
     </g>
     <g id="text_38">
      <!-- 5 -->
      <g transform="translate(41.257812 516.62906)scale(0.1 -0.1)">
       <use xlink:href="#DejaVuSans-8722"/>
       <use x="83.789062" xlink:href="#DejaVuSans-53"/>
      </g>
     </g>
    </g>
    <g id="ytick_9">
     <g id="line2d_33">
      <g>
       <use style="stroke:#000000;stroke-width:0.8;" x="63" xlink:href="#mb9ed0cdd66" y="476.207016"/>
      </g>
     </g>
     <g id="text_39">
      <!-- 0 -->
      <g transform="translate(49.6375 480.006235)scale(0.1 -0.1)">
       <use xlink:href="#DejaVuSans-48"/>
      </g>
     </g>
    </g>
    <g id="ytick_10">
     <g id="line2d_34">
      <g>
       <use style="stroke:#000000;stroke-width:0.8;" x="63" xlink:href="#mb9ed0cdd66" y="439.584191"/>
      </g>
     </g>
     <g id="text_40">
      <!-- 5 -->
      <g transform="translate(49.6375 443.38341)scale(0.1 -0.1)">
       <use xlink:href="#DejaVuSans-53"/>
      </g>
     </g>
    </g>
    <g id="ytick_11">
     <g id="line2d_35">
      <g>
       <use style="stroke:#000000;stroke-width:0.8;" x="63" xlink:href="#mb9ed0cdd66" y="402.961366"/>
      </g>
     </g>
     <g id="text_41">
      <!-- 10 -->
      <g transform="translate(43.275 406.760584)scale(0.1 -0.1)">
       <use xlink:href="#DejaVuSans-49"/>
       <use x="63.623047" xlink:href="#DejaVuSans-48"/>
      </g>
     </g>
    </g>
    <g id="ytick_12">
     <g id="line2d_36">
      <g>
       <use style="stroke:#000000;stroke-width:0.8;" x="63" xlink:href="#mb9ed0cdd66" y="366.338541"/>
      </g>
     </g>
     <g id="text_42">
      <!-- 15 -->
      <g transform="translate(43.275 370.137759)scale(0.1 -0.1)">
       <use xlink:href="#DejaVuSans-49"/>
       <use x="63.623047" xlink:href="#DejaVuSans-53"/>
      </g>
     </g>
    </g>
    <g id="text_43">
     <!-- UMAP Dimension 2 -->
     <g transform="translate(28.815625 506.428787)rotate(-90)scale(0.1 -0.1)">
      <use xlink:href="#DejaVuSans-85"/>
      <use x="73.193359" xlink:href="#DejaVuSans-77"/>
      <use x="159.472656" xlink:href="#DejaVuSans-65"/>
      <use x="227.880859" xlink:href="#DejaVuSans-80"/>
      <use x="288.183594" xlink:href="#DejaVuSans-32"/>
      <use x="319.970703" xlink:href="#DejaVuSans-68"/>
      <use x="396.972656" xlink:href="#DejaVuSans-105"/>
      <use x="424.755859" xlink:href="#DejaVuSans-109"/>
      <use x="522.167969" xlink:href="#DejaVuSans-101"/>
      <use x="583.691406" xlink:href="#DejaVuSans-110"/>
      <use x="647.070312" xlink:href="#DejaVuSans-115"/>
      <use x="699.169922" xlink:href="#DejaVuSans-105"/>
      <use x="726.953125" xlink:href="#DejaVuSans-111"/>
      <use x="788.134766" xlink:href="#DejaVuSans-110"/>
      <use x="851.513672" xlink:href="#DejaVuSans-32"/>
      <use x="883.300781" xlink:href="#DejaVuSans-50"/>
     </g>
    </g>
   </g>
   <g id="patch_29">
    <path d="M 63 564.48 
L 63 353.688511 
" style="fill:none;stroke:#000000;stroke-linecap:square;stroke-linejoin:miter;stroke-width:0.8;"/>
   </g>
   <g id="patch_30">
    <path d="M 453.6 564.48 
L 453.6 353.688511 
" style="fill:none;stroke:#000000;stroke-linecap:square;stroke-linejoin:miter;stroke-width:0.8;"/>
   </g>
   <g id="patch_31">
    <path d="M 63 564.48 
L 453.6 564.48 
" style="fill:none;stroke:#000000;stroke-linecap:square;stroke-linejoin:miter;stroke-width:0.8;"/>
   </g>
   <g id="patch_32">
    <path d="M 63 353.688511 
L 453.6 353.688511 
" style="fill:none;stroke:#000000;stroke-linecap:square;stroke-linejoin:miter;stroke-width:0.8;"/>
   </g>
   <g id="text_44">
    <!-- 0 -->
    <g style="fill:#999999;" transform="translate(68.199197 433.989143)scale(0.1 -0.1)">
     <use xlink:href="#DejaVuSans-48"/>
    </g>
   </g>
   <g id="text_45">
    <!-- 1 -->
    <g style="fill:#e69f00;" transform="translate(302.951372 472.540334)scale(0.1 -0.1)">
     <use xlink:href="#DejaVuSans-49"/>
    </g>
   </g>
   <g id="text_46">
    <!-- 2 -->
    <g style="fill:#56b4e9;" transform="translate(196.855054 423.644381)scale(0.1 -0.1)">
     <use xlink:href="#DejaVuSans-50"/>
    </g>
   </g>
   <g id="text_47">
    <!-- 3 -->
    <g style="fill:#009e73;" transform="translate(141.615252 359.078044)scale(0.1 -0.1)">
     <use xlink:href="#DejaVuSans-51"/>
    </g>
   </g>
   <g id="text_48">
    <!-- 4 -->
    <g style="fill:#f0e442;" transform="translate(117.457149 562.207284)scale(0.1 -0.1)">
     <use xlink:href="#DejaVuSans-52"/>
    </g>
   </g>
   <g id="text_49">
    <!-- 5 -->
    <g style="fill:#0072b2;" transform="translate(446.862552 464.777175)scale(0.1 -0.1)">
     <use xlink:href="#DejaVuSans-53"/>
    </g>
   </g>
   <g id="text_50">
    <!-- 6 -->
    <g style="fill:#d55e00;" transform="translate(322.530516 459.656974)scale(0.1 -0.1)">
     <use xlink:href="#DejaVuSans-54"/>
    </g>
   </g>
   <g id="text_51">
    <!-- 7 -->
    <g style="fill:#cc79a7;" transform="translate(84.21 486.381355)scale(0.1 -0.1)">
     <use xlink:href="#DejaVuSans-55"/>
    </g>
   </g>
   <g id="text_52">
    <!-- 8 -->
    <g style="fill:#abd9e9;" transform="translate(359.408713 417.089535)scale(0.1 -0.1)">
     <use xlink:href="#DejaVuSans-56"/>
    </g>
   </g>
   <g id="text_53">
    <!-- 9 -->
    <g style="fill:#999999;" transform="translate(225.167241 432.148213)scale(0.1 -0.1)">
     <use xlink:href="#DejaVuSans-57"/>
    </g>
   </g>
   <g id="text_54">
    <!-- 10 -->
    <g style="fill:#e69f00;" transform="translate(76.505769 431.7012)scale(0.1 -0.1)">
     <use xlink:href="#DejaVuSans-49"/>
     <use x="63.623047" xlink:href="#DejaVuSans-48"/>
    </g>
   </g>
   <g id="text_55">
    <!-- 11 -->
    <g style="fill:#009e73;" transform="translate(207.143201 424.037876)scale(0.1 -0.1)">
     <use xlink:href="#DejaVuSans-49"/>
     <use x="63.623047" xlink:href="#DejaVuSans-49"/>
    </g>
   </g>
   <g id="text_56">
    <!-- 12 -->
    <g style="fill:#d55e00;" transform="translate(134.219966 357.512622)scale(0.1 -0.1)">
     <use xlink:href="#DejaVuSans-49"/>
     <use x="63.623047" xlink:href="#DejaVuSans-50"/>
    </g>
   </g>
   <g id="text_57">
    <!-- 13 -->
    <g style="fill:#abd9e9;" transform="translate(203.067193 427.163718)scale(0.1 -0.1)">
     <use xlink:href="#DejaVuSans-49"/>
     <use x="63.623047" xlink:href="#DejaVuSans-51"/>
    </g>
   </g>
   <g id="text_58">
    <!-- 14 -->
    <g style="fill:#999999;" transform="translate(296.724902 467.944949)scale(0.1 -0.1)">
     <use xlink:href="#DejaVuSans-49"/>
     <use x="63.623047" xlink:href="#DejaVuSans-52"/>
    </g>
   </g>
   <g id="text_59">
    <!-- 15 -->
    <g style="fill:#e69f00;" transform="translate(326.886834 453.613456)scale(0.1 -0.1)">
     <use xlink:href="#DejaVuSans-49"/>
     <use x="63.623047" xlink:href="#DejaVuSans-53"/>
    </g>
   </g>
   <g id="text_60">
    <!-- 16 -->
    <g style="fill:#56b4e9;" transform="translate(447.430479 467.173022)scale(0.1 -0.1)">
     <use xlink:href="#DejaVuSans-49"/>
     <use x="63.623047" xlink:href="#DejaVuSans-54"/>
    </g>
   </g>
   <g id="text_61">
    <!-- 17 -->
    <g style="fill:#009e73;" transform="translate(136.95671 355.816219)scale(0.1 -0.1)">
     <use xlink:href="#DejaVuSans-49"/>
     <use x="63.623047" xlink:href="#DejaVuSans-55"/>
    </g>
   </g>
   <g id="text_62">
    <!-- 18 -->
    <g style="fill:#f0e442;" transform="translate(214.682276 420.725262)scale(0.1 -0.1)">
     <use xlink:href="#DejaVuSans-49"/>
     <use x="63.623047" xlink:href="#DejaVuSans-56"/>
    </g>
   </g>
   <g id="text_63">
    <!-- Selected GMM: full model, 19 Gaussian components -->
    <g transform="translate(101.753438 347.688511)scale(0.12 -0.12)">
     <defs>
      <path d="M 53.515625 70.515625 
L 53.515625 60.890625 
Q 47.90625 63.578125 42.921875 64.890625 
Q 37.9375 66.21875 33.296875 66.21875 
Q 25.25 66.21875 20.875 63.09375 
Q 16.5 59.96875 16.5 54.203125 
Q 16.5 49.359375 19.40625 46.890625 
Q 22.3125 44.4375 30.421875 42.921875 
L 36.375 41.703125 
Q 47.40625 39.59375 52.65625 34.296875 
Q 57.90625 29 57.90625 20.125 
Q 57.90625 9.515625 50.796875 4.046875 
Q 43.703125 -1.421875 29.984375 -1.421875 
Q 24.8125 -1.421875 18.96875 -0.25 
Q 13.140625 0.921875 6.890625 3.21875 
L 6.890625 13.375 
Q 12.890625 10.015625 18.65625 8.296875 
Q 24.421875 6.59375 29.984375 6.59375 
Q 38.421875 6.59375 43.015625 9.90625 
Q 47.609375 13.234375 47.609375 19.390625 
Q 47.609375 24.75 44.3125 27.78125 
Q 41.015625 30.8125 33.5 32.328125 
L 27.484375 33.5 
Q 16.453125 35.6875 11.515625 40.375 
Q 6.59375 45.0625 6.59375 53.421875 
Q 6.59375 63.09375 13.40625 68.65625 
Q 20.21875 74.21875 32.171875 74.21875 
Q 37.3125 74.21875 42.625 73.28125 
Q 47.953125 72.359375 53.515625 70.515625 
z
" id="DejaVuSans-83"/>
      <path d="M 11.71875 12.40625 
L 22.015625 12.40625 
L 22.015625 0 
L 11.71875 0 
z
M 11.71875 51.703125 
L 22.015625 51.703125 
L 22.015625 39.3125 
L 11.71875 39.3125 
z
" id="DejaVuSans-58"/>
      <path d="M 11.71875 12.40625 
L 22.015625 12.40625 
L 22.015625 4 
L 14.015625 -11.625 
L 7.71875 -11.625 
L 11.71875 4 
z
" id="DejaVuSans-44"/>
     </defs>
     <use xlink:href="#DejaVuSans-83"/>
     <use x="63.476562" xlink:href="#DejaVuSans-101"/>
     <use x="125" xlink:href="#DejaVuSans-108"/>
     <use x="152.783203" xlink:href="#DejaVuSans-101"/>
     <use x="214.306641" xlink:href="#DejaVuSans-99"/>
     <use x="269.287109" xlink:href="#DejaVuSans-116"/>
     <use x="308.496094" xlink:href="#DejaVuSans-101"/>
     <use x="370.019531" xlink:href="#DejaVuSans-100"/>
     <use x="433.496094" xlink:href="#DejaVuSans-32"/>
     <use x="465.283203" xlink:href="#DejaVuSans-71"/>
     <use x="542.773438" xlink:href="#DejaVuSans-77"/>
     <use x="629.052734" xlink:href="#DejaVuSans-77"/>
     <use x="715.332031" xlink:href="#DejaVuSans-58"/>
     <use x="749.023438" xlink:href="#DejaVuSans-32"/>
     <use x="780.810547" xlink:href="#DejaVuSans-102"/>
     <use x="816.015625" xlink:href="#DejaVuSans-117"/>
     <use x="879.394531" xlink:href="#DejaVuSans-108"/>
     <use x="907.177734" xlink:href="#DejaVuSans-108"/>
     <use x="934.960938" xlink:href="#DejaVuSans-32"/>
     <use x="966.748047" xlink:href="#DejaVuSans-109"/>
     <use x="1064.160156" xlink:href="#DejaVuSans-111"/>
     <use x="1125.341797" xlink:href="#DejaVuSans-100"/>
     <use x="1188.818359" xlink:href="#DejaVuSans-101"/>
     <use x="1250.341797" xlink:href="#DejaVuSans-108"/>
     <use x="1278.125" xlink:href="#DejaVuSans-44"/>
     <use x="1309.912109" xlink:href="#DejaVuSans-32"/>
     <use x="1341.699219" xlink:href="#DejaVuSans-49"/>
     <use x="1405.322266" xlink:href="#DejaVuSans-57"/>
     <use x="1468.945312" xlink:href="#DejaVuSans-32"/>
     <use x="1500.732422" xlink:href="#DejaVuSans-71"/>
     <use x="1578.222656" xlink:href="#DejaVuSans-97"/>
     <use x="1639.501953" xlink:href="#DejaVuSans-117"/>
     <use x="1702.880859" xlink:href="#DejaVuSans-115"/>
     <use x="1754.980469" xlink:href="#DejaVuSans-115"/>
     <use x="1807.080078" xlink:href="#DejaVuSans-105"/>
     <use x="1834.863281" xlink:href="#DejaVuSans-97"/>
     <use x="1896.142578" xlink:href="#DejaVuSans-110"/>
     <use x="1959.521484" xlink:href="#DejaVuSans-32"/>
     <use x="1991.308594" xlink:href="#DejaVuSans-99"/>
     <use x="2046.289062" xlink:href="#DejaVuSans-111"/>
     <use x="2107.470703" xlink:href="#DejaVuSans-109"/>
     <use x="2204.882812" xlink:href="#DejaVuSans-112"/>
     <use x="2268.359375" xlink:href="#DejaVuSans-111"/>
     <use x="2329.541016" xlink:href="#DejaVuSans-110"/>
     <use x="2392.919922" xlink:href="#DejaVuSans-101"/>
     <use x="2454.443359" xlink:href="#DejaVuSans-110"/>
     <use x="2517.822266" xlink:href="#DejaVuSans-116"/>
     <use x="2557.03125" xlink:href="#DejaVuSans-115"/>
    </g>
   </g>
  </g>
 </g>
 <defs>
  <clipPath id="pba4c586f19">
   <rect height="210.791489" width="390.6" x="63" y="69.12"/>
  </clipPath>
  <clipPath id="pb98165a1c5">
   <rect height="210.791489" width="390.6" x="63" y="353.688511"/>
  </clipPath>
 </defs>
</svg>
