<?xml version="1.0" encoding="utf-8" standalone="no"?>
<!DOCTYPE svg PUBLIC "-//W3C//DTD SVG 1.1//EN"
  "http://www.w3.org/Graphics/SVG/1.1/DTD/svg11.dtd">
<!-- Created with matplotlib (https://matplotlib.org/) -->
<svg height="280.8pt" version="1.1" viewBox="0 0 504 280.8" width="504pt" xmlns="http://www.w3.org/2000/svg" xmlns:xlink="http://www.w3.org/1999/xlink">
 <metadata>
  <rdf:RDF xmlns:cc="http://creativecommons.org/ns#" xmlns:dc="http://purl.org/dc/elements/1.1/" xmlns:rdf="http://www.w3.org/1999/02/22-rdf-syntax-ns#">
   <cc:Work>
    <dc:type rdf:resource="http://purl.org/dc/dcmitype/StillImage"/>
    <dc:date>2023-05-24T16:14:24.504259</dc:date>
    <dc:format>image/svg+xml</dc:format>
    <dc:creator>
     <cc:Agent>
      <dc:title>Matplotlib v3.3.4, https://matplotlib.org/</dc:title>
     </cc:Agent>
    </dc:creator>
   </cc:Work>
  </rdf:RDF>
 </metadata>
 <defs>
  <style type="text/css">*{stroke-linecap:butt;stroke-linejoin:round;}</style>
 </defs>
 <g id="figure_1">
  <g id="patch_1">
   <path d="M 0 280.8 
L 504 280.8 
L 504 0 
L 0 0 
z
" style="fill:#ffffff;"/>
  </g>
  <g id="axes_1">
   <g id="patch_2">
    <path d="M 63 249.912 
L 453.6 249.912 
L 453.6 33.696 
L 63 33.696 
z
" style="fill:#ffffff;"/>
   </g>
   <g id="PathCollection_1">
    <defs>
     <path d="M 0 3 
C 0.795609 3 1.55874 2.683901 2.12132 2.12132 
C 2.683901 1.55874 3 0.795609 3 0 
C 3 -0.795609 2.683901 -1.55874 2.12132 -2.12132 
C 1.55874 -2.683901 0.795609 -3 0 -3 
C -0.795609 -3 -1.55874 -2.683901 -2.12132 -2.12132 
C -2.683901 -1.55874 -3 -0.795609 -3 0 
C -3 0.795609 -2.683901 1.55874 -2.12132 2.12132 
C -1.55874 2.683901 -0.795609 3 0 3 
z
" id="m03176ba772" style="stroke:#1f77b4;"/>
    </defs>
    <g clip-path="url(#pa3cf05885a)">
     <use style="fill:#1f77b4;stroke:#1f77b4;" x="130.41026" xlink:href="#m03176ba772" y="98.093026"/>
     <use style="fill:#1f77b4;stroke:#1f77b4;" x="231.30074" xlink:href="#m03176ba772" y="206.362463"/>
     <use style="fill:#1f77b4;stroke:#1f77b4;" x="197.171618" xlink:href="#m03176ba772" y="82.781065"/>
     <use style="fill:#1f77b4;stroke:#1f77b4;" x="185.356244" xlink:href="#m03176ba772" y="192.622172"/>
     <use style="fill:#1f77b4;stroke:#1f77b4;" x="107.818659" xlink:href="#m03176ba772" y="71.73"/>
     <use style="fill:#1f77b4;stroke:#1f77b4;" x="127.43034" xlink:href="#m03176ba772" y="146.353192"/>
     <use style="fill:#1f77b4;stroke:#1f77b4;" x="208.318764" xlink:href="#m03176ba772" y="163.125572"/>
     <use style="fill:#1f77b4;stroke:#1f77b4;" x="86.961329" xlink:href="#m03176ba772" y="134.016054"/>
     <use style="fill:#1f77b4;stroke:#1f77b4;" x="208.457841" xlink:href="#m03176ba772" y="163.211074"/>
     <use style="fill:#1f77b4;stroke:#1f77b4;" x="271.892323" xlink:href="#m03176ba772" y="173.822434"/>
     <use style="fill:#1f77b4;stroke:#1f77b4;" x="86.828343" xlink:href="#m03176ba772" y="134.112294"/>
     <use style="fill:#1f77b4;stroke:#1f77b4;" x="245.625165" xlink:href="#m03176ba772" y="120.399731"/>
     <use style="fill:#1f77b4;stroke:#1f77b4;" x="245.625058" xlink:href="#m03176ba772" y="120.399847"/>
     <use style="fill:#1f77b4;stroke:#1f77b4;" x="86.256071" xlink:href="#m03176ba772" y="134.395169"/>
     <use style="fill:#1f77b4;stroke:#1f77b4;" x="102.278846" xlink:href="#m03176ba772" y="162.776379"/>
     <use style="fill:#1f77b4;stroke:#1f77b4;" x="272.759289" xlink:href="#m03176ba772" y="174.352104"/>
     <use style="fill:#1f77b4;stroke:#1f77b4;" x="162.015598" xlink:href="#m03176ba772" y="61.595651"/>
     <use style="fill:#1f77b4;stroke:#1f77b4;" x="435.492752" xlink:href="#m03176ba772" y="169.026912"/>
     <use style="fill:#1f77b4;stroke:#1f77b4;" x="434.788177" xlink:href="#m03176ba772" y="168.595015"/>
     <use style="fill:#1f77b4;stroke:#1f77b4;" x="101.557828" xlink:href="#m03176ba772" y="140.106506"/>
     <use style="fill:#1f77b4;stroke:#1f77b4;" x="233.828592" xlink:href="#m03176ba772" y="199.958192"/>
     <use style="fill:#1f77b4;stroke:#1f77b4;" x="435.438612" xlink:href="#m03176ba772" y="168.993559"/>
     <use style="fill:#1f77b4;stroke:#1f77b4;" x="316.104561" xlink:href="#m03176ba772" y="158.691614"/>
     <use style="fill:#1f77b4;stroke:#1f77b4;" x="128.913313" xlink:href="#m03176ba772" y="122.350201"/>
     <use style="fill:#1f77b4;stroke:#1f77b4;" x="313.626205" xlink:href="#m03176ba772" y="159.249162"/>
     <use style="fill:#1f77b4;stroke:#1f77b4;" x="313.167439" xlink:href="#m03176ba772" y="160.808571"/>
     <use style="fill:#1f77b4;stroke:#1f77b4;" x="169.036331" xlink:href="#m03176ba772" y="227.296516"/>
     <use style="fill:#1f77b4;stroke:#1f77b4;" x="107.81853" xlink:href="#m03176ba772" y="71.729632"/>
     <use style="fill:#1f77b4;stroke:#1f77b4;" x="86.639103" xlink:href="#m03176ba772" y="134.18437"/>
     <use style="fill:#1f77b4;stroke:#1f77b4;" x="165.180636" xlink:href="#m03176ba772" y="130.548379"/>
     <use style="fill:#1f77b4;stroke:#1f77b4;" x="169.036127" xlink:href="#m03176ba772" y="227.29664"/>
     <use style="fill:#1f77b4;stroke:#1f77b4;" x="230.831342" xlink:href="#m03176ba772" y="206.535812"/>
     <use style="fill:#1f77b4;stroke:#1f77b4;" x="388.069165" xlink:href="#m03176ba772" y="172.836309"/>
     <use style="fill:#1f77b4;stroke:#1f77b4;" x="164.153173" xlink:href="#m03176ba772" y="62.902573"/>
     <use style="fill:#1f77b4;stroke:#1f77b4;" x="367.26398" xlink:href="#m03176ba772" y="117.261999"/>
     <use style="fill:#1f77b4;stroke:#1f77b4;" x="86.183106" xlink:href="#m03176ba772" y="134.424124"/>
     <use style="fill:#1f77b4;stroke:#1f77b4;" x="229.731299" xlink:href="#m03176ba772" y="62.906699"/>
     <use style="fill:#1f77b4;stroke:#1f77b4;" x="272.617957" xlink:href="#m03176ba772" y="174.264155"/>
     <use style="fill:#1f77b4;stroke:#1f77b4;" x="227.745894" xlink:href="#m03176ba772" y="61.720139"/>
     <use style="fill:#1f77b4;stroke:#1f77b4;" x="315.998303" xlink:href="#m03176ba772" y="158.740392"/>
     <use style="fill:#1f77b4;stroke:#1f77b4;" x="165.667728" xlink:href="#m03176ba772" y="130.255135"/>
     <use style="fill:#1f77b4;stroke:#1f77b4;" x="235.122648" xlink:href="#m03176ba772" y="198.653635"/>
     <use style="fill:#1f77b4;stroke:#1f77b4;" x="80.754545" xlink:href="#m03176ba772" y="136.976222"/>
     <use style="fill:#1f77b4;stroke:#1f77b4;" x="272.048464" xlink:href="#m03176ba772" y="173.914975"/>
     <use style="fill:#1f77b4;stroke:#1f77b4;" x="272.087776" xlink:href="#m03176ba772" y="173.940797"/>
     <use style="fill:#1f77b4;stroke:#1f77b4;" x="245.624985" xlink:href="#m03176ba772" y="120.400037"/>
     <use style="fill:#1f77b4;stroke:#1f77b4;" x="230.950392" xlink:href="#m03176ba772" y="206.563981"/>
     <use style="fill:#1f77b4;stroke:#1f77b4;" x="313.625725" xlink:href="#m03176ba772" y="159.252844"/>
     <use style="fill:#1f77b4;stroke:#1f77b4;" x="211.868059" xlink:href="#m03176ba772" y="101.39698"/>
     <use style="fill:#1f77b4;stroke:#1f77b4;" x="316.443701" xlink:href="#m03176ba772" y="158.477277"/>
     <use style="fill:#1f77b4;stroke:#1f77b4;" x="337.102494" xlink:href="#m03176ba772" y="153.687456"/>
     <use style="fill:#1f77b4;stroke:#1f77b4;" x="162.799303" xlink:href="#m03176ba772" y="62.075879"/>
     <use style="fill:#1f77b4;stroke:#1f77b4;" x="127.429592" xlink:href="#m03176ba772" y="146.353217"/>
     <use style="fill:#1f77b4;stroke:#1f77b4;" x="208.559418" xlink:href="#m03176ba772" y="163.275767"/>
     <use style="fill:#1f77b4;stroke:#1f77b4;" x="313.173163" xlink:href="#m03176ba772" y="160.164132"/>
     <use style="fill:#1f77b4;stroke:#1f77b4;" x="165.68768" xlink:href="#m03176ba772" y="130.243879"/>
     <use style="fill:#1f77b4;stroke:#1f77b4;" x="229.916071" xlink:href="#m03176ba772" y="63.012264"/>
     <use style="fill:#1f77b4;stroke:#1f77b4;" x="335.530039" xlink:href="#m03176ba772" y="154.652669"/>
     <use style="fill:#1f77b4;stroke:#1f77b4;" x="435.16049" xlink:href="#m03176ba772" y="168.822735"/>
     <use style="fill:#1f77b4;stroke:#1f77b4;" x="164.352721" xlink:href="#m03176ba772" y="63.024461"/>
     <use style="fill:#1f77b4;stroke:#1f77b4;" x="226.083855" xlink:href="#m03176ba772" y="60.712472"/>
     <use style="fill:#1f77b4;stroke:#1f77b4;" x="366.519078" xlink:href="#m03176ba772" y="117.692926"/>
     <use style="fill:#1f77b4;stroke:#1f77b4;" x="269.652837" xlink:href="#m03176ba772" y="172.454821"/>
     <use style="fill:#1f77b4;stroke:#1f77b4;" x="158.223676" xlink:href="#m03176ba772" y="59.276705"/>
     <use style="fill:#1f77b4;stroke:#1f77b4;" x="82.208085" xlink:href="#m03176ba772" y="237.640159"/>
     <use style="fill:#1f77b4;stroke:#1f77b4;" x="366.882712" xlink:href="#m03176ba772" y="117.468792"/>
     <use style="fill:#1f77b4;stroke:#1f77b4;" x="227.277722" xlink:href="#m03176ba772" y="44.369757"/>
     <use style="fill:#1f77b4;stroke:#1f77b4;" x="165.857262" xlink:href="#m03176ba772" y="130.138689"/>
     <use style="fill:#1f77b4;stroke:#1f77b4;" x="313.057359" xlink:href="#m03176ba772" y="160.678292"/>
     <use style="fill:#1f77b4;stroke:#1f77b4;" x="230.215774" xlink:href="#m03176ba772" y="44.340402"/>
     <use style="fill:#1f77b4;stroke:#1f77b4;" x="367.671894" xlink:href="#m03176ba772" y="117.023184"/>
     <use style="fill:#1f77b4;stroke:#1f77b4;" x="128.606856" xlink:href="#m03176ba772" y="97.224972"/>
     <use style="fill:#1f77b4;stroke:#1f77b4;" x="185.356798" xlink:href="#m03176ba772" y="192.622282"/>
     <use style="fill:#1f77b4;stroke:#1f77b4;" x="243.723633" xlink:href="#m03176ba772" y="151.170616"/>
     <use style="fill:#1f77b4;stroke:#1f77b4;" x="197.26052" xlink:href="#m03176ba772" y="82.831666"/>
     <use style="fill:#1f77b4;stroke:#1f77b4;" x="197.323924" xlink:href="#m03176ba772" y="82.871218"/>
     <use style="fill:#1f77b4;stroke:#1f77b4;" x="230.847629" xlink:href="#m03176ba772" y="43.940916"/>
     <use style="fill:#1f77b4;stroke:#1f77b4;" x="130.986451" xlink:href="#m03176ba772" y="98.449534"/>
     <use style="fill:#1f77b4;stroke:#1f77b4;" x="229.277114" xlink:href="#m03176ba772" y="43.812856"/>
     <use style="fill:#1f77b4;stroke:#1f77b4;" x="182.193049" xlink:href="#m03176ba772" y="100.591967"/>
     <use style="fill:#1f77b4;stroke:#1f77b4;" x="312.417116" xlink:href="#m03176ba772" y="160.17314"/>
     <use style="fill:#1f77b4;stroke:#1f77b4;" x="435.845455" xlink:href="#m03176ba772" y="169.242023"/>
     <use style="fill:#1f77b4;stroke:#1f77b4;" x="158.363235" xlink:href="#m03176ba772" y="59.361743"/>
     <use style="fill:#1f77b4;stroke:#1f77b4;" x="192.139103" xlink:href="#m03176ba772" y="136.993682"/>
     <use style="fill:#1f77b4;stroke:#1f77b4;" x="234.506969" xlink:href="#m03176ba772" y="199.191255"/>
     <use style="fill:#1f77b4;stroke:#1f77b4;" x="182.238333" xlink:href="#m03176ba772" y="100.588485"/>
     <use style="fill:#1f77b4;stroke:#1f77b4;" x="230.056034" xlink:href="#m03176ba772" y="44.52281"/>
     <use style="fill:#1f77b4;stroke:#1f77b4;" x="182.238074" xlink:href="#m03176ba772" y="100.588689"/>
     <use style="fill:#1f77b4;stroke:#1f77b4;" x="128.661675" xlink:href="#m03176ba772" y="97.237067"/>
     <use style="fill:#1f77b4;stroke:#1f77b4;" x="197.704204" xlink:href="#m03176ba772" y="83.104279"/>
     <use style="fill:#1f77b4;stroke:#1f77b4;" x="226.334175" xlink:href="#m03176ba772" y="60.866865"/>
     <use style="fill:#1f77b4;stroke:#1f77b4;" x="198.188573" xlink:href="#m03176ba772" y="240.084"/>
     <use style="fill:#1f77b4;stroke:#1f77b4;" x="126.930497" xlink:href="#m03176ba772" y="96.783176"/>
     <use style="fill:#1f77b4;stroke:#1f77b4;" x="165.51868" xlink:href="#m03176ba772" y="130.344877"/>
     <use style="fill:#1f77b4;stroke:#1f77b4;" x="102.909819" xlink:href="#m03176ba772" y="163.161941"/>
     <use style="fill:#1f77b4;stroke:#1f77b4;" x="211.868886" xlink:href="#m03176ba772" y="101.397969"/>
     <use style="fill:#1f77b4;stroke:#1f77b4;" x="229.355901" xlink:href="#m03176ba772" y="45.625298"/>
     <use style="fill:#1f77b4;stroke:#1f77b4;" x="235.534633" xlink:href="#m03176ba772" y="201.124848"/>
     <use style="fill:#1f77b4;stroke:#1f77b4;" x="198.188599" xlink:href="#m03176ba772" y="240.083853"/>
     <use style="fill:#1f77b4;stroke:#1f77b4;" x="198.188702" xlink:href="#m03176ba772" y="240.083678"/>
     <use style="fill:#1f77b4;stroke:#1f77b4;" x="244.098724" xlink:href="#m03176ba772" y="151.399839"/>
     <use style="fill:#1f77b4;stroke:#1f77b4;" x="237.154521" xlink:href="#m03176ba772" y="200.798995"/>
     <use style="fill:#1f77b4;stroke:#1f77b4;" x="335.938802" xlink:href="#m03176ba772" y="154.400644"/>
     <use style="fill:#1f77b4;stroke:#1f77b4;" x="128.912473" xlink:href="#m03176ba772" y="122.350902"/>
     <use style="fill:#1f77b4;stroke:#1f77b4;" x="208.018375" xlink:href="#m03176ba772" y="162.959742"/>
     <use style="fill:#1f77b4;stroke:#1f77b4;" x="234.089869" xlink:href="#m03176ba772" y="199.656082"/>
     <use style="fill:#1f77b4;stroke:#1f77b4;" x="128.270361" xlink:href="#m03176ba772" y="96.997133"/>
     <use style="fill:#1f77b4;stroke:#1f77b4;" x="191.803338" xlink:href="#m03176ba772" y="136.762994"/>
     <use style="fill:#1f77b4;stroke:#1f77b4;" x="226.790595" xlink:href="#m03176ba772" y="43.524"/>
     <use style="fill:#1f77b4;stroke:#1f77b4;" x="434.715203" xlink:href="#m03176ba772" y="168.549878"/>
     <use style="fill:#1f77b4;stroke:#1f77b4;" x="101.556813" xlink:href="#m03176ba772" y="140.105899"/>
     <use style="fill:#1f77b4;stroke:#1f77b4;" x="270.24031" xlink:href="#m03176ba772" y="172.812856"/>
     <use style="fill:#1f77b4;stroke:#1f77b4;" x="197.255486" xlink:href="#m03176ba772" y="82.830626"/>
     <use style="fill:#1f77b4;stroke:#1f77b4;" x="161.239148" xlink:href="#m03176ba772" y="61.123443"/>
     <use style="fill:#1f77b4;stroke:#1f77b4;" x="160.07579" xlink:href="#m03176ba772" y="60.410606"/>
     <use style="fill:#1f77b4;stroke:#1f77b4;" x="367.371097" xlink:href="#m03176ba772" y="117.205127"/>
     <use style="fill:#1f77b4;stroke:#1f77b4;" x="130.462174" xlink:href="#m03176ba772" y="98.109868"/>
     <use style="fill:#1f77b4;stroke:#1f77b4;" x="243.623016" xlink:href="#m03176ba772" y="151.107753"/>
     <use style="fill:#1f77b4;stroke:#1f77b4;" x="82.20719" xlink:href="#m03176ba772" y="237.641521"/>
     <use style="fill:#1f77b4;stroke:#1f77b4;" x="102.542196" xlink:href="#m03176ba772" y="162.939025"/>
     <use style="fill:#1f77b4;stroke:#1f77b4;" x="82.371465" xlink:href="#m03176ba772" y="136.201567"/>
     <use style="fill:#1f77b4;stroke:#1f77b4;" x="130.355058" xlink:href="#m03176ba772" y="98.07152"/>
     <use style="fill:#1f77b4;stroke:#1f77b4;" x="195.495086" xlink:href="#m03176ba772" y="137.70147"/>
     <use style="fill:#1f77b4;stroke:#1f77b4;" x="227.868618" xlink:href="#m03176ba772" y="61.795829"/>
     <use style="fill:#1f77b4;stroke:#1f77b4;" x="82.206756" xlink:href="#m03176ba772" y="237.64216"/>
     <use style="fill:#1f77b4;stroke:#1f77b4;" x="235.5861" xlink:href="#m03176ba772" y="201.183235"/>
     <use style="fill:#1f77b4;stroke:#1f77b4;" x="192.340989" xlink:href="#m03176ba772" y="137.07987"/>
     <use style="fill:#1f77b4;stroke:#1f77b4;" x="335.835259" xlink:href="#m03176ba772" y="154.464555"/>
     <use style="fill:#1f77b4;stroke:#1f77b4;" x="337.23271" xlink:href="#m03176ba772" y="153.609081"/>
     <use style="fill:#1f77b4;stroke:#1f77b4;" x="82.978248" xlink:href="#m03176ba772" y="135.934357"/>
     <use style="fill:#1f77b4;stroke:#1f77b4;" x="243.712092" xlink:href="#m03176ba772" y="151.163766"/>
     <use style="fill:#1f77b4;stroke:#1f77b4;" x="182.244045" xlink:href="#m03176ba772" y="100.590899"/>
     <use style="fill:#1f77b4;stroke:#1f77b4;" x="226.606527" xlink:href="#m03176ba772" y="44.26201"/>
     <use style="fill:#1f77b4;stroke:#1f77b4;" x="229.301853" xlink:href="#m03176ba772" y="45.681862"/>
     <use style="fill:#1f77b4;stroke:#1f77b4;" x="164.067194" xlink:href="#m03176ba772" y="62.850327"/>
     <use style="fill:#1f77b4;stroke:#1f77b4;" x="233.361433" xlink:href="#m03176ba772" y="200.210861"/>
     <use style="fill:#1f77b4;stroke:#1f77b4;" x="127.428115" xlink:href="#m03176ba772" y="146.352706"/>
     <use style="fill:#1f77b4;stroke:#1f77b4;" x="211.867984" xlink:href="#m03176ba772" y="101.397087"/>
     <use style="fill:#1f77b4;stroke:#1f77b4;" x="316.629636" xlink:href="#m03176ba772" y="158.43009"/>
     <use style="fill:#1f77b4;stroke:#1f77b4;" x="237.279032" xlink:href="#m03176ba772" y="200.831782"/>
     <use style="fill:#1f77b4;stroke:#1f77b4;" x="388.065693" xlink:href="#m03176ba772" y="172.838602"/>
     <use style="fill:#1f77b4;stroke:#1f77b4;" x="226.818715" xlink:href="#m03176ba772" y="43.57082"/>
     <use style="fill:#1f77b4;stroke:#1f77b4;" x="230.471687" xlink:href="#m03176ba772" y="206.880745"/>
     <use style="fill:#1f77b4;stroke:#1f77b4;" x="102.543821" xlink:href="#m03176ba772" y="162.938674"/>
     <use style="fill:#1f77b4;stroke:#1f77b4;" x="128.912759" xlink:href="#m03176ba772" y="122.350927"/>
     <use style="fill:#1f77b4;stroke:#1f77b4;" x="208.020765" xlink:href="#m03176ba772" y="162.96196"/>
     <use style="fill:#1f77b4;stroke:#1f77b4;" x="234.698554" xlink:href="#m03176ba772" y="200.852368"/>
     <use style="fill:#1f77b4;stroke:#1f77b4;" x="185.356929" xlink:href="#m03176ba772" y="192.622429"/>
     <use style="fill:#1f77b4;stroke:#1f77b4;" x="387.257326" xlink:href="#m03176ba772" y="173.333005"/>
     <use style="fill:#1f77b4;stroke:#1f77b4;" x="197.68754" xlink:href="#m03176ba772" y="138.323864"/>
     <use style="fill:#1f77b4;stroke:#1f77b4;" x="224.020074" xlink:href="#m03176ba772" y="44.58081"/>
     <use style="fill:#1f77b4;stroke:#1f77b4;" x="224.260262" xlink:href="#m03176ba772" y="44.585975"/>
     <use style="fill:#1f77b4;stroke:#1f77b4;" x="107.81889" xlink:href="#m03176ba772" y="71.730135"/>
     <use style="fill:#1f77b4;stroke:#1f77b4;" x="197.34388" xlink:href="#m03176ba772" y="138.204925"/>
     <use style="fill:#1f77b4;stroke:#1f77b4;" x="230.380779" xlink:href="#m03176ba772" y="206.944103"/>
     <use style="fill:#1f77b4;stroke:#1f77b4;" x="208.268468" xlink:href="#m03176ba772" y="163.102538"/>
     <use style="fill:#1f77b4;stroke:#1f77b4;" x="127.238962" xlink:href="#m03176ba772" y="96.895445"/>
     <use style="fill:#1f77b4;stroke:#1f77b4;" x="190.426624" xlink:href="#m03176ba772" y="136.249267"/>
     <use style="fill:#1f77b4;stroke:#1f77b4;" x="82.207513" xlink:href="#m03176ba772" y="237.641069"/>
     <use style="fill:#1f77b4;stroke:#1f77b4;" x="190.787897" xlink:href="#m03176ba772" y="136.438834"/>
     <use style="fill:#1f77b4;stroke:#1f77b4;" x="199.653243" xlink:href="#m03176ba772" y="84.315887"/>
     <use style="fill:#1f77b4;stroke:#1f77b4;" x="199.328531" xlink:href="#m03176ba772" y="84.117117"/>
     <use style="fill:#1f77b4;stroke:#1f77b4;" x="226.352207" xlink:href="#m03176ba772" y="60.878276"/>
     <use style="fill:#1f77b4;stroke:#1f77b4;" x="243.65557" xlink:href="#m03176ba772" y="151.127981"/>
     <use style="fill:#1f77b4;stroke:#1f77b4;" x="312.400812" xlink:href="#m03176ba772" y="160.183068"/>
     <use style="fill:#1f77b4;stroke:#1f77b4;" x="81.092384" xlink:href="#m03176ba772" y="136.773098"/>
     <use style="fill:#1f77b4;stroke:#1f77b4;" x="101.557145" xlink:href="#m03176ba772" y="140.105851"/>
     <use style="fill:#1f77b4;stroke:#1f77b4;" x="169.036411" xlink:href="#m03176ba772" y="227.296567"/>
     <use style="fill:#1f77b4;stroke:#1f77b4;" x="232.733484" xlink:href="#m03176ba772" y="203.678875"/>
     <use style="fill:#1f77b4;stroke:#1f77b4;" x="387.06647" xlink:href="#m03176ba772" y="173.449483"/>
     <use style="fill:#1f77b4;stroke:#1f77b4;" x="197.458772" xlink:href="#m03176ba772" y="138.224644"/>
     <use style="fill:#1f77b4;stroke:#1f77b4;" x="386.924713" xlink:href="#m03176ba772" y="173.535777"/>
     <use style="fill:#1f77b4;stroke:#1f77b4;" x="387.09162" xlink:href="#m03176ba772" y="173.433579"/>
    </g>
   </g>
   <g id="matplotlib.axis_1">
    <g id="xtick_1">
     <g id="line2d_1">
      <defs>
       <path d="M 0 0 
L 0 3.5 
" id="m13fade44ea" style="stroke:#000000;stroke-width:0.8;"/>
      </defs>
      <g>
       <use style="stroke:#000000;stroke-width:0.8;" x="96.216146" xlink:href="#m13fade44ea" y="249.912"/>
      </g>
     </g>
     <g id="text_1">
      <!-- −10 -->
      <g transform="translate(85.663802 264.510438)scale(0.1 -0.1)">
       <defs>
        <path d="M 10.59375 35.5 
L 73.1875 35.5 
L 73.1875 27.203125 
L 10.59375 27.203125 
z
" id="DejaVuSans-8722"/>
        <path d="M 12.40625 8.296875 
L 28.515625 8.296875 
L 28.515625 63.921875 
L 10.984375 60.40625 
L 10.984375 69.390625 
L 28.421875 72.90625 
L 38.28125 72.90625 
L 38.28125 8.296875 
L 54.390625 8.296875 
L 54.390625 0 
L 12.40625 0 
z
" id="DejaVuSans-49"/>
        <path d="M 31.78125 66.40625 
Q 24.171875 66.40625 20.328125 58.90625 
Q 16.5 51.421875 16.5 36.375 
Q 16.5 21.390625 20.328125 13.890625 
Q 24.171875 6.390625 31.78125 6.390625 
Q 39.453125 6.390625 43.28125 13.890625 
Q 47.125 21.390625 47.125 36.375 
Q 47.125 51.421875 43.28125 58.90625 
Q 39.453125 66.40625 31.78125 66.40625 
z
M 31.78125 74.21875 
Q 44.046875 74.21875 50.515625 64.515625 
Q 56.984375 54.828125 56.984375 36.375 
Q 56.984375 17.96875 50.515625 8.265625 
Q 44.046875 -1.421875 31.78125 -1.421875 
Q 19.53125 -1.421875 13.0625 8.265625 
Q 6.59375 17.96875 6.59375 36.375 
Q 6.59375 54.828125 13.0625 64.515625 
Q 19.53125 74.21875 31.78125 74.21875 
z
" id="DejaVuSans-48"/>
       </defs>
       <use xlink:href="#DejaVuSans-8722"/>
       <use x="83.789062" xlink:href="#DejaVuSans-49"/>
       <use x="147.412109" xlink:href="#DejaVuSans-48"/>
      </g>
     </g>
    </g>
    <g id="xtick_2">
     <g id="line2d_2">
      <g>
       <use style="stroke:#000000;stroke-width:0.8;" x="144.621433" xlink:href="#m13fade44ea" y="249.912"/>
      </g>
     </g>
     <g id="text_2">
      <!-- −5 -->
      <g transform="translate(137.250339 264.510438)scale(0.1 -0.1)">
       <defs>
        <path d="M 10.796875 72.90625 
L 49.515625 72.90625 
L 49.515625 64.59375 
L 19.828125 64.59375 
L 19.828125 46.734375 
Q 21.96875 47.46875 24.109375 47.828125 
Q 26.265625 48.1875 28.421875 48.1875 
Q 40.625 48.1875 47.75 41.5 
Q 54.890625 34.8125 54.890625 23.390625 
Q 54.890625 11.625 47.5625 5.09375 
Q 40.234375 -1.421875 26.90625 -1.421875 
Q 22.3125 -1.421875 17.546875 -0.640625 
Q 12.796875 0.140625 7.71875 1.703125 
L 7.71875 11.625 
Q 12.109375 9.234375 16.796875 8.0625 
Q 21.484375 6.890625 26.703125 6.890625 
Q 35.15625 6.890625 40.078125 11.328125 
Q 45.015625 15.765625 45.015625 23.390625 
Q 45.015625 31 40.078125 35.4375 
Q 35.15625 39.890625 26.703125 39.890625 
Q 22.75 39.890625 18.8125 39.015625 
Q 14.890625 38.140625 10.796875 36.28125 
z
" id="DejaVuSans-53"/>
       </defs>
       <use xlink:href="#DejaVuSans-8722"/>
       <use x="83.789062" xlink:href="#DejaVuSans-53"/>
      </g>
     </g>
    </g>
    <g id="xtick_3">
     <g id="line2d_3">
      <g>
       <use style="stroke:#000000;stroke-width:0.8;" x="193.026719" xlink:href="#m13fade44ea" y="249.912"/>
      </g>
     </g>
     <g id="text_3">
      <!-- 0 -->
      <g transform="translate(189.845469 264.510438)scale(0.1 -0.1)">
       <use xlink:href="#DejaVuSans-48"/>
      </g>
     </g>
    </g>
    <g id="xtick_4">
     <g id="line2d_4">
      <g>
       <use style="stroke:#000000;stroke-width:0.8;" x="241.432006" xlink:href="#m13fade44ea" y="249.912"/>
      </g>
     </g>
     <g id="text_4">
      <!-- 5 -->
      <g transform="translate(238.250756 264.510438)scale(0.1 -0.1)">
       <use xlink:href="#DejaVuSans-53"/>
      </g>
     </g>
    </g>
    <g id="xtick_5">
     <g id="line2d_5">
      <g>
       <use style="stroke:#000000;stroke-width:0.8;" x="289.837292" xlink:href="#m13fade44ea" y="249.912"/>
      </g>
     </g>
     <g id="text_5">
      <!-- 10 -->
      <g transform="translate(283.474792 264.510438)scale(0.1 -0.1)">
       <use xlink:href="#DejaVuSans-49"/>
       <use x="63.623047" xlink:href="#DejaVuSans-48"/>
      </g>
     </g>
    </g>
    <g id="xtick_6">
     <g id="line2d_6">
      <g>
       <use style="stroke:#000000;stroke-width:0.8;" x="338.242579" xlink:href="#m13fade44ea" y="249.912"/>
      </g>
     </g>
     <g id="text_6">
      <!-- 15 -->
      <g transform="translate(331.880079 264.510438)scale(0.1 -0.1)">
       <use xlink:href="#DejaVuSans-49"/>
       <use x="63.623047" xlink:href="#DejaVuSans-53"/>
      </g>
     </g>
    </g>
    <g id="xtick_7">
     <g id="line2d_7">
      <g>
       <use style="stroke:#000000;stroke-width:0.8;" x="386.647865" xlink:href="#m13fade44ea" y="249.912"/>
      </g>
     </g>
     <g id="text_7">
      <!-- 20 -->
      <g transform="translate(380.285365 264.510438)scale(0.1 -0.1)">
       <defs>
        <path d="M 19.1875 8.296875 
L 53.609375 8.296875 
L 53.609375 0 
L 7.328125 0 
L 7.328125 8.296875 
Q 12.9375 14.109375 22.625 23.890625 
Q 32.328125 33.6875 34.8125 36.53125 
Q 39.546875 41.84375 41.421875 45.53125 
Q 43.3125 49.21875 43.3125 52.78125 
Q 43.3125 58.59375 39.234375 62.25 
Q 35.15625 65.921875 28.609375 65.921875 
Q 23.96875 65.921875 18.8125 64.3125 
Q 13.671875 62.703125 7.8125 59.421875 
L 7.8125 69.390625 
Q 13.765625 71.78125 18.9375 73 
Q 24.125 74.21875 28.421875 74.21875 
Q 39.75 74.21875 46.484375 68.546875 
Q 53.21875 62.890625 53.21875 53.421875 
Q 53.21875 48.921875 51.53125 44.890625 
Q 49.859375 40.875 45.40625 35.40625 
Q 44.1875 33.984375 37.640625 27.21875 
Q 31.109375 20.453125 19.1875 8.296875 
z
" id="DejaVuSans-50"/>
       </defs>
       <use xlink:href="#DejaVuSans-50"/>
       <use x="63.623047" xlink:href="#DejaVuSans-48"/>
      </g>
     </g>
    </g>
    <g id="xtick_8">
     <g id="line2d_8">
      <g>
       <use style="stroke:#000000;stroke-width:0.8;" x="435.053152" xlink:href="#m13fade44ea" y="249.912"/>
      </g>
     </g>
     <g id="text_8">
      <!-- 25 -->
      <g transform="translate(428.690652 264.510438)scale(0.1 -0.1)">
       <use xlink:href="#DejaVuSans-50"/>
       <use x="63.623047" xlink:href="#DejaVuSans-53"/>
      </g>
     </g>
    </g>
   </g>
   <g id="matplotlib.axis_2">
    <g id="ytick_1">
     <g id="line2d_9">
      <defs>
       <path d="M 0 0 
L -3.5 0 
" id="m7e9dd53002" style="stroke:#000000;stroke-width:0.8;"/>
      </defs>
      <g>
       <use style="stroke:#000000;stroke-width:0.8;" x="63" xlink:href="#m7e9dd53002" y="242.925529"/>
      </g>
     </g>
     <g id="text_9">
      <!-- −15 -->
      <g transform="translate(34.895313 246.724748)scale(0.1 -0.1)">
       <use xlink:href="#DejaVuSans-8722"/>
       <use x="83.789062" xlink:href="#DejaVuSans-49"/>
       <use x="147.412109" xlink:href="#DejaVuSans-53"/>
      </g>
     </g>
    </g>
    <g id="ytick_2">
     <g id="line2d_10">
      <g>
       <use style="stroke:#000000;stroke-width:0.8;" x="63" xlink:href="#m7e9dd53002" y="213.293444"/>
      </g>
     </g>
     <g id="text_10">
      <!-- −10 -->
      <g transform="translate(34.895313 217.092663)scale(0.1 -0.1)">
       <use xlink:href="#DejaVuSans-8722"/>
       <use x="83.789062" xlink:href="#DejaVuSans-49"/>
       <use x="147.412109" xlink:href="#DejaVuSans-48"/>
      </g>
     </g>
    </g>
    <g id="ytick_3">
     <g id="line2d_11">
      <g>
       <use style="stroke:#000000;stroke-width:0.8;" x="63" xlink:href="#m7e9dd53002" y="183.661358"/>
      </g>
     </g>
     <g id="text_11">
      <!-- −5 -->
      <g transform="translate(41.257812 187.460577)scale(0.1 -0.1)">
       <use xlink:href="#DejaVuSans-8722"/>
       <use x="83.789062" xlink:href="#DejaVuSans-53"/>
      </g>
     </g>
    </g>
    <g id="ytick_4">
     <g id="line2d_12">
      <g>
       <use style="stroke:#000000;stroke-width:0.8;" x="63" xlink:href="#m7e9dd53002" y="154.029273"/>
      </g>
     </g>
     <g id="text_12">
      <!-- 0 -->
      <g transform="translate(49.6375 157.828492)scale(0.1 -0.1)">
       <use xlink:href="#DejaVuSans-48"/>
      </g>
     </g>
    </g>
    <g id="ytick_5">
     <g id="line2d_13">
      <g>
       <use style="stroke:#000000;stroke-width:0.8;" x="63" xlink:href="#m7e9dd53002" y="124.397187"/>
      </g>
     </g>
     <g id="text_13">
      <!-- 5 -->
      <g transform="translate(49.6375 128.196406)scale(0.1 -0.1)">
       <use xlink:href="#DejaVuSans-53"/>
      </g>
     </g>
    </g>
    <g id="ytick_6">
     <g id="line2d_14">
      <g>
       <use style="stroke:#000000;stroke-width:0.8;" x="63" xlink:href="#m7e9dd53002" y="94.765102"/>
      </g>
     </g>
     <g id="text_14">
      <!-- 10 -->
      <g transform="translate(43.275 98.56432)scale(0.1 -0.1)">
       <use xlink:href="#DejaVuSans-49"/>
       <use x="63.623047" xlink:href="#DejaVuSans-48"/>
      </g>
     </g>
    </g>
    <g id="ytick_7">
     <g id="line2d_15">
      <g>
       <use style="stroke:#000000;stroke-width:0.8;" x="63" xlink:href="#m7e9dd53002" y="65.133016"/>
      </g>
     </g>
     <g id="text_15">
      <!-- 15 -->
      <g transform="translate(43.275 68.932235)scale(0.1 -0.1)">
       <use xlink:href="#DejaVuSans-49"/>
       <use x="63.623047" xlink:href="#DejaVuSans-53"/>
      </g>
     </g>
    </g>
    <g id="ytick_8">
     <g id="line2d_16">
      <g>
       <use style="stroke:#000000;stroke-width:0.8;" x="63" xlink:href="#m7e9dd53002" y="35.500931"/>
      </g>
     </g>
     <g id="text_16">
      <!-- 20 -->
      <g transform="translate(43.275 39.300149)scale(0.1 -0.1)">
       <use xlink:href="#DejaVuSans-50"/>
       <use x="63.623047" xlink:href="#DejaVuSans-48"/>
      </g>
     </g>
    </g>
   </g>
   <g id="patch_3">
    <path d="M 63 249.912 
L 63 33.696 
" style="fill:none;stroke:#000000;stroke-linecap:square;stroke-linejoin:miter;stroke-width:0.8;"/>
   </g>
   <g id="patch_4">
    <path d="M 453.6 249.912 
L 453.6 33.696 
" style="fill:none;stroke:#000000;stroke-linecap:square;stroke-linejoin:miter;stroke-width:0.8;"/>
   </g>
   <g id="patch_5">
    <path d="M 63 249.912 
L 453.6 249.912 
" style="fill:none;stroke:#000000;stroke-linecap:square;stroke-linejoin:miter;stroke-width:0.8;"/>
   </g>
   <g id="patch_6">
    <path d="M 63 33.696 
L 453.6 33.696 
" style="fill:none;stroke:#000000;stroke-linecap:square;stroke-linejoin:miter;stroke-width:0.8;"/>
   </g>
   <g id="text_17">
    <!-- UMAP projection of the phylogenetic dataset -->
    <g transform="translate(124.38375 27.696)scale(0.12 -0.12)">
     <defs>
      <path d="M 8.6875 72.90625 
L 18.609375 72.90625 
L 18.609375 28.609375 
Q 18.609375 16.890625 22.84375 11.734375 
Q 27.09375 6.59375 36.625 6.59375 
Q 46.09375 6.59375 50.34375 11.734375 
Q 54.59375 16.890625 54.59375 28.609375 
L 54.59375 72.90625 
L 64.5 72.90625 
L 64.5 27.390625 
Q 64.5 13.140625 57.4375 5.859375 
Q 50.390625 -1.421875 36.625 -1.421875 
Q 22.796875 -1.421875 15.734375 5.859375 
Q 8.6875 13.140625 8.6875 27.390625 
z
" id="DejaVuSans-85"/>
      <path d="M 9.8125 72.90625 
L 24.515625 72.90625 
L 43.109375 23.296875 
L 61.8125 72.90625 
L 76.515625 72.90625 
L 76.515625 0 
L 66.890625 0 
L 66.890625 64.015625 
L 48.09375 14.015625 
L 38.1875 14.015625 
L 19.390625 64.015625 
L 19.390625 0 
L 9.8125 0 
z
" id="DejaVuSans-77"/>
      <path d="M 34.1875 63.1875 
L 20.796875 26.90625 
L 47.609375 26.90625 
z
M 28.609375 72.90625 
L 39.796875 72.90625 
L 67.578125 0 
L 57.328125 0 
L 50.6875 18.703125 
L 17.828125 18.703125 
L 11.1875 0 
L 0.78125 0 
z
" id="DejaVuSans-65"/>
      <path d="M 19.671875 64.796875 
L 19.671875 37.40625 
L 32.078125 37.40625 
Q 38.96875 37.40625 42.71875 40.96875 
Q 46.484375 44.53125 46.484375 51.125 
Q 46.484375 57.671875 42.71875 61.234375 
Q 38.96875 64.796875 32.078125 64.796875 
z
M 9.8125 72.90625 
L 32.078125 72.90625 
Q 44.34375 72.90625 50.609375 67.359375 
Q 56.890625 61.8125 56.890625 51.125 
Q 56.890625 40.328125 50.609375 34.8125 
Q 44.34375 29.296875 32.078125 29.296875 
L 19.671875 29.296875 
L 19.671875 0 
L 9.8125 0 
z
" id="DejaVuSans-80"/>
      <path id="DejaVuSans-32"/>
      <path d="M 18.109375 8.203125 
L 18.109375 -20.796875 
L 9.078125 -20.796875 
L 9.078125 54.6875 
L 18.109375 54.6875 
L 18.109375 46.390625 
Q 20.953125 51.265625 25.265625 53.625 
Q 29.59375 56 35.59375 56 
Q 45.5625 56 51.78125 48.09375 
Q 58.015625 40.1875 58.015625 27.296875 
Q 58.015625 14.40625 51.78125 6.484375 
Q 45.5625 -1.421875 35.59375 -1.421875 
Q 29.59375 -1.421875 25.265625 0.953125 
Q 20.953125 3.328125 18.109375 8.203125 
z
M 48.6875 27.296875 
Q 48.6875 37.203125 44.609375 42.84375 
Q 40.53125 48.484375 33.40625 48.484375 
Q 26.265625 48.484375 22.1875 42.84375 
Q 18.109375 37.203125 18.109375 27.296875 
Q 18.109375 17.390625 22.1875 11.75 
Q 26.265625 6.109375 33.40625 6.109375 
Q 40.53125 6.109375 44.609375 11.75 
Q 48.6875 17.390625 48.6875 27.296875 
z
" id="DejaVuSans-112"/>
      <path d="M 41.109375 46.296875 
Q 39.59375 47.171875 37.8125 47.578125 
Q 36.03125 48 33.890625 48 
Q 26.265625 48 22.1875 43.046875 
Q 18.109375 38.09375 18.109375 28.8125 
L 18.109375 0 
L 9.078125 0 
L 9.078125 54.6875 
L 18.109375 54.6875 
L 18.109375 46.1875 
Q 20.953125 51.171875 25.484375 53.578125 
Q 30.03125 56 36.53125 56 
Q 37.453125 56 38.578125 55.875 
Q 39.703125 55.765625 41.0625 55.515625 
z
" id="DejaVuSans-114"/>
      <path d="M 30.609375 48.390625 
Q 23.390625 48.390625 19.1875 42.75 
Q 14.984375 37.109375 14.984375 27.296875 
Q 14.984375 17.484375 19.15625 11.84375 
Q 23.34375 6.203125 30.609375 6.203125 
Q 37.796875 6.203125 41.984375 11.859375 
Q 46.1875 17.53125 46.1875 27.296875 
Q 46.1875 37.015625 41.984375 42.703125 
Q 37.796875 48.390625 30.609375 48.390625 
z
M 30.609375 56 
Q 42.328125 56 49.015625 48.375 
Q 55.71875 40.765625 55.71875 27.296875 
Q 55.71875 13.875 49.015625 6.21875 
Q 42.328125 -1.421875 30.609375 -1.421875 
Q 18.84375 -1.421875 12.171875 6.21875 
Q 5.515625 13.875 5.515625 27.296875 
Q 5.515625 40.765625 12.171875 48.375 
Q 18.84375 56 30.609375 56 
z
" id="DejaVuSans-111"/>
      <path d="M 9.421875 54.6875 
L 18.40625 54.6875 
L 18.40625 -0.984375 
Q 18.40625 -11.421875 14.421875 -16.109375 
Q 10.453125 -20.796875 1.609375 -20.796875 
L -1.8125 -20.796875 
L -1.8125 -13.1875 
L 0.59375 -13.1875 
Q 5.71875 -13.1875 7.5625 -10.8125 
Q 9.421875 -8.453125 9.421875 -0.984375 
z
M 9.421875 75.984375 
L 18.40625 75.984375 
L 18.40625 64.59375 
L 9.421875 64.59375 
z
" id="DejaVuSans-106"/>
      <path d="M 56.203125 29.59375 
L 56.203125 25.203125 
L 14.890625 25.203125 
Q 15.484375 15.921875 20.484375 11.0625 
Q 25.484375 6.203125 34.421875 6.203125 
Q 39.59375 6.203125 44.453125 7.46875 
Q 49.3125 8.734375 54.109375 11.28125 
L 54.109375 2.78125 
Q 49.265625 0.734375 44.1875 -0.34375 
Q 39.109375 -1.421875 33.890625 -1.421875 
Q 20.796875 -1.421875 13.15625 6.1875 
Q 5.515625 13.8125 5.515625 26.8125 
Q 5.515625 40.234375 12.765625 48.109375 
Q 20.015625 56 32.328125 56 
Q 43.359375 56 49.78125 48.890625 
Q 56.203125 41.796875 56.203125 29.59375 
z
M 47.21875 32.234375 
Q 47.125 39.59375 43.09375 43.984375 
Q 39.0625 48.390625 32.421875 48.390625 
Q 24.90625 48.390625 20.390625 44.140625 
Q 15.875 39.890625 15.1875 32.171875 
z
" id="DejaVuSans-101"/>
      <path d="M 48.78125 52.59375 
L 48.78125 44.1875 
Q 44.96875 46.296875 41.140625 47.34375 
Q 37.3125 48.390625 33.40625 48.390625 
Q 24.65625 48.390625 19.8125 42.84375 
Q 14.984375 37.3125 14.984375 27.296875 
Q 14.984375 17.28125 19.8125 11.734375 
Q 24.65625 6.203125 33.40625 6.203125 
Q 37.3125 6.203125 41.140625 7.25 
Q 44.96875 8.296875 48.78125 10.40625 
L 48.78125 2.09375 
Q 45.015625 0.34375 40.984375 -0.53125 
Q 36.96875 -1.421875 32.421875 -1.421875 
Q 20.0625 -1.421875 12.78125 6.34375 
Q 5.515625 14.109375 5.515625 27.296875 
Q 5.515625 40.671875 12.859375 48.328125 
Q 20.21875 56 33.015625 56 
Q 37.15625 56 41.109375 55.140625 
Q 45.0625 54.296875 48.78125 52.59375 
z
" id="DejaVuSans-99"/>
      <path d="M 18.3125 70.21875 
L 18.3125 54.6875 
L 36.8125 54.6875 
L 36.8125 47.703125 
L 18.3125 47.703125 
L 18.3125 18.015625 
Q 18.3125 11.328125 20.140625 9.421875 
Q 21.96875 7.515625 27.59375 7.515625 
L 36.8125 7.515625 
L 36.8125 0 
L 27.59375 0 
Q 17.1875 0 13.234375 3.875 
Q 9.28125 7.765625 9.28125 18.015625 
L 9.28125 47.703125 
L 2.6875 47.703125 
L 2.6875 54.6875 
L 9.28125 54.6875 
L 9.28125 70.21875 
z
" id="DejaVuSans-116"/>
      <path d="M 9.421875 54.6875 
L 18.40625 54.6875 
L 18.40625 0 
L 9.421875 0 
z
M 9.421875 75.984375 
L 18.40625 75.984375 
L 18.40625 64.59375 
L 9.421875 64.59375 
z
" id="DejaVuSans-105"/>
      <path d="M 54.890625 33.015625 
L 54.890625 0 
L 45.90625 0 
L 45.90625 32.71875 
Q 45.90625 40.484375 42.875 44.328125 
Q 39.84375 48.1875 33.796875 48.1875 
Q 26.515625 48.1875 22.3125 43.546875 
Q 18.109375 38.921875 18.109375 30.90625 
L 18.109375 0 
L 9.078125 0 
L 9.078125 54.6875 
L 18.109375 54.6875 
L 18.109375 46.1875 
Q 21.34375 51.125 25.703125 53.5625 
Q 30.078125 56 35.796875 56 
Q 45.21875 56 50.046875 50.171875 
Q 54.890625 44.34375 54.890625 33.015625 
z
" id="DejaVuSans-110"/>
      <path d="M 37.109375 75.984375 
L 37.109375 68.5 
L 28.515625 68.5 
Q 23.6875 68.5 21.796875 66.546875 
Q 19.921875 64.59375 19.921875 59.515625 
L 19.921875 54.6875 
L 34.71875 54.6875 
L 34.71875 47.703125 
L 19.921875 47.703125 
L 19.921875 0 
L 10.890625 0 
L 10.890625 47.703125 
L 2.296875 47.703125 
L 2.296875 54.6875 
L 10.890625 54.6875 
L 10.890625 58.5 
Q 10.890625 67.625 15.140625 71.796875 
Q 19.390625 75.984375 28.609375 75.984375 
z
" id="DejaVuSans-102"/>
      <path d="M 54.890625 33.015625 
L 54.890625 0 
L 45.90625 0 
L 45.90625 32.71875 
Q 45.90625 40.484375 42.875 44.328125 
Q 39.84375 48.1875 33.796875 48.1875 
Q 26.515625 48.1875 22.3125 43.546875 
Q 18.109375 38.921875 18.109375 30.90625 
L 18.109375 0 
L 9.078125 0 
L 9.078125 75.984375 
L 18.109375 75.984375 
L 18.109375 46.1875 
Q 21.34375 51.125 25.703125 53.5625 
Q 30.078125 56 35.796875 56 
Q 45.21875 56 50.046875 50.171875 
Q 54.890625 44.34375 54.890625 33.015625 
z
" id="DejaVuSans-104"/>
      <path d="M 32.171875 -5.078125 
Q 28.375 -14.84375 24.75 -17.8125 
Q 21.140625 -20.796875 15.09375 -20.796875 
L 7.90625 -20.796875 
L 7.90625 -13.28125 
L 13.1875 -13.28125 
Q 16.890625 -13.28125 18.9375 -11.515625 
Q 21 -9.765625 23.484375 -3.21875 
L 25.09375 0.875 
L 2.984375 54.6875 
L 12.5 54.6875 
L 29.59375 11.921875 
L 46.6875 54.6875 
L 56.203125 54.6875 
z
" id="DejaVuSans-121"/>
      <path d="M 9.421875 75.984375 
L 18.40625 75.984375 
L 18.40625 0 
L 9.421875 0 
z
" id="DejaVuSans-108"/>
      <path d="M 45.40625 27.984375 
Q 45.40625 37.75 41.375 43.109375 
Q 37.359375 48.484375 30.078125 48.484375 
Q 22.859375 48.484375 18.828125 43.109375 
Q 14.796875 37.75 14.796875 27.984375 
Q 14.796875 18.265625 18.828125 12.890625 
Q 22.859375 7.515625 30.078125 7.515625 
Q 37.359375 7.515625 41.375 12.890625 
Q 45.40625 18.265625 45.40625 27.984375 
z
M 54.390625 6.78125 
Q 54.390625 -7.171875 48.1875 -13.984375 
Q 42 -20.796875 29.203125 -20.796875 
Q 24.46875 -20.796875 20.265625 -20.09375 
Q 16.0625 -19.390625 12.109375 -17.921875 
L 12.109375 -9.1875 
Q 16.0625 -11.328125 19.921875 -12.34375 
Q 23.78125 -13.375 27.78125 -13.375 
Q 36.625 -13.375 41.015625 -8.765625 
Q 45.40625 -4.15625 45.40625 5.171875 
L 45.40625 9.625 
Q 42.625 4.78125 38.28125 2.390625 
Q 33.9375 0 27.875 0 
Q 17.828125 0 11.671875 7.65625 
Q 5.515625 15.328125 5.515625 27.984375 
Q 5.515625 40.671875 11.671875 48.328125 
Q 17.828125 56 27.875 56 
Q 33.9375 56 38.28125 53.609375 
Q 42.625 51.21875 45.40625 46.390625 
L 45.40625 54.6875 
L 54.390625 54.6875 
z
" id="DejaVuSans-103"/>
      <path d="M 45.40625 46.390625 
L 45.40625 75.984375 
L 54.390625 75.984375 
L 54.390625 0 
L 45.40625 0 
L 45.40625 8.203125 
Q 42.578125 3.328125 38.25 0.953125 
Q 33.9375 -1.421875 27.875 -1.421875 
Q 17.96875 -1.421875 11.734375 6.484375 
Q 5.515625 14.40625 5.515625 27.296875 
Q 5.515625 40.1875 11.734375 48.09375 
Q 17.96875 56 27.875 56 
Q 33.9375 56 38.25 53.625 
Q 42.578125 51.265625 45.40625 46.390625 
z
M 14.796875 27.296875 
Q 14.796875 17.390625 18.875 11.75 
Q 22.953125 6.109375 30.078125 6.109375 
Q 37.203125 6.109375 41.296875 11.75 
Q 45.40625 17.390625 45.40625 27.296875 
Q 45.40625 37.203125 41.296875 42.84375 
Q 37.203125 48.484375 30.078125 48.484375 
Q 22.953125 48.484375 18.875 42.84375 
Q 14.796875 37.203125 14.796875 27.296875 
z
" id="DejaVuSans-100"/>
      <path d="M 34.28125 27.484375 
Q 23.390625 27.484375 19.1875 25 
Q 14.984375 22.515625 14.984375 16.5 
Q 14.984375 11.71875 18.140625 8.90625 
Q 21.296875 6.109375 26.703125 6.109375 
Q 34.1875 6.109375 38.703125 11.40625 
Q 43.21875 16.703125 43.21875 25.484375 
L 43.21875 27.484375 
z
M 52.203125 31.203125 
L 52.203125 0 
L 43.21875 0 
L 43.21875 8.296875 
Q 40.140625 3.328125 35.546875 0.953125 
Q 30.953125 -1.421875 24.3125 -1.421875 
Q 15.921875 -1.421875 10.953125 3.296875 
Q 6 8.015625 6 15.921875 
Q 6 25.140625 12.171875 29.828125 
Q 18.359375 34.515625 30.609375 34.515625 
L 43.21875 34.515625 
L 43.21875 35.40625 
Q 43.21875 41.609375 39.140625 45 
Q 35.0625 48.390625 27.6875 48.390625 
Q 23 48.390625 18.546875 47.265625 
Q 14.109375 46.140625 10.015625 43.890625 
L 10.015625 52.203125 
Q 14.9375 54.109375 19.578125 55.046875 
Q 24.21875 56 28.609375 56 
Q 40.484375 56 46.34375 49.84375 
Q 52.203125 43.703125 52.203125 31.203125 
z
" id="DejaVuSans-97"/>
      <path d="M 44.28125 53.078125 
L 44.28125 44.578125 
Q 40.484375 46.53125 36.375 47.5 
Q 32.28125 48.484375 27.875 48.484375 
Q 21.1875 48.484375 17.84375 46.4375 
Q 14.5 44.390625 14.5 40.28125 
Q 14.5 37.15625 16.890625 35.375 
Q 19.28125 33.59375 26.515625 31.984375 
L 29.59375 31.296875 
Q 39.15625 29.25 43.1875 25.515625 
Q 47.21875 21.78125 47.21875 15.09375 
Q 47.21875 7.46875 41.1875 3.015625 
Q 35.15625 -1.421875 24.609375 -1.421875 
Q 20.21875 -1.421875 15.453125 -0.5625 
Q 10.6875 0.296875 5.421875 2 
L 5.421875 11.28125 
Q 10.40625 8.6875 15.234375 7.390625 
Q 20.0625 6.109375 24.8125 6.109375 
Q 31.15625 6.109375 34.5625 8.28125 
Q 37.984375 10.453125 37.984375 14.40625 
Q 37.984375 18.0625 35.515625 20.015625 
Q 33.0625 21.96875 24.703125 23.78125 
L 21.578125 24.515625 
Q 13.234375 26.265625 9.515625 29.90625 
Q 5.8125 33.546875 5.8125 39.890625 
Q 5.8125 47.609375 11.28125 51.796875 
Q 16.75 56 26.8125 56 
Q 31.78125 56 36.171875 55.265625 
Q 40.578125 54.546875 44.28125 53.078125 
z
" id="DejaVuSans-115"/>
     </defs>
     <use xlink:href="#DejaVuSans-85"/>
     <use x="73.193359" xlink:href="#DejaVuSans-77"/>
     <use x="159.472656" xlink:href="#DejaVuSans-65"/>
     <use x="227.880859" xlink:href="#DejaVuSans-80"/>
     <use x="288.183594" xlink:href="#DejaVuSans-32"/>
     <use x="319.970703" xlink:href="#DejaVuSans-112"/>
     <use x="383.447266" xlink:href="#DejaVuSans-114"/>
     <use x="422.310547" xlink:href="#DejaVuSans-111"/>
     <use x="483.492188" xlink:href="#DejaVuSans-106"/>
     <use x="511.275391" xlink:href="#DejaVuSans-101"/>
     <use x="572.798828" xlink:href="#DejaVuSans-99"/>
     <use x="627.779297" xlink:href="#DejaVuSans-116"/>
     <use x="666.988281" xlink:href="#DejaVuSans-105"/>
     <use x="694.771484" xlink:href="#DejaVuSans-111"/>
     <use x="755.953125" xlink:href="#DejaVuSans-110"/>
     <use x="819.332031" xlink:href="#DejaVuSans-32"/>
     <use x="851.119141" xlink:href="#DejaVuSans-111"/>
     <use x="912.300781" xlink:href="#DejaVuSans-102"/>
     <use x="947.505859" xlink:href="#DejaVuSans-32"/>
     <use x="979.292969" xlink:href="#DejaVuSans-116"/>
     <use x="1018.501953" xlink:href="#DejaVuSans-104"/>
     <use x="1081.880859" xlink:href="#DejaVuSans-101"/>
     <use x="1143.404297" xlink:href="#DejaVuSans-32"/>
     <use x="1175.191406" xlink:href="#DejaVuSans-112"/>
     <use x="1238.667969" xlink:href="#DejaVuSans-104"/>
     <use x="1302.046875" xlink:href="#DejaVuSans-121"/>
     <use x="1361.226562" xlink:href="#DejaVuSans-108"/>
     <use x="1389.009766" xlink:href="#DejaVuSans-111"/>
     <use x="1450.191406" xlink:href="#DejaVuSans-103"/>
     <use x="1513.667969" xlink:href="#DejaVuSans-101"/>
     <use x="1575.191406" xlink:href="#DejaVuSans-110"/>
     <use x="1638.570312" xlink:href="#DejaVuSans-101"/>
     <use x="1700.09375" xlink:href="#DejaVuSans-116"/>
     <use x="1739.302734" xlink:href="#DejaVuSans-105"/>
     <use x="1767.085938" xlink:href="#DejaVuSans-99"/>
     <use x="1822.066406" xlink:href="#DejaVuSans-32"/>
     <use x="1853.853516" xlink:href="#DejaVuSans-100"/>
     <use x="1917.330078" xlink:href="#DejaVuSans-97"/>
     <use x="1978.609375" xlink:href="#DejaVuSans-116"/>
     <use x="2017.818359" xlink:href="#DejaVuSans-97"/>
     <use x="2079.097656" xlink:href="#DejaVuSans-115"/>
     <use x="2131.197266" xlink:href="#DejaVuSans-101"/>
     <use x="2192.720703" xlink:href="#DejaVuSans-116"/>
    </g>
   </g>
  </g>
 </g>
 <defs>
  <clipPath id="pa3cf05885a">
   <rect height="216.216" width="390.6" x="63" y="33.696"/>
  </clipPath>
 </defs>
</svg>
