<?xml version="1.0" encoding="utf-8" standalone="no"?>
<!DOCTYPE svg PUBLIC "-//W3C//DTD SVG 1.1//EN"
  "http://www.w3.org/Graphics/SVG/1.1/DTD/svg11.dtd">
<!-- Created with matplotlib (https://matplotlib.org/) -->
<svg height="648pt" version="1.1" viewBox="0 0 504 648" width="504pt" xmlns="http://www.w3.org/2000/svg" xmlns:xlink="http://www.w3.org/1999/xlink">
 <metadata>
  <rdf:RDF xmlns:cc="http://creativecommons.org/ns#" xmlns:dc="http://purl.org/dc/elements/1.1/" xmlns:rdf="http://www.w3.org/1999/02/22-rdf-syntax-ns#">
   <cc:Work>
    <dc:type rdf:resource="http://purl.org/dc/dcmitype/StillImage"/>
    <dc:date>2023-06-02T11:41:29.743957</dc:date>
    <dc:format>image/svg+xml</dc:format>
    <dc:creator>
     <cc:Agent>
      <dc:title>Matplotlib v3.3.4, https://matplotlib.org/</dc:title>
     </cc:Agent>
    </dc:creator>
   </cc:Work>
  </rdf:RDF>
 </metadata>
 <defs>
  <style type="text/css">*{stroke-linecap:butt;stroke-linejoin:round;}</style>
 </defs>
 <g id="figure_1">
  <g id="patch_1">
   <path d="M 0 648 
L 504 648 
L 504 0 
L 0 0 
z
" style="fill:#ffffff;"/>
  </g>
  <g id="axes_1">
   <g id="patch_2">
    <path d="M 63 576.72 
L 453.6 576.72 
L 453.6 77.76 
L 63 77.76 
z
" style="fill:#ffffff;"/>
   </g>
   <g id="PathCollection_1">
    <path clip-path="url(#p760c49bb83)" d="M 261.371988 308.091619 
C 263.247258 308.091619 265.045973 307.346567 266.371988 306.020551 
C 267.698004 304.694536 268.443056 302.895821 268.443056 301.020551 
C 268.443056 299.145282 267.698004 297.346567 266.371988 296.020551 
C 265.045973 294.694536 263.247258 293.949484 261.371988 293.949484 
C 259.496719 293.949484 257.698004 294.694536 256.371988 296.020551 
C 255.045973 297.346567 254.300921 299.145282 254.300921 301.020551 
C 254.300921 302.895821 255.045973 304.694536 256.371988 306.020551 
C 257.698004 307.346567 259.496719 308.091619 261.371988 308.091619 
z
" style="fill:#2f4f4f;stroke:#2f4f4f;"/>
    <path clip-path="url(#p760c49bb83)" d="M 255.560231 321.34894 
C 256.886246 321.34894 258.15813 320.822108 259.095765 319.884474 
C 260.033399 318.946839 260.560231 317.674955 260.560231 316.34894 
C 260.560231 315.022924 260.033399 313.75104 259.095765 312.813406 
C 258.15813 311.875771 256.886246 311.34894 255.560231 311.34894 
C 254.234215 311.34894 252.962331 311.875771 252.024697 312.813406 
C 251.087062 313.75104 250.560231 315.022924 250.560231 316.34894 
C 250.560231 317.674955 251.087062 318.946839 252.024697 319.884474 
C 252.962331 320.822108 254.234215 321.34894 255.560231 321.34894 
z
" style="fill:#556b2f;stroke:#556b2f;"/>
    <path clip-path="url(#p760c49bb83)" d="M 263.019883 272.697002 
C 264.345898 272.697002 265.617782 272.17017 266.555417 271.232535 
C 267.493051 270.294901 268.019883 269.023017 268.019883 267.697002 
C 268.019883 266.370986 267.493051 265.099102 266.555417 264.161468 
C 265.617782 263.223833 264.345898 262.697002 263.019883 262.697002 
C 261.693867 262.697002 260.421984 263.223833 259.484349 264.161468 
C 258.546714 265.099102 258.019883 266.370986 258.019883 267.697002 
C 258.019883 269.023017 258.546714 270.294901 259.484349 271.232535 
C 260.421984 272.17017 261.693867 272.697002 263.019883 272.697002 
z
" style="fill:#2e8b57;stroke:#2e8b57;"/>
    <path clip-path="url(#p760c49bb83)" d="M 267.882279 282.123253 
C 269.757548 282.123253 271.556264 281.378201 272.882279 280.052185 
C 274.208295 278.72617 274.953347 276.927454 274.953347 275.052185 
C 274.953347 273.176916 274.208295 271.378201 272.882279 270.052185 
C 271.556264 268.72617 269.757548 267.981117 267.882279 267.981117 
C 266.00701 267.981117 264.208295 268.72617 262.882279 270.052185 
C 261.556264 271.378201 260.811211 273.176916 260.811211 275.052185 
C 260.811211 276.927454 261.556264 278.72617 262.882279 280.052185 
C 264.208295 281.378201 266.00701 282.123253 267.882279 282.123253 
z
" style="fill:#228b22;stroke:#228b22;"/>
    <path clip-path="url(#p760c49bb83)" d="M 248.460328 262.734523 
C 250.335597 262.734523 252.134312 261.98947 253.460328 260.663455 
C 254.786343 259.337439 255.531396 257.538724 255.531396 255.663455 
C 255.531396 253.788186 254.786343 251.98947 253.460328 250.663455 
C 252.134312 249.337439 250.335597 248.592387 248.460328 248.592387 
C 246.585059 248.592387 244.786343 249.337439 243.460328 250.663455 
C 242.134312 251.98947 241.38926 253.788186 241.38926 255.663455 
C 241.38926 257.538724 242.134312 259.337439 243.460328 260.663455 
C 244.786343 261.98947 246.585059 262.734523 248.460328 262.734523 
z
" style="fill:#8b0000;stroke:#8b0000;"/>
    <path clip-path="url(#p760c49bb83)" d="M 275.178847 245.257225 
C 276.802878 245.257225 278.360611 244.611991 279.508974 243.463627 
C 280.657337 242.315264 281.302571 240.757531 281.302571 239.1335 
C 281.302571 237.50947 280.657337 235.951736 279.508974 234.803373 
C 278.360611 233.65501 276.802878 233.009776 275.178847 233.009776 
C 273.554816 233.009776 271.997083 233.65501 270.84872 234.803373 
C 269.700357 235.951736 269.055123 237.50947 269.055123 239.1335 
C 269.055123 240.757531 269.700357 242.315264 270.84872 243.463627 
C 271.997083 244.611991 273.554816 245.257225 275.178847 245.257225 
z
" style="fill:#808000;stroke:#808000;"/>
    <path clip-path="url(#p760c49bb83)" d="M 245.870254 298.450165 
C 247.494285 298.450165 249.052018 297.804931 250.200381 296.656567 
C 251.348744 295.508204 251.993978 293.950471 251.993978 292.32644 
C 251.993978 290.70241 251.348744 289.144677 250.200381 287.996313 
C 249.052018 286.84795 247.494285 286.202716 245.870254 286.202716 
C 244.246223 286.202716 242.68849 286.84795 241.540127 287.996313 
C 240.391764 289.144677 239.74653 290.70241 239.74653 292.32644 
C 239.74653 293.950471 240.391764 295.508204 241.540127 296.656567 
C 242.68849 297.804931 244.246223 298.450165 245.870254 298.450165 
z
" style="fill:#008080;stroke:#008080;"/>
    <path clip-path="url(#p760c49bb83)" d="M 264.309747 256.574399 
C 266.185017 256.574399 267.983732 255.829347 269.309747 254.503331 
C 270.635763 253.177316 271.380815 251.3786 271.380815 249.503331 
C 271.380815 247.628062 270.635763 245.829347 269.309747 244.503331 
C 267.983732 243.177316 266.185017 242.432264 264.309747 242.432264 
C 262.434478 242.432264 260.635763 243.177316 259.309747 244.503331 
C 257.983732 245.829347 257.23868 247.628062 257.23868 249.503331 
C 257.23868 251.3786 257.983732 253.177316 259.309747 254.503331 
C 260.635763 255.829347 262.434478 256.574399 264.309747 256.574399 
z
" style="fill:#b8860b;stroke:#b8860b;"/>
    <path clip-path="url(#p760c49bb83)" d="M 259.787706 283.171266 
C 261.411736 283.171266 262.96947 282.526032 264.117833 281.377669 
C 265.266196 280.229306 265.91143 278.671573 265.91143 277.047542 
C 265.91143 275.423511 265.266196 273.865778 264.117833 272.717415 
C 262.96947 271.569052 261.411736 270.923818 259.787706 270.923818 
C 258.163675 270.923818 256.605942 271.569052 255.457579 272.717415 
C 254.309216 273.865778 253.663981 275.423511 253.663981 277.047542 
C 253.663981 278.671573 254.309216 280.229306 255.457579 281.377669 
C 256.605942 282.526032 258.163675 283.171266 259.787706 283.171266 
z
" style="fill:#4682b4;stroke:#4682b4;"/>
    <path clip-path="url(#p760c49bb83)" d="M 250.643938 290.216719 
C 252.740552 290.216719 254.751577 289.383726 256.234108 287.901195 
C 257.716638 286.418665 258.549632 284.40764 258.549632 282.311025 
C 258.549632 280.214411 257.716638 278.203386 256.234108 276.720855 
C 254.751577 275.238325 252.740552 274.405331 250.643938 274.405331 
C 248.547323 274.405331 246.536298 275.238325 245.053768 276.720855 
C 243.571237 278.203386 242.738244 280.214411 242.738244 282.311025 
C 242.738244 284.40764 243.571237 286.418665 245.053768 287.901195 
C 246.536298 289.383726 248.547323 290.216719 250.643938 290.216719 
z
" style="fill:#d2691e;stroke:#d2691e;"/>
    <path clip-path="url(#p760c49bb83)" d="M 260.746936 265.608551 
C 262.843551 265.608551 264.854576 264.775557 266.337106 263.293027 
C 267.819637 261.810497 268.65263 259.799472 268.65263 257.702857 
C 268.65263 255.606242 267.819637 253.595218 266.337106 252.112687 
C 264.854576 250.630157 262.843551 249.797163 260.746936 249.797163 
C 258.650322 249.797163 256.639297 250.630157 255.156766 252.112687 
C 253.674236 253.595218 252.841242 255.606242 252.841242 257.702857 
C 252.841242 259.799472 253.674236 261.810497 255.156766 263.293027 
C 256.639297 264.775557 258.650322 265.608551 260.746936 265.608551 
z
" style="fill:#32cd32;stroke:#32cd32;"/>
    <path clip-path="url(#p760c49bb83)" d="M 252.853122 443.104888 
C 254.179137 443.104888 255.451021 442.578057 256.388656 441.640422 
C 257.32629 440.702788 257.853122 439.430904 257.853122 438.104888 
C 257.853122 436.778873 257.32629 435.506989 256.388656 434.569354 
C 255.451021 433.63172 254.179137 433.104888 252.853122 433.104888 
C 251.527106 433.104888 250.255223 433.63172 249.317588 434.569354 
C 248.379953 435.506989 247.853122 436.778873 247.853122 438.104888 
C 247.853122 439.430904 248.379953 440.702788 249.317588 441.640422 
C 250.255223 442.578057 251.527106 443.104888 252.853122 443.104888 
z
" style="fill:#8fbc8f;stroke:#8fbc8f;"/>
    <path clip-path="url(#p760c49bb83)" d="M 245.879674 263.187848 
C 247.754943 263.187848 249.553658 262.442796 250.879674 261.11678 
C 252.205689 259.790765 252.950741 257.992049 252.950741 256.11678 
C 252.950741 254.241511 252.205689 252.442796 250.879674 251.11678 
C 249.553658 249.790765 247.754943 249.045712 245.879674 249.045712 
C 244.004404 249.045712 242.205689 249.790765 240.879674 251.11678 
C 239.553658 252.442796 238.808606 254.241511 238.808606 256.11678 
C 238.808606 257.992049 239.553658 259.790765 240.879674 261.11678 
C 242.205689 262.442796 244.004404 263.187848 245.879674 263.187848 
z
" style="fill:#ff4500;stroke:#ff4500;"/>
    <path clip-path="url(#p760c49bb83)" d="M 246.697147 215.859459 
C 248.321178 215.859459 249.878911 215.214225 251.027274 214.065862 
C 252.175637 212.917499 252.820871 211.359766 252.820871 209.735735 
C 252.820871 208.111704 252.175637 206.553971 251.027274 205.405608 
C 249.878911 204.257245 248.321178 203.612011 246.697147 203.612011 
C 245.073116 203.612011 243.515383 204.257245 242.36702 205.405608 
C 241.218657 206.553971 240.573423 208.111704 240.573423 209.735735 
C 240.573423 211.359766 241.218657 212.917499 242.36702 214.065862 
C 243.515383 215.214225 245.073116 215.859459 246.697147 215.859459 
z
" style="fill:#ffd700;stroke:#ffd700;"/>
    <path clip-path="url(#p760c49bb83)" d="M 272.474101 297.434982 
C 273.800117 297.434982 275.072001 296.90815 276.009635 295.970516 
C 276.94727 295.032881 277.474101 293.760997 277.474101 292.434982 
C 277.474101 291.108966 276.94727 289.837082 276.009635 288.899448 
C 275.072001 287.961813 273.800117 287.434982 272.474101 287.434982 
C 271.148086 287.434982 269.876202 287.961813 268.938567 288.899448 
C 268.000933 289.837082 267.474101 291.108966 267.474101 292.434982 
C 267.474101 293.760997 268.000933 295.032881 268.938567 295.970516 
C 269.876202 296.90815 271.148086 297.434982 272.474101 297.434982 
z
" style="fill:#0000cd;stroke:#0000cd;"/>
    <path clip-path="url(#p760c49bb83)" d="M 274.454229 283.191137 
C 276.078259 283.191137 277.635993 282.545903 278.784356 281.397539 
C 279.932719 280.249176 280.577953 278.691443 280.577953 277.067412 
C 280.577953 275.443382 279.932719 273.885649 278.784356 272.737285 
C 277.635993 271.588922 276.078259 270.943688 274.454229 270.943688 
C 272.830198 270.943688 271.272465 271.588922 270.124102 272.737285 
C 268.975739 273.885649 268.330504 275.443382 268.330504 277.067412 
C 268.330504 278.691443 268.975739 280.249176 270.124102 281.397539 
C 271.272465 282.545903 272.830198 283.191137 274.454229 283.191137 
z
" style="fill:#deb887;stroke:#deb887;"/>
    <path clip-path="url(#p760c49bb83)" d="M 255.678631 260.406578 
C 257.004647 260.406578 258.27653 259.879747 259.214165 258.942112 
C 260.1518 258.004477 260.678631 256.732594 260.678631 255.406578 
C 260.678631 254.080563 260.1518 252.808679 259.214165 251.871044 
C 258.27653 250.93341 257.004647 250.406578 255.678631 250.406578 
C 254.352616 250.406578 253.080732 250.93341 252.143097 251.871044 
C 251.205463 252.808679 250.678631 254.080563 250.678631 255.406578 
C 250.678631 256.732594 251.205463 258.004477 252.143097 258.942112 
C 253.080732 259.879747 254.352616 260.406578 255.678631 260.406578 
z
" style="fill:#00ff00;stroke:#00ff00;"/>
    <path clip-path="url(#p760c49bb83)" d="M 257.973775 321.497554 
C 259.29979 321.497554 260.571674 320.970722 261.509309 320.033088 
C 262.446943 319.095453 262.973775 317.82357 262.973775 316.497554 
C 262.973775 315.171539 262.446943 313.899655 261.509309 312.96202 
C 260.571674 312.024386 259.29979 311.497554 257.973775 311.497554 
C 256.647759 311.497554 255.375876 312.024386 254.438241 312.96202 
C 253.500607 313.899655 252.973775 315.171539 252.973775 316.497554 
C 252.973775 317.82357 253.500607 319.095453 254.438241 320.033088 
C 255.375876 320.970722 256.647759 321.497554 257.973775 321.497554 
z
" style="fill:#00fa9a;stroke:#00fa9a;"/>
    <path clip-path="url(#p760c49bb83)" d="M 286.520803 255.102015 
C 287.846818 255.102015 289.118702 254.575183 290.056337 253.637549 
C 290.993971 252.699914 291.520803 251.428031 291.520803 250.102015 
C 291.520803 248.776 290.993971 247.504116 290.056337 246.566481 
C 289.118702 245.628847 287.846818 245.102015 286.520803 245.102015 
C 285.194787 245.102015 283.922904 245.628847 282.985269 246.566481 
C 282.047634 247.504116 281.520803 248.776 281.520803 250.102015 
C 281.520803 251.428031 282.047634 252.699914 282.985269 253.637549 
C 283.922904 254.575183 285.194787 255.102015 286.520803 255.102015 
z
" style="fill:#dc143c;stroke:#dc143c;"/>
    <path clip-path="url(#p760c49bb83)" d="M 251.328706 360.83537 
C 252.654722 360.83537 253.926606 360.308539 254.86424 359.370904 
C 255.801875 358.43327 256.328706 357.161386 256.328706 355.83537 
C 256.328706 354.509355 255.801875 353.237471 254.86424 352.299836 
C 253.926606 351.362202 252.654722 350.83537 251.328706 350.83537 
C 250.002691 350.83537 248.730807 351.362202 247.793172 352.299836 
C 246.855538 353.237471 246.328706 354.509355 246.328706 355.83537 
C 246.328706 357.161386 246.855538 358.43327 247.793172 359.370904 
C 248.730807 360.308539 250.002691 360.83537 251.328706 360.83537 
z
" style="fill:#a020f0;stroke:#a020f0;"/>
    <path clip-path="url(#p760c49bb83)" d="M 254.035408 260.534706 
C 255.659438 260.534706 257.217171 259.889471 258.365535 258.741108 
C 259.513898 257.592745 260.159132 256.035012 260.159132 254.410981 
C 260.159132 252.786951 259.513898 251.229217 258.365535 250.080854 
C 257.217171 248.932491 255.659438 248.287257 254.035408 248.287257 
C 252.411377 248.287257 250.853644 248.932491 249.705281 250.080854 
C 248.556917 251.229217 247.911683 252.786951 247.911683 254.410981 
C 247.911683 256.035012 248.556917 257.592745 249.705281 258.741108 
C 250.853644 259.889471 252.411377 260.534706 254.035408 260.534706 
z
" style="fill:#da70d6;stroke:#da70d6;"/>
    <path clip-path="url(#p760c49bb83)" d="M 260.18216 244.950383 
C 261.508176 244.950383 262.78006 244.423551 263.717694 243.485917 
C 264.655329 242.548282 265.18216 241.276398 265.18216 239.950383 
C 265.18216 238.624367 264.655329 237.352484 263.717694 236.414849 
C 262.78006 235.477214 261.508176 234.950383 260.18216 234.950383 
C 258.856145 234.950383 257.584261 235.477214 256.646627 236.414849 
C 255.708992 237.352484 255.18216 238.624367 255.18216 239.950383 
C 255.18216 241.276398 255.708992 242.548282 256.646627 243.485917 
C 257.584261 244.423551 258.856145 244.950383 260.18216 244.950383 
z
" style="fill:#dda0dd;stroke:#dda0dd;"/>
    <path clip-path="url(#p760c49bb83)" d="M 222.830878 276.835074 
C 224.454909 276.835074 226.012642 276.189839 227.161005 275.041476 
C 228.309369 273.893113 228.954603 272.33538 228.954603 270.711349 
C 228.954603 269.087318 228.309369 267.529585 227.161005 266.381222 
C 226.012642 265.232859 224.454909 264.587625 222.830878 264.587625 
C 221.206848 264.587625 219.649114 265.232859 218.500751 266.381222 
C 217.352388 267.529585 216.707154 269.087318 216.707154 270.711349 
C 216.707154 272.33538 217.352388 273.893113 218.500751 275.041476 
C 219.649114 276.189839 221.206848 276.835074 222.830878 276.835074 
z
" style="fill:#7b68ee;stroke:#7b68ee;"/>
    <path clip-path="url(#p760c49bb83)" d="M 238.615364 251.355843 
C 240.711978 251.355843 242.723003 250.522849 244.205533 249.040319 
C 245.688064 247.557788 246.521058 245.546763 246.521058 243.450149 
C 246.521058 241.353534 245.688064 239.342509 244.205533 237.859979 
C 242.723003 236.377448 240.711978 235.544455 238.615364 235.544455 
C 236.518749 235.544455 234.507724 236.377448 233.025194 237.859979 
C 231.542663 239.342509 230.709669 241.353534 230.709669 243.450149 
C 230.709669 245.546763 231.542663 247.557788 233.025194 249.040319 
C 234.507724 250.522849 236.518749 251.355843 238.615364 251.355843 
z
" style="fill:#7fffd4;stroke:#7fffd4;"/>
    <path clip-path="url(#p760c49bb83)" d="M 261.368484 240.302589 
C 262.694499 240.302589 263.966383 239.775757 264.904018 238.838123 
C 265.841652 237.900488 266.368484 236.628604 266.368484 235.302589 
C 266.368484 233.976573 265.841652 232.70469 264.904018 231.767055 
C 263.966383 230.82942 262.694499 230.302589 261.368484 230.302589 
C 260.042468 230.302589 258.770584 230.82942 257.83295 231.767055 
C 256.895315 232.70469 256.368484 233.976573 256.368484 235.302589 
C 256.368484 236.628604 256.895315 237.900488 257.83295 238.838123 
C 258.770584 239.775757 260.042468 240.302589 261.368484 240.302589 
z
" style="fill:#8b4513;stroke:#8b4513;"/>
   </g>
   <g id="matplotlib.axis_1">
    <g id="xtick_1">
     <g id="line2d_1">
      <defs>
       <path d="M 0 0 
L 0 3.5 
" id="madfc1cae62" style="stroke:#000000;stroke-width:0.8;"/>
      </defs>
      <g>
       <use style="stroke:#000000;stroke-width:0.8;" x="258.3" xlink:href="#madfc1cae62" y="576.72"/>
      </g>
     </g>
     <g id="text_1">
      <!-- MeanPD -->
      <g transform="translate(237.811719 591.318438)scale(0.1 -0.1)">
       <defs>
        <path d="M 9.8125 72.90625 
L 24.515625 72.90625 
L 43.109375 23.296875 
L 61.8125 72.90625 
L 76.515625 72.90625 
L 76.515625 0 
L 66.890625 0 
L 66.890625 64.015625 
L 48.09375 14.015625 
L 38.1875 14.015625 
L 19.390625 64.015625 
L 19.390625 0 
L 9.8125 0 
z
" id="DejaVuSans-77"/>
        <path d="M 56.203125 29.59375 
L 56.203125 25.203125 
L 14.890625 25.203125 
Q 15.484375 15.921875 20.484375 11.0625 
Q 25.484375 6.203125 34.421875 6.203125 
Q 39.59375 6.203125 44.453125 7.46875 
Q 49.3125 8.734375 54.109375 11.28125 
L 54.109375 2.78125 
Q 49.265625 0.734375 44.1875 -0.34375 
Q 39.109375 -1.421875 33.890625 -1.421875 
Q 20.796875 -1.421875 13.15625 6.1875 
Q 5.515625 13.8125 5.515625 26.8125 
Q 5.515625 40.234375 12.765625 48.109375 
Q 20.015625 56 32.328125 56 
Q 43.359375 56 49.78125 48.890625 
Q 56.203125 41.796875 56.203125 29.59375 
z
M 47.21875 32.234375 
Q 47.125 39.59375 43.09375 43.984375 
Q 39.0625 48.390625 32.421875 48.390625 
Q 24.90625 48.390625 20.390625 44.140625 
Q 15.875 39.890625 15.1875 32.171875 
z
" id="DejaVuSans-101"/>
        <path d="M 34.28125 27.484375 
Q 23.390625 27.484375 19.1875 25 
Q 14.984375 22.515625 14.984375 16.5 
Q 14.984375 11.71875 18.140625 8.90625 
Q 21.296875 6.109375 26.703125 6.109375 
Q 34.1875 6.109375 38.703125 11.40625 
Q 43.21875 16.703125 43.21875 25.484375 
L 43.21875 27.484375 
z
M 52.203125 31.203125 
L 52.203125 0 
L 43.21875 0 
L 43.21875 8.296875 
Q 40.140625 3.328125 35.546875 0.953125 
Q 30.953125 -1.421875 24.3125 -1.421875 
Q 15.921875 -1.421875 10.953125 3.296875 
Q 6 8.015625 6 15.921875 
Q 6 25.140625 12.171875 29.828125 
Q 18.359375 34.515625 30.609375 34.515625 
L 43.21875 34.515625 
L 43.21875 35.40625 
Q 43.21875 41.609375 39.140625 45 
Q 35.0625 48.390625 27.6875 48.390625 
Q 23 48.390625 18.546875 47.265625 
Q 14.109375 46.140625 10.015625 43.890625 
L 10.015625 52.203125 
Q 14.9375 54.109375 19.578125 55.046875 
Q 24.21875 56 28.609375 56 
Q 40.484375 56 46.34375 49.84375 
Q 52.203125 43.703125 52.203125 31.203125 
z
" id="DejaVuSans-97"/>
        <path d="M 54.890625 33.015625 
L 54.890625 0 
L 45.90625 0 
L 45.90625 32.71875 
Q 45.90625 40.484375 42.875 44.328125 
Q 39.84375 48.1875 33.796875 48.1875 
Q 26.515625 48.1875 22.3125 43.546875 
Q 18.109375 38.921875 18.109375 30.90625 
L 18.109375 0 
L 9.078125 0 
L 9.078125 54.6875 
L 18.109375 54.6875 
L 18.109375 46.1875 
Q 21.34375 51.125 25.703125 53.5625 
Q 30.078125 56 35.796875 56 
Q 45.21875 56 50.046875 50.171875 
Q 54.890625 44.34375 54.890625 33.015625 
z
" id="DejaVuSans-110"/>
        <path d="M 19.671875 64.796875 
L 19.671875 37.40625 
L 32.078125 37.40625 
Q 38.96875 37.40625 42.71875 40.96875 
Q 46.484375 44.53125 46.484375 51.125 
Q 46.484375 57.671875 42.71875 61.234375 
Q 38.96875 64.796875 32.078125 64.796875 
z
M 9.8125 72.90625 
L 32.078125 72.90625 
Q 44.34375 72.90625 50.609375 67.359375 
Q 56.890625 61.8125 56.890625 51.125 
Q 56.890625 40.328125 50.609375 34.8125 
Q 44.34375 29.296875 32.078125 29.296875 
L 19.671875 29.296875 
L 19.671875 0 
L 9.8125 0 
z
" id="DejaVuSans-80"/>
        <path d="M 19.671875 64.796875 
L 19.671875 8.109375 
L 31.59375 8.109375 
Q 46.6875 8.109375 53.6875 14.9375 
Q 60.6875 21.78125 60.6875 36.53125 
Q 60.6875 51.171875 53.6875 57.984375 
Q 46.6875 64.796875 31.59375 64.796875 
z
M 9.8125 72.90625 
L 30.078125 72.90625 
Q 51.265625 72.90625 61.171875 64.09375 
Q 71.09375 55.28125 71.09375 36.53125 
Q 71.09375 17.671875 61.125 8.828125 
Q 51.171875 0 30.078125 0 
L 9.8125 0 
z
" id="DejaVuSans-68"/>
       </defs>
       <use xlink:href="#DejaVuSans-77"/>
       <use x="86.279297" xlink:href="#DejaVuSans-101"/>
       <use x="147.802734" xlink:href="#DejaVuSans-97"/>
       <use x="209.082031" xlink:href="#DejaVuSans-110"/>
       <use x="272.460938" xlink:href="#DejaVuSans-80"/>
       <use x="332.763672" xlink:href="#DejaVuSans-68"/>
      </g>
     </g>
    </g>
   </g>
   <g id="matplotlib.axis_2">
    <g id="ytick_1">
     <g id="line2d_2">
      <defs>
       <path d="M 0 0 
L -3.5 0 
" id="m306a7528b6" style="stroke:#000000;stroke-width:0.8;"/>
      </defs>
      <g>
       <use style="stroke:#000000;stroke-width:0.8;" x="63" xlink:href="#m306a7528b6" y="576.72"/>
      </g>
     </g>
     <g id="text_2">
      <!-- −3.5 -->
      <g transform="translate(31.717187 580.519219)scale(0.1 -0.1)">
       <defs>
        <path d="M 10.59375 35.5 
L 73.1875 35.5 
L 73.1875 27.203125 
L 10.59375 27.203125 
z
" id="DejaVuSans-8722"/>
        <path d="M 40.578125 39.3125 
Q 47.65625 37.796875 51.625 33 
Q 55.609375 28.21875 55.609375 21.1875 
Q 55.609375 10.40625 48.1875 4.484375 
Q 40.765625 -1.421875 27.09375 -1.421875 
Q 22.515625 -1.421875 17.65625 -0.515625 
Q 12.796875 0.390625 7.625 2.203125 
L 7.625 11.71875 
Q 11.71875 9.328125 16.59375 8.109375 
Q 21.484375 6.890625 26.8125 6.890625 
Q 36.078125 6.890625 40.9375 10.546875 
Q 45.796875 14.203125 45.796875 21.1875 
Q 45.796875 27.640625 41.28125 31.265625 
Q 36.765625 34.90625 28.71875 34.90625 
L 20.21875 34.90625 
L 20.21875 43.015625 
L 29.109375 43.015625 
Q 36.375 43.015625 40.234375 45.921875 
Q 44.09375 48.828125 44.09375 54.296875 
Q 44.09375 59.90625 40.109375 62.90625 
Q 36.140625 65.921875 28.71875 65.921875 
Q 24.65625 65.921875 20.015625 65.03125 
Q 15.375 64.15625 9.8125 62.3125 
L 9.8125 71.09375 
Q 15.4375 72.65625 20.34375 73.4375 
Q 25.25 74.21875 29.59375 74.21875 
Q 40.828125 74.21875 47.359375 69.109375 
Q 53.90625 64.015625 53.90625 55.328125 
Q 53.90625 49.265625 50.4375 45.09375 
Q 46.96875 40.921875 40.578125 39.3125 
z
" id="DejaVuSans-51"/>
        <path d="M 10.6875 12.40625 
L 21 12.40625 
L 21 0 
L 10.6875 0 
z
" id="DejaVuSans-46"/>
        <path d="M 10.796875 72.90625 
L 49.515625 72.90625 
L 49.515625 64.59375 
L 19.828125 64.59375 
L 19.828125 46.734375 
Q 21.96875 47.46875 24.109375 47.828125 
Q 26.265625 48.1875 28.421875 48.1875 
Q 40.625 48.1875 47.75 41.5 
Q 54.890625 34.8125 54.890625 23.390625 
Q 54.890625 11.625 47.5625 5.09375 
Q 40.234375 -1.421875 26.90625 -1.421875 
Q 22.3125 -1.421875 17.546875 -0.640625 
Q 12.796875 0.140625 7.71875 1.703125 
L 7.71875 11.625 
Q 12.109375 9.234375 16.796875 8.0625 
Q 21.484375 6.890625 26.703125 6.890625 
Q 35.15625 6.890625 40.078125 11.328125 
Q 45.015625 15.765625 45.015625 23.390625 
Q 45.015625 31 40.078125 35.4375 
Q 35.15625 39.890625 26.703125 39.890625 
Q 22.75 39.890625 18.8125 39.015625 
Q 14.890625 38.140625 10.796875 36.28125 
z
" id="DejaVuSans-53"/>
       </defs>
       <use xlink:href="#DejaVuSans-8722"/>
       <use x="83.789062" xlink:href="#DejaVuSans-51"/>
       <use x="147.412109" xlink:href="#DejaVuSans-46"/>
       <use x="179.199219" xlink:href="#DejaVuSans-53"/>
      </g>
     </g>
    </g>
    <g id="ytick_2">
     <g id="line2d_3">
      <g>
       <use style="stroke:#000000;stroke-width:0.8;" x="63" xlink:href="#m306a7528b6" y="538.92"/>
      </g>
     </g>
     <g id="text_3">
      <!-- −3.0 -->
      <g transform="translate(31.717187 542.719219)scale(0.1 -0.1)">
       <defs>
        <path d="M 31.78125 66.40625 
Q 24.171875 66.40625 20.328125 58.90625 
Q 16.5 51.421875 16.5 36.375 
Q 16.5 21.390625 20.328125 13.890625 
Q 24.171875 6.390625 31.78125 6.390625 
Q 39.453125 6.390625 43.28125 13.890625 
Q 47.125 21.390625 47.125 36.375 
Q 47.125 51.421875 43.28125 58.90625 
Q 39.453125 66.40625 31.78125 66.40625 
z
M 31.78125 74.21875 
Q 44.046875 74.21875 50.515625 64.515625 
Q 56.984375 54.828125 56.984375 36.375 
Q 56.984375 17.96875 50.515625 8.265625 
Q 44.046875 -1.421875 31.78125 -1.421875 
Q 19.53125 -1.421875 13.0625 8.265625 
Q 6.59375 17.96875 6.59375 36.375 
Q 6.59375 54.828125 13.0625 64.515625 
Q 19.53125 74.21875 31.78125 74.21875 
z
" id="DejaVuSans-48"/>
       </defs>
       <use xlink:href="#DejaVuSans-8722"/>
       <use x="83.789062" xlink:href="#DejaVuSans-51"/>
       <use x="147.412109" xlink:href="#DejaVuSans-46"/>
       <use x="179.199219" xlink:href="#DejaVuSans-48"/>
      </g>
     </g>
    </g>
    <g id="ytick_3">
     <g id="line2d_4">
      <g>
       <use style="stroke:#000000;stroke-width:0.8;" x="63" xlink:href="#m306a7528b6" y="501.12"/>
      </g>
     </g>
     <g id="text_4">
      <!-- −2.5 -->
      <g transform="translate(31.717187 504.919219)scale(0.1 -0.1)">
       <defs>
        <path d="M 19.1875 8.296875 
L 53.609375 8.296875 
L 53.609375 0 
L 7.328125 0 
L 7.328125 8.296875 
Q 12.9375 14.109375 22.625 23.890625 
Q 32.328125 33.6875 34.8125 36.53125 
Q 39.546875 41.84375 41.421875 45.53125 
Q 43.3125 49.21875 43.3125 52.78125 
Q 43.3125 58.59375 39.234375 62.25 
Q 35.15625 65.921875 28.609375 65.921875 
Q 23.96875 65.921875 18.8125 64.3125 
Q 13.671875 62.703125 7.8125 59.421875 
L 7.8125 69.390625 
Q 13.765625 71.78125 18.9375 73 
Q 24.125 74.21875 28.421875 74.21875 
Q 39.75 74.21875 46.484375 68.546875 
Q 53.21875 62.890625 53.21875 53.421875 
Q 53.21875 48.921875 51.53125 44.890625 
Q 49.859375 40.875 45.40625 35.40625 
Q 44.1875 33.984375 37.640625 27.21875 
Q 31.109375 20.453125 19.1875 8.296875 
z
" id="DejaVuSans-50"/>
       </defs>
       <use xlink:href="#DejaVuSans-8722"/>
       <use x="83.789062" xlink:href="#DejaVuSans-50"/>
       <use x="147.412109" xlink:href="#DejaVuSans-46"/>
       <use x="179.199219" xlink:href="#DejaVuSans-53"/>
      </g>
     </g>
    </g>
    <g id="ytick_4">
     <g id="line2d_5">
      <g>
       <use style="stroke:#000000;stroke-width:0.8;" x="63" xlink:href="#m306a7528b6" y="463.32"/>
      </g>
     </g>
     <g id="text_5">
      <!-- −2.0 -->
      <g transform="translate(31.717187 467.119219)scale(0.1 -0.1)">
       <use xlink:href="#DejaVuSans-8722"/>
       <use x="83.789062" xlink:href="#DejaVuSans-50"/>
       <use x="147.412109" xlink:href="#DejaVuSans-46"/>
       <use x="179.199219" xlink:href="#DejaVuSans-48"/>
      </g>
     </g>
    </g>
    <g id="ytick_5">
     <g id="line2d_6">
      <g>
       <use style="stroke:#000000;stroke-width:0.8;" x="63" xlink:href="#m306a7528b6" y="425.52"/>
      </g>
     </g>
     <g id="text_6">
      <!-- −1.5 -->
      <g transform="translate(31.717187 429.319219)scale(0.1 -0.1)">
       <defs>
        <path d="M 12.40625 8.296875 
L 28.515625 8.296875 
L 28.515625 63.921875 
L 10.984375 60.40625 
L 10.984375 69.390625 
L 28.421875 72.90625 
L 38.28125 72.90625 
L 38.28125 8.296875 
L 54.390625 8.296875 
L 54.390625 0 
L 12.40625 0 
z
" id="DejaVuSans-49"/>
       </defs>
       <use xlink:href="#DejaVuSans-8722"/>
       <use x="83.789062" xlink:href="#DejaVuSans-49"/>
       <use x="147.412109" xlink:href="#DejaVuSans-46"/>
       <use x="179.199219" xlink:href="#DejaVuSans-53"/>
      </g>
     </g>
    </g>
    <g id="ytick_6">
     <g id="line2d_7">
      <g>
       <use style="stroke:#000000;stroke-width:0.8;" x="63" xlink:href="#m306a7528b6" y="387.72"/>
      </g>
     </g>
     <g id="text_7">
      <!-- −1.0 -->
      <g transform="translate(31.717187 391.519219)scale(0.1 -0.1)">
       <use xlink:href="#DejaVuSans-8722"/>
       <use x="83.789062" xlink:href="#DejaVuSans-49"/>
       <use x="147.412109" xlink:href="#DejaVuSans-46"/>
       <use x="179.199219" xlink:href="#DejaVuSans-48"/>
      </g>
     </g>
    </g>
    <g id="ytick_7">
     <g id="line2d_8">
      <g>
       <use style="stroke:#000000;stroke-width:0.8;" x="63" xlink:href="#m306a7528b6" y="349.92"/>
      </g>
     </g>
     <g id="text_8">
      <!-- −0.5 -->
      <g transform="translate(31.717187 353.719219)scale(0.1 -0.1)">
       <use xlink:href="#DejaVuSans-8722"/>
       <use x="83.789062" xlink:href="#DejaVuSans-48"/>
       <use x="147.412109" xlink:href="#DejaVuSans-46"/>
       <use x="179.199219" xlink:href="#DejaVuSans-53"/>
      </g>
     </g>
    </g>
    <g id="ytick_8">
     <g id="line2d_9">
      <g>
       <use style="stroke:#000000;stroke-width:0.8;" x="63" xlink:href="#m306a7528b6" y="312.12"/>
      </g>
     </g>
     <g id="text_9">
      <!-- 0.0 -->
      <g transform="translate(40.096875 315.919219)scale(0.1 -0.1)">
       <use xlink:href="#DejaVuSans-48"/>
       <use x="63.623047" xlink:href="#DejaVuSans-46"/>
       <use x="95.410156" xlink:href="#DejaVuSans-48"/>
      </g>
     </g>
    </g>
    <g id="ytick_9">
     <g id="line2d_10">
      <g>
       <use style="stroke:#000000;stroke-width:0.8;" x="63" xlink:href="#m306a7528b6" y="274.32"/>
      </g>
     </g>
     <g id="text_10">
      <!-- 0.5 -->
      <g transform="translate(40.096875 278.119219)scale(0.1 -0.1)">
       <use xlink:href="#DejaVuSans-48"/>
       <use x="63.623047" xlink:href="#DejaVuSans-46"/>
       <use x="95.410156" xlink:href="#DejaVuSans-53"/>
      </g>
     </g>
    </g>
    <g id="ytick_10">
     <g id="line2d_11">
      <g>
       <use style="stroke:#000000;stroke-width:0.8;" x="63" xlink:href="#m306a7528b6" y="236.52"/>
      </g>
     </g>
     <g id="text_11">
      <!-- 1.0 -->
      <g transform="translate(40.096875 240.319219)scale(0.1 -0.1)">
       <use xlink:href="#DejaVuSans-49"/>
       <use x="63.623047" xlink:href="#DejaVuSans-46"/>
       <use x="95.410156" xlink:href="#DejaVuSans-48"/>
      </g>
     </g>
    </g>
    <g id="ytick_11">
     <g id="line2d_12">
      <g>
       <use style="stroke:#000000;stroke-width:0.8;" x="63" xlink:href="#m306a7528b6" y="198.72"/>
      </g>
     </g>
     <g id="text_12">
      <!-- 1.5 -->
      <g transform="translate(40.096875 202.519219)scale(0.1 -0.1)">
       <use xlink:href="#DejaVuSans-49"/>
       <use x="63.623047" xlink:href="#DejaVuSans-46"/>
       <use x="95.410156" xlink:href="#DejaVuSans-53"/>
      </g>
     </g>
    </g>
    <g id="ytick_12">
     <g id="line2d_13">
      <g>
       <use style="stroke:#000000;stroke-width:0.8;" x="63" xlink:href="#m306a7528b6" y="160.92"/>
      </g>
     </g>
     <g id="text_13">
      <!-- 2.0 -->
      <g transform="translate(40.096875 164.719219)scale(0.1 -0.1)">
       <use xlink:href="#DejaVuSans-50"/>
       <use x="63.623047" xlink:href="#DejaVuSans-46"/>
       <use x="95.410156" xlink:href="#DejaVuSans-48"/>
      </g>
     </g>
    </g>
    <g id="ytick_13">
     <g id="line2d_14">
      <g>
       <use style="stroke:#000000;stroke-width:0.8;" x="63" xlink:href="#m306a7528b6" y="123.12"/>
      </g>
     </g>
     <g id="text_14">
      <!-- 2.5 -->
      <g transform="translate(40.096875 126.919219)scale(0.1 -0.1)">
       <use xlink:href="#DejaVuSans-50"/>
       <use x="63.623047" xlink:href="#DejaVuSans-46"/>
       <use x="95.410156" xlink:href="#DejaVuSans-53"/>
      </g>
     </g>
    </g>
    <g id="ytick_14">
     <g id="line2d_15">
      <g>
       <use style="stroke:#000000;stroke-width:0.8;" x="63" xlink:href="#m306a7528b6" y="85.32"/>
      </g>
     </g>
     <g id="text_15">
      <!-- 3.0 -->
      <g transform="translate(40.096875 89.119219)scale(0.1 -0.1)">
       <use xlink:href="#DejaVuSans-51"/>
       <use x="63.623047" xlink:href="#DejaVuSans-46"/>
       <use x="95.410156" xlink:href="#DejaVuSans-48"/>
      </g>
     </g>
    </g>
    <g id="text_16">
     <!-- LogOdds -->
     <g transform="translate(25.6375 349.061094)rotate(-90)scale(0.1 -0.1)">
      <defs>
       <path d="M 9.8125 72.90625 
L 19.671875 72.90625 
L 19.671875 8.296875 
L 55.171875 8.296875 
L 55.171875 0 
L 9.8125 0 
z
" id="DejaVuSans-76"/>
       <path d="M 30.609375 48.390625 
Q 23.390625 48.390625 19.1875 42.75 
Q 14.984375 37.109375 14.984375 27.296875 
Q 14.984375 17.484375 19.15625 11.84375 
Q 23.34375 6.203125 30.609375 6.203125 
Q 37.796875 6.203125 41.984375 11.859375 
Q 46.1875 17.53125 46.1875 27.296875 
Q 46.1875 37.015625 41.984375 42.703125 
Q 37.796875 48.390625 30.609375 48.390625 
z
M 30.609375 56 
Q 42.328125 56 49.015625 48.375 
Q 55.71875 40.765625 55.71875 27.296875 
Q 55.71875 13.875 49.015625 6.21875 
Q 42.328125 -1.421875 30.609375 -1.421875 
Q 18.84375 -1.421875 12.171875 6.21875 
Q 5.515625 13.875 5.515625 27.296875 
Q 5.515625 40.765625 12.171875 48.375 
Q 18.84375 56 30.609375 56 
z
" id="DejaVuSans-111"/>
       <path d="M 45.40625 27.984375 
Q 45.40625 37.75 41.375 43.109375 
Q 37.359375 48.484375 30.078125 48.484375 
Q 22.859375 48.484375 18.828125 43.109375 
Q 14.796875 37.75 14.796875 27.984375 
Q 14.796875 18.265625 18.828125 12.890625 
Q 22.859375 7.515625 30.078125 7.515625 
Q 37.359375 7.515625 41.375 12.890625 
Q 45.40625 18.265625 45.40625 27.984375 
z
M 54.390625 6.78125 
Q 54.390625 -7.171875 48.1875 -13.984375 
Q 42 -20.796875 29.203125 -20.796875 
Q 24.46875 -20.796875 20.265625 -20.09375 
Q 16.0625 -19.390625 12.109375 -17.921875 
L 12.109375 -9.1875 
Q 16.0625 -11.328125 19.921875 -12.34375 
Q 23.78125 -13.375 27.78125 -13.375 
Q 36.625 -13.375 41.015625 -8.765625 
Q 45.40625 -4.15625 45.40625 5.171875 
L 45.40625 9.625 
Q 42.625 4.78125 38.28125 2.390625 
Q 33.9375 0 27.875 0 
Q 17.828125 0 11.671875 7.65625 
Q 5.515625 15.328125 5.515625 27.984375 
Q 5.515625 40.671875 11.671875 48.328125 
Q 17.828125 56 27.875 56 
Q 33.9375 56 38.28125 53.609375 
Q 42.625 51.21875 45.40625 46.390625 
L 45.40625 54.6875 
L 54.390625 54.6875 
z
" id="DejaVuSans-103"/>
       <path d="M 39.40625 66.21875 
Q 28.65625 66.21875 22.328125 58.203125 
Q 16.015625 50.203125 16.015625 36.375 
Q 16.015625 22.609375 22.328125 14.59375 
Q 28.65625 6.59375 39.40625 6.59375 
Q 50.140625 6.59375 56.421875 14.59375 
Q 62.703125 22.609375 62.703125 36.375 
Q 62.703125 50.203125 56.421875 58.203125 
Q 50.140625 66.21875 39.40625 66.21875 
z
M 39.40625 74.21875 
Q 54.734375 74.21875 63.90625 63.9375 
Q 73.09375 53.65625 73.09375 36.375 
Q 73.09375 19.140625 63.90625 8.859375 
Q 54.734375 -1.421875 39.40625 -1.421875 
Q 24.03125 -1.421875 14.8125 8.828125 
Q 5.609375 19.09375 5.609375 36.375 
Q 5.609375 53.65625 14.8125 63.9375 
Q 24.03125 74.21875 39.40625 74.21875 
z
" id="DejaVuSans-79"/>
       <path d="M 45.40625 46.390625 
L 45.40625 75.984375 
L 54.390625 75.984375 
L 54.390625 0 
L 45.40625 0 
L 45.40625 8.203125 
Q 42.578125 3.328125 38.25 0.953125 
Q 33.9375 -1.421875 27.875 -1.421875 
Q 17.96875 -1.421875 11.734375 6.484375 
Q 5.515625 14.40625 5.515625 27.296875 
Q 5.515625 40.1875 11.734375 48.09375 
Q 17.96875 56 27.875 56 
Q 33.9375 56 38.25 53.625 
Q 42.578125 51.265625 45.40625 46.390625 
z
M 14.796875 27.296875 
Q 14.796875 17.390625 18.875 11.75 
Q 22.953125 6.109375 30.078125 6.109375 
Q 37.203125 6.109375 41.296875 11.75 
Q 45.40625 17.390625 45.40625 27.296875 
Q 45.40625 37.203125 41.296875 42.84375 
Q 37.203125 48.484375 30.078125 48.484375 
Q 22.953125 48.484375 18.875 42.84375 
Q 14.796875 37.203125 14.796875 27.296875 
z
" id="DejaVuSans-100"/>
       <path d="M 44.28125 53.078125 
L 44.28125 44.578125 
Q 40.484375 46.53125 36.375 47.5 
Q 32.28125 48.484375 27.875 48.484375 
Q 21.1875 48.484375 17.84375 46.4375 
Q 14.5 44.390625 14.5 40.28125 
Q 14.5 37.15625 16.890625 35.375 
Q 19.28125 33.59375 26.515625 31.984375 
L 29.59375 31.296875 
Q 39.15625 29.25 43.1875 25.515625 
Q 47.21875 21.78125 47.21875 15.09375 
Q 47.21875 7.46875 41.1875 3.015625 
Q 35.15625 -1.421875 24.609375 -1.421875 
Q 20.21875 -1.421875 15.453125 -0.5625 
Q 10.6875 0.296875 5.421875 2 
L 5.421875 11.28125 
Q 10.40625 8.6875 15.234375 7.390625 
Q 20.0625 6.109375 24.8125 6.109375 
Q 31.15625 6.109375 34.5625 8.28125 
Q 37.984375 10.453125 37.984375 14.40625 
Q 37.984375 18.0625 35.515625 20.015625 
Q 33.0625 21.96875 24.703125 23.78125 
L 21.578125 24.515625 
Q 13.234375 26.265625 9.515625 29.90625 
Q 5.8125 33.546875 5.8125 39.890625 
Q 5.8125 47.609375 11.28125 51.796875 
Q 16.75 56 26.8125 56 
Q 31.78125 56 36.171875 55.265625 
Q 40.578125 54.546875 44.28125 53.078125 
z
" id="DejaVuSans-115"/>
      </defs>
      <use xlink:href="#DejaVuSans-76"/>
      <use x="53.962891" xlink:href="#DejaVuSans-111"/>
      <use x="115.144531" xlink:href="#DejaVuSans-103"/>
      <use x="178.621094" xlink:href="#DejaVuSans-79"/>
      <use x="257.332031" xlink:href="#DejaVuSans-100"/>
      <use x="320.808594" xlink:href="#DejaVuSans-100"/>
      <use x="384.285156" xlink:href="#DejaVuSans-115"/>
     </g>
    </g>
   </g>
   <g id="line2d_16">
    <path clip-path="url(#p760c49bb83)" d="M 229.005 292.32644 
L 287.595 292.32644 
L 287.595 250.102015 
L 229.005 250.102015 
L 229.005 292.32644 
" style="fill:none;stroke:#000000;stroke-linecap:square;"/>
   </g>
   <g id="line2d_17">
    <path clip-path="url(#p760c49bb83)" d="M 258.3 292.32644 
L 258.3 316.497554 
" style="fill:none;stroke:#000000;stroke-linecap:square;"/>
   </g>
   <g id="line2d_18">
    <path clip-path="url(#p760c49bb83)" d="M 258.3 250.102015 
L 258.3 209.735735 
" style="fill:none;stroke:#000000;stroke-linecap:square;"/>
   </g>
   <g id="line2d_19">
    <path clip-path="url(#p760c49bb83)" d="M 243.6525 316.497554 
L 272.9475 316.497554 
" style="fill:none;stroke:#000000;stroke-linecap:square;"/>
   </g>
   <g id="line2d_20">
    <path clip-path="url(#p760c49bb83)" d="M 243.6525 209.735735 
L 272.9475 209.735735 
" style="fill:none;stroke:#000000;stroke-linecap:square;"/>
   </g>
   <g id="line2d_21">
    <path clip-path="url(#p760c49bb83)" d="M 229.005 267.697002 
L 287.595 267.697002 
" style="fill:none;stroke:#ff7f0e;stroke-linecap:square;"/>
   </g>
   <g id="patch_3">
    <path d="M 63 576.72 
L 63 77.76 
" style="fill:none;stroke:#000000;stroke-linecap:square;stroke-linejoin:miter;stroke-width:0.8;"/>
   </g>
   <g id="patch_4">
    <path d="M 453.6 576.72 
L 453.6 77.76 
" style="fill:none;stroke:#000000;stroke-linecap:square;stroke-linejoin:miter;stroke-width:0.8;"/>
   </g>
   <g id="patch_5">
    <path d="M 63 576.72 
L 453.6 576.72 
" style="fill:none;stroke:#000000;stroke-linecap:square;stroke-linejoin:miter;stroke-width:0.8;"/>
   </g>
   <g id="patch_6">
    <path d="M 63 77.76 
L 453.6 77.76 
" style="fill:none;stroke:#000000;stroke-linecap:square;stroke-linejoin:miter;stroke-width:0.8;"/>
   </g>
   <g id="text_17">
    <!-- 0 -->
    <g style="fill:#2f4f4f;" transform="translate(265.277988 300.264551)scale(0.1 -0.1)">
     <use xlink:href="#DejaVuSans-48"/>
    </g>
   </g>
   <g id="text_18">
    <!-- 1.0 -->
    <g style="fill:#556b2f;" transform="translate(259.466231 315.59294)scale(0.1 -0.1)">
     <use xlink:href="#DejaVuSans-49"/>
     <use x="63.623047" xlink:href="#DejaVuSans-46"/>
     <use x="95.410156" xlink:href="#DejaVuSans-48"/>
    </g>
   </g>
   <g id="text_19">
    <!-- 3.0 -->
    <g style="fill:#2e8b57;" transform="translate(266.925883 266.941002)scale(0.1 -0.1)">
     <use xlink:href="#DejaVuSans-51"/>
     <use x="63.623047" xlink:href="#DejaVuSans-46"/>
     <use x="95.410156" xlink:href="#DejaVuSans-48"/>
    </g>
   </g>
   <g id="text_20">
    <!-- 4 -->
    <g style="fill:#228b22;" transform="translate(271.788279 274.296185)scale(0.1 -0.1)">
     <defs>
      <path d="M 37.796875 64.3125 
L 12.890625 25.390625 
L 37.796875 25.390625 
z
M 35.203125 72.90625 
L 47.609375 72.90625 
L 47.609375 25.390625 
L 58.015625 25.390625 
L 58.015625 17.1875 
L 47.609375 17.1875 
L 47.609375 0 
L 37.796875 0 
L 37.796875 17.1875 
L 4.890625 17.1875 
L 4.890625 26.703125 
z
" id="DejaVuSans-52"/>
     </defs>
     <use xlink:href="#DejaVuSans-52"/>
    </g>
   </g>
   <g id="text_21">
    <!-- 6 -->
    <g style="fill:#8b0000;" transform="translate(252.366328 254.907455)scale(0.1 -0.1)">
     <defs>
      <path d="M 33.015625 40.375 
Q 26.375 40.375 22.484375 35.828125 
Q 18.609375 31.296875 18.609375 23.390625 
Q 18.609375 15.53125 22.484375 10.953125 
Q 26.375 6.390625 33.015625 6.390625 
Q 39.65625 6.390625 43.53125 10.953125 
Q 47.40625 15.53125 47.40625 23.390625 
Q 47.40625 31.296875 43.53125 35.828125 
Q 39.65625 40.375 33.015625 40.375 
z
M 52.59375 71.296875 
L 52.59375 62.3125 
Q 48.875 64.0625 45.09375 64.984375 
Q 41.3125 65.921875 37.59375 65.921875 
Q 27.828125 65.921875 22.671875 59.328125 
Q 17.53125 52.734375 16.796875 39.40625 
Q 19.671875 43.65625 24.015625 45.921875 
Q 28.375 48.1875 33.59375 48.1875 
Q 44.578125 48.1875 50.953125 41.515625 
Q 57.328125 34.859375 57.328125 23.390625 
Q 57.328125 12.15625 50.6875 5.359375 
Q 44.046875 -1.421875 33.015625 -1.421875 
Q 20.359375 -1.421875 13.671875 8.265625 
Q 6.984375 17.96875 6.984375 36.375 
Q 6.984375 53.65625 15.1875 63.9375 
Q 23.390625 74.21875 37.203125 74.21875 
Q 40.921875 74.21875 44.703125 73.484375 
Q 48.484375 72.75 52.59375 71.296875 
z
" id="DejaVuSans-54"/>
     </defs>
     <use xlink:href="#DejaVuSans-54"/>
    </g>
   </g>
   <g id="text_22">
    <!-- 7 -->
    <g style="fill:#808000;" transform="translate(279.084847 238.3775)scale(0.1 -0.1)">
     <defs>
      <path d="M 8.203125 72.90625 
L 55.078125 72.90625 
L 55.078125 68.703125 
L 28.609375 0 
L 18.3125 0 
L 43.21875 64.59375 
L 8.203125 64.59375 
z
" id="DejaVuSans-55"/>
     </defs>
     <use xlink:href="#DejaVuSans-55"/>
    </g>
   </g>
   <g id="text_23">
    <!-- 9 -->
    <g style="fill:#008080;" transform="translate(249.776254 291.57044)scale(0.1 -0.1)">
     <defs>
      <path d="M 10.984375 1.515625 
L 10.984375 10.5 
Q 14.703125 8.734375 18.5 7.8125 
Q 22.3125 6.890625 25.984375 6.890625 
Q 35.75 6.890625 40.890625 13.453125 
Q 46.046875 20.015625 46.78125 33.40625 
Q 43.953125 29.203125 39.59375 26.953125 
Q 35.25 24.703125 29.984375 24.703125 
Q 19.046875 24.703125 12.671875 31.3125 
Q 6.296875 37.9375 6.296875 49.421875 
Q 6.296875 60.640625 12.9375 67.421875 
Q 19.578125 74.21875 30.609375 74.21875 
Q 43.265625 74.21875 49.921875 64.515625 
Q 56.59375 54.828125 56.59375 36.375 
Q 56.59375 19.140625 48.40625 8.859375 
Q 40.234375 -1.421875 26.421875 -1.421875 
Q 22.703125 -1.421875 18.890625 -0.6875 
Q 15.09375 0.046875 10.984375 1.515625 
z
M 30.609375 32.421875 
Q 37.25 32.421875 41.125 36.953125 
Q 45.015625 41.5 45.015625 49.421875 
Q 45.015625 57.28125 41.125 61.84375 
Q 37.25 66.40625 30.609375 66.40625 
Q 23.96875 66.40625 20.09375 61.84375 
Q 16.21875 57.28125 16.21875 49.421875 
Q 16.21875 41.5 20.09375 36.953125 
Q 23.96875 32.421875 30.609375 32.421875 
z
" id="DejaVuSans-57"/>
     </defs>
     <use xlink:href="#DejaVuSans-57"/>
    </g>
   </g>
   <g id="text_24">
    <!-- 10 -->
    <g style="fill:#b8860b;" transform="translate(268.215747 248.747331)scale(0.1 -0.1)">
     <use xlink:href="#DejaVuSans-49"/>
     <use x="63.623047" xlink:href="#DejaVuSans-48"/>
    </g>
   </g>
   <g id="text_25">
    <!-- 11 -->
    <g style="fill:#4682b4;" transform="translate(263.693706 276.291542)scale(0.1 -0.1)">
     <use xlink:href="#DejaVuSans-49"/>
     <use x="63.623047" xlink:href="#DejaVuSans-49"/>
    </g>
   </g>
   <g id="text_26">
    <!-- 12 -->
    <g style="fill:#d2691e;" transform="translate(254.549938 281.555025)scale(0.1 -0.1)">
     <use xlink:href="#DejaVuSans-49"/>
     <use x="63.623047" xlink:href="#DejaVuSans-50"/>
    </g>
   </g>
   <g id="text_27">
    <!-- 14 -->
    <g style="fill:#32cd32;" transform="translate(264.652936 256.946857)scale(0.1 -0.1)">
     <use xlink:href="#DejaVuSans-49"/>
     <use x="63.623047" xlink:href="#DejaVuSans-52"/>
    </g>
   </g>
   <g id="text_28">
    <!-- 15 -->
    <g style="fill:#8fbc8f;" transform="translate(256.759122 437.348888)scale(0.1 -0.1)">
     <use xlink:href="#DejaVuSans-49"/>
     <use x="63.623047" xlink:href="#DejaVuSans-53"/>
    </g>
   </g>
   <g id="text_29">
    <!-- 19.0 -->
    <g style="fill:#ff4500;" transform="translate(249.785674 255.36078)scale(0.1 -0.1)">
     <use xlink:href="#DejaVuSans-49"/>
     <use x="63.623047" xlink:href="#DejaVuSans-57"/>
     <use x="127.246094" xlink:href="#DejaVuSans-46"/>
     <use x="159.033203" xlink:href="#DejaVuSans-48"/>
    </g>
   </g>
   <g id="text_30">
    <!-- 22.0 -->
    <g style="fill:#ffd700;" transform="translate(250.603147 208.979735)scale(0.1 -0.1)">
     <use xlink:href="#DejaVuSans-50"/>
     <use x="63.623047" xlink:href="#DejaVuSans-50"/>
     <use x="127.246094" xlink:href="#DejaVuSans-46"/>
     <use x="159.033203" xlink:href="#DejaVuSans-48"/>
    </g>
   </g>
   <g id="text_31">
    <!-- 23 -->
    <g style="fill:#0000cd;" transform="translate(276.380101 291.678982)scale(0.1 -0.1)">
     <use xlink:href="#DejaVuSans-50"/>
     <use x="63.623047" xlink:href="#DejaVuSans-51"/>
    </g>
   </g>
   <g id="text_32">
    <!-- 24 -->
    <g style="fill:#deb887;" transform="translate(278.360229 276.311412)scale(0.1 -0.1)">
     <use xlink:href="#DejaVuSans-50"/>
     <use x="63.623047" xlink:href="#DejaVuSans-52"/>
    </g>
   </g>
   <g id="text_33">
    <!-- 25 -->
    <g style="fill:#00ff00;" transform="translate(259.584631 254.650578)scale(0.1 -0.1)">
     <use xlink:href="#DejaVuSans-50"/>
     <use x="63.623047" xlink:href="#DejaVuSans-53"/>
    </g>
   </g>
   <g id="text_34">
    <!-- 21.4 -->
    <g style="fill:#00fa9a;" transform="translate(261.879775 315.741554)scale(0.1 -0.1)">
     <use xlink:href="#DejaVuSans-50"/>
     <use x="63.623047" xlink:href="#DejaVuSans-49"/>
     <use x="127.246094" xlink:href="#DejaVuSans-46"/>
     <use x="159.033203" xlink:href="#DejaVuSans-52"/>
    </g>
   </g>
   <g id="text_35">
    <!-- 26 -->
    <g style="fill:#dc143c;" transform="translate(290.426803 249.346015)scale(0.1 -0.1)">
     <use xlink:href="#DejaVuSans-50"/>
     <use x="63.623047" xlink:href="#DejaVuSans-54"/>
    </g>
   </g>
   <g id="text_36">
    <!-- 20.3 -->
    <g style="fill:#a020f0;" transform="translate(255.234706 355.07937)scale(0.1 -0.1)">
     <use xlink:href="#DejaVuSans-50"/>
     <use x="63.623047" xlink:href="#DejaVuSans-48"/>
     <use x="127.246094" xlink:href="#DejaVuSans-46"/>
     <use x="159.033203" xlink:href="#DejaVuSans-51"/>
    </g>
   </g>
   <g id="text_37">
    <!-- 28 -->
    <g style="fill:#da70d6;" transform="translate(257.941408 253.654981)scale(0.1 -0.1)">
     <defs>
      <path d="M 31.78125 34.625 
Q 24.75 34.625 20.71875 30.859375 
Q 16.703125 27.09375 16.703125 20.515625 
Q 16.703125 13.921875 20.71875 10.15625 
Q 24.75 6.390625 31.78125 6.390625 
Q 38.8125 6.390625 42.859375 10.171875 
Q 46.921875 13.96875 46.921875 20.515625 
Q 46.921875 27.09375 42.890625 30.859375 
Q 38.875 34.625 31.78125 34.625 
z
M 21.921875 38.8125 
Q 15.578125 40.375 12.03125 44.71875 
Q 8.5 49.078125 8.5 55.328125 
Q 8.5 64.0625 14.71875 69.140625 
Q 20.953125 74.21875 31.78125 74.21875 
Q 42.671875 74.21875 48.875 69.140625 
Q 55.078125 64.0625 55.078125 55.328125 
Q 55.078125 49.078125 51.53125 44.71875 
Q 48 40.375 41.703125 38.8125 
Q 48.828125 37.15625 52.796875 32.3125 
Q 56.78125 27.484375 56.78125 20.515625 
Q 56.78125 9.90625 50.3125 4.234375 
Q 43.84375 -1.421875 31.78125 -1.421875 
Q 19.734375 -1.421875 13.25 4.234375 
Q 6.78125 9.90625 6.78125 20.515625 
Q 6.78125 27.484375 10.78125 32.3125 
Q 14.796875 37.15625 21.921875 38.8125 
z
M 18.3125 54.390625 
Q 18.3125 48.734375 21.84375 45.5625 
Q 25.390625 42.390625 31.78125 42.390625 
Q 38.140625 42.390625 41.71875 45.5625 
Q 45.3125 48.734375 45.3125 54.390625 
Q 45.3125 60.0625 41.71875 63.234375 
Q 38.140625 66.40625 31.78125 66.40625 
Q 25.390625 66.40625 21.84375 63.234375 
Q 18.3125 60.0625 18.3125 54.390625 
z
" id="DejaVuSans-56"/>
     </defs>
     <use xlink:href="#DejaVuSans-50"/>
     <use x="63.623047" xlink:href="#DejaVuSans-56"/>
    </g>
   </g>
   <g id="text_38">
    <!-- 18.1 -->
    <g style="fill:#dda0dd;" transform="translate(264.08816 239.194383)scale(0.1 -0.1)">
     <use xlink:href="#DejaVuSans-49"/>
     <use x="63.623047" xlink:href="#DejaVuSans-56"/>
     <use x="127.246094" xlink:href="#DejaVuSans-46"/>
     <use x="159.033203" xlink:href="#DejaVuSans-49"/>
    </g>
   </g>
   <g id="text_39">
    <!-- 17.1 -->
    <g style="fill:#7b68ee;" transform="translate(226.736878 269.955349)scale(0.1 -0.1)">
     <use xlink:href="#DejaVuSans-49"/>
     <use x="63.623047" xlink:href="#DejaVuSans-55"/>
     <use x="127.246094" xlink:href="#DejaVuSans-46"/>
     <use x="159.033203" xlink:href="#DejaVuSans-49"/>
    </g>
   </g>
   <g id="text_40">
    <!-- 5.2 -->
    <g style="fill:#7fffd4;" transform="translate(242.521364 242.694149)scale(0.1 -0.1)">
     <use xlink:href="#DejaVuSans-53"/>
     <use x="63.623047" xlink:href="#DejaVuSans-46"/>
     <use x="95.410156" xlink:href="#DejaVuSans-50"/>
    </g>
   </g>
   <g id="text_41">
    <!-- 1.1 -->
    <g style="fill:#8b4513;" transform="translate(265.274484 234.546589)scale(0.1 -0.1)">
     <use xlink:href="#DejaVuSans-49"/>
     <use x="63.623047" xlink:href="#DejaVuSans-46"/>
     <use x="95.410156" xlink:href="#DejaVuSans-49"/>
    </g>
   </g>
  </g>
 </g>
 <defs>
  <clipPath id="p760c49bb83">
   <rect height="498.96" width="390.6" x="63" y="77.76"/>
  </clipPath>
 </defs>
</svg>
