<?xml version="1.0" encoding="utf-8" standalone="no"?>
<!DOCTYPE svg PUBLIC "-//W3C//DTD SVG 1.1//EN"
  "http://www.w3.org/Graphics/SVG/1.1/DTD/svg11.dtd">
<!-- Created with matplotlib (https://matplotlib.org/) -->
<svg height="648pt" version="1.1" viewBox="0 0 504 648" width="504pt" xmlns="http://www.w3.org/2000/svg" xmlns:xlink="http://www.w3.org/1999/xlink">
 <metadata>
  <rdf:RDF xmlns:cc="http://creativecommons.org/ns#" xmlns:dc="http://purl.org/dc/elements/1.1/" xmlns:rdf="http://www.w3.org/1999/02/22-rdf-syntax-ns#">
   <cc:Work>
    <dc:type rdf:resource="http://purl.org/dc/dcmitype/StillImage"/>
    <dc:date>2023-06-02T19:01:11.456342</dc:date>
    <dc:format>image/svg+xml</dc:format>
    <dc:creator>
     <cc:Agent>
      <dc:title>Matplotlib v3.3.4, https://matplotlib.org/</dc:title>
     </cc:Agent>
    </dc:creator>
   </cc:Work>
  </rdf:RDF>
 </metadata>
 <defs>
  <style type="text/css">*{stroke-linecap:butt;stroke-linejoin:round;}</style>
 </defs>
 <g id="figure_1">
  <g id="patch_1">
   <path d="M 0 648 
L 504 648 
L 504 0 
L 0 0 
z
" style="fill:#ffffff;"/>
  </g>
  <g id="axes_1">
   <g id="patch_2">
    <path d="M 63 576.72 
L 453.6 576.72 
L 453.6 77.76 
L 63 77.76 
z
" style="fill:#ffffff;"/>
   </g>
   <g id="PathCollection_1">
    <path clip-path="url(#p30ac71f400)" d="M 235.865139 302.745921 
C 237.191155 302.745921 238.463038 302.21909 239.400673 301.281455 
C 240.338307 300.343821 240.865139 299.071937 240.865139 297.745921 
C 240.865139 296.419906 240.338307 295.148022 239.400673 294.210387 
C 238.463038 293.272753 237.191155 292.745921 235.865139 292.745921 
C 234.539124 292.745921 233.26724 293.272753 232.329605 294.210387 
C 231.391971 295.148022 230.865139 296.419906 230.865139 297.745921 
C 230.865139 299.071937 231.391971 300.343821 232.329605 301.281455 
C 233.26724 302.21909 234.539124 302.745921 235.865139 302.745921 
z
" style="fill:#2f4f4f;stroke:#2f4f4f;"/>
    <path clip-path="url(#p30ac71f400)" d="M 264.966961 251.706725 
C 267.779865 251.706725 270.477938 250.589146 272.466961 248.600123 
C 274.455984 246.6111 275.573563 243.913027 275.573563 241.100123 
C 275.573563 238.28722 274.455984 235.589146 272.466961 233.600123 
C 270.477938 231.6111 267.779865 230.493521 264.966961 230.493521 
C 262.154057 230.493521 259.455984 231.6111 257.466961 233.600123 
C 255.477938 235.589146 254.360359 238.28722 254.360359 241.100123 
C 254.360359 243.913027 255.477938 246.6111 257.466961 248.600123 
C 259.455984 250.589146 262.154057 251.706725 264.966961 251.706725 
z
" style="fill:#556b2f;stroke:#556b2f;"/>
    <path clip-path="url(#p30ac71f400)" d="M 288.985243 235.021434 
C 291.950304 235.021434 294.794323 233.843403 296.890937 231.746788 
C 298.987552 229.650174 300.165583 226.806155 300.165583 223.841094 
C 300.165583 220.876033 298.987552 218.032015 296.890937 215.9354 
C 294.794323 213.838785 291.950304 212.660754 288.985243 212.660754 
C 286.020182 212.660754 283.176164 213.838785 281.079549 215.9354 
C 278.982934 218.032015 277.804903 220.876033 277.804903 223.841094 
C 277.804903 226.806155 278.982934 229.650174 281.079549 231.746788 
C 283.176164 233.843403 286.020182 235.021434 288.985243 235.021434 
z
" style="fill:#8b4513;stroke:#8b4513;"/>
    <path clip-path="url(#p30ac71f400)" d="M 263.734896 259.254124 
C 266.844678 259.254124 269.82751 258.018595 272.026458 255.819647 
C 274.225406 253.620699 275.460936 250.637867 275.460936 247.528085 
C 275.460936 244.418303 274.225406 241.435471 272.026458 239.236523 
C 269.82751 237.037575 266.844678 235.802045 263.734896 235.802045 
C 260.625114 235.802045 257.642282 237.037575 255.443334 239.236523 
C 253.244387 241.435471 252.008857 244.418303 252.008857 247.528085 
C 252.008857 250.637867 253.244387 253.620699 255.443334 255.819647 
C 257.642282 258.018595 260.625114 259.254124 263.734896 259.254124 
z
" style="fill:#2e8b57;stroke:#2e8b57;"/>
    <path clip-path="url(#p30ac71f400)" d="M 259.240453 248.941954 
C 261.337068 248.941954 263.348093 248.10896 264.830623 246.626429 
C 266.313154 245.143899 267.146147 243.132874 267.146147 241.036259 
C 267.146147 238.939645 266.313154 236.92862 264.830623 235.446089 
C 263.348093 233.963559 261.337068 233.130565 259.240453 233.130565 
C 257.143839 233.130565 255.132814 233.963559 253.650283 235.446089 
C 252.167753 236.92862 251.334759 238.939645 251.334759 241.036259 
C 251.334759 243.132874 252.167753 245.143899 253.650283 246.626429 
C 255.132814 248.10896 257.143839 248.941954 259.240453 248.941954 
z
" style="fill:#228b22;stroke:#228b22;"/>
    <path clip-path="url(#p30ac71f400)" d="M 269.151229 215.143729 
C 270.775259 215.143729 272.332992 214.498495 273.481356 213.350132 
C 274.629719 212.201769 275.274953 210.644035 275.274953 209.020005 
C 275.274953 207.395974 274.629719 205.838241 273.481356 204.689878 
C 272.332992 203.541515 270.775259 202.89628 269.151229 202.89628 
C 267.527198 202.89628 265.969465 203.541515 264.821102 204.689878 
C 263.672738 205.838241 263.027504 207.395974 263.027504 209.020005 
C 263.027504 210.644035 263.672738 212.201769 264.821102 213.350132 
C 265.969465 214.498495 267.527198 215.143729 269.151229 215.143729 
z
" style="fill:#708090;stroke:#708090;"/>
    <path clip-path="url(#p30ac71f400)" d="M 233.74728 256.619919 
C 235.622549 256.619919 237.421265 255.874867 238.74728 254.548851 
C 240.073296 253.222836 240.818348 251.42412 240.818348 249.548851 
C 240.818348 247.673582 240.073296 245.874867 238.74728 244.548851 
C 237.421265 243.222836 235.622549 242.477784 233.74728 242.477784 
C 231.872011 242.477784 230.073296 243.222836 228.74728 244.548851 
C 227.421265 245.874867 226.676212 247.673582 226.676212 249.548851 
C 226.676212 251.42412 227.421265 253.222836 228.74728 254.548851 
C 230.073296 255.874867 231.872011 256.619919 233.74728 256.619919 
z
" style="fill:#8b0000;stroke:#8b0000;"/>
    <path clip-path="url(#p30ac71f400)" d="M 273.921221 229.311012 
C 276.217947 229.311012 278.420915 228.398513 280.044946 226.774482 
C 281.668976 225.150451 282.581475 222.947484 282.581475 220.650758 
C 282.581475 218.354032 281.668976 216.151064 280.044946 214.527033 
C 278.420915 212.903003 276.217947 211.990504 273.921221 211.990504 
C 271.624495 211.990504 269.421527 212.903003 267.797497 214.527033 
C 266.173466 216.151064 265.260967 218.354032 265.260967 220.650758 
C 265.260967 222.947484 266.173466 225.150451 267.797497 226.774482 
C 269.421527 228.398513 271.624495 229.311012 273.921221 229.311012 
z
" style="fill:#808000;stroke:#808000;"/>
    <path clip-path="url(#p30ac71f400)" d="M 276.966212 309.885229 
C 278.590243 309.885229 280.147976 309.239995 281.296339 308.091632 
C 282.444702 306.943269 283.089937 305.385536 283.089937 303.761505 
C 283.089937 302.137474 282.444702 300.579741 281.296339 299.431378 
C 280.147976 298.283015 278.590243 297.637781 276.966212 297.637781 
C 275.342182 297.637781 273.784448 298.283015 272.636085 299.431378 
C 271.487722 300.579741 270.842488 302.137474 270.842488 303.761505 
C 270.842488 305.385536 271.487722 306.943269 272.636085 308.091632 
C 273.784448 309.239995 275.342182 309.885229 276.966212 309.885229 
z
" style="fill:#483d8b;stroke:#483d8b;"/>
    <path clip-path="url(#p30ac71f400)" d="M 275.885428 352.181628 
C 277.211443 352.181628 278.483327 351.654797 279.420961 350.717162 
C 280.358596 349.779528 280.885428 348.507644 280.885428 347.181628 
C 280.885428 345.855613 280.358596 344.583729 279.420961 343.646095 
C 278.483327 342.70846 277.211443 342.181628 275.885428 342.181628 
C 274.559412 342.181628 273.287528 342.70846 272.349894 343.646095 
C 271.412259 344.583729 270.885428 345.855613 270.885428 347.181628 
C 270.885428 348.507644 271.412259 349.779528 272.349894 350.717162 
C 273.287528 351.654797 274.559412 352.181628 275.885428 352.181628 
z
" style="fill:#008080;stroke:#008080;"/>
    <path clip-path="url(#p30ac71f400)" d="M 252.129476 243.364731 
C 254.610224 243.364731 256.989701 242.37912 258.743854 240.624966 
C 260.498008 238.870812 261.483619 236.491335 261.483619 234.010588 
C 261.483619 231.52984 260.498008 229.150363 258.743854 227.396209 
C 256.989701 225.642056 254.610224 224.656444 252.129476 224.656444 
C 249.648728 224.656444 247.269251 225.642056 245.515098 227.396209 
C 243.760944 229.150363 242.775332 231.52984 242.775332 234.010588 
C 242.775332 236.491335 243.760944 238.870812 245.515098 240.624966 
C 247.269251 242.37912 249.648728 243.364731 252.129476 243.364731 
z
" style="fill:#b8860b;stroke:#b8860b;"/>
    <path clip-path="url(#p30ac71f400)" d="M 251.826292 302.110895 
C 253.701561 302.110895 255.500276 301.365843 256.826292 300.039828 
C 258.152307 298.713812 258.89736 296.915097 258.89736 295.039828 
C 258.89736 293.164559 258.152307 291.365843 256.826292 290.039828 
C 255.500276 288.713812 253.701561 287.96876 251.826292 287.96876 
C 249.951023 287.96876 248.152307 288.713812 246.826292 290.039828 
C 245.500276 291.365843 244.755224 293.164559 244.755224 295.039828 
C 244.755224 296.915097 245.500276 298.713812 246.826292 300.039828 
C 248.152307 301.365843 249.951023 302.110895 251.826292 302.110895 
z
" style="fill:#4682b4;stroke:#4682b4;"/>
    <path clip-path="url(#p30ac71f400)" d="M 220.473555 222.316019 
C 222.770281 222.316019 224.973248 221.40352 226.597279 219.77949 
C 228.22131 218.155459 229.133809 215.952492 229.133809 213.655765 
C 229.133809 211.359039 228.22131 209.156072 226.597279 207.532041 
C 224.973248 205.90801 222.770281 204.995511 220.473555 204.995511 
C 218.176829 204.995511 215.973861 205.90801 214.34983 207.532041 
C 212.7258 209.156072 211.813301 211.359039 211.813301 213.655765 
C 211.813301 215.952492 212.7258 218.155459 214.34983 219.77949 
C 215.973861 221.40352 218.176829 222.316019 220.473555 222.316019 
z
" style="fill:#d2691e;stroke:#d2691e;"/>
    <path clip-path="url(#p30ac71f400)" d="M 283.893109 245.102555 
C 286.373857 245.102555 288.753334 244.116944 290.507488 242.36279 
C 292.261641 240.608637 293.247253 238.22916 293.247253 235.748412 
C 293.247253 233.267664 292.261641 230.888187 290.507488 229.134034 
C 288.753334 227.37988 286.373857 226.394268 283.893109 226.394268 
C 281.412362 226.394268 279.032885 227.37988 277.278731 229.134034 
C 275.524577 230.888187 274.538966 233.267664 274.538966 235.748412 
C 274.538966 238.22916 275.524577 240.608637 277.278731 242.36279 
C 279.032885 244.116944 281.412362 245.102555 283.893109 245.102555 
z
" style="fill:#9acd32;stroke:#9acd32;"/>
    <path clip-path="url(#p30ac71f400)" d="M 255.026636 299.752194 
C 256.901905 299.752194 258.70062 299.007142 260.026636 297.681126 
C 261.352651 296.355111 262.097704 294.556395 262.097704 292.681126 
C 262.097704 290.805857 261.352651 289.007142 260.026636 287.681126 
C 258.70062 286.355111 256.901905 285.610058 255.026636 285.610058 
C 253.151367 285.610058 251.352651 286.355111 250.026636 287.681126 
C 248.70062 289.007142 247.955568 290.805857 247.955568 292.681126 
C 247.955568 294.556395 248.70062 296.355111 250.026636 297.681126 
C 251.352651 299.007142 253.151367 299.752194 255.026636 299.752194 
z
" style="fill:#32cd32;stroke:#32cd32;"/>
    <path clip-path="url(#p30ac71f400)" d="M 272.692483 229.395252 
C 274.567753 229.395252 276.366468 228.650199 277.692483 227.324184 
C 279.018499 225.998168 279.763551 224.199453 279.763551 222.324184 
C 279.763551 220.448915 279.018499 218.650199 277.692483 217.324184 
C 276.366468 215.998168 274.567753 215.253116 272.692483 215.253116 
C 270.817214 215.253116 269.018499 215.998168 267.692483 217.324184 
C 266.366468 218.650199 265.621416 220.448915 265.621416 222.324184 
C 265.621416 224.199453 266.366468 225.998168 267.692483 227.324184 
C 269.018499 228.650199 270.817214 229.395252 272.692483 229.395252 
z
" style="fill:#8fbc8f;stroke:#8fbc8f;"/>
    <path clip-path="url(#p30ac71f400)" d="M 251.991387 271.910194 
C 253.317402 271.910194 254.589286 271.383363 255.526921 270.445728 
C 256.464555 269.508094 256.991387 268.23621 256.991387 266.910194 
C 256.991387 265.584179 256.464555 264.312295 255.526921 263.37466 
C 254.589286 262.437026 253.317402 261.910194 251.991387 261.910194 
C 250.665371 261.910194 249.393487 262.437026 248.455853 263.37466 
C 247.518218 264.312295 246.991387 265.584179 246.991387 266.910194 
C 246.991387 268.23621 247.518218 269.508094 248.455853 270.445728 
C 249.393487 271.383363 250.665371 271.910194 251.991387 271.910194 
z
" style="fill:#800080;stroke:#800080;"/>
    <path clip-path="url(#p30ac71f400)" d="M 262.465918 231.518506 
C 264.089949 231.518506 265.647682 230.873272 266.796045 229.724909 
C 267.944408 228.576546 268.589643 227.018812 268.589643 225.394782 
C 268.589643 223.770751 267.944408 222.213018 266.796045 221.064655 
C 265.647682 219.916292 264.089949 219.271057 262.465918 219.271057 
C 260.841888 219.271057 259.284154 219.916292 258.135791 221.064655 
C 256.987428 222.213018 256.342194 223.770751 256.342194 225.394782 
C 256.342194 227.018812 256.987428 228.576546 258.135791 229.724909 
C 259.284154 230.873272 260.841888 231.518506 262.465918 231.518506 
z
" style="fill:#b03060;stroke:#b03060;"/>
    <path clip-path="url(#p30ac71f400)" d="M 264.540932 251.324214 
C 266.837658 251.324214 269.040625 250.411715 270.664656 248.787684 
C 272.288687 247.163654 273.201186 244.960686 273.201186 242.66396 
C 273.201186 240.367234 272.288687 238.164266 270.664656 236.540236 
C 269.040625 234.916205 266.837658 234.003706 264.540932 234.003706 
C 262.244205 234.003706 260.041238 234.916205 258.417207 236.540236 
C 256.793177 238.164266 255.880678 240.367234 255.880678 242.66396 
C 255.880678 244.960686 256.793177 247.163654 258.417207 248.787684 
C 260.041238 250.411715 262.244205 251.324214 264.540932 251.324214 
z
" style="fill:#9932cc;stroke:#9932cc;"/>
    <path clip-path="url(#p30ac71f400)" d="M 215.457558 283.048425 
C 217.754284 283.048425 219.957252 282.135926 221.581283 280.511896 
C 223.205313 278.887865 224.117812 276.684898 224.117812 274.388171 
C 224.117812 272.091445 223.205313 269.888478 221.581283 268.264447 
C 219.957252 266.640416 217.754284 265.727917 215.457558 265.727917 
C 213.160832 265.727917 210.957864 266.640416 209.333834 268.264447 
C 207.709803 269.888478 206.797304 272.091445 206.797304 274.388171 
C 206.797304 276.684898 207.709803 278.887865 209.333834 280.511896 
C 210.957864 282.135926 213.160832 283.048425 215.457558 283.048425 
z
" style="fill:#ff4500;stroke:#ff4500;"/>
    <path clip-path="url(#p30ac71f400)" d="M 233.495505 248.816817 
C 234.82152 248.816817 236.093404 248.289985 237.031039 247.352351 
C 237.968673 246.414716 238.495505 245.142832 238.495505 243.816817 
C 238.495505 242.490801 237.968673 241.218918 237.031039 240.281283 
C 236.093404 239.343648 234.82152 238.816817 233.495505 238.816817 
C 232.169489 238.816817 230.897606 239.343648 229.959971 240.281283 
C 229.022337 241.218918 228.495505 242.490801 228.495505 243.816817 
C 228.495505 245.142832 229.022337 246.414716 229.959971 247.352351 
C 230.897606 248.289985 232.169489 248.816817 233.495505 248.816817 
z
" style="fill:#00ced1;stroke:#00ced1;"/>
    <path clip-path="url(#p30ac71f400)" d="M 257.551224 262.446902 
C 259.175255 262.446902 260.732988 261.801668 261.881351 260.653305 
C 263.029714 259.504941 263.674948 257.947208 263.674948 256.323177 
C 263.674948 254.699147 263.029714 253.141414 261.881351 251.99305 
C 260.732988 250.844687 259.175255 250.199453 257.551224 250.199453 
C 255.927193 250.199453 254.36946 250.844687 253.221097 251.99305 
C 252.072734 253.141414 251.4275 254.699147 251.4275 256.323177 
C 251.4275 257.947208 252.072734 259.504941 253.221097 260.653305 
C 254.36946 261.801668 255.927193 262.446902 257.551224 262.446902 
z
" style="fill:#ffd700;stroke:#ffd700;"/>
    <path clip-path="url(#p30ac71f400)" d="M 268.267636 230.521775 
C 270.919667 230.521775 273.463435 229.468112 275.338704 227.592843 
C 277.213973 225.717574 278.267636 223.173806 278.267636 220.521775 
C 278.267636 217.869744 277.213973 215.325977 275.338704 213.450708 
C 273.463435 211.575439 270.919667 210.521775 268.267636 210.521775 
C 265.615605 210.521775 263.071838 211.575439 261.196569 213.450708 
C 259.321299 215.325977 258.267636 217.869744 258.267636 220.521775 
C 258.267636 223.173806 259.321299 225.717574 261.196569 227.592843 
C 263.071838 229.468112 265.615605 230.521775 268.267636 230.521775 
z
" style="fill:#0000cd;stroke:#0000cd;"/>
    <path clip-path="url(#p30ac71f400)" d="M 266.69375 232.32916 
C 268.56902 232.32916 270.367735 231.584108 271.69375 230.258092 
C 273.019766 228.932077 273.764818 227.133361 273.764818 225.258092 
C 273.764818 223.382823 273.019766 221.584108 271.69375 220.258092 
C 270.367735 218.932077 268.56902 218.187024 266.69375 218.187024 
C 264.818481 218.187024 263.019766 218.932077 261.69375 220.258092 
C 260.367735 221.584108 259.622683 223.382823 259.622683 225.258092 
C 259.622683 227.133361 260.367735 228.932077 261.69375 230.258092 
C 263.019766 231.584108 264.818481 232.32916 266.69375 232.32916 
z
" style="fill:#deb887;stroke:#deb887;"/>
    <path clip-path="url(#p30ac71f400)" d="M 256.470338 311.798893 
C 258.094369 311.798893 259.652102 311.153659 260.800465 310.005295 
C 261.948828 308.856932 262.594062 307.299199 262.594062 305.675168 
C 262.594062 304.051138 261.948828 302.493405 260.800465 301.345041 
C 259.652102 300.196678 258.094369 299.551444 256.470338 299.551444 
C 254.846307 299.551444 253.288574 300.196678 252.140211 301.345041 
C 250.991848 302.493405 250.346614 304.051138 250.346614 305.675168 
C 250.346614 307.299199 250.991848 308.856932 252.140211 310.005295 
C 253.288574 311.153659 254.846307 311.798893 256.470338 311.798893 
z
" style="fill:#00ff00;stroke:#00ff00;"/>
    <path clip-path="url(#p30ac71f400)" d="M 264.007809 231.476908 
C 265.333824 231.476908 266.605708 230.950077 267.543343 230.012442 
C 268.480977 229.074808 269.007809 227.802924 269.007809 226.476908 
C 269.007809 225.150893 268.480977 223.879009 267.543343 222.941375 
C 266.605708 222.00374 265.333824 221.476908 264.007809 221.476908 
C 262.681793 221.476908 261.40991 222.00374 260.472275 222.941375 
C 259.53464 223.879009 259.007809 225.150893 259.007809 226.476908 
C 259.007809 227.802924 259.53464 229.074808 260.472275 230.012442 
C 261.40991 230.950077 262.681793 231.476908 264.007809 231.476908 
z
" style="fill:#00fa9a;stroke:#00fa9a;"/>
    <path clip-path="url(#p30ac71f400)" d="M 262.67528 262.755332 
C 264.299311 262.755332 265.857044 262.110098 267.005407 260.961735 
C 268.15377 259.813372 268.799004 258.255639 268.799004 256.631608 
C 268.799004 255.007577 268.15377 253.449844 267.005407 252.301481 
C 265.857044 251.153118 264.299311 250.507884 262.67528 250.507884 
C 261.051249 250.507884 259.493516 251.153118 258.345153 252.301481 
C 257.19679 253.449844 256.551556 255.007577 256.551556 256.631608 
C 256.551556 258.255639 257.19679 259.813372 258.345153 260.961735 
C 259.493516 262.110098 261.051249 262.755332 262.67528 262.755332 
z
" style="fill:#dc143c;stroke:#dc143c;"/>
    <path clip-path="url(#p30ac71f400)" d="M 258.314633 265.380364 
C 260.411248 265.380364 262.422273 264.54737 263.904803 263.06484 
C 265.387334 261.58231 266.220327 259.571285 266.220327 257.47467 
C 266.220327 255.378056 265.387334 253.367031 263.904803 251.8845 
C 262.422273 250.40197 260.411248 249.568976 258.314633 249.568976 
C 256.218019 249.568976 254.206994 250.40197 252.724463 251.8845 
C 251.241933 253.367031 250.408939 255.378056 250.408939 257.47467 
C 250.408939 259.571285 251.241933 261.58231 252.724463 263.06484 
C 254.206994 264.54737 256.218019 265.380364 258.314633 265.380364 
z
" style="fill:#00bfff;stroke:#00bfff;"/>
    <path clip-path="url(#p30ac71f400)" d="M 271.810055 292.384164 
C 273.13607 292.384164 274.407954 291.857333 275.345588 290.919698 
C 276.283223 289.982064 276.810055 288.71018 276.810055 287.384164 
C 276.810055 286.058149 276.283223 284.786265 275.345588 283.84863 
C 274.407954 282.910996 273.13607 282.384164 271.810055 282.384164 
C 270.484039 282.384164 269.212155 282.910996 268.274521 283.84863 
C 267.336886 284.786265 266.810055 286.058149 266.810055 287.384164 
C 266.810055 288.71018 267.336886 289.982064 268.274521 290.919698 
C 269.212155 291.857333 270.484039 292.384164 271.810055 292.384164 
z
" style="fill:#f4a460;stroke:#f4a460;"/>
    <path clip-path="url(#p30ac71f400)" d="M 256.315436 228.818682 
C 257.641452 228.818682 258.913336 228.291851 259.85097 227.354216 
C 260.788605 226.416582 261.315436 225.144698 261.315436 223.818682 
C 261.315436 222.492667 260.788605 221.220783 259.85097 220.283148 
C 258.913336 219.345514 257.641452 218.818682 256.315436 218.818682 
C 254.989421 218.818682 253.717537 219.345514 252.779902 220.283148 
C 251.842268 221.220783 251.315436 222.492667 251.315436 223.818682 
C 251.315436 225.144698 251.842268 226.416582 252.779902 227.354216 
C 253.717537 228.291851 254.989421 228.818682 256.315436 228.818682 
z
" style="fill:#0000ff;stroke:#0000ff;"/>
    <path clip-path="url(#p30ac71f400)" d="M 242.032092 265.751572 
C 243.907361 265.751572 245.706077 265.00652 247.032092 263.680505 
C 248.358108 262.354489 249.10316 260.555774 249.10316 258.680505 
C 249.10316 256.805236 248.358108 255.00652 247.032092 253.680505 
C 245.706077 252.354489 243.907361 251.609437 242.032092 251.609437 
C 240.156823 251.609437 238.358108 252.354489 237.032092 253.680505 
C 235.706077 255.00652 234.961024 256.805236 234.961024 258.680505 
C 234.961024 260.555774 235.706077 262.354489 237.032092 263.680505 
C 238.358108 265.00652 240.156823 265.751572 242.032092 265.751572 
z
" style="fill:#adff2f;stroke:#adff2f;"/>
   </g>
   <g id="matplotlib.axis_1">
    <g id="xtick_1">
     <g id="line2d_1">
      <defs>
       <path d="M 0 0 
L 0 3.5 
" id="m29efdd2874" style="stroke:#000000;stroke-width:0.8;"/>
      </defs>
      <g>
       <use style="stroke:#000000;stroke-width:0.8;" x="258.3" xlink:href="#m29efdd2874" y="576.72"/>
      </g>
     </g>
     <g id="text_1">
      <!-- MeanPD -->
      <g transform="translate(237.811719 591.318438)scale(0.1 -0.1)">
       <defs>
        <path d="M 9.8125 72.90625 
L 24.515625 72.90625 
L 43.109375 23.296875 
L 61.8125 72.90625 
L 76.515625 72.90625 
L 76.515625 0 
L 66.890625 0 
L 66.890625 64.015625 
L 48.09375 14.015625 
L 38.1875 14.015625 
L 19.390625 64.015625 
L 19.390625 0 
L 9.8125 0 
z
" id="DejaVuSans-77"/>
        <path d="M 56.203125 29.59375 
L 56.203125 25.203125 
L 14.890625 25.203125 
Q 15.484375 15.921875 20.484375 11.0625 
Q 25.484375 6.203125 34.421875 6.203125 
Q 39.59375 6.203125 44.453125 7.46875 
Q 49.3125 8.734375 54.109375 11.28125 
L 54.109375 2.78125 
Q 49.265625 0.734375 44.1875 -0.34375 
Q 39.109375 -1.421875 33.890625 -1.421875 
Q 20.796875 -1.421875 13.15625 6.1875 
Q 5.515625 13.8125 5.515625 26.8125 
Q 5.515625 40.234375 12.765625 48.109375 
Q 20.015625 56 32.328125 56 
Q 43.359375 56 49.78125 48.890625 
Q 56.203125 41.796875 56.203125 29.59375 
z
M 47.21875 32.234375 
Q 47.125 39.59375 43.09375 43.984375 
Q 39.0625 48.390625 32.421875 48.390625 
Q 24.90625 48.390625 20.390625 44.140625 
Q 15.875 39.890625 15.1875 32.171875 
z
" id="DejaVuSans-101"/>
        <path d="M 34.28125 27.484375 
Q 23.390625 27.484375 19.1875 25 
Q 14.984375 22.515625 14.984375 16.5 
Q 14.984375 11.71875 18.140625 8.90625 
Q 21.296875 6.109375 26.703125 6.109375 
Q 34.1875 6.109375 38.703125 11.40625 
Q 43.21875 16.703125 43.21875 25.484375 
L 43.21875 27.484375 
z
M 52.203125 31.203125 
L 52.203125 0 
L 43.21875 0 
L 43.21875 8.296875 
Q 40.140625 3.328125 35.546875 0.953125 
Q 30.953125 -1.421875 24.3125 -1.421875 
Q 15.921875 -1.421875 10.953125 3.296875 
Q 6 8.015625 6 15.921875 
Q 6 25.140625 12.171875 29.828125 
Q 18.359375 34.515625 30.609375 34.515625 
L 43.21875 34.515625 
L 43.21875 35.40625 
Q 43.21875 41.609375 39.140625 45 
Q 35.0625 48.390625 27.6875 48.390625 
Q 23 48.390625 18.546875 47.265625 
Q 14.109375 46.140625 10.015625 43.890625 
L 10.015625 52.203125 
Q 14.9375 54.109375 19.578125 55.046875 
Q 24.21875 56 28.609375 56 
Q 40.484375 56 46.34375 49.84375 
Q 52.203125 43.703125 52.203125 31.203125 
z
" id="DejaVuSans-97"/>
        <path d="M 54.890625 33.015625 
L 54.890625 0 
L 45.90625 0 
L 45.90625 32.71875 
Q 45.90625 40.484375 42.875 44.328125 
Q 39.84375 48.1875 33.796875 48.1875 
Q 26.515625 48.1875 22.3125 43.546875 
Q 18.109375 38.921875 18.109375 30.90625 
L 18.109375 0 
L 9.078125 0 
L 9.078125 54.6875 
L 18.109375 54.6875 
L 18.109375 46.1875 
Q 21.34375 51.125 25.703125 53.5625 
Q 30.078125 56 35.796875 56 
Q 45.21875 56 50.046875 50.171875 
Q 54.890625 44.34375 54.890625 33.015625 
z
" id="DejaVuSans-110"/>
        <path d="M 19.671875 64.796875 
L 19.671875 37.40625 
L 32.078125 37.40625 
Q 38.96875 37.40625 42.71875 40.96875 
Q 46.484375 44.53125 46.484375 51.125 
Q 46.484375 57.671875 42.71875 61.234375 
Q 38.96875 64.796875 32.078125 64.796875 
z
M 9.8125 72.90625 
L 32.078125 72.90625 
Q 44.34375 72.90625 50.609375 67.359375 
Q 56.890625 61.8125 56.890625 51.125 
Q 56.890625 40.328125 50.609375 34.8125 
Q 44.34375 29.296875 32.078125 29.296875 
L 19.671875 29.296875 
L 19.671875 0 
L 9.8125 0 
z
" id="DejaVuSans-80"/>
        <path d="M 19.671875 64.796875 
L 19.671875 8.109375 
L 31.59375 8.109375 
Q 46.6875 8.109375 53.6875 14.9375 
Q 60.6875 21.78125 60.6875 36.53125 
Q 60.6875 51.171875 53.6875 57.984375 
Q 46.6875 64.796875 31.59375 64.796875 
z
M 9.8125 72.90625 
L 30.078125 72.90625 
Q 51.265625 72.90625 61.171875 64.09375 
Q 71.09375 55.28125 71.09375 36.53125 
Q 71.09375 17.671875 61.125 8.828125 
Q 51.171875 0 30.078125 0 
L 9.8125 0 
z
" id="DejaVuSans-68"/>
       </defs>
       <use xlink:href="#DejaVuSans-77"/>
       <use x="86.279297" xlink:href="#DejaVuSans-101"/>
       <use x="147.802734" xlink:href="#DejaVuSans-97"/>
       <use x="209.082031" xlink:href="#DejaVuSans-110"/>
       <use x="272.460938" xlink:href="#DejaVuSans-80"/>
       <use x="332.763672" xlink:href="#DejaVuSans-68"/>
      </g>
     </g>
    </g>
   </g>
   <g id="matplotlib.axis_2">
    <g id="ytick_1">
     <g id="line2d_2">
      <defs>
       <path d="M 0 0 
L -3.5 0 
" id="m5f89ff215a" style="stroke:#000000;stroke-width:0.8;"/>
      </defs>
      <g>
       <use style="stroke:#000000;stroke-width:0.8;" x="63" xlink:href="#m5f89ff215a" y="576.72"/>
      </g>
     </g>
     <g id="text_2">
      <!-- −3.5 -->
      <g transform="translate(31.717187 580.519219)scale(0.1 -0.1)">
       <defs>
        <path d="M 10.59375 35.5 
L 73.1875 35.5 
L 73.1875 27.203125 
L 10.59375 27.203125 
z
" id="DejaVuSans-8722"/>
        <path d="M 40.578125 39.3125 
Q 47.65625 37.796875 51.625 33 
Q 55.609375 28.21875 55.609375 21.1875 
Q 55.609375 10.40625 48.1875 4.484375 
Q 40.765625 -1.421875 27.09375 -1.421875 
Q 22.515625 -1.421875 17.65625 -0.515625 
Q 12.796875 0.390625 7.625 2.203125 
L 7.625 11.71875 
Q 11.71875 9.328125 16.59375 8.109375 
Q 21.484375 6.890625 26.8125 6.890625 
Q 36.078125 6.890625 40.9375 10.546875 
Q 45.796875 14.203125 45.796875 21.1875 
Q 45.796875 27.640625 41.28125 31.265625 
Q 36.765625 34.90625 28.71875 34.90625 
L 20.21875 34.90625 
L 20.21875 43.015625 
L 29.109375 43.015625 
Q 36.375 43.015625 40.234375 45.921875 
Q 44.09375 48.828125 44.09375 54.296875 
Q 44.09375 59.90625 40.109375 62.90625 
Q 36.140625 65.921875 28.71875 65.921875 
Q 24.65625 65.921875 20.015625 65.03125 
Q 15.375 64.15625 9.8125 62.3125 
L 9.8125 71.09375 
Q 15.4375 72.65625 20.34375 73.4375 
Q 25.25 74.21875 29.59375 74.21875 
Q 40.828125 74.21875 47.359375 69.109375 
Q 53.90625 64.015625 53.90625 55.328125 
Q 53.90625 49.265625 50.4375 45.09375 
Q 46.96875 40.921875 40.578125 39.3125 
z
" id="DejaVuSans-51"/>
        <path d="M 10.6875 12.40625 
L 21 12.40625 
L 21 0 
L 10.6875 0 
z
" id="DejaVuSans-46"/>
        <path d="M 10.796875 72.90625 
L 49.515625 72.90625 
L 49.515625 64.59375 
L 19.828125 64.59375 
L 19.828125 46.734375 
Q 21.96875 47.46875 24.109375 47.828125 
Q 26.265625 48.1875 28.421875 48.1875 
Q 40.625 48.1875 47.75 41.5 
Q 54.890625 34.8125 54.890625 23.390625 
Q 54.890625 11.625 47.5625 5.09375 
Q 40.234375 -1.421875 26.90625 -1.421875 
Q 22.3125 -1.421875 17.546875 -0.640625 
Q 12.796875 0.140625 7.71875 1.703125 
L 7.71875 11.625 
Q 12.109375 9.234375 16.796875 8.0625 
Q 21.484375 6.890625 26.703125 6.890625 
Q 35.15625 6.890625 40.078125 11.328125 
Q 45.015625 15.765625 45.015625 23.390625 
Q 45.015625 31 40.078125 35.4375 
Q 35.15625 39.890625 26.703125 39.890625 
Q 22.75 39.890625 18.8125 39.015625 
Q 14.890625 38.140625 10.796875 36.28125 
z
" id="DejaVuSans-53"/>
       </defs>
       <use xlink:href="#DejaVuSans-8722"/>
       <use x="83.789062" xlink:href="#DejaVuSans-51"/>
       <use x="147.412109" xlink:href="#DejaVuSans-46"/>
       <use x="179.199219" xlink:href="#DejaVuSans-53"/>
      </g>
     </g>
    </g>
    <g id="ytick_2">
     <g id="line2d_3">
      <g>
       <use style="stroke:#000000;stroke-width:0.8;" x="63" xlink:href="#m5f89ff215a" y="538.92"/>
      </g>
     </g>
     <g id="text_3">
      <!-- −3.0 -->
      <g transform="translate(31.717187 542.719219)scale(0.1 -0.1)">
       <defs>
        <path d="M 31.78125 66.40625 
Q 24.171875 66.40625 20.328125 58.90625 
Q 16.5 51.421875 16.5 36.375 
Q 16.5 21.390625 20.328125 13.890625 
Q 24.171875 6.390625 31.78125 6.390625 
Q 39.453125 6.390625 43.28125 13.890625 
Q 47.125 21.390625 47.125 36.375 
Q 47.125 51.421875 43.28125 58.90625 
Q 39.453125 66.40625 31.78125 66.40625 
z
M 31.78125 74.21875 
Q 44.046875 74.21875 50.515625 64.515625 
Q 56.984375 54.828125 56.984375 36.375 
Q 56.984375 17.96875 50.515625 8.265625 
Q 44.046875 -1.421875 31.78125 -1.421875 
Q 19.53125 -1.421875 13.0625 8.265625 
Q 6.59375 17.96875 6.59375 36.375 
Q 6.59375 54.828125 13.0625 64.515625 
Q 19.53125 74.21875 31.78125 74.21875 
z
" id="DejaVuSans-48"/>
       </defs>
       <use xlink:href="#DejaVuSans-8722"/>
       <use x="83.789062" xlink:href="#DejaVuSans-51"/>
       <use x="147.412109" xlink:href="#DejaVuSans-46"/>
       <use x="179.199219" xlink:href="#DejaVuSans-48"/>
      </g>
     </g>
    </g>
    <g id="ytick_3">
     <g id="line2d_4">
      <g>
       <use style="stroke:#000000;stroke-width:0.8;" x="63" xlink:href="#m5f89ff215a" y="501.12"/>
      </g>
     </g>
     <g id="text_4">
      <!-- −2.5 -->
      <g transform="translate(31.717187 504.919219)scale(0.1 -0.1)">
       <defs>
        <path d="M 19.1875 8.296875 
L 53.609375 8.296875 
L 53.609375 0 
L 7.328125 0 
L 7.328125 8.296875 
Q 12.9375 14.109375 22.625 23.890625 
Q 32.328125 33.6875 34.8125 36.53125 
Q 39.546875 41.84375 41.421875 45.53125 
Q 43.3125 49.21875 43.3125 52.78125 
Q 43.3125 58.59375 39.234375 62.25 
Q 35.15625 65.921875 28.609375 65.921875 
Q 23.96875 65.921875 18.8125 64.3125 
Q 13.671875 62.703125 7.8125 59.421875 
L 7.8125 69.390625 
Q 13.765625 71.78125 18.9375 73 
Q 24.125 74.21875 28.421875 74.21875 
Q 39.75 74.21875 46.484375 68.546875 
Q 53.21875 62.890625 53.21875 53.421875 
Q 53.21875 48.921875 51.53125 44.890625 
Q 49.859375 40.875 45.40625 35.40625 
Q 44.1875 33.984375 37.640625 27.21875 
Q 31.109375 20.453125 19.1875 8.296875 
z
" id="DejaVuSans-50"/>
       </defs>
       <use xlink:href="#DejaVuSans-8722"/>
       <use x="83.789062" xlink:href="#DejaVuSans-50"/>
       <use x="147.412109" xlink:href="#DejaVuSans-46"/>
       <use x="179.199219" xlink:href="#DejaVuSans-53"/>
      </g>
     </g>
    </g>
    <g id="ytick_4">
     <g id="line2d_5">
      <g>
       <use style="stroke:#000000;stroke-width:0.8;" x="63" xlink:href="#m5f89ff215a" y="463.32"/>
      </g>
     </g>
     <g id="text_5">
      <!-- −2.0 -->
      <g transform="translate(31.717187 467.119219)scale(0.1 -0.1)">
       <use xlink:href="#DejaVuSans-8722"/>
       <use x="83.789062" xlink:href="#DejaVuSans-50"/>
       <use x="147.412109" xlink:href="#DejaVuSans-46"/>
       <use x="179.199219" xlink:href="#DejaVuSans-48"/>
      </g>
     </g>
    </g>
    <g id="ytick_5">
     <g id="line2d_6">
      <g>
       <use style="stroke:#000000;stroke-width:0.8;" x="63" xlink:href="#m5f89ff215a" y="425.52"/>
      </g>
     </g>
     <g id="text_6">
      <!-- −1.5 -->
      <g transform="translate(31.717187 429.319219)scale(0.1 -0.1)">
       <defs>
        <path d="M 12.40625 8.296875 
L 28.515625 8.296875 
L 28.515625 63.921875 
L 10.984375 60.40625 
L 10.984375 69.390625 
L 28.421875 72.90625 
L 38.28125 72.90625 
L 38.28125 8.296875 
L 54.390625 8.296875 
L 54.390625 0 
L 12.40625 0 
z
" id="DejaVuSans-49"/>
       </defs>
       <use xlink:href="#DejaVuSans-8722"/>
       <use x="83.789062" xlink:href="#DejaVuSans-49"/>
       <use x="147.412109" xlink:href="#DejaVuSans-46"/>
       <use x="179.199219" xlink:href="#DejaVuSans-53"/>
      </g>
     </g>
    </g>
    <g id="ytick_6">
     <g id="line2d_7">
      <g>
       <use style="stroke:#000000;stroke-width:0.8;" x="63" xlink:href="#m5f89ff215a" y="387.72"/>
      </g>
     </g>
     <g id="text_7">
      <!-- −1.0 -->
      <g transform="translate(31.717187 391.519219)scale(0.1 -0.1)">
       <use xlink:href="#DejaVuSans-8722"/>
       <use x="83.789062" xlink:href="#DejaVuSans-49"/>
       <use x="147.412109" xlink:href="#DejaVuSans-46"/>
       <use x="179.199219" xlink:href="#DejaVuSans-48"/>
      </g>
     </g>
    </g>
    <g id="ytick_7">
     <g id="line2d_8">
      <g>
       <use style="stroke:#000000;stroke-width:0.8;" x="63" xlink:href="#m5f89ff215a" y="349.92"/>
      </g>
     </g>
     <g id="text_8">
      <!-- −0.5 -->
      <g transform="translate(31.717187 353.719219)scale(0.1 -0.1)">
       <use xlink:href="#DejaVuSans-8722"/>
       <use x="83.789062" xlink:href="#DejaVuSans-48"/>
       <use x="147.412109" xlink:href="#DejaVuSans-46"/>
       <use x="179.199219" xlink:href="#DejaVuSans-53"/>
      </g>
     </g>
    </g>
    <g id="ytick_8">
     <g id="line2d_9">
      <g>
       <use style="stroke:#000000;stroke-width:0.8;" x="63" xlink:href="#m5f89ff215a" y="312.12"/>
      </g>
     </g>
     <g id="text_9">
      <!-- 0.0 -->
      <g transform="translate(40.096875 315.919219)scale(0.1 -0.1)">
       <use xlink:href="#DejaVuSans-48"/>
       <use x="63.623047" xlink:href="#DejaVuSans-46"/>
       <use x="95.410156" xlink:href="#DejaVuSans-48"/>
      </g>
     </g>
    </g>
    <g id="ytick_9">
     <g id="line2d_10">
      <g>
       <use style="stroke:#000000;stroke-width:0.8;" x="63" xlink:href="#m5f89ff215a" y="274.32"/>
      </g>
     </g>
     <g id="text_10">
      <!-- 0.5 -->
      <g transform="translate(40.096875 278.119219)scale(0.1 -0.1)">
       <use xlink:href="#DejaVuSans-48"/>
       <use x="63.623047" xlink:href="#DejaVuSans-46"/>
       <use x="95.410156" xlink:href="#DejaVuSans-53"/>
      </g>
     </g>
    </g>
    <g id="ytick_10">
     <g id="line2d_11">
      <g>
       <use style="stroke:#000000;stroke-width:0.8;" x="63" xlink:href="#m5f89ff215a" y="236.52"/>
      </g>
     </g>
     <g id="text_11">
      <!-- 1.0 -->
      <g transform="translate(40.096875 240.319219)scale(0.1 -0.1)">
       <use xlink:href="#DejaVuSans-49"/>
       <use x="63.623047" xlink:href="#DejaVuSans-46"/>
       <use x="95.410156" xlink:href="#DejaVuSans-48"/>
      </g>
     </g>
    </g>
    <g id="ytick_11">
     <g id="line2d_12">
      <g>
       <use style="stroke:#000000;stroke-width:0.8;" x="63" xlink:href="#m5f89ff215a" y="198.72"/>
      </g>
     </g>
     <g id="text_12">
      <!-- 1.5 -->
      <g transform="translate(40.096875 202.519219)scale(0.1 -0.1)">
       <use xlink:href="#DejaVuSans-49"/>
       <use x="63.623047" xlink:href="#DejaVuSans-46"/>
       <use x="95.410156" xlink:href="#DejaVuSans-53"/>
      </g>
     </g>
    </g>
    <g id="ytick_12">
     <g id="line2d_13">
      <g>
       <use style="stroke:#000000;stroke-width:0.8;" x="63" xlink:href="#m5f89ff215a" y="160.92"/>
      </g>
     </g>
     <g id="text_13">
      <!-- 2.0 -->
      <g transform="translate(40.096875 164.719219)scale(0.1 -0.1)">
       <use xlink:href="#DejaVuSans-50"/>
       <use x="63.623047" xlink:href="#DejaVuSans-46"/>
       <use x="95.410156" xlink:href="#DejaVuSans-48"/>
      </g>
     </g>
    </g>
    <g id="ytick_13">
     <g id="line2d_14">
      <g>
       <use style="stroke:#000000;stroke-width:0.8;" x="63" xlink:href="#m5f89ff215a" y="123.12"/>
      </g>
     </g>
     <g id="text_14">
      <!-- 2.5 -->
      <g transform="translate(40.096875 126.919219)scale(0.1 -0.1)">
       <use xlink:href="#DejaVuSans-50"/>
       <use x="63.623047" xlink:href="#DejaVuSans-46"/>
       <use x="95.410156" xlink:href="#DejaVuSans-53"/>
      </g>
     </g>
    </g>
    <g id="ytick_14">
     <g id="line2d_15">
      <g>
       <use style="stroke:#000000;stroke-width:0.8;" x="63" xlink:href="#m5f89ff215a" y="85.32"/>
      </g>
     </g>
     <g id="text_15">
      <!-- 3.0 -->
      <g transform="translate(40.096875 89.119219)scale(0.1 -0.1)">
       <use xlink:href="#DejaVuSans-51"/>
       <use x="63.623047" xlink:href="#DejaVuSans-46"/>
       <use x="95.410156" xlink:href="#DejaVuSans-48"/>
      </g>
     </g>
    </g>
    <g id="text_16">
     <!-- LogOdds -->
     <g transform="translate(25.6375 349.061094)rotate(-90)scale(0.1 -0.1)">
      <defs>
       <path d="M 9.8125 72.90625 
L 19.671875 72.90625 
L 19.671875 8.296875 
L 55.171875 8.296875 
L 55.171875 0 
L 9.8125 0 
z
" id="DejaVuSans-76"/>
       <path d="M 30.609375 48.390625 
Q 23.390625 48.390625 19.1875 42.75 
Q 14.984375 37.109375 14.984375 27.296875 
Q 14.984375 17.484375 19.15625 11.84375 
Q 23.34375 6.203125 30.609375 6.203125 
Q 37.796875 6.203125 41.984375 11.859375 
Q 46.1875 17.53125 46.1875 27.296875 
Q 46.1875 37.015625 41.984375 42.703125 
Q 37.796875 48.390625 30.609375 48.390625 
z
M 30.609375 56 
Q 42.328125 56 49.015625 48.375 
Q 55.71875 40.765625 55.71875 27.296875 
Q 55.71875 13.875 49.015625 6.21875 
Q 42.328125 -1.421875 30.609375 -1.421875 
Q 18.84375 -1.421875 12.171875 6.21875 
Q 5.515625 13.875 5.515625 27.296875 
Q 5.515625 40.765625 12.171875 48.375 
Q 18.84375 56 30.609375 56 
z
" id="DejaVuSans-111"/>
       <path d="M 45.40625 27.984375 
Q 45.40625 37.75 41.375 43.109375 
Q 37.359375 48.484375 30.078125 48.484375 
Q 22.859375 48.484375 18.828125 43.109375 
Q 14.796875 37.75 14.796875 27.984375 
Q 14.796875 18.265625 18.828125 12.890625 
Q 22.859375 7.515625 30.078125 7.515625 
Q 37.359375 7.515625 41.375 12.890625 
Q 45.40625 18.265625 45.40625 27.984375 
z
M 54.390625 6.78125 
Q 54.390625 -7.171875 48.1875 -13.984375 
Q 42 -20.796875 29.203125 -20.796875 
Q 24.46875 -20.796875 20.265625 -20.09375 
Q 16.0625 -19.390625 12.109375 -17.921875 
L 12.109375 -9.1875 
Q 16.0625 -11.328125 19.921875 -12.34375 
Q 23.78125 -13.375 27.78125 -13.375 
Q 36.625 -13.375 41.015625 -8.765625 
Q 45.40625 -4.15625 45.40625 5.171875 
L 45.40625 9.625 
Q 42.625 4.78125 38.28125 2.390625 
Q 33.9375 0 27.875 0 
Q 17.828125 0 11.671875 7.65625 
Q 5.515625 15.328125 5.515625 27.984375 
Q 5.515625 40.671875 11.671875 48.328125 
Q 17.828125 56 27.875 56 
Q 33.9375 56 38.28125 53.609375 
Q 42.625 51.21875 45.40625 46.390625 
L 45.40625 54.6875 
L 54.390625 54.6875 
z
" id="DejaVuSans-103"/>
       <path d="M 39.40625 66.21875 
Q 28.65625 66.21875 22.328125 58.203125 
Q 16.015625 50.203125 16.015625 36.375 
Q 16.015625 22.609375 22.328125 14.59375 
Q 28.65625 6.59375 39.40625 6.59375 
Q 50.140625 6.59375 56.421875 14.59375 
Q 62.703125 22.609375 62.703125 36.375 
Q 62.703125 50.203125 56.421875 58.203125 
Q 50.140625 66.21875 39.40625 66.21875 
z
M 39.40625 74.21875 
Q 54.734375 74.21875 63.90625 63.9375 
Q 73.09375 53.65625 73.09375 36.375 
Q 73.09375 19.140625 63.90625 8.859375 
Q 54.734375 -1.421875 39.40625 -1.421875 
Q 24.03125 -1.421875 14.8125 8.828125 
Q 5.609375 19.09375 5.609375 36.375 
Q 5.609375 53.65625 14.8125 63.9375 
Q 24.03125 74.21875 39.40625 74.21875 
z
" id="DejaVuSans-79"/>
       <path d="M 45.40625 46.390625 
L 45.40625 75.984375 
L 54.390625 75.984375 
L 54.390625 0 
L 45.40625 0 
L 45.40625 8.203125 
Q 42.578125 3.328125 38.25 0.953125 
Q 33.9375 -1.421875 27.875 -1.421875 
Q 17.96875 -1.421875 11.734375 6.484375 
Q 5.515625 14.40625 5.515625 27.296875 
Q 5.515625 40.1875 11.734375 48.09375 
Q 17.96875 56 27.875 56 
Q 33.9375 56 38.25 53.625 
Q 42.578125 51.265625 45.40625 46.390625 
z
M 14.796875 27.296875 
Q 14.796875 17.390625 18.875 11.75 
Q 22.953125 6.109375 30.078125 6.109375 
Q 37.203125 6.109375 41.296875 11.75 
Q 45.40625 17.390625 45.40625 27.296875 
Q 45.40625 37.203125 41.296875 42.84375 
Q 37.203125 48.484375 30.078125 48.484375 
Q 22.953125 48.484375 18.875 42.84375 
Q 14.796875 37.203125 14.796875 27.296875 
z
" id="DejaVuSans-100"/>
       <path d="M 44.28125 53.078125 
L 44.28125 44.578125 
Q 40.484375 46.53125 36.375 47.5 
Q 32.28125 48.484375 27.875 48.484375 
Q 21.1875 48.484375 17.84375 46.4375 
Q 14.5 44.390625 14.5 40.28125 
Q 14.5 37.15625 16.890625 35.375 
Q 19.28125 33.59375 26.515625 31.984375 
L 29.59375 31.296875 
Q 39.15625 29.25 43.1875 25.515625 
Q 47.21875 21.78125 47.21875 15.09375 
Q 47.21875 7.46875 41.1875 3.015625 
Q 35.15625 -1.421875 24.609375 -1.421875 
Q 20.21875 -1.421875 15.453125 -0.5625 
Q 10.6875 0.296875 5.421875 2 
L 5.421875 11.28125 
Q 10.40625 8.6875 15.234375 7.390625 
Q 20.0625 6.109375 24.8125 6.109375 
Q 31.15625 6.109375 34.5625 8.28125 
Q 37.984375 10.453125 37.984375 14.40625 
Q 37.984375 18.0625 35.515625 20.015625 
Q 33.0625 21.96875 24.703125 23.78125 
L 21.578125 24.515625 
Q 13.234375 26.265625 9.515625 29.90625 
Q 5.8125 33.546875 5.8125 39.890625 
Q 5.8125 47.609375 11.28125 51.796875 
Q 16.75 56 26.8125 56 
Q 31.78125 56 36.171875 55.265625 
Q 40.578125 54.546875 44.28125 53.078125 
z
" id="DejaVuSans-115"/>
      </defs>
      <use xlink:href="#DejaVuSans-76"/>
      <use x="53.962891" xlink:href="#DejaVuSans-111"/>
      <use x="115.144531" xlink:href="#DejaVuSans-103"/>
      <use x="178.621094" xlink:href="#DejaVuSans-79"/>
      <use x="257.332031" xlink:href="#DejaVuSans-100"/>
      <use x="320.808594" xlink:href="#DejaVuSans-100"/>
      <use x="384.285156" xlink:href="#DejaVuSans-115"/>
     </g>
    </g>
   </g>
   <g id="line2d_16">
    <path clip-path="url(#p30ac71f400)" d="M 229.005 270.649183 
L 287.595 270.649183 
L 287.595 225.326437 
L 229.005 225.326437 
L 229.005 270.649183 
" style="fill:none;stroke:#000000;stroke-linecap:square;"/>
   </g>
   <g id="line2d_17">
    <path clip-path="url(#p30ac71f400)" d="M 258.3 270.649183 
L 258.3 305.675168 
" style="fill:none;stroke:#000000;stroke-linecap:square;"/>
   </g>
   <g id="line2d_18">
    <path clip-path="url(#p30ac71f400)" d="M 258.3 225.326437 
L 258.3 209.020005 
" style="fill:none;stroke:#000000;stroke-linecap:square;"/>
   </g>
   <g id="line2d_19">
    <path clip-path="url(#p30ac71f400)" d="M 243.6525 305.675168 
L 272.9475 305.675168 
" style="fill:none;stroke:#000000;stroke-linecap:square;"/>
   </g>
   <g id="line2d_20">
    <path clip-path="url(#p30ac71f400)" d="M 243.6525 209.020005 
L 272.9475 209.020005 
" style="fill:none;stroke:#000000;stroke-linecap:square;"/>
   </g>
   <g id="line2d_21">
    <path clip-path="url(#p30ac71f400)" d="M 229.005 243.816817 
L 287.595 243.816817 
" style="fill:none;stroke:#ff7f0e;stroke-linecap:square;"/>
   </g>
   <g id="patch_3">
    <path d="M 63 576.72 
L 63 77.76 
" style="fill:none;stroke:#000000;stroke-linecap:square;stroke-linejoin:miter;stroke-width:0.8;"/>
   </g>
   <g id="patch_4">
    <path d="M 453.6 576.72 
L 453.6 77.76 
" style="fill:none;stroke:#000000;stroke-linecap:square;stroke-linejoin:miter;stroke-width:0.8;"/>
   </g>
   <g id="patch_5">
    <path d="M 63 576.72 
L 453.6 576.72 
" style="fill:none;stroke:#000000;stroke-linecap:square;stroke-linejoin:miter;stroke-width:0.8;"/>
   </g>
   <g id="patch_6">
    <path d="M 63 77.76 
L 453.6 77.76 
" style="fill:none;stroke:#000000;stroke-linecap:square;stroke-linejoin:miter;stroke-width:0.8;"/>
   </g>
   <g id="text_17">
    <!-- 0.0 -->
    <g style="fill:#2f4f4f;" transform="translate(239.771139 296.989921)scale(0.1 -0.1)">
     <use xlink:href="#DejaVuSans-48"/>
     <use x="63.623047" xlink:href="#DejaVuSans-46"/>
     <use x="95.410156" xlink:href="#DejaVuSans-48"/>
    </g>
   </g>
   <g id="text_18">
    <!-- 1 -->
    <g style="fill:#556b2f;" transform="translate(268.872961 240.344123)scale(0.1 -0.1)">
     <use xlink:href="#DejaVuSans-49"/>
    </g>
   </g>
   <g id="text_19">
    <!-- 2 -->
    <g style="fill:#8b4513;" transform="translate(292.891243 223.085094)scale(0.1 -0.1)">
     <use xlink:href="#DejaVuSans-50"/>
    </g>
   </g>
   <g id="text_20">
    <!-- 3 -->
    <g style="fill:#2e8b57;" transform="translate(267.640896 246.772085)scale(0.1 -0.1)">
     <use xlink:href="#DejaVuSans-51"/>
    </g>
   </g>
   <g id="text_21">
    <!-- 4.0 -->
    <g style="fill:#228b22;" transform="translate(263.146453 240.280259)scale(0.1 -0.1)">
     <defs>
      <path d="M 37.796875 64.3125 
L 12.890625 25.390625 
L 37.796875 25.390625 
z
M 35.203125 72.90625 
L 47.609375 72.90625 
L 47.609375 25.390625 
L 58.015625 25.390625 
L 58.015625 17.1875 
L 47.609375 17.1875 
L 47.609375 0 
L 37.796875 0 
L 37.796875 17.1875 
L 4.890625 17.1875 
L 4.890625 26.703125 
z
" id="DejaVuSans-52"/>
     </defs>
     <use xlink:href="#DejaVuSans-52"/>
     <use x="63.623047" xlink:href="#DejaVuSans-46"/>
     <use x="95.410156" xlink:href="#DejaVuSans-48"/>
    </g>
   </g>
   <g id="text_22">
    <!-- 5 -->
    <g style="fill:#708090;" transform="translate(273.057229 208.264005)scale(0.1 -0.1)">
     <use xlink:href="#DejaVuSans-53"/>
    </g>
   </g>
   <g id="text_23">
    <!-- 6 -->
    <g style="fill:#8b0000;" transform="translate(237.65328 248.792851)scale(0.1 -0.1)">
     <defs>
      <path d="M 33.015625 40.375 
Q 26.375 40.375 22.484375 35.828125 
Q 18.609375 31.296875 18.609375 23.390625 
Q 18.609375 15.53125 22.484375 10.953125 
Q 26.375 6.390625 33.015625 6.390625 
Q 39.65625 6.390625 43.53125 10.953125 
Q 47.40625 15.53125 47.40625 23.390625 
Q 47.40625 31.296875 43.53125 35.828125 
Q 39.65625 40.375 33.015625 40.375 
z
M 52.59375 71.296875 
L 52.59375 62.3125 
Q 48.875 64.0625 45.09375 64.984375 
Q 41.3125 65.921875 37.59375 65.921875 
Q 27.828125 65.921875 22.671875 59.328125 
Q 17.53125 52.734375 16.796875 39.40625 
Q 19.671875 43.65625 24.015625 45.921875 
Q 28.375 48.1875 33.59375 48.1875 
Q 44.578125 48.1875 50.953125 41.515625 
Q 57.328125 34.859375 57.328125 23.390625 
Q 57.328125 12.15625 50.6875 5.359375 
Q 44.046875 -1.421875 33.015625 -1.421875 
Q 20.359375 -1.421875 13.671875 8.265625 
Q 6.984375 17.96875 6.984375 36.375 
Q 6.984375 53.65625 15.1875 63.9375 
Q 23.390625 74.21875 37.203125 74.21875 
Q 40.921875 74.21875 44.703125 73.484375 
Q 48.484375 72.75 52.59375 71.296875 
z
" id="DejaVuSans-54"/>
     </defs>
     <use xlink:href="#DejaVuSans-54"/>
    </g>
   </g>
   <g id="text_24">
    <!-- 7 -->
    <g style="fill:#808000;" transform="translate(277.827221 219.894758)scale(0.1 -0.1)">
     <defs>
      <path d="M 8.203125 72.90625 
L 55.078125 72.90625 
L 55.078125 68.703125 
L 28.609375 0 
L 18.3125 0 
L 43.21875 64.59375 
L 8.203125 64.59375 
z
" id="DejaVuSans-55"/>
     </defs>
     <use xlink:href="#DejaVuSans-55"/>
    </g>
   </g>
   <g id="text_25">
    <!-- 8 -->
    <g style="fill:#483d8b;" transform="translate(280.872212 303.005505)scale(0.1 -0.1)">
     <defs>
      <path d="M 31.78125 34.625 
Q 24.75 34.625 20.71875 30.859375 
Q 16.703125 27.09375 16.703125 20.515625 
Q 16.703125 13.921875 20.71875 10.15625 
Q 24.75 6.390625 31.78125 6.390625 
Q 38.8125 6.390625 42.859375 10.171875 
Q 46.921875 13.96875 46.921875 20.515625 
Q 46.921875 27.09375 42.890625 30.859375 
Q 38.875 34.625 31.78125 34.625 
z
M 21.921875 38.8125 
Q 15.578125 40.375 12.03125 44.71875 
Q 8.5 49.078125 8.5 55.328125 
Q 8.5 64.0625 14.71875 69.140625 
Q 20.953125 74.21875 31.78125 74.21875 
Q 42.671875 74.21875 48.875 69.140625 
Q 55.078125 64.0625 55.078125 55.328125 
Q 55.078125 49.078125 51.53125 44.71875 
Q 48 40.375 41.703125 38.8125 
Q 48.828125 37.15625 52.796875 32.3125 
Q 56.78125 27.484375 56.78125 20.515625 
Q 56.78125 9.90625 50.3125 4.234375 
Q 43.84375 -1.421875 31.78125 -1.421875 
Q 19.734375 -1.421875 13.25 4.234375 
Q 6.78125 9.90625 6.78125 20.515625 
Q 6.78125 27.484375 10.78125 32.3125 
Q 14.796875 37.15625 21.921875 38.8125 
z
M 18.3125 54.390625 
Q 18.3125 48.734375 21.84375 45.5625 
Q 25.390625 42.390625 31.78125 42.390625 
Q 38.140625 42.390625 41.71875 45.5625 
Q 45.3125 48.734375 45.3125 54.390625 
Q 45.3125 60.0625 41.71875 63.234375 
Q 38.140625 66.40625 31.78125 66.40625 
Q 25.390625 66.40625 21.84375 63.234375 
Q 18.3125 60.0625 18.3125 54.390625 
z
" id="DejaVuSans-56"/>
     </defs>
     <use xlink:href="#DejaVuSans-56"/>
    </g>
   </g>
   <g id="text_26">
    <!-- 24.1 -->
    <g style="fill:#008080;" transform="translate(279.791428 346.425628)scale(0.1 -0.1)">
     <use xlink:href="#DejaVuSans-50"/>
     <use x="63.623047" xlink:href="#DejaVuSans-52"/>
     <use x="127.246094" xlink:href="#DejaVuSans-46"/>
     <use x="159.033203" xlink:href="#DejaVuSans-49"/>
    </g>
   </g>
   <g id="text_27">
    <!-- 9 -->
    <g style="fill:#b8860b;" transform="translate(256.035476 233.254588)scale(0.1 -0.1)">
     <defs>
      <path d="M 10.984375 1.515625 
L 10.984375 10.5 
Q 14.703125 8.734375 18.5 7.8125 
Q 22.3125 6.890625 25.984375 6.890625 
Q 35.75 6.890625 40.890625 13.453125 
Q 46.046875 20.015625 46.78125 33.40625 
Q 43.953125 29.203125 39.59375 26.953125 
Q 35.25 24.703125 29.984375 24.703125 
Q 19.046875 24.703125 12.671875 31.3125 
Q 6.296875 37.9375 6.296875 49.421875 
Q 6.296875 60.640625 12.9375 67.421875 
Q 19.578125 74.21875 30.609375 74.21875 
Q 43.265625 74.21875 49.921875 64.515625 
Q 56.59375 54.828125 56.59375 36.375 
Q 56.59375 19.140625 48.40625 8.859375 
Q 40.234375 -1.421875 26.421875 -1.421875 
Q 22.703125 -1.421875 18.890625 -0.6875 
Q 15.09375 0.046875 10.984375 1.515625 
z
M 30.609375 32.421875 
Q 37.25 32.421875 41.125 36.953125 
Q 45.015625 41.5 45.015625 49.421875 
Q 45.015625 57.28125 41.125 61.84375 
Q 37.25 66.40625 30.609375 66.40625 
Q 23.96875 66.40625 20.09375 61.84375 
Q 16.21875 57.28125 16.21875 49.421875 
Q 16.21875 41.5 20.09375 36.953125 
Q 23.96875 32.421875 30.609375 32.421875 
z
" id="DejaVuSans-57"/>
     </defs>
     <use xlink:href="#DejaVuSans-57"/>
    </g>
   </g>
   <g id="text_28">
    <!-- 10.0 -->
    <g style="fill:#4682b4;" transform="translate(255.732292 294.283828)scale(0.1 -0.1)">
     <use xlink:href="#DejaVuSans-49"/>
     <use x="63.623047" xlink:href="#DejaVuSans-48"/>
     <use x="127.246094" xlink:href="#DejaVuSans-46"/>
     <use x="159.033203" xlink:href="#DejaVuSans-48"/>
    </g>
   </g>
   <g id="text_29">
    <!-- 11 -->
    <g style="fill:#d2691e;" transform="translate(224.379555 212.899765)scale(0.1 -0.1)">
     <use xlink:href="#DejaVuSans-49"/>
     <use x="63.623047" xlink:href="#DejaVuSans-49"/>
    </g>
   </g>
   <g id="text_30">
    <!-- 12 -->
    <g style="fill:#9acd32;" transform="translate(287.799109 234.992412)scale(0.1 -0.1)">
     <use xlink:href="#DejaVuSans-49"/>
     <use x="63.623047" xlink:href="#DejaVuSans-50"/>
    </g>
   </g>
   <g id="text_31">
    <!-- 13 -->
    <g style="fill:#32cd32;" transform="translate(258.932636 291.925126)scale(0.1 -0.1)">
     <use xlink:href="#DejaVuSans-49"/>
     <use x="63.623047" xlink:href="#DejaVuSans-51"/>
    </g>
   </g>
   <g id="text_32">
    <!-- 14.0 -->
    <g style="fill:#8fbc8f;" transform="translate(276.598483 221.568184)scale(0.1 -0.1)">
     <use xlink:href="#DejaVuSans-49"/>
     <use x="63.623047" xlink:href="#DejaVuSans-52"/>
     <use x="127.246094" xlink:href="#DejaVuSans-46"/>
     <use x="159.033203" xlink:href="#DejaVuSans-48"/>
    </g>
   </g>
   <g id="text_33">
    <!-- 17.2 -->
    <g style="fill:#800080;" transform="translate(255.897387 266.154194)scale(0.1 -0.1)">
     <use xlink:href="#DejaVuSans-49"/>
     <use x="63.623047" xlink:href="#DejaVuSans-55"/>
     <use x="127.246094" xlink:href="#DejaVuSans-46"/>
     <use x="159.033203" xlink:href="#DejaVuSans-50"/>
    </g>
   </g>
   <g id="text_34">
    <!-- 15 -->
    <g style="fill:#b03060;" transform="translate(266.371918 224.638782)scale(0.1 -0.1)">
     <use xlink:href="#DejaVuSans-49"/>
     <use x="63.623047" xlink:href="#DejaVuSans-53"/>
    </g>
   </g>
   <g id="text_35">
    <!-- 17.1 -->
    <g style="fill:#9932cc;" transform="translate(268.446932 241.90796)scale(0.1 -0.1)">
     <use xlink:href="#DejaVuSans-49"/>
     <use x="63.623047" xlink:href="#DejaVuSans-55"/>
     <use x="127.246094" xlink:href="#DejaVuSans-46"/>
     <use x="159.033203" xlink:href="#DejaVuSans-49"/>
    </g>
   </g>
   <g id="text_36">
    <!-- 16 -->
    <g style="fill:#ff4500;" transform="translate(219.363558 273.632171)scale(0.1 -0.1)">
     <use xlink:href="#DejaVuSans-49"/>
     <use x="63.623047" xlink:href="#DejaVuSans-54"/>
    </g>
   </g>
   <g id="text_37">
    <!-- 17.0 -->
    <g style="fill:#00ced1;" transform="translate(237.401505 243.060817)scale(0.1 -0.1)">
     <use xlink:href="#DejaVuSans-49"/>
     <use x="63.623047" xlink:href="#DejaVuSans-55"/>
     <use x="127.246094" xlink:href="#DejaVuSans-46"/>
     <use x="159.033203" xlink:href="#DejaVuSans-48"/>
    </g>
   </g>
   <g id="text_38">
    <!-- 18 -->
    <g style="fill:#ffd700;" transform="translate(261.457224 255.567177)scale(0.1 -0.1)">
     <use xlink:href="#DejaVuSans-49"/>
     <use x="63.623047" xlink:href="#DejaVuSans-56"/>
    </g>
   </g>
   <g id="text_39">
    <!-- 19 -->
    <g style="fill:#0000cd;" transform="translate(272.173636 219.765775)scale(0.1 -0.1)">
     <use xlink:href="#DejaVuSans-49"/>
     <use x="63.623047" xlink:href="#DejaVuSans-57"/>
    </g>
   </g>
   <g id="text_40">
    <!-- 20 -->
    <g style="fill:#deb887;" transform="translate(270.59975 224.502092)scale(0.1 -0.1)">
     <use xlink:href="#DejaVuSans-50"/>
     <use x="63.623047" xlink:href="#DejaVuSans-48"/>
    </g>
   </g>
   <g id="text_41">
    <!-- 21 -->
    <g style="fill:#00ff00;" transform="translate(260.376338 304.919168)scale(0.1 -0.1)">
     <use xlink:href="#DejaVuSans-50"/>
     <use x="63.623047" xlink:href="#DejaVuSans-49"/>
    </g>
   </g>
   <g id="text_42">
    <!-- 10.1 -->
    <g style="fill:#00fa9a;" transform="translate(267.913809 225.720908)scale(0.1 -0.1)">
     <use xlink:href="#DejaVuSans-49"/>
     <use x="63.623047" xlink:href="#DejaVuSans-48"/>
     <use x="127.246094" xlink:href="#DejaVuSans-46"/>
     <use x="159.033203" xlink:href="#DejaVuSans-49"/>
    </g>
   </g>
   <g id="text_43">
    <!-- 22 -->
    <g style="fill:#dc143c;" transform="translate(266.58128 255.875608)scale(0.1 -0.1)">
     <use xlink:href="#DejaVuSans-50"/>
     <use x="63.623047" xlink:href="#DejaVuSans-50"/>
    </g>
   </g>
   <g id="text_44">
    <!-- 23 -->
    <g style="fill:#00bfff;" transform="translate(262.220633 256.71867)scale(0.1 -0.1)">
     <use xlink:href="#DejaVuSans-50"/>
     <use x="63.623047" xlink:href="#DejaVuSans-51"/>
    </g>
   </g>
   <g id="text_45">
    <!-- 24.0 -->
    <g style="fill:#f4a460;" transform="translate(275.716055 286.628164)scale(0.1 -0.1)">
     <use xlink:href="#DejaVuSans-50"/>
     <use x="63.623047" xlink:href="#DejaVuSans-52"/>
     <use x="127.246094" xlink:href="#DejaVuSans-46"/>
     <use x="159.033203" xlink:href="#DejaVuSans-48"/>
    </g>
   </g>
   <g id="text_46">
    <!-- 4.1 -->
    <g style="fill:#0000ff;" transform="translate(260.221436 223.062682)scale(0.1 -0.1)">
     <use xlink:href="#DejaVuSans-52"/>
     <use x="63.623047" xlink:href="#DejaVuSans-46"/>
     <use x="95.410156" xlink:href="#DejaVuSans-49"/>
    </g>
   </g>
   <g id="text_47">
    <!-- 0.1 -->
    <g style="fill:#adff2f;" transform="translate(245.938092 257.924505)scale(0.1 -0.1)">
     <use xlink:href="#DejaVuSans-48"/>
     <use x="63.623047" xlink:href="#DejaVuSans-46"/>
     <use x="95.410156" xlink:href="#DejaVuSans-49"/>
    </g>
   </g>
  </g>
 </g>
 <defs>
  <clipPath id="p30ac71f400">
   <rect height="498.96" width="390.6" x="63" y="77.76"/>
  </clipPath>
 </defs>
</svg>
