<?xml version="1.0" encoding="utf-8" standalone="no"?>
<!DOCTYPE svg PUBLIC "-//W3C//DTD SVG 1.1//EN"
  "http://www.w3.org/Graphics/SVG/1.1/DTD/svg11.dtd">
<!-- Created with matplotlib (https://matplotlib.org/) -->
<svg height="648pt" version="1.1" viewBox="0 0 504 648" width="504pt" xmlns="http://www.w3.org/2000/svg" xmlns:xlink="http://www.w3.org/1999/xlink">
 <metadata>
  <rdf:RDF xmlns:cc="http://creativecommons.org/ns#" xmlns:dc="http://purl.org/dc/elements/1.1/" xmlns:rdf="http://www.w3.org/1999/02/22-rdf-syntax-ns#">
   <cc:Work>
    <dc:type rdf:resource="http://purl.org/dc/dcmitype/StillImage"/>
    <dc:date>2023-05-24T16:22:15.323321</dc:date>
    <dc:format>image/svg+xml</dc:format>
    <dc:creator>
     <cc:Agent>
      <dc:title>Matplotlib v3.3.4, https://matplotlib.org/</dc:title>
     </cc:Agent>
    </dc:creator>
   </cc:Work>
  </rdf:RDF>
 </metadata>
 <defs>
  <style type="text/css">*{stroke-linecap:butt;stroke-linejoin:round;}</style>
 </defs>
 <g id="figure_1">
  <g id="patch_1">
   <path d="M 0 648 
L 504 648 
L 504 0 
L 0 0 
z
" style="fill:#ffffff;"/>
  </g>
  <g id="axes_1">
   <g id="patch_2">
    <path d="M 63 576.72 
L 453.6 576.72 
L 453.6 77.76 
L 63 77.76 
z
" style="fill:#ffffff;"/>
   </g>
   <g id="PathCollection_1">
    <path clip-path="url(#p223c368b5e)" d="M 242.150063 308.091619 
C 244.025332 308.091619 245.824048 307.346567 247.150063 306.020551 
C 248.476079 304.694536 249.221131 302.895821 249.221131 301.020551 
C 249.221131 299.145282 248.476079 297.346567 247.150063 296.020551 
C 245.824048 294.694536 244.025332 293.949484 242.150063 293.949484 
C 240.274794 293.949484 238.476079 294.694536 237.150063 296.020551 
C 235.824048 297.346567 235.078996 299.145282 235.078996 301.020551 
C 235.078996 302.895821 235.824048 304.694536 237.150063 306.020551 
C 238.476079 307.346567 240.274794 308.091619 242.150063 308.091619 
z
" style="fill:#2f4f4f;stroke:#2f4f4f;"/>
    <path clip-path="url(#p223c368b5e)" d="M 261.449103 321.34894 
C 262.775118 321.34894 264.047002 320.822108 264.984637 319.884474 
C 265.922271 318.946839 266.449103 317.674955 266.449103 316.34894 
C 266.449103 315.022924 265.922271 313.75104 264.984637 312.813406 
C 264.047002 311.875771 262.775118 311.34894 261.449103 311.34894 
C 260.123087 311.34894 258.851204 311.875771 257.913569 312.813406 
C 256.975934 313.75104 256.449103 315.022924 256.449103 316.34894 
C 256.449103 317.674955 256.975934 318.946839 257.913569 319.884474 
C 258.851204 320.822108 260.123087 321.34894 261.449103 321.34894 
z
" style="fill:#556b2f;stroke:#556b2f;"/>
    <path clip-path="url(#p223c368b5e)" d="M 246.234838 272.697002 
C 247.560853 272.697002 248.832737 272.17017 249.770371 271.232535 
C 250.708006 270.294901 251.234838 269.023017 251.234838 267.697002 
C 251.234838 266.370986 250.708006 265.099102 249.770371 264.161468 
C 248.832737 263.223833 247.560853 262.697002 246.234838 262.697002 
C 244.908822 262.697002 243.636938 263.223833 242.699304 264.161468 
C 241.761669 265.099102 241.234838 266.370986 241.234838 267.697002 
C 241.234838 269.023017 241.761669 270.294901 242.699304 271.232535 
C 243.636938 272.17017 244.908822 272.697002 246.234838 272.697002 
z
" style="fill:#2e8b57;stroke:#2e8b57;"/>
    <path clip-path="url(#p223c368b5e)" d="M 267.48366 282.123253 
C 269.358929 282.123253 271.157644 281.378201 272.48366 280.052185 
C 273.809675 278.72617 274.554728 276.927454 274.554728 275.052185 
C 274.554728 273.176916 273.809675 271.378201 272.48366 270.052185 
C 271.157644 268.72617 269.358929 267.981117 267.48366 267.981117 
C 265.608391 267.981117 263.809675 268.72617 262.48366 270.052185 
C 261.157644 271.378201 260.412592 273.176916 260.412592 275.052185 
C 260.412592 276.927454 261.157644 278.72617 262.48366 280.052185 
C 263.809675 281.378201 265.608391 282.123253 267.48366 282.123253 
z
" style="fill:#228b22;stroke:#228b22;"/>
    <path clip-path="url(#p223c368b5e)" d="M 292.233708 262.734523 
C 294.108978 262.734523 295.907693 261.98947 297.233708 260.663455 
C 298.559724 259.337439 299.304776 257.538724 299.304776 255.663455 
C 299.304776 253.788186 298.559724 251.98947 297.233708 250.663455 
C 295.907693 249.337439 294.108978 248.592387 292.233708 248.592387 
C 290.358439 248.592387 288.559724 249.337439 287.233708 250.663455 
C 285.907693 251.98947 285.162641 253.788186 285.162641 255.663455 
C 285.162641 257.538724 285.907693 259.337439 287.233708 260.663455 
C 288.559724 261.98947 290.358439 262.734523 292.233708 262.734523 
z
" style="fill:#8b0000;stroke:#8b0000;"/>
    <path clip-path="url(#p223c368b5e)" d="M 236.317132 245.257225 
C 237.941162 245.257225 239.498896 244.611991 240.647259 243.463627 
C 241.795622 242.315264 242.440856 240.757531 242.440856 239.1335 
C 242.440856 237.50947 241.795622 235.951736 240.647259 234.803373 
C 239.498896 233.65501 237.941162 233.009776 236.317132 233.009776 
C 234.693101 233.009776 233.135368 233.65501 231.987005 234.803373 
C 230.838642 235.951736 230.193407 237.50947 230.193407 239.1335 
C 230.193407 240.757531 230.838642 242.315264 231.987005 243.463627 
C 233.135368 244.611991 234.693101 245.257225 236.317132 245.257225 
z
" style="fill:#808000;stroke:#808000;"/>
    <path clip-path="url(#p223c368b5e)" d="M 290.189575 298.450165 
C 291.813606 298.450165 293.371339 297.804931 294.519702 296.656567 
C 295.668065 295.508204 296.313299 293.950471 296.313299 292.32644 
C 296.313299 290.70241 295.668065 289.144677 294.519702 287.996313 
C 293.371339 286.84795 291.813606 286.202716 290.189575 286.202716 
C 288.565544 286.202716 287.007811 286.84795 285.859448 287.996313 
C 284.711085 289.144677 284.065851 290.70241 284.065851 292.32644 
C 284.065851 293.950471 284.711085 295.508204 285.859448 296.656567 
C 287.007811 297.804931 288.565544 298.450165 290.189575 298.450165 
z
" style="fill:#008080;stroke:#008080;"/>
    <path clip-path="url(#p223c368b5e)" d="M 257.771571 256.574399 
C 259.64684 256.574399 261.445555 255.829347 262.771571 254.503331 
C 264.097586 253.177316 264.842639 251.3786 264.842639 249.503331 
C 264.842639 247.628062 264.097586 245.829347 262.771571 244.503331 
C 261.445555 243.177316 259.64684 242.432264 257.771571 242.432264 
C 255.896302 242.432264 254.097586 243.177316 252.771571 244.503331 
C 251.445555 245.829347 250.700503 247.628062 250.700503 249.503331 
C 250.700503 251.3786 251.445555 253.177316 252.771571 254.503331 
C 254.097586 255.829347 255.896302 256.574399 257.771571 256.574399 
z
" style="fill:#b8860b;stroke:#b8860b;"/>
    <path clip-path="url(#p223c368b5e)" d="M 244.534416 283.171266 
C 246.158447 283.171266 247.71618 282.526032 248.864543 281.377669 
C 250.012906 280.229306 250.65814 278.671573 250.65814 277.047542 
C 250.65814 275.423511 250.012906 273.865778 248.864543 272.717415 
C 247.71618 271.569052 246.158447 270.923818 244.534416 270.923818 
C 242.910385 270.923818 241.352652 271.569052 240.204289 272.717415 
C 239.055926 273.865778 238.410692 275.423511 238.410692 277.047542 
C 238.410692 278.671573 239.055926 280.229306 240.204289 281.377669 
C 241.352652 282.526032 242.910385 283.171266 244.534416 283.171266 
z
" style="fill:#4682b4;stroke:#4682b4;"/>
    <path clip-path="url(#p223c368b5e)" d="M 263.610461 290.216719 
C 265.707076 290.216719 267.718101 289.383726 269.200631 287.901195 
C 270.683161 286.418665 271.516155 284.40764 271.516155 282.311025 
C 271.516155 280.214411 270.683161 278.203386 269.200631 276.720855 
C 267.718101 275.238325 265.707076 274.405331 263.610461 274.405331 
C 261.513847 274.405331 259.502822 275.238325 258.020291 276.720855 
C 256.537761 278.203386 255.704767 280.214411 255.704767 282.311025 
C 255.704767 284.40764 256.537761 286.418665 258.020291 287.901195 
C 259.502822 289.383726 261.513847 290.216719 263.610461 290.216719 
z
" style="fill:#d2691e;stroke:#d2691e;"/>
    <path clip-path="url(#p223c368b5e)" d="M 262.050946 265.608551 
C 264.14756 265.608551 266.158585 264.775557 267.641116 263.293027 
C 269.123646 261.810497 269.95664 259.799472 269.95664 257.702857 
C 269.95664 255.606242 269.123646 253.595218 267.641116 252.112687 
C 266.158585 250.630157 264.14756 249.797163 262.050946 249.797163 
C 259.954331 249.797163 257.943306 250.630157 256.460776 252.112687 
C 254.978245 253.595218 254.145251 255.606242 254.145251 257.702857 
C 254.145251 259.799472 254.978245 261.810497 256.460776 263.293027 
C 257.943306 264.775557 259.954331 265.608551 262.050946 265.608551 
z
" style="fill:#32cd32;stroke:#32cd32;"/>
    <path clip-path="url(#p223c368b5e)" d="M 259.904587 443.104888 
C 261.230603 443.104888 262.502487 442.578057 263.440121 441.640422 
C 264.377756 440.702788 264.904587 439.430904 264.904587 438.104888 
C 264.904587 436.778873 264.377756 435.506989 263.440121 434.569354 
C 262.502487 433.63172 261.230603 433.104888 259.904587 433.104888 
C 258.578572 433.104888 257.306688 433.63172 256.369053 434.569354 
C 255.431419 435.506989 254.904587 436.778873 254.904587 438.104888 
C 254.904587 439.430904 255.431419 440.702788 256.369053 441.640422 
C 257.306688 442.578057 258.578572 443.104888 259.904587 443.104888 
z
" style="fill:#8fbc8f;stroke:#8fbc8f;"/>
    <path clip-path="url(#p223c368b5e)" d="M 265.255183 263.187848 
C 267.130452 263.187848 268.929167 262.442796 270.255183 261.11678 
C 271.581198 259.790765 272.326251 257.992049 272.326251 256.11678 
C 272.326251 254.241511 271.581198 252.442796 270.255183 251.11678 
C 268.929167 249.790765 267.130452 249.045712 265.255183 249.045712 
C 263.379914 249.045712 261.581198 249.790765 260.255183 251.11678 
C 258.929167 252.442796 258.184115 254.241511 258.184115 256.11678 
C 258.184115 257.992049 258.929167 259.790765 260.255183 261.11678 
C 261.581198 262.442796 263.379914 263.187848 265.255183 263.187848 
z
" style="fill:#ff4500;stroke:#ff4500;"/>
    <path clip-path="url(#p223c368b5e)" d="M 280.491541 215.859459 
C 282.115572 215.859459 283.673305 215.214225 284.821668 214.065862 
C 285.970031 212.917499 286.615266 211.359766 286.615266 209.735735 
C 286.615266 208.111704 285.970031 206.553971 284.821668 205.405608 
C 283.673305 204.257245 282.115572 203.612011 280.491541 203.612011 
C 278.867511 203.612011 277.309777 204.257245 276.161414 205.405608 
C 275.013051 206.553971 274.367817 208.111704 274.367817 209.735735 
C 274.367817 211.359766 275.013051 212.917499 276.161414 214.065862 
C 277.309777 215.214225 278.867511 215.859459 280.491541 215.859459 
z
" style="fill:#ffd700;stroke:#ffd700;"/>
    <path clip-path="url(#p223c368b5e)" d="M 255.979696 297.434982 
C 257.305711 297.434982 258.577595 296.90815 259.51523 295.970516 
C 260.452864 295.032881 260.979696 293.760997 260.979696 292.434982 
C 260.979696 291.108966 260.452864 289.837082 259.51523 288.899448 
C 258.577595 287.961813 257.305711 287.434982 255.979696 287.434982 
C 254.65368 287.434982 253.381796 287.961813 252.444162 288.899448 
C 251.506527 289.837082 250.979696 291.108966 250.979696 292.434982 
C 250.979696 293.760997 251.506527 295.032881 252.444162 295.970516 
C 253.381796 296.90815 254.65368 297.434982 255.979696 297.434982 
z
" style="fill:#0000cd;stroke:#0000cd;"/>
    <path clip-path="url(#p223c368b5e)" d="M 277.162478 283.191137 
C 278.786509 283.191137 280.344242 282.545903 281.492605 281.397539 
C 282.640968 280.249176 283.286202 278.691443 283.286202 277.067412 
C 283.286202 275.443382 282.640968 273.885649 281.492605 272.737285 
C 280.344242 271.588922 278.786509 270.943688 277.162478 270.943688 
C 275.538447 270.943688 273.980714 271.588922 272.832351 272.737285 
C 271.683988 273.885649 271.038754 275.443382 271.038754 277.067412 
C 271.038754 278.691443 271.683988 280.249176 272.832351 281.397539 
C 273.980714 282.545903 275.538447 283.191137 277.162478 283.191137 
z
" style="fill:#deb887;stroke:#deb887;"/>
    <path clip-path="url(#p223c368b5e)" d="M 245.319575 260.406578 
C 246.64559 260.406578 247.917474 259.879747 248.855109 258.942112 
C 249.792743 258.004477 250.319575 256.732594 250.319575 255.406578 
C 250.319575 254.080563 249.792743 252.808679 248.855109 251.871044 
C 247.917474 250.93341 246.64559 250.406578 245.319575 250.406578 
C 243.993559 250.406578 242.721675 250.93341 241.784041 251.871044 
C 240.846406 252.808679 240.319575 254.080563 240.319575 255.406578 
C 240.319575 256.732594 240.846406 258.004477 241.784041 258.942112 
C 242.721675 259.879747 243.993559 260.406578 245.319575 260.406578 
z
" style="fill:#00ff00;stroke:#00ff00;"/>
    <path clip-path="url(#p223c368b5e)" d="M 214.066745 321.497554 
C 215.392761 321.497554 216.664644 320.970722 217.602279 320.033088 
C 218.539914 319.095453 219.066745 317.82357 219.066745 316.497554 
C 219.066745 315.171539 218.539914 313.899655 217.602279 312.96202 
C 216.664644 312.024386 215.392761 311.497554 214.066745 311.497554 
C 212.74073 311.497554 211.468846 312.024386 210.531211 312.96202 
C 209.593577 313.899655 209.066745 315.171539 209.066745 316.497554 
C 209.066745 317.82357 209.593577 319.095453 210.531211 320.033088 
C 211.468846 320.970722 212.74073 321.497554 214.066745 321.497554 
z
" style="fill:#00fa9a;stroke:#00fa9a;"/>
    <path clip-path="url(#p223c368b5e)" d="M 254.947013 255.102015 
C 256.273028 255.102015 257.544912 254.575183 258.482547 253.637549 
C 259.420181 252.699914 259.947013 251.428031 259.947013 250.102015 
C 259.947013 248.776 259.420181 247.504116 258.482547 246.566481 
C 257.544912 245.628847 256.273028 245.102015 254.947013 245.102015 
C 253.620997 245.102015 252.349114 245.628847 251.411479 246.566481 
C 250.473844 247.504116 249.947013 248.776 249.947013 250.102015 
C 249.947013 251.428031 250.473844 252.699914 251.411479 253.637549 
C 252.349114 254.575183 253.620997 255.102015 254.947013 255.102015 
z
" style="fill:#dc143c;stroke:#dc143c;"/>
    <path clip-path="url(#p223c368b5e)" d="M 256.579061 360.83537 
C 257.905076 360.83537 259.17696 360.308539 260.114595 359.370904 
C 261.052229 358.43327 261.579061 357.161386 261.579061 355.83537 
C 261.579061 354.509355 261.052229 353.237471 260.114595 352.299836 
C 259.17696 351.362202 257.905076 350.83537 256.579061 350.83537 
C 255.253045 350.83537 253.981162 351.362202 253.043527 352.299836 
C 252.105892 353.237471 251.579061 354.509355 251.579061 355.83537 
C 251.579061 357.161386 252.105892 358.43327 253.043527 359.370904 
C 253.981162 360.308539 255.253045 360.83537 256.579061 360.83537 
z
" style="fill:#a020f0;stroke:#a020f0;"/>
    <path clip-path="url(#p223c368b5e)" d="M 251.481851 260.534706 
C 253.105882 260.534706 254.663615 259.889471 255.811978 258.741108 
C 256.960341 257.592745 257.605575 256.035012 257.605575 254.410981 
C 257.605575 252.786951 256.960341 251.229217 255.811978 250.080854 
C 254.663615 248.932491 253.105882 248.287257 251.481851 248.287257 
C 249.85782 248.287257 248.300087 248.932491 247.151724 250.080854 
C 246.003361 251.229217 245.358126 252.786951 245.358126 254.410981 
C 245.358126 256.035012 246.003361 257.592745 247.151724 258.741108 
C 248.300087 259.889471 249.85782 260.534706 251.481851 260.534706 
z
" style="fill:#da70d6;stroke:#da70d6;"/>
    <path clip-path="url(#p223c368b5e)" d="M 239.057015 244.950383 
C 240.383031 244.950383 241.654915 244.423551 242.592549 243.485917 
C 243.530184 242.548282 244.057015 241.276398 244.057015 239.950383 
C 244.057015 238.624367 243.530184 237.352484 242.592549 236.414849 
C 241.654915 235.477214 240.383031 234.950383 239.057015 234.950383 
C 237.731 234.950383 236.459116 235.477214 235.521482 236.414849 
C 234.583847 237.352484 234.057015 238.624367 234.057015 239.950383 
C 234.057015 241.276398 234.583847 242.548282 235.521482 243.485917 
C 236.459116 244.423551 237.731 244.950383 239.057015 244.950383 
z
" style="fill:#dda0dd;stroke:#dda0dd;"/>
    <path clip-path="url(#p223c368b5e)" d="M 269.735899 276.835074 
C 271.359929 276.835074 272.917663 276.189839 274.066026 275.041476 
C 275.214389 273.893113 275.859623 272.33538 275.859623 270.711349 
C 275.859623 269.087318 275.214389 267.529585 274.066026 266.381222 
C 272.917663 265.232859 271.359929 264.587625 269.735899 264.587625 
C 268.111868 264.587625 266.554135 265.232859 265.405772 266.381222 
C 264.257409 267.529585 263.612174 269.087318 263.612174 270.711349 
C 263.612174 272.33538 264.257409 273.893113 265.405772 275.041476 
C 266.554135 276.189839 268.111868 276.835074 269.735899 276.835074 
z
" style="fill:#7b68ee;stroke:#7b68ee;"/>
    <path clip-path="url(#p223c368b5e)" d="M 261.269732 251.355843 
C 263.366346 251.355843 265.377371 250.522849 266.859902 249.040319 
C 268.342432 247.557788 269.175426 245.546763 269.175426 243.450149 
C 269.175426 241.353534 268.342432 239.342509 266.859902 237.859979 
C 265.377371 236.377448 263.366346 235.544455 261.269732 235.544455 
C 259.173117 235.544455 257.162092 236.377448 255.679562 237.859979 
C 254.197031 239.342509 253.364038 241.353534 253.364038 243.450149 
C 253.364038 245.546763 254.197031 247.557788 255.679562 249.040319 
C 257.162092 250.522849 259.173117 251.355843 261.269732 251.355843 
z
" style="fill:#7fffd4;stroke:#7fffd4;"/>
    <path clip-path="url(#p223c368b5e)" d="M 254.98677 240.302589 
C 256.312786 240.302589 257.58467 239.775757 258.522304 238.838123 
C 259.459939 237.900488 259.98677 236.628604 259.98677 235.302589 
C 259.98677 233.976573 259.459939 232.70469 258.522304 231.767055 
C 257.58467 230.82942 256.312786 230.302589 254.98677 230.302589 
C 253.660755 230.302589 252.388871 230.82942 251.451237 231.767055 
C 250.513602 232.70469 249.98677 233.976573 249.98677 235.302589 
C 249.98677 236.628604 250.513602 237.900488 251.451237 238.838123 
C 252.388871 239.775757 253.660755 240.302589 254.98677 240.302589 
z
" style="fill:#8b4513;stroke:#8b4513;"/>
   </g>
   <g id="matplotlib.axis_1">
    <g id="xtick_1">
     <g id="line2d_1">
      <defs>
       <path d="M 0 0 
L 0 3.5 
" id="m79dac40040" style="stroke:#000000;stroke-width:0.8;"/>
      </defs>
      <g>
       <use style="stroke:#000000;stroke-width:0.8;" x="258.3" xlink:href="#m79dac40040" y="576.72"/>
      </g>
     </g>
     <g id="text_1">
      <!-- MeanPD -->
      <g transform="translate(237.811719 591.318438)scale(0.1 -0.1)">
       <defs>
        <path d="M 9.8125 72.90625 
L 24.515625 72.90625 
L 43.109375 23.296875 
L 61.8125 72.90625 
L 76.515625 72.90625 
L 76.515625 0 
L 66.890625 0 
L 66.890625 64.015625 
L 48.09375 14.015625 
L 38.1875 14.015625 
L 19.390625 64.015625 
L 19.390625 0 
L 9.8125 0 
z
" id="DejaVuSans-77"/>
        <path d="M 56.203125 29.59375 
L 56.203125 25.203125 
L 14.890625 25.203125 
Q 15.484375 15.921875 20.484375 11.0625 
Q 25.484375 6.203125 34.421875 6.203125 
Q 39.59375 6.203125 44.453125 7.46875 
Q 49.3125 8.734375 54.109375 11.28125 
L 54.109375 2.78125 
Q 49.265625 0.734375 44.1875 -0.34375 
Q 39.109375 -1.421875 33.890625 -1.421875 
Q 20.796875 -1.421875 13.15625 6.1875 
Q 5.515625 13.8125 5.515625 26.8125 
Q 5.515625 40.234375 12.765625 48.109375 
Q 20.015625 56 32.328125 56 
Q 43.359375 56 49.78125 48.890625 
Q 56.203125 41.796875 56.203125 29.59375 
z
M 47.21875 32.234375 
Q 47.125 39.59375 43.09375 43.984375 
Q 39.0625 48.390625 32.421875 48.390625 
Q 24.90625 48.390625 20.390625 44.140625 
Q 15.875 39.890625 15.1875 32.171875 
z
" id="DejaVuSans-101"/>
        <path d="M 34.28125 27.484375 
Q 23.390625 27.484375 19.1875 25 
Q 14.984375 22.515625 14.984375 16.5 
Q 14.984375 11.71875 18.140625 8.90625 
Q 21.296875 6.109375 26.703125 6.109375 
Q 34.1875 6.109375 38.703125 11.40625 
Q 43.21875 16.703125 43.21875 25.484375 
L 43.21875 27.484375 
z
M 52.203125 31.203125 
L 52.203125 0 
L 43.21875 0 
L 43.21875 8.296875 
Q 40.140625 3.328125 35.546875 0.953125 
Q 30.953125 -1.421875 24.3125 -1.421875 
Q 15.921875 -1.421875 10.953125 3.296875 
Q 6 8.015625 6 15.921875 
Q 6 25.140625 12.171875 29.828125 
Q 18.359375 34.515625 30.609375 34.515625 
L 43.21875 34.515625 
L 43.21875 35.40625 
Q 43.21875 41.609375 39.140625 45 
Q 35.0625 48.390625 27.6875 48.390625 
Q 23 48.390625 18.546875 47.265625 
Q 14.109375 46.140625 10.015625 43.890625 
L 10.015625 52.203125 
Q 14.9375 54.109375 19.578125 55.046875 
Q 24.21875 56 28.609375 56 
Q 40.484375 56 46.34375 49.84375 
Q 52.203125 43.703125 52.203125 31.203125 
z
" id="DejaVuSans-97"/>
        <path d="M 54.890625 33.015625 
L 54.890625 0 
L 45.90625 0 
L 45.90625 32.71875 
Q 45.90625 40.484375 42.875 44.328125 
Q 39.84375 48.1875 33.796875 48.1875 
Q 26.515625 48.1875 22.3125 43.546875 
Q 18.109375 38.921875 18.109375 30.90625 
L 18.109375 0 
L 9.078125 0 
L 9.078125 54.6875 
L 18.109375 54.6875 
L 18.109375 46.1875 
Q 21.34375 51.125 25.703125 53.5625 
Q 30.078125 56 35.796875 56 
Q 45.21875 56 50.046875 50.171875 
Q 54.890625 44.34375 54.890625 33.015625 
z
" id="DejaVuSans-110"/>
        <path d="M 19.671875 64.796875 
L 19.671875 37.40625 
L 32.078125 37.40625 
Q 38.96875 37.40625 42.71875 40.96875 
Q 46.484375 44.53125 46.484375 51.125 
Q 46.484375 57.671875 42.71875 61.234375 
Q 38.96875 64.796875 32.078125 64.796875 
z
M 9.8125 72.90625 
L 32.078125 72.90625 
Q 44.34375 72.90625 50.609375 67.359375 
Q 56.890625 61.8125 56.890625 51.125 
Q 56.890625 40.328125 50.609375 34.8125 
Q 44.34375 29.296875 32.078125 29.296875 
L 19.671875 29.296875 
L 19.671875 0 
L 9.8125 0 
z
" id="DejaVuSans-80"/>
        <path d="M 19.671875 64.796875 
L 19.671875 8.109375 
L 31.59375 8.109375 
Q 46.6875 8.109375 53.6875 14.9375 
Q 60.6875 21.78125 60.6875 36.53125 
Q 60.6875 51.171875 53.6875 57.984375 
Q 46.6875 64.796875 31.59375 64.796875 
z
M 9.8125 72.90625 
L 30.078125 72.90625 
Q 51.265625 72.90625 61.171875 64.09375 
Q 71.09375 55.28125 71.09375 36.53125 
Q 71.09375 17.671875 61.125 8.828125 
Q 51.171875 0 30.078125 0 
L 9.8125 0 
z
" id="DejaVuSans-68"/>
       </defs>
       <use xlink:href="#DejaVuSans-77"/>
       <use x="86.279297" xlink:href="#DejaVuSans-101"/>
       <use x="147.802734" xlink:href="#DejaVuSans-97"/>
       <use x="209.082031" xlink:href="#DejaVuSans-110"/>
       <use x="272.460938" xlink:href="#DejaVuSans-80"/>
       <use x="332.763672" xlink:href="#DejaVuSans-68"/>
      </g>
     </g>
    </g>
   </g>
   <g id="matplotlib.axis_2">
    <g id="ytick_1">
     <g id="line2d_2">
      <defs>
       <path d="M 0 0 
L -3.5 0 
" id="ma532e90111" style="stroke:#000000;stroke-width:0.8;"/>
      </defs>
      <g>
       <use style="stroke:#000000;stroke-width:0.8;" x="63" xlink:href="#ma532e90111" y="576.72"/>
      </g>
     </g>
     <g id="text_2">
      <!-- −3.5 -->
      <g transform="translate(31.717187 580.519219)scale(0.1 -0.1)">
       <defs>
        <path d="M 10.59375 35.5 
L 73.1875 35.5 
L 73.1875 27.203125 
L 10.59375 27.203125 
z
" id="DejaVuSans-8722"/>
        <path d="M 40.578125 39.3125 
Q 47.65625 37.796875 51.625 33 
Q 55.609375 28.21875 55.609375 21.1875 
Q 55.609375 10.40625 48.1875 4.484375 
Q 40.765625 -1.421875 27.09375 -1.421875 
Q 22.515625 -1.421875 17.65625 -0.515625 
Q 12.796875 0.390625 7.625 2.203125 
L 7.625 11.71875 
Q 11.71875 9.328125 16.59375 8.109375 
Q 21.484375 6.890625 26.8125 6.890625 
Q 36.078125 6.890625 40.9375 10.546875 
Q 45.796875 14.203125 45.796875 21.1875 
Q 45.796875 27.640625 41.28125 31.265625 
Q 36.765625 34.90625 28.71875 34.90625 
L 20.21875 34.90625 
L 20.21875 43.015625 
L 29.109375 43.015625 
Q 36.375 43.015625 40.234375 45.921875 
Q 44.09375 48.828125 44.09375 54.296875 
Q 44.09375 59.90625 40.109375 62.90625 
Q 36.140625 65.921875 28.71875 65.921875 
Q 24.65625 65.921875 20.015625 65.03125 
Q 15.375 64.15625 9.8125 62.3125 
L 9.8125 71.09375 
Q 15.4375 72.65625 20.34375 73.4375 
Q 25.25 74.21875 29.59375 74.21875 
Q 40.828125 74.21875 47.359375 69.109375 
Q 53.90625 64.015625 53.90625 55.328125 
Q 53.90625 49.265625 50.4375 45.09375 
Q 46.96875 40.921875 40.578125 39.3125 
z
" id="DejaVuSans-51"/>
        <path d="M 10.6875 12.40625 
L 21 12.40625 
L 21 0 
L 10.6875 0 
z
" id="DejaVuSans-46"/>
        <path d="M 10.796875 72.90625 
L 49.515625 72.90625 
L 49.515625 64.59375 
L 19.828125 64.59375 
L 19.828125 46.734375 
Q 21.96875 47.46875 24.109375 47.828125 
Q 26.265625 48.1875 28.421875 48.1875 
Q 40.625 48.1875 47.75 41.5 
Q 54.890625 34.8125 54.890625 23.390625 
Q 54.890625 11.625 47.5625 5.09375 
Q 40.234375 -1.421875 26.90625 -1.421875 
Q 22.3125 -1.421875 17.546875 -0.640625 
Q 12.796875 0.140625 7.71875 1.703125 
L 7.71875 11.625 
Q 12.109375 9.234375 16.796875 8.0625 
Q 21.484375 6.890625 26.703125 6.890625 
Q 35.15625 6.890625 40.078125 11.328125 
Q 45.015625 15.765625 45.015625 23.390625 
Q 45.015625 31 40.078125 35.4375 
Q 35.15625 39.890625 26.703125 39.890625 
Q 22.75 39.890625 18.8125 39.015625 
Q 14.890625 38.140625 10.796875 36.28125 
z
" id="DejaVuSans-53"/>
       </defs>
       <use xlink:href="#DejaVuSans-8722"/>
       <use x="83.789062" xlink:href="#DejaVuSans-51"/>
       <use x="147.412109" xlink:href="#DejaVuSans-46"/>
       <use x="179.199219" xlink:href="#DejaVuSans-53"/>
      </g>
     </g>
    </g>
    <g id="ytick_2">
     <g id="line2d_3">
      <g>
       <use style="stroke:#000000;stroke-width:0.8;" x="63" xlink:href="#ma532e90111" y="538.92"/>
      </g>
     </g>
     <g id="text_3">
      <!-- −3.0 -->
      <g transform="translate(31.717187 542.719219)scale(0.1 -0.1)">
       <defs>
        <path d="M 31.78125 66.40625 
Q 24.171875 66.40625 20.328125 58.90625 
Q 16.5 51.421875 16.5 36.375 
Q 16.5 21.390625 20.328125 13.890625 
Q 24.171875 6.390625 31.78125 6.390625 
Q 39.453125 6.390625 43.28125 13.890625 
Q 47.125 21.390625 47.125 36.375 
Q 47.125 51.421875 43.28125 58.90625 
Q 39.453125 66.40625 31.78125 66.40625 
z
M 31.78125 74.21875 
Q 44.046875 74.21875 50.515625 64.515625 
Q 56.984375 54.828125 56.984375 36.375 
Q 56.984375 17.96875 50.515625 8.265625 
Q 44.046875 -1.421875 31.78125 -1.421875 
Q 19.53125 -1.421875 13.0625 8.265625 
Q 6.59375 17.96875 6.59375 36.375 
Q 6.59375 54.828125 13.0625 64.515625 
Q 19.53125 74.21875 31.78125 74.21875 
z
" id="DejaVuSans-48"/>
       </defs>
       <use xlink:href="#DejaVuSans-8722"/>
       <use x="83.789062" xlink:href="#DejaVuSans-51"/>
       <use x="147.412109" xlink:href="#DejaVuSans-46"/>
       <use x="179.199219" xlink:href="#DejaVuSans-48"/>
      </g>
     </g>
    </g>
    <g id="ytick_3">
     <g id="line2d_4">
      <g>
       <use style="stroke:#000000;stroke-width:0.8;" x="63" xlink:href="#ma532e90111" y="501.12"/>
      </g>
     </g>
     <g id="text_4">
      <!-- −2.5 -->
      <g transform="translate(31.717187 504.919219)scale(0.1 -0.1)">
       <defs>
        <path d="M 19.1875 8.296875 
L 53.609375 8.296875 
L 53.609375 0 
L 7.328125 0 
L 7.328125 8.296875 
Q 12.9375 14.109375 22.625 23.890625 
Q 32.328125 33.6875 34.8125 36.53125 
Q 39.546875 41.84375 41.421875 45.53125 
Q 43.3125 49.21875 43.3125 52.78125 
Q 43.3125 58.59375 39.234375 62.25 
Q 35.15625 65.921875 28.609375 65.921875 
Q 23.96875 65.921875 18.8125 64.3125 
Q 13.671875 62.703125 7.8125 59.421875 
L 7.8125 69.390625 
Q 13.765625 71.78125 18.9375 73 
Q 24.125 74.21875 28.421875 74.21875 
Q 39.75 74.21875 46.484375 68.546875 
Q 53.21875 62.890625 53.21875 53.421875 
Q 53.21875 48.921875 51.53125 44.890625 
Q 49.859375 40.875 45.40625 35.40625 
Q 44.1875 33.984375 37.640625 27.21875 
Q 31.109375 20.453125 19.1875 8.296875 
z
" id="DejaVuSans-50"/>
       </defs>
       <use xlink:href="#DejaVuSans-8722"/>
       <use x="83.789062" xlink:href="#DejaVuSans-50"/>
       <use x="147.412109" xlink:href="#DejaVuSans-46"/>
       <use x="179.199219" xlink:href="#DejaVuSans-53"/>
      </g>
     </g>
    </g>
    <g id="ytick_4">
     <g id="line2d_5">
      <g>
       <use style="stroke:#000000;stroke-width:0.8;" x="63" xlink:href="#ma532e90111" y="463.32"/>
      </g>
     </g>
     <g id="text_5">
      <!-- −2.0 -->
      <g transform="translate(31.717187 467.119219)scale(0.1 -0.1)">
       <use xlink:href="#DejaVuSans-8722"/>
       <use x="83.789062" xlink:href="#DejaVuSans-50"/>
       <use x="147.412109" xlink:href="#DejaVuSans-46"/>
       <use x="179.199219" xlink:href="#DejaVuSans-48"/>
      </g>
     </g>
    </g>
    <g id="ytick_5">
     <g id="line2d_6">
      <g>
       <use style="stroke:#000000;stroke-width:0.8;" x="63" xlink:href="#ma532e90111" y="425.52"/>
      </g>
     </g>
     <g id="text_6">
      <!-- −1.5 -->
      <g transform="translate(31.717187 429.319219)scale(0.1 -0.1)">
       <defs>
        <path d="M 12.40625 8.296875 
L 28.515625 8.296875 
L 28.515625 63.921875 
L 10.984375 60.40625 
L 10.984375 69.390625 
L 28.421875 72.90625 
L 38.28125 72.90625 
L 38.28125 8.296875 
L 54.390625 8.296875 
L 54.390625 0 
L 12.40625 0 
z
" id="DejaVuSans-49"/>
       </defs>
       <use xlink:href="#DejaVuSans-8722"/>
       <use x="83.789062" xlink:href="#DejaVuSans-49"/>
       <use x="147.412109" xlink:href="#DejaVuSans-46"/>
       <use x="179.199219" xlink:href="#DejaVuSans-53"/>
      </g>
     </g>
    </g>
    <g id="ytick_6">
     <g id="line2d_7">
      <g>
       <use style="stroke:#000000;stroke-width:0.8;" x="63" xlink:href="#ma532e90111" y="387.72"/>
      </g>
     </g>
     <g id="text_7">
      <!-- −1.0 -->
      <g transform="translate(31.717187 391.519219)scale(0.1 -0.1)">
       <use xlink:href="#DejaVuSans-8722"/>
       <use x="83.789062" xlink:href="#DejaVuSans-49"/>
       <use x="147.412109" xlink:href="#DejaVuSans-46"/>
       <use x="179.199219" xlink:href="#DejaVuSans-48"/>
      </g>
     </g>
    </g>
    <g id="ytick_7">
     <g id="line2d_8">
      <g>
       <use style="stroke:#000000;stroke-width:0.8;" x="63" xlink:href="#ma532e90111" y="349.92"/>
      </g>
     </g>
     <g id="text_8">
      <!-- −0.5 -->
      <g transform="translate(31.717187 353.719219)scale(0.1 -0.1)">
       <use xlink:href="#DejaVuSans-8722"/>
       <use x="83.789062" xlink:href="#DejaVuSans-48"/>
       <use x="147.412109" xlink:href="#DejaVuSans-46"/>
       <use x="179.199219" xlink:href="#DejaVuSans-53"/>
      </g>
     </g>
    </g>
    <g id="ytick_8">
     <g id="line2d_9">
      <g>
       <use style="stroke:#000000;stroke-width:0.8;" x="63" xlink:href="#ma532e90111" y="312.12"/>
      </g>
     </g>
     <g id="text_9">
      <!-- 0.0 -->
      <g transform="translate(40.096875 315.919219)scale(0.1 -0.1)">
       <use xlink:href="#DejaVuSans-48"/>
       <use x="63.623047" xlink:href="#DejaVuSans-46"/>
       <use x="95.410156" xlink:href="#DejaVuSans-48"/>
      </g>
     </g>
    </g>
    <g id="ytick_9">
     <g id="line2d_10">
      <g>
       <use style="stroke:#000000;stroke-width:0.8;" x="63" xlink:href="#ma532e90111" y="274.32"/>
      </g>
     </g>
     <g id="text_10">
      <!-- 0.5 -->
      <g transform="translate(40.096875 278.119219)scale(0.1 -0.1)">
       <use xlink:href="#DejaVuSans-48"/>
       <use x="63.623047" xlink:href="#DejaVuSans-46"/>
       <use x="95.410156" xlink:href="#DejaVuSans-53"/>
      </g>
     </g>
    </g>
    <g id="ytick_10">
     <g id="line2d_11">
      <g>
       <use style="stroke:#000000;stroke-width:0.8;" x="63" xlink:href="#ma532e90111" y="236.52"/>
      </g>
     </g>
     <g id="text_11">
      <!-- 1.0 -->
      <g transform="translate(40.096875 240.319219)scale(0.1 -0.1)">
       <use xlink:href="#DejaVuSans-49"/>
       <use x="63.623047" xlink:href="#DejaVuSans-46"/>
       <use x="95.410156" xlink:href="#DejaVuSans-48"/>
      </g>
     </g>
    </g>
    <g id="ytick_11">
     <g id="line2d_12">
      <g>
       <use style="stroke:#000000;stroke-width:0.8;" x="63" xlink:href="#ma532e90111" y="198.72"/>
      </g>
     </g>
     <g id="text_12">
      <!-- 1.5 -->
      <g transform="translate(40.096875 202.519219)scale(0.1 -0.1)">
       <use xlink:href="#DejaVuSans-49"/>
       <use x="63.623047" xlink:href="#DejaVuSans-46"/>
       <use x="95.410156" xlink:href="#DejaVuSans-53"/>
      </g>
     </g>
    </g>
    <g id="ytick_12">
     <g id="line2d_13">
      <g>
       <use style="stroke:#000000;stroke-width:0.8;" x="63" xlink:href="#ma532e90111" y="160.92"/>
      </g>
     </g>
     <g id="text_13">
      <!-- 2.0 -->
      <g transform="translate(40.096875 164.719219)scale(0.1 -0.1)">
       <use xlink:href="#DejaVuSans-50"/>
       <use x="63.623047" xlink:href="#DejaVuSans-46"/>
       <use x="95.410156" xlink:href="#DejaVuSans-48"/>
      </g>
     </g>
    </g>
    <g id="ytick_13">
     <g id="line2d_14">
      <g>
       <use style="stroke:#000000;stroke-width:0.8;" x="63" xlink:href="#ma532e90111" y="123.12"/>
      </g>
     </g>
     <g id="text_14">
      <!-- 2.5 -->
      <g transform="translate(40.096875 126.919219)scale(0.1 -0.1)">
       <use xlink:href="#DejaVuSans-50"/>
       <use x="63.623047" xlink:href="#DejaVuSans-46"/>
       <use x="95.410156" xlink:href="#DejaVuSans-53"/>
      </g>
     </g>
    </g>
    <g id="ytick_14">
     <g id="line2d_15">
      <g>
       <use style="stroke:#000000;stroke-width:0.8;" x="63" xlink:href="#ma532e90111" y="85.32"/>
      </g>
     </g>
     <g id="text_15">
      <!-- 3.0 -->
      <g transform="translate(40.096875 89.119219)scale(0.1 -0.1)">
       <use xlink:href="#DejaVuSans-51"/>
       <use x="63.623047" xlink:href="#DejaVuSans-46"/>
       <use x="95.410156" xlink:href="#DejaVuSans-48"/>
      </g>
     </g>
    </g>
    <g id="text_16">
     <!-- LogOdds -->
     <g transform="translate(25.6375 349.061094)rotate(-90)scale(0.1 -0.1)">
      <defs>
       <path d="M 9.8125 72.90625 
L 19.671875 72.90625 
L 19.671875 8.296875 
L 55.171875 8.296875 
L 55.171875 0 
L 9.8125 0 
z
" id="DejaVuSans-76"/>
       <path d="M 30.609375 48.390625 
Q 23.390625 48.390625 19.1875 42.75 
Q 14.984375 37.109375 14.984375 27.296875 
Q 14.984375 17.484375 19.15625 11.84375 
Q 23.34375 6.203125 30.609375 6.203125 
Q 37.796875 6.203125 41.984375 11.859375 
Q 46.1875 17.53125 46.1875 27.296875 
Q 46.1875 37.015625 41.984375 42.703125 
Q 37.796875 48.390625 30.609375 48.390625 
z
M 30.609375 56 
Q 42.328125 56 49.015625 48.375 
Q 55.71875 40.765625 55.71875 27.296875 
Q 55.71875 13.875 49.015625 6.21875 
Q 42.328125 -1.421875 30.609375 -1.421875 
Q 18.84375 -1.421875 12.171875 6.21875 
Q 5.515625 13.875 5.515625 27.296875 
Q 5.515625 40.765625 12.171875 48.375 
Q 18.84375 56 30.609375 56 
z
" id="DejaVuSans-111"/>
       <path d="M 45.40625 27.984375 
Q 45.40625 37.75 41.375 43.109375 
Q 37.359375 48.484375 30.078125 48.484375 
Q 22.859375 48.484375 18.828125 43.109375 
Q 14.796875 37.75 14.796875 27.984375 
Q 14.796875 18.265625 18.828125 12.890625 
Q 22.859375 7.515625 30.078125 7.515625 
Q 37.359375 7.515625 41.375 12.890625 
Q 45.40625 18.265625 45.40625 27.984375 
z
M 54.390625 6.78125 
Q 54.390625 -7.171875 48.1875 -13.984375 
Q 42 -20.796875 29.203125 -20.796875 
Q 24.46875 -20.796875 20.265625 -20.09375 
Q 16.0625 -19.390625 12.109375 -17.921875 
L 12.109375 -9.1875 
Q 16.0625 -11.328125 19.921875 -12.34375 
Q 23.78125 -13.375 27.78125 -13.375 
Q 36.625 -13.375 41.015625 -8.765625 
Q 45.40625 -4.15625 45.40625 5.171875 
L 45.40625 9.625 
Q 42.625 4.78125 38.28125 2.390625 
Q 33.9375 0 27.875 0 
Q 17.828125 0 11.671875 7.65625 
Q 5.515625 15.328125 5.515625 27.984375 
Q 5.515625 40.671875 11.671875 48.328125 
Q 17.828125 56 27.875 56 
Q 33.9375 56 38.28125 53.609375 
Q 42.625 51.21875 45.40625 46.390625 
L 45.40625 54.6875 
L 54.390625 54.6875 
z
" id="DejaVuSans-103"/>
       <path d="M 39.40625 66.21875 
Q 28.65625 66.21875 22.328125 58.203125 
Q 16.015625 50.203125 16.015625 36.375 
Q 16.015625 22.609375 22.328125 14.59375 
Q 28.65625 6.59375 39.40625 6.59375 
Q 50.140625 6.59375 56.421875 14.59375 
Q 62.703125 22.609375 62.703125 36.375 
Q 62.703125 50.203125 56.421875 58.203125 
Q 50.140625 66.21875 39.40625 66.21875 
z
M 39.40625 74.21875 
Q 54.734375 74.21875 63.90625 63.9375 
Q 73.09375 53.65625 73.09375 36.375 
Q 73.09375 19.140625 63.90625 8.859375 
Q 54.734375 -1.421875 39.40625 -1.421875 
Q 24.03125 -1.421875 14.8125 8.828125 
Q 5.609375 19.09375 5.609375 36.375 
Q 5.609375 53.65625 14.8125 63.9375 
Q 24.03125 74.21875 39.40625 74.21875 
z
" id="DejaVuSans-79"/>
       <path d="M 45.40625 46.390625 
L 45.40625 75.984375 
L 54.390625 75.984375 
L 54.390625 0 
L 45.40625 0 
L 45.40625 8.203125 
Q 42.578125 3.328125 38.25 0.953125 
Q 33.9375 -1.421875 27.875 -1.421875 
Q 17.96875 -1.421875 11.734375 6.484375 
Q 5.515625 14.40625 5.515625 27.296875 
Q 5.515625 40.1875 11.734375 48.09375 
Q 17.96875 56 27.875 56 
Q 33.9375 56 38.25 53.625 
Q 42.578125 51.265625 45.40625 46.390625 
z
M 14.796875 27.296875 
Q 14.796875 17.390625 18.875 11.75 
Q 22.953125 6.109375 30.078125 6.109375 
Q 37.203125 6.109375 41.296875 11.75 
Q 45.40625 17.390625 45.40625 27.296875 
Q 45.40625 37.203125 41.296875 42.84375 
Q 37.203125 48.484375 30.078125 48.484375 
Q 22.953125 48.484375 18.875 42.84375 
Q 14.796875 37.203125 14.796875 27.296875 
z
" id="DejaVuSans-100"/>
       <path d="M 44.28125 53.078125 
L 44.28125 44.578125 
Q 40.484375 46.53125 36.375 47.5 
Q 32.28125 48.484375 27.875 48.484375 
Q 21.1875 48.484375 17.84375 46.4375 
Q 14.5 44.390625 14.5 40.28125 
Q 14.5 37.15625 16.890625 35.375 
Q 19.28125 33.59375 26.515625 31.984375 
L 29.59375 31.296875 
Q 39.15625 29.25 43.1875 25.515625 
Q 47.21875 21.78125 47.21875 15.09375 
Q 47.21875 7.46875 41.1875 3.015625 
Q 35.15625 -1.421875 24.609375 -1.421875 
Q 20.21875 -1.421875 15.453125 -0.5625 
Q 10.6875 0.296875 5.421875 2 
L 5.421875 11.28125 
Q 10.40625 8.6875 15.234375 7.390625 
Q 20.0625 6.109375 24.8125 6.109375 
Q 31.15625 6.109375 34.5625 8.28125 
Q 37.984375 10.453125 37.984375 14.40625 
Q 37.984375 18.0625 35.515625 20.015625 
Q 33.0625 21.96875 24.703125 23.78125 
L 21.578125 24.515625 
Q 13.234375 26.265625 9.515625 29.90625 
Q 5.8125 33.546875 5.8125 39.890625 
Q 5.8125 47.609375 11.28125 51.796875 
Q 16.75 56 26.8125 56 
Q 31.78125 56 36.171875 55.265625 
Q 40.578125 54.546875 44.28125 53.078125 
z
" id="DejaVuSans-115"/>
      </defs>
      <use xlink:href="#DejaVuSans-76"/>
      <use x="53.962891" xlink:href="#DejaVuSans-111"/>
      <use x="115.144531" xlink:href="#DejaVuSans-103"/>
      <use x="178.621094" xlink:href="#DejaVuSans-79"/>
      <use x="257.332031" xlink:href="#DejaVuSans-100"/>
      <use x="320.808594" xlink:href="#DejaVuSans-100"/>
      <use x="384.285156" xlink:href="#DejaVuSans-115"/>
     </g>
    </g>
   </g>
   <g id="line2d_16">
    <path clip-path="url(#p223c368b5e)" d="M 229.005 292.32644 
L 287.595 292.32644 
L 287.595 250.102015 
L 229.005 250.102015 
L 229.005 292.32644 
" style="fill:none;stroke:#000000;stroke-linecap:square;"/>
   </g>
   <g id="line2d_17">
    <path clip-path="url(#p223c368b5e)" d="M 258.3 292.32644 
L 258.3 316.497554 
" style="fill:none;stroke:#000000;stroke-linecap:square;"/>
   </g>
   <g id="line2d_18">
    <path clip-path="url(#p223c368b5e)" d="M 258.3 250.102015 
L 258.3 209.735735 
" style="fill:none;stroke:#000000;stroke-linecap:square;"/>
   </g>
   <g id="line2d_19">
    <path clip-path="url(#p223c368b5e)" d="M 243.6525 316.497554 
L 272.9475 316.497554 
" style="fill:none;stroke:#000000;stroke-linecap:square;"/>
   </g>
   <g id="line2d_20">
    <path clip-path="url(#p223c368b5e)" d="M 243.6525 209.735735 
L 272.9475 209.735735 
" style="fill:none;stroke:#000000;stroke-linecap:square;"/>
   </g>
   <g id="line2d_21">
    <path clip-path="url(#p223c368b5e)" d="M 229.005 267.697002 
L 287.595 267.697002 
" style="fill:none;stroke:#ff7f0e;stroke-linecap:square;"/>
   </g>
   <g id="patch_3">
    <path d="M 63 576.72 
L 63 77.76 
" style="fill:none;stroke:#000000;stroke-linecap:square;stroke-linejoin:miter;stroke-width:0.8;"/>
   </g>
   <g id="patch_4">
    <path d="M 453.6 576.72 
L 453.6 77.76 
" style="fill:none;stroke:#000000;stroke-linecap:square;stroke-linejoin:miter;stroke-width:0.8;"/>
   </g>
   <g id="patch_5">
    <path d="M 63 576.72 
L 453.6 576.72 
" style="fill:none;stroke:#000000;stroke-linecap:square;stroke-linejoin:miter;stroke-width:0.8;"/>
   </g>
   <g id="patch_6">
    <path d="M 63 77.76 
L 453.6 77.76 
" style="fill:none;stroke:#000000;stroke-linecap:square;stroke-linejoin:miter;stroke-width:0.8;"/>
   </g>
   <g id="text_17">
    <!-- 0 -->
    <g style="fill:#2f4f4f;" transform="translate(246.056063 300.264551)scale(0.1 -0.1)">
     <use xlink:href="#DejaVuSans-48"/>
    </g>
   </g>
   <g id="text_18">
    <!-- 1.0 -->
    <g style="fill:#556b2f;" transform="translate(265.355103 315.59294)scale(0.1 -0.1)">
     <use xlink:href="#DejaVuSans-49"/>
     <use x="63.623047" xlink:href="#DejaVuSans-46"/>
     <use x="95.410156" xlink:href="#DejaVuSans-48"/>
    </g>
   </g>
   <g id="text_19">
    <!-- 3.0 -->
    <g style="fill:#2e8b57;" transform="translate(250.140838 266.941002)scale(0.1 -0.1)">
     <use xlink:href="#DejaVuSans-51"/>
     <use x="63.623047" xlink:href="#DejaVuSans-46"/>
     <use x="95.410156" xlink:href="#DejaVuSans-48"/>
    </g>
   </g>
   <g id="text_20">
    <!-- 4 -->
    <g style="fill:#228b22;" transform="translate(271.38966 274.296185)scale(0.1 -0.1)">
     <defs>
      <path d="M 37.796875 64.3125 
L 12.890625 25.390625 
L 37.796875 25.390625 
z
M 35.203125 72.90625 
L 47.609375 72.90625 
L 47.609375 25.390625 
L 58.015625 25.390625 
L 58.015625 17.1875 
L 47.609375 17.1875 
L 47.609375 0 
L 37.796875 0 
L 37.796875 17.1875 
L 4.890625 17.1875 
L 4.890625 26.703125 
z
" id="DejaVuSans-52"/>
     </defs>
     <use xlink:href="#DejaVuSans-52"/>
    </g>
   </g>
   <g id="text_21">
    <!-- 6 -->
    <g style="fill:#8b0000;" transform="translate(296.139708 254.907455)scale(0.1 -0.1)">
     <defs>
      <path d="M 33.015625 40.375 
Q 26.375 40.375 22.484375 35.828125 
Q 18.609375 31.296875 18.609375 23.390625 
Q 18.609375 15.53125 22.484375 10.953125 
Q 26.375 6.390625 33.015625 6.390625 
Q 39.65625 6.390625 43.53125 10.953125 
Q 47.40625 15.53125 47.40625 23.390625 
Q 47.40625 31.296875 43.53125 35.828125 
Q 39.65625 40.375 33.015625 40.375 
z
M 52.59375 71.296875 
L 52.59375 62.3125 
Q 48.875 64.0625 45.09375 64.984375 
Q 41.3125 65.921875 37.59375 65.921875 
Q 27.828125 65.921875 22.671875 59.328125 
Q 17.53125 52.734375 16.796875 39.40625 
Q 19.671875 43.65625 24.015625 45.921875 
Q 28.375 48.1875 33.59375 48.1875 
Q 44.578125 48.1875 50.953125 41.515625 
Q 57.328125 34.859375 57.328125 23.390625 
Q 57.328125 12.15625 50.6875 5.359375 
Q 44.046875 -1.421875 33.015625 -1.421875 
Q 20.359375 -1.421875 13.671875 8.265625 
Q 6.984375 17.96875 6.984375 36.375 
Q 6.984375 53.65625 15.1875 63.9375 
Q 23.390625 74.21875 37.203125 74.21875 
Q 40.921875 74.21875 44.703125 73.484375 
Q 48.484375 72.75 52.59375 71.296875 
z
" id="DejaVuSans-54"/>
     </defs>
     <use xlink:href="#DejaVuSans-54"/>
    </g>
   </g>
   <g id="text_22">
    <!-- 7 -->
    <g style="fill:#808000;" transform="translate(240.223132 238.3775)scale(0.1 -0.1)">
     <defs>
      <path d="M 8.203125 72.90625 
L 55.078125 72.90625 
L 55.078125 68.703125 
L 28.609375 0 
L 18.3125 0 
L 43.21875 64.59375 
L 8.203125 64.59375 
z
" id="DejaVuSans-55"/>
     </defs>
     <use xlink:href="#DejaVuSans-55"/>
    </g>
   </g>
   <g id="text_23">
    <!-- 9 -->
    <g style="fill:#008080;" transform="translate(294.095575 291.57044)scale(0.1 -0.1)">
     <defs>
      <path d="M 10.984375 1.515625 
L 10.984375 10.5 
Q 14.703125 8.734375 18.5 7.8125 
Q 22.3125 6.890625 25.984375 6.890625 
Q 35.75 6.890625 40.890625 13.453125 
Q 46.046875 20.015625 46.78125 33.40625 
Q 43.953125 29.203125 39.59375 26.953125 
Q 35.25 24.703125 29.984375 24.703125 
Q 19.046875 24.703125 12.671875 31.3125 
Q 6.296875 37.9375 6.296875 49.421875 
Q 6.296875 60.640625 12.9375 67.421875 
Q 19.578125 74.21875 30.609375 74.21875 
Q 43.265625 74.21875 49.921875 64.515625 
Q 56.59375 54.828125 56.59375 36.375 
Q 56.59375 19.140625 48.40625 8.859375 
Q 40.234375 -1.421875 26.421875 -1.421875 
Q 22.703125 -1.421875 18.890625 -0.6875 
Q 15.09375 0.046875 10.984375 1.515625 
z
M 30.609375 32.421875 
Q 37.25 32.421875 41.125 36.953125 
Q 45.015625 41.5 45.015625 49.421875 
Q 45.015625 57.28125 41.125 61.84375 
Q 37.25 66.40625 30.609375 66.40625 
Q 23.96875 66.40625 20.09375 61.84375 
Q 16.21875 57.28125 16.21875 49.421875 
Q 16.21875 41.5 20.09375 36.953125 
Q 23.96875 32.421875 30.609375 32.421875 
z
" id="DejaVuSans-57"/>
     </defs>
     <use xlink:href="#DejaVuSans-57"/>
    </g>
   </g>
   <g id="text_24">
    <!-- 10 -->
    <g style="fill:#b8860b;" transform="translate(261.677571 248.747331)scale(0.1 -0.1)">
     <use xlink:href="#DejaVuSans-49"/>
     <use x="63.623047" xlink:href="#DejaVuSans-48"/>
    </g>
   </g>
   <g id="text_25">
    <!-- 11 -->
    <g style="fill:#4682b4;" transform="translate(248.440416 276.291542)scale(0.1 -0.1)">
     <use xlink:href="#DejaVuSans-49"/>
     <use x="63.623047" xlink:href="#DejaVuSans-49"/>
    </g>
   </g>
   <g id="text_26">
    <!-- 12 -->
    <g style="fill:#d2691e;" transform="translate(267.516461 281.555025)scale(0.1 -0.1)">
     <use xlink:href="#DejaVuSans-49"/>
     <use x="63.623047" xlink:href="#DejaVuSans-50"/>
    </g>
   </g>
   <g id="text_27">
    <!-- 14 -->
    <g style="fill:#32cd32;" transform="translate(265.956946 256.946857)scale(0.1 -0.1)">
     <use xlink:href="#DejaVuSans-49"/>
     <use x="63.623047" xlink:href="#DejaVuSans-52"/>
    </g>
   </g>
   <g id="text_28">
    <!-- 15 -->
    <g style="fill:#8fbc8f;" transform="translate(263.810587 437.348888)scale(0.1 -0.1)">
     <use xlink:href="#DejaVuSans-49"/>
     <use x="63.623047" xlink:href="#DejaVuSans-53"/>
    </g>
   </g>
   <g id="text_29">
    <!-- 19.0 -->
    <g style="fill:#ff4500;" transform="translate(269.161183 255.36078)scale(0.1 -0.1)">
     <use xlink:href="#DejaVuSans-49"/>
     <use x="63.623047" xlink:href="#DejaVuSans-57"/>
     <use x="127.246094" xlink:href="#DejaVuSans-46"/>
     <use x="159.033203" xlink:href="#DejaVuSans-48"/>
    </g>
   </g>
   <g id="text_30">
    <!-- 22.0 -->
    <g style="fill:#ffd700;" transform="translate(284.397541 208.979735)scale(0.1 -0.1)">
     <use xlink:href="#DejaVuSans-50"/>
     <use x="63.623047" xlink:href="#DejaVuSans-50"/>
     <use x="127.246094" xlink:href="#DejaVuSans-46"/>
     <use x="159.033203" xlink:href="#DejaVuSans-48"/>
    </g>
   </g>
   <g id="text_31">
    <!-- 23 -->
    <g style="fill:#0000cd;" transform="translate(259.885696 291.678982)scale(0.1 -0.1)">
     <use xlink:href="#DejaVuSans-50"/>
     <use x="63.623047" xlink:href="#DejaVuSans-51"/>
    </g>
   </g>
   <g id="text_32">
    <!-- 24 -->
    <g style="fill:#deb887;" transform="translate(281.068478 276.311412)scale(0.1 -0.1)">
     <use xlink:href="#DejaVuSans-50"/>
     <use x="63.623047" xlink:href="#DejaVuSans-52"/>
    </g>
   </g>
   <g id="text_33">
    <!-- 25 -->
    <g style="fill:#00ff00;" transform="translate(249.225575 254.650578)scale(0.1 -0.1)">
     <use xlink:href="#DejaVuSans-50"/>
     <use x="63.623047" xlink:href="#DejaVuSans-53"/>
    </g>
   </g>
   <g id="text_34">
    <!-- 21.4 -->
    <g style="fill:#00fa9a;" transform="translate(217.972745 315.741554)scale(0.1 -0.1)">
     <use xlink:href="#DejaVuSans-50"/>
     <use x="63.623047" xlink:href="#DejaVuSans-49"/>
     <use x="127.246094" xlink:href="#DejaVuSans-46"/>
     <use x="159.033203" xlink:href="#DejaVuSans-52"/>
    </g>
   </g>
   <g id="text_35">
    <!-- 26 -->
    <g style="fill:#dc143c;" transform="translate(258.853013 249.346015)scale(0.1 -0.1)">
     <use xlink:href="#DejaVuSans-50"/>
     <use x="63.623047" xlink:href="#DejaVuSans-54"/>
    </g>
   </g>
   <g id="text_36">
    <!-- 20.3 -->
    <g style="fill:#a020f0;" transform="translate(260.485061 355.07937)scale(0.1 -0.1)">
     <use xlink:href="#DejaVuSans-50"/>
     <use x="63.623047" xlink:href="#DejaVuSans-48"/>
     <use x="127.246094" xlink:href="#DejaVuSans-46"/>
     <use x="159.033203" xlink:href="#DejaVuSans-51"/>
    </g>
   </g>
   <g id="text_37">
    <!-- 28 -->
    <g style="fill:#da70d6;" transform="translate(255.387851 253.654981)scale(0.1 -0.1)">
     <defs>
      <path d="M 31.78125 34.625 
Q 24.75 34.625 20.71875 30.859375 
Q 16.703125 27.09375 16.703125 20.515625 
Q 16.703125 13.921875 20.71875 10.15625 
Q 24.75 6.390625 31.78125 6.390625 
Q 38.8125 6.390625 42.859375 10.171875 
Q 46.921875 13.96875 46.921875 20.515625 
Q 46.921875 27.09375 42.890625 30.859375 
Q 38.875 34.625 31.78125 34.625 
z
M 21.921875 38.8125 
Q 15.578125 40.375 12.03125 44.71875 
Q 8.5 49.078125 8.5 55.328125 
Q 8.5 64.0625 14.71875 69.140625 
Q 20.953125 74.21875 31.78125 74.21875 
Q 42.671875 74.21875 48.875 69.140625 
Q 55.078125 64.0625 55.078125 55.328125 
Q 55.078125 49.078125 51.53125 44.71875 
Q 48 40.375 41.703125 38.8125 
Q 48.828125 37.15625 52.796875 32.3125 
Q 56.78125 27.484375 56.78125 20.515625 
Q 56.78125 9.90625 50.3125 4.234375 
Q 43.84375 -1.421875 31.78125 -1.421875 
Q 19.734375 -1.421875 13.25 4.234375 
Q 6.78125 9.90625 6.78125 20.515625 
Q 6.78125 27.484375 10.78125 32.3125 
Q 14.796875 37.15625 21.921875 38.8125 
z
M 18.3125 54.390625 
Q 18.3125 48.734375 21.84375 45.5625 
Q 25.390625 42.390625 31.78125 42.390625 
Q 38.140625 42.390625 41.71875 45.5625 
Q 45.3125 48.734375 45.3125 54.390625 
Q 45.3125 60.0625 41.71875 63.234375 
Q 38.140625 66.40625 31.78125 66.40625 
Q 25.390625 66.40625 21.84375 63.234375 
Q 18.3125 60.0625 18.3125 54.390625 
z
" id="DejaVuSans-56"/>
     </defs>
     <use xlink:href="#DejaVuSans-50"/>
     <use x="63.623047" xlink:href="#DejaVuSans-56"/>
    </g>
   </g>
   <g id="text_38">
    <!-- 18.1 -->
    <g style="fill:#dda0dd;" transform="translate(242.963015 239.194383)scale(0.1 -0.1)">
     <use xlink:href="#DejaVuSans-49"/>
     <use x="63.623047" xlink:href="#DejaVuSans-56"/>
     <use x="127.246094" xlink:href="#DejaVuSans-46"/>
     <use x="159.033203" xlink:href="#DejaVuSans-49"/>
    </g>
   </g>
   <g id="text_39">
    <!-- 17.1 -->
    <g style="fill:#7b68ee;" transform="translate(273.641899 269.955349)scale(0.1 -0.1)">
     <use xlink:href="#DejaVuSans-49"/>
     <use x="63.623047" xlink:href="#DejaVuSans-55"/>
     <use x="127.246094" xlink:href="#DejaVuSans-46"/>
     <use x="159.033203" xlink:href="#DejaVuSans-49"/>
    </g>
   </g>
   <g id="text_40">
    <!-- 5.2 -->
    <g style="fill:#7fffd4;" transform="translate(265.175732 242.694149)scale(0.1 -0.1)">
     <use xlink:href="#DejaVuSans-53"/>
     <use x="63.623047" xlink:href="#DejaVuSans-46"/>
     <use x="95.410156" xlink:href="#DejaVuSans-50"/>
    </g>
   </g>
   <g id="text_41">
    <!-- 1.1 -->
    <g style="fill:#8b4513;" transform="translate(258.89277 234.546589)scale(0.1 -0.1)">
     <use xlink:href="#DejaVuSans-49"/>
     <use x="63.623047" xlink:href="#DejaVuSans-46"/>
     <use x="95.410156" xlink:href="#DejaVuSans-49"/>
    </g>
   </g>
  </g>
 </g>
 <defs>
  <clipPath id="p223c368b5e">
   <rect height="498.96" width="390.6" x="63" y="77.76"/>
  </clipPath>
 </defs>
</svg>
