<?xml version="1.0" encoding="utf-8" standalone="no"?>
<!DOCTYPE svg PUBLIC "-//W3C//DTD SVG 1.1//EN"
  "http://www.w3.org/Graphics/SVG/1.1/DTD/svg11.dtd">
<!-- Created with matplotlib (https://matplotlib.org/) -->
<svg height="576pt" version="1.1" viewBox="0 0 504 576" width="504pt" xmlns="http://www.w3.org/2000/svg" xmlns:xlink="http://www.w3.org/1999/xlink">
 <metadata>
  <rdf:RDF xmlns:cc="http://creativecommons.org/ns#" xmlns:dc="http://purl.org/dc/elements/1.1/" xmlns:rdf="http://www.w3.org/1999/02/22-rdf-syntax-ns#">
   <cc:Work>
    <dc:type rdf:resource="http://purl.org/dc/dcmitype/StillImage"/>
    <dc:date>2023-03-07T12:42:01.244851</dc:date>
    <dc:format>image/svg+xml</dc:format>
    <dc:creator>
     <cc:Agent>
      <dc:title>Matplotlib v3.3.4, https://matplotlib.org/</dc:title>
     </cc:Agent>
    </dc:creator>
   </cc:Work>
  </rdf:RDF>
 </metadata>
 <defs>
  <style type="text/css">*{stroke-linecap:butt;stroke-linejoin:round;}</style>
 </defs>
 <g id="figure_1">
  <g id="patch_1">
   <path d="M 0 576 
L 504 576 
L 504 0 
L 0 0 
z
" style="fill:#ffffff;"/>
  </g>
  <g id="axes_1">
   <g id="patch_2">
    <path d="M 63 279.911489 
L 453.6 279.911489 
L 453.6 69.12 
L 63 69.12 
z
" style="fill:#ffffff;"/>
   </g>
   <g id="patch_3">
    <path clip-path="url(#pcafb8cefec)" d="M 80.754545 297.034621 
L 84.10446 297.034621 
L 84.10446 69.12 
L 80.754545 69.12 
z
" style="fill:#e6194b;"/>
   </g>
   <g id="patch_4">
    <path clip-path="url(#pcafb8cefec)" d="M 97.504117 297.034621 
L 100.854031 297.034621 
L 100.854031 180.567024 
L 97.504117 180.567024 
z
" style="fill:#e6194b;"/>
   </g>
   <g id="patch_5">
    <path clip-path="url(#pcafb8cefec)" d="M 114.253688 297.034621 
L 117.603602 297.034621 
L 117.603602 217.031284 
L 114.253688 217.031284 
z
" style="fill:#e6194b;"/>
   </g>
   <g id="patch_6">
    <path clip-path="url(#pcafb8cefec)" d="M 131.003259 297.034621 
L 134.353173 297.034621 
L 134.353173 229.684126 
L 131.003259 229.684126 
z
" style="fill:#e6194b;"/>
   </g>
   <g id="patch_7">
    <path clip-path="url(#pcafb8cefec)" d="M 147.75283 297.034621 
L 151.102744 297.034621 
L 151.102744 243.881983 
L 147.75283 243.881983 
z
" style="fill:#e6194b;"/>
   </g>
   <g id="patch_8">
    <path clip-path="url(#pcafb8cefec)" d="M 164.502401 297.034621 
L 167.852316 297.034621 
L 167.852316 249.481275 
L 164.502401 249.481275 
z
" style="fill:#e6194b;"/>
   </g>
   <g id="patch_9">
    <path clip-path="url(#pcafb8cefec)" d="M 181.251973 297.034621 
L 184.601887 297.034621 
L 184.601887 249.895175 
L 181.251973 249.895175 
z
" style="fill:#e6194b;"/>
   </g>
   <g id="patch_10">
    <path clip-path="url(#pcafb8cefec)" d="M 198.001544 297.034621 
L 201.351458 297.034621 
L 201.351458 262.548017 
L 198.001544 262.548017 
z
" style="fill:#e6194b;"/>
   </g>
   <g id="patch_11">
    <path clip-path="url(#pcafb8cefec)" d="M 214.751115 297.034621 
L 218.101029 297.034621 
L 218.101029 268.051204 
L 214.751115 268.051204 
z
" style="fill:#e6194b;"/>
   </g>
   <g id="patch_12">
    <path clip-path="url(#pcafb8cefec)" d="M 231.500686 297.034621 
L 234.8506 297.034621 
L 234.8506 263.227063 
L 231.500686 263.227063 
z
" style="fill:#e6194b;"/>
   </g>
   <g id="patch_13">
    <path clip-path="url(#pcafb8cefec)" d="M 248.250257 297.034621 
L 251.600172 297.034621 
L 251.600172 259.612869 
L 248.250257 259.612869 
z
" style="fill:#e6194b;"/>
   </g>
   <g id="patch_14">
    <path clip-path="url(#pcafb8cefec)" d="M 264.999828 297.034621 
L 268.349743 297.034621 
L 268.349743 257.661833 
L 264.999828 257.661833 
z
" style="fill:#e6194b;"/>
   </g>
   <g id="patch_15">
    <path clip-path="url(#pcafb8cefec)" d="M 281.7494 297.034621 
L 285.099314 297.034621 
L 285.099314 257.681175 
L 281.7494 257.681175 
z
" style="fill:#e6194b;"/>
   </g>
   <g id="patch_16">
    <path clip-path="url(#pcafb8cefec)" d="M 298.498971 297.034621 
L 301.848885 297.034621 
L 301.848885 255.983847 
L 298.498971 255.983847 
z
" style="fill:#e6194b;"/>
   </g>
   <g id="patch_17">
    <path clip-path="url(#pcafb8cefec)" d="M 315.248542 297.034621 
L 318.598456 297.034621 
L 318.598456 261.184075 
L 315.248542 261.184075 
z
" style="fill:#e6194b;"/>
   </g>
   <g id="patch_18">
    <path clip-path="url(#pcafb8cefec)" d="M 331.998113 297.034621 
L 335.348027 297.034621 
L 335.348027 268.809894 
L 331.998113 268.809894 
z
" style="fill:#e6194b;"/>
   </g>
   <g id="patch_19">
    <path clip-path="url(#pcafb8cefec)" d="M 348.747684 297.034621 
L 352.097599 297.034621 
L 352.097599 273.629416 
L 348.747684 273.629416 
z
" style="fill:#e6194b;"/>
   </g>
   <g id="patch_20">
    <path clip-path="url(#pcafb8cefec)" d="M 365.497256 297.034621 
L 368.84717 297.034621 
L 368.84717 277.824445 
L 365.497256 277.824445 
z
" style="fill:#e6194b;"/>
   </g>
   <g id="patch_21">
    <path clip-path="url(#pcafb8cefec)" d="M 382.246827 297.034621 
L 385.596741 297.034621 
L 385.596741 257.615462 
L 382.246827 257.615462 
z
" style="fill:#e6194b;"/>
   </g>
   <g id="patch_22">
    <path clip-path="url(#pcafb8cefec)" d="M 398.996398 297.034621 
L 402.346312 297.034621 
L 402.346312 247.143187 
L 398.996398 247.143187 
z
" style="fill:#e6194b;"/>
   </g>
   <g id="patch_23">
    <path clip-path="url(#pcafb8cefec)" d="M 415.745969 297.034621 
L 419.095883 297.034621 
L 419.095883 249.366616 
L 415.745969 249.366616 
z
" style="fill:#e6194b;"/>
   </g>
   <g id="patch_24">
    <path clip-path="url(#pcafb8cefec)" d="M 432.49554 297.034621 
L 435.845455 297.034621 
L 435.845455 245.269794 
L 432.49554 245.269794 
z
" style="fill:#e6194b;"/>
   </g>
   <g id="matplotlib.axis_1">
    <g id="xtick_1">
     <g id="line2d_1">
      <defs>
       <path d="M 0 0 
L 0 3.5 
" id="me46426777f" style="stroke:#000000;stroke-width:0.8;"/>
      </defs>
      <g>
       <use style="stroke:#000000;stroke-width:0.8;" x="89.129331" xlink:href="#me46426777f" y="279.911489"/>
      </g>
     </g>
     <g id="text_1">
      <!-- 3 -->
      <g transform="translate(85.948081 294.509927)scale(0.1 -0.1)">
       <defs>
        <path d="M 40.578125 39.3125 
Q 47.65625 37.796875 51.625 33 
Q 55.609375 28.21875 55.609375 21.1875 
Q 55.609375 10.40625 48.1875 4.484375 
Q 40.765625 -1.421875 27.09375 -1.421875 
Q 22.515625 -1.421875 17.65625 -0.515625 
Q 12.796875 0.390625 7.625 2.203125 
L 7.625 11.71875 
Q 11.71875 9.328125 16.59375 8.109375 
Q 21.484375 6.890625 26.8125 6.890625 
Q 36.078125 6.890625 40.9375 10.546875 
Q 45.796875 14.203125 45.796875 21.1875 
Q 45.796875 27.640625 41.28125 31.265625 
Q 36.765625 34.90625 28.71875 34.90625 
L 20.21875 34.90625 
L 20.21875 43.015625 
L 29.109375 43.015625 
Q 36.375 43.015625 40.234375 45.921875 
Q 44.09375 48.828125 44.09375 54.296875 
Q 44.09375 59.90625 40.109375 62.90625 
Q 36.140625 65.921875 28.71875 65.921875 
Q 24.65625 65.921875 20.015625 65.03125 
Q 15.375 64.15625 9.8125 62.3125 
L 9.8125 71.09375 
Q 15.4375 72.65625 20.34375 73.4375 
Q 25.25 74.21875 29.59375 74.21875 
Q 40.828125 74.21875 47.359375 69.109375 
Q 53.90625 64.015625 53.90625 55.328125 
Q 53.90625 49.265625 50.4375 45.09375 
Q 46.96875 40.921875 40.578125 39.3125 
z
" id="DejaVuSans-51"/>
       </defs>
       <use xlink:href="#DejaVuSans-51"/>
      </g>
     </g>
    </g>
    <g id="xtick_2">
     <g id="line2d_2">
      <g>
       <use style="stroke:#000000;stroke-width:0.8;" x="105.878902" xlink:href="#me46426777f" y="279.911489"/>
      </g>
     </g>
     <g id="text_2">
      <!-- 4 -->
      <g transform="translate(102.697652 294.509927)scale(0.1 -0.1)">
       <defs>
        <path d="M 37.796875 64.3125 
L 12.890625 25.390625 
L 37.796875 25.390625 
z
M 35.203125 72.90625 
L 47.609375 72.90625 
L 47.609375 25.390625 
L 58.015625 25.390625 
L 58.015625 17.1875 
L 47.609375 17.1875 
L 47.609375 0 
L 37.796875 0 
L 37.796875 17.1875 
L 4.890625 17.1875 
L 4.890625 26.703125 
z
" id="DejaVuSans-52"/>
       </defs>
       <use xlink:href="#DejaVuSans-52"/>
      </g>
     </g>
    </g>
    <g id="xtick_3">
     <g id="line2d_3">
      <g>
       <use style="stroke:#000000;stroke-width:0.8;" x="122.628473" xlink:href="#me46426777f" y="279.911489"/>
      </g>
     </g>
     <g id="text_3">
      <!-- 5 -->
      <g transform="translate(119.447223 294.509927)scale(0.1 -0.1)">
       <defs>
        <path d="M 10.796875 72.90625 
L 49.515625 72.90625 
L 49.515625 64.59375 
L 19.828125 64.59375 
L 19.828125 46.734375 
Q 21.96875 47.46875 24.109375 47.828125 
Q 26.265625 48.1875 28.421875 48.1875 
Q 40.625 48.1875 47.75 41.5 
Q 54.890625 34.8125 54.890625 23.390625 
Q 54.890625 11.625 47.5625 5.09375 
Q 40.234375 -1.421875 26.90625 -1.421875 
Q 22.3125 -1.421875 17.546875 -0.640625 
Q 12.796875 0.140625 7.71875 1.703125 
L 7.71875 11.625 
Q 12.109375 9.234375 16.796875 8.0625 
Q 21.484375 6.890625 26.703125 6.890625 
Q 35.15625 6.890625 40.078125 11.328125 
Q 45.015625 15.765625 45.015625 23.390625 
Q 45.015625 31 40.078125 35.4375 
Q 35.15625 39.890625 26.703125 39.890625 
Q 22.75 39.890625 18.8125 39.015625 
Q 14.890625 38.140625 10.796875 36.28125 
z
" id="DejaVuSans-53"/>
       </defs>
       <use xlink:href="#DejaVuSans-53"/>
      </g>
     </g>
    </g>
    <g id="xtick_4">
     <g id="line2d_4">
      <g>
       <use style="stroke:#000000;stroke-width:0.8;" x="139.378045" xlink:href="#me46426777f" y="279.911489"/>
      </g>
     </g>
     <g id="text_4">
      <!-- 6 -->
      <g transform="translate(136.196795 294.509927)scale(0.1 -0.1)">
       <defs>
        <path d="M 33.015625 40.375 
Q 26.375 40.375 22.484375 35.828125 
Q 18.609375 31.296875 18.609375 23.390625 
Q 18.609375 15.53125 22.484375 10.953125 
Q 26.375 6.390625 33.015625 6.390625 
Q 39.65625 6.390625 43.53125 10.953125 
Q 47.40625 15.53125 47.40625 23.390625 
Q 47.40625 31.296875 43.53125 35.828125 
Q 39.65625 40.375 33.015625 40.375 
z
M 52.59375 71.296875 
L 52.59375 62.3125 
Q 48.875 64.0625 45.09375 64.984375 
Q 41.3125 65.921875 37.59375 65.921875 
Q 27.828125 65.921875 22.671875 59.328125 
Q 17.53125 52.734375 16.796875 39.40625 
Q 19.671875 43.65625 24.015625 45.921875 
Q 28.375 48.1875 33.59375 48.1875 
Q 44.578125 48.1875 50.953125 41.515625 
Q 57.328125 34.859375 57.328125 23.390625 
Q 57.328125 12.15625 50.6875 5.359375 
Q 44.046875 -1.421875 33.015625 -1.421875 
Q 20.359375 -1.421875 13.671875 8.265625 
Q 6.984375 17.96875 6.984375 36.375 
Q 6.984375 53.65625 15.1875 63.9375 
Q 23.390625 74.21875 37.203125 74.21875 
Q 40.921875 74.21875 44.703125 73.484375 
Q 48.484375 72.75 52.59375 71.296875 
z
" id="DejaVuSans-54"/>
       </defs>
       <use xlink:href="#DejaVuSans-54"/>
      </g>
     </g>
    </g>
    <g id="xtick_5">
     <g id="line2d_5">
      <g>
       <use style="stroke:#000000;stroke-width:0.8;" x="156.127616" xlink:href="#me46426777f" y="279.911489"/>
      </g>
     </g>
     <g id="text_5">
      <!-- 7 -->
      <g transform="translate(152.946366 294.509927)scale(0.1 -0.1)">
       <defs>
        <path d="M 8.203125 72.90625 
L 55.078125 72.90625 
L 55.078125 68.703125 
L 28.609375 0 
L 18.3125 0 
L 43.21875 64.59375 
L 8.203125 64.59375 
z
" id="DejaVuSans-55"/>
       </defs>
       <use xlink:href="#DejaVuSans-55"/>
      </g>
     </g>
    </g>
    <g id="xtick_6">
     <g id="line2d_6">
      <g>
       <use style="stroke:#000000;stroke-width:0.8;" x="172.877187" xlink:href="#me46426777f" y="279.911489"/>
      </g>
     </g>
     <g id="text_6">
      <!-- 8 -->
      <g transform="translate(169.695937 294.509927)scale(0.1 -0.1)">
       <defs>
        <path d="M 31.78125 34.625 
Q 24.75 34.625 20.71875 30.859375 
Q 16.703125 27.09375 16.703125 20.515625 
Q 16.703125 13.921875 20.71875 10.15625 
Q 24.75 6.390625 31.78125 6.390625 
Q 38.8125 6.390625 42.859375 10.171875 
Q 46.921875 13.96875 46.921875 20.515625 
Q 46.921875 27.09375 42.890625 30.859375 
Q 38.875 34.625 31.78125 34.625 
z
M 21.921875 38.8125 
Q 15.578125 40.375 12.03125 44.71875 
Q 8.5 49.078125 8.5 55.328125 
Q 8.5 64.0625 14.71875 69.140625 
Q 20.953125 74.21875 31.78125 74.21875 
Q 42.671875 74.21875 48.875 69.140625 
Q 55.078125 64.0625 55.078125 55.328125 
Q 55.078125 49.078125 51.53125 44.71875 
Q 48 40.375 41.703125 38.8125 
Q 48.828125 37.15625 52.796875 32.3125 
Q 56.78125 27.484375 56.78125 20.515625 
Q 56.78125 9.90625 50.3125 4.234375 
Q 43.84375 -1.421875 31.78125 -1.421875 
Q 19.734375 -1.421875 13.25 4.234375 
Q 6.78125 9.90625 6.78125 20.515625 
Q 6.78125 27.484375 10.78125 32.3125 
Q 14.796875 37.15625 21.921875 38.8125 
z
M 18.3125 54.390625 
Q 18.3125 48.734375 21.84375 45.5625 
Q 25.390625 42.390625 31.78125 42.390625 
Q 38.140625 42.390625 41.71875 45.5625 
Q 45.3125 48.734375 45.3125 54.390625 
Q 45.3125 60.0625 41.71875 63.234375 
Q 38.140625 66.40625 31.78125 66.40625 
Q 25.390625 66.40625 21.84375 63.234375 
Q 18.3125 60.0625 18.3125 54.390625 
z
" id="DejaVuSans-56"/>
       </defs>
       <use xlink:href="#DejaVuSans-56"/>
      </g>
     </g>
    </g>
    <g id="xtick_7">
     <g id="line2d_7">
      <g>
       <use style="stroke:#000000;stroke-width:0.8;" x="189.626758" xlink:href="#me46426777f" y="279.911489"/>
      </g>
     </g>
     <g id="text_7">
      <!-- 9 -->
      <g transform="translate(186.445508 294.509927)scale(0.1 -0.1)">
       <defs>
        <path d="M 10.984375 1.515625 
L 10.984375 10.5 
Q 14.703125 8.734375 18.5 7.8125 
Q 22.3125 6.890625 25.984375 6.890625 
Q 35.75 6.890625 40.890625 13.453125 
Q 46.046875 20.015625 46.78125 33.40625 
Q 43.953125 29.203125 39.59375 26.953125 
Q 35.25 24.703125 29.984375 24.703125 
Q 19.046875 24.703125 12.671875 31.3125 
Q 6.296875 37.9375 6.296875 49.421875 
Q 6.296875 60.640625 12.9375 67.421875 
Q 19.578125 74.21875 30.609375 74.21875 
Q 43.265625 74.21875 49.921875 64.515625 
Q 56.59375 54.828125 56.59375 36.375 
Q 56.59375 19.140625 48.40625 8.859375 
Q 40.234375 -1.421875 26.421875 -1.421875 
Q 22.703125 -1.421875 18.890625 -0.6875 
Q 15.09375 0.046875 10.984375 1.515625 
z
M 30.609375 32.421875 
Q 37.25 32.421875 41.125 36.953125 
Q 45.015625 41.5 45.015625 49.421875 
Q 45.015625 57.28125 41.125 61.84375 
Q 37.25 66.40625 30.609375 66.40625 
Q 23.96875 66.40625 20.09375 61.84375 
Q 16.21875 57.28125 16.21875 49.421875 
Q 16.21875 41.5 20.09375 36.953125 
Q 23.96875 32.421875 30.609375 32.421875 
z
" id="DejaVuSans-57"/>
       </defs>
       <use xlink:href="#DejaVuSans-57"/>
      </g>
     </g>
    </g>
    <g id="xtick_8">
     <g id="line2d_8">
      <g>
       <use style="stroke:#000000;stroke-width:0.8;" x="206.376329" xlink:href="#me46426777f" y="279.911489"/>
      </g>
     </g>
     <g id="text_8">
      <!-- 10 -->
      <g transform="translate(200.013829 294.509927)scale(0.1 -0.1)">
       <defs>
        <path d="M 12.40625 8.296875 
L 28.515625 8.296875 
L 28.515625 63.921875 
L 10.984375 60.40625 
L 10.984375 69.390625 
L 28.421875 72.90625 
L 38.28125 72.90625 
L 38.28125 8.296875 
L 54.390625 8.296875 
L 54.390625 0 
L 12.40625 0 
z
" id="DejaVuSans-49"/>
        <path d="M 31.78125 66.40625 
Q 24.171875 66.40625 20.328125 58.90625 
Q 16.5 51.421875 16.5 36.375 
Q 16.5 21.390625 20.328125 13.890625 
Q 24.171875 6.390625 31.78125 6.390625 
Q 39.453125 6.390625 43.28125 13.890625 
Q 47.125 21.390625 47.125 36.375 
Q 47.125 51.421875 43.28125 58.90625 
Q 39.453125 66.40625 31.78125 66.40625 
z
M 31.78125 74.21875 
Q 44.046875 74.21875 50.515625 64.515625 
Q 56.984375 54.828125 56.984375 36.375 
Q 56.984375 17.96875 50.515625 8.265625 
Q 44.046875 -1.421875 31.78125 -1.421875 
Q 19.53125 -1.421875 13.0625 8.265625 
Q 6.59375 17.96875 6.59375 36.375 
Q 6.59375 54.828125 13.0625 64.515625 
Q 19.53125 74.21875 31.78125 74.21875 
z
" id="DejaVuSans-48"/>
       </defs>
       <use xlink:href="#DejaVuSans-49"/>
       <use x="63.623047" xlink:href="#DejaVuSans-48"/>
      </g>
     </g>
    </g>
    <g id="xtick_9">
     <g id="line2d_9">
      <g>
       <use style="stroke:#000000;stroke-width:0.8;" x="223.125901" xlink:href="#me46426777f" y="279.911489"/>
      </g>
     </g>
     <g id="text_9">
      <!-- 11 -->
      <g transform="translate(216.763401 294.509927)scale(0.1 -0.1)">
       <use xlink:href="#DejaVuSans-49"/>
       <use x="63.623047" xlink:href="#DejaVuSans-49"/>
      </g>
     </g>
    </g>
    <g id="xtick_10">
     <g id="line2d_10">
      <g>
       <use style="stroke:#000000;stroke-width:0.8;" x="239.875472" xlink:href="#me46426777f" y="279.911489"/>
      </g>
     </g>
     <g id="text_10">
      <!-- 12 -->
      <g transform="translate(233.512972 294.509927)scale(0.1 -0.1)">
       <defs>
        <path d="M 19.1875 8.296875 
L 53.609375 8.296875 
L 53.609375 0 
L 7.328125 0 
L 7.328125 8.296875 
Q 12.9375 14.109375 22.625 23.890625 
Q 32.328125 33.6875 34.8125 36.53125 
Q 39.546875 41.84375 41.421875 45.53125 
Q 43.3125 49.21875 43.3125 52.78125 
Q 43.3125 58.59375 39.234375 62.25 
Q 35.15625 65.921875 28.609375 65.921875 
Q 23.96875 65.921875 18.8125 64.3125 
Q 13.671875 62.703125 7.8125 59.421875 
L 7.8125 69.390625 
Q 13.765625 71.78125 18.9375 73 
Q 24.125 74.21875 28.421875 74.21875 
Q 39.75 74.21875 46.484375 68.546875 
Q 53.21875 62.890625 53.21875 53.421875 
Q 53.21875 48.921875 51.53125 44.890625 
Q 49.859375 40.875 45.40625 35.40625 
Q 44.1875 33.984375 37.640625 27.21875 
Q 31.109375 20.453125 19.1875 8.296875 
z
" id="DejaVuSans-50"/>
       </defs>
       <use xlink:href="#DejaVuSans-49"/>
       <use x="63.623047" xlink:href="#DejaVuSans-50"/>
      </g>
     </g>
    </g>
    <g id="xtick_11">
     <g id="line2d_11">
      <g>
       <use style="stroke:#000000;stroke-width:0.8;" x="256.625043" xlink:href="#me46426777f" y="279.911489"/>
      </g>
     </g>
     <g id="text_11">
      <!-- 13 -->
      <g transform="translate(250.262543 294.509927)scale(0.1 -0.1)">
       <use xlink:href="#DejaVuSans-49"/>
       <use x="63.623047" xlink:href="#DejaVuSans-51"/>
      </g>
     </g>
    </g>
    <g id="xtick_12">
     <g id="line2d_12">
      <g>
       <use style="stroke:#000000;stroke-width:0.8;" x="273.374614" xlink:href="#me46426777f" y="279.911489"/>
      </g>
     </g>
     <g id="text_12">
      <!-- 14 -->
      <g transform="translate(267.012114 294.509927)scale(0.1 -0.1)">
       <use xlink:href="#DejaVuSans-49"/>
       <use x="63.623047" xlink:href="#DejaVuSans-52"/>
      </g>
     </g>
    </g>
    <g id="xtick_13">
     <g id="line2d_13">
      <g>
       <use style="stroke:#000000;stroke-width:0.8;" x="290.124185" xlink:href="#me46426777f" y="279.911489"/>
      </g>
     </g>
     <g id="text_13">
      <!-- 15 -->
      <g transform="translate(283.761685 294.509927)scale(0.1 -0.1)">
       <use xlink:href="#DejaVuSans-49"/>
       <use x="63.623047" xlink:href="#DejaVuSans-53"/>
      </g>
     </g>
    </g>
    <g id="xtick_14">
     <g id="line2d_14">
      <g>
       <use style="stroke:#000000;stroke-width:0.8;" x="306.873756" xlink:href="#me46426777f" y="279.911489"/>
      </g>
     </g>
     <g id="text_14">
      <!-- 16 -->
      <g transform="translate(300.511256 294.509927)scale(0.1 -0.1)">
       <use xlink:href="#DejaVuSans-49"/>
       <use x="63.623047" xlink:href="#DejaVuSans-54"/>
      </g>
     </g>
    </g>
    <g id="xtick_15">
     <g id="line2d_15">
      <g>
       <use style="stroke:#000000;stroke-width:0.8;" x="323.623328" xlink:href="#me46426777f" y="279.911489"/>
      </g>
     </g>
     <g id="text_15">
      <!-- 17 -->
      <g transform="translate(317.260828 294.509927)scale(0.1 -0.1)">
       <use xlink:href="#DejaVuSans-49"/>
       <use x="63.623047" xlink:href="#DejaVuSans-55"/>
      </g>
     </g>
    </g>
    <g id="xtick_16">
     <g id="line2d_16">
      <g>
       <use style="stroke:#000000;stroke-width:0.8;" x="340.372899" xlink:href="#me46426777f" y="279.911489"/>
      </g>
     </g>
     <g id="text_16">
      <!-- 18 -->
      <g transform="translate(334.010399 294.509927)scale(0.1 -0.1)">
       <use xlink:href="#DejaVuSans-49"/>
       <use x="63.623047" xlink:href="#DejaVuSans-56"/>
      </g>
     </g>
    </g>
    <g id="xtick_17">
     <g id="line2d_17">
      <g>
       <use style="stroke:#000000;stroke-width:0.8;" x="357.12247" xlink:href="#me46426777f" y="279.911489"/>
      </g>
     </g>
     <g id="text_17">
      <!-- 19 -->
      <g transform="translate(350.75997 294.509927)scale(0.1 -0.1)">
       <use xlink:href="#DejaVuSans-49"/>
       <use x="63.623047" xlink:href="#DejaVuSans-57"/>
      </g>
     </g>
    </g>
    <g id="xtick_18">
     <g id="line2d_18">
      <g>
       <use style="stroke:#000000;stroke-width:0.8;" x="373.872041" xlink:href="#me46426777f" y="279.911489"/>
      </g>
     </g>
     <g id="text_18">
      <!-- 20 -->
      <g transform="translate(367.509541 294.509927)scale(0.1 -0.1)">
       <use xlink:href="#DejaVuSans-50"/>
       <use x="63.623047" xlink:href="#DejaVuSans-48"/>
      </g>
     </g>
    </g>
    <g id="xtick_19">
     <g id="line2d_19">
      <g>
       <use style="stroke:#000000;stroke-width:0.8;" x="390.621612" xlink:href="#me46426777f" y="279.911489"/>
      </g>
     </g>
     <g id="text_19">
      <!-- 21 -->
      <g transform="translate(384.259112 294.509927)scale(0.1 -0.1)">
       <use xlink:href="#DejaVuSans-50"/>
       <use x="63.623047" xlink:href="#DejaVuSans-49"/>
      </g>
     </g>
    </g>
    <g id="xtick_20">
     <g id="line2d_20">
      <g>
       <use style="stroke:#000000;stroke-width:0.8;" x="407.371184" xlink:href="#me46426777f" y="279.911489"/>
      </g>
     </g>
     <g id="text_20">
      <!-- 22 -->
      <g transform="translate(401.008684 294.509927)scale(0.1 -0.1)">
       <use xlink:href="#DejaVuSans-50"/>
       <use x="63.623047" xlink:href="#DejaVuSans-50"/>
      </g>
     </g>
    </g>
    <g id="xtick_21">
     <g id="line2d_21">
      <g>
       <use style="stroke:#000000;stroke-width:0.8;" x="424.120755" xlink:href="#me46426777f" y="279.911489"/>
      </g>
     </g>
     <g id="text_21">
      <!-- 23 -->
      <g transform="translate(417.758255 294.509927)scale(0.1 -0.1)">
       <use xlink:href="#DejaVuSans-50"/>
       <use x="63.623047" xlink:href="#DejaVuSans-51"/>
      </g>
     </g>
    </g>
    <g id="xtick_22">
     <g id="line2d_22">
      <g>
       <use style="stroke:#000000;stroke-width:0.8;" x="440.870326" xlink:href="#me46426777f" y="279.911489"/>
      </g>
     </g>
     <g id="text_22">
      <!-- 24 -->
      <g transform="translate(434.507826 294.509927)scale(0.1 -0.1)">
       <use xlink:href="#DejaVuSans-50"/>
       <use x="63.623047" xlink:href="#DejaVuSans-52"/>
      </g>
     </g>
    </g>
    <g id="text_23">
     <!-- Number of Gaussian components -->
     <g transform="translate(174.797656 308.188052)scale(0.1 -0.1)">
      <defs>
       <path d="M 9.8125 72.90625 
L 23.09375 72.90625 
L 55.421875 11.921875 
L 55.421875 72.90625 
L 64.984375 72.90625 
L 64.984375 0 
L 51.703125 0 
L 19.390625 60.984375 
L 19.390625 0 
L 9.8125 0 
z
" id="DejaVuSans-78"/>
       <path d="M 8.5 21.578125 
L 8.5 54.6875 
L 17.484375 54.6875 
L 17.484375 21.921875 
Q 17.484375 14.15625 20.5 10.265625 
Q 23.53125 6.390625 29.59375 6.390625 
Q 36.859375 6.390625 41.078125 11.03125 
Q 45.3125 15.671875 45.3125 23.6875 
L 45.3125 54.6875 
L 54.296875 54.6875 
L 54.296875 0 
L 45.3125 0 
L 45.3125 8.40625 
Q 42.046875 3.421875 37.71875 1 
Q 33.40625 -1.421875 27.6875 -1.421875 
Q 18.265625 -1.421875 13.375 4.4375 
Q 8.5 10.296875 8.5 21.578125 
z
M 31.109375 56 
z
" id="DejaVuSans-117"/>
       <path d="M 52 44.1875 
Q 55.375 50.25 60.0625 53.125 
Q 64.75 56 71.09375 56 
Q 79.640625 56 84.28125 50.015625 
Q 88.921875 44.046875 88.921875 33.015625 
L 88.921875 0 
L 79.890625 0 
L 79.890625 32.71875 
Q 79.890625 40.578125 77.09375 44.375 
Q 74.3125 48.1875 68.609375 48.1875 
Q 61.625 48.1875 57.5625 43.546875 
Q 53.515625 38.921875 53.515625 30.90625 
L 53.515625 0 
L 44.484375 0 
L 44.484375 32.71875 
Q 44.484375 40.625 41.703125 44.40625 
Q 38.921875 48.1875 33.109375 48.1875 
Q 26.21875 48.1875 22.15625 43.53125 
Q 18.109375 38.875 18.109375 30.90625 
L 18.109375 0 
L 9.078125 0 
L 9.078125 54.6875 
L 18.109375 54.6875 
L 18.109375 46.1875 
Q 21.1875 51.21875 25.484375 53.609375 
Q 29.78125 56 35.6875 56 
Q 41.65625 56 45.828125 52.96875 
Q 50 49.953125 52 44.1875 
z
" id="DejaVuSans-109"/>
       <path d="M 48.6875 27.296875 
Q 48.6875 37.203125 44.609375 42.84375 
Q 40.53125 48.484375 33.40625 48.484375 
Q 26.265625 48.484375 22.1875 42.84375 
Q 18.109375 37.203125 18.109375 27.296875 
Q 18.109375 17.390625 22.1875 11.75 
Q 26.265625 6.109375 33.40625 6.109375 
Q 40.53125 6.109375 44.609375 11.75 
Q 48.6875 17.390625 48.6875 27.296875 
z
M 18.109375 46.390625 
Q 20.953125 51.265625 25.265625 53.625 
Q 29.59375 56 35.59375 56 
Q 45.5625 56 51.78125 48.09375 
Q 58.015625 40.1875 58.015625 27.296875 
Q 58.015625 14.40625 51.78125 6.484375 
Q 45.5625 -1.421875 35.59375 -1.421875 
Q 29.59375 -1.421875 25.265625 0.953125 
Q 20.953125 3.328125 18.109375 8.203125 
L 18.109375 0 
L 9.078125 0 
L 9.078125 75.984375 
L 18.109375 75.984375 
z
" id="DejaVuSans-98"/>
       <path d="M 56.203125 29.59375 
L 56.203125 25.203125 
L 14.890625 25.203125 
Q 15.484375 15.921875 20.484375 11.0625 
Q 25.484375 6.203125 34.421875 6.203125 
Q 39.59375 6.203125 44.453125 7.46875 
Q 49.3125 8.734375 54.109375 11.28125 
L 54.109375 2.78125 
Q 49.265625 0.734375 44.1875 -0.34375 
Q 39.109375 -1.421875 33.890625 -1.421875 
Q 20.796875 -1.421875 13.15625 6.1875 
Q 5.515625 13.8125 5.515625 26.8125 
Q 5.515625 40.234375 12.765625 48.109375 
Q 20.015625 56 32.328125 56 
Q 43.359375 56 49.78125 48.890625 
Q 56.203125 41.796875 56.203125 29.59375 
z
M 47.21875 32.234375 
Q 47.125 39.59375 43.09375 43.984375 
Q 39.0625 48.390625 32.421875 48.390625 
Q 24.90625 48.390625 20.390625 44.140625 
Q 15.875 39.890625 15.1875 32.171875 
z
" id="DejaVuSans-101"/>
       <path d="M 41.109375 46.296875 
Q 39.59375 47.171875 37.8125 47.578125 
Q 36.03125 48 33.890625 48 
Q 26.265625 48 22.1875 43.046875 
Q 18.109375 38.09375 18.109375 28.8125 
L 18.109375 0 
L 9.078125 0 
L 9.078125 54.6875 
L 18.109375 54.6875 
L 18.109375 46.1875 
Q 20.953125 51.171875 25.484375 53.578125 
Q 30.03125 56 36.53125 56 
Q 37.453125 56 38.578125 55.875 
Q 39.703125 55.765625 41.0625 55.515625 
z
" id="DejaVuSans-114"/>
       <path id="DejaVuSans-32"/>
       <path d="M 30.609375 48.390625 
Q 23.390625 48.390625 19.1875 42.75 
Q 14.984375 37.109375 14.984375 27.296875 
Q 14.984375 17.484375 19.15625 11.84375 
Q 23.34375 6.203125 30.609375 6.203125 
Q 37.796875 6.203125 41.984375 11.859375 
Q 46.1875 17.53125 46.1875 27.296875 
Q 46.1875 37.015625 41.984375 42.703125 
Q 37.796875 48.390625 30.609375 48.390625 
z
M 30.609375 56 
Q 42.328125 56 49.015625 48.375 
Q 55.71875 40.765625 55.71875 27.296875 
Q 55.71875 13.875 49.015625 6.21875 
Q 42.328125 -1.421875 30.609375 -1.421875 
Q 18.84375 -1.421875 12.171875 6.21875 
Q 5.515625 13.875 5.515625 27.296875 
Q 5.515625 40.765625 12.171875 48.375 
Q 18.84375 56 30.609375 56 
z
" id="DejaVuSans-111"/>
       <path d="M 37.109375 75.984375 
L 37.109375 68.5 
L 28.515625 68.5 
Q 23.6875 68.5 21.796875 66.546875 
Q 19.921875 64.59375 19.921875 59.515625 
L 19.921875 54.6875 
L 34.71875 54.6875 
L 34.71875 47.703125 
L 19.921875 47.703125 
L 19.921875 0 
L 10.890625 0 
L 10.890625 47.703125 
L 2.296875 47.703125 
L 2.296875 54.6875 
L 10.890625 54.6875 
L 10.890625 58.5 
Q 10.890625 67.625 15.140625 71.796875 
Q 19.390625 75.984375 28.609375 75.984375 
z
" id="DejaVuSans-102"/>
       <path d="M 59.515625 10.40625 
L 59.515625 29.984375 
L 43.40625 29.984375 
L 43.40625 38.09375 
L 69.28125 38.09375 
L 69.28125 6.78125 
Q 63.578125 2.734375 56.6875 0.65625 
Q 49.8125 -1.421875 42 -1.421875 
Q 24.90625 -1.421875 15.25 8.5625 
Q 5.609375 18.5625 5.609375 36.375 
Q 5.609375 54.25 15.25 64.234375 
Q 24.90625 74.21875 42 74.21875 
Q 49.125 74.21875 55.546875 72.453125 
Q 61.96875 70.703125 67.390625 67.28125 
L 67.390625 56.78125 
Q 61.921875 61.421875 55.765625 63.765625 
Q 49.609375 66.109375 42.828125 66.109375 
Q 29.4375 66.109375 22.71875 58.640625 
Q 16.015625 51.171875 16.015625 36.375 
Q 16.015625 21.625 22.71875 14.15625 
Q 29.4375 6.6875 42.828125 6.6875 
Q 48.046875 6.6875 52.140625 7.59375 
Q 56.25 8.5 59.515625 10.40625 
z
" id="DejaVuSans-71"/>
       <path d="M 34.28125 27.484375 
Q 23.390625 27.484375 19.1875 25 
Q 14.984375 22.515625 14.984375 16.5 
Q 14.984375 11.71875 18.140625 8.90625 
Q 21.296875 6.109375 26.703125 6.109375 
Q 34.1875 6.109375 38.703125 11.40625 
Q 43.21875 16.703125 43.21875 25.484375 
L 43.21875 27.484375 
z
M 52.203125 31.203125 
L 52.203125 0 
L 43.21875 0 
L 43.21875 8.296875 
Q 40.140625 3.328125 35.546875 0.953125 
Q 30.953125 -1.421875 24.3125 -1.421875 
Q 15.921875 -1.421875 10.953125 3.296875 
Q 6 8.015625 6 15.921875 
Q 6 25.140625 12.171875 29.828125 
Q 18.359375 34.515625 30.609375 34.515625 
L 43.21875 34.515625 
L 43.21875 35.40625 
Q 43.21875 41.609375 39.140625 45 
Q 35.0625 48.390625 27.6875 48.390625 
Q 23 48.390625 18.546875 47.265625 
Q 14.109375 46.140625 10.015625 43.890625 
L 10.015625 52.203125 
Q 14.9375 54.109375 19.578125 55.046875 
Q 24.21875 56 28.609375 56 
Q 40.484375 56 46.34375 49.84375 
Q 52.203125 43.703125 52.203125 31.203125 
z
" id="DejaVuSans-97"/>
       <path d="M 44.28125 53.078125 
L 44.28125 44.578125 
Q 40.484375 46.53125 36.375 47.5 
Q 32.28125 48.484375 27.875 48.484375 
Q 21.1875 48.484375 17.84375 46.4375 
Q 14.5 44.390625 14.5 40.28125 
Q 14.5 37.15625 16.890625 35.375 
Q 19.28125 33.59375 26.515625 31.984375 
L 29.59375 31.296875 
Q 39.15625 29.25 43.1875 25.515625 
Q 47.21875 21.78125 47.21875 15.09375 
Q 47.21875 7.46875 41.1875 3.015625 
Q 35.15625 -1.421875 24.609375 -1.421875 
Q 20.21875 -1.421875 15.453125 -0.5625 
Q 10.6875 0.296875 5.421875 2 
L 5.421875 11.28125 
Q 10.40625 8.6875 15.234375 7.390625 
Q 20.0625 6.109375 24.8125 6.109375 
Q 31.15625 6.109375 34.5625 8.28125 
Q 37.984375 10.453125 37.984375 14.40625 
Q 37.984375 18.0625 35.515625 20.015625 
Q 33.0625 21.96875 24.703125 23.78125 
L 21.578125 24.515625 
Q 13.234375 26.265625 9.515625 29.90625 
Q 5.8125 33.546875 5.8125 39.890625 
Q 5.8125 47.609375 11.28125 51.796875 
Q 16.75 56 26.8125 56 
Q 31.78125 56 36.171875 55.265625 
Q 40.578125 54.546875 44.28125 53.078125 
z
" id="DejaVuSans-115"/>
       <path d="M 9.421875 54.6875 
L 18.40625 54.6875 
L 18.40625 0 
L 9.421875 0 
z
M 9.421875 75.984375 
L 18.40625 75.984375 
L 18.40625 64.59375 
L 9.421875 64.59375 
z
" id="DejaVuSans-105"/>
       <path d="M 54.890625 33.015625 
L 54.890625 0 
L 45.90625 0 
L 45.90625 32.71875 
Q 45.90625 40.484375 42.875 44.328125 
Q 39.84375 48.1875 33.796875 48.1875 
Q 26.515625 48.1875 22.3125 43.546875 
Q 18.109375 38.921875 18.109375 30.90625 
L 18.109375 0 
L 9.078125 0 
L 9.078125 54.6875 
L 18.109375 54.6875 
L 18.109375 46.1875 
Q 21.34375 51.125 25.703125 53.5625 
Q 30.078125 56 35.796875 56 
Q 45.21875 56 50.046875 50.171875 
Q 54.890625 44.34375 54.890625 33.015625 
z
" id="DejaVuSans-110"/>
       <path d="M 48.78125 52.59375 
L 48.78125 44.1875 
Q 44.96875 46.296875 41.140625 47.34375 
Q 37.3125 48.390625 33.40625 48.390625 
Q 24.65625 48.390625 19.8125 42.84375 
Q 14.984375 37.3125 14.984375 27.296875 
Q 14.984375 17.28125 19.8125 11.734375 
Q 24.65625 6.203125 33.40625 6.203125 
Q 37.3125 6.203125 41.140625 7.25 
Q 44.96875 8.296875 48.78125 10.40625 
L 48.78125 2.09375 
Q 45.015625 0.34375 40.984375 -0.53125 
Q 36.96875 -1.421875 32.421875 -1.421875 
Q 20.0625 -1.421875 12.78125 6.34375 
Q 5.515625 14.109375 5.515625 27.296875 
Q 5.515625 40.671875 12.859375 48.328125 
Q 20.21875 56 33.015625 56 
Q 37.15625 56 41.109375 55.140625 
Q 45.0625 54.296875 48.78125 52.59375 
z
" id="DejaVuSans-99"/>
       <path d="M 18.109375 8.203125 
L 18.109375 -20.796875 
L 9.078125 -20.796875 
L 9.078125 54.6875 
L 18.109375 54.6875 
L 18.109375 46.390625 
Q 20.953125 51.265625 25.265625 53.625 
Q 29.59375 56 35.59375 56 
Q 45.5625 56 51.78125 48.09375 
Q 58.015625 40.1875 58.015625 27.296875 
Q 58.015625 14.40625 51.78125 6.484375 
Q 45.5625 -1.421875 35.59375 -1.421875 
Q 29.59375 -1.421875 25.265625 0.953125 
Q 20.953125 3.328125 18.109375 8.203125 
z
M 48.6875 27.296875 
Q 48.6875 37.203125 44.609375 42.84375 
Q 40.53125 48.484375 33.40625 48.484375 
Q 26.265625 48.484375 22.1875 42.84375 
Q 18.109375 37.203125 18.109375 27.296875 
Q 18.109375 17.390625 22.1875 11.75 
Q 26.265625 6.109375 33.40625 6.109375 
Q 40.53125 6.109375 44.609375 11.75 
Q 48.6875 17.390625 48.6875 27.296875 
z
" id="DejaVuSans-112"/>
       <path d="M 18.3125 70.21875 
L 18.3125 54.6875 
L 36.8125 54.6875 
L 36.8125 47.703125 
L 18.3125 47.703125 
L 18.3125 18.015625 
Q 18.3125 11.328125 20.140625 9.421875 
Q 21.96875 7.515625 27.59375 7.515625 
L 36.8125 7.515625 
L 36.8125 0 
L 27.59375 0 
Q 17.1875 0 13.234375 3.875 
Q 9.28125 7.765625 9.28125 18.015625 
L 9.28125 47.703125 
L 2.6875 47.703125 
L 2.6875 54.6875 
L 9.28125 54.6875 
L 9.28125 70.21875 
z
" id="DejaVuSans-116"/>
      </defs>
      <use xlink:href="#DejaVuSans-78"/>
      <use x="74.804688" xlink:href="#DejaVuSans-117"/>
      <use x="138.183594" xlink:href="#DejaVuSans-109"/>
      <use x="235.595703" xlink:href="#DejaVuSans-98"/>
      <use x="299.072266" xlink:href="#DejaVuSans-101"/>
      <use x="360.595703" xlink:href="#DejaVuSans-114"/>
      <use x="401.708984" xlink:href="#DejaVuSans-32"/>
      <use x="433.496094" xlink:href="#DejaVuSans-111"/>
      <use x="494.677734" xlink:href="#DejaVuSans-102"/>
      <use x="529.882812" xlink:href="#DejaVuSans-32"/>
      <use x="561.669922" xlink:href="#DejaVuSans-71"/>
      <use x="639.160156" xlink:href="#DejaVuSans-97"/>
      <use x="700.439453" xlink:href="#DejaVuSans-117"/>
      <use x="763.818359" xlink:href="#DejaVuSans-115"/>
      <use x="815.917969" xlink:href="#DejaVuSans-115"/>
      <use x="868.017578" xlink:href="#DejaVuSans-105"/>
      <use x="895.800781" xlink:href="#DejaVuSans-97"/>
      <use x="957.080078" xlink:href="#DejaVuSans-110"/>
      <use x="1020.458984" xlink:href="#DejaVuSans-32"/>
      <use x="1052.246094" xlink:href="#DejaVuSans-99"/>
      <use x="1107.226562" xlink:href="#DejaVuSans-111"/>
      <use x="1168.408203" xlink:href="#DejaVuSans-109"/>
      <use x="1265.820312" xlink:href="#DejaVuSans-112"/>
      <use x="1329.296875" xlink:href="#DejaVuSans-111"/>
      <use x="1390.478516" xlink:href="#DejaVuSans-110"/>
      <use x="1453.857422" xlink:href="#DejaVuSans-101"/>
      <use x="1515.380859" xlink:href="#DejaVuSans-110"/>
      <use x="1578.759766" xlink:href="#DejaVuSans-116"/>
      <use x="1617.96875" xlink:href="#DejaVuSans-115"/>
     </g>
    </g>
   </g>
   <g id="matplotlib.axis_2">
    <g id="ytick_1">
     <g id="line2d_23">
      <defs>
       <path d="M 0 0 
L -3.5 0 
" id="me821537573" style="stroke:#000000;stroke-width:0.8;"/>
      </defs>
      <g>
       <use style="stroke:#000000;stroke-width:0.8;" x="63" xlink:href="#me821537573" y="254.924805"/>
      </g>
     </g>
     <g id="text_24">
      <!-- 200 -->
      <g transform="translate(36.9125 258.724023)scale(0.1 -0.1)">
       <use xlink:href="#DejaVuSans-50"/>
       <use x="63.623047" xlink:href="#DejaVuSans-48"/>
       <use x="127.246094" xlink:href="#DejaVuSans-48"/>
      </g>
     </g>
    </g>
    <g id="ytick_2">
     <g id="line2d_24">
      <g>
       <use style="stroke:#000000;stroke-width:0.8;" x="63" xlink:href="#me821537573" y="212.814988"/>
      </g>
     </g>
     <g id="text_25">
      <!-- 400 -->
      <g transform="translate(36.9125 216.614207)scale(0.1 -0.1)">
       <use xlink:href="#DejaVuSans-52"/>
       <use x="63.623047" xlink:href="#DejaVuSans-48"/>
       <use x="127.246094" xlink:href="#DejaVuSans-48"/>
      </g>
     </g>
    </g>
    <g id="ytick_3">
     <g id="line2d_25">
      <g>
       <use style="stroke:#000000;stroke-width:0.8;" x="63" xlink:href="#me821537573" y="170.705171"/>
      </g>
     </g>
     <g id="text_26">
      <!-- 600 -->
      <g transform="translate(36.9125 174.50439)scale(0.1 -0.1)">
       <use xlink:href="#DejaVuSans-54"/>
       <use x="63.623047" xlink:href="#DejaVuSans-48"/>
       <use x="127.246094" xlink:href="#DejaVuSans-48"/>
      </g>
     </g>
    </g>
    <g id="ytick_4">
     <g id="line2d_26">
      <g>
       <use style="stroke:#000000;stroke-width:0.8;" x="63" xlink:href="#me821537573" y="128.595354"/>
      </g>
     </g>
     <g id="text_27">
      <!-- 800 -->
      <g transform="translate(36.9125 132.394573)scale(0.1 -0.1)">
       <use xlink:href="#DejaVuSans-56"/>
       <use x="63.623047" xlink:href="#DejaVuSans-48"/>
       <use x="127.246094" xlink:href="#DejaVuSans-48"/>
      </g>
     </g>
    </g>
    <g id="ytick_5">
     <g id="line2d_27">
      <g>
       <use style="stroke:#000000;stroke-width:0.8;" x="63" xlink:href="#me821537573" y="86.485537"/>
      </g>
     </g>
     <g id="text_28">
      <!-- 1000 -->
      <g transform="translate(30.55 90.284756)scale(0.1 -0.1)">
       <use xlink:href="#DejaVuSans-49"/>
       <use x="63.623047" xlink:href="#DejaVuSans-48"/>
       <use x="127.246094" xlink:href="#DejaVuSans-48"/>
       <use x="190.869141" xlink:href="#DejaVuSans-48"/>
      </g>
     </g>
    </g>
    <g id="text_29">
     <!-- BIC score -->
     <g transform="translate(24.470312 197.934495)rotate(-90)scale(0.1 -0.1)">
      <defs>
       <path d="M 19.671875 34.8125 
L 19.671875 8.109375 
L 35.5 8.109375 
Q 43.453125 8.109375 47.28125 11.40625 
Q 51.125 14.703125 51.125 21.484375 
Q 51.125 28.328125 47.28125 31.5625 
Q 43.453125 34.8125 35.5 34.8125 
z
M 19.671875 64.796875 
L 19.671875 42.828125 
L 34.28125 42.828125 
Q 41.5 42.828125 45.03125 45.53125 
Q 48.578125 48.25 48.578125 53.8125 
Q 48.578125 59.328125 45.03125 62.0625 
Q 41.5 64.796875 34.28125 64.796875 
z
M 9.8125 72.90625 
L 35.015625 72.90625 
Q 46.296875 72.90625 52.390625 68.21875 
Q 58.5 63.53125 58.5 54.890625 
Q 58.5 48.1875 55.375 44.234375 
Q 52.25 40.28125 46.1875 39.3125 
Q 53.46875 37.75 57.5 32.78125 
Q 61.53125 27.828125 61.53125 20.40625 
Q 61.53125 10.640625 54.890625 5.3125 
Q 48.25 0 35.984375 0 
L 9.8125 0 
z
" id="DejaVuSans-66"/>
       <path d="M 9.8125 72.90625 
L 19.671875 72.90625 
L 19.671875 0 
L 9.8125 0 
z
" id="DejaVuSans-73"/>
       <path d="M 64.40625 67.28125 
L 64.40625 56.890625 
Q 59.421875 61.53125 53.78125 63.8125 
Q 48.140625 66.109375 41.796875 66.109375 
Q 29.296875 66.109375 22.65625 58.46875 
Q 16.015625 50.828125 16.015625 36.375 
Q 16.015625 21.96875 22.65625 14.328125 
Q 29.296875 6.6875 41.796875 6.6875 
Q 48.140625 6.6875 53.78125 8.984375 
Q 59.421875 11.28125 64.40625 15.921875 
L 64.40625 5.609375 
Q 59.234375 2.09375 53.4375 0.328125 
Q 47.65625 -1.421875 41.21875 -1.421875 
Q 24.65625 -1.421875 15.125 8.703125 
Q 5.609375 18.84375 5.609375 36.375 
Q 5.609375 53.953125 15.125 64.078125 
Q 24.65625 74.21875 41.21875 74.21875 
Q 47.75 74.21875 53.53125 72.484375 
Q 59.328125 70.75 64.40625 67.28125 
z
" id="DejaVuSans-67"/>
      </defs>
      <use xlink:href="#DejaVuSans-66"/>
      <use x="68.603516" xlink:href="#DejaVuSans-73"/>
      <use x="98.095703" xlink:href="#DejaVuSans-67"/>
      <use x="167.919922" xlink:href="#DejaVuSans-32"/>
      <use x="199.707031" xlink:href="#DejaVuSans-115"/>
      <use x="251.806641" xlink:href="#DejaVuSans-99"/>
      <use x="306.787109" xlink:href="#DejaVuSans-111"/>
      <use x="367.96875" xlink:href="#DejaVuSans-114"/>
      <use x="406.832031" xlink:href="#DejaVuSans-101"/>
     </g>
    </g>
   </g>
   <g id="patch_25">
    <path d="M 63 279.911489 
L 63 69.12 
" style="fill:none;stroke:#000000;stroke-linecap:square;stroke-linejoin:miter;stroke-width:0.8;"/>
   </g>
   <g id="patch_26">
    <path d="M 453.6 279.911489 
L 453.6 69.12 
" style="fill:none;stroke:#000000;stroke-linecap:square;stroke-linejoin:miter;stroke-width:0.8;"/>
   </g>
   <g id="patch_27">
    <path d="M 63 279.911489 
L 453.6 279.911489 
" style="fill:none;stroke:#000000;stroke-linecap:square;stroke-linejoin:miter;stroke-width:0.8;"/>
   </g>
   <g id="patch_28">
    <path d="M 63 69.12 
L 453.6 69.12 
" style="fill:none;stroke:#000000;stroke-linecap:square;stroke-linejoin:miter;stroke-width:0.8;"/>
   </g>
   <g id="text_30">
    <!-- * -->
    <g transform="translate(368.009691 271.563312)scale(0.14 -0.14)">
     <defs>
      <path d="M 47.015625 60.890625 
L 29.5 51.421875 
L 47.015625 41.890625 
L 44.1875 37.109375 
L 27.78125 47.015625 
L 27.78125 28.609375 
L 22.21875 28.609375 
L 22.21875 47.015625 
L 5.8125 37.109375 
L 2.984375 41.890625 
L 20.515625 51.421875 
L 2.984375 60.890625 
L 5.8125 65.71875 
L 22.21875 55.8125 
L 22.21875 74.21875 
L 27.78125 74.21875 
L 27.78125 55.8125 
L 44.1875 65.71875 
z
" id="DejaVuSans-42"/>
     </defs>
     <use xlink:href="#DejaVuSans-42"/>
    </g>
   </g>
   <g id="text_31">
    <!-- BIC score per model -->
    <g transform="translate(197.732813 63.12)scale(0.12 -0.12)">
     <defs>
      <path d="M 45.40625 46.390625 
L 45.40625 75.984375 
L 54.390625 75.984375 
L 54.390625 0 
L 45.40625 0 
L 45.40625 8.203125 
Q 42.578125 3.328125 38.25 0.953125 
Q 33.9375 -1.421875 27.875 -1.421875 
Q 17.96875 -1.421875 11.734375 6.484375 
Q 5.515625 14.40625 5.515625 27.296875 
Q 5.515625 40.1875 11.734375 48.09375 
Q 17.96875 56 27.875 56 
Q 33.9375 56 38.25 53.625 
Q 42.578125 51.265625 45.40625 46.390625 
z
M 14.796875 27.296875 
Q 14.796875 17.390625 18.875 11.75 
Q 22.953125 6.109375 30.078125 6.109375 
Q 37.203125 6.109375 41.296875 11.75 
Q 45.40625 17.390625 45.40625 27.296875 
Q 45.40625 37.203125 41.296875 42.84375 
Q 37.203125 48.484375 30.078125 48.484375 
Q 22.953125 48.484375 18.875 42.84375 
Q 14.796875 37.203125 14.796875 27.296875 
z
" id="DejaVuSans-100"/>
      <path d="M 9.421875 75.984375 
L 18.40625 75.984375 
L 18.40625 0 
L 9.421875 0 
z
" id="DejaVuSans-108"/>
     </defs>
     <use xlink:href="#DejaVuSans-66"/>
     <use x="68.603516" xlink:href="#DejaVuSans-73"/>
     <use x="98.095703" xlink:href="#DejaVuSans-67"/>
     <use x="167.919922" xlink:href="#DejaVuSans-32"/>
     <use x="199.707031" xlink:href="#DejaVuSans-115"/>
     <use x="251.806641" xlink:href="#DejaVuSans-99"/>
     <use x="306.787109" xlink:href="#DejaVuSans-111"/>
     <use x="367.96875" xlink:href="#DejaVuSans-114"/>
     <use x="406.832031" xlink:href="#DejaVuSans-101"/>
     <use x="468.355469" xlink:href="#DejaVuSans-32"/>
     <use x="500.142578" xlink:href="#DejaVuSans-112"/>
     <use x="563.619141" xlink:href="#DejaVuSans-101"/>
     <use x="625.142578" xlink:href="#DejaVuSans-114"/>
     <use x="666.255859" xlink:href="#DejaVuSans-32"/>
     <use x="698.042969" xlink:href="#DejaVuSans-109"/>
     <use x="795.455078" xlink:href="#DejaVuSans-111"/>
     <use x="856.636719" xlink:href="#DejaVuSans-100"/>
     <use x="920.113281" xlink:href="#DejaVuSans-101"/>
     <use x="981.636719" xlink:href="#DejaVuSans-108"/>
    </g>
   </g>
   <g id="legend_1">
    <g id="patch_29">
     <path d="M 399.185938 91.798125 
L 446.6 91.798125 
Q 448.6 91.798125 448.6 89.798125 
L 448.6 76.12 
Q 448.6 74.12 446.6 74.12 
L 399.185938 74.12 
Q 397.185938 74.12 397.185938 76.12 
L 397.185938 89.798125 
Q 397.185938 91.798125 399.185938 91.798125 
z
" style="fill:#ffffff;opacity:0.8;stroke:#cccccc;stroke-linejoin:miter;"/>
    </g>
    <g id="patch_30">
     <path d="M 401.185938 85.718438 
L 421.185938 85.718438 
L 421.185938 78.718438 
L 401.185938 78.718438 
z
" style="fill:#000080;"/>
    </g>
    <g id="text_32">
     <!-- full -->
     <g transform="translate(429.185938 85.718438)scale(0.1 -0.1)">
      <use xlink:href="#DejaVuSans-102"/>
      <use x="35.205078" xlink:href="#DejaVuSans-117"/>
      <use x="98.583984" xlink:href="#DejaVuSans-108"/>
      <use x="126.367188" xlink:href="#DejaVuSans-108"/>
     </g>
    </g>
   </g>
  </g>
  <g id="axes_2">
   <g id="patch_31">
    <path d="M 63 564.48 
L 453.6 564.48 
L 453.6 353.688511 
L 63 353.688511 
z
" style="fill:#ffffff;"/>
   </g>
   <g id="PathCollection_1">
    <defs>
     <path d="M 0 2.345208 
C 0.621956 2.345208 1.218523 2.098102 1.658312 1.658312 
C 2.098102 1.218523 2.345208 0.621956 2.345208 0 
C 2.345208 -0.621956 2.098102 -1.218523 1.658312 -1.658312 
C 1.218523 -2.098102 0.621956 -2.345208 0 -2.345208 
C -0.621956 -2.345208 -1.218523 -2.098102 -1.658312 -1.658312 
C -2.098102 -1.218523 -2.345208 -0.621956 -2.345208 0 
C -2.345208 0.621956 -2.098102 1.218523 -1.658312 1.658312 
C -1.218523 2.098102 -0.621956 2.345208 0 2.345208 
z
" id="m127ebfa353" style="stroke:#e6194b;"/>
    </defs>
    <g clip-path="url(#p484572fca7)">
     <use style="fill:#e6194b;stroke:#e6194b;" x="443.593335" xlink:href="#m127ebfa353" y="524.075571"/>
     <use style="fill:#e6194b;stroke:#e6194b;" x="444.417567" xlink:href="#m127ebfa353" y="525.940477"/>
     <use style="fill:#e6194b;stroke:#e6194b;" x="441.857978" xlink:href="#m127ebfa353" y="525.533007"/>
     <use style="fill:#e6194b;stroke:#e6194b;" x="444.765594" xlink:href="#m127ebfa353" y="523.056181"/>
     <use style="fill:#e6194b;stroke:#e6194b;" x="443.85529" xlink:href="#m127ebfa353" y="522.552691"/>
    </g>
   </g>
   <g id="PathCollection_2">
    <defs>
     <path d="M 0 2.345208 
C 0.621956 2.345208 1.218523 2.098102 1.658312 1.658312 
C 2.098102 1.218523 2.345208 0.621956 2.345208 0 
C 2.345208 -0.621956 2.098102 -1.218523 1.658312 -1.658312 
C 1.218523 -2.098102 0.621956 -2.345208 0 -2.345208 
C -0.621956 -2.345208 -1.218523 -2.098102 -1.658312 -1.658312 
C -2.098102 -1.218523 -2.345208 -0.621956 -2.345208 0 
C -2.345208 0.621956 -2.098102 1.218523 -1.658312 1.658312 
C -1.218523 2.098102 -0.621956 2.345208 0 2.345208 
z
" id="m7acd02b4ed" style="stroke:#3cb44b;"/>
    </defs>
    <g clip-path="url(#p484572fca7)">
     <use style="fill:#3cb44b;stroke:#3cb44b;" x="65.96694" xlink:href="#m7acd02b4ed" y="360.1732"/>
     <use style="fill:#3cb44b;stroke:#3cb44b;" x="68.589442" xlink:href="#m7acd02b4ed" y="360.540211"/>
     <use style="fill:#3cb44b;stroke:#3cb44b;" x="66.120687" xlink:href="#m7acd02b4ed" y="360.021577"/>
    </g>
   </g>
   <g id="PathCollection_3">
    <defs>
     <path d="M 0 2.345208 
C 0.621956 2.345208 1.218523 2.098102 1.658312 1.658312 
C 2.098102 1.218523 2.345208 0.621956 2.345208 0 
C 2.345208 -0.621956 2.098102 -1.218523 1.658312 -1.658312 
C 1.218523 -2.098102 0.621956 -2.345208 0 -2.345208 
C -0.621956 -2.345208 -1.218523 -2.098102 -1.658312 -1.658312 
C -2.098102 -1.218523 -2.345208 -0.621956 -2.345208 0 
C -2.345208 0.621956 -2.098102 1.218523 -1.658312 1.658312 
C -1.218523 2.098102 -0.621956 2.345208 0 2.345208 
z
" id="m414a46a2f9" style="stroke:#ffe119;"/>
    </defs>
    <g clip-path="url(#p484572fca7)">
     <use style="fill:#ffe119;stroke:#ffe119;" x="370.447597" xlink:href="#m414a46a2f9" y="383.506992"/>
     <use style="fill:#ffe119;stroke:#ffe119;" x="371.03401" xlink:href="#m414a46a2f9" y="381.112475"/>
     <use style="fill:#ffe119;stroke:#ffe119;" x="370.638008" xlink:href="#m414a46a2f9" y="381.18754"/>
     <use style="fill:#ffe119;stroke:#ffe119;" x="370.771192" xlink:href="#m414a46a2f9" y="383.921894"/>
     <use style="fill:#ffe119;stroke:#ffe119;" x="371.791593" xlink:href="#m414a46a2f9" y="384.572774"/>
     <use style="fill:#ffe119;stroke:#ffe119;" x="372.146383" xlink:href="#m414a46a2f9" y="380.509264"/>
     <use style="fill:#ffe119;stroke:#ffe119;" x="372.017556" xlink:href="#m414a46a2f9" y="384.690826"/>
     <use style="fill:#ffe119;stroke:#ffe119;" x="372.994764" xlink:href="#m414a46a2f9" y="382.246354"/>
    </g>
   </g>
   <g id="PathCollection_4">
    <defs>
     <path d="M 0 2.345208 
C 0.621956 2.345208 1.218523 2.098102 1.658312 1.658312 
C 2.098102 1.218523 2.345208 0.621956 2.345208 0 
C 2.345208 -0.621956 2.098102 -1.218523 1.658312 -1.658312 
C 1.218523 -2.098102 0.621956 -2.345208 0 -2.345208 
C -0.621956 -2.345208 -1.218523 -2.098102 -1.658312 -1.658312 
C -2.098102 -1.218523 -2.345208 -0.621956 -2.345208 0 
C -2.345208 0.621956 -2.098102 1.218523 -1.658312 1.658312 
C -1.218523 2.098102 -0.621956 2.345208 0 2.345208 
z
" id="m277cc71156" style="stroke:#4363d8;"/>
    </defs>
    <g clip-path="url(#p484572fca7)">
     <use style="fill:#4363d8;stroke:#4363d8;" x="100.097439" xlink:href="#m277cc71156" y="523.310351"/>
     <use style="fill:#4363d8;stroke:#4363d8;" x="99.486869" xlink:href="#m277cc71156" y="523.005182"/>
    </g>
   </g>
   <g id="PathCollection_5">
    <defs>
     <path d="M 0 2.345208 
C 0.621956 2.345208 1.218523 2.098102 1.658312 1.658312 
C 2.098102 1.218523 2.345208 0.621956 2.345208 0 
C 2.345208 -0.621956 2.098102 -1.218523 1.658312 -1.658312 
C 1.218523 -2.098102 0.621956 -2.345208 0 -2.345208 
C -0.621956 -2.345208 -1.218523 -2.098102 -1.658312 -1.658312 
C -2.098102 -1.218523 -2.345208 -0.621956 -2.345208 0 
C -2.345208 0.621956 -2.098102 1.218523 -1.658312 1.658312 
C -1.218523 2.098102 -0.621956 2.345208 0 2.345208 
z
" id="mb3e218d42d" style="stroke:#f58231;"/>
    </defs>
    <g clip-path="url(#p484572fca7)">
     <use style="fill:#f58231;stroke:#f58231;" x="441.389866" xlink:href="#mb3e218d42d" y="561.420673"/>
     <use style="fill:#f58231;stroke:#f58231;" x="440.697744" xlink:href="#mb3e218d42d" y="561.742557"/>
     <use style="fill:#f58231;stroke:#f58231;" x="439.615349" xlink:href="#mb3e218d42d" y="562.475366"/>
     <use style="fill:#f58231;stroke:#f58231;" x="440.145426" xlink:href="#mb3e218d42d" y="562.232591"/>
     <use style="fill:#f58231;stroke:#f58231;" x="440.137815" xlink:href="#mb3e218d42d" y="562.236357"/>
    </g>
   </g>
   <g id="PathCollection_6">
    <defs>
     <path d="M 0 2.345208 
C 0.621956 2.345208 1.218523 2.098102 1.658312 1.658312 
C 2.098102 1.218523 2.345208 0.621956 2.345208 0 
C 2.345208 -0.621956 2.098102 -1.218523 1.658312 -1.658312 
C 1.218523 -2.098102 0.621956 -2.345208 0 -2.345208 
C -0.621956 -2.345208 -1.218523 -2.098102 -1.658312 -1.658312 
C -2.098102 -1.218523 -2.345208 -0.621956 -2.345208 0 
C -2.345208 0.621956 -2.098102 1.218523 -1.658312 1.658312 
C -1.218523 2.098102 -0.621956 2.345208 0 2.345208 
z
" id="ma52bc029b4" style="stroke:#ba3fdf;"/>
    </defs>
    <g clip-path="url(#p484572fca7)">
     <use style="fill:#ba3fdf;stroke:#ba3fdf;" x="428.184362" xlink:href="#ma52bc029b4" y="529.757588"/>
     <use style="fill:#ba3fdf;stroke:#ba3fdf;" x="426.318282" xlink:href="#ma52bc029b4" y="531.21723"/>
     <use style="fill:#ba3fdf;stroke:#ba3fdf;" x="429.907524" xlink:href="#ma52bc029b4" y="527.995603"/>
     <use style="fill:#ba3fdf;stroke:#ba3fdf;" x="430.87456" xlink:href="#ma52bc029b4" y="527.245029"/>
     <use style="fill:#ba3fdf;stroke:#ba3fdf;" x="429.893263" xlink:href="#ma52bc029b4" y="528.318309"/>
     <use style="fill:#ba3fdf;stroke:#ba3fdf;" x="427.141099" xlink:href="#ma52bc029b4" y="530.575732"/>
    </g>
   </g>
   <g id="PathCollection_7">
    <defs>
     <path d="M 0 2.345208 
C 0.621956 2.345208 1.218523 2.098102 1.658312 1.658312 
C 2.098102 1.218523 2.345208 0.621956 2.345208 0 
C 2.345208 -0.621956 2.098102 -1.218523 1.658312 -1.658312 
C 1.218523 -2.098102 0.621956 -2.345208 0 -2.345208 
C -0.621956 -2.345208 -1.218523 -2.098102 -1.658312 -1.658312 
C -2.098102 -1.218523 -2.345208 -0.621956 -2.345208 0 
C -2.345208 0.621956 -2.098102 1.218523 -1.658312 1.658312 
C -1.218523 2.098102 -0.621956 2.345208 0 2.345208 
z
" id="m4c007c5cf8" style="stroke:#42d4f4;"/>
    </defs>
    <g clip-path="url(#p484572fca7)">
     <use style="fill:#42d4f4;stroke:#42d4f4;" x="378.621511" xlink:href="#m4c007c5cf8" y="382.080641"/>
     <use style="fill:#42d4f4;stroke:#42d4f4;" x="373.7104" xlink:href="#m4c007c5cf8" y="384.653814"/>
     <use style="fill:#42d4f4;stroke:#42d4f4;" x="374.51225" xlink:href="#m4c007c5cf8" y="382.494663"/>
     <use style="fill:#42d4f4;stroke:#42d4f4;" x="373.606317" xlink:href="#m4c007c5cf8" y="382.67847"/>
     <use style="fill:#42d4f4;stroke:#42d4f4;" x="373.385984" xlink:href="#m4c007c5cf8" y="382.172206"/>
     <use style="fill:#42d4f4;stroke:#42d4f4;" x="374.82938" xlink:href="#m4c007c5cf8" y="383.022426"/>
     <use style="fill:#42d4f4;stroke:#42d4f4;" x="376.470642" xlink:href="#m4c007c5cf8" y="384.746362"/>
     <use style="fill:#42d4f4;stroke:#42d4f4;" x="376.566619" xlink:href="#m4c007c5cf8" y="382.639958"/>
     <use style="fill:#42d4f4;stroke:#42d4f4;" x="374.503267" xlink:href="#m4c007c5cf8" y="383.893829"/>
     <use style="fill:#42d4f4;stroke:#42d4f4;" x="373.815162" xlink:href="#m4c007c5cf8" y="381.186479"/>
     <use style="fill:#42d4f4;stroke:#42d4f4;" x="373.514245" xlink:href="#m4c007c5cf8" y="383.059008"/>
     <use style="fill:#42d4f4;stroke:#42d4f4;" x="377.850827" xlink:href="#m4c007c5cf8" y="382.052892"/>
     <use style="fill:#42d4f4;stroke:#42d4f4;" x="374.464121" xlink:href="#m4c007c5cf8" y="383.830081"/>
     <use style="fill:#42d4f4;stroke:#42d4f4;" x="375.007129" xlink:href="#m4c007c5cf8" y="382.994715"/>
     <use style="fill:#42d4f4;stroke:#42d4f4;" x="372.850191" xlink:href="#m4c007c5cf8" y="382.822035"/>
    </g>
   </g>
   <g id="PathCollection_8">
    <defs>
     <path d="M 0 2.345208 
C 0.621956 2.345208 1.218523 2.098102 1.658312 1.658312 
C 2.098102 1.218523 2.345208 0.621956 2.345208 0 
C 2.345208 -0.621956 2.098102 -1.218523 1.658312 -1.658312 
C 1.218523 -2.098102 0.621956 -2.345208 0 -2.345208 
C -0.621956 -2.345208 -1.218523 -2.098102 -1.658312 -1.658312 
C -2.098102 -1.218523 -2.345208 -0.621956 -2.345208 0 
C -2.345208 0.621956 -2.098102 1.218523 -1.658312 1.658312 
C -1.218523 2.098102 -0.621956 2.345208 0 2.345208 
z
" id="m18be67c5d9" style="stroke:#bfef45;"/>
    </defs>
    <g clip-path="url(#p484572fca7)">
     <use style="fill:#bfef45;stroke:#bfef45;" x="82.025685" xlink:href="#m18be67c5d9" y="362.181703"/>
     <use style="fill:#bfef45;stroke:#bfef45;" x="79.406288" xlink:href="#m18be67c5d9" y="361.31094"/>
     <use style="fill:#bfef45;stroke:#bfef45;" x="79.544777" xlink:href="#m18be67c5d9" y="361.630387"/>
     <use style="fill:#bfef45;stroke:#bfef45;" x="78.741442" xlink:href="#m18be67c5d9" y="362.366026"/>
     <use style="fill:#bfef45;stroke:#bfef45;" x="80.569288" xlink:href="#m18be67c5d9" y="360.903418"/>
     <use style="fill:#bfef45;stroke:#bfef45;" x="81.374343" xlink:href="#m18be67c5d9" y="360.552408"/>
     <use style="fill:#bfef45;stroke:#bfef45;" x="80.87169" xlink:href="#m18be67c5d9" y="360.967912"/>
    </g>
   </g>
   <g id="PathCollection_9">
    <defs>
     <path d="M 0 2.345208 
C 0.621956 2.345208 1.218523 2.098102 1.658312 1.658312 
C 2.098102 1.218523 2.345208 0.621956 2.345208 0 
C 2.345208 -0.621956 2.098102 -1.218523 1.658312 -1.658312 
C 1.218523 -2.098102 0.621956 -2.345208 0 -2.345208 
C -0.621956 -2.345208 -1.218523 -2.098102 -1.658312 -1.658312 
C -2.098102 -1.218523 -2.345208 -0.621956 -2.345208 0 
C -2.345208 0.621956 -2.098102 1.218523 -1.658312 1.658312 
C -1.218523 2.098102 -0.621956 2.345208 0 2.345208 
z
" id="mca9cf23d2f" style="stroke:#fabed4;"/>
    </defs>
    <g clip-path="url(#p484572fca7)">
     <use style="fill:#fabed4;stroke:#fabed4;" x="72.588727" xlink:href="#mca9cf23d2f" y="356.391111"/>
     <use style="fill:#fabed4;stroke:#fabed4;" x="73.553323" xlink:href="#mca9cf23d2f" y="355.837454"/>
     <use style="fill:#fabed4;stroke:#fabed4;" x="72.880477" xlink:href="#mca9cf23d2f" y="355.99529"/>
     <use style="fill:#fabed4;stroke:#fabed4;" x="72.291376" xlink:href="#mca9cf23d2f" y="356.68236"/>
     <use style="fill:#fabed4;stroke:#fabed4;" x="73.283305" xlink:href="#mca9cf23d2f" y="356.524773"/>
    </g>
   </g>
   <g id="PathCollection_10">
    <defs>
     <path d="M 0 2.345208 
C 0.621956 2.345208 1.218523 2.098102 1.658312 1.658312 
C 2.098102 1.218523 2.345208 0.621956 2.345208 0 
C 2.345208 -0.621956 2.098102 -1.218523 1.658312 -1.658312 
C 1.218523 -2.098102 0.621956 -2.345208 0 -2.345208 
C -0.621956 -2.345208 -1.218523 -2.098102 -1.658312 -1.658312 
C -2.098102 -1.218523 -2.345208 -0.621956 -2.345208 0 
C -2.345208 0.621956 -2.098102 1.218523 -1.658312 1.658312 
C -1.218523 2.098102 -0.621956 2.345208 0 2.345208 
z
" id="m03cdb40a8b" style="stroke:#469990;"/>
    </defs>
    <g clip-path="url(#p484572fca7)">
     <use style="fill:#469990;stroke:#469990;" x="114.597932" xlink:href="#m03cdb40a8b" y="527.043727"/>
     <use style="fill:#469990;stroke:#469990;" x="114.152605" xlink:href="#m03cdb40a8b" y="527.248458"/>
     <use style="fill:#469990;stroke:#469990;" x="115.868746" xlink:href="#m03cdb40a8b" y="526.005654"/>
     <use style="fill:#469990;stroke:#469990;" x="113.809207" xlink:href="#m03cdb40a8b" y="527.407797"/>
     <use style="fill:#469990;stroke:#469990;" x="115.297868" xlink:href="#m03cdb40a8b" y="526.571817"/>
     <use style="fill:#469990;stroke:#469990;" x="114.0018" xlink:href="#m03cdb40a8b" y="527.228031"/>
    </g>
   </g>
   <g id="PathCollection_11">
    <defs>
     <path d="M 0 2.345208 
C 0.621956 2.345208 1.218523 2.098102 1.658312 1.658312 
C 2.098102 1.218523 2.345208 0.621956 2.345208 0 
C 2.345208 -0.621956 2.098102 -1.218523 1.658312 -1.658312 
C 1.218523 -2.098102 0.621956 -2.345208 0 -2.345208 
C -0.621956 -2.345208 -1.218523 -2.098102 -1.658312 -1.658312 
C -2.098102 -1.218523 -2.345208 -0.621956 -2.345208 0 
C -2.345208 0.621956 -2.098102 1.218523 -1.658312 1.658312 
C -1.218523 2.098102 -0.621956 2.345208 0 2.345208 
z
" id="m17b4753cf7" style="stroke:#dcbeff;"/>
    </defs>
    <g clip-path="url(#p484572fca7)">
     <use style="fill:#dcbeff;stroke:#dcbeff;" x="450.63306" xlink:href="#m17b4753cf7" y="530.239655"/>
     <use style="fill:#dcbeff;stroke:#dcbeff;" x="450.130514" xlink:href="#m17b4753cf7" y="529.854482"/>
     <use style="fill:#dcbeff;stroke:#dcbeff;" x="450.542403" xlink:href="#m17b4753cf7" y="530.173493"/>
    </g>
   </g>
   <g id="PathCollection_12">
    <defs>
     <path d="M 0 2.345208 
C 0.621956 2.345208 1.218523 2.098102 1.658312 1.658312 
C 2.098102 1.218523 2.345208 0.621956 2.345208 0 
C 2.345208 -0.621956 2.098102 -1.218523 1.658312 -1.658312 
C 1.218523 -2.098102 0.621956 -2.345208 0 -2.345208 
C -0.621956 -2.345208 -1.218523 -2.098102 -1.658312 -1.658312 
C -2.098102 -1.218523 -2.345208 -0.621956 -2.345208 0 
C -2.345208 0.621956 -2.098102 1.218523 -1.658312 1.658312 
C -1.218523 2.098102 -0.621956 2.345208 0 2.345208 
z
" id="m9fbcb1b607" style="stroke:#9a6324;"/>
    </defs>
    <g clip-path="url(#p484572fca7)">
     <use style="fill:#9a6324;stroke:#9a6324;" x="70.102684" xlink:href="#m9fbcb1b607" y="359.64212"/>
     <use style="fill:#9a6324;stroke:#9a6324;" x="65.987135" xlink:href="#m9fbcb1b607" y="360.49019"/>
     <use style="fill:#9a6324;stroke:#9a6324;" x="70.256043" xlink:href="#m9fbcb1b607" y="362.030176"/>
     <use style="fill:#9a6324;stroke:#9a6324;" x="67.684853" xlink:href="#m9fbcb1b607" y="358.661087"/>
     <use style="fill:#9a6324;stroke:#9a6324;" x="69.505024" xlink:href="#m9fbcb1b607" y="362.692441"/>
     <use style="fill:#9a6324;stroke:#9a6324;" x="69.689394" xlink:href="#m9fbcb1b607" y="364.151597"/>
     <use style="fill:#9a6324;stroke:#9a6324;" x="71.608534" xlink:href="#m9fbcb1b607" y="364.584651"/>
     <use style="fill:#9a6324;stroke:#9a6324;" x="68.148791" xlink:href="#m9fbcb1b607" y="363.111615"/>
     <use style="fill:#9a6324;stroke:#9a6324;" x="70.221127" xlink:href="#m9fbcb1b607" y="360.407898"/>
     <use style="fill:#9a6324;stroke:#9a6324;" x="67.697246" xlink:href="#m9fbcb1b607" y="363.410654"/>
     <use style="fill:#9a6324;stroke:#9a6324;" x="70.554364" xlink:href="#m9fbcb1b607" y="362.803409"/>
     <use style="fill:#9a6324;stroke:#9a6324;" x="69.202863" xlink:href="#m9fbcb1b607" y="364.2523"/>
    </g>
   </g>
   <g id="PathCollection_13">
    <defs>
     <path d="M 0 2.345208 
C 0.621956 2.345208 1.218523 2.098102 1.658312 1.658312 
C 2.098102 1.218523 2.345208 0.621956 2.345208 0 
C 2.345208 -0.621956 2.098102 -1.218523 1.658312 -1.658312 
C 1.218523 -2.098102 0.621956 -2.345208 0 -2.345208 
C -0.621956 -2.345208 -1.218523 -2.098102 -1.658312 -1.658312 
C -2.098102 -1.218523 -2.345208 -0.621956 -2.345208 0 
C -2.345208 0.621956 -2.098102 1.218523 -1.658312 1.658312 
C -1.218523 2.098102 -0.621956 2.345208 0 2.345208 
z
" id="mb7e55590b9" style="stroke:#b3a400;"/>
    </defs>
    <g clip-path="url(#p484572fca7)">
     <use style="fill:#b3a400;stroke:#b3a400;" x="88.653776" xlink:href="#mb7e55590b9" y="519.612191"/>
     <use style="fill:#b3a400;stroke:#b3a400;" x="91.076091" xlink:href="#mb7e55590b9" y="521.270824"/>
     <use style="fill:#b3a400;stroke:#b3a400;" x="90.277955" xlink:href="#mb7e55590b9" y="520.452518"/>
     <use style="fill:#b3a400;stroke:#b3a400;" x="89.091887" xlink:href="#mb7e55590b9" y="519.673079"/>
     <use style="fill:#b3a400;stroke:#b3a400;" x="90.150345" xlink:href="#mb7e55590b9" y="520.287691"/>
     <use style="fill:#b3a400;stroke:#b3a400;" x="91.160417" xlink:href="#mb7e55590b9" y="520.903084"/>
     <use style="fill:#b3a400;stroke:#b3a400;" x="90.258353" xlink:href="#mb7e55590b9" y="520.480698"/>
    </g>
   </g>
   <g id="PathCollection_14">
    <defs>
     <path d="M 0 2.345208 
C 0.621956 2.345208 1.218523 2.098102 1.658312 1.658312 
C 2.098102 1.218523 2.345208 0.621956 2.345208 0 
C 2.345208 -0.621956 2.098102 -1.218523 1.658312 -1.658312 
C 1.218523 -2.098102 0.621956 -2.345208 0 -2.345208 
C -0.621956 -2.345208 -1.218523 -2.098102 -1.658312 -1.658312 
C -2.098102 -1.218523 -2.345208 -0.621956 -2.345208 0 
C -2.345208 0.621956 -2.098102 1.218523 -1.658312 1.658312 
C -1.218523 2.098102 -0.621956 2.345208 0 2.345208 
z
" id="m828e89ea13" style="stroke:#82baff;"/>
    </defs>
    <g clip-path="url(#p484572fca7)">
     <use style="fill:#82baff;stroke:#82baff;" x="441.551713" xlink:href="#m828e89ea13" y="516.725876"/>
     <use style="fill:#82baff;stroke:#82baff;" x="440.682634" xlink:href="#m828e89ea13" y="516.670512"/>
     <use style="fill:#82baff;stroke:#82baff;" x="442.379821" xlink:href="#m828e89ea13" y="516.034507"/>
     <use style="fill:#82baff;stroke:#82baff;" x="441.648086" xlink:href="#m828e89ea13" y="519.212004"/>
     <use style="fill:#82baff;stroke:#82baff;" x="445.355431" xlink:href="#m828e89ea13" y="518.228507"/>
     <use style="fill:#82baff;stroke:#82baff;" x="445.176777" xlink:href="#m828e89ea13" y="518.547461"/>
     <use style="fill:#82baff;stroke:#82baff;" x="438.37122" xlink:href="#m828e89ea13" y="519.299534"/>
     <use style="fill:#82baff;stroke:#82baff;" x="439.968357" xlink:href="#m828e89ea13" y="519.89871"/>
     <use style="fill:#82baff;stroke:#82baff;" x="439.524805" xlink:href="#m828e89ea13" y="518.658234"/>
     <use style="fill:#82baff;stroke:#82baff;" x="441.666082" xlink:href="#m828e89ea13" y="517.007461"/>
     <use style="fill:#82baff;stroke:#82baff;" x="441.112463" xlink:href="#m828e89ea13" y="519.72837"/>
    </g>
   </g>
   <g id="PathCollection_15">
    <defs>
     <path d="M 0 2.345208 
C 0.621956 2.345208 1.218523 2.098102 1.658312 1.658312 
C 2.098102 1.218523 2.345208 0.621956 2.345208 0 
C 2.345208 -0.621956 2.098102 -1.218523 1.658312 -1.658312 
C 1.218523 -2.098102 0.621956 -2.345208 0 -2.345208 
C -0.621956 -2.345208 -1.218523 -2.098102 -1.658312 -1.658312 
C -2.098102 -1.218523 -2.345208 -0.621956 -2.345208 0 
C -2.345208 0.621956 -2.098102 1.218523 -1.658312 1.658312 
C -1.218523 2.098102 -0.621956 2.345208 0 2.345208 
z
" id="m65aac6a44f" style="stroke:#808000;"/>
    </defs>
    <g clip-path="url(#p484572fca7)">
     <use style="fill:#808000;stroke:#808000;" x="444.744402" xlink:href="#m65aac6a44f" y="525.842719"/>
     <use style="fill:#808000;stroke:#808000;" x="443.344085" xlink:href="#m65aac6a44f" y="525.219418"/>
     <use style="fill:#808000;stroke:#808000;" x="447.561418" xlink:href="#m65aac6a44f" y="527.026449"/>
     <use style="fill:#808000;stroke:#808000;" x="443.783053" xlink:href="#m65aac6a44f" y="525.077792"/>
     <use style="fill:#808000;stroke:#808000;" x="447.206627" xlink:href="#m65aac6a44f" y="526.798244"/>
     <use style="fill:#808000;stroke:#808000;" x="447.017136" xlink:href="#m65aac6a44f" y="527.052356"/>
     <use style="fill:#808000;stroke:#808000;" x="445.521635" xlink:href="#m65aac6a44f" y="525.122819"/>
    </g>
   </g>
   <g id="PathCollection_16">
    <defs>
     <path d="M 0 2.345208 
C 0.621956 2.345208 1.218523 2.098102 1.658312 1.658312 
C 2.098102 1.218523 2.345208 0.621956 2.345208 0 
C 2.345208 -0.621956 2.098102 -1.218523 1.658312 -1.658312 
C 1.218523 -2.098102 0.621956 -2.345208 0 -2.345208 
C -0.621956 -2.345208 -1.218523 -2.098102 -1.658312 -1.658312 
C -2.098102 -1.218523 -2.345208 -0.621956 -2.345208 0 
C -2.345208 0.621956 -2.098102 1.218523 -1.658312 1.658312 
C -1.218523 2.098102 -0.621956 2.345208 0 2.345208 
z
" id="m7939ff1172" style="stroke:#ffd8b1;"/>
    </defs>
    <g clip-path="url(#p484572fca7)">
     <use style="fill:#ffd8b1;stroke:#ffd8b1;" x="71.702105" xlink:href="#m7939ff1172" y="358.189416"/>
     <use style="fill:#ffd8b1;stroke:#ffd8b1;" x="72.804491" xlink:href="#m7939ff1172" y="360.619865"/>
     <use style="fill:#ffd8b1;stroke:#ffd8b1;" x="74.458783" xlink:href="#m7939ff1172" y="359.965945"/>
     <use style="fill:#ffd8b1;stroke:#ffd8b1;" x="73.886645" xlink:href="#m7939ff1172" y="361.795105"/>
     <use style="fill:#ffd8b1;stroke:#ffd8b1;" x="72.331774" xlink:href="#m7939ff1172" y="358.317619"/>
    </g>
   </g>
   <g id="PathCollection_17">
    <defs>
     <path d="M 0 2.345208 
C 0.621956 2.345208 1.218523 2.098102 1.658312 1.658312 
C 2.098102 1.218523 2.345208 0.621956 2.345208 0 
C 2.345208 -0.621956 2.098102 -1.218523 1.658312 -1.658312 
C 1.218523 -2.098102 0.621956 -2.345208 0 -2.345208 
C -0.621956 -2.345208 -1.218523 -2.098102 -1.658312 -1.658312 
C -2.098102 -1.218523 -2.345208 -0.621956 -2.345208 0 
C -2.345208 0.621956 -2.098102 1.218523 -1.658312 1.658312 
C -1.218523 2.098102 -0.621956 2.345208 0 2.345208 
z
" id="m48b6739ba0" style="stroke:#56b4e9;"/>
    </defs>
    <g clip-path="url(#p484572fca7)">
     <use style="fill:#56b4e9;stroke:#56b4e9;" x="440.333786" xlink:href="#m48b6739ba0" y="527.167201"/>
     <use style="fill:#56b4e9;stroke:#56b4e9;" x="433.883727" xlink:href="#m48b6739ba0" y="526.977876"/>
     <use style="fill:#56b4e9;stroke:#56b4e9;" x="433.600948" xlink:href="#m48b6739ba0" y="527.184739"/>
     <use style="fill:#56b4e9;stroke:#56b4e9;" x="433.523731" xlink:href="#m48b6739ba0" y="527.271966"/>
    </g>
   </g>
   <g id="PathCollection_18">
    <defs>
     <path d="M 0 2.345208 
C 0.621956 2.345208 1.218523 2.098102 1.658312 1.658312 
C 2.098102 1.218523 2.345208 0.621956 2.345208 0 
C 2.345208 -0.621956 2.098102 -1.218523 1.658312 -1.658312 
C 1.218523 -2.098102 0.621956 -2.345208 0 -2.345208 
C -0.621956 -2.345208 -1.218523 -2.098102 -1.658312 -1.658312 
C -2.098102 -1.218523 -2.345208 -0.621956 -2.345208 0 
C -2.345208 0.621956 -2.098102 1.218523 -1.658312 1.658312 
C -1.218523 2.098102 -0.621956 2.345208 0 2.345208 
z
" id="m90ee3cbb83" style="stroke:#f0e442;"/>
    </defs>
    <g clip-path="url(#p484572fca7)">
     <use style="fill:#f0e442;stroke:#f0e442;" x="72.947628" xlink:href="#m90ee3cbb83" y="355.693144"/>
     <use style="fill:#f0e442;stroke:#f0e442;" x="73.638258" xlink:href="#m90ee3cbb83" y="355.937812"/>
     <use style="fill:#f0e442;stroke:#f0e442;" x="73.398911" xlink:href="#m90ee3cbb83" y="357.537522"/>
    </g>
   </g>
   <g id="PathCollection_19">
    <defs>
     <path d="M 0 2.345208 
C 0.621956 2.345208 1.218523 2.098102 1.658312 1.658312 
C 2.098102 1.218523 2.345208 0.621956 2.345208 0 
C 2.345208 -0.621956 2.098102 -1.218523 1.658312 -1.658312 
C 1.218523 -2.098102 0.621956 -2.345208 0 -2.345208 
C -0.621956 -2.345208 -1.218523 -2.098102 -1.658312 -1.658312 
C -2.098102 -1.218523 -2.345208 -0.621956 -2.345208 0 
C -2.345208 0.621956 -2.098102 1.218523 -1.658312 1.658312 
C -1.218523 2.098102 -0.621956 2.345208 0 2.345208 
z
" id="mf3854bd2f2" style="stroke:#d55e00;"/>
    </defs>
    <g clip-path="url(#p484572fca7)">
     <use style="fill:#d55e00;stroke:#d55e00;" x="374.846117" xlink:href="#mf3854bd2f2" y="387.691087"/>
     <use style="fill:#d55e00;stroke:#d55e00;" x="374.737294" xlink:href="#mf3854bd2f2" y="389.241234"/>
     <use style="fill:#d55e00;stroke:#d55e00;" x="374.646765" xlink:href="#mf3854bd2f2" y="389.146869"/>
     <use style="fill:#d55e00;stroke:#d55e00;" x="374.804834" xlink:href="#mf3854bd2f2" y="389.361245"/>
     <use style="fill:#d55e00;stroke:#d55e00;" x="373.918099" xlink:href="#mf3854bd2f2" y="389.653612"/>
    </g>
   </g>
   <g id="PathCollection_20">
    <defs>
     <path d="M 0 2.345208 
C 0.621956 2.345208 1.218523 2.098102 1.658312 1.658312 
C 2.098102 1.218523 2.345208 0.621956 2.345208 0 
C 2.345208 -0.621956 2.098102 -1.218523 1.658312 -1.658312 
C 1.218523 -2.098102 0.621956 -2.345208 0 -2.345208 
C -0.621956 -2.345208 -1.218523 -2.098102 -1.658312 -1.658312 
C -2.098102 -1.218523 -2.345208 -0.621956 -2.345208 0 
C -2.345208 0.621956 -2.098102 1.218523 -1.658312 1.658312 
C -1.218523 2.098102 -0.621956 2.345208 0 2.345208 
z
" id="m7beadeef44" style="stroke:#f46d43;"/>
    </defs>
    <g clip-path="url(#p484572fca7)">
     <use style="fill:#f46d43;stroke:#f46d43;" x="435.928461" xlink:href="#m7beadeef44" y="523.917662"/>
     <use style="fill:#f46d43;stroke:#f46d43;" x="436.242167" xlink:href="#m7beadeef44" y="524.536862"/>
     <use style="fill:#f46d43;stroke:#f46d43;" x="436.922491" xlink:href="#m7beadeef44" y="523.681114"/>
    </g>
   </g>
   <g id="matplotlib.axis_3">
    <g id="xtick_23">
     <g id="line2d_28">
      <g>
       <use style="stroke:#000000;stroke-width:0.8;" x="90.721216" xlink:href="#me46426777f" y="564.48"/>
      </g>
     </g>
     <g id="text_33">
      <!-- 5 -->
      <g transform="translate(83.350123 579.078437)scale(0.1 -0.1)">
       <defs>
        <path d="M 10.59375 35.5 
L 73.1875 35.5 
L 73.1875 27.203125 
L 10.59375 27.203125 
z
" id="DejaVuSans-8722"/>
       </defs>
       <use xlink:href="#DejaVuSans-8722"/>
       <use x="83.789062" xlink:href="#DejaVuSans-53"/>
      </g>
     </g>
    </g>
    <g id="xtick_24">
     <g id="line2d_29">
      <g>
       <use style="stroke:#000000;stroke-width:0.8;" x="164.894711" xlink:href="#me46426777f" y="564.48"/>
      </g>
     </g>
     <g id="text_34">
      <!-- 0 -->
      <g transform="translate(161.713461 579.078437)scale(0.1 -0.1)">
       <use xlink:href="#DejaVuSans-48"/>
      </g>
     </g>
    </g>
    <g id="xtick_25">
     <g id="line2d_30">
      <g>
       <use style="stroke:#000000;stroke-width:0.8;" x="239.068207" xlink:href="#me46426777f" y="564.48"/>
      </g>
     </g>
     <g id="text_35">
      <!-- 5 -->
      <g transform="translate(235.886957 579.078437)scale(0.1 -0.1)">
       <use xlink:href="#DejaVuSans-53"/>
      </g>
     </g>
    </g>
    <g id="xtick_26">
     <g id="line2d_31">
      <g>
       <use style="stroke:#000000;stroke-width:0.8;" x="313.241702" xlink:href="#me46426777f" y="564.48"/>
      </g>
     </g>
     <g id="text_36">
      <!-- 10 -->
      <g transform="translate(306.879202 579.078437)scale(0.1 -0.1)">
       <use xlink:href="#DejaVuSans-49"/>
       <use x="63.623047" xlink:href="#DejaVuSans-48"/>
      </g>
     </g>
    </g>
    <g id="xtick_27">
     <g id="line2d_32">
      <g>
       <use style="stroke:#000000;stroke-width:0.8;" x="387.415197" xlink:href="#me46426777f" y="564.48"/>
      </g>
     </g>
     <g id="text_37">
      <!-- 15 -->
      <g transform="translate(381.052697 579.078437)scale(0.1 -0.1)">
       <use xlink:href="#DejaVuSans-49"/>
       <use x="63.623047" xlink:href="#DejaVuSans-53"/>
      </g>
     </g>
    </g>
    <g id="text_38">
     <!-- UMAP Dimension 1 -->
     <g transform="translate(210.955469 592.756562)scale(0.1 -0.1)">
      <defs>
       <path d="M 8.6875 72.90625 
L 18.609375 72.90625 
L 18.609375 28.609375 
Q 18.609375 16.890625 22.84375 11.734375 
Q 27.09375 6.59375 36.625 6.59375 
Q 46.09375 6.59375 50.34375 11.734375 
Q 54.59375 16.890625 54.59375 28.609375 
L 54.59375 72.90625 
L 64.5 72.90625 
L 64.5 27.390625 
Q 64.5 13.140625 57.4375 5.859375 
Q 50.390625 -1.421875 36.625 -1.421875 
Q 22.796875 -1.421875 15.734375 5.859375 
Q 8.6875 13.140625 8.6875 27.390625 
z
" id="DejaVuSans-85"/>
       <path d="M 9.8125 72.90625 
L 24.515625 72.90625 
L 43.109375 23.296875 
L 61.8125 72.90625 
L 76.515625 72.90625 
L 76.515625 0 
L 66.890625 0 
L 66.890625 64.015625 
L 48.09375 14.015625 
L 38.1875 14.015625 
L 19.390625 64.015625 
L 19.390625 0 
L 9.8125 0 
z
" id="DejaVuSans-77"/>
       <path d="M 34.1875 63.1875 
L 20.796875 26.90625 
L 47.609375 26.90625 
z
M 28.609375 72.90625 
L 39.796875 72.90625 
L 67.578125 0 
L 57.328125 0 
L 50.6875 18.703125 
L 17.828125 18.703125 
L 11.1875 0 
L 0.78125 0 
z
" id="DejaVuSans-65"/>
       <path d="M 19.671875 64.796875 
L 19.671875 37.40625 
L 32.078125 37.40625 
Q 38.96875 37.40625 42.71875 40.96875 
Q 46.484375 44.53125 46.484375 51.125 
Q 46.484375 57.671875 42.71875 61.234375 
Q 38.96875 64.796875 32.078125 64.796875 
z
M 9.8125 72.90625 
L 32.078125 72.90625 
Q 44.34375 72.90625 50.609375 67.359375 
Q 56.890625 61.8125 56.890625 51.125 
Q 56.890625 40.328125 50.609375 34.8125 
Q 44.34375 29.296875 32.078125 29.296875 
L 19.671875 29.296875 
L 19.671875 0 
L 9.8125 0 
z
" id="DejaVuSans-80"/>
       <path d="M 19.671875 64.796875 
L 19.671875 8.109375 
L 31.59375 8.109375 
Q 46.6875 8.109375 53.6875 14.9375 
Q 60.6875 21.78125 60.6875 36.53125 
Q 60.6875 51.171875 53.6875 57.984375 
Q 46.6875 64.796875 31.59375 64.796875 
z
M 9.8125 72.90625 
L 30.078125 72.90625 
Q 51.265625 72.90625 61.171875 64.09375 
Q 71.09375 55.28125 71.09375 36.53125 
Q 71.09375 17.671875 61.125 8.828125 
Q 51.171875 0 30.078125 0 
L 9.8125 0 
z
" id="DejaVuSans-68"/>
      </defs>
      <use xlink:href="#DejaVuSans-85"/>
      <use x="73.193359" xlink:href="#DejaVuSans-77"/>
      <use x="159.472656" xlink:href="#DejaVuSans-65"/>
      <use x="227.880859" xlink:href="#DejaVuSans-80"/>
      <use x="288.183594" xlink:href="#DejaVuSans-32"/>
      <use x="319.970703" xlink:href="#DejaVuSans-68"/>
      <use x="396.972656" xlink:href="#DejaVuSans-105"/>
      <use x="424.755859" xlink:href="#DejaVuSans-109"/>
      <use x="522.167969" xlink:href="#DejaVuSans-101"/>
      <use x="583.691406" xlink:href="#DejaVuSans-110"/>
      <use x="647.070312" xlink:href="#DejaVuSans-115"/>
      <use x="699.169922" xlink:href="#DejaVuSans-105"/>
      <use x="726.953125" xlink:href="#DejaVuSans-111"/>
      <use x="788.134766" xlink:href="#DejaVuSans-110"/>
      <use x="851.513672" xlink:href="#DejaVuSans-32"/>
      <use x="883.300781" xlink:href="#DejaVuSans-49"/>
     </g>
    </g>
   </g>
   <g id="matplotlib.axis_4">
    <g id="ytick_6">
     <g id="line2d_33">
      <g>
       <use style="stroke:#000000;stroke-width:0.8;" x="63" xlink:href="#me821537573" y="541.533797"/>
      </g>
     </g>
     <g id="text_39">
      <!-- 5.0 -->
      <g transform="translate(31.717187 545.333016)scale(0.1 -0.1)">
       <defs>
        <path d="M 10.6875 12.40625 
L 21 12.40625 
L 21 0 
L 10.6875 0 
z
" id="DejaVuSans-46"/>
       </defs>
       <use xlink:href="#DejaVuSans-8722"/>
       <use x="83.789062" xlink:href="#DejaVuSans-53"/>
       <use x="147.412109" xlink:href="#DejaVuSans-46"/>
       <use x="179.199219" xlink:href="#DejaVuSans-48"/>
      </g>
     </g>
    </g>
    <g id="ytick_7">
     <g id="line2d_34">
      <g>
       <use style="stroke:#000000;stroke-width:0.8;" x="63" xlink:href="#me821537573" y="516.475877"/>
      </g>
     </g>
     <g id="text_40">
      <!-- 2.5 -->
      <g transform="translate(31.717187 520.275096)scale(0.1 -0.1)">
       <use xlink:href="#DejaVuSans-8722"/>
       <use x="83.789062" xlink:href="#DejaVuSans-50"/>
       <use x="147.412109" xlink:href="#DejaVuSans-46"/>
       <use x="179.199219" xlink:href="#DejaVuSans-53"/>
      </g>
     </g>
    </g>
    <g id="ytick_8">
     <g id="line2d_35">
      <g>
       <use style="stroke:#000000;stroke-width:0.8;" x="63" xlink:href="#me821537573" y="491.417957"/>
      </g>
     </g>
     <g id="text_41">
      <!-- 0.0 -->
      <g transform="translate(40.096875 495.217176)scale(0.1 -0.1)">
       <use xlink:href="#DejaVuSans-48"/>
       <use x="63.623047" xlink:href="#DejaVuSans-46"/>
       <use x="95.410156" xlink:href="#DejaVuSans-48"/>
      </g>
     </g>
    </g>
    <g id="ytick_9">
     <g id="line2d_36">
      <g>
       <use style="stroke:#000000;stroke-width:0.8;" x="63" xlink:href="#me821537573" y="466.360037"/>
      </g>
     </g>
     <g id="text_42">
      <!-- 2.5 -->
      <g transform="translate(40.096875 470.159255)scale(0.1 -0.1)">
       <use xlink:href="#DejaVuSans-50"/>
       <use x="63.623047" xlink:href="#DejaVuSans-46"/>
       <use x="95.410156" xlink:href="#DejaVuSans-53"/>
      </g>
     </g>
    </g>
    <g id="ytick_10">
     <g id="line2d_37">
      <g>
       <use style="stroke:#000000;stroke-width:0.8;" x="63" xlink:href="#me821537573" y="441.302116"/>
      </g>
     </g>
     <g id="text_43">
      <!-- 5.0 -->
      <g transform="translate(40.096875 445.101335)scale(0.1 -0.1)">
       <use xlink:href="#DejaVuSans-53"/>
       <use x="63.623047" xlink:href="#DejaVuSans-46"/>
       <use x="95.410156" xlink:href="#DejaVuSans-48"/>
      </g>
     </g>
    </g>
    <g id="ytick_11">
     <g id="line2d_38">
      <g>
       <use style="stroke:#000000;stroke-width:0.8;" x="63" xlink:href="#me821537573" y="416.244196"/>
      </g>
     </g>
     <g id="text_44">
      <!-- 7.5 -->
      <g transform="translate(40.096875 420.043415)scale(0.1 -0.1)">
       <use xlink:href="#DejaVuSans-55"/>
       <use x="63.623047" xlink:href="#DejaVuSans-46"/>
       <use x="95.410156" xlink:href="#DejaVuSans-53"/>
      </g>
     </g>
    </g>
    <g id="ytick_12">
     <g id="line2d_39">
      <g>
       <use style="stroke:#000000;stroke-width:0.8;" x="63" xlink:href="#me821537573" y="391.186276"/>
      </g>
     </g>
     <g id="text_45">
      <!-- 10.0 -->
      <g transform="translate(33.734375 394.985495)scale(0.1 -0.1)">
       <use xlink:href="#DejaVuSans-49"/>
       <use x="63.623047" xlink:href="#DejaVuSans-48"/>
       <use x="127.246094" xlink:href="#DejaVuSans-46"/>
       <use x="159.033203" xlink:href="#DejaVuSans-48"/>
      </g>
     </g>
    </g>
    <g id="ytick_13">
     <g id="line2d_40">
      <g>
       <use style="stroke:#000000;stroke-width:0.8;" x="63" xlink:href="#me821537573" y="366.128356"/>
      </g>
     </g>
     <g id="text_46">
      <!-- 12.5 -->
      <g transform="translate(33.734375 369.927574)scale(0.1 -0.1)">
       <use xlink:href="#DejaVuSans-49"/>
       <use x="63.623047" xlink:href="#DejaVuSans-50"/>
       <use x="127.246094" xlink:href="#DejaVuSans-46"/>
       <use x="159.033203" xlink:href="#DejaVuSans-53"/>
      </g>
     </g>
    </g>
    <g id="text_47">
     <!-- UMAP Dimension 2 -->
     <g transform="translate(25.6375 506.428787)rotate(-90)scale(0.1 -0.1)">
      <use xlink:href="#DejaVuSans-85"/>
      <use x="73.193359" xlink:href="#DejaVuSans-77"/>
      <use x="159.472656" xlink:href="#DejaVuSans-65"/>
      <use x="227.880859" xlink:href="#DejaVuSans-80"/>
      <use x="288.183594" xlink:href="#DejaVuSans-32"/>
      <use x="319.970703" xlink:href="#DejaVuSans-68"/>
      <use x="396.972656" xlink:href="#DejaVuSans-105"/>
      <use x="424.755859" xlink:href="#DejaVuSans-109"/>
      <use x="522.167969" xlink:href="#DejaVuSans-101"/>
      <use x="583.691406" xlink:href="#DejaVuSans-110"/>
      <use x="647.070312" xlink:href="#DejaVuSans-115"/>
      <use x="699.169922" xlink:href="#DejaVuSans-105"/>
      <use x="726.953125" xlink:href="#DejaVuSans-111"/>
      <use x="788.134766" xlink:href="#DejaVuSans-110"/>
      <use x="851.513672" xlink:href="#DejaVuSans-32"/>
      <use x="883.300781" xlink:href="#DejaVuSans-50"/>
     </g>
    </g>
   </g>
   <g id="patch_32">
    <path d="M 63 564.48 
L 63 353.688511 
" style="fill:none;stroke:#000000;stroke-linecap:square;stroke-linejoin:miter;stroke-width:0.8;"/>
   </g>
   <g id="patch_33">
    <path d="M 453.6 564.48 
L 453.6 353.688511 
" style="fill:none;stroke:#000000;stroke-linecap:square;stroke-linejoin:miter;stroke-width:0.8;"/>
   </g>
   <g id="patch_34">
    <path d="M 63 564.48 
L 453.6 564.48 
" style="fill:none;stroke:#000000;stroke-linecap:square;stroke-linejoin:miter;stroke-width:0.8;"/>
   </g>
   <g id="patch_35">
    <path d="M 63 353.688511 
L 453.6 353.688511 
" style="fill:none;stroke:#000000;stroke-linecap:square;stroke-linejoin:miter;stroke-width:0.8;"/>
   </g>
   <g id="text_48">
    <!-- 0 -->
    <g style="fill:#e6194b;" transform="translate(443.697953 524.231586)scale(0.1 -0.1)">
     <use xlink:href="#DejaVuSans-48"/>
    </g>
   </g>
   <g id="text_49">
    <!-- 1 -->
    <g style="fill:#3cb44b;" transform="translate(66.892357 360.244996)scale(0.1 -0.1)">
     <use xlink:href="#DejaVuSans-49"/>
    </g>
   </g>
   <g id="text_50">
    <!-- 2 -->
    <g style="fill:#ffe119;" transform="translate(371.48008 382.718537)scale(0.1 -0.1)">
     <use xlink:href="#DejaVuSans-50"/>
    </g>
   </g>
   <g id="text_51">
    <!-- 3 -->
    <g style="fill:#4363d8;" transform="translate(99.792154 523.157766)scale(0.1 -0.1)">
     <use xlink:href="#DejaVuSans-51"/>
    </g>
   </g>
   <g id="text_52">
    <!-- 4 -->
    <g style="fill:#f58231;" transform="translate(440.39724 562.021509)scale(0.1 -0.1)">
     <use xlink:href="#DejaVuSans-52"/>
    </g>
   </g>
   <g id="text_53">
    <!-- 5 -->
    <g style="fill:#ba3fdf;" transform="translate(428.719848 529.184915)scale(0.1 -0.1)">
     <use xlink:href="#DejaVuSans-53"/>
    </g>
   </g>
   <g id="text_54">
    <!-- 6 -->
    <g style="fill:#42d4f4;" transform="translate(374.913828 382.955155)scale(0.1 -0.1)">
     <use xlink:href="#DejaVuSans-54"/>
    </g>
   </g>
   <g id="text_55">
    <!-- 7 -->
    <g style="fill:#bfef45;" transform="translate(80.36193 361.416113)scale(0.1 -0.1)">
     <use xlink:href="#DejaVuSans-55"/>
    </g>
   </g>
   <g id="text_56">
    <!-- 8 -->
    <g style="fill:#fabed4;" transform="translate(72.919442 356.286198)scale(0.1 -0.1)">
     <use xlink:href="#DejaVuSans-56"/>
    </g>
   </g>
   <g id="text_57">
    <!-- 9 -->
    <g style="fill:#469990;" transform="translate(114.62136 526.91758)scale(0.1 -0.1)">
     <use xlink:href="#DejaVuSans-57"/>
    </g>
   </g>
   <g id="text_58">
    <!-- 10 -->
    <g style="fill:#dcbeff;" transform="translate(450.435326 530.08921)scale(0.1 -0.1)">
     <use xlink:href="#DejaVuSans-49"/>
     <use x="63.623047" xlink:href="#DejaVuSans-48"/>
    </g>
   </g>
   <g id="text_59">
    <!-- 11 -->
    <g style="fill:#9a6324;" transform="translate(69.222347 362.186143)scale(0.1 -0.1)">
     <use xlink:href="#DejaVuSans-49"/>
     <use x="63.623047" xlink:href="#DejaVuSans-49"/>
    </g>
   </g>
   <g id="text_60">
    <!-- 12 -->
    <g style="fill:#b3a400;" transform="translate(90.095546 520.382869)scale(0.1 -0.1)">
     <use xlink:href="#DejaVuSans-49"/>
     <use x="63.623047" xlink:href="#DejaVuSans-50"/>
    </g>
   </g>
   <g id="text_61">
    <!-- 13 -->
    <g style="fill:#82baff;" transform="translate(441.585217 518.182834)scale(0.1 -0.1)">
     <use xlink:href="#DejaVuSans-49"/>
     <use x="63.623047" xlink:href="#DejaVuSans-51"/>
    </g>
   </g>
   <g id="text_62">
    <!-- 14 -->
    <g style="fill:#808000;" transform="translate(445.596908 526.019971)scale(0.1 -0.1)">
     <use xlink:href="#DejaVuSans-49"/>
     <use x="63.623047" xlink:href="#DejaVuSans-52"/>
    </g>
   </g>
   <g id="text_63">
    <!-- 15 -->
    <g style="fill:#ffd8b1;" transform="translate(73.036891 359.777114)scale(0.1 -0.1)">
     <use xlink:href="#DejaVuSans-49"/>
     <use x="63.623047" xlink:href="#DejaVuSans-53"/>
    </g>
   </g>
   <g id="text_64">
    <!-- 16 -->
    <g style="fill:#56b4e9;" transform="translate(435.335548 527.150445)scale(0.1 -0.1)">
     <use xlink:href="#DejaVuSans-49"/>
     <use x="63.623047" xlink:href="#DejaVuSans-54"/>
    </g>
   </g>
   <g id="text_65">
    <!-- 17 -->
    <g style="fill:#f0e442;" transform="translate(73.328265 356.389493)scale(0.1 -0.1)">
     <use xlink:href="#DejaVuSans-49"/>
     <use x="63.623047" xlink:href="#DejaVuSans-55"/>
    </g>
   </g>
   <g id="text_66">
    <!-- 18 -->
    <g style="fill:#d55e00;" transform="translate(374.590622 389.018809)scale(0.1 -0.1)">
     <use xlink:href="#DejaVuSans-49"/>
     <use x="63.623047" xlink:href="#DejaVuSans-56"/>
    </g>
   </g>
   <g id="text_67">
    <!-- 19 -->
    <g style="fill:#f46d43;" transform="translate(436.364373 524.045213)scale(0.1 -0.1)">
     <use xlink:href="#DejaVuSans-49"/>
     <use x="63.623047" xlink:href="#DejaVuSans-57"/>
    </g>
   </g>
   <g id="text_68">
    <!-- Selected GMM: full model, 20 Gaussian components -->
    <g transform="translate(101.753438 347.688511)scale(0.12 -0.12)">
     <defs>
      <path d="M 53.515625 70.515625 
L 53.515625 60.890625 
Q 47.90625 63.578125 42.921875 64.890625 
Q 37.9375 66.21875 33.296875 66.21875 
Q 25.25 66.21875 20.875 63.09375 
Q 16.5 59.96875 16.5 54.203125 
Q 16.5 49.359375 19.40625 46.890625 
Q 22.3125 44.4375 30.421875 42.921875 
L 36.375 41.703125 
Q 47.40625 39.59375 52.65625 34.296875 
Q 57.90625 29 57.90625 20.125 
Q 57.90625 9.515625 50.796875 4.046875 
Q 43.703125 -1.421875 29.984375 -1.421875 
Q 24.8125 -1.421875 18.96875 -0.25 
Q 13.140625 0.921875 6.890625 3.21875 
L 6.890625 13.375 
Q 12.890625 10.015625 18.65625 8.296875 
Q 24.421875 6.59375 29.984375 6.59375 
Q 38.421875 6.59375 43.015625 9.90625 
Q 47.609375 13.234375 47.609375 19.390625 
Q 47.609375 24.75 44.3125 27.78125 
Q 41.015625 30.8125 33.5 32.328125 
L 27.484375 33.5 
Q 16.453125 35.6875 11.515625 40.375 
Q 6.59375 45.0625 6.59375 53.421875 
Q 6.59375 63.09375 13.40625 68.65625 
Q 20.21875 74.21875 32.171875 74.21875 
Q 37.3125 74.21875 42.625 73.28125 
Q 47.953125 72.359375 53.515625 70.515625 
z
" id="DejaVuSans-83"/>
      <path d="M 11.71875 12.40625 
L 22.015625 12.40625 
L 22.015625 0 
L 11.71875 0 
z
M 11.71875 51.703125 
L 22.015625 51.703125 
L 22.015625 39.3125 
L 11.71875 39.3125 
z
" id="DejaVuSans-58"/>
      <path d="M 11.71875 12.40625 
L 22.015625 12.40625 
L 22.015625 4 
L 14.015625 -11.625 
L 7.71875 -11.625 
L 11.71875 4 
z
" id="DejaVuSans-44"/>
     </defs>
     <use xlink:href="#DejaVuSans-83"/>
     <use x="63.476562" xlink:href="#DejaVuSans-101"/>
     <use x="125" xlink:href="#DejaVuSans-108"/>
     <use x="152.783203" xlink:href="#DejaVuSans-101"/>
     <use x="214.306641" xlink:href="#DejaVuSans-99"/>
     <use x="269.287109" xlink:href="#DejaVuSans-116"/>
     <use x="308.496094" xlink:href="#DejaVuSans-101"/>
     <use x="370.019531" xlink:href="#DejaVuSans-100"/>
     <use x="433.496094" xlink:href="#DejaVuSans-32"/>
     <use x="465.283203" xlink:href="#DejaVuSans-71"/>
     <use x="542.773438" xlink:href="#DejaVuSans-77"/>
     <use x="629.052734" xlink:href="#DejaVuSans-77"/>
     <use x="715.332031" xlink:href="#DejaVuSans-58"/>
     <use x="749.023438" xlink:href="#DejaVuSans-32"/>
     <use x="780.810547" xlink:href="#DejaVuSans-102"/>
     <use x="816.015625" xlink:href="#DejaVuSans-117"/>
     <use x="879.394531" xlink:href="#DejaVuSans-108"/>
     <use x="907.177734" xlink:href="#DejaVuSans-108"/>
     <use x="934.960938" xlink:href="#DejaVuSans-32"/>
     <use x="966.748047" xlink:href="#DejaVuSans-109"/>
     <use x="1064.160156" xlink:href="#DejaVuSans-111"/>
     <use x="1125.341797" xlink:href="#DejaVuSans-100"/>
     <use x="1188.818359" xlink:href="#DejaVuSans-101"/>
     <use x="1250.341797" xlink:href="#DejaVuSans-108"/>
     <use x="1278.125" xlink:href="#DejaVuSans-44"/>
     <use x="1309.912109" xlink:href="#DejaVuSans-32"/>
     <use x="1341.699219" xlink:href="#DejaVuSans-50"/>
     <use x="1405.322266" xlink:href="#DejaVuSans-48"/>
     <use x="1468.945312" xlink:href="#DejaVuSans-32"/>
     <use x="1500.732422" xlink:href="#DejaVuSans-71"/>
     <use x="1578.222656" xlink:href="#DejaVuSans-97"/>
     <use x="1639.501953" xlink:href="#DejaVuSans-117"/>
     <use x="1702.880859" xlink:href="#DejaVuSans-115"/>
     <use x="1754.980469" xlink:href="#DejaVuSans-115"/>
     <use x="1807.080078" xlink:href="#DejaVuSans-105"/>
     <use x="1834.863281" xlink:href="#DejaVuSans-97"/>
     <use x="1896.142578" xlink:href="#DejaVuSans-110"/>
     <use x="1959.521484" xlink:href="#DejaVuSans-32"/>
     <use x="1991.308594" xlink:href="#DejaVuSans-99"/>
     <use x="2046.289062" xlink:href="#DejaVuSans-111"/>
     <use x="2107.470703" xlink:href="#DejaVuSans-109"/>
     <use x="2204.882812" xlink:href="#DejaVuSans-112"/>
     <use x="2268.359375" xlink:href="#DejaVuSans-111"/>
     <use x="2329.541016" xlink:href="#DejaVuSans-110"/>
     <use x="2392.919922" xlink:href="#DejaVuSans-101"/>
     <use x="2454.443359" xlink:href="#DejaVuSans-110"/>
     <use x="2517.822266" xlink:href="#DejaVuSans-116"/>
     <use x="2557.03125" xlink:href="#DejaVuSans-115"/>
    </g>
   </g>
  </g>
 </g>
 <defs>
  <clipPath id="pcafb8cefec">
   <rect height="210.791489" width="390.6" x="63" y="69.12"/>
  </clipPath>
  <clipPath id="p484572fca7">
   <rect height="210.791489" width="390.6" x="63" y="353.688511"/>
  </clipPath>
 </defs>
</svg>
