<?xml version="1.0" encoding="utf-8" standalone="no"?>
<!DOCTYPE svg PUBLIC "-//W3C//DTD SVG 1.1//EN"
  "http://www.w3.org/Graphics/SVG/1.1/DTD/svg11.dtd">
<svg xmlns:xlink="http://www.w3.org/1999/xlink" width="504pt" height="576pt" viewBox="0 0 504 576" xmlns="http://www.w3.org/2000/svg" version="1.1">
 <metadata>
  <rdf:RDF xmlns:dc="http://purl.org/dc/elements/1.1/" xmlns:cc="http://creativecommons.org/ns#" xmlns:rdf="http://www.w3.org/1999/02/22-rdf-syntax-ns#">
   <cc:Work>
    <dc:type rdf:resource="http://purl.org/dc/dcmitype/StillImage"/>
    <dc:date>2023-03-07T11:54:38.415013</dc:date>
    <dc:format>image/svg+xml</dc:format>
    <dc:creator>
     <cc:Agent>
      <dc:title>Matplotlib v3.7.1, https://matplotlib.org/</dc:title>
     </cc:Agent>
    </dc:creator>
   </cc:Work>
  </rdf:RDF>
 </metadata>
 <defs>
  <style type="text/css">*{stroke-linejoin: round; stroke-linecap: butt}</style>
 </defs>
 <g id="figure_1">
  <g id="patch_1">
   <path d="M 0 576 
L 504 576 
L 504 0 
L 0 0 
z
" style="fill: #ffffff"/>
  </g>
  <g id="axes_1">
   <g id="patch_2">
    <path d="M 63 279.911489 
L 453.6 279.911489 
L 453.6 69.12 
L 63 69.12 
z
" style="fill: #ffffff"/>
   </g>
   <g id="patch_3">
    <path d="M 80.754545 349.271915 
L 84.10446 349.271915 
L 84.10446 69.12 
L 80.754545 69.12 
z
" clip-path="url(#p90b7abaaca)" style="fill: #e6194b"/>
   </g>
   <g id="patch_4">
    <path d="M 97.504117 349.271915 
L 100.854031 349.271915 
L 100.854031 195.587988 
L 97.504117 195.587988 
z
" clip-path="url(#p90b7abaaca)" style="fill: #e6194b"/>
   </g>
   <g id="patch_5">
    <path d="M 114.253688 349.271915 
L 117.603602 349.271915 
L 117.603602 255.238575 
L 114.253688 255.238575 
z
" clip-path="url(#p90b7abaaca)" style="fill: #e6194b"/>
   </g>
   <g id="patch_6">
    <path d="M 131.003259 349.271915 
L 134.353173 349.271915 
L 134.353173 257.793893 
L 131.003259 257.793893 
z
" clip-path="url(#p90b7abaaca)" style="fill: #e6194b"/>
   </g>
   <g id="patch_7">
    <path d="M 147.75283 349.271915 
L 151.102744 349.271915 
L 151.102744 277.824445 
L 147.75283 277.824445 
z
" clip-path="url(#p90b7abaaca)" style="fill: #e6194b"/>
   </g>
   <g id="patch_8">
    <path d="M 164.502401 349.271915 
L 167.852316 349.271915 
L 167.852316 264.131515 
L 164.502401 264.131515 
z
" clip-path="url(#p90b7abaaca)" style="fill: #e6194b"/>
   </g>
   <g id="patch_9">
    <path d="M 181.251973 349.271915 
L 184.601887 349.271915 
L 184.601887 266.686832 
L 181.251973 266.686832 
z
" clip-path="url(#p90b7abaaca)" style="fill: #e6194b"/>
   </g>
   <g id="patch_10">
    <path d="M 198.001544 349.271915 
L 201.351458 349.271915 
L 201.351458 268.808093 
L 198.001544 268.808093 
z
" clip-path="url(#p90b7abaaca)" style="fill: #e6194b"/>
   </g>
   <g id="patch_11">
    <path d="M 214.751115 349.271915 
L 218.101029 349.271915 
L 218.101029 276.16485 
L 214.751115 276.16485 
z
" clip-path="url(#p90b7abaaca)" style="fill: #e6194b"/>
   </g>
   <g id="patch_12">
    <path d="M 231.500686 349.271915 
L 234.8506 349.271915 
L 234.8506 274.873175 
L 231.500686 274.873175 
z
" clip-path="url(#p90b7abaaca)" style="fill: #e6194b"/>
   </g>
   <g id="patch_13">
    <path d="M 248.250257 349.271915 
L 251.600172 349.271915 
L 251.600172 275.262925 
L 248.250257 275.262925 
z
" clip-path="url(#p90b7abaaca)" style="fill: #e6194b"/>
   </g>
   <g id="patch_14">
    <path d="M 264.999828 349.271915 
L 268.349743 349.271915 
L 268.349743 266.843801 
L 264.999828 266.843801 
z
" clip-path="url(#p90b7abaaca)" style="fill: #e6194b"/>
   </g>
   <g id="patch_15">
    <path d="M 281.7494 349.271915 
L 285.099314 349.271915 
L 285.099314 277.100435 
L 281.7494 277.100435 
z
" clip-path="url(#p90b7abaaca)" style="fill: #e6194b"/>
   </g>
   <g id="patch_16">
    <path d="M 298.498971 349.271915 
L 301.848885 349.271915 
L 301.848885 267.387988 
L 298.498971 267.387988 
z
" clip-path="url(#p90b7abaaca)" style="fill: #e6194b"/>
   </g>
   <g id="patch_17">
    <path d="M 315.248542 349.271915 
L 318.598456 349.271915 
L 318.598456 260.520757 
L 315.248542 260.520757 
z
" clip-path="url(#p90b7abaaca)" style="fill: #e6194b"/>
   </g>
   <g id="patch_18">
    <path d="M 331.998113 349.271915 
L 335.348027 349.271915 
L 335.348027 263.27021 
L 331.998113 263.27021 
z
" clip-path="url(#p90b7abaaca)" style="fill: #e6194b"/>
   </g>
   <g id="patch_19">
    <path d="M 348.747684 349.271915 
L 352.097599 349.271915 
L 352.097599 255.181574 
L 348.747684 255.181574 
z
" clip-path="url(#p90b7abaaca)" style="fill: #e6194b"/>
   </g>
   <g id="patch_20">
    <path d="M 365.497256 349.271915 
L 368.84717 349.271915 
L 368.84717 258.168072 
L 365.497256 258.168072 
z
" clip-path="url(#p90b7abaaca)" style="fill: #e6194b"/>
   </g>
   <g id="patch_21">
    <path d="M 382.246827 349.271915 
L 385.596741 349.271915 
L 385.596741 263.12073 
L 382.246827 263.12073 
z
" clip-path="url(#p90b7abaaca)" style="fill: #e6194b"/>
   </g>
   <g id="patch_22">
    <path d="M 398.996398 349.271915 
L 402.346312 349.271915 
L 402.346312 264.540912 
L 398.996398 264.540912 
z
" clip-path="url(#p90b7abaaca)" style="fill: #e6194b"/>
   </g>
   <g id="patch_23">
    <path d="M 415.745969 349.271915 
L 419.095883 349.271915 
L 419.095883 261.547134 
L 415.745969 261.547134 
z
" clip-path="url(#p90b7abaaca)" style="fill: #e6194b"/>
   </g>
   <g id="patch_24">
    <path d="M 432.49554 349.271915 
L 435.845455 349.271915 
L 435.845455 254.400086 
L 432.49554 254.400086 
z
" clip-path="url(#p90b7abaaca)" style="fill: #e6194b"/>
   </g>
   <g id="matplotlib.axis_1">
    <g id="xtick_1">
     <g id="line2d_1">
      <defs>
       <path id="mbcfe8ca68d" d="M 0 0 
L 0 3.5 
" style="stroke: #000000; stroke-width: 0.8"/>
      </defs>
      <g>
       <use xlink:href="#mbcfe8ca68d" x="89.129331" y="279.911489" style="stroke: #000000; stroke-width: 0.8"/>
      </g>
     </g>
     <g id="text_1">
      <!-- 3 -->
      <g transform="translate(85.948081 294.509927) scale(0.1 -0.1)">
       <defs>
        <path id="DejaVuSans-33" d="M 2597 2516 
Q 3050 2419 3304 2112 
Q 3559 1806 3559 1356 
Q 3559 666 3084 287 
Q 2609 -91 1734 -91 
Q 1441 -91 1130 -33 
Q 819 25 488 141 
L 488 750 
Q 750 597 1062 519 
Q 1375 441 1716 441 
Q 2309 441 2620 675 
Q 2931 909 2931 1356 
Q 2931 1769 2642 2001 
Q 2353 2234 1838 2234 
L 1294 2234 
L 1294 2753 
L 1863 2753 
Q 2328 2753 2575 2939 
Q 2822 3125 2822 3475 
Q 2822 3834 2567 4026 
Q 2313 4219 1838 4219 
Q 1578 4219 1281 4162 
Q 984 4106 628 3988 
L 628 4550 
Q 988 4650 1302 4700 
Q 1616 4750 1894 4750 
Q 2613 4750 3031 4423 
Q 3450 4097 3450 3541 
Q 3450 3153 3228 2886 
Q 3006 2619 2597 2516 
z
" transform="scale(0.015625)"/>
       </defs>
       <use xlink:href="#DejaVuSans-33"/>
      </g>
     </g>
    </g>
    <g id="xtick_2">
     <g id="line2d_2">
      <g>
       <use xlink:href="#mbcfe8ca68d" x="105.878902" y="279.911489" style="stroke: #000000; stroke-width: 0.8"/>
      </g>
     </g>
     <g id="text_2">
      <!-- 4 -->
      <g transform="translate(102.697652 294.509927) scale(0.1 -0.1)">
       <defs>
        <path id="DejaVuSans-34" d="M 2419 4116 
L 825 1625 
L 2419 1625 
L 2419 4116 
z
M 2253 4666 
L 3047 4666 
L 3047 1625 
L 3713 1625 
L 3713 1100 
L 3047 1100 
L 3047 0 
L 2419 0 
L 2419 1100 
L 313 1100 
L 313 1709 
L 2253 4666 
z
" transform="scale(0.015625)"/>
       </defs>
       <use xlink:href="#DejaVuSans-34"/>
      </g>
     </g>
    </g>
    <g id="xtick_3">
     <g id="line2d_3">
      <g>
       <use xlink:href="#mbcfe8ca68d" x="122.628473" y="279.911489" style="stroke: #000000; stroke-width: 0.8"/>
      </g>
     </g>
     <g id="text_3">
      <!-- 5 -->
      <g transform="translate(119.447223 294.509927) scale(0.1 -0.1)">
       <defs>
        <path id="DejaVuSans-35" d="M 691 4666 
L 3169 4666 
L 3169 4134 
L 1269 4134 
L 1269 2991 
Q 1406 3038 1543 3061 
Q 1681 3084 1819 3084 
Q 2600 3084 3056 2656 
Q 3513 2228 3513 1497 
Q 3513 744 3044 326 
Q 2575 -91 1722 -91 
Q 1428 -91 1123 -41 
Q 819 9 494 109 
L 494 744 
Q 775 591 1075 516 
Q 1375 441 1709 441 
Q 2250 441 2565 725 
Q 2881 1009 2881 1497 
Q 2881 1984 2565 2268 
Q 2250 2553 1709 2553 
Q 1456 2553 1204 2497 
Q 953 2441 691 2322 
L 691 4666 
z
" transform="scale(0.015625)"/>
       </defs>
       <use xlink:href="#DejaVuSans-35"/>
      </g>
     </g>
    </g>
    <g id="xtick_4">
     <g id="line2d_4">
      <g>
       <use xlink:href="#mbcfe8ca68d" x="139.378045" y="279.911489" style="stroke: #000000; stroke-width: 0.8"/>
      </g>
     </g>
     <g id="text_4">
      <!-- 6 -->
      <g transform="translate(136.196795 294.509927) scale(0.1 -0.1)">
       <defs>
        <path id="DejaVuSans-36" d="M 2113 2584 
Q 1688 2584 1439 2293 
Q 1191 2003 1191 1497 
Q 1191 994 1439 701 
Q 1688 409 2113 409 
Q 2538 409 2786 701 
Q 3034 994 3034 1497 
Q 3034 2003 2786 2293 
Q 2538 2584 2113 2584 
z
M 3366 4563 
L 3366 3988 
Q 3128 4100 2886 4159 
Q 2644 4219 2406 4219 
Q 1781 4219 1451 3797 
Q 1122 3375 1075 2522 
Q 1259 2794 1537 2939 
Q 1816 3084 2150 3084 
Q 2853 3084 3261 2657 
Q 3669 2231 3669 1497 
Q 3669 778 3244 343 
Q 2819 -91 2113 -91 
Q 1303 -91 875 529 
Q 447 1150 447 2328 
Q 447 3434 972 4092 
Q 1497 4750 2381 4750 
Q 2619 4750 2861 4703 
Q 3103 4656 3366 4563 
z
" transform="scale(0.015625)"/>
       </defs>
       <use xlink:href="#DejaVuSans-36"/>
      </g>
     </g>
    </g>
    <g id="xtick_5">
     <g id="line2d_5">
      <g>
       <use xlink:href="#mbcfe8ca68d" x="156.127616" y="279.911489" style="stroke: #000000; stroke-width: 0.8"/>
      </g>
     </g>
     <g id="text_5">
      <!-- 7 -->
      <g transform="translate(152.946366 294.509927) scale(0.1 -0.1)">
       <defs>
        <path id="DejaVuSans-37" d="M 525 4666 
L 3525 4666 
L 3525 4397 
L 1831 0 
L 1172 0 
L 2766 4134 
L 525 4134 
L 525 4666 
z
" transform="scale(0.015625)"/>
       </defs>
       <use xlink:href="#DejaVuSans-37"/>
      </g>
     </g>
    </g>
    <g id="xtick_6">
     <g id="line2d_6">
      <g>
       <use xlink:href="#mbcfe8ca68d" x="172.877187" y="279.911489" style="stroke: #000000; stroke-width: 0.8"/>
      </g>
     </g>
     <g id="text_6">
      <!-- 8 -->
      <g transform="translate(169.695937 294.509927) scale(0.1 -0.1)">
       <defs>
        <path id="DejaVuSans-38" d="M 2034 2216 
Q 1584 2216 1326 1975 
Q 1069 1734 1069 1313 
Q 1069 891 1326 650 
Q 1584 409 2034 409 
Q 2484 409 2743 651 
Q 3003 894 3003 1313 
Q 3003 1734 2745 1975 
Q 2488 2216 2034 2216 
z
M 1403 2484 
Q 997 2584 770 2862 
Q 544 3141 544 3541 
Q 544 4100 942 4425 
Q 1341 4750 2034 4750 
Q 2731 4750 3128 4425 
Q 3525 4100 3525 3541 
Q 3525 3141 3298 2862 
Q 3072 2584 2669 2484 
Q 3125 2378 3379 2068 
Q 3634 1759 3634 1313 
Q 3634 634 3220 271 
Q 2806 -91 2034 -91 
Q 1263 -91 848 271 
Q 434 634 434 1313 
Q 434 1759 690 2068 
Q 947 2378 1403 2484 
z
M 1172 3481 
Q 1172 3119 1398 2916 
Q 1625 2713 2034 2713 
Q 2441 2713 2670 2916 
Q 2900 3119 2900 3481 
Q 2900 3844 2670 4047 
Q 2441 4250 2034 4250 
Q 1625 4250 1398 4047 
Q 1172 3844 1172 3481 
z
" transform="scale(0.015625)"/>
       </defs>
       <use xlink:href="#DejaVuSans-38"/>
      </g>
     </g>
    </g>
    <g id="xtick_7">
     <g id="line2d_7">
      <g>
       <use xlink:href="#mbcfe8ca68d" x="189.626758" y="279.911489" style="stroke: #000000; stroke-width: 0.8"/>
      </g>
     </g>
     <g id="text_7">
      <!-- 9 -->
      <g transform="translate(186.445508 294.509927) scale(0.1 -0.1)">
       <defs>
        <path id="DejaVuSans-39" d="M 703 97 
L 703 672 
Q 941 559 1184 500 
Q 1428 441 1663 441 
Q 2288 441 2617 861 
Q 2947 1281 2994 2138 
Q 2813 1869 2534 1725 
Q 2256 1581 1919 1581 
Q 1219 1581 811 2004 
Q 403 2428 403 3163 
Q 403 3881 828 4315 
Q 1253 4750 1959 4750 
Q 2769 4750 3195 4129 
Q 3622 3509 3622 2328 
Q 3622 1225 3098 567 
Q 2575 -91 1691 -91 
Q 1453 -91 1209 -44 
Q 966 3 703 97 
z
M 1959 2075 
Q 2384 2075 2632 2365 
Q 2881 2656 2881 3163 
Q 2881 3666 2632 3958 
Q 2384 4250 1959 4250 
Q 1534 4250 1286 3958 
Q 1038 3666 1038 3163 
Q 1038 2656 1286 2365 
Q 1534 2075 1959 2075 
z
" transform="scale(0.015625)"/>
       </defs>
       <use xlink:href="#DejaVuSans-39"/>
      </g>
     </g>
    </g>
    <g id="xtick_8">
     <g id="line2d_8">
      <g>
       <use xlink:href="#mbcfe8ca68d" x="206.376329" y="279.911489" style="stroke: #000000; stroke-width: 0.8"/>
      </g>
     </g>
     <g id="text_8">
      <!-- 10 -->
      <g transform="translate(200.013829 294.509927) scale(0.1 -0.1)">
       <defs>
        <path id="DejaVuSans-31" d="M 794 531 
L 1825 531 
L 1825 4091 
L 703 3866 
L 703 4441 
L 1819 4666 
L 2450 4666 
L 2450 531 
L 3481 531 
L 3481 0 
L 794 0 
L 794 531 
z
" transform="scale(0.015625)"/>
        <path id="DejaVuSans-30" d="M 2034 4250 
Q 1547 4250 1301 3770 
Q 1056 3291 1056 2328 
Q 1056 1369 1301 889 
Q 1547 409 2034 409 
Q 2525 409 2770 889 
Q 3016 1369 3016 2328 
Q 3016 3291 2770 3770 
Q 2525 4250 2034 4250 
z
M 2034 4750 
Q 2819 4750 3233 4129 
Q 3647 3509 3647 2328 
Q 3647 1150 3233 529 
Q 2819 -91 2034 -91 
Q 1250 -91 836 529 
Q 422 1150 422 2328 
Q 422 3509 836 4129 
Q 1250 4750 2034 4750 
z
" transform="scale(0.015625)"/>
       </defs>
       <use xlink:href="#DejaVuSans-31"/>
       <use xlink:href="#DejaVuSans-30" x="63.623047"/>
      </g>
     </g>
    </g>
    <g id="xtick_9">
     <g id="line2d_9">
      <g>
       <use xlink:href="#mbcfe8ca68d" x="223.125901" y="279.911489" style="stroke: #000000; stroke-width: 0.8"/>
      </g>
     </g>
     <g id="text_9">
      <!-- 11 -->
      <g transform="translate(216.763401 294.509927) scale(0.1 -0.1)">
       <use xlink:href="#DejaVuSans-31"/>
       <use xlink:href="#DejaVuSans-31" x="63.623047"/>
      </g>
     </g>
    </g>
    <g id="xtick_10">
     <g id="line2d_10">
      <g>
       <use xlink:href="#mbcfe8ca68d" x="239.875472" y="279.911489" style="stroke: #000000; stroke-width: 0.8"/>
      </g>
     </g>
     <g id="text_10">
      <!-- 12 -->
      <g transform="translate(233.512972 294.509927) scale(0.1 -0.1)">
       <defs>
        <path id="DejaVuSans-32" d="M 1228 531 
L 3431 531 
L 3431 0 
L 469 0 
L 469 531 
Q 828 903 1448 1529 
Q 2069 2156 2228 2338 
Q 2531 2678 2651 2914 
Q 2772 3150 2772 3378 
Q 2772 3750 2511 3984 
Q 2250 4219 1831 4219 
Q 1534 4219 1204 4116 
Q 875 4013 500 3803 
L 500 4441 
Q 881 4594 1212 4672 
Q 1544 4750 1819 4750 
Q 2544 4750 2975 4387 
Q 3406 4025 3406 3419 
Q 3406 3131 3298 2873 
Q 3191 2616 2906 2266 
Q 2828 2175 2409 1742 
Q 1991 1309 1228 531 
z
" transform="scale(0.015625)"/>
       </defs>
       <use xlink:href="#DejaVuSans-31"/>
       <use xlink:href="#DejaVuSans-32" x="63.623047"/>
      </g>
     </g>
    </g>
    <g id="xtick_11">
     <g id="line2d_11">
      <g>
       <use xlink:href="#mbcfe8ca68d" x="256.625043" y="279.911489" style="stroke: #000000; stroke-width: 0.8"/>
      </g>
     </g>
     <g id="text_11">
      <!-- 13 -->
      <g transform="translate(250.262543 294.509927) scale(0.1 -0.1)">
       <use xlink:href="#DejaVuSans-31"/>
       <use xlink:href="#DejaVuSans-33" x="63.623047"/>
      </g>
     </g>
    </g>
    <g id="xtick_12">
     <g id="line2d_12">
      <g>
       <use xlink:href="#mbcfe8ca68d" x="273.374614" y="279.911489" style="stroke: #000000; stroke-width: 0.8"/>
      </g>
     </g>
     <g id="text_12">
      <!-- 14 -->
      <g transform="translate(267.012114 294.509927) scale(0.1 -0.1)">
       <use xlink:href="#DejaVuSans-31"/>
       <use xlink:href="#DejaVuSans-34" x="63.623047"/>
      </g>
     </g>
    </g>
    <g id="xtick_13">
     <g id="line2d_13">
      <g>
       <use xlink:href="#mbcfe8ca68d" x="290.124185" y="279.911489" style="stroke: #000000; stroke-width: 0.8"/>
      </g>
     </g>
     <g id="text_13">
      <!-- 15 -->
      <g transform="translate(283.761685 294.509927) scale(0.1 -0.1)">
       <use xlink:href="#DejaVuSans-31"/>
       <use xlink:href="#DejaVuSans-35" x="63.623047"/>
      </g>
     </g>
    </g>
    <g id="xtick_14">
     <g id="line2d_14">
      <g>
       <use xlink:href="#mbcfe8ca68d" x="306.873756" y="279.911489" style="stroke: #000000; stroke-width: 0.8"/>
      </g>
     </g>
     <g id="text_14">
      <!-- 16 -->
      <g transform="translate(300.511256 294.509927) scale(0.1 -0.1)">
       <use xlink:href="#DejaVuSans-31"/>
       <use xlink:href="#DejaVuSans-36" x="63.623047"/>
      </g>
     </g>
    </g>
    <g id="xtick_15">
     <g id="line2d_15">
      <g>
       <use xlink:href="#mbcfe8ca68d" x="323.623328" y="279.911489" style="stroke: #000000; stroke-width: 0.8"/>
      </g>
     </g>
     <g id="text_15">
      <!-- 17 -->
      <g transform="translate(317.260828 294.509927) scale(0.1 -0.1)">
       <use xlink:href="#DejaVuSans-31"/>
       <use xlink:href="#DejaVuSans-37" x="63.623047"/>
      </g>
     </g>
    </g>
    <g id="xtick_16">
     <g id="line2d_16">
      <g>
       <use xlink:href="#mbcfe8ca68d" x="340.372899" y="279.911489" style="stroke: #000000; stroke-width: 0.8"/>
      </g>
     </g>
     <g id="text_16">
      <!-- 18 -->
      <g transform="translate(334.010399 294.509927) scale(0.1 -0.1)">
       <use xlink:href="#DejaVuSans-31"/>
       <use xlink:href="#DejaVuSans-38" x="63.623047"/>
      </g>
     </g>
    </g>
    <g id="xtick_17">
     <g id="line2d_17">
      <g>
       <use xlink:href="#mbcfe8ca68d" x="357.12247" y="279.911489" style="stroke: #000000; stroke-width: 0.8"/>
      </g>
     </g>
     <g id="text_17">
      <!-- 19 -->
      <g transform="translate(350.75997 294.509927) scale(0.1 -0.1)">
       <use xlink:href="#DejaVuSans-31"/>
       <use xlink:href="#DejaVuSans-39" x="63.623047"/>
      </g>
     </g>
    </g>
    <g id="xtick_18">
     <g id="line2d_18">
      <g>
       <use xlink:href="#mbcfe8ca68d" x="373.872041" y="279.911489" style="stroke: #000000; stroke-width: 0.8"/>
      </g>
     </g>
     <g id="text_18">
      <!-- 20 -->
      <g transform="translate(367.509541 294.509927) scale(0.1 -0.1)">
       <use xlink:href="#DejaVuSans-32"/>
       <use xlink:href="#DejaVuSans-30" x="63.623047"/>
      </g>
     </g>
    </g>
    <g id="xtick_19">
     <g id="line2d_19">
      <g>
       <use xlink:href="#mbcfe8ca68d" x="390.621612" y="279.911489" style="stroke: #000000; stroke-width: 0.8"/>
      </g>
     </g>
     <g id="text_19">
      <!-- 21 -->
      <g transform="translate(384.259112 294.509927) scale(0.1 -0.1)">
       <use xlink:href="#DejaVuSans-32"/>
       <use xlink:href="#DejaVuSans-31" x="63.623047"/>
      </g>
     </g>
    </g>
    <g id="xtick_20">
     <g id="line2d_20">
      <g>
       <use xlink:href="#mbcfe8ca68d" x="407.371184" y="279.911489" style="stroke: #000000; stroke-width: 0.8"/>
      </g>
     </g>
     <g id="text_20">
      <!-- 22 -->
      <g transform="translate(401.008684 294.509927) scale(0.1 -0.1)">
       <use xlink:href="#DejaVuSans-32"/>
       <use xlink:href="#DejaVuSans-32" x="63.623047"/>
      </g>
     </g>
    </g>
    <g id="xtick_21">
     <g id="line2d_21">
      <g>
       <use xlink:href="#mbcfe8ca68d" x="424.120755" y="279.911489" style="stroke: #000000; stroke-width: 0.8"/>
      </g>
     </g>
     <g id="text_21">
      <!-- 23 -->
      <g transform="translate(417.758255 294.509927) scale(0.1 -0.1)">
       <use xlink:href="#DejaVuSans-32"/>
       <use xlink:href="#DejaVuSans-33" x="63.623047"/>
      </g>
     </g>
    </g>
    <g id="xtick_22">
     <g id="line2d_22">
      <g>
       <use xlink:href="#mbcfe8ca68d" x="440.870326" y="279.911489" style="stroke: #000000; stroke-width: 0.8"/>
      </g>
     </g>
     <g id="text_22">
      <!-- 24 -->
      <g transform="translate(434.507826 294.509927) scale(0.1 -0.1)">
       <use xlink:href="#DejaVuSans-32"/>
       <use xlink:href="#DejaVuSans-34" x="63.623047"/>
      </g>
     </g>
    </g>
    <g id="text_23">
     <!-- Number of Gaussian components -->
     <g transform="translate(174.797656 308.188052) scale(0.1 -0.1)">
      <defs>
       <path id="DejaVuSans-4e" d="M 628 4666 
L 1478 4666 
L 3547 763 
L 3547 4666 
L 4159 4666 
L 4159 0 
L 3309 0 
L 1241 3903 
L 1241 0 
L 628 0 
L 628 4666 
z
" transform="scale(0.015625)"/>
       <path id="DejaVuSans-75" d="M 544 1381 
L 544 3500 
L 1119 3500 
L 1119 1403 
Q 1119 906 1312 657 
Q 1506 409 1894 409 
Q 2359 409 2629 706 
Q 2900 1003 2900 1516 
L 2900 3500 
L 3475 3500 
L 3475 0 
L 2900 0 
L 2900 538 
Q 2691 219 2414 64 
Q 2138 -91 1772 -91 
Q 1169 -91 856 284 
Q 544 659 544 1381 
z
M 1991 3584 
L 1991 3584 
z
" transform="scale(0.015625)"/>
       <path id="DejaVuSans-6d" d="M 3328 2828 
Q 3544 3216 3844 3400 
Q 4144 3584 4550 3584 
Q 5097 3584 5394 3201 
Q 5691 2819 5691 2113 
L 5691 0 
L 5113 0 
L 5113 2094 
Q 5113 2597 4934 2840 
Q 4756 3084 4391 3084 
Q 3944 3084 3684 2787 
Q 3425 2491 3425 1978 
L 3425 0 
L 2847 0 
L 2847 2094 
Q 2847 2600 2669 2842 
Q 2491 3084 2119 3084 
Q 1678 3084 1418 2786 
Q 1159 2488 1159 1978 
L 1159 0 
L 581 0 
L 581 3500 
L 1159 3500 
L 1159 2956 
Q 1356 3278 1631 3431 
Q 1906 3584 2284 3584 
Q 2666 3584 2933 3390 
Q 3200 3197 3328 2828 
z
" transform="scale(0.015625)"/>
       <path id="DejaVuSans-62" d="M 3116 1747 
Q 3116 2381 2855 2742 
Q 2594 3103 2138 3103 
Q 1681 3103 1420 2742 
Q 1159 2381 1159 1747 
Q 1159 1113 1420 752 
Q 1681 391 2138 391 
Q 2594 391 2855 752 
Q 3116 1113 3116 1747 
z
M 1159 2969 
Q 1341 3281 1617 3432 
Q 1894 3584 2278 3584 
Q 2916 3584 3314 3078 
Q 3713 2572 3713 1747 
Q 3713 922 3314 415 
Q 2916 -91 2278 -91 
Q 1894 -91 1617 61 
Q 1341 213 1159 525 
L 1159 0 
L 581 0 
L 581 4863 
L 1159 4863 
L 1159 2969 
z
" transform="scale(0.015625)"/>
       <path id="DejaVuSans-65" d="M 3597 1894 
L 3597 1613 
L 953 1613 
Q 991 1019 1311 708 
Q 1631 397 2203 397 
Q 2534 397 2845 478 
Q 3156 559 3463 722 
L 3463 178 
Q 3153 47 2828 -22 
Q 2503 -91 2169 -91 
Q 1331 -91 842 396 
Q 353 884 353 1716 
Q 353 2575 817 3079 
Q 1281 3584 2069 3584 
Q 2775 3584 3186 3129 
Q 3597 2675 3597 1894 
z
M 3022 2063 
Q 3016 2534 2758 2815 
Q 2500 3097 2075 3097 
Q 1594 3097 1305 2825 
Q 1016 2553 972 2059 
L 3022 2063 
z
" transform="scale(0.015625)"/>
       <path id="DejaVuSans-72" d="M 2631 2963 
Q 2534 3019 2420 3045 
Q 2306 3072 2169 3072 
Q 1681 3072 1420 2755 
Q 1159 2438 1159 1844 
L 1159 0 
L 581 0 
L 581 3500 
L 1159 3500 
L 1159 2956 
Q 1341 3275 1631 3429 
Q 1922 3584 2338 3584 
Q 2397 3584 2469 3576 
Q 2541 3569 2628 3553 
L 2631 2963 
z
" transform="scale(0.015625)"/>
       <path id="DejaVuSans-20" transform="scale(0.015625)"/>
       <path id="DejaVuSans-6f" d="M 1959 3097 
Q 1497 3097 1228 2736 
Q 959 2375 959 1747 
Q 959 1119 1226 758 
Q 1494 397 1959 397 
Q 2419 397 2687 759 
Q 2956 1122 2956 1747 
Q 2956 2369 2687 2733 
Q 2419 3097 1959 3097 
z
M 1959 3584 
Q 2709 3584 3137 3096 
Q 3566 2609 3566 1747 
Q 3566 888 3137 398 
Q 2709 -91 1959 -91 
Q 1206 -91 779 398 
Q 353 888 353 1747 
Q 353 2609 779 3096 
Q 1206 3584 1959 3584 
z
" transform="scale(0.015625)"/>
       <path id="DejaVuSans-66" d="M 2375 4863 
L 2375 4384 
L 1825 4384 
Q 1516 4384 1395 4259 
Q 1275 4134 1275 3809 
L 1275 3500 
L 2222 3500 
L 2222 3053 
L 1275 3053 
L 1275 0 
L 697 0 
L 697 3053 
L 147 3053 
L 147 3500 
L 697 3500 
L 697 3744 
Q 697 4328 969 4595 
Q 1241 4863 1831 4863 
L 2375 4863 
z
" transform="scale(0.015625)"/>
       <path id="DejaVuSans-47" d="M 3809 666 
L 3809 1919 
L 2778 1919 
L 2778 2438 
L 4434 2438 
L 4434 434 
Q 4069 175 3628 42 
Q 3188 -91 2688 -91 
Q 1594 -91 976 548 
Q 359 1188 359 2328 
Q 359 3472 976 4111 
Q 1594 4750 2688 4750 
Q 3144 4750 3555 4637 
Q 3966 4525 4313 4306 
L 4313 3634 
Q 3963 3931 3569 4081 
Q 3175 4231 2741 4231 
Q 1884 4231 1454 3753 
Q 1025 3275 1025 2328 
Q 1025 1384 1454 906 
Q 1884 428 2741 428 
Q 3075 428 3337 486 
Q 3600 544 3809 666 
z
" transform="scale(0.015625)"/>
       <path id="DejaVuSans-61" d="M 2194 1759 
Q 1497 1759 1228 1600 
Q 959 1441 959 1056 
Q 959 750 1161 570 
Q 1363 391 1709 391 
Q 2188 391 2477 730 
Q 2766 1069 2766 1631 
L 2766 1759 
L 2194 1759 
z
M 3341 1997 
L 3341 0 
L 2766 0 
L 2766 531 
Q 2569 213 2275 61 
Q 1981 -91 1556 -91 
Q 1019 -91 701 211 
Q 384 513 384 1019 
Q 384 1609 779 1909 
Q 1175 2209 1959 2209 
L 2766 2209 
L 2766 2266 
Q 2766 2663 2505 2880 
Q 2244 3097 1772 3097 
Q 1472 3097 1187 3025 
Q 903 2953 641 2809 
L 641 3341 
Q 956 3463 1253 3523 
Q 1550 3584 1831 3584 
Q 2591 3584 2966 3190 
Q 3341 2797 3341 1997 
z
" transform="scale(0.015625)"/>
       <path id="DejaVuSans-73" d="M 2834 3397 
L 2834 2853 
Q 2591 2978 2328 3040 
Q 2066 3103 1784 3103 
Q 1356 3103 1142 2972 
Q 928 2841 928 2578 
Q 928 2378 1081 2264 
Q 1234 2150 1697 2047 
L 1894 2003 
Q 2506 1872 2764 1633 
Q 3022 1394 3022 966 
Q 3022 478 2636 193 
Q 2250 -91 1575 -91 
Q 1294 -91 989 -36 
Q 684 19 347 128 
L 347 722 
Q 666 556 975 473 
Q 1284 391 1588 391 
Q 1994 391 2212 530 
Q 2431 669 2431 922 
Q 2431 1156 2273 1281 
Q 2116 1406 1581 1522 
L 1381 1569 
Q 847 1681 609 1914 
Q 372 2147 372 2553 
Q 372 3047 722 3315 
Q 1072 3584 1716 3584 
Q 2034 3584 2315 3537 
Q 2597 3491 2834 3397 
z
" transform="scale(0.015625)"/>
       <path id="DejaVuSans-69" d="M 603 3500 
L 1178 3500 
L 1178 0 
L 603 0 
L 603 3500 
z
M 603 4863 
L 1178 4863 
L 1178 4134 
L 603 4134 
L 603 4863 
z
" transform="scale(0.015625)"/>
       <path id="DejaVuSans-6e" d="M 3513 2113 
L 3513 0 
L 2938 0 
L 2938 2094 
Q 2938 2591 2744 2837 
Q 2550 3084 2163 3084 
Q 1697 3084 1428 2787 
Q 1159 2491 1159 1978 
L 1159 0 
L 581 0 
L 581 3500 
L 1159 3500 
L 1159 2956 
Q 1366 3272 1645 3428 
Q 1925 3584 2291 3584 
Q 2894 3584 3203 3211 
Q 3513 2838 3513 2113 
z
" transform="scale(0.015625)"/>
       <path id="DejaVuSans-63" d="M 3122 3366 
L 3122 2828 
Q 2878 2963 2633 3030 
Q 2388 3097 2138 3097 
Q 1578 3097 1268 2742 
Q 959 2388 959 1747 
Q 959 1106 1268 751 
Q 1578 397 2138 397 
Q 2388 397 2633 464 
Q 2878 531 3122 666 
L 3122 134 
Q 2881 22 2623 -34 
Q 2366 -91 2075 -91 
Q 1284 -91 818 406 
Q 353 903 353 1747 
Q 353 2603 823 3093 
Q 1294 3584 2113 3584 
Q 2378 3584 2631 3529 
Q 2884 3475 3122 3366 
z
" transform="scale(0.015625)"/>
       <path id="DejaVuSans-70" d="M 1159 525 
L 1159 -1331 
L 581 -1331 
L 581 3500 
L 1159 3500 
L 1159 2969 
Q 1341 3281 1617 3432 
Q 1894 3584 2278 3584 
Q 2916 3584 3314 3078 
Q 3713 2572 3713 1747 
Q 3713 922 3314 415 
Q 2916 -91 2278 -91 
Q 1894 -91 1617 61 
Q 1341 213 1159 525 
z
M 3116 1747 
Q 3116 2381 2855 2742 
Q 2594 3103 2138 3103 
Q 1681 3103 1420 2742 
Q 1159 2381 1159 1747 
Q 1159 1113 1420 752 
Q 1681 391 2138 391 
Q 2594 391 2855 752 
Q 3116 1113 3116 1747 
z
" transform="scale(0.015625)"/>
       <path id="DejaVuSans-74" d="M 1172 4494 
L 1172 3500 
L 2356 3500 
L 2356 3053 
L 1172 3053 
L 1172 1153 
Q 1172 725 1289 603 
Q 1406 481 1766 481 
L 2356 481 
L 2356 0 
L 1766 0 
Q 1100 0 847 248 
Q 594 497 594 1153 
L 594 3053 
L 172 3053 
L 172 3500 
L 594 3500 
L 594 4494 
L 1172 4494 
z
" transform="scale(0.015625)"/>
      </defs>
      <use xlink:href="#DejaVuSans-4e"/>
      <use xlink:href="#DejaVuSans-75" x="74.804688"/>
      <use xlink:href="#DejaVuSans-6d" x="138.183594"/>
      <use xlink:href="#DejaVuSans-62" x="235.595703"/>
      <use xlink:href="#DejaVuSans-65" x="299.072266"/>
      <use xlink:href="#DejaVuSans-72" x="360.595703"/>
      <use xlink:href="#DejaVuSans-20" x="401.708984"/>
      <use xlink:href="#DejaVuSans-6f" x="433.496094"/>
      <use xlink:href="#DejaVuSans-66" x="494.677734"/>
      <use xlink:href="#DejaVuSans-20" x="529.882812"/>
      <use xlink:href="#DejaVuSans-47" x="561.669922"/>
      <use xlink:href="#DejaVuSans-61" x="639.160156"/>
      <use xlink:href="#DejaVuSans-75" x="700.439453"/>
      <use xlink:href="#DejaVuSans-73" x="763.818359"/>
      <use xlink:href="#DejaVuSans-73" x="815.917969"/>
      <use xlink:href="#DejaVuSans-69" x="868.017578"/>
      <use xlink:href="#DejaVuSans-61" x="895.800781"/>
      <use xlink:href="#DejaVuSans-6e" x="957.080078"/>
      <use xlink:href="#DejaVuSans-20" x="1020.458984"/>
      <use xlink:href="#DejaVuSans-63" x="1052.246094"/>
      <use xlink:href="#DejaVuSans-6f" x="1107.226562"/>
      <use xlink:href="#DejaVuSans-6d" x="1168.408203"/>
      <use xlink:href="#DejaVuSans-70" x="1265.820312"/>
      <use xlink:href="#DejaVuSans-6f" x="1329.296875"/>
      <use xlink:href="#DejaVuSans-6e" x="1390.478516"/>
      <use xlink:href="#DejaVuSans-65" x="1453.857422"/>
      <use xlink:href="#DejaVuSans-6e" x="1515.380859"/>
      <use xlink:href="#DejaVuSans-74" x="1578.759766"/>
      <use xlink:href="#DejaVuSans-73" x="1617.96875"/>
     </g>
    </g>
   </g>
   <g id="matplotlib.axis_2">
    <g id="ytick_1">
     <g id="line2d_23">
      <defs>
       <path id="m9c95e308dd" d="M 0 0 
L -3.5 0 
" style="stroke: #000000; stroke-width: 0.8"/>
      </defs>
      <g>
       <use xlink:href="#m9c95e308dd" x="63" y="258.211474" style="stroke: #000000; stroke-width: 0.8"/>
      </g>
     </g>
     <g id="text_24">
      <!-- 300 -->
      <g transform="translate(36.9125 262.010692) scale(0.1 -0.1)">
       <use xlink:href="#DejaVuSans-33"/>
       <use xlink:href="#DejaVuSans-30" x="63.623047"/>
       <use xlink:href="#DejaVuSans-30" x="127.246094"/>
      </g>
     </g>
    </g>
    <g id="ytick_2">
     <g id="line2d_24">
      <g>
       <use xlink:href="#m9c95e308dd" x="63" y="227.857993" style="stroke: #000000; stroke-width: 0.8"/>
      </g>
     </g>
     <g id="text_25">
      <!-- 400 -->
      <g transform="translate(36.9125 231.657212) scale(0.1 -0.1)">
       <use xlink:href="#DejaVuSans-34"/>
       <use xlink:href="#DejaVuSans-30" x="63.623047"/>
       <use xlink:href="#DejaVuSans-30" x="127.246094"/>
      </g>
     </g>
    </g>
    <g id="ytick_3">
     <g id="line2d_25">
      <g>
       <use xlink:href="#m9c95e308dd" x="63" y="197.504513" style="stroke: #000000; stroke-width: 0.8"/>
      </g>
     </g>
     <g id="text_26">
      <!-- 500 -->
      <g transform="translate(36.9125 201.303731) scale(0.1 -0.1)">
       <use xlink:href="#DejaVuSans-35"/>
       <use xlink:href="#DejaVuSans-30" x="63.623047"/>
       <use xlink:href="#DejaVuSans-30" x="127.246094"/>
      </g>
     </g>
    </g>
    <g id="ytick_4">
     <g id="line2d_26">
      <g>
       <use xlink:href="#m9c95e308dd" x="63" y="167.151032" style="stroke: #000000; stroke-width: 0.8"/>
      </g>
     </g>
     <g id="text_27">
      <!-- 600 -->
      <g transform="translate(36.9125 170.950251) scale(0.1 -0.1)">
       <use xlink:href="#DejaVuSans-36"/>
       <use xlink:href="#DejaVuSans-30" x="63.623047"/>
       <use xlink:href="#DejaVuSans-30" x="127.246094"/>
      </g>
     </g>
    </g>
    <g id="ytick_5">
     <g id="line2d_27">
      <g>
       <use xlink:href="#m9c95e308dd" x="63" y="136.797552" style="stroke: #000000; stroke-width: 0.8"/>
      </g>
     </g>
     <g id="text_28">
      <!-- 700 -->
      <g transform="translate(36.9125 140.59677) scale(0.1 -0.1)">
       <use xlink:href="#DejaVuSans-37"/>
       <use xlink:href="#DejaVuSans-30" x="63.623047"/>
       <use xlink:href="#DejaVuSans-30" x="127.246094"/>
      </g>
     </g>
    </g>
    <g id="ytick_6">
     <g id="line2d_28">
      <g>
       <use xlink:href="#m9c95e308dd" x="63" y="106.444071" style="stroke: #000000; stroke-width: 0.8"/>
      </g>
     </g>
     <g id="text_29">
      <!-- 800 -->
      <g transform="translate(36.9125 110.24329) scale(0.1 -0.1)">
       <use xlink:href="#DejaVuSans-38"/>
       <use xlink:href="#DejaVuSans-30" x="63.623047"/>
       <use xlink:href="#DejaVuSans-30" x="127.246094"/>
      </g>
     </g>
    </g>
    <g id="ytick_7">
     <g id="line2d_29">
      <g>
       <use xlink:href="#m9c95e308dd" x="63" y="76.09059" style="stroke: #000000; stroke-width: 0.8"/>
      </g>
     </g>
     <g id="text_30">
      <!-- 900 -->
      <g transform="translate(36.9125 79.889809) scale(0.1 -0.1)">
       <use xlink:href="#DejaVuSans-39"/>
       <use xlink:href="#DejaVuSans-30" x="63.623047"/>
       <use xlink:href="#DejaVuSans-30" x="127.246094"/>
      </g>
     </g>
    </g>
    <g id="text_31">
     <!-- BIC score -->
     <g transform="translate(30.832812 197.934495) rotate(-90) scale(0.1 -0.1)">
      <defs>
       <path id="DejaVuSans-42" d="M 1259 2228 
L 1259 519 
L 2272 519 
Q 2781 519 3026 730 
Q 3272 941 3272 1375 
Q 3272 1813 3026 2020 
Q 2781 2228 2272 2228 
L 1259 2228 
z
M 1259 4147 
L 1259 2741 
L 2194 2741 
Q 2656 2741 2882 2914 
Q 3109 3088 3109 3444 
Q 3109 3797 2882 3972 
Q 2656 4147 2194 4147 
L 1259 4147 
z
M 628 4666 
L 2241 4666 
Q 2963 4666 3353 4366 
Q 3744 4066 3744 3513 
Q 3744 3084 3544 2831 
Q 3344 2578 2956 2516 
Q 3422 2416 3680 2098 
Q 3938 1781 3938 1306 
Q 3938 681 3513 340 
Q 3088 0 2303 0 
L 628 0 
L 628 4666 
z
" transform="scale(0.015625)"/>
       <path id="DejaVuSans-49" d="M 628 4666 
L 1259 4666 
L 1259 0 
L 628 0 
L 628 4666 
z
" transform="scale(0.015625)"/>
       <path id="DejaVuSans-43" d="M 4122 4306 
L 4122 3641 
Q 3803 3938 3442 4084 
Q 3081 4231 2675 4231 
Q 1875 4231 1450 3742 
Q 1025 3253 1025 2328 
Q 1025 1406 1450 917 
Q 1875 428 2675 428 
Q 3081 428 3442 575 
Q 3803 722 4122 1019 
L 4122 359 
Q 3791 134 3420 21 
Q 3050 -91 2638 -91 
Q 1578 -91 968 557 
Q 359 1206 359 2328 
Q 359 3453 968 4101 
Q 1578 4750 2638 4750 
Q 3056 4750 3426 4639 
Q 3797 4528 4122 4306 
z
" transform="scale(0.015625)"/>
      </defs>
      <use xlink:href="#DejaVuSans-42"/>
      <use xlink:href="#DejaVuSans-49" x="68.603516"/>
      <use xlink:href="#DejaVuSans-43" x="98.095703"/>
      <use xlink:href="#DejaVuSans-20" x="167.919922"/>
      <use xlink:href="#DejaVuSans-73" x="199.707031"/>
      <use xlink:href="#DejaVuSans-63" x="251.806641"/>
      <use xlink:href="#DejaVuSans-6f" x="306.787109"/>
      <use xlink:href="#DejaVuSans-72" x="367.96875"/>
      <use xlink:href="#DejaVuSans-65" x="406.832031"/>
     </g>
    </g>
   </g>
   <g id="patch_25">
    <path d="M 63 279.911489 
L 63 69.12 
" style="fill: none; stroke: #000000; stroke-width: 0.8; stroke-linejoin: miter; stroke-linecap: square"/>
   </g>
   <g id="patch_26">
    <path d="M 453.6 279.911489 
L 453.6 69.12 
" style="fill: none; stroke: #000000; stroke-width: 0.8; stroke-linejoin: miter; stroke-linecap: square"/>
   </g>
   <g id="patch_27">
    <path d="M 63 279.911489 
L 453.6 279.911489 
" style="fill: none; stroke: #000000; stroke-width: 0.8; stroke-linejoin: miter; stroke-linecap: square"/>
   </g>
   <g id="patch_28">
    <path d="M 63 69.12 
L 453.6 69.12 
" style="fill: none; stroke: #000000; stroke-width: 0.8; stroke-linejoin: miter; stroke-linecap: square"/>
   </g>
   <g id="text_32">
    <!-- * -->
    <g transform="translate(150.265266 271.563312) scale(0.14 -0.14)">
     <defs>
      <path id="DejaVuSans-2a" d="M 3009 3897 
L 1888 3291 
L 3009 2681 
L 2828 2375 
L 1778 3009 
L 1778 1831 
L 1422 1831 
L 1422 3009 
L 372 2375 
L 191 2681 
L 1313 3291 
L 191 3897 
L 372 4206 
L 1422 3572 
L 1422 4750 
L 1778 4750 
L 1778 3572 
L 2828 4206 
L 3009 3897 
z
" transform="scale(0.015625)"/>
     </defs>
     <use xlink:href="#DejaVuSans-2a"/>
    </g>
   </g>
   <g id="text_33">
    <!-- BIC score per model -->
    <g transform="translate(197.732813 63.12) scale(0.12 -0.12)">
     <defs>
      <path id="DejaVuSans-64" d="M 2906 2969 
L 2906 4863 
L 3481 4863 
L 3481 0 
L 2906 0 
L 2906 525 
Q 2725 213 2448 61 
Q 2172 -91 1784 -91 
Q 1150 -91 751 415 
Q 353 922 353 1747 
Q 353 2572 751 3078 
Q 1150 3584 1784 3584 
Q 2172 3584 2448 3432 
Q 2725 3281 2906 2969 
z
M 947 1747 
Q 947 1113 1208 752 
Q 1469 391 1925 391 
Q 2381 391 2643 752 
Q 2906 1113 2906 1747 
Q 2906 2381 2643 2742 
Q 2381 3103 1925 3103 
Q 1469 3103 1208 2742 
Q 947 2381 947 1747 
z
" transform="scale(0.015625)"/>
      <path id="DejaVuSans-6c" d="M 603 4863 
L 1178 4863 
L 1178 0 
L 603 0 
L 603 4863 
z
" transform="scale(0.015625)"/>
     </defs>
     <use xlink:href="#DejaVuSans-42"/>
     <use xlink:href="#DejaVuSans-49" x="68.603516"/>
     <use xlink:href="#DejaVuSans-43" x="98.095703"/>
     <use xlink:href="#DejaVuSans-20" x="167.919922"/>
     <use xlink:href="#DejaVuSans-73" x="199.707031"/>
     <use xlink:href="#DejaVuSans-63" x="251.806641"/>
     <use xlink:href="#DejaVuSans-6f" x="306.787109"/>
     <use xlink:href="#DejaVuSans-72" x="367.96875"/>
     <use xlink:href="#DejaVuSans-65" x="406.832031"/>
     <use xlink:href="#DejaVuSans-20" x="468.355469"/>
     <use xlink:href="#DejaVuSans-70" x="500.142578"/>
     <use xlink:href="#DejaVuSans-65" x="563.619141"/>
     <use xlink:href="#DejaVuSans-72" x="625.142578"/>
     <use xlink:href="#DejaVuSans-20" x="666.255859"/>
     <use xlink:href="#DejaVuSans-6d" x="698.042969"/>
     <use xlink:href="#DejaVuSans-6f" x="795.455078"/>
     <use xlink:href="#DejaVuSans-64" x="856.636719"/>
     <use xlink:href="#DejaVuSans-65" x="920.113281"/>
     <use xlink:href="#DejaVuSans-6c" x="981.636719"/>
    </g>
   </g>
   <g id="legend_1">
    <g id="patch_29">
     <path d="M 399.185938 91.798125 
L 446.6 91.798125 
Q 448.6 91.798125 448.6 89.798125 
L 448.6 76.12 
Q 448.6 74.12 446.6 74.12 
L 399.185938 74.12 
Q 397.185938 74.12 397.185938 76.12 
L 397.185938 89.798125 
Q 397.185938 91.798125 399.185938 91.798125 
z
" style="fill: #ffffff; opacity: 0.8; stroke: #cccccc; stroke-linejoin: miter"/>
    </g>
    <g id="patch_30">
     <path d="M 401.185938 85.718438 
L 421.185938 85.718438 
L 421.185938 78.718438 
L 401.185938 78.718438 
z
" style="fill: #000080"/>
    </g>
    <g id="text_34">
     <!-- full -->
     <g transform="translate(429.185938 85.718438) scale(0.1 -0.1)">
      <use xlink:href="#DejaVuSans-66"/>
      <use xlink:href="#DejaVuSans-75" x="35.205078"/>
      <use xlink:href="#DejaVuSans-6c" x="98.583984"/>
      <use xlink:href="#DejaVuSans-6c" x="126.367188"/>
     </g>
    </g>
   </g>
  </g>
  <g id="axes_2">
   <g id="patch_31">
    <path d="M 63 564.48 
L 453.6 564.48 
L 453.6 353.688511 
L 63 353.688511 
z
" style="fill: #ffffff"/>
   </g>
   <g id="PathCollection_1">
    <defs>
     <path id="m381692597b" d="M 0 2.345208 
C 0.621956 2.345208 1.218523 2.098102 1.658312 1.658312 
C 2.098102 1.218523 2.345208 0.621956 2.345208 0 
C 2.345208 -0.621956 2.098102 -1.218523 1.658312 -1.658312 
C 1.218523 -2.098102 0.621956 -2.345208 0 -2.345208 
C -0.621956 -2.345208 -1.218523 -2.098102 -1.658312 -1.658312 
C -2.098102 -1.218523 -2.345208 -0.621956 -2.345208 0 
C -2.345208 0.621956 -2.098102 1.218523 -1.658312 1.658312 
C -1.218523 2.098102 -0.621956 2.345208 0 2.345208 
z
" style="stroke: #e6194b"/>
    </defs>
    <g clip-path="url(#p48590109ac)">
     <use xlink:href="#m381692597b" x="365.741341" y="440.990003" style="fill: #e6194b; stroke: #e6194b"/>
     <use xlink:href="#m381692597b" x="363.816355" y="444.87987" style="fill: #e6194b; stroke: #e6194b"/>
     <use xlink:href="#m381692597b" x="361.255616" y="444.590887" style="fill: #e6194b; stroke: #e6194b"/>
     <use xlink:href="#m381692597b" x="364.889558" y="442.472895" style="fill: #e6194b; stroke: #e6194b"/>
     <use xlink:href="#m381692597b" x="358.182716" y="444.98693" style="fill: #e6194b; stroke: #e6194b"/>
     <use xlink:href="#m381692597b" x="355.142369" y="443.931185" style="fill: #e6194b; stroke: #e6194b"/>
     <use xlink:href="#m381692597b" x="359.558789" y="442.677471" style="fill: #e6194b; stroke: #e6194b"/>
     <use xlink:href="#m381692597b" x="360.459662" y="443.062857" style="fill: #e6194b; stroke: #e6194b"/>
     <use xlink:href="#m381692597b" x="360.600056" y="443.395584" style="fill: #e6194b; stroke: #e6194b"/>
     <use xlink:href="#m381692597b" x="360.194274" y="443.775907" style="fill: #e6194b; stroke: #e6194b"/>
     <use xlink:href="#m381692597b" x="361.137093" y="444.022807" style="fill: #e6194b; stroke: #e6194b"/>
    </g>
   </g>
   <g id="PathCollection_2">
    <defs>
     <path id="m56161d3056" d="M 0 2.345208 
C 0.621956 2.345208 1.218523 2.098102 1.658312 1.658312 
C 2.098102 1.218523 2.345208 0.621956 2.345208 0 
C 2.345208 -0.621956 2.098102 -1.218523 1.658312 -1.658312 
C 1.218523 -2.098102 0.621956 -2.345208 0 -2.345208 
C -0.621956 -2.345208 -1.218523 -2.098102 -1.658312 -1.658312 
C -2.098102 -1.218523 -2.345208 -0.621956 -2.345208 0 
C -2.345208 0.621956 -2.098102 1.218523 -1.658312 1.658312 
C -1.218523 2.098102 -0.621956 2.345208 0 2.345208 
z
" style="stroke: #3cb44b"/>
    </defs>
    <g clip-path="url(#p48590109ac)">
     <use xlink:href="#m56161d3056" x="106.169239" y="356.857421" style="fill: #3cb44b; stroke: #3cb44b"/>
     <use xlink:href="#m56161d3056" x="120.369392" y="356.48451" style="fill: #3cb44b; stroke: #3cb44b"/>
     <use xlink:href="#m56161d3056" x="114.394647" y="359.282882" style="fill: #3cb44b; stroke: #3cb44b"/>
     <use xlink:href="#m56161d3056" x="103.658335" y="358.681276" style="fill: #3cb44b; stroke: #3cb44b"/>
     <use xlink:href="#m56161d3056" x="121.839035" y="359.072281" style="fill: #3cb44b; stroke: #3cb44b"/>
     <use xlink:href="#m56161d3056" x="124.525344" y="356.411911" style="fill: #3cb44b; stroke: #3cb44b"/>
     <use xlink:href="#m56161d3056" x="119.726203" y="357.229744" style="fill: #3cb44b; stroke: #3cb44b"/>
     <use xlink:href="#m56161d3056" x="116.83062" y="358.304125" style="fill: #3cb44b; stroke: #3cb44b"/>
     <use xlink:href="#m56161d3056" x="119.551349" y="356.865506" style="fill: #3cb44b; stroke: #3cb44b"/>
     <use xlink:href="#m56161d3056" x="118.686055" y="357.840861" style="fill: #3cb44b; stroke: #3cb44b"/>
    </g>
   </g>
   <g id="PathCollection_3">
    <defs>
     <path id="m96bc46b3f3" d="M 0 2.345208 
C 0.621956 2.345208 1.218523 2.098102 1.658312 1.658312 
C 2.098102 1.218523 2.345208 0.621956 2.345208 0 
C 2.345208 -0.621956 2.098102 -1.218523 1.658312 -1.658312 
C 1.218523 -2.098102 0.621956 -2.345208 0 -2.345208 
C -0.621956 -2.345208 -1.218523 -2.098102 -1.658312 -1.658312 
C -2.098102 -1.218523 -2.345208 -0.621956 -2.345208 0 
C -2.345208 0.621956 -2.098102 1.218523 -1.658312 1.658312 
C -1.218523 2.098102 -0.621956 2.345208 0 2.345208 
z
" style="stroke: #ffe119"/>
    </defs>
    <g clip-path="url(#p48590109ac)">
     <use xlink:href="#m96bc46b3f3" x="354.644624" y="560.126508" style="fill: #ffe119; stroke: #ffe119"/>
     <use xlink:href="#m96bc46b3f3" x="355.815252" y="559.849039" style="fill: #ffe119; stroke: #ffe119"/>
    </g>
   </g>
   <g id="PathCollection_4">
    <defs>
     <path id="me960837170" d="M 0 2.345208 
C 0.621956 2.345208 1.218523 2.098102 1.658312 1.658312 
C 2.098102 1.218523 2.345208 0.621956 2.345208 0 
C 2.345208 -0.621956 2.098102 -1.218523 1.658312 -1.658312 
C 1.218523 -2.098102 0.621956 -2.345208 0 -2.345208 
C -0.621956 -2.345208 -1.218523 -2.098102 -1.658312 -1.658312 
C -2.098102 -1.218523 -2.345208 -0.621956 -2.345208 0 
C -2.345208 0.621956 -2.098102 1.218523 -1.658312 1.658312 
C -1.218523 2.098102 -0.621956 2.345208 0 2.345208 
z
" style="stroke: #4363d8"/>
    </defs>
    <g clip-path="url(#p48590109ac)">
     <use xlink:href="#me960837170" x="85.589619" y="484.267557" style="fill: #4363d8; stroke: #4363d8"/>
     <use xlink:href="#me960837170" x="97.71473" y="484.280944" style="fill: #4363d8; stroke: #4363d8"/>
     <use xlink:href="#me960837170" x="97.407425" y="483.914009" style="fill: #4363d8; stroke: #4363d8"/>
     <use xlink:href="#me960837170" x="96.810179" y="483.86111" style="fill: #4363d8; stroke: #4363d8"/>
     <use xlink:href="#me960837170" x="98.196198" y="484.615111" style="fill: #4363d8; stroke: #4363d8"/>
     <use xlink:href="#me960837170" x="89.271269" y="483.557993" style="fill: #4363d8; stroke: #4363d8"/>
     <use xlink:href="#me960837170" x="89.773205" y="483.773521" style="fill: #4363d8; stroke: #4363d8"/>
     <use xlink:href="#me960837170" x="87.817931" y="483.652954" style="fill: #4363d8; stroke: #4363d8"/>
     <use xlink:href="#me960837170" x="93.307849" y="483.179237" style="fill: #4363d8; stroke: #4363d8"/>
     <use xlink:href="#me960837170" x="86.457608" y="484.028345" style="fill: #4363d8; stroke: #4363d8"/>
    </g>
   </g>
   <g id="PathCollection_5">
    <defs>
     <path id="me3b0cd763c" d="M 0 2.345208 
C 0.621956 2.345208 1.218523 2.098102 1.658312 1.658312 
C 2.098102 1.218523 2.345208 0.621956 2.345208 0 
C 2.345208 -0.621956 2.098102 -1.218523 1.658312 -1.658312 
C 1.218523 -2.098102 0.621956 -2.345208 0 -2.345208 
C -0.621956 -2.345208 -1.218523 -2.098102 -1.658312 -1.658312 
C -2.098102 -1.218523 -2.345208 -0.621956 -2.345208 0 
C -2.345208 0.621956 -2.098102 1.218523 -1.658312 1.658312 
C -1.218523 2.098102 -0.621956 2.345208 0 2.345208 
z
" style="stroke: #f58231"/>
    </defs>
    <g clip-path="url(#p48590109ac)">
     <use xlink:href="#me3b0cd763c" x="444.540105" y="453.286542" style="fill: #f58231; stroke: #f58231"/>
     <use xlink:href="#me3b0cd763c" x="445.381205" y="453.444362" style="fill: #f58231; stroke: #f58231"/>
     <use xlink:href="#me3b0cd763c" x="447.712043" y="453.98592" style="fill: #f58231; stroke: #f58231"/>
     <use xlink:href="#me3b0cd763c" x="446.549726" y="453.700493" style="fill: #f58231; stroke: #f58231"/>
     <use xlink:href="#me3b0cd763c" x="445.077647" y="453.37177" style="fill: #f58231; stroke: #f58231"/>
    </g>
   </g>
   <g id="PathCollection_6">
    <defs>
     <path id="md9b77ea205" d="M 0 2.345208 
C 0.621956 2.345208 1.218523 2.098102 1.658312 1.658312 
C 2.098102 1.218523 2.345208 0.621956 2.345208 0 
C 2.345208 -0.621956 2.098102 -1.218523 1.658312 -1.658312 
C 1.218523 -2.098102 0.621956 -2.345208 0 -2.345208 
C -0.621956 -2.345208 -1.218523 -2.098102 -1.658312 -1.658312 
C -2.098102 -1.218523 -2.345208 -0.621956 -2.345208 0 
C -2.345208 0.621956 -2.098102 1.218523 -1.658312 1.658312 
C -1.218523 2.098102 -0.621956 2.345208 0 2.345208 
z
" style="stroke: #ba3fdf"/>
    </defs>
    <g clip-path="url(#p48590109ac)">
     <use xlink:href="#md9b77ea205" x="94.361582" y="481.386639" style="fill: #ba3fdf; stroke: #ba3fdf"/>
     <use xlink:href="#md9b77ea205" x="99.279018" y="480.221169" style="fill: #ba3fdf; stroke: #ba3fdf"/>
     <use xlink:href="#md9b77ea205" x="98.892636" y="480.661711" style="fill: #ba3fdf; stroke: #ba3fdf"/>
     <use xlink:href="#md9b77ea205" x="94.600474" y="481.375841" style="fill: #ba3fdf; stroke: #ba3fdf"/>
     <use xlink:href="#md9b77ea205" x="99.325771" y="480.038916" style="fill: #ba3fdf; stroke: #ba3fdf"/>
     <use xlink:href="#md9b77ea205" x="98.551738" y="480.097573" style="fill: #ba3fdf; stroke: #ba3fdf"/>
     <use xlink:href="#md9b77ea205" x="96.193153" y="480.455918" style="fill: #ba3fdf; stroke: #ba3fdf"/>
    </g>
   </g>
   <g id="PathCollection_7">
    <defs>
     <path id="ma067a1ca65" d="M 0 2.345208 
C 0.621956 2.345208 1.218523 2.098102 1.658312 1.658312 
C 2.098102 1.218523 2.345208 0.621956 2.345208 0 
C 2.345208 -0.621956 2.098102 -1.218523 1.658312 -1.658312 
C 1.218523 -2.098102 0.621956 -2.345208 0 -2.345208 
C -0.621956 -2.345208 -1.218523 -2.098102 -1.658312 -1.658312 
C -2.098102 -1.218523 -2.345208 -0.621956 -2.345208 0 
C -2.345208 0.621956 -2.098102 1.218523 -1.658312 1.658312 
C -1.218523 2.098102 -0.621956 2.345208 0 2.345208 
z
" style="stroke: #42d4f4"/>
    </defs>
    <g clip-path="url(#p48590109ac)">
     <use xlink:href="#ma067a1ca65" x="373.943959" y="441.637119" style="fill: #42d4f4; stroke: #42d4f4"/>
     <use xlink:href="#ma067a1ca65" x="372.994683" y="442.255112" style="fill: #42d4f4; stroke: #42d4f4"/>
     <use xlink:href="#ma067a1ca65" x="373.958418" y="441.661061" style="fill: #42d4f4; stroke: #42d4f4"/>
     <use xlink:href="#ma067a1ca65" x="374.797286" y="445.273139" style="fill: #42d4f4; stroke: #42d4f4"/>
     <use xlink:href="#ma067a1ca65" x="376.885899" y="445.685372" style="fill: #42d4f4; stroke: #42d4f4"/>
     <use xlink:href="#ma067a1ca65" x="372.741648" y="445.033058" style="fill: #42d4f4; stroke: #42d4f4"/>
    </g>
   </g>
   <g id="PathCollection_8">
    <defs>
     <path id="m66bf4238c2" d="M 0 2.345208 
C 0.621956 2.345208 1.218523 2.098102 1.658312 1.658312 
C 2.098102 1.218523 2.345208 0.621956 2.345208 0 
C 2.345208 -0.621956 2.098102 -1.218523 1.658312 -1.658312 
C 1.218523 -2.098102 0.621956 -2.345208 0 -2.345208 
C -0.621956 -2.345208 -1.218523 -2.098102 -1.658312 -1.658312 
C -2.098102 -1.218523 -2.345208 -0.621956 -2.345208 0 
C -2.345208 0.621956 -2.098102 1.218523 -1.658312 1.658312 
C -1.218523 2.098102 -0.621956 2.345208 0 2.345208 
z
" style="stroke: #bfef45"/>
    </defs>
    <g clip-path="url(#p48590109ac)">
     <use xlink:href="#m66bf4238c2" x="86.094432" y="485.883469" style="fill: #bfef45; stroke: #bfef45"/>
     <use xlink:href="#m66bf4238c2" x="68.887957" y="484.959913" style="fill: #bfef45; stroke: #bfef45"/>
     <use xlink:href="#m66bf4238c2" x="74.869562" y="486.491998" style="fill: #bfef45; stroke: #bfef45"/>
     <use xlink:href="#m66bf4238c2" x="73.524773" y="487.057173" style="fill: #bfef45; stroke: #bfef45"/>
     <use xlink:href="#m66bf4238c2" x="77.404612" y="486.892425" style="fill: #bfef45; stroke: #bfef45"/>
     <use xlink:href="#m66bf4238c2" x="80.79298" y="486.351848" style="fill: #bfef45; stroke: #bfef45"/>
     <use xlink:href="#m66bf4238c2" x="81.467814" y="485.042698" style="fill: #bfef45; stroke: #bfef45"/>
     <use xlink:href="#m66bf4238c2" x="72.657359" y="484.368373" style="fill: #bfef45; stroke: #bfef45"/>
     <use xlink:href="#m66bf4238c2" x="72.991287" y="485.298699" style="fill: #bfef45; stroke: #bfef45"/>
     <use xlink:href="#m66bf4238c2" x="79.447061" y="484.217833" style="fill: #bfef45; stroke: #bfef45"/>
     <use xlink:href="#m66bf4238c2" x="80.441596" y="486.152924" style="fill: #bfef45; stroke: #bfef45"/>
     <use xlink:href="#m66bf4238c2" x="74.045743" y="484.708709" style="fill: #bfef45; stroke: #bfef45"/>
     <use xlink:href="#m66bf4238c2" x="83.372713" y="485.683205" style="fill: #bfef45; stroke: #bfef45"/>
     <use xlink:href="#m66bf4238c2" x="75.106545" y="486.849014" style="fill: #bfef45; stroke: #bfef45"/>
     <use xlink:href="#m66bf4238c2" x="72.056898" y="485.178381" style="fill: #bfef45; stroke: #bfef45"/>
     <use xlink:href="#m66bf4238c2" x="74.773585" y="486.057772" style="fill: #bfef45; stroke: #bfef45"/>
     <use xlink:href="#m66bf4238c2" x="73.101626" y="486.560373" style="fill: #bfef45; stroke: #bfef45"/>
     <use xlink:href="#m66bf4238c2" x="76.290192" y="485.409887" style="fill: #bfef45; stroke: #bfef45"/>
    </g>
   </g>
   <g id="PathCollection_9">
    <defs>
     <path id="m9d9652ebef" d="M 0 2.345208 
C 0.621956 2.345208 1.218523 2.098102 1.658312 1.658312 
C 2.098102 1.218523 2.345208 0.621956 2.345208 0 
C 2.345208 -0.621956 2.098102 -1.218523 1.658312 -1.658312 
C 1.218523 -2.098102 0.621956 -2.345208 0 -2.345208 
C -0.621956 -2.345208 -1.218523 -2.098102 -1.658312 -1.658312 
C -2.098102 -1.218523 -2.345208 -0.621956 -2.345208 0 
C -2.345208 0.621956 -2.098102 1.218523 -1.658312 1.658312 
C -1.218523 2.098102 -0.621956 2.345208 0 2.345208 
z
" style="stroke: #fabed4"/>
    </defs>
    <g clip-path="url(#p48590109ac)">
     <use xlink:href="#m9d9652ebef" x="367.650465" y="557.120328" style="fill: #fabed4; stroke: #fabed4"/>
     <use xlink:href="#m9d9652ebef" x="367.629029" y="557.127275" style="fill: #fabed4; stroke: #fabed4"/>
     <use xlink:href="#m9d9652ebef" x="369.601969" y="556.666039" style="fill: #fabed4; stroke: #fabed4"/>
     <use xlink:href="#m9d9652ebef" x="369.384113" y="556.715938" style="fill: #fabed4; stroke: #fabed4"/>
     <use xlink:href="#m9d9652ebef" x="366.479135" y="557.39134" style="fill: #fabed4; stroke: #fabed4"/>
     <use xlink:href="#m9d9652ebef" x="365.963366" y="557.51132" style="fill: #fabed4; stroke: #fabed4"/>
     <use xlink:href="#m9d9652ebef" x="366.740144" y="557.330955" style="fill: #fabed4; stroke: #fabed4"/>
    </g>
   </g>
   <g id="PathCollection_10">
    <defs>
     <path id="m3c8d9b387a" d="M 0 2.345208 
C 0.621956 2.345208 1.218523 2.098102 1.658312 1.658312 
C 2.098102 1.218523 2.345208 0.621956 2.345208 0 
C 2.345208 -0.621956 2.098102 -1.218523 1.658312 -1.658312 
C 1.218523 -2.098102 0.621956 -2.345208 0 -2.345208 
C -0.621956 -2.345208 -1.218523 -2.098102 -1.658312 -1.658312 
C -2.098102 -1.218523 -2.345208 -0.621956 -2.345208 0 
C -2.345208 0.621956 -2.098102 1.218523 -1.658312 1.658312 
C -1.218523 2.098102 -0.621956 2.345208 0 2.345208 
z
" style="stroke: #469990"/>
    </defs>
    <g clip-path="url(#p48590109ac)">
     <use xlink:href="#m3c8d9b387a" x="84.426551" y="357.488216" style="fill: #469990; stroke: #469990"/>
     <use xlink:href="#m3c8d9b387a" x="89.305347" y="357.740853" style="fill: #469990; stroke: #469990"/>
     <use xlink:href="#m3c8d9b387a" x="95.401285" y="356.949239" style="fill: #469990; stroke: #469990"/>
     <use xlink:href="#m3c8d9b387a" x="87.438505" y="356.87036" style="fill: #469990; stroke: #469990"/>
     <use xlink:href="#m3c8d9b387a" x="86.361273" y="357.084559" style="fill: #469990; stroke: #469990"/>
     <use xlink:href="#m3c8d9b387a" x="93.390589" y="356.367794" style="fill: #469990; stroke: #469990"/>
     <use xlink:href="#m3c8d9b387a" x="88.636331" y="357.056168" style="fill: #469990; stroke: #469990"/>
     <use xlink:href="#m3c8d9b387a" x="99.702895" y="357.138318" style="fill: #469990; stroke: #469990"/>
     <use xlink:href="#m3c8d9b387a" x="99.600579" y="358.005579" style="fill: #469990; stroke: #469990"/>
     <use xlink:href="#m3c8d9b387a" x="94.698354" y="357.846082" style="fill: #469990; stroke: #469990"/>
     <use xlink:href="#m3c8d9b387a" x="91.089974" y="358.361587" style="fill: #469990; stroke: #469990"/>
     <use xlink:href="#m3c8d9b387a" x="92.898747" y="356.800483" style="fill: #469990; stroke: #469990"/>
     <use xlink:href="#m3c8d9b387a" x="89.77637" y="357.290267" style="fill: #469990; stroke: #469990"/>
    </g>
   </g>
   <g id="PathCollection_11">
    <defs>
     <path id="mc504419608" d="M 0 2.345208 
C 0.621956 2.345208 1.218523 2.098102 1.658312 1.658312 
C 2.098102 1.218523 2.345208 0.621956 2.345208 0 
C 2.345208 -0.621956 2.098102 -1.218523 1.658312 -1.658312 
C 1.218523 -2.098102 0.621956 -2.345208 0 -2.345208 
C -0.621956 -2.345208 -1.218523 -2.098102 -1.658312 -1.658312 
C -2.098102 -1.218523 -2.345208 -0.621956 -2.345208 0 
C -2.345208 0.621956 -2.098102 1.218523 -1.658312 1.658312 
C -1.218523 2.098102 -0.621956 2.345208 0 2.345208 
z
" style="stroke: #dcbeff"/>
    </defs>
    <g clip-path="url(#p48590109ac)">
     <use xlink:href="#mc504419608" x="345.079255" y="443.410891" style="fill: #dcbeff; stroke: #dcbeff"/>
     <use xlink:href="#mc504419608" x="342.720313" y="443.835553" style="fill: #dcbeff; stroke: #dcbeff"/>
     <use xlink:href="#mc504419608" x="360.148889" y="444.366144" style="fill: #dcbeff; stroke: #dcbeff"/>
     <use xlink:href="#mc504419608" x="346.503675" y="443.403264" style="fill: #dcbeff; stroke: #dcbeff"/>
     <use xlink:href="#mc504419608" x="350.615204" y="441.413775" style="fill: #dcbeff; stroke: #dcbeff"/>
     <use xlink:href="#mc504419608" x="359.136007" y="444.007087" style="fill: #dcbeff; stroke: #dcbeff"/>
     <use xlink:href="#mc504419608" x="348.914446" y="442.593412" style="fill: #dcbeff; stroke: #dcbeff"/>
     <use xlink:href="#mc504419608" x="350.517022" y="442.828498" style="fill: #dcbeff; stroke: #dcbeff"/>
     <use xlink:href="#mc504419608" x="347.8825" y="444.85125" style="fill: #dcbeff; stroke: #dcbeff"/>
     <use xlink:href="#mc504419608" x="352.40019" y="443.644433" style="fill: #dcbeff; stroke: #dcbeff"/>
     <use xlink:href="#mc504419608" x="347.594525" y="443.126337" style="fill: #dcbeff; stroke: #dcbeff"/>
     <use xlink:href="#mc504419608" x="345.736177" y="443.950901" style="fill: #dcbeff; stroke: #dcbeff"/>
     <use xlink:href="#mc504419608" x="351.169943" y="442.356749" style="fill: #dcbeff; stroke: #dcbeff"/>
    </g>
   </g>
   <g id="PathCollection_12">
    <defs>
     <path id="m90a8a44fde" d="M 0 2.345208 
C 0.621956 2.345208 1.218523 2.098102 1.658312 1.658312 
C 2.098102 1.218523 2.345208 0.621956 2.345208 0 
C 2.345208 -0.621956 2.098102 -1.218523 1.658312 -1.658312 
C 1.218523 -2.098102 0.621956 -2.345208 0 -2.345208 
C -0.621956 -2.345208 -1.218523 -2.098102 -1.658312 -1.658312 
C -2.098102 -1.218523 -2.345208 -0.621956 -2.345208 0 
C -2.345208 0.621956 -2.098102 1.218523 -1.658312 1.658312 
C -1.218523 2.098102 -0.621956 2.345208 0 2.345208 
z
" style="stroke: #9a6324"/>
    </defs>
    <g clip-path="url(#p48590109ac)">
     <use xlink:href="#m90a8a44fde" x="370.626896" y="448.946727" style="fill: #9a6324; stroke: #9a6324"/>
     <use xlink:href="#m90a8a44fde" x="369.28071" y="448.582378" style="fill: #9a6324; stroke: #9a6324"/>
     <use xlink:href="#m90a8a44fde" x="364.61725" y="446.898266" style="fill: #9a6324; stroke: #9a6324"/>
     <use xlink:href="#m90a8a44fde" x="365.213822" y="447.635725" style="fill: #9a6324; stroke: #9a6324"/>
     <use xlink:href="#m90a8a44fde" x="365.072038" y="447.249691" style="fill: #9a6324; stroke: #9a6324"/>
     <use xlink:href="#m90a8a44fde" x="369.515734" y="448.695185" style="fill: #9a6324; stroke: #9a6324"/>
    </g>
   </g>
   <g id="PathCollection_13">
    <defs>
     <path id="m2eda607bc6" d="M 0 2.345208 
C 0.621956 2.345208 1.218523 2.098102 1.658312 1.658312 
C 2.098102 1.218523 2.345208 0.621956 2.345208 0 
C 2.345208 -0.621956 2.098102 -1.218523 1.658312 -1.658312 
C 1.218523 -2.098102 0.621956 -2.345208 0 -2.345208 
C -0.621956 -2.345208 -1.218523 -2.098102 -1.658312 -1.658312 
C -2.098102 -1.218523 -2.345208 -0.621956 -2.345208 0 
C -2.345208 0.621956 -2.098102 1.218523 -1.658312 1.658312 
C -1.218523 2.098102 -0.621956 2.345208 0 2.345208 
z
" style="stroke: #b3a400"/>
    </defs>
    <g clip-path="url(#p48590109ac)">
     <use xlink:href="#m2eda607bc6" x="107.907513" y="356.014115" style="fill: #b3a400; stroke: #b3a400"/>
     <use xlink:href="#m2eda607bc6" x="110.946568" y="355.060387" style="fill: #b3a400; stroke: #b3a400"/>
     <use xlink:href="#m2eda607bc6" x="107.341326" y="355.846205" style="fill: #b3a400; stroke: #b3a400"/>
     <use xlink:href="#m2eda607bc6" x="107.886961" y="355.752568" style="fill: #b3a400; stroke: #b3a400"/>
     <use xlink:href="#m2eda607bc6" x="109.19681" y="355.91378" style="fill: #b3a400; stroke: #b3a400"/>
    </g>
   </g>
   <g id="PathCollection_14">
    <defs>
     <path id="m8cf4cf4d12" d="M 0 2.345208 
C 0.621956 2.345208 1.218523 2.098102 1.658312 1.658312 
C 2.098102 1.218523 2.345208 0.621956 2.345208 0 
C 2.345208 -0.621956 2.098102 -1.218523 1.658312 -1.658312 
C 1.218523 -2.098102 0.621956 -2.345208 0 -2.345208 
C -0.621956 -2.345208 -1.218523 -2.098102 -1.658312 -1.658312 
C -2.098102 -1.218523 -2.345208 -0.621956 -2.345208 0 
C -2.345208 0.621956 -2.098102 1.218523 -1.658312 1.658312 
C -1.218523 2.098102 -0.621956 2.345208 0 2.345208 
z
" style="stroke: #800000"/>
    </defs>
    <g clip-path="url(#p48590109ac)">
     <use xlink:href="#m8cf4cf4d12" x="343.499463" y="562.857338" style="fill: #800000; stroke: #800000"/>
     <use xlink:href="#m8cf4cf4d12" x="345.32996" y="562.453943" style="fill: #800000; stroke: #800000"/>
     <use xlink:href="#m8cf4cf4d12" x="347.358364" y="562.09053" style="fill: #800000; stroke: #800000"/>
     <use xlink:href="#m8cf4cf4d12" x="345.695031" y="562.352351" style="fill: #800000; stroke: #800000"/>
     <use xlink:href="#m8cf4cf4d12" x="344.318425" y="562.643545" style="fill: #800000; stroke: #800000"/>
     <use xlink:href="#m8cf4cf4d12" x="342.301967" y="563.108124" style="fill: #800000; stroke: #800000"/>
    </g>
   </g>
   <g id="PathCollection_15">
    <defs>
     <path id="m02ea5514f8" d="M 0 2.345208 
C 0.621956 2.345208 1.218523 2.098102 1.658312 1.658312 
C 2.098102 1.218523 2.345208 0.621956 2.345208 0 
C 2.345208 -0.621956 2.098102 -1.218523 1.658312 -1.658312 
C 1.218523 -2.098102 0.621956 -2.345208 0 -2.345208 
C -0.621956 -2.345208 -1.218523 -2.098102 -1.658312 -1.658312 
C -2.098102 -1.218523 -2.345208 -0.621956 -2.345208 0 
C -2.345208 0.621956 -2.098102 1.218523 -1.658312 1.658312 
C -1.218523 2.098102 -0.621956 2.345208 0 2.345208 
z
" style="stroke: #82baff"/>
    </defs>
    <g clip-path="url(#p48590109ac)">
     <use xlink:href="#m02ea5514f8" x="380.469361" y="440.212303" style="fill: #82baff; stroke: #82baff"/>
     <use xlink:href="#m02ea5514f8" x="378.19598" y="440.815839" style="fill: #82baff; stroke: #82baff"/>
     <use xlink:href="#m02ea5514f8" x="379.052269" y="440.537506" style="fill: #82baff; stroke: #82baff"/>
    </g>
   </g>
   <g id="matplotlib.axis_3">
    <g id="xtick_23">
     <g id="line2d_30">
      <g>
       <use xlink:href="#mbcfe8ca68d" x="112.900143" y="564.48" style="stroke: #000000; stroke-width: 0.8"/>
      </g>
     </g>
     <g id="text_35">
      <!-- 2 -->
      <g transform="translate(105.529049 579.078437) scale(0.1 -0.1)">
       <defs>
        <path id="DejaVuSans-2212" d="M 678 2272 
L 4684 2272 
L 4684 1741 
L 678 1741 
L 678 2272 
z
" transform="scale(0.015625)"/>
       </defs>
       <use xlink:href="#DejaVuSans-2212"/>
       <use xlink:href="#DejaVuSans-32" x="83.789062"/>
      </g>
     </g>
    </g>
    <g id="xtick_24">
     <g id="line2d_31">
      <g>
       <use xlink:href="#mbcfe8ca68d" x="171.77971" y="564.48" style="stroke: #000000; stroke-width: 0.8"/>
      </g>
     </g>
     <g id="text_36">
      <!-- 0 -->
      <g transform="translate(168.59846 579.078437) scale(0.1 -0.1)">
       <use xlink:href="#DejaVuSans-30"/>
      </g>
     </g>
    </g>
    <g id="xtick_25">
     <g id="line2d_32">
      <g>
       <use xlink:href="#mbcfe8ca68d" x="230.659278" y="564.48" style="stroke: #000000; stroke-width: 0.8"/>
      </g>
     </g>
     <g id="text_37">
      <!-- 2 -->
      <g transform="translate(227.478028 579.078437) scale(0.1 -0.1)">
       <use xlink:href="#DejaVuSans-32"/>
      </g>
     </g>
    </g>
    <g id="xtick_26">
     <g id="line2d_33">
      <g>
       <use xlink:href="#mbcfe8ca68d" x="289.538846" y="564.48" style="stroke: #000000; stroke-width: 0.8"/>
      </g>
     </g>
     <g id="text_38">
      <!-- 4 -->
      <g transform="translate(286.357596 579.078437) scale(0.1 -0.1)">
       <use xlink:href="#DejaVuSans-34"/>
      </g>
     </g>
    </g>
    <g id="xtick_27">
     <g id="line2d_34">
      <g>
       <use xlink:href="#mbcfe8ca68d" x="348.418414" y="564.48" style="stroke: #000000; stroke-width: 0.8"/>
      </g>
     </g>
     <g id="text_39">
      <!-- 6 -->
      <g transform="translate(345.237164 579.078437) scale(0.1 -0.1)">
       <use xlink:href="#DejaVuSans-36"/>
      </g>
     </g>
    </g>
    <g id="xtick_28">
     <g id="line2d_35">
      <g>
       <use xlink:href="#mbcfe8ca68d" x="407.297982" y="564.48" style="stroke: #000000; stroke-width: 0.8"/>
      </g>
     </g>
     <g id="text_40">
      <!-- 8 -->
      <g transform="translate(404.116732 579.078437) scale(0.1 -0.1)">
       <use xlink:href="#DejaVuSans-38"/>
      </g>
     </g>
    </g>
    <g id="text_41">
     <!-- UMAP Dimension 1 -->
     <g transform="translate(210.955469 592.756562) scale(0.1 -0.1)">
      <defs>
       <path id="DejaVuSans-55" d="M 556 4666 
L 1191 4666 
L 1191 1831 
Q 1191 1081 1462 751 
Q 1734 422 2344 422 
Q 2950 422 3222 751 
Q 3494 1081 3494 1831 
L 3494 4666 
L 4128 4666 
L 4128 1753 
Q 4128 841 3676 375 
Q 3225 -91 2344 -91 
Q 1459 -91 1007 375 
Q 556 841 556 1753 
L 556 4666 
z
" transform="scale(0.015625)"/>
       <path id="DejaVuSans-4d" d="M 628 4666 
L 1569 4666 
L 2759 1491 
L 3956 4666 
L 4897 4666 
L 4897 0 
L 4281 0 
L 4281 4097 
L 3078 897 
L 2444 897 
L 1241 4097 
L 1241 0 
L 628 0 
L 628 4666 
z
" transform="scale(0.015625)"/>
       <path id="DejaVuSans-41" d="M 2188 4044 
L 1331 1722 
L 3047 1722 
L 2188 4044 
z
M 1831 4666 
L 2547 4666 
L 4325 0 
L 3669 0 
L 3244 1197 
L 1141 1197 
L 716 0 
L 50 0 
L 1831 4666 
z
" transform="scale(0.015625)"/>
       <path id="DejaVuSans-50" d="M 1259 4147 
L 1259 2394 
L 2053 2394 
Q 2494 2394 2734 2622 
Q 2975 2850 2975 3272 
Q 2975 3691 2734 3919 
Q 2494 4147 2053 4147 
L 1259 4147 
z
M 628 4666 
L 2053 4666 
Q 2838 4666 3239 4311 
Q 3641 3956 3641 3272 
Q 3641 2581 3239 2228 
Q 2838 1875 2053 1875 
L 1259 1875 
L 1259 0 
L 628 0 
L 628 4666 
z
" transform="scale(0.015625)"/>
       <path id="DejaVuSans-44" d="M 1259 4147 
L 1259 519 
L 2022 519 
Q 2988 519 3436 956 
Q 3884 1394 3884 2338 
Q 3884 3275 3436 3711 
Q 2988 4147 2022 4147 
L 1259 4147 
z
M 628 4666 
L 1925 4666 
Q 3281 4666 3915 4102 
Q 4550 3538 4550 2338 
Q 4550 1131 3912 565 
Q 3275 0 1925 0 
L 628 0 
L 628 4666 
z
" transform="scale(0.015625)"/>
      </defs>
      <use xlink:href="#DejaVuSans-55"/>
      <use xlink:href="#DejaVuSans-4d" x="73.193359"/>
      <use xlink:href="#DejaVuSans-41" x="159.472656"/>
      <use xlink:href="#DejaVuSans-50" x="227.880859"/>
      <use xlink:href="#DejaVuSans-20" x="288.183594"/>
      <use xlink:href="#DejaVuSans-44" x="319.970703"/>
      <use xlink:href="#DejaVuSans-69" x="396.972656"/>
      <use xlink:href="#DejaVuSans-6d" x="424.755859"/>
      <use xlink:href="#DejaVuSans-65" x="522.167969"/>
      <use xlink:href="#DejaVuSans-6e" x="583.691406"/>
      <use xlink:href="#DejaVuSans-73" x="647.070312"/>
      <use xlink:href="#DejaVuSans-69" x="699.169922"/>
      <use xlink:href="#DejaVuSans-6f" x="726.953125"/>
      <use xlink:href="#DejaVuSans-6e" x="788.134766"/>
      <use xlink:href="#DejaVuSans-20" x="851.513672"/>
      <use xlink:href="#DejaVuSans-31" x="883.300781"/>
     </g>
    </g>
   </g>
   <g id="matplotlib.axis_4">
    <g id="ytick_8">
     <g id="line2d_36">
      <g>
       <use xlink:href="#m9c95e308dd" x="63" y="533.971964" style="stroke: #000000; stroke-width: 0.8"/>
      </g>
     </g>
     <g id="text_42">
      <!-- 5 -->
      <g transform="translate(41.257812 537.771183) scale(0.1 -0.1)">
       <use xlink:href="#DejaVuSans-2212"/>
       <use xlink:href="#DejaVuSans-35" x="83.789062"/>
      </g>
     </g>
    </g>
    <g id="ytick_9">
     <g id="line2d_37">
      <g>
       <use xlink:href="#m9c95e308dd" x="63" y="499.675059" style="stroke: #000000; stroke-width: 0.8"/>
      </g>
     </g>
     <g id="text_43">
      <!-- 0 -->
      <g transform="translate(49.6375 503.474277) scale(0.1 -0.1)">
       <use xlink:href="#DejaVuSans-30"/>
      </g>
     </g>
    </g>
    <g id="ytick_10">
     <g id="line2d_38">
      <g>
       <use xlink:href="#m9c95e308dd" x="63" y="465.378153" style="stroke: #000000; stroke-width: 0.8"/>
      </g>
     </g>
     <g id="text_44">
      <!-- 5 -->
      <g transform="translate(49.6375 469.177372) scale(0.1 -0.1)">
       <use xlink:href="#DejaVuSans-35"/>
      </g>
     </g>
    </g>
    <g id="ytick_11">
     <g id="line2d_39">
      <g>
       <use xlink:href="#m9c95e308dd" x="63" y="431.081247" style="stroke: #000000; stroke-width: 0.8"/>
      </g>
     </g>
     <g id="text_45">
      <!-- 10 -->
      <g transform="translate(43.275 434.880466) scale(0.1 -0.1)">
       <use xlink:href="#DejaVuSans-31"/>
       <use xlink:href="#DejaVuSans-30" x="63.623047"/>
      </g>
     </g>
    </g>
    <g id="ytick_12">
     <g id="line2d_40">
      <g>
       <use xlink:href="#m9c95e308dd" x="63" y="396.784342" style="stroke: #000000; stroke-width: 0.8"/>
      </g>
     </g>
     <g id="text_46">
      <!-- 15 -->
      <g transform="translate(43.275 400.583561) scale(0.1 -0.1)">
       <use xlink:href="#DejaVuSans-31"/>
       <use xlink:href="#DejaVuSans-35" x="63.623047"/>
      </g>
     </g>
    </g>
    <g id="ytick_13">
     <g id="line2d_41">
      <g>
       <use xlink:href="#m9c95e308dd" x="63" y="362.487436" style="stroke: #000000; stroke-width: 0.8"/>
      </g>
     </g>
     <g id="text_47">
      <!-- 20 -->
      <g transform="translate(43.275 366.286655) scale(0.1 -0.1)">
       <use xlink:href="#DejaVuSans-32"/>
       <use xlink:href="#DejaVuSans-30" x="63.623047"/>
      </g>
     </g>
    </g>
    <g id="text_48">
     <!-- UMAP Dimension 2 -->
     <g transform="translate(35.178125 506.428787) rotate(-90) scale(0.1 -0.1)">
      <use xlink:href="#DejaVuSans-55"/>
      <use xlink:href="#DejaVuSans-4d" x="73.193359"/>
      <use xlink:href="#DejaVuSans-41" x="159.472656"/>
      <use xlink:href="#DejaVuSans-50" x="227.880859"/>
      <use xlink:href="#DejaVuSans-20" x="288.183594"/>
      <use xlink:href="#DejaVuSans-44" x="319.970703"/>
      <use xlink:href="#DejaVuSans-69" x="396.972656"/>
      <use xlink:href="#DejaVuSans-6d" x="424.755859"/>
      <use xlink:href="#DejaVuSans-65" x="522.167969"/>
      <use xlink:href="#DejaVuSans-6e" x="583.691406"/>
      <use xlink:href="#DejaVuSans-73" x="647.070312"/>
      <use xlink:href="#DejaVuSans-69" x="699.169922"/>
      <use xlink:href="#DejaVuSans-6f" x="726.953125"/>
      <use xlink:href="#DejaVuSans-6e" x="788.134766"/>
      <use xlink:href="#DejaVuSans-20" x="851.513672"/>
      <use xlink:href="#DejaVuSans-32" x="883.300781"/>
     </g>
    </g>
   </g>
   <g id="patch_32">
    <path d="M 63 564.48 
L 63 353.688511 
" style="fill: none; stroke: #000000; stroke-width: 0.8; stroke-linejoin: miter; stroke-linecap: square"/>
   </g>
   <g id="patch_33">
    <path d="M 453.6 564.48 
L 453.6 353.688511 
" style="fill: none; stroke: #000000; stroke-width: 0.8; stroke-linejoin: miter; stroke-linecap: square"/>
   </g>
   <g id="patch_34">
    <path d="M 63 564.48 
L 453.6 564.48 
" style="fill: none; stroke: #000000; stroke-width: 0.8; stroke-linejoin: miter; stroke-linecap: square"/>
   </g>
   <g id="patch_35">
    <path d="M 63 353.688511 
L 453.6 353.688511 
" style="fill: none; stroke: #000000; stroke-width: 0.8; stroke-linejoin: miter; stroke-linecap: square"/>
   </g>
   <g id="text_49">
    <!-- 0 -->
    <g style="fill: #e6194b" transform="translate(360.987863 443.526499) scale(0.1 -0.1)">
     <use xlink:href="#DejaVuSans-30"/>
    </g>
   </g>
   <g id="text_50">
    <!-- 1 -->
    <g style="fill: #3cb44b" transform="translate(116.561299 357.7021) scale(0.1 -0.1)">
     <use xlink:href="#DejaVuSans-31"/>
    </g>
   </g>
   <g id="text_51">
    <!-- 2 -->
    <g style="fill: #ffe119" transform="translate(355.229938 559.987773) scale(0.1 -0.1)">
     <use xlink:href="#DejaVuSans-32"/>
    </g>
   </g>
   <g id="text_52">
    <!-- 3 -->
    <g style="fill: #4363d8" transform="translate(92.212586 483.915712) scale(0.1 -0.1)">
     <use xlink:href="#DejaVuSans-33"/>
    </g>
   </g>
   <g id="text_53">
    <!-- 4 -->
    <g style="fill: #f58231" transform="translate(445.852145 453.557817) scale(0.1 -0.1)">
     <use xlink:href="#DejaVuSans-34"/>
    </g>
   </g>
   <g id="text_54">
    <!-- 5 -->
    <g style="fill: #ba3fdf" transform="translate(97.31491 480.605395) scale(0.1 -0.1)">
     <use xlink:href="#DejaVuSans-35"/>
    </g>
   </g>
   <g id="text_55">
    <!-- 6 -->
    <g style="fill: #42d4f4" transform="translate(374.220316 443.59081) scale(0.1 -0.1)">
     <use xlink:href="#DejaVuSans-36"/>
    </g>
   </g>
   <g id="text_56">
    <!-- 7 -->
    <g style="fill: #bfef45" transform="translate(76.515424 485.731639) scale(0.1 -0.1)">
     <use xlink:href="#DejaVuSans-37"/>
    </g>
   </g>
   <g id="text_57">
    <!-- 8 -->
    <g style="fill: #fabed4" transform="translate(367.63546 557.123314) scale(0.1 -0.1)">
     <use xlink:href="#DejaVuSans-38"/>
    </g>
   </g>
   <g id="text_58">
    <!-- 9 -->
    <g style="fill: #469990" transform="translate(91.748879 357.30823) scale(0.1 -0.1)">
     <use xlink:href="#DejaVuSans-39"/>
    </g>
   </g>
   <g id="text_59">
    <!-- 10 -->
    <g style="fill: #dcbeff" transform="translate(349.863428 443.367603) scale(0.1 -0.1)">
     <use xlink:href="#DejaVuSans-31"/>
     <use xlink:href="#DejaVuSans-30" x="63.623047"/>
    </g>
   </g>
   <g id="text_60">
    <!-- 11 -->
    <g style="fill: #9a6324" transform="translate(367.387742 448.001329) scale(0.1 -0.1)">
     <use xlink:href="#DejaVuSans-31"/>
     <use xlink:href="#DejaVuSans-31" x="63.623047"/>
    </g>
   </g>
   <g id="text_61">
    <!-- 12 -->
    <g style="fill: #b3a400" transform="translate(108.655836 355.717411) scale(0.1 -0.1)">
     <use xlink:href="#DejaVuSans-31"/>
     <use xlink:href="#DejaVuSans-32" x="63.623047"/>
    </g>
   </g>
   <g id="text_62">
    <!-- 13 -->
    <g style="fill: #800000" transform="translate(344.750535 562.584305) scale(0.1 -0.1)">
     <use xlink:href="#DejaVuSans-31"/>
     <use xlink:href="#DejaVuSans-33" x="63.623047"/>
    </g>
   </g>
   <g id="text_63">
    <!-- 14 -->
    <g style="fill: #82baff" transform="translate(379.239203 440.521882) scale(0.1 -0.1)">
     <use xlink:href="#DejaVuSans-31"/>
     <use xlink:href="#DejaVuSans-34" x="63.623047"/>
    </g>
   </g>
   <g id="text_64">
    <!-- Selected GMM: full model, 15 Gaussian components -->
    <g transform="translate(101.753438 347.688511) scale(0.12 -0.12)">
     <defs>
      <path id="DejaVuSans-53" d="M 3425 4513 
L 3425 3897 
Q 3066 4069 2747 4153 
Q 2428 4238 2131 4238 
Q 1616 4238 1336 4038 
Q 1056 3838 1056 3469 
Q 1056 3159 1242 3001 
Q 1428 2844 1947 2747 
L 2328 2669 
Q 3034 2534 3370 2195 
Q 3706 1856 3706 1288 
Q 3706 609 3251 259 
Q 2797 -91 1919 -91 
Q 1588 -91 1214 -16 
Q 841 59 441 206 
L 441 856 
Q 825 641 1194 531 
Q 1563 422 1919 422 
Q 2459 422 2753 634 
Q 3047 847 3047 1241 
Q 3047 1584 2836 1778 
Q 2625 1972 2144 2069 
L 1759 2144 
Q 1053 2284 737 2584 
Q 422 2884 422 3419 
Q 422 4038 858 4394 
Q 1294 4750 2059 4750 
Q 2388 4750 2728 4690 
Q 3069 4631 3425 4513 
z
" transform="scale(0.015625)"/>
      <path id="DejaVuSans-3a" d="M 750 794 
L 1409 794 
L 1409 0 
L 750 0 
L 750 794 
z
M 750 3309 
L 1409 3309 
L 1409 2516 
L 750 2516 
L 750 3309 
z
" transform="scale(0.015625)"/>
      <path id="DejaVuSans-2c" d="M 750 794 
L 1409 794 
L 1409 256 
L 897 -744 
L 494 -744 
L 750 256 
L 750 794 
z
" transform="scale(0.015625)"/>
     </defs>
     <use xlink:href="#DejaVuSans-53"/>
     <use xlink:href="#DejaVuSans-65" x="63.476562"/>
     <use xlink:href="#DejaVuSans-6c" x="125"/>
     <use xlink:href="#DejaVuSans-65" x="152.783203"/>
     <use xlink:href="#DejaVuSans-63" x="214.306641"/>
     <use xlink:href="#DejaVuSans-74" x="269.287109"/>
     <use xlink:href="#DejaVuSans-65" x="308.496094"/>
     <use xlink:href="#DejaVuSans-64" x="370.019531"/>
     <use xlink:href="#DejaVuSans-20" x="433.496094"/>
     <use xlink:href="#DejaVuSans-47" x="465.283203"/>
     <use xlink:href="#DejaVuSans-4d" x="542.773438"/>
     <use xlink:href="#DejaVuSans-4d" x="629.052734"/>
     <use xlink:href="#DejaVuSans-3a" x="715.332031"/>
     <use xlink:href="#DejaVuSans-20" x="749.023438"/>
     <use xlink:href="#DejaVuSans-66" x="780.810547"/>
     <use xlink:href="#DejaVuSans-75" x="816.015625"/>
     <use xlink:href="#DejaVuSans-6c" x="879.394531"/>
     <use xlink:href="#DejaVuSans-6c" x="907.177734"/>
     <use xlink:href="#DejaVuSans-20" x="934.960938"/>
     <use xlink:href="#DejaVuSans-6d" x="966.748047"/>
     <use xlink:href="#DejaVuSans-6f" x="1064.160156"/>
     <use xlink:href="#DejaVuSans-64" x="1125.341797"/>
     <use xlink:href="#DejaVuSans-65" x="1188.818359"/>
     <use xlink:href="#DejaVuSans-6c" x="1250.341797"/>
     <use xlink:href="#DejaVuSans-2c" x="1278.125"/>
     <use xlink:href="#DejaVuSans-20" x="1309.912109"/>
     <use xlink:href="#DejaVuSans-31" x="1341.699219"/>
     <use xlink:href="#DejaVuSans-35" x="1405.322266"/>
     <use xlink:href="#DejaVuSans-20" x="1468.945312"/>
     <use xlink:href="#DejaVuSans-47" x="1500.732422"/>
     <use xlink:href="#DejaVuSans-61" x="1578.222656"/>
     <use xlink:href="#DejaVuSans-75" x="1639.501953"/>
     <use xlink:href="#DejaVuSans-73" x="1702.880859"/>
     <use xlink:href="#DejaVuSans-73" x="1754.980469"/>
     <use xlink:href="#DejaVuSans-69" x="1807.080078"/>
     <use xlink:href="#DejaVuSans-61" x="1834.863281"/>
     <use xlink:href="#DejaVuSans-6e" x="1896.142578"/>
     <use xlink:href="#DejaVuSans-20" x="1959.521484"/>
     <use xlink:href="#DejaVuSans-63" x="1991.308594"/>
     <use xlink:href="#DejaVuSans-6f" x="2046.289062"/>
     <use xlink:href="#DejaVuSans-6d" x="2107.470703"/>
     <use xlink:href="#DejaVuSans-70" x="2204.882812"/>
     <use xlink:href="#DejaVuSans-6f" x="2268.359375"/>
     <use xlink:href="#DejaVuSans-6e" x="2329.541016"/>
     <use xlink:href="#DejaVuSans-65" x="2392.919922"/>
     <use xlink:href="#DejaVuSans-6e" x="2454.443359"/>
     <use xlink:href="#DejaVuSans-74" x="2517.822266"/>
     <use xlink:href="#DejaVuSans-73" x="2557.03125"/>
    </g>
   </g>
  </g>
 </g>
 <defs>
  <clipPath id="p90b7abaaca">
   <rect x="63" y="69.12" width="390.6" height="210.791489"/>
  </clipPath>
  <clipPath id="p48590109ac">
   <rect x="63" y="353.688511" width="390.6" height="210.791489"/>
  </clipPath>
 </defs>
</svg>
