<?xml version="1.0" encoding="utf-8" standalone="no"?>
<!DOCTYPE svg PUBLIC "-//W3C//DTD SVG 1.1//EN"
  "http://www.w3.org/Graphics/SVG/1.1/DTD/svg11.dtd">
<!-- Created with matplotlib (https://matplotlib.org/) -->
<svg height="280.8pt" version="1.1" viewBox="0 0 504 280.8" width="504pt" xmlns="http://www.w3.org/2000/svg" xmlns:xlink="http://www.w3.org/1999/xlink">
 <metadata>
  <rdf:RDF xmlns:cc="http://creativecommons.org/ns#" xmlns:dc="http://purl.org/dc/elements/1.1/" xmlns:rdf="http://www.w3.org/1999/02/22-rdf-syntax-ns#">
   <cc:Work>
    <dc:type rdf:resource="http://purl.org/dc/dcmitype/StillImage"/>
    <dc:date>2023-03-07T12:41:56.017757</dc:date>
    <dc:format>image/svg+xml</dc:format>
    <dc:creator>
     <cc:Agent>
      <dc:title>Matplotlib v3.3.4, https://matplotlib.org/</dc:title>
     </cc:Agent>
    </dc:creator>
   </cc:Work>
  </rdf:RDF>
 </metadata>
 <defs>
  <style type="text/css">*{stroke-linecap:butt;stroke-linejoin:round;}</style>
 </defs>
 <g id="figure_1">
  <g id="patch_1">
   <path d="M 0 280.8 
L 504 280.8 
L 504 0 
L 0 0 
z
" style="fill:#ffffff;"/>
  </g>
  <g id="axes_1">
   <g id="patch_2">
    <path d="M 63 249.912 
L 453.6 249.912 
L 453.6 33.696 
L 63 33.696 
z
" style="fill:#ffffff;"/>
   </g>
   <g id="PathCollection_1">
    <defs>
     <path d="M 0 3 
C 0.795609 3 1.55874 2.683901 2.12132 2.12132 
C 2.683901 1.55874 3 0.795609 3 0 
C 3 -0.795609 2.683901 -1.55874 2.12132 -2.12132 
C 1.55874 -2.683901 0.795609 -3 0 -3 
C -0.795609 -3 -1.55874 -2.683901 -2.12132 -2.12132 
C -2.683901 -1.55874 -3 -0.795609 -3 0 
C -3 0.795609 -2.683901 1.55874 -2.12132 2.12132 
C -1.55874 2.683901 -0.795609 3 0 3 
z
" id="m5249ca888d" style="stroke:#1f77b4;"/>
    </defs>
    <g clip-path="url(#p5c0ca15839)">
     <use style="fill:#1f77b4;stroke:#1f77b4;" x="415.122733" xlink:href="#m5249ca888d" y="208.983616"/>
     <use style="fill:#1f77b4;stroke:#1f77b4;" x="427.462331" xlink:href="#m5249ca888d" y="196.596123"/>
     <use style="fill:#1f77b4;stroke:#1f77b4;" x="427.312927" xlink:href="#m5249ca888d" y="239.081445"/>
     <use style="fill:#1f77b4;stroke:#1f77b4;" x="413.400128" xlink:href="#m5249ca888d" y="210.371101"/>
     <use style="fill:#1f77b4;stroke:#1f77b4;" x="426.660071" xlink:href="#m5249ca888d" y="196.543496"/>
     <use style="fill:#1f77b4;stroke:#1f77b4;" x="429.346981" xlink:href="#m5249ca888d" y="203.582488"/>
     <use style="fill:#1f77b4;stroke:#1f77b4;" x="369.370542" xlink:href="#m5249ca888d" y="68.607039"/>
     <use style="fill:#1f77b4;stroke:#1f77b4;" x="87.19852" xlink:href="#m5249ca888d" y="43.524"/>
     <use style="fill:#1f77b4;stroke:#1f77b4;" x="86.867214" xlink:href="#m5249ca888d" y="44.187463"/>
     <use style="fill:#1f77b4;stroke:#1f77b4;" x="87.757647" xlink:href="#m5249ca888d" y="43.661176"/>
     <use style="fill:#1f77b4;stroke:#1f77b4;" x="86.048761" xlink:href="#m5249ca888d" y="45.896869"/>
     <use style="fill:#1f77b4;stroke:#1f77b4;" x="95.578608" xlink:href="#m5249ca888d" y="49.691798"/>
     <use style="fill:#1f77b4;stroke:#1f77b4;" x="84.572312" xlink:href="#m5249ca888d" y="47.277759"/>
     <use style="fill:#1f77b4;stroke:#1f77b4;" x="80.754545" xlink:href="#m5249ca888d" y="47.782585"/>
     <use style="fill:#1f77b4;stroke:#1f77b4;" x="80.773188" xlink:href="#m5249ca888d" y="48.083905"/>
     <use style="fill:#1f77b4;stroke:#1f77b4;" x="84.713879" xlink:href="#m5249ca888d" y="49.547762"/>
     <use style="fill:#1f77b4;stroke:#1f77b4;" x="365.885421" xlink:href="#m5249ca888d" y="73.940133"/>
     <use style="fill:#1f77b4;stroke:#1f77b4;" x="428.226769" xlink:href="#m5249ca888d" y="195.938932"/>
     <use style="fill:#1f77b4;stroke:#1f77b4;" x="427.551294" xlink:href="#m5249ca888d" y="198.95935"/>
     <use style="fill:#1f77b4;stroke:#1f77b4;" x="430.409548" xlink:href="#m5249ca888d" y="205.262277"/>
     <use style="fill:#1f77b4;stroke:#1f77b4;" x="435.845455" xlink:href="#m5249ca888d" y="209.441852"/>
     <use style="fill:#1f77b4;stroke:#1f77b4;" x="430.107842" xlink:href="#m5249ca888d" y="205.355203"/>
     <use style="fill:#1f77b4;stroke:#1f77b4;" x="435.381547" xlink:href="#m5249ca888d" y="209.07572"/>
     <use style="fill:#1f77b4;stroke:#1f77b4;" x="435.761768" xlink:href="#m5249ca888d" y="209.378961"/>
     <use style="fill:#1f77b4;stroke:#1f77b4;" x="101.697095" xlink:href="#m5249ca888d" y="199.339754"/>
     <use style="fill:#1f77b4;stroke:#1f77b4;" x="103.93317" xlink:href="#m5249ca888d" y="200.916393"/>
     <use style="fill:#1f77b4;stroke:#1f77b4;" x="430.973598" xlink:href="#m5249ca888d" y="198.024472"/>
     <use style="fill:#1f77b4;stroke:#1f77b4;" x="430.80868" xlink:href="#m5249ca888d" y="198.327659"/>
     <use style="fill:#1f77b4;stroke:#1f77b4;" x="125.646524" xlink:href="#m5249ca888d" y="206.403914"/>
     <use style="fill:#1f77b4;stroke:#1f77b4;" x="125.235436" xlink:href="#m5249ca888d" y="206.598524"/>
     <use style="fill:#1f77b4;stroke:#1f77b4;" x="126.819631" xlink:href="#m5249ca888d" y="205.417158"/>
     <use style="fill:#1f77b4;stroke:#1f77b4;" x="124.918441" xlink:href="#m5249ca888d" y="206.749986"/>
     <use style="fill:#1f77b4;stroke:#1f77b4;" x="103.196398" xlink:href="#m5249ca888d" y="200.13854"/>
     <use style="fill:#1f77b4;stroke:#1f77b4;" x="102.101522" xlink:href="#m5249ca888d" y="199.397632"/>
     <use style="fill:#1f77b4;stroke:#1f77b4;" x="103.078599" xlink:href="#m5249ca888d" y="199.98186"/>
     <use style="fill:#1f77b4;stroke:#1f77b4;" x="364.837024" xlink:href="#m5249ca888d" y="71.053007"/>
     <use style="fill:#1f77b4;stroke:#1f77b4;" x="424.526371" xlink:href="#m5249ca888d" y="199.042553"/>
     <use style="fill:#1f77b4;stroke:#1f77b4;" x="427.745048" xlink:href="#m5249ca888d" y="204.967876"/>
     <use style="fill:#1f77b4;stroke:#1f77b4;" x="365.577224" xlink:href="#m5249ca888d" y="69.000593"/>
     <use style="fill:#1f77b4;stroke:#1f77b4;" x="416.713409" xlink:href="#m5249ca888d" y="207.308734"/>
     <use style="fill:#1f77b4;stroke:#1f77b4;" x="417.606095" xlink:href="#m5249ca888d" y="206.595264"/>
     <use style="fill:#1f77b4;stroke:#1f77b4;" x="126.292645" xlink:href="#m5249ca888d" y="205.955332"/>
     <use style="fill:#1f77b4;stroke:#1f77b4;" x="426.000711" xlink:href="#m5249ca888d" y="199.612109"/>
     <use style="fill:#1f77b4;stroke:#1f77b4;" x="426.338044" xlink:href="#m5249ca888d" y="206.521284"/>
     <use style="fill:#1f77b4;stroke:#1f77b4;" x="425.591262" xlink:href="#m5249ca888d" y="198.432955"/>
     <use style="fill:#1f77b4;stroke:#1f77b4;" x="429.116895" xlink:href="#m5249ca888d" y="204.669789"/>
     <use style="fill:#1f77b4;stroke:#1f77b4;" x="125.096226" xlink:href="#m5249ca888d" y="206.579107"/>
     <use style="fill:#1f77b4;stroke:#1f77b4;" x="361.825083" xlink:href="#m5249ca888d" y="69.962878"/>
     <use style="fill:#1f77b4;stroke:#1f77b4;" x="362.366409" xlink:href="#m5249ca888d" y="67.686733"/>
     <use style="fill:#1f77b4;stroke:#1f77b4;" x="416.700245" xlink:href="#m5249ca888d" y="207.615488"/>
     <use style="fill:#1f77b4;stroke:#1f77b4;" x="93.160604" xlink:href="#m5249ca888d" y="48.864082"/>
     <use style="fill:#1f77b4;stroke:#1f77b4;" x="433.009977" xlink:href="#m5249ca888d" y="206.38749"/>
     <use style="fill:#1f77b4;stroke:#1f77b4;" x="422.271425" xlink:href="#m5249ca888d" y="203.432385"/>
     <use style="fill:#1f77b4;stroke:#1f77b4;" x="429.522113" xlink:href="#m5249ca888d" y="204.535164"/>
     <use style="fill:#1f77b4;stroke:#1f77b4;" x="104.011012" xlink:href="#m5249ca888d" y="200.566832"/>
     <use style="fill:#1f77b4;stroke:#1f77b4;" x="103.178304" xlink:href="#m5249ca888d" y="200.165326"/>
     <use style="fill:#1f77b4;stroke:#1f77b4;" x="432.682465" xlink:href="#m5249ca888d" y="206.170566"/>
     <use style="fill:#1f77b4;stroke:#1f77b4;" x="432.507542" xlink:href="#m5249ca888d" y="206.412116"/>
     <use style="fill:#1f77b4;stroke:#1f77b4;" x="112.260907" xlink:href="#m5249ca888d" y="202.855096"/>
     <use style="fill:#1f77b4;stroke:#1f77b4;" x="430.429111" xlink:href="#m5249ca888d" y="202.613491"/>
     <use style="fill:#1f77b4;stroke:#1f77b4;" x="111.697282" xlink:href="#m5249ca888d" y="202.565014"/>
     <use style="fill:#1f77b4;stroke:#1f77b4;" x="426.674019" xlink:href="#m5249ca888d" y="239.387417"/>
     <use style="fill:#1f77b4;stroke:#1f77b4;" x="420.383901" xlink:href="#m5249ca888d" y="206.341318"/>
     <use style="fill:#1f77b4;stroke:#1f77b4;" x="364.740944" xlink:href="#m5249ca888d" y="69.175314"/>
     <use style="fill:#1f77b4;stroke:#1f77b4;" x="427.567906" xlink:href="#m5249ca888d" y="196.863788"/>
     <use style="fill:#1f77b4;stroke:#1f77b4;" x="365.784965" xlink:href="#m5249ca888d" y="75.413649"/>
     <use style="fill:#1f77b4;stroke:#1f77b4;" x="425.674845" xlink:href="#m5249ca888d" y="240.084"/>
     <use style="fill:#1f77b4;stroke:#1f77b4;" x="426.164167" xlink:href="#m5249ca888d" y="239.853226"/>
     <use style="fill:#1f77b4;stroke:#1f77b4;" x="426.157141" xlink:href="#m5249ca888d" y="239.856806"/>
     <use style="fill:#1f77b4;stroke:#1f77b4;" x="364.537552" xlink:href="#m5249ca888d" y="68.694076"/>
     <use style="fill:#1f77b4;stroke:#1f77b4;" x="420.122863" xlink:href="#m5249ca888d" y="206.537955"/>
     <use style="fill:#1f77b4;stroke:#1f77b4;" x="365.869971" xlink:href="#m5249ca888d" y="69.502266"/>
     <use style="fill:#1f77b4;stroke:#1f77b4;" x="367.385044" xlink:href="#m5249ca888d" y="71.14098"/>
     <use style="fill:#1f77b4;stroke:#1f77b4;" x="365.701396" xlink:href="#m5249ca888d" y="75.323949"/>
     <use style="fill:#1f77b4;stroke:#1f77b4;" x="414.159682" xlink:href="#m5249ca888d" y="209.761315"/>
     <use style="fill:#1f77b4;stroke:#1f77b4;" x="420.051583" xlink:href="#m5249ca888d" y="206.62087"/>
     <use style="fill:#1f77b4;stroke:#1f77b4;" x="362.000854" xlink:href="#m5249ca888d" y="67.758087"/>
     <use style="fill:#1f77b4;stroke:#1f77b4;" x="362.123799" xlink:href="#m5249ca888d" y="70.357269"/>
     <use style="fill:#1f77b4;stroke:#1f77b4;" x="367.473642" xlink:href="#m5249ca888d" y="69.138705"/>
     <use style="fill:#1f77b4;stroke:#1f77b4;" x="365.568931" xlink:href="#m5249ca888d" y="70.330591"/>
     <use style="fill:#1f77b4;stroke:#1f77b4;" x="363.065745" xlink:href="#m5249ca888d" y="70.975973"/>
     <use style="fill:#1f77b4;stroke:#1f77b4;" x="364.933732" xlink:href="#m5249ca888d" y="67.757079"/>
     <use style="fill:#1f77b4;stroke:#1f77b4;" x="363.393257" xlink:href="#m5249ca888d" y="67.113342"/>
     <use style="fill:#1f77b4;stroke:#1f77b4;" x="365.847313" xlink:href="#m5249ca888d" y="75.527728"/>
     <use style="fill:#1f77b4;stroke:#1f77b4;" x="429.588796" xlink:href="#m5249ca888d" y="202.134891"/>
     <use style="fill:#1f77b4;stroke:#1f77b4;" x="363.274335" xlink:href="#m5249ca888d" y="71.088189"/>
     <use style="fill:#1f77b4;stroke:#1f77b4;" x="364.176411" xlink:href="#m5249ca888d" y="68.764559"/>
     <use style="fill:#1f77b4;stroke:#1f77b4;" x="364.655951" xlink:href="#m5249ca888d" y="69.53704"/>
     <use style="fill:#1f77b4;stroke:#1f77b4;" x="427.056852" xlink:href="#m5249ca888d" y="199.450189"/>
     <use style="fill:#1f77b4;stroke:#1f77b4;" x="431.127024" xlink:href="#m5249ca888d" y="204.577965"/>
     <use style="fill:#1f77b4;stroke:#1f77b4;" x="368.659113" xlink:href="#m5249ca888d" y="68.580661"/>
     <use style="fill:#1f77b4;stroke:#1f77b4;" x="365.028754" xlink:href="#m5249ca888d" y="75.805641"/>
     <use style="fill:#1f77b4;stroke:#1f77b4;" x="365.532795" xlink:href="#m5249ca888d" y="70.269995"/>
     <use style="fill:#1f77b4;stroke:#1f77b4;" x="366.034054" xlink:href="#m5249ca888d" y="69.475925"/>
     <use style="fill:#1f77b4;stroke:#1f77b4;" x="87.136532" xlink:href="#m5249ca888d" y="43.811209"/>
     <use style="fill:#1f77b4;stroke:#1f77b4;" x="86.592725" xlink:href="#m5249ca888d" y="44.464314"/>
     <use style="fill:#1f77b4;stroke:#1f77b4;" x="87.836051" xlink:href="#m5249ca888d" y="43.756573"/>
     <use style="fill:#1f77b4;stroke:#1f77b4;" x="82.340376" xlink:href="#m5249ca888d" y="46.345223"/>
     <use style="fill:#1f77b4;stroke:#1f77b4;" x="83.175416" xlink:href="#m5249ca888d" y="48.131453"/>
     <use style="fill:#1f77b4;stroke:#1f77b4;" x="87.066388" xlink:href="#m5249ca888d" y="48.20717"/>
     <use style="fill:#1f77b4;stroke:#1f77b4;" x="93.288446" xlink:href="#m5249ca888d" y="49.167737"/>
     <use style="fill:#1f77b4;stroke:#1f77b4;" x="92.546874" xlink:href="#m5249ca888d" y="49.867009"/>
     <use style="fill:#1f77b4;stroke:#1f77b4;" x="88.59349" xlink:href="#m5249ca888d" y="47.585576"/>
     <use style="fill:#1f77b4;stroke:#1f77b4;" x="84.020603" xlink:href="#m5249ca888d" y="50.177288"/>
     <use style="fill:#1f77b4;stroke:#1f77b4;" x="422.561011" xlink:href="#m5249ca888d" y="204.020975"/>
     <use style="fill:#1f77b4;stroke:#1f77b4;" x="423.189028" xlink:href="#m5249ca888d" y="203.207531"/>
     <use style="fill:#1f77b4;stroke:#1f77b4;" x="364.042953" xlink:href="#m5249ca888d" y="69.311781"/>
     <use style="fill:#1f77b4;stroke:#1f77b4;" x="84.190797" xlink:href="#m5249ca888d" y="51.564312"/>
     <use style="fill:#1f77b4;stroke:#1f77b4;" x="85.962383" xlink:href="#m5249ca888d" y="51.975958"/>
     <use style="fill:#1f77b4;stroke:#1f77b4;" x="82.768644" xlink:href="#m5249ca888d" y="50.575741"/>
     <use style="fill:#1f77b4;stroke:#1f77b4;" x="88.065341" xlink:href="#m5249ca888d" y="49.324312"/>
     <use style="fill:#1f77b4;stroke:#1f77b4;" x="86.630017" xlink:href="#m5249ca888d" y="46.018734"/>
     <use style="fill:#1f77b4;stroke:#1f77b4;" x="87.508389" xlink:href="#m5249ca888d" y="44.314517"/>
     <use style="fill:#1f77b4;stroke:#1f77b4;" x="87.615106" xlink:href="#m5249ca888d" y="45.277201"/>
     <use style="fill:#1f77b4;stroke:#1f77b4;" x="94.234186" xlink:href="#m5249ca888d" y="48.476706"/>
     <use style="fill:#1f77b4;stroke:#1f77b4;" x="94.977344" xlink:href="#m5249ca888d" y="48.143048"/>
     <use style="fill:#1f77b4;stroke:#1f77b4;" x="94.513338" xlink:href="#m5249ca888d" y="48.538011"/>
     <use style="fill:#1f77b4;stroke:#1f77b4;" x="80.896472" xlink:href="#m5249ca888d" y="47.638458"/>
     <use style="fill:#1f77b4;stroke:#1f77b4;" x="84.681648" xlink:href="#m5249ca888d" y="48.005681"/>
     <use style="fill:#1f77b4;stroke:#1f77b4;" x="82.351817" xlink:href="#m5249ca888d" y="50.859997"/>
     <use style="fill:#1f77b4;stroke:#1f77b4;" x="84.989263" xlink:href="#m5249ca888d" y="50.282771"/>
     <use style="fill:#1f77b4;stroke:#1f77b4;" x="83.741673" xlink:href="#m5249ca888d" y="51.660036"/>
    </g>
   </g>
   <g id="matplotlib.axis_1">
    <g id="xtick_1">
     <g id="line2d_1">
      <defs>
       <path d="M 0 0 
L 0 3.5 
" id="mf7af75d55b" style="stroke:#000000;stroke-width:0.8;"/>
      </defs>
      <g>
       <use style="stroke:#000000;stroke-width:0.8;" x="103.605579" xlink:href="#mf7af75d55b" y="249.912"/>
      </g>
     </g>
     <g id="text_1">
      <!-- −5 -->
      <g transform="translate(96.234486 264.510438)scale(0.1 -0.1)">
       <defs>
        <path d="M 10.59375 35.5 
L 73.1875 35.5 
L 73.1875 27.203125 
L 10.59375 27.203125 
z
" id="DejaVuSans-8722"/>
        <path d="M 10.796875 72.90625 
L 49.515625 72.90625 
L 49.515625 64.59375 
L 19.828125 64.59375 
L 19.828125 46.734375 
Q 21.96875 47.46875 24.109375 47.828125 
Q 26.265625 48.1875 28.421875 48.1875 
Q 40.625 48.1875 47.75 41.5 
Q 54.890625 34.8125 54.890625 23.390625 
Q 54.890625 11.625 47.5625 5.09375 
Q 40.234375 -1.421875 26.90625 -1.421875 
Q 22.3125 -1.421875 17.546875 -0.640625 
Q 12.796875 0.140625 7.71875 1.703125 
L 7.71875 11.625 
Q 12.109375 9.234375 16.796875 8.0625 
Q 21.484375 6.890625 26.703125 6.890625 
Q 35.15625 6.890625 40.078125 11.328125 
Q 45.015625 15.765625 45.015625 23.390625 
Q 45.015625 31 40.078125 35.4375 
Q 35.15625 39.890625 26.703125 39.890625 
Q 22.75 39.890625 18.8125 39.015625 
Q 14.890625 38.140625 10.796875 36.28125 
z
" id="DejaVuSans-53"/>
       </defs>
       <use xlink:href="#DejaVuSans-8722"/>
       <use x="83.789062" xlink:href="#DejaVuSans-53"/>
      </g>
     </g>
    </g>
    <g id="xtick_2">
     <g id="line2d_2">
      <g>
       <use style="stroke:#000000;stroke-width:0.8;" x="172.076215" xlink:href="#mf7af75d55b" y="249.912"/>
      </g>
     </g>
     <g id="text_2">
      <!-- 0 -->
      <g transform="translate(168.894965 264.510438)scale(0.1 -0.1)">
       <defs>
        <path d="M 31.78125 66.40625 
Q 24.171875 66.40625 20.328125 58.90625 
Q 16.5 51.421875 16.5 36.375 
Q 16.5 21.390625 20.328125 13.890625 
Q 24.171875 6.390625 31.78125 6.390625 
Q 39.453125 6.390625 43.28125 13.890625 
Q 47.125 21.390625 47.125 36.375 
Q 47.125 51.421875 43.28125 58.90625 
Q 39.453125 66.40625 31.78125 66.40625 
z
M 31.78125 74.21875 
Q 44.046875 74.21875 50.515625 64.515625 
Q 56.984375 54.828125 56.984375 36.375 
Q 56.984375 17.96875 50.515625 8.265625 
Q 44.046875 -1.421875 31.78125 -1.421875 
Q 19.53125 -1.421875 13.0625 8.265625 
Q 6.59375 17.96875 6.59375 36.375 
Q 6.59375 54.828125 13.0625 64.515625 
Q 19.53125 74.21875 31.78125 74.21875 
z
" id="DejaVuSans-48"/>
       </defs>
       <use xlink:href="#DejaVuSans-48"/>
      </g>
     </g>
    </g>
    <g id="xtick_3">
     <g id="line2d_3">
      <g>
       <use style="stroke:#000000;stroke-width:0.8;" x="240.546851" xlink:href="#mf7af75d55b" y="249.912"/>
      </g>
     </g>
     <g id="text_3">
      <!-- 5 -->
      <g transform="translate(237.365601 264.510438)scale(0.1 -0.1)">
       <use xlink:href="#DejaVuSans-53"/>
      </g>
     </g>
    </g>
    <g id="xtick_4">
     <g id="line2d_4">
      <g>
       <use style="stroke:#000000;stroke-width:0.8;" x="309.017487" xlink:href="#mf7af75d55b" y="249.912"/>
      </g>
     </g>
     <g id="text_4">
      <!-- 10 -->
      <g transform="translate(302.654987 264.510438)scale(0.1 -0.1)">
       <defs>
        <path d="M 12.40625 8.296875 
L 28.515625 8.296875 
L 28.515625 63.921875 
L 10.984375 60.40625 
L 10.984375 69.390625 
L 28.421875 72.90625 
L 38.28125 72.90625 
L 38.28125 8.296875 
L 54.390625 8.296875 
L 54.390625 0 
L 12.40625 0 
z
" id="DejaVuSans-49"/>
       </defs>
       <use xlink:href="#DejaVuSans-49"/>
       <use x="63.623047" xlink:href="#DejaVuSans-48"/>
      </g>
     </g>
    </g>
    <g id="xtick_5">
     <g id="line2d_5">
      <g>
       <use style="stroke:#000000;stroke-width:0.8;" x="377.488123" xlink:href="#mf7af75d55b" y="249.912"/>
      </g>
     </g>
     <g id="text_5">
      <!-- 15 -->
      <g transform="translate(371.125623 264.510438)scale(0.1 -0.1)">
       <use xlink:href="#DejaVuSans-49"/>
       <use x="63.623047" xlink:href="#DejaVuSans-53"/>
      </g>
     </g>
    </g>
    <g id="xtick_6">
     <g id="line2d_6">
      <g>
       <use style="stroke:#000000;stroke-width:0.8;" x="445.958758" xlink:href="#mf7af75d55b" y="249.912"/>
      </g>
     </g>
     <g id="text_6">
      <!-- 20 -->
      <g transform="translate(439.596258 264.510438)scale(0.1 -0.1)">
       <defs>
        <path d="M 19.1875 8.296875 
L 53.609375 8.296875 
L 53.609375 0 
L 7.328125 0 
L 7.328125 8.296875 
Q 12.9375 14.109375 22.625 23.890625 
Q 32.328125 33.6875 34.8125 36.53125 
Q 39.546875 41.84375 41.421875 45.53125 
Q 43.3125 49.21875 43.3125 52.78125 
Q 43.3125 58.59375 39.234375 62.25 
Q 35.15625 65.921875 28.609375 65.921875 
Q 23.96875 65.921875 18.8125 64.3125 
Q 13.671875 62.703125 7.8125 59.421875 
L 7.8125 69.390625 
Q 13.765625 71.78125 18.9375 73 
Q 24.125 74.21875 28.421875 74.21875 
Q 39.75 74.21875 46.484375 68.546875 
Q 53.21875 62.890625 53.21875 53.421875 
Q 53.21875 48.921875 51.53125 44.890625 
Q 49.859375 40.875 45.40625 35.40625 
Q 44.1875 33.984375 37.640625 27.21875 
Q 31.109375 20.453125 19.1875 8.296875 
z
" id="DejaVuSans-50"/>
       </defs>
       <use xlink:href="#DejaVuSans-50"/>
       <use x="63.623047" xlink:href="#DejaVuSans-48"/>
      </g>
     </g>
    </g>
   </g>
   <g id="matplotlib.axis_2">
    <g id="ytick_1">
     <g id="line2d_7">
      <defs>
       <path d="M 0 0 
L -3.5 0 
" id="m80a3ec7f11" style="stroke:#000000;stroke-width:0.8;"/>
      </defs>
      <g>
       <use style="stroke:#000000;stroke-width:0.8;" x="63" xlink:href="#m80a3ec7f11" y="220.177672"/>
      </g>
     </g>
     <g id="text_7">
      <!-- −5 -->
      <g transform="translate(41.257812 223.97689)scale(0.1 -0.1)">
       <use xlink:href="#DejaVuSans-8722"/>
       <use x="83.789062" xlink:href="#DejaVuSans-53"/>
      </g>
     </g>
    </g>
    <g id="ytick_2">
     <g id="line2d_8">
      <g>
       <use style="stroke:#000000;stroke-width:0.8;" x="63" xlink:href="#m80a3ec7f11" y="172.539294"/>
      </g>
     </g>
     <g id="text_8">
      <!-- 0 -->
      <g transform="translate(49.6375 176.338513)scale(0.1 -0.1)">
       <use xlink:href="#DejaVuSans-48"/>
      </g>
     </g>
    </g>
    <g id="ytick_3">
     <g id="line2d_9">
      <g>
       <use style="stroke:#000000;stroke-width:0.8;" x="63" xlink:href="#m80a3ec7f11" y="124.900916"/>
      </g>
     </g>
     <g id="text_9">
      <!-- 5 -->
      <g transform="translate(49.6375 128.700135)scale(0.1 -0.1)">
       <use xlink:href="#DejaVuSans-53"/>
      </g>
     </g>
    </g>
    <g id="ytick_4">
     <g id="line2d_10">
      <g>
       <use style="stroke:#000000;stroke-width:0.8;" x="63" xlink:href="#m80a3ec7f11" y="77.262538"/>
      </g>
     </g>
     <g id="text_10">
      <!-- 10 -->
      <g transform="translate(43.275 81.061757)scale(0.1 -0.1)">
       <use xlink:href="#DejaVuSans-49"/>
       <use x="63.623047" xlink:href="#DejaVuSans-48"/>
      </g>
     </g>
    </g>
   </g>
   <g id="patch_3">
    <path d="M 63 249.912 
L 63 33.696 
" style="fill:none;stroke:#000000;stroke-linecap:square;stroke-linejoin:miter;stroke-width:0.8;"/>
   </g>
   <g id="patch_4">
    <path d="M 453.6 249.912 
L 453.6 33.696 
" style="fill:none;stroke:#000000;stroke-linecap:square;stroke-linejoin:miter;stroke-width:0.8;"/>
   </g>
   <g id="patch_5">
    <path d="M 63 249.912 
L 453.6 249.912 
" style="fill:none;stroke:#000000;stroke-linecap:square;stroke-linejoin:miter;stroke-width:0.8;"/>
   </g>
   <g id="patch_6">
    <path d="M 63 33.696 
L 453.6 33.696 
" style="fill:none;stroke:#000000;stroke-linecap:square;stroke-linejoin:miter;stroke-width:0.8;"/>
   </g>
   <g id="text_11">
    <!-- UMAP projection of the phylogenetic dataset -->
    <g transform="translate(124.38375 27.696)scale(0.12 -0.12)">
     <defs>
      <path d="M 8.6875 72.90625 
L 18.609375 72.90625 
L 18.609375 28.609375 
Q 18.609375 16.890625 22.84375 11.734375 
Q 27.09375 6.59375 36.625 6.59375 
Q 46.09375 6.59375 50.34375 11.734375 
Q 54.59375 16.890625 54.59375 28.609375 
L 54.59375 72.90625 
L 64.5 72.90625 
L 64.5 27.390625 
Q 64.5 13.140625 57.4375 5.859375 
Q 50.390625 -1.421875 36.625 -1.421875 
Q 22.796875 -1.421875 15.734375 5.859375 
Q 8.6875 13.140625 8.6875 27.390625 
z
" id="DejaVuSans-85"/>
      <path d="M 9.8125 72.90625 
L 24.515625 72.90625 
L 43.109375 23.296875 
L 61.8125 72.90625 
L 76.515625 72.90625 
L 76.515625 0 
L 66.890625 0 
L 66.890625 64.015625 
L 48.09375 14.015625 
L 38.1875 14.015625 
L 19.390625 64.015625 
L 19.390625 0 
L 9.8125 0 
z
" id="DejaVuSans-77"/>
      <path d="M 34.1875 63.1875 
L 20.796875 26.90625 
L 47.609375 26.90625 
z
M 28.609375 72.90625 
L 39.796875 72.90625 
L 67.578125 0 
L 57.328125 0 
L 50.6875 18.703125 
L 17.828125 18.703125 
L 11.1875 0 
L 0.78125 0 
z
" id="DejaVuSans-65"/>
      <path d="M 19.671875 64.796875 
L 19.671875 37.40625 
L 32.078125 37.40625 
Q 38.96875 37.40625 42.71875 40.96875 
Q 46.484375 44.53125 46.484375 51.125 
Q 46.484375 57.671875 42.71875 61.234375 
Q 38.96875 64.796875 32.078125 64.796875 
z
M 9.8125 72.90625 
L 32.078125 72.90625 
Q 44.34375 72.90625 50.609375 67.359375 
Q 56.890625 61.8125 56.890625 51.125 
Q 56.890625 40.328125 50.609375 34.8125 
Q 44.34375 29.296875 32.078125 29.296875 
L 19.671875 29.296875 
L 19.671875 0 
L 9.8125 0 
z
" id="DejaVuSans-80"/>
      <path id="DejaVuSans-32"/>
      <path d="M 18.109375 8.203125 
L 18.109375 -20.796875 
L 9.078125 -20.796875 
L 9.078125 54.6875 
L 18.109375 54.6875 
L 18.109375 46.390625 
Q 20.953125 51.265625 25.265625 53.625 
Q 29.59375 56 35.59375 56 
Q 45.5625 56 51.78125 48.09375 
Q 58.015625 40.1875 58.015625 27.296875 
Q 58.015625 14.40625 51.78125 6.484375 
Q 45.5625 -1.421875 35.59375 -1.421875 
Q 29.59375 -1.421875 25.265625 0.953125 
Q 20.953125 3.328125 18.109375 8.203125 
z
M 48.6875 27.296875 
Q 48.6875 37.203125 44.609375 42.84375 
Q 40.53125 48.484375 33.40625 48.484375 
Q 26.265625 48.484375 22.1875 42.84375 
Q 18.109375 37.203125 18.109375 27.296875 
Q 18.109375 17.390625 22.1875 11.75 
Q 26.265625 6.109375 33.40625 6.109375 
Q 40.53125 6.109375 44.609375 11.75 
Q 48.6875 17.390625 48.6875 27.296875 
z
" id="DejaVuSans-112"/>
      <path d="M 41.109375 46.296875 
Q 39.59375 47.171875 37.8125 47.578125 
Q 36.03125 48 33.890625 48 
Q 26.265625 48 22.1875 43.046875 
Q 18.109375 38.09375 18.109375 28.8125 
L 18.109375 0 
L 9.078125 0 
L 9.078125 54.6875 
L 18.109375 54.6875 
L 18.109375 46.1875 
Q 20.953125 51.171875 25.484375 53.578125 
Q 30.03125 56 36.53125 56 
Q 37.453125 56 38.578125 55.875 
Q 39.703125 55.765625 41.0625 55.515625 
z
" id="DejaVuSans-114"/>
      <path d="M 30.609375 48.390625 
Q 23.390625 48.390625 19.1875 42.75 
Q 14.984375 37.109375 14.984375 27.296875 
Q 14.984375 17.484375 19.15625 11.84375 
Q 23.34375 6.203125 30.609375 6.203125 
Q 37.796875 6.203125 41.984375 11.859375 
Q 46.1875 17.53125 46.1875 27.296875 
Q 46.1875 37.015625 41.984375 42.703125 
Q 37.796875 48.390625 30.609375 48.390625 
z
M 30.609375 56 
Q 42.328125 56 49.015625 48.375 
Q 55.71875 40.765625 55.71875 27.296875 
Q 55.71875 13.875 49.015625 6.21875 
Q 42.328125 -1.421875 30.609375 -1.421875 
Q 18.84375 -1.421875 12.171875 6.21875 
Q 5.515625 13.875 5.515625 27.296875 
Q 5.515625 40.765625 12.171875 48.375 
Q 18.84375 56 30.609375 56 
z
" id="DejaVuSans-111"/>
      <path d="M 9.421875 54.6875 
L 18.40625 54.6875 
L 18.40625 -0.984375 
Q 18.40625 -11.421875 14.421875 -16.109375 
Q 10.453125 -20.796875 1.609375 -20.796875 
L -1.8125 -20.796875 
L -1.8125 -13.1875 
L 0.59375 -13.1875 
Q 5.71875 -13.1875 7.5625 -10.8125 
Q 9.421875 -8.453125 9.421875 -0.984375 
z
M 9.421875 75.984375 
L 18.40625 75.984375 
L 18.40625 64.59375 
L 9.421875 64.59375 
z
" id="DejaVuSans-106"/>
      <path d="M 56.203125 29.59375 
L 56.203125 25.203125 
L 14.890625 25.203125 
Q 15.484375 15.921875 20.484375 11.0625 
Q 25.484375 6.203125 34.421875 6.203125 
Q 39.59375 6.203125 44.453125 7.46875 
Q 49.3125 8.734375 54.109375 11.28125 
L 54.109375 2.78125 
Q 49.265625 0.734375 44.1875 -0.34375 
Q 39.109375 -1.421875 33.890625 -1.421875 
Q 20.796875 -1.421875 13.15625 6.1875 
Q 5.515625 13.8125 5.515625 26.8125 
Q 5.515625 40.234375 12.765625 48.109375 
Q 20.015625 56 32.328125 56 
Q 43.359375 56 49.78125 48.890625 
Q 56.203125 41.796875 56.203125 29.59375 
z
M 47.21875 32.234375 
Q 47.125 39.59375 43.09375 43.984375 
Q 39.0625 48.390625 32.421875 48.390625 
Q 24.90625 48.390625 20.390625 44.140625 
Q 15.875 39.890625 15.1875 32.171875 
z
" id="DejaVuSans-101"/>
      <path d="M 48.78125 52.59375 
L 48.78125 44.1875 
Q 44.96875 46.296875 41.140625 47.34375 
Q 37.3125 48.390625 33.40625 48.390625 
Q 24.65625 48.390625 19.8125 42.84375 
Q 14.984375 37.3125 14.984375 27.296875 
Q 14.984375 17.28125 19.8125 11.734375 
Q 24.65625 6.203125 33.40625 6.203125 
Q 37.3125 6.203125 41.140625 7.25 
Q 44.96875 8.296875 48.78125 10.40625 
L 48.78125 2.09375 
Q 45.015625 0.34375 40.984375 -0.53125 
Q 36.96875 -1.421875 32.421875 -1.421875 
Q 20.0625 -1.421875 12.78125 6.34375 
Q 5.515625 14.109375 5.515625 27.296875 
Q 5.515625 40.671875 12.859375 48.328125 
Q 20.21875 56 33.015625 56 
Q 37.15625 56 41.109375 55.140625 
Q 45.0625 54.296875 48.78125 52.59375 
z
" id="DejaVuSans-99"/>
      <path d="M 18.3125 70.21875 
L 18.3125 54.6875 
L 36.8125 54.6875 
L 36.8125 47.703125 
L 18.3125 47.703125 
L 18.3125 18.015625 
Q 18.3125 11.328125 20.140625 9.421875 
Q 21.96875 7.515625 27.59375 7.515625 
L 36.8125 7.515625 
L 36.8125 0 
L 27.59375 0 
Q 17.1875 0 13.234375 3.875 
Q 9.28125 7.765625 9.28125 18.015625 
L 9.28125 47.703125 
L 2.6875 47.703125 
L 2.6875 54.6875 
L 9.28125 54.6875 
L 9.28125 70.21875 
z
" id="DejaVuSans-116"/>
      <path d="M 9.421875 54.6875 
L 18.40625 54.6875 
L 18.40625 0 
L 9.421875 0 
z
M 9.421875 75.984375 
L 18.40625 75.984375 
L 18.40625 64.59375 
L 9.421875 64.59375 
z
" id="DejaVuSans-105"/>
      <path d="M 54.890625 33.015625 
L 54.890625 0 
L 45.90625 0 
L 45.90625 32.71875 
Q 45.90625 40.484375 42.875 44.328125 
Q 39.84375 48.1875 33.796875 48.1875 
Q 26.515625 48.1875 22.3125 43.546875 
Q 18.109375 38.921875 18.109375 30.90625 
L 18.109375 0 
L 9.078125 0 
L 9.078125 54.6875 
L 18.109375 54.6875 
L 18.109375 46.1875 
Q 21.34375 51.125 25.703125 53.5625 
Q 30.078125 56 35.796875 56 
Q 45.21875 56 50.046875 50.171875 
Q 54.890625 44.34375 54.890625 33.015625 
z
" id="DejaVuSans-110"/>
      <path d="M 37.109375 75.984375 
L 37.109375 68.5 
L 28.515625 68.5 
Q 23.6875 68.5 21.796875 66.546875 
Q 19.921875 64.59375 19.921875 59.515625 
L 19.921875 54.6875 
L 34.71875 54.6875 
L 34.71875 47.703125 
L 19.921875 47.703125 
L 19.921875 0 
L 10.890625 0 
L 10.890625 47.703125 
L 2.296875 47.703125 
L 2.296875 54.6875 
L 10.890625 54.6875 
L 10.890625 58.5 
Q 10.890625 67.625 15.140625 71.796875 
Q 19.390625 75.984375 28.609375 75.984375 
z
" id="DejaVuSans-102"/>
      <path d="M 54.890625 33.015625 
L 54.890625 0 
L 45.90625 0 
L 45.90625 32.71875 
Q 45.90625 40.484375 42.875 44.328125 
Q 39.84375 48.1875 33.796875 48.1875 
Q 26.515625 48.1875 22.3125 43.546875 
Q 18.109375 38.921875 18.109375 30.90625 
L 18.109375 0 
L 9.078125 0 
L 9.078125 75.984375 
L 18.109375 75.984375 
L 18.109375 46.1875 
Q 21.34375 51.125 25.703125 53.5625 
Q 30.078125 56 35.796875 56 
Q 45.21875 56 50.046875 50.171875 
Q 54.890625 44.34375 54.890625 33.015625 
z
" id="DejaVuSans-104"/>
      <path d="M 32.171875 -5.078125 
Q 28.375 -14.84375 24.75 -17.8125 
Q 21.140625 -20.796875 15.09375 -20.796875 
L 7.90625 -20.796875 
L 7.90625 -13.28125 
L 13.1875 -13.28125 
Q 16.890625 -13.28125 18.9375 -11.515625 
Q 21 -9.765625 23.484375 -3.21875 
L 25.09375 0.875 
L 2.984375 54.6875 
L 12.5 54.6875 
L 29.59375 11.921875 
L 46.6875 54.6875 
L 56.203125 54.6875 
z
" id="DejaVuSans-121"/>
      <path d="M 9.421875 75.984375 
L 18.40625 75.984375 
L 18.40625 0 
L 9.421875 0 
z
" id="DejaVuSans-108"/>
      <path d="M 45.40625 27.984375 
Q 45.40625 37.75 41.375 43.109375 
Q 37.359375 48.484375 30.078125 48.484375 
Q 22.859375 48.484375 18.828125 43.109375 
Q 14.796875 37.75 14.796875 27.984375 
Q 14.796875 18.265625 18.828125 12.890625 
Q 22.859375 7.515625 30.078125 7.515625 
Q 37.359375 7.515625 41.375 12.890625 
Q 45.40625 18.265625 45.40625 27.984375 
z
M 54.390625 6.78125 
Q 54.390625 -7.171875 48.1875 -13.984375 
Q 42 -20.796875 29.203125 -20.796875 
Q 24.46875 -20.796875 20.265625 -20.09375 
Q 16.0625 -19.390625 12.109375 -17.921875 
L 12.109375 -9.1875 
Q 16.0625 -11.328125 19.921875 -12.34375 
Q 23.78125 -13.375 27.78125 -13.375 
Q 36.625 -13.375 41.015625 -8.765625 
Q 45.40625 -4.15625 45.40625 5.171875 
L 45.40625 9.625 
Q 42.625 4.78125 38.28125 2.390625 
Q 33.9375 0 27.875 0 
Q 17.828125 0 11.671875 7.65625 
Q 5.515625 15.328125 5.515625 27.984375 
Q 5.515625 40.671875 11.671875 48.328125 
Q 17.828125 56 27.875 56 
Q 33.9375 56 38.28125 53.609375 
Q 42.625 51.21875 45.40625 46.390625 
L 45.40625 54.6875 
L 54.390625 54.6875 
z
" id="DejaVuSans-103"/>
      <path d="M 45.40625 46.390625 
L 45.40625 75.984375 
L 54.390625 75.984375 
L 54.390625 0 
L 45.40625 0 
L 45.40625 8.203125 
Q 42.578125 3.328125 38.25 0.953125 
Q 33.9375 -1.421875 27.875 -1.421875 
Q 17.96875 -1.421875 11.734375 6.484375 
Q 5.515625 14.40625 5.515625 27.296875 
Q 5.515625 40.1875 11.734375 48.09375 
Q 17.96875 56 27.875 56 
Q 33.9375 56 38.25 53.625 
Q 42.578125 51.265625 45.40625 46.390625 
z
M 14.796875 27.296875 
Q 14.796875 17.390625 18.875 11.75 
Q 22.953125 6.109375 30.078125 6.109375 
Q 37.203125 6.109375 41.296875 11.75 
Q 45.40625 17.390625 45.40625 27.296875 
Q 45.40625 37.203125 41.296875 42.84375 
Q 37.203125 48.484375 30.078125 48.484375 
Q 22.953125 48.484375 18.875 42.84375 
Q 14.796875 37.203125 14.796875 27.296875 
z
" id="DejaVuSans-100"/>
      <path d="M 34.28125 27.484375 
Q 23.390625 27.484375 19.1875 25 
Q 14.984375 22.515625 14.984375 16.5 
Q 14.984375 11.71875 18.140625 8.90625 
Q 21.296875 6.109375 26.703125 6.109375 
Q 34.1875 6.109375 38.703125 11.40625 
Q 43.21875 16.703125 43.21875 25.484375 
L 43.21875 27.484375 
z
M 52.203125 31.203125 
L 52.203125 0 
L 43.21875 0 
L 43.21875 8.296875 
Q 40.140625 3.328125 35.546875 0.953125 
Q 30.953125 -1.421875 24.3125 -1.421875 
Q 15.921875 -1.421875 10.953125 3.296875 
Q 6 8.015625 6 15.921875 
Q 6 25.140625 12.171875 29.828125 
Q 18.359375 34.515625 30.609375 34.515625 
L 43.21875 34.515625 
L 43.21875 35.40625 
Q 43.21875 41.609375 39.140625 45 
Q 35.0625 48.390625 27.6875 48.390625 
Q 23 48.390625 18.546875 47.265625 
Q 14.109375 46.140625 10.015625 43.890625 
L 10.015625 52.203125 
Q 14.9375 54.109375 19.578125 55.046875 
Q 24.21875 56 28.609375 56 
Q 40.484375 56 46.34375 49.84375 
Q 52.203125 43.703125 52.203125 31.203125 
z
" id="DejaVuSans-97"/>
      <path d="M 44.28125 53.078125 
L 44.28125 44.578125 
Q 40.484375 46.53125 36.375 47.5 
Q 32.28125 48.484375 27.875 48.484375 
Q 21.1875 48.484375 17.84375 46.4375 
Q 14.5 44.390625 14.5 40.28125 
Q 14.5 37.15625 16.890625 35.375 
Q 19.28125 33.59375 26.515625 31.984375 
L 29.59375 31.296875 
Q 39.15625 29.25 43.1875 25.515625 
Q 47.21875 21.78125 47.21875 15.09375 
Q 47.21875 7.46875 41.1875 3.015625 
Q 35.15625 -1.421875 24.609375 -1.421875 
Q 20.21875 -1.421875 15.453125 -0.5625 
Q 10.6875 0.296875 5.421875 2 
L 5.421875 11.28125 
Q 10.40625 8.6875 15.234375 7.390625 
Q 20.0625 6.109375 24.8125 6.109375 
Q 31.15625 6.109375 34.5625 8.28125 
Q 37.984375 10.453125 37.984375 14.40625 
Q 37.984375 18.0625 35.515625 20.015625 
Q 33.0625 21.96875 24.703125 23.78125 
L 21.578125 24.515625 
Q 13.234375 26.265625 9.515625 29.90625 
Q 5.8125 33.546875 5.8125 39.890625 
Q 5.8125 47.609375 11.28125 51.796875 
Q 16.75 56 26.8125 56 
Q 31.78125 56 36.171875 55.265625 
Q 40.578125 54.546875 44.28125 53.078125 
z
" id="DejaVuSans-115"/>
     </defs>
     <use xlink:href="#DejaVuSans-85"/>
     <use x="73.193359" xlink:href="#DejaVuSans-77"/>
     <use x="159.472656" xlink:href="#DejaVuSans-65"/>
     <use x="227.880859" xlink:href="#DejaVuSans-80"/>
     <use x="288.183594" xlink:href="#DejaVuSans-32"/>
     <use x="319.970703" xlink:href="#DejaVuSans-112"/>
     <use x="383.447266" xlink:href="#DejaVuSans-114"/>
     <use x="422.310547" xlink:href="#DejaVuSans-111"/>
     <use x="483.492188" xlink:href="#DejaVuSans-106"/>
     <use x="511.275391" xlink:href="#DejaVuSans-101"/>
     <use x="572.798828" xlink:href="#DejaVuSans-99"/>
     <use x="627.779297" xlink:href="#DejaVuSans-116"/>
     <use x="666.988281" xlink:href="#DejaVuSans-105"/>
     <use x="694.771484" xlink:href="#DejaVuSans-111"/>
     <use x="755.953125" xlink:href="#DejaVuSans-110"/>
     <use x="819.332031" xlink:href="#DejaVuSans-32"/>
     <use x="851.119141" xlink:href="#DejaVuSans-111"/>
     <use x="912.300781" xlink:href="#DejaVuSans-102"/>
     <use x="947.505859" xlink:href="#DejaVuSans-32"/>
     <use x="979.292969" xlink:href="#DejaVuSans-116"/>
     <use x="1018.501953" xlink:href="#DejaVuSans-104"/>
     <use x="1081.880859" xlink:href="#DejaVuSans-101"/>
     <use x="1143.404297" xlink:href="#DejaVuSans-32"/>
     <use x="1175.191406" xlink:href="#DejaVuSans-112"/>
     <use x="1238.667969" xlink:href="#DejaVuSans-104"/>
     <use x="1302.046875" xlink:href="#DejaVuSans-121"/>
     <use x="1361.226562" xlink:href="#DejaVuSans-108"/>
     <use x="1389.009766" xlink:href="#DejaVuSans-111"/>
     <use x="1450.191406" xlink:href="#DejaVuSans-103"/>
     <use x="1513.667969" xlink:href="#DejaVuSans-101"/>
     <use x="1575.191406" xlink:href="#DejaVuSans-110"/>
     <use x="1638.570312" xlink:href="#DejaVuSans-101"/>
     <use x="1700.09375" xlink:href="#DejaVuSans-116"/>
     <use x="1739.302734" xlink:href="#DejaVuSans-105"/>
     <use x="1767.085938" xlink:href="#DejaVuSans-99"/>
     <use x="1822.066406" xlink:href="#DejaVuSans-32"/>
     <use x="1853.853516" xlink:href="#DejaVuSans-100"/>
     <use x="1917.330078" xlink:href="#DejaVuSans-97"/>
     <use x="1978.609375" xlink:href="#DejaVuSans-116"/>
     <use x="2017.818359" xlink:href="#DejaVuSans-97"/>
     <use x="2079.097656" xlink:href="#DejaVuSans-115"/>
     <use x="2131.197266" xlink:href="#DejaVuSans-101"/>
     <use x="2192.720703" xlink:href="#DejaVuSans-116"/>
    </g>
   </g>
  </g>
 </g>
 <defs>
  <clipPath id="p5c0ca15839">
   <rect height="216.216" width="390.6" x="63" y="33.696"/>
  </clipPath>
 </defs>
</svg>
