<?xml version="1.0" encoding="utf-8" standalone="no"?>
<!DOCTYPE svg PUBLIC "-//W3C//DTD SVG 1.1//EN"
  "http://www.w3.org/Graphics/SVG/1.1/DTD/svg11.dtd">
<!-- Created with matplotlib (https://matplotlib.org/) -->
<svg height="280.8pt" version="1.1" viewBox="0 0 504 280.8" width="504pt" xmlns="http://www.w3.org/2000/svg" xmlns:xlink="http://www.w3.org/1999/xlink">
 <metadata>
  <rdf:RDF xmlns:cc="http://creativecommons.org/ns#" xmlns:dc="http://purl.org/dc/elements/1.1/" xmlns:rdf="http://www.w3.org/1999/02/22-rdf-syntax-ns#">
   <cc:Work>
    <dc:type rdf:resource="http://purl.org/dc/dcmitype/StillImage"/>
    <dc:date>2023-03-07T13:03:39.984557</dc:date>
    <dc:format>image/svg+xml</dc:format>
    <dc:creator>
     <cc:Agent>
      <dc:title>Matplotlib v3.3.4, https://matplotlib.org/</dc:title>
     </cc:Agent>
    </dc:creator>
   </cc:Work>
  </rdf:RDF>
 </metadata>
 <defs>
  <style type="text/css">*{stroke-linecap:butt;stroke-linejoin:round;}</style>
 </defs>
 <g id="figure_1">
  <g id="patch_1">
   <path d="M 0 280.8 
L 504 280.8 
L 504 0 
L 0 0 
z
" style="fill:#ffffff;"/>
  </g>
  <g id="axes_1">
   <g id="patch_2">
    <path d="M 63 249.912 
L 453.6 249.912 
L 453.6 33.696 
L 63 33.696 
z
" style="fill:#ffffff;"/>
   </g>
   <g id="PathCollection_1">
    <defs>
     <path d="M 0 3 
C 0.795609 3 1.55874 2.683901 2.12132 2.12132 
C 2.683901 1.55874 3 0.795609 3 0 
C 3 -0.795609 2.683901 -1.55874 2.12132 -2.12132 
C 1.55874 -2.683901 0.795609 -3 0 -3 
C -0.795609 -3 -1.55874 -2.683901 -2.12132 -2.12132 
C -2.683901 -1.55874 -3 -0.795609 -3 0 
C -3 0.795609 -2.683901 1.55874 -2.12132 2.12132 
C -1.55874 2.683901 -0.795609 3 0 3 
z
" id="mfef9520833" style="stroke:#1f77b4;"/>
    </defs>
    <g clip-path="url(#p6bf3e05272)">
     <use style="fill:#1f77b4;stroke:#1f77b4;" x="166.82583" xlink:href="#mfef9520833" y="238.479654"/>
     <use style="fill:#1f77b4;stroke:#1f77b4;" x="242.33004" xlink:href="#mfef9520833" y="208.041612"/>
     <use style="fill:#1f77b4;stroke:#1f77b4;" x="243.857221" xlink:href="#mfef9520833" y="208.451498"/>
     <use style="fill:#1f77b4;stroke:#1f77b4;" x="434.113597" xlink:href="#mfef9520833" y="209.642866"/>
     <use style="fill:#1f77b4;stroke:#1f77b4;" x="398.289683" xlink:href="#mfef9520833" y="176.266283"/>
     <use style="fill:#1f77b4;stroke:#1f77b4;" x="379.435236" xlink:href="#mfef9520833" y="44.574807"/>
     <use style="fill:#1f77b4;stroke:#1f77b4;" x="407.422522" xlink:href="#mfef9520833" y="86.368578"/>
     <use style="fill:#1f77b4;stroke:#1f77b4;" x="434.71779" xlink:href="#mfef9520833" y="214.061502"/>
     <use style="fill:#1f77b4;stroke:#1f77b4;" x="410.052429" xlink:href="#mfef9520833" y="88.051539"/>
     <use style="fill:#1f77b4;stroke:#1f77b4;" x="408.023773" xlink:href="#mfef9520833" y="87.916267"/>
     <use style="fill:#1f77b4;stroke:#1f77b4;" x="82.138826" xlink:href="#mfef9520833" y="60.323035"/>
     <use style="fill:#1f77b4;stroke:#1f77b4;" x="247.339645" xlink:href="#mfef9520833" y="215.429964"/>
     <use style="fill:#1f77b4;stroke:#1f77b4;" x="409.941322" xlink:href="#mfef9520833" y="86.625689"/>
     <use style="fill:#1f77b4;stroke:#1f77b4;" x="420.325413" xlink:href="#mfef9520833" y="196.683819"/>
     <use style="fill:#1f77b4;stroke:#1f77b4;" x="411.438003" xlink:href="#mfef9520833" y="101.434013"/>
     <use style="fill:#1f77b4;stroke:#1f77b4;" x="385.243829" xlink:href="#mfef9520833" y="50.910976"/>
     <use style="fill:#1f77b4;stroke:#1f77b4;" x="412.776757" xlink:href="#mfef9520833" y="101.974189"/>
     <use style="fill:#1f77b4;stroke:#1f77b4;" x="168.285492" xlink:href="#mfef9520833" y="235.846448"/>
     <use style="fill:#1f77b4;stroke:#1f77b4;" x="414.228801" xlink:href="#mfef9520833" y="103.116088"/>
     <use style="fill:#1f77b4;stroke:#1f77b4;" x="166.208668" xlink:href="#mfef9520833" y="238.919258"/>
     <use style="fill:#1f77b4;stroke:#1f77b4;" x="433.316449" xlink:href="#mfef9520833" y="212.370975"/>
     <use style="fill:#1f77b4;stroke:#1f77b4;" x="435.543071" xlink:href="#mfef9520833" y="212.947082"/>
     <use style="fill:#1f77b4;stroke:#1f77b4;" x="245.580287" xlink:href="#mfef9520833" y="213.889422"/>
     <use style="fill:#1f77b4;stroke:#1f77b4;" x="249.621809" xlink:href="#mfef9520833" y="213.454113"/>
     <use style="fill:#1f77b4;stroke:#1f77b4;" x="434.149453" xlink:href="#mfef9520833" y="213.111763"/>
     <use style="fill:#1f77b4;stroke:#1f77b4;" x="231.418467" xlink:href="#mfef9520833" y="208.431788"/>
     <use style="fill:#1f77b4;stroke:#1f77b4;" x="166.312185" xlink:href="#mfef9520833" y="238.792178"/>
     <use style="fill:#1f77b4;stroke:#1f77b4;" x="215.883048" xlink:href="#mfef9520833" y="208.326185"/>
     <use style="fill:#1f77b4;stroke:#1f77b4;" x="216.93599" xlink:href="#mfef9520833" y="208.474916"/>
     <use style="fill:#1f77b4;stroke:#1f77b4;" x="383.837615" xlink:href="#mfef9520833" y="43.524"/>
     <use style="fill:#1f77b4;stroke:#1f77b4;" x="406.482134" xlink:href="#mfef9520833" y="98.290401"/>
     <use style="fill:#1f77b4;stroke:#1f77b4;" x="384.533126" xlink:href="#mfef9520833" y="47.216879"/>
     <use style="fill:#1f77b4;stroke:#1f77b4;" x="384.204402" xlink:href="#mfef9520833" y="47.481611"/>
     <use style="fill:#1f77b4;stroke:#1f77b4;" x="215.305523" xlink:href="#mfef9520833" y="208.034312"/>
     <use style="fill:#1f77b4;stroke:#1f77b4;" x="377.658996" xlink:href="#mfef9520833" y="45.570996"/>
     <use style="fill:#1f77b4;stroke:#1f77b4;" x="413.113686" xlink:href="#mfef9520833" y="102.558399"/>
     <use style="fill:#1f77b4;stroke:#1f77b4;" x="383.223171" xlink:href="#mfef9520833" y="51.965696"/>
     <use style="fill:#1f77b4;stroke:#1f77b4;" x="81.305814" xlink:href="#mfef9520833" y="59.867407"/>
     <use style="fill:#1f77b4;stroke:#1f77b4;" x="80.754545" xlink:href="#mfef9520833" y="59.628065"/>
     <use style="fill:#1f77b4;stroke:#1f77b4;" x="409.895445" xlink:href="#mfef9520833" y="93.620205"/>
     <use style="fill:#1f77b4;stroke:#1f77b4;" x="164.967276" xlink:href="#mfef9520833" y="237.453109"/>
     <use style="fill:#1f77b4;stroke:#1f77b4;" x="165.460446" xlink:href="#mfef9520833" y="237.124651"/>
     <use style="fill:#1f77b4;stroke:#1f77b4;" x="273.440985" xlink:href="#mfef9520833" y="196.023071"/>
     <use style="fill:#1f77b4;stroke:#1f77b4;" x="249.739053" xlink:href="#mfef9520833" y="205.549287"/>
     <use style="fill:#1f77b4;stroke:#1f77b4;" x="86.138997" xlink:href="#mfef9520833" y="61.644655"/>
     <use style="fill:#1f77b4;stroke:#1f77b4;" x="81.167735" xlink:href="#mfef9520833" y="59.873848"/>
     <use style="fill:#1f77b4;stroke:#1f77b4;" x="408.298782" xlink:href="#mfef9520833" y="97.112027"/>
     <use style="fill:#1f77b4;stroke:#1f77b4;" x="386.318468" xlink:href="#mfef9520833" y="54.136552"/>
     <use style="fill:#1f77b4;stroke:#1f77b4;" x="434.648721" xlink:href="#mfef9520833" y="212.678825"/>
     <use style="fill:#1f77b4;stroke:#1f77b4;" x="82.754641" xlink:href="#mfef9520833" y="60.758148"/>
     <use style="fill:#1f77b4;stroke:#1f77b4;" x="243.107605" xlink:href="#mfef9520833" y="208.109553"/>
     <use style="fill:#1f77b4;stroke:#1f77b4;" x="84.586949" xlink:href="#mfef9520833" y="60.907077"/>
     <use style="fill:#1f77b4;stroke:#1f77b4;" x="411.478225" xlink:href="#mfef9520833" y="100.499413"/>
     <use style="fill:#1f77b4;stroke:#1f77b4;" x="162.106088" xlink:href="#mfef9520833" y="239.26324"/>
     <use style="fill:#1f77b4;stroke:#1f77b4;" x="405.695537" xlink:href="#mfef9520833" y="97.32236"/>
     <use style="fill:#1f77b4;stroke:#1f77b4;" x="246.750634" xlink:href="#mfef9520833" y="214.996128"/>
     <use style="fill:#1f77b4;stroke:#1f77b4;" x="160.557201" xlink:href="#mfef9520833" y="240.084"/>
     <use style="fill:#1f77b4;stroke:#1f77b4;" x="409.39066" xlink:href="#mfef9520833" y="97.625139"/>
     <use style="fill:#1f77b4;stroke:#1f77b4;" x="397.346975" xlink:href="#mfef9520833" y="175.73519"/>
     <use style="fill:#1f77b4;stroke:#1f77b4;" x="218.693809" xlink:href="#mfef9520833" y="208.264907"/>
     <use style="fill:#1f77b4;stroke:#1f77b4;" x="216.389235" xlink:href="#mfef9520833" y="208.732646"/>
     <use style="fill:#1f77b4;stroke:#1f77b4;" x="387.255799" xlink:href="#mfef9520833" y="55.183586"/>
     <use style="fill:#1f77b4;stroke:#1f77b4;" x="155.07637" xlink:href="#mfef9520833" y="76.128651"/>
     <use style="fill:#1f77b4;stroke:#1f77b4;" x="384.155744" xlink:href="#mfef9520833" y="55.178531"/>
     <use style="fill:#1f77b4;stroke:#1f77b4;" x="408.141246" xlink:href="#mfef9520833" y="87.47948"/>
     <use style="fill:#1f77b4;stroke:#1f77b4;" x="410.588289" xlink:href="#mfef9520833" y="97.094726"/>
     <use style="fill:#1f77b4;stroke:#1f77b4;" x="269.493814" xlink:href="#mfef9520833" y="195.861989"/>
     <use style="fill:#1f77b4;stroke:#1f77b4;" x="411.123069" xlink:href="#mfef9520833" y="99.596035"/>
     <use style="fill:#1f77b4;stroke:#1f77b4;" x="216.585925" xlink:href="#mfef9520833" y="206.863883"/>
     <use style="fill:#1f77b4;stroke:#1f77b4;" x="408.034506" xlink:href="#mfef9520833" y="97.647097"/>
     <use style="fill:#1f77b4;stroke:#1f77b4;" x="411.924308" xlink:href="#mfef9520833" y="95.977512"/>
     <use style="fill:#1f77b4;stroke:#1f77b4;" x="245.323562" xlink:href="#mfef9520833" y="207.876815"/>
     <use style="fill:#1f77b4;stroke:#1f77b4;" x="387.188523" xlink:href="#mfef9520833" y="54.129854"/>
     <use style="fill:#1f77b4;stroke:#1f77b4;" x="243.344586" xlink:href="#mfef9520833" y="208.629997"/>
     <use style="fill:#1f77b4;stroke:#1f77b4;" x="408.728638" xlink:href="#mfef9520833" y="94.549128"/>
     <use style="fill:#1f77b4;stroke:#1f77b4;" x="273.100769" xlink:href="#mfef9520833" y="196.120243"/>
     <use style="fill:#1f77b4;stroke:#1f77b4;" x="224.238666" xlink:href="#mfef9520833" y="206.604992"/>
     <use style="fill:#1f77b4;stroke:#1f77b4;" x="384.328472" xlink:href="#mfef9520833" y="52.421811"/>
     <use style="fill:#1f77b4;stroke:#1f77b4;" x="381.396778" xlink:href="#mfef9520833" y="44.701412"/>
     <use style="fill:#1f77b4;stroke:#1f77b4;" x="165.069006" xlink:href="#mfef9520833" y="239.458222"/>
     <use style="fill:#1f77b4;stroke:#1f77b4;" x="243.766225" xlink:href="#mfef9520833" y="210.044477"/>
     <use style="fill:#1f77b4;stroke:#1f77b4;" x="163.713829" xlink:href="#mfef9520833" y="238.12902"/>
     <use style="fill:#1f77b4;stroke:#1f77b4;" x="244.826993" xlink:href="#mfef9520833" y="209.140216"/>
     <use style="fill:#1f77b4;stroke:#1f77b4;" x="418.272714" xlink:href="#mfef9520833" y="200.565404"/>
     <use style="fill:#1f77b4;stroke:#1f77b4;" x="407.88929" xlink:href="#mfef9520833" y="103.960673"/>
     <use style="fill:#1f77b4;stroke:#1f77b4;" x="434.69692" xlink:href="#mfef9520833" y="209.947467"/>
     <use style="fill:#1f77b4;stroke:#1f77b4;" x="419.13569" xlink:href="#mfef9520833" y="201.201948"/>
     <use style="fill:#1f77b4;stroke:#1f77b4;" x="152.195986" xlink:href="#mfef9520833" y="74.519668"/>
     <use style="fill:#1f77b4;stroke:#1f77b4;" x="429.8859" xlink:href="#mfef9520833" y="209.729974"/>
     <use style="fill:#1f77b4;stroke:#1f77b4;" x="163.573879" xlink:href="#mfef9520833" y="238.15296"/>
     <use style="fill:#1f77b4;stroke:#1f77b4;" x="166.392869" xlink:href="#mfef9520833" y="238.491176"/>
     <use style="fill:#1f77b4;stroke:#1f77b4;" x="407.488487" xlink:href="#mfef9520833" y="88.546388"/>
     <use style="fill:#1f77b4;stroke:#1f77b4;" x="384.511107" xlink:href="#mfef9520833" y="55.370697"/>
     <use style="fill:#1f77b4;stroke:#1f77b4;" x="385.662836" xlink:href="#mfef9520833" y="54.482176"/>
     <use style="fill:#1f77b4;stroke:#1f77b4;" x="433.161579" xlink:href="#mfef9520833" y="212.610897"/>
     <use style="fill:#1f77b4;stroke:#1f77b4;" x="419.498845" xlink:href="#mfef9520833" y="196.452994"/>
     <use style="fill:#1f77b4;stroke:#1f77b4;" x="384.30489" xlink:href="#mfef9520833" y="51.787976"/>
     <use style="fill:#1f77b4;stroke:#1f77b4;" x="381.875039" xlink:href="#mfef9520833" y="43.872434"/>
     <use style="fill:#1f77b4;stroke:#1f77b4;" x="410.228031" xlink:href="#mfef9520833" y="99.082435"/>
     <use style="fill:#1f77b4;stroke:#1f77b4;" x="269.224068" xlink:href="#mfef9520833" y="194.896839"/>
     <use style="fill:#1f77b4;stroke:#1f77b4;" x="168.363435" xlink:href="#mfef9520833" y="237.462507"/>
     <use style="fill:#1f77b4;stroke:#1f77b4;" x="219.92341" xlink:href="#mfef9520833" y="207.472273"/>
     <use style="fill:#1f77b4;stroke:#1f77b4;" x="224.921788" xlink:href="#mfef9520833" y="205.744237"/>
     <use style="fill:#1f77b4;stroke:#1f77b4;" x="83.763786" xlink:href="#mfef9520833" y="61.439723"/>
     <use style="fill:#1f77b4;stroke:#1f77b4;" x="268.658339" xlink:href="#mfef9520833" y="196.470939"/>
     <use style="fill:#1f77b4;stroke:#1f77b4;" x="245.134882" xlink:href="#mfef9520833" y="214.823252"/>
     <use style="fill:#1f77b4;stroke:#1f77b4;" x="164.399488" xlink:href="#mfef9520833" y="239.824798"/>
     <use style="fill:#1f77b4;stroke:#1f77b4;" x="242.739945" xlink:href="#mfef9520833" y="210.41102"/>
     <use style="fill:#1f77b4;stroke:#1f77b4;" x="224.697942" xlink:href="#mfef9520833" y="207.364569"/>
     <use style="fill:#1f77b4;stroke:#1f77b4;" x="217.744274" xlink:href="#mfef9520833" y="207.244738"/>
     <use style="fill:#1f77b4;stroke:#1f77b4;" x="85.505467" xlink:href="#mfef9520833" y="61.273909"/>
     <use style="fill:#1f77b4;stroke:#1f77b4;" x="379.604218" xlink:href="#mfef9520833" y="44.337723"/>
     <use style="fill:#1f77b4;stroke:#1f77b4;" x="386.656409" xlink:href="#mfef9520833" y="54.207232"/>
     <use style="fill:#1f77b4;stroke:#1f77b4;" x="435.845455" xlink:href="#mfef9520833" y="214.153656"/>
     <use style="fill:#1f77b4;stroke:#1f77b4;" x="271.604398" xlink:href="#mfef9520833" y="196.129933"/>
     <use style="fill:#1f77b4;stroke:#1f77b4;" x="150.432553" xlink:href="#mfef9520833" y="73.536642"/>
     <use style="fill:#1f77b4;stroke:#1f77b4;" x="151.484329" xlink:href="#mfef9520833" y="74.126162"/>
     <use style="fill:#1f77b4;stroke:#1f77b4;" x="432.942468" xlink:href="#mfef9520833" y="213.23952"/>
     <use style="fill:#1f77b4;stroke:#1f77b4;" x="268.688254" xlink:href="#mfef9520833" y="195.921409"/>
     <use style="fill:#1f77b4;stroke:#1f77b4;" x="90.43138" xlink:href="#mfef9520833" y="64.616878"/>
     <use style="fill:#1f77b4;stroke:#1f77b4;" x="152.934322" xlink:href="#mfef9520833" y="74.934458"/>
     <use style="fill:#1f77b4;stroke:#1f77b4;" x="162.430137" xlink:href="#mfef9520833" y="239.072953"/>
     <use style="fill:#1f77b4;stroke:#1f77b4;" x="88.422169" xlink:href="#mfef9520833" y="63.477738"/>
     <use style="fill:#1f77b4;stroke:#1f77b4;" x="383.749217" xlink:href="#mfef9520833" y="52.080202"/>
     <use style="fill:#1f77b4;stroke:#1f77b4;" x="152.216793" xlink:href="#mfef9520833" y="74.532068"/>
     <use style="fill:#1f77b4;stroke:#1f77b4;" x="398.519643" xlink:href="#mfef9520833" y="176.418295"/>
     <use style="fill:#1f77b4;stroke:#1f77b4;" x="412.457364" xlink:href="#mfef9520833" y="100.874039"/>
     <use style="fill:#1f77b4;stroke:#1f77b4;" x="413.703491" xlink:href="#mfef9520833" y="102.692522"/>
     <use style="fill:#1f77b4;stroke:#1f77b4;" x="427.325613" xlink:href="#mfef9520833" y="207.12457"/>
     <use style="fill:#1f77b4;stroke:#1f77b4;" x="419.598896" xlink:href="#mfef9520833" y="201.730517"/>
     <use style="fill:#1f77b4;stroke:#1f77b4;" x="397.388508" xlink:href="#mfef9520833" y="175.762992"/>
     <use style="fill:#1f77b4;stroke:#1f77b4;" x="380.787184" xlink:href="#mfef9520833" y="44.502061"/>
     <use style="fill:#1f77b4;stroke:#1f77b4;" x="90.307264" xlink:href="#mfef9520833" y="64.530136"/>
     <use style="fill:#1f77b4;stroke:#1f77b4;" x="383.453843" xlink:href="#mfef9520833" y="52.324715"/>
     <use style="fill:#1f77b4;stroke:#1f77b4;" x="434.861259" xlink:href="#mfef9520833" y="209.816736"/>
     <use style="fill:#1f77b4;stroke:#1f77b4;" x="243.924462" xlink:href="#mfef9520833" y="209.07072"/>
     <use style="fill:#1f77b4;stroke:#1f77b4;" x="223.891336" xlink:href="#mfef9520833" y="206.295243"/>
     <use style="fill:#1f77b4;stroke:#1f77b4;" x="222.378382" xlink:href="#mfef9520833" y="206.961326"/>
     <use style="fill:#1f77b4;stroke:#1f77b4;" x="246.383411" xlink:href="#mfef9520833" y="215.088182"/>
     <use style="fill:#1f77b4;stroke:#1f77b4;" x="149.504618" xlink:href="#mfef9520833" y="73.022638"/>
     <use style="fill:#1f77b4;stroke:#1f77b4;" x="165.586932" xlink:href="#mfef9520833" y="237.160658"/>
     <use style="fill:#1f77b4;stroke:#1f77b4;" x="246.418692" xlink:href="#mfef9520833" y="215.190494"/>
     <use style="fill:#1f77b4;stroke:#1f77b4;" x="87.641053" xlink:href="#mfef9520833" y="62.429151"/>
     <use style="fill:#1f77b4;stroke:#1f77b4;" x="85.321045" xlink:href="#mfef9520833" y="61.20518"/>
     <use style="fill:#1f77b4;stroke:#1f77b4;" x="435.498918" xlink:href="#mfef9520833" y="210.717494"/>
     <use style="fill:#1f77b4;stroke:#1f77b4;" x="150.115928" xlink:href="#mfef9520833" y="73.358184"/>
     <use style="fill:#1f77b4;stroke:#1f77b4;" x="153.991106" xlink:href="#mfef9520833" y="75.521547"/>
     <use style="fill:#1f77b4;stroke:#1f77b4;" x="428.054542" xlink:href="#mfef9520833" y="207.573921"/>
     <use style="fill:#1f77b4;stroke:#1f77b4;" x="271.054506" xlink:href="#mfef9520833" y="197.142923"/>
     <use style="fill:#1f77b4;stroke:#1f77b4;" x="83.168979" xlink:href="#mfef9520833" y="60.979284"/>
     <use style="fill:#1f77b4;stroke:#1f77b4;" x="384.679721" xlink:href="#mfef9520833" y="51.562042"/>
     <use style="fill:#1f77b4;stroke:#1f77b4;" x="270.975026" xlink:href="#mfef9520833" y="196.26542"/>
     <use style="fill:#1f77b4;stroke:#1f77b4;" x="408.491162" xlink:href="#mfef9520833" y="96.575699"/>
     <use style="fill:#1f77b4;stroke:#1f77b4;" x="420.189643" xlink:href="#mfef9520833" y="201.873724"/>
     <use style="fill:#1f77b4;stroke:#1f77b4;" x="407.36906" xlink:href="#mfef9520833" y="97.135871"/>
     <use style="fill:#1f77b4;stroke:#1f77b4;" x="435.528269" xlink:href="#mfef9520833" y="210.776412"/>
     <use style="fill:#1f77b4;stroke:#1f77b4;" x="399.307183" xlink:href="#mfef9520833" y="176.850873"/>
     <use style="fill:#1f77b4;stroke:#1f77b4;" x="408.132558" xlink:href="#mfef9520833" y="87.683603"/>
    </g>
   </g>
   <g id="matplotlib.axis_1">
    <g id="xtick_1">
     <g id="line2d_1">
      <defs>
       <path d="M 0 0 
L 0 3.5 
" id="m964eb5ece9" style="stroke:#000000;stroke-width:0.8;"/>
      </defs>
      <g>
       <use style="stroke:#000000;stroke-width:0.8;" x="74.795778" xlink:href="#m964eb5ece9" y="249.912"/>
      </g>
     </g>
     <g id="text_1">
      <!-- −2 -->
      <g transform="translate(67.424684 264.510438)scale(0.1 -0.1)">
       <defs>
        <path d="M 10.59375 35.5 
L 73.1875 35.5 
L 73.1875 27.203125 
L 10.59375 27.203125 
z
" id="DejaVuSans-8722"/>
        <path d="M 19.1875 8.296875 
L 53.609375 8.296875 
L 53.609375 0 
L 7.328125 0 
L 7.328125 8.296875 
Q 12.9375 14.109375 22.625 23.890625 
Q 32.328125 33.6875 34.8125 36.53125 
Q 39.546875 41.84375 41.421875 45.53125 
Q 43.3125 49.21875 43.3125 52.78125 
Q 43.3125 58.59375 39.234375 62.25 
Q 35.15625 65.921875 28.609375 65.921875 
Q 23.96875 65.921875 18.8125 64.3125 
Q 13.671875 62.703125 7.8125 59.421875 
L 7.8125 69.390625 
Q 13.765625 71.78125 18.9375 73 
Q 24.125 74.21875 28.421875 74.21875 
Q 39.75 74.21875 46.484375 68.546875 
Q 53.21875 62.890625 53.21875 53.421875 
Q 53.21875 48.921875 51.53125 44.890625 
Q 49.859375 40.875 45.40625 35.40625 
Q 44.1875 33.984375 37.640625 27.21875 
Q 31.109375 20.453125 19.1875 8.296875 
z
" id="DejaVuSans-50"/>
       </defs>
       <use xlink:href="#DejaVuSans-8722"/>
       <use x="83.789062" xlink:href="#DejaVuSans-50"/>
      </g>
     </g>
    </g>
    <g id="xtick_2">
     <g id="line2d_2">
      <g>
       <use style="stroke:#000000;stroke-width:0.8;" x="122.997732" xlink:href="#m964eb5ece9" y="249.912"/>
      </g>
     </g>
     <g id="text_2">
      <!-- 0 -->
      <g transform="translate(119.816482 264.510438)scale(0.1 -0.1)">
       <defs>
        <path d="M 31.78125 66.40625 
Q 24.171875 66.40625 20.328125 58.90625 
Q 16.5 51.421875 16.5 36.375 
Q 16.5 21.390625 20.328125 13.890625 
Q 24.171875 6.390625 31.78125 6.390625 
Q 39.453125 6.390625 43.28125 13.890625 
Q 47.125 21.390625 47.125 36.375 
Q 47.125 51.421875 43.28125 58.90625 
Q 39.453125 66.40625 31.78125 66.40625 
z
M 31.78125 74.21875 
Q 44.046875 74.21875 50.515625 64.515625 
Q 56.984375 54.828125 56.984375 36.375 
Q 56.984375 17.96875 50.515625 8.265625 
Q 44.046875 -1.421875 31.78125 -1.421875 
Q 19.53125 -1.421875 13.0625 8.265625 
Q 6.59375 17.96875 6.59375 36.375 
Q 6.59375 54.828125 13.0625 64.515625 
Q 19.53125 74.21875 31.78125 74.21875 
z
" id="DejaVuSans-48"/>
       </defs>
       <use xlink:href="#DejaVuSans-48"/>
      </g>
     </g>
    </g>
    <g id="xtick_3">
     <g id="line2d_3">
      <g>
       <use style="stroke:#000000;stroke-width:0.8;" x="171.199685" xlink:href="#m964eb5ece9" y="249.912"/>
      </g>
     </g>
     <g id="text_3">
      <!-- 2 -->
      <g transform="translate(168.018435 264.510438)scale(0.1 -0.1)">
       <use xlink:href="#DejaVuSans-50"/>
      </g>
     </g>
    </g>
    <g id="xtick_4">
     <g id="line2d_4">
      <g>
       <use style="stroke:#000000;stroke-width:0.8;" x="219.401639" xlink:href="#m964eb5ece9" y="249.912"/>
      </g>
     </g>
     <g id="text_4">
      <!-- 4 -->
      <g transform="translate(216.220389 264.510438)scale(0.1 -0.1)">
       <defs>
        <path d="M 37.796875 64.3125 
L 12.890625 25.390625 
L 37.796875 25.390625 
z
M 35.203125 72.90625 
L 47.609375 72.90625 
L 47.609375 25.390625 
L 58.015625 25.390625 
L 58.015625 17.1875 
L 47.609375 17.1875 
L 47.609375 0 
L 37.796875 0 
L 37.796875 17.1875 
L 4.890625 17.1875 
L 4.890625 26.703125 
z
" id="DejaVuSans-52"/>
       </defs>
       <use xlink:href="#DejaVuSans-52"/>
      </g>
     </g>
    </g>
    <g id="xtick_5">
     <g id="line2d_5">
      <g>
       <use style="stroke:#000000;stroke-width:0.8;" x="267.603593" xlink:href="#m964eb5ece9" y="249.912"/>
      </g>
     </g>
     <g id="text_5">
      <!-- 6 -->
      <g transform="translate(264.422343 264.510438)scale(0.1 -0.1)">
       <defs>
        <path d="M 33.015625 40.375 
Q 26.375 40.375 22.484375 35.828125 
Q 18.609375 31.296875 18.609375 23.390625 
Q 18.609375 15.53125 22.484375 10.953125 
Q 26.375 6.390625 33.015625 6.390625 
Q 39.65625 6.390625 43.53125 10.953125 
Q 47.40625 15.53125 47.40625 23.390625 
Q 47.40625 31.296875 43.53125 35.828125 
Q 39.65625 40.375 33.015625 40.375 
z
M 52.59375 71.296875 
L 52.59375 62.3125 
Q 48.875 64.0625 45.09375 64.984375 
Q 41.3125 65.921875 37.59375 65.921875 
Q 27.828125 65.921875 22.671875 59.328125 
Q 17.53125 52.734375 16.796875 39.40625 
Q 19.671875 43.65625 24.015625 45.921875 
Q 28.375 48.1875 33.59375 48.1875 
Q 44.578125 48.1875 50.953125 41.515625 
Q 57.328125 34.859375 57.328125 23.390625 
Q 57.328125 12.15625 50.6875 5.359375 
Q 44.046875 -1.421875 33.015625 -1.421875 
Q 20.359375 -1.421875 13.671875 8.265625 
Q 6.984375 17.96875 6.984375 36.375 
Q 6.984375 53.65625 15.1875 63.9375 
Q 23.390625 74.21875 37.203125 74.21875 
Q 40.921875 74.21875 44.703125 73.484375 
Q 48.484375 72.75 52.59375 71.296875 
z
" id="DejaVuSans-54"/>
       </defs>
       <use xlink:href="#DejaVuSans-54"/>
      </g>
     </g>
    </g>
    <g id="xtick_6">
     <g id="line2d_6">
      <g>
       <use style="stroke:#000000;stroke-width:0.8;" x="315.805546" xlink:href="#m964eb5ece9" y="249.912"/>
      </g>
     </g>
     <g id="text_6">
      <!-- 8 -->
      <g transform="translate(312.624296 264.510438)scale(0.1 -0.1)">
       <defs>
        <path d="M 31.78125 34.625 
Q 24.75 34.625 20.71875 30.859375 
Q 16.703125 27.09375 16.703125 20.515625 
Q 16.703125 13.921875 20.71875 10.15625 
Q 24.75 6.390625 31.78125 6.390625 
Q 38.8125 6.390625 42.859375 10.171875 
Q 46.921875 13.96875 46.921875 20.515625 
Q 46.921875 27.09375 42.890625 30.859375 
Q 38.875 34.625 31.78125 34.625 
z
M 21.921875 38.8125 
Q 15.578125 40.375 12.03125 44.71875 
Q 8.5 49.078125 8.5 55.328125 
Q 8.5 64.0625 14.71875 69.140625 
Q 20.953125 74.21875 31.78125 74.21875 
Q 42.671875 74.21875 48.875 69.140625 
Q 55.078125 64.0625 55.078125 55.328125 
Q 55.078125 49.078125 51.53125 44.71875 
Q 48 40.375 41.703125 38.8125 
Q 48.828125 37.15625 52.796875 32.3125 
Q 56.78125 27.484375 56.78125 20.515625 
Q 56.78125 9.90625 50.3125 4.234375 
Q 43.84375 -1.421875 31.78125 -1.421875 
Q 19.734375 -1.421875 13.25 4.234375 
Q 6.78125 9.90625 6.78125 20.515625 
Q 6.78125 27.484375 10.78125 32.3125 
Q 14.796875 37.15625 21.921875 38.8125 
z
M 18.3125 54.390625 
Q 18.3125 48.734375 21.84375 45.5625 
Q 25.390625 42.390625 31.78125 42.390625 
Q 38.140625 42.390625 41.71875 45.5625 
Q 45.3125 48.734375 45.3125 54.390625 
Q 45.3125 60.0625 41.71875 63.234375 
Q 38.140625 66.40625 31.78125 66.40625 
Q 25.390625 66.40625 21.84375 63.234375 
Q 18.3125 60.0625 18.3125 54.390625 
z
" id="DejaVuSans-56"/>
       </defs>
       <use xlink:href="#DejaVuSans-56"/>
      </g>
     </g>
    </g>
    <g id="xtick_7">
     <g id="line2d_7">
      <g>
       <use style="stroke:#000000;stroke-width:0.8;" x="364.0075" xlink:href="#m964eb5ece9" y="249.912"/>
      </g>
     </g>
     <g id="text_7">
      <!-- 10 -->
      <g transform="translate(357.645 264.510438)scale(0.1 -0.1)">
       <defs>
        <path d="M 12.40625 8.296875 
L 28.515625 8.296875 
L 28.515625 63.921875 
L 10.984375 60.40625 
L 10.984375 69.390625 
L 28.421875 72.90625 
L 38.28125 72.90625 
L 38.28125 8.296875 
L 54.390625 8.296875 
L 54.390625 0 
L 12.40625 0 
z
" id="DejaVuSans-49"/>
       </defs>
       <use xlink:href="#DejaVuSans-49"/>
       <use x="63.623047" xlink:href="#DejaVuSans-48"/>
      </g>
     </g>
    </g>
    <g id="xtick_8">
     <g id="line2d_8">
      <g>
       <use style="stroke:#000000;stroke-width:0.8;" x="412.209454" xlink:href="#m964eb5ece9" y="249.912"/>
      </g>
     </g>
     <g id="text_8">
      <!-- 12 -->
      <g transform="translate(405.846954 264.510438)scale(0.1 -0.1)">
       <use xlink:href="#DejaVuSans-49"/>
       <use x="63.623047" xlink:href="#DejaVuSans-50"/>
      </g>
     </g>
    </g>
   </g>
   <g id="matplotlib.axis_2">
    <g id="ytick_1">
     <g id="line2d_9">
      <defs>
       <path d="M 0 0 
L -3.5 0 
" id="m0c59b03f49" style="stroke:#000000;stroke-width:0.8;"/>
      </defs>
      <g>
       <use style="stroke:#000000;stroke-width:0.8;" x="63" xlink:href="#m0c59b03f49" y="231.843387"/>
      </g>
     </g>
     <g id="text_9">
      <!-- −4 -->
      <g transform="translate(41.257812 235.642606)scale(0.1 -0.1)">
       <use xlink:href="#DejaVuSans-8722"/>
       <use x="83.789062" xlink:href="#DejaVuSans-52"/>
      </g>
     </g>
    </g>
    <g id="ytick_2">
     <g id="line2d_10">
      <g>
       <use style="stroke:#000000;stroke-width:0.8;" x="63" xlink:href="#m0c59b03f49" y="204.937157"/>
      </g>
     </g>
     <g id="text_10">
      <!-- −2 -->
      <g transform="translate(41.257812 208.736376)scale(0.1 -0.1)">
       <use xlink:href="#DejaVuSans-8722"/>
       <use x="83.789062" xlink:href="#DejaVuSans-50"/>
      </g>
     </g>
    </g>
    <g id="ytick_3">
     <g id="line2d_11">
      <g>
       <use style="stroke:#000000;stroke-width:0.8;" x="63" xlink:href="#m0c59b03f49" y="178.030927"/>
      </g>
     </g>
     <g id="text_11">
      <!-- 0 -->
      <g transform="translate(49.6375 181.830146)scale(0.1 -0.1)">
       <use xlink:href="#DejaVuSans-48"/>
      </g>
     </g>
    </g>
    <g id="ytick_4">
     <g id="line2d_12">
      <g>
       <use style="stroke:#000000;stroke-width:0.8;" x="63" xlink:href="#m0c59b03f49" y="151.124697"/>
      </g>
     </g>
     <g id="text_12">
      <!-- 2 -->
      <g transform="translate(49.6375 154.923916)scale(0.1 -0.1)">
       <use xlink:href="#DejaVuSans-50"/>
      </g>
     </g>
    </g>
    <g id="ytick_5">
     <g id="line2d_13">
      <g>
       <use style="stroke:#000000;stroke-width:0.8;" x="63" xlink:href="#m0c59b03f49" y="124.218467"/>
      </g>
     </g>
     <g id="text_13">
      <!-- 4 -->
      <g transform="translate(49.6375 128.017686)scale(0.1 -0.1)">
       <use xlink:href="#DejaVuSans-52"/>
      </g>
     </g>
    </g>
    <g id="ytick_6">
     <g id="line2d_14">
      <g>
       <use style="stroke:#000000;stroke-width:0.8;" x="63" xlink:href="#m0c59b03f49" y="97.312237"/>
      </g>
     </g>
     <g id="text_14">
      <!-- 6 -->
      <g transform="translate(49.6375 101.111456)scale(0.1 -0.1)">
       <use xlink:href="#DejaVuSans-54"/>
      </g>
     </g>
    </g>
    <g id="ytick_7">
     <g id="line2d_15">
      <g>
       <use style="stroke:#000000;stroke-width:0.8;" x="63" xlink:href="#m0c59b03f49" y="70.406007"/>
      </g>
     </g>
     <g id="text_15">
      <!-- 8 -->
      <g transform="translate(49.6375 74.205226)scale(0.1 -0.1)">
       <use xlink:href="#DejaVuSans-56"/>
      </g>
     </g>
    </g>
    <g id="ytick_8">
     <g id="line2d_16">
      <g>
       <use style="stroke:#000000;stroke-width:0.8;" x="63" xlink:href="#m0c59b03f49" y="43.499777"/>
      </g>
     </g>
     <g id="text_16">
      <!-- 10 -->
      <g transform="translate(43.275 47.298996)scale(0.1 -0.1)">
       <use xlink:href="#DejaVuSans-49"/>
       <use x="63.623047" xlink:href="#DejaVuSans-48"/>
      </g>
     </g>
    </g>
   </g>
   <g id="patch_3">
    <path d="M 63 249.912 
L 63 33.696 
" style="fill:none;stroke:#000000;stroke-linecap:square;stroke-linejoin:miter;stroke-width:0.8;"/>
   </g>
   <g id="patch_4">
    <path d="M 453.6 249.912 
L 453.6 33.696 
" style="fill:none;stroke:#000000;stroke-linecap:square;stroke-linejoin:miter;stroke-width:0.8;"/>
   </g>
   <g id="patch_5">
    <path d="M 63 249.912 
L 453.6 249.912 
" style="fill:none;stroke:#000000;stroke-linecap:square;stroke-linejoin:miter;stroke-width:0.8;"/>
   </g>
   <g id="patch_6">
    <path d="M 63 33.696 
L 453.6 33.696 
" style="fill:none;stroke:#000000;stroke-linecap:square;stroke-linejoin:miter;stroke-width:0.8;"/>
   </g>
   <g id="text_17">
    <!-- UMAP projection of the phylogenetic dataset -->
    <g transform="translate(124.38375 27.696)scale(0.12 -0.12)">
     <defs>
      <path d="M 8.6875 72.90625 
L 18.609375 72.90625 
L 18.609375 28.609375 
Q 18.609375 16.890625 22.84375 11.734375 
Q 27.09375 6.59375 36.625 6.59375 
Q 46.09375 6.59375 50.34375 11.734375 
Q 54.59375 16.890625 54.59375 28.609375 
L 54.59375 72.90625 
L 64.5 72.90625 
L 64.5 27.390625 
Q 64.5 13.140625 57.4375 5.859375 
Q 50.390625 -1.421875 36.625 -1.421875 
Q 22.796875 -1.421875 15.734375 5.859375 
Q 8.6875 13.140625 8.6875 27.390625 
z
" id="DejaVuSans-85"/>
      <path d="M 9.8125 72.90625 
L 24.515625 72.90625 
L 43.109375 23.296875 
L 61.8125 72.90625 
L 76.515625 72.90625 
L 76.515625 0 
L 66.890625 0 
L 66.890625 64.015625 
L 48.09375 14.015625 
L 38.1875 14.015625 
L 19.390625 64.015625 
L 19.390625 0 
L 9.8125 0 
z
" id="DejaVuSans-77"/>
      <path d="M 34.1875 63.1875 
L 20.796875 26.90625 
L 47.609375 26.90625 
z
M 28.609375 72.90625 
L 39.796875 72.90625 
L 67.578125 0 
L 57.328125 0 
L 50.6875 18.703125 
L 17.828125 18.703125 
L 11.1875 0 
L 0.78125 0 
z
" id="DejaVuSans-65"/>
      <path d="M 19.671875 64.796875 
L 19.671875 37.40625 
L 32.078125 37.40625 
Q 38.96875 37.40625 42.71875 40.96875 
Q 46.484375 44.53125 46.484375 51.125 
Q 46.484375 57.671875 42.71875 61.234375 
Q 38.96875 64.796875 32.078125 64.796875 
z
M 9.8125 72.90625 
L 32.078125 72.90625 
Q 44.34375 72.90625 50.609375 67.359375 
Q 56.890625 61.8125 56.890625 51.125 
Q 56.890625 40.328125 50.609375 34.8125 
Q 44.34375 29.296875 32.078125 29.296875 
L 19.671875 29.296875 
L 19.671875 0 
L 9.8125 0 
z
" id="DejaVuSans-80"/>
      <path id="DejaVuSans-32"/>
      <path d="M 18.109375 8.203125 
L 18.109375 -20.796875 
L 9.078125 -20.796875 
L 9.078125 54.6875 
L 18.109375 54.6875 
L 18.109375 46.390625 
Q 20.953125 51.265625 25.265625 53.625 
Q 29.59375 56 35.59375 56 
Q 45.5625 56 51.78125 48.09375 
Q 58.015625 40.1875 58.015625 27.296875 
Q 58.015625 14.40625 51.78125 6.484375 
Q 45.5625 -1.421875 35.59375 -1.421875 
Q 29.59375 -1.421875 25.265625 0.953125 
Q 20.953125 3.328125 18.109375 8.203125 
z
M 48.6875 27.296875 
Q 48.6875 37.203125 44.609375 42.84375 
Q 40.53125 48.484375 33.40625 48.484375 
Q 26.265625 48.484375 22.1875 42.84375 
Q 18.109375 37.203125 18.109375 27.296875 
Q 18.109375 17.390625 22.1875 11.75 
Q 26.265625 6.109375 33.40625 6.109375 
Q 40.53125 6.109375 44.609375 11.75 
Q 48.6875 17.390625 48.6875 27.296875 
z
" id="DejaVuSans-112"/>
      <path d="M 41.109375 46.296875 
Q 39.59375 47.171875 37.8125 47.578125 
Q 36.03125 48 33.890625 48 
Q 26.265625 48 22.1875 43.046875 
Q 18.109375 38.09375 18.109375 28.8125 
L 18.109375 0 
L 9.078125 0 
L 9.078125 54.6875 
L 18.109375 54.6875 
L 18.109375 46.1875 
Q 20.953125 51.171875 25.484375 53.578125 
Q 30.03125 56 36.53125 56 
Q 37.453125 56 38.578125 55.875 
Q 39.703125 55.765625 41.0625 55.515625 
z
" id="DejaVuSans-114"/>
      <path d="M 30.609375 48.390625 
Q 23.390625 48.390625 19.1875 42.75 
Q 14.984375 37.109375 14.984375 27.296875 
Q 14.984375 17.484375 19.15625 11.84375 
Q 23.34375 6.203125 30.609375 6.203125 
Q 37.796875 6.203125 41.984375 11.859375 
Q 46.1875 17.53125 46.1875 27.296875 
Q 46.1875 37.015625 41.984375 42.703125 
Q 37.796875 48.390625 30.609375 48.390625 
z
M 30.609375 56 
Q 42.328125 56 49.015625 48.375 
Q 55.71875 40.765625 55.71875 27.296875 
Q 55.71875 13.875 49.015625 6.21875 
Q 42.328125 -1.421875 30.609375 -1.421875 
Q 18.84375 -1.421875 12.171875 6.21875 
Q 5.515625 13.875 5.515625 27.296875 
Q 5.515625 40.765625 12.171875 48.375 
Q 18.84375 56 30.609375 56 
z
" id="DejaVuSans-111"/>
      <path d="M 9.421875 54.6875 
L 18.40625 54.6875 
L 18.40625 -0.984375 
Q 18.40625 -11.421875 14.421875 -16.109375 
Q 10.453125 -20.796875 1.609375 -20.796875 
L -1.8125 -20.796875 
L -1.8125 -13.1875 
L 0.59375 -13.1875 
Q 5.71875 -13.1875 7.5625 -10.8125 
Q 9.421875 -8.453125 9.421875 -0.984375 
z
M 9.421875 75.984375 
L 18.40625 75.984375 
L 18.40625 64.59375 
L 9.421875 64.59375 
z
" id="DejaVuSans-106"/>
      <path d="M 56.203125 29.59375 
L 56.203125 25.203125 
L 14.890625 25.203125 
Q 15.484375 15.921875 20.484375 11.0625 
Q 25.484375 6.203125 34.421875 6.203125 
Q 39.59375 6.203125 44.453125 7.46875 
Q 49.3125 8.734375 54.109375 11.28125 
L 54.109375 2.78125 
Q 49.265625 0.734375 44.1875 -0.34375 
Q 39.109375 -1.421875 33.890625 -1.421875 
Q 20.796875 -1.421875 13.15625 6.1875 
Q 5.515625 13.8125 5.515625 26.8125 
Q 5.515625 40.234375 12.765625 48.109375 
Q 20.015625 56 32.328125 56 
Q 43.359375 56 49.78125 48.890625 
Q 56.203125 41.796875 56.203125 29.59375 
z
M 47.21875 32.234375 
Q 47.125 39.59375 43.09375 43.984375 
Q 39.0625 48.390625 32.421875 48.390625 
Q 24.90625 48.390625 20.390625 44.140625 
Q 15.875 39.890625 15.1875 32.171875 
z
" id="DejaVuSans-101"/>
      <path d="M 48.78125 52.59375 
L 48.78125 44.1875 
Q 44.96875 46.296875 41.140625 47.34375 
Q 37.3125 48.390625 33.40625 48.390625 
Q 24.65625 48.390625 19.8125 42.84375 
Q 14.984375 37.3125 14.984375 27.296875 
Q 14.984375 17.28125 19.8125 11.734375 
Q 24.65625 6.203125 33.40625 6.203125 
Q 37.3125 6.203125 41.140625 7.25 
Q 44.96875 8.296875 48.78125 10.40625 
L 48.78125 2.09375 
Q 45.015625 0.34375 40.984375 -0.53125 
Q 36.96875 -1.421875 32.421875 -1.421875 
Q 20.0625 -1.421875 12.78125 6.34375 
Q 5.515625 14.109375 5.515625 27.296875 
Q 5.515625 40.671875 12.859375 48.328125 
Q 20.21875 56 33.015625 56 
Q 37.15625 56 41.109375 55.140625 
Q 45.0625 54.296875 48.78125 52.59375 
z
" id="DejaVuSans-99"/>
      <path d="M 18.3125 70.21875 
L 18.3125 54.6875 
L 36.8125 54.6875 
L 36.8125 47.703125 
L 18.3125 47.703125 
L 18.3125 18.015625 
Q 18.3125 11.328125 20.140625 9.421875 
Q 21.96875 7.515625 27.59375 7.515625 
L 36.8125 7.515625 
L 36.8125 0 
L 27.59375 0 
Q 17.1875 0 13.234375 3.875 
Q 9.28125 7.765625 9.28125 18.015625 
L 9.28125 47.703125 
L 2.6875 47.703125 
L 2.6875 54.6875 
L 9.28125 54.6875 
L 9.28125 70.21875 
z
" id="DejaVuSans-116"/>
      <path d="M 9.421875 54.6875 
L 18.40625 54.6875 
L 18.40625 0 
L 9.421875 0 
z
M 9.421875 75.984375 
L 18.40625 75.984375 
L 18.40625 64.59375 
L 9.421875 64.59375 
z
" id="DejaVuSans-105"/>
      <path d="M 54.890625 33.015625 
L 54.890625 0 
L 45.90625 0 
L 45.90625 32.71875 
Q 45.90625 40.484375 42.875 44.328125 
Q 39.84375 48.1875 33.796875 48.1875 
Q 26.515625 48.1875 22.3125 43.546875 
Q 18.109375 38.921875 18.109375 30.90625 
L 18.109375 0 
L 9.078125 0 
L 9.078125 54.6875 
L 18.109375 54.6875 
L 18.109375 46.1875 
Q 21.34375 51.125 25.703125 53.5625 
Q 30.078125 56 35.796875 56 
Q 45.21875 56 50.046875 50.171875 
Q 54.890625 44.34375 54.890625 33.015625 
z
" id="DejaVuSans-110"/>
      <path d="M 37.109375 75.984375 
L 37.109375 68.5 
L 28.515625 68.5 
Q 23.6875 68.5 21.796875 66.546875 
Q 19.921875 64.59375 19.921875 59.515625 
L 19.921875 54.6875 
L 34.71875 54.6875 
L 34.71875 47.703125 
L 19.921875 47.703125 
L 19.921875 0 
L 10.890625 0 
L 10.890625 47.703125 
L 2.296875 47.703125 
L 2.296875 54.6875 
L 10.890625 54.6875 
L 10.890625 58.5 
Q 10.890625 67.625 15.140625 71.796875 
Q 19.390625 75.984375 28.609375 75.984375 
z
" id="DejaVuSans-102"/>
      <path d="M 54.890625 33.015625 
L 54.890625 0 
L 45.90625 0 
L 45.90625 32.71875 
Q 45.90625 40.484375 42.875 44.328125 
Q 39.84375 48.1875 33.796875 48.1875 
Q 26.515625 48.1875 22.3125 43.546875 
Q 18.109375 38.921875 18.109375 30.90625 
L 18.109375 0 
L 9.078125 0 
L 9.078125 75.984375 
L 18.109375 75.984375 
L 18.109375 46.1875 
Q 21.34375 51.125 25.703125 53.5625 
Q 30.078125 56 35.796875 56 
Q 45.21875 56 50.046875 50.171875 
Q 54.890625 44.34375 54.890625 33.015625 
z
" id="DejaVuSans-104"/>
      <path d="M 32.171875 -5.078125 
Q 28.375 -14.84375 24.75 -17.8125 
Q 21.140625 -20.796875 15.09375 -20.796875 
L 7.90625 -20.796875 
L 7.90625 -13.28125 
L 13.1875 -13.28125 
Q 16.890625 -13.28125 18.9375 -11.515625 
Q 21 -9.765625 23.484375 -3.21875 
L 25.09375 0.875 
L 2.984375 54.6875 
L 12.5 54.6875 
L 29.59375 11.921875 
L 46.6875 54.6875 
L 56.203125 54.6875 
z
" id="DejaVuSans-121"/>
      <path d="M 9.421875 75.984375 
L 18.40625 75.984375 
L 18.40625 0 
L 9.421875 0 
z
" id="DejaVuSans-108"/>
      <path d="M 45.40625 27.984375 
Q 45.40625 37.75 41.375 43.109375 
Q 37.359375 48.484375 30.078125 48.484375 
Q 22.859375 48.484375 18.828125 43.109375 
Q 14.796875 37.75 14.796875 27.984375 
Q 14.796875 18.265625 18.828125 12.890625 
Q 22.859375 7.515625 30.078125 7.515625 
Q 37.359375 7.515625 41.375 12.890625 
Q 45.40625 18.265625 45.40625 27.984375 
z
M 54.390625 6.78125 
Q 54.390625 -7.171875 48.1875 -13.984375 
Q 42 -20.796875 29.203125 -20.796875 
Q 24.46875 -20.796875 20.265625 -20.09375 
Q 16.0625 -19.390625 12.109375 -17.921875 
L 12.109375 -9.1875 
Q 16.0625 -11.328125 19.921875 -12.34375 
Q 23.78125 -13.375 27.78125 -13.375 
Q 36.625 -13.375 41.015625 -8.765625 
Q 45.40625 -4.15625 45.40625 5.171875 
L 45.40625 9.625 
Q 42.625 4.78125 38.28125 2.390625 
Q 33.9375 0 27.875 0 
Q 17.828125 0 11.671875 7.65625 
Q 5.515625 15.328125 5.515625 27.984375 
Q 5.515625 40.671875 11.671875 48.328125 
Q 17.828125 56 27.875 56 
Q 33.9375 56 38.28125 53.609375 
Q 42.625 51.21875 45.40625 46.390625 
L 45.40625 54.6875 
L 54.390625 54.6875 
z
" id="DejaVuSans-103"/>
      <path d="M 45.40625 46.390625 
L 45.40625 75.984375 
L 54.390625 75.984375 
L 54.390625 0 
L 45.40625 0 
L 45.40625 8.203125 
Q 42.578125 3.328125 38.25 0.953125 
Q 33.9375 -1.421875 27.875 -1.421875 
Q 17.96875 -1.421875 11.734375 6.484375 
Q 5.515625 14.40625 5.515625 27.296875 
Q 5.515625 40.1875 11.734375 48.09375 
Q 17.96875 56 27.875 56 
Q 33.9375 56 38.25 53.625 
Q 42.578125 51.265625 45.40625 46.390625 
z
M 14.796875 27.296875 
Q 14.796875 17.390625 18.875 11.75 
Q 22.953125 6.109375 30.078125 6.109375 
Q 37.203125 6.109375 41.296875 11.75 
Q 45.40625 17.390625 45.40625 27.296875 
Q 45.40625 37.203125 41.296875 42.84375 
Q 37.203125 48.484375 30.078125 48.484375 
Q 22.953125 48.484375 18.875 42.84375 
Q 14.796875 37.203125 14.796875 27.296875 
z
" id="DejaVuSans-100"/>
      <path d="M 34.28125 27.484375 
Q 23.390625 27.484375 19.1875 25 
Q 14.984375 22.515625 14.984375 16.5 
Q 14.984375 11.71875 18.140625 8.90625 
Q 21.296875 6.109375 26.703125 6.109375 
Q 34.1875 6.109375 38.703125 11.40625 
Q 43.21875 16.703125 43.21875 25.484375 
L 43.21875 27.484375 
z
M 52.203125 31.203125 
L 52.203125 0 
L 43.21875 0 
L 43.21875 8.296875 
Q 40.140625 3.328125 35.546875 0.953125 
Q 30.953125 -1.421875 24.3125 -1.421875 
Q 15.921875 -1.421875 10.953125 3.296875 
Q 6 8.015625 6 15.921875 
Q 6 25.140625 12.171875 29.828125 
Q 18.359375 34.515625 30.609375 34.515625 
L 43.21875 34.515625 
L 43.21875 35.40625 
Q 43.21875 41.609375 39.140625 45 
Q 35.0625 48.390625 27.6875 48.390625 
Q 23 48.390625 18.546875 47.265625 
Q 14.109375 46.140625 10.015625 43.890625 
L 10.015625 52.203125 
Q 14.9375 54.109375 19.578125 55.046875 
Q 24.21875 56 28.609375 56 
Q 40.484375 56 46.34375 49.84375 
Q 52.203125 43.703125 52.203125 31.203125 
z
" id="DejaVuSans-97"/>
      <path d="M 44.28125 53.078125 
L 44.28125 44.578125 
Q 40.484375 46.53125 36.375 47.5 
Q 32.28125 48.484375 27.875 48.484375 
Q 21.1875 48.484375 17.84375 46.4375 
Q 14.5 44.390625 14.5 40.28125 
Q 14.5 37.15625 16.890625 35.375 
Q 19.28125 33.59375 26.515625 31.984375 
L 29.59375 31.296875 
Q 39.15625 29.25 43.1875 25.515625 
Q 47.21875 21.78125 47.21875 15.09375 
Q 47.21875 7.46875 41.1875 3.015625 
Q 35.15625 -1.421875 24.609375 -1.421875 
Q 20.21875 -1.421875 15.453125 -0.5625 
Q 10.6875 0.296875 5.421875 2 
L 5.421875 11.28125 
Q 10.40625 8.6875 15.234375 7.390625 
Q 20.0625 6.109375 24.8125 6.109375 
Q 31.15625 6.109375 34.5625 8.28125 
Q 37.984375 10.453125 37.984375 14.40625 
Q 37.984375 18.0625 35.515625 20.015625 
Q 33.0625 21.96875 24.703125 23.78125 
L 21.578125 24.515625 
Q 13.234375 26.265625 9.515625 29.90625 
Q 5.8125 33.546875 5.8125 39.890625 
Q 5.8125 47.609375 11.28125 51.796875 
Q 16.75 56 26.8125 56 
Q 31.78125 56 36.171875 55.265625 
Q 40.578125 54.546875 44.28125 53.078125 
z
" id="DejaVuSans-115"/>
     </defs>
     <use xlink:href="#DejaVuSans-85"/>
     <use x="73.193359" xlink:href="#DejaVuSans-77"/>
     <use x="159.472656" xlink:href="#DejaVuSans-65"/>
     <use x="227.880859" xlink:href="#DejaVuSans-80"/>
     <use x="288.183594" xlink:href="#DejaVuSans-32"/>
     <use x="319.970703" xlink:href="#DejaVuSans-112"/>
     <use x="383.447266" xlink:href="#DejaVuSans-114"/>
     <use x="422.310547" xlink:href="#DejaVuSans-111"/>
     <use x="483.492188" xlink:href="#DejaVuSans-106"/>
     <use x="511.275391" xlink:href="#DejaVuSans-101"/>
     <use x="572.798828" xlink:href="#DejaVuSans-99"/>
     <use x="627.779297" xlink:href="#DejaVuSans-116"/>
     <use x="666.988281" xlink:href="#DejaVuSans-105"/>
     <use x="694.771484" xlink:href="#DejaVuSans-111"/>
     <use x="755.953125" xlink:href="#DejaVuSans-110"/>
     <use x="819.332031" xlink:href="#DejaVuSans-32"/>
     <use x="851.119141" xlink:href="#DejaVuSans-111"/>
     <use x="912.300781" xlink:href="#DejaVuSans-102"/>
     <use x="947.505859" xlink:href="#DejaVuSans-32"/>
     <use x="979.292969" xlink:href="#DejaVuSans-116"/>
     <use x="1018.501953" xlink:href="#DejaVuSans-104"/>
     <use x="1081.880859" xlink:href="#DejaVuSans-101"/>
     <use x="1143.404297" xlink:href="#DejaVuSans-32"/>
     <use x="1175.191406" xlink:href="#DejaVuSans-112"/>
     <use x="1238.667969" xlink:href="#DejaVuSans-104"/>
     <use x="1302.046875" xlink:href="#DejaVuSans-121"/>
     <use x="1361.226562" xlink:href="#DejaVuSans-108"/>
     <use x="1389.009766" xlink:href="#DejaVuSans-111"/>
     <use x="1450.191406" xlink:href="#DejaVuSans-103"/>
     <use x="1513.667969" xlink:href="#DejaVuSans-101"/>
     <use x="1575.191406" xlink:href="#DejaVuSans-110"/>
     <use x="1638.570312" xlink:href="#DejaVuSans-101"/>
     <use x="1700.09375" xlink:href="#DejaVuSans-116"/>
     <use x="1739.302734" xlink:href="#DejaVuSans-105"/>
     <use x="1767.085938" xlink:href="#DejaVuSans-99"/>
     <use x="1822.066406" xlink:href="#DejaVuSans-32"/>
     <use x="1853.853516" xlink:href="#DejaVuSans-100"/>
     <use x="1917.330078" xlink:href="#DejaVuSans-97"/>
     <use x="1978.609375" xlink:href="#DejaVuSans-116"/>
     <use x="2017.818359" xlink:href="#DejaVuSans-97"/>
     <use x="2079.097656" xlink:href="#DejaVuSans-115"/>
     <use x="2131.197266" xlink:href="#DejaVuSans-101"/>
     <use x="2192.720703" xlink:href="#DejaVuSans-116"/>
    </g>
   </g>
  </g>
 </g>
 <defs>
  <clipPath id="p6bf3e05272">
   <rect height="216.216" width="390.6" x="63" y="33.696"/>
  </clipPath>
 </defs>
</svg>
