<?xml version="1.0" encoding="utf-8" standalone="no"?>
<!DOCTYPE svg PUBLIC "-//W3C//DTD SVG 1.1//EN"
  "http://www.w3.org/Graphics/SVG/1.1/DTD/svg11.dtd">
<!-- Created with matplotlib (https://matplotlib.org/) -->
<svg height="648pt" version="1.1" viewBox="0 0 504 648" width="504pt" xmlns="http://www.w3.org/2000/svg" xmlns:xlink="http://www.w3.org/1999/xlink">
 <metadata>
  <rdf:RDF xmlns:cc="http://creativecommons.org/ns#" xmlns:dc="http://purl.org/dc/elements/1.1/" xmlns:rdf="http://www.w3.org/1999/02/22-rdf-syntax-ns#">
   <cc:Work>
    <dc:type rdf:resource="http://purl.org/dc/dcmitype/StillImage"/>
    <dc:date>2023-05-24T16:33:25.744343</dc:date>
    <dc:format>image/svg+xml</dc:format>
    <dc:creator>
     <cc:Agent>
      <dc:title>Matplotlib v3.3.4, https://matplotlib.org/</dc:title>
     </cc:Agent>
    </dc:creator>
   </cc:Work>
  </rdf:RDF>
 </metadata>
 <defs>
  <style type="text/css">*{stroke-linecap:butt;stroke-linejoin:round;}</style>
 </defs>
 <g id="figure_1">
  <g id="patch_1">
   <path d="M 0 648 
L 504 648 
L 504 0 
L 0 0 
z
" style="fill:#ffffff;"/>
  </g>
  <g id="axes_1">
   <g id="patch_2">
    <path d="M 63 576.72 
L 453.6 576.72 
L 453.6 77.76 
L 63 77.76 
z
" style="fill:#ffffff;"/>
   </g>
   <g id="PathCollection_1">
    <path clip-path="url(#p033dc78d74)" d="M 264.864955 234.690452 
C 266.740224 234.690452 268.53894 233.945399 269.864955 232.619384 
C 271.190971 231.293368 271.936023 229.494653 271.936023 227.619384 
C 271.936023 225.744115 271.190971 223.945399 269.864955 222.619384 
C 268.53894 221.293368 266.740224 220.548316 264.864955 220.548316 
C 262.989686 220.548316 261.190971 221.293368 259.864955 222.619384 
C 258.53894 223.945399 257.793888 225.744115 257.793888 227.619384 
C 257.793888 229.494653 258.53894 231.293368 259.864955 232.619384 
C 261.190971 233.945399 262.989686 234.690452 264.864955 234.690452 
z
" style="fill:#2f4f4f;stroke:#2f4f4f;"/>
    <path clip-path="url(#p033dc78d74)" d="M 232.781551 264.087312 
C 234.65682 264.087312 236.455536 263.342259 237.781551 262.016244 
C 239.107567 260.690228 239.852619 258.891513 239.852619 257.016244 
C 239.852619 255.140975 239.107567 253.342259 237.781551 252.016244 
C 236.455536 250.690228 234.65682 249.945176 232.781551 249.945176 
C 230.906282 249.945176 229.107567 250.690228 227.781551 252.016244 
C 226.455536 253.342259 225.710483 255.140975 225.710483 257.016244 
C 225.710483 258.891513 226.455536 260.690228 227.781551 262.016244 
C 229.107567 263.342259 230.906282 264.087312 232.781551 264.087312 
z
" style="fill:#556b2f;stroke:#556b2f;"/>
    <path clip-path="url(#p033dc78d74)" d="M 249.007652 361.053166 
C 250.882921 361.053166 252.681636 360.308113 254.007652 358.982098 
C 255.333667 357.656082 256.07872 355.857367 256.07872 353.982098 
C 256.07872 352.106829 255.333667 350.308113 254.007652 348.982098 
C 252.681636 347.656082 250.882921 346.91103 249.007652 346.91103 
C 247.132383 346.91103 245.333667 347.656082 244.007652 348.982098 
C 242.681636 350.308113 241.936584 352.106829 241.936584 353.982098 
C 241.936584 355.857367 242.681636 357.656082 244.007652 358.982098 
C 245.333667 360.308113 247.132383 361.053166 249.007652 361.053166 
z
" style="fill:#8b4513;stroke:#8b4513;"/>
    <path clip-path="url(#p033dc78d74)" d="M 235.349411 276.965748 
C 236.973442 276.965748 238.531175 276.320513 239.679538 275.17215 
C 240.827901 274.023787 241.473135 272.466054 241.473135 270.842023 
C 241.473135 269.217993 240.827901 267.660259 239.679538 266.511896 
C 238.531175 265.363533 236.973442 264.718299 235.349411 264.718299 
C 233.72538 264.718299 232.167647 265.363533 231.019284 266.511896 
C 229.870921 267.660259 229.225687 269.217993 229.225687 270.842023 
C 229.225687 272.466054 229.870921 274.023787 231.019284 275.17215 
C 232.167647 276.320513 233.72538 276.965748 235.349411 276.965748 
z
" style="fill:#2e8b57;stroke:#2e8b57;"/>
    <path clip-path="url(#p033dc78d74)" d="M 257.007955 292.34289 
C 258.883224 292.34289 260.68194 291.597838 262.007955 290.271823 
C 263.333971 288.945807 264.079023 287.147092 264.079023 285.271823 
C 264.079023 283.396554 263.333971 281.597838 262.007955 280.271823 
C 260.68194 278.945807 258.883224 278.200755 257.007955 278.200755 
C 255.132686 278.200755 253.333971 278.945807 252.007955 280.271823 
C 250.68194 281.597838 249.936888 283.396554 249.936888 285.271823 
C 249.936888 287.147092 250.68194 288.945807 252.007955 290.271823 
C 253.333971 291.597838 255.132686 292.34289 257.007955 292.34289 
z
" style="fill:#228b22;stroke:#228b22;"/>
    <path clip-path="url(#p033dc78d74)" d="M 240.693763 259.09174 
C 242.019778 259.09174 243.291662 258.564909 244.229297 257.627274 
C 245.166931 256.68964 245.693763 255.417756 245.693763 254.09174 
C 245.693763 252.765725 245.166931 251.493841 244.229297 250.556206 
C 243.291662 249.618572 242.019778 249.09174 240.693763 249.09174 
C 239.367747 249.09174 238.095864 249.618572 237.158229 250.556206 
C 236.220595 251.493841 235.693763 252.765725 235.693763 254.09174 
C 235.693763 255.417756 236.220595 256.68964 237.158229 257.627274 
C 238.095864 258.564909 239.367747 259.09174 240.693763 259.09174 
z
" style="fill:#8b0000;stroke:#8b0000;"/>
    <path clip-path="url(#p033dc78d74)" d="M 265.813808 303.207758 
C 267.689077 303.207758 269.487793 302.462706 270.813808 301.13669 
C 272.139824 299.810675 272.884876 298.011959 272.884876 296.13669 
C 272.884876 294.261421 272.139824 292.462706 270.813808 291.13669 
C 269.487793 289.810675 267.689077 289.065623 265.813808 289.065623 
C 263.938539 289.065623 262.139824 289.810675 260.813808 291.13669 
C 259.487793 292.462706 258.74274 294.261421 258.74274 296.13669 
C 258.74274 298.011959 259.487793 299.810675 260.813808 301.13669 
C 262.139824 302.462706 263.938539 303.207758 265.813808 303.207758 
z
" style="fill:#808000;stroke:#808000;"/>
    <path clip-path="url(#p033dc78d74)" d="M 245.273945 275.567086 
C 246.599961 275.567086 247.871845 275.040254 248.809479 274.10262 
C 249.747114 273.164985 250.273945 271.893101 250.273945 270.567086 
C 250.273945 269.24107 249.747114 267.969186 248.809479 267.031552 
C 247.871845 266.093917 246.599961 265.567086 245.273945 265.567086 
C 243.94793 265.567086 242.676046 266.093917 241.738411 267.031552 
C 240.800777 267.969186 240.273945 269.24107 240.273945 270.567086 
C 240.273945 271.893101 240.800777 273.164985 241.738411 274.10262 
C 242.676046 275.040254 243.94793 275.567086 245.273945 275.567086 
z
" style="fill:#008080;stroke:#008080;"/>
    <path clip-path="url(#p033dc78d74)" d="M 266.746791 292.087723 
C 270.378234 292.087723 273.861431 290.644936 276.429249 288.077118 
C 278.997067 285.5093 280.439855 282.026102 280.439855 278.394659 
C 280.439855 274.763216 278.997067 271.280019 276.429249 268.712201 
C 273.861431 266.144383 270.378234 264.701595 266.746791 264.701595 
C 263.115348 264.701595 259.63215 266.144383 257.064332 268.712201 
C 254.496514 271.280019 253.053727 274.763216 253.053727 278.394659 
C 253.053727 282.026102 254.496514 285.5093 257.064332 288.077118 
C 259.63215 290.644936 263.115348 292.087723 266.746791 292.087723 
z
" style="fill:#b8860b;stroke:#b8860b;"/>
    <path clip-path="url(#p033dc78d74)" d="M 250.07747 268.218011 
C 251.403485 268.218011 252.675369 267.69118 253.613003 266.753545 
C 254.550638 265.815911 255.07747 264.544027 255.07747 263.218011 
C 255.07747 261.891996 254.550638 260.620112 253.613003 259.682477 
C 252.675369 258.744843 251.403485 258.218011 250.07747 258.218011 
C 248.751454 258.218011 247.47957 258.744843 246.541936 259.682477 
C 245.604301 260.620112 245.07747 261.891996 245.07747 263.218011 
C 245.07747 264.544027 245.604301 265.815911 246.541936 266.753545 
C 247.47957 267.69118 248.751454 268.218011 250.07747 268.218011 
z
" style="fill:#4682b4;stroke:#4682b4;"/>
    <path clip-path="url(#p033dc78d74)" d="M 262.503867 293.40641 
C 264.379136 293.40641 266.177851 292.661358 267.503867 291.335342 
C 268.829882 290.009327 269.574934 288.210611 269.574934 286.335342 
C 269.574934 284.460073 268.829882 282.661358 267.503867 281.335342 
C 266.177851 280.009327 264.379136 279.264274 262.503867 279.264274 
C 260.628597 279.264274 258.829882 280.009327 257.503867 281.335342 
C 256.177851 282.661358 255.432799 284.460073 255.432799 286.335342 
C 255.432799 288.210611 256.177851 290.009327 257.503867 291.335342 
C 258.829882 292.661358 260.628597 293.40641 262.503867 293.40641 
z
" style="fill:#d2691e;stroke:#d2691e;"/>
    <path clip-path="url(#p033dc78d74)" d="M 268.432762 262.154401 
C 270.529377 262.154401 272.540402 261.321407 274.022932 259.838876 
C 275.505463 258.356346 276.338456 256.345321 276.338456 254.248706 
C 276.338456 252.152092 275.505463 250.141067 274.022932 248.658536 
C 272.540402 247.176006 270.529377 246.343012 268.432762 246.343012 
C 266.336148 246.343012 264.325123 247.176006 262.842592 248.658536 
C 261.360062 250.141067 260.527068 252.152092 260.527068 254.248706 
C 260.527068 256.345321 261.360062 258.356346 262.842592 259.838876 
C 264.325123 261.321407 266.336148 262.154401 268.432762 262.154401 
z
" style="fill:#9acd32;stroke:#9acd32;"/>
    <path clip-path="url(#p033dc78d74)" d="M 246.012461 216.930166 
C 247.88773 216.930166 249.686446 216.185114 251.012461 214.859099 
C 252.338477 213.533083 253.083529 211.734368 253.083529 209.859099 
C 253.083529 207.983829 252.338477 206.185114 251.012461 204.859099 
C 249.686446 203.533083 247.88773 202.788031 246.012461 202.788031 
C 244.137192 202.788031 242.338477 203.533083 241.012461 204.859099 
C 239.686446 206.185114 238.941393 207.983829 238.941393 209.859099 
C 238.941393 211.734368 239.686446 213.533083 241.012461 214.859099 
C 242.338477 216.185114 244.137192 216.930166 246.012461 216.930166 
z
" style="fill:#8fbc8f;stroke:#8fbc8f;"/>
    <path clip-path="url(#p033dc78d74)" d="M 245.826706 301.16583 
C 249.577245 301.16583 253.174675 299.675726 255.826706 297.023695 
C 258.478737 294.371664 259.968842 290.774233 259.968842 287.023695 
C 259.968842 283.273157 258.478737 279.675726 255.826706 277.023695 
C 253.174675 274.371664 249.577245 272.881559 245.826706 272.881559 
C 242.076168 272.881559 238.478737 274.371664 235.826706 277.023695 
C 233.174675 279.675726 231.684571 283.273157 231.684571 287.023695 
C 231.684571 290.774233 233.174675 294.371664 235.826706 297.023695 
C 238.478737 299.675726 242.076168 301.16583 245.826706 301.16583 
z
" style="fill:#800080;stroke:#800080;"/>
    <path clip-path="url(#p033dc78d74)" d="M 238.37713 258.283974 
C 239.703145 258.283974 240.975029 257.757142 241.912664 256.819508 
C 242.850298 255.881873 243.37713 254.609989 243.37713 253.283974 
C 243.37713 251.957958 242.850298 250.686075 241.912664 249.74844 
C 240.975029 248.810805 239.703145 248.283974 238.37713 248.283974 
C 237.051114 248.283974 235.77923 248.810805 234.841596 249.74844 
C 233.903961 250.686075 233.37713 251.957958 233.37713 253.283974 
C 233.37713 254.609989 233.903961 255.881873 234.841596 256.819508 
C 235.77923 257.757142 237.051114 258.283974 238.37713 258.283974 
z
" style="fill:#b03060;stroke:#b03060;"/>
    <path clip-path="url(#p033dc78d74)" d="M 259.605493 261.61987 
C 261.902219 261.61987 264.105187 260.707371 265.729217 259.083341 
C 267.353248 257.45931 268.265747 255.256342 268.265747 252.959616 
C 268.265747 250.66289 267.353248 248.459923 265.729217 246.835892 
C 264.105187 245.211861 261.902219 244.299362 259.605493 244.299362 
C 257.308767 244.299362 255.105799 245.211861 253.481769 246.835892 
C 251.857738 248.459923 250.945239 250.66289 250.945239 252.959616 
C 250.945239 255.256342 251.857738 257.45931 253.481769 259.083341 
C 255.105799 260.707371 257.308767 261.61987 259.605493 261.61987 
z
" style="fill:#9932cc;stroke:#9932cc;"/>
    <path clip-path="url(#p033dc78d74)" d="M 223.145907 234.933567 
C 225.626655 234.933567 228.006132 233.947956 229.760285 232.193802 
C 231.514439 230.439649 232.50005 228.060172 232.50005 225.579424 
C 232.50005 223.098676 231.514439 220.719199 229.760285 218.965046 
C 228.006132 217.210892 225.626655 216.22528 223.145907 216.22528 
C 220.665159 216.22528 218.285682 217.210892 216.531529 218.965046 
C 214.777375 220.719199 213.791763 223.098676 213.791763 225.579424 
C 213.791763 228.060172 214.777375 230.439649 216.531529 232.193802 
C 218.285682 233.947956 220.665159 234.933567 223.145907 234.933567 
z
" style="fill:#ff4500;stroke:#ff4500;"/>
    <path clip-path="url(#p033dc78d74)" d="M 267.043246 289.854859 
C 269.339972 289.854859 271.54294 288.94236 273.16697 287.318329 
C 274.791001 285.694298 275.7035 283.491331 275.7035 281.194605 
C 275.7035 278.897879 274.791001 276.694911 273.16697 275.07088 
C 271.54294 273.44685 269.339972 272.534351 267.043246 272.534351 
C 264.74652 272.534351 262.543552 273.44685 260.919522 275.07088 
C 259.295491 276.694911 258.382992 278.897879 258.382992 281.194605 
C 258.382992 283.491331 259.295491 285.694298 260.919522 287.318329 
C 262.543552 288.94236 264.74652 289.854859 267.043246 289.854859 
z
" style="fill:#ff8c00;stroke:#ff8c00;"/>
    <path clip-path="url(#p033dc78d74)" d="M 236.641692 186.639237 
C 238.265723 186.639237 239.823456 185.994003 240.971819 184.84564 
C 242.120182 183.697276 242.765416 182.139543 242.765416 180.515513 
C 242.765416 178.891482 242.120182 177.333749 240.971819 176.185386 
C 239.823456 175.037022 238.265723 174.391788 236.641692 174.391788 
C 235.017661 174.391788 233.459928 175.037022 232.311565 176.185386 
C 231.163202 177.333749 230.517968 178.891482 230.517968 180.515513 
C 230.517968 182.139543 231.163202 183.697276 232.311565 184.84564 
C 233.459928 185.994003 235.017661 186.639237 236.641692 186.639237 
z
" style="fill:#ffd700;stroke:#ffd700;"/>
    <path clip-path="url(#p033dc78d74)" d="M 265.058017 234.949074 
C 266.682048 234.949074 268.239781 234.30384 269.388144 233.155476 
C 270.536508 232.007113 271.181742 230.44938 271.181742 228.825349 
C 271.181742 227.201319 270.536508 225.643586 269.388144 224.495222 
C 268.239781 223.346859 266.682048 222.701625 265.058017 222.701625 
C 263.433987 222.701625 261.876253 223.346859 260.72789 224.495222 
C 259.579527 225.643586 258.934293 227.201319 258.934293 228.825349 
C 258.934293 230.44938 259.579527 232.007113 260.72789 233.155476 
C 261.876253 234.30384 263.433987 234.949074 265.058017 234.949074 
z
" style="fill:#0000cd;stroke:#0000cd;"/>
    <path clip-path="url(#p033dc78d74)" d="M 269.703795 239.467753 
C 272.184543 239.467753 274.56402 238.482141 276.318173 236.727987 
C 278.072327 234.973834 279.057939 232.594357 279.057939 230.113609 
C 279.057939 227.632861 278.072327 225.253384 276.318173 223.499231 
C 274.56402 221.745077 272.184543 220.759466 269.703795 220.759466 
C 267.223047 220.759466 264.843571 221.745077 263.089417 223.499231 
C 261.335263 225.253384 260.349652 227.632861 260.349652 230.113609 
C 260.349652 232.594357 261.335263 234.973834 263.089417 236.727987 
C 264.843571 238.482141 267.223047 239.467753 269.703795 239.467753 
z
" style="fill:#deb887;stroke:#deb887;"/>
    <path clip-path="url(#p033dc78d74)" d="M 268.119531 282.576091 
C 269.9948 282.576091 271.793515 281.831038 273.119531 280.505023 
C 274.445546 279.179007 275.190598 277.380292 275.190598 275.505023 
C 275.190598 273.629754 274.445546 271.831038 273.119531 270.505023 
C 271.793515 269.179007 269.9948 268.433955 268.119531 268.433955 
C 266.244261 268.433955 264.445546 269.179007 263.119531 270.505023 
C 261.793515 271.831038 261.048463 273.629754 261.048463 275.505023 
C 261.048463 277.380292 261.793515 279.179007 263.119531 280.505023 
C 264.445546 281.831038 266.244261 282.576091 268.119531 282.576091 
z
" style="fill:#00ff00;stroke:#00ff00;"/>
    <path clip-path="url(#p033dc78d74)" d="M 242.349362 248.262754 
C 243.675377 248.262754 244.947261 247.735923 245.884896 246.798288 
C 246.82253 245.860654 247.349362 244.58877 247.349362 243.262754 
C 247.349362 241.936739 246.82253 240.664855 245.884896 239.72722 
C 244.947261 238.789586 243.675377 238.262754 242.349362 238.262754 
C 241.023346 238.262754 239.751463 238.789586 238.813828 239.72722 
C 237.876194 240.664855 237.349362 241.936739 237.349362 243.262754 
C 237.349362 244.58877 237.876194 245.860654 238.813828 246.798288 
C 239.751463 247.735923 241.023346 248.262754 242.349362 248.262754 
z
" style="fill:#00fa9a;stroke:#00fa9a;"/>
    <path clip-path="url(#p033dc78d74)" d="M 259.643539 273.778248 
C 261.740154 273.778248 263.751179 272.945254 265.233709 271.462724 
C 266.716239 269.980193 267.549233 267.969168 267.549233 265.872554 
C 267.549233 263.775939 266.716239 261.764914 265.233709 260.282384 
C 263.751179 258.799853 261.740154 257.966859 259.643539 257.966859 
C 257.546925 257.966859 255.5359 258.799853 254.053369 260.282384 
C 252.570839 261.764914 251.737845 263.775939 251.737845 265.872554 
C 251.737845 267.969168 252.570839 269.980193 254.053369 271.462724 
C 255.5359 272.945254 257.546925 273.778248 259.643539 273.778248 
z
" style="fill:#dc143c;stroke:#dc143c;"/>
    <path clip-path="url(#p033dc78d74)" d="M 274.841739 282.126313 
C 276.717008 282.126313 278.515723 281.381261 279.841739 280.055245 
C 281.167754 278.72923 281.912807 276.930514 281.912807 275.055245 
C 281.912807 273.179976 281.167754 271.381261 279.841739 270.055245 
C 278.515723 268.72923 276.717008 267.984177 274.841739 267.984177 
C 272.96647 267.984177 271.167754 268.72923 269.841739 270.055245 
C 268.515723 271.381261 267.770671 273.179976 267.770671 275.055245 
C 267.770671 276.930514 268.515723 278.72923 269.841739 280.055245 
C 271.167754 281.381261 272.96647 282.126313 274.841739 282.126313 
z
" style="fill:#00bfff;stroke:#00bfff;"/>
    <path clip-path="url(#p033dc78d74)" d="M 281.594917 291.997658 
C 283.891644 291.997658 286.094611 291.085159 287.718642 289.461129 
C 289.342672 287.837098 290.255171 285.63413 290.255171 283.337404 
C 290.255171 281.040678 289.342672 278.837711 287.718642 277.21368 
C 286.094611 275.589649 283.891644 274.67715 281.594917 274.67715 
C 279.298191 274.67715 277.095224 275.589649 275.471193 277.21368 
C 273.847162 278.837711 272.934663 281.040678 272.934663 283.337404 
C 272.934663 285.63413 273.847162 287.837098 275.471193 289.461129 
C 277.095224 291.085159 279.298191 291.997658 281.594917 291.997658 
z
" style="fill:#f4a460;stroke:#f4a460;"/>
    <path clip-path="url(#p033dc78d74)" d="M 229.808262 266.335061 
C 231.683532 266.335061 233.482247 265.590009 234.808262 264.263993 
C 236.134278 262.937978 236.87933 261.139262 236.87933 259.263993 
C 236.87933 257.388724 236.134278 255.590009 234.808262 254.263993 
C 233.482247 252.937978 231.683532 252.192925 229.808262 252.192925 
C 227.932993 252.192925 226.134278 252.937978 224.808262 254.263993 
C 223.482247 255.590009 222.737195 257.388724 222.737195 259.263993 
C 222.737195 261.139262 223.482247 262.937978 224.808262 264.263993 
C 226.134278 265.590009 227.932993 266.335061 229.808262 266.335061 
z
" style="fill:#0000ff;stroke:#0000ff;"/>
    <path clip-path="url(#p033dc78d74)" d="M 245.741014 241.921204 
C 247.837628 241.921204 249.848653 241.088211 251.331184 239.60568 
C 252.813714 238.12315 253.646708 236.112125 253.646708 234.01551 
C 253.646708 231.918896 252.813714 229.907871 251.331184 228.42534 
C 249.848653 226.94281 247.837628 226.109816 245.741014 226.109816 
C 243.644399 226.109816 241.633374 226.94281 240.150844 228.42534 
C 238.668314 229.907871 237.83532 231.918896 237.83532 234.01551 
C 237.83532 236.112125 238.668314 238.12315 240.150844 239.60568 
C 241.633374 241.088211 243.644399 241.921204 245.741014 241.921204 
z
" style="fill:#a020f0;stroke:#a020f0;"/>
    <path clip-path="url(#p033dc78d74)" d="M 252.030875 243.584948 
C 254.127489 243.584948 256.138514 242.751954 257.621045 241.269424 
C 259.103575 239.786893 259.936569 237.775869 259.936569 235.679254 
C 259.936569 233.582639 259.103575 231.571614 257.621045 230.089084 
C 256.138514 228.606554 254.127489 227.77356 252.030875 227.77356 
C 249.93426 227.77356 247.923235 228.606554 246.440705 230.089084 
C 244.958174 231.571614 244.12518 233.582639 244.12518 235.679254 
C 244.12518 237.775869 244.958174 239.786893 246.440705 241.269424 
C 247.923235 242.751954 249.93426 243.584948 252.030875 243.584948 
z
" style="fill:#adff2f;stroke:#adff2f;"/>
    <path clip-path="url(#p033dc78d74)" d="M 255.963305 200.007806 
C 257.587336 200.007806 259.145069 199.362572 260.293432 198.214209 
C 261.441795 197.065846 262.087029 195.508112 262.087029 193.884082 
C 262.087029 192.260051 261.441795 190.702318 260.293432 189.553955 
C 259.145069 188.405592 257.587336 187.760357 255.963305 187.760357 
C 254.339274 187.760357 252.781541 188.405592 251.633178 189.553955 
C 250.484815 190.702318 249.839581 192.260051 249.839581 193.884082 
C 249.839581 195.508112 250.484815 197.065846 251.633178 198.214209 
C 252.781541 199.362572 254.339274 200.007806 255.963305 200.007806 
z
" style="fill:#ff6347;stroke:#ff6347;"/>
    <path clip-path="url(#p033dc78d74)" d="M 249.476697 249.446311 
C 251.100728 249.446311 252.658461 248.801077 253.806824 247.652714 
C 254.955187 246.50435 255.600422 244.946617 255.600422 243.322587 
C 255.600422 241.698556 254.955187 240.140823 253.806824 238.99246 
C 252.658461 237.844096 251.100728 237.198862 249.476697 237.198862 
C 247.852667 237.198862 246.294933 237.844096 245.14657 238.99246 
C 243.998207 240.140823 243.352973 241.698556 243.352973 243.322587 
C 243.352973 244.946617 243.998207 246.50435 245.14657 247.652714 
C 246.294933 248.801077 247.852667 249.446311 249.476697 249.446311 
z
" style="fill:#da70d6;stroke:#da70d6;"/>
    <path clip-path="url(#p033dc78d74)" d="M 259.510445 223.103892 
C 261.385714 223.103892 263.184429 222.35884 264.510445 221.032824 
C 265.83646 219.706809 266.581513 217.908093 266.581513 216.032824 
C 266.581513 214.157555 265.83646 212.35884 264.510445 211.032824 
C 263.184429 209.706809 261.385714 208.961756 259.510445 208.961756 
C 257.635176 208.961756 255.83646 209.706809 254.510445 211.032824 
C 253.184429 212.35884 252.439377 214.157555 252.439377 216.032824 
C 252.439377 217.908093 253.184429 219.706809 254.510445 221.032824 
C 255.83646 222.35884 257.635176 223.103892 259.510445 223.103892 
z
" style="fill:#b0c4de;stroke:#b0c4de;"/>
    <path clip-path="url(#p033dc78d74)" d="M 263.070912 248.497725 
C 265.167527 248.497725 267.178552 247.664731 268.661082 246.182201 
C 270.143613 244.699671 270.976606 242.688646 270.976606 240.592031 
C 270.976606 238.495417 270.143613 236.484392 268.661082 235.001861 
C 267.178552 233.519331 265.167527 232.686337 263.070912 232.686337 
C 260.974298 232.686337 258.963273 233.519331 257.480742 235.001861 
C 255.998212 236.484392 255.165218 238.495417 255.165218 240.592031 
C 255.165218 242.688646 255.998212 244.699671 257.480742 246.182201 
C 258.963273 247.664731 260.974298 248.497725 263.070912 248.497725 
z
" style="fill:#ff00ff;stroke:#ff00ff;"/>
    <path clip-path="url(#p033dc78d74)" d="M 250.830218 241.089245 
C 252.454249 241.089245 254.011982 240.444011 255.160345 239.295648 
C 256.308708 238.147285 256.953942 236.589552 256.953942 234.965521 
C 256.953942 233.34149 256.308708 231.783757 255.160345 230.635394 
C 254.011982 229.487031 252.454249 228.841797 250.830218 228.841797 
C 249.206187 228.841797 247.648454 229.487031 246.500091 230.635394 
C 245.351728 231.783757 244.706494 233.34149 244.706494 234.965521 
C 244.706494 236.589552 245.351728 238.147285 246.500091 239.295648 
C 247.648454 240.444011 249.206187 241.089245 250.830218 241.089245 
z
" style="fill:#f0e68c;stroke:#f0e68c;"/>
    <path clip-path="url(#p033dc78d74)" d="M 242.4907 226.785746 
C 244.365969 226.785746 246.164685 226.040694 247.4907 224.714678 
C 248.816716 223.388663 249.561768 221.589947 249.561768 219.714678 
C 249.561768 217.839409 248.816716 216.040694 247.4907 214.714678 
C 246.164685 213.388663 244.365969 212.64361 242.4907 212.64361 
C 240.615431 212.64361 238.816716 213.388663 237.4907 214.714678 
C 236.164685 216.040694 235.419632 217.839409 235.419632 219.714678 
C 235.419632 221.589947 236.164685 223.388663 237.4907 224.714678 
C 238.816716 226.040694 240.615431 226.785746 242.4907 226.785746 
z
" style="fill:#fa8072;stroke:#fa8072;"/>
    <path clip-path="url(#p033dc78d74)" d="M 268.70273 272.282725 
C 270.028745 272.282725 271.300629 271.755894 272.238264 270.818259 
C 273.175898 269.880624 273.70273 268.608741 273.70273 267.282725 
C 273.70273 265.95671 273.175898 264.684826 272.238264 263.747191 
C 271.300629 262.809557 270.028745 262.282725 268.70273 262.282725 
C 267.376714 262.282725 266.10483 262.809557 265.167196 263.747191 
C 264.229561 264.684826 263.70273 265.95671 263.70273 267.282725 
C 263.70273 268.608741 264.229561 269.880624 265.167196 270.818259 
C 266.10483 271.755894 267.376714 272.282725 268.70273 272.282725 
z
" style="fill:#ffff54;stroke:#ffff54;"/>
    <path clip-path="url(#p033dc78d74)" d="M 251.889125 275.471142 
C 253.513155 275.471142 255.070888 274.825908 256.219252 273.677545 
C 257.367615 272.529182 258.012849 270.971448 258.012849 269.347418 
C 258.012849 267.723387 257.367615 266.165654 256.219252 265.017291 
C 255.070888 263.868928 253.513155 263.223693 251.889125 263.223693 
C 250.265094 263.223693 248.707361 263.868928 247.558997 265.017291 
C 246.410634 266.165654 245.7654 267.723387 245.7654 269.347418 
C 245.7654 270.971448 246.410634 272.529182 247.558997 273.677545 
C 248.707361 274.825908 250.265094 275.471142 251.889125 275.471142 
z
" style="fill:#6495ed;stroke:#6495ed;"/>
    <path clip-path="url(#p033dc78d74)" d="M 267.788309 251.614215 
C 269.114324 251.614215 270.386208 251.087384 271.323843 250.149749 
C 272.261477 249.212115 272.788309 247.940231 272.788309 246.614215 
C 272.788309 245.2882 272.261477 244.016316 271.323843 243.078681 
C 270.386208 242.141047 269.114324 241.614215 267.788309 241.614215 
C 266.462293 241.614215 265.19041 242.141047 264.252775 243.078681 
C 263.315141 244.016316 262.788309 245.2882 262.788309 246.614215 
C 262.788309 247.940231 263.315141 249.212115 264.252775 250.149749 
C 265.19041 251.087384 266.462293 251.614215 267.788309 251.614215 
z
" style="fill:#dda0dd;stroke:#dda0dd;"/>
    <path clip-path="url(#p033dc78d74)" d="M 268.526007 319.866669 
C 269.852023 319.866669 271.123907 319.339837 272.061541 318.402202 
C 272.999176 317.464568 273.526007 316.192684 273.526007 314.866669 
C 273.526007 313.540653 272.999176 312.268769 272.061541 311.331135 
C 271.123907 310.3935 269.852023 309.866669 268.526007 309.866669 
C 267.199992 309.866669 265.928108 310.3935 264.990473 311.331135 
C 264.052839 312.268769 263.526007 313.540653 263.526007 314.866669 
C 263.526007 316.192684 264.052839 317.464568 264.990473 318.402202 
C 265.928108 319.339837 267.199992 319.866669 268.526007 319.866669 
z
" style="fill:#afeeee;stroke:#afeeee;"/>
    <path clip-path="url(#p033dc78d74)" d="M 260.995769 263.895971 
C 263.092384 263.895971 265.103409 263.062977 266.585939 261.580447 
C 268.06847 260.097916 268.901464 258.086891 268.901464 255.990277 
C 268.901464 253.893662 268.06847 251.882637 266.585939 250.400107 
C 265.103409 248.917576 263.092384 248.084583 260.995769 248.084583 
C 258.899155 248.084583 256.88813 248.917576 255.405599 250.400107 
C 253.923069 251.882637 253.090075 253.893662 253.090075 255.990277 
C 253.090075 258.086891 253.923069 260.097916 255.405599 261.580447 
C 256.88813 263.062977 258.899155 263.895971 260.995769 263.895971 
z
" style="fill:#7fffd4;stroke:#7fffd4;"/>
    <path clip-path="url(#p033dc78d74)" d="M 265.495813 241.787002 
C 267.792539 241.787002 269.995507 240.874503 271.619537 239.250472 
C 273.243568 237.626442 274.156067 235.423474 274.156067 233.126748 
C 274.156067 230.830022 273.243568 228.627054 271.619537 227.003024 
C 269.995507 225.378993 267.792539 224.466494 265.495813 224.466494 
C 263.199087 224.466494 260.996119 225.378993 259.372088 227.003024 
C 257.748058 228.627054 256.835559 230.830022 256.835559 233.126748 
C 256.835559 235.423474 257.748058 237.626442 259.372088 239.250472 
C 260.996119 240.874503 263.199087 241.787002 265.495813 241.787002 
z
" style="fill:#ff69b4;stroke:#ff69b4;"/>
    <path clip-path="url(#p033dc78d74)" d="M 256.438643 284.42043 
C 257.764659 284.42043 259.036542 283.893599 259.974177 282.955964 
C 260.911811 282.01833 261.438643 280.746446 261.438643 279.42043 
C 261.438643 278.094415 260.911811 276.822531 259.974177 275.884897 
C 259.036542 274.947262 257.764659 274.42043 256.438643 274.42043 
C 255.112628 274.42043 253.840744 274.947262 252.903109 275.884897 
C 251.965475 276.822531 251.438643 278.094415 251.438643 279.42043 
C 251.438643 280.746446 251.965475 282.01833 252.903109 282.955964 
C 253.840744 283.893599 255.112628 284.42043 256.438643 284.42043 
z
" style="fill:#ffb6c1;stroke:#ffb6c1;"/>
    <path clip-path="url(#p033dc78d74)" d="M 244.133137 253.57272 
C 245.459153 253.57272 246.731037 253.045888 247.668671 252.108254 
C 248.606306 251.170619 249.133137 249.898735 249.133137 248.57272 
C 249.133137 247.246704 248.606306 245.97482 247.668671 245.037186 
C 246.731037 244.099551 245.459153 243.57272 244.133137 243.57272 
C 242.807122 243.57272 241.535238 244.099551 240.597603 245.037186 
C 239.659969 245.97482 239.133137 247.246704 239.133137 248.57272 
C 239.133137 249.898735 239.659969 251.170619 240.597603 252.108254 
C 241.535238 253.045888 242.807122 253.57272 244.133137 253.57272 
z
" style="fill:#2f4f4f;stroke:#2f4f4f;"/>
    <path clip-path="url(#p033dc78d74)" d="M 258.839206 241.656954 
C 260.165222 241.656954 261.437106 241.130123 262.37474 240.192488 
C 263.312375 239.254853 263.839206 237.98297 263.839206 236.656954 
C 263.839206 235.330939 263.312375 234.059055 262.37474 233.12142 
C 261.437106 232.183786 260.165222 231.656954 258.839206 231.656954 
C 257.513191 231.656954 256.241307 232.183786 255.303672 233.12142 
C 254.366038 234.059055 253.839206 235.330939 253.839206 236.656954 
C 253.839206 237.98297 254.366038 239.254853 255.303672 240.192488 
C 256.241307 241.130123 257.513191 241.656954 258.839206 241.656954 
z
" style="fill:#8b4513;stroke:#8b4513;"/>
    <path clip-path="url(#p033dc78d74)" d="M 260.873344 306.531566 
C 262.199359 306.531566 263.471243 306.004734 264.408878 305.067099 
C 265.346512 304.129465 265.873344 302.857581 265.873344 301.531566 
C 265.873344 300.20555 265.346512 298.933666 264.408878 297.996032 
C 263.471243 297.058397 262.199359 296.531566 260.873344 296.531566 
C 259.547328 296.531566 258.275444 297.058397 257.33781 297.996032 
C 256.400175 298.933666 255.873344 300.20555 255.873344 301.531566 
C 255.873344 302.857581 256.400175 304.129465 257.33781 305.067099 
C 258.275444 306.004734 259.547328 306.531566 260.873344 306.531566 
z
" style="fill:#2e8b57;stroke:#2e8b57;"/>
    <path clip-path="url(#p033dc78d74)" d="M 274.34606 263.967961 
C 275.970091 263.967961 277.527824 263.322727 278.676187 262.174363 
C 279.82455 261.026 280.469784 259.468267 280.469784 257.844236 
C 280.469784 256.220206 279.82455 254.662473 278.676187 253.514109 
C 277.527824 252.365746 275.970091 251.720512 274.34606 251.720512 
C 272.722029 251.720512 271.164296 252.365746 270.015933 253.514109 
C 268.86757 254.662473 268.222335 256.220206 268.222335 257.844236 
C 268.222335 259.468267 268.86757 261.026 270.015933 262.174363 
C 271.164296 263.322727 272.722029 263.967961 274.34606 263.967961 
z
" style="fill:#228b22;stroke:#228b22;"/>
    <path clip-path="url(#p033dc78d74)" d="M 262.89397 274.98419 
C 264.769239 274.98419 266.567955 274.239138 267.89397 272.913123 
C 269.219986 271.587107 269.965038 269.788392 269.965038 267.913123 
C 269.965038 266.037854 269.219986 264.239138 267.89397 262.913123 
C 266.567955 261.587107 264.769239 260.842055 262.89397 260.842055 
C 261.018701 260.842055 259.219986 261.587107 257.89397 262.913123 
C 256.567955 264.239138 255.822902 266.037854 255.822902 267.913123 
C 255.822902 269.788392 256.567955 271.587107 257.89397 272.913123 
C 259.219986 274.239138 261.018701 274.98419 262.89397 274.98419 
z
" style="fill:#8b0000;stroke:#8b0000;"/>
    <path clip-path="url(#p033dc78d74)" d="M 258.11079 335.929993 
C 259.986059 335.929993 261.784774 335.184941 263.11079 333.858925 
C 264.436805 332.53291 265.181858 330.734195 265.181858 328.858925 
C 265.181858 326.983656 264.436805 325.184941 263.11079 323.858925 
C 261.784774 322.53291 259.986059 321.787858 258.11079 321.787858 
C 256.235521 321.787858 254.436805 322.53291 253.11079 323.858925 
C 251.784774 325.184941 251.039722 326.983656 251.039722 328.858925 
C 251.039722 330.734195 251.784774 332.53291 253.11079 333.858925 
C 254.436805 335.184941 256.235521 335.929993 258.11079 335.929993 
z
" style="fill:#808000;stroke:#808000;"/>
    <path clip-path="url(#p033dc78d74)" d="M 263.362422 259.245322 
C 264.688437 259.245322 265.960321 258.71849 266.897956 257.780856 
C 267.83559 256.843221 268.362422 255.571337 268.362422 254.245322 
C 268.362422 252.919306 267.83559 251.647422 266.897956 250.709788 
C 265.960321 249.772153 264.688437 249.245322 263.362422 249.245322 
C 262.036406 249.245322 260.764522 249.772153 259.826888 250.709788 
C 258.889253 251.647422 258.362422 252.919306 258.362422 254.245322 
C 258.362422 255.571337 258.889253 256.843221 259.826888 257.780856 
C 260.764522 258.71849 262.036406 259.245322 263.362422 259.245322 
z
" style="fill:#483d8b;stroke:#483d8b;"/>
    <path clip-path="url(#p033dc78d74)" d="M 250.671243 258.337572 
C 251.997258 258.337572 253.269142 257.81074 254.206777 256.873106 
C 255.144411 255.935471 255.671243 254.663587 255.671243 253.337572 
C 255.671243 252.011556 255.144411 250.739672 254.206777 249.802038 
C 253.269142 248.864403 251.997258 248.337572 250.671243 248.337572 
C 249.345227 248.337572 248.073344 248.864403 247.135709 249.802038 
C 246.198074 250.739672 245.671243 252.011556 245.671243 253.337572 
C 245.671243 254.663587 246.198074 255.935471 247.135709 256.873106 
C 248.073344 257.81074 249.345227 258.337572 250.671243 258.337572 
z
" style="fill:#b8860b;stroke:#b8860b;"/>
    <path clip-path="url(#p033dc78d74)" d="M 265.454499 388.697186 
C 267.078529 388.697186 268.636263 388.051952 269.784626 386.903589 
C 270.932989 385.755226 271.578223 384.197493 271.578223 382.573462 
C 271.578223 380.949431 270.932989 379.391698 269.784626 378.243335 
C 268.636263 377.094972 267.078529 376.449738 265.454499 376.449738 
C 263.830468 376.449738 262.272735 377.094972 261.124372 378.243335 
C 259.976009 379.391698 259.330774 380.949431 259.330774 382.573462 
C 259.330774 384.197493 259.976009 385.755226 261.124372 386.903589 
C 262.272735 388.051952 263.830468 388.697186 265.454499 388.697186 
z
" style="fill:#d2691e;stroke:#d2691e;"/>
    <path clip-path="url(#p033dc78d74)" d="M 285.257378 283.595392 
C 286.583394 283.595392 287.855277 283.068561 288.792912 282.130926 
C 289.730546 281.193291 290.257378 279.921408 290.257378 278.595392 
C 290.257378 277.269377 289.730546 275.997493 288.792912 275.059858 
C 287.855277 274.122224 286.583394 273.595392 285.257378 273.595392 
C 283.931363 273.595392 282.659479 274.122224 281.721844 275.059858 
C 280.78421 275.997493 280.257378 277.269377 280.257378 278.595392 
C 280.257378 279.921408 280.78421 281.193291 281.721844 282.130926 
C 282.659479 283.068561 283.931363 283.595392 285.257378 283.595392 
z
" style="fill:#9acd32;stroke:#9acd32;"/>
    <path clip-path="url(#p033dc78d74)" d="M 288.601616 233.41413 
C 290.898342 233.41413 293.10131 232.501631 294.72534 230.8776 
C 296.349371 229.25357 297.26187 227.050602 297.26187 224.753876 
C 297.26187 222.45715 296.349371 220.254182 294.72534 218.630152 
C 293.10131 217.006121 290.898342 216.093622 288.601616 216.093622 
C 286.30489 216.093622 284.101922 217.006121 282.477891 218.630152 
C 280.853861 220.254182 279.941362 222.45715 279.941362 224.753876 
C 279.941362 227.050602 280.853861 229.25357 282.477891 230.8776 
C 284.101922 232.501631 286.30489 233.41413 288.601616 233.41413 
z
" style="fill:#32cd32;stroke:#32cd32;"/>
    <path clip-path="url(#p033dc78d74)" d="M 271.416627 248.311297 
C 273.040658 248.311297 274.598391 247.666063 275.746754 246.5177 
C 276.895117 245.369336 277.540351 243.811603 277.540351 242.187573 
C 277.540351 240.563542 276.895117 239.005809 275.746754 237.857445 
C 274.598391 236.709082 273.040658 236.063848 271.416627 236.063848 
C 269.792596 236.063848 268.234863 236.709082 267.0865 237.857445 
C 265.938137 239.005809 265.292903 240.563542 265.292903 242.187573 
C 265.292903 243.811603 265.938137 245.369336 267.0865 246.5177 
C 268.234863 247.666063 269.792596 248.311297 271.416627 248.311297 
z
" style="fill:#8fbc8f;stroke:#8fbc8f;"/>
    <path clip-path="url(#p033dc78d74)" d="M 282.315444 266.36851 
C 284.61217 266.36851 286.815138 265.456011 288.439168 263.83198 
C 290.063199 262.20795 290.975698 260.004982 290.975698 257.708256 
C 290.975698 255.41153 290.063199 253.208562 288.439168 251.584532 
C 286.815138 249.960501 284.61217 249.048002 282.315444 249.048002 
C 280.018718 249.048002 277.81575 249.960501 276.19172 251.584532 
C 274.567689 253.208562 273.65519 255.41153 273.65519 257.708256 
C 273.65519 260.004982 274.567689 262.20795 276.19172 263.83198 
C 277.81575 265.456011 280.018718 266.36851 282.315444 266.36851 
z
" style="fill:#ff8c00;stroke:#ff8c00;"/>
    <path clip-path="url(#p033dc78d74)" d="M 281.14633 325.087554 
C 283.021599 325.087554 284.820315 324.342501 286.14633 323.016486 
C 287.472346 321.69047 288.217398 319.891755 288.217398 318.016486 
C 288.217398 316.141217 287.472346 314.342501 286.14633 313.016486 
C 284.820315 311.69047 283.021599 310.945418 281.14633 310.945418 
C 279.271061 310.945418 277.472346 311.69047 276.14633 313.016486 
C 274.820315 314.342501 274.075262 316.141217 274.075262 318.016486 
C 274.075262 319.891755 274.820315 321.69047 276.14633 323.016486 
C 277.472346 324.342501 279.271061 325.087554 281.14633 325.087554 
z
" style="fill:#ffd700;stroke:#ffd700;"/>
    <path clip-path="url(#p033dc78d74)" d="M 263.996998 240.384111 
C 266.093612 240.384111 268.104637 239.551117 269.587168 238.068587 
C 271.069698 236.586056 271.902692 234.575031 271.902692 232.478417 
C 271.902692 230.381802 271.069698 228.370777 269.587168 226.888247 
C 268.104637 225.405716 266.093612 224.572722 263.996998 224.572722 
C 261.900383 224.572722 259.889358 225.405716 258.406828 226.888247 
C 256.924297 228.370777 256.091304 230.381802 256.091304 232.478417 
C 256.091304 234.575031 256.924297 236.586056 258.406828 238.068587 
C 259.889358 239.551117 261.900383 240.384111 263.996998 240.384111 
z
" style="fill:#deb887;stroke:#deb887;"/>
    <path clip-path="url(#p033dc78d74)" d="M 261.576933 324.989974 
C 263.452202 324.989974 265.250917 324.244921 266.576933 322.918906 
C 267.902948 321.59289 268.648 319.794175 268.648 317.918906 
C 268.648 316.043637 267.902948 314.244921 266.576933 312.918906 
C 265.250917 311.59289 263.452202 310.847838 261.576933 310.847838 
C 259.701663 310.847838 257.902948 311.59289 256.576933 312.918906 
C 255.250917 314.244921 254.505865 316.043637 254.505865 317.918906 
C 254.505865 319.794175 255.250917 321.59289 256.576933 322.918906 
C 257.902948 324.244921 259.701663 324.989974 261.576933 324.989974 
z
" style="fill:#00ff00;stroke:#00ff00;"/>
    <path clip-path="url(#p033dc78d74)" d="M 256.379453 246.4813 
C 258.254723 246.4813 260.053438 245.736247 261.379453 244.410232 
C 262.705469 243.084216 263.450521 241.285501 263.450521 239.410232 
C 263.450521 237.534963 262.705469 235.736247 261.379453 234.410232 
C 260.053438 233.084216 258.254723 232.339164 256.379453 232.339164 
C 254.504184 232.339164 252.705469 233.084216 251.379453 234.410232 
C 250.053438 235.736247 249.308386 237.534963 249.308386 239.410232 
C 249.308386 241.285501 250.053438 243.084216 251.379453 244.410232 
C 252.705469 245.736247 254.504184 246.4813 256.379453 246.4813 
z
" style="fill:#dc143c;stroke:#dc143c;"/>
    <path clip-path="url(#p033dc78d74)" d="M 252.637658 345.044458 
C 255.885719 345.044458 259.001186 343.75399 261.297912 341.457264 
C 263.594638 339.160537 264.885107 336.045071 264.885107 332.797009 
C 264.885107 329.548948 263.594638 326.433482 261.297912 324.136755 
C 259.001186 321.840029 255.885719 320.549561 252.637658 320.549561 
C 249.389597 320.549561 246.27413 321.840029 243.977404 324.136755 
C 241.680678 326.433482 240.390209 329.548948 240.390209 332.797009 
C 240.390209 336.045071 241.680678 339.160537 243.977404 341.457264 
C 246.27413 343.75399 249.389597 345.044458 252.637658 345.044458 
z
" style="fill:#00bfff;stroke:#00bfff;"/>
    <path clip-path="url(#p033dc78d74)" d="M 243.732736 245.401891 
C 246.029462 245.401891 248.23243 244.489392 249.85646 242.865361 
C 251.480491 241.241331 252.39299 239.038363 252.39299 236.741637 
C 252.39299 234.444911 251.480491 232.241943 249.85646 230.617913 
C 248.23243 228.993882 246.029462 228.081383 243.732736 228.081383 
C 241.43601 228.081383 239.233042 228.993882 237.609012 230.617913 
C 235.984981 232.241943 235.072482 234.444911 235.072482 236.741637 
C 235.072482 239.038363 235.984981 241.241331 237.609012 242.865361 
C 239.233042 244.489392 241.43601 245.401891 243.732736 245.401891 
z
" style="fill:#f4a460;stroke:#f4a460;"/>
    <path clip-path="url(#p033dc78d74)" d="M 304.600808 348.476342 
C 305.926824 348.476342 307.198708 347.94951 308.136342 347.011876 
C 309.073977 346.074241 309.600808 344.802357 309.600808 343.476342 
C 309.600808 342.150326 309.073977 340.878442 308.136342 339.940808 
C 307.198708 339.003173 305.926824 338.476342 304.600808 338.476342 
C 303.274793 338.476342 302.002909 339.003173 301.065274 339.940808 
C 300.12764 340.878442 299.600808 342.150326 299.600808 343.476342 
C 299.600808 344.802357 300.12764 346.074241 301.065274 347.011876 
C 302.002909 347.94951 303.274793 348.476342 304.600808 348.476342 
z
" style="fill:#0000ff;stroke:#0000ff;"/>
    <path clip-path="url(#p033dc78d74)" d="M 267.818139 305.308805 
C 269.914754 305.308805 271.925778 304.475811 273.408309 302.993281 
C 274.890839 301.51075 275.723833 299.499725 275.723833 297.403111 
C 275.723833 295.306496 274.890839 293.295471 273.408309 291.812941 
C 271.925778 290.33041 269.914754 289.497417 267.818139 289.497417 
C 265.721524 289.497417 263.710499 290.33041 262.227969 291.812941 
C 260.745439 293.295471 259.912445 295.306496 259.912445 297.403111 
C 259.912445 299.499725 260.745439 301.51075 262.227969 302.993281 
C 263.710499 304.475811 265.721524 305.308805 267.818139 305.308805 
z
" style="fill:#a020f0;stroke:#a020f0;"/>
    <path clip-path="url(#p033dc78d74)" d="M 262.892969 243.835367 
C 264.768238 243.835367 266.566954 243.090314 267.892969 241.764299 
C 269.218985 240.438283 269.964037 238.639568 269.964037 236.764299 
C 269.964037 234.88903 269.218985 233.090314 267.892969 231.764299 
C 266.566954 230.438283 264.768238 229.693231 262.892969 229.693231 
C 261.0177 229.693231 259.218985 230.438283 257.892969 231.764299 
C 256.566954 233.090314 255.821901 234.88903 255.821901 236.764299 
C 255.821901 238.639568 256.566954 240.438283 257.892969 241.764299 
C 259.218985 243.090314 261.0177 243.835367 262.892969 243.835367 
z
" style="fill:#ff6347;stroke:#ff6347;"/>
    <path clip-path="url(#p033dc78d74)" d="M 245.009541 246.172662 
C 247.306267 246.172662 249.509235 245.260163 251.133266 243.636132 
C 252.757296 242.012101 253.669795 239.809134 253.669795 237.512408 
C 253.669795 235.215681 252.757296 233.012714 251.133266 231.388683 
C 249.509235 229.764653 247.306267 228.852154 245.009541 228.852154 
C 242.712815 228.852154 240.509848 229.764653 238.885817 231.388683 
C 237.261786 233.012714 236.349287 235.215681 236.349287 237.512408 
C 236.349287 239.809134 237.261786 242.012101 238.885817 243.636132 
C 240.509848 245.260163 242.712815 246.172662 245.009541 246.172662 
z
" style="fill:#da70d6;stroke:#da70d6;"/>
    <path clip-path="url(#p033dc78d74)" d="M 237.329985 278.459731 
C 238.656 278.459731 239.927884 277.932899 240.865519 276.995264 
C 241.803153 276.05763 242.329985 274.785746 242.329985 273.459731 
C 242.329985 272.133715 241.803153 270.861831 240.865519 269.924197 
C 239.927884 268.986562 238.656 268.459731 237.329985 268.459731 
C 236.003969 268.459731 234.732085 268.986562 233.794451 269.924197 
C 232.856816 270.861831 232.329985 272.133715 232.329985 273.459731 
C 232.329985 274.785746 232.856816 276.05763 233.794451 276.995264 
C 234.732085 277.932899 236.003969 278.459731 237.329985 278.459731 
z
" style="fill:#b0c4de;stroke:#b0c4de;"/>
    <path clip-path="url(#p033dc78d74)" d="M 286.951671 268.177835 
C 288.82694 268.177835 290.625655 267.432783 291.951671 266.106767 
C 293.277686 264.780752 294.022738 262.982036 294.022738 261.106767 
C 294.022738 259.231498 293.277686 257.432783 291.951671 256.106767 
C 290.625655 254.780752 288.82694 254.035699 286.951671 254.035699 
C 285.076401 254.035699 283.277686 254.780752 281.951671 256.106767 
C 280.625655 257.432783 279.880603 259.231498 279.880603 261.106767 
C 279.880603 262.982036 280.625655 264.780752 281.951671 266.106767 
C 283.277686 267.432783 285.076401 268.177835 286.951671 268.177835 
z
" style="fill:#ff00ff;stroke:#ff00ff;"/>
    <path clip-path="url(#p033dc78d74)" d="M 272.750518 257.179989 
C 274.076533 257.179989 275.348417 256.653157 276.286052 255.715523 
C 277.223686 254.777888 277.750518 253.506004 277.750518 252.179989 
C 277.750518 250.853973 277.223686 249.582089 276.286052 248.644455 
C 275.348417 247.70682 274.076533 247.179989 272.750518 247.179989 
C 271.424502 247.179989 270.152618 247.70682 269.214984 248.644455 
C 268.277349 249.582089 267.750518 250.853973 267.750518 252.179989 
C 267.750518 253.506004 268.277349 254.777888 269.214984 255.715523 
C 270.152618 256.653157 271.424502 257.179989 272.750518 257.179989 
z
" style="fill:#f0e68c;stroke:#f0e68c;"/>
    <path clip-path="url(#p033dc78d74)" d="M 260.221093 276.183946 
C 261.845123 276.183946 263.402857 275.538711 264.55122 274.390348 
C 265.699583 273.241985 266.344817 271.684252 266.344817 270.060221 
C 266.344817 268.436191 265.699583 266.878457 264.55122 265.730094 
C 263.402857 264.581731 261.845123 263.936497 260.221093 263.936497 
C 258.597062 263.936497 257.039329 264.581731 255.890966 265.730094 
C 254.742602 266.878457 254.097368 268.436191 254.097368 270.060221 
C 254.097368 271.684252 254.742602 273.241985 255.890966 274.390348 
C 257.039329 275.538711 258.597062 276.183946 260.221093 276.183946 
z
" style="fill:#ffff54;stroke:#ffff54;"/>
    <path clip-path="url(#p033dc78d74)" d="M 248.794074 328.198738 
C 250.120089 328.198738 251.391973 327.671907 252.329608 326.734272 
C 253.267242 325.796638 253.794074 324.524754 253.794074 323.198738 
C 253.794074 321.872723 253.267242 320.600839 252.329608 319.663204 
C 251.391973 318.72557 250.120089 318.198738 248.794074 318.198738 
C 247.468058 318.198738 246.196175 318.72557 245.25854 319.663204 
C 244.320905 320.600839 243.794074 321.872723 243.794074 323.198738 
C 243.794074 324.524754 244.320905 325.796638 245.25854 326.734272 
C 246.196175 327.671907 247.468058 328.198738 248.794074 328.198738 
z
" style="fill:#6495ed;stroke:#6495ed;"/>
    <path clip-path="url(#p033dc78d74)" d="M 248.463532 280.824408 
C 249.789547 280.824408 251.061431 280.297576 251.999066 279.359942 
C 252.9367 278.422307 253.463532 277.150423 253.463532 275.824408 
C 253.463532 274.498392 252.9367 273.226508 251.999066 272.288874 
C 251.061431 271.351239 249.789547 270.824408 248.463532 270.824408 
C 247.137516 270.824408 245.865632 271.351239 244.927998 272.288874 
C 243.990363 273.226508 243.463532 274.498392 243.463532 275.824408 
C 243.463532 277.150423 243.990363 278.422307 244.927998 279.359942 
C 245.865632 280.297576 247.137516 280.824408 248.463532 280.824408 
z
" style="fill:#90ee90;stroke:#90ee90;"/>
    <path clip-path="url(#p033dc78d74)" d="M 246.0754 275.308982 
C 248.556148 275.308982 250.935625 274.32337 252.689779 272.569216 
C 254.443932 270.815063 255.429544 268.435586 255.429544 265.954838 
C 255.429544 263.47409 254.443932 261.094613 252.689779 259.34046 
C 250.935625 257.586306 248.556148 256.600695 246.0754 256.600695 
C 243.594653 256.600695 241.215176 257.586306 239.461022 259.34046 
C 237.706869 261.094613 236.721257 263.47409 236.721257 265.954838 
C 236.721257 268.435586 237.706869 270.815063 239.461022 272.569216 
C 241.215176 274.32337 243.594653 275.308982 246.0754 275.308982 
z
" style="fill:#7b68ee;stroke:#7b68ee;"/>
    <path clip-path="url(#p033dc78d74)" d="M 262.94089 263.455389 
C 264.266906 263.455389 265.53879 262.928558 266.476424 261.990923 
C 267.414059 261.053289 267.94089 259.781405 267.94089 258.455389 
C 267.94089 257.129374 267.414059 255.85749 266.476424 254.919855 
C 265.53879 253.982221 264.266906 253.455389 262.94089 253.455389 
C 261.614875 253.455389 260.342991 253.982221 259.405357 254.919855 
C 258.467722 255.85749 257.94089 257.129374 257.94089 258.455389 
C 257.94089 259.781405 258.467722 261.053289 259.405357 261.990923 
C 260.342991 262.928558 261.614875 263.455389 262.94089 263.455389 
z
" style="fill:#afeeee;stroke:#afeeee;"/>
   </g>
   <g id="matplotlib.axis_1">
    <g id="xtick_1">
     <g id="line2d_1">
      <defs>
       <path d="M 0 0 
L 0 3.5 
" id="mfe1ff07634" style="stroke:#000000;stroke-width:0.8;"/>
      </defs>
      <g>
       <use style="stroke:#000000;stroke-width:0.8;" x="258.3" xlink:href="#mfe1ff07634" y="576.72"/>
      </g>
     </g>
     <g id="text_1">
      <!-- MeanPD -->
      <g transform="translate(237.811719 591.318438)scale(0.1 -0.1)">
       <defs>
        <path d="M 9.8125 72.90625 
L 24.515625 72.90625 
L 43.109375 23.296875 
L 61.8125 72.90625 
L 76.515625 72.90625 
L 76.515625 0 
L 66.890625 0 
L 66.890625 64.015625 
L 48.09375 14.015625 
L 38.1875 14.015625 
L 19.390625 64.015625 
L 19.390625 0 
L 9.8125 0 
z
" id="DejaVuSans-77"/>
        <path d="M 56.203125 29.59375 
L 56.203125 25.203125 
L 14.890625 25.203125 
Q 15.484375 15.921875 20.484375 11.0625 
Q 25.484375 6.203125 34.421875 6.203125 
Q 39.59375 6.203125 44.453125 7.46875 
Q 49.3125 8.734375 54.109375 11.28125 
L 54.109375 2.78125 
Q 49.265625 0.734375 44.1875 -0.34375 
Q 39.109375 -1.421875 33.890625 -1.421875 
Q 20.796875 -1.421875 13.15625 6.1875 
Q 5.515625 13.8125 5.515625 26.8125 
Q 5.515625 40.234375 12.765625 48.109375 
Q 20.015625 56 32.328125 56 
Q 43.359375 56 49.78125 48.890625 
Q 56.203125 41.796875 56.203125 29.59375 
z
M 47.21875 32.234375 
Q 47.125 39.59375 43.09375 43.984375 
Q 39.0625 48.390625 32.421875 48.390625 
Q 24.90625 48.390625 20.390625 44.140625 
Q 15.875 39.890625 15.1875 32.171875 
z
" id="DejaVuSans-101"/>
        <path d="M 34.28125 27.484375 
Q 23.390625 27.484375 19.1875 25 
Q 14.984375 22.515625 14.984375 16.5 
Q 14.984375 11.71875 18.140625 8.90625 
Q 21.296875 6.109375 26.703125 6.109375 
Q 34.1875 6.109375 38.703125 11.40625 
Q 43.21875 16.703125 43.21875 25.484375 
L 43.21875 27.484375 
z
M 52.203125 31.203125 
L 52.203125 0 
L 43.21875 0 
L 43.21875 8.296875 
Q 40.140625 3.328125 35.546875 0.953125 
Q 30.953125 -1.421875 24.3125 -1.421875 
Q 15.921875 -1.421875 10.953125 3.296875 
Q 6 8.015625 6 15.921875 
Q 6 25.140625 12.171875 29.828125 
Q 18.359375 34.515625 30.609375 34.515625 
L 43.21875 34.515625 
L 43.21875 35.40625 
Q 43.21875 41.609375 39.140625 45 
Q 35.0625 48.390625 27.6875 48.390625 
Q 23 48.390625 18.546875 47.265625 
Q 14.109375 46.140625 10.015625 43.890625 
L 10.015625 52.203125 
Q 14.9375 54.109375 19.578125 55.046875 
Q 24.21875 56 28.609375 56 
Q 40.484375 56 46.34375 49.84375 
Q 52.203125 43.703125 52.203125 31.203125 
z
" id="DejaVuSans-97"/>
        <path d="M 54.890625 33.015625 
L 54.890625 0 
L 45.90625 0 
L 45.90625 32.71875 
Q 45.90625 40.484375 42.875 44.328125 
Q 39.84375 48.1875 33.796875 48.1875 
Q 26.515625 48.1875 22.3125 43.546875 
Q 18.109375 38.921875 18.109375 30.90625 
L 18.109375 0 
L 9.078125 0 
L 9.078125 54.6875 
L 18.109375 54.6875 
L 18.109375 46.1875 
Q 21.34375 51.125 25.703125 53.5625 
Q 30.078125 56 35.796875 56 
Q 45.21875 56 50.046875 50.171875 
Q 54.890625 44.34375 54.890625 33.015625 
z
" id="DejaVuSans-110"/>
        <path d="M 19.671875 64.796875 
L 19.671875 37.40625 
L 32.078125 37.40625 
Q 38.96875 37.40625 42.71875 40.96875 
Q 46.484375 44.53125 46.484375 51.125 
Q 46.484375 57.671875 42.71875 61.234375 
Q 38.96875 64.796875 32.078125 64.796875 
z
M 9.8125 72.90625 
L 32.078125 72.90625 
Q 44.34375 72.90625 50.609375 67.359375 
Q 56.890625 61.8125 56.890625 51.125 
Q 56.890625 40.328125 50.609375 34.8125 
Q 44.34375 29.296875 32.078125 29.296875 
L 19.671875 29.296875 
L 19.671875 0 
L 9.8125 0 
z
" id="DejaVuSans-80"/>
        <path d="M 19.671875 64.796875 
L 19.671875 8.109375 
L 31.59375 8.109375 
Q 46.6875 8.109375 53.6875 14.9375 
Q 60.6875 21.78125 60.6875 36.53125 
Q 60.6875 51.171875 53.6875 57.984375 
Q 46.6875 64.796875 31.59375 64.796875 
z
M 9.8125 72.90625 
L 30.078125 72.90625 
Q 51.265625 72.90625 61.171875 64.09375 
Q 71.09375 55.28125 71.09375 36.53125 
Q 71.09375 17.671875 61.125 8.828125 
Q 51.171875 0 30.078125 0 
L 9.8125 0 
z
" id="DejaVuSans-68"/>
       </defs>
       <use xlink:href="#DejaVuSans-77"/>
       <use x="86.279297" xlink:href="#DejaVuSans-101"/>
       <use x="147.802734" xlink:href="#DejaVuSans-97"/>
       <use x="209.082031" xlink:href="#DejaVuSans-110"/>
       <use x="272.460938" xlink:href="#DejaVuSans-80"/>
       <use x="332.763672" xlink:href="#DejaVuSans-68"/>
      </g>
     </g>
    </g>
   </g>
   <g id="matplotlib.axis_2">
    <g id="ytick_1">
     <g id="line2d_2">
      <defs>
       <path d="M 0 0 
L -3.5 0 
" id="m9d76b64daf" style="stroke:#000000;stroke-width:0.8;"/>
      </defs>
      <g>
       <use style="stroke:#000000;stroke-width:0.8;" x="63" xlink:href="#m9d76b64daf" y="576.72"/>
      </g>
     </g>
     <g id="text_2">
      <!-- 3.5 -->
      <g transform="translate(31.717187 580.519219)scale(0.1 -0.1)">
       <defs>
        <path d="M 10.59375 35.5 
L 73.1875 35.5 
L 73.1875 27.203125 
L 10.59375 27.203125 
z
" id="DejaVuSans-8722"/>
        <path d="M 40.578125 39.3125 
Q 47.65625 37.796875 51.625 33 
Q 55.609375 28.21875 55.609375 21.1875 
Q 55.609375 10.40625 48.1875 4.484375 
Q 40.765625 -1.421875 27.09375 -1.421875 
Q 22.515625 -1.421875 17.65625 -0.515625 
Q 12.796875 0.390625 7.625 2.203125 
L 7.625 11.71875 
Q 11.71875 9.328125 16.59375 8.109375 
Q 21.484375 6.890625 26.8125 6.890625 
Q 36.078125 6.890625 40.9375 10.546875 
Q 45.796875 14.203125 45.796875 21.1875 
Q 45.796875 27.640625 41.28125 31.265625 
Q 36.765625 34.90625 28.71875 34.90625 
L 20.21875 34.90625 
L 20.21875 43.015625 
L 29.109375 43.015625 
Q 36.375 43.015625 40.234375 45.921875 
Q 44.09375 48.828125 44.09375 54.296875 
Q 44.09375 59.90625 40.109375 62.90625 
Q 36.140625 65.921875 28.71875 65.921875 
Q 24.65625 65.921875 20.015625 65.03125 
Q 15.375 64.15625 9.8125 62.3125 
L 9.8125 71.09375 
Q 15.4375 72.65625 20.34375 73.4375 
Q 25.25 74.21875 29.59375 74.21875 
Q 40.828125 74.21875 47.359375 69.109375 
Q 53.90625 64.015625 53.90625 55.328125 
Q 53.90625 49.265625 50.4375 45.09375 
Q 46.96875 40.921875 40.578125 39.3125 
z
" id="DejaVuSans-51"/>
        <path d="M 10.6875 12.40625 
L 21 12.40625 
L 21 0 
L 10.6875 0 
z
" id="DejaVuSans-46"/>
        <path d="M 10.796875 72.90625 
L 49.515625 72.90625 
L 49.515625 64.59375 
L 19.828125 64.59375 
L 19.828125 46.734375 
Q 21.96875 47.46875 24.109375 47.828125 
Q 26.265625 48.1875 28.421875 48.1875 
Q 40.625 48.1875 47.75 41.5 
Q 54.890625 34.8125 54.890625 23.390625 
Q 54.890625 11.625 47.5625 5.09375 
Q 40.234375 -1.421875 26.90625 -1.421875 
Q 22.3125 -1.421875 17.546875 -0.640625 
Q 12.796875 0.140625 7.71875 1.703125 
L 7.71875 11.625 
Q 12.109375 9.234375 16.796875 8.0625 
Q 21.484375 6.890625 26.703125 6.890625 
Q 35.15625 6.890625 40.078125 11.328125 
Q 45.015625 15.765625 45.015625 23.390625 
Q 45.015625 31 40.078125 35.4375 
Q 35.15625 39.890625 26.703125 39.890625 
Q 22.75 39.890625 18.8125 39.015625 
Q 14.890625 38.140625 10.796875 36.28125 
z
" id="DejaVuSans-53"/>
       </defs>
       <use xlink:href="#DejaVuSans-8722"/>
       <use x="83.789062" xlink:href="#DejaVuSans-51"/>
       <use x="147.412109" xlink:href="#DejaVuSans-46"/>
       <use x="179.199219" xlink:href="#DejaVuSans-53"/>
      </g>
     </g>
    </g>
    <g id="ytick_2">
     <g id="line2d_3">
      <g>
       <use style="stroke:#000000;stroke-width:0.8;" x="63" xlink:href="#m9d76b64daf" y="538.92"/>
      </g>
     </g>
     <g id="text_3">
      <!-- 3.0 -->
      <g transform="translate(31.717187 542.719219)scale(0.1 -0.1)">
       <defs>
        <path d="M 31.78125 66.40625 
Q 24.171875 66.40625 20.328125 58.90625 
Q 16.5 51.421875 16.5 36.375 
Q 16.5 21.390625 20.328125 13.890625 
Q 24.171875 6.390625 31.78125 6.390625 
Q 39.453125 6.390625 43.28125 13.890625 
Q 47.125 21.390625 47.125 36.375 
Q 47.125 51.421875 43.28125 58.90625 
Q 39.453125 66.40625 31.78125 66.40625 
z
M 31.78125 74.21875 
Q 44.046875 74.21875 50.515625 64.515625 
Q 56.984375 54.828125 56.984375 36.375 
Q 56.984375 17.96875 50.515625 8.265625 
Q 44.046875 -1.421875 31.78125 -1.421875 
Q 19.53125 -1.421875 13.0625 8.265625 
Q 6.59375 17.96875 6.59375 36.375 
Q 6.59375 54.828125 13.0625 64.515625 
Q 19.53125 74.21875 31.78125 74.21875 
z
" id="DejaVuSans-48"/>
       </defs>
       <use xlink:href="#DejaVuSans-8722"/>
       <use x="83.789062" xlink:href="#DejaVuSans-51"/>
       <use x="147.412109" xlink:href="#DejaVuSans-46"/>
       <use x="179.199219" xlink:href="#DejaVuSans-48"/>
      </g>
     </g>
    </g>
    <g id="ytick_3">
     <g id="line2d_4">
      <g>
       <use style="stroke:#000000;stroke-width:0.8;" x="63" xlink:href="#m9d76b64daf" y="501.12"/>
      </g>
     </g>
     <g id="text_4">
      <!-- 2.5 -->
      <g transform="translate(31.717187 504.919219)scale(0.1 -0.1)">
       <defs>
        <path d="M 19.1875 8.296875 
L 53.609375 8.296875 
L 53.609375 0 
L 7.328125 0 
L 7.328125 8.296875 
Q 12.9375 14.109375 22.625 23.890625 
Q 32.328125 33.6875 34.8125 36.53125 
Q 39.546875 41.84375 41.421875 45.53125 
Q 43.3125 49.21875 43.3125 52.78125 
Q 43.3125 58.59375 39.234375 62.25 
Q 35.15625 65.921875 28.609375 65.921875 
Q 23.96875 65.921875 18.8125 64.3125 
Q 13.671875 62.703125 7.8125 59.421875 
L 7.8125 69.390625 
Q 13.765625 71.78125 18.9375 73 
Q 24.125 74.21875 28.421875 74.21875 
Q 39.75 74.21875 46.484375 68.546875 
Q 53.21875 62.890625 53.21875 53.421875 
Q 53.21875 48.921875 51.53125 44.890625 
Q 49.859375 40.875 45.40625 35.40625 
Q 44.1875 33.984375 37.640625 27.21875 
Q 31.109375 20.453125 19.1875 8.296875 
z
" id="DejaVuSans-50"/>
       </defs>
       <use xlink:href="#DejaVuSans-8722"/>
       <use x="83.789062" xlink:href="#DejaVuSans-50"/>
       <use x="147.412109" xlink:href="#DejaVuSans-46"/>
       <use x="179.199219" xlink:href="#DejaVuSans-53"/>
      </g>
     </g>
    </g>
    <g id="ytick_4">
     <g id="line2d_5">
      <g>
       <use style="stroke:#000000;stroke-width:0.8;" x="63" xlink:href="#m9d76b64daf" y="463.32"/>
      </g>
     </g>
     <g id="text_5">
      <!-- 2.0 -->
      <g transform="translate(31.717187 467.119219)scale(0.1 -0.1)">
       <use xlink:href="#DejaVuSans-8722"/>
       <use x="83.789062" xlink:href="#DejaVuSans-50"/>
       <use x="147.412109" xlink:href="#DejaVuSans-46"/>
       <use x="179.199219" xlink:href="#DejaVuSans-48"/>
      </g>
     </g>
    </g>
    <g id="ytick_5">
     <g id="line2d_6">
      <g>
       <use style="stroke:#000000;stroke-width:0.8;" x="63" xlink:href="#m9d76b64daf" y="425.52"/>
      </g>
     </g>
     <g id="text_6">
      <!-- 1.5 -->
      <g transform="translate(31.717187 429.319219)scale(0.1 -0.1)">
       <defs>
        <path d="M 12.40625 8.296875 
L 28.515625 8.296875 
L 28.515625 63.921875 
L 10.984375 60.40625 
L 10.984375 69.390625 
L 28.421875 72.90625 
L 38.28125 72.90625 
L 38.28125 8.296875 
L 54.390625 8.296875 
L 54.390625 0 
L 12.40625 0 
z
" id="DejaVuSans-49"/>
       </defs>
       <use xlink:href="#DejaVuSans-8722"/>
       <use x="83.789062" xlink:href="#DejaVuSans-49"/>
       <use x="147.412109" xlink:href="#DejaVuSans-46"/>
       <use x="179.199219" xlink:href="#DejaVuSans-53"/>
      </g>
     </g>
    </g>
    <g id="ytick_6">
     <g id="line2d_7">
      <g>
       <use style="stroke:#000000;stroke-width:0.8;" x="63" xlink:href="#m9d76b64daf" y="387.72"/>
      </g>
     </g>
     <g id="text_7">
      <!-- 1.0 -->
      <g transform="translate(31.717187 391.519219)scale(0.1 -0.1)">
       <use xlink:href="#DejaVuSans-8722"/>
       <use x="83.789062" xlink:href="#DejaVuSans-49"/>
       <use x="147.412109" xlink:href="#DejaVuSans-46"/>
       <use x="179.199219" xlink:href="#DejaVuSans-48"/>
      </g>
     </g>
    </g>
    <g id="ytick_7">
     <g id="line2d_8">
      <g>
       <use style="stroke:#000000;stroke-width:0.8;" x="63" xlink:href="#m9d76b64daf" y="349.92"/>
      </g>
     </g>
     <g id="text_8">
      <!-- 0.5 -->
      <g transform="translate(31.717187 353.719219)scale(0.1 -0.1)">
       <use xlink:href="#DejaVuSans-8722"/>
       <use x="83.789062" xlink:href="#DejaVuSans-48"/>
       <use x="147.412109" xlink:href="#DejaVuSans-46"/>
       <use x="179.199219" xlink:href="#DejaVuSans-53"/>
      </g>
     </g>
    </g>
    <g id="ytick_8">
     <g id="line2d_9">
      <g>
       <use style="stroke:#000000;stroke-width:0.8;" x="63" xlink:href="#m9d76b64daf" y="312.12"/>
      </g>
     </g>
     <g id="text_9">
      <!-- 0.0 -->
      <g transform="translate(40.096875 315.919219)scale(0.1 -0.1)">
       <use xlink:href="#DejaVuSans-48"/>
       <use x="63.623047" xlink:href="#DejaVuSans-46"/>
       <use x="95.410156" xlink:href="#DejaVuSans-48"/>
      </g>
     </g>
    </g>
    <g id="ytick_9">
     <g id="line2d_10">
      <g>
       <use style="stroke:#000000;stroke-width:0.8;" x="63" xlink:href="#m9d76b64daf" y="274.32"/>
      </g>
     </g>
     <g id="text_10">
      <!-- 0.5 -->
      <g transform="translate(40.096875 278.119219)scale(0.1 -0.1)">
       <use xlink:href="#DejaVuSans-48"/>
       <use x="63.623047" xlink:href="#DejaVuSans-46"/>
       <use x="95.410156" xlink:href="#DejaVuSans-53"/>
      </g>
     </g>
    </g>
    <g id="ytick_10">
     <g id="line2d_11">
      <g>
       <use style="stroke:#000000;stroke-width:0.8;" x="63" xlink:href="#m9d76b64daf" y="236.52"/>
      </g>
     </g>
     <g id="text_11">
      <!-- 1.0 -->
      <g transform="translate(40.096875 240.319219)scale(0.1 -0.1)">
       <use xlink:href="#DejaVuSans-49"/>
       <use x="63.623047" xlink:href="#DejaVuSans-46"/>
       <use x="95.410156" xlink:href="#DejaVuSans-48"/>
      </g>
     </g>
    </g>
    <g id="ytick_11">
     <g id="line2d_12">
      <g>
       <use style="stroke:#000000;stroke-width:0.8;" x="63" xlink:href="#m9d76b64daf" y="198.72"/>
      </g>
     </g>
     <g id="text_12">
      <!-- 1.5 -->
      <g transform="translate(40.096875 202.519219)scale(0.1 -0.1)">
       <use xlink:href="#DejaVuSans-49"/>
       <use x="63.623047" xlink:href="#DejaVuSans-46"/>
       <use x="95.410156" xlink:href="#DejaVuSans-53"/>
      </g>
     </g>
    </g>
    <g id="ytick_12">
     <g id="line2d_13">
      <g>
       <use style="stroke:#000000;stroke-width:0.8;" x="63" xlink:href="#m9d76b64daf" y="160.92"/>
      </g>
     </g>
     <g id="text_13">
      <!-- 2.0 -->
      <g transform="translate(40.096875 164.719219)scale(0.1 -0.1)">
       <use xlink:href="#DejaVuSans-50"/>
       <use x="63.623047" xlink:href="#DejaVuSans-46"/>
       <use x="95.410156" xlink:href="#DejaVuSans-48"/>
      </g>
     </g>
    </g>
    <g id="ytick_13">
     <g id="line2d_14">
      <g>
       <use style="stroke:#000000;stroke-width:0.8;" x="63" xlink:href="#m9d76b64daf" y="123.12"/>
      </g>
     </g>
     <g id="text_14">
      <!-- 2.5 -->
      <g transform="translate(40.096875 126.919219)scale(0.1 -0.1)">
       <use xlink:href="#DejaVuSans-50"/>
       <use x="63.623047" xlink:href="#DejaVuSans-46"/>
       <use x="95.410156" xlink:href="#DejaVuSans-53"/>
      </g>
     </g>
    </g>
    <g id="ytick_14">
     <g id="line2d_15">
      <g>
       <use style="stroke:#000000;stroke-width:0.8;" x="63" xlink:href="#m9d76b64daf" y="85.32"/>
      </g>
     </g>
     <g id="text_15">
      <!-- 3.0 -->
      <g transform="translate(40.096875 89.119219)scale(0.1 -0.1)">
       <use xlink:href="#DejaVuSans-51"/>
       <use x="63.623047" xlink:href="#DejaVuSans-46"/>
       <use x="95.410156" xlink:href="#DejaVuSans-48"/>
      </g>
     </g>
    </g>
    <g id="text_16">
     <!-- LogOdds -->
     <g transform="translate(25.6375 349.061094)rotate(-90)scale(0.1 -0.1)">
      <defs>
       <path d="M 9.8125 72.90625 
L 19.671875 72.90625 
L 19.671875 8.296875 
L 55.171875 8.296875 
L 55.171875 0 
L 9.8125 0 
z
" id="DejaVuSans-76"/>
       <path d="M 30.609375 48.390625 
Q 23.390625 48.390625 19.1875 42.75 
Q 14.984375 37.109375 14.984375 27.296875 
Q 14.984375 17.484375 19.15625 11.84375 
Q 23.34375 6.203125 30.609375 6.203125 
Q 37.796875 6.203125 41.984375 11.859375 
Q 46.1875 17.53125 46.1875 27.296875 
Q 46.1875 37.015625 41.984375 42.703125 
Q 37.796875 48.390625 30.609375 48.390625 
z
M 30.609375 56 
Q 42.328125 56 49.015625 48.375 
Q 55.71875 40.765625 55.71875 27.296875 
Q 55.71875 13.875 49.015625 6.21875 
Q 42.328125 -1.421875 30.609375 -1.421875 
Q 18.84375 -1.421875 12.171875 6.21875 
Q 5.515625 13.875 5.515625 27.296875 
Q 5.515625 40.765625 12.171875 48.375 
Q 18.84375 56 30.609375 56 
z
" id="DejaVuSans-111"/>
       <path d="M 45.40625 27.984375 
Q 45.40625 37.75 41.375 43.109375 
Q 37.359375 48.484375 30.078125 48.484375 
Q 22.859375 48.484375 18.828125 43.109375 
Q 14.796875 37.75 14.796875 27.984375 
Q 14.796875 18.265625 18.828125 12.890625 
Q 22.859375 7.515625 30.078125 7.515625 
Q 37.359375 7.515625 41.375 12.890625 
Q 45.40625 18.265625 45.40625 27.984375 
z
M 54.390625 6.78125 
Q 54.390625 -7.171875 48.1875 -13.984375 
Q 42 -20.796875 29.203125 -20.796875 
Q 24.46875 -20.796875 20.265625 -20.09375 
Q 16.0625 -19.390625 12.109375 -17.921875 
L 12.109375 -9.1875 
Q 16.0625 -11.328125 19.921875 -12.34375 
Q 23.78125 -13.375 27.78125 -13.375 
Q 36.625 -13.375 41.015625 -8.765625 
Q 45.40625 -4.15625 45.40625 5.171875 
L 45.40625 9.625 
Q 42.625 4.78125 38.28125 2.390625 
Q 33.9375 0 27.875 0 
Q 17.828125 0 11.671875 7.65625 
Q 5.515625 15.328125 5.515625 27.984375 
Q 5.515625 40.671875 11.671875 48.328125 
Q 17.828125 56 27.875 56 
Q 33.9375 56 38.28125 53.609375 
Q 42.625 51.21875 45.40625 46.390625 
L 45.40625 54.6875 
L 54.390625 54.6875 
z
" id="DejaVuSans-103"/>
       <path d="M 39.40625 66.21875 
Q 28.65625 66.21875 22.328125 58.203125 
Q 16.015625 50.203125 16.015625 36.375 
Q 16.015625 22.609375 22.328125 14.59375 
Q 28.65625 6.59375 39.40625 6.59375 
Q 50.140625 6.59375 56.421875 14.59375 
Q 62.703125 22.609375 62.703125 36.375 
Q 62.703125 50.203125 56.421875 58.203125 
Q 50.140625 66.21875 39.40625 66.21875 
z
M 39.40625 74.21875 
Q 54.734375 74.21875 63.90625 63.9375 
Q 73.09375 53.65625 73.09375 36.375 
Q 73.09375 19.140625 63.90625 8.859375 
Q 54.734375 -1.421875 39.40625 -1.421875 
Q 24.03125 -1.421875 14.8125 8.828125 
Q 5.609375 19.09375 5.609375 36.375 
Q 5.609375 53.65625 14.8125 63.9375 
Q 24.03125 74.21875 39.40625 74.21875 
z
" id="DejaVuSans-79"/>
       <path d="M 45.40625 46.390625 
L 45.40625 75.984375 
L 54.390625 75.984375 
L 54.390625 0 
L 45.40625 0 
L 45.40625 8.203125 
Q 42.578125 3.328125 38.25 0.953125 
Q 33.9375 -1.421875 27.875 -1.421875 
Q 17.96875 -1.421875 11.734375 6.484375 
Q 5.515625 14.40625 5.515625 27.296875 
Q 5.515625 40.1875 11.734375 48.09375 
Q 17.96875 56 27.875 56 
Q 33.9375 56 38.25 53.625 
Q 42.578125 51.265625 45.40625 46.390625 
z
M 14.796875 27.296875 
Q 14.796875 17.390625 18.875 11.75 
Q 22.953125 6.109375 30.078125 6.109375 
Q 37.203125 6.109375 41.296875 11.75 
Q 45.40625 17.390625 45.40625 27.296875 
Q 45.40625 37.203125 41.296875 42.84375 
Q 37.203125 48.484375 30.078125 48.484375 
Q 22.953125 48.484375 18.875 42.84375 
Q 14.796875 37.203125 14.796875 27.296875 
z
" id="DejaVuSans-100"/>
       <path d="M 44.28125 53.078125 
L 44.28125 44.578125 
Q 40.484375 46.53125 36.375 47.5 
Q 32.28125 48.484375 27.875 48.484375 
Q 21.1875 48.484375 17.84375 46.4375 
Q 14.5 44.390625 14.5 40.28125 
Q 14.5 37.15625 16.890625 35.375 
Q 19.28125 33.59375 26.515625 31.984375 
L 29.59375 31.296875 
Q 39.15625 29.25 43.1875 25.515625 
Q 47.21875 21.78125 47.21875 15.09375 
Q 47.21875 7.46875 41.1875 3.015625 
Q 35.15625 -1.421875 24.609375 -1.421875 
Q 20.21875 -1.421875 15.453125 -0.5625 
Q 10.6875 0.296875 5.421875 2 
L 5.421875 11.28125 
Q 10.40625 8.6875 15.234375 7.390625 
Q 20.0625 6.109375 24.8125 6.109375 
Q 31.15625 6.109375 34.5625 8.28125 
Q 37.984375 10.453125 37.984375 14.40625 
Q 37.984375 18.0625 35.515625 20.015625 
Q 33.0625 21.96875 24.703125 23.78125 
L 21.578125 24.515625 
Q 13.234375 26.265625 9.515625 29.90625 
Q 5.8125 33.546875 5.8125 39.890625 
Q 5.8125 47.609375 11.28125 51.796875 
Q 16.75 56 26.8125 56 
Q 31.78125 56 36.171875 55.265625 
Q 40.578125 54.546875 44.28125 53.078125 
z
" id="DejaVuSans-115"/>
      </defs>
      <use xlink:href="#DejaVuSans-76"/>
      <use x="53.962891" xlink:href="#DejaVuSans-111"/>
      <use x="115.144531" xlink:href="#DejaVuSans-103"/>
      <use x="178.621094" xlink:href="#DejaVuSans-79"/>
      <use x="257.332031" xlink:href="#DejaVuSans-100"/>
      <use x="320.808594" xlink:href="#DejaVuSans-100"/>
      <use x="384.285156" xlink:href="#DejaVuSans-115"/>
     </g>
    </g>
   </g>
   <g id="line2d_16">
    <path clip-path="url(#p033dc78d74)" d="M 229.005 278.595392 
L 287.595 278.595392 
L 287.595 237.512408 
L 229.005 237.512408 
L 229.005 278.595392 
" style="fill:none;stroke:#000000;stroke-linecap:square;"/>
   </g>
   <g id="line2d_17">
    <path clip-path="url(#p033dc78d74)" d="M 258.3 278.595392 
L 258.3 332.797009 
" style="fill:none;stroke:#000000;stroke-linecap:square;"/>
   </g>
   <g id="line2d_18">
    <path clip-path="url(#p033dc78d74)" d="M 258.3 237.512408 
L 258.3 180.515513 
" style="fill:none;stroke:#000000;stroke-linecap:square;"/>
   </g>
   <g id="line2d_19">
    <path clip-path="url(#p033dc78d74)" d="M 243.6525 332.797009 
L 272.9475 332.797009 
" style="fill:none;stroke:#000000;stroke-linecap:square;"/>
   </g>
   <g id="line2d_20">
    <path clip-path="url(#p033dc78d74)" d="M 243.6525 180.515513 
L 272.9475 180.515513 
" style="fill:none;stroke:#000000;stroke-linecap:square;"/>
   </g>
   <g id="line2d_21">
    <path clip-path="url(#p033dc78d74)" d="M 229.005 257.844236 
L 287.595 257.844236 
" style="fill:none;stroke:#ff7f0e;stroke-linecap:square;"/>
   </g>
   <g id="patch_3">
    <path d="M 63 576.72 
L 63 77.76 
" style="fill:none;stroke:#000000;stroke-linecap:square;stroke-linejoin:miter;stroke-width:0.8;"/>
   </g>
   <g id="patch_4">
    <path d="M 453.6 576.72 
L 453.6 77.76 
" style="fill:none;stroke:#000000;stroke-linecap:square;stroke-linejoin:miter;stroke-width:0.8;"/>
   </g>
   <g id="patch_5">
    <path d="M 63 576.72 
L 453.6 576.72 
" style="fill:none;stroke:#000000;stroke-linecap:square;stroke-linejoin:miter;stroke-width:0.8;"/>
   </g>
   <g id="patch_6">
    <path d="M 63 77.76 
L 453.6 77.76 
" style="fill:none;stroke:#000000;stroke-linecap:square;stroke-linejoin:miter;stroke-width:0.8;"/>
   </g>
   <g id="text_17">
    <!-- 0.0 -->
    <g style="fill:#2f4f4f;" transform="translate(268.770955 226.863384)scale(0.1 -0.1)">
     <use xlink:href="#DejaVuSans-48"/>
     <use x="63.623047" xlink:href="#DejaVuSans-46"/>
     <use x="95.410156" xlink:href="#DejaVuSans-48"/>
    </g>
   </g>
   <g id="text_18">
    <!-- 1.0 -->
    <g style="fill:#556b2f;" transform="translate(236.687551 256.260244)scale(0.1 -0.1)">
     <use xlink:href="#DejaVuSans-49"/>
     <use x="63.623047" xlink:href="#DejaVuSans-46"/>
     <use x="95.410156" xlink:href="#DejaVuSans-48"/>
    </g>
   </g>
   <g id="text_19">
    <!-- 2.0 -->
    <g style="fill:#8b4513;" transform="translate(252.913652 353.226098)scale(0.1 -0.1)">
     <use xlink:href="#DejaVuSans-50"/>
     <use x="63.623047" xlink:href="#DejaVuSans-46"/>
     <use x="95.410156" xlink:href="#DejaVuSans-48"/>
    </g>
   </g>
   <g id="text_20">
    <!-- 3 -->
    <g style="fill:#2e8b57;" transform="translate(239.255411 270.086023)scale(0.1 -0.1)">
     <use xlink:href="#DejaVuSans-51"/>
    </g>
   </g>
   <g id="text_21">
    <!-- 4.0 -->
    <g style="fill:#228b22;" transform="translate(260.913955 284.515823)scale(0.1 -0.1)">
     <defs>
      <path d="M 37.796875 64.3125 
L 12.890625 25.390625 
L 37.796875 25.390625 
z
M 35.203125 72.90625 
L 47.609375 72.90625 
L 47.609375 25.390625 
L 58.015625 25.390625 
L 58.015625 17.1875 
L 47.609375 17.1875 
L 47.609375 0 
L 37.796875 0 
L 37.796875 17.1875 
L 4.890625 17.1875 
L 4.890625 26.703125 
z
" id="DejaVuSans-52"/>
     </defs>
     <use xlink:href="#DejaVuSans-52"/>
     <use x="63.623047" xlink:href="#DejaVuSans-46"/>
     <use x="95.410156" xlink:href="#DejaVuSans-48"/>
    </g>
   </g>
   <g id="text_22">
    <!-- 6.0 -->
    <g style="fill:#8b0000;" transform="translate(244.599763 253.33574)scale(0.1 -0.1)">
     <defs>
      <path d="M 33.015625 40.375 
Q 26.375 40.375 22.484375 35.828125 
Q 18.609375 31.296875 18.609375 23.390625 
Q 18.609375 15.53125 22.484375 10.953125 
Q 26.375 6.390625 33.015625 6.390625 
Q 39.65625 6.390625 43.53125 10.953125 
Q 47.40625 15.53125 47.40625 23.390625 
Q 47.40625 31.296875 43.53125 35.828125 
Q 39.65625 40.375 33.015625 40.375 
z
M 52.59375 71.296875 
L 52.59375 62.3125 
Q 48.875 64.0625 45.09375 64.984375 
Q 41.3125 65.921875 37.59375 65.921875 
Q 27.828125 65.921875 22.671875 59.328125 
Q 17.53125 52.734375 16.796875 39.40625 
Q 19.671875 43.65625 24.015625 45.921875 
Q 28.375 48.1875 33.59375 48.1875 
Q 44.578125 48.1875 50.953125 41.515625 
Q 57.328125 34.859375 57.328125 23.390625 
Q 57.328125 12.15625 50.6875 5.359375 
Q 44.046875 -1.421875 33.015625 -1.421875 
Q 20.359375 -1.421875 13.671875 8.265625 
Q 6.984375 17.96875 6.984375 36.375 
Q 6.984375 53.65625 15.1875 63.9375 
Q 23.390625 74.21875 37.203125 74.21875 
Q 40.921875 74.21875 44.703125 73.484375 
Q 48.484375 72.75 52.59375 71.296875 
z
" id="DejaVuSans-54"/>
     </defs>
     <use xlink:href="#DejaVuSans-54"/>
     <use x="63.623047" xlink:href="#DejaVuSans-46"/>
     <use x="95.410156" xlink:href="#DejaVuSans-48"/>
    </g>
   </g>
   <g id="text_23">
    <!-- 7.0 -->
    <g style="fill:#808000;" transform="translate(269.719808 295.38069)scale(0.1 -0.1)">
     <defs>
      <path d="M 8.203125 72.90625 
L 55.078125 72.90625 
L 55.078125 68.703125 
L 28.609375 0 
L 18.3125 0 
L 43.21875 64.59375 
L 8.203125 64.59375 
z
" id="DejaVuSans-55"/>
     </defs>
     <use xlink:href="#DejaVuSans-55"/>
     <use x="63.623047" xlink:href="#DejaVuSans-46"/>
     <use x="95.410156" xlink:href="#DejaVuSans-48"/>
    </g>
   </g>
   <g id="text_24">
    <!-- 9.0 -->
    <g style="fill:#008080;" transform="translate(249.179945 269.811086)scale(0.1 -0.1)">
     <defs>
      <path d="M 10.984375 1.515625 
L 10.984375 10.5 
Q 14.703125 8.734375 18.5 7.8125 
Q 22.3125 6.890625 25.984375 6.890625 
Q 35.75 6.890625 40.890625 13.453125 
Q 46.046875 20.015625 46.78125 33.40625 
Q 43.953125 29.203125 39.59375 26.953125 
Q 35.25 24.703125 29.984375 24.703125 
Q 19.046875 24.703125 12.671875 31.3125 
Q 6.296875 37.9375 6.296875 49.421875 
Q 6.296875 60.640625 12.9375 67.421875 
Q 19.578125 74.21875 30.609375 74.21875 
Q 43.265625 74.21875 49.921875 64.515625 
Q 56.59375 54.828125 56.59375 36.375 
Q 56.59375 19.140625 48.40625 8.859375 
Q 40.234375 -1.421875 26.421875 -1.421875 
Q 22.703125 -1.421875 18.890625 -0.6875 
Q 15.09375 0.046875 10.984375 1.515625 
z
M 30.609375 32.421875 
Q 37.25 32.421875 41.125 36.953125 
Q 45.015625 41.5 45.015625 49.421875 
Q 45.015625 57.28125 41.125 61.84375 
Q 37.25 66.40625 30.609375 66.40625 
Q 23.96875 66.40625 20.09375 61.84375 
Q 16.21875 57.28125 16.21875 49.421875 
Q 16.21875 41.5 20.09375 36.953125 
Q 23.96875 32.421875 30.609375 32.421875 
z
" id="DejaVuSans-57"/>
     </defs>
     <use xlink:href="#DejaVuSans-57"/>
     <use x="63.623047" xlink:href="#DejaVuSans-46"/>
     <use x="95.410156" xlink:href="#DejaVuSans-48"/>
    </g>
   </g>
   <g id="text_25">
    <!-- 10 -->
    <g style="fill:#b8860b;" transform="translate(270.652791 277.638659)scale(0.1 -0.1)">
     <use xlink:href="#DejaVuSans-49"/>
     <use x="63.623047" xlink:href="#DejaVuSans-48"/>
    </g>
   </g>
   <g id="text_26">
    <!-- 11.0 -->
    <g style="fill:#4682b4;" transform="translate(253.98347 262.462011)scale(0.1 -0.1)">
     <use xlink:href="#DejaVuSans-49"/>
     <use x="63.623047" xlink:href="#DejaVuSans-49"/>
     <use x="127.246094" xlink:href="#DejaVuSans-46"/>
     <use x="159.033203" xlink:href="#DejaVuSans-48"/>
    </g>
   </g>
   <g id="text_27">
    <!-- 12.0 -->
    <g style="fill:#d2691e;" transform="translate(266.409867 285.579342)scale(0.1 -0.1)">
     <use xlink:href="#DejaVuSans-49"/>
     <use x="63.623047" xlink:href="#DejaVuSans-50"/>
     <use x="127.246094" xlink:href="#DejaVuSans-46"/>
     <use x="159.033203" xlink:href="#DejaVuSans-48"/>
    </g>
   </g>
   <g id="text_28">
    <!-- 13.0 -->
    <g style="fill:#9acd32;" transform="translate(272.338762 253.492706)scale(0.1 -0.1)">
     <use xlink:href="#DejaVuSans-49"/>
     <use x="63.623047" xlink:href="#DejaVuSans-51"/>
     <use x="127.246094" xlink:href="#DejaVuSans-46"/>
     <use x="159.033203" xlink:href="#DejaVuSans-48"/>
    </g>
   </g>
   <g id="text_29">
    <!-- 15.0 -->
    <g style="fill:#8fbc8f;" transform="translate(249.918461 209.103099)scale(0.1 -0.1)">
     <use xlink:href="#DejaVuSans-49"/>
     <use x="63.623047" xlink:href="#DejaVuSans-53"/>
     <use x="127.246094" xlink:href="#DejaVuSans-46"/>
     <use x="159.033203" xlink:href="#DejaVuSans-48"/>
    </g>
   </g>
   <g id="text_30">
    <!-- 16 -->
    <g style="fill:#800080;" transform="translate(249.732706 286.267695)scale(0.1 -0.1)">
     <use xlink:href="#DejaVuSans-49"/>
     <use x="63.623047" xlink:href="#DejaVuSans-54"/>
    </g>
   </g>
   <g id="text_31">
    <!-- 17.0 -->
    <g style="fill:#b03060;" transform="translate(242.28313 252.527974)scale(0.1 -0.1)">
     <use xlink:href="#DejaVuSans-49"/>
     <use x="63.623047" xlink:href="#DejaVuSans-55"/>
     <use x="127.246094" xlink:href="#DejaVuSans-46"/>
     <use x="159.033203" xlink:href="#DejaVuSans-48"/>
    </g>
   </g>
   <g id="text_32">
    <!-- 18.0 -->
    <g style="fill:#9932cc;" transform="translate(263.511493 252.203616)scale(0.1 -0.1)">
     <defs>
      <path d="M 31.78125 34.625 
Q 24.75 34.625 20.71875 30.859375 
Q 16.703125 27.09375 16.703125 20.515625 
Q 16.703125 13.921875 20.71875 10.15625 
Q 24.75 6.390625 31.78125 6.390625 
Q 38.8125 6.390625 42.859375 10.171875 
Q 46.921875 13.96875 46.921875 20.515625 
Q 46.921875 27.09375 42.890625 30.859375 
Q 38.875 34.625 31.78125 34.625 
z
M 21.921875 38.8125 
Q 15.578125 40.375 12.03125 44.71875 
Q 8.5 49.078125 8.5 55.328125 
Q 8.5 64.0625 14.71875 69.140625 
Q 20.953125 74.21875 31.78125 74.21875 
Q 42.671875 74.21875 48.875 69.140625 
Q 55.078125 64.0625 55.078125 55.328125 
Q 55.078125 49.078125 51.53125 44.71875 
Q 48 40.375 41.703125 38.8125 
Q 48.828125 37.15625 52.796875 32.3125 
Q 56.78125 27.484375 56.78125 20.515625 
Q 56.78125 9.90625 50.3125 4.234375 
Q 43.84375 -1.421875 31.78125 -1.421875 
Q 19.734375 -1.421875 13.25 4.234375 
Q 6.78125 9.90625 6.78125 20.515625 
Q 6.78125 27.484375 10.78125 32.3125 
Q 14.796875 37.15625 21.921875 38.8125 
z
M 18.3125 54.390625 
Q 18.3125 48.734375 21.84375 45.5625 
Q 25.390625 42.390625 31.78125 42.390625 
Q 38.140625 42.390625 41.71875 45.5625 
Q 45.3125 48.734375 45.3125 54.390625 
Q 45.3125 60.0625 41.71875 63.234375 
Q 38.140625 66.40625 31.78125 66.40625 
Q 25.390625 66.40625 21.84375 63.234375 
Q 18.3125 60.0625 18.3125 54.390625 
z
" id="DejaVuSans-56"/>
     </defs>
     <use xlink:href="#DejaVuSans-49"/>
     <use x="63.623047" xlink:href="#DejaVuSans-56"/>
     <use x="127.246094" xlink:href="#DejaVuSans-46"/>
     <use x="159.033203" xlink:href="#DejaVuSans-48"/>
    </g>
   </g>
   <g id="text_33">
    <!-- 19 -->
    <g style="fill:#ff4500;" transform="translate(227.051907 224.823424)scale(0.1 -0.1)">
     <use xlink:href="#DejaVuSans-49"/>
     <use x="63.623047" xlink:href="#DejaVuSans-57"/>
    </g>
   </g>
   <g id="text_34">
    <!-- 21.0 -->
    <g style="fill:#ff8c00;" transform="translate(270.949246 280.438605)scale(0.1 -0.1)">
     <use xlink:href="#DejaVuSans-50"/>
     <use x="63.623047" xlink:href="#DejaVuSans-49"/>
     <use x="127.246094" xlink:href="#DejaVuSans-46"/>
     <use x="159.033203" xlink:href="#DejaVuSans-48"/>
    </g>
   </g>
   <g id="text_35">
    <!-- 22.0 -->
    <g style="fill:#ffd700;" transform="translate(240.547692 179.759513)scale(0.1 -0.1)">
     <use xlink:href="#DejaVuSans-50"/>
     <use x="63.623047" xlink:href="#DejaVuSans-50"/>
     <use x="127.246094" xlink:href="#DejaVuSans-46"/>
     <use x="159.033203" xlink:href="#DejaVuSans-48"/>
    </g>
   </g>
   <g id="text_36">
    <!-- 23 -->
    <g style="fill:#0000cd;" transform="translate(268.964017 228.069349)scale(0.1 -0.1)">
     <use xlink:href="#DejaVuSans-50"/>
     <use x="63.623047" xlink:href="#DejaVuSans-51"/>
    </g>
   </g>
   <g id="text_37">
    <!-- 24 -->
    <g style="fill:#deb887;" transform="translate(273.609795 229.357609)scale(0.1 -0.1)">
     <use xlink:href="#DejaVuSans-50"/>
     <use x="63.623047" xlink:href="#DejaVuSans-52"/>
    </g>
   </g>
   <g id="text_38">
    <!-- 25 -->
    <g style="fill:#00ff00;" transform="translate(272.025531 274.749023)scale(0.1 -0.1)">
     <use xlink:href="#DejaVuSans-50"/>
     <use x="63.623047" xlink:href="#DejaVuSans-53"/>
    </g>
   </g>
   <g id="text_39">
    <!-- 26.0 -->
    <g style="fill:#00fa9a;" transform="translate(246.255362 242.506754)scale(0.1 -0.1)">
     <use xlink:href="#DejaVuSans-50"/>
     <use x="63.623047" xlink:href="#DejaVuSans-54"/>
     <use x="127.246094" xlink:href="#DejaVuSans-46"/>
     <use x="159.033203" xlink:href="#DejaVuSans-48"/>
    </g>
   </g>
   <g id="text_40">
    <!-- 27.0 -->
    <g style="fill:#dc143c;" transform="translate(263.549539 265.116554)scale(0.1 -0.1)">
     <use xlink:href="#DejaVuSans-50"/>
     <use x="63.623047" xlink:href="#DejaVuSans-55"/>
     <use x="127.246094" xlink:href="#DejaVuSans-46"/>
     <use x="159.033203" xlink:href="#DejaVuSans-48"/>
    </g>
   </g>
   <g id="text_41">
    <!-- 28.0 -->
    <g style="fill:#00bfff;" transform="translate(278.747739 274.299245)scale(0.1 -0.1)">
     <use xlink:href="#DejaVuSans-50"/>
     <use x="63.623047" xlink:href="#DejaVuSans-56"/>
     <use x="127.246094" xlink:href="#DejaVuSans-46"/>
     <use x="159.033203" xlink:href="#DejaVuSans-48"/>
    </g>
   </g>
   <g id="text_42">
    <!-- 29 -->
    <g style="fill:#f4a460;" transform="translate(285.500917 282.581404)scale(0.1 -0.1)">
     <use xlink:href="#DejaVuSans-50"/>
     <use x="63.623047" xlink:href="#DejaVuSans-57"/>
    </g>
   </g>
   <g id="text_43">
    <!-- 30.0 -->
    <g style="fill:#0000ff;" transform="translate(233.714262 258.507993)scale(0.1 -0.1)">
     <use xlink:href="#DejaVuSans-51"/>
     <use x="63.623047" xlink:href="#DejaVuSans-48"/>
     <use x="127.246094" xlink:href="#DejaVuSans-46"/>
     <use x="159.033203" xlink:href="#DejaVuSans-48"/>
    </g>
   </g>
   <g id="text_44">
    <!-- 31 -->
    <g style="fill:#a020f0;" transform="translate(249.647014 233.25951)scale(0.1 -0.1)">
     <use xlink:href="#DejaVuSans-51"/>
     <use x="63.623047" xlink:href="#DejaVuSans-49"/>
    </g>
   </g>
   <g id="text_45">
    <!-- 32.0 -->
    <g style="fill:#adff2f;" transform="translate(255.936875 234.923254)scale(0.1 -0.1)">
     <use xlink:href="#DejaVuSans-51"/>
     <use x="63.623047" xlink:href="#DejaVuSans-50"/>
     <use x="127.246094" xlink:href="#DejaVuSans-46"/>
     <use x="159.033203" xlink:href="#DejaVuSans-48"/>
    </g>
   </g>
   <g id="text_46">
    <!-- 33 -->
    <g style="fill:#ff6347;" transform="translate(259.869305 193.128082)scale(0.1 -0.1)">
     <use xlink:href="#DejaVuSans-51"/>
     <use x="63.623047" xlink:href="#DejaVuSans-51"/>
    </g>
   </g>
   <g id="text_47">
    <!-- 34 -->
    <g style="fill:#da70d6;" transform="translate(253.382697 242.566587)scale(0.1 -0.1)">
     <use xlink:href="#DejaVuSans-51"/>
     <use x="63.623047" xlink:href="#DejaVuSans-52"/>
    </g>
   </g>
   <g id="text_48">
    <!-- 35 -->
    <g style="fill:#b0c4de;" transform="translate(263.416445 215.276824)scale(0.1 -0.1)">
     <use xlink:href="#DejaVuSans-51"/>
     <use x="63.623047" xlink:href="#DejaVuSans-53"/>
    </g>
   </g>
   <g id="text_49">
    <!-- 36 -->
    <g style="fill:#ff00ff;" transform="translate(266.976912 239.836031)scale(0.1 -0.1)">
     <use xlink:href="#DejaVuSans-51"/>
     <use x="63.623047" xlink:href="#DejaVuSans-54"/>
    </g>
   </g>
   <g id="text_50">
    <!-- 37 -->
    <g style="fill:#f0e68c;" transform="translate(254.736218 234.209521)scale(0.1 -0.1)">
     <use xlink:href="#DejaVuSans-51"/>
     <use x="63.623047" xlink:href="#DejaVuSans-55"/>
    </g>
   </g>
   <g id="text_51">
    <!-- 38 -->
    <g style="fill:#fa8072;" transform="translate(246.3967 218.958678)scale(0.1 -0.1)">
     <use xlink:href="#DejaVuSans-51"/>
     <use x="63.623047" xlink:href="#DejaVuSans-56"/>
    </g>
   </g>
   <g id="text_52">
    <!-- 32.2 -->
    <g style="fill:#ffff54;" transform="translate(272.60873 266.526725)scale(0.1 -0.1)">
     <use xlink:href="#DejaVuSans-51"/>
     <use x="63.623047" xlink:href="#DejaVuSans-50"/>
     <use x="127.246094" xlink:href="#DejaVuSans-46"/>
     <use x="159.033203" xlink:href="#DejaVuSans-50"/>
    </g>
   </g>
   <g id="text_53">
    <!-- 32.1 -->
    <g style="fill:#6495ed;" transform="translate(255.795125 268.591418)scale(0.1 -0.1)">
     <use xlink:href="#DejaVuSans-51"/>
     <use x="63.623047" xlink:href="#DejaVuSans-50"/>
     <use x="127.246094" xlink:href="#DejaVuSans-46"/>
     <use x="159.033203" xlink:href="#DejaVuSans-49"/>
    </g>
   </g>
   <g id="text_54">
    <!-- 30.1 -->
    <g style="fill:#dda0dd;" transform="translate(271.694309 245.858215)scale(0.1 -0.1)">
     <use xlink:href="#DejaVuSans-51"/>
     <use x="63.623047" xlink:href="#DejaVuSans-48"/>
     <use x="127.246094" xlink:href="#DejaVuSans-46"/>
     <use x="159.033203" xlink:href="#DejaVuSans-49"/>
    </g>
   </g>
   <g id="text_55">
    <!-- 27.2 -->
    <g style="fill:#afeeee;" transform="translate(272.432007 314.110669)scale(0.1 -0.1)">
     <use xlink:href="#DejaVuSans-50"/>
     <use x="63.623047" xlink:href="#DejaVuSans-55"/>
     <use x="127.246094" xlink:href="#DejaVuSans-46"/>
     <use x="159.033203" xlink:href="#DejaVuSans-50"/>
    </g>
   </g>
   <g id="text_56">
    <!-- 28.1 -->
    <g style="fill:#7fffd4;" transform="translate(264.901769 255.234277)scale(0.1 -0.1)">
     <use xlink:href="#DejaVuSans-50"/>
     <use x="63.623047" xlink:href="#DejaVuSans-56"/>
     <use x="127.246094" xlink:href="#DejaVuSans-46"/>
     <use x="159.033203" xlink:href="#DejaVuSans-49"/>
    </g>
   </g>
   <g id="text_57">
    <!-- 26.2 -->
    <g style="fill:#ff69b4;" transform="translate(269.401813 232.370748)scale(0.1 -0.1)">
     <use xlink:href="#DejaVuSans-50"/>
     <use x="63.623047" xlink:href="#DejaVuSans-54"/>
     <use x="127.246094" xlink:href="#DejaVuSans-46"/>
     <use x="159.033203" xlink:href="#DejaVuSans-50"/>
    </g>
   </g>
   <g id="text_58">
    <!-- 27.1 -->
    <g style="fill:#ffb6c1;" transform="translate(260.344643 278.66443)scale(0.1 -0.1)">
     <use xlink:href="#DejaVuSans-50"/>
     <use x="63.623047" xlink:href="#DejaVuSans-55"/>
     <use x="127.246094" xlink:href="#DejaVuSans-46"/>
     <use x="159.033203" xlink:href="#DejaVuSans-49"/>
    </g>
   </g>
   <g id="text_59">
    <!-- 26.1 -->
    <g style="fill:#2f4f4f;" transform="translate(248.039137 247.81672)scale(0.1 -0.1)">
     <use xlink:href="#DejaVuSans-50"/>
     <use x="63.623047" xlink:href="#DejaVuSans-54"/>
     <use x="127.246094" xlink:href="#DejaVuSans-46"/>
     <use x="159.033203" xlink:href="#DejaVuSans-49"/>
    </g>
   </g>
   <g id="text_60">
    <!-- 22.2 -->
    <g style="fill:#8b4513;" transform="translate(262.745206 235.900954)scale(0.1 -0.1)">
     <use xlink:href="#DejaVuSans-50"/>
     <use x="63.623047" xlink:href="#DejaVuSans-50"/>
     <use x="127.246094" xlink:href="#DejaVuSans-46"/>
     <use x="159.033203" xlink:href="#DejaVuSans-50"/>
    </g>
   </g>
   <g id="text_61">
    <!-- 20.3 -->
    <g style="fill:#2e8b57;" transform="translate(264.779344 300.775566)scale(0.1 -0.1)">
     <use xlink:href="#DejaVuSans-50"/>
     <use x="63.623047" xlink:href="#DejaVuSans-48"/>
     <use x="127.246094" xlink:href="#DejaVuSans-46"/>
     <use x="159.033203" xlink:href="#DejaVuSans-51"/>
    </g>
   </g>
   <g id="text_62">
    <!-- 22.1 -->
    <g style="fill:#228b22;" transform="translate(278.25206 257.088236)scale(0.1 -0.1)">
     <use xlink:href="#DejaVuSans-50"/>
     <use x="63.623047" xlink:href="#DejaVuSans-50"/>
     <use x="127.246094" xlink:href="#DejaVuSans-46"/>
     <use x="159.033203" xlink:href="#DejaVuSans-49"/>
    </g>
   </g>
   <g id="text_63">
    <!-- 21.1 -->
    <g style="fill:#8b0000;" transform="translate(266.79997 267.157123)scale(0.1 -0.1)">
     <use xlink:href="#DejaVuSans-50"/>
     <use x="63.623047" xlink:href="#DejaVuSans-49"/>
     <use x="127.246094" xlink:href="#DejaVuSans-46"/>
     <use x="159.033203" xlink:href="#DejaVuSans-49"/>
    </g>
   </g>
   <g id="text_64">
    <!-- 20.1 -->
    <g style="fill:#808000;" transform="translate(262.01679 328.102925)scale(0.1 -0.1)">
     <use xlink:href="#DejaVuSans-50"/>
     <use x="63.623047" xlink:href="#DejaVuSans-48"/>
     <use x="127.246094" xlink:href="#DejaVuSans-46"/>
     <use x="159.033203" xlink:href="#DejaVuSans-49"/>
    </g>
   </g>
   <g id="text_65">
    <!-- 18.2 -->
    <g style="fill:#483d8b;" transform="translate(267.268422 253.489322)scale(0.1 -0.1)">
     <use xlink:href="#DejaVuSans-49"/>
     <use x="63.623047" xlink:href="#DejaVuSans-56"/>
     <use x="127.246094" xlink:href="#DejaVuSans-46"/>
     <use x="159.033203" xlink:href="#DejaVuSans-50"/>
    </g>
   </g>
   <g id="text_66">
    <!-- 18.1 -->
    <g style="fill:#b8860b;" transform="translate(254.577243 252.581572)scale(0.1 -0.1)">
     <use xlink:href="#DejaVuSans-49"/>
     <use x="63.623047" xlink:href="#DejaVuSans-56"/>
     <use x="127.246094" xlink:href="#DejaVuSans-46"/>
     <use x="159.033203" xlink:href="#DejaVuSans-49"/>
    </g>
   </g>
   <g id="text_67">
    <!-- 17.1 -->
    <g style="fill:#d2691e;" transform="translate(269.360499 381.817462)scale(0.1 -0.1)">
     <use xlink:href="#DejaVuSans-49"/>
     <use x="63.623047" xlink:href="#DejaVuSans-55"/>
     <use x="127.246094" xlink:href="#DejaVuSans-46"/>
     <use x="159.033203" xlink:href="#DejaVuSans-49"/>
    </g>
   </g>
   <g id="text_68">
    <!-- 14.3 -->
    <g style="fill:#9acd32;" transform="translate(289.163378 277.839392)scale(0.1 -0.1)">
     <use xlink:href="#DejaVuSans-49"/>
     <use x="63.623047" xlink:href="#DejaVuSans-52"/>
     <use x="127.246094" xlink:href="#DejaVuSans-46"/>
     <use x="159.033203" xlink:href="#DejaVuSans-51"/>
    </g>
   </g>
   <g id="text_69">
    <!-- 14.2 -->
    <g style="fill:#32cd32;" transform="translate(292.507616 223.997876)scale(0.1 -0.1)">
     <use xlink:href="#DejaVuSans-49"/>
     <use x="63.623047" xlink:href="#DejaVuSans-52"/>
     <use x="127.246094" xlink:href="#DejaVuSans-46"/>
     <use x="159.033203" xlink:href="#DejaVuSans-50"/>
    </g>
   </g>
   <g id="text_70">
    <!-- 15.1 -->
    <g style="fill:#8fbc8f;" transform="translate(275.322627 241.431573)scale(0.1 -0.1)">
     <use xlink:href="#DejaVuSans-49"/>
     <use x="63.623047" xlink:href="#DejaVuSans-53"/>
     <use x="127.246094" xlink:href="#DejaVuSans-46"/>
     <use x="159.033203" xlink:href="#DejaVuSans-49"/>
    </g>
   </g>
   <g id="text_71">
    <!-- 11.2 -->
    <g style="fill:#ff8c00;" transform="translate(286.221444 256.952256)scale(0.1 -0.1)">
     <use xlink:href="#DejaVuSans-49"/>
     <use x="63.623047" xlink:href="#DejaVuSans-49"/>
     <use x="127.246094" xlink:href="#DejaVuSans-46"/>
     <use x="159.033203" xlink:href="#DejaVuSans-50"/>
    </g>
   </g>
   <g id="text_72">
    <!-- 12.1 -->
    <g style="fill:#ffd700;" transform="translate(285.05233 317.260486)scale(0.1 -0.1)">
     <use xlink:href="#DejaVuSans-49"/>
     <use x="63.623047" xlink:href="#DejaVuSans-50"/>
     <use x="127.246094" xlink:href="#DejaVuSans-46"/>
     <use x="159.033203" xlink:href="#DejaVuSans-49"/>
    </g>
   </g>
   <g id="text_73">
    <!-- 11.1 -->
    <g style="fill:#deb887;" transform="translate(267.902998 231.722417)scale(0.1 -0.1)">
     <use xlink:href="#DejaVuSans-49"/>
     <use x="63.623047" xlink:href="#DejaVuSans-49"/>
     <use x="127.246094" xlink:href="#DejaVuSans-46"/>
     <use x="159.033203" xlink:href="#DejaVuSans-49"/>
    </g>
   </g>
   <g id="text_74">
    <!-- 9.2 -->
    <g style="fill:#00ff00;" transform="translate(265.482933 317.162906)scale(0.1 -0.1)">
     <use xlink:href="#DejaVuSans-57"/>
     <use x="63.623047" xlink:href="#DejaVuSans-46"/>
     <use x="95.410156" xlink:href="#DejaVuSans-50"/>
    </g>
   </g>
   <g id="text_75">
    <!-- 8.2 -->
    <g style="fill:#dc143c;" transform="translate(260.285453 238.654232)scale(0.1 -0.1)">
     <use xlink:href="#DejaVuSans-56"/>
     <use x="63.623047" xlink:href="#DejaVuSans-46"/>
     <use x="95.410156" xlink:href="#DejaVuSans-50"/>
    </g>
   </g>
   <g id="text_76">
    <!-- 9.1 -->
    <g style="fill:#00bfff;" transform="translate(256.543658 332.041009)scale(0.1 -0.1)">
     <use xlink:href="#DejaVuSans-57"/>
     <use x="63.623047" xlink:href="#DejaVuSans-46"/>
     <use x="95.410156" xlink:href="#DejaVuSans-49"/>
    </g>
   </g>
   <g id="text_77">
    <!-- 5.4 -->
    <g style="fill:#f4a460;" transform="translate(247.638736 235.985637)scale(0.1 -0.1)">
     <use xlink:href="#DejaVuSans-53"/>
     <use x="63.623047" xlink:href="#DejaVuSans-46"/>
     <use x="95.410156" xlink:href="#DejaVuSans-52"/>
    </g>
   </g>
   <g id="text_78">
    <!-- 6.3 -->
    <g style="fill:#0000ff;" transform="translate(308.506808 342.720342)scale(0.1 -0.1)">
     <use xlink:href="#DejaVuSans-54"/>
     <use x="63.623047" xlink:href="#DejaVuSans-46"/>
     <use x="95.410156" xlink:href="#DejaVuSans-51"/>
    </g>
   </g>
   <g id="text_79">
    <!-- 8.1 -->
    <g style="fill:#a020f0;" transform="translate(271.724139 296.647111)scale(0.1 -0.1)">
     <use xlink:href="#DejaVuSans-56"/>
     <use x="63.623047" xlink:href="#DejaVuSans-46"/>
     <use x="95.410156" xlink:href="#DejaVuSans-49"/>
    </g>
   </g>
   <g id="text_80">
    <!-- 6.2 -->
    <g style="fill:#ff6347;" transform="translate(266.798969 236.008299)scale(0.1 -0.1)">
     <use xlink:href="#DejaVuSans-54"/>
     <use x="63.623047" xlink:href="#DejaVuSans-46"/>
     <use x="95.410156" xlink:href="#DejaVuSans-50"/>
    </g>
   </g>
   <g id="text_81">
    <!-- 7.1 -->
    <g style="fill:#da70d6;" transform="translate(248.915541 236.756408)scale(0.1 -0.1)">
     <use xlink:href="#DejaVuSans-55"/>
     <use x="63.623047" xlink:href="#DejaVuSans-46"/>
     <use x="95.410156" xlink:href="#DejaVuSans-49"/>
    </g>
   </g>
   <g id="text_82">
    <!-- 5.2 -->
    <g style="fill:#b0c4de;" transform="translate(241.235985 272.703731)scale(0.1 -0.1)">
     <use xlink:href="#DejaVuSans-53"/>
     <use x="63.623047" xlink:href="#DejaVuSans-46"/>
     <use x="95.410156" xlink:href="#DejaVuSans-50"/>
    </g>
   </g>
   <g id="text_83">
    <!-- 6.1 -->
    <g style="fill:#ff00ff;" transform="translate(290.857671 260.350767)scale(0.1 -0.1)">
     <use xlink:href="#DejaVuSans-54"/>
     <use x="63.623047" xlink:href="#DejaVuSans-46"/>
     <use x="95.410156" xlink:href="#DejaVuSans-49"/>
    </g>
   </g>
   <g id="text_84">
    <!-- 5.1 -->
    <g style="fill:#f0e68c;" transform="translate(276.656518 251.423989)scale(0.1 -0.1)">
     <use xlink:href="#DejaVuSans-53"/>
     <use x="63.623047" xlink:href="#DejaVuSans-46"/>
     <use x="95.410156" xlink:href="#DejaVuSans-49"/>
    </g>
   </g>
   <g id="text_85">
    <!-- 4.1 -->
    <g style="fill:#ffff54;" transform="translate(264.127093 269.304221)scale(0.1 -0.1)">
     <use xlink:href="#DejaVuSans-52"/>
     <use x="63.623047" xlink:href="#DejaVuSans-46"/>
     <use x="95.410156" xlink:href="#DejaVuSans-49"/>
    </g>
   </g>
   <g id="text_86">
    <!-- 2.2 -->
    <g style="fill:#6495ed;" transform="translate(252.700074 322.442738)scale(0.1 -0.1)">
     <use xlink:href="#DejaVuSans-50"/>
     <use x="63.623047" xlink:href="#DejaVuSans-46"/>
     <use x="95.410156" xlink:href="#DejaVuSans-50"/>
    </g>
   </g>
   <g id="text_87">
    <!-- 0.2 -->
    <g style="fill:#90ee90;" transform="translate(252.369532 275.068408)scale(0.1 -0.1)">
     <use xlink:href="#DejaVuSans-48"/>
     <use x="63.623047" xlink:href="#DejaVuSans-46"/>
     <use x="95.410156" xlink:href="#DejaVuSans-50"/>
    </g>
   </g>
   <g id="text_88">
    <!-- 1.1 -->
    <g style="fill:#7b68ee;" transform="translate(249.9814 265.198838)scale(0.1 -0.1)">
     <use xlink:href="#DejaVuSans-49"/>
     <use x="63.623047" xlink:href="#DejaVuSans-46"/>
     <use x="95.410156" xlink:href="#DejaVuSans-49"/>
    </g>
   </g>
   <g id="text_89">
    <!-- 0.1 -->
    <g style="fill:#afeeee;" transform="translate(266.84689 257.699389)scale(0.1 -0.1)">
     <use xlink:href="#DejaVuSans-48"/>
     <use x="63.623047" xlink:href="#DejaVuSans-46"/>
     <use x="95.410156" xlink:href="#DejaVuSans-49"/>
    </g>
   </g>
  </g>
 </g>
 <defs>
  <clipPath id="p033dc78d74">
   <rect height="498.96" width="390.6" x="63" y="77.76"/>
  </clipPath>
 </defs>
</svg>
