<?xml version="1.0" encoding="utf-8" standalone="no"?>
<!DOCTYPE svg PUBLIC "-//W3C//DTD SVG 1.1//EN"
  "http://www.w3.org/Graphics/SVG/1.1/DTD/svg11.dtd">
<!-- Created with matplotlib (https://matplotlib.org/) -->
<svg height="280.8pt" version="1.1" viewBox="0 0 504 280.8" width="504pt" xmlns="http://www.w3.org/2000/svg" xmlns:xlink="http://www.w3.org/1999/xlink">
 <metadata>
  <rdf:RDF xmlns:cc="http://creativecommons.org/ns#" xmlns:dc="http://purl.org/dc/elements/1.1/" xmlns:rdf="http://www.w3.org/1999/02/22-rdf-syntax-ns#">
   <cc:Work>
    <dc:type rdf:resource="http://purl.org/dc/dcmitype/StillImage"/>
    <dc:date>2023-04-21T13:57:35.626561</dc:date>
    <dc:format>image/svg+xml</dc:format>
    <dc:creator>
     <cc:Agent>
      <dc:title>Matplotlib v3.3.4, https://matplotlib.org/</dc:title>
     </cc:Agent>
    </dc:creator>
   </cc:Work>
  </rdf:RDF>
 </metadata>
 <defs>
  <style type="text/css">*{stroke-linecap:butt;stroke-linejoin:round;}</style>
 </defs>
 <g id="figure_1">
  <g id="patch_1">
   <path d="M 0 280.8 
L 504 280.8 
L 504 0 
L 0 0 
z
" style="fill:#ffffff;"/>
  </g>
  <g id="axes_1">
   <g id="patch_2">
    <path d="M 63 249.912 
L 453.6 249.912 
L 453.6 33.696 
L 63 33.696 
z
" style="fill:#ffffff;"/>
   </g>
   <g id="PathCollection_1">
    <defs>
     <path d="M 0 3 
C 0.795609 3 1.55874 2.683901 2.12132 2.12132 
C 2.683901 1.55874 3 0.795609 3 0 
C 3 -0.795609 2.683901 -1.55874 2.12132 -2.12132 
C 1.55874 -2.683901 0.795609 -3 0 -3 
C -0.795609 -3 -1.55874 -2.683901 -2.12132 -2.12132 
C -2.683901 -1.55874 -3 -0.795609 -3 0 
C -3 0.795609 -2.683901 1.55874 -2.12132 2.12132 
C -1.55874 2.683901 -0.795609 3 0 3 
z
" id="m858b64d2c0" style="stroke:#1f77b4;"/>
    </defs>
    <g clip-path="url(#pab6a387fa6)">
     <use style="fill:#1f77b4;stroke:#1f77b4;" x="435.845455" xlink:href="#m858b64d2c0" y="106.594765"/>
     <use style="fill:#1f77b4;stroke:#1f77b4;" x="402.394647" xlink:href="#m858b64d2c0" y="116.65878"/>
     <use style="fill:#1f77b4;stroke:#1f77b4;" x="129.546607" xlink:href="#m858b64d2c0" y="49.318029"/>
     <use style="fill:#1f77b4;stroke:#1f77b4;" x="137.266958" xlink:href="#m858b64d2c0" y="46.184836"/>
     <use style="fill:#1f77b4;stroke:#1f77b4;" x="132.954685" xlink:href="#m858b64d2c0" y="45.339386"/>
     <use style="fill:#1f77b4;stroke:#1f77b4;" x="432.081326" xlink:href="#m858b64d2c0" y="97.459528"/>
     <use style="fill:#1f77b4;stroke:#1f77b4;" x="371.49299" xlink:href="#m858b64d2c0" y="141.361342"/>
     <use style="fill:#1f77b4;stroke:#1f77b4;" x="403.239588" xlink:href="#m858b64d2c0" y="128.312026"/>
     <use style="fill:#1f77b4;stroke:#1f77b4;" x="141.023257" xlink:href="#m858b64d2c0" y="49.273793"/>
     <use style="fill:#1f77b4;stroke:#1f77b4;" x="387.57179" xlink:href="#m858b64d2c0" y="110.465271"/>
     <use style="fill:#1f77b4;stroke:#1f77b4;" x="83.386364" xlink:href="#m858b64d2c0" y="197.762229"/>
     <use style="fill:#1f77b4;stroke:#1f77b4;" x="80.754545" xlink:href="#m858b64d2c0" y="193.11304"/>
     <use style="fill:#1f77b4;stroke:#1f77b4;" x="81.675121" xlink:href="#m858b64d2c0" y="195.930798"/>
     <use style="fill:#1f77b4;stroke:#1f77b4;" x="386.066949" xlink:href="#m858b64d2c0" y="120.587763"/>
     <use style="fill:#1f77b4;stroke:#1f77b4;" x="384.527688" xlink:href="#m858b64d2c0" y="117.637124"/>
     <use style="fill:#1f77b4;stroke:#1f77b4;" x="434.314788" xlink:href="#m858b64d2c0" y="100.413032"/>
     <use style="fill:#1f77b4;stroke:#1f77b4;" x="401.449728" xlink:href="#m858b64d2c0" y="130.783611"/>
     <use style="fill:#1f77b4;stroke:#1f77b4;" x="372.610271" xlink:href="#m858b64d2c0" y="138.624591"/>
     <use style="fill:#1f77b4;stroke:#1f77b4;" x="433.260564" xlink:href="#m858b64d2c0" y="99.463608"/>
     <use style="fill:#1f77b4;stroke:#1f77b4;" x="402.489243" xlink:href="#m858b64d2c0" y="116.373869"/>
     <use style="fill:#1f77b4;stroke:#1f77b4;" x="413.861677" xlink:href="#m858b64d2c0" y="111.777204"/>
     <use style="fill:#1f77b4;stroke:#1f77b4;" x="400.937385" xlink:href="#m858b64d2c0" y="127.845251"/>
     <use style="fill:#1f77b4;stroke:#1f77b4;" x="402.237694" xlink:href="#m858b64d2c0" y="131.018941"/>
     <use style="fill:#1f77b4;stroke:#1f77b4;" x="400.324422" xlink:href="#m858b64d2c0" y="126.016378"/>
     <use style="fill:#1f77b4;stroke:#1f77b4;" x="401.186152" xlink:href="#m858b64d2c0" y="128.297188"/>
     <use style="fill:#1f77b4;stroke:#1f77b4;" x="400.043195" xlink:href="#m858b64d2c0" y="125.390161"/>
     <use style="fill:#1f77b4;stroke:#1f77b4;" x="131.54559" xlink:href="#m858b64d2c0" y="44.381039"/>
     <use style="fill:#1f77b4;stroke:#1f77b4;" x="432.123551" xlink:href="#m858b64d2c0" y="102.453724"/>
     <use style="fill:#1f77b4;stroke:#1f77b4;" x="411.804659" xlink:href="#m858b64d2c0" y="111.920561"/>
     <use style="fill:#1f77b4;stroke:#1f77b4;" x="412.021128" xlink:href="#m858b64d2c0" y="113.732632"/>
     <use style="fill:#1f77b4;stroke:#1f77b4;" x="432.582502" xlink:href="#m858b64d2c0" y="99.090543"/>
     <use style="fill:#1f77b4;stroke:#1f77b4;" x="432.235157" xlink:href="#m858b64d2c0" y="101.927529"/>
     <use style="fill:#1f77b4;stroke:#1f77b4;" x="384.090799" xlink:href="#m858b64d2c0" y="240.084"/>
     <use style="fill:#1f77b4;stroke:#1f77b4;" x="385.652594" xlink:href="#m858b64d2c0" y="236.067476"/>
     <use style="fill:#1f77b4;stroke:#1f77b4;" x="384.257668" xlink:href="#m858b64d2c0" y="239.715102"/>
     <use style="fill:#1f77b4;stroke:#1f77b4;" x="385.111584" xlink:href="#m858b64d2c0" y="237.492585"/>
     <use style="fill:#1f77b4;stroke:#1f77b4;" x="129.584509" xlink:href="#m858b64d2c0" y="45.993675"/>
     <use style="fill:#1f77b4;stroke:#1f77b4;" x="140.548821" xlink:href="#m858b64d2c0" y="48.333798"/>
     <use style="fill:#1f77b4;stroke:#1f77b4;" x="435.691663" xlink:href="#m858b64d2c0" y="101.519205"/>
     <use style="fill:#1f77b4;stroke:#1f77b4;" x="372.764933" xlink:href="#m858b64d2c0" y="137.958858"/>
     <use style="fill:#1f77b4;stroke:#1f77b4;" x="404.23922" xlink:href="#m858b64d2c0" y="118.982963"/>
     <use style="fill:#1f77b4;stroke:#1f77b4;" x="133.006685" xlink:href="#m858b64d2c0" y="45.264413"/>
     <use style="fill:#1f77b4;stroke:#1f77b4;" x="131.063024" xlink:href="#m858b64d2c0" y="45.704256"/>
     <use style="fill:#1f77b4;stroke:#1f77b4;" x="374.239046" xlink:href="#m858b64d2c0" y="129.394384"/>
     <use style="fill:#1f77b4;stroke:#1f77b4;" x="432.077423" xlink:href="#m858b64d2c0" y="103.156757"/>
     <use style="fill:#1f77b4;stroke:#1f77b4;" x="403.660497" xlink:href="#m858b64d2c0" y="127.42783"/>
     <use style="fill:#1f77b4;stroke:#1f77b4;" x="384.76763" xlink:href="#m858b64d2c0" y="238.39271"/>
     <use style="fill:#1f77b4;stroke:#1f77b4;" x="401.708501" xlink:href="#m858b64d2c0" y="128.620155"/>
     <use style="fill:#1f77b4;stroke:#1f77b4;" x="433.580073" xlink:href="#m858b64d2c0" y="103.966815"/>
     <use style="fill:#1f77b4;stroke:#1f77b4;" x="430.90665" xlink:href="#m858b64d2c0" y="103.419072"/>
     <use style="fill:#1f77b4;stroke:#1f77b4;" x="402.878774" xlink:href="#m858b64d2c0" y="120.486308"/>
     <use style="fill:#1f77b4;stroke:#1f77b4;" x="375.451474" xlink:href="#m858b64d2c0" y="129.553388"/>
     <use style="fill:#1f77b4;stroke:#1f77b4;" x="384.856873" xlink:href="#m858b64d2c0" y="238.145034"/>
     <use style="fill:#1f77b4;stroke:#1f77b4;" x="389.88514" xlink:href="#m858b64d2c0" y="122.506951"/>
     <use style="fill:#1f77b4;stroke:#1f77b4;" x="389.991143" xlink:href="#m858b64d2c0" y="122.843391"/>
     <use style="fill:#1f77b4;stroke:#1f77b4;" x="411.95803" xlink:href="#m858b64d2c0" y="113.657035"/>
     <use style="fill:#1f77b4;stroke:#1f77b4;" x="432.026573" xlink:href="#m858b64d2c0" y="97.618413"/>
     <use style="fill:#1f77b4;stroke:#1f77b4;" x="129.628395" xlink:href="#m858b64d2c0" y="45.246034"/>
     <use style="fill:#1f77b4;stroke:#1f77b4;" x="433.209574" xlink:href="#m858b64d2c0" y="100.520055"/>
     <use style="fill:#1f77b4;stroke:#1f77b4;" x="402.100893" xlink:href="#m858b64d2c0" y="123.349443"/>
     <use style="fill:#1f77b4;stroke:#1f77b4;" x="375.187487" xlink:href="#m858b64d2c0" y="127.471257"/>
     <use style="fill:#1f77b4;stroke:#1f77b4;" x="385.963908" xlink:href="#m858b64d2c0" y="112.335223"/>
     <use style="fill:#1f77b4;stroke:#1f77b4;" x="401.257354" xlink:href="#m858b64d2c0" y="114.990741"/>
     <use style="fill:#1f77b4;stroke:#1f77b4;" x="430.285502" xlink:href="#m858b64d2c0" y="98.205499"/>
     <use style="fill:#1f77b4;stroke:#1f77b4;" x="375.388416" xlink:href="#m858b64d2c0" y="131.10024"/>
     <use style="fill:#1f77b4;stroke:#1f77b4;" x="386.469728" xlink:href="#m858b64d2c0" y="112.681065"/>
     <use style="fill:#1f77b4;stroke:#1f77b4;" x="385.975915" xlink:href="#m858b64d2c0" y="109.291841"/>
     <use style="fill:#1f77b4;stroke:#1f77b4;" x="384.314962" xlink:href="#m858b64d2c0" y="106.013222"/>
     <use style="fill:#1f77b4;stroke:#1f77b4;" x="384.639214" xlink:href="#m858b64d2c0" y="107.473233"/>
     <use style="fill:#1f77b4;stroke:#1f77b4;" x="402.941271" xlink:href="#m858b64d2c0" y="114.23041"/>
     <use style="fill:#1f77b4;stroke:#1f77b4;" x="385.844628" xlink:href="#m858b64d2c0" y="109.625802"/>
     <use style="fill:#1f77b4;stroke:#1f77b4;" x="405.177855" xlink:href="#m858b64d2c0" y="121.696217"/>
     <use style="fill:#1f77b4;stroke:#1f77b4;" x="435.186745" xlink:href="#m858b64d2c0" y="101.346039"/>
     <use style="fill:#1f77b4;stroke:#1f77b4;" x="374.514339" xlink:href="#m858b64d2c0" y="133.930502"/>
     <use style="fill:#1f77b4;stroke:#1f77b4;" x="82.080851" xlink:href="#m858b64d2c0" y="189.759354"/>
     <use style="fill:#1f77b4;stroke:#1f77b4;" x="83.943894" xlink:href="#m858b64d2c0" y="190.594514"/>
     <use style="fill:#1f77b4;stroke:#1f77b4;" x="83.985429" xlink:href="#m858b64d2c0" y="191.095567"/>
     <use style="fill:#1f77b4;stroke:#1f77b4;" x="403.692036" xlink:href="#m858b64d2c0" y="112.888469"/>
     <use style="fill:#1f77b4;stroke:#1f77b4;" x="429.959509" xlink:href="#m858b64d2c0" y="110.271366"/>
     <use style="fill:#1f77b4;stroke:#1f77b4;" x="429.273623" xlink:href="#m858b64d2c0" y="109.497137"/>
     <use style="fill:#1f77b4;stroke:#1f77b4;" x="412.885419" xlink:href="#m858b64d2c0" y="111.461954"/>
     <use style="fill:#1f77b4;stroke:#1f77b4;" x="432.107541" xlink:href="#m858b64d2c0" y="97.98982"/>
     <use style="fill:#1f77b4;stroke:#1f77b4;" x="413.000067" xlink:href="#m858b64d2c0" y="111.878313"/>
     <use style="fill:#1f77b4;stroke:#1f77b4;" x="403.865338" xlink:href="#m858b64d2c0" y="127.059738"/>
     <use style="fill:#1f77b4;stroke:#1f77b4;" x="432.374459" xlink:href="#m858b64d2c0" y="101.088749"/>
     <use style="fill:#1f77b4;stroke:#1f77b4;" x="374.812775" xlink:href="#m858b64d2c0" y="131.937189"/>
     <use style="fill:#1f77b4;stroke:#1f77b4;" x="203.056079" xlink:href="#m858b64d2c0" y="159.488976"/>
     <use style="fill:#1f77b4;stroke:#1f77b4;" x="205.159443" xlink:href="#m858b64d2c0" y="159.935092"/>
     <use style="fill:#1f77b4;stroke:#1f77b4;" x="202.844166" xlink:href="#m858b64d2c0" y="154.301579"/>
     <use style="fill:#1f77b4;stroke:#1f77b4;" x="202.766575" xlink:href="#m858b64d2c0" y="154.197565"/>
     <use style="fill:#1f77b4;stroke:#1f77b4;" x="203.99569" xlink:href="#m858b64d2c0" y="156.855006"/>
     <use style="fill:#1f77b4;stroke:#1f77b4;" x="202.9572" xlink:href="#m858b64d2c0" y="155.767371"/>
     <use style="fill:#1f77b4;stroke:#1f77b4;" x="203.41714" xlink:href="#m858b64d2c0" y="156.18682"/>
     <use style="fill:#1f77b4;stroke:#1f77b4;" x="402.786079" xlink:href="#m858b64d2c0" y="128.81833"/>
     <use style="fill:#1f77b4;stroke:#1f77b4;" x="432.772635" xlink:href="#m858b64d2c0" y="102.235207"/>
     <use style="fill:#1f77b4;stroke:#1f77b4;" x="372.393653" xlink:href="#m858b64d2c0" y="139.024614"/>
     <use style="fill:#1f77b4;stroke:#1f77b4;" x="385.57843" xlink:href="#m858b64d2c0" y="120.631137"/>
     <use style="fill:#1f77b4;stroke:#1f77b4;" x="140.514571" xlink:href="#m858b64d2c0" y="45.713167"/>
     <use style="fill:#1f77b4;stroke:#1f77b4;" x="139.618255" xlink:href="#m858b64d2c0" y="51.208151"/>
     <use style="fill:#1f77b4;stroke:#1f77b4;" x="433.131688" xlink:href="#m858b64d2c0" y="97.12155"/>
     <use style="fill:#1f77b4;stroke:#1f77b4;" x="405.319319" xlink:href="#m858b64d2c0" y="121.835251"/>
     <use style="fill:#1f77b4;stroke:#1f77b4;" x="373.449418" xlink:href="#m858b64d2c0" y="135.08733"/>
     <use style="fill:#1f77b4;stroke:#1f77b4;" x="205.568136" xlink:href="#m858b64d2c0" y="160.986858"/>
     <use style="fill:#1f77b4;stroke:#1f77b4;" x="132.861129" xlink:href="#m858b64d2c0" y="43.524"/>
     <use style="fill:#1f77b4;stroke:#1f77b4;" x="140.252286" xlink:href="#m858b64d2c0" y="49.926809"/>
     <use style="fill:#1f77b4;stroke:#1f77b4;" x="130.233023" xlink:href="#m858b64d2c0" y="43.986333"/>
     <use style="fill:#1f77b4;stroke:#1f77b4;" x="83.634891" xlink:href="#m858b64d2c0" y="191.819824"/>
     <use style="fill:#1f77b4;stroke:#1f77b4;" x="82.870648" xlink:href="#m858b64d2c0" y="198.691948"/>
     <use style="fill:#1f77b4;stroke:#1f77b4;" x="82.497618" xlink:href="#m858b64d2c0" y="194.274827"/>
     <use style="fill:#1f77b4;stroke:#1f77b4;" x="129.193287" xlink:href="#m858b64d2c0" y="43.703253"/>
     <use style="fill:#1f77b4;stroke:#1f77b4;" x="207.139593" xlink:href="#m858b64d2c0" y="163.741153"/>
     <use style="fill:#1f77b4;stroke:#1f77b4;" x="207.504319" xlink:href="#m858b64d2c0" y="164.570106"/>
     <use style="fill:#1f77b4;stroke:#1f77b4;" x="207.417911" xlink:href="#m858b64d2c0" y="164.361389"/>
     <use style="fill:#1f77b4;stroke:#1f77b4;" x="83.719381" xlink:href="#m858b64d2c0" y="187.930091"/>
     <use style="fill:#1f77b4;stroke:#1f77b4;" x="82.637811" xlink:href="#m858b64d2c0" y="192.661487"/>
     <use style="fill:#1f77b4;stroke:#1f77b4;" x="204.953021" xlink:href="#m858b64d2c0" y="158.10984"/>
    </g>
   </g>
   <g id="matplotlib.axis_1">
    <g id="xtick_1">
     <g id="line2d_1">
      <defs>
       <path d="M 0 0 
L 0 3.5 
" id="m1f158d24e7" style="stroke:#000000;stroke-width:0.8;"/>
      </defs>
      <g>
       <use style="stroke:#000000;stroke-width:0.8;" x="113.759839" xlink:href="#m1f158d24e7" y="249.912"/>
      </g>
     </g>
     <g id="text_1">
      <!-- −10 -->
      <g transform="translate(103.207495 264.510438)scale(0.1 -0.1)">
       <defs>
        <path d="M 10.59375 35.5 
L 73.1875 35.5 
L 73.1875 27.203125 
L 10.59375 27.203125 
z
" id="DejaVuSans-8722"/>
        <path d="M 12.40625 8.296875 
L 28.515625 8.296875 
L 28.515625 63.921875 
L 10.984375 60.40625 
L 10.984375 69.390625 
L 28.421875 72.90625 
L 38.28125 72.90625 
L 38.28125 8.296875 
L 54.390625 8.296875 
L 54.390625 0 
L 12.40625 0 
z
" id="DejaVuSans-49"/>
        <path d="M 31.78125 66.40625 
Q 24.171875 66.40625 20.328125 58.90625 
Q 16.5 51.421875 16.5 36.375 
Q 16.5 21.390625 20.328125 13.890625 
Q 24.171875 6.390625 31.78125 6.390625 
Q 39.453125 6.390625 43.28125 13.890625 
Q 47.125 21.390625 47.125 36.375 
Q 47.125 51.421875 43.28125 58.90625 
Q 39.453125 66.40625 31.78125 66.40625 
z
M 31.78125 74.21875 
Q 44.046875 74.21875 50.515625 64.515625 
Q 56.984375 54.828125 56.984375 36.375 
Q 56.984375 17.96875 50.515625 8.265625 
Q 44.046875 -1.421875 31.78125 -1.421875 
Q 19.53125 -1.421875 13.0625 8.265625 
Q 6.59375 17.96875 6.59375 36.375 
Q 6.59375 54.828125 13.0625 64.515625 
Q 19.53125 74.21875 31.78125 74.21875 
z
" id="DejaVuSans-48"/>
       </defs>
       <use xlink:href="#DejaVuSans-8722"/>
       <use x="83.789062" xlink:href="#DejaVuSans-49"/>
       <use x="147.412109" xlink:href="#DejaVuSans-48"/>
      </g>
     </g>
    </g>
    <g id="xtick_2">
     <g id="line2d_2">
      <g>
       <use style="stroke:#000000;stroke-width:0.8;" x="166.219702" xlink:href="#m1f158d24e7" y="249.912"/>
      </g>
     </g>
     <g id="text_2">
      <!-- −5 -->
      <g transform="translate(158.848608 264.510438)scale(0.1 -0.1)">
       <defs>
        <path d="M 10.796875 72.90625 
L 49.515625 72.90625 
L 49.515625 64.59375 
L 19.828125 64.59375 
L 19.828125 46.734375 
Q 21.96875 47.46875 24.109375 47.828125 
Q 26.265625 48.1875 28.421875 48.1875 
Q 40.625 48.1875 47.75 41.5 
Q 54.890625 34.8125 54.890625 23.390625 
Q 54.890625 11.625 47.5625 5.09375 
Q 40.234375 -1.421875 26.90625 -1.421875 
Q 22.3125 -1.421875 17.546875 -0.640625 
Q 12.796875 0.140625 7.71875 1.703125 
L 7.71875 11.625 
Q 12.109375 9.234375 16.796875 8.0625 
Q 21.484375 6.890625 26.703125 6.890625 
Q 35.15625 6.890625 40.078125 11.328125 
Q 45.015625 15.765625 45.015625 23.390625 
Q 45.015625 31 40.078125 35.4375 
Q 35.15625 39.890625 26.703125 39.890625 
Q 22.75 39.890625 18.8125 39.015625 
Q 14.890625 38.140625 10.796875 36.28125 
z
" id="DejaVuSans-53"/>
       </defs>
       <use xlink:href="#DejaVuSans-8722"/>
       <use x="83.789062" xlink:href="#DejaVuSans-53"/>
      </g>
     </g>
    </g>
    <g id="xtick_3">
     <g id="line2d_3">
      <g>
       <use style="stroke:#000000;stroke-width:0.8;" x="218.679565" xlink:href="#m1f158d24e7" y="249.912"/>
      </g>
     </g>
     <g id="text_3">
      <!-- 0 -->
      <g transform="translate(215.498315 264.510438)scale(0.1 -0.1)">
       <use xlink:href="#DejaVuSans-48"/>
      </g>
     </g>
    </g>
    <g id="xtick_4">
     <g id="line2d_4">
      <g>
       <use style="stroke:#000000;stroke-width:0.8;" x="271.139428" xlink:href="#m1f158d24e7" y="249.912"/>
      </g>
     </g>
     <g id="text_4">
      <!-- 5 -->
      <g transform="translate(267.958178 264.510438)scale(0.1 -0.1)">
       <use xlink:href="#DejaVuSans-53"/>
      </g>
     </g>
    </g>
    <g id="xtick_5">
     <g id="line2d_5">
      <g>
       <use style="stroke:#000000;stroke-width:0.8;" x="323.599291" xlink:href="#m1f158d24e7" y="249.912"/>
      </g>
     </g>
     <g id="text_5">
      <!-- 10 -->
      <g transform="translate(317.236791 264.510438)scale(0.1 -0.1)">
       <use xlink:href="#DejaVuSans-49"/>
       <use x="63.623047" xlink:href="#DejaVuSans-48"/>
      </g>
     </g>
    </g>
    <g id="xtick_6">
     <g id="line2d_6">
      <g>
       <use style="stroke:#000000;stroke-width:0.8;" x="376.059153" xlink:href="#m1f158d24e7" y="249.912"/>
      </g>
     </g>
     <g id="text_6">
      <!-- 15 -->
      <g transform="translate(369.696653 264.510438)scale(0.1 -0.1)">
       <use xlink:href="#DejaVuSans-49"/>
       <use x="63.623047" xlink:href="#DejaVuSans-53"/>
      </g>
     </g>
    </g>
    <g id="xtick_7">
     <g id="line2d_7">
      <g>
       <use style="stroke:#000000;stroke-width:0.8;" x="428.519016" xlink:href="#m1f158d24e7" y="249.912"/>
      </g>
     </g>
     <g id="text_7">
      <!-- 20 -->
      <g transform="translate(422.156516 264.510438)scale(0.1 -0.1)">
       <defs>
        <path d="M 19.1875 8.296875 
L 53.609375 8.296875 
L 53.609375 0 
L 7.328125 0 
L 7.328125 8.296875 
Q 12.9375 14.109375 22.625 23.890625 
Q 32.328125 33.6875 34.8125 36.53125 
Q 39.546875 41.84375 41.421875 45.53125 
Q 43.3125 49.21875 43.3125 52.78125 
Q 43.3125 58.59375 39.234375 62.25 
Q 35.15625 65.921875 28.609375 65.921875 
Q 23.96875 65.921875 18.8125 64.3125 
Q 13.671875 62.703125 7.8125 59.421875 
L 7.8125 69.390625 
Q 13.765625 71.78125 18.9375 73 
Q 24.125 74.21875 28.421875 74.21875 
Q 39.75 74.21875 46.484375 68.546875 
Q 53.21875 62.890625 53.21875 53.421875 
Q 53.21875 48.921875 51.53125 44.890625 
Q 49.859375 40.875 45.40625 35.40625 
Q 44.1875 33.984375 37.640625 27.21875 
Q 31.109375 20.453125 19.1875 8.296875 
z
" id="DejaVuSans-50"/>
       </defs>
       <use xlink:href="#DejaVuSans-50"/>
       <use x="63.623047" xlink:href="#DejaVuSans-48"/>
      </g>
     </g>
    </g>
   </g>
   <g id="matplotlib.axis_2">
    <g id="ytick_1">
     <g id="line2d_8">
      <defs>
       <path d="M 0 0 
L -3.5 0 
" id="mbcda710628" style="stroke:#000000;stroke-width:0.8;"/>
      </defs>
      <g>
       <use style="stroke:#000000;stroke-width:0.8;" x="63" xlink:href="#mbcda710628" y="225.138854"/>
      </g>
     </g>
     <g id="text_8">
      <!-- 2 -->
      <g transform="translate(49.6375 228.938073)scale(0.1 -0.1)">
       <use xlink:href="#DejaVuSans-50"/>
      </g>
     </g>
    </g>
    <g id="ytick_2">
     <g id="line2d_9">
      <g>
       <use style="stroke:#000000;stroke-width:0.8;" x="63" xlink:href="#mbcda710628" y="197.330017"/>
      </g>
     </g>
     <g id="text_9">
      <!-- 3 -->
      <g transform="translate(49.6375 201.129235)scale(0.1 -0.1)">
       <defs>
        <path d="M 40.578125 39.3125 
Q 47.65625 37.796875 51.625 33 
Q 55.609375 28.21875 55.609375 21.1875 
Q 55.609375 10.40625 48.1875 4.484375 
Q 40.765625 -1.421875 27.09375 -1.421875 
Q 22.515625 -1.421875 17.65625 -0.515625 
Q 12.796875 0.390625 7.625 2.203125 
L 7.625 11.71875 
Q 11.71875 9.328125 16.59375 8.109375 
Q 21.484375 6.890625 26.8125 6.890625 
Q 36.078125 6.890625 40.9375 10.546875 
Q 45.796875 14.203125 45.796875 21.1875 
Q 45.796875 27.640625 41.28125 31.265625 
Q 36.765625 34.90625 28.71875 34.90625 
L 20.21875 34.90625 
L 20.21875 43.015625 
L 29.109375 43.015625 
Q 36.375 43.015625 40.234375 45.921875 
Q 44.09375 48.828125 44.09375 54.296875 
Q 44.09375 59.90625 40.109375 62.90625 
Q 36.140625 65.921875 28.71875 65.921875 
Q 24.65625 65.921875 20.015625 65.03125 
Q 15.375 64.15625 9.8125 62.3125 
L 9.8125 71.09375 
Q 15.4375 72.65625 20.34375 73.4375 
Q 25.25 74.21875 29.59375 74.21875 
Q 40.828125 74.21875 47.359375 69.109375 
Q 53.90625 64.015625 53.90625 55.328125 
Q 53.90625 49.265625 50.4375 45.09375 
Q 46.96875 40.921875 40.578125 39.3125 
z
" id="DejaVuSans-51"/>
       </defs>
       <use xlink:href="#DejaVuSans-51"/>
      </g>
     </g>
    </g>
    <g id="ytick_3">
     <g id="line2d_10">
      <g>
       <use style="stroke:#000000;stroke-width:0.8;" x="63" xlink:href="#mbcda710628" y="169.521179"/>
      </g>
     </g>
     <g id="text_10">
      <!-- 4 -->
      <g transform="translate(49.6375 173.320398)scale(0.1 -0.1)">
       <defs>
        <path d="M 37.796875 64.3125 
L 12.890625 25.390625 
L 37.796875 25.390625 
z
M 35.203125 72.90625 
L 47.609375 72.90625 
L 47.609375 25.390625 
L 58.015625 25.390625 
L 58.015625 17.1875 
L 47.609375 17.1875 
L 47.609375 0 
L 37.796875 0 
L 37.796875 17.1875 
L 4.890625 17.1875 
L 4.890625 26.703125 
z
" id="DejaVuSans-52"/>
       </defs>
       <use xlink:href="#DejaVuSans-52"/>
      </g>
     </g>
    </g>
    <g id="ytick_4">
     <g id="line2d_11">
      <g>
       <use style="stroke:#000000;stroke-width:0.8;" x="63" xlink:href="#mbcda710628" y="141.712342"/>
      </g>
     </g>
     <g id="text_11">
      <!-- 5 -->
      <g transform="translate(49.6375 145.51156)scale(0.1 -0.1)">
       <use xlink:href="#DejaVuSans-53"/>
      </g>
     </g>
    </g>
    <g id="ytick_5">
     <g id="line2d_12">
      <g>
       <use style="stroke:#000000;stroke-width:0.8;" x="63" xlink:href="#mbcda710628" y="113.903504"/>
      </g>
     </g>
     <g id="text_12">
      <!-- 6 -->
      <g transform="translate(49.6375 117.702723)scale(0.1 -0.1)">
       <defs>
        <path d="M 33.015625 40.375 
Q 26.375 40.375 22.484375 35.828125 
Q 18.609375 31.296875 18.609375 23.390625 
Q 18.609375 15.53125 22.484375 10.953125 
Q 26.375 6.390625 33.015625 6.390625 
Q 39.65625 6.390625 43.53125 10.953125 
Q 47.40625 15.53125 47.40625 23.390625 
Q 47.40625 31.296875 43.53125 35.828125 
Q 39.65625 40.375 33.015625 40.375 
z
M 52.59375 71.296875 
L 52.59375 62.3125 
Q 48.875 64.0625 45.09375 64.984375 
Q 41.3125 65.921875 37.59375 65.921875 
Q 27.828125 65.921875 22.671875 59.328125 
Q 17.53125 52.734375 16.796875 39.40625 
Q 19.671875 43.65625 24.015625 45.921875 
Q 28.375 48.1875 33.59375 48.1875 
Q 44.578125 48.1875 50.953125 41.515625 
Q 57.328125 34.859375 57.328125 23.390625 
Q 57.328125 12.15625 50.6875 5.359375 
Q 44.046875 -1.421875 33.015625 -1.421875 
Q 20.359375 -1.421875 13.671875 8.265625 
Q 6.984375 17.96875 6.984375 36.375 
Q 6.984375 53.65625 15.1875 63.9375 
Q 23.390625 74.21875 37.203125 74.21875 
Q 40.921875 74.21875 44.703125 73.484375 
Q 48.484375 72.75 52.59375 71.296875 
z
" id="DejaVuSans-54"/>
       </defs>
       <use xlink:href="#DejaVuSans-54"/>
      </g>
     </g>
    </g>
    <g id="ytick_6">
     <g id="line2d_13">
      <g>
       <use style="stroke:#000000;stroke-width:0.8;" x="63" xlink:href="#mbcda710628" y="86.094666"/>
      </g>
     </g>
     <g id="text_13">
      <!-- 7 -->
      <g transform="translate(49.6375 89.893885)scale(0.1 -0.1)">
       <defs>
        <path d="M 8.203125 72.90625 
L 55.078125 72.90625 
L 55.078125 68.703125 
L 28.609375 0 
L 18.3125 0 
L 43.21875 64.59375 
L 8.203125 64.59375 
z
" id="DejaVuSans-55"/>
       </defs>
       <use xlink:href="#DejaVuSans-55"/>
      </g>
     </g>
    </g>
    <g id="ytick_7">
     <g id="line2d_14">
      <g>
       <use style="stroke:#000000;stroke-width:0.8;" x="63" xlink:href="#mbcda710628" y="58.285829"/>
      </g>
     </g>
     <g id="text_14">
      <!-- 8 -->
      <g transform="translate(49.6375 62.085048)scale(0.1 -0.1)">
       <defs>
        <path d="M 31.78125 34.625 
Q 24.75 34.625 20.71875 30.859375 
Q 16.703125 27.09375 16.703125 20.515625 
Q 16.703125 13.921875 20.71875 10.15625 
Q 24.75 6.390625 31.78125 6.390625 
Q 38.8125 6.390625 42.859375 10.171875 
Q 46.921875 13.96875 46.921875 20.515625 
Q 46.921875 27.09375 42.890625 30.859375 
Q 38.875 34.625 31.78125 34.625 
z
M 21.921875 38.8125 
Q 15.578125 40.375 12.03125 44.71875 
Q 8.5 49.078125 8.5 55.328125 
Q 8.5 64.0625 14.71875 69.140625 
Q 20.953125 74.21875 31.78125 74.21875 
Q 42.671875 74.21875 48.875 69.140625 
Q 55.078125 64.0625 55.078125 55.328125 
Q 55.078125 49.078125 51.53125 44.71875 
Q 48 40.375 41.703125 38.8125 
Q 48.828125 37.15625 52.796875 32.3125 
Q 56.78125 27.484375 56.78125 20.515625 
Q 56.78125 9.90625 50.3125 4.234375 
Q 43.84375 -1.421875 31.78125 -1.421875 
Q 19.734375 -1.421875 13.25 4.234375 
Q 6.78125 9.90625 6.78125 20.515625 
Q 6.78125 27.484375 10.78125 32.3125 
Q 14.796875 37.15625 21.921875 38.8125 
z
M 18.3125 54.390625 
Q 18.3125 48.734375 21.84375 45.5625 
Q 25.390625 42.390625 31.78125 42.390625 
Q 38.140625 42.390625 41.71875 45.5625 
Q 45.3125 48.734375 45.3125 54.390625 
Q 45.3125 60.0625 41.71875 63.234375 
Q 38.140625 66.40625 31.78125 66.40625 
Q 25.390625 66.40625 21.84375 63.234375 
Q 18.3125 60.0625 18.3125 54.390625 
z
" id="DejaVuSans-56"/>
       </defs>
       <use xlink:href="#DejaVuSans-56"/>
      </g>
     </g>
    </g>
   </g>
   <g id="patch_3">
    <path d="M 63 249.912 
L 63 33.696 
" style="fill:none;stroke:#000000;stroke-linecap:square;stroke-linejoin:miter;stroke-width:0.8;"/>
   </g>
   <g id="patch_4">
    <path d="M 453.6 249.912 
L 453.6 33.696 
" style="fill:none;stroke:#000000;stroke-linecap:square;stroke-linejoin:miter;stroke-width:0.8;"/>
   </g>
   <g id="patch_5">
    <path d="M 63 249.912 
L 453.6 249.912 
" style="fill:none;stroke:#000000;stroke-linecap:square;stroke-linejoin:miter;stroke-width:0.8;"/>
   </g>
   <g id="patch_6">
    <path d="M 63 33.696 
L 453.6 33.696 
" style="fill:none;stroke:#000000;stroke-linecap:square;stroke-linejoin:miter;stroke-width:0.8;"/>
   </g>
   <g id="text_15">
    <!-- UMAP projection of the phylogenetic dataset -->
    <g transform="translate(124.38375 27.696)scale(0.12 -0.12)">
     <defs>
      <path d="M 8.6875 72.90625 
L 18.609375 72.90625 
L 18.609375 28.609375 
Q 18.609375 16.890625 22.84375 11.734375 
Q 27.09375 6.59375 36.625 6.59375 
Q 46.09375 6.59375 50.34375 11.734375 
Q 54.59375 16.890625 54.59375 28.609375 
L 54.59375 72.90625 
L 64.5 72.90625 
L 64.5 27.390625 
Q 64.5 13.140625 57.4375 5.859375 
Q 50.390625 -1.421875 36.625 -1.421875 
Q 22.796875 -1.421875 15.734375 5.859375 
Q 8.6875 13.140625 8.6875 27.390625 
z
" id="DejaVuSans-85"/>
      <path d="M 9.8125 72.90625 
L 24.515625 72.90625 
L 43.109375 23.296875 
L 61.8125 72.90625 
L 76.515625 72.90625 
L 76.515625 0 
L 66.890625 0 
L 66.890625 64.015625 
L 48.09375 14.015625 
L 38.1875 14.015625 
L 19.390625 64.015625 
L 19.390625 0 
L 9.8125 0 
z
" id="DejaVuSans-77"/>
      <path d="M 34.1875 63.1875 
L 20.796875 26.90625 
L 47.609375 26.90625 
z
M 28.609375 72.90625 
L 39.796875 72.90625 
L 67.578125 0 
L 57.328125 0 
L 50.6875 18.703125 
L 17.828125 18.703125 
L 11.1875 0 
L 0.78125 0 
z
" id="DejaVuSans-65"/>
      <path d="M 19.671875 64.796875 
L 19.671875 37.40625 
L 32.078125 37.40625 
Q 38.96875 37.40625 42.71875 40.96875 
Q 46.484375 44.53125 46.484375 51.125 
Q 46.484375 57.671875 42.71875 61.234375 
Q 38.96875 64.796875 32.078125 64.796875 
z
M 9.8125 72.90625 
L 32.078125 72.90625 
Q 44.34375 72.90625 50.609375 67.359375 
Q 56.890625 61.8125 56.890625 51.125 
Q 56.890625 40.328125 50.609375 34.8125 
Q 44.34375 29.296875 32.078125 29.296875 
L 19.671875 29.296875 
L 19.671875 0 
L 9.8125 0 
z
" id="DejaVuSans-80"/>
      <path id="DejaVuSans-32"/>
      <path d="M 18.109375 8.203125 
L 18.109375 -20.796875 
L 9.078125 -20.796875 
L 9.078125 54.6875 
L 18.109375 54.6875 
L 18.109375 46.390625 
Q 20.953125 51.265625 25.265625 53.625 
Q 29.59375 56 35.59375 56 
Q 45.5625 56 51.78125 48.09375 
Q 58.015625 40.1875 58.015625 27.296875 
Q 58.015625 14.40625 51.78125 6.484375 
Q 45.5625 -1.421875 35.59375 -1.421875 
Q 29.59375 -1.421875 25.265625 0.953125 
Q 20.953125 3.328125 18.109375 8.203125 
z
M 48.6875 27.296875 
Q 48.6875 37.203125 44.609375 42.84375 
Q 40.53125 48.484375 33.40625 48.484375 
Q 26.265625 48.484375 22.1875 42.84375 
Q 18.109375 37.203125 18.109375 27.296875 
Q 18.109375 17.390625 22.1875 11.75 
Q 26.265625 6.109375 33.40625 6.109375 
Q 40.53125 6.109375 44.609375 11.75 
Q 48.6875 17.390625 48.6875 27.296875 
z
" id="DejaVuSans-112"/>
      <path d="M 41.109375 46.296875 
Q 39.59375 47.171875 37.8125 47.578125 
Q 36.03125 48 33.890625 48 
Q 26.265625 48 22.1875 43.046875 
Q 18.109375 38.09375 18.109375 28.8125 
L 18.109375 0 
L 9.078125 0 
L 9.078125 54.6875 
L 18.109375 54.6875 
L 18.109375 46.1875 
Q 20.953125 51.171875 25.484375 53.578125 
Q 30.03125 56 36.53125 56 
Q 37.453125 56 38.578125 55.875 
Q 39.703125 55.765625 41.0625 55.515625 
z
" id="DejaVuSans-114"/>
      <path d="M 30.609375 48.390625 
Q 23.390625 48.390625 19.1875 42.75 
Q 14.984375 37.109375 14.984375 27.296875 
Q 14.984375 17.484375 19.15625 11.84375 
Q 23.34375 6.203125 30.609375 6.203125 
Q 37.796875 6.203125 41.984375 11.859375 
Q 46.1875 17.53125 46.1875 27.296875 
Q 46.1875 37.015625 41.984375 42.703125 
Q 37.796875 48.390625 30.609375 48.390625 
z
M 30.609375 56 
Q 42.328125 56 49.015625 48.375 
Q 55.71875 40.765625 55.71875 27.296875 
Q 55.71875 13.875 49.015625 6.21875 
Q 42.328125 -1.421875 30.609375 -1.421875 
Q 18.84375 -1.421875 12.171875 6.21875 
Q 5.515625 13.875 5.515625 27.296875 
Q 5.515625 40.765625 12.171875 48.375 
Q 18.84375 56 30.609375 56 
z
" id="DejaVuSans-111"/>
      <path d="M 9.421875 54.6875 
L 18.40625 54.6875 
L 18.40625 -0.984375 
Q 18.40625 -11.421875 14.421875 -16.109375 
Q 10.453125 -20.796875 1.609375 -20.796875 
L -1.8125 -20.796875 
L -1.8125 -13.1875 
L 0.59375 -13.1875 
Q 5.71875 -13.1875 7.5625 -10.8125 
Q 9.421875 -8.453125 9.421875 -0.984375 
z
M 9.421875 75.984375 
L 18.40625 75.984375 
L 18.40625 64.59375 
L 9.421875 64.59375 
z
" id="DejaVuSans-106"/>
      <path d="M 56.203125 29.59375 
L 56.203125 25.203125 
L 14.890625 25.203125 
Q 15.484375 15.921875 20.484375 11.0625 
Q 25.484375 6.203125 34.421875 6.203125 
Q 39.59375 6.203125 44.453125 7.46875 
Q 49.3125 8.734375 54.109375 11.28125 
L 54.109375 2.78125 
Q 49.265625 0.734375 44.1875 -0.34375 
Q 39.109375 -1.421875 33.890625 -1.421875 
Q 20.796875 -1.421875 13.15625 6.1875 
Q 5.515625 13.8125 5.515625 26.8125 
Q 5.515625 40.234375 12.765625 48.109375 
Q 20.015625 56 32.328125 56 
Q 43.359375 56 49.78125 48.890625 
Q 56.203125 41.796875 56.203125 29.59375 
z
M 47.21875 32.234375 
Q 47.125 39.59375 43.09375 43.984375 
Q 39.0625 48.390625 32.421875 48.390625 
Q 24.90625 48.390625 20.390625 44.140625 
Q 15.875 39.890625 15.1875 32.171875 
z
" id="DejaVuSans-101"/>
      <path d="M 48.78125 52.59375 
L 48.78125 44.1875 
Q 44.96875 46.296875 41.140625 47.34375 
Q 37.3125 48.390625 33.40625 48.390625 
Q 24.65625 48.390625 19.8125 42.84375 
Q 14.984375 37.3125 14.984375 27.296875 
Q 14.984375 17.28125 19.8125 11.734375 
Q 24.65625 6.203125 33.40625 6.203125 
Q 37.3125 6.203125 41.140625 7.25 
Q 44.96875 8.296875 48.78125 10.40625 
L 48.78125 2.09375 
Q 45.015625 0.34375 40.984375 -0.53125 
Q 36.96875 -1.421875 32.421875 -1.421875 
Q 20.0625 -1.421875 12.78125 6.34375 
Q 5.515625 14.109375 5.515625 27.296875 
Q 5.515625 40.671875 12.859375 48.328125 
Q 20.21875 56 33.015625 56 
Q 37.15625 56 41.109375 55.140625 
Q 45.0625 54.296875 48.78125 52.59375 
z
" id="DejaVuSans-99"/>
      <path d="M 18.3125 70.21875 
L 18.3125 54.6875 
L 36.8125 54.6875 
L 36.8125 47.703125 
L 18.3125 47.703125 
L 18.3125 18.015625 
Q 18.3125 11.328125 20.140625 9.421875 
Q 21.96875 7.515625 27.59375 7.515625 
L 36.8125 7.515625 
L 36.8125 0 
L 27.59375 0 
Q 17.1875 0 13.234375 3.875 
Q 9.28125 7.765625 9.28125 18.015625 
L 9.28125 47.703125 
L 2.6875 47.703125 
L 2.6875 54.6875 
L 9.28125 54.6875 
L 9.28125 70.21875 
z
" id="DejaVuSans-116"/>
      <path d="M 9.421875 54.6875 
L 18.40625 54.6875 
L 18.40625 0 
L 9.421875 0 
z
M 9.421875 75.984375 
L 18.40625 75.984375 
L 18.40625 64.59375 
L 9.421875 64.59375 
z
" id="DejaVuSans-105"/>
      <path d="M 54.890625 33.015625 
L 54.890625 0 
L 45.90625 0 
L 45.90625 32.71875 
Q 45.90625 40.484375 42.875 44.328125 
Q 39.84375 48.1875 33.796875 48.1875 
Q 26.515625 48.1875 22.3125 43.546875 
Q 18.109375 38.921875 18.109375 30.90625 
L 18.109375 0 
L 9.078125 0 
L 9.078125 54.6875 
L 18.109375 54.6875 
L 18.109375 46.1875 
Q 21.34375 51.125 25.703125 53.5625 
Q 30.078125 56 35.796875 56 
Q 45.21875 56 50.046875 50.171875 
Q 54.890625 44.34375 54.890625 33.015625 
z
" id="DejaVuSans-110"/>
      <path d="M 37.109375 75.984375 
L 37.109375 68.5 
L 28.515625 68.5 
Q 23.6875 68.5 21.796875 66.546875 
Q 19.921875 64.59375 19.921875 59.515625 
L 19.921875 54.6875 
L 34.71875 54.6875 
L 34.71875 47.703125 
L 19.921875 47.703125 
L 19.921875 0 
L 10.890625 0 
L 10.890625 47.703125 
L 2.296875 47.703125 
L 2.296875 54.6875 
L 10.890625 54.6875 
L 10.890625 58.5 
Q 10.890625 67.625 15.140625 71.796875 
Q 19.390625 75.984375 28.609375 75.984375 
z
" id="DejaVuSans-102"/>
      <path d="M 54.890625 33.015625 
L 54.890625 0 
L 45.90625 0 
L 45.90625 32.71875 
Q 45.90625 40.484375 42.875 44.328125 
Q 39.84375 48.1875 33.796875 48.1875 
Q 26.515625 48.1875 22.3125 43.546875 
Q 18.109375 38.921875 18.109375 30.90625 
L 18.109375 0 
L 9.078125 0 
L 9.078125 75.984375 
L 18.109375 75.984375 
L 18.109375 46.1875 
Q 21.34375 51.125 25.703125 53.5625 
Q 30.078125 56 35.796875 56 
Q 45.21875 56 50.046875 50.171875 
Q 54.890625 44.34375 54.890625 33.015625 
z
" id="DejaVuSans-104"/>
      <path d="M 32.171875 -5.078125 
Q 28.375 -14.84375 24.75 -17.8125 
Q 21.140625 -20.796875 15.09375 -20.796875 
L 7.90625 -20.796875 
L 7.90625 -13.28125 
L 13.1875 -13.28125 
Q 16.890625 -13.28125 18.9375 -11.515625 
Q 21 -9.765625 23.484375 -3.21875 
L 25.09375 0.875 
L 2.984375 54.6875 
L 12.5 54.6875 
L 29.59375 11.921875 
L 46.6875 54.6875 
L 56.203125 54.6875 
z
" id="DejaVuSans-121"/>
      <path d="M 9.421875 75.984375 
L 18.40625 75.984375 
L 18.40625 0 
L 9.421875 0 
z
" id="DejaVuSans-108"/>
      <path d="M 45.40625 27.984375 
Q 45.40625 37.75 41.375 43.109375 
Q 37.359375 48.484375 30.078125 48.484375 
Q 22.859375 48.484375 18.828125 43.109375 
Q 14.796875 37.75 14.796875 27.984375 
Q 14.796875 18.265625 18.828125 12.890625 
Q 22.859375 7.515625 30.078125 7.515625 
Q 37.359375 7.515625 41.375 12.890625 
Q 45.40625 18.265625 45.40625 27.984375 
z
M 54.390625 6.78125 
Q 54.390625 -7.171875 48.1875 -13.984375 
Q 42 -20.796875 29.203125 -20.796875 
Q 24.46875 -20.796875 20.265625 -20.09375 
Q 16.0625 -19.390625 12.109375 -17.921875 
L 12.109375 -9.1875 
Q 16.0625 -11.328125 19.921875 -12.34375 
Q 23.78125 -13.375 27.78125 -13.375 
Q 36.625 -13.375 41.015625 -8.765625 
Q 45.40625 -4.15625 45.40625 5.171875 
L 45.40625 9.625 
Q 42.625 4.78125 38.28125 2.390625 
Q 33.9375 0 27.875 0 
Q 17.828125 0 11.671875 7.65625 
Q 5.515625 15.328125 5.515625 27.984375 
Q 5.515625 40.671875 11.671875 48.328125 
Q 17.828125 56 27.875 56 
Q 33.9375 56 38.28125 53.609375 
Q 42.625 51.21875 45.40625 46.390625 
L 45.40625 54.6875 
L 54.390625 54.6875 
z
" id="DejaVuSans-103"/>
      <path d="M 45.40625 46.390625 
L 45.40625 75.984375 
L 54.390625 75.984375 
L 54.390625 0 
L 45.40625 0 
L 45.40625 8.203125 
Q 42.578125 3.328125 38.25 0.953125 
Q 33.9375 -1.421875 27.875 -1.421875 
Q 17.96875 -1.421875 11.734375 6.484375 
Q 5.515625 14.40625 5.515625 27.296875 
Q 5.515625 40.1875 11.734375 48.09375 
Q 17.96875 56 27.875 56 
Q 33.9375 56 38.25 53.625 
Q 42.578125 51.265625 45.40625 46.390625 
z
M 14.796875 27.296875 
Q 14.796875 17.390625 18.875 11.75 
Q 22.953125 6.109375 30.078125 6.109375 
Q 37.203125 6.109375 41.296875 11.75 
Q 45.40625 17.390625 45.40625 27.296875 
Q 45.40625 37.203125 41.296875 42.84375 
Q 37.203125 48.484375 30.078125 48.484375 
Q 22.953125 48.484375 18.875 42.84375 
Q 14.796875 37.203125 14.796875 27.296875 
z
" id="DejaVuSans-100"/>
      <path d="M 34.28125 27.484375 
Q 23.390625 27.484375 19.1875 25 
Q 14.984375 22.515625 14.984375 16.5 
Q 14.984375 11.71875 18.140625 8.90625 
Q 21.296875 6.109375 26.703125 6.109375 
Q 34.1875 6.109375 38.703125 11.40625 
Q 43.21875 16.703125 43.21875 25.484375 
L 43.21875 27.484375 
z
M 52.203125 31.203125 
L 52.203125 0 
L 43.21875 0 
L 43.21875 8.296875 
Q 40.140625 3.328125 35.546875 0.953125 
Q 30.953125 -1.421875 24.3125 -1.421875 
Q 15.921875 -1.421875 10.953125 3.296875 
Q 6 8.015625 6 15.921875 
Q 6 25.140625 12.171875 29.828125 
Q 18.359375 34.515625 30.609375 34.515625 
L 43.21875 34.515625 
L 43.21875 35.40625 
Q 43.21875 41.609375 39.140625 45 
Q 35.0625 48.390625 27.6875 48.390625 
Q 23 48.390625 18.546875 47.265625 
Q 14.109375 46.140625 10.015625 43.890625 
L 10.015625 52.203125 
Q 14.9375 54.109375 19.578125 55.046875 
Q 24.21875 56 28.609375 56 
Q 40.484375 56 46.34375 49.84375 
Q 52.203125 43.703125 52.203125 31.203125 
z
" id="DejaVuSans-97"/>
      <path d="M 44.28125 53.078125 
L 44.28125 44.578125 
Q 40.484375 46.53125 36.375 47.5 
Q 32.28125 48.484375 27.875 48.484375 
Q 21.1875 48.484375 17.84375 46.4375 
Q 14.5 44.390625 14.5 40.28125 
Q 14.5 37.15625 16.890625 35.375 
Q 19.28125 33.59375 26.515625 31.984375 
L 29.59375 31.296875 
Q 39.15625 29.25 43.1875 25.515625 
Q 47.21875 21.78125 47.21875 15.09375 
Q 47.21875 7.46875 41.1875 3.015625 
Q 35.15625 -1.421875 24.609375 -1.421875 
Q 20.21875 -1.421875 15.453125 -0.5625 
Q 10.6875 0.296875 5.421875 2 
L 5.421875 11.28125 
Q 10.40625 8.6875 15.234375 7.390625 
Q 20.0625 6.109375 24.8125 6.109375 
Q 31.15625 6.109375 34.5625 8.28125 
Q 37.984375 10.453125 37.984375 14.40625 
Q 37.984375 18.0625 35.515625 20.015625 
Q 33.0625 21.96875 24.703125 23.78125 
L 21.578125 24.515625 
Q 13.234375 26.265625 9.515625 29.90625 
Q 5.8125 33.546875 5.8125 39.890625 
Q 5.8125 47.609375 11.28125 51.796875 
Q 16.75 56 26.8125 56 
Q 31.78125 56 36.171875 55.265625 
Q 40.578125 54.546875 44.28125 53.078125 
z
" id="DejaVuSans-115"/>
     </defs>
     <use xlink:href="#DejaVuSans-85"/>
     <use x="73.193359" xlink:href="#DejaVuSans-77"/>
     <use x="159.472656" xlink:href="#DejaVuSans-65"/>
     <use x="227.880859" xlink:href="#DejaVuSans-80"/>
     <use x="288.183594" xlink:href="#DejaVuSans-32"/>
     <use x="319.970703" xlink:href="#DejaVuSans-112"/>
     <use x="383.447266" xlink:href="#DejaVuSans-114"/>
     <use x="422.310547" xlink:href="#DejaVuSans-111"/>
     <use x="483.492188" xlink:href="#DejaVuSans-106"/>
     <use x="511.275391" xlink:href="#DejaVuSans-101"/>
     <use x="572.798828" xlink:href="#DejaVuSans-99"/>
     <use x="627.779297" xlink:href="#DejaVuSans-116"/>
     <use x="666.988281" xlink:href="#DejaVuSans-105"/>
     <use x="694.771484" xlink:href="#DejaVuSans-111"/>
     <use x="755.953125" xlink:href="#DejaVuSans-110"/>
     <use x="819.332031" xlink:href="#DejaVuSans-32"/>
     <use x="851.119141" xlink:href="#DejaVuSans-111"/>
     <use x="912.300781" xlink:href="#DejaVuSans-102"/>
     <use x="947.505859" xlink:href="#DejaVuSans-32"/>
     <use x="979.292969" xlink:href="#DejaVuSans-116"/>
     <use x="1018.501953" xlink:href="#DejaVuSans-104"/>
     <use x="1081.880859" xlink:href="#DejaVuSans-101"/>
     <use x="1143.404297" xlink:href="#DejaVuSans-32"/>
     <use x="1175.191406" xlink:href="#DejaVuSans-112"/>
     <use x="1238.667969" xlink:href="#DejaVuSans-104"/>
     <use x="1302.046875" xlink:href="#DejaVuSans-121"/>
     <use x="1361.226562" xlink:href="#DejaVuSans-108"/>
     <use x="1389.009766" xlink:href="#DejaVuSans-111"/>
     <use x="1450.191406" xlink:href="#DejaVuSans-103"/>
     <use x="1513.667969" xlink:href="#DejaVuSans-101"/>
     <use x="1575.191406" xlink:href="#DejaVuSans-110"/>
     <use x="1638.570312" xlink:href="#DejaVuSans-101"/>
     <use x="1700.09375" xlink:href="#DejaVuSans-116"/>
     <use x="1739.302734" xlink:href="#DejaVuSans-105"/>
     <use x="1767.085938" xlink:href="#DejaVuSans-99"/>
     <use x="1822.066406" xlink:href="#DejaVuSans-32"/>
     <use x="1853.853516" xlink:href="#DejaVuSans-100"/>
     <use x="1917.330078" xlink:href="#DejaVuSans-97"/>
     <use x="1978.609375" xlink:href="#DejaVuSans-116"/>
     <use x="2017.818359" xlink:href="#DejaVuSans-97"/>
     <use x="2079.097656" xlink:href="#DejaVuSans-115"/>
     <use x="2131.197266" xlink:href="#DejaVuSans-101"/>
     <use x="2192.720703" xlink:href="#DejaVuSans-116"/>
    </g>
   </g>
  </g>
 </g>
 <defs>
  <clipPath id="pab6a387fa6">
   <rect height="216.216" width="390.6" x="63" y="33.696"/>
  </clipPath>
 </defs>
</svg>
