<?xml version="1.0" encoding="utf-8" standalone="no"?>
<!DOCTYPE svg PUBLIC "-//W3C//DTD SVG 1.1//EN"
  "http://www.w3.org/Graphics/SVG/1.1/DTD/svg11.dtd">
<!-- Created with matplotlib (https://matplotlib.org/) -->
<svg height="576pt" version="1.1" viewBox="0 0 504 576" width="504pt" xmlns="http://www.w3.org/2000/svg" xmlns:xlink="http://www.w3.org/1999/xlink">
 <metadata>
  <rdf:RDF xmlns:cc="http://creativecommons.org/ns#" xmlns:dc="http://purl.org/dc/elements/1.1/" xmlns:rdf="http://www.w3.org/1999/02/22-rdf-syntax-ns#">
   <cc:Work>
    <dc:type rdf:resource="http://purl.org/dc/dcmitype/StillImage"/>
    <dc:date>2023-04-21T13:57:36.739272</dc:date>
    <dc:format>image/svg+xml</dc:format>
    <dc:creator>
     <cc:Agent>
      <dc:title>Matplotlib v3.3.4, https://matplotlib.org/</dc:title>
     </cc:Agent>
    </dc:creator>
   </cc:Work>
  </rdf:RDF>
 </metadata>
 <defs>
  <style type="text/css">*{stroke-linecap:butt;stroke-linejoin:round;}</style>
 </defs>
 <g id="figure_1">
  <g id="patch_1">
   <path d="M 0 576 
L 504 576 
L 504 0 
L 0 0 
z
" style="fill:#ffffff;"/>
  </g>
  <g id="axes_1">
   <g id="patch_2">
    <path d="M 63 279.911489 
L 453.6 279.911489 
L 453.6 69.12 
L 63 69.12 
z
" style="fill:#ffffff;"/>
   </g>
   <g id="patch_3">
    <path clip-path="url(#p453ed26fb6)" d="M 80.754545 282.256335 
L 82.61366 282.256335 
L 82.61366 69.12 
L 80.754545 69.12 
z
" style="fill:#999999;"/>
   </g>
   <g id="patch_4">
    <path clip-path="url(#p453ed26fb6)" d="M 90.050119 282.256335 
L 91.909234 282.256335 
L 91.909234 151.963409 
L 90.050119 151.963409 
z
" style="fill:#999999;"/>
   </g>
   <g id="patch_5">
    <path clip-path="url(#p453ed26fb6)" d="M 99.345693 282.256335 
L 101.204807 282.256335 
L 101.204807 168.675031 
L 99.345693 168.675031 
z
" style="fill:#999999;"/>
   </g>
   <g id="patch_6">
    <path clip-path="url(#p453ed26fb6)" d="M 108.641266 282.256335 
L 110.500381 282.256335 
L 110.500381 195.905869 
L 108.641266 195.905869 
z
" style="fill:#999999;"/>
   </g>
   <g id="patch_7">
    <path clip-path="url(#p453ed26fb6)" d="M 117.93684 282.256335 
L 119.795954 282.256335 
L 119.795954 214.513922 
L 117.93684 214.513922 
z
" style="fill:#999999;"/>
   </g>
   <g id="patch_8">
    <path clip-path="url(#p453ed26fb6)" d="M 127.232413 282.256335 
L 129.091528 282.256335 
L 129.091528 243.279978 
L 127.232413 243.279978 
z
" style="fill:#999999;"/>
   </g>
   <g id="patch_9">
    <path clip-path="url(#p453ed26fb6)" d="M 136.527987 282.256335 
L 138.387101 282.256335 
L 138.387101 254.773186 
L 136.527987 254.773186 
z
" style="fill:#999999;"/>
   </g>
   <g id="patch_10">
    <path clip-path="url(#p453ed26fb6)" d="M 145.82356 282.256335 
L 147.682675 282.256335 
L 147.682675 261.855241 
L 145.82356 261.855241 
z
" style="fill:#999999;"/>
   </g>
   <g id="patch_11">
    <path clip-path="url(#p453ed26fb6)" d="M 155.119134 282.256335 
L 156.978248 282.256335 
L 156.978248 272.316002 
L 155.119134 272.316002 
z
" style="fill:#999999;"/>
   </g>
   <g id="patch_12">
    <path clip-path="url(#p453ed26fb6)" d="M 164.414707 282.256335 
L 166.273822 282.256335 
L 166.273822 274.523958 
L 164.414707 274.523958 
z
" style="fill:#999999;"/>
   </g>
   <g id="patch_13">
    <path clip-path="url(#p453ed26fb6)" d="M 173.710281 282.256335 
L 175.569396 282.256335 
L 175.569396 277.824445 
L 173.710281 277.824445 
z
" style="fill:#999999;"/>
   </g>
   <g id="patch_14">
    <path clip-path="url(#p453ed26fb6)" d="M 183.005854 282.256335 
L 184.864969 282.256335 
L 184.864969 276.676012 
L 183.005854 276.676012 
z
" style="fill:#999999;"/>
   </g>
   <g id="patch_15">
    <path clip-path="url(#p453ed26fb6)" d="M 192.301428 282.256335 
L 194.160543 282.256335 
L 194.160543 276.872724 
L 192.301428 276.872724 
z
" style="fill:#999999;"/>
   </g>
   <g id="patch_16">
    <path clip-path="url(#p453ed26fb6)" d="M 201.597001 282.256335 
L 203.456116 282.256335 
L 203.456116 277.093587 
L 201.597001 277.093587 
z
" style="fill:#999999;"/>
   </g>
   <g id="patch_17">
    <path clip-path="url(#p453ed26fb6)" d="M 210.892575 282.256335 
L 212.75169 282.256335 
L 212.75169 275.424351 
L 210.892575 275.424351 
z
" style="fill:#999999;"/>
   </g>
   <g id="patch_18">
    <path clip-path="url(#p453ed26fb6)" d="M 220.188149 282.256335 
L 222.047263 282.256335 
L 222.047263 273.882108 
L 220.188149 273.882108 
z
" style="fill:#999999;"/>
   </g>
   <g id="patch_19">
    <path clip-path="url(#p453ed26fb6)" d="M 229.483722 282.256335 
L 231.342837 282.256335 
L 231.342837 273.001959 
L 229.483722 273.001959 
z
" style="fill:#999999;"/>
   </g>
   <g id="patch_20">
    <path clip-path="url(#p453ed26fb6)" d="M 238.779296 282.256335 
L 240.63841 282.256335 
L 240.63841 271.941147 
L 238.779296 271.941147 
z
" style="fill:#999999;"/>
   </g>
   <g id="patch_21">
    <path clip-path="url(#p453ed26fb6)" d="M 248.074869 282.256335 
L 249.933984 282.256335 
L 249.933984 271.663624 
L 248.074869 271.663624 
z
" style="fill:#999999;"/>
   </g>
   <g id="patch_22">
    <path clip-path="url(#p453ed26fb6)" d="M 257.370443 282.256335 
L 259.229557 282.256335 
L 259.229557 270.8591 
L 257.370443 270.8591 
z
" style="fill:#999999;"/>
   </g>
   <g id="patch_23">
    <path clip-path="url(#p453ed26fb6)" d="M 266.666016 282.256335 
L 268.525131 282.256335 
L 268.525131 270.847233 
L 266.666016 270.847233 
z
" style="fill:#999999;"/>
   </g>
   <g id="patch_24">
    <path clip-path="url(#p453ed26fb6)" d="M 275.96159 282.256335 
L 277.820704 282.256335 
L 277.820704 269.215571 
L 275.96159 269.215571 
z
" style="fill:#999999;"/>
   </g>
   <g id="patch_25">
    <path clip-path="url(#p453ed26fb6)" d="M 285.257163 282.256335 
L 287.116278 282.256335 
L 287.116278 267.47194 
L 285.257163 267.47194 
z
" style="fill:#999999;"/>
   </g>
   <g id="patch_26">
    <path clip-path="url(#p453ed26fb6)" d="M 294.552737 282.256335 
L 296.411851 282.256335 
L 296.411851 264.939555 
L 294.552737 264.939555 
z
" style="fill:#999999;"/>
   </g>
   <g id="patch_27">
    <path clip-path="url(#p453ed26fb6)" d="M 303.84831 282.256335 
L 305.707425 282.256335 
L 305.707425 262.180136 
L 303.84831 262.180136 
z
" style="fill:#999999;"/>
   </g>
   <g id="patch_28">
    <path clip-path="url(#p453ed26fb6)" d="M 313.143884 282.256335 
L 315.002999 282.256335 
L 315.002999 258.068854 
L 313.143884 258.068854 
z
" style="fill:#999999;"/>
   </g>
   <g id="patch_29">
    <path clip-path="url(#p453ed26fb6)" d="M 322.439457 282.256335 
L 324.298572 282.256335 
L 324.298572 257.688237 
L 322.439457 257.688237 
z
" style="fill:#999999;"/>
   </g>
   <g id="patch_30">
    <path clip-path="url(#p453ed26fb6)" d="M 331.735031 282.256335 
L 333.594146 282.256335 
L 333.594146 256.354425 
L 331.735031 256.354425 
z
" style="fill:#999999;"/>
   </g>
   <g id="patch_31">
    <path clip-path="url(#p453ed26fb6)" d="M 341.030604 282.256335 
L 342.889719 282.256335 
L 342.889719 251.814664 
L 341.030604 251.814664 
z
" style="fill:#999999;"/>
   </g>
   <g id="patch_32">
    <path clip-path="url(#p453ed26fb6)" d="M 350.326178 282.256335 
L 352.185293 282.256335 
L 352.185293 246.172687 
L 350.326178 246.172687 
z
" style="fill:#999999;"/>
   </g>
   <g id="patch_33">
    <path clip-path="url(#p453ed26fb6)" d="M 359.621752 282.256335 
L 361.480866 282.256335 
L 361.480866 242.385058 
L 359.621752 242.385058 
z
" style="fill:#999999;"/>
   </g>
   <g id="patch_34">
    <path clip-path="url(#p453ed26fb6)" d="M 368.917325 282.256335 
L 370.77644 282.256335 
L 370.77644 240.082227 
L 368.917325 240.082227 
z
" style="fill:#999999;"/>
   </g>
   <g id="patch_35">
    <path clip-path="url(#p453ed26fb6)" d="M 378.212899 282.256335 
L 380.072013 282.256335 
L 380.072013 238.550795 
L 378.212899 238.550795 
z
" style="fill:#999999;"/>
   </g>
   <g id="patch_36">
    <path clip-path="url(#p453ed26fb6)" d="M 387.508472 282.256335 
L 389.367587 282.256335 
L 389.367587 234.481902 
L 387.508472 234.481902 
z
" style="fill:#999999;"/>
   </g>
   <g id="patch_37">
    <path clip-path="url(#p453ed26fb6)" d="M 396.804046 282.256335 
L 398.66316 282.256335 
L 398.66316 232.115088 
L 396.804046 232.115088 
z
" style="fill:#999999;"/>
   </g>
   <g id="patch_38">
    <path clip-path="url(#p453ed26fb6)" d="M 406.099619 282.256335 
L 407.958734 282.256335 
L 407.958734 231.273965 
L 406.099619 231.273965 
z
" style="fill:#999999;"/>
   </g>
   <g id="patch_39">
    <path clip-path="url(#p453ed26fb6)" d="M 415.395193 282.256335 
L 417.254307 282.256335 
L 417.254307 230.911804 
L 415.395193 230.911804 
z
" style="fill:#999999;"/>
   </g>
   <g id="patch_40">
    <path clip-path="url(#p453ed26fb6)" d="M 424.690766 282.256335 
L 426.549881 282.256335 
L 426.549881 225.720774 
L 424.690766 225.720774 
z
" style="fill:#999999;"/>
   </g>
   <g id="patch_41">
    <path clip-path="url(#p453ed26fb6)" d="M 433.98634 282.256335 
L 435.845455 282.256335 
L 435.845455 222.825857 
L 433.98634 222.825857 
z
" style="fill:#999999;"/>
   </g>
   <g id="matplotlib.axis_1">
    <g id="xtick_1">
     <g id="line2d_1">
      <defs>
       <path d="M 0 0 
L 0 3.5 
" id="m0c911246fd" style="stroke:#000000;stroke-width:0.8;"/>
      </defs>
      <g>
       <use style="stroke:#000000;stroke-width:0.8;" x="85.402332" xlink:href="#m0c911246fd" y="279.911489"/>
      </g>
     </g>
     <g id="text_1">
      <!-- 1 -->
      <g transform="translate(82.221082 294.509927)scale(0.1 -0.1)">
       <defs>
        <path d="M 12.40625 8.296875 
L 28.515625 8.296875 
L 28.515625 63.921875 
L 10.984375 60.40625 
L 10.984375 69.390625 
L 28.421875 72.90625 
L 38.28125 72.90625 
L 38.28125 8.296875 
L 54.390625 8.296875 
L 54.390625 0 
L 12.40625 0 
z
" id="DejaVuSans-49"/>
       </defs>
       <use xlink:href="#DejaVuSans-49"/>
      </g>
     </g>
    </g>
    <g id="xtick_2">
     <g id="line2d_2">
      <g>
       <use style="stroke:#000000;stroke-width:0.8;" x="94.697906" xlink:href="#m0c911246fd" y="279.911489"/>
      </g>
     </g>
     <g id="text_2">
      <!-- 2 -->
      <g transform="translate(91.516656 294.509927)scale(0.1 -0.1)">
       <defs>
        <path d="M 19.1875 8.296875 
L 53.609375 8.296875 
L 53.609375 0 
L 7.328125 0 
L 7.328125 8.296875 
Q 12.9375 14.109375 22.625 23.890625 
Q 32.328125 33.6875 34.8125 36.53125 
Q 39.546875 41.84375 41.421875 45.53125 
Q 43.3125 49.21875 43.3125 52.78125 
Q 43.3125 58.59375 39.234375 62.25 
Q 35.15625 65.921875 28.609375 65.921875 
Q 23.96875 65.921875 18.8125 64.3125 
Q 13.671875 62.703125 7.8125 59.421875 
L 7.8125 69.390625 
Q 13.765625 71.78125 18.9375 73 
Q 24.125 74.21875 28.421875 74.21875 
Q 39.75 74.21875 46.484375 68.546875 
Q 53.21875 62.890625 53.21875 53.421875 
Q 53.21875 48.921875 51.53125 44.890625 
Q 49.859375 40.875 45.40625 35.40625 
Q 44.1875 33.984375 37.640625 27.21875 
Q 31.109375 20.453125 19.1875 8.296875 
z
" id="DejaVuSans-50"/>
       </defs>
       <use xlink:href="#DejaVuSans-50"/>
      </g>
     </g>
    </g>
    <g id="xtick_3">
     <g id="line2d_3">
      <g>
       <use style="stroke:#000000;stroke-width:0.8;" x="103.993479" xlink:href="#m0c911246fd" y="279.911489"/>
      </g>
     </g>
     <g id="text_3">
      <!-- 3 -->
      <g transform="translate(100.812229 294.509927)scale(0.1 -0.1)">
       <defs>
        <path d="M 40.578125 39.3125 
Q 47.65625 37.796875 51.625 33 
Q 55.609375 28.21875 55.609375 21.1875 
Q 55.609375 10.40625 48.1875 4.484375 
Q 40.765625 -1.421875 27.09375 -1.421875 
Q 22.515625 -1.421875 17.65625 -0.515625 
Q 12.796875 0.390625 7.625 2.203125 
L 7.625 11.71875 
Q 11.71875 9.328125 16.59375 8.109375 
Q 21.484375 6.890625 26.8125 6.890625 
Q 36.078125 6.890625 40.9375 10.546875 
Q 45.796875 14.203125 45.796875 21.1875 
Q 45.796875 27.640625 41.28125 31.265625 
Q 36.765625 34.90625 28.71875 34.90625 
L 20.21875 34.90625 
L 20.21875 43.015625 
L 29.109375 43.015625 
Q 36.375 43.015625 40.234375 45.921875 
Q 44.09375 48.828125 44.09375 54.296875 
Q 44.09375 59.90625 40.109375 62.90625 
Q 36.140625 65.921875 28.71875 65.921875 
Q 24.65625 65.921875 20.015625 65.03125 
Q 15.375 64.15625 9.8125 62.3125 
L 9.8125 71.09375 
Q 15.4375 72.65625 20.34375 73.4375 
Q 25.25 74.21875 29.59375 74.21875 
Q 40.828125 74.21875 47.359375 69.109375 
Q 53.90625 64.015625 53.90625 55.328125 
Q 53.90625 49.265625 50.4375 45.09375 
Q 46.96875 40.921875 40.578125 39.3125 
z
" id="DejaVuSans-51"/>
       </defs>
       <use xlink:href="#DejaVuSans-51"/>
      </g>
     </g>
    </g>
    <g id="xtick_4">
     <g id="line2d_4">
      <g>
       <use style="stroke:#000000;stroke-width:0.8;" x="113.289053" xlink:href="#m0c911246fd" y="279.911489"/>
      </g>
     </g>
     <g id="text_4">
      <!-- 4 -->
      <g transform="translate(110.107803 294.509927)scale(0.1 -0.1)">
       <defs>
        <path d="M 37.796875 64.3125 
L 12.890625 25.390625 
L 37.796875 25.390625 
z
M 35.203125 72.90625 
L 47.609375 72.90625 
L 47.609375 25.390625 
L 58.015625 25.390625 
L 58.015625 17.1875 
L 47.609375 17.1875 
L 47.609375 0 
L 37.796875 0 
L 37.796875 17.1875 
L 4.890625 17.1875 
L 4.890625 26.703125 
z
" id="DejaVuSans-52"/>
       </defs>
       <use xlink:href="#DejaVuSans-52"/>
      </g>
     </g>
    </g>
    <g id="xtick_5">
     <g id="line2d_5">
      <g>
       <use style="stroke:#000000;stroke-width:0.8;" x="122.584626" xlink:href="#m0c911246fd" y="279.911489"/>
      </g>
     </g>
     <g id="text_5">
      <!-- 5 -->
      <g transform="translate(119.403376 294.509927)scale(0.1 -0.1)">
       <defs>
        <path d="M 10.796875 72.90625 
L 49.515625 72.90625 
L 49.515625 64.59375 
L 19.828125 64.59375 
L 19.828125 46.734375 
Q 21.96875 47.46875 24.109375 47.828125 
Q 26.265625 48.1875 28.421875 48.1875 
Q 40.625 48.1875 47.75 41.5 
Q 54.890625 34.8125 54.890625 23.390625 
Q 54.890625 11.625 47.5625 5.09375 
Q 40.234375 -1.421875 26.90625 -1.421875 
Q 22.3125 -1.421875 17.546875 -0.640625 
Q 12.796875 0.140625 7.71875 1.703125 
L 7.71875 11.625 
Q 12.109375 9.234375 16.796875 8.0625 
Q 21.484375 6.890625 26.703125 6.890625 
Q 35.15625 6.890625 40.078125 11.328125 
Q 45.015625 15.765625 45.015625 23.390625 
Q 45.015625 31 40.078125 35.4375 
Q 35.15625 39.890625 26.703125 39.890625 
Q 22.75 39.890625 18.8125 39.015625 
Q 14.890625 38.140625 10.796875 36.28125 
z
" id="DejaVuSans-53"/>
       </defs>
       <use xlink:href="#DejaVuSans-53"/>
      </g>
     </g>
    </g>
    <g id="xtick_6">
     <g id="line2d_6">
      <g>
       <use style="stroke:#000000;stroke-width:0.8;" x="131.8802" xlink:href="#m0c911246fd" y="279.911489"/>
      </g>
     </g>
     <g id="text_6">
      <!-- 6 -->
      <g transform="translate(128.69895 294.509927)scale(0.1 -0.1)">
       <defs>
        <path d="M 33.015625 40.375 
Q 26.375 40.375 22.484375 35.828125 
Q 18.609375 31.296875 18.609375 23.390625 
Q 18.609375 15.53125 22.484375 10.953125 
Q 26.375 6.390625 33.015625 6.390625 
Q 39.65625 6.390625 43.53125 10.953125 
Q 47.40625 15.53125 47.40625 23.390625 
Q 47.40625 31.296875 43.53125 35.828125 
Q 39.65625 40.375 33.015625 40.375 
z
M 52.59375 71.296875 
L 52.59375 62.3125 
Q 48.875 64.0625 45.09375 64.984375 
Q 41.3125 65.921875 37.59375 65.921875 
Q 27.828125 65.921875 22.671875 59.328125 
Q 17.53125 52.734375 16.796875 39.40625 
Q 19.671875 43.65625 24.015625 45.921875 
Q 28.375 48.1875 33.59375 48.1875 
Q 44.578125 48.1875 50.953125 41.515625 
Q 57.328125 34.859375 57.328125 23.390625 
Q 57.328125 12.15625 50.6875 5.359375 
Q 44.046875 -1.421875 33.015625 -1.421875 
Q 20.359375 -1.421875 13.671875 8.265625 
Q 6.984375 17.96875 6.984375 36.375 
Q 6.984375 53.65625 15.1875 63.9375 
Q 23.390625 74.21875 37.203125 74.21875 
Q 40.921875 74.21875 44.703125 73.484375 
Q 48.484375 72.75 52.59375 71.296875 
z
" id="DejaVuSans-54"/>
       </defs>
       <use xlink:href="#DejaVuSans-54"/>
      </g>
     </g>
    </g>
    <g id="xtick_7">
     <g id="line2d_7">
      <g>
       <use style="stroke:#000000;stroke-width:0.8;" x="141.175773" xlink:href="#m0c911246fd" y="279.911489"/>
      </g>
     </g>
     <g id="text_7">
      <!-- 7 -->
      <g transform="translate(137.994523 294.509927)scale(0.1 -0.1)">
       <defs>
        <path d="M 8.203125 72.90625 
L 55.078125 72.90625 
L 55.078125 68.703125 
L 28.609375 0 
L 18.3125 0 
L 43.21875 64.59375 
L 8.203125 64.59375 
z
" id="DejaVuSans-55"/>
       </defs>
       <use xlink:href="#DejaVuSans-55"/>
      </g>
     </g>
    </g>
    <g id="xtick_8">
     <g id="line2d_8">
      <g>
       <use style="stroke:#000000;stroke-width:0.8;" x="150.471347" xlink:href="#m0c911246fd" y="279.911489"/>
      </g>
     </g>
     <g id="text_8">
      <!-- 8 -->
      <g transform="translate(147.290097 294.509927)scale(0.1 -0.1)">
       <defs>
        <path d="M 31.78125 34.625 
Q 24.75 34.625 20.71875 30.859375 
Q 16.703125 27.09375 16.703125 20.515625 
Q 16.703125 13.921875 20.71875 10.15625 
Q 24.75 6.390625 31.78125 6.390625 
Q 38.8125 6.390625 42.859375 10.171875 
Q 46.921875 13.96875 46.921875 20.515625 
Q 46.921875 27.09375 42.890625 30.859375 
Q 38.875 34.625 31.78125 34.625 
z
M 21.921875 38.8125 
Q 15.578125 40.375 12.03125 44.71875 
Q 8.5 49.078125 8.5 55.328125 
Q 8.5 64.0625 14.71875 69.140625 
Q 20.953125 74.21875 31.78125 74.21875 
Q 42.671875 74.21875 48.875 69.140625 
Q 55.078125 64.0625 55.078125 55.328125 
Q 55.078125 49.078125 51.53125 44.71875 
Q 48 40.375 41.703125 38.8125 
Q 48.828125 37.15625 52.796875 32.3125 
Q 56.78125 27.484375 56.78125 20.515625 
Q 56.78125 9.90625 50.3125 4.234375 
Q 43.84375 -1.421875 31.78125 -1.421875 
Q 19.734375 -1.421875 13.25 4.234375 
Q 6.78125 9.90625 6.78125 20.515625 
Q 6.78125 27.484375 10.78125 32.3125 
Q 14.796875 37.15625 21.921875 38.8125 
z
M 18.3125 54.390625 
Q 18.3125 48.734375 21.84375 45.5625 
Q 25.390625 42.390625 31.78125 42.390625 
Q 38.140625 42.390625 41.71875 45.5625 
Q 45.3125 48.734375 45.3125 54.390625 
Q 45.3125 60.0625 41.71875 63.234375 
Q 38.140625 66.40625 31.78125 66.40625 
Q 25.390625 66.40625 21.84375 63.234375 
Q 18.3125 60.0625 18.3125 54.390625 
z
" id="DejaVuSans-56"/>
       </defs>
       <use xlink:href="#DejaVuSans-56"/>
      </g>
     </g>
    </g>
    <g id="xtick_9">
     <g id="line2d_9">
      <g>
       <use style="stroke:#000000;stroke-width:0.8;" x="159.766921" xlink:href="#m0c911246fd" y="279.911489"/>
      </g>
     </g>
     <g id="text_9">
      <!-- 9 -->
      <g transform="translate(156.585671 294.509927)scale(0.1 -0.1)">
       <defs>
        <path d="M 10.984375 1.515625 
L 10.984375 10.5 
Q 14.703125 8.734375 18.5 7.8125 
Q 22.3125 6.890625 25.984375 6.890625 
Q 35.75 6.890625 40.890625 13.453125 
Q 46.046875 20.015625 46.78125 33.40625 
Q 43.953125 29.203125 39.59375 26.953125 
Q 35.25 24.703125 29.984375 24.703125 
Q 19.046875 24.703125 12.671875 31.3125 
Q 6.296875 37.9375 6.296875 49.421875 
Q 6.296875 60.640625 12.9375 67.421875 
Q 19.578125 74.21875 30.609375 74.21875 
Q 43.265625 74.21875 49.921875 64.515625 
Q 56.59375 54.828125 56.59375 36.375 
Q 56.59375 19.140625 48.40625 8.859375 
Q 40.234375 -1.421875 26.421875 -1.421875 
Q 22.703125 -1.421875 18.890625 -0.6875 
Q 15.09375 0.046875 10.984375 1.515625 
z
M 30.609375 32.421875 
Q 37.25 32.421875 41.125 36.953125 
Q 45.015625 41.5 45.015625 49.421875 
Q 45.015625 57.28125 41.125 61.84375 
Q 37.25 66.40625 30.609375 66.40625 
Q 23.96875 66.40625 20.09375 61.84375 
Q 16.21875 57.28125 16.21875 49.421875 
Q 16.21875 41.5 20.09375 36.953125 
Q 23.96875 32.421875 30.609375 32.421875 
z
" id="DejaVuSans-57"/>
       </defs>
       <use xlink:href="#DejaVuSans-57"/>
      </g>
     </g>
    </g>
    <g id="xtick_10">
     <g id="line2d_10">
      <g>
       <use style="stroke:#000000;stroke-width:0.8;" x="169.062494" xlink:href="#m0c911246fd" y="279.911489"/>
      </g>
     </g>
     <g id="text_10">
      <!-- 10 -->
      <g transform="translate(162.699994 294.509927)scale(0.1 -0.1)">
       <defs>
        <path d="M 31.78125 66.40625 
Q 24.171875 66.40625 20.328125 58.90625 
Q 16.5 51.421875 16.5 36.375 
Q 16.5 21.390625 20.328125 13.890625 
Q 24.171875 6.390625 31.78125 6.390625 
Q 39.453125 6.390625 43.28125 13.890625 
Q 47.125 21.390625 47.125 36.375 
Q 47.125 51.421875 43.28125 58.90625 
Q 39.453125 66.40625 31.78125 66.40625 
z
M 31.78125 74.21875 
Q 44.046875 74.21875 50.515625 64.515625 
Q 56.984375 54.828125 56.984375 36.375 
Q 56.984375 17.96875 50.515625 8.265625 
Q 44.046875 -1.421875 31.78125 -1.421875 
Q 19.53125 -1.421875 13.0625 8.265625 
Q 6.59375 17.96875 6.59375 36.375 
Q 6.59375 54.828125 13.0625 64.515625 
Q 19.53125 74.21875 31.78125 74.21875 
z
" id="DejaVuSans-48"/>
       </defs>
       <use xlink:href="#DejaVuSans-49"/>
       <use x="63.623047" xlink:href="#DejaVuSans-48"/>
      </g>
     </g>
    </g>
    <g id="xtick_11">
     <g id="line2d_11">
      <g>
       <use style="stroke:#000000;stroke-width:0.8;" x="178.358068" xlink:href="#m0c911246fd" y="279.911489"/>
      </g>
     </g>
     <g id="text_11">
      <!-- 11 -->
      <g transform="translate(171.995568 294.509927)scale(0.1 -0.1)">
       <use xlink:href="#DejaVuSans-49"/>
       <use x="63.623047" xlink:href="#DejaVuSans-49"/>
      </g>
     </g>
    </g>
    <g id="xtick_12">
     <g id="line2d_12">
      <g>
       <use style="stroke:#000000;stroke-width:0.8;" x="187.653641" xlink:href="#m0c911246fd" y="279.911489"/>
      </g>
     </g>
     <g id="text_12">
      <!-- 12 -->
      <g transform="translate(181.291141 294.509927)scale(0.1 -0.1)">
       <use xlink:href="#DejaVuSans-49"/>
       <use x="63.623047" xlink:href="#DejaVuSans-50"/>
      </g>
     </g>
    </g>
    <g id="xtick_13">
     <g id="line2d_13">
      <g>
       <use style="stroke:#000000;stroke-width:0.8;" x="196.949215" xlink:href="#m0c911246fd" y="279.911489"/>
      </g>
     </g>
     <g id="text_13">
      <!-- 13 -->
      <g transform="translate(190.586715 294.509927)scale(0.1 -0.1)">
       <use xlink:href="#DejaVuSans-49"/>
       <use x="63.623047" xlink:href="#DejaVuSans-51"/>
      </g>
     </g>
    </g>
    <g id="xtick_14">
     <g id="line2d_14">
      <g>
       <use style="stroke:#000000;stroke-width:0.8;" x="206.244788" xlink:href="#m0c911246fd" y="279.911489"/>
      </g>
     </g>
     <g id="text_14">
      <!-- 14 -->
      <g transform="translate(199.882288 294.509927)scale(0.1 -0.1)">
       <use xlink:href="#DejaVuSans-49"/>
       <use x="63.623047" xlink:href="#DejaVuSans-52"/>
      </g>
     </g>
    </g>
    <g id="xtick_15">
     <g id="line2d_15">
      <g>
       <use style="stroke:#000000;stroke-width:0.8;" x="215.540362" xlink:href="#m0c911246fd" y="279.911489"/>
      </g>
     </g>
     <g id="text_15">
      <!-- 15 -->
      <g transform="translate(209.177862 294.509927)scale(0.1 -0.1)">
       <use xlink:href="#DejaVuSans-49"/>
       <use x="63.623047" xlink:href="#DejaVuSans-53"/>
      </g>
     </g>
    </g>
    <g id="xtick_16">
     <g id="line2d_16">
      <g>
       <use style="stroke:#000000;stroke-width:0.8;" x="224.835935" xlink:href="#m0c911246fd" y="279.911489"/>
      </g>
     </g>
     <g id="text_16">
      <!-- 16 -->
      <g transform="translate(218.473435 294.509927)scale(0.1 -0.1)">
       <use xlink:href="#DejaVuSans-49"/>
       <use x="63.623047" xlink:href="#DejaVuSans-54"/>
      </g>
     </g>
    </g>
    <g id="xtick_17">
     <g id="line2d_17">
      <g>
       <use style="stroke:#000000;stroke-width:0.8;" x="234.131509" xlink:href="#m0c911246fd" y="279.911489"/>
      </g>
     </g>
     <g id="text_17">
      <!-- 17 -->
      <g transform="translate(227.769009 294.509927)scale(0.1 -0.1)">
       <use xlink:href="#DejaVuSans-49"/>
       <use x="63.623047" xlink:href="#DejaVuSans-55"/>
      </g>
     </g>
    </g>
    <g id="xtick_18">
     <g id="line2d_18">
      <g>
       <use style="stroke:#000000;stroke-width:0.8;" x="243.427082" xlink:href="#m0c911246fd" y="279.911489"/>
      </g>
     </g>
     <g id="text_18">
      <!-- 18 -->
      <g transform="translate(237.064582 294.509927)scale(0.1 -0.1)">
       <use xlink:href="#DejaVuSans-49"/>
       <use x="63.623047" xlink:href="#DejaVuSans-56"/>
      </g>
     </g>
    </g>
    <g id="xtick_19">
     <g id="line2d_19">
      <g>
       <use style="stroke:#000000;stroke-width:0.8;" x="252.722656" xlink:href="#m0c911246fd" y="279.911489"/>
      </g>
     </g>
     <g id="text_19">
      <!-- 19 -->
      <g transform="translate(246.360156 294.509927)scale(0.1 -0.1)">
       <use xlink:href="#DejaVuSans-49"/>
       <use x="63.623047" xlink:href="#DejaVuSans-57"/>
      </g>
     </g>
    </g>
    <g id="xtick_20">
     <g id="line2d_20">
      <g>
       <use style="stroke:#000000;stroke-width:0.8;" x="262.018229" xlink:href="#m0c911246fd" y="279.911489"/>
      </g>
     </g>
     <g id="text_20">
      <!-- 20 -->
      <g transform="translate(255.655729 294.509927)scale(0.1 -0.1)">
       <use xlink:href="#DejaVuSans-50"/>
       <use x="63.623047" xlink:href="#DejaVuSans-48"/>
      </g>
     </g>
    </g>
    <g id="xtick_21">
     <g id="line2d_21">
      <g>
       <use style="stroke:#000000;stroke-width:0.8;" x="271.313803" xlink:href="#m0c911246fd" y="279.911489"/>
      </g>
     </g>
     <g id="text_21">
      <!-- 21 -->
      <g transform="translate(264.951303 294.509927)scale(0.1 -0.1)">
       <use xlink:href="#DejaVuSans-50"/>
       <use x="63.623047" xlink:href="#DejaVuSans-49"/>
      </g>
     </g>
    </g>
    <g id="xtick_22">
     <g id="line2d_22">
      <g>
       <use style="stroke:#000000;stroke-width:0.8;" x="280.609376" xlink:href="#m0c911246fd" y="279.911489"/>
      </g>
     </g>
     <g id="text_22">
      <!-- 22 -->
      <g transform="translate(274.246876 294.509927)scale(0.1 -0.1)">
       <use xlink:href="#DejaVuSans-50"/>
       <use x="63.623047" xlink:href="#DejaVuSans-50"/>
      </g>
     </g>
    </g>
    <g id="xtick_23">
     <g id="line2d_23">
      <g>
       <use style="stroke:#000000;stroke-width:0.8;" x="289.90495" xlink:href="#m0c911246fd" y="279.911489"/>
      </g>
     </g>
     <g id="text_23">
      <!-- 23 -->
      <g transform="translate(283.54245 294.509927)scale(0.1 -0.1)">
       <use xlink:href="#DejaVuSans-50"/>
       <use x="63.623047" xlink:href="#DejaVuSans-51"/>
      </g>
     </g>
    </g>
    <g id="xtick_24">
     <g id="line2d_24">
      <g>
       <use style="stroke:#000000;stroke-width:0.8;" x="299.200524" xlink:href="#m0c911246fd" y="279.911489"/>
      </g>
     </g>
     <g id="text_24">
      <!-- 24 -->
      <g transform="translate(292.838024 294.509927)scale(0.1 -0.1)">
       <use xlink:href="#DejaVuSans-50"/>
       <use x="63.623047" xlink:href="#DejaVuSans-52"/>
      </g>
     </g>
    </g>
    <g id="xtick_25">
     <g id="line2d_25">
      <g>
       <use style="stroke:#000000;stroke-width:0.8;" x="308.496097" xlink:href="#m0c911246fd" y="279.911489"/>
      </g>
     </g>
     <g id="text_25">
      <!-- 25 -->
      <g transform="translate(302.133597 294.509927)scale(0.1 -0.1)">
       <use xlink:href="#DejaVuSans-50"/>
       <use x="63.623047" xlink:href="#DejaVuSans-53"/>
      </g>
     </g>
    </g>
    <g id="xtick_26">
     <g id="line2d_26">
      <g>
       <use style="stroke:#000000;stroke-width:0.8;" x="317.791671" xlink:href="#m0c911246fd" y="279.911489"/>
      </g>
     </g>
     <g id="text_26">
      <!-- 26 -->
      <g transform="translate(311.429171 294.509927)scale(0.1 -0.1)">
       <use xlink:href="#DejaVuSans-50"/>
       <use x="63.623047" xlink:href="#DejaVuSans-54"/>
      </g>
     </g>
    </g>
    <g id="xtick_27">
     <g id="line2d_27">
      <g>
       <use style="stroke:#000000;stroke-width:0.8;" x="327.087244" xlink:href="#m0c911246fd" y="279.911489"/>
      </g>
     </g>
     <g id="text_27">
      <!-- 27 -->
      <g transform="translate(320.724744 294.509927)scale(0.1 -0.1)">
       <use xlink:href="#DejaVuSans-50"/>
       <use x="63.623047" xlink:href="#DejaVuSans-55"/>
      </g>
     </g>
    </g>
    <g id="xtick_28">
     <g id="line2d_28">
      <g>
       <use style="stroke:#000000;stroke-width:0.8;" x="336.382818" xlink:href="#m0c911246fd" y="279.911489"/>
      </g>
     </g>
     <g id="text_28">
      <!-- 28 -->
      <g transform="translate(330.020318 294.509927)scale(0.1 -0.1)">
       <use xlink:href="#DejaVuSans-50"/>
       <use x="63.623047" xlink:href="#DejaVuSans-56"/>
      </g>
     </g>
    </g>
    <g id="xtick_29">
     <g id="line2d_29">
      <g>
       <use style="stroke:#000000;stroke-width:0.8;" x="345.678391" xlink:href="#m0c911246fd" y="279.911489"/>
      </g>
     </g>
     <g id="text_29">
      <!-- 29 -->
      <g transform="translate(339.315891 294.509927)scale(0.1 -0.1)">
       <use xlink:href="#DejaVuSans-50"/>
       <use x="63.623047" xlink:href="#DejaVuSans-57"/>
      </g>
     </g>
    </g>
    <g id="xtick_30">
     <g id="line2d_30">
      <g>
       <use style="stroke:#000000;stroke-width:0.8;" x="354.973965" xlink:href="#m0c911246fd" y="279.911489"/>
      </g>
     </g>
     <g id="text_30">
      <!-- 30 -->
      <g transform="translate(348.611465 294.509927)scale(0.1 -0.1)">
       <use xlink:href="#DejaVuSans-51"/>
       <use x="63.623047" xlink:href="#DejaVuSans-48"/>
      </g>
     </g>
    </g>
    <g id="xtick_31">
     <g id="line2d_31">
      <g>
       <use style="stroke:#000000;stroke-width:0.8;" x="364.269538" xlink:href="#m0c911246fd" y="279.911489"/>
      </g>
     </g>
     <g id="text_31">
      <!-- 31 -->
      <g transform="translate(357.907038 294.509927)scale(0.1 -0.1)">
       <use xlink:href="#DejaVuSans-51"/>
       <use x="63.623047" xlink:href="#DejaVuSans-49"/>
      </g>
     </g>
    </g>
    <g id="xtick_32">
     <g id="line2d_32">
      <g>
       <use style="stroke:#000000;stroke-width:0.8;" x="373.565112" xlink:href="#m0c911246fd" y="279.911489"/>
      </g>
     </g>
     <g id="text_32">
      <!-- 32 -->
      <g transform="translate(367.202612 294.509927)scale(0.1 -0.1)">
       <use xlink:href="#DejaVuSans-51"/>
       <use x="63.623047" xlink:href="#DejaVuSans-50"/>
      </g>
     </g>
    </g>
    <g id="xtick_33">
     <g id="line2d_33">
      <g>
       <use style="stroke:#000000;stroke-width:0.8;" x="382.860685" xlink:href="#m0c911246fd" y="279.911489"/>
      </g>
     </g>
     <g id="text_33">
      <!-- 33 -->
      <g transform="translate(376.498185 294.509927)scale(0.1 -0.1)">
       <use xlink:href="#DejaVuSans-51"/>
       <use x="63.623047" xlink:href="#DejaVuSans-51"/>
      </g>
     </g>
    </g>
    <g id="xtick_34">
     <g id="line2d_34">
      <g>
       <use style="stroke:#000000;stroke-width:0.8;" x="392.156259" xlink:href="#m0c911246fd" y="279.911489"/>
      </g>
     </g>
     <g id="text_34">
      <!-- 34 -->
      <g transform="translate(385.793759 294.509927)scale(0.1 -0.1)">
       <use xlink:href="#DejaVuSans-51"/>
       <use x="63.623047" xlink:href="#DejaVuSans-52"/>
      </g>
     </g>
    </g>
    <g id="xtick_35">
     <g id="line2d_35">
      <g>
       <use style="stroke:#000000;stroke-width:0.8;" x="401.451832" xlink:href="#m0c911246fd" y="279.911489"/>
      </g>
     </g>
     <g id="text_35">
      <!-- 35 -->
      <g transform="translate(395.089332 294.509927)scale(0.1 -0.1)">
       <use xlink:href="#DejaVuSans-51"/>
       <use x="63.623047" xlink:href="#DejaVuSans-53"/>
      </g>
     </g>
    </g>
    <g id="xtick_36">
     <g id="line2d_36">
      <g>
       <use style="stroke:#000000;stroke-width:0.8;" x="410.747406" xlink:href="#m0c911246fd" y="279.911489"/>
      </g>
     </g>
     <g id="text_36">
      <!-- 36 -->
      <g transform="translate(404.384906 294.509927)scale(0.1 -0.1)">
       <use xlink:href="#DejaVuSans-51"/>
       <use x="63.623047" xlink:href="#DejaVuSans-54"/>
      </g>
     </g>
    </g>
    <g id="xtick_37">
     <g id="line2d_37">
      <g>
       <use style="stroke:#000000;stroke-width:0.8;" x="420.04298" xlink:href="#m0c911246fd" y="279.911489"/>
      </g>
     </g>
     <g id="text_37">
      <!-- 37 -->
      <g transform="translate(413.68048 294.509927)scale(0.1 -0.1)">
       <use xlink:href="#DejaVuSans-51"/>
       <use x="63.623047" xlink:href="#DejaVuSans-55"/>
      </g>
     </g>
    </g>
    <g id="xtick_38">
     <g id="line2d_38">
      <g>
       <use style="stroke:#000000;stroke-width:0.8;" x="429.338553" xlink:href="#m0c911246fd" y="279.911489"/>
      </g>
     </g>
     <g id="text_38">
      <!-- 38 -->
      <g transform="translate(422.976053 294.509927)scale(0.1 -0.1)">
       <use xlink:href="#DejaVuSans-51"/>
       <use x="63.623047" xlink:href="#DejaVuSans-56"/>
      </g>
     </g>
    </g>
    <g id="xtick_39">
     <g id="line2d_39">
      <g>
       <use style="stroke:#000000;stroke-width:0.8;" x="438.634127" xlink:href="#m0c911246fd" y="279.911489"/>
      </g>
     </g>
     <g id="text_39">
      <!-- 39 -->
      <g transform="translate(432.271627 294.509927)scale(0.1 -0.1)">
       <use xlink:href="#DejaVuSans-51"/>
       <use x="63.623047" xlink:href="#DejaVuSans-57"/>
      </g>
     </g>
    </g>
    <g id="text_40">
     <!-- Number of Gaussian components -->
     <g transform="translate(174.797656 308.188052)scale(0.1 -0.1)">
      <defs>
       <path d="M 9.8125 72.90625 
L 23.09375 72.90625 
L 55.421875 11.921875 
L 55.421875 72.90625 
L 64.984375 72.90625 
L 64.984375 0 
L 51.703125 0 
L 19.390625 60.984375 
L 19.390625 0 
L 9.8125 0 
z
" id="DejaVuSans-78"/>
       <path d="M 8.5 21.578125 
L 8.5 54.6875 
L 17.484375 54.6875 
L 17.484375 21.921875 
Q 17.484375 14.15625 20.5 10.265625 
Q 23.53125 6.390625 29.59375 6.390625 
Q 36.859375 6.390625 41.078125 11.03125 
Q 45.3125 15.671875 45.3125 23.6875 
L 45.3125 54.6875 
L 54.296875 54.6875 
L 54.296875 0 
L 45.3125 0 
L 45.3125 8.40625 
Q 42.046875 3.421875 37.71875 1 
Q 33.40625 -1.421875 27.6875 -1.421875 
Q 18.265625 -1.421875 13.375 4.4375 
Q 8.5 10.296875 8.5 21.578125 
z
M 31.109375 56 
z
" id="DejaVuSans-117"/>
       <path d="M 52 44.1875 
Q 55.375 50.25 60.0625 53.125 
Q 64.75 56 71.09375 56 
Q 79.640625 56 84.28125 50.015625 
Q 88.921875 44.046875 88.921875 33.015625 
L 88.921875 0 
L 79.890625 0 
L 79.890625 32.71875 
Q 79.890625 40.578125 77.09375 44.375 
Q 74.3125 48.1875 68.609375 48.1875 
Q 61.625 48.1875 57.5625 43.546875 
Q 53.515625 38.921875 53.515625 30.90625 
L 53.515625 0 
L 44.484375 0 
L 44.484375 32.71875 
Q 44.484375 40.625 41.703125 44.40625 
Q 38.921875 48.1875 33.109375 48.1875 
Q 26.21875 48.1875 22.15625 43.53125 
Q 18.109375 38.875 18.109375 30.90625 
L 18.109375 0 
L 9.078125 0 
L 9.078125 54.6875 
L 18.109375 54.6875 
L 18.109375 46.1875 
Q 21.1875 51.21875 25.484375 53.609375 
Q 29.78125 56 35.6875 56 
Q 41.65625 56 45.828125 52.96875 
Q 50 49.953125 52 44.1875 
z
" id="DejaVuSans-109"/>
       <path d="M 48.6875 27.296875 
Q 48.6875 37.203125 44.609375 42.84375 
Q 40.53125 48.484375 33.40625 48.484375 
Q 26.265625 48.484375 22.1875 42.84375 
Q 18.109375 37.203125 18.109375 27.296875 
Q 18.109375 17.390625 22.1875 11.75 
Q 26.265625 6.109375 33.40625 6.109375 
Q 40.53125 6.109375 44.609375 11.75 
Q 48.6875 17.390625 48.6875 27.296875 
z
M 18.109375 46.390625 
Q 20.953125 51.265625 25.265625 53.625 
Q 29.59375 56 35.59375 56 
Q 45.5625 56 51.78125 48.09375 
Q 58.015625 40.1875 58.015625 27.296875 
Q 58.015625 14.40625 51.78125 6.484375 
Q 45.5625 -1.421875 35.59375 -1.421875 
Q 29.59375 -1.421875 25.265625 0.953125 
Q 20.953125 3.328125 18.109375 8.203125 
L 18.109375 0 
L 9.078125 0 
L 9.078125 75.984375 
L 18.109375 75.984375 
z
" id="DejaVuSans-98"/>
       <path d="M 56.203125 29.59375 
L 56.203125 25.203125 
L 14.890625 25.203125 
Q 15.484375 15.921875 20.484375 11.0625 
Q 25.484375 6.203125 34.421875 6.203125 
Q 39.59375 6.203125 44.453125 7.46875 
Q 49.3125 8.734375 54.109375 11.28125 
L 54.109375 2.78125 
Q 49.265625 0.734375 44.1875 -0.34375 
Q 39.109375 -1.421875 33.890625 -1.421875 
Q 20.796875 -1.421875 13.15625 6.1875 
Q 5.515625 13.8125 5.515625 26.8125 
Q 5.515625 40.234375 12.765625 48.109375 
Q 20.015625 56 32.328125 56 
Q 43.359375 56 49.78125 48.890625 
Q 56.203125 41.796875 56.203125 29.59375 
z
M 47.21875 32.234375 
Q 47.125 39.59375 43.09375 43.984375 
Q 39.0625 48.390625 32.421875 48.390625 
Q 24.90625 48.390625 20.390625 44.140625 
Q 15.875 39.890625 15.1875 32.171875 
z
" id="DejaVuSans-101"/>
       <path d="M 41.109375 46.296875 
Q 39.59375 47.171875 37.8125 47.578125 
Q 36.03125 48 33.890625 48 
Q 26.265625 48 22.1875 43.046875 
Q 18.109375 38.09375 18.109375 28.8125 
L 18.109375 0 
L 9.078125 0 
L 9.078125 54.6875 
L 18.109375 54.6875 
L 18.109375 46.1875 
Q 20.953125 51.171875 25.484375 53.578125 
Q 30.03125 56 36.53125 56 
Q 37.453125 56 38.578125 55.875 
Q 39.703125 55.765625 41.0625 55.515625 
z
" id="DejaVuSans-114"/>
       <path id="DejaVuSans-32"/>
       <path d="M 30.609375 48.390625 
Q 23.390625 48.390625 19.1875 42.75 
Q 14.984375 37.109375 14.984375 27.296875 
Q 14.984375 17.484375 19.15625 11.84375 
Q 23.34375 6.203125 30.609375 6.203125 
Q 37.796875 6.203125 41.984375 11.859375 
Q 46.1875 17.53125 46.1875 27.296875 
Q 46.1875 37.015625 41.984375 42.703125 
Q 37.796875 48.390625 30.609375 48.390625 
z
M 30.609375 56 
Q 42.328125 56 49.015625 48.375 
Q 55.71875 40.765625 55.71875 27.296875 
Q 55.71875 13.875 49.015625 6.21875 
Q 42.328125 -1.421875 30.609375 -1.421875 
Q 18.84375 -1.421875 12.171875 6.21875 
Q 5.515625 13.875 5.515625 27.296875 
Q 5.515625 40.765625 12.171875 48.375 
Q 18.84375 56 30.609375 56 
z
" id="DejaVuSans-111"/>
       <path d="M 37.109375 75.984375 
L 37.109375 68.5 
L 28.515625 68.5 
Q 23.6875 68.5 21.796875 66.546875 
Q 19.921875 64.59375 19.921875 59.515625 
L 19.921875 54.6875 
L 34.71875 54.6875 
L 34.71875 47.703125 
L 19.921875 47.703125 
L 19.921875 0 
L 10.890625 0 
L 10.890625 47.703125 
L 2.296875 47.703125 
L 2.296875 54.6875 
L 10.890625 54.6875 
L 10.890625 58.5 
Q 10.890625 67.625 15.140625 71.796875 
Q 19.390625 75.984375 28.609375 75.984375 
z
" id="DejaVuSans-102"/>
       <path d="M 59.515625 10.40625 
L 59.515625 29.984375 
L 43.40625 29.984375 
L 43.40625 38.09375 
L 69.28125 38.09375 
L 69.28125 6.78125 
Q 63.578125 2.734375 56.6875 0.65625 
Q 49.8125 -1.421875 42 -1.421875 
Q 24.90625 -1.421875 15.25 8.5625 
Q 5.609375 18.5625 5.609375 36.375 
Q 5.609375 54.25 15.25 64.234375 
Q 24.90625 74.21875 42 74.21875 
Q 49.125 74.21875 55.546875 72.453125 
Q 61.96875 70.703125 67.390625 67.28125 
L 67.390625 56.78125 
Q 61.921875 61.421875 55.765625 63.765625 
Q 49.609375 66.109375 42.828125 66.109375 
Q 29.4375 66.109375 22.71875 58.640625 
Q 16.015625 51.171875 16.015625 36.375 
Q 16.015625 21.625 22.71875 14.15625 
Q 29.4375 6.6875 42.828125 6.6875 
Q 48.046875 6.6875 52.140625 7.59375 
Q 56.25 8.5 59.515625 10.40625 
z
" id="DejaVuSans-71"/>
       <path d="M 34.28125 27.484375 
Q 23.390625 27.484375 19.1875 25 
Q 14.984375 22.515625 14.984375 16.5 
Q 14.984375 11.71875 18.140625 8.90625 
Q 21.296875 6.109375 26.703125 6.109375 
Q 34.1875 6.109375 38.703125 11.40625 
Q 43.21875 16.703125 43.21875 25.484375 
L 43.21875 27.484375 
z
M 52.203125 31.203125 
L 52.203125 0 
L 43.21875 0 
L 43.21875 8.296875 
Q 40.140625 3.328125 35.546875 0.953125 
Q 30.953125 -1.421875 24.3125 -1.421875 
Q 15.921875 -1.421875 10.953125 3.296875 
Q 6 8.015625 6 15.921875 
Q 6 25.140625 12.171875 29.828125 
Q 18.359375 34.515625 30.609375 34.515625 
L 43.21875 34.515625 
L 43.21875 35.40625 
Q 43.21875 41.609375 39.140625 45 
Q 35.0625 48.390625 27.6875 48.390625 
Q 23 48.390625 18.546875 47.265625 
Q 14.109375 46.140625 10.015625 43.890625 
L 10.015625 52.203125 
Q 14.9375 54.109375 19.578125 55.046875 
Q 24.21875 56 28.609375 56 
Q 40.484375 56 46.34375 49.84375 
Q 52.203125 43.703125 52.203125 31.203125 
z
" id="DejaVuSans-97"/>
       <path d="M 44.28125 53.078125 
L 44.28125 44.578125 
Q 40.484375 46.53125 36.375 47.5 
Q 32.28125 48.484375 27.875 48.484375 
Q 21.1875 48.484375 17.84375 46.4375 
Q 14.5 44.390625 14.5 40.28125 
Q 14.5 37.15625 16.890625 35.375 
Q 19.28125 33.59375 26.515625 31.984375 
L 29.59375 31.296875 
Q 39.15625 29.25 43.1875 25.515625 
Q 47.21875 21.78125 47.21875 15.09375 
Q 47.21875 7.46875 41.1875 3.015625 
Q 35.15625 -1.421875 24.609375 -1.421875 
Q 20.21875 -1.421875 15.453125 -0.5625 
Q 10.6875 0.296875 5.421875 2 
L 5.421875 11.28125 
Q 10.40625 8.6875 15.234375 7.390625 
Q 20.0625 6.109375 24.8125 6.109375 
Q 31.15625 6.109375 34.5625 8.28125 
Q 37.984375 10.453125 37.984375 14.40625 
Q 37.984375 18.0625 35.515625 20.015625 
Q 33.0625 21.96875 24.703125 23.78125 
L 21.578125 24.515625 
Q 13.234375 26.265625 9.515625 29.90625 
Q 5.8125 33.546875 5.8125 39.890625 
Q 5.8125 47.609375 11.28125 51.796875 
Q 16.75 56 26.8125 56 
Q 31.78125 56 36.171875 55.265625 
Q 40.578125 54.546875 44.28125 53.078125 
z
" id="DejaVuSans-115"/>
       <path d="M 9.421875 54.6875 
L 18.40625 54.6875 
L 18.40625 0 
L 9.421875 0 
z
M 9.421875 75.984375 
L 18.40625 75.984375 
L 18.40625 64.59375 
L 9.421875 64.59375 
z
" id="DejaVuSans-105"/>
       <path d="M 54.890625 33.015625 
L 54.890625 0 
L 45.90625 0 
L 45.90625 32.71875 
Q 45.90625 40.484375 42.875 44.328125 
Q 39.84375 48.1875 33.796875 48.1875 
Q 26.515625 48.1875 22.3125 43.546875 
Q 18.109375 38.921875 18.109375 30.90625 
L 18.109375 0 
L 9.078125 0 
L 9.078125 54.6875 
L 18.109375 54.6875 
L 18.109375 46.1875 
Q 21.34375 51.125 25.703125 53.5625 
Q 30.078125 56 35.796875 56 
Q 45.21875 56 50.046875 50.171875 
Q 54.890625 44.34375 54.890625 33.015625 
z
" id="DejaVuSans-110"/>
       <path d="M 48.78125 52.59375 
L 48.78125 44.1875 
Q 44.96875 46.296875 41.140625 47.34375 
Q 37.3125 48.390625 33.40625 48.390625 
Q 24.65625 48.390625 19.8125 42.84375 
Q 14.984375 37.3125 14.984375 27.296875 
Q 14.984375 17.28125 19.8125 11.734375 
Q 24.65625 6.203125 33.40625 6.203125 
Q 37.3125 6.203125 41.140625 7.25 
Q 44.96875 8.296875 48.78125 10.40625 
L 48.78125 2.09375 
Q 45.015625 0.34375 40.984375 -0.53125 
Q 36.96875 -1.421875 32.421875 -1.421875 
Q 20.0625 -1.421875 12.78125 6.34375 
Q 5.515625 14.109375 5.515625 27.296875 
Q 5.515625 40.671875 12.859375 48.328125 
Q 20.21875 56 33.015625 56 
Q 37.15625 56 41.109375 55.140625 
Q 45.0625 54.296875 48.78125 52.59375 
z
" id="DejaVuSans-99"/>
       <path d="M 18.109375 8.203125 
L 18.109375 -20.796875 
L 9.078125 -20.796875 
L 9.078125 54.6875 
L 18.109375 54.6875 
L 18.109375 46.390625 
Q 20.953125 51.265625 25.265625 53.625 
Q 29.59375 56 35.59375 56 
Q 45.5625 56 51.78125 48.09375 
Q 58.015625 40.1875 58.015625 27.296875 
Q 58.015625 14.40625 51.78125 6.484375 
Q 45.5625 -1.421875 35.59375 -1.421875 
Q 29.59375 -1.421875 25.265625 0.953125 
Q 20.953125 3.328125 18.109375 8.203125 
z
M 48.6875 27.296875 
Q 48.6875 37.203125 44.609375 42.84375 
Q 40.53125 48.484375 33.40625 48.484375 
Q 26.265625 48.484375 22.1875 42.84375 
Q 18.109375 37.203125 18.109375 27.296875 
Q 18.109375 17.390625 22.1875 11.75 
Q 26.265625 6.109375 33.40625 6.109375 
Q 40.53125 6.109375 44.609375 11.75 
Q 48.6875 17.390625 48.6875 27.296875 
z
" id="DejaVuSans-112"/>
       <path d="M 18.3125 70.21875 
L 18.3125 54.6875 
L 36.8125 54.6875 
L 36.8125 47.703125 
L 18.3125 47.703125 
L 18.3125 18.015625 
Q 18.3125 11.328125 20.140625 9.421875 
Q 21.96875 7.515625 27.59375 7.515625 
L 36.8125 7.515625 
L 36.8125 0 
L 27.59375 0 
Q 17.1875 0 13.234375 3.875 
Q 9.28125 7.765625 9.28125 18.015625 
L 9.28125 47.703125 
L 2.6875 47.703125 
L 2.6875 54.6875 
L 9.28125 54.6875 
L 9.28125 70.21875 
z
" id="DejaVuSans-116"/>
      </defs>
      <use xlink:href="#DejaVuSans-78"/>
      <use x="74.804688" xlink:href="#DejaVuSans-117"/>
      <use x="138.183594" xlink:href="#DejaVuSans-109"/>
      <use x="235.595703" xlink:href="#DejaVuSans-98"/>
      <use x="299.072266" xlink:href="#DejaVuSans-101"/>
      <use x="360.595703" xlink:href="#DejaVuSans-114"/>
      <use x="401.708984" xlink:href="#DejaVuSans-32"/>
      <use x="433.496094" xlink:href="#DejaVuSans-111"/>
      <use x="494.677734" xlink:href="#DejaVuSans-102"/>
      <use x="529.882812" xlink:href="#DejaVuSans-32"/>
      <use x="561.669922" xlink:href="#DejaVuSans-71"/>
      <use x="639.160156" xlink:href="#DejaVuSans-97"/>
      <use x="700.439453" xlink:href="#DejaVuSans-117"/>
      <use x="763.818359" xlink:href="#DejaVuSans-115"/>
      <use x="815.917969" xlink:href="#DejaVuSans-115"/>
      <use x="868.017578" xlink:href="#DejaVuSans-105"/>
      <use x="895.800781" xlink:href="#DejaVuSans-97"/>
      <use x="957.080078" xlink:href="#DejaVuSans-110"/>
      <use x="1020.458984" xlink:href="#DejaVuSans-32"/>
      <use x="1052.246094" xlink:href="#DejaVuSans-99"/>
      <use x="1107.226562" xlink:href="#DejaVuSans-111"/>
      <use x="1168.408203" xlink:href="#DejaVuSans-109"/>
      <use x="1265.820312" xlink:href="#DejaVuSans-112"/>
      <use x="1329.296875" xlink:href="#DejaVuSans-111"/>
      <use x="1390.478516" xlink:href="#DejaVuSans-110"/>
      <use x="1453.857422" xlink:href="#DejaVuSans-101"/>
      <use x="1515.380859" xlink:href="#DejaVuSans-110"/>
      <use x="1578.759766" xlink:href="#DejaVuSans-116"/>
      <use x="1617.96875" xlink:href="#DejaVuSans-115"/>
     </g>
    </g>
   </g>
   <g id="matplotlib.axis_2">
    <g id="ytick_1">
     <g id="line2d_40">
      <defs>
       <path d="M 0 0 
L -3.5 0 
" id="m40b6f25534" style="stroke:#000000;stroke-width:0.8;"/>
      </defs>
      <g>
       <use style="stroke:#000000;stroke-width:0.8;" x="63" xlink:href="#m40b6f25534" y="236.152414"/>
      </g>
     </g>
     <g id="text_41">
      <!-- 500 -->
      <g transform="translate(36.9125 239.951633)scale(0.1 -0.1)">
       <use xlink:href="#DejaVuSans-53"/>
       <use x="63.623047" xlink:href="#DejaVuSans-48"/>
       <use x="127.246094" xlink:href="#DejaVuSans-48"/>
      </g>
     </g>
    </g>
    <g id="ytick_2">
     <g id="line2d_41">
      <g>
       <use style="stroke:#000000;stroke-width:0.8;" x="63" xlink:href="#m40b6f25534" y="190.048493"/>
      </g>
     </g>
     <g id="text_42">
      <!-- 1000 -->
      <g transform="translate(30.55 193.847712)scale(0.1 -0.1)">
       <use xlink:href="#DejaVuSans-49"/>
       <use x="63.623047" xlink:href="#DejaVuSans-48"/>
       <use x="127.246094" xlink:href="#DejaVuSans-48"/>
       <use x="190.869141" xlink:href="#DejaVuSans-48"/>
      </g>
     </g>
    </g>
    <g id="ytick_3">
     <g id="line2d_42">
      <g>
       <use style="stroke:#000000;stroke-width:0.8;" x="63" xlink:href="#m40b6f25534" y="143.944572"/>
      </g>
     </g>
     <g id="text_43">
      <!-- 1500 -->
      <g transform="translate(30.55 147.74379)scale(0.1 -0.1)">
       <use xlink:href="#DejaVuSans-49"/>
       <use x="63.623047" xlink:href="#DejaVuSans-53"/>
       <use x="127.246094" xlink:href="#DejaVuSans-48"/>
       <use x="190.869141" xlink:href="#DejaVuSans-48"/>
      </g>
     </g>
    </g>
    <g id="ytick_4">
     <g id="line2d_43">
      <g>
       <use style="stroke:#000000;stroke-width:0.8;" x="63" xlink:href="#m40b6f25534" y="97.84065"/>
      </g>
     </g>
     <g id="text_44">
      <!-- 2000 -->
      <g transform="translate(30.55 101.639869)scale(0.1 -0.1)">
       <use xlink:href="#DejaVuSans-50"/>
       <use x="63.623047" xlink:href="#DejaVuSans-48"/>
       <use x="127.246094" xlink:href="#DejaVuSans-48"/>
       <use x="190.869141" xlink:href="#DejaVuSans-48"/>
      </g>
     </g>
    </g>
    <g id="text_45">
     <!-- BIC score -->
     <g transform="translate(24.470312 197.934495)rotate(-90)scale(0.1 -0.1)">
      <defs>
       <path d="M 19.671875 34.8125 
L 19.671875 8.109375 
L 35.5 8.109375 
Q 43.453125 8.109375 47.28125 11.40625 
Q 51.125 14.703125 51.125 21.484375 
Q 51.125 28.328125 47.28125 31.5625 
Q 43.453125 34.8125 35.5 34.8125 
z
M 19.671875 64.796875 
L 19.671875 42.828125 
L 34.28125 42.828125 
Q 41.5 42.828125 45.03125 45.53125 
Q 48.578125 48.25 48.578125 53.8125 
Q 48.578125 59.328125 45.03125 62.0625 
Q 41.5 64.796875 34.28125 64.796875 
z
M 9.8125 72.90625 
L 35.015625 72.90625 
Q 46.296875 72.90625 52.390625 68.21875 
Q 58.5 63.53125 58.5 54.890625 
Q 58.5 48.1875 55.375 44.234375 
Q 52.25 40.28125 46.1875 39.3125 
Q 53.46875 37.75 57.5 32.78125 
Q 61.53125 27.828125 61.53125 20.40625 
Q 61.53125 10.640625 54.890625 5.3125 
Q 48.25 0 35.984375 0 
L 9.8125 0 
z
" id="DejaVuSans-66"/>
       <path d="M 9.8125 72.90625 
L 19.671875 72.90625 
L 19.671875 0 
L 9.8125 0 
z
" id="DejaVuSans-73"/>
       <path d="M 64.40625 67.28125 
L 64.40625 56.890625 
Q 59.421875 61.53125 53.78125 63.8125 
Q 48.140625 66.109375 41.796875 66.109375 
Q 29.296875 66.109375 22.65625 58.46875 
Q 16.015625 50.828125 16.015625 36.375 
Q 16.015625 21.96875 22.65625 14.328125 
Q 29.296875 6.6875 41.796875 6.6875 
Q 48.140625 6.6875 53.78125 8.984375 
Q 59.421875 11.28125 64.40625 15.921875 
L 64.40625 5.609375 
Q 59.234375 2.09375 53.4375 0.328125 
Q 47.65625 -1.421875 41.21875 -1.421875 
Q 24.65625 -1.421875 15.125 8.703125 
Q 5.609375 18.84375 5.609375 36.375 
Q 5.609375 53.953125 15.125 64.078125 
Q 24.65625 74.21875 41.21875 74.21875 
Q 47.75 74.21875 53.53125 72.484375 
Q 59.328125 70.75 64.40625 67.28125 
z
" id="DejaVuSans-67"/>
      </defs>
      <use xlink:href="#DejaVuSans-66"/>
      <use x="68.603516" xlink:href="#DejaVuSans-73"/>
      <use x="98.095703" xlink:href="#DejaVuSans-67"/>
      <use x="167.919922" xlink:href="#DejaVuSans-32"/>
      <use x="199.707031" xlink:href="#DejaVuSans-115"/>
      <use x="251.806641" xlink:href="#DejaVuSans-99"/>
      <use x="306.787109" xlink:href="#DejaVuSans-111"/>
      <use x="367.96875" xlink:href="#DejaVuSans-114"/>
      <use x="406.832031" xlink:href="#DejaVuSans-101"/>
     </g>
    </g>
   </g>
   <g id="patch_42">
    <path d="M 63 279.911489 
L 63 69.12 
" style="fill:none;stroke:#000000;stroke-linecap:square;stroke-linejoin:miter;stroke-width:0.8;"/>
   </g>
   <g id="patch_43">
    <path d="M 453.6 279.911489 
L 453.6 69.12 
" style="fill:none;stroke:#000000;stroke-linecap:square;stroke-linejoin:miter;stroke-width:0.8;"/>
   </g>
   <g id="patch_44">
    <path d="M 63 279.911489 
L 453.6 279.911489 
" style="fill:none;stroke:#000000;stroke-linecap:square;stroke-linejoin:miter;stroke-width:0.8;"/>
   </g>
   <g id="patch_45">
    <path d="M 63 69.12 
L 453.6 69.12 
" style="fill:none;stroke:#000000;stroke-linecap:square;stroke-linejoin:miter;stroke-width:0.8;"/>
   </g>
   <g id="text_46">
    <!-- * -->
    <g transform="translate(175.104617 271.563312)scale(0.14 -0.14)">
     <defs>
      <path d="M 47.015625 60.890625 
L 29.5 51.421875 
L 47.015625 41.890625 
L 44.1875 37.109375 
L 27.78125 47.015625 
L 27.78125 28.609375 
L 22.21875 28.609375 
L 22.21875 47.015625 
L 5.8125 37.109375 
L 2.984375 41.890625 
L 20.515625 51.421875 
L 2.984375 60.890625 
L 5.8125 65.71875 
L 22.21875 55.8125 
L 22.21875 74.21875 
L 27.78125 74.21875 
L 27.78125 55.8125 
L 44.1875 65.71875 
z
" id="DejaVuSans-42"/>
     </defs>
     <use xlink:href="#DejaVuSans-42"/>
    </g>
   </g>
   <g id="text_47">
    <!-- BIC score per model -->
    <g transform="translate(197.732813 63.12)scale(0.12 -0.12)">
     <defs>
      <path d="M 45.40625 46.390625 
L 45.40625 75.984375 
L 54.390625 75.984375 
L 54.390625 0 
L 45.40625 0 
L 45.40625 8.203125 
Q 42.578125 3.328125 38.25 0.953125 
Q 33.9375 -1.421875 27.875 -1.421875 
Q 17.96875 -1.421875 11.734375 6.484375 
Q 5.515625 14.40625 5.515625 27.296875 
Q 5.515625 40.1875 11.734375 48.09375 
Q 17.96875 56 27.875 56 
Q 33.9375 56 38.25 53.625 
Q 42.578125 51.265625 45.40625 46.390625 
z
M 14.796875 27.296875 
Q 14.796875 17.390625 18.875 11.75 
Q 22.953125 6.109375 30.078125 6.109375 
Q 37.203125 6.109375 41.296875 11.75 
Q 45.40625 17.390625 45.40625 27.296875 
Q 45.40625 37.203125 41.296875 42.84375 
Q 37.203125 48.484375 30.078125 48.484375 
Q 22.953125 48.484375 18.875 42.84375 
Q 14.796875 37.203125 14.796875 27.296875 
z
" id="DejaVuSans-100"/>
      <path d="M 9.421875 75.984375 
L 18.40625 75.984375 
L 18.40625 0 
L 9.421875 0 
z
" id="DejaVuSans-108"/>
     </defs>
     <use xlink:href="#DejaVuSans-66"/>
     <use x="68.603516" xlink:href="#DejaVuSans-73"/>
     <use x="98.095703" xlink:href="#DejaVuSans-67"/>
     <use x="167.919922" xlink:href="#DejaVuSans-32"/>
     <use x="199.707031" xlink:href="#DejaVuSans-115"/>
     <use x="251.806641" xlink:href="#DejaVuSans-99"/>
     <use x="306.787109" xlink:href="#DejaVuSans-111"/>
     <use x="367.96875" xlink:href="#DejaVuSans-114"/>
     <use x="406.832031" xlink:href="#DejaVuSans-101"/>
     <use x="468.355469" xlink:href="#DejaVuSans-32"/>
     <use x="500.142578" xlink:href="#DejaVuSans-112"/>
     <use x="563.619141" xlink:href="#DejaVuSans-101"/>
     <use x="625.142578" xlink:href="#DejaVuSans-114"/>
     <use x="666.255859" xlink:href="#DejaVuSans-32"/>
     <use x="698.042969" xlink:href="#DejaVuSans-109"/>
     <use x="795.455078" xlink:href="#DejaVuSans-111"/>
     <use x="856.636719" xlink:href="#DejaVuSans-100"/>
     <use x="920.113281" xlink:href="#DejaVuSans-101"/>
     <use x="981.636719" xlink:href="#DejaVuSans-108"/>
    </g>
   </g>
   <g id="legend_1">
    <g id="patch_46">
     <path d="M 399.185938 91.798125 
L 446.6 91.798125 
Q 448.6 91.798125 448.6 89.798125 
L 448.6 76.12 
Q 448.6 74.12 446.6 74.12 
L 399.185938 74.12 
Q 397.185938 74.12 397.185938 76.12 
L 397.185938 89.798125 
Q 397.185938 91.798125 399.185938 91.798125 
z
" style="fill:#ffffff;opacity:0.8;stroke:#cccccc;stroke-linejoin:miter;"/>
    </g>
    <g id="patch_47">
     <path d="M 401.185938 85.718438 
L 421.185938 85.718438 
L 421.185938 78.718438 
L 401.185938 78.718438 
z
" style="fill:#999999;"/>
    </g>
    <g id="text_48">
     <!-- full -->
     <g transform="translate(429.185938 85.718438)scale(0.1 -0.1)">
      <use xlink:href="#DejaVuSans-102"/>
      <use x="35.205078" xlink:href="#DejaVuSans-117"/>
      <use x="98.583984" xlink:href="#DejaVuSans-108"/>
      <use x="126.367188" xlink:href="#DejaVuSans-108"/>
     </g>
    </g>
   </g>
  </g>
  <g id="axes_2">
   <g id="patch_48">
    <path d="M 63 564.48 
L 453.6 564.48 
L 453.6 353.688511 
L 63 353.688511 
z
" style="fill:#ffffff;"/>
   </g>
   <g id="PathCollection_1">
    <defs>
     <path d="M 0 2.345208 
C 0.621956 2.345208 1.218523 2.098102 1.658312 1.658312 
C 2.098102 1.218523 2.345208 0.621956 2.345208 0 
C 2.345208 -0.621956 2.098102 -1.218523 1.658312 -1.658312 
C 1.218523 -2.098102 0.621956 -2.345208 0 -2.345208 
C -0.621956 -2.345208 -1.218523 -2.098102 -1.658312 -1.658312 
C -2.098102 -1.218523 -2.345208 -0.621956 -2.345208 0 
C -2.345208 0.621956 -2.098102 1.218523 -1.658312 1.658312 
C -1.218523 2.098102 -0.621956 2.345208 0 2.345208 
z
" id="m59521f9075" style="stroke:#999999;"/>
    </defs>
    <g clip-path="url(#p2112588192)">
     <use style="fill:#999999;stroke:#999999;" x="451.318728" xlink:href="#m59521f9075" y="423.348119"/>
     <use style="fill:#999999;stroke:#999999;" x="447.226552" xlink:href="#m59521f9075" y="414.076175"/>
     <use style="fill:#999999;stroke:#999999;" x="449.654663" xlink:href="#m59521f9075" y="417.073877"/>
     <use style="fill:#999999;stroke:#999999;" x="448.508562" xlink:href="#m59521f9075" y="416.110246"/>
     <use style="fill:#999999;stroke:#999999;" x="447.222309" xlink:href="#m59521f9075" y="419.858662"/>
     <use style="fill:#999999;stroke:#999999;" x="448.855916" xlink:href="#m59521f9075" y="420.680842"/>
     <use style="fill:#999999;stroke:#999999;" x="445.949502" xlink:href="#m59521f9075" y="420.124903"/>
     <use style="fill:#999999;stroke:#999999;" x="448.453128" xlink:href="#m59521f9075" y="417.182502"/>
     <use style="fill:#999999;stroke:#999999;" x="445.27422" xlink:href="#m59521f9075" y="414.833309"/>
     <use style="fill:#999999;stroke:#999999;" x="450.602611" xlink:href="#m59521f9075" y="418.020846"/>
     <use style="fill:#999999;stroke:#999999;" x="444.919817" xlink:href="#m59521f9075" y="427.07974"/>
     <use style="fill:#999999;stroke:#999999;" x="444.174155" xlink:href="#m59521f9075" y="426.293925"/>
     <use style="fill:#999999;stroke:#999999;" x="447.545232" xlink:href="#m59521f9075" y="417.759707"/>
     <use style="fill:#999999;stroke:#999999;" x="447.978109" xlink:href="#m59521f9075" y="418.923321"/>
     <use style="fill:#999999;stroke:#999999;" x="448.368454" xlink:href="#m59521f9075" y="413.733139"/>
    </g>
   </g>
   <g id="PathCollection_2">
    <defs>
     <path d="M 0 2.345208 
C 0.621956 2.345208 1.218523 2.098102 1.658312 1.658312 
C 2.098102 1.218523 2.345208 0.621956 2.345208 0 
C 2.345208 -0.621956 2.098102 -1.218523 1.658312 -1.658312 
C 1.218523 -2.098102 0.621956 -2.345208 0 -2.345208 
C -0.621956 -2.345208 -1.218523 -2.098102 -1.658312 -1.658312 
C -2.098102 -1.218523 -2.345208 -0.621956 -2.345208 0 
C -2.345208 0.621956 -2.098102 1.218523 -1.658312 1.658312 
C -1.218523 2.098102 -0.621956 2.345208 0 2.345208 
z
" id="ma68fa0cc35" style="stroke:#e69f00;"/>
    </defs>
    <g clip-path="url(#p2112588192)">
     <use style="fill:#e69f00;stroke:#e69f00;" x="118.325613" xlink:href="#ma68fa0cc35" y="365.214245"/>
     <use style="fill:#e69f00;stroke:#e69f00;" x="122.030708" xlink:href="#ma68fa0cc35" y="361.176063"/>
     <use style="fill:#e69f00;stroke:#e69f00;" x="120.49881" xlink:href="#ma68fa0cc35" y="360.203374"/>
     <use style="fill:#e69f00;stroke:#e69f00;" x="118.366818" xlink:href="#ma68fa0cc35" y="361.840143"/>
     <use style="fill:#e69f00;stroke:#e69f00;" x="122.087241" xlink:href="#ma68fa0cc35" y="361.099967"/>
     <use style="fill:#e69f00;stroke:#e69f00;" x="119.974188" xlink:href="#ma68fa0cc35" y="361.546393"/>
     <use style="fill:#e69f00;stroke:#e69f00;" x="118.414529" xlink:href="#ma68fa0cc35" y="361.081313"/>
     <use style="fill:#e69f00;stroke:#e69f00;" x="121.928999" xlink:href="#ma68fa0cc35" y="359.333509"/>
     <use style="fill:#e69f00;stroke:#e69f00;" x="119.071851" xlink:href="#ma68fa0cc35" y="359.802761"/>
     <use style="fill:#e69f00;stroke:#e69f00;" x="117.941501" xlink:href="#ma68fa0cc35" y="359.515444"/>
    </g>
   </g>
   <g id="PathCollection_3">
    <defs>
     <path d="M 0 2.345208 
C 0.621956 2.345208 1.218523 2.098102 1.658312 1.658312 
C 2.098102 1.218523 2.345208 0.621956 2.345208 0 
C 2.345208 -0.621956 2.098102 -1.218523 1.658312 -1.658312 
C 1.218523 -2.098102 0.621956 -2.345208 0 -2.345208 
C -0.621956 -2.345208 -1.218523 -2.098102 -1.658312 -1.658312 
C -2.098102 -1.218523 -2.345208 -0.621956 -2.345208 0 
C -2.345208 0.621956 -2.098102 1.218523 -1.658312 1.658312 
C -1.218523 2.098102 -0.621956 2.345208 0 2.345208 
z
" id="m6f30365f76" style="stroke:#56b4e9;"/>
    </defs>
    <g clip-path="url(#p2112588192)">
     <use style="fill:#56b4e9;stroke:#56b4e9;" x="415.478967" xlink:href="#m6f30365f76" y="437.447547"/>
     <use style="fill:#56b4e9;stroke:#56b4e9;" x="413.716238" xlink:href="#m6f30365f76" y="431.86974"/>
     <use style="fill:#56b4e9;stroke:#56b4e9;" x="415.54691" xlink:href="#m6f30365f76" y="431.09803"/>
     <use style="fill:#56b4e9;stroke:#56b4e9;" x="416.363105" xlink:href="#m6f30365f76" y="429.736007"/>
    </g>
   </g>
   <g id="PathCollection_4">
    <defs>
     <path d="M 0 2.345208 
C 0.621956 2.345208 1.218523 2.098102 1.658312 1.658312 
C 2.098102 1.218523 2.345208 0.621956 2.345208 0 
C 2.345208 -0.621956 2.098102 -1.218523 1.658312 -1.658312 
C 1.218523 -2.098102 0.621956 -2.345208 0 -2.345208 
C -0.621956 -2.345208 -1.218523 -2.098102 -1.658312 -1.658312 
C -2.098102 -1.218523 -2.345208 -0.621956 -2.345208 0 
C -2.345208 0.621956 -2.098102 1.218523 -1.658312 1.658312 
C -1.218523 2.098102 -0.621956 2.345208 0 2.345208 
z
" id="m36a99068ca" style="stroke:#009e73;"/>
    </defs>
    <g clip-path="url(#p2112588192)">
     <use style="fill:#009e73;stroke:#009e73;" x="68.142456" xlink:href="#m36a99068ca" y="515.879891"/>
     <use style="fill:#009e73;stroke:#009e73;" x="65.281272" xlink:href="#m36a99068ca" y="511.161128"/>
     <use style="fill:#009e73;stroke:#009e73;" x="66.282076" xlink:href="#m36a99068ca" y="514.021053"/>
     <use style="fill:#009e73;stroke:#009e73;" x="66.723166" xlink:href="#m36a99068ca" y="507.757254"/>
     <use style="fill:#009e73;stroke:#009e73;" x="68.748575" xlink:href="#m36a99068ca" y="508.604912"/>
     <use style="fill:#009e73;stroke:#009e73;" x="68.79373" xlink:href="#m36a99068ca" y="509.113463"/>
     <use style="fill:#009e73;stroke:#009e73;" x="68.412642" xlink:href="#m36a99068ca" y="509.848559"/>
     <use style="fill:#009e73;stroke:#009e73;" x="67.581795" xlink:href="#m36a99068ca" y="516.823523"/>
     <use style="fill:#009e73;stroke:#009e73;" x="67.176255" xlink:href="#m36a99068ca" y="512.3403"/>
     <use style="fill:#009e73;stroke:#009e73;" x="68.504496" xlink:href="#m36a99068ca" y="505.900617"/>
     <use style="fill:#009e73;stroke:#009e73;" x="67.328665" xlink:href="#m36a99068ca" y="510.702818"/>
    </g>
   </g>
   <g id="PathCollection_5">
    <defs>
     <path d="M 0 2.345208 
C 0.621956 2.345208 1.218523 2.098102 1.658312 1.658312 
C 2.098102 1.218523 2.345208 0.621956 2.345208 0 
C 2.345208 -0.621956 2.098102 -1.218523 1.658312 -1.658312 
C 1.218523 -2.098102 0.621956 -2.345208 0 -2.345208 
C -0.621956 -2.345208 -1.218523 -2.098102 -1.658312 -1.658312 
C -2.098102 -1.218523 -2.345208 -0.621956 -2.345208 0 
C -2.345208 0.621956 -2.098102 1.218523 -1.658312 1.658312 
C -1.218523 2.098102 -0.621956 2.345208 0 2.345208 
z
" id="m066c2097ae" style="stroke:#f0e442;"/>
    </defs>
    <g clip-path="url(#p2112588192)">
     <use style="fill:#f0e442;stroke:#f0e442;" x="198.241513" xlink:href="#m066c2097ae" y="477.033885"/>
     <use style="fill:#f0e442;stroke:#f0e442;" x="200.528187" xlink:href="#m066c2097ae" y="477.486677"/>
     <use style="fill:#f0e442;stroke:#f0e442;" x="198.011131" xlink:href="#m066c2097ae" y="471.768858"/>
     <use style="fill:#f0e442;stroke:#f0e442;" x="197.926778" xlink:href="#m066c2097ae" y="471.663288"/>
     <use style="fill:#f0e442;stroke:#f0e442;" x="199.263012" xlink:href="#m066c2097ae" y="474.360497"/>
     <use style="fill:#f0e442;stroke:#f0e442;" x="198.134017" xlink:href="#m066c2097ae" y="473.256586"/>
     <use style="fill:#f0e442;stroke:#f0e442;" x="198.634041" xlink:href="#m066c2097ae" y="473.682312"/>
     <use style="fill:#f0e442;stroke:#f0e442;" x="200.972498" xlink:href="#m066c2097ae" y="478.554182"/>
     <use style="fill:#f0e442;stroke:#f0e442;" x="202.680909" xlink:href="#m066c2097ae" y="481.349694"/>
     <use style="fill:#f0e442;stroke:#f0e442;" x="203.077422" xlink:href="#m066c2097ae" y="482.191053"/>
     <use style="fill:#f0e442;stroke:#f0e442;" x="202.983484" xlink:href="#m066c2097ae" y="481.979213"/>
     <use style="fill:#f0e442;stroke:#f0e442;" x="200.303775" xlink:href="#m066c2097ae" y="475.63411"/>
    </g>
   </g>
   <g id="PathCollection_6">
    <defs>
     <path d="M 0 2.345208 
C 0.621956 2.345208 1.218523 2.098102 1.658312 1.658312 
C 2.098102 1.218523 2.345208 0.621956 2.345208 0 
C 2.345208 -0.621956 2.098102 -1.218523 1.658312 -1.658312 
C 1.218523 -2.098102 0.621956 -2.345208 0 -2.345208 
C -0.621956 -2.345208 -1.218523 -2.098102 -1.658312 -1.658312 
C -2.098102 -1.218523 -2.345208 -0.621956 -2.345208 0 
C -2.345208 0.621956 -2.098102 1.218523 -1.658312 1.658312 
C -1.218523 2.098102 -0.621956 2.345208 0 2.345208 
z
" id="m156f6bf76b" style="stroke:#0072b2;"/>
    </defs>
    <g clip-path="url(#p2112588192)">
     <use style="fill:#0072b2;stroke:#0072b2;" x="395.0536" xlink:href="#m156f6bf76b" y="558.835001"/>
     <use style="fill:#0072b2;stroke:#0072b2;" x="396.751507" xlink:href="#m156f6bf76b" y="554.75837"/>
     <use style="fill:#0072b2;stroke:#0072b2;" x="395.235012" xlink:href="#m156f6bf76b" y="558.460583"/>
     <use style="fill:#0072b2;stroke:#0072b2;" x="396.163347" xlink:href="#m156f6bf76b" y="556.204806"/>
     <use style="fill:#0072b2;stroke:#0072b2;" x="395.789417" xlink:href="#m156f6bf76b" y="557.118402"/>
     <use style="fill:#0072b2;stroke:#0072b2;" x="395.886438" xlink:href="#m156f6bf76b" y="556.86702"/>
    </g>
   </g>
   <g id="PathCollection_7">
    <defs>
     <path d="M 0 2.345208 
C 0.621956 2.345208 1.218523 2.098102 1.658312 1.658312 
C 2.098102 1.218523 2.345208 0.621956 2.345208 0 
C 2.345208 -0.621956 2.098102 -1.218523 1.658312 -1.658312 
C 1.218523 -2.098102 0.621956 -2.345208 0 -2.345208 
C -0.621956 -2.345208 -1.218523 -2.098102 -1.658312 -1.658312 
C -2.098102 -1.218523 -2.345208 -0.621956 -2.345208 0 
C -2.345208 0.621956 -2.098102 1.218523 -1.658312 1.658312 
C -1.218523 2.098102 -0.621956 2.345208 0 2.345208 
z
" id="m4939c02377" style="stroke:#d55e00;"/>
    </defs>
    <g clip-path="url(#p2112588192)">
     <use style="fill:#d55e00;stroke:#d55e00;" x="381.357878" xlink:href="#m4939c02377" y="458.634973"/>
     <use style="fill:#d55e00;stroke:#d55e00;" x="382.572532" xlink:href="#m4939c02377" y="455.857267"/>
     <use style="fill:#d55e00;stroke:#d55e00;" x="382.740672" xlink:href="#m4939c02377" y="455.181572"/>
     <use style="fill:#d55e00;stroke:#d55e00;" x="384.343256" xlink:href="#m4939c02377" y="446.488931"/>
     <use style="fill:#d55e00;stroke:#d55e00;" x="385.661348" xlink:href="#m4939c02377" y="446.650314"/>
     <use style="fill:#d55e00;stroke:#d55e00;" x="385.374355" xlink:href="#m4939c02377" y="444.537025"/>
     <use style="fill:#d55e00;stroke:#d55e00;" x="385.592795" xlink:href="#m4939c02377" y="448.220315"/>
     <use style="fill:#d55e00;stroke:#d55e00;" x="384.642541" xlink:href="#m4939c02377" y="451.092932"/>
     <use style="fill:#d55e00;stroke:#d55e00;" x="384.966987" xlink:href="#m4939c02377" y="449.069789"/>
     <use style="fill:#d55e00;stroke:#d55e00;" x="382.337035" xlink:href="#m4939c02377" y="456.263276"/>
     <use style="fill:#d55e00;stroke:#d55e00;" x="383.484811" xlink:href="#m4939c02377" y="452.267071"/>
    </g>
   </g>
   <g id="PathCollection_8">
    <defs>
     <path d="M 0 2.345208 
C 0.621956 2.345208 1.218523 2.098102 1.658312 1.658312 
C 2.098102 1.218523 2.345208 0.621956 2.345208 0 
C 2.345208 -0.621956 2.098102 -1.218523 1.658312 -1.658312 
C 1.218523 -2.098102 0.621956 -2.345208 0 -2.345208 
C -0.621956 -2.345208 -1.218523 -2.098102 -1.658312 -1.658312 
C -2.098102 -1.218523 -2.345208 -0.621956 -2.345208 0 
C -2.345208 0.621956 -2.098102 1.218523 -1.658312 1.658312 
C -1.218523 2.098102 -0.621956 2.345208 0 2.345208 
z
" id="m324108a7b7" style="stroke:#cc79a7;"/>
    </defs>
    <g clip-path="url(#p2112588192)">
     <use style="fill:#cc79a7;stroke:#cc79a7;" x="398.837963" xlink:href="#m324108a7b7" y="427.276546"/>
     <use style="fill:#cc79a7;stroke:#cc79a7;" x="401.352924" xlink:href="#m324108a7b7" y="439.498428"/>
     <use style="fill:#cc79a7;stroke:#cc79a7;" x="401.468165" xlink:href="#m324108a7b7" y="439.839903"/>
     <use style="fill:#cc79a7;stroke:#cc79a7;" x="397.089953" xlink:href="#m324108a7b7" y="429.174482"/>
     <use style="fill:#cc79a7;stroke:#cc79a7;" x="397.639855" xlink:href="#m324108a7b7" y="429.525499"/>
     <use style="fill:#cc79a7;stroke:#cc79a7;" x="397.103006" xlink:href="#m324108a7b7" y="426.085557"/>
     <use style="fill:#cc79a7;stroke:#cc79a7;" x="395.297299" xlink:href="#m324108a7b7" y="422.757874"/>
     <use style="fill:#cc79a7;stroke:#cc79a7;" x="395.64981" xlink:href="#m324108a7b7" y="424.239733"/>
     <use style="fill:#cc79a7;stroke:#cc79a7;" x="396.960277" xlink:href="#m324108a7b7" y="426.424515"/>
    </g>
   </g>
   <g id="PathCollection_9">
    <defs>
     <path d="M 0 2.345208 
C 0.621956 2.345208 1.218523 2.098102 1.658312 1.658312 
C 2.098102 1.218523 2.345208 0.621956 2.345208 0 
C 2.345208 -0.621956 2.098102 -1.218523 1.658312 -1.658312 
C 1.218523 -2.098102 0.621956 -2.345208 0 -2.345208 
C -0.621956 -2.345208 -1.218523 -2.098102 -1.658312 -1.658312 
C -2.098102 -1.218523 -2.345208 -0.621956 -2.345208 0 
C -2.345208 0.621956 -2.098102 1.218523 -1.658312 1.658312 
C -1.218523 2.098102 -0.621956 2.345208 0 2.345208 
z
" id="m6a4d6a8eb4" style="stroke:#f46d43;"/>
    </defs>
    <g clip-path="url(#p2112588192)">
     <use style="fill:#f46d43;stroke:#f46d43;" x="413.368383" xlink:href="#m6a4d6a8eb4" y="444.916615"/>
     <use style="fill:#f46d43;stroke:#f46d43;" x="414.782016" xlink:href="#m6a4d6a8eb4" y="448.1378"/>
     <use style="fill:#f46d43;stroke:#f46d43;" x="412.702" xlink:href="#m6a4d6a8eb4" y="443.060374"/>
     <use style="fill:#f46d43;stroke:#f46d43;" x="413.638831" xlink:href="#m6a4d6a8eb4" y="445.375315"/>
     <use style="fill:#f46d43;stroke:#f46d43;" x="412.396264" xlink:href="#m6a4d6a8eb4" y="442.424786"/>
    </g>
   </g>
   <g id="PathCollection_10">
    <defs>
     <path d="M 0 2.345208 
C 0.621956 2.345208 1.218523 2.098102 1.658312 1.658312 
C 2.098102 1.218523 2.345208 0.621956 2.345208 0 
C 2.345208 -0.621956 2.098102 -1.218523 1.658312 -1.658312 
C 1.218523 -2.098102 0.621956 -2.345208 0 -2.345208 
C -0.621956 -2.345208 -1.218523 -2.098102 -1.658312 -1.658312 
C -2.098102 -1.218523 -2.345208 -0.621956 -2.345208 0 
C -2.345208 0.621956 -2.098102 1.218523 -1.658312 1.658312 
C -1.218523 2.098102 -0.621956 2.345208 0 2.345208 
z
" id="m310fb3bbb5" style="stroke:#abd9e9;"/>
    </defs>
    <g clip-path="url(#p2112588192)">
     <use style="fill:#abd9e9;stroke:#abd9e9;" x="427.419042" xlink:href="#m310fb3bbb5" y="428.608112"/>
     <use style="fill:#abd9e9;stroke:#abd9e9;" x="425.182752" xlink:href="#m310fb3bbb5" y="428.753615"/>
     <use style="fill:#abd9e9;stroke:#abd9e9;" x="425.418086" xlink:href="#m310fb3bbb5" y="430.592803"/>
     <use style="fill:#abd9e9;stroke:#abd9e9;" x="425.34949" xlink:href="#m310fb3bbb5" y="430.516075"/>
     <use style="fill:#abd9e9;stroke:#abd9e9;" x="426.357702" xlink:href="#m310fb3bbb5" y="428.288145"/>
     <use style="fill:#abd9e9;stroke:#abd9e9;" x="426.482341" xlink:href="#m310fb3bbb5" y="428.710735"/>
    </g>
   </g>
   <g id="PathCollection_11">
    <g clip-path="url(#p2112588192)">
     <use style="fill:#999999;stroke:#999999;" x="126.718801" xlink:href="#m59521f9075" y="362.034164"/>
     <use style="fill:#999999;stroke:#999999;" x="130.802465" xlink:href="#m59521f9075" y="365.169347"/>
     <use style="fill:#999999;stroke:#999999;" x="130.286682" xlink:href="#m59521f9075" y="364.215285"/>
     <use style="fill:#999999;stroke:#999999;" x="130.249447" xlink:href="#m59521f9075" y="361.555437"/>
     <use style="fill:#999999;stroke:#999999;" x="129.275016" xlink:href="#m59521f9075" y="367.132652"/>
     <use style="fill:#999999;stroke:#999999;" x="129.964303" xlink:href="#m59521f9075" y="365.832135"/>
    </g>
   </g>
   <g id="PathCollection_12">
    <g clip-path="url(#p2112588192)">
     <use style="fill:#e69f00;stroke:#e69f00;" x="414.952648" xlink:href="#ma68fa0cc35" y="433.56274"/>
     <use style="fill:#e69f00;stroke:#e69f00;" x="415.871226" xlink:href="#ma68fa0cc35" y="445.390376"/>
     <use style="fill:#e69f00;stroke:#e69f00;" x="413.925378" xlink:href="#ma68fa0cc35" y="447.898948"/>
     <use style="fill:#e69f00;stroke:#e69f00;" x="415.055488" xlink:href="#ma68fa0cc35" y="433.273566"/>
     <use style="fill:#e69f00;stroke:#e69f00;" x="416.957977" xlink:href="#ma68fa0cc35" y="435.921705"/>
     <use style="fill:#e69f00;stroke:#e69f00;" x="416.328818" xlink:href="#ma68fa0cc35" y="444.492948"/>
     <use style="fill:#e69f00;stroke:#e69f00;" x="414.206703" xlink:href="#ma68fa0cc35" y="445.703116"/>
     <use style="fill:#e69f00;stroke:#e69f00;" x="414.633293" xlink:href="#ma68fa0cc35" y="440.353529"/>
     <use style="fill:#e69f00;stroke:#e69f00;" x="417.978415" xlink:href="#ma68fa0cc35" y="438.675562"/>
     <use style="fill:#e69f00;stroke:#e69f00;" x="416.551511" xlink:href="#ma68fa0cc35" y="444.119347"/>
     <use style="fill:#e69f00;stroke:#e69f00;" x="415.378193" xlink:href="#ma68fa0cc35" y="445.904257"/>
     <use style="fill:#e69f00;stroke:#e69f00;" x="418.132208" xlink:href="#ma68fa0cc35" y="438.816677"/>
    </g>
   </g>
   <g id="PathCollection_13">
    <g clip-path="url(#p2112588192)">
     <use style="fill:#56b4e9;stroke:#56b4e9;" x="447.272456" xlink:href="#m6f30365f76" y="419.145108"/>
     <use style="fill:#56b4e9;stroke:#56b4e9;" x="447.771406" xlink:href="#m6f30365f76" y="415.731598"/>
     <use style="fill:#56b4e9;stroke:#56b4e9;" x="447.393789" xlink:href="#m6f30365f76" y="418.611038"/>
     <use style="fill:#56b4e9;stroke:#56b4e9;" x="451.151534" xlink:href="#m6f30365f76" y="418.196604"/>
     <use style="fill:#56b4e9;stroke:#56b4e9;" x="447.167027" xlink:href="#m6f30365f76" y="414.237437"/>
     <use style="fill:#56b4e9;stroke:#56b4e9;" x="447.255052" xlink:href="#m6f30365f76" y="414.614403"/>
    </g>
   </g>
   <g id="PathCollection_14">
    <g clip-path="url(#p2112588192)">
     <use style="fill:#009e73;stroke:#009e73;" x="397.201974" xlink:href="#m36a99068ca" y="437.55052"/>
     <use style="fill:#009e73;stroke:#009e73;" x="395.528564" xlink:href="#m36a99068ca" y="434.555725"/>
     <use style="fill:#009e73;stroke:#009e73;" x="396.670879" xlink:href="#m36a99068ca" y="437.594544"/>
    </g>
   </g>
   <g id="matplotlib.axis_3">
    <g id="xtick_40">
     <g id="line2d_44">
      <g>
       <use style="stroke:#000000;stroke-width:0.8;" x="101.163011" xlink:href="#m0c911246fd" y="564.48"/>
      </g>
     </g>
     <g id="text_49">
      <!-- 10 -->
      <g transform="translate(90.610668 579.078437)scale(0.1 -0.1)">
       <defs>
        <path d="M 10.59375 35.5 
L 73.1875 35.5 
L 73.1875 27.203125 
L 10.59375 27.203125 
z
" id="DejaVuSans-8722"/>
       </defs>
       <use xlink:href="#DejaVuSans-8722"/>
       <use x="83.789062" xlink:href="#DejaVuSans-49"/>
       <use x="147.412109" xlink:href="#DejaVuSans-48"/>
      </g>
     </g>
    </g>
    <g id="xtick_41">
     <g id="line2d_45">
      <g>
       <use style="stroke:#000000;stroke-width:0.8;" x="158.194807" xlink:href="#m0c911246fd" y="564.48"/>
      </g>
     </g>
     <g id="text_50">
      <!-- 5 -->
      <g transform="translate(150.823713 579.078437)scale(0.1 -0.1)">
       <use xlink:href="#DejaVuSans-8722"/>
       <use x="83.789062" xlink:href="#DejaVuSans-53"/>
      </g>
     </g>
    </g>
    <g id="xtick_42">
     <g id="line2d_46">
      <g>
       <use style="stroke:#000000;stroke-width:0.8;" x="215.226602" xlink:href="#m0c911246fd" y="564.48"/>
      </g>
     </g>
     <g id="text_51">
      <!-- 0 -->
      <g transform="translate(212.045352 579.078437)scale(0.1 -0.1)">
       <use xlink:href="#DejaVuSans-48"/>
      </g>
     </g>
    </g>
    <g id="xtick_43">
     <g id="line2d_47">
      <g>
       <use style="stroke:#000000;stroke-width:0.8;" x="272.258397" xlink:href="#m0c911246fd" y="564.48"/>
      </g>
     </g>
     <g id="text_52">
      <!-- 5 -->
      <g transform="translate(269.077147 579.078437)scale(0.1 -0.1)">
       <use xlink:href="#DejaVuSans-53"/>
      </g>
     </g>
    </g>
    <g id="xtick_44">
     <g id="line2d_48">
      <g>
       <use style="stroke:#000000;stroke-width:0.8;" x="329.290193" xlink:href="#m0c911246fd" y="564.48"/>
      </g>
     </g>
     <g id="text_53">
      <!-- 10 -->
      <g transform="translate(322.927693 579.078437)scale(0.1 -0.1)">
       <use xlink:href="#DejaVuSans-49"/>
       <use x="63.623047" xlink:href="#DejaVuSans-48"/>
      </g>
     </g>
    </g>
    <g id="xtick_45">
     <g id="line2d_49">
      <g>
       <use style="stroke:#000000;stroke-width:0.8;" x="386.321988" xlink:href="#m0c911246fd" y="564.48"/>
      </g>
     </g>
     <g id="text_54">
      <!-- 15 -->
      <g transform="translate(379.959488 579.078437)scale(0.1 -0.1)">
       <use xlink:href="#DejaVuSans-49"/>
       <use x="63.623047" xlink:href="#DejaVuSans-53"/>
      </g>
     </g>
    </g>
    <g id="xtick_46">
     <g id="line2d_50">
      <g>
       <use style="stroke:#000000;stroke-width:0.8;" x="443.353783" xlink:href="#m0c911246fd" y="564.48"/>
      </g>
     </g>
     <g id="text_55">
      <!-- 20 -->
      <g transform="translate(436.991283 579.078437)scale(0.1 -0.1)">
       <use xlink:href="#DejaVuSans-50"/>
       <use x="63.623047" xlink:href="#DejaVuSans-48"/>
      </g>
     </g>
    </g>
    <g id="text_56">
     <!-- UMAP Dimension 1 -->
     <g transform="translate(210.955469 592.756562)scale(0.1 -0.1)">
      <defs>
       <path d="M 8.6875 72.90625 
L 18.609375 72.90625 
L 18.609375 28.609375 
Q 18.609375 16.890625 22.84375 11.734375 
Q 27.09375 6.59375 36.625 6.59375 
Q 46.09375 6.59375 50.34375 11.734375 
Q 54.59375 16.890625 54.59375 28.609375 
L 54.59375 72.90625 
L 64.5 72.90625 
L 64.5 27.390625 
Q 64.5 13.140625 57.4375 5.859375 
Q 50.390625 -1.421875 36.625 -1.421875 
Q 22.796875 -1.421875 15.734375 5.859375 
Q 8.6875 13.140625 8.6875 27.390625 
z
" id="DejaVuSans-85"/>
       <path d="M 9.8125 72.90625 
L 24.515625 72.90625 
L 43.109375 23.296875 
L 61.8125 72.90625 
L 76.515625 72.90625 
L 76.515625 0 
L 66.890625 0 
L 66.890625 64.015625 
L 48.09375 14.015625 
L 38.1875 14.015625 
L 19.390625 64.015625 
L 19.390625 0 
L 9.8125 0 
z
" id="DejaVuSans-77"/>
       <path d="M 34.1875 63.1875 
L 20.796875 26.90625 
L 47.609375 26.90625 
z
M 28.609375 72.90625 
L 39.796875 72.90625 
L 67.578125 0 
L 57.328125 0 
L 50.6875 18.703125 
L 17.828125 18.703125 
L 11.1875 0 
L 0.78125 0 
z
" id="DejaVuSans-65"/>
       <path d="M 19.671875 64.796875 
L 19.671875 37.40625 
L 32.078125 37.40625 
Q 38.96875 37.40625 42.71875 40.96875 
Q 46.484375 44.53125 46.484375 51.125 
Q 46.484375 57.671875 42.71875 61.234375 
Q 38.96875 64.796875 32.078125 64.796875 
z
M 9.8125 72.90625 
L 32.078125 72.90625 
Q 44.34375 72.90625 50.609375 67.359375 
Q 56.890625 61.8125 56.890625 51.125 
Q 56.890625 40.328125 50.609375 34.8125 
Q 44.34375 29.296875 32.078125 29.296875 
L 19.671875 29.296875 
L 19.671875 0 
L 9.8125 0 
z
" id="DejaVuSans-80"/>
       <path d="M 19.671875 64.796875 
L 19.671875 8.109375 
L 31.59375 8.109375 
Q 46.6875 8.109375 53.6875 14.9375 
Q 60.6875 21.78125 60.6875 36.53125 
Q 60.6875 51.171875 53.6875 57.984375 
Q 46.6875 64.796875 31.59375 64.796875 
z
M 9.8125 72.90625 
L 30.078125 72.90625 
Q 51.265625 72.90625 61.171875 64.09375 
Q 71.09375 55.28125 71.09375 36.53125 
Q 71.09375 17.671875 61.125 8.828125 
Q 51.171875 0 30.078125 0 
L 9.8125 0 
z
" id="DejaVuSans-68"/>
      </defs>
      <use xlink:href="#DejaVuSans-85"/>
      <use x="73.193359" xlink:href="#DejaVuSans-77"/>
      <use x="159.472656" xlink:href="#DejaVuSans-65"/>
      <use x="227.880859" xlink:href="#DejaVuSans-80"/>
      <use x="288.183594" xlink:href="#DejaVuSans-32"/>
      <use x="319.970703" xlink:href="#DejaVuSans-68"/>
      <use x="396.972656" xlink:href="#DejaVuSans-105"/>
      <use x="424.755859" xlink:href="#DejaVuSans-109"/>
      <use x="522.167969" xlink:href="#DejaVuSans-101"/>
      <use x="583.691406" xlink:href="#DejaVuSans-110"/>
      <use x="647.070312" xlink:href="#DejaVuSans-115"/>
      <use x="699.169922" xlink:href="#DejaVuSans-105"/>
      <use x="726.953125" xlink:href="#DejaVuSans-111"/>
      <use x="788.134766" xlink:href="#DejaVuSans-110"/>
      <use x="851.513672" xlink:href="#DejaVuSans-32"/>
      <use x="883.300781" xlink:href="#DejaVuSans-49"/>
     </g>
    </g>
   </g>
   <g id="matplotlib.axis_4">
    <g id="ytick_5">
     <g id="line2d_51">
      <g>
       <use style="stroke:#000000;stroke-width:0.8;" x="63" xlink:href="#m40b6f25534" y="543.666204"/>
      </g>
     </g>
     <g id="text_57">
      <!-- 2 -->
      <g transform="translate(49.6375 547.465422)scale(0.1 -0.1)">
       <use xlink:href="#DejaVuSans-50"/>
      </g>
     </g>
    </g>
    <g id="ytick_6">
     <g id="line2d_52">
      <g>
       <use style="stroke:#000000;stroke-width:0.8;" x="63" xlink:href="#m40b6f25534" y="515.441211"/>
      </g>
     </g>
     <g id="text_58">
      <!-- 3 -->
      <g transform="translate(49.6375 519.24043)scale(0.1 -0.1)">
       <use xlink:href="#DejaVuSans-51"/>
      </g>
     </g>
    </g>
    <g id="ytick_7">
     <g id="line2d_53">
      <g>
       <use style="stroke:#000000;stroke-width:0.8;" x="63" xlink:href="#m40b6f25534" y="487.216218"/>
      </g>
     </g>
     <g id="text_59">
      <!-- 4 -->
      <g transform="translate(49.6375 491.015437)scale(0.1 -0.1)">
       <use xlink:href="#DejaVuSans-52"/>
      </g>
     </g>
    </g>
    <g id="ytick_8">
     <g id="line2d_54">
      <g>
       <use style="stroke:#000000;stroke-width:0.8;" x="63" xlink:href="#m40b6f25534" y="458.991225"/>
      </g>
     </g>
     <g id="text_60">
      <!-- 5 -->
      <g transform="translate(49.6375 462.790444)scale(0.1 -0.1)">
       <use xlink:href="#DejaVuSans-53"/>
      </g>
     </g>
    </g>
    <g id="ytick_9">
     <g id="line2d_55">
      <g>
       <use style="stroke:#000000;stroke-width:0.8;" x="63" xlink:href="#m40b6f25534" y="430.766232"/>
      </g>
     </g>
     <g id="text_61">
      <!-- 6 -->
      <g transform="translate(49.6375 434.565451)scale(0.1 -0.1)">
       <use xlink:href="#DejaVuSans-54"/>
      </g>
     </g>
    </g>
    <g id="ytick_10">
     <g id="line2d_56">
      <g>
       <use style="stroke:#000000;stroke-width:0.8;" x="63" xlink:href="#m40b6f25534" y="402.54124"/>
      </g>
     </g>
     <g id="text_62">
      <!-- 7 -->
      <g transform="translate(49.6375 406.340458)scale(0.1 -0.1)">
       <use xlink:href="#DejaVuSans-55"/>
      </g>
     </g>
    </g>
    <g id="ytick_11">
     <g id="line2d_57">
      <g>
       <use style="stroke:#000000;stroke-width:0.8;" x="63" xlink:href="#m40b6f25534" y="374.316247"/>
      </g>
     </g>
     <g id="text_63">
      <!-- 8 -->
      <g transform="translate(49.6375 378.115466)scale(0.1 -0.1)">
       <use xlink:href="#DejaVuSans-56"/>
      </g>
     </g>
    </g>
    <g id="text_64">
     <!-- UMAP Dimension 2 -->
     <g transform="translate(43.557812 506.428787)rotate(-90)scale(0.1 -0.1)">
      <use xlink:href="#DejaVuSans-85"/>
      <use x="73.193359" xlink:href="#DejaVuSans-77"/>
      <use x="159.472656" xlink:href="#DejaVuSans-65"/>
      <use x="227.880859" xlink:href="#DejaVuSans-80"/>
      <use x="288.183594" xlink:href="#DejaVuSans-32"/>
      <use x="319.970703" xlink:href="#DejaVuSans-68"/>
      <use x="396.972656" xlink:href="#DejaVuSans-105"/>
      <use x="424.755859" xlink:href="#DejaVuSans-109"/>
      <use x="522.167969" xlink:href="#DejaVuSans-101"/>
      <use x="583.691406" xlink:href="#DejaVuSans-110"/>
      <use x="647.070312" xlink:href="#DejaVuSans-115"/>
      <use x="699.169922" xlink:href="#DejaVuSans-105"/>
      <use x="726.953125" xlink:href="#DejaVuSans-111"/>
      <use x="788.134766" xlink:href="#DejaVuSans-110"/>
      <use x="851.513672" xlink:href="#DejaVuSans-32"/>
      <use x="883.300781" xlink:href="#DejaVuSans-50"/>
     </g>
    </g>
   </g>
   <g id="patch_49">
    <path d="M 63 564.48 
L 63 353.688511 
" style="fill:none;stroke:#000000;stroke-linecap:square;stroke-linejoin:miter;stroke-width:0.8;"/>
   </g>
   <g id="patch_50">
    <path d="M 453.6 564.48 
L 453.6 353.688511 
" style="fill:none;stroke:#000000;stroke-linecap:square;stroke-linejoin:miter;stroke-width:0.8;"/>
   </g>
   <g id="patch_51">
    <path d="M 63 564.48 
L 453.6 564.48 
" style="fill:none;stroke:#000000;stroke-linecap:square;stroke-linejoin:miter;stroke-width:0.8;"/>
   </g>
   <g id="patch_52">
    <path d="M 63 353.688511 
L 453.6 353.688511 
" style="fill:none;stroke:#000000;stroke-linecap:square;stroke-linejoin:miter;stroke-width:0.8;"/>
   </g>
   <g id="text_65">
    <!-- 0 -->
    <g style="fill:#999999;" transform="translate(447.73691 419.006594)scale(0.1 -0.1)">
     <use xlink:href="#DejaVuSans-48"/>
    </g>
   </g>
   <g id="text_66">
    <!-- 1 -->
    <g style="fill:#e69f00;" transform="translate(119.864026 361.081321)scale(0.1 -0.1)">
     <use xlink:href="#DejaVuSans-49"/>
    </g>
   </g>
   <g id="text_67">
    <!-- 2 -->
    <g style="fill:#56b4e9;" transform="translate(415.276305 432.53783)scale(0.1 -0.1)">
     <use xlink:href="#DejaVuSans-50"/>
    </g>
   </g>
   <g id="text_68">
    <!-- 3 -->
    <g style="fill:#009e73;" transform="translate(67.543194 511.104865)scale(0.1 -0.1)">
     <use xlink:href="#DejaVuSans-51"/>
    </g>
   </g>
   <g id="text_69">
    <!-- 4 -->
    <g style="fill:#f0e442;" transform="translate(200.063064 476.58003)scale(0.1 -0.1)">
     <use xlink:href="#DejaVuSans-52"/>
    </g>
   </g>
   <g id="text_70">
    <!-- 5 -->
    <g style="fill:#0072b2;" transform="translate(395.81322 557.040697)scale(0.1 -0.1)">
     <use xlink:href="#DejaVuSans-53"/>
    </g>
   </g>
   <g id="text_71">
    <!-- 6 -->
    <g style="fill:#d55e00;" transform="translate(383.915837 451.296679)scale(0.1 -0.1)">
     <use xlink:href="#DejaVuSans-54"/>
    </g>
   </g>
   <g id="text_72">
    <!-- 7 -->
    <g style="fill:#cc79a7;" transform="translate(397.93325 429.424726)scale(0.1 -0.1)">
     <use xlink:href="#DejaVuSans-55"/>
    </g>
   </g>
   <g id="text_73">
    <!-- 8 -->
    <g style="fill:#f46d43;" transform="translate(413.377499 444.782978)scale(0.1 -0.1)">
     <use xlink:href="#DejaVuSans-56"/>
    </g>
   </g>
   <g id="text_74">
    <!-- 9 -->
    <g style="fill:#abd9e9;" transform="translate(426.034902 429.244914)scale(0.1 -0.1)">
     <use xlink:href="#DejaVuSans-57"/>
    </g>
   </g>
   <g id="text_75">
    <!-- 10 -->
    <g style="fill:#999999;" transform="translate(129.549452 364.32317)scale(0.1 -0.1)">
     <use xlink:href="#DejaVuSans-49"/>
     <use x="63.623047" xlink:href="#DejaVuSans-48"/>
    </g>
   </g>
   <g id="text_76">
    <!-- 11 -->
    <g style="fill:#e69f00;" transform="translate(415.830988 441.176064)scale(0.1 -0.1)">
     <use xlink:href="#DejaVuSans-49"/>
     <use x="63.623047" xlink:href="#DejaVuSans-49"/>
    </g>
   </g>
   <g id="text_77">
    <!-- 12 -->
    <g style="fill:#56b4e9;" transform="translate(448.001618 416.755912)scale(0.1 -0.1)">
     <use xlink:href="#DejaVuSans-49"/>
     <use x="63.623047" xlink:href="#DejaVuSans-50"/>
    </g>
   </g>
   <g id="text_78">
    <!-- 13 -->
    <g style="fill:#009e73;" transform="translate(396.467139 436.56693)scale(0.1 -0.1)">
     <use xlink:href="#DejaVuSans-49"/>
     <use x="63.623047" xlink:href="#DejaVuSans-51"/>
    </g>
   </g>
   <g id="text_79">
    <!-- Selected GMM: full model, 14 Gaussian components -->
    <g transform="translate(101.753438 347.688511)scale(0.12 -0.12)">
     <defs>
      <path d="M 53.515625 70.515625 
L 53.515625 60.890625 
Q 47.90625 63.578125 42.921875 64.890625 
Q 37.9375 66.21875 33.296875 66.21875 
Q 25.25 66.21875 20.875 63.09375 
Q 16.5 59.96875 16.5 54.203125 
Q 16.5 49.359375 19.40625 46.890625 
Q 22.3125 44.4375 30.421875 42.921875 
L 36.375 41.703125 
Q 47.40625 39.59375 52.65625 34.296875 
Q 57.90625 29 57.90625 20.125 
Q 57.90625 9.515625 50.796875 4.046875 
Q 43.703125 -1.421875 29.984375 -1.421875 
Q 24.8125 -1.421875 18.96875 -0.25 
Q 13.140625 0.921875 6.890625 3.21875 
L 6.890625 13.375 
Q 12.890625 10.015625 18.65625 8.296875 
Q 24.421875 6.59375 29.984375 6.59375 
Q 38.421875 6.59375 43.015625 9.90625 
Q 47.609375 13.234375 47.609375 19.390625 
Q 47.609375 24.75 44.3125 27.78125 
Q 41.015625 30.8125 33.5 32.328125 
L 27.484375 33.5 
Q 16.453125 35.6875 11.515625 40.375 
Q 6.59375 45.0625 6.59375 53.421875 
Q 6.59375 63.09375 13.40625 68.65625 
Q 20.21875 74.21875 32.171875 74.21875 
Q 37.3125 74.21875 42.625 73.28125 
Q 47.953125 72.359375 53.515625 70.515625 
z
" id="DejaVuSans-83"/>
      <path d="M 11.71875 12.40625 
L 22.015625 12.40625 
L 22.015625 0 
L 11.71875 0 
z
M 11.71875 51.703125 
L 22.015625 51.703125 
L 22.015625 39.3125 
L 11.71875 39.3125 
z
" id="DejaVuSans-58"/>
      <path d="M 11.71875 12.40625 
L 22.015625 12.40625 
L 22.015625 4 
L 14.015625 -11.625 
L 7.71875 -11.625 
L 11.71875 4 
z
" id="DejaVuSans-44"/>
     </defs>
     <use xlink:href="#DejaVuSans-83"/>
     <use x="63.476562" xlink:href="#DejaVuSans-101"/>
     <use x="125" xlink:href="#DejaVuSans-108"/>
     <use x="152.783203" xlink:href="#DejaVuSans-101"/>
     <use x="214.306641" xlink:href="#DejaVuSans-99"/>
     <use x="269.287109" xlink:href="#DejaVuSans-116"/>
     <use x="308.496094" xlink:href="#DejaVuSans-101"/>
     <use x="370.019531" xlink:href="#DejaVuSans-100"/>
     <use x="433.496094" xlink:href="#DejaVuSans-32"/>
     <use x="465.283203" xlink:href="#DejaVuSans-71"/>
     <use x="542.773438" xlink:href="#DejaVuSans-77"/>
     <use x="629.052734" xlink:href="#DejaVuSans-77"/>
     <use x="715.332031" xlink:href="#DejaVuSans-58"/>
     <use x="749.023438" xlink:href="#DejaVuSans-32"/>
     <use x="780.810547" xlink:href="#DejaVuSans-102"/>
     <use x="816.015625" xlink:href="#DejaVuSans-117"/>
     <use x="879.394531" xlink:href="#DejaVuSans-108"/>
     <use x="907.177734" xlink:href="#DejaVuSans-108"/>
     <use x="934.960938" xlink:href="#DejaVuSans-32"/>
     <use x="966.748047" xlink:href="#DejaVuSans-109"/>
     <use x="1064.160156" xlink:href="#DejaVuSans-111"/>
     <use x="1125.341797" xlink:href="#DejaVuSans-100"/>
     <use x="1188.818359" xlink:href="#DejaVuSans-101"/>
     <use x="1250.341797" xlink:href="#DejaVuSans-108"/>
     <use x="1278.125" xlink:href="#DejaVuSans-44"/>
     <use x="1309.912109" xlink:href="#DejaVuSans-32"/>
     <use x="1341.699219" xlink:href="#DejaVuSans-49"/>
     <use x="1405.322266" xlink:href="#DejaVuSans-52"/>
     <use x="1468.945312" xlink:href="#DejaVuSans-32"/>
     <use x="1500.732422" xlink:href="#DejaVuSans-71"/>
     <use x="1578.222656" xlink:href="#DejaVuSans-97"/>
     <use x="1639.501953" xlink:href="#DejaVuSans-117"/>
     <use x="1702.880859" xlink:href="#DejaVuSans-115"/>
     <use x="1754.980469" xlink:href="#DejaVuSans-115"/>
     <use x="1807.080078" xlink:href="#DejaVuSans-105"/>
     <use x="1834.863281" xlink:href="#DejaVuSans-97"/>
     <use x="1896.142578" xlink:href="#DejaVuSans-110"/>
     <use x="1959.521484" xlink:href="#DejaVuSans-32"/>
     <use x="1991.308594" xlink:href="#DejaVuSans-99"/>
     <use x="2046.289062" xlink:href="#DejaVuSans-111"/>
     <use x="2107.470703" xlink:href="#DejaVuSans-109"/>
     <use x="2204.882812" xlink:href="#DejaVuSans-112"/>
     <use x="2268.359375" xlink:href="#DejaVuSans-111"/>
     <use x="2329.541016" xlink:href="#DejaVuSans-110"/>
     <use x="2392.919922" xlink:href="#DejaVuSans-101"/>
     <use x="2454.443359" xlink:href="#DejaVuSans-110"/>
     <use x="2517.822266" xlink:href="#DejaVuSans-116"/>
     <use x="2557.03125" xlink:href="#DejaVuSans-115"/>
    </g>
   </g>
  </g>
 </g>
 <defs>
  <clipPath id="p453ed26fb6">
   <rect height="210.791489" width="390.6" x="63" y="69.12"/>
  </clipPath>
  <clipPath id="p2112588192">
   <rect height="210.791489" width="390.6" x="63" y="353.688511"/>
  </clipPath>
 </defs>
</svg>
