<?xml version="1.0" encoding="utf-8" standalone="no"?>
<!DOCTYPE svg PUBLIC "-//W3C//DTD SVG 1.1//EN"
  "http://www.w3.org/Graphics/SVG/1.1/DTD/svg11.dtd">
<!-- Created with matplotlib (https://matplotlib.org/) -->
<svg height="648pt" version="1.1" viewBox="0 0 504 648" width="504pt" xmlns="http://www.w3.org/2000/svg" xmlns:xlink="http://www.w3.org/1999/xlink">
 <metadata>
  <rdf:RDF xmlns:cc="http://creativecommons.org/ns#" xmlns:dc="http://purl.org/dc/elements/1.1/" xmlns:rdf="http://www.w3.org/1999/02/22-rdf-syntax-ns#">
   <cc:Work>
    <dc:type rdf:resource="http://purl.org/dc/dcmitype/StillImage"/>
    <dc:date>2023-05-24T16:13:19.146005</dc:date>
    <dc:format>image/svg+xml</dc:format>
    <dc:creator>
     <cc:Agent>
      <dc:title>Matplotlib v3.3.4, https://matplotlib.org/</dc:title>
     </cc:Agent>
    </dc:creator>
   </cc:Work>
  </rdf:RDF>
 </metadata>
 <defs>
  <style type="text/css">*{stroke-linecap:butt;stroke-linejoin:round;}</style>
 </defs>
 <g id="figure_1">
  <g id="patch_1">
   <path d="M 0 648 
L 504 648 
L 504 0 
L 0 0 
z
" style="fill:#ffffff;"/>
  </g>
  <g id="axes_1">
   <g id="patch_2">
    <path d="M 63 576.72 
L 453.6 576.72 
L 453.6 77.76 
L 63 77.76 
z
" style="fill:#ffffff;"/>
   </g>
   <g id="PathCollection_1">
    <path clip-path="url(#p32c390ea0f)" d="M 242.360692 258.557674 
C 244.657418 258.557674 246.860386 257.645175 248.484416 256.021144 
C 250.108447 254.397113 251.020946 252.194146 251.020946 249.89742 
C 251.020946 247.600694 250.108447 245.397726 248.484416 243.773695 
C 246.860386 242.149665 244.657418 241.237166 242.360692 241.237166 
C 240.063966 241.237166 237.860998 242.149665 236.236968 243.773695 
C 234.612937 245.397726 233.700438 247.600694 233.700438 249.89742 
C 233.700438 252.194146 234.612937 254.397113 236.236968 256.021144 
C 237.860998 257.645175 240.063966 258.557674 242.360692 258.557674 
z
" style="fill:#2f4f4f;stroke:#2f4f4f;"/>
    <path clip-path="url(#p32c390ea0f)" d="M 259.653162 269.508171 
C 262.618223 269.508171 265.462241 268.33014 267.558856 266.233525 
C 269.655471 264.136911 270.833502 261.292892 270.833502 258.327831 
C 270.833502 255.36277 269.655471 252.518752 267.558856 250.422137 
C 265.462241 248.325522 262.618223 247.147491 259.653162 247.147491 
C 256.688101 247.147491 253.844082 248.325522 251.747468 250.422137 
C 249.650853 252.518752 248.472822 255.36277 248.472822 258.327831 
C 248.472822 261.292892 249.650853 264.136911 251.747468 266.233525 
C 253.844082 268.33014 256.688101 269.508171 259.653162 269.508171 
z
" style="fill:#556b2f;stroke:#556b2f;"/>
    <path clip-path="url(#p32c390ea0f)" d="M 251.789381 285.307256 
C 254.899163 285.307256 257.881995 284.071726 260.080943 281.872778 
C 262.279891 279.67383 263.51542 276.690998 263.51542 273.581216 
C 263.51542 270.471434 262.279891 267.488602 260.080943 265.289654 
C 257.881995 263.090706 254.899163 261.855177 251.789381 261.855177 
C 248.679599 261.855177 245.696767 263.090706 243.497819 265.289654 
C 241.298871 267.488602 240.063341 270.471434 240.063341 273.581216 
C 240.063341 276.690998 241.298871 279.67383 243.497819 281.872778 
C 245.696767 284.071726 248.679599 285.307256 251.789381 285.307256 
z
" style="fill:#8b4513;stroke:#8b4513;"/>
    <path clip-path="url(#p32c390ea0f)" d="M 249.775218 250.213435 
C 251.399249 250.213435 252.956982 249.568201 254.105345 248.419838 
C 255.253708 247.271475 255.898942 245.713742 255.898942 244.089711 
C 255.898942 242.46568 255.253708 240.907947 254.105345 239.759584 
C 252.956982 238.611221 251.399249 237.965987 249.775218 237.965987 
C 248.151187 237.965987 246.593454 238.611221 245.445091 239.759584 
C 244.296728 240.907947 243.651494 242.46568 243.651494 244.089711 
C 243.651494 245.713742 244.296728 247.271475 245.445091 248.419838 
C 246.593454 249.568201 248.151187 250.213435 249.775218 250.213435 
z
" style="fill:#2e8b57;stroke:#2e8b57;"/>
    <path clip-path="url(#p32c390ea0f)" d="M 261.881853 275.174933 
C 265.129914 275.174933 268.245381 273.884465 270.542107 271.587738 
C 272.838833 269.291012 274.129301 266.175546 274.129301 262.927484 
C 274.129301 259.679423 272.838833 256.563957 270.542107 254.26723 
C 268.245381 251.970504 265.129914 250.680036 261.881853 250.680036 
C 258.633791 250.680036 255.518325 251.970504 253.221599 254.26723 
C 250.924872 256.563957 249.634404 259.679423 249.634404 262.927484 
C 249.634404 266.175546 250.924872 269.291012 253.221599 271.587738 
C 255.518325 273.884465 258.633791 275.174933 261.881853 275.174933 
z
" style="fill:#228b22;stroke:#228b22;"/>
    <path clip-path="url(#p32c390ea0f)" d="M 257.357415 445.899823 
C 259.232684 445.899823 261.031399 445.15477 262.357415 443.828755 
C 263.68343 442.502739 264.428482 440.704024 264.428482 438.828755 
C 264.428482 436.953486 263.68343 435.15477 262.357415 433.828755 
C 261.031399 432.502739 259.232684 431.757687 257.357415 431.757687 
C 255.482146 431.757687 253.68343 432.502739 252.357415 433.828755 
C 251.031399 435.15477 250.286347 436.953486 250.286347 438.828755 
C 250.286347 440.704024 251.031399 442.502739 252.357415 443.828755 
C 253.68343 445.15477 255.482146 445.899823 257.357415 445.899823 
z
" style="fill:#708090;stroke:#708090;"/>
    <path clip-path="url(#p32c390ea0f)" d="M 252.718467 203.878482 
C 254.815082 203.878482 256.826107 203.045488 258.308637 201.562957 
C 259.791168 200.080427 260.624161 198.069402 260.624161 195.972787 
C 260.624161 193.876173 259.791168 191.865148 258.308637 190.382617 
C 256.826107 188.900087 254.815082 188.067093 252.718467 188.067093 
C 250.621853 188.067093 248.610828 188.900087 247.128297 190.382617 
C 245.645767 191.865148 244.812773 193.876173 244.812773 195.972787 
C 244.812773 198.069402 245.645767 200.080427 247.128297 201.562957 
C 248.610828 203.045488 250.621853 203.878482 252.718467 203.878482 
z
" style="fill:#8b0000;stroke:#8b0000;"/>
    <path clip-path="url(#p32c390ea0f)" d="M 261.460262 432.39687 
C 263.084293 432.39687 264.642026 431.751635 265.790389 430.603272 
C 266.938752 429.454909 267.583986 427.897176 267.583986 426.273145 
C 267.583986 424.649115 266.938752 423.091381 265.790389 421.943018 
C 264.642026 420.794655 263.084293 420.149421 261.460262 420.149421 
C 259.836231 420.149421 258.278498 420.794655 257.130135 421.943018 
C 255.981772 423.091381 255.336537 424.649115 255.336537 426.273145 
C 255.336537 427.897176 255.981772 429.454909 257.130135 430.603272 
C 258.278498 431.751635 259.836231 432.39687 261.460262 432.39687 
z
" style="fill:#808000;stroke:#808000;"/>
    <path clip-path="url(#p32c390ea0f)" d="M 243.710414 268.714737 
C 245.334445 268.714737 246.892178 268.069503 248.040541 266.92114 
C 249.188905 265.772777 249.834139 264.215043 249.834139 262.591013 
C 249.834139 260.966982 249.188905 259.409249 248.040541 258.260886 
C 246.892178 257.112523 245.334445 256.467288 243.710414 256.467288 
C 242.086384 256.467288 240.528651 257.112523 239.380287 258.260886 
C 238.231924 259.409249 237.58669 260.966982 237.58669 262.591013 
C 237.58669 264.215043 238.231924 265.772777 239.380287 266.92114 
C 240.528651 268.069503 242.086384 268.714737 243.710414 268.714737 
z
" style="fill:#00fa9a;stroke:#00fa9a;"/>
    <path clip-path="url(#p32c390ea0f)" d="M 270.798793 410.784446 
C 273.279541 410.784446 275.659017 409.798834 277.413171 408.04468 
C 279.167325 406.290527 280.152936 403.91105 280.152936 401.430302 
C 280.152936 398.949554 279.167325 396.570077 277.413171 394.815924 
C 275.659017 393.06177 273.279541 392.076159 270.798793 392.076159 
C 268.318045 392.076159 265.938568 393.06177 264.184414 394.815924 
C 262.430261 396.570077 261.444649 398.949554 261.444649 401.430302 
C 261.444649 403.91105 262.430261 406.290527 264.184414 408.04468 
C 265.938568 409.798834 268.318045 410.784446 270.798793 410.784446 
z
" style="fill:#008080;stroke:#008080;"/>
    <path clip-path="url(#p32c390ea0f)" d="M 251.543546 297.574478 
C 253.167577 297.574478 254.72531 296.929244 255.873673 295.780881 
C 257.022036 294.632518 257.66727 293.074785 257.66727 291.450754 
C 257.66727 289.826723 257.022036 288.26899 255.873673 287.120627 
C 254.72531 285.972264 253.167577 285.32703 251.543546 285.32703 
C 249.919515 285.32703 248.361782 285.972264 247.213419 287.120627 
C 246.065056 288.26899 245.419822 289.826723 245.419822 291.450754 
C 245.419822 293.074785 246.065056 294.632518 247.213419 295.780881 
C 248.361782 296.929244 249.919515 297.574478 251.543546 297.574478 
z
" style="fill:#b8860b;stroke:#b8860b;"/>
    <path clip-path="url(#p32c390ea0f)" d="M 264.175879 237.299817 
C 266.472606 237.299817 268.675573 236.387318 270.299604 234.763288 
C 271.923634 233.139257 272.836133 230.93629 272.836133 228.639563 
C 272.836133 226.342837 271.923634 224.13987 270.299604 222.515839 
C 268.675573 220.891808 266.472606 219.979309 264.175879 219.979309 
C 261.879153 219.979309 259.676186 220.891808 258.052155 222.515839 
C 256.428124 224.13987 255.515625 226.342837 255.515625 228.639563 
C 255.515625 230.93629 256.428124 233.139257 258.052155 234.763288 
C 259.676186 236.387318 261.879153 237.299817 264.175879 237.299817 
z
" style="fill:#deb887;stroke:#deb887;"/>
    <path clip-path="url(#p32c390ea0f)" d="M 253.594822 245.036157 
C 256.246853 245.036157 258.79062 243.982494 260.66589 242.107225 
C 262.541159 240.231956 263.594822 237.688188 263.594822 235.036157 
C 263.594822 232.384126 262.541159 229.840358 260.66589 227.965089 
C 258.79062 226.08982 256.246853 225.036157 253.594822 225.036157 
C 250.942791 225.036157 248.399023 226.08982 246.523754 227.965089 
C 244.648485 229.840358 243.594822 232.384126 243.594822 235.036157 
C 243.594822 237.688188 244.648485 240.231956 246.523754 242.107225 
C 248.399023 243.982494 250.942791 245.036157 253.594822 245.036157 
z
" style="fill:#d2691e;stroke:#d2691e;"/>
    <path clip-path="url(#p32c390ea0f)" d="M 262.433978 277.012246 
C 264.914726 277.012246 267.294203 276.026635 269.048356 274.272481 
C 270.80251 272.518328 271.788121 270.138851 271.788121 267.658103 
C 271.788121 265.177355 270.80251 262.797878 269.048356 261.043725 
C 267.294203 259.289571 264.914726 258.303959 262.433978 258.303959 
C 259.95323 258.303959 257.573753 259.289571 255.8196 261.043725 
C 254.065446 262.797878 253.079834 265.177355 253.079834 267.658103 
C 253.079834 270.138851 254.065446 272.518328 255.8196 274.272481 
C 257.573753 276.026635 259.95323 277.012246 262.433978 277.012246 
z
" style="fill:#9acd32;stroke:#9acd32;"/>
    <path clip-path="url(#p32c390ea0f)" d="M 243.135376 267.490629 
C 245.231991 267.490629 247.243016 266.657635 248.725546 265.175105 
C 250.208077 263.692575 251.04107 261.68155 251.04107 259.584935 
C 251.04107 257.48832 250.208077 255.477296 248.725546 253.994765 
C 247.243016 252.512235 245.231991 251.679241 243.135376 251.679241 
C 241.038762 251.679241 239.027737 252.512235 237.545206 253.994765 
C 236.062676 255.477296 235.229682 257.48832 235.229682 259.584935 
C 235.229682 261.68155 236.062676 263.692575 237.545206 265.175105 
C 239.027737 266.657635 241.038762 267.490629 243.135376 267.490629 
z
" style="fill:#32cd32;stroke:#32cd32;"/>
    <path clip-path="url(#p32c390ea0f)" d="M 237.133704 318.157897 
C 238.757735 318.157897 240.315468 317.512663 241.463831 316.3643 
C 242.612194 315.215936 243.257428 313.658203 243.257428 312.034173 
C 243.257428 310.410142 242.612194 308.852409 241.463831 307.704046 
C 240.315468 306.555682 238.757735 305.910448 237.133704 305.910448 
C 235.509673 305.910448 233.95194 306.555682 232.803577 307.704046 
C 231.655214 308.852409 231.00998 310.410142 231.00998 312.034173 
C 231.00998 313.658203 231.655214 315.215936 232.803577 316.3643 
C 233.95194 317.512663 235.509673 318.157897 237.133704 318.157897 
z
" style="fill:#8fbc8f;stroke:#8fbc8f;"/>
    <path clip-path="url(#p32c390ea0f)" d="M 268.816242 214.815981 
C 270.440272 214.815981 271.998005 214.170747 273.146369 213.022384 
C 274.294732 211.874021 274.939966 210.316288 274.939966 208.692257 
C 274.939966 207.068226 274.294732 205.510493 273.146369 204.36213 
C 271.998005 203.213767 270.440272 202.568533 268.816242 202.568533 
C 267.192211 202.568533 265.634478 203.213767 264.486115 204.36213 
C 263.337751 205.510493 262.692517 207.068226 262.692517 208.692257 
C 262.692517 210.316288 263.337751 211.874021 264.486115 213.022384 
C 265.634478 214.170747 267.192211 214.815981 268.816242 214.815981 
z
" style="fill:#800080;stroke:#800080;"/>
    <path clip-path="url(#p32c390ea0f)" d="M 236.423924 251.813895 
C 238.299193 251.813895 240.097909 251.068842 241.423924 249.742827 
C 242.74994 248.416811 243.494992 246.618096 243.494992 244.742827 
C 243.494992 242.867558 242.74994 241.068842 241.423924 239.742827 
C 240.097909 238.416811 238.299193 237.671759 236.423924 237.671759 
C 234.548655 237.671759 232.74994 238.416811 231.423924 239.742827 
C 230.097909 241.068842 229.352856 242.867558 229.352856 244.742827 
C 229.352856 246.618096 230.097909 248.416811 231.423924 249.742827 
C 232.74994 251.068842 234.548655 251.813895 236.423924 251.813895 
z
" style="fill:#b03060;stroke:#b03060;"/>
    <path clip-path="url(#p32c390ea0f)" d="M 236.582617 445.514768 
C 238.457886 445.514768 240.256601 444.769716 241.582617 443.4437 
C 242.908632 442.117685 243.653685 440.318969 243.653685 438.4437 
C 243.653685 436.568431 242.908632 434.769716 241.582617 433.4437 
C 240.256601 432.117685 238.457886 431.372632 236.582617 431.372632 
C 234.707348 431.372632 232.908632 432.117685 231.582617 433.4437 
C 230.256601 434.769716 229.511549 436.568431 229.511549 438.4437 
C 229.511549 440.318969 230.256601 442.117685 231.582617 443.4437 
C 232.908632 444.769716 234.707348 445.514768 236.582617 445.514768 
z
" style="fill:#9932cc;stroke:#9932cc;"/>
    <path clip-path="url(#p32c390ea0f)" d="M 256.785043 356.902553 
C 258.409074 356.902553 259.966807 356.257319 261.11517 355.108956 
C 262.263534 353.960593 262.908768 352.402859 262.908768 350.778829 
C 262.908768 349.154798 262.263534 347.597065 261.11517 346.448702 
C 259.966807 345.300339 258.409074 344.655104 256.785043 344.655104 
C 255.161013 344.655104 253.60328 345.300339 252.454916 346.448702 
C 251.306553 347.597065 250.661319 349.154798 250.661319 350.778829 
C 250.661319 352.402859 251.306553 353.960593 252.454916 355.108956 
C 253.60328 356.257319 255.161013 356.902553 256.785043 356.902553 
z
" style="fill:#ff4500;stroke:#ff4500;"/>
    <path clip-path="url(#p32c390ea0f)" d="M 275.541072 311.071272 
C 277.165103 311.071272 278.722836 310.426038 279.871199 309.277675 
C 281.019562 308.129311 281.664796 306.571578 281.664796 304.947548 
C 281.664796 303.323517 281.019562 301.765784 279.871199 300.617421 
C 278.722836 299.469057 277.165103 298.823823 275.541072 298.823823 
C 273.917041 298.823823 272.359308 299.469057 271.210945 300.617421 
C 270.062582 301.765784 269.417348 303.323517 269.417348 304.947548 
C 269.417348 306.571578 270.062582 308.129311 271.210945 309.277675 
C 272.359308 310.426038 273.917041 311.071272 275.541072 311.071272 
z
" style="fill:#00ced1;stroke:#00ced1;"/>
    <path clip-path="url(#p32c390ea0f)" d="M 261.902045 299.102387 
C 263.526076 299.102387 265.083809 298.457153 266.232172 297.30879 
C 267.380535 296.160427 268.025769 294.602693 268.025769 292.978663 
C 268.025769 291.354632 267.380535 289.796899 266.232172 288.648536 
C 265.083809 287.500173 263.526076 286.854938 261.902045 286.854938 
C 260.278014 286.854938 258.720281 287.500173 257.571918 288.648536 
C 256.423555 289.796899 255.778321 291.354632 255.778321 292.978663 
C 255.778321 294.602693 256.423555 296.160427 257.571918 297.30879 
C 258.720281 298.457153 260.278014 299.102387 261.902045 299.102387 
z
" style="fill:#ff8c00;stroke:#ff8c00;"/>
    <path clip-path="url(#p32c390ea0f)" d="M 235.718292 375.469263 
C 237.342322 375.469263 238.900055 374.824029 240.048419 373.675666 
C 241.196782 372.527303 241.842016 370.96957 241.842016 369.345539 
C 241.842016 367.721508 241.196782 366.163775 240.048419 365.015412 
C 238.900055 363.867049 237.342322 363.221815 235.718292 363.221815 
C 234.094261 363.221815 232.536528 363.867049 231.388165 365.015412 
C 230.239801 366.163775 229.594567 367.721508 229.594567 369.345539 
C 229.594567 370.96957 230.239801 372.527303 231.388165 373.675666 
C 232.536528 374.824029 234.094261 375.469263 235.718292 375.469263 
z
" style="fill:#0000cd;stroke:#0000cd;"/>
    <path clip-path="url(#p32c390ea0f)" d="M 250.191228 383.133966 
C 251.815259 383.133966 253.372992 382.488732 254.521355 381.340369 
C 255.669719 380.192006 256.314953 378.634272 256.314953 377.010242 
C 256.314953 375.386211 255.669719 373.828478 254.521355 372.680115 
C 253.372992 371.531752 251.815259 370.886517 250.191228 370.886517 
C 248.567198 370.886517 247.009464 371.531752 245.861101 372.680115 
C 244.712738 373.828478 244.067504 375.386211 244.067504 377.010242 
C 244.067504 378.634272 244.712738 380.192006 245.861101 381.340369 
C 247.009464 382.488732 248.567198 383.133966 250.191228 383.133966 
z
" style="fill:#00ff00;stroke:#00ff00;"/>
   </g>
   <g id="matplotlib.axis_1">
    <g id="xtick_1">
     <g id="line2d_1">
      <defs>
       <path d="M 0 0 
L 0 3.5 
" id="m8bf8cb4e63" style="stroke:#000000;stroke-width:0.8;"/>
      </defs>
      <g>
       <use style="stroke:#000000;stroke-width:0.8;" x="258.3" xlink:href="#m8bf8cb4e63" y="576.72"/>
      </g>
     </g>
     <g id="text_1">
      <!-- MeanPD -->
      <g transform="translate(237.811719 591.318438)scale(0.1 -0.1)">
       <defs>
        <path d="M 9.8125 72.90625 
L 24.515625 72.90625 
L 43.109375 23.296875 
L 61.8125 72.90625 
L 76.515625 72.90625 
L 76.515625 0 
L 66.890625 0 
L 66.890625 64.015625 
L 48.09375 14.015625 
L 38.1875 14.015625 
L 19.390625 64.015625 
L 19.390625 0 
L 9.8125 0 
z
" id="DejaVuSans-77"/>
        <path d="M 56.203125 29.59375 
L 56.203125 25.203125 
L 14.890625 25.203125 
Q 15.484375 15.921875 20.484375 11.0625 
Q 25.484375 6.203125 34.421875 6.203125 
Q 39.59375 6.203125 44.453125 7.46875 
Q 49.3125 8.734375 54.109375 11.28125 
L 54.109375 2.78125 
Q 49.265625 0.734375 44.1875 -0.34375 
Q 39.109375 -1.421875 33.890625 -1.421875 
Q 20.796875 -1.421875 13.15625 6.1875 
Q 5.515625 13.8125 5.515625 26.8125 
Q 5.515625 40.234375 12.765625 48.109375 
Q 20.015625 56 32.328125 56 
Q 43.359375 56 49.78125 48.890625 
Q 56.203125 41.796875 56.203125 29.59375 
z
M 47.21875 32.234375 
Q 47.125 39.59375 43.09375 43.984375 
Q 39.0625 48.390625 32.421875 48.390625 
Q 24.90625 48.390625 20.390625 44.140625 
Q 15.875 39.890625 15.1875 32.171875 
z
" id="DejaVuSans-101"/>
        <path d="M 34.28125 27.484375 
Q 23.390625 27.484375 19.1875 25 
Q 14.984375 22.515625 14.984375 16.5 
Q 14.984375 11.71875 18.140625 8.90625 
Q 21.296875 6.109375 26.703125 6.109375 
Q 34.1875 6.109375 38.703125 11.40625 
Q 43.21875 16.703125 43.21875 25.484375 
L 43.21875 27.484375 
z
M 52.203125 31.203125 
L 52.203125 0 
L 43.21875 0 
L 43.21875 8.296875 
Q 40.140625 3.328125 35.546875 0.953125 
Q 30.953125 -1.421875 24.3125 -1.421875 
Q 15.921875 -1.421875 10.953125 3.296875 
Q 6 8.015625 6 15.921875 
Q 6 25.140625 12.171875 29.828125 
Q 18.359375 34.515625 30.609375 34.515625 
L 43.21875 34.515625 
L 43.21875 35.40625 
Q 43.21875 41.609375 39.140625 45 
Q 35.0625 48.390625 27.6875 48.390625 
Q 23 48.390625 18.546875 47.265625 
Q 14.109375 46.140625 10.015625 43.890625 
L 10.015625 52.203125 
Q 14.9375 54.109375 19.578125 55.046875 
Q 24.21875 56 28.609375 56 
Q 40.484375 56 46.34375 49.84375 
Q 52.203125 43.703125 52.203125 31.203125 
z
" id="DejaVuSans-97"/>
        <path d="M 54.890625 33.015625 
L 54.890625 0 
L 45.90625 0 
L 45.90625 32.71875 
Q 45.90625 40.484375 42.875 44.328125 
Q 39.84375 48.1875 33.796875 48.1875 
Q 26.515625 48.1875 22.3125 43.546875 
Q 18.109375 38.921875 18.109375 30.90625 
L 18.109375 0 
L 9.078125 0 
L 9.078125 54.6875 
L 18.109375 54.6875 
L 18.109375 46.1875 
Q 21.34375 51.125 25.703125 53.5625 
Q 30.078125 56 35.796875 56 
Q 45.21875 56 50.046875 50.171875 
Q 54.890625 44.34375 54.890625 33.015625 
z
" id="DejaVuSans-110"/>
        <path d="M 19.671875 64.796875 
L 19.671875 37.40625 
L 32.078125 37.40625 
Q 38.96875 37.40625 42.71875 40.96875 
Q 46.484375 44.53125 46.484375 51.125 
Q 46.484375 57.671875 42.71875 61.234375 
Q 38.96875 64.796875 32.078125 64.796875 
z
M 9.8125 72.90625 
L 32.078125 72.90625 
Q 44.34375 72.90625 50.609375 67.359375 
Q 56.890625 61.8125 56.890625 51.125 
Q 56.890625 40.328125 50.609375 34.8125 
Q 44.34375 29.296875 32.078125 29.296875 
L 19.671875 29.296875 
L 19.671875 0 
L 9.8125 0 
z
" id="DejaVuSans-80"/>
        <path d="M 19.671875 64.796875 
L 19.671875 8.109375 
L 31.59375 8.109375 
Q 46.6875 8.109375 53.6875 14.9375 
Q 60.6875 21.78125 60.6875 36.53125 
Q 60.6875 51.171875 53.6875 57.984375 
Q 46.6875 64.796875 31.59375 64.796875 
z
M 9.8125 72.90625 
L 30.078125 72.90625 
Q 51.265625 72.90625 61.171875 64.09375 
Q 71.09375 55.28125 71.09375 36.53125 
Q 71.09375 17.671875 61.125 8.828125 
Q 51.171875 0 30.078125 0 
L 9.8125 0 
z
" id="DejaVuSans-68"/>
       </defs>
       <use xlink:href="#DejaVuSans-77"/>
       <use x="86.279297" xlink:href="#DejaVuSans-101"/>
       <use x="147.802734" xlink:href="#DejaVuSans-97"/>
       <use x="209.082031" xlink:href="#DejaVuSans-110"/>
       <use x="272.460938" xlink:href="#DejaVuSans-80"/>
       <use x="332.763672" xlink:href="#DejaVuSans-68"/>
      </g>
     </g>
    </g>
   </g>
   <g id="matplotlib.axis_2">
    <g id="ytick_1">
     <g id="line2d_2">
      <defs>
       <path d="M 0 0 
L -3.5 0 
" id="mb612a8163b" style="stroke:#000000;stroke-width:0.8;"/>
      </defs>
      <g>
       <use style="stroke:#000000;stroke-width:0.8;" x="63" xlink:href="#mb612a8163b" y="576.72"/>
      </g>
     </g>
     <g id="text_2">
      <!-- −3.5 -->
      <g transform="translate(31.717187 580.519219)scale(0.1 -0.1)">
       <defs>
        <path d="M 10.59375 35.5 
L 73.1875 35.5 
L 73.1875 27.203125 
L 10.59375 27.203125 
z
" id="DejaVuSans-8722"/>
        <path d="M 40.578125 39.3125 
Q 47.65625 37.796875 51.625 33 
Q 55.609375 28.21875 55.609375 21.1875 
Q 55.609375 10.40625 48.1875 4.484375 
Q 40.765625 -1.421875 27.09375 -1.421875 
Q 22.515625 -1.421875 17.65625 -0.515625 
Q 12.796875 0.390625 7.625 2.203125 
L 7.625 11.71875 
Q 11.71875 9.328125 16.59375 8.109375 
Q 21.484375 6.890625 26.8125 6.890625 
Q 36.078125 6.890625 40.9375 10.546875 
Q 45.796875 14.203125 45.796875 21.1875 
Q 45.796875 27.640625 41.28125 31.265625 
Q 36.765625 34.90625 28.71875 34.90625 
L 20.21875 34.90625 
L 20.21875 43.015625 
L 29.109375 43.015625 
Q 36.375 43.015625 40.234375 45.921875 
Q 44.09375 48.828125 44.09375 54.296875 
Q 44.09375 59.90625 40.109375 62.90625 
Q 36.140625 65.921875 28.71875 65.921875 
Q 24.65625 65.921875 20.015625 65.03125 
Q 15.375 64.15625 9.8125 62.3125 
L 9.8125 71.09375 
Q 15.4375 72.65625 20.34375 73.4375 
Q 25.25 74.21875 29.59375 74.21875 
Q 40.828125 74.21875 47.359375 69.109375 
Q 53.90625 64.015625 53.90625 55.328125 
Q 53.90625 49.265625 50.4375 45.09375 
Q 46.96875 40.921875 40.578125 39.3125 
z
" id="DejaVuSans-51"/>
        <path d="M 10.6875 12.40625 
L 21 12.40625 
L 21 0 
L 10.6875 0 
z
" id="DejaVuSans-46"/>
        <path d="M 10.796875 72.90625 
L 49.515625 72.90625 
L 49.515625 64.59375 
L 19.828125 64.59375 
L 19.828125 46.734375 
Q 21.96875 47.46875 24.109375 47.828125 
Q 26.265625 48.1875 28.421875 48.1875 
Q 40.625 48.1875 47.75 41.5 
Q 54.890625 34.8125 54.890625 23.390625 
Q 54.890625 11.625 47.5625 5.09375 
Q 40.234375 -1.421875 26.90625 -1.421875 
Q 22.3125 -1.421875 17.546875 -0.640625 
Q 12.796875 0.140625 7.71875 1.703125 
L 7.71875 11.625 
Q 12.109375 9.234375 16.796875 8.0625 
Q 21.484375 6.890625 26.703125 6.890625 
Q 35.15625 6.890625 40.078125 11.328125 
Q 45.015625 15.765625 45.015625 23.390625 
Q 45.015625 31 40.078125 35.4375 
Q 35.15625 39.890625 26.703125 39.890625 
Q 22.75 39.890625 18.8125 39.015625 
Q 14.890625 38.140625 10.796875 36.28125 
z
" id="DejaVuSans-53"/>
       </defs>
       <use xlink:href="#DejaVuSans-8722"/>
       <use x="83.789062" xlink:href="#DejaVuSans-51"/>
       <use x="147.412109" xlink:href="#DejaVuSans-46"/>
       <use x="179.199219" xlink:href="#DejaVuSans-53"/>
      </g>
     </g>
    </g>
    <g id="ytick_2">
     <g id="line2d_3">
      <g>
       <use style="stroke:#000000;stroke-width:0.8;" x="63" xlink:href="#mb612a8163b" y="538.92"/>
      </g>
     </g>
     <g id="text_3">
      <!-- −3.0 -->
      <g transform="translate(31.717187 542.719219)scale(0.1 -0.1)">
       <defs>
        <path d="M 31.78125 66.40625 
Q 24.171875 66.40625 20.328125 58.90625 
Q 16.5 51.421875 16.5 36.375 
Q 16.5 21.390625 20.328125 13.890625 
Q 24.171875 6.390625 31.78125 6.390625 
Q 39.453125 6.390625 43.28125 13.890625 
Q 47.125 21.390625 47.125 36.375 
Q 47.125 51.421875 43.28125 58.90625 
Q 39.453125 66.40625 31.78125 66.40625 
z
M 31.78125 74.21875 
Q 44.046875 74.21875 50.515625 64.515625 
Q 56.984375 54.828125 56.984375 36.375 
Q 56.984375 17.96875 50.515625 8.265625 
Q 44.046875 -1.421875 31.78125 -1.421875 
Q 19.53125 -1.421875 13.0625 8.265625 
Q 6.59375 17.96875 6.59375 36.375 
Q 6.59375 54.828125 13.0625 64.515625 
Q 19.53125 74.21875 31.78125 74.21875 
z
" id="DejaVuSans-48"/>
       </defs>
       <use xlink:href="#DejaVuSans-8722"/>
       <use x="83.789062" xlink:href="#DejaVuSans-51"/>
       <use x="147.412109" xlink:href="#DejaVuSans-46"/>
       <use x="179.199219" xlink:href="#DejaVuSans-48"/>
      </g>
     </g>
    </g>
    <g id="ytick_3">
     <g id="line2d_4">
      <g>
       <use style="stroke:#000000;stroke-width:0.8;" x="63" xlink:href="#mb612a8163b" y="501.12"/>
      </g>
     </g>
     <g id="text_4">
      <!-- −2.5 -->
      <g transform="translate(31.717187 504.919219)scale(0.1 -0.1)">
       <defs>
        <path d="M 19.1875 8.296875 
L 53.609375 8.296875 
L 53.609375 0 
L 7.328125 0 
L 7.328125 8.296875 
Q 12.9375 14.109375 22.625 23.890625 
Q 32.328125 33.6875 34.8125 36.53125 
Q 39.546875 41.84375 41.421875 45.53125 
Q 43.3125 49.21875 43.3125 52.78125 
Q 43.3125 58.59375 39.234375 62.25 
Q 35.15625 65.921875 28.609375 65.921875 
Q 23.96875 65.921875 18.8125 64.3125 
Q 13.671875 62.703125 7.8125 59.421875 
L 7.8125 69.390625 
Q 13.765625 71.78125 18.9375 73 
Q 24.125 74.21875 28.421875 74.21875 
Q 39.75 74.21875 46.484375 68.546875 
Q 53.21875 62.890625 53.21875 53.421875 
Q 53.21875 48.921875 51.53125 44.890625 
Q 49.859375 40.875 45.40625 35.40625 
Q 44.1875 33.984375 37.640625 27.21875 
Q 31.109375 20.453125 19.1875 8.296875 
z
" id="DejaVuSans-50"/>
       </defs>
       <use xlink:href="#DejaVuSans-8722"/>
       <use x="83.789062" xlink:href="#DejaVuSans-50"/>
       <use x="147.412109" xlink:href="#DejaVuSans-46"/>
       <use x="179.199219" xlink:href="#DejaVuSans-53"/>
      </g>
     </g>
    </g>
    <g id="ytick_4">
     <g id="line2d_5">
      <g>
       <use style="stroke:#000000;stroke-width:0.8;" x="63" xlink:href="#mb612a8163b" y="463.32"/>
      </g>
     </g>
     <g id="text_5">
      <!-- −2.0 -->
      <g transform="translate(31.717187 467.119219)scale(0.1 -0.1)">
       <use xlink:href="#DejaVuSans-8722"/>
       <use x="83.789062" xlink:href="#DejaVuSans-50"/>
       <use x="147.412109" xlink:href="#DejaVuSans-46"/>
       <use x="179.199219" xlink:href="#DejaVuSans-48"/>
      </g>
     </g>
    </g>
    <g id="ytick_5">
     <g id="line2d_6">
      <g>
       <use style="stroke:#000000;stroke-width:0.8;" x="63" xlink:href="#mb612a8163b" y="425.52"/>
      </g>
     </g>
     <g id="text_6">
      <!-- −1.5 -->
      <g transform="translate(31.717187 429.319219)scale(0.1 -0.1)">
       <defs>
        <path d="M 12.40625 8.296875 
L 28.515625 8.296875 
L 28.515625 63.921875 
L 10.984375 60.40625 
L 10.984375 69.390625 
L 28.421875 72.90625 
L 38.28125 72.90625 
L 38.28125 8.296875 
L 54.390625 8.296875 
L 54.390625 0 
L 12.40625 0 
z
" id="DejaVuSans-49"/>
       </defs>
       <use xlink:href="#DejaVuSans-8722"/>
       <use x="83.789062" xlink:href="#DejaVuSans-49"/>
       <use x="147.412109" xlink:href="#DejaVuSans-46"/>
       <use x="179.199219" xlink:href="#DejaVuSans-53"/>
      </g>
     </g>
    </g>
    <g id="ytick_6">
     <g id="line2d_7">
      <g>
       <use style="stroke:#000000;stroke-width:0.8;" x="63" xlink:href="#mb612a8163b" y="387.72"/>
      </g>
     </g>
     <g id="text_7">
      <!-- −1.0 -->
      <g transform="translate(31.717187 391.519219)scale(0.1 -0.1)">
       <use xlink:href="#DejaVuSans-8722"/>
       <use x="83.789062" xlink:href="#DejaVuSans-49"/>
       <use x="147.412109" xlink:href="#DejaVuSans-46"/>
       <use x="179.199219" xlink:href="#DejaVuSans-48"/>
      </g>
     </g>
    </g>
    <g id="ytick_7">
     <g id="line2d_8">
      <g>
       <use style="stroke:#000000;stroke-width:0.8;" x="63" xlink:href="#mb612a8163b" y="349.92"/>
      </g>
     </g>
     <g id="text_8">
      <!-- −0.5 -->
      <g transform="translate(31.717187 353.719219)scale(0.1 -0.1)">
       <use xlink:href="#DejaVuSans-8722"/>
       <use x="83.789062" xlink:href="#DejaVuSans-48"/>
       <use x="147.412109" xlink:href="#DejaVuSans-46"/>
       <use x="179.199219" xlink:href="#DejaVuSans-53"/>
      </g>
     </g>
    </g>
    <g id="ytick_8">
     <g id="line2d_9">
      <g>
       <use style="stroke:#000000;stroke-width:0.8;" x="63" xlink:href="#mb612a8163b" y="312.12"/>
      </g>
     </g>
     <g id="text_9">
      <!-- 0.0 -->
      <g transform="translate(40.096875 315.919219)scale(0.1 -0.1)">
       <use xlink:href="#DejaVuSans-48"/>
       <use x="63.623047" xlink:href="#DejaVuSans-46"/>
       <use x="95.410156" xlink:href="#DejaVuSans-48"/>
      </g>
     </g>
    </g>
    <g id="ytick_9">
     <g id="line2d_10">
      <g>
       <use style="stroke:#000000;stroke-width:0.8;" x="63" xlink:href="#mb612a8163b" y="274.32"/>
      </g>
     </g>
     <g id="text_10">
      <!-- 0.5 -->
      <g transform="translate(40.096875 278.119219)scale(0.1 -0.1)">
       <use xlink:href="#DejaVuSans-48"/>
       <use x="63.623047" xlink:href="#DejaVuSans-46"/>
       <use x="95.410156" xlink:href="#DejaVuSans-53"/>
      </g>
     </g>
    </g>
    <g id="ytick_10">
     <g id="line2d_11">
      <g>
       <use style="stroke:#000000;stroke-width:0.8;" x="63" xlink:href="#mb612a8163b" y="236.52"/>
      </g>
     </g>
     <g id="text_11">
      <!-- 1.0 -->
      <g transform="translate(40.096875 240.319219)scale(0.1 -0.1)">
       <use xlink:href="#DejaVuSans-49"/>
       <use x="63.623047" xlink:href="#DejaVuSans-46"/>
       <use x="95.410156" xlink:href="#DejaVuSans-48"/>
      </g>
     </g>
    </g>
    <g id="ytick_11">
     <g id="line2d_12">
      <g>
       <use style="stroke:#000000;stroke-width:0.8;" x="63" xlink:href="#mb612a8163b" y="198.72"/>
      </g>
     </g>
     <g id="text_12">
      <!-- 1.5 -->
      <g transform="translate(40.096875 202.519219)scale(0.1 -0.1)">
       <use xlink:href="#DejaVuSans-49"/>
       <use x="63.623047" xlink:href="#DejaVuSans-46"/>
       <use x="95.410156" xlink:href="#DejaVuSans-53"/>
      </g>
     </g>
    </g>
    <g id="ytick_12">
     <g id="line2d_13">
      <g>
       <use style="stroke:#000000;stroke-width:0.8;" x="63" xlink:href="#mb612a8163b" y="160.92"/>
      </g>
     </g>
     <g id="text_13">
      <!-- 2.0 -->
      <g transform="translate(40.096875 164.719219)scale(0.1 -0.1)">
       <use xlink:href="#DejaVuSans-50"/>
       <use x="63.623047" xlink:href="#DejaVuSans-46"/>
       <use x="95.410156" xlink:href="#DejaVuSans-48"/>
      </g>
     </g>
    </g>
    <g id="ytick_13">
     <g id="line2d_14">
      <g>
       <use style="stroke:#000000;stroke-width:0.8;" x="63" xlink:href="#mb612a8163b" y="123.12"/>
      </g>
     </g>
     <g id="text_14">
      <!-- 2.5 -->
      <g transform="translate(40.096875 126.919219)scale(0.1 -0.1)">
       <use xlink:href="#DejaVuSans-50"/>
       <use x="63.623047" xlink:href="#DejaVuSans-46"/>
       <use x="95.410156" xlink:href="#DejaVuSans-53"/>
      </g>
     </g>
    </g>
    <g id="ytick_14">
     <g id="line2d_15">
      <g>
       <use style="stroke:#000000;stroke-width:0.8;" x="63" xlink:href="#mb612a8163b" y="85.32"/>
      </g>
     </g>
     <g id="text_15">
      <!-- 3.0 -->
      <g transform="translate(40.096875 89.119219)scale(0.1 -0.1)">
       <use xlink:href="#DejaVuSans-51"/>
       <use x="63.623047" xlink:href="#DejaVuSans-46"/>
       <use x="95.410156" xlink:href="#DejaVuSans-48"/>
      </g>
     </g>
    </g>
    <g id="text_16">
     <!-- LogOdds -->
     <g transform="translate(25.6375 349.061094)rotate(-90)scale(0.1 -0.1)">
      <defs>
       <path d="M 9.8125 72.90625 
L 19.671875 72.90625 
L 19.671875 8.296875 
L 55.171875 8.296875 
L 55.171875 0 
L 9.8125 0 
z
" id="DejaVuSans-76"/>
       <path d="M 30.609375 48.390625 
Q 23.390625 48.390625 19.1875 42.75 
Q 14.984375 37.109375 14.984375 27.296875 
Q 14.984375 17.484375 19.15625 11.84375 
Q 23.34375 6.203125 30.609375 6.203125 
Q 37.796875 6.203125 41.984375 11.859375 
Q 46.1875 17.53125 46.1875 27.296875 
Q 46.1875 37.015625 41.984375 42.703125 
Q 37.796875 48.390625 30.609375 48.390625 
z
M 30.609375 56 
Q 42.328125 56 49.015625 48.375 
Q 55.71875 40.765625 55.71875 27.296875 
Q 55.71875 13.875 49.015625 6.21875 
Q 42.328125 -1.421875 30.609375 -1.421875 
Q 18.84375 -1.421875 12.171875 6.21875 
Q 5.515625 13.875 5.515625 27.296875 
Q 5.515625 40.765625 12.171875 48.375 
Q 18.84375 56 30.609375 56 
z
" id="DejaVuSans-111"/>
       <path d="M 45.40625 27.984375 
Q 45.40625 37.75 41.375 43.109375 
Q 37.359375 48.484375 30.078125 48.484375 
Q 22.859375 48.484375 18.828125 43.109375 
Q 14.796875 37.75 14.796875 27.984375 
Q 14.796875 18.265625 18.828125 12.890625 
Q 22.859375 7.515625 30.078125 7.515625 
Q 37.359375 7.515625 41.375 12.890625 
Q 45.40625 18.265625 45.40625 27.984375 
z
M 54.390625 6.78125 
Q 54.390625 -7.171875 48.1875 -13.984375 
Q 42 -20.796875 29.203125 -20.796875 
Q 24.46875 -20.796875 20.265625 -20.09375 
Q 16.0625 -19.390625 12.109375 -17.921875 
L 12.109375 -9.1875 
Q 16.0625 -11.328125 19.921875 -12.34375 
Q 23.78125 -13.375 27.78125 -13.375 
Q 36.625 -13.375 41.015625 -8.765625 
Q 45.40625 -4.15625 45.40625 5.171875 
L 45.40625 9.625 
Q 42.625 4.78125 38.28125 2.390625 
Q 33.9375 0 27.875 0 
Q 17.828125 0 11.671875 7.65625 
Q 5.515625 15.328125 5.515625 27.984375 
Q 5.515625 40.671875 11.671875 48.328125 
Q 17.828125 56 27.875 56 
Q 33.9375 56 38.28125 53.609375 
Q 42.625 51.21875 45.40625 46.390625 
L 45.40625 54.6875 
L 54.390625 54.6875 
z
" id="DejaVuSans-103"/>
       <path d="M 39.40625 66.21875 
Q 28.65625 66.21875 22.328125 58.203125 
Q 16.015625 50.203125 16.015625 36.375 
Q 16.015625 22.609375 22.328125 14.59375 
Q 28.65625 6.59375 39.40625 6.59375 
Q 50.140625 6.59375 56.421875 14.59375 
Q 62.703125 22.609375 62.703125 36.375 
Q 62.703125 50.203125 56.421875 58.203125 
Q 50.140625 66.21875 39.40625 66.21875 
z
M 39.40625 74.21875 
Q 54.734375 74.21875 63.90625 63.9375 
Q 73.09375 53.65625 73.09375 36.375 
Q 73.09375 19.140625 63.90625 8.859375 
Q 54.734375 -1.421875 39.40625 -1.421875 
Q 24.03125 -1.421875 14.8125 8.828125 
Q 5.609375 19.09375 5.609375 36.375 
Q 5.609375 53.65625 14.8125 63.9375 
Q 24.03125 74.21875 39.40625 74.21875 
z
" id="DejaVuSans-79"/>
       <path d="M 45.40625 46.390625 
L 45.40625 75.984375 
L 54.390625 75.984375 
L 54.390625 0 
L 45.40625 0 
L 45.40625 8.203125 
Q 42.578125 3.328125 38.25 0.953125 
Q 33.9375 -1.421875 27.875 -1.421875 
Q 17.96875 -1.421875 11.734375 6.484375 
Q 5.515625 14.40625 5.515625 27.296875 
Q 5.515625 40.1875 11.734375 48.09375 
Q 17.96875 56 27.875 56 
Q 33.9375 56 38.25 53.625 
Q 42.578125 51.265625 45.40625 46.390625 
z
M 14.796875 27.296875 
Q 14.796875 17.390625 18.875 11.75 
Q 22.953125 6.109375 30.078125 6.109375 
Q 37.203125 6.109375 41.296875 11.75 
Q 45.40625 17.390625 45.40625 27.296875 
Q 45.40625 37.203125 41.296875 42.84375 
Q 37.203125 48.484375 30.078125 48.484375 
Q 22.953125 48.484375 18.875 42.84375 
Q 14.796875 37.203125 14.796875 27.296875 
z
" id="DejaVuSans-100"/>
       <path d="M 44.28125 53.078125 
L 44.28125 44.578125 
Q 40.484375 46.53125 36.375 47.5 
Q 32.28125 48.484375 27.875 48.484375 
Q 21.1875 48.484375 17.84375 46.4375 
Q 14.5 44.390625 14.5 40.28125 
Q 14.5 37.15625 16.890625 35.375 
Q 19.28125 33.59375 26.515625 31.984375 
L 29.59375 31.296875 
Q 39.15625 29.25 43.1875 25.515625 
Q 47.21875 21.78125 47.21875 15.09375 
Q 47.21875 7.46875 41.1875 3.015625 
Q 35.15625 -1.421875 24.609375 -1.421875 
Q 20.21875 -1.421875 15.453125 -0.5625 
Q 10.6875 0.296875 5.421875 2 
L 5.421875 11.28125 
Q 10.40625 8.6875 15.234375 7.390625 
Q 20.0625 6.109375 24.8125 6.109375 
Q 31.15625 6.109375 34.5625 8.28125 
Q 37.984375 10.453125 37.984375 14.40625 
Q 37.984375 18.0625 35.515625 20.015625 
Q 33.0625 21.96875 24.703125 23.78125 
L 21.578125 24.515625 
Q 13.234375 26.265625 9.515625 29.90625 
Q 5.8125 33.546875 5.8125 39.890625 
Q 5.8125 47.609375 11.28125 51.796875 
Q 16.75 56 26.8125 56 
Q 31.78125 56 36.171875 55.265625 
Q 40.578125 54.546875 44.28125 53.078125 
z
" id="DejaVuSans-115"/>
      </defs>
      <use xlink:href="#DejaVuSans-76"/>
      <use x="53.962891" xlink:href="#DejaVuSans-111"/>
      <use x="115.144531" xlink:href="#DejaVuSans-103"/>
      <use x="178.621094" xlink:href="#DejaVuSans-79"/>
      <use x="257.332031" xlink:href="#DejaVuSans-100"/>
      <use x="320.808594" xlink:href="#DejaVuSans-100"/>
      <use x="384.285156" xlink:href="#DejaVuSans-115"/>
     </g>
    </g>
   </g>
   <g id="line2d_16">
    <path clip-path="url(#p32c390ea0f)" d="M 229.005 355.420506 
L 287.595 355.420506 
L 287.595 248.608771 
L 229.005 248.608771 
L 229.005 355.420506 
" style="fill:none;stroke:#000000;stroke-linecap:square;"/>
   </g>
   <g id="line2d_17">
    <path clip-path="url(#p32c390ea0f)" d="M 258.3 355.420506 
L 258.3 438.828755 
" style="fill:none;stroke:#000000;stroke-linecap:square;"/>
   </g>
   <g id="line2d_18">
    <path clip-path="url(#p32c390ea0f)" d="M 258.3 248.608771 
L 258.3 195.972787 
" style="fill:none;stroke:#000000;stroke-linecap:square;"/>
   </g>
   <g id="line2d_19">
    <path clip-path="url(#p32c390ea0f)" d="M 243.6525 438.828755 
L 272.9475 438.828755 
" style="fill:none;stroke:#000000;stroke-linecap:square;"/>
   </g>
   <g id="line2d_20">
    <path clip-path="url(#p32c390ea0f)" d="M 243.6525 195.972787 
L 272.9475 195.972787 
" style="fill:none;stroke:#000000;stroke-linecap:square;"/>
   </g>
   <g id="line2d_21">
    <path clip-path="url(#p32c390ea0f)" d="M 229.005 270.61966 
L 287.595 270.61966 
" style="fill:none;stroke:#ff7f0e;stroke-linecap:square;"/>
   </g>
   <g id="patch_3">
    <path d="M 63 576.72 
L 63 77.76 
" style="fill:none;stroke:#000000;stroke-linecap:square;stroke-linejoin:miter;stroke-width:0.8;"/>
   </g>
   <g id="patch_4">
    <path d="M 453.6 576.72 
L 453.6 77.76 
" style="fill:none;stroke:#000000;stroke-linecap:square;stroke-linejoin:miter;stroke-width:0.8;"/>
   </g>
   <g id="patch_5">
    <path d="M 63 576.72 
L 453.6 576.72 
" style="fill:none;stroke:#000000;stroke-linecap:square;stroke-linejoin:miter;stroke-width:0.8;"/>
   </g>
   <g id="patch_6">
    <path d="M 63 77.76 
L 453.6 77.76 
" style="fill:none;stroke:#000000;stroke-linecap:square;stroke-linejoin:miter;stroke-width:0.8;"/>
   </g>
   <g id="text_17">
    <!-- 0 -->
    <g style="fill:#2f4f4f;" transform="translate(246.266692 249.14142)scale(0.1 -0.1)">
     <use xlink:href="#DejaVuSans-48"/>
    </g>
   </g>
   <g id="text_18">
    <!-- 1 -->
    <g style="fill:#556b2f;" transform="translate(263.559162 257.571831)scale(0.1 -0.1)">
     <use xlink:href="#DejaVuSans-49"/>
    </g>
   </g>
   <g id="text_19">
    <!-- 2 -->
    <g style="fill:#8b4513;" transform="translate(255.695381 272.825216)scale(0.1 -0.1)">
     <use xlink:href="#DejaVuSans-50"/>
    </g>
   </g>
   <g id="text_20">
    <!-- 3 -->
    <g style="fill:#2e8b57;" transform="translate(253.681218 243.333711)scale(0.1 -0.1)">
     <use xlink:href="#DejaVuSans-51"/>
    </g>
   </g>
   <g id="text_21">
    <!-- 4 -->
    <g style="fill:#228b22;" transform="translate(265.787853 262.171484)scale(0.1 -0.1)">
     <defs>
      <path d="M 37.796875 64.3125 
L 12.890625 25.390625 
L 37.796875 25.390625 
z
M 35.203125 72.90625 
L 47.609375 72.90625 
L 47.609375 25.390625 
L 58.015625 25.390625 
L 58.015625 17.1875 
L 47.609375 17.1875 
L 47.609375 0 
L 37.796875 0 
L 37.796875 17.1875 
L 4.890625 17.1875 
L 4.890625 26.703125 
z
" id="DejaVuSans-52"/>
     </defs>
     <use xlink:href="#DejaVuSans-52"/>
    </g>
   </g>
   <g id="text_22">
    <!-- 5 -->
    <g style="fill:#708090;" transform="translate(261.263415 438.072755)scale(0.1 -0.1)">
     <use xlink:href="#DejaVuSans-53"/>
    </g>
   </g>
   <g id="text_23">
    <!-- 6 -->
    <g style="fill:#8b0000;" transform="translate(256.624467 195.216787)scale(0.1 -0.1)">
     <defs>
      <path d="M 33.015625 40.375 
Q 26.375 40.375 22.484375 35.828125 
Q 18.609375 31.296875 18.609375 23.390625 
Q 18.609375 15.53125 22.484375 10.953125 
Q 26.375 6.390625 33.015625 6.390625 
Q 39.65625 6.390625 43.53125 10.953125 
Q 47.40625 15.53125 47.40625 23.390625 
Q 47.40625 31.296875 43.53125 35.828125 
Q 39.65625 40.375 33.015625 40.375 
z
M 52.59375 71.296875 
L 52.59375 62.3125 
Q 48.875 64.0625 45.09375 64.984375 
Q 41.3125 65.921875 37.59375 65.921875 
Q 27.828125 65.921875 22.671875 59.328125 
Q 17.53125 52.734375 16.796875 39.40625 
Q 19.671875 43.65625 24.015625 45.921875 
Q 28.375 48.1875 33.59375 48.1875 
Q 44.578125 48.1875 50.953125 41.515625 
Q 57.328125 34.859375 57.328125 23.390625 
Q 57.328125 12.15625 50.6875 5.359375 
Q 44.046875 -1.421875 33.015625 -1.421875 
Q 20.359375 -1.421875 13.671875 8.265625 
Q 6.984375 17.96875 6.984375 36.375 
Q 6.984375 53.65625 15.1875 63.9375 
Q 23.390625 74.21875 37.203125 74.21875 
Q 40.921875 74.21875 44.703125 73.484375 
Q 48.484375 72.75 52.59375 71.296875 
z
" id="DejaVuSans-54"/>
     </defs>
     <use xlink:href="#DejaVuSans-54"/>
    </g>
   </g>
   <g id="text_24">
    <!-- 7 -->
    <g style="fill:#808000;" transform="translate(265.366262 425.517145)scale(0.1 -0.1)">
     <defs>
      <path d="M 8.203125 72.90625 
L 55.078125 72.90625 
L 55.078125 68.703125 
L 28.609375 0 
L 18.3125 0 
L 43.21875 64.59375 
L 8.203125 64.59375 
z
" id="DejaVuSans-55"/>
     </defs>
     <use xlink:href="#DejaVuSans-55"/>
    </g>
   </g>
   <g id="text_25">
    <!-- 23 -->
    <g style="fill:#00fa9a;" transform="translate(247.616414 261.835013)scale(0.1 -0.1)">
     <use xlink:href="#DejaVuSans-50"/>
     <use x="63.623047" xlink:href="#DejaVuSans-51"/>
    </g>
   </g>
   <g id="text_26">
    <!-- 8 -->
    <g style="fill:#008080;" transform="translate(274.704793 400.674302)scale(0.1 -0.1)">
     <defs>
      <path d="M 31.78125 34.625 
Q 24.75 34.625 20.71875 30.859375 
Q 16.703125 27.09375 16.703125 20.515625 
Q 16.703125 13.921875 20.71875 10.15625 
Q 24.75 6.390625 31.78125 6.390625 
Q 38.8125 6.390625 42.859375 10.171875 
Q 46.921875 13.96875 46.921875 20.515625 
Q 46.921875 27.09375 42.890625 30.859375 
Q 38.875 34.625 31.78125 34.625 
z
M 21.921875 38.8125 
Q 15.578125 40.375 12.03125 44.71875 
Q 8.5 49.078125 8.5 55.328125 
Q 8.5 64.0625 14.71875 69.140625 
Q 20.953125 74.21875 31.78125 74.21875 
Q 42.671875 74.21875 48.875 69.140625 
Q 55.078125 64.0625 55.078125 55.328125 
Q 55.078125 49.078125 51.53125 44.71875 
Q 48 40.375 41.703125 38.8125 
Q 48.828125 37.15625 52.796875 32.3125 
Q 56.78125 27.484375 56.78125 20.515625 
Q 56.78125 9.90625 50.3125 4.234375 
Q 43.84375 -1.421875 31.78125 -1.421875 
Q 19.734375 -1.421875 13.25 4.234375 
Q 6.78125 9.90625 6.78125 20.515625 
Q 6.78125 27.484375 10.78125 32.3125 
Q 14.796875 37.15625 21.921875 38.8125 
z
M 18.3125 54.390625 
Q 18.3125 48.734375 21.84375 45.5625 
Q 25.390625 42.390625 31.78125 42.390625 
Q 38.140625 42.390625 41.71875 45.5625 
Q 45.3125 48.734375 45.3125 54.390625 
Q 45.3125 60.0625 41.71875 63.234375 
Q 38.140625 66.40625 31.78125 66.40625 
Q 25.390625 66.40625 21.84375 63.234375 
Q 18.3125 60.0625 18.3125 54.390625 
z
" id="DejaVuSans-56"/>
     </defs>
     <use xlink:href="#DejaVuSans-56"/>
    </g>
   </g>
   <g id="text_27">
    <!-- 9 -->
    <g style="fill:#b8860b;" transform="translate(255.449546 290.694754)scale(0.1 -0.1)">
     <defs>
      <path d="M 10.984375 1.515625 
L 10.984375 10.5 
Q 14.703125 8.734375 18.5 7.8125 
Q 22.3125 6.890625 25.984375 6.890625 
Q 35.75 6.890625 40.890625 13.453125 
Q 46.046875 20.015625 46.78125 33.40625 
Q 43.953125 29.203125 39.59375 26.953125 
Q 35.25 24.703125 29.984375 24.703125 
Q 19.046875 24.703125 12.671875 31.3125 
Q 6.296875 37.9375 6.296875 49.421875 
Q 6.296875 60.640625 12.9375 67.421875 
Q 19.578125 74.21875 30.609375 74.21875 
Q 43.265625 74.21875 49.921875 64.515625 
Q 56.59375 54.828125 56.59375 36.375 
Q 56.59375 19.140625 48.40625 8.859375 
Q 40.234375 -1.421875 26.421875 -1.421875 
Q 22.703125 -1.421875 18.890625 -0.6875 
Q 15.09375 0.046875 10.984375 1.515625 
z
M 30.609375 32.421875 
Q 37.25 32.421875 41.125 36.953125 
Q 45.015625 41.5 45.015625 49.421875 
Q 45.015625 57.28125 41.125 61.84375 
Q 37.25 66.40625 30.609375 66.40625 
Q 23.96875 66.40625 20.09375 61.84375 
Q 16.21875 57.28125 16.21875 49.421875 
Q 16.21875 41.5 20.09375 36.953125 
Q 23.96875 32.421875 30.609375 32.421875 
z
" id="DejaVuSans-57"/>
     </defs>
     <use xlink:href="#DejaVuSans-57"/>
    </g>
   </g>
   <g id="text_28">
    <!-- 21 -->
    <g style="fill:#deb887;" transform="translate(268.081879 227.883563)scale(0.1 -0.1)">
     <use xlink:href="#DejaVuSans-50"/>
     <use x="63.623047" xlink:href="#DejaVuSans-49"/>
    </g>
   </g>
   <g id="text_29">
    <!-- 10 -->
    <g style="fill:#d2691e;" transform="translate(257.500822 234.280157)scale(0.1 -0.1)">
     <use xlink:href="#DejaVuSans-49"/>
     <use x="63.623047" xlink:href="#DejaVuSans-48"/>
    </g>
   </g>
   <g id="text_30">
    <!-- 11 -->
    <g style="fill:#9acd32;" transform="translate(266.339978 266.902103)scale(0.1 -0.1)">
     <use xlink:href="#DejaVuSans-49"/>
     <use x="63.623047" xlink:href="#DejaVuSans-49"/>
    </g>
   </g>
   <g id="text_31">
    <!-- 12 -->
    <g style="fill:#32cd32;" transform="translate(247.041376 258.828935)scale(0.1 -0.1)">
     <use xlink:href="#DejaVuSans-49"/>
     <use x="63.623047" xlink:href="#DejaVuSans-50"/>
    </g>
   </g>
   <g id="text_32">
    <!-- 13 -->
    <g style="fill:#8fbc8f;" transform="translate(241.039704 311.278173)scale(0.1 -0.1)">
     <use xlink:href="#DejaVuSans-49"/>
     <use x="63.623047" xlink:href="#DejaVuSans-51"/>
    </g>
   </g>
   <g id="text_33">
    <!-- 14 -->
    <g style="fill:#800080;" transform="translate(272.722242 207.936257)scale(0.1 -0.1)">
     <use xlink:href="#DejaVuSans-49"/>
     <use x="63.623047" xlink:href="#DejaVuSans-52"/>
    </g>
   </g>
   <g id="text_34">
    <!-- 15 -->
    <g style="fill:#b03060;" transform="translate(240.329924 243.986827)scale(0.1 -0.1)">
     <use xlink:href="#DejaVuSans-49"/>
     <use x="63.623047" xlink:href="#DejaVuSans-53"/>
    </g>
   </g>
   <g id="text_35">
    <!-- 16 -->
    <g style="fill:#9932cc;" transform="translate(240.488617 437.6877)scale(0.1 -0.1)">
     <use xlink:href="#DejaVuSans-49"/>
     <use x="63.623047" xlink:href="#DejaVuSans-54"/>
    </g>
   </g>
   <g id="text_36">
    <!-- 17 -->
    <g style="fill:#ff4500;" transform="translate(260.691043 350.022829)scale(0.1 -0.1)">
     <use xlink:href="#DejaVuSans-49"/>
     <use x="63.623047" xlink:href="#DejaVuSans-55"/>
    </g>
   </g>
   <g id="text_37">
    <!-- 18 -->
    <g style="fill:#00ced1;" transform="translate(279.447072 304.191548)scale(0.1 -0.1)">
     <use xlink:href="#DejaVuSans-49"/>
     <use x="63.623047" xlink:href="#DejaVuSans-56"/>
    </g>
   </g>
   <g id="text_38">
    <!-- 19 -->
    <g style="fill:#ff8c00;" transform="translate(265.808045 292.222663)scale(0.1 -0.1)">
     <use xlink:href="#DejaVuSans-49"/>
     <use x="63.623047" xlink:href="#DejaVuSans-57"/>
    </g>
   </g>
   <g id="text_39">
    <!-- 20 -->
    <g style="fill:#0000cd;" transform="translate(239.624292 368.589539)scale(0.1 -0.1)">
     <use xlink:href="#DejaVuSans-50"/>
     <use x="63.623047" xlink:href="#DejaVuSans-48"/>
    </g>
   </g>
   <g id="text_40">
    <!-- 22 -->
    <g style="fill:#00ff00;" transform="translate(254.097228 376.254242)scale(0.1 -0.1)">
     <use xlink:href="#DejaVuSans-50"/>
     <use x="63.623047" xlink:href="#DejaVuSans-50"/>
    </g>
   </g>
  </g>
 </g>
 <defs>
  <clipPath id="p32c390ea0f">
   <rect height="498.96" width="390.6" x="63" y="77.76"/>
  </clipPath>
 </defs>
</svg>
