<?xml version="1.0" encoding="utf-8" standalone="no"?>
<!DOCTYPE svg PUBLIC "-//W3C//DTD SVG 1.1//EN"
  "http://www.w3.org/Graphics/SVG/1.1/DTD/svg11.dtd">
<!-- Created with matplotlib (https://matplotlib.org/) -->
<svg height="648pt" version="1.1" viewBox="0 0 504 648" width="504pt" xmlns="http://www.w3.org/2000/svg" xmlns:xlink="http://www.w3.org/1999/xlink">
 <metadata>
  <rdf:RDF xmlns:cc="http://creativecommons.org/ns#" xmlns:dc="http://purl.org/dc/elements/1.1/" xmlns:rdf="http://www.w3.org/1999/02/22-rdf-syntax-ns#">
   <cc:Work>
    <dc:type rdf:resource="http://purl.org/dc/dcmitype/StillImage"/>
    <dc:date>2023-05-10T17:16:48.817795</dc:date>
    <dc:format>image/svg+xml</dc:format>
    <dc:creator>
     <cc:Agent>
      <dc:title>Matplotlib v3.3.4, https://matplotlib.org/</dc:title>
     </cc:Agent>
    </dc:creator>
   </cc:Work>
  </rdf:RDF>
 </metadata>
 <defs>
  <style type="text/css">*{stroke-linecap:butt;stroke-linejoin:round;}</style>
 </defs>
 <g id="figure_1">
  <g id="patch_1">
   <path d="M 0 648 
L 504 648 
L 504 0 
L 0 0 
z
" style="fill:#ffffff;"/>
  </g>
  <g id="axes_1">
   <g id="patch_2">
    <path d="M 63 576.72 
L 453.6 576.72 
L 453.6 77.76 
L 63 77.76 
z
" style="fill:#ffffff;"/>
   </g>
   <g id="PathCollection_1">
    <path clip-path="url(#pc6e2779624)" d="M 275.842902 255.454687 
C 277.718171 255.454687 279.516887 254.709634 280.842902 253.383619 
C 282.168918 252.057603 282.91397 250.258888 282.91397 248.383619 
C 282.91397 246.50835 282.168918 244.709634 280.842902 243.383619 
C 279.516887 242.057603 277.718171 241.312551 275.842902 241.312551 
C 273.967633 241.312551 272.168918 242.057603 270.842902 243.383619 
C 269.516887 244.709634 268.771834 246.50835 268.771834 248.383619 
C 268.771834 250.258888 269.516887 252.057603 270.842902 253.383619 
C 272.168918 254.709634 273.967633 255.454687 275.842902 255.454687 
z
" style="fill:#2f4f4f;stroke:#2f4f4f;"/>
    <path clip-path="url(#pc6e2779624)" d="M 257.349709 362.813151 
C 258.675724 362.813151 259.947608 362.286319 260.885243 361.348685 
C 261.822877 360.41105 262.349709 359.139166 262.349709 357.813151 
C 262.349709 356.487135 261.822877 355.215252 260.885243 354.277617 
C 259.947608 353.339982 258.675724 352.813151 257.349709 352.813151 
C 256.023693 352.813151 254.75181 353.339982 253.814175 354.277617 
C 252.876541 355.215252 252.349709 356.487135 252.349709 357.813151 
C 252.349709 359.139166 252.876541 360.41105 253.814175 361.348685 
C 254.75181 362.286319 256.023693 362.813151 257.349709 362.813151 
z
" style="fill:#556b2f;stroke:#556b2f;"/>
    <path clip-path="url(#pc6e2779624)" d="M 278.520712 285.307256 
C 281.630494 285.307256 284.613326 284.071726 286.812274 281.872778 
C 289.011221 279.67383 290.246751 276.690998 290.246751 273.581216 
C 290.246751 270.471434 289.011221 267.488602 286.812274 265.289654 
C 284.613326 263.090706 281.630494 261.855177 278.520712 261.855177 
C 275.41093 261.855177 272.428098 263.090706 270.22915 265.289654 
C 268.030202 267.488602 266.794672 270.471434 266.794672 273.581216 
C 266.794672 276.690998 268.030202 279.67383 270.22915 281.872778 
C 272.428098 284.071726 275.41093 285.307256 278.520712 285.307256 
z
" style="fill:#8b4513;stroke:#8b4513;"/>
    <path clip-path="url(#pc6e2779624)" d="M 256.645456 250.213435 
C 258.269487 250.213435 259.82722 249.568201 260.975583 248.419838 
C 262.123946 247.271475 262.769181 245.713742 262.769181 244.089711 
C 262.769181 242.46568 262.123946 240.907947 260.975583 239.759584 
C 259.82722 238.611221 258.269487 237.965987 256.645456 237.965987 
C 255.021426 237.965987 253.463692 238.611221 252.315329 239.759584 
C 251.166966 240.907947 250.521732 242.46568 250.521732 244.089711 
C 250.521732 245.713742 251.166966 247.271475 252.315329 248.419838 
C 253.463692 249.568201 255.021426 250.213435 256.645456 250.213435 
z
" style="fill:#2e8b57;stroke:#2e8b57;"/>
    <path clip-path="url(#pc6e2779624)" d="M 254.89524 244.047243 
C 257.8603 244.047243 260.704319 242.869212 262.800934 240.772598 
C 264.897548 238.675983 266.075579 235.831964 266.075579 232.866904 
C 266.075579 229.901843 264.897548 227.057824 262.800934 224.961209 
C 260.704319 222.864595 257.8603 221.686564 254.89524 221.686564 
C 251.930179 221.686564 249.08616 222.864595 246.989545 224.961209 
C 244.892931 227.057824 243.7149 229.901843 243.7149 232.866904 
C 243.7149 235.831964 244.892931 238.675983 246.989545 240.772598 
C 249.08616 242.869212 251.930179 244.047243 254.89524 244.047243 
z
" style="fill:#228b22;stroke:#228b22;"/>
    <path clip-path="url(#pc6e2779624)" d="M 281.449039 445.899823 
C 283.324308 445.899823 285.123023 445.15477 286.449039 443.828755 
C 287.775054 442.502739 288.520106 440.704024 288.520106 438.828755 
C 288.520106 436.953486 287.775054 435.15477 286.449039 433.828755 
C 285.123023 432.502739 283.324308 431.757687 281.449039 431.757687 
C 279.573769 431.757687 277.775054 432.502739 276.449039 433.828755 
C 275.123023 435.15477 274.377971 436.953486 274.377971 438.828755 
C 274.377971 440.704024 275.123023 442.502739 276.449039 443.828755 
C 277.775054 445.15477 279.573769 445.899823 281.449039 445.899823 
z
" style="fill:#708090;stroke:#708090;"/>
    <path clip-path="url(#pc6e2779624)" d="M 252.4604 203.878482 
C 254.557015 203.878482 256.56804 203.045488 258.05057 201.562957 
C 259.533101 200.080427 260.366095 198.069402 260.366095 195.972787 
C 260.366095 193.876173 259.533101 191.865148 258.05057 190.382617 
C 256.56804 188.900087 254.557015 188.067093 252.4604 188.067093 
C 250.363786 188.067093 248.352761 188.900087 246.87023 190.382617 
C 245.3877 191.865148 244.554706 193.876173 244.554706 195.972787 
C 244.554706 198.069402 245.3877 200.080427 246.87023 201.562957 
C 248.352761 203.045488 250.363786 203.878482 252.4604 203.878482 
z
" style="fill:#8b0000;stroke:#8b0000;"/>
    <path clip-path="url(#pc6e2779624)" d="M 253.56485 432.39687 
C 255.188881 432.39687 256.746614 431.751635 257.894977 430.603272 
C 259.04334 429.454909 259.688574 427.897176 259.688574 426.273145 
C 259.688574 424.649115 259.04334 423.091381 257.894977 421.943018 
C 256.746614 420.794655 255.188881 420.149421 253.56485 420.149421 
C 251.940819 420.149421 250.383086 420.794655 249.234723 421.943018 
C 248.08636 423.091381 247.441126 424.649115 247.441126 426.273145 
C 247.441126 427.897176 248.08636 429.454909 249.234723 430.603272 
C 250.383086 431.751635 251.940819 432.39687 253.56485 432.39687 
z
" style="fill:#808000;stroke:#808000;"/>
    <path clip-path="url(#pc6e2779624)" d="M 263.911872 318.589832 
C 265.237888 318.589832 266.509772 318.063001 267.447406 317.125366 
C 268.385041 316.187732 268.911872 314.915848 268.911872 313.589832 
C 268.911872 312.263817 268.385041 310.991933 267.447406 310.054298 
C 266.509772 309.116664 265.237888 308.589832 263.911872 308.589832 
C 262.585857 308.589832 261.313973 309.116664 260.376338 310.054298 
C 259.438704 310.991933 258.911872 312.263817 258.911872 313.589832 
C 258.911872 314.915848 259.438704 316.187732 260.376338 317.125366 
C 261.313973 318.063001 262.585857 318.589832 263.911872 318.589832 
z
" style="fill:#483d8b;stroke:#483d8b;"/>
    <path clip-path="url(#pc6e2779624)" d="M 249.396248 410.784446 
C 251.876996 410.784446 254.256473 409.798834 256.010626 408.04468 
C 257.76478 406.290527 258.750391 403.91105 258.750391 401.430302 
C 258.750391 398.949554 257.76478 396.570077 256.010626 394.815924 
C 254.256473 393.06177 251.876996 392.076159 249.396248 392.076159 
C 246.9155 392.076159 244.536023 393.06177 242.78187 394.815924 
C 241.027716 396.570077 240.042104 398.949554 240.042104 401.430302 
C 240.042104 403.91105 241.027716 406.290527 242.78187 408.04468 
C 244.536023 409.798834 246.9155 410.784446 249.396248 410.784446 
z
" style="fill:#008080;stroke:#008080;"/>
    <path clip-path="url(#pc6e2779624)" d="M 271.374089 297.574478 
C 272.99812 297.574478 274.555853 296.929244 275.704216 295.780881 
C 276.85258 294.632518 277.497814 293.074785 277.497814 291.450754 
C 277.497814 289.826723 276.85258 288.26899 275.704216 287.120627 
C 274.555853 285.972264 272.99812 285.32703 271.374089 285.32703 
C 269.750059 285.32703 268.192326 285.972264 267.043962 287.120627 
C 265.895599 288.26899 265.250365 289.826723 265.250365 291.450754 
C 265.250365 293.074785 265.895599 294.632518 267.043962 295.780881 
C 268.192326 296.929244 269.750059 297.574478 271.374089 297.574478 
z
" style="fill:#b8860b;stroke:#b8860b;"/>
    <path clip-path="url(#pc6e2779624)" d="M 257.928559 324.087248 
C 260.225285 324.087248 262.428252 323.174749 264.052283 321.550719 
C 265.676314 319.926688 266.588813 317.723721 266.588813 315.426994 
C 266.588813 313.130268 265.676314 310.927301 264.052283 309.30327 
C 262.428252 307.679239 260.225285 306.76674 257.928559 306.76674 
C 255.631832 306.76674 253.428865 307.679239 251.804834 309.30327 
C 250.180803 310.927301 249.268304 313.130268 249.268304 315.426994 
C 249.268304 317.723721 250.180803 319.926688 251.804834 321.550719 
C 253.428865 323.174749 255.631832 324.087248 257.928559 324.087248 
z
" style="fill:#d2691e;stroke:#d2691e;"/>
    <path clip-path="url(#pc6e2779624)" d="M 258.188888 277.012246 
C 260.669636 277.012246 263.049113 276.026635 264.803267 274.272481 
C 266.55742 272.518328 267.543032 270.138851 267.543032 267.658103 
C 267.543032 265.177355 266.55742 262.797878 264.803267 261.043725 
C 263.049113 259.289571 260.669636 258.303959 258.188888 258.303959 
C 255.708141 258.303959 253.328664 259.289571 251.57451 261.043725 
C 249.820357 262.797878 248.834745 265.177355 248.834745 267.658103 
C 248.834745 270.138851 249.820357 272.518328 251.57451 274.272481 
C 253.328664 276.026635 255.708141 277.012246 258.188888 277.012246 
z
" style="fill:#9acd32;stroke:#9acd32;"/>
    <path clip-path="url(#pc6e2779624)" d="M 256.138244 267.490629 
C 258.234859 267.490629 260.245884 266.657635 261.728414 265.175105 
C 263.210944 263.692575 264.043938 261.68155 264.043938 259.584935 
C 264.043938 257.48832 263.210944 255.477296 261.728414 253.994765 
C 260.245884 252.512235 258.234859 251.679241 256.138244 251.679241 
C 254.041629 251.679241 252.030605 252.512235 250.548074 253.994765 
C 249.065544 255.477296 248.23255 257.48832 248.23255 259.584935 
C 248.23255 261.68155 249.065544 263.692575 250.548074 265.175105 
C 252.030605 266.657635 254.041629 267.490629 256.138244 267.490629 
z
" style="fill:#32cd32;stroke:#32cd32;"/>
    <path clip-path="url(#pc6e2779624)" d="M 251.255379 318.157897 
C 252.87941 318.157897 254.437143 317.512663 255.585506 316.3643 
C 256.73387 315.215936 257.379104 313.658203 257.379104 312.034173 
C 257.379104 310.410142 256.73387 308.852409 255.585506 307.704046 
C 254.437143 306.555682 252.87941 305.910448 251.255379 305.910448 
C 249.631349 305.910448 248.073616 306.555682 246.925252 307.704046 
C 245.776889 308.852409 245.131655 310.410142 245.131655 312.034173 
C 245.131655 313.658203 245.776889 315.215936 246.925252 316.3643 
C 248.073616 317.512663 249.631349 318.157897 251.255379 318.157897 
z
" style="fill:#8fbc8f;stroke:#8fbc8f;"/>
    <path clip-path="url(#pc6e2779624)" d="M 261.299502 214.815981 
C 262.923533 214.815981 264.481266 214.170747 265.629629 213.022384 
C 266.777992 211.874021 267.423227 210.316288 267.423227 208.692257 
C 267.423227 207.068226 266.777992 205.510493 265.629629 204.36213 
C 264.481266 203.213767 262.923533 202.568533 261.299502 202.568533 
C 259.675472 202.568533 258.117738 203.213767 256.969375 204.36213 
C 255.821012 205.510493 255.175778 207.068226 255.175778 208.692257 
C 255.175778 210.316288 255.821012 211.874021 256.969375 213.022384 
C 258.117738 214.170747 259.675472 214.815981 261.299502 214.815981 
z
" style="fill:#800080;stroke:#800080;"/>
    <path clip-path="url(#pc6e2779624)" d="M 255.373236 251.813895 
C 257.248505 251.813895 259.04722 251.068842 260.373236 249.742827 
C 261.699251 248.416811 262.444304 246.618096 262.444304 244.742827 
C 262.444304 242.867558 261.699251 241.068842 260.373236 239.742827 
C 259.04722 238.416811 257.248505 237.671759 255.373236 237.671759 
C 253.497967 237.671759 251.699251 238.416811 250.373236 239.742827 
C 249.04722 241.068842 248.302168 242.867558 248.302168 244.742827 
C 248.302168 246.618096 249.04722 248.416811 250.373236 249.742827 
C 251.699251 251.068842 253.497967 251.813895 255.373236 251.813895 
z
" style="fill:#b03060;stroke:#b03060;"/>
    <path clip-path="url(#pc6e2779624)" d="M 246.28065 445.514768 
C 248.155919 445.514768 249.954634 444.769716 251.28065 443.4437 
C 252.606665 442.117685 253.351718 440.318969 253.351718 438.4437 
C 253.351718 436.568431 252.606665 434.769716 251.28065 433.4437 
C 249.954634 432.117685 248.155919 431.372632 246.28065 431.372632 
C 244.405381 431.372632 242.606665 432.117685 241.28065 433.4437 
C 239.954634 434.769716 239.209582 436.568431 239.209582 438.4437 
C 239.209582 440.318969 239.954634 442.117685 241.28065 443.4437 
C 242.606665 444.769716 244.405381 445.514768 246.28065 445.514768 
z
" style="fill:#9932cc;stroke:#9932cc;"/>
    <path clip-path="url(#pc6e2779624)" d="M 278.628985 356.902553 
C 280.253016 356.902553 281.810749 356.257319 282.959112 355.108956 
C 284.107475 353.960593 284.75271 352.402859 284.75271 350.778829 
C 284.75271 349.154798 284.107475 347.597065 282.959112 346.448702 
C 281.810749 345.300339 280.253016 344.655104 278.628985 344.655104 
C 277.004954 344.655104 275.447221 345.300339 274.298858 346.448702 
C 273.150495 347.597065 272.505261 349.154798 272.505261 350.778829 
C 272.505261 352.402859 273.150495 353.960593 274.298858 355.108956 
C 275.447221 356.257319 277.004954 356.902553 278.628985 356.902553 
z
" style="fill:#ff4500;stroke:#ff4500;"/>
    <path clip-path="url(#pc6e2779624)" d="M 247.553901 311.071272 
C 249.177932 311.071272 250.735665 310.426038 251.884028 309.277675 
C 253.032391 308.129311 253.677625 306.571578 253.677625 304.947548 
C 253.677625 303.323517 253.032391 301.765784 251.884028 300.617421 
C 250.735665 299.469057 249.177932 298.823823 247.553901 298.823823 
C 245.92987 298.823823 244.372137 299.469057 243.223774 300.617421 
C 242.075411 301.765784 241.430177 303.323517 241.430177 304.947548 
C 241.430177 306.571578 242.075411 308.129311 243.223774 309.277675 
C 244.372137 310.426038 245.92987 311.071272 247.553901 311.071272 
z
" style="fill:#00ced1;stroke:#00ced1;"/>
    <path clip-path="url(#pc6e2779624)" d="M 298.002231 299.102387 
C 299.626262 299.102387 301.183995 298.457153 302.332358 297.30879 
C 303.480722 296.160427 304.125956 294.602693 304.125956 292.978663 
C 304.125956 291.354632 303.480722 289.796899 302.332358 288.648536 
C 301.183995 287.500173 299.626262 286.854938 298.002231 286.854938 
C 296.378201 286.854938 294.820467 287.500173 293.672104 288.648536 
C 292.523741 289.796899 291.878507 291.354632 291.878507 292.978663 
C 291.878507 294.602693 292.523741 296.160427 293.672104 297.30879 
C 294.820467 298.457153 296.378201 299.102387 298.002231 299.102387 
z
" style="fill:#ff8c00;stroke:#ff8c00;"/>
    <path clip-path="url(#pc6e2779624)" d="M 283.075314 353.303824 
C 284.401329 353.303824 285.673213 352.776993 286.610848 351.839358 
C 287.548482 350.901724 288.075314 349.62984 288.075314 348.303824 
C 288.075314 346.977809 287.548482 345.705925 286.610848 344.768291 
C 285.673213 343.830656 284.401329 343.303824 283.075314 343.303824 
C 281.749298 343.303824 280.477415 343.830656 279.53978 344.768291 
C 278.602146 345.705925 278.075314 346.977809 278.075314 348.303824 
C 278.075314 349.62984 278.602146 350.901724 279.53978 351.839358 
C 280.477415 352.776993 281.749298 353.303824 283.075314 353.303824 
z
" style="fill:#ffd700;stroke:#ffd700;"/>
    <path clip-path="url(#pc6e2779624)" d="M 251.801431 375.469263 
C 253.425462 375.469263 254.983195 374.824029 256.131558 373.675666 
C 257.279921 372.527303 257.925155 370.96957 257.925155 369.345539 
C 257.925155 367.721508 257.279921 366.163775 256.131558 365.015412 
C 254.983195 363.867049 253.425462 363.221815 251.801431 363.221815 
C 250.1774 363.221815 248.619667 363.867049 247.471304 365.015412 
C 246.322941 366.163775 245.677707 367.721508 245.677707 369.345539 
C 245.677707 370.96957 246.322941 372.527303 247.471304 373.675666 
C 248.619667 374.824029 250.1774 375.469263 251.801431 375.469263 
z
" style="fill:#0000cd;stroke:#0000cd;"/>
    <path clip-path="url(#pc6e2779624)" d="M 277.787385 281.079897 
C 279.883999 281.079897 281.895024 280.246903 283.377555 278.764373 
C 284.860085 277.281842 285.693079 275.270817 285.693079 273.174203 
C 285.693079 271.077588 284.860085 269.066563 283.377555 267.584033 
C 281.895024 266.101503 279.883999 265.268509 277.787385 265.268509 
C 275.69077 265.268509 273.679745 266.101503 272.197215 267.584033 
C 270.714684 269.066563 269.88169 271.077588 269.88169 273.174203 
C 269.88169 275.270817 270.714684 277.281842 272.197215 278.764373 
C 273.679745 280.246903 275.69077 281.079897 277.787385 281.079897 
z
" style="fill:#deb887;stroke:#deb887;"/>
    <path clip-path="url(#pc6e2779624)" d="M 296.516052 383.133966 
C 298.140083 383.133966 299.697816 382.488732 300.846179 381.340369 
C 301.994542 380.192006 302.639776 378.634272 302.639776 377.010242 
C 302.639776 375.386211 301.994542 373.828478 300.846179 372.680115 
C 299.697816 371.531752 298.140083 370.886517 296.516052 370.886517 
C 294.892021 370.886517 293.334288 371.531752 292.185925 372.680115 
C 291.037562 373.828478 290.392328 375.386211 290.392328 377.010242 
C 290.392328 378.634272 291.037562 380.192006 292.185925 381.340369 
C 293.334288 382.488732 294.892021 383.133966 296.516052 383.133966 
z
" style="fill:#00ff00;stroke:#00ff00;"/>
    <path clip-path="url(#pc6e2779624)" d="M 263.101249 230.813375 
C 265.75328 230.813375 268.297047 229.759712 270.172316 227.884443 
C 272.047586 226.009174 273.101249 223.465406 273.101249 220.813375 
C 273.101249 218.161344 272.047586 215.617576 270.172316 213.742307 
C 268.297047 211.867038 265.75328 210.813375 263.101249 210.813375 
C 260.449218 210.813375 257.90545 211.867038 256.030181 213.742307 
C 254.154912 215.617576 253.101249 218.161344 253.101249 220.813375 
C 253.101249 223.465406 254.154912 226.009174 256.030181 227.884443 
C 257.90545 229.759712 260.449218 230.813375 263.101249 230.813375 
z
" style="fill:#f4a460;stroke:#f4a460;"/>
    <path clip-path="url(#pc6e2779624)" d="M 259.482632 324.907409 
C 260.808648 324.907409 262.080532 324.380577 263.018166 323.442943 
C 263.955801 322.505308 264.482632 321.233424 264.482632 319.907409 
C 264.482632 318.581393 263.955801 317.309509 263.018166 316.371875 
C 262.080532 315.43424 260.808648 314.907409 259.482632 314.907409 
C 258.156617 314.907409 256.884733 315.43424 255.947099 316.371875 
C 255.009464 317.309509 254.482632 318.581393 254.482632 319.907409 
C 254.482632 321.233424 255.009464 322.505308 255.947099 323.442943 
C 256.884733 324.380577 258.156617 324.907409 259.482632 324.907409 
z
" style="fill:#0000ff;stroke:#0000ff;"/>
   </g>
   <g id="matplotlib.axis_1">
    <g id="xtick_1">
     <g id="line2d_1">
      <defs>
       <path d="M 0 0 
L 0 3.5 
" id="m53422ab7d6" style="stroke:#000000;stroke-width:0.8;"/>
      </defs>
      <g>
       <use style="stroke:#000000;stroke-width:0.8;" x="258.3" xlink:href="#m53422ab7d6" y="576.72"/>
      </g>
     </g>
     <g id="text_1">
      <!-- MeanPD -->
      <g transform="translate(237.811719 591.318438)scale(0.1 -0.1)">
       <defs>
        <path d="M 9.8125 72.90625 
L 24.515625 72.90625 
L 43.109375 23.296875 
L 61.8125 72.90625 
L 76.515625 72.90625 
L 76.515625 0 
L 66.890625 0 
L 66.890625 64.015625 
L 48.09375 14.015625 
L 38.1875 14.015625 
L 19.390625 64.015625 
L 19.390625 0 
L 9.8125 0 
z
" id="DejaVuSans-77"/>
        <path d="M 56.203125 29.59375 
L 56.203125 25.203125 
L 14.890625 25.203125 
Q 15.484375 15.921875 20.484375 11.0625 
Q 25.484375 6.203125 34.421875 6.203125 
Q 39.59375 6.203125 44.453125 7.46875 
Q 49.3125 8.734375 54.109375 11.28125 
L 54.109375 2.78125 
Q 49.265625 0.734375 44.1875 -0.34375 
Q 39.109375 -1.421875 33.890625 -1.421875 
Q 20.796875 -1.421875 13.15625 6.1875 
Q 5.515625 13.8125 5.515625 26.8125 
Q 5.515625 40.234375 12.765625 48.109375 
Q 20.015625 56 32.328125 56 
Q 43.359375 56 49.78125 48.890625 
Q 56.203125 41.796875 56.203125 29.59375 
z
M 47.21875 32.234375 
Q 47.125 39.59375 43.09375 43.984375 
Q 39.0625 48.390625 32.421875 48.390625 
Q 24.90625 48.390625 20.390625 44.140625 
Q 15.875 39.890625 15.1875 32.171875 
z
" id="DejaVuSans-101"/>
        <path d="M 34.28125 27.484375 
Q 23.390625 27.484375 19.1875 25 
Q 14.984375 22.515625 14.984375 16.5 
Q 14.984375 11.71875 18.140625 8.90625 
Q 21.296875 6.109375 26.703125 6.109375 
Q 34.1875 6.109375 38.703125 11.40625 
Q 43.21875 16.703125 43.21875 25.484375 
L 43.21875 27.484375 
z
M 52.203125 31.203125 
L 52.203125 0 
L 43.21875 0 
L 43.21875 8.296875 
Q 40.140625 3.328125 35.546875 0.953125 
Q 30.953125 -1.421875 24.3125 -1.421875 
Q 15.921875 -1.421875 10.953125 3.296875 
Q 6 8.015625 6 15.921875 
Q 6 25.140625 12.171875 29.828125 
Q 18.359375 34.515625 30.609375 34.515625 
L 43.21875 34.515625 
L 43.21875 35.40625 
Q 43.21875 41.609375 39.140625 45 
Q 35.0625 48.390625 27.6875 48.390625 
Q 23 48.390625 18.546875 47.265625 
Q 14.109375 46.140625 10.015625 43.890625 
L 10.015625 52.203125 
Q 14.9375 54.109375 19.578125 55.046875 
Q 24.21875 56 28.609375 56 
Q 40.484375 56 46.34375 49.84375 
Q 52.203125 43.703125 52.203125 31.203125 
z
" id="DejaVuSans-97"/>
        <path d="M 54.890625 33.015625 
L 54.890625 0 
L 45.90625 0 
L 45.90625 32.71875 
Q 45.90625 40.484375 42.875 44.328125 
Q 39.84375 48.1875 33.796875 48.1875 
Q 26.515625 48.1875 22.3125 43.546875 
Q 18.109375 38.921875 18.109375 30.90625 
L 18.109375 0 
L 9.078125 0 
L 9.078125 54.6875 
L 18.109375 54.6875 
L 18.109375 46.1875 
Q 21.34375 51.125 25.703125 53.5625 
Q 30.078125 56 35.796875 56 
Q 45.21875 56 50.046875 50.171875 
Q 54.890625 44.34375 54.890625 33.015625 
z
" id="DejaVuSans-110"/>
        <path d="M 19.671875 64.796875 
L 19.671875 37.40625 
L 32.078125 37.40625 
Q 38.96875 37.40625 42.71875 40.96875 
Q 46.484375 44.53125 46.484375 51.125 
Q 46.484375 57.671875 42.71875 61.234375 
Q 38.96875 64.796875 32.078125 64.796875 
z
M 9.8125 72.90625 
L 32.078125 72.90625 
Q 44.34375 72.90625 50.609375 67.359375 
Q 56.890625 61.8125 56.890625 51.125 
Q 56.890625 40.328125 50.609375 34.8125 
Q 44.34375 29.296875 32.078125 29.296875 
L 19.671875 29.296875 
L 19.671875 0 
L 9.8125 0 
z
" id="DejaVuSans-80"/>
        <path d="M 19.671875 64.796875 
L 19.671875 8.109375 
L 31.59375 8.109375 
Q 46.6875 8.109375 53.6875 14.9375 
Q 60.6875 21.78125 60.6875 36.53125 
Q 60.6875 51.171875 53.6875 57.984375 
Q 46.6875 64.796875 31.59375 64.796875 
z
M 9.8125 72.90625 
L 30.078125 72.90625 
Q 51.265625 72.90625 61.171875 64.09375 
Q 71.09375 55.28125 71.09375 36.53125 
Q 71.09375 17.671875 61.125 8.828125 
Q 51.171875 0 30.078125 0 
L 9.8125 0 
z
" id="DejaVuSans-68"/>
       </defs>
       <use xlink:href="#DejaVuSans-77"/>
       <use x="86.279297" xlink:href="#DejaVuSans-101"/>
       <use x="147.802734" xlink:href="#DejaVuSans-97"/>
       <use x="209.082031" xlink:href="#DejaVuSans-110"/>
       <use x="272.460938" xlink:href="#DejaVuSans-80"/>
       <use x="332.763672" xlink:href="#DejaVuSans-68"/>
      </g>
     </g>
    </g>
   </g>
   <g id="matplotlib.axis_2">
    <g id="ytick_1">
     <g id="line2d_2">
      <defs>
       <path d="M 0 0 
L -3.5 0 
" id="m382d1a24d1" style="stroke:#000000;stroke-width:0.8;"/>
      </defs>
      <g>
       <use style="stroke:#000000;stroke-width:0.8;" x="63" xlink:href="#m382d1a24d1" y="576.72"/>
      </g>
     </g>
     <g id="text_2">
      <!-- −3.5 -->
      <g transform="translate(31.717187 580.519219)scale(0.1 -0.1)">
       <defs>
        <path d="M 10.59375 35.5 
L 73.1875 35.5 
L 73.1875 27.203125 
L 10.59375 27.203125 
z
" id="DejaVuSans-8722"/>
        <path d="M 40.578125 39.3125 
Q 47.65625 37.796875 51.625 33 
Q 55.609375 28.21875 55.609375 21.1875 
Q 55.609375 10.40625 48.1875 4.484375 
Q 40.765625 -1.421875 27.09375 -1.421875 
Q 22.515625 -1.421875 17.65625 -0.515625 
Q 12.796875 0.390625 7.625 2.203125 
L 7.625 11.71875 
Q 11.71875 9.328125 16.59375 8.109375 
Q 21.484375 6.890625 26.8125 6.890625 
Q 36.078125 6.890625 40.9375 10.546875 
Q 45.796875 14.203125 45.796875 21.1875 
Q 45.796875 27.640625 41.28125 31.265625 
Q 36.765625 34.90625 28.71875 34.90625 
L 20.21875 34.90625 
L 20.21875 43.015625 
L 29.109375 43.015625 
Q 36.375 43.015625 40.234375 45.921875 
Q 44.09375 48.828125 44.09375 54.296875 
Q 44.09375 59.90625 40.109375 62.90625 
Q 36.140625 65.921875 28.71875 65.921875 
Q 24.65625 65.921875 20.015625 65.03125 
Q 15.375 64.15625 9.8125 62.3125 
L 9.8125 71.09375 
Q 15.4375 72.65625 20.34375 73.4375 
Q 25.25 74.21875 29.59375 74.21875 
Q 40.828125 74.21875 47.359375 69.109375 
Q 53.90625 64.015625 53.90625 55.328125 
Q 53.90625 49.265625 50.4375 45.09375 
Q 46.96875 40.921875 40.578125 39.3125 
z
" id="DejaVuSans-51"/>
        <path d="M 10.6875 12.40625 
L 21 12.40625 
L 21 0 
L 10.6875 0 
z
" id="DejaVuSans-46"/>
        <path d="M 10.796875 72.90625 
L 49.515625 72.90625 
L 49.515625 64.59375 
L 19.828125 64.59375 
L 19.828125 46.734375 
Q 21.96875 47.46875 24.109375 47.828125 
Q 26.265625 48.1875 28.421875 48.1875 
Q 40.625 48.1875 47.75 41.5 
Q 54.890625 34.8125 54.890625 23.390625 
Q 54.890625 11.625 47.5625 5.09375 
Q 40.234375 -1.421875 26.90625 -1.421875 
Q 22.3125 -1.421875 17.546875 -0.640625 
Q 12.796875 0.140625 7.71875 1.703125 
L 7.71875 11.625 
Q 12.109375 9.234375 16.796875 8.0625 
Q 21.484375 6.890625 26.703125 6.890625 
Q 35.15625 6.890625 40.078125 11.328125 
Q 45.015625 15.765625 45.015625 23.390625 
Q 45.015625 31 40.078125 35.4375 
Q 35.15625 39.890625 26.703125 39.890625 
Q 22.75 39.890625 18.8125 39.015625 
Q 14.890625 38.140625 10.796875 36.28125 
z
" id="DejaVuSans-53"/>
       </defs>
       <use xlink:href="#DejaVuSans-8722"/>
       <use x="83.789062" xlink:href="#DejaVuSans-51"/>
       <use x="147.412109" xlink:href="#DejaVuSans-46"/>
       <use x="179.199219" xlink:href="#DejaVuSans-53"/>
      </g>
     </g>
    </g>
    <g id="ytick_2">
     <g id="line2d_3">
      <g>
       <use style="stroke:#000000;stroke-width:0.8;" x="63" xlink:href="#m382d1a24d1" y="538.92"/>
      </g>
     </g>
     <g id="text_3">
      <!-- −3.0 -->
      <g transform="translate(31.717187 542.719219)scale(0.1 -0.1)">
       <defs>
        <path d="M 31.78125 66.40625 
Q 24.171875 66.40625 20.328125 58.90625 
Q 16.5 51.421875 16.5 36.375 
Q 16.5 21.390625 20.328125 13.890625 
Q 24.171875 6.390625 31.78125 6.390625 
Q 39.453125 6.390625 43.28125 13.890625 
Q 47.125 21.390625 47.125 36.375 
Q 47.125 51.421875 43.28125 58.90625 
Q 39.453125 66.40625 31.78125 66.40625 
z
M 31.78125 74.21875 
Q 44.046875 74.21875 50.515625 64.515625 
Q 56.984375 54.828125 56.984375 36.375 
Q 56.984375 17.96875 50.515625 8.265625 
Q 44.046875 -1.421875 31.78125 -1.421875 
Q 19.53125 -1.421875 13.0625 8.265625 
Q 6.59375 17.96875 6.59375 36.375 
Q 6.59375 54.828125 13.0625 64.515625 
Q 19.53125 74.21875 31.78125 74.21875 
z
" id="DejaVuSans-48"/>
       </defs>
       <use xlink:href="#DejaVuSans-8722"/>
       <use x="83.789062" xlink:href="#DejaVuSans-51"/>
       <use x="147.412109" xlink:href="#DejaVuSans-46"/>
       <use x="179.199219" xlink:href="#DejaVuSans-48"/>
      </g>
     </g>
    </g>
    <g id="ytick_3">
     <g id="line2d_4">
      <g>
       <use style="stroke:#000000;stroke-width:0.8;" x="63" xlink:href="#m382d1a24d1" y="501.12"/>
      </g>
     </g>
     <g id="text_4">
      <!-- −2.5 -->
      <g transform="translate(31.717187 504.919219)scale(0.1 -0.1)">
       <defs>
        <path d="M 19.1875 8.296875 
L 53.609375 8.296875 
L 53.609375 0 
L 7.328125 0 
L 7.328125 8.296875 
Q 12.9375 14.109375 22.625 23.890625 
Q 32.328125 33.6875 34.8125 36.53125 
Q 39.546875 41.84375 41.421875 45.53125 
Q 43.3125 49.21875 43.3125 52.78125 
Q 43.3125 58.59375 39.234375 62.25 
Q 35.15625 65.921875 28.609375 65.921875 
Q 23.96875 65.921875 18.8125 64.3125 
Q 13.671875 62.703125 7.8125 59.421875 
L 7.8125 69.390625 
Q 13.765625 71.78125 18.9375 73 
Q 24.125 74.21875 28.421875 74.21875 
Q 39.75 74.21875 46.484375 68.546875 
Q 53.21875 62.890625 53.21875 53.421875 
Q 53.21875 48.921875 51.53125 44.890625 
Q 49.859375 40.875 45.40625 35.40625 
Q 44.1875 33.984375 37.640625 27.21875 
Q 31.109375 20.453125 19.1875 8.296875 
z
" id="DejaVuSans-50"/>
       </defs>
       <use xlink:href="#DejaVuSans-8722"/>
       <use x="83.789062" xlink:href="#DejaVuSans-50"/>
       <use x="147.412109" xlink:href="#DejaVuSans-46"/>
       <use x="179.199219" xlink:href="#DejaVuSans-53"/>
      </g>
     </g>
    </g>
    <g id="ytick_4">
     <g id="line2d_5">
      <g>
       <use style="stroke:#000000;stroke-width:0.8;" x="63" xlink:href="#m382d1a24d1" y="463.32"/>
      </g>
     </g>
     <g id="text_5">
      <!-- −2.0 -->
      <g transform="translate(31.717187 467.119219)scale(0.1 -0.1)">
       <use xlink:href="#DejaVuSans-8722"/>
       <use x="83.789062" xlink:href="#DejaVuSans-50"/>
       <use x="147.412109" xlink:href="#DejaVuSans-46"/>
       <use x="179.199219" xlink:href="#DejaVuSans-48"/>
      </g>
     </g>
    </g>
    <g id="ytick_5">
     <g id="line2d_6">
      <g>
       <use style="stroke:#000000;stroke-width:0.8;" x="63" xlink:href="#m382d1a24d1" y="425.52"/>
      </g>
     </g>
     <g id="text_6">
      <!-- −1.5 -->
      <g transform="translate(31.717187 429.319219)scale(0.1 -0.1)">
       <defs>
        <path d="M 12.40625 8.296875 
L 28.515625 8.296875 
L 28.515625 63.921875 
L 10.984375 60.40625 
L 10.984375 69.390625 
L 28.421875 72.90625 
L 38.28125 72.90625 
L 38.28125 8.296875 
L 54.390625 8.296875 
L 54.390625 0 
L 12.40625 0 
z
" id="DejaVuSans-49"/>
       </defs>
       <use xlink:href="#DejaVuSans-8722"/>
       <use x="83.789062" xlink:href="#DejaVuSans-49"/>
       <use x="147.412109" xlink:href="#DejaVuSans-46"/>
       <use x="179.199219" xlink:href="#DejaVuSans-53"/>
      </g>
     </g>
    </g>
    <g id="ytick_6">
     <g id="line2d_7">
      <g>
       <use style="stroke:#000000;stroke-width:0.8;" x="63" xlink:href="#m382d1a24d1" y="387.72"/>
      </g>
     </g>
     <g id="text_7">
      <!-- −1.0 -->
      <g transform="translate(31.717187 391.519219)scale(0.1 -0.1)">
       <use xlink:href="#DejaVuSans-8722"/>
       <use x="83.789062" xlink:href="#DejaVuSans-49"/>
       <use x="147.412109" xlink:href="#DejaVuSans-46"/>
       <use x="179.199219" xlink:href="#DejaVuSans-48"/>
      </g>
     </g>
    </g>
    <g id="ytick_7">
     <g id="line2d_8">
      <g>
       <use style="stroke:#000000;stroke-width:0.8;" x="63" xlink:href="#m382d1a24d1" y="349.92"/>
      </g>
     </g>
     <g id="text_8">
      <!-- −0.5 -->
      <g transform="translate(31.717187 353.719219)scale(0.1 -0.1)">
       <use xlink:href="#DejaVuSans-8722"/>
       <use x="83.789062" xlink:href="#DejaVuSans-48"/>
       <use x="147.412109" xlink:href="#DejaVuSans-46"/>
       <use x="179.199219" xlink:href="#DejaVuSans-53"/>
      </g>
     </g>
    </g>
    <g id="ytick_8">
     <g id="line2d_9">
      <g>
       <use style="stroke:#000000;stroke-width:0.8;" x="63" xlink:href="#m382d1a24d1" y="312.12"/>
      </g>
     </g>
     <g id="text_9">
      <!-- 0.0 -->
      <g transform="translate(40.096875 315.919219)scale(0.1 -0.1)">
       <use xlink:href="#DejaVuSans-48"/>
       <use x="63.623047" xlink:href="#DejaVuSans-46"/>
       <use x="95.410156" xlink:href="#DejaVuSans-48"/>
      </g>
     </g>
    </g>
    <g id="ytick_9">
     <g id="line2d_10">
      <g>
       <use style="stroke:#000000;stroke-width:0.8;" x="63" xlink:href="#m382d1a24d1" y="274.32"/>
      </g>
     </g>
     <g id="text_10">
      <!-- 0.5 -->
      <g transform="translate(40.096875 278.119219)scale(0.1 -0.1)">
       <use xlink:href="#DejaVuSans-48"/>
       <use x="63.623047" xlink:href="#DejaVuSans-46"/>
       <use x="95.410156" xlink:href="#DejaVuSans-53"/>
      </g>
     </g>
    </g>
    <g id="ytick_10">
     <g id="line2d_11">
      <g>
       <use style="stroke:#000000;stroke-width:0.8;" x="63" xlink:href="#m382d1a24d1" y="236.52"/>
      </g>
     </g>
     <g id="text_11">
      <!-- 1.0 -->
      <g transform="translate(40.096875 240.319219)scale(0.1 -0.1)">
       <use xlink:href="#DejaVuSans-49"/>
       <use x="63.623047" xlink:href="#DejaVuSans-46"/>
       <use x="95.410156" xlink:href="#DejaVuSans-48"/>
      </g>
     </g>
    </g>
    <g id="ytick_11">
     <g id="line2d_12">
      <g>
       <use style="stroke:#000000;stroke-width:0.8;" x="63" xlink:href="#m382d1a24d1" y="198.72"/>
      </g>
     </g>
     <g id="text_12">
      <!-- 1.5 -->
      <g transform="translate(40.096875 202.519219)scale(0.1 -0.1)">
       <use xlink:href="#DejaVuSans-49"/>
       <use x="63.623047" xlink:href="#DejaVuSans-46"/>
       <use x="95.410156" xlink:href="#DejaVuSans-53"/>
      </g>
     </g>
    </g>
    <g id="ytick_12">
     <g id="line2d_13">
      <g>
       <use style="stroke:#000000;stroke-width:0.8;" x="63" xlink:href="#m382d1a24d1" y="160.92"/>
      </g>
     </g>
     <g id="text_13">
      <!-- 2.0 -->
      <g transform="translate(40.096875 164.719219)scale(0.1 -0.1)">
       <use xlink:href="#DejaVuSans-50"/>
       <use x="63.623047" xlink:href="#DejaVuSans-46"/>
       <use x="95.410156" xlink:href="#DejaVuSans-48"/>
      </g>
     </g>
    </g>
    <g id="ytick_13">
     <g id="line2d_14">
      <g>
       <use style="stroke:#000000;stroke-width:0.8;" x="63" xlink:href="#m382d1a24d1" y="123.12"/>
      </g>
     </g>
     <g id="text_14">
      <!-- 2.5 -->
      <g transform="translate(40.096875 126.919219)scale(0.1 -0.1)">
       <use xlink:href="#DejaVuSans-50"/>
       <use x="63.623047" xlink:href="#DejaVuSans-46"/>
       <use x="95.410156" xlink:href="#DejaVuSans-53"/>
      </g>
     </g>
    </g>
    <g id="ytick_14">
     <g id="line2d_15">
      <g>
       <use style="stroke:#000000;stroke-width:0.8;" x="63" xlink:href="#m382d1a24d1" y="85.32"/>
      </g>
     </g>
     <g id="text_15">
      <!-- 3.0 -->
      <g transform="translate(40.096875 89.119219)scale(0.1 -0.1)">
       <use xlink:href="#DejaVuSans-51"/>
       <use x="63.623047" xlink:href="#DejaVuSans-46"/>
       <use x="95.410156" xlink:href="#DejaVuSans-48"/>
      </g>
     </g>
    </g>
    <g id="text_16">
     <!-- LogOdds -->
     <g transform="translate(25.6375 349.061094)rotate(-90)scale(0.1 -0.1)">
      <defs>
       <path d="M 9.8125 72.90625 
L 19.671875 72.90625 
L 19.671875 8.296875 
L 55.171875 8.296875 
L 55.171875 0 
L 9.8125 0 
z
" id="DejaVuSans-76"/>
       <path d="M 30.609375 48.390625 
Q 23.390625 48.390625 19.1875 42.75 
Q 14.984375 37.109375 14.984375 27.296875 
Q 14.984375 17.484375 19.15625 11.84375 
Q 23.34375 6.203125 30.609375 6.203125 
Q 37.796875 6.203125 41.984375 11.859375 
Q 46.1875 17.53125 46.1875 27.296875 
Q 46.1875 37.015625 41.984375 42.703125 
Q 37.796875 48.390625 30.609375 48.390625 
z
M 30.609375 56 
Q 42.328125 56 49.015625 48.375 
Q 55.71875 40.765625 55.71875 27.296875 
Q 55.71875 13.875 49.015625 6.21875 
Q 42.328125 -1.421875 30.609375 -1.421875 
Q 18.84375 -1.421875 12.171875 6.21875 
Q 5.515625 13.875 5.515625 27.296875 
Q 5.515625 40.765625 12.171875 48.375 
Q 18.84375 56 30.609375 56 
z
" id="DejaVuSans-111"/>
       <path d="M 45.40625 27.984375 
Q 45.40625 37.75 41.375 43.109375 
Q 37.359375 48.484375 30.078125 48.484375 
Q 22.859375 48.484375 18.828125 43.109375 
Q 14.796875 37.75 14.796875 27.984375 
Q 14.796875 18.265625 18.828125 12.890625 
Q 22.859375 7.515625 30.078125 7.515625 
Q 37.359375 7.515625 41.375 12.890625 
Q 45.40625 18.265625 45.40625 27.984375 
z
M 54.390625 6.78125 
Q 54.390625 -7.171875 48.1875 -13.984375 
Q 42 -20.796875 29.203125 -20.796875 
Q 24.46875 -20.796875 20.265625 -20.09375 
Q 16.0625 -19.390625 12.109375 -17.921875 
L 12.109375 -9.1875 
Q 16.0625 -11.328125 19.921875 -12.34375 
Q 23.78125 -13.375 27.78125 -13.375 
Q 36.625 -13.375 41.015625 -8.765625 
Q 45.40625 -4.15625 45.40625 5.171875 
L 45.40625 9.625 
Q 42.625 4.78125 38.28125 2.390625 
Q 33.9375 0 27.875 0 
Q 17.828125 0 11.671875 7.65625 
Q 5.515625 15.328125 5.515625 27.984375 
Q 5.515625 40.671875 11.671875 48.328125 
Q 17.828125 56 27.875 56 
Q 33.9375 56 38.28125 53.609375 
Q 42.625 51.21875 45.40625 46.390625 
L 45.40625 54.6875 
L 54.390625 54.6875 
z
" id="DejaVuSans-103"/>
       <path d="M 39.40625 66.21875 
Q 28.65625 66.21875 22.328125 58.203125 
Q 16.015625 50.203125 16.015625 36.375 
Q 16.015625 22.609375 22.328125 14.59375 
Q 28.65625 6.59375 39.40625 6.59375 
Q 50.140625 6.59375 56.421875 14.59375 
Q 62.703125 22.609375 62.703125 36.375 
Q 62.703125 50.203125 56.421875 58.203125 
Q 50.140625 66.21875 39.40625 66.21875 
z
M 39.40625 74.21875 
Q 54.734375 74.21875 63.90625 63.9375 
Q 73.09375 53.65625 73.09375 36.375 
Q 73.09375 19.140625 63.90625 8.859375 
Q 54.734375 -1.421875 39.40625 -1.421875 
Q 24.03125 -1.421875 14.8125 8.828125 
Q 5.609375 19.09375 5.609375 36.375 
Q 5.609375 53.65625 14.8125 63.9375 
Q 24.03125 74.21875 39.40625 74.21875 
z
" id="DejaVuSans-79"/>
       <path d="M 45.40625 46.390625 
L 45.40625 75.984375 
L 54.390625 75.984375 
L 54.390625 0 
L 45.40625 0 
L 45.40625 8.203125 
Q 42.578125 3.328125 38.25 0.953125 
Q 33.9375 -1.421875 27.875 -1.421875 
Q 17.96875 -1.421875 11.734375 6.484375 
Q 5.515625 14.40625 5.515625 27.296875 
Q 5.515625 40.1875 11.734375 48.09375 
Q 17.96875 56 27.875 56 
Q 33.9375 56 38.25 53.625 
Q 42.578125 51.265625 45.40625 46.390625 
z
M 14.796875 27.296875 
Q 14.796875 17.390625 18.875 11.75 
Q 22.953125 6.109375 30.078125 6.109375 
Q 37.203125 6.109375 41.296875 11.75 
Q 45.40625 17.390625 45.40625 27.296875 
Q 45.40625 37.203125 41.296875 42.84375 
Q 37.203125 48.484375 30.078125 48.484375 
Q 22.953125 48.484375 18.875 42.84375 
Q 14.796875 37.203125 14.796875 27.296875 
z
" id="DejaVuSans-100"/>
       <path d="M 44.28125 53.078125 
L 44.28125 44.578125 
Q 40.484375 46.53125 36.375 47.5 
Q 32.28125 48.484375 27.875 48.484375 
Q 21.1875 48.484375 17.84375 46.4375 
Q 14.5 44.390625 14.5 40.28125 
Q 14.5 37.15625 16.890625 35.375 
Q 19.28125 33.59375 26.515625 31.984375 
L 29.59375 31.296875 
Q 39.15625 29.25 43.1875 25.515625 
Q 47.21875 21.78125 47.21875 15.09375 
Q 47.21875 7.46875 41.1875 3.015625 
Q 35.15625 -1.421875 24.609375 -1.421875 
Q 20.21875 -1.421875 15.453125 -0.5625 
Q 10.6875 0.296875 5.421875 2 
L 5.421875 11.28125 
Q 10.40625 8.6875 15.234375 7.390625 
Q 20.0625 6.109375 24.8125 6.109375 
Q 31.15625 6.109375 34.5625 8.28125 
Q 37.984375 10.453125 37.984375 14.40625 
Q 37.984375 18.0625 35.515625 20.015625 
Q 33.0625 21.96875 24.703125 23.78125 
L 21.578125 24.515625 
Q 13.234375 26.265625 9.515625 29.90625 
Q 5.8125 33.546875 5.8125 39.890625 
Q 5.8125 47.609375 11.28125 51.796875 
Q 16.75 56 26.8125 56 
Q 31.78125 56 36.171875 55.265625 
Q 40.578125 54.546875 44.28125 53.078125 
z
" id="DejaVuSans-115"/>
      </defs>
      <use xlink:href="#DejaVuSans-76"/>
      <use x="53.962891" xlink:href="#DejaVuSans-111"/>
      <use x="115.144531" xlink:href="#DejaVuSans-103"/>
      <use x="178.621094" xlink:href="#DejaVuSans-79"/>
      <use x="257.332031" xlink:href="#DejaVuSans-100"/>
      <use x="320.808594" xlink:href="#DejaVuSans-100"/>
      <use x="384.285156" xlink:href="#DejaVuSans-115"/>
     </g>
    </g>
   </g>
   <g id="line2d_16">
    <path clip-path="url(#pc6e2779624)" d="M 229.005 354.29599 
L 287.595 354.29599 
L 287.595 253.984277 
L 229.005 253.984277 
L 229.005 354.29599 
" style="fill:none;stroke:#000000;stroke-linecap:square;"/>
   </g>
   <g id="line2d_17">
    <path clip-path="url(#pc6e2779624)" d="M 258.3 354.29599 
L 258.3 438.828755 
" style="fill:none;stroke:#000000;stroke-linecap:square;"/>
   </g>
   <g id="line2d_18">
    <path clip-path="url(#pc6e2779624)" d="M 258.3 253.984277 
L 258.3 195.972787 
" style="fill:none;stroke:#000000;stroke-linecap:square;"/>
   </g>
   <g id="line2d_19">
    <path clip-path="url(#pc6e2779624)" d="M 243.6525 438.828755 
L 272.9475 438.828755 
" style="fill:none;stroke:#000000;stroke-linecap:square;"/>
   </g>
   <g id="line2d_20">
    <path clip-path="url(#pc6e2779624)" d="M 243.6525 195.972787 
L 272.9475 195.972787 
" style="fill:none;stroke:#000000;stroke-linecap:square;"/>
   </g>
   <g id="line2d_21">
    <path clip-path="url(#pc6e2779624)" d="M 229.005 304.947548 
L 287.595 304.947548 
" style="fill:none;stroke:#ff7f0e;stroke-linecap:square;"/>
   </g>
   <g id="patch_3">
    <path d="M 63 576.72 
L 63 77.76 
" style="fill:none;stroke:#000000;stroke-linecap:square;stroke-linejoin:miter;stroke-width:0.8;"/>
   </g>
   <g id="patch_4">
    <path d="M 453.6 576.72 
L 453.6 77.76 
" style="fill:none;stroke:#000000;stroke-linecap:square;stroke-linejoin:miter;stroke-width:0.8;"/>
   </g>
   <g id="patch_5">
    <path d="M 63 576.72 
L 453.6 576.72 
" style="fill:none;stroke:#000000;stroke-linecap:square;stroke-linejoin:miter;stroke-width:0.8;"/>
   </g>
   <g id="patch_6">
    <path d="M 63 77.76 
L 453.6 77.76 
" style="fill:none;stroke:#000000;stroke-linecap:square;stroke-linejoin:miter;stroke-width:0.8;"/>
   </g>
   <g id="text_17">
    <!-- 0.0 -->
    <g style="fill:#2f4f4f;" transform="translate(279.748902 247.627619)scale(0.1 -0.1)">
     <use xlink:href="#DejaVuSans-48"/>
     <use x="63.623047" xlink:href="#DejaVuSans-46"/>
     <use x="95.410156" xlink:href="#DejaVuSans-48"/>
    </g>
   </g>
   <g id="text_18">
    <!-- 1.0 -->
    <g style="fill:#556b2f;" transform="translate(261.255709 357.057151)scale(0.1 -0.1)">
     <use xlink:href="#DejaVuSans-49"/>
     <use x="63.623047" xlink:href="#DejaVuSans-46"/>
     <use x="95.410156" xlink:href="#DejaVuSans-48"/>
    </g>
   </g>
   <g id="text_19">
    <!-- 2 -->
    <g style="fill:#8b4513;" transform="translate(282.426712 272.825216)scale(0.1 -0.1)">
     <use xlink:href="#DejaVuSans-50"/>
    </g>
   </g>
   <g id="text_20">
    <!-- 3 -->
    <g style="fill:#2e8b57;" transform="translate(260.551456 243.333711)scale(0.1 -0.1)">
     <use xlink:href="#DejaVuSans-51"/>
    </g>
   </g>
   <g id="text_21">
    <!-- 4.0 -->
    <g style="fill:#228b22;" transform="translate(258.80124 232.110904)scale(0.1 -0.1)">
     <defs>
      <path d="M 37.796875 64.3125 
L 12.890625 25.390625 
L 37.796875 25.390625 
z
M 35.203125 72.90625 
L 47.609375 72.90625 
L 47.609375 25.390625 
L 58.015625 25.390625 
L 58.015625 17.1875 
L 47.609375 17.1875 
L 47.609375 0 
L 37.796875 0 
L 37.796875 17.1875 
L 4.890625 17.1875 
L 4.890625 26.703125 
z
" id="DejaVuSans-52"/>
     </defs>
     <use xlink:href="#DejaVuSans-52"/>
     <use x="63.623047" xlink:href="#DejaVuSans-46"/>
     <use x="95.410156" xlink:href="#DejaVuSans-48"/>
    </g>
   </g>
   <g id="text_22">
    <!-- 5 -->
    <g style="fill:#708090;" transform="translate(285.355039 438.072755)scale(0.1 -0.1)">
     <use xlink:href="#DejaVuSans-53"/>
    </g>
   </g>
   <g id="text_23">
    <!-- 6 -->
    <g style="fill:#8b0000;" transform="translate(256.3664 195.216787)scale(0.1 -0.1)">
     <defs>
      <path d="M 33.015625 40.375 
Q 26.375 40.375 22.484375 35.828125 
Q 18.609375 31.296875 18.609375 23.390625 
Q 18.609375 15.53125 22.484375 10.953125 
Q 26.375 6.390625 33.015625 6.390625 
Q 39.65625 6.390625 43.53125 10.953125 
Q 47.40625 15.53125 47.40625 23.390625 
Q 47.40625 31.296875 43.53125 35.828125 
Q 39.65625 40.375 33.015625 40.375 
z
M 52.59375 71.296875 
L 52.59375 62.3125 
Q 48.875 64.0625 45.09375 64.984375 
Q 41.3125 65.921875 37.59375 65.921875 
Q 27.828125 65.921875 22.671875 59.328125 
Q 17.53125 52.734375 16.796875 39.40625 
Q 19.671875 43.65625 24.015625 45.921875 
Q 28.375 48.1875 33.59375 48.1875 
Q 44.578125 48.1875 50.953125 41.515625 
Q 57.328125 34.859375 57.328125 23.390625 
Q 57.328125 12.15625 50.6875 5.359375 
Q 44.046875 -1.421875 33.015625 -1.421875 
Q 20.359375 -1.421875 13.671875 8.265625 
Q 6.984375 17.96875 6.984375 36.375 
Q 6.984375 53.65625 15.1875 63.9375 
Q 23.390625 74.21875 37.203125 74.21875 
Q 40.921875 74.21875 44.703125 73.484375 
Q 48.484375 72.75 52.59375 71.296875 
z
" id="DejaVuSans-54"/>
     </defs>
     <use xlink:href="#DejaVuSans-54"/>
    </g>
   </g>
   <g id="text_24">
    <!-- 7 -->
    <g style="fill:#808000;" transform="translate(257.47085 425.517145)scale(0.1 -0.1)">
     <defs>
      <path d="M 8.203125 72.90625 
L 55.078125 72.90625 
L 55.078125 68.703125 
L 28.609375 0 
L 18.3125 0 
L 43.21875 64.59375 
L 8.203125 64.59375 
z
" id="DejaVuSans-55"/>
     </defs>
     <use xlink:href="#DejaVuSans-55"/>
    </g>
   </g>
   <g id="text_25">
    <!-- 23.1 -->
    <g style="fill:#483d8b;" transform="translate(267.817872 312.833832)scale(0.1 -0.1)">
     <use xlink:href="#DejaVuSans-50"/>
     <use x="63.623047" xlink:href="#DejaVuSans-51"/>
     <use x="127.246094" xlink:href="#DejaVuSans-46"/>
     <use x="159.033203" xlink:href="#DejaVuSans-49"/>
    </g>
   </g>
   <g id="text_26">
    <!-- 8 -->
    <g style="fill:#008080;" transform="translate(253.302248 400.674302)scale(0.1 -0.1)">
     <defs>
      <path d="M 31.78125 34.625 
Q 24.75 34.625 20.71875 30.859375 
Q 16.703125 27.09375 16.703125 20.515625 
Q 16.703125 13.921875 20.71875 10.15625 
Q 24.75 6.390625 31.78125 6.390625 
Q 38.8125 6.390625 42.859375 10.171875 
Q 46.921875 13.96875 46.921875 20.515625 
Q 46.921875 27.09375 42.890625 30.859375 
Q 38.875 34.625 31.78125 34.625 
z
M 21.921875 38.8125 
Q 15.578125 40.375 12.03125 44.71875 
Q 8.5 49.078125 8.5 55.328125 
Q 8.5 64.0625 14.71875 69.140625 
Q 20.953125 74.21875 31.78125 74.21875 
Q 42.671875 74.21875 48.875 69.140625 
Q 55.078125 64.0625 55.078125 55.328125 
Q 55.078125 49.078125 51.53125 44.71875 
Q 48 40.375 41.703125 38.8125 
Q 48.828125 37.15625 52.796875 32.3125 
Q 56.78125 27.484375 56.78125 20.515625 
Q 56.78125 9.90625 50.3125 4.234375 
Q 43.84375 -1.421875 31.78125 -1.421875 
Q 19.734375 -1.421875 13.25 4.234375 
Q 6.78125 9.90625 6.78125 20.515625 
Q 6.78125 27.484375 10.78125 32.3125 
Q 14.796875 37.15625 21.921875 38.8125 
z
M 18.3125 54.390625 
Q 18.3125 48.734375 21.84375 45.5625 
Q 25.390625 42.390625 31.78125 42.390625 
Q 38.140625 42.390625 41.71875 45.5625 
Q 45.3125 48.734375 45.3125 54.390625 
Q 45.3125 60.0625 41.71875 63.234375 
Q 38.140625 66.40625 31.78125 66.40625 
Q 25.390625 66.40625 21.84375 63.234375 
Q 18.3125 60.0625 18.3125 54.390625 
z
" id="DejaVuSans-56"/>
     </defs>
     <use xlink:href="#DejaVuSans-56"/>
    </g>
   </g>
   <g id="text_27">
    <!-- 9 -->
    <g style="fill:#b8860b;" transform="translate(275.280089 290.694754)scale(0.1 -0.1)">
     <defs>
      <path d="M 10.984375 1.515625 
L 10.984375 10.5 
Q 14.703125 8.734375 18.5 7.8125 
Q 22.3125 6.890625 25.984375 6.890625 
Q 35.75 6.890625 40.890625 13.453125 
Q 46.046875 20.015625 46.78125 33.40625 
Q 43.953125 29.203125 39.59375 26.953125 
Q 35.25 24.703125 29.984375 24.703125 
Q 19.046875 24.703125 12.671875 31.3125 
Q 6.296875 37.9375 6.296875 49.421875 
Q 6.296875 60.640625 12.9375 67.421875 
Q 19.578125 74.21875 30.609375 74.21875 
Q 43.265625 74.21875 49.921875 64.515625 
Q 56.59375 54.828125 56.59375 36.375 
Q 56.59375 19.140625 48.40625 8.859375 
Q 40.234375 -1.421875 26.421875 -1.421875 
Q 22.703125 -1.421875 18.890625 -0.6875 
Q 15.09375 0.046875 10.984375 1.515625 
z
M 30.609375 32.421875 
Q 37.25 32.421875 41.125 36.953125 
Q 45.015625 41.5 45.015625 49.421875 
Q 45.015625 57.28125 41.125 61.84375 
Q 37.25 66.40625 30.609375 66.40625 
Q 23.96875 66.40625 20.09375 61.84375 
Q 16.21875 57.28125 16.21875 49.421875 
Q 16.21875 41.5 20.09375 36.953125 
Q 23.96875 32.421875 30.609375 32.421875 
z
" id="DejaVuSans-57"/>
     </defs>
     <use xlink:href="#DejaVuSans-57"/>
    </g>
   </g>
   <g id="text_28">
    <!-- 10.0 -->
    <g style="fill:#d2691e;" transform="translate(261.834559 314.670994)scale(0.1 -0.1)">
     <use xlink:href="#DejaVuSans-49"/>
     <use x="63.623047" xlink:href="#DejaVuSans-48"/>
     <use x="127.246094" xlink:href="#DejaVuSans-46"/>
     <use x="159.033203" xlink:href="#DejaVuSans-48"/>
    </g>
   </g>
   <g id="text_29">
    <!-- 11 -->
    <g style="fill:#9acd32;" transform="translate(262.094888 266.902103)scale(0.1 -0.1)">
     <use xlink:href="#DejaVuSans-49"/>
     <use x="63.623047" xlink:href="#DejaVuSans-49"/>
    </g>
   </g>
   <g id="text_30">
    <!-- 12 -->
    <g style="fill:#32cd32;" transform="translate(260.044244 258.828935)scale(0.1 -0.1)">
     <use xlink:href="#DejaVuSans-49"/>
     <use x="63.623047" xlink:href="#DejaVuSans-50"/>
    </g>
   </g>
   <g id="text_31">
    <!-- 13 -->
    <g style="fill:#8fbc8f;" transform="translate(255.161379 311.278173)scale(0.1 -0.1)">
     <use xlink:href="#DejaVuSans-49"/>
     <use x="63.623047" xlink:href="#DejaVuSans-51"/>
    </g>
   </g>
   <g id="text_32">
    <!-- 14 -->
    <g style="fill:#800080;" transform="translate(265.205502 207.936257)scale(0.1 -0.1)">
     <use xlink:href="#DejaVuSans-49"/>
     <use x="63.623047" xlink:href="#DejaVuSans-52"/>
    </g>
   </g>
   <g id="text_33">
    <!-- 15 -->
    <g style="fill:#b03060;" transform="translate(259.279236 243.986827)scale(0.1 -0.1)">
     <use xlink:href="#DejaVuSans-49"/>
     <use x="63.623047" xlink:href="#DejaVuSans-53"/>
    </g>
   </g>
   <g id="text_34">
    <!-- 16 -->
    <g style="fill:#9932cc;" transform="translate(250.18665 437.6877)scale(0.1 -0.1)">
     <use xlink:href="#DejaVuSans-49"/>
     <use x="63.623047" xlink:href="#DejaVuSans-54"/>
    </g>
   </g>
   <g id="text_35">
    <!-- 17 -->
    <g style="fill:#ff4500;" transform="translate(282.534985 350.022829)scale(0.1 -0.1)">
     <use xlink:href="#DejaVuSans-49"/>
     <use x="63.623047" xlink:href="#DejaVuSans-55"/>
    </g>
   </g>
   <g id="text_36">
    <!-- 18 -->
    <g style="fill:#00ced1;" transform="translate(251.459901 304.191548)scale(0.1 -0.1)">
     <use xlink:href="#DejaVuSans-49"/>
     <use x="63.623047" xlink:href="#DejaVuSans-56"/>
    </g>
   </g>
   <g id="text_37">
    <!-- 19 -->
    <g style="fill:#ff8c00;" transform="translate(301.908231 292.222663)scale(0.1 -0.1)">
     <use xlink:href="#DejaVuSans-49"/>
     <use x="63.623047" xlink:href="#DejaVuSans-57"/>
    </g>
   </g>
   <g id="text_38">
    <!-- 10.1 -->
    <g style="fill:#ffd700;" transform="translate(286.981314 347.547824)scale(0.1 -0.1)">
     <use xlink:href="#DejaVuSans-49"/>
     <use x="63.623047" xlink:href="#DejaVuSans-48"/>
     <use x="127.246094" xlink:href="#DejaVuSans-46"/>
     <use x="159.033203" xlink:href="#DejaVuSans-49"/>
    </g>
   </g>
   <g id="text_39">
    <!-- 20 -->
    <g style="fill:#0000cd;" transform="translate(255.707431 368.589539)scale(0.1 -0.1)">
     <use xlink:href="#DejaVuSans-50"/>
     <use x="63.623047" xlink:href="#DejaVuSans-48"/>
    </g>
   </g>
   <g id="text_40">
    <!-- 21.0 -->
    <g style="fill:#deb887;" transform="translate(281.693385 272.418203)scale(0.1 -0.1)">
     <use xlink:href="#DejaVuSans-50"/>
     <use x="63.623047" xlink:href="#DejaVuSans-49"/>
     <use x="127.246094" xlink:href="#DejaVuSans-46"/>
     <use x="159.033203" xlink:href="#DejaVuSans-48"/>
    </g>
   </g>
   <g id="text_41">
    <!-- 22 -->
    <g style="fill:#00ff00;" transform="translate(300.422052 376.254242)scale(0.1 -0.1)">
     <use xlink:href="#DejaVuSans-50"/>
     <use x="63.623047" xlink:href="#DejaVuSans-50"/>
    </g>
   </g>
   <g id="text_42">
    <!-- 1.1 -->
    <g style="fill:#f4a460;" transform="translate(267.007249 220.057375)scale(0.1 -0.1)">
     <use xlink:href="#DejaVuSans-49"/>
     <use x="63.623047" xlink:href="#DejaVuSans-46"/>
     <use x="95.410156" xlink:href="#DejaVuSans-49"/>
    </g>
   </g>
   <g id="text_43">
    <!-- 0.1 -->
    <g style="fill:#0000ff;" transform="translate(263.388632 319.151409)scale(0.1 -0.1)">
     <use xlink:href="#DejaVuSans-48"/>
     <use x="63.623047" xlink:href="#DejaVuSans-46"/>
     <use x="95.410156" xlink:href="#DejaVuSans-49"/>
    </g>
   </g>
  </g>
 </g>
 <defs>
  <clipPath id="pc6e2779624">
   <rect height="498.96" width="390.6" x="63" y="77.76"/>
  </clipPath>
 </defs>
</svg>
