<?xml version="1.0" encoding="utf-8" standalone="no"?>
<!DOCTYPE svg PUBLIC "-//W3C//DTD SVG 1.1//EN"
  "http://www.w3.org/Graphics/SVG/1.1/DTD/svg11.dtd">
<!-- Created with matplotlib (https://matplotlib.org/) -->
<svg height="648pt" version="1.1" viewBox="0 0 504 648" width="504pt" xmlns="http://www.w3.org/2000/svg" xmlns:xlink="http://www.w3.org/1999/xlink">
 <metadata>
  <rdf:RDF xmlns:cc="http://creativecommons.org/ns#" xmlns:dc="http://purl.org/dc/elements/1.1/" xmlns:rdf="http://www.w3.org/1999/02/22-rdf-syntax-ns#">
   <cc:Work>
    <dc:type rdf:resource="http://purl.org/dc/dcmitype/StillImage"/>
    <dc:date>2023-05-10T17:16:49.516444</dc:date>
    <dc:format>image/svg+xml</dc:format>
    <dc:creator>
     <cc:Agent>
      <dc:title>Matplotlib v3.3.4, https://matplotlib.org/</dc:title>
     </cc:Agent>
    </dc:creator>
   </cc:Work>
  </rdf:RDF>
 </metadata>
 <defs>
  <style type="text/css">*{stroke-linecap:butt;stroke-linejoin:round;}</style>
 </defs>
 <g id="figure_1">
  <g id="patch_1">
   <path d="M 0 648 
L 504 648 
L 504 0 
L 0 0 
z
" style="fill:#ffffff;"/>
  </g>
  <g id="axes_1">
   <g id="patch_2">
    <path d="M 63 576.72 
L 453.6 576.72 
L 453.6 77.76 
L 63 77.76 
z
" style="fill:#ffffff;"/>
   </g>
   <g id="PathCollection_1">
    <path clip-path="url(#pca9f1f272a)" d="M 213.50354 258.557674 
C 215.800266 258.557674 218.003234 257.645175 219.627264 256.021144 
C 221.251295 254.397113 222.163794 252.194146 222.163794 249.89742 
C 222.163794 247.600694 221.251295 245.397726 219.627264 243.773695 
C 218.003234 242.149665 215.800266 241.237166 213.50354 241.237166 
C 211.206814 241.237166 209.003846 242.149665 207.379816 243.773695 
C 205.755785 245.397726 204.843286 247.600694 204.843286 249.89742 
C 204.843286 252.194146 205.755785 254.397113 207.379816 256.021144 
C 209.003846 257.645175 211.206814 258.557674 213.50354 258.557674 
z
" style="fill:#2f4f4f;stroke:#2f4f4f;"/>
    <path clip-path="url(#pca9f1f272a)" d="M 278.244456 269.508171 
C 281.209517 269.508171 284.053535 268.33014 286.15015 266.233525 
C 288.246765 264.136911 289.424796 261.292892 289.424796 258.327831 
C 289.424796 255.36277 288.246765 252.518752 286.15015 250.422137 
C 284.053535 248.325522 281.209517 247.147491 278.244456 247.147491 
C 275.279395 247.147491 272.435376 248.325522 270.338762 250.422137 
C 268.242147 252.518752 267.064116 255.36277 267.064116 258.327831 
C 267.064116 261.292892 268.242147 264.136911 270.338762 266.233525 
C 272.435376 268.33014 275.279395 269.508171 278.244456 269.508171 
z
" style="fill:#556b2f;stroke:#556b2f;"/>
    <path clip-path="url(#pca9f1f272a)" d="M 274.109744 285.307256 
C 277.219526 285.307256 280.202358 284.071726 282.401306 281.872778 
C 284.600254 279.67383 285.835783 276.690998 285.835783 273.581216 
C 285.835783 270.471434 284.600254 267.488602 282.401306 265.289654 
C 280.202358 263.090706 277.219526 261.855177 274.109744 261.855177 
C 270.999962 261.855177 268.01713 263.090706 265.818182 265.289654 
C 263.619234 267.488602 262.383704 270.471434 262.383704 273.581216 
C 262.383704 276.690998 263.619234 279.67383 265.818182 281.872778 
C 268.01713 284.071726 270.999962 285.307256 274.109744 285.307256 
z
" style="fill:#8b4513;stroke:#8b4513;"/>
    <path clip-path="url(#pca9f1f272a)" d="M 254.406647 250.213435 
C 256.030677 250.213435 257.588411 249.568201 258.736774 248.419838 
C 259.885137 247.271475 260.530371 245.713742 260.530371 244.089711 
C 260.530371 242.46568 259.885137 240.907947 258.736774 239.759584 
C 257.588411 238.611221 256.030677 237.965987 254.406647 237.965987 
C 252.782616 237.965987 251.224883 238.611221 250.07652 239.759584 
C 248.928156 240.907947 248.282922 242.46568 248.282922 244.089711 
C 248.282922 245.713742 248.928156 247.271475 250.07652 248.419838 
C 251.224883 249.568201 252.782616 250.213435 254.406647 250.213435 
z
" style="fill:#2e8b57;stroke:#2e8b57;"/>
    <path clip-path="url(#pca9f1f272a)" d="M 276.970678 275.174933 
C 280.218739 275.174933 283.334205 273.884465 285.630932 271.587738 
C 287.927658 269.291012 289.218126 266.175546 289.218126 262.927484 
C 289.218126 259.679423 287.927658 256.563957 285.630932 254.26723 
C 283.334205 251.970504 280.218739 250.680036 276.970678 250.680036 
C 273.722616 250.680036 270.60715 251.970504 268.310424 254.26723 
C 266.013697 256.563957 264.723229 259.679423 264.723229 262.927484 
C 264.723229 266.175546 266.013697 269.291012 268.310424 271.587738 
C 270.60715 273.884465 273.722616 275.174933 276.970678 275.174933 
z
" style="fill:#228b22;stroke:#228b22;"/>
    <path clip-path="url(#pca9f1f272a)" d="M 257.090472 445.899823 
C 258.965741 445.899823 260.764457 445.15477 262.090472 443.828755 
C 263.416488 442.502739 264.16154 440.704024 264.16154 438.828755 
C 264.16154 436.953486 263.416488 435.15477 262.090472 433.828755 
C 260.764457 432.502739 258.965741 431.757687 257.090472 431.757687 
C 255.215203 431.757687 253.416488 432.502739 252.090472 433.828755 
C 250.764457 435.15477 250.019404 436.953486 250.019404 438.828755 
C 250.019404 440.704024 250.764457 442.502739 252.090472 443.828755 
C 253.416488 445.15477 255.215203 445.899823 257.090472 445.899823 
z
" style="fill:#708090;stroke:#708090;"/>
    <path clip-path="url(#pca9f1f272a)" d="M 270.52774 203.878482 
C 272.624355 203.878482 274.63538 203.045488 276.11791 201.562957 
C 277.600441 200.080427 278.433435 198.069402 278.433435 195.972787 
C 278.433435 193.876173 277.600441 191.865148 276.11791 190.382617 
C 274.63538 188.900087 272.624355 188.067093 270.52774 188.067093 
C 268.431126 188.067093 266.420101 188.900087 264.937571 190.382617 
C 263.45504 191.865148 262.622046 193.876173 262.622046 195.972787 
C 262.622046 198.069402 263.45504 200.080427 264.937571 201.562957 
C 266.420101 203.045488 268.431126 203.878482 270.52774 203.878482 
z
" style="fill:#8b0000;stroke:#8b0000;"/>
    <path clip-path="url(#pca9f1f272a)" d="M 239.358066 432.39687 
C 240.982097 432.39687 242.53983 431.751635 243.688193 430.603272 
C 244.836556 429.454909 245.481791 427.897176 245.481791 426.273145 
C 245.481791 424.649115 244.836556 423.091381 243.688193 421.943018 
C 242.53983 420.794655 240.982097 420.149421 239.358066 420.149421 
C 237.734036 420.149421 236.176302 420.794655 235.027939 421.943018 
C 233.879576 423.091381 233.234342 424.649115 233.234342 426.273145 
C 233.234342 427.897176 233.879576 429.454909 235.027939 430.603272 
C 236.176302 431.751635 237.734036 432.39687 239.358066 432.39687 
z
" style="fill:#808000;stroke:#808000;"/>
    <path clip-path="url(#pca9f1f272a)" d="M 270.621393 268.714737 
C 272.245424 268.714737 273.803157 268.069503 274.95152 266.92114 
C 276.099883 265.772777 276.745117 264.215043 276.745117 262.591013 
C 276.745117 260.966982 276.099883 259.409249 274.95152 258.260886 
C 273.803157 257.112523 272.245424 256.467288 270.621393 256.467288 
C 268.997362 256.467288 267.439629 257.112523 266.291266 258.260886 
C 265.142903 259.409249 264.497669 260.966982 264.497669 262.591013 
C 264.497669 264.215043 265.142903 265.772777 266.291266 266.92114 
C 267.439629 268.069503 268.997362 268.714737 270.621393 268.714737 
z
" style="fill:#00fa9a;stroke:#00fa9a;"/>
    <path clip-path="url(#pca9f1f272a)" d="M 252.227448 410.784446 
C 254.708196 410.784446 257.087673 409.798834 258.841827 408.04468 
C 260.59598 406.290527 261.581592 403.91105 261.581592 401.430302 
C 261.581592 398.949554 260.59598 396.570077 258.841827 394.815924 
C 257.087673 393.06177 254.708196 392.076159 252.227448 392.076159 
C 249.7467 392.076159 247.367224 393.06177 245.61307 394.815924 
C 243.858916 396.570077 242.873305 398.949554 242.873305 401.430302 
C 242.873305 403.91105 243.858916 406.290527 245.61307 408.04468 
C 247.367224 409.798834 249.7467 410.784446 252.227448 410.784446 
z
" style="fill:#008080;stroke:#008080;"/>
    <path clip-path="url(#pca9f1f272a)" d="M 246.581939 297.574478 
C 248.20597 297.574478 249.763703 296.929244 250.912066 295.780881 
C 252.060429 294.632518 252.705663 293.074785 252.705663 291.450754 
C 252.705663 289.826723 252.060429 288.26899 250.912066 287.120627 
C 249.763703 285.972264 248.20597 285.32703 246.581939 285.32703 
C 244.957908 285.32703 243.400175 285.972264 242.251812 287.120627 
C 241.103449 288.26899 240.458215 289.826723 240.458215 291.450754 
C 240.458215 293.074785 241.103449 294.632518 242.251812 295.780881 
C 243.400175 296.929244 244.957908 297.574478 246.581939 297.574478 
z
" style="fill:#b8860b;stroke:#b8860b;"/>
    <path clip-path="url(#pca9f1f272a)" d="M 289.235413 237.299817 
C 291.532139 237.299817 293.735107 236.387318 295.359137 234.763288 
C 296.983168 233.139257 297.895667 230.93629 297.895667 228.639563 
C 297.895667 226.342837 296.983168 224.13987 295.359137 222.515839 
C 293.735107 220.891808 291.532139 219.979309 289.235413 219.979309 
C 286.938687 219.979309 284.735719 220.891808 283.111689 222.515839 
C 281.487658 224.13987 280.575159 226.342837 280.575159 228.639563 
C 280.575159 230.93629 281.487658 233.139257 283.111689 234.763288 
C 284.735719 236.387318 286.938687 237.299817 289.235413 237.299817 
z
" style="fill:#deb887;stroke:#deb887;"/>
    <path clip-path="url(#pca9f1f272a)" d="M 245.332272 245.036157 
C 247.984303 245.036157 250.528071 243.982494 252.40334 242.107225 
C 254.278609 240.231956 255.332272 237.688188 255.332272 235.036157 
C 255.332272 232.384126 254.278609 229.840358 252.40334 227.965089 
C 250.528071 226.08982 247.984303 225.036157 245.332272 225.036157 
C 242.680241 225.036157 240.136474 226.08982 238.261205 227.965089 
C 236.385936 229.840358 235.332272 232.384126 235.332272 235.036157 
C 235.332272 237.688188 236.385936 240.231956 238.261205 242.107225 
C 240.136474 243.982494 242.680241 245.036157 245.332272 245.036157 
z
" style="fill:#d2691e;stroke:#d2691e;"/>
    <path clip-path="url(#pca9f1f272a)" d="M 245.482758 277.012246 
C 247.963506 277.012246 250.342983 276.026635 252.097137 274.272481 
C 253.85129 272.518328 254.836902 270.138851 254.836902 267.658103 
C 254.836902 265.177355 253.85129 262.797878 252.097137 261.043725 
C 250.342983 259.289571 247.963506 258.303959 245.482758 258.303959 
C 243.00201 258.303959 240.622534 259.289571 238.86838 261.043725 
C 237.114226 262.797878 236.128615 265.177355 236.128615 267.658103 
C 236.128615 270.138851 237.114226 272.518328 238.86838 274.272481 
C 240.622534 276.026635 243.00201 277.012246 245.482758 277.012246 
z
" style="fill:#9acd32;stroke:#9acd32;"/>
    <path clip-path="url(#pca9f1f272a)" d="M 264.34431 267.490629 
C 266.440924 267.490629 268.451949 266.657635 269.93448 265.175105 
C 271.41701 263.692575 272.250004 261.68155 272.250004 259.584935 
C 272.250004 257.48832 271.41701 255.477296 269.93448 253.994765 
C 268.451949 252.512235 266.440924 251.679241 264.34431 251.679241 
C 262.247695 251.679241 260.23667 252.512235 258.75414 253.994765 
C 257.271609 255.477296 256.438616 257.48832 256.438616 259.584935 
C 256.438616 261.68155 257.271609 263.692575 258.75414 265.175105 
C 260.23667 266.657635 262.247695 267.490629 264.34431 267.490629 
z
" style="fill:#32cd32;stroke:#32cd32;"/>
    <path clip-path="url(#pca9f1f272a)" d="M 255.805372 318.157897 
C 257.429403 318.157897 258.987136 317.512663 260.135499 316.3643 
C 261.283862 315.215936 261.929096 313.658203 261.929096 312.034173 
C 261.929096 310.410142 261.283862 308.852409 260.135499 307.704046 
C 258.987136 306.555682 257.429403 305.910448 255.805372 305.910448 
C 254.181341 305.910448 252.623608 306.555682 251.475245 307.704046 
C 250.326882 308.852409 249.681648 310.410142 249.681648 312.034173 
C 249.681648 313.658203 250.326882 315.215936 251.475245 316.3643 
C 252.623608 317.512663 254.181341 318.157897 255.805372 318.157897 
z
" style="fill:#8fbc8f;stroke:#8fbc8f;"/>
    <path clip-path="url(#pca9f1f272a)" d="M 250.061442 214.815981 
C 251.685473 214.815981 253.243206 214.170747 254.391569 213.022384 
C 255.539932 211.874021 256.185167 210.316288 256.185167 208.692257 
C 256.185167 207.068226 255.539932 205.510493 254.391569 204.36213 
C 253.243206 203.213767 251.685473 202.568533 250.061442 202.568533 
C 248.437411 202.568533 246.879678 203.213767 245.731315 204.36213 
C 244.582952 205.510493 243.937718 207.068226 243.937718 208.692257 
C 243.937718 210.316288 244.582952 211.874021 245.731315 213.022384 
C 246.879678 214.170747 248.437411 214.815981 250.061442 214.815981 
z
" style="fill:#800080;stroke:#800080;"/>
    <path clip-path="url(#pca9f1f272a)" d="M 268.888977 251.813895 
C 270.764246 251.813895 272.562961 251.068842 273.888977 249.742827 
C 275.214992 248.416811 275.960045 246.618096 275.960045 244.742827 
C 275.960045 242.867558 275.214992 241.068842 273.888977 239.742827 
C 272.562961 238.416811 270.764246 237.671759 268.888977 237.671759 
C 267.013708 237.671759 265.214992 238.416811 263.888977 239.742827 
C 262.562961 241.068842 261.817909 242.867558 261.817909 244.742827 
C 261.817909 246.618096 262.562961 248.416811 263.888977 249.742827 
C 265.214992 251.068842 267.013708 251.813895 268.888977 251.813895 
z
" style="fill:#b03060;stroke:#b03060;"/>
    <path clip-path="url(#pca9f1f272a)" d="M 281.598389 445.514768 
C 283.473658 445.514768 285.272374 444.769716 286.598389 443.4437 
C 287.924405 442.117685 288.669457 440.318969 288.669457 438.4437 
C 288.669457 436.568431 287.924405 434.769716 286.598389 433.4437 
C 285.272374 432.117685 283.473658 431.372632 281.598389 431.372632 
C 279.72312 431.372632 277.924405 432.117685 276.598389 433.4437 
C 275.272374 434.769716 274.527321 436.568431 274.527321 438.4437 
C 274.527321 440.318969 275.272374 442.117685 276.598389 443.4437 
C 277.924405 444.769716 279.72312 445.514768 281.598389 445.514768 
z
" style="fill:#9932cc;stroke:#9932cc;"/>
    <path clip-path="url(#pca9f1f272a)" d="M 261.925962 356.902553 
C 263.549993 356.902553 265.107726 356.257319 266.256089 355.108956 
C 267.404453 353.960593 268.049687 352.402859 268.049687 350.778829 
C 268.049687 349.154798 267.404453 347.597065 266.256089 346.448702 
C 265.107726 345.300339 263.549993 344.655104 261.925962 344.655104 
C 260.301932 344.655104 258.744199 345.300339 257.595835 346.448702 
C 256.447472 347.597065 255.802238 349.154798 255.802238 350.778829 
C 255.802238 352.402859 256.447472 353.960593 257.595835 355.108956 
C 258.744199 356.257319 260.301932 356.902553 261.925962 356.902553 
z
" style="fill:#ff4500;stroke:#ff4500;"/>
    <path clip-path="url(#pca9f1f272a)" d="M 247.726768 311.071272 
C 249.350798 311.071272 250.908532 310.426038 252.056895 309.277675 
C 253.205258 308.129311 253.850492 306.571578 253.850492 304.947548 
C 253.850492 303.323517 253.205258 301.765784 252.056895 300.617421 
C 250.908532 299.469057 249.350798 298.823823 247.726768 298.823823 
C 246.102737 298.823823 244.545004 299.469057 243.396641 300.617421 
C 242.248278 301.765784 241.603043 303.323517 241.603043 304.947548 
C 241.603043 306.571578 242.248278 308.129311 243.396641 309.277675 
C 244.545004 310.426038 246.102737 311.071272 247.726768 311.071272 
z
" style="fill:#00ced1;stroke:#00ced1;"/>
    <path clip-path="url(#pca9f1f272a)" d="M 249.229655 299.102387 
C 250.853686 299.102387 252.411419 298.457153 253.559782 297.30879 
C 254.708145 296.160427 255.353379 294.602693 255.353379 292.978663 
C 255.353379 291.354632 254.708145 289.796899 253.559782 288.648536 
C 252.411419 287.500173 250.853686 286.854938 249.229655 286.854938 
C 247.605624 286.854938 246.047891 287.500173 244.899528 288.648536 
C 243.751165 289.796899 243.105931 291.354632 243.105931 292.978663 
C 243.105931 294.602693 243.751165 296.160427 244.899528 297.30879 
C 246.047891 298.457153 247.605624 299.102387 249.229655 299.102387 
z
" style="fill:#ff8c00;stroke:#ff8c00;"/>
    <path clip-path="url(#pca9f1f272a)" d="M 263.588305 375.469263 
C 265.212336 375.469263 266.770069 374.824029 267.918432 373.675666 
C 269.066795 372.527303 269.712029 370.96957 269.712029 369.345539 
C 269.712029 367.721508 269.066795 366.163775 267.918432 365.015412 
C 266.770069 363.867049 265.212336 363.221815 263.588305 363.221815 
C 261.964274 363.221815 260.406541 363.867049 259.258178 365.015412 
C 258.109815 366.163775 257.464581 367.721508 257.464581 369.345539 
C 257.464581 370.96957 258.109815 372.527303 259.258178 373.675666 
C 260.406541 374.824029 261.964274 375.469263 263.588305 375.469263 
z
" style="fill:#0000cd;stroke:#0000cd;"/>
    <path clip-path="url(#pca9f1f272a)" d="M 253.647231 383.133966 
C 255.271261 383.133966 256.828995 382.488732 257.977358 381.340369 
C 259.125721 380.192006 259.770955 378.634272 259.770955 377.010242 
C 259.770955 375.386211 259.125721 373.828478 257.977358 372.680115 
C 256.828995 371.531752 255.271261 370.886517 253.647231 370.886517 
C 252.0232 370.886517 250.465467 371.531752 249.317104 372.680115 
C 248.168741 373.828478 247.523506 375.386211 247.523506 377.010242 
C 247.523506 378.634272 248.168741 380.192006 249.317104 381.340369 
C 250.465467 382.488732 252.0232 383.133966 253.647231 383.133966 
z
" style="fill:#00ff00;stroke:#00ff00;"/>
   </g>
   <g id="matplotlib.axis_1">
    <g id="xtick_1">
     <g id="line2d_1">
      <defs>
       <path d="M 0 0 
L 0 3.5 
" id="m387a921b76" style="stroke:#000000;stroke-width:0.8;"/>
      </defs>
      <g>
       <use style="stroke:#000000;stroke-width:0.8;" x="258.3" xlink:href="#m387a921b76" y="576.72"/>
      </g>
     </g>
     <g id="text_1">
      <!-- MeanPD -->
      <g transform="translate(237.811719 591.318438)scale(0.1 -0.1)">
       <defs>
        <path d="M 9.8125 72.90625 
L 24.515625 72.90625 
L 43.109375 23.296875 
L 61.8125 72.90625 
L 76.515625 72.90625 
L 76.515625 0 
L 66.890625 0 
L 66.890625 64.015625 
L 48.09375 14.015625 
L 38.1875 14.015625 
L 19.390625 64.015625 
L 19.390625 0 
L 9.8125 0 
z
" id="DejaVuSans-77"/>
        <path d="M 56.203125 29.59375 
L 56.203125 25.203125 
L 14.890625 25.203125 
Q 15.484375 15.921875 20.484375 11.0625 
Q 25.484375 6.203125 34.421875 6.203125 
Q 39.59375 6.203125 44.453125 7.46875 
Q 49.3125 8.734375 54.109375 11.28125 
L 54.109375 2.78125 
Q 49.265625 0.734375 44.1875 -0.34375 
Q 39.109375 -1.421875 33.890625 -1.421875 
Q 20.796875 -1.421875 13.15625 6.1875 
Q 5.515625 13.8125 5.515625 26.8125 
Q 5.515625 40.234375 12.765625 48.109375 
Q 20.015625 56 32.328125 56 
Q 43.359375 56 49.78125 48.890625 
Q 56.203125 41.796875 56.203125 29.59375 
z
M 47.21875 32.234375 
Q 47.125 39.59375 43.09375 43.984375 
Q 39.0625 48.390625 32.421875 48.390625 
Q 24.90625 48.390625 20.390625 44.140625 
Q 15.875 39.890625 15.1875 32.171875 
z
" id="DejaVuSans-101"/>
        <path d="M 34.28125 27.484375 
Q 23.390625 27.484375 19.1875 25 
Q 14.984375 22.515625 14.984375 16.5 
Q 14.984375 11.71875 18.140625 8.90625 
Q 21.296875 6.109375 26.703125 6.109375 
Q 34.1875 6.109375 38.703125 11.40625 
Q 43.21875 16.703125 43.21875 25.484375 
L 43.21875 27.484375 
z
M 52.203125 31.203125 
L 52.203125 0 
L 43.21875 0 
L 43.21875 8.296875 
Q 40.140625 3.328125 35.546875 0.953125 
Q 30.953125 -1.421875 24.3125 -1.421875 
Q 15.921875 -1.421875 10.953125 3.296875 
Q 6 8.015625 6 15.921875 
Q 6 25.140625 12.171875 29.828125 
Q 18.359375 34.515625 30.609375 34.515625 
L 43.21875 34.515625 
L 43.21875 35.40625 
Q 43.21875 41.609375 39.140625 45 
Q 35.0625 48.390625 27.6875 48.390625 
Q 23 48.390625 18.546875 47.265625 
Q 14.109375 46.140625 10.015625 43.890625 
L 10.015625 52.203125 
Q 14.9375 54.109375 19.578125 55.046875 
Q 24.21875 56 28.609375 56 
Q 40.484375 56 46.34375 49.84375 
Q 52.203125 43.703125 52.203125 31.203125 
z
" id="DejaVuSans-97"/>
        <path d="M 54.890625 33.015625 
L 54.890625 0 
L 45.90625 0 
L 45.90625 32.71875 
Q 45.90625 40.484375 42.875 44.328125 
Q 39.84375 48.1875 33.796875 48.1875 
Q 26.515625 48.1875 22.3125 43.546875 
Q 18.109375 38.921875 18.109375 30.90625 
L 18.109375 0 
L 9.078125 0 
L 9.078125 54.6875 
L 18.109375 54.6875 
L 18.109375 46.1875 
Q 21.34375 51.125 25.703125 53.5625 
Q 30.078125 56 35.796875 56 
Q 45.21875 56 50.046875 50.171875 
Q 54.890625 44.34375 54.890625 33.015625 
z
" id="DejaVuSans-110"/>
        <path d="M 19.671875 64.796875 
L 19.671875 37.40625 
L 32.078125 37.40625 
Q 38.96875 37.40625 42.71875 40.96875 
Q 46.484375 44.53125 46.484375 51.125 
Q 46.484375 57.671875 42.71875 61.234375 
Q 38.96875 64.796875 32.078125 64.796875 
z
M 9.8125 72.90625 
L 32.078125 72.90625 
Q 44.34375 72.90625 50.609375 67.359375 
Q 56.890625 61.8125 56.890625 51.125 
Q 56.890625 40.328125 50.609375 34.8125 
Q 44.34375 29.296875 32.078125 29.296875 
L 19.671875 29.296875 
L 19.671875 0 
L 9.8125 0 
z
" id="DejaVuSans-80"/>
        <path d="M 19.671875 64.796875 
L 19.671875 8.109375 
L 31.59375 8.109375 
Q 46.6875 8.109375 53.6875 14.9375 
Q 60.6875 21.78125 60.6875 36.53125 
Q 60.6875 51.171875 53.6875 57.984375 
Q 46.6875 64.796875 31.59375 64.796875 
z
M 9.8125 72.90625 
L 30.078125 72.90625 
Q 51.265625 72.90625 61.171875 64.09375 
Q 71.09375 55.28125 71.09375 36.53125 
Q 71.09375 17.671875 61.125 8.828125 
Q 51.171875 0 30.078125 0 
L 9.8125 0 
z
" id="DejaVuSans-68"/>
       </defs>
       <use xlink:href="#DejaVuSans-77"/>
       <use x="86.279297" xlink:href="#DejaVuSans-101"/>
       <use x="147.802734" xlink:href="#DejaVuSans-97"/>
       <use x="209.082031" xlink:href="#DejaVuSans-110"/>
       <use x="272.460938" xlink:href="#DejaVuSans-80"/>
       <use x="332.763672" xlink:href="#DejaVuSans-68"/>
      </g>
     </g>
    </g>
   </g>
   <g id="matplotlib.axis_2">
    <g id="ytick_1">
     <g id="line2d_2">
      <defs>
       <path d="M 0 0 
L -3.5 0 
" id="m0021090bb7" style="stroke:#000000;stroke-width:0.8;"/>
      </defs>
      <g>
       <use style="stroke:#000000;stroke-width:0.8;" x="63" xlink:href="#m0021090bb7" y="576.72"/>
      </g>
     </g>
     <g id="text_2">
      <!-- −3.5 -->
      <g transform="translate(31.717187 580.519219)scale(0.1 -0.1)">
       <defs>
        <path d="M 10.59375 35.5 
L 73.1875 35.5 
L 73.1875 27.203125 
L 10.59375 27.203125 
z
" id="DejaVuSans-8722"/>
        <path d="M 40.578125 39.3125 
Q 47.65625 37.796875 51.625 33 
Q 55.609375 28.21875 55.609375 21.1875 
Q 55.609375 10.40625 48.1875 4.484375 
Q 40.765625 -1.421875 27.09375 -1.421875 
Q 22.515625 -1.421875 17.65625 -0.515625 
Q 12.796875 0.390625 7.625 2.203125 
L 7.625 11.71875 
Q 11.71875 9.328125 16.59375 8.109375 
Q 21.484375 6.890625 26.8125 6.890625 
Q 36.078125 6.890625 40.9375 10.546875 
Q 45.796875 14.203125 45.796875 21.1875 
Q 45.796875 27.640625 41.28125 31.265625 
Q 36.765625 34.90625 28.71875 34.90625 
L 20.21875 34.90625 
L 20.21875 43.015625 
L 29.109375 43.015625 
Q 36.375 43.015625 40.234375 45.921875 
Q 44.09375 48.828125 44.09375 54.296875 
Q 44.09375 59.90625 40.109375 62.90625 
Q 36.140625 65.921875 28.71875 65.921875 
Q 24.65625 65.921875 20.015625 65.03125 
Q 15.375 64.15625 9.8125 62.3125 
L 9.8125 71.09375 
Q 15.4375 72.65625 20.34375 73.4375 
Q 25.25 74.21875 29.59375 74.21875 
Q 40.828125 74.21875 47.359375 69.109375 
Q 53.90625 64.015625 53.90625 55.328125 
Q 53.90625 49.265625 50.4375 45.09375 
Q 46.96875 40.921875 40.578125 39.3125 
z
" id="DejaVuSans-51"/>
        <path d="M 10.6875 12.40625 
L 21 12.40625 
L 21 0 
L 10.6875 0 
z
" id="DejaVuSans-46"/>
        <path d="M 10.796875 72.90625 
L 49.515625 72.90625 
L 49.515625 64.59375 
L 19.828125 64.59375 
L 19.828125 46.734375 
Q 21.96875 47.46875 24.109375 47.828125 
Q 26.265625 48.1875 28.421875 48.1875 
Q 40.625 48.1875 47.75 41.5 
Q 54.890625 34.8125 54.890625 23.390625 
Q 54.890625 11.625 47.5625 5.09375 
Q 40.234375 -1.421875 26.90625 -1.421875 
Q 22.3125 -1.421875 17.546875 -0.640625 
Q 12.796875 0.140625 7.71875 1.703125 
L 7.71875 11.625 
Q 12.109375 9.234375 16.796875 8.0625 
Q 21.484375 6.890625 26.703125 6.890625 
Q 35.15625 6.890625 40.078125 11.328125 
Q 45.015625 15.765625 45.015625 23.390625 
Q 45.015625 31 40.078125 35.4375 
Q 35.15625 39.890625 26.703125 39.890625 
Q 22.75 39.890625 18.8125 39.015625 
Q 14.890625 38.140625 10.796875 36.28125 
z
" id="DejaVuSans-53"/>
       </defs>
       <use xlink:href="#DejaVuSans-8722"/>
       <use x="83.789062" xlink:href="#DejaVuSans-51"/>
       <use x="147.412109" xlink:href="#DejaVuSans-46"/>
       <use x="179.199219" xlink:href="#DejaVuSans-53"/>
      </g>
     </g>
    </g>
    <g id="ytick_2">
     <g id="line2d_3">
      <g>
       <use style="stroke:#000000;stroke-width:0.8;" x="63" xlink:href="#m0021090bb7" y="538.92"/>
      </g>
     </g>
     <g id="text_3">
      <!-- −3.0 -->
      <g transform="translate(31.717187 542.719219)scale(0.1 -0.1)">
       <defs>
        <path d="M 31.78125 66.40625 
Q 24.171875 66.40625 20.328125 58.90625 
Q 16.5 51.421875 16.5 36.375 
Q 16.5 21.390625 20.328125 13.890625 
Q 24.171875 6.390625 31.78125 6.390625 
Q 39.453125 6.390625 43.28125 13.890625 
Q 47.125 21.390625 47.125 36.375 
Q 47.125 51.421875 43.28125 58.90625 
Q 39.453125 66.40625 31.78125 66.40625 
z
M 31.78125 74.21875 
Q 44.046875 74.21875 50.515625 64.515625 
Q 56.984375 54.828125 56.984375 36.375 
Q 56.984375 17.96875 50.515625 8.265625 
Q 44.046875 -1.421875 31.78125 -1.421875 
Q 19.53125 -1.421875 13.0625 8.265625 
Q 6.59375 17.96875 6.59375 36.375 
Q 6.59375 54.828125 13.0625 64.515625 
Q 19.53125 74.21875 31.78125 74.21875 
z
" id="DejaVuSans-48"/>
       </defs>
       <use xlink:href="#DejaVuSans-8722"/>
       <use x="83.789062" xlink:href="#DejaVuSans-51"/>
       <use x="147.412109" xlink:href="#DejaVuSans-46"/>
       <use x="179.199219" xlink:href="#DejaVuSans-48"/>
      </g>
     </g>
    </g>
    <g id="ytick_3">
     <g id="line2d_4">
      <g>
       <use style="stroke:#000000;stroke-width:0.8;" x="63" xlink:href="#m0021090bb7" y="501.12"/>
      </g>
     </g>
     <g id="text_4">
      <!-- −2.5 -->
      <g transform="translate(31.717187 504.919219)scale(0.1 -0.1)">
       <defs>
        <path d="M 19.1875 8.296875 
L 53.609375 8.296875 
L 53.609375 0 
L 7.328125 0 
L 7.328125 8.296875 
Q 12.9375 14.109375 22.625 23.890625 
Q 32.328125 33.6875 34.8125 36.53125 
Q 39.546875 41.84375 41.421875 45.53125 
Q 43.3125 49.21875 43.3125 52.78125 
Q 43.3125 58.59375 39.234375 62.25 
Q 35.15625 65.921875 28.609375 65.921875 
Q 23.96875 65.921875 18.8125 64.3125 
Q 13.671875 62.703125 7.8125 59.421875 
L 7.8125 69.390625 
Q 13.765625 71.78125 18.9375 73 
Q 24.125 74.21875 28.421875 74.21875 
Q 39.75 74.21875 46.484375 68.546875 
Q 53.21875 62.890625 53.21875 53.421875 
Q 53.21875 48.921875 51.53125 44.890625 
Q 49.859375 40.875 45.40625 35.40625 
Q 44.1875 33.984375 37.640625 27.21875 
Q 31.109375 20.453125 19.1875 8.296875 
z
" id="DejaVuSans-50"/>
       </defs>
       <use xlink:href="#DejaVuSans-8722"/>
       <use x="83.789062" xlink:href="#DejaVuSans-50"/>
       <use x="147.412109" xlink:href="#DejaVuSans-46"/>
       <use x="179.199219" xlink:href="#DejaVuSans-53"/>
      </g>
     </g>
    </g>
    <g id="ytick_4">
     <g id="line2d_5">
      <g>
       <use style="stroke:#000000;stroke-width:0.8;" x="63" xlink:href="#m0021090bb7" y="463.32"/>
      </g>
     </g>
     <g id="text_5">
      <!-- −2.0 -->
      <g transform="translate(31.717187 467.119219)scale(0.1 -0.1)">
       <use xlink:href="#DejaVuSans-8722"/>
       <use x="83.789062" xlink:href="#DejaVuSans-50"/>
       <use x="147.412109" xlink:href="#DejaVuSans-46"/>
       <use x="179.199219" xlink:href="#DejaVuSans-48"/>
      </g>
     </g>
    </g>
    <g id="ytick_5">
     <g id="line2d_6">
      <g>
       <use style="stroke:#000000;stroke-width:0.8;" x="63" xlink:href="#m0021090bb7" y="425.52"/>
      </g>
     </g>
     <g id="text_6">
      <!-- −1.5 -->
      <g transform="translate(31.717187 429.319219)scale(0.1 -0.1)">
       <defs>
        <path d="M 12.40625 8.296875 
L 28.515625 8.296875 
L 28.515625 63.921875 
L 10.984375 60.40625 
L 10.984375 69.390625 
L 28.421875 72.90625 
L 38.28125 72.90625 
L 38.28125 8.296875 
L 54.390625 8.296875 
L 54.390625 0 
L 12.40625 0 
z
" id="DejaVuSans-49"/>
       </defs>
       <use xlink:href="#DejaVuSans-8722"/>
       <use x="83.789062" xlink:href="#DejaVuSans-49"/>
       <use x="147.412109" xlink:href="#DejaVuSans-46"/>
       <use x="179.199219" xlink:href="#DejaVuSans-53"/>
      </g>
     </g>
    </g>
    <g id="ytick_6">
     <g id="line2d_7">
      <g>
       <use style="stroke:#000000;stroke-width:0.8;" x="63" xlink:href="#m0021090bb7" y="387.72"/>
      </g>
     </g>
     <g id="text_7">
      <!-- −1.0 -->
      <g transform="translate(31.717187 391.519219)scale(0.1 -0.1)">
       <use xlink:href="#DejaVuSans-8722"/>
       <use x="83.789062" xlink:href="#DejaVuSans-49"/>
       <use x="147.412109" xlink:href="#DejaVuSans-46"/>
       <use x="179.199219" xlink:href="#DejaVuSans-48"/>
      </g>
     </g>
    </g>
    <g id="ytick_7">
     <g id="line2d_8">
      <g>
       <use style="stroke:#000000;stroke-width:0.8;" x="63" xlink:href="#m0021090bb7" y="349.92"/>
      </g>
     </g>
     <g id="text_8">
      <!-- −0.5 -->
      <g transform="translate(31.717187 353.719219)scale(0.1 -0.1)">
       <use xlink:href="#DejaVuSans-8722"/>
       <use x="83.789062" xlink:href="#DejaVuSans-48"/>
       <use x="147.412109" xlink:href="#DejaVuSans-46"/>
       <use x="179.199219" xlink:href="#DejaVuSans-53"/>
      </g>
     </g>
    </g>
    <g id="ytick_8">
     <g id="line2d_9">
      <g>
       <use style="stroke:#000000;stroke-width:0.8;" x="63" xlink:href="#m0021090bb7" y="312.12"/>
      </g>
     </g>
     <g id="text_9">
      <!-- 0.0 -->
      <g transform="translate(40.096875 315.919219)scale(0.1 -0.1)">
       <use xlink:href="#DejaVuSans-48"/>
       <use x="63.623047" xlink:href="#DejaVuSans-46"/>
       <use x="95.410156" xlink:href="#DejaVuSans-48"/>
      </g>
     </g>
    </g>
    <g id="ytick_9">
     <g id="line2d_10">
      <g>
       <use style="stroke:#000000;stroke-width:0.8;" x="63" xlink:href="#m0021090bb7" y="274.32"/>
      </g>
     </g>
     <g id="text_10">
      <!-- 0.5 -->
      <g transform="translate(40.096875 278.119219)scale(0.1 -0.1)">
       <use xlink:href="#DejaVuSans-48"/>
       <use x="63.623047" xlink:href="#DejaVuSans-46"/>
       <use x="95.410156" xlink:href="#DejaVuSans-53"/>
      </g>
     </g>
    </g>
    <g id="ytick_10">
     <g id="line2d_11">
      <g>
       <use style="stroke:#000000;stroke-width:0.8;" x="63" xlink:href="#m0021090bb7" y="236.52"/>
      </g>
     </g>
     <g id="text_11">
      <!-- 1.0 -->
      <g transform="translate(40.096875 240.319219)scale(0.1 -0.1)">
       <use xlink:href="#DejaVuSans-49"/>
       <use x="63.623047" xlink:href="#DejaVuSans-46"/>
       <use x="95.410156" xlink:href="#DejaVuSans-48"/>
      </g>
     </g>
    </g>
    <g id="ytick_11">
     <g id="line2d_12">
      <g>
       <use style="stroke:#000000;stroke-width:0.8;" x="63" xlink:href="#m0021090bb7" y="198.72"/>
      </g>
     </g>
     <g id="text_12">
      <!-- 1.5 -->
      <g transform="translate(40.096875 202.519219)scale(0.1 -0.1)">
       <use xlink:href="#DejaVuSans-49"/>
       <use x="63.623047" xlink:href="#DejaVuSans-46"/>
       <use x="95.410156" xlink:href="#DejaVuSans-53"/>
      </g>
     </g>
    </g>
    <g id="ytick_12">
     <g id="line2d_13">
      <g>
       <use style="stroke:#000000;stroke-width:0.8;" x="63" xlink:href="#m0021090bb7" y="160.92"/>
      </g>
     </g>
     <g id="text_13">
      <!-- 2.0 -->
      <g transform="translate(40.096875 164.719219)scale(0.1 -0.1)">
       <use xlink:href="#DejaVuSans-50"/>
       <use x="63.623047" xlink:href="#DejaVuSans-46"/>
       <use x="95.410156" xlink:href="#DejaVuSans-48"/>
      </g>
     </g>
    </g>
    <g id="ytick_13">
     <g id="line2d_14">
      <g>
       <use style="stroke:#000000;stroke-width:0.8;" x="63" xlink:href="#m0021090bb7" y="123.12"/>
      </g>
     </g>
     <g id="text_14">
      <!-- 2.5 -->
      <g transform="translate(40.096875 126.919219)scale(0.1 -0.1)">
       <use xlink:href="#DejaVuSans-50"/>
       <use x="63.623047" xlink:href="#DejaVuSans-46"/>
       <use x="95.410156" xlink:href="#DejaVuSans-53"/>
      </g>
     </g>
    </g>
    <g id="ytick_14">
     <g id="line2d_15">
      <g>
       <use style="stroke:#000000;stroke-width:0.8;" x="63" xlink:href="#m0021090bb7" y="85.32"/>
      </g>
     </g>
     <g id="text_15">
      <!-- 3.0 -->
      <g transform="translate(40.096875 89.119219)scale(0.1 -0.1)">
       <use xlink:href="#DejaVuSans-51"/>
       <use x="63.623047" xlink:href="#DejaVuSans-46"/>
       <use x="95.410156" xlink:href="#DejaVuSans-48"/>
      </g>
     </g>
    </g>
    <g id="text_16">
     <!-- LogOdds -->
     <g transform="translate(25.6375 349.061094)rotate(-90)scale(0.1 -0.1)">
      <defs>
       <path d="M 9.8125 72.90625 
L 19.671875 72.90625 
L 19.671875 8.296875 
L 55.171875 8.296875 
L 55.171875 0 
L 9.8125 0 
z
" id="DejaVuSans-76"/>
       <path d="M 30.609375 48.390625 
Q 23.390625 48.390625 19.1875 42.75 
Q 14.984375 37.109375 14.984375 27.296875 
Q 14.984375 17.484375 19.15625 11.84375 
Q 23.34375 6.203125 30.609375 6.203125 
Q 37.796875 6.203125 41.984375 11.859375 
Q 46.1875 17.53125 46.1875 27.296875 
Q 46.1875 37.015625 41.984375 42.703125 
Q 37.796875 48.390625 30.609375 48.390625 
z
M 30.609375 56 
Q 42.328125 56 49.015625 48.375 
Q 55.71875 40.765625 55.71875 27.296875 
Q 55.71875 13.875 49.015625 6.21875 
Q 42.328125 -1.421875 30.609375 -1.421875 
Q 18.84375 -1.421875 12.171875 6.21875 
Q 5.515625 13.875 5.515625 27.296875 
Q 5.515625 40.765625 12.171875 48.375 
Q 18.84375 56 30.609375 56 
z
" id="DejaVuSans-111"/>
       <path d="M 45.40625 27.984375 
Q 45.40625 37.75 41.375 43.109375 
Q 37.359375 48.484375 30.078125 48.484375 
Q 22.859375 48.484375 18.828125 43.109375 
Q 14.796875 37.75 14.796875 27.984375 
Q 14.796875 18.265625 18.828125 12.890625 
Q 22.859375 7.515625 30.078125 7.515625 
Q 37.359375 7.515625 41.375 12.890625 
Q 45.40625 18.265625 45.40625 27.984375 
z
M 54.390625 6.78125 
Q 54.390625 -7.171875 48.1875 -13.984375 
Q 42 -20.796875 29.203125 -20.796875 
Q 24.46875 -20.796875 20.265625 -20.09375 
Q 16.0625 -19.390625 12.109375 -17.921875 
L 12.109375 -9.1875 
Q 16.0625 -11.328125 19.921875 -12.34375 
Q 23.78125 -13.375 27.78125 -13.375 
Q 36.625 -13.375 41.015625 -8.765625 
Q 45.40625 -4.15625 45.40625 5.171875 
L 45.40625 9.625 
Q 42.625 4.78125 38.28125 2.390625 
Q 33.9375 0 27.875 0 
Q 17.828125 0 11.671875 7.65625 
Q 5.515625 15.328125 5.515625 27.984375 
Q 5.515625 40.671875 11.671875 48.328125 
Q 17.828125 56 27.875 56 
Q 33.9375 56 38.28125 53.609375 
Q 42.625 51.21875 45.40625 46.390625 
L 45.40625 54.6875 
L 54.390625 54.6875 
z
" id="DejaVuSans-103"/>
       <path d="M 39.40625 66.21875 
Q 28.65625 66.21875 22.328125 58.203125 
Q 16.015625 50.203125 16.015625 36.375 
Q 16.015625 22.609375 22.328125 14.59375 
Q 28.65625 6.59375 39.40625 6.59375 
Q 50.140625 6.59375 56.421875 14.59375 
Q 62.703125 22.609375 62.703125 36.375 
Q 62.703125 50.203125 56.421875 58.203125 
Q 50.140625 66.21875 39.40625 66.21875 
z
M 39.40625 74.21875 
Q 54.734375 74.21875 63.90625 63.9375 
Q 73.09375 53.65625 73.09375 36.375 
Q 73.09375 19.140625 63.90625 8.859375 
Q 54.734375 -1.421875 39.40625 -1.421875 
Q 24.03125 -1.421875 14.8125 8.828125 
Q 5.609375 19.09375 5.609375 36.375 
Q 5.609375 53.65625 14.8125 63.9375 
Q 24.03125 74.21875 39.40625 74.21875 
z
" id="DejaVuSans-79"/>
       <path d="M 45.40625 46.390625 
L 45.40625 75.984375 
L 54.390625 75.984375 
L 54.390625 0 
L 45.40625 0 
L 45.40625 8.203125 
Q 42.578125 3.328125 38.25 0.953125 
Q 33.9375 -1.421875 27.875 -1.421875 
Q 17.96875 -1.421875 11.734375 6.484375 
Q 5.515625 14.40625 5.515625 27.296875 
Q 5.515625 40.1875 11.734375 48.09375 
Q 17.96875 56 27.875 56 
Q 33.9375 56 38.25 53.625 
Q 42.578125 51.265625 45.40625 46.390625 
z
M 14.796875 27.296875 
Q 14.796875 17.390625 18.875 11.75 
Q 22.953125 6.109375 30.078125 6.109375 
Q 37.203125 6.109375 41.296875 11.75 
Q 45.40625 17.390625 45.40625 27.296875 
Q 45.40625 37.203125 41.296875 42.84375 
Q 37.203125 48.484375 30.078125 48.484375 
Q 22.953125 48.484375 18.875 42.84375 
Q 14.796875 37.203125 14.796875 27.296875 
z
" id="DejaVuSans-100"/>
       <path d="M 44.28125 53.078125 
L 44.28125 44.578125 
Q 40.484375 46.53125 36.375 47.5 
Q 32.28125 48.484375 27.875 48.484375 
Q 21.1875 48.484375 17.84375 46.4375 
Q 14.5 44.390625 14.5 40.28125 
Q 14.5 37.15625 16.890625 35.375 
Q 19.28125 33.59375 26.515625 31.984375 
L 29.59375 31.296875 
Q 39.15625 29.25 43.1875 25.515625 
Q 47.21875 21.78125 47.21875 15.09375 
Q 47.21875 7.46875 41.1875 3.015625 
Q 35.15625 -1.421875 24.609375 -1.421875 
Q 20.21875 -1.421875 15.453125 -0.5625 
Q 10.6875 0.296875 5.421875 2 
L 5.421875 11.28125 
Q 10.40625 8.6875 15.234375 7.390625 
Q 20.0625 6.109375 24.8125 6.109375 
Q 31.15625 6.109375 34.5625 8.28125 
Q 37.984375 10.453125 37.984375 14.40625 
Q 37.984375 18.0625 35.515625 20.015625 
Q 33.0625 21.96875 24.703125 23.78125 
L 21.578125 24.515625 
Q 13.234375 26.265625 9.515625 29.90625 
Q 5.8125 33.546875 5.8125 39.890625 
Q 5.8125 47.609375 11.28125 51.796875 
Q 16.75 56 26.8125 56 
Q 31.78125 56 36.171875 55.265625 
Q 40.578125 54.546875 44.28125 53.078125 
z
" id="DejaVuSans-115"/>
      </defs>
      <use xlink:href="#DejaVuSans-76"/>
      <use x="53.962891" xlink:href="#DejaVuSans-111"/>
      <use x="115.144531" xlink:href="#DejaVuSans-103"/>
      <use x="178.621094" xlink:href="#DejaVuSans-79"/>
      <use x="257.332031" xlink:href="#DejaVuSans-100"/>
      <use x="320.808594" xlink:href="#DejaVuSans-100"/>
      <use x="384.285156" xlink:href="#DejaVuSans-115"/>
     </g>
    </g>
   </g>
   <g id="line2d_16">
    <path clip-path="url(#pca9f1f272a)" d="M 229.005 355.420506 
L 287.595 355.420506 
L 287.595 248.608771 
L 229.005 248.608771 
L 229.005 355.420506 
" style="fill:none;stroke:#000000;stroke-linecap:square;"/>
   </g>
   <g id="line2d_17">
    <path clip-path="url(#pca9f1f272a)" d="M 258.3 355.420506 
L 258.3 438.828755 
" style="fill:none;stroke:#000000;stroke-linecap:square;"/>
   </g>
   <g id="line2d_18">
    <path clip-path="url(#pca9f1f272a)" d="M 258.3 248.608771 
L 258.3 195.972787 
" style="fill:none;stroke:#000000;stroke-linecap:square;"/>
   </g>
   <g id="line2d_19">
    <path clip-path="url(#pca9f1f272a)" d="M 243.6525 438.828755 
L 272.9475 438.828755 
" style="fill:none;stroke:#000000;stroke-linecap:square;"/>
   </g>
   <g id="line2d_20">
    <path clip-path="url(#pca9f1f272a)" d="M 243.6525 195.972787 
L 272.9475 195.972787 
" style="fill:none;stroke:#000000;stroke-linecap:square;"/>
   </g>
   <g id="line2d_21">
    <path clip-path="url(#pca9f1f272a)" d="M 229.005 270.61966 
L 287.595 270.61966 
" style="fill:none;stroke:#ff7f0e;stroke-linecap:square;"/>
   </g>
   <g id="patch_3">
    <path d="M 63 576.72 
L 63 77.76 
" style="fill:none;stroke:#000000;stroke-linecap:square;stroke-linejoin:miter;stroke-width:0.8;"/>
   </g>
   <g id="patch_4">
    <path d="M 453.6 576.72 
L 453.6 77.76 
" style="fill:none;stroke:#000000;stroke-linecap:square;stroke-linejoin:miter;stroke-width:0.8;"/>
   </g>
   <g id="patch_5">
    <path d="M 63 576.72 
L 453.6 576.72 
" style="fill:none;stroke:#000000;stroke-linecap:square;stroke-linejoin:miter;stroke-width:0.8;"/>
   </g>
   <g id="patch_6">
    <path d="M 63 77.76 
L 453.6 77.76 
" style="fill:none;stroke:#000000;stroke-linecap:square;stroke-linejoin:miter;stroke-width:0.8;"/>
   </g>
   <g id="text_17">
    <!-- 0 -->
    <g style="fill:#2f4f4f;" transform="translate(217.40954 249.14142)scale(0.1 -0.1)">
     <use xlink:href="#DejaVuSans-48"/>
    </g>
   </g>
   <g id="text_18">
    <!-- 1 -->
    <g style="fill:#556b2f;" transform="translate(282.150456 257.571831)scale(0.1 -0.1)">
     <use xlink:href="#DejaVuSans-49"/>
    </g>
   </g>
   <g id="text_19">
    <!-- 2 -->
    <g style="fill:#8b4513;" transform="translate(278.015744 272.825216)scale(0.1 -0.1)">
     <use xlink:href="#DejaVuSans-50"/>
    </g>
   </g>
   <g id="text_20">
    <!-- 3 -->
    <g style="fill:#2e8b57;" transform="translate(258.312647 243.333711)scale(0.1 -0.1)">
     <use xlink:href="#DejaVuSans-51"/>
    </g>
   </g>
   <g id="text_21">
    <!-- 4 -->
    <g style="fill:#228b22;" transform="translate(280.876678 262.171484)scale(0.1 -0.1)">
     <defs>
      <path d="M 37.796875 64.3125 
L 12.890625 25.390625 
L 37.796875 25.390625 
z
M 35.203125 72.90625 
L 47.609375 72.90625 
L 47.609375 25.390625 
L 58.015625 25.390625 
L 58.015625 17.1875 
L 47.609375 17.1875 
L 47.609375 0 
L 37.796875 0 
L 37.796875 17.1875 
L 4.890625 17.1875 
L 4.890625 26.703125 
z
" id="DejaVuSans-52"/>
     </defs>
     <use xlink:href="#DejaVuSans-52"/>
    </g>
   </g>
   <g id="text_22">
    <!-- 5 -->
    <g style="fill:#708090;" transform="translate(260.996472 438.072755)scale(0.1 -0.1)">
     <use xlink:href="#DejaVuSans-53"/>
    </g>
   </g>
   <g id="text_23">
    <!-- 6 -->
    <g style="fill:#8b0000;" transform="translate(274.43374 195.216787)scale(0.1 -0.1)">
     <defs>
      <path d="M 33.015625 40.375 
Q 26.375 40.375 22.484375 35.828125 
Q 18.609375 31.296875 18.609375 23.390625 
Q 18.609375 15.53125 22.484375 10.953125 
Q 26.375 6.390625 33.015625 6.390625 
Q 39.65625 6.390625 43.53125 10.953125 
Q 47.40625 15.53125 47.40625 23.390625 
Q 47.40625 31.296875 43.53125 35.828125 
Q 39.65625 40.375 33.015625 40.375 
z
M 52.59375 71.296875 
L 52.59375 62.3125 
Q 48.875 64.0625 45.09375 64.984375 
Q 41.3125 65.921875 37.59375 65.921875 
Q 27.828125 65.921875 22.671875 59.328125 
Q 17.53125 52.734375 16.796875 39.40625 
Q 19.671875 43.65625 24.015625 45.921875 
Q 28.375 48.1875 33.59375 48.1875 
Q 44.578125 48.1875 50.953125 41.515625 
Q 57.328125 34.859375 57.328125 23.390625 
Q 57.328125 12.15625 50.6875 5.359375 
Q 44.046875 -1.421875 33.015625 -1.421875 
Q 20.359375 -1.421875 13.671875 8.265625 
Q 6.984375 17.96875 6.984375 36.375 
Q 6.984375 53.65625 15.1875 63.9375 
Q 23.390625 74.21875 37.203125 74.21875 
Q 40.921875 74.21875 44.703125 73.484375 
Q 48.484375 72.75 52.59375 71.296875 
z
" id="DejaVuSans-54"/>
     </defs>
     <use xlink:href="#DejaVuSans-54"/>
    </g>
   </g>
   <g id="text_24">
    <!-- 7 -->
    <g style="fill:#808000;" transform="translate(243.264066 425.517145)scale(0.1 -0.1)">
     <defs>
      <path d="M 8.203125 72.90625 
L 55.078125 72.90625 
L 55.078125 68.703125 
L 28.609375 0 
L 18.3125 0 
L 43.21875 64.59375 
L 8.203125 64.59375 
z
" id="DejaVuSans-55"/>
     </defs>
     <use xlink:href="#DejaVuSans-55"/>
    </g>
   </g>
   <g id="text_25">
    <!-- 23 -->
    <g style="fill:#00fa9a;" transform="translate(274.527393 261.835013)scale(0.1 -0.1)">
     <use xlink:href="#DejaVuSans-50"/>
     <use x="63.623047" xlink:href="#DejaVuSans-51"/>
    </g>
   </g>
   <g id="text_26">
    <!-- 8 -->
    <g style="fill:#008080;" transform="translate(256.133448 400.674302)scale(0.1 -0.1)">
     <defs>
      <path d="M 31.78125 34.625 
Q 24.75 34.625 20.71875 30.859375 
Q 16.703125 27.09375 16.703125 20.515625 
Q 16.703125 13.921875 20.71875 10.15625 
Q 24.75 6.390625 31.78125 6.390625 
Q 38.8125 6.390625 42.859375 10.171875 
Q 46.921875 13.96875 46.921875 20.515625 
Q 46.921875 27.09375 42.890625 30.859375 
Q 38.875 34.625 31.78125 34.625 
z
M 21.921875 38.8125 
Q 15.578125 40.375 12.03125 44.71875 
Q 8.5 49.078125 8.5 55.328125 
Q 8.5 64.0625 14.71875 69.140625 
Q 20.953125 74.21875 31.78125 74.21875 
Q 42.671875 74.21875 48.875 69.140625 
Q 55.078125 64.0625 55.078125 55.328125 
Q 55.078125 49.078125 51.53125 44.71875 
Q 48 40.375 41.703125 38.8125 
Q 48.828125 37.15625 52.796875 32.3125 
Q 56.78125 27.484375 56.78125 20.515625 
Q 56.78125 9.90625 50.3125 4.234375 
Q 43.84375 -1.421875 31.78125 -1.421875 
Q 19.734375 -1.421875 13.25 4.234375 
Q 6.78125 9.90625 6.78125 20.515625 
Q 6.78125 27.484375 10.78125 32.3125 
Q 14.796875 37.15625 21.921875 38.8125 
z
M 18.3125 54.390625 
Q 18.3125 48.734375 21.84375 45.5625 
Q 25.390625 42.390625 31.78125 42.390625 
Q 38.140625 42.390625 41.71875 45.5625 
Q 45.3125 48.734375 45.3125 54.390625 
Q 45.3125 60.0625 41.71875 63.234375 
Q 38.140625 66.40625 31.78125 66.40625 
Q 25.390625 66.40625 21.84375 63.234375 
Q 18.3125 60.0625 18.3125 54.390625 
z
" id="DejaVuSans-56"/>
     </defs>
     <use xlink:href="#DejaVuSans-56"/>
    </g>
   </g>
   <g id="text_27">
    <!-- 9 -->
    <g style="fill:#b8860b;" transform="translate(250.487939 290.694754)scale(0.1 -0.1)">
     <defs>
      <path d="M 10.984375 1.515625 
L 10.984375 10.5 
Q 14.703125 8.734375 18.5 7.8125 
Q 22.3125 6.890625 25.984375 6.890625 
Q 35.75 6.890625 40.890625 13.453125 
Q 46.046875 20.015625 46.78125 33.40625 
Q 43.953125 29.203125 39.59375 26.953125 
Q 35.25 24.703125 29.984375 24.703125 
Q 19.046875 24.703125 12.671875 31.3125 
Q 6.296875 37.9375 6.296875 49.421875 
Q 6.296875 60.640625 12.9375 67.421875 
Q 19.578125 74.21875 30.609375 74.21875 
Q 43.265625 74.21875 49.921875 64.515625 
Q 56.59375 54.828125 56.59375 36.375 
Q 56.59375 19.140625 48.40625 8.859375 
Q 40.234375 -1.421875 26.421875 -1.421875 
Q 22.703125 -1.421875 18.890625 -0.6875 
Q 15.09375 0.046875 10.984375 1.515625 
z
M 30.609375 32.421875 
Q 37.25 32.421875 41.125 36.953125 
Q 45.015625 41.5 45.015625 49.421875 
Q 45.015625 57.28125 41.125 61.84375 
Q 37.25 66.40625 30.609375 66.40625 
Q 23.96875 66.40625 20.09375 61.84375 
Q 16.21875 57.28125 16.21875 49.421875 
Q 16.21875 41.5 20.09375 36.953125 
Q 23.96875 32.421875 30.609375 32.421875 
z
" id="DejaVuSans-57"/>
     </defs>
     <use xlink:href="#DejaVuSans-57"/>
    </g>
   </g>
   <g id="text_28">
    <!-- 21 -->
    <g style="fill:#deb887;" transform="translate(293.141413 227.883563)scale(0.1 -0.1)">
     <use xlink:href="#DejaVuSans-50"/>
     <use x="63.623047" xlink:href="#DejaVuSans-49"/>
    </g>
   </g>
   <g id="text_29">
    <!-- 10 -->
    <g style="fill:#d2691e;" transform="translate(249.238272 234.280157)scale(0.1 -0.1)">
     <use xlink:href="#DejaVuSans-49"/>
     <use x="63.623047" xlink:href="#DejaVuSans-48"/>
    </g>
   </g>
   <g id="text_30">
    <!-- 11 -->
    <g style="fill:#9acd32;" transform="translate(249.388758 266.902103)scale(0.1 -0.1)">
     <use xlink:href="#DejaVuSans-49"/>
     <use x="63.623047" xlink:href="#DejaVuSans-49"/>
    </g>
   </g>
   <g id="text_31">
    <!-- 12 -->
    <g style="fill:#32cd32;" transform="translate(268.25031 258.828935)scale(0.1 -0.1)">
     <use xlink:href="#DejaVuSans-49"/>
     <use x="63.623047" xlink:href="#DejaVuSans-50"/>
    </g>
   </g>
   <g id="text_32">
    <!-- 13 -->
    <g style="fill:#8fbc8f;" transform="translate(259.711372 311.278173)scale(0.1 -0.1)">
     <use xlink:href="#DejaVuSans-49"/>
     <use x="63.623047" xlink:href="#DejaVuSans-51"/>
    </g>
   </g>
   <g id="text_33">
    <!-- 14 -->
    <g style="fill:#800080;" transform="translate(253.967442 207.936257)scale(0.1 -0.1)">
     <use xlink:href="#DejaVuSans-49"/>
     <use x="63.623047" xlink:href="#DejaVuSans-52"/>
    </g>
   </g>
   <g id="text_34">
    <!-- 15 -->
    <g style="fill:#b03060;" transform="translate(272.794977 243.986827)scale(0.1 -0.1)">
     <use xlink:href="#DejaVuSans-49"/>
     <use x="63.623047" xlink:href="#DejaVuSans-53"/>
    </g>
   </g>
   <g id="text_35">
    <!-- 16 -->
    <g style="fill:#9932cc;" transform="translate(285.504389 437.6877)scale(0.1 -0.1)">
     <use xlink:href="#DejaVuSans-49"/>
     <use x="63.623047" xlink:href="#DejaVuSans-54"/>
    </g>
   </g>
   <g id="text_36">
    <!-- 17 -->
    <g style="fill:#ff4500;" transform="translate(265.831962 350.022829)scale(0.1 -0.1)">
     <use xlink:href="#DejaVuSans-49"/>
     <use x="63.623047" xlink:href="#DejaVuSans-55"/>
    </g>
   </g>
   <g id="text_37">
    <!-- 18 -->
    <g style="fill:#00ced1;" transform="translate(251.632768 304.191548)scale(0.1 -0.1)">
     <use xlink:href="#DejaVuSans-49"/>
     <use x="63.623047" xlink:href="#DejaVuSans-56"/>
    </g>
   </g>
   <g id="text_38">
    <!-- 19 -->
    <g style="fill:#ff8c00;" transform="translate(253.135655 292.222663)scale(0.1 -0.1)">
     <use xlink:href="#DejaVuSans-49"/>
     <use x="63.623047" xlink:href="#DejaVuSans-57"/>
    </g>
   </g>
   <g id="text_39">
    <!-- 20 -->
    <g style="fill:#0000cd;" transform="translate(267.494305 368.589539)scale(0.1 -0.1)">
     <use xlink:href="#DejaVuSans-50"/>
     <use x="63.623047" xlink:href="#DejaVuSans-48"/>
    </g>
   </g>
   <g id="text_40">
    <!-- 22 -->
    <g style="fill:#00ff00;" transform="translate(257.553231 376.254242)scale(0.1 -0.1)">
     <use xlink:href="#DejaVuSans-50"/>
     <use x="63.623047" xlink:href="#DejaVuSans-50"/>
    </g>
   </g>
  </g>
 </g>
 <defs>
  <clipPath id="pca9f1f272a">
   <rect height="498.96" width="390.6" x="63" y="77.76"/>
  </clipPath>
 </defs>
</svg>
