<?xml version="1.0" encoding="utf-8" standalone="no"?>
<!DOCTYPE svg PUBLIC "-//W3C//DTD SVG 1.1//EN"
  "http://www.w3.org/Graphics/SVG/1.1/DTD/svg11.dtd">
<!-- Created with matplotlib (https://matplotlib.org/) -->
<svg height="648pt" version="1.1" viewBox="0 0 504 648" width="504pt" xmlns="http://www.w3.org/2000/svg" xmlns:xlink="http://www.w3.org/1999/xlink">
 <metadata>
  <rdf:RDF xmlns:cc="http://creativecommons.org/ns#" xmlns:dc="http://purl.org/dc/elements/1.1/" xmlns:rdf="http://www.w3.org/1999/02/22-rdf-syntax-ns#">
   <cc:Work>
    <dc:type rdf:resource="http://purl.org/dc/dcmitype/StillImage"/>
    <dc:date>2023-05-24T16:20:13.936290</dc:date>
    <dc:format>image/svg+xml</dc:format>
    <dc:creator>
     <cc:Agent>
      <dc:title>Matplotlib v3.3.4, https://matplotlib.org/</dc:title>
     </cc:Agent>
    </dc:creator>
   </cc:Work>
  </rdf:RDF>
 </metadata>
 <defs>
  <style type="text/css">*{stroke-linecap:butt;stroke-linejoin:round;}</style>
 </defs>
 <g id="figure_1">
  <g id="patch_1">
   <path d="M 0 648 
L 504 648 
L 504 0 
L 0 0 
z
" style="fill:#ffffff;"/>
  </g>
  <g id="axes_1">
   <g id="patch_2">
    <path d="M 63 576.72 
L 453.6 576.72 
L 453.6 77.76 
L 63 77.76 
z
" style="fill:#ffffff;"/>
   </g>
   <g id="PathCollection_1">
    <path clip-path="url(#p6945f6dd24)" d="M 269.34879 246.190827 
C 271.224059 246.190827 273.022774 245.445774 274.34879 244.119759 
C 275.674805 242.793743 276.419858 240.995028 276.419858 239.119759 
C 276.419858 237.24449 275.674805 235.445774 274.34879 234.119759 
C 273.022774 232.793743 271.224059 232.048691 269.34879 232.048691 
C 267.473521 232.048691 265.674805 232.793743 264.34879 234.119759 
C 263.022774 235.445774 262.277722 237.24449 262.277722 239.119759 
C 262.277722 240.995028 263.022774 242.793743 264.34879 244.119759 
C 265.674805 245.445774 267.473521 246.190827 269.34879 246.190827 
z
" style="fill:#556b2f;stroke:#556b2f;"/>
    <path clip-path="url(#p6945f6dd24)" d="M 249.366571 240.918263 
C 251.663297 240.918263 253.866265 240.005764 255.490295 238.381734 
C 257.114326 236.757703 258.026825 234.554735 258.026825 232.258009 
C 258.026825 229.961283 257.114326 227.758316 255.490295 226.134285 
C 253.866265 224.510254 251.663297 223.597755 249.366571 223.597755 
C 247.069845 223.597755 244.866877 224.510254 243.242847 226.134285 
C 241.618816 227.758316 240.706317 229.961283 240.706317 232.258009 
C 240.706317 234.554735 241.618816 236.757703 243.242847 238.381734 
C 244.866877 240.005764 247.069845 240.918263 249.366571 240.918263 
z
" style="fill:#8b4513;stroke:#8b4513;"/>
    <path clip-path="url(#p6945f6dd24)" d="M 261.358667 240.022503 
C 262.982698 240.022503 264.540431 239.377269 265.688794 238.228906 
C 266.837157 237.080543 267.482391 235.522809 267.482391 233.898779 
C 267.482391 232.274748 266.837157 230.717015 265.688794 229.568652 
C 264.540431 228.420289 262.982698 227.775054 261.358667 227.775054 
C 259.734636 227.775054 258.176903 228.420289 257.02854 229.568652 
C 255.880177 230.717015 255.234943 232.274748 255.234943 233.898779 
C 255.234943 235.522809 255.880177 237.080543 257.02854 238.228906 
C 258.176903 239.377269 259.734636 240.022503 261.358667 240.022503 
z
" style="fill:#2e8b57;stroke:#2e8b57;"/>
    <path clip-path="url(#p6945f6dd24)" d="M 280.662324 295.040318 
C 282.758938 295.040318 284.769963 294.207324 286.252494 292.724794 
C 287.735024 291.242264 288.568018 289.231239 288.568018 287.134624 
C 288.568018 285.03801 287.735024 283.026985 286.252494 281.544454 
C 284.769963 280.061924 282.758938 279.22893 280.662324 279.22893 
C 278.565709 279.22893 276.554684 280.061924 275.072154 281.544454 
C 273.589623 283.026985 272.75663 285.03801 272.75663 287.134624 
C 272.75663 289.231239 273.589623 291.242264 275.072154 292.724794 
C 276.554684 294.207324 278.565709 295.040318 280.662324 295.040318 
z
" style="fill:#228b22;stroke:#228b22;"/>
    <path clip-path="url(#p6945f6dd24)" d="M 258.921382 244.191393 
C 260.247398 244.191393 261.519282 243.664561 262.456916 242.726927 
C 263.394551 241.789292 263.921382 240.517408 263.921382 239.191393 
C 263.921382 237.865377 263.394551 236.593493 262.456916 235.655859 
C 261.519282 234.718224 260.247398 234.191393 258.921382 234.191393 
C 257.595367 234.191393 256.323483 234.718224 255.385849 235.655859 
C 254.448214 236.593493 253.921382 237.865377 253.921382 239.191393 
C 253.921382 240.517408 254.448214 241.789292 255.385849 242.726927 
C 256.323483 243.664561 257.595367 244.191393 258.921382 244.191393 
z
" style="fill:#708090;stroke:#708090;"/>
    <path clip-path="url(#p6945f6dd24)" d="M 293.906981 192.955546 
C 296.003595 192.955546 298.01462 192.122552 299.497151 190.640021 
C 300.979681 189.157491 301.812675 187.146466 301.812675 185.049852 
C 301.812675 182.953237 300.979681 180.942212 299.497151 179.459682 
C 298.01462 177.977151 296.003595 177.144157 293.906981 177.144157 
C 291.810366 177.144157 289.799341 177.977151 288.316811 179.459682 
C 286.83428 180.942212 286.001286 182.953237 286.001286 185.049852 
C 286.001286 187.146466 286.83428 189.157491 288.316811 190.640021 
C 289.799341 192.122552 291.810366 192.955546 293.906981 192.955546 
z
" style="fill:#8b0000;stroke:#8b0000;"/>
    <path clip-path="url(#p6945f6dd24)" d="M 266.769382 254.069691 
C 268.095398 254.069691 269.367282 253.542859 270.304916 252.605224 
C 271.242551 251.66759 271.769382 250.395706 271.769382 249.069691 
C 271.769382 247.743675 271.242551 246.471791 270.304916 245.534157 
C 269.367282 244.596522 268.095398 244.069691 266.769382 244.069691 
C 265.443367 244.069691 264.171483 244.596522 263.233848 245.534157 
C 262.296214 246.471791 261.769382 247.743675 261.769382 249.069691 
C 261.769382 250.395706 262.296214 251.66759 263.233848 252.605224 
C 264.171483 253.542859 265.443367 254.069691 266.769382 254.069691 
z
" style="fill:#808000;stroke:#808000;"/>
    <path clip-path="url(#p6945f6dd24)" d="M 264.98247 253.031433 
C 267.463218 253.031433 269.842695 252.045821 271.596848 250.291668 
C 273.351002 248.537514 274.336613 246.158037 274.336613 243.677289 
C 274.336613 241.196542 273.351002 238.817065 271.596848 237.062911 
C 269.842695 235.308757 267.463218 234.323146 264.98247 234.323146 
C 262.501722 234.323146 260.122245 235.308757 258.368092 237.062911 
C 256.613938 238.817065 255.628327 241.196542 255.628327 243.677289 
C 255.628327 246.158037 256.613938 248.537514 258.368092 250.291668 
C 260.122245 252.045821 262.501722 253.031433 264.98247 253.031433 
z
" style="fill:#008080;stroke:#008080;"/>
    <path clip-path="url(#p6945f6dd24)" d="M 250.031683 231.326104 
C 251.655713 231.326104 253.213446 230.68087 254.36181 229.532507 
C 255.510173 228.384144 256.155407 226.82641 256.155407 225.20238 
C 256.155407 223.578349 255.510173 222.020616 254.36181 220.872253 
C 253.213446 219.72389 251.655713 219.078655 250.031683 219.078655 
C 248.407652 219.078655 246.849919 219.72389 245.701556 220.872253 
C 244.553192 222.020616 243.907958 223.578349 243.907958 225.20238 
C 243.907958 226.82641 244.553192 228.384144 245.701556 229.532507 
C 246.849919 230.68087 248.407652 231.326104 250.031683 231.326104 
z
" style="fill:#b8860b;stroke:#b8860b;"/>
    <path clip-path="url(#p6945f6dd24)" d="M 255.341984 241.177408 
C 256.966015 241.177408 258.523748 240.532173 259.672111 239.38381 
C 260.820475 238.235447 261.465709 236.677714 261.465709 235.053683 
C 261.465709 233.429653 260.820475 231.871919 259.672111 230.723556 
C 258.523748 229.575193 256.966015 228.929959 255.341984 228.929959 
C 253.717954 228.929959 252.16022 229.575193 251.011857 230.723556 
C 249.863494 231.871919 249.21826 233.429653 249.21826 235.053683 
C 249.21826 236.677714 249.863494 238.235447 251.011857 239.38381 
C 252.16022 240.532173 253.717954 241.177408 255.341984 241.177408 
z
" style="fill:#4682b4;stroke:#4682b4;"/>
    <path clip-path="url(#p6945f6dd24)" d="M 243.571624 240.964883 
C 244.89764 240.964883 246.169524 240.438051 247.107158 239.500417 
C 248.044793 238.562782 248.571624 237.290898 248.571624 235.964883 
C 248.571624 234.638867 248.044793 233.366984 247.107158 232.429349 
C 246.169524 231.491714 244.89764 230.964883 243.571624 230.964883 
C 242.245609 230.964883 240.973725 231.491714 240.036091 232.429349 
C 239.098456 233.366984 238.571624 234.638867 238.571624 235.964883 
C 238.571624 237.290898 239.098456 238.562782 240.036091 239.500417 
C 240.973725 240.438051 242.245609 240.964883 243.571624 240.964883 
z
" style="fill:#d2691e;stroke:#d2691e;"/>
    <path clip-path="url(#p6945f6dd24)" d="M 241.005554 232.689831 
C 243.102169 232.689831 245.113194 231.856837 246.595724 230.374307 
C 248.078255 228.891777 248.911248 226.880752 248.911248 224.784137 
C 248.911248 222.687522 248.078255 220.676497 246.595724 219.193967 
C 245.113194 217.711437 243.102169 216.878443 241.005554 216.878443 
C 238.90894 216.878443 236.897915 217.711437 235.415384 219.193967 
C 233.932854 220.676497 233.09986 222.687522 233.09986 224.784137 
C 233.09986 226.880752 233.932854 228.891777 235.415384 230.374307 
C 236.897915 231.856837 238.90894 232.689831 241.005554 232.689831 
z
" style="fill:#32cd32;stroke:#32cd32;"/>
    <path clip-path="url(#p6945f6dd24)" d="M 254.706518 246.507799 
C 256.032534 246.507799 257.304418 245.980967 258.242052 245.043333 
C 259.179687 244.105698 259.706518 242.833814 259.706518 241.507799 
C 259.706518 240.181783 259.179687 238.909899 258.242052 237.972265 
C 257.304418 237.03463 256.032534 236.507799 254.706518 236.507799 
C 253.380503 236.507799 252.108619 237.03463 251.170984 237.972265 
C 250.23335 238.909899 249.706518 240.181783 249.706518 241.507799 
C 249.706518 242.833814 250.23335 244.105698 251.170984 245.043333 
C 252.108619 245.980967 253.380503 246.507799 254.706518 246.507799 
z
" style="fill:#8fbc8f;stroke:#8fbc8f;"/>
    <path clip-path="url(#p6945f6dd24)" d="M 247.566728 254.089732 
C 249.663343 254.089732 251.674368 253.256739 253.156898 251.774208 
C 254.639428 250.291678 255.472422 248.280653 255.472422 246.184038 
C 255.472422 244.087424 254.639428 242.076399 253.156898 240.593868 
C 251.674368 239.111338 249.663343 238.278344 247.566728 238.278344 
C 245.470113 238.278344 243.459088 239.111338 241.976558 240.593868 
C 240.494028 242.076399 239.661034 244.087424 239.661034 246.184038 
C 239.661034 248.280653 240.494028 250.291678 241.976558 251.774208 
C 243.459088 253.256739 245.470113 254.089732 247.566728 254.089732 
z
" style="fill:#b03060;stroke:#b03060;"/>
    <path clip-path="url(#p6945f6dd24)" d="M 261.760488 358.624967 
C 263.384519 358.624967 264.942252 357.979733 266.090615 356.83137 
C 267.238978 355.683006 267.884212 354.125273 267.884212 352.501243 
C 267.884212 350.877212 267.238978 349.319479 266.090615 348.171116 
C 264.942252 347.022752 263.384519 346.377518 261.760488 346.377518 
C 260.136457 346.377518 258.578724 347.022752 257.430361 348.171116 
C 256.281998 349.319479 255.636764 350.877212 255.636764 352.501243 
C 255.636764 354.125273 256.281998 355.683006 257.430361 356.83137 
C 258.578724 357.979733 260.136457 358.624967 261.760488 358.624967 
z
" style="fill:#9932cc;stroke:#9932cc;"/>
    <path clip-path="url(#p6945f6dd24)" d="M 274.871381 239.316851 
C 276.197396 239.316851 277.46928 238.790019 278.406915 237.852385 
C 279.344549 236.91475 279.871381 235.642866 279.871381 234.316851 
C 279.871381 232.990835 279.344549 231.718951 278.406915 230.781317 
C 277.46928 229.843682 276.197396 229.316851 274.871381 229.316851 
C 273.545365 229.316851 272.273482 229.843682 271.335847 230.781317 
C 270.398212 231.718951 269.871381 232.990835 269.871381 234.316851 
C 269.871381 235.642866 270.398212 236.91475 271.335847 237.852385 
C 272.273482 238.790019 273.545365 239.316851 274.871381 239.316851 
z
" style="fill:#ff8c00;stroke:#ff8c00;"/>
    <path clip-path="url(#p6945f6dd24)" d="M 257.459646 225.968339 
C 258.785662 225.968339 260.057546 225.441507 260.99518 224.503872 
C 261.932815 223.566238 262.459646 222.294354 262.459646 220.968339 
C 262.459646 219.642323 261.932815 218.370439 260.99518 217.432805 
C 260.057546 216.49517 258.785662 215.968339 257.459646 215.968339 
C 256.133631 215.968339 254.861747 216.49517 253.924112 217.432805 
C 252.986478 218.370439 252.459646 219.642323 252.459646 220.968339 
C 252.459646 222.294354 252.986478 223.566238 253.924112 224.503872 
C 254.861747 225.441507 256.133631 225.968339 257.459646 225.968339 
z
" style="fill:#ffd700;stroke:#ffd700;"/>
    <path clip-path="url(#p6945f6dd24)" d="M 243.152603 224.493323 
C 244.478618 224.493323 245.750502 223.966491 246.688137 223.028857 
C 247.625771 222.091222 248.152603 220.819338 248.152603 219.493323 
C 248.152603 218.167307 247.625771 216.895423 246.688137 215.957789 
C 245.750502 215.020154 244.478618 214.493323 243.152603 214.493323 
C 241.826587 214.493323 240.554703 215.020154 239.617069 215.957789 
C 238.679434 216.895423 238.152603 218.167307 238.152603 219.493323 
C 238.152603 220.819338 238.679434 222.091222 239.617069 223.028857 
C 240.554703 223.966491 241.826587 224.493323 243.152603 224.493323 
z
" style="fill:#00bfff;stroke:#00bfff;"/>
    <path clip-path="url(#p6945f6dd24)" d="M 255.495796 238.888236 
C 257.371065 238.888236 259.16978 238.143183 260.495796 236.817168 
C 261.821811 235.491152 262.566864 233.692437 262.566864 231.817168 
C 262.566864 229.941899 261.821811 228.143183 260.495796 226.817168 
C 259.16978 225.491152 257.371065 224.7461 255.495796 224.7461 
C 253.620527 224.7461 251.821811 225.491152 250.495796 226.817168 
C 249.16978 228.143183 248.424728 229.941899 248.424728 231.817168 
C 248.424728 233.692437 249.16978 235.491152 250.495796 236.817168 
C 251.821811 238.143183 253.620527 238.888236 255.495796 238.888236 
z
" style="fill:#0000ff;stroke:#0000ff;"/>
    <path clip-path="url(#p6945f6dd24)" d="M 266.69211 267.655123 
C 268.018125 267.655123 269.290009 267.128292 270.227643 266.190657 
C 271.165278 265.253022 271.69211 263.981139 271.69211 262.655123 
C 271.69211 261.329108 271.165278 260.057224 270.227643 259.119589 
C 269.290009 258.181955 268.018125 257.655123 266.69211 257.655123 
C 265.366094 257.655123 264.09421 258.181955 263.156576 259.119589 
C 262.218941 260.057224 261.69211 261.329108 261.69211 262.655123 
C 261.69211 263.981139 262.218941 265.253022 263.156576 266.190657 
C 264.09421 267.128292 265.366094 267.655123 266.69211 267.655123 
z
" style="fill:#a020f0;stroke:#a020f0;"/>
    <path clip-path="url(#p6945f6dd24)" d="M 270.640507 288.183898 
C 271.966522 288.183898 273.238406 287.657067 274.176041 286.719432 
C 275.113675 285.781798 275.640507 284.509914 275.640507 283.183898 
C 275.640507 281.857883 275.113675 280.585999 274.176041 279.648364 
C 273.238406 278.71073 271.966522 278.183898 270.640507 278.183898 
C 269.314491 278.183898 268.042608 278.71073 267.104973 279.648364 
C 266.167339 280.585999 265.640507 281.857883 265.640507 283.183898 
C 265.640507 284.509914 266.167339 285.781798 267.104973 286.719432 
C 268.042608 287.657067 269.314491 288.183898 270.640507 288.183898 
z
" style="fill:#da70d6;stroke:#da70d6;"/>
    <path clip-path="url(#p6945f6dd24)" d="M 236.369106 267.058351 
C 238.244375 267.058351 240.043091 266.313299 241.369106 264.987283 
C 242.695122 263.661268 243.440174 261.862552 243.440174 259.987283 
C 243.440174 258.112014 242.695122 256.313299 241.369106 254.987283 
C 240.043091 253.661268 238.244375 252.916215 236.369106 252.916215 
C 234.493837 252.916215 232.695122 253.661268 231.369106 254.987283 
C 230.043091 256.313299 229.298038 258.112014 229.298038 259.987283 
C 229.298038 261.862552 230.043091 263.661268 231.369106 264.987283 
C 232.695122 266.313299 234.493837 267.058351 236.369106 267.058351 
z
" style="fill:#ff00ff;stroke:#ff00ff;"/>
    <path clip-path="url(#p6945f6dd24)" d="M 234.461229 249.284188 
C 236.085259 249.284188 237.642993 248.638953 238.791356 247.49059 
C 239.939719 246.342227 240.584953 244.784494 240.584953 243.160463 
C 240.584953 241.536432 239.939719 239.978699 238.791356 238.830336 
C 237.642993 237.681973 236.085259 237.036739 234.461229 237.036739 
C 232.837198 237.036739 231.279465 237.681973 230.131102 238.830336 
C 228.982739 239.978699 228.337504 241.536432 228.337504 243.160463 
C 228.337504 244.784494 228.982739 246.342227 230.131102 247.49059 
C 231.279465 248.638953 232.837198 249.284188 234.461229 249.284188 
z
" style="fill:#f0e68c;stroke:#f0e68c;"/>
    <path clip-path="url(#p6945f6dd24)" d="M 261.000566 261.85395 
C 262.326582 261.85395 263.598466 261.327118 264.5361 260.389484 
C 265.473735 259.451849 266.000566 258.179965 266.000566 256.85395 
C 266.000566 255.527934 265.473735 254.25605 264.5361 253.318416 
C 263.598466 252.380781 262.326582 251.85395 261.000566 251.85395 
C 259.674551 251.85395 258.402667 252.380781 257.465033 253.318416 
C 256.527398 254.25605 256.000566 255.527934 256.000566 256.85395 
C 256.000566 258.179965 256.527398 259.451849 257.465033 260.389484 
C 258.402667 261.327118 259.674551 261.85395 261.000566 261.85395 
z
" style="fill:#fa8072;stroke:#fa8072;"/>
    <path clip-path="url(#p6945f6dd24)" d="M 270.464177 437.30675 
C 271.790192 437.30675 273.062076 436.779918 273.999711 435.842284 
C 274.937345 434.904649 275.464177 433.632765 275.464177 432.30675 
C 275.464177 430.980734 274.937345 429.70885 273.999711 428.771216 
C 273.062076 427.833581 271.790192 427.30675 270.464177 427.30675 
C 269.138161 427.30675 267.866277 427.833581 266.928643 428.771216 
C 265.991008 429.70885 265.464177 430.980734 265.464177 432.30675 
C 265.464177 433.632765 265.991008 434.904649 266.928643 435.842284 
C 267.866277 436.779918 269.138161 437.30675 270.464177 437.30675 
z
" style="fill:#ffff54;stroke:#ffff54;"/>
    <path clip-path="url(#p6945f6dd24)" d="M 248.607355 387.267446 
C 249.933371 387.267446 251.205255 386.740614 252.142889 385.80298 
C 253.080524 384.865345 253.607355 383.593461 253.607355 382.267446 
C 253.607355 380.94143 253.080524 379.669546 252.142889 378.731912 
C 251.205255 377.794277 249.933371 377.267446 248.607355 377.267446 
C 247.28134 377.267446 246.009456 377.794277 245.071821 378.731912 
C 244.134187 379.669546 243.607355 380.94143 243.607355 382.267446 
C 243.607355 383.593461 244.134187 384.865345 245.071821 385.80298 
C 246.009456 386.740614 247.28134 387.267446 248.607355 387.267446 
z
" style="fill:#6495ed;stroke:#6495ed;"/>
    <path clip-path="url(#p6945f6dd24)" d="M 248.242932 285.701907 
C 249.568947 285.701907 250.840831 285.175075 251.778466 284.237441 
C 252.7161 283.299806 253.242932 282.027922 253.242932 280.701907 
C 253.242932 279.375891 252.7161 278.104007 251.778466 277.166373 
C 250.840831 276.228738 249.568947 275.701907 248.242932 275.701907 
C 246.916916 275.701907 245.645032 276.228738 244.707398 277.166373 
C 243.769763 278.104007 243.242932 279.375891 243.242932 280.701907 
C 243.242932 282.027922 243.769763 283.299806 244.707398 284.237441 
C 245.645032 285.175075 246.916916 285.701907 248.242932 285.701907 
z
" style="fill:#90ee90;stroke:#90ee90;"/>
    <path clip-path="url(#p6945f6dd24)" d="M 251.680364 246.196592 
C 253.00638 246.196592 254.278264 245.66976 255.215898 244.732125 
C 256.153533 243.794491 256.680364 242.522607 256.680364 241.196592 
C 256.680364 239.870576 256.153533 238.598692 255.215898 237.661058 
C 254.278264 236.723423 253.00638 236.196592 251.680364 236.196592 
C 250.354349 236.196592 249.082465 236.723423 248.144831 237.661058 
C 247.207196 238.598692 246.680364 239.870576 246.680364 241.196592 
C 246.680364 242.522607 247.207196 243.794491 248.144831 244.732125 
C 249.082465 245.66976 250.354349 246.196592 251.680364 246.196592 
z
" style="fill:#afeeee;stroke:#afeeee;"/>
   </g>
   <g id="matplotlib.axis_1">
    <g id="xtick_1">
     <g id="line2d_1">
      <defs>
       <path d="M 0 0 
L 0 3.5 
" id="maf51195f9d" style="stroke:#000000;stroke-width:0.8;"/>
      </defs>
      <g>
       <use style="stroke:#000000;stroke-width:0.8;" x="258.3" xlink:href="#maf51195f9d" y="576.72"/>
      </g>
     </g>
     <g id="text_1">
      <!-- MeanPD -->
      <g transform="translate(237.811719 591.318438)scale(0.1 -0.1)">
       <defs>
        <path d="M 9.8125 72.90625 
L 24.515625 72.90625 
L 43.109375 23.296875 
L 61.8125 72.90625 
L 76.515625 72.90625 
L 76.515625 0 
L 66.890625 0 
L 66.890625 64.015625 
L 48.09375 14.015625 
L 38.1875 14.015625 
L 19.390625 64.015625 
L 19.390625 0 
L 9.8125 0 
z
" id="DejaVuSans-77"/>
        <path d="M 56.203125 29.59375 
L 56.203125 25.203125 
L 14.890625 25.203125 
Q 15.484375 15.921875 20.484375 11.0625 
Q 25.484375 6.203125 34.421875 6.203125 
Q 39.59375 6.203125 44.453125 7.46875 
Q 49.3125 8.734375 54.109375 11.28125 
L 54.109375 2.78125 
Q 49.265625 0.734375 44.1875 -0.34375 
Q 39.109375 -1.421875 33.890625 -1.421875 
Q 20.796875 -1.421875 13.15625 6.1875 
Q 5.515625 13.8125 5.515625 26.8125 
Q 5.515625 40.234375 12.765625 48.109375 
Q 20.015625 56 32.328125 56 
Q 43.359375 56 49.78125 48.890625 
Q 56.203125 41.796875 56.203125 29.59375 
z
M 47.21875 32.234375 
Q 47.125 39.59375 43.09375 43.984375 
Q 39.0625 48.390625 32.421875 48.390625 
Q 24.90625 48.390625 20.390625 44.140625 
Q 15.875 39.890625 15.1875 32.171875 
z
" id="DejaVuSans-101"/>
        <path d="M 34.28125 27.484375 
Q 23.390625 27.484375 19.1875 25 
Q 14.984375 22.515625 14.984375 16.5 
Q 14.984375 11.71875 18.140625 8.90625 
Q 21.296875 6.109375 26.703125 6.109375 
Q 34.1875 6.109375 38.703125 11.40625 
Q 43.21875 16.703125 43.21875 25.484375 
L 43.21875 27.484375 
z
M 52.203125 31.203125 
L 52.203125 0 
L 43.21875 0 
L 43.21875 8.296875 
Q 40.140625 3.328125 35.546875 0.953125 
Q 30.953125 -1.421875 24.3125 -1.421875 
Q 15.921875 -1.421875 10.953125 3.296875 
Q 6 8.015625 6 15.921875 
Q 6 25.140625 12.171875 29.828125 
Q 18.359375 34.515625 30.609375 34.515625 
L 43.21875 34.515625 
L 43.21875 35.40625 
Q 43.21875 41.609375 39.140625 45 
Q 35.0625 48.390625 27.6875 48.390625 
Q 23 48.390625 18.546875 47.265625 
Q 14.109375 46.140625 10.015625 43.890625 
L 10.015625 52.203125 
Q 14.9375 54.109375 19.578125 55.046875 
Q 24.21875 56 28.609375 56 
Q 40.484375 56 46.34375 49.84375 
Q 52.203125 43.703125 52.203125 31.203125 
z
" id="DejaVuSans-97"/>
        <path d="M 54.890625 33.015625 
L 54.890625 0 
L 45.90625 0 
L 45.90625 32.71875 
Q 45.90625 40.484375 42.875 44.328125 
Q 39.84375 48.1875 33.796875 48.1875 
Q 26.515625 48.1875 22.3125 43.546875 
Q 18.109375 38.921875 18.109375 30.90625 
L 18.109375 0 
L 9.078125 0 
L 9.078125 54.6875 
L 18.109375 54.6875 
L 18.109375 46.1875 
Q 21.34375 51.125 25.703125 53.5625 
Q 30.078125 56 35.796875 56 
Q 45.21875 56 50.046875 50.171875 
Q 54.890625 44.34375 54.890625 33.015625 
z
" id="DejaVuSans-110"/>
        <path d="M 19.671875 64.796875 
L 19.671875 37.40625 
L 32.078125 37.40625 
Q 38.96875 37.40625 42.71875 40.96875 
Q 46.484375 44.53125 46.484375 51.125 
Q 46.484375 57.671875 42.71875 61.234375 
Q 38.96875 64.796875 32.078125 64.796875 
z
M 9.8125 72.90625 
L 32.078125 72.90625 
Q 44.34375 72.90625 50.609375 67.359375 
Q 56.890625 61.8125 56.890625 51.125 
Q 56.890625 40.328125 50.609375 34.8125 
Q 44.34375 29.296875 32.078125 29.296875 
L 19.671875 29.296875 
L 19.671875 0 
L 9.8125 0 
z
" id="DejaVuSans-80"/>
        <path d="M 19.671875 64.796875 
L 19.671875 8.109375 
L 31.59375 8.109375 
Q 46.6875 8.109375 53.6875 14.9375 
Q 60.6875 21.78125 60.6875 36.53125 
Q 60.6875 51.171875 53.6875 57.984375 
Q 46.6875 64.796875 31.59375 64.796875 
z
M 9.8125 72.90625 
L 30.078125 72.90625 
Q 51.265625 72.90625 61.171875 64.09375 
Q 71.09375 55.28125 71.09375 36.53125 
Q 71.09375 17.671875 61.125 8.828125 
Q 51.171875 0 30.078125 0 
L 9.8125 0 
z
" id="DejaVuSans-68"/>
       </defs>
       <use xlink:href="#DejaVuSans-77"/>
       <use x="86.279297" xlink:href="#DejaVuSans-101"/>
       <use x="147.802734" xlink:href="#DejaVuSans-97"/>
       <use x="209.082031" xlink:href="#DejaVuSans-110"/>
       <use x="272.460938" xlink:href="#DejaVuSans-80"/>
       <use x="332.763672" xlink:href="#DejaVuSans-68"/>
      </g>
     </g>
    </g>
   </g>
   <g id="matplotlib.axis_2">
    <g id="ytick_1">
     <g id="line2d_2">
      <defs>
       <path d="M 0 0 
L -3.5 0 
" id="ma66a98e5b9" style="stroke:#000000;stroke-width:0.8;"/>
      </defs>
      <g>
       <use style="stroke:#000000;stroke-width:0.8;" x="63" xlink:href="#ma66a98e5b9" y="576.72"/>
      </g>
     </g>
     <g id="text_2">
      <!-- −3.5 -->
      <g transform="translate(31.717187 580.519219)scale(0.1 -0.1)">
       <defs>
        <path d="M 10.59375 35.5 
L 73.1875 35.5 
L 73.1875 27.203125 
L 10.59375 27.203125 
z
" id="DejaVuSans-8722"/>
        <path d="M 40.578125 39.3125 
Q 47.65625 37.796875 51.625 33 
Q 55.609375 28.21875 55.609375 21.1875 
Q 55.609375 10.40625 48.1875 4.484375 
Q 40.765625 -1.421875 27.09375 -1.421875 
Q 22.515625 -1.421875 17.65625 -0.515625 
Q 12.796875 0.390625 7.625 2.203125 
L 7.625 11.71875 
Q 11.71875 9.328125 16.59375 8.109375 
Q 21.484375 6.890625 26.8125 6.890625 
Q 36.078125 6.890625 40.9375 10.546875 
Q 45.796875 14.203125 45.796875 21.1875 
Q 45.796875 27.640625 41.28125 31.265625 
Q 36.765625 34.90625 28.71875 34.90625 
L 20.21875 34.90625 
L 20.21875 43.015625 
L 29.109375 43.015625 
Q 36.375 43.015625 40.234375 45.921875 
Q 44.09375 48.828125 44.09375 54.296875 
Q 44.09375 59.90625 40.109375 62.90625 
Q 36.140625 65.921875 28.71875 65.921875 
Q 24.65625 65.921875 20.015625 65.03125 
Q 15.375 64.15625 9.8125 62.3125 
L 9.8125 71.09375 
Q 15.4375 72.65625 20.34375 73.4375 
Q 25.25 74.21875 29.59375 74.21875 
Q 40.828125 74.21875 47.359375 69.109375 
Q 53.90625 64.015625 53.90625 55.328125 
Q 53.90625 49.265625 50.4375 45.09375 
Q 46.96875 40.921875 40.578125 39.3125 
z
" id="DejaVuSans-51"/>
        <path d="M 10.6875 12.40625 
L 21 12.40625 
L 21 0 
L 10.6875 0 
z
" id="DejaVuSans-46"/>
        <path d="M 10.796875 72.90625 
L 49.515625 72.90625 
L 49.515625 64.59375 
L 19.828125 64.59375 
L 19.828125 46.734375 
Q 21.96875 47.46875 24.109375 47.828125 
Q 26.265625 48.1875 28.421875 48.1875 
Q 40.625 48.1875 47.75 41.5 
Q 54.890625 34.8125 54.890625 23.390625 
Q 54.890625 11.625 47.5625 5.09375 
Q 40.234375 -1.421875 26.90625 -1.421875 
Q 22.3125 -1.421875 17.546875 -0.640625 
Q 12.796875 0.140625 7.71875 1.703125 
L 7.71875 11.625 
Q 12.109375 9.234375 16.796875 8.0625 
Q 21.484375 6.890625 26.703125 6.890625 
Q 35.15625 6.890625 40.078125 11.328125 
Q 45.015625 15.765625 45.015625 23.390625 
Q 45.015625 31 40.078125 35.4375 
Q 35.15625 39.890625 26.703125 39.890625 
Q 22.75 39.890625 18.8125 39.015625 
Q 14.890625 38.140625 10.796875 36.28125 
z
" id="DejaVuSans-53"/>
       </defs>
       <use xlink:href="#DejaVuSans-8722"/>
       <use x="83.789062" xlink:href="#DejaVuSans-51"/>
       <use x="147.412109" xlink:href="#DejaVuSans-46"/>
       <use x="179.199219" xlink:href="#DejaVuSans-53"/>
      </g>
     </g>
    </g>
    <g id="ytick_2">
     <g id="line2d_3">
      <g>
       <use style="stroke:#000000;stroke-width:0.8;" x="63" xlink:href="#ma66a98e5b9" y="538.92"/>
      </g>
     </g>
     <g id="text_3">
      <!-- −3.0 -->
      <g transform="translate(31.717187 542.719219)scale(0.1 -0.1)">
       <defs>
        <path d="M 31.78125 66.40625 
Q 24.171875 66.40625 20.328125 58.90625 
Q 16.5 51.421875 16.5 36.375 
Q 16.5 21.390625 20.328125 13.890625 
Q 24.171875 6.390625 31.78125 6.390625 
Q 39.453125 6.390625 43.28125 13.890625 
Q 47.125 21.390625 47.125 36.375 
Q 47.125 51.421875 43.28125 58.90625 
Q 39.453125 66.40625 31.78125 66.40625 
z
M 31.78125 74.21875 
Q 44.046875 74.21875 50.515625 64.515625 
Q 56.984375 54.828125 56.984375 36.375 
Q 56.984375 17.96875 50.515625 8.265625 
Q 44.046875 -1.421875 31.78125 -1.421875 
Q 19.53125 -1.421875 13.0625 8.265625 
Q 6.59375 17.96875 6.59375 36.375 
Q 6.59375 54.828125 13.0625 64.515625 
Q 19.53125 74.21875 31.78125 74.21875 
z
" id="DejaVuSans-48"/>
       </defs>
       <use xlink:href="#DejaVuSans-8722"/>
       <use x="83.789062" xlink:href="#DejaVuSans-51"/>
       <use x="147.412109" xlink:href="#DejaVuSans-46"/>
       <use x="179.199219" xlink:href="#DejaVuSans-48"/>
      </g>
     </g>
    </g>
    <g id="ytick_3">
     <g id="line2d_4">
      <g>
       <use style="stroke:#000000;stroke-width:0.8;" x="63" xlink:href="#ma66a98e5b9" y="501.12"/>
      </g>
     </g>
     <g id="text_4">
      <!-- −2.5 -->
      <g transform="translate(31.717187 504.919219)scale(0.1 -0.1)">
       <defs>
        <path d="M 19.1875 8.296875 
L 53.609375 8.296875 
L 53.609375 0 
L 7.328125 0 
L 7.328125 8.296875 
Q 12.9375 14.109375 22.625 23.890625 
Q 32.328125 33.6875 34.8125 36.53125 
Q 39.546875 41.84375 41.421875 45.53125 
Q 43.3125 49.21875 43.3125 52.78125 
Q 43.3125 58.59375 39.234375 62.25 
Q 35.15625 65.921875 28.609375 65.921875 
Q 23.96875 65.921875 18.8125 64.3125 
Q 13.671875 62.703125 7.8125 59.421875 
L 7.8125 69.390625 
Q 13.765625 71.78125 18.9375 73 
Q 24.125 74.21875 28.421875 74.21875 
Q 39.75 74.21875 46.484375 68.546875 
Q 53.21875 62.890625 53.21875 53.421875 
Q 53.21875 48.921875 51.53125 44.890625 
Q 49.859375 40.875 45.40625 35.40625 
Q 44.1875 33.984375 37.640625 27.21875 
Q 31.109375 20.453125 19.1875 8.296875 
z
" id="DejaVuSans-50"/>
       </defs>
       <use xlink:href="#DejaVuSans-8722"/>
       <use x="83.789062" xlink:href="#DejaVuSans-50"/>
       <use x="147.412109" xlink:href="#DejaVuSans-46"/>
       <use x="179.199219" xlink:href="#DejaVuSans-53"/>
      </g>
     </g>
    </g>
    <g id="ytick_4">
     <g id="line2d_5">
      <g>
       <use style="stroke:#000000;stroke-width:0.8;" x="63" xlink:href="#ma66a98e5b9" y="463.32"/>
      </g>
     </g>
     <g id="text_5">
      <!-- −2.0 -->
      <g transform="translate(31.717187 467.119219)scale(0.1 -0.1)">
       <use xlink:href="#DejaVuSans-8722"/>
       <use x="83.789062" xlink:href="#DejaVuSans-50"/>
       <use x="147.412109" xlink:href="#DejaVuSans-46"/>
       <use x="179.199219" xlink:href="#DejaVuSans-48"/>
      </g>
     </g>
    </g>
    <g id="ytick_5">
     <g id="line2d_6">
      <g>
       <use style="stroke:#000000;stroke-width:0.8;" x="63" xlink:href="#ma66a98e5b9" y="425.52"/>
      </g>
     </g>
     <g id="text_6">
      <!-- −1.5 -->
      <g transform="translate(31.717187 429.319219)scale(0.1 -0.1)">
       <defs>
        <path d="M 12.40625 8.296875 
L 28.515625 8.296875 
L 28.515625 63.921875 
L 10.984375 60.40625 
L 10.984375 69.390625 
L 28.421875 72.90625 
L 38.28125 72.90625 
L 38.28125 8.296875 
L 54.390625 8.296875 
L 54.390625 0 
L 12.40625 0 
z
" id="DejaVuSans-49"/>
       </defs>
       <use xlink:href="#DejaVuSans-8722"/>
       <use x="83.789062" xlink:href="#DejaVuSans-49"/>
       <use x="147.412109" xlink:href="#DejaVuSans-46"/>
       <use x="179.199219" xlink:href="#DejaVuSans-53"/>
      </g>
     </g>
    </g>
    <g id="ytick_6">
     <g id="line2d_7">
      <g>
       <use style="stroke:#000000;stroke-width:0.8;" x="63" xlink:href="#ma66a98e5b9" y="387.72"/>
      </g>
     </g>
     <g id="text_7">
      <!-- −1.0 -->
      <g transform="translate(31.717187 391.519219)scale(0.1 -0.1)">
       <use xlink:href="#DejaVuSans-8722"/>
       <use x="83.789062" xlink:href="#DejaVuSans-49"/>
       <use x="147.412109" xlink:href="#DejaVuSans-46"/>
       <use x="179.199219" xlink:href="#DejaVuSans-48"/>
      </g>
     </g>
    </g>
    <g id="ytick_7">
     <g id="line2d_8">
      <g>
       <use style="stroke:#000000;stroke-width:0.8;" x="63" xlink:href="#ma66a98e5b9" y="349.92"/>
      </g>
     </g>
     <g id="text_8">
      <!-- −0.5 -->
      <g transform="translate(31.717187 353.719219)scale(0.1 -0.1)">
       <use xlink:href="#DejaVuSans-8722"/>
       <use x="83.789062" xlink:href="#DejaVuSans-48"/>
       <use x="147.412109" xlink:href="#DejaVuSans-46"/>
       <use x="179.199219" xlink:href="#DejaVuSans-53"/>
      </g>
     </g>
    </g>
    <g id="ytick_8">
     <g id="line2d_9">
      <g>
       <use style="stroke:#000000;stroke-width:0.8;" x="63" xlink:href="#ma66a98e5b9" y="312.12"/>
      </g>
     </g>
     <g id="text_9">
      <!-- 0.0 -->
      <g transform="translate(40.096875 315.919219)scale(0.1 -0.1)">
       <use xlink:href="#DejaVuSans-48"/>
       <use x="63.623047" xlink:href="#DejaVuSans-46"/>
       <use x="95.410156" xlink:href="#DejaVuSans-48"/>
      </g>
     </g>
    </g>
    <g id="ytick_9">
     <g id="line2d_10">
      <g>
       <use style="stroke:#000000;stroke-width:0.8;" x="63" xlink:href="#ma66a98e5b9" y="274.32"/>
      </g>
     </g>
     <g id="text_10">
      <!-- 0.5 -->
      <g transform="translate(40.096875 278.119219)scale(0.1 -0.1)">
       <use xlink:href="#DejaVuSans-48"/>
       <use x="63.623047" xlink:href="#DejaVuSans-46"/>
       <use x="95.410156" xlink:href="#DejaVuSans-53"/>
      </g>
     </g>
    </g>
    <g id="ytick_10">
     <g id="line2d_11">
      <g>
       <use style="stroke:#000000;stroke-width:0.8;" x="63" xlink:href="#ma66a98e5b9" y="236.52"/>
      </g>
     </g>
     <g id="text_11">
      <!-- 1.0 -->
      <g transform="translate(40.096875 240.319219)scale(0.1 -0.1)">
       <use xlink:href="#DejaVuSans-49"/>
       <use x="63.623047" xlink:href="#DejaVuSans-46"/>
       <use x="95.410156" xlink:href="#DejaVuSans-48"/>
      </g>
     </g>
    </g>
    <g id="ytick_11">
     <g id="line2d_12">
      <g>
       <use style="stroke:#000000;stroke-width:0.8;" x="63" xlink:href="#ma66a98e5b9" y="198.72"/>
      </g>
     </g>
     <g id="text_12">
      <!-- 1.5 -->
      <g transform="translate(40.096875 202.519219)scale(0.1 -0.1)">
       <use xlink:href="#DejaVuSans-49"/>
       <use x="63.623047" xlink:href="#DejaVuSans-46"/>
       <use x="95.410156" xlink:href="#DejaVuSans-53"/>
      </g>
     </g>
    </g>
    <g id="ytick_12">
     <g id="line2d_13">
      <g>
       <use style="stroke:#000000;stroke-width:0.8;" x="63" xlink:href="#ma66a98e5b9" y="160.92"/>
      </g>
     </g>
     <g id="text_13">
      <!-- 2.0 -->
      <g transform="translate(40.096875 164.719219)scale(0.1 -0.1)">
       <use xlink:href="#DejaVuSans-50"/>
       <use x="63.623047" xlink:href="#DejaVuSans-46"/>
       <use x="95.410156" xlink:href="#DejaVuSans-48"/>
      </g>
     </g>
    </g>
    <g id="ytick_13">
     <g id="line2d_14">
      <g>
       <use style="stroke:#000000;stroke-width:0.8;" x="63" xlink:href="#ma66a98e5b9" y="123.12"/>
      </g>
     </g>
     <g id="text_14">
      <!-- 2.5 -->
      <g transform="translate(40.096875 126.919219)scale(0.1 -0.1)">
       <use xlink:href="#DejaVuSans-50"/>
       <use x="63.623047" xlink:href="#DejaVuSans-46"/>
       <use x="95.410156" xlink:href="#DejaVuSans-53"/>
      </g>
     </g>
    </g>
    <g id="ytick_14">
     <g id="line2d_15">
      <g>
       <use style="stroke:#000000;stroke-width:0.8;" x="63" xlink:href="#ma66a98e5b9" y="85.32"/>
      </g>
     </g>
     <g id="text_15">
      <!-- 3.0 -->
      <g transform="translate(40.096875 89.119219)scale(0.1 -0.1)">
       <use xlink:href="#DejaVuSans-51"/>
       <use x="63.623047" xlink:href="#DejaVuSans-46"/>
       <use x="95.410156" xlink:href="#DejaVuSans-48"/>
      </g>
     </g>
    </g>
    <g id="text_16">
     <!-- LogOdds -->
     <g transform="translate(25.6375 349.061094)rotate(-90)scale(0.1 -0.1)">
      <defs>
       <path d="M 9.8125 72.90625 
L 19.671875 72.90625 
L 19.671875 8.296875 
L 55.171875 8.296875 
L 55.171875 0 
L 9.8125 0 
z
" id="DejaVuSans-76"/>
       <path d="M 30.609375 48.390625 
Q 23.390625 48.390625 19.1875 42.75 
Q 14.984375 37.109375 14.984375 27.296875 
Q 14.984375 17.484375 19.15625 11.84375 
Q 23.34375 6.203125 30.609375 6.203125 
Q 37.796875 6.203125 41.984375 11.859375 
Q 46.1875 17.53125 46.1875 27.296875 
Q 46.1875 37.015625 41.984375 42.703125 
Q 37.796875 48.390625 30.609375 48.390625 
z
M 30.609375 56 
Q 42.328125 56 49.015625 48.375 
Q 55.71875 40.765625 55.71875 27.296875 
Q 55.71875 13.875 49.015625 6.21875 
Q 42.328125 -1.421875 30.609375 -1.421875 
Q 18.84375 -1.421875 12.171875 6.21875 
Q 5.515625 13.875 5.515625 27.296875 
Q 5.515625 40.765625 12.171875 48.375 
Q 18.84375 56 30.609375 56 
z
" id="DejaVuSans-111"/>
       <path d="M 45.40625 27.984375 
Q 45.40625 37.75 41.375 43.109375 
Q 37.359375 48.484375 30.078125 48.484375 
Q 22.859375 48.484375 18.828125 43.109375 
Q 14.796875 37.75 14.796875 27.984375 
Q 14.796875 18.265625 18.828125 12.890625 
Q 22.859375 7.515625 30.078125 7.515625 
Q 37.359375 7.515625 41.375 12.890625 
Q 45.40625 18.265625 45.40625 27.984375 
z
M 54.390625 6.78125 
Q 54.390625 -7.171875 48.1875 -13.984375 
Q 42 -20.796875 29.203125 -20.796875 
Q 24.46875 -20.796875 20.265625 -20.09375 
Q 16.0625 -19.390625 12.109375 -17.921875 
L 12.109375 -9.1875 
Q 16.0625 -11.328125 19.921875 -12.34375 
Q 23.78125 -13.375 27.78125 -13.375 
Q 36.625 -13.375 41.015625 -8.765625 
Q 45.40625 -4.15625 45.40625 5.171875 
L 45.40625 9.625 
Q 42.625 4.78125 38.28125 2.390625 
Q 33.9375 0 27.875 0 
Q 17.828125 0 11.671875 7.65625 
Q 5.515625 15.328125 5.515625 27.984375 
Q 5.515625 40.671875 11.671875 48.328125 
Q 17.828125 56 27.875 56 
Q 33.9375 56 38.28125 53.609375 
Q 42.625 51.21875 45.40625 46.390625 
L 45.40625 54.6875 
L 54.390625 54.6875 
z
" id="DejaVuSans-103"/>
       <path d="M 39.40625 66.21875 
Q 28.65625 66.21875 22.328125 58.203125 
Q 16.015625 50.203125 16.015625 36.375 
Q 16.015625 22.609375 22.328125 14.59375 
Q 28.65625 6.59375 39.40625 6.59375 
Q 50.140625 6.59375 56.421875 14.59375 
Q 62.703125 22.609375 62.703125 36.375 
Q 62.703125 50.203125 56.421875 58.203125 
Q 50.140625 66.21875 39.40625 66.21875 
z
M 39.40625 74.21875 
Q 54.734375 74.21875 63.90625 63.9375 
Q 73.09375 53.65625 73.09375 36.375 
Q 73.09375 19.140625 63.90625 8.859375 
Q 54.734375 -1.421875 39.40625 -1.421875 
Q 24.03125 -1.421875 14.8125 8.828125 
Q 5.609375 19.09375 5.609375 36.375 
Q 5.609375 53.65625 14.8125 63.9375 
Q 24.03125 74.21875 39.40625 74.21875 
z
" id="DejaVuSans-79"/>
       <path d="M 45.40625 46.390625 
L 45.40625 75.984375 
L 54.390625 75.984375 
L 54.390625 0 
L 45.40625 0 
L 45.40625 8.203125 
Q 42.578125 3.328125 38.25 0.953125 
Q 33.9375 -1.421875 27.875 -1.421875 
Q 17.96875 -1.421875 11.734375 6.484375 
Q 5.515625 14.40625 5.515625 27.296875 
Q 5.515625 40.1875 11.734375 48.09375 
Q 17.96875 56 27.875 56 
Q 33.9375 56 38.25 53.625 
Q 42.578125 51.265625 45.40625 46.390625 
z
M 14.796875 27.296875 
Q 14.796875 17.390625 18.875 11.75 
Q 22.953125 6.109375 30.078125 6.109375 
Q 37.203125 6.109375 41.296875 11.75 
Q 45.40625 17.390625 45.40625 27.296875 
Q 45.40625 37.203125 41.296875 42.84375 
Q 37.203125 48.484375 30.078125 48.484375 
Q 22.953125 48.484375 18.875 42.84375 
Q 14.796875 37.203125 14.796875 27.296875 
z
" id="DejaVuSans-100"/>
       <path d="M 44.28125 53.078125 
L 44.28125 44.578125 
Q 40.484375 46.53125 36.375 47.5 
Q 32.28125 48.484375 27.875 48.484375 
Q 21.1875 48.484375 17.84375 46.4375 
Q 14.5 44.390625 14.5 40.28125 
Q 14.5 37.15625 16.890625 35.375 
Q 19.28125 33.59375 26.515625 31.984375 
L 29.59375 31.296875 
Q 39.15625 29.25 43.1875 25.515625 
Q 47.21875 21.78125 47.21875 15.09375 
Q 47.21875 7.46875 41.1875 3.015625 
Q 35.15625 -1.421875 24.609375 -1.421875 
Q 20.21875 -1.421875 15.453125 -0.5625 
Q 10.6875 0.296875 5.421875 2 
L 5.421875 11.28125 
Q 10.40625 8.6875 15.234375 7.390625 
Q 20.0625 6.109375 24.8125 6.109375 
Q 31.15625 6.109375 34.5625 8.28125 
Q 37.984375 10.453125 37.984375 14.40625 
Q 37.984375 18.0625 35.515625 20.015625 
Q 33.0625 21.96875 24.703125 23.78125 
L 21.578125 24.515625 
Q 13.234375 26.265625 9.515625 29.90625 
Q 5.8125 33.546875 5.8125 39.890625 
Q 5.8125 47.609375 11.28125 51.796875 
Q 16.75 56 26.8125 56 
Q 31.78125 56 36.171875 55.265625 
Q 40.578125 54.546875 44.28125 53.078125 
z
" id="DejaVuSans-115"/>
      </defs>
      <use xlink:href="#DejaVuSans-76"/>
      <use x="53.962891" xlink:href="#DejaVuSans-111"/>
      <use x="115.144531" xlink:href="#DejaVuSans-103"/>
      <use x="178.621094" xlink:href="#DejaVuSans-79"/>
      <use x="257.332031" xlink:href="#DejaVuSans-100"/>
      <use x="320.808594" xlink:href="#DejaVuSans-100"/>
      <use x="384.285156" xlink:href="#DejaVuSans-115"/>
     </g>
    </g>
   </g>
   <g id="line2d_16">
    <path clip-path="url(#p6945f6dd24)" d="M 229.005 260.654243 
L 287.595 260.654243 
L 287.595 233.488586 
L 229.005 233.488586 
L 229.005 260.654243 
" style="fill:none;stroke:#000000;stroke-linecap:square;"/>
   </g>
   <g id="line2d_17">
    <path clip-path="url(#p6945f6dd24)" d="M 258.3 260.654243 
L 258.3 287.134624 
" style="fill:none;stroke:#000000;stroke-linecap:square;"/>
   </g>
   <g id="line2d_18">
    <path clip-path="url(#p6945f6dd24)" d="M 258.3 233.488586 
L 258.3 219.493323 
" style="fill:none;stroke:#000000;stroke-linecap:square;"/>
   </g>
   <g id="line2d_19">
    <path clip-path="url(#p6945f6dd24)" d="M 243.6525 287.134624 
L 272.9475 287.134624 
" style="fill:none;stroke:#000000;stroke-linecap:square;"/>
   </g>
   <g id="line2d_20">
    <path clip-path="url(#p6945f6dd24)" d="M 243.6525 219.493323 
L 272.9475 219.493323 
" style="fill:none;stroke:#000000;stroke-linecap:square;"/>
   </g>
   <g id="line2d_21">
    <path clip-path="url(#p6945f6dd24)" d="M 229.005 241.352195 
L 287.595 241.352195 
" style="fill:none;stroke:#ff7f0e;stroke-linecap:square;"/>
   </g>
   <g id="patch_3">
    <path d="M 63 576.72 
L 63 77.76 
" style="fill:none;stroke:#000000;stroke-linecap:square;stroke-linejoin:miter;stroke-width:0.8;"/>
   </g>
   <g id="patch_4">
    <path d="M 453.6 576.72 
L 453.6 77.76 
" style="fill:none;stroke:#000000;stroke-linecap:square;stroke-linejoin:miter;stroke-width:0.8;"/>
   </g>
   <g id="patch_5">
    <path d="M 63 576.72 
L 453.6 576.72 
" style="fill:none;stroke:#000000;stroke-linecap:square;stroke-linejoin:miter;stroke-width:0.8;"/>
   </g>
   <g id="patch_6">
    <path d="M 63 77.76 
L 453.6 77.76 
" style="fill:none;stroke:#000000;stroke-linecap:square;stroke-linejoin:miter;stroke-width:0.8;"/>
   </g>
   <g id="text_17">
    <!-- 1 -->
    <g style="fill:#556b2f;" transform="translate(273.25479 238.363759)scale(0.1 -0.1)">
     <use xlink:href="#DejaVuSans-49"/>
    </g>
   </g>
   <g id="text_18">
    <!-- 2 -->
    <g style="fill:#8b4513;" transform="translate(253.272571 231.502009)scale(0.1 -0.1)">
     <use xlink:href="#DejaVuSans-50"/>
    </g>
   </g>
   <g id="text_19">
    <!-- 3.0 -->
    <g style="fill:#2e8b57;" transform="translate(265.264667 233.142779)scale(0.1 -0.1)">
     <use xlink:href="#DejaVuSans-51"/>
     <use x="63.623047" xlink:href="#DejaVuSans-46"/>
     <use x="95.410156" xlink:href="#DejaVuSans-48"/>
    </g>
   </g>
   <g id="text_20">
    <!-- 4.0 -->
    <g style="fill:#228b22;" transform="translate(284.568324 286.378624)scale(0.1 -0.1)">
     <defs>
      <path d="M 37.796875 64.3125 
L 12.890625 25.390625 
L 37.796875 25.390625 
z
M 35.203125 72.90625 
L 47.609375 72.90625 
L 47.609375 25.390625 
L 58.015625 25.390625 
L 58.015625 17.1875 
L 47.609375 17.1875 
L 47.609375 0 
L 37.796875 0 
L 37.796875 17.1875 
L 4.890625 17.1875 
L 4.890625 26.703125 
z
" id="DejaVuSans-52"/>
     </defs>
     <use xlink:href="#DejaVuSans-52"/>
     <use x="63.623047" xlink:href="#DejaVuSans-46"/>
     <use x="95.410156" xlink:href="#DejaVuSans-48"/>
    </g>
   </g>
   <g id="text_21">
    <!-- 5 -->
    <g style="fill:#708090;" transform="translate(262.827382 238.435393)scale(0.1 -0.1)">
     <use xlink:href="#DejaVuSans-53"/>
    </g>
   </g>
   <g id="text_22">
    <!-- 6 -->
    <g style="fill:#8b0000;" transform="translate(297.812981 184.293852)scale(0.1 -0.1)">
     <defs>
      <path d="M 33.015625 40.375 
Q 26.375 40.375 22.484375 35.828125 
Q 18.609375 31.296875 18.609375 23.390625 
Q 18.609375 15.53125 22.484375 10.953125 
Q 26.375 6.390625 33.015625 6.390625 
Q 39.65625 6.390625 43.53125 10.953125 
Q 47.40625 15.53125 47.40625 23.390625 
Q 47.40625 31.296875 43.53125 35.828125 
Q 39.65625 40.375 33.015625 40.375 
z
M 52.59375 71.296875 
L 52.59375 62.3125 
Q 48.875 64.0625 45.09375 64.984375 
Q 41.3125 65.921875 37.59375 65.921875 
Q 27.828125 65.921875 22.671875 59.328125 
Q 17.53125 52.734375 16.796875 39.40625 
Q 19.671875 43.65625 24.015625 45.921875 
Q 28.375 48.1875 33.59375 48.1875 
Q 44.578125 48.1875 50.953125 41.515625 
Q 57.328125 34.859375 57.328125 23.390625 
Q 57.328125 12.15625 50.6875 5.359375 
Q 44.046875 -1.421875 33.015625 -1.421875 
Q 20.359375 -1.421875 13.671875 8.265625 
Q 6.984375 17.96875 6.984375 36.375 
Q 6.984375 53.65625 15.1875 63.9375 
Q 23.390625 74.21875 37.203125 74.21875 
Q 40.921875 74.21875 44.703125 73.484375 
Q 48.484375 72.75 52.59375 71.296875 
z
" id="DejaVuSans-54"/>
     </defs>
     <use xlink:href="#DejaVuSans-54"/>
    </g>
   </g>
   <g id="text_23">
    <!-- 7.0 -->
    <g style="fill:#808000;" transform="translate(270.675382 248.313691)scale(0.1 -0.1)">
     <defs>
      <path d="M 8.203125 72.90625 
L 55.078125 72.90625 
L 55.078125 68.703125 
L 28.609375 0 
L 18.3125 0 
L 43.21875 64.59375 
L 8.203125 64.59375 
z
" id="DejaVuSans-55"/>
     </defs>
     <use xlink:href="#DejaVuSans-55"/>
     <use x="63.623047" xlink:href="#DejaVuSans-46"/>
     <use x="95.410156" xlink:href="#DejaVuSans-48"/>
    </g>
   </g>
   <g id="text_24">
    <!-- 9 -->
    <g style="fill:#008080;" transform="translate(268.88847 242.921289)scale(0.1 -0.1)">
     <defs>
      <path d="M 10.984375 1.515625 
L 10.984375 10.5 
Q 14.703125 8.734375 18.5 7.8125 
Q 22.3125 6.890625 25.984375 6.890625 
Q 35.75 6.890625 40.890625 13.453125 
Q 46.046875 20.015625 46.78125 33.40625 
Q 43.953125 29.203125 39.59375 26.953125 
Q 35.25 24.703125 29.984375 24.703125 
Q 19.046875 24.703125 12.671875 31.3125 
Q 6.296875 37.9375 6.296875 49.421875 
Q 6.296875 60.640625 12.9375 67.421875 
Q 19.578125 74.21875 30.609375 74.21875 
Q 43.265625 74.21875 49.921875 64.515625 
Q 56.59375 54.828125 56.59375 36.375 
Q 56.59375 19.140625 48.40625 8.859375 
Q 40.234375 -1.421875 26.421875 -1.421875 
Q 22.703125 -1.421875 18.890625 -0.6875 
Q 15.09375 0.046875 10.984375 1.515625 
z
M 30.609375 32.421875 
Q 37.25 32.421875 41.125 36.953125 
Q 45.015625 41.5 45.015625 49.421875 
Q 45.015625 57.28125 41.125 61.84375 
Q 37.25 66.40625 30.609375 66.40625 
Q 23.96875 66.40625 20.09375 61.84375 
Q 16.21875 57.28125 16.21875 49.421875 
Q 16.21875 41.5 20.09375 36.953125 
Q 23.96875 32.421875 30.609375 32.421875 
z
" id="DejaVuSans-57"/>
     </defs>
     <use xlink:href="#DejaVuSans-57"/>
    </g>
   </g>
   <g id="text_25">
    <!-- 10 -->
    <g style="fill:#b8860b;" transform="translate(253.937683 224.44638)scale(0.1 -0.1)">
     <use xlink:href="#DejaVuSans-49"/>
     <use x="63.623047" xlink:href="#DejaVuSans-48"/>
    </g>
   </g>
   <g id="text_26">
    <!-- 11 -->
    <g style="fill:#4682b4;" transform="translate(259.247984 234.297683)scale(0.1 -0.1)">
     <use xlink:href="#DejaVuSans-49"/>
     <use x="63.623047" xlink:href="#DejaVuSans-49"/>
    </g>
   </g>
   <g id="text_27">
    <!-- 12.0 -->
    <g style="fill:#d2691e;" transform="translate(247.477624 235.208883)scale(0.1 -0.1)">
     <use xlink:href="#DejaVuSans-49"/>
     <use x="63.623047" xlink:href="#DejaVuSans-50"/>
     <use x="127.246094" xlink:href="#DejaVuSans-46"/>
     <use x="159.033203" xlink:href="#DejaVuSans-48"/>
    </g>
   </g>
   <g id="text_28">
    <!-- 14 -->
    <g style="fill:#32cd32;" transform="translate(244.911554 224.028137)scale(0.1 -0.1)">
     <use xlink:href="#DejaVuSans-49"/>
     <use x="63.623047" xlink:href="#DejaVuSans-52"/>
    </g>
   </g>
   <g id="text_29">
    <!-- 15.0 -->
    <g style="fill:#8fbc8f;" transform="translate(258.612518 240.751799)scale(0.1 -0.1)">
     <use xlink:href="#DejaVuSans-49"/>
     <use x="63.623047" xlink:href="#DejaVuSans-53"/>
     <use x="127.246094" xlink:href="#DejaVuSans-46"/>
     <use x="159.033203" xlink:href="#DejaVuSans-48"/>
    </g>
   </g>
   <g id="text_30">
    <!-- 17 -->
    <g style="fill:#b03060;" transform="translate(251.472728 245.428038)scale(0.1 -0.1)">
     <use xlink:href="#DejaVuSans-49"/>
     <use x="63.623047" xlink:href="#DejaVuSans-55"/>
    </g>
   </g>
   <g id="text_31">
    <!-- 18.0 -->
    <g style="fill:#9932cc;" transform="translate(265.666488 351.745243)scale(0.1 -0.1)">
     <defs>
      <path d="M 31.78125 34.625 
Q 24.75 34.625 20.71875 30.859375 
Q 16.703125 27.09375 16.703125 20.515625 
Q 16.703125 13.921875 20.71875 10.15625 
Q 24.75 6.390625 31.78125 6.390625 
Q 38.8125 6.390625 42.859375 10.171875 
Q 46.921875 13.96875 46.921875 20.515625 
Q 46.921875 27.09375 42.890625 30.859375 
Q 38.875 34.625 31.78125 34.625 
z
M 21.921875 38.8125 
Q 15.578125 40.375 12.03125 44.71875 
Q 8.5 49.078125 8.5 55.328125 
Q 8.5 64.0625 14.71875 69.140625 
Q 20.953125 74.21875 31.78125 74.21875 
Q 42.671875 74.21875 48.875 69.140625 
Q 55.078125 64.0625 55.078125 55.328125 
Q 55.078125 49.078125 51.53125 44.71875 
Q 48 40.375 41.703125 38.8125 
Q 48.828125 37.15625 52.796875 32.3125 
Q 56.78125 27.484375 56.78125 20.515625 
Q 56.78125 9.90625 50.3125 4.234375 
Q 43.84375 -1.421875 31.78125 -1.421875 
Q 19.734375 -1.421875 13.25 4.234375 
Q 6.78125 9.90625 6.78125 20.515625 
Q 6.78125 27.484375 10.78125 32.3125 
Q 14.796875 37.15625 21.921875 38.8125 
z
M 18.3125 54.390625 
Q 18.3125 48.734375 21.84375 45.5625 
Q 25.390625 42.390625 31.78125 42.390625 
Q 38.140625 42.390625 41.71875 45.5625 
Q 45.3125 48.734375 45.3125 54.390625 
Q 45.3125 60.0625 41.71875 63.234375 
Q 38.140625 66.40625 31.78125 66.40625 
Q 25.390625 66.40625 21.84375 63.234375 
Q 18.3125 60.0625 18.3125 54.390625 
z
" id="DejaVuSans-56"/>
     </defs>
     <use xlink:href="#DejaVuSans-49"/>
     <use x="63.623047" xlink:href="#DejaVuSans-56"/>
     <use x="127.246094" xlink:href="#DejaVuSans-46"/>
     <use x="159.033203" xlink:href="#DejaVuSans-48"/>
    </g>
   </g>
   <g id="text_32">
    <!-- 22.3 -->
    <g style="fill:#ff8c00;" transform="translate(278.777381 233.560851)scale(0.1 -0.1)">
     <use xlink:href="#DejaVuSans-50"/>
     <use x="63.623047" xlink:href="#DejaVuSans-50"/>
     <use x="127.246094" xlink:href="#DejaVuSans-46"/>
     <use x="159.033203" xlink:href="#DejaVuSans-51"/>
    </g>
   </g>
   <g id="text_33">
    <!-- 21.0 -->
    <g style="fill:#ffd700;" transform="translate(261.365646 220.212339)scale(0.1 -0.1)">
     <use xlink:href="#DejaVuSans-50"/>
     <use x="63.623047" xlink:href="#DejaVuSans-49"/>
     <use x="127.246094" xlink:href="#DejaVuSans-46"/>
     <use x="159.033203" xlink:href="#DejaVuSans-48"/>
    </g>
   </g>
   <g id="text_34">
    <!-- 21.1 -->
    <g style="fill:#00bfff;" transform="translate(247.058603 218.737323)scale(0.1 -0.1)">
     <use xlink:href="#DejaVuSans-50"/>
     <use x="63.623047" xlink:href="#DejaVuSans-49"/>
     <use x="127.246094" xlink:href="#DejaVuSans-46"/>
     <use x="159.033203" xlink:href="#DejaVuSans-49"/>
    </g>
   </g>
   <g id="text_35">
    <!-- 20.1 -->
    <g style="fill:#0000ff;" transform="translate(259.401796 231.061168)scale(0.1 -0.1)">
     <use xlink:href="#DejaVuSans-50"/>
     <use x="63.623047" xlink:href="#DejaVuSans-48"/>
     <use x="127.246094" xlink:href="#DejaVuSans-46"/>
     <use x="159.033203" xlink:href="#DejaVuSans-49"/>
    </g>
   </g>
   <g id="text_36">
    <!-- 19.1 -->
    <g style="fill:#a020f0;" transform="translate(270.59811 261.899123)scale(0.1 -0.1)">
     <use xlink:href="#DejaVuSans-49"/>
     <use x="63.623047" xlink:href="#DejaVuSans-57"/>
     <use x="127.246094" xlink:href="#DejaVuSans-46"/>
     <use x="159.033203" xlink:href="#DejaVuSans-49"/>
    </g>
   </g>
   <g id="text_37">
    <!-- 16.2 -->
    <g style="fill:#da70d6;" transform="translate(274.546507 282.427898)scale(0.1 -0.1)">
     <use xlink:href="#DejaVuSans-49"/>
     <use x="63.623047" xlink:href="#DejaVuSans-54"/>
     <use x="127.246094" xlink:href="#DejaVuSans-46"/>
     <use x="159.033203" xlink:href="#DejaVuSans-50"/>
    </g>
   </g>
   <g id="text_38">
    <!-- 15.1 -->
    <g style="fill:#ff00ff;" transform="translate(240.275106 259.231283)scale(0.1 -0.1)">
     <use xlink:href="#DejaVuSans-49"/>
     <use x="63.623047" xlink:href="#DejaVuSans-53"/>
     <use x="127.246094" xlink:href="#DejaVuSans-46"/>
     <use x="159.033203" xlink:href="#DejaVuSans-49"/>
    </g>
   </g>
   <g id="text_39">
    <!-- 12.1 -->
    <g style="fill:#f0e68c;" transform="translate(238.367229 242.404463)scale(0.1 -0.1)">
     <use xlink:href="#DejaVuSans-49"/>
     <use x="63.623047" xlink:href="#DejaVuSans-50"/>
     <use x="127.246094" xlink:href="#DejaVuSans-46"/>
     <use x="159.033203" xlink:href="#DejaVuSans-49"/>
    </g>
   </g>
   <g id="text_40">
    <!-- 8.2 -->
    <g style="fill:#fa8072;" transform="translate(264.906566 256.09795)scale(0.1 -0.1)">
     <use xlink:href="#DejaVuSans-56"/>
     <use x="63.623047" xlink:href="#DejaVuSans-46"/>
     <use x="95.410156" xlink:href="#DejaVuSans-50"/>
    </g>
   </g>
   <g id="text_41">
    <!-- 8.1 -->
    <g style="fill:#ffff54;" transform="translate(274.370177 431.55075)scale(0.1 -0.1)">
     <use xlink:href="#DejaVuSans-56"/>
     <use x="63.623047" xlink:href="#DejaVuSans-46"/>
     <use x="95.410156" xlink:href="#DejaVuSans-49"/>
    </g>
   </g>
   <g id="text_42">
    <!-- 7.1 -->
    <g style="fill:#6495ed;" transform="translate(252.513355 381.511446)scale(0.1 -0.1)">
     <use xlink:href="#DejaVuSans-55"/>
     <use x="63.623047" xlink:href="#DejaVuSans-46"/>
     <use x="95.410156" xlink:href="#DejaVuSans-49"/>
    </g>
   </g>
   <g id="text_43">
    <!-- 4.1 -->
    <g style="fill:#90ee90;" transform="translate(252.148932 279.945907)scale(0.1 -0.1)">
     <use xlink:href="#DejaVuSans-52"/>
     <use x="63.623047" xlink:href="#DejaVuSans-46"/>
     <use x="95.410156" xlink:href="#DejaVuSans-49"/>
    </g>
   </g>
   <g id="text_44">
    <!-- 0.1 -->
    <g style="fill:#afeeee;" transform="translate(255.586364 240.440592)scale(0.1 -0.1)">
     <use xlink:href="#DejaVuSans-48"/>
     <use x="63.623047" xlink:href="#DejaVuSans-46"/>
     <use x="95.410156" xlink:href="#DejaVuSans-49"/>
    </g>
   </g>
  </g>
 </g>
 <defs>
  <clipPath id="p6945f6dd24">
   <rect height="498.96" width="390.6" x="63" y="77.76"/>
  </clipPath>
 </defs>
</svg>
