<?xml version="1.0" encoding="utf-8" standalone="no"?>
<!DOCTYPE svg PUBLIC "-//W3C//DTD SVG 1.1//EN"
  "http://www.w3.org/Graphics/SVG/1.1/DTD/svg11.dtd">
<!-- Created with matplotlib (https://matplotlib.org/) -->
<svg height="576pt" version="1.1" viewBox="0 0 288 576" width="288pt" xmlns="http://www.w3.org/2000/svg" xmlns:xlink="http://www.w3.org/1999/xlink">
 <metadata>
  <rdf:RDF xmlns:cc="http://creativecommons.org/ns#" xmlns:dc="http://purl.org/dc/elements/1.1/" xmlns:rdf="http://www.w3.org/1999/02/22-rdf-syntax-ns#">
   <cc:Work>
    <dc:type rdf:resource="http://purl.org/dc/dcmitype/StillImage"/>
    <dc:date>2023-03-07T12:56:16.423969</dc:date>
    <dc:format>image/svg+xml</dc:format>
    <dc:creator>
     <cc:Agent>
      <dc:title>Matplotlib v3.3.4, https://matplotlib.org/</dc:title>
     </cc:Agent>
    </dc:creator>
   </cc:Work>
  </rdf:RDF>
 </metadata>
 <defs>
  <style type="text/css">*{stroke-linecap:butt;stroke-linejoin:round;}</style>
 </defs>
 <g id="figure_1">
  <g id="patch_1">
   <path d="M 0 576 
L 288 576 
L 288 0 
L 0 0 
z
" style="fill:#ffffff;"/>
  </g>
  <g id="axes_1">
   <g id="patch_2">
    <path d="M 36 512.64 
L 259.2 512.64 
L 259.2 69.12 
L 36 69.12 
z
" style="fill:#ffffff;"/>
   </g>
   <g id="PathCollection_1">
    <path clip-path="url(#p37f5b6ceaa)" d="M 138.110018 391.361753 
C 141.2198 391.361753 144.202632 390.126224 146.40158 387.927276 
C 148.600528 385.728328 149.836057 382.745496 149.836057 379.635714 
C 149.836057 376.525932 148.600528 373.5431 146.40158 371.344152 
C 144.202632 369.145204 141.2198 367.909674 138.110018 367.909674 
C 135.000236 367.909674 132.017404 369.145204 129.818456 371.344152 
C 127.619508 373.5431 126.383979 376.525932 126.383979 379.635714 
C 126.383979 382.745496 127.619508 385.728328 129.818456 387.927276 
C 132.017404 390.126224 135.000236 391.361753 138.110018 391.361753 
z
" style="fill:#e6194b;stroke:#e6194b;"/>
    <path clip-path="url(#p37f5b6ceaa)" d="M 146.845207 387.934631 
C 150.225897 387.934631 153.468577 386.591469 155.859086 384.20096 
C 158.249594 381.810452 159.592756 378.567771 159.592756 375.187082 
C 159.592756 371.806393 158.249594 368.563712 155.859086 366.173204 
C 153.468577 363.782695 150.225897 362.439533 146.845207 362.439533 
C 143.464518 362.439533 140.221838 363.782695 137.831329 366.173204 
C 135.440821 368.563712 134.097659 371.806393 134.097659 375.187082 
C 134.097659 378.567771 135.440821 381.810452 137.831329 384.20096 
C 140.221838 386.591469 143.464518 387.934631 146.845207 387.934631 
z
" style="fill:#3cb44b;stroke:#3cb44b;"/>
    <path clip-path="url(#p37f5b6ceaa)" d="M 138.865344 398.608552 
C 141.517375 398.608552 144.061142 397.554889 145.936411 395.67962 
C 147.811681 393.804351 148.865344 391.260583 148.865344 388.608552 
C 148.865344 385.956521 147.811681 383.412754 145.936411 381.537485 
C 144.061142 379.662215 141.517375 378.608552 138.865344 378.608552 
C 136.213313 378.608552 133.669545 379.662215 131.794276 381.537485 
C 129.919007 383.412754 128.865344 385.956521 128.865344 388.608552 
C 128.865344 391.260583 129.919007 393.804351 131.794276 395.67962 
C 133.669545 397.554889 136.213313 398.608552 138.865344 398.608552 
z
" style="fill:#ffe119;stroke:#ffe119;"/>
    <path clip-path="url(#p37f5b6ceaa)" d="M 162.970723 382.175992 
C 165.451471 382.175992 167.830947 381.19038 169.585101 379.436227 
C 171.339255 377.682073 172.324866 375.302596 172.324866 372.821848 
C 172.324866 370.341101 171.339255 367.961624 169.585101 366.20747 
C 167.830947 364.453317 165.451471 363.467705 162.970723 363.467705 
C 160.489975 363.467705 158.110498 364.453317 156.356344 366.20747 
C 154.602191 367.961624 153.616579 370.341101 153.616579 372.821848 
C 153.616579 375.302596 154.602191 377.682073 156.356344 379.436227 
C 158.110498 381.19038 160.489975 382.175992 162.970723 382.175992 
z
" style="fill:#4363d8;stroke:#4363d8;"/>
    <path clip-path="url(#p37f5b6ceaa)" d="M 151.234186 391.819285 
C 154.04709 391.819285 156.745163 390.701707 158.734186 388.712684 
C 160.723209 386.72366 161.840788 384.025587 161.840788 381.212684 
C 161.840788 378.39978 160.723209 375.701707 158.734186 373.712684 
C 156.745163 371.72366 154.04709 370.606082 151.234186 370.606082 
C 148.421283 370.606082 145.723209 371.72366 143.734186 373.712684 
C 141.745163 375.701707 140.627584 378.39978 140.627584 381.212684 
C 140.627584 384.025587 141.745163 386.72366 143.734186 388.712684 
C 145.723209 390.701707 148.421283 391.819285 151.234186 391.819285 
z
" style="fill:#f58231;stroke:#f58231;"/>
    <path clip-path="url(#p37f5b6ceaa)" d="M 150.409162 383.213406 
C 153.789852 383.213406 157.032532 381.870244 159.42304 379.479736 
C 161.813549 377.089227 163.156711 373.846547 163.156711 370.465858 
C 163.156711 367.085168 161.813549 363.842488 159.42304 361.451979 
C 157.032532 359.061471 153.789852 357.718309 150.409162 357.718309 
C 147.028473 357.718309 143.785792 359.061471 141.395284 361.451979 
C 139.004775 363.842488 137.661613 367.085168 137.661613 370.465858 
C 137.661613 373.846547 139.004775 377.089227 141.395284 379.479736 
C 143.785792 381.870244 147.028473 383.213406 150.409162 383.213406 
z
" style="fill:#ba3fdf;stroke:#ba3fdf;"/>
    <path clip-path="url(#p37f5b6ceaa)" d="M 146.346072 383.46715 
C 149.85438 383.46715 153.219468 382.073285 155.700216 379.592537 
C 158.180964 377.111789 159.574829 373.746701 159.574829 370.238393 
C 159.574829 366.730086 158.180964 363.364998 155.700216 360.88425 
C 153.219468 358.403502 149.85438 357.009637 146.346072 357.009637 
C 142.837765 357.009637 139.472677 358.403502 136.991929 360.88425 
C 134.511181 363.364998 133.117316 366.730086 133.117316 370.238393 
C 133.117316 373.746701 134.511181 377.111789 136.991929 379.592537 
C 139.472677 382.073285 142.837765 383.46715 146.346072 383.46715 
z
" style="fill:#42d4f4;stroke:#42d4f4;"/>
    <path clip-path="url(#p37f5b6ceaa)" d="M 148.647071 377.455938 
C 150.743686 377.455938 152.754711 376.622944 154.237241 375.140414 
C 155.719771 373.657883 156.552765 371.646858 156.552765 369.550244 
C 156.552765 367.453629 155.719771 365.442604 154.237241 363.960074 
C 152.754711 362.477543 150.743686 361.644549 148.647071 361.644549 
C 146.550456 361.644549 144.539432 362.477543 143.056901 363.960074 
C 141.574371 365.442604 140.741377 367.453629 140.741377 369.550244 
C 140.741377 371.646858 141.574371 373.657883 143.056901 375.140414 
C 144.539432 376.622944 146.550456 377.455938 148.647071 377.455938 
z
" style="fill:#bfef45;stroke:#bfef45;"/>
    <path clip-path="url(#p37f5b6ceaa)" d="M 146.051186 380.50184 
C 148.347912 380.50184 150.55088 379.589341 152.174911 377.965311 
C 153.798941 376.34128 154.71144 374.138312 154.71144 371.841586 
C 154.71144 369.54486 153.798941 367.341892 152.174911 365.717862 
C 150.55088 364.093831 148.347912 363.181332 146.051186 363.181332 
C 143.75446 363.181332 141.551493 364.093831 139.927462 365.717862 
C 138.303431 367.341892 137.390932 369.54486 137.390932 371.841586 
C 137.390932 374.138312 138.303431 376.34128 139.927462 377.965311 
C 141.551493 379.589341 143.75446 380.50184 146.051186 380.50184 
z
" style="fill:#f0e442;stroke:#f0e442;"/>
    <path clip-path="url(#p37f5b6ceaa)" d="M 152.844699 388.658214 
C 155.954481 388.658214 158.937313 387.422685 161.136261 385.223737 
C 163.335209 383.024789 164.570738 380.041957 164.570738 376.932175 
C 164.570738 373.822393 163.335209 370.839561 161.136261 368.640613 
C 158.937313 366.441665 155.954481 365.206135 152.844699 365.206135 
C 149.734917 365.206135 146.752085 366.441665 144.553137 368.640613 
C 142.354189 370.839561 141.118659 373.822393 141.118659 376.932175 
C 141.118659 380.041957 142.354189 383.024789 144.553137 385.223737 
C 146.752085 387.422685 149.734917 388.658214 152.844699 388.658214 
z
" style="fill:#469990;stroke:#469990;"/>
    <path clip-path="url(#p37f5b6ceaa)" d="M 146.007521 386.060195 
C 148.488269 386.060195 150.867745 385.074583 152.621899 383.32043 
C 154.376053 381.566276 155.361664 379.186799 155.361664 376.706051 
C 155.361664 374.225304 154.376053 371.845827 152.621899 370.091673 
C 150.867745 368.337519 148.488269 367.351908 146.007521 367.351908 
C 143.526773 367.351908 141.147296 368.337519 139.393142 370.091673 
C 137.638989 371.845827 136.653377 374.225304 136.653377 376.706051 
C 136.653377 379.186799 137.638989 381.566276 139.393142 383.32043 
C 141.147296 385.074583 143.526773 386.060195 146.007521 386.060195 
z
" style="fill:#dcbeff;stroke:#dcbeff;"/>
    <path clip-path="url(#p37f5b6ceaa)" d="M 147.40371 380.31328 
C 149.884458 380.31328 152.263935 379.327668 154.018088 377.573514 
C 155.772242 375.819361 156.757853 373.439884 156.757853 370.959136 
C 156.757853 368.478388 155.772242 366.098912 154.018088 364.344758 
C 152.263935 362.590604 149.884458 361.604993 147.40371 361.604993 
C 144.922962 361.604993 142.543485 362.590604 140.789332 364.344758 
C 139.035178 366.098912 138.049566 368.478388 138.049566 370.959136 
C 138.049566 373.439884 139.035178 375.819361 140.789332 377.573514 
C 142.543485 379.327668 144.922962 380.31328 147.40371 380.31328 
z
" style="fill:#9a6324;stroke:#9a6324;"/>
    <path clip-path="url(#p37f5b6ceaa)" d="M 150.812871 401.564802 
C 153.625775 401.564802 156.323848 400.447223 158.312871 398.4582 
C 160.301894 396.469177 161.419473 393.771104 161.419473 390.9582 
C 161.419473 388.145296 160.301894 385.447223 158.312871 383.4582 
C 156.323848 381.469177 153.625775 380.351598 150.812871 380.351598 
C 147.999967 380.351598 145.301894 381.469177 143.312871 383.4582 
C 141.323848 385.447223 140.206269 388.145296 140.206269 390.9582 
C 140.206269 393.771104 141.323848 396.469177 143.312871 398.4582 
C 145.301894 400.447223 147.999967 401.564802 150.812871 401.564802 
z
" style="fill:#b3a400;stroke:#b3a400;"/>
    <path clip-path="url(#p37f5b6ceaa)" d="M 138.868179 381.608739 
C 140.964793 381.608739 142.975818 380.775745 144.458349 379.293214 
C 145.940879 377.810684 146.773873 375.799659 146.773873 373.703044 
C 146.773873 371.60643 145.940879 369.595405 144.458349 368.112874 
C 142.975818 366.630344 140.964793 365.79735 138.868179 365.79735 
C 136.771564 365.79735 134.760539 366.630344 133.278009 368.112874 
C 131.795478 369.595405 130.962484 371.60643 130.962484 373.703044 
C 130.962484 375.799659 131.795478 377.810684 133.278009 379.293214 
C 134.760539 380.775745 136.771564 381.608739 138.868179 381.608739 
z
" style="fill:#800000;stroke:#800000;"/>
    <path clip-path="url(#p37f5b6ceaa)" d="M 166.433625 379.834295 
C 168.730351 379.834295 170.933318 378.921796 172.557349 377.297766 
C 174.18138 375.673735 175.093879 373.470767 175.093879 371.174041 
C 175.093879 368.877315 174.18138 366.674348 172.557349 365.050317 
C 170.933318 363.426286 168.730351 362.513787 166.433625 362.513787 
C 164.136898 362.513787 161.933931 363.426286 160.3099 365.050317 
C 158.68587 366.674348 157.773371 368.877315 157.773371 371.174041 
C 157.773371 373.470767 158.68587 375.673735 160.3099 377.297766 
C 161.933931 378.921796 164.136898 379.834295 166.433625 379.834295 
z
" style="fill:#82baff;stroke:#82baff;"/>
    <path clip-path="url(#p37f5b6ceaa)" d="M 146.700946 390.358116 
C 149.352977 390.358116 151.896745 389.304453 153.772014 387.429184 
C 155.647283 385.553915 156.700946 383.010147 156.700946 380.358116 
C 156.700946 377.706085 155.647283 375.162317 153.772014 373.287048 
C 151.896745 371.411779 149.352977 370.358116 146.700946 370.358116 
C 144.048915 370.358116 141.505147 371.411779 139.629878 373.287048 
C 137.754609 375.162317 136.700946 377.706085 136.700946 380.358116 
C 136.700946 383.010147 137.754609 385.553915 139.629878 387.429184 
C 141.505147 389.304453 144.048915 390.358116 146.700946 390.358116 
z
" style="fill:#ffd8b1;stroke:#ffd8b1;"/>
    <path clip-path="url(#p37f5b6ceaa)" d="M 164.476725 392.596339 
C 167.586507 392.596339 170.569339 391.360809 172.768287 389.161861 
C 174.967235 386.962913 176.202764 383.980081 176.202764 380.870299 
C 176.202764 377.760517 174.967235 374.777685 172.768287 372.578737 
C 170.569339 370.37979 167.586507 369.14426 164.476725 369.14426 
C 161.366943 369.14426 158.384111 370.37979 156.185163 372.578737 
C 153.986215 374.777685 152.750685 377.760517 152.750685 380.870299 
C 152.750685 383.980081 153.986215 386.962913 156.185163 389.161861 
C 158.384111 391.360809 161.366943 392.596339 164.476725 392.596339 
z
" style="fill:#0072b2;stroke:#0072b2;"/>
    <path clip-path="url(#p37f5b6ceaa)" d="M 142.333185 392.884063 
C 144.813933 392.884063 147.19341 391.898451 148.947563 390.144297 
C 150.701717 388.390144 151.687328 386.010667 151.687328 383.529919 
C 151.687328 381.049171 150.701717 378.669695 148.947563 376.915541 
C 147.19341 375.161387 144.813933 374.175776 142.333185 374.175776 
C 139.852437 374.175776 137.47296 375.161387 135.718807 376.915541 
C 133.964653 378.669695 132.979042 381.049171 132.979042 383.529919 
C 132.979042 386.010667 133.964653 388.390144 135.718807 390.144297 
C 137.47296 391.898451 139.852437 392.884063 142.333185 392.884063 
z
" style="fill:#999999;stroke:#999999;"/>
    <path clip-path="url(#p37f5b6ceaa)" d="M 115.484946 384.856149 
C 117.781672 384.856149 119.98464 383.94365 121.60867 382.319619 
C 123.232701 380.695588 124.1452 378.492621 124.1452 376.195895 
C 124.1452 373.899169 123.232701 371.696201 121.60867 370.07217 
C 119.98464 368.44814 117.781672 367.535641 115.484946 367.535641 
C 113.18822 367.535641 110.985252 368.44814 109.361222 370.07217 
C 107.737191 371.696201 106.824692 373.899169 106.824692 376.195895 
C 106.824692 378.492621 107.737191 380.695588 109.361222 382.319619 
C 110.985252 383.94365 113.18822 384.856149 115.484946 384.856149 
z
" style="fill:#e69f00;stroke:#e69f00;"/>
    <path clip-path="url(#p37f5b6ceaa)" d="M 151.812662 407.72068 
C 154.777723 407.72068 157.621741 406.542649 159.718356 404.446034 
C 161.814971 402.34942 162.993002 399.505401 162.993002 396.54034 
C 162.993002 393.57528 161.814971 390.731261 159.718356 388.634646 
C 157.621741 386.538032 154.777723 385.36 151.812662 385.36 
C 148.847601 385.36 146.003582 386.538032 143.906968 388.634646 
C 141.810353 390.731261 140.632322 393.57528 140.632322 396.54034 
C 140.632322 399.505401 141.810353 402.34942 143.906968 404.446034 
C 146.003582 406.542649 148.847601 407.72068 151.812662 407.72068 
z
" style="fill:#56b4e9;stroke:#56b4e9;"/>
   </g>
   <g id="matplotlib.axis_1">
    <g id="xtick_1">
     <g id="line2d_1">
      <defs>
       <path d="M 0 0 
L 0 3.5 
" id="mfd3946dbe8" style="stroke:#000000;stroke-width:0.8;"/>
      </defs>
      <g>
       <use style="stroke:#000000;stroke-width:0.8;" x="147.6" xlink:href="#mfd3946dbe8" y="512.64"/>
      </g>
     </g>
     <g id="text_1">
      <!-- MeanPD -->
      <g transform="translate(127.111719 527.238438)scale(0.1 -0.1)">
       <defs>
        <path d="M 9.8125 72.90625 
L 24.515625 72.90625 
L 43.109375 23.296875 
L 61.8125 72.90625 
L 76.515625 72.90625 
L 76.515625 0 
L 66.890625 0 
L 66.890625 64.015625 
L 48.09375 14.015625 
L 38.1875 14.015625 
L 19.390625 64.015625 
L 19.390625 0 
L 9.8125 0 
z
" id="DejaVuSans-77"/>
        <path d="M 56.203125 29.59375 
L 56.203125 25.203125 
L 14.890625 25.203125 
Q 15.484375 15.921875 20.484375 11.0625 
Q 25.484375 6.203125 34.421875 6.203125 
Q 39.59375 6.203125 44.453125 7.46875 
Q 49.3125 8.734375 54.109375 11.28125 
L 54.109375 2.78125 
Q 49.265625 0.734375 44.1875 -0.34375 
Q 39.109375 -1.421875 33.890625 -1.421875 
Q 20.796875 -1.421875 13.15625 6.1875 
Q 5.515625 13.8125 5.515625 26.8125 
Q 5.515625 40.234375 12.765625 48.109375 
Q 20.015625 56 32.328125 56 
Q 43.359375 56 49.78125 48.890625 
Q 56.203125 41.796875 56.203125 29.59375 
z
M 47.21875 32.234375 
Q 47.125 39.59375 43.09375 43.984375 
Q 39.0625 48.390625 32.421875 48.390625 
Q 24.90625 48.390625 20.390625 44.140625 
Q 15.875 39.890625 15.1875 32.171875 
z
" id="DejaVuSans-101"/>
        <path d="M 34.28125 27.484375 
Q 23.390625 27.484375 19.1875 25 
Q 14.984375 22.515625 14.984375 16.5 
Q 14.984375 11.71875 18.140625 8.90625 
Q 21.296875 6.109375 26.703125 6.109375 
Q 34.1875 6.109375 38.703125 11.40625 
Q 43.21875 16.703125 43.21875 25.484375 
L 43.21875 27.484375 
z
M 52.203125 31.203125 
L 52.203125 0 
L 43.21875 0 
L 43.21875 8.296875 
Q 40.140625 3.328125 35.546875 0.953125 
Q 30.953125 -1.421875 24.3125 -1.421875 
Q 15.921875 -1.421875 10.953125 3.296875 
Q 6 8.015625 6 15.921875 
Q 6 25.140625 12.171875 29.828125 
Q 18.359375 34.515625 30.609375 34.515625 
L 43.21875 34.515625 
L 43.21875 35.40625 
Q 43.21875 41.609375 39.140625 45 
Q 35.0625 48.390625 27.6875 48.390625 
Q 23 48.390625 18.546875 47.265625 
Q 14.109375 46.140625 10.015625 43.890625 
L 10.015625 52.203125 
Q 14.9375 54.109375 19.578125 55.046875 
Q 24.21875 56 28.609375 56 
Q 40.484375 56 46.34375 49.84375 
Q 52.203125 43.703125 52.203125 31.203125 
z
" id="DejaVuSans-97"/>
        <path d="M 54.890625 33.015625 
L 54.890625 0 
L 45.90625 0 
L 45.90625 32.71875 
Q 45.90625 40.484375 42.875 44.328125 
Q 39.84375 48.1875 33.796875 48.1875 
Q 26.515625 48.1875 22.3125 43.546875 
Q 18.109375 38.921875 18.109375 30.90625 
L 18.109375 0 
L 9.078125 0 
L 9.078125 54.6875 
L 18.109375 54.6875 
L 18.109375 46.1875 
Q 21.34375 51.125 25.703125 53.5625 
Q 30.078125 56 35.796875 56 
Q 45.21875 56 50.046875 50.171875 
Q 54.890625 44.34375 54.890625 33.015625 
z
" id="DejaVuSans-110"/>
        <path d="M 19.671875 64.796875 
L 19.671875 37.40625 
L 32.078125 37.40625 
Q 38.96875 37.40625 42.71875 40.96875 
Q 46.484375 44.53125 46.484375 51.125 
Q 46.484375 57.671875 42.71875 61.234375 
Q 38.96875 64.796875 32.078125 64.796875 
z
M 9.8125 72.90625 
L 32.078125 72.90625 
Q 44.34375 72.90625 50.609375 67.359375 
Q 56.890625 61.8125 56.890625 51.125 
Q 56.890625 40.328125 50.609375 34.8125 
Q 44.34375 29.296875 32.078125 29.296875 
L 19.671875 29.296875 
L 19.671875 0 
L 9.8125 0 
z
" id="DejaVuSans-80"/>
        <path d="M 19.671875 64.796875 
L 19.671875 8.109375 
L 31.59375 8.109375 
Q 46.6875 8.109375 53.6875 14.9375 
Q 60.6875 21.78125 60.6875 36.53125 
Q 60.6875 51.171875 53.6875 57.984375 
Q 46.6875 64.796875 31.59375 64.796875 
z
M 9.8125 72.90625 
L 30.078125 72.90625 
Q 51.265625 72.90625 61.171875 64.09375 
Q 71.09375 55.28125 71.09375 36.53125 
Q 71.09375 17.671875 61.125 8.828125 
Q 51.171875 0 30.078125 0 
L 9.8125 0 
z
" id="DejaVuSans-68"/>
       </defs>
       <use xlink:href="#DejaVuSans-77"/>
       <use x="86.279297" xlink:href="#DejaVuSans-101"/>
       <use x="147.802734" xlink:href="#DejaVuSans-97"/>
       <use x="209.082031" xlink:href="#DejaVuSans-110"/>
       <use x="272.460938" xlink:href="#DejaVuSans-80"/>
       <use x="332.763672" xlink:href="#DejaVuSans-68"/>
      </g>
     </g>
    </g>
   </g>
   <g id="matplotlib.axis_2">
    <g id="ytick_1">
     <g id="line2d_2">
      <defs>
       <path d="M 0 0 
L -3.5 0 
" id="m0238a428e4" style="stroke:#000000;stroke-width:0.8;"/>
      </defs>
      <g>
       <use style="stroke:#000000;stroke-width:0.8;" x="36" xlink:href="#m0238a428e4" y="503.203404"/>
      </g>
     </g>
     <g id="text_2">
      <!-- −1.5 -->
      <g transform="translate(4.717187 507.002623)scale(0.1 -0.1)">
       <defs>
        <path d="M 10.59375 35.5 
L 73.1875 35.5 
L 73.1875 27.203125 
L 10.59375 27.203125 
z
" id="DejaVuSans-8722"/>
        <path d="M 12.40625 8.296875 
L 28.515625 8.296875 
L 28.515625 63.921875 
L 10.984375 60.40625 
L 10.984375 69.390625 
L 28.421875 72.90625 
L 38.28125 72.90625 
L 38.28125 8.296875 
L 54.390625 8.296875 
L 54.390625 0 
L 12.40625 0 
z
" id="DejaVuSans-49"/>
        <path d="M 10.6875 12.40625 
L 21 12.40625 
L 21 0 
L 10.6875 0 
z
" id="DejaVuSans-46"/>
        <path d="M 10.796875 72.90625 
L 49.515625 72.90625 
L 49.515625 64.59375 
L 19.828125 64.59375 
L 19.828125 46.734375 
Q 21.96875 47.46875 24.109375 47.828125 
Q 26.265625 48.1875 28.421875 48.1875 
Q 40.625 48.1875 47.75 41.5 
Q 54.890625 34.8125 54.890625 23.390625 
Q 54.890625 11.625 47.5625 5.09375 
Q 40.234375 -1.421875 26.90625 -1.421875 
Q 22.3125 -1.421875 17.546875 -0.640625 
Q 12.796875 0.140625 7.71875 1.703125 
L 7.71875 11.625 
Q 12.109375 9.234375 16.796875 8.0625 
Q 21.484375 6.890625 26.703125 6.890625 
Q 35.15625 6.890625 40.078125 11.328125 
Q 45.015625 15.765625 45.015625 23.390625 
Q 45.015625 31 40.078125 35.4375 
Q 35.15625 39.890625 26.703125 39.890625 
Q 22.75 39.890625 18.8125 39.015625 
Q 14.890625 38.140625 10.796875 36.28125 
z
" id="DejaVuSans-53"/>
       </defs>
       <use xlink:href="#DejaVuSans-8722"/>
       <use x="83.789062" xlink:href="#DejaVuSans-49"/>
       <use x="147.412109" xlink:href="#DejaVuSans-46"/>
       <use x="179.199219" xlink:href="#DejaVuSans-53"/>
      </g>
     </g>
    </g>
    <g id="ytick_2">
     <g id="line2d_3">
      <g>
       <use style="stroke:#000000;stroke-width:0.8;" x="36" xlink:href="#m0238a428e4" y="456.020426"/>
      </g>
     </g>
     <g id="text_3">
      <!-- −1.0 -->
      <g transform="translate(4.717187 459.819644)scale(0.1 -0.1)">
       <defs>
        <path d="M 31.78125 66.40625 
Q 24.171875 66.40625 20.328125 58.90625 
Q 16.5 51.421875 16.5 36.375 
Q 16.5 21.390625 20.328125 13.890625 
Q 24.171875 6.390625 31.78125 6.390625 
Q 39.453125 6.390625 43.28125 13.890625 
Q 47.125 21.390625 47.125 36.375 
Q 47.125 51.421875 43.28125 58.90625 
Q 39.453125 66.40625 31.78125 66.40625 
z
M 31.78125 74.21875 
Q 44.046875 74.21875 50.515625 64.515625 
Q 56.984375 54.828125 56.984375 36.375 
Q 56.984375 17.96875 50.515625 8.265625 
Q 44.046875 -1.421875 31.78125 -1.421875 
Q 19.53125 -1.421875 13.0625 8.265625 
Q 6.59375 17.96875 6.59375 36.375 
Q 6.59375 54.828125 13.0625 64.515625 
Q 19.53125 74.21875 31.78125 74.21875 
z
" id="DejaVuSans-48"/>
       </defs>
       <use xlink:href="#DejaVuSans-8722"/>
       <use x="83.789062" xlink:href="#DejaVuSans-49"/>
       <use x="147.412109" xlink:href="#DejaVuSans-46"/>
       <use x="179.199219" xlink:href="#DejaVuSans-48"/>
      </g>
     </g>
    </g>
    <g id="ytick_3">
     <g id="line2d_4">
      <g>
       <use style="stroke:#000000;stroke-width:0.8;" x="36" xlink:href="#m0238a428e4" y="408.837447"/>
      </g>
     </g>
     <g id="text_4">
      <!-- −0.5 -->
      <g transform="translate(4.717187 412.636666)scale(0.1 -0.1)">
       <use xlink:href="#DejaVuSans-8722"/>
       <use x="83.789062" xlink:href="#DejaVuSans-48"/>
       <use x="147.412109" xlink:href="#DejaVuSans-46"/>
       <use x="179.199219" xlink:href="#DejaVuSans-53"/>
      </g>
     </g>
    </g>
    <g id="ytick_4">
     <g id="line2d_5">
      <g>
       <use style="stroke:#000000;stroke-width:0.8;" x="36" xlink:href="#m0238a428e4" y="361.654468"/>
      </g>
     </g>
     <g id="text_5">
      <!-- 0.0 -->
      <g transform="translate(13.096875 365.453687)scale(0.1 -0.1)">
       <use xlink:href="#DejaVuSans-48"/>
       <use x="63.623047" xlink:href="#DejaVuSans-46"/>
       <use x="95.410156" xlink:href="#DejaVuSans-48"/>
      </g>
     </g>
    </g>
    <g id="ytick_5">
     <g id="line2d_6">
      <g>
       <use style="stroke:#000000;stroke-width:0.8;" x="36" xlink:href="#m0238a428e4" y="314.471489"/>
      </g>
     </g>
     <g id="text_6">
      <!-- 0.5 -->
      <g transform="translate(13.096875 318.270708)scale(0.1 -0.1)">
       <use xlink:href="#DejaVuSans-48"/>
       <use x="63.623047" xlink:href="#DejaVuSans-46"/>
       <use x="95.410156" xlink:href="#DejaVuSans-53"/>
      </g>
     </g>
    </g>
    <g id="ytick_6">
     <g id="line2d_7">
      <g>
       <use style="stroke:#000000;stroke-width:0.8;" x="36" xlink:href="#m0238a428e4" y="267.288511"/>
      </g>
     </g>
     <g id="text_7">
      <!-- 1.0 -->
      <g transform="translate(13.096875 271.087729)scale(0.1 -0.1)">
       <use xlink:href="#DejaVuSans-49"/>
       <use x="63.623047" xlink:href="#DejaVuSans-46"/>
       <use x="95.410156" xlink:href="#DejaVuSans-48"/>
      </g>
     </g>
    </g>
    <g id="ytick_7">
     <g id="line2d_8">
      <g>
       <use style="stroke:#000000;stroke-width:0.8;" x="36" xlink:href="#m0238a428e4" y="220.105532"/>
      </g>
     </g>
     <g id="text_8">
      <!-- 1.5 -->
      <g transform="translate(13.096875 223.904751)scale(0.1 -0.1)">
       <use xlink:href="#DejaVuSans-49"/>
       <use x="63.623047" xlink:href="#DejaVuSans-46"/>
       <use x="95.410156" xlink:href="#DejaVuSans-53"/>
      </g>
     </g>
    </g>
    <g id="ytick_8">
     <g id="line2d_9">
      <g>
       <use style="stroke:#000000;stroke-width:0.8;" x="36" xlink:href="#m0238a428e4" y="172.922553"/>
      </g>
     </g>
     <g id="text_9">
      <!-- 2.0 -->
      <g transform="translate(13.096875 176.721772)scale(0.1 -0.1)">
       <defs>
        <path d="M 19.1875 8.296875 
L 53.609375 8.296875 
L 53.609375 0 
L 7.328125 0 
L 7.328125 8.296875 
Q 12.9375 14.109375 22.625 23.890625 
Q 32.328125 33.6875 34.8125 36.53125 
Q 39.546875 41.84375 41.421875 45.53125 
Q 43.3125 49.21875 43.3125 52.78125 
Q 43.3125 58.59375 39.234375 62.25 
Q 35.15625 65.921875 28.609375 65.921875 
Q 23.96875 65.921875 18.8125 64.3125 
Q 13.671875 62.703125 7.8125 59.421875 
L 7.8125 69.390625 
Q 13.765625 71.78125 18.9375 73 
Q 24.125 74.21875 28.421875 74.21875 
Q 39.75 74.21875 46.484375 68.546875 
Q 53.21875 62.890625 53.21875 53.421875 
Q 53.21875 48.921875 51.53125 44.890625 
Q 49.859375 40.875 45.40625 35.40625 
Q 44.1875 33.984375 37.640625 27.21875 
Q 31.109375 20.453125 19.1875 8.296875 
z
" id="DejaVuSans-50"/>
       </defs>
       <use xlink:href="#DejaVuSans-50"/>
       <use x="63.623047" xlink:href="#DejaVuSans-46"/>
       <use x="95.410156" xlink:href="#DejaVuSans-48"/>
      </g>
     </g>
    </g>
    <g id="ytick_9">
     <g id="line2d_10">
      <g>
       <use style="stroke:#000000;stroke-width:0.8;" x="36" xlink:href="#m0238a428e4" y="125.739574"/>
      </g>
     </g>
     <g id="text_10">
      <!-- 2.5 -->
      <g transform="translate(13.096875 129.538793)scale(0.1 -0.1)">
       <use xlink:href="#DejaVuSans-50"/>
       <use x="63.623047" xlink:href="#DejaVuSans-46"/>
       <use x="95.410156" xlink:href="#DejaVuSans-53"/>
      </g>
     </g>
    </g>
    <g id="ytick_10">
     <g id="line2d_11">
      <g>
       <use style="stroke:#000000;stroke-width:0.8;" x="36" xlink:href="#m0238a428e4" y="78.556596"/>
      </g>
     </g>
     <g id="text_11">
      <!-- 3.0 -->
      <g transform="translate(13.096875 82.355814)scale(0.1 -0.1)">
       <defs>
        <path d="M 40.578125 39.3125 
Q 47.65625 37.796875 51.625 33 
Q 55.609375 28.21875 55.609375 21.1875 
Q 55.609375 10.40625 48.1875 4.484375 
Q 40.765625 -1.421875 27.09375 -1.421875 
Q 22.515625 -1.421875 17.65625 -0.515625 
Q 12.796875 0.390625 7.625 2.203125 
L 7.625 11.71875 
Q 11.71875 9.328125 16.59375 8.109375 
Q 21.484375 6.890625 26.8125 6.890625 
Q 36.078125 6.890625 40.9375 10.546875 
Q 45.796875 14.203125 45.796875 21.1875 
Q 45.796875 27.640625 41.28125 31.265625 
Q 36.765625 34.90625 28.71875 34.90625 
L 20.21875 34.90625 
L 20.21875 43.015625 
L 29.109375 43.015625 
Q 36.375 43.015625 40.234375 45.921875 
Q 44.09375 48.828125 44.09375 54.296875 
Q 44.09375 59.90625 40.109375 62.90625 
Q 36.140625 65.921875 28.71875 65.921875 
Q 24.65625 65.921875 20.015625 65.03125 
Q 15.375 64.15625 9.8125 62.3125 
L 9.8125 71.09375 
Q 15.4375 72.65625 20.34375 73.4375 
Q 25.25 74.21875 29.59375 74.21875 
Q 40.828125 74.21875 47.359375 69.109375 
Q 53.90625 64.015625 53.90625 55.328125 
Q 53.90625 49.265625 50.4375 45.09375 
Q 46.96875 40.921875 40.578125 39.3125 
z
" id="DejaVuSans-51"/>
       </defs>
       <use xlink:href="#DejaVuSans-51"/>
       <use x="63.623047" xlink:href="#DejaVuSans-46"/>
       <use x="95.410156" xlink:href="#DejaVuSans-48"/>
      </g>
     </g>
    </g>
    <g id="text_12">
     <!-- LogOdds -->
     <g transform="translate(-1.3625 312.701094)rotate(-90)scale(0.1 -0.1)">
      <defs>
       <path d="M 9.8125 72.90625 
L 19.671875 72.90625 
L 19.671875 8.296875 
L 55.171875 8.296875 
L 55.171875 0 
L 9.8125 0 
z
" id="DejaVuSans-76"/>
       <path d="M 30.609375 48.390625 
Q 23.390625 48.390625 19.1875 42.75 
Q 14.984375 37.109375 14.984375 27.296875 
Q 14.984375 17.484375 19.15625 11.84375 
Q 23.34375 6.203125 30.609375 6.203125 
Q 37.796875 6.203125 41.984375 11.859375 
Q 46.1875 17.53125 46.1875 27.296875 
Q 46.1875 37.015625 41.984375 42.703125 
Q 37.796875 48.390625 30.609375 48.390625 
z
M 30.609375 56 
Q 42.328125 56 49.015625 48.375 
Q 55.71875 40.765625 55.71875 27.296875 
Q 55.71875 13.875 49.015625 6.21875 
Q 42.328125 -1.421875 30.609375 -1.421875 
Q 18.84375 -1.421875 12.171875 6.21875 
Q 5.515625 13.875 5.515625 27.296875 
Q 5.515625 40.765625 12.171875 48.375 
Q 18.84375 56 30.609375 56 
z
" id="DejaVuSans-111"/>
       <path d="M 45.40625 27.984375 
Q 45.40625 37.75 41.375 43.109375 
Q 37.359375 48.484375 30.078125 48.484375 
Q 22.859375 48.484375 18.828125 43.109375 
Q 14.796875 37.75 14.796875 27.984375 
Q 14.796875 18.265625 18.828125 12.890625 
Q 22.859375 7.515625 30.078125 7.515625 
Q 37.359375 7.515625 41.375 12.890625 
Q 45.40625 18.265625 45.40625 27.984375 
z
M 54.390625 6.78125 
Q 54.390625 -7.171875 48.1875 -13.984375 
Q 42 -20.796875 29.203125 -20.796875 
Q 24.46875 -20.796875 20.265625 -20.09375 
Q 16.0625 -19.390625 12.109375 -17.921875 
L 12.109375 -9.1875 
Q 16.0625 -11.328125 19.921875 -12.34375 
Q 23.78125 -13.375 27.78125 -13.375 
Q 36.625 -13.375 41.015625 -8.765625 
Q 45.40625 -4.15625 45.40625 5.171875 
L 45.40625 9.625 
Q 42.625 4.78125 38.28125 2.390625 
Q 33.9375 0 27.875 0 
Q 17.828125 0 11.671875 7.65625 
Q 5.515625 15.328125 5.515625 27.984375 
Q 5.515625 40.671875 11.671875 48.328125 
Q 17.828125 56 27.875 56 
Q 33.9375 56 38.28125 53.609375 
Q 42.625 51.21875 45.40625 46.390625 
L 45.40625 54.6875 
L 54.390625 54.6875 
z
" id="DejaVuSans-103"/>
       <path d="M 39.40625 66.21875 
Q 28.65625 66.21875 22.328125 58.203125 
Q 16.015625 50.203125 16.015625 36.375 
Q 16.015625 22.609375 22.328125 14.59375 
Q 28.65625 6.59375 39.40625 6.59375 
Q 50.140625 6.59375 56.421875 14.59375 
Q 62.703125 22.609375 62.703125 36.375 
Q 62.703125 50.203125 56.421875 58.203125 
Q 50.140625 66.21875 39.40625 66.21875 
z
M 39.40625 74.21875 
Q 54.734375 74.21875 63.90625 63.9375 
Q 73.09375 53.65625 73.09375 36.375 
Q 73.09375 19.140625 63.90625 8.859375 
Q 54.734375 -1.421875 39.40625 -1.421875 
Q 24.03125 -1.421875 14.8125 8.828125 
Q 5.609375 19.09375 5.609375 36.375 
Q 5.609375 53.65625 14.8125 63.9375 
Q 24.03125 74.21875 39.40625 74.21875 
z
" id="DejaVuSans-79"/>
       <path d="M 45.40625 46.390625 
L 45.40625 75.984375 
L 54.390625 75.984375 
L 54.390625 0 
L 45.40625 0 
L 45.40625 8.203125 
Q 42.578125 3.328125 38.25 0.953125 
Q 33.9375 -1.421875 27.875 -1.421875 
Q 17.96875 -1.421875 11.734375 6.484375 
Q 5.515625 14.40625 5.515625 27.296875 
Q 5.515625 40.1875 11.734375 48.09375 
Q 17.96875 56 27.875 56 
Q 33.9375 56 38.25 53.625 
Q 42.578125 51.265625 45.40625 46.390625 
z
M 14.796875 27.296875 
Q 14.796875 17.390625 18.875 11.75 
Q 22.953125 6.109375 30.078125 6.109375 
Q 37.203125 6.109375 41.296875 11.75 
Q 45.40625 17.390625 45.40625 27.296875 
Q 45.40625 37.203125 41.296875 42.84375 
Q 37.203125 48.484375 30.078125 48.484375 
Q 22.953125 48.484375 18.875 42.84375 
Q 14.796875 37.203125 14.796875 27.296875 
z
" id="DejaVuSans-100"/>
       <path d="M 44.28125 53.078125 
L 44.28125 44.578125 
Q 40.484375 46.53125 36.375 47.5 
Q 32.28125 48.484375 27.875 48.484375 
Q 21.1875 48.484375 17.84375 46.4375 
Q 14.5 44.390625 14.5 40.28125 
Q 14.5 37.15625 16.890625 35.375 
Q 19.28125 33.59375 26.515625 31.984375 
L 29.59375 31.296875 
Q 39.15625 29.25 43.1875 25.515625 
Q 47.21875 21.78125 47.21875 15.09375 
Q 47.21875 7.46875 41.1875 3.015625 
Q 35.15625 -1.421875 24.609375 -1.421875 
Q 20.21875 -1.421875 15.453125 -0.5625 
Q 10.6875 0.296875 5.421875 2 
L 5.421875 11.28125 
Q 10.40625 8.6875 15.234375 7.390625 
Q 20.0625 6.109375 24.8125 6.109375 
Q 31.15625 6.109375 34.5625 8.28125 
Q 37.984375 10.453125 37.984375 14.40625 
Q 37.984375 18.0625 35.515625 20.015625 
Q 33.0625 21.96875 24.703125 23.78125 
L 21.578125 24.515625 
Q 13.234375 26.265625 9.515625 29.90625 
Q 5.8125 33.546875 5.8125 39.890625 
Q 5.8125 47.609375 11.28125 51.796875 
Q 16.75 56 26.8125 56 
Q 31.78125 56 36.171875 55.265625 
Q 40.578125 54.546875 44.28125 53.078125 
z
" id="DejaVuSans-115"/>
      </defs>
      <use xlink:href="#DejaVuSans-76"/>
      <use x="53.962891" xlink:href="#DejaVuSans-111"/>
      <use x="115.144531" xlink:href="#DejaVuSans-103"/>
      <use x="178.621094" xlink:href="#DejaVuSans-79"/>
      <use x="257.332031" xlink:href="#DejaVuSans-100"/>
      <use x="320.808594" xlink:href="#DejaVuSans-100"/>
      <use x="384.285156" xlink:href="#DejaVuSans-115"/>
     </g>
    </g>
   </g>
   <g id="line2d_12">
    <path clip-path="url(#p37f5b6ceaa)" d="M 130.86 380.955895 
L 164.34 380.955895 
L 164.34 371.6747 
L 130.86 371.6747 
L 130.86 380.955895 
" style="fill:none;stroke:#000000;stroke-linecap:square;"/>
   </g>
   <g id="line2d_13">
    <path clip-path="url(#p37f5b6ceaa)" d="M 147.6 380.955895 
L 147.6 390.9582 
" style="fill:none;stroke:#000000;stroke-linecap:square;"/>
   </g>
   <g id="line2d_14">
    <path clip-path="url(#p37f5b6ceaa)" d="M 147.6 371.6747 
L 147.6 369.550244 
" style="fill:none;stroke:#000000;stroke-linecap:square;"/>
   </g>
   <g id="line2d_15">
    <path clip-path="url(#p37f5b6ceaa)" d="M 139.23 390.9582 
L 155.97 390.9582 
" style="fill:none;stroke:#000000;stroke-linecap:square;"/>
   </g>
   <g id="line2d_16">
    <path clip-path="url(#p37f5b6ceaa)" d="M 139.23 369.550244 
L 155.97 369.550244 
" style="fill:none;stroke:#000000;stroke-linecap:square;"/>
   </g>
   <g id="line2d_17">
    <path clip-path="url(#p37f5b6ceaa)" d="M 130.86 376.450973 
L 164.34 376.450973 
" style="fill:none;stroke:#ff7f0e;stroke-linecap:square;"/>
   </g>
   <g id="patch_3">
    <path d="M 36 512.64 
L 36 69.12 
" style="fill:none;stroke:#000000;stroke-linecap:square;stroke-linejoin:miter;stroke-width:0.8;"/>
   </g>
   <g id="patch_4">
    <path d="M 259.2 512.64 
L 259.2 69.12 
" style="fill:none;stroke:#000000;stroke-linecap:square;stroke-linejoin:miter;stroke-width:0.8;"/>
   </g>
   <g id="patch_5">
    <path d="M 36 512.64 
L 259.2 512.64 
" style="fill:none;stroke:#000000;stroke-linecap:square;stroke-linejoin:miter;stroke-width:0.8;"/>
   </g>
   <g id="patch_6">
    <path d="M 36 69.12 
L 259.2 69.12 
" style="fill:none;stroke:#000000;stroke-linecap:square;stroke-linejoin:miter;stroke-width:0.8;"/>
   </g>
   <g id="text_13">
    <!-- 0 -->
    <g style="fill:#e6194b;" transform="translate(140.342018 378.692054)scale(0.1 -0.1)">
     <use xlink:href="#DejaVuSans-48"/>
    </g>
   </g>
   <g id="text_14">
    <!-- 1 -->
    <g style="fill:#3cb44b;" transform="translate(149.077207 374.243422)scale(0.1 -0.1)">
     <use xlink:href="#DejaVuSans-49"/>
    </g>
   </g>
   <g id="text_15">
    <!-- 2 -->
    <g style="fill:#ffe119;" transform="translate(141.097344 387.664893)scale(0.1 -0.1)">
     <use xlink:href="#DejaVuSans-50"/>
    </g>
   </g>
   <g id="text_16">
    <!-- 3 -->
    <g style="fill:#4363d8;" transform="translate(165.202723 371.878189)scale(0.1 -0.1)">
     <use xlink:href="#DejaVuSans-51"/>
    </g>
   </g>
   <g id="text_17">
    <!-- 4 -->
    <g style="fill:#f58231;" transform="translate(153.466186 380.269024)scale(0.1 -0.1)">
     <defs>
      <path d="M 37.796875 64.3125 
L 12.890625 25.390625 
L 37.796875 25.390625 
z
M 35.203125 72.90625 
L 47.609375 72.90625 
L 47.609375 25.390625 
L 58.015625 25.390625 
L 58.015625 17.1875 
L 47.609375 17.1875 
L 47.609375 0 
L 37.796875 0 
L 37.796875 17.1875 
L 4.890625 17.1875 
L 4.890625 26.703125 
z
" id="DejaVuSans-52"/>
     </defs>
     <use xlink:href="#DejaVuSans-52"/>
    </g>
   </g>
   <g id="text_18">
    <!-- 5 -->
    <g style="fill:#ba3fdf;" transform="translate(152.641162 369.522198)scale(0.1 -0.1)">
     <use xlink:href="#DejaVuSans-53"/>
    </g>
   </g>
   <g id="text_19">
    <!-- 6 -->
    <g style="fill:#42d4f4;" transform="translate(148.578072 369.294734)scale(0.1 -0.1)">
     <defs>
      <path d="M 33.015625 40.375 
Q 26.375 40.375 22.484375 35.828125 
Q 18.609375 31.296875 18.609375 23.390625 
Q 18.609375 15.53125 22.484375 10.953125 
Q 26.375 6.390625 33.015625 6.390625 
Q 39.65625 6.390625 43.53125 10.953125 
Q 47.40625 15.53125 47.40625 23.390625 
Q 47.40625 31.296875 43.53125 35.828125 
Q 39.65625 40.375 33.015625 40.375 
z
M 52.59375 71.296875 
L 52.59375 62.3125 
Q 48.875 64.0625 45.09375 64.984375 
Q 41.3125 65.921875 37.59375 65.921875 
Q 27.828125 65.921875 22.671875 59.328125 
Q 17.53125 52.734375 16.796875 39.40625 
Q 19.671875 43.65625 24.015625 45.921875 
Q 28.375 48.1875 33.59375 48.1875 
Q 44.578125 48.1875 50.953125 41.515625 
Q 57.328125 34.859375 57.328125 23.390625 
Q 57.328125 12.15625 50.6875 5.359375 
Q 44.046875 -1.421875 33.015625 -1.421875 
Q 20.359375 -1.421875 13.671875 8.265625 
Q 6.984375 17.96875 6.984375 36.375 
Q 6.984375 53.65625 15.1875 63.9375 
Q 23.390625 74.21875 37.203125 74.21875 
Q 40.921875 74.21875 44.703125 73.484375 
Q 48.484375 72.75 52.59375 71.296875 
z
" id="DejaVuSans-54"/>
     </defs>
     <use xlink:href="#DejaVuSans-54"/>
    </g>
   </g>
   <g id="text_20">
    <!-- 7 -->
    <g style="fill:#bfef45;" transform="translate(150.879071 368.606584)scale(0.1 -0.1)">
     <defs>
      <path d="M 8.203125 72.90625 
L 55.078125 72.90625 
L 55.078125 68.703125 
L 28.609375 0 
L 18.3125 0 
L 43.21875 64.59375 
L 8.203125 64.59375 
z
" id="DejaVuSans-55"/>
     </defs>
     <use xlink:href="#DejaVuSans-55"/>
    </g>
   </g>
   <g id="text_21">
    <!-- 19 -->
    <g style="fill:#f0e442;" transform="translate(148.283186 370.897927)scale(0.1 -0.1)">
     <defs>
      <path d="M 10.984375 1.515625 
L 10.984375 10.5 
Q 14.703125 8.734375 18.5 7.8125 
Q 22.3125 6.890625 25.984375 6.890625 
Q 35.75 6.890625 40.890625 13.453125 
Q 46.046875 20.015625 46.78125 33.40625 
Q 43.953125 29.203125 39.59375 26.953125 
Q 35.25 24.703125 29.984375 24.703125 
Q 19.046875 24.703125 12.671875 31.3125 
Q 6.296875 37.9375 6.296875 49.421875 
Q 6.296875 60.640625 12.9375 67.421875 
Q 19.578125 74.21875 30.609375 74.21875 
Q 43.265625 74.21875 49.921875 64.515625 
Q 56.59375 54.828125 56.59375 36.375 
Q 56.59375 19.140625 48.40625 8.859375 
Q 40.234375 -1.421875 26.421875 -1.421875 
Q 22.703125 -1.421875 18.890625 -0.6875 
Q 15.09375 0.046875 10.984375 1.515625 
z
M 30.609375 32.421875 
Q 37.25 32.421875 41.125 36.953125 
Q 45.015625 41.5 45.015625 49.421875 
Q 45.015625 57.28125 41.125 61.84375 
Q 37.25 66.40625 30.609375 66.40625 
Q 23.96875 66.40625 20.09375 61.84375 
Q 16.21875 57.28125 16.21875 49.421875 
Q 16.21875 41.5 20.09375 36.953125 
Q 23.96875 32.421875 30.609375 32.421875 
z
" id="DejaVuSans-57"/>
     </defs>
     <use xlink:href="#DejaVuSans-49"/>
     <use x="63.623047" xlink:href="#DejaVuSans-57"/>
    </g>
   </g>
   <g id="text_22">
    <!-- 8 -->
    <g style="fill:#469990;" transform="translate(155.076699 375.988515)scale(0.1 -0.1)">
     <defs>
      <path d="M 31.78125 34.625 
Q 24.75 34.625 20.71875 30.859375 
Q 16.703125 27.09375 16.703125 20.515625 
Q 16.703125 13.921875 20.71875 10.15625 
Q 24.75 6.390625 31.78125 6.390625 
Q 38.8125 6.390625 42.859375 10.171875 
Q 46.921875 13.96875 46.921875 20.515625 
Q 46.921875 27.09375 42.890625 30.859375 
Q 38.875 34.625 31.78125 34.625 
z
M 21.921875 38.8125 
Q 15.578125 40.375 12.03125 44.71875 
Q 8.5 49.078125 8.5 55.328125 
Q 8.5 64.0625 14.71875 69.140625 
Q 20.953125 74.21875 31.78125 74.21875 
Q 42.671875 74.21875 48.875 69.140625 
Q 55.078125 64.0625 55.078125 55.328125 
Q 55.078125 49.078125 51.53125 44.71875 
Q 48 40.375 41.703125 38.8125 
Q 48.828125 37.15625 52.796875 32.3125 
Q 56.78125 27.484375 56.78125 20.515625 
Q 56.78125 9.90625 50.3125 4.234375 
Q 43.84375 -1.421875 31.78125 -1.421875 
Q 19.734375 -1.421875 13.25 4.234375 
Q 6.78125 9.90625 6.78125 20.515625 
Q 6.78125 27.484375 10.78125 32.3125 
Q 14.796875 37.15625 21.921875 38.8125 
z
M 18.3125 54.390625 
Q 18.3125 48.734375 21.84375 45.5625 
Q 25.390625 42.390625 31.78125 42.390625 
Q 38.140625 42.390625 41.71875 45.5625 
Q 45.3125 48.734375 45.3125 54.390625 
Q 45.3125 60.0625 41.71875 63.234375 
Q 38.140625 66.40625 31.78125 66.40625 
Q 25.390625 66.40625 21.84375 63.234375 
Q 18.3125 60.0625 18.3125 54.390625 
z
" id="DejaVuSans-56"/>
     </defs>
     <use xlink:href="#DejaVuSans-56"/>
    </g>
   </g>
   <g id="text_23">
    <!-- 9 -->
    <g style="fill:#dcbeff;" transform="translate(148.239521 375.762392)scale(0.1 -0.1)">
     <use xlink:href="#DejaVuSans-57"/>
    </g>
   </g>
   <g id="text_24">
    <!-- 10 -->
    <g style="fill:#9a6324;" transform="translate(149.63571 370.015477)scale(0.1 -0.1)">
     <use xlink:href="#DejaVuSans-49"/>
     <use x="63.623047" xlink:href="#DejaVuSans-48"/>
    </g>
   </g>
   <g id="text_25">
    <!-- 11 -->
    <g style="fill:#b3a400;" transform="translate(153.044871 390.01454)scale(0.1 -0.1)">
     <use xlink:href="#DejaVuSans-49"/>
     <use x="63.623047" xlink:href="#DejaVuSans-49"/>
    </g>
   </g>
   <g id="text_26">
    <!-- 12 -->
    <g style="fill:#800000;" transform="translate(141.100179 372.759385)scale(0.1 -0.1)">
     <use xlink:href="#DejaVuSans-49"/>
     <use x="63.623047" xlink:href="#DejaVuSans-50"/>
    </g>
   </g>
   <g id="text_27">
    <!-- 13 -->
    <g style="fill:#82baff;" transform="translate(168.665625 370.230382)scale(0.1 -0.1)">
     <use xlink:href="#DejaVuSans-49"/>
     <use x="63.623047" xlink:href="#DejaVuSans-51"/>
    </g>
   </g>
   <g id="text_28">
    <!-- 14 -->
    <g style="fill:#ffd8b1;" transform="translate(148.932946 379.414457)scale(0.1 -0.1)">
     <use xlink:href="#DejaVuSans-49"/>
     <use x="63.623047" xlink:href="#DejaVuSans-52"/>
    </g>
   </g>
   <g id="text_29">
    <!-- 15 -->
    <g style="fill:#0072b2;" transform="translate(166.708725 379.92664)scale(0.1 -0.1)">
     <use xlink:href="#DejaVuSans-49"/>
     <use x="63.623047" xlink:href="#DejaVuSans-53"/>
    </g>
   </g>
   <g id="text_30">
    <!-- 16 -->
    <g style="fill:#999999;" transform="translate(144.565185 382.58626)scale(0.1 -0.1)">
     <use xlink:href="#DejaVuSans-49"/>
     <use x="63.623047" xlink:href="#DejaVuSans-54"/>
    </g>
   </g>
   <g id="text_31">
    <!-- 17 -->
    <g style="fill:#e69f00;" transform="translate(117.716946 375.252235)scale(0.1 -0.1)">
     <use xlink:href="#DejaVuSans-49"/>
     <use x="63.623047" xlink:href="#DejaVuSans-55"/>
    </g>
   </g>
   <g id="text_32">
    <!-- 18 -->
    <g style="fill:#56b4e9;" transform="translate(154.044662 395.596681)scale(0.1 -0.1)">
     <use xlink:href="#DejaVuSans-49"/>
     <use x="63.623047" xlink:href="#DejaVuSans-56"/>
    </g>
   </g>
   <g id="legend_1">
    <g id="patch_7">
     <path d="M 248.2 82.12 
L 252.2 82.12 
Q 254.2 82.12 254.2 80.12 
L 254.2 76.12 
Q 254.2 74.12 252.2 74.12 
L 248.2 74.12 
Q 246.2 74.12 246.2 76.12 
L 246.2 80.12 
Q 246.2 82.12 248.2 82.12 
z
" style="fill:#ffffff;opacity:0.8;stroke:#cccccc;stroke-linejoin:miter;"/>
    </g>
   </g>
  </g>
 </g>
 <defs>
  <clipPath id="p37f5b6ceaa">
   <rect height="443.52" width="223.2" x="36" y="69.12"/>
  </clipPath>
 </defs>
</svg>
