<?xml version="1.0" encoding="utf-8" standalone="no"?>
<!DOCTYPE svg PUBLIC "-//W3C//DTD SVG 1.1//EN"
  "http://www.w3.org/Graphics/SVG/1.1/DTD/svg11.dtd">
<!-- Created with matplotlib (https://matplotlib.org/) -->
<svg height="576pt" version="1.1" viewBox="0 0 288 576" width="288pt" xmlns="http://www.w3.org/2000/svg" xmlns:xlink="http://www.w3.org/1999/xlink">
 <metadata>
  <rdf:RDF xmlns:cc="http://creativecommons.org/ns#" xmlns:dc="http://purl.org/dc/elements/1.1/" xmlns:rdf="http://www.w3.org/1999/02/22-rdf-syntax-ns#">
   <cc:Work>
    <dc:type rdf:resource="http://purl.org/dc/dcmitype/StillImage"/>
    <dc:date>2023-03-07T12:56:12.409827</dc:date>
    <dc:format>image/svg+xml</dc:format>
    <dc:creator>
     <cc:Agent>
      <dc:title>Matplotlib v3.3.4, https://matplotlib.org/</dc:title>
     </cc:Agent>
    </dc:creator>
   </cc:Work>
  </rdf:RDF>
 </metadata>
 <defs>
  <style type="text/css">*{stroke-linecap:butt;stroke-linejoin:round;}</style>
 </defs>
 <g id="figure_1">
  <g id="patch_1">
   <path d="M 0 576 
L 288 576 
L 288 0 
L 0 0 
z
" style="fill:#ffffff;"/>
  </g>
  <g id="axes_1">
   <g id="patch_2">
    <path d="M 36 512.64 
L 259.2 512.64 
L 259.2 69.12 
L 36 69.12 
z
" style="fill:#ffffff;"/>
   </g>
   <g id="PathCollection_1">
    <path clip-path="url(#p48d8cc19e0)" d="M 144.421075 105.196869 
C 147.386136 105.196869 150.230155 104.018837 152.326769 101.922223 
C 154.423384 99.825608 155.601415 96.98159 155.601415 94.016529 
C 155.601415 91.051468 154.423384 88.207449 152.326769 86.110835 
C 150.230155 84.01422 147.386136 82.836189 144.421075 82.836189 
C 141.456015 82.836189 138.611996 84.01422 136.515381 86.110835 
C 134.418767 88.207449 133.240735 91.051468 133.240735 94.016529 
C 133.240735 96.98159 134.418767 99.825608 136.515381 101.922223 
C 138.611996 104.018837 141.456015 105.196869 144.421075 105.196869 
z
" style="fill:#e6194b;stroke:#e6194b;"/>
    <path clip-path="url(#p48d8cc19e0)" d="M 146.152017 265.738905 
C 149.261799 265.738905 152.244631 264.503376 154.443579 262.304428 
C 156.642527 260.10548 157.878056 257.122648 157.878056 254.012866 
C 157.878056 250.903084 156.642527 247.920252 154.443579 245.721304 
C 152.244631 243.522356 149.261799 242.286826 146.152017 242.286826 
C 143.042235 242.286826 140.059403 243.522356 137.860455 245.721304 
C 135.661507 247.920252 134.425978 250.903084 134.425978 254.012866 
C 134.425978 257.122648 135.661507 260.10548 137.860455 262.304428 
C 140.059403 264.503376 143.042235 265.738905 146.152017 265.738905 
z
" style="fill:#3cb44b;stroke:#3cb44b;"/>
    <path clip-path="url(#p48d8cc19e0)" d="M 164.651141 327.51216 
C 166.275172 327.51216 167.832905 326.866926 168.981268 325.718562 
C 170.129631 324.570199 170.774866 323.012466 170.774866 321.388435 
C 170.774866 319.764405 170.129631 318.206672 168.981268 317.058308 
C 167.832905 315.909945 166.275172 315.264711 164.651141 315.264711 
C 163.027111 315.264711 161.469377 315.909945 160.321014 317.058308 
C 159.172651 318.206672 158.527417 319.764405 158.527417 321.388435 
C 158.527417 323.012466 159.172651 324.570199 160.321014 325.718562 
C 161.469377 326.866926 163.027111 327.51216 164.651141 327.51216 
z
" style="fill:#ffe119;stroke:#ffe119;"/>
    <path clip-path="url(#p48d8cc19e0)" d="M 155.948344 268.356979 
C 158.044959 268.356979 160.055984 267.523985 161.538514 266.041454 
C 163.021044 264.558924 163.854038 262.547899 163.854038 260.451285 
C 163.854038 258.35467 163.021044 256.343645 161.538514 254.861115 
C 160.055984 253.378584 158.044959 252.54559 155.948344 252.54559 
C 153.851729 252.54559 151.840704 253.378584 150.358174 254.861115 
C 148.875644 256.343645 148.04265 258.35467 148.04265 260.451285 
C 148.04265 262.547899 148.875644 264.558924 150.358174 266.041454 
C 151.840704 267.523985 153.851729 268.356979 155.948344 268.356979 
z
" style="fill:#4363d8;stroke:#4363d8;"/>
    <path clip-path="url(#p48d8cc19e0)" d="M 156.476434 240.079527 
C 159.289337 240.079527 161.987411 238.961949 163.976434 236.972925 
C 165.965457 234.983902 167.083035 232.285829 167.083035 229.472925 
C 167.083035 226.660022 165.965457 223.961949 163.976434 221.972925 
C 161.987411 219.983902 159.289337 218.866324 156.476434 218.866324 
C 153.66353 218.866324 150.965457 219.983902 148.976434 221.972925 
C 146.987411 223.961949 145.869832 226.660022 145.869832 229.472925 
C 145.869832 232.285829 146.987411 234.983902 148.976434 236.972925 
C 150.965457 238.961949 153.66353 240.079527 156.476434 240.079527 
z
" style="fill:#f58231;stroke:#f58231;"/>
    <path clip-path="url(#p48d8cc19e0)" d="M 145.75138 263.193945 
C 149.132069 263.193945 152.374749 261.850783 154.765258 259.460275 
C 157.155766 257.069766 158.498929 253.827086 158.498929 250.446396 
C 158.498929 247.065707 157.155766 243.823027 154.765258 241.432518 
C 152.374749 239.04201 149.132069 237.698848 145.75138 237.698848 
C 142.37069 237.698848 139.12801 239.04201 136.737502 241.432518 
C 134.346993 243.823027 133.003831 247.065707 133.003831 250.446396 
C 133.003831 253.827086 134.346993 257.069766 136.737502 259.460275 
C 139.12801 261.850783 142.37069 263.193945 145.75138 263.193945 
z
" style="fill:#ba3fdf;stroke:#ba3fdf;"/>
    <path clip-path="url(#p48d8cc19e0)" d="M 150.049756 253.356165 
C 153.558063 253.356165 156.923152 251.9623 159.403899 249.481552 
C 161.884647 247.000804 163.278512 243.635716 163.278512 240.127409 
C 163.278512 236.619101 161.884647 233.254013 159.403899 230.773265 
C 156.923152 228.292517 153.558063 226.898652 150.049756 226.898652 
C 146.541449 226.898652 143.17636 228.292517 140.695612 230.773265 
C 138.214865 233.254013 136.820999 236.619101 136.820999 240.127409 
C 136.820999 243.635716 138.214865 247.000804 140.695612 249.481552 
C 143.17636 251.9623 146.541449 253.356165 150.049756 253.356165 
z
" style="fill:#42d4f4;stroke:#42d4f4;"/>
    <path clip-path="url(#p48d8cc19e0)" d="M 139.255143 279.625724 
C 140.879174 279.625724 142.436907 278.98049 143.58527 277.832127 
C 144.733633 276.683764 145.378867 275.126031 145.378867 273.502 
C 145.378867 271.877969 144.733633 270.320236 143.58527 269.171873 
C 142.436907 268.02351 140.879174 267.378275 139.255143 267.378275 
C 137.631112 267.378275 136.073379 268.02351 134.925016 269.171873 
C 133.776653 270.320236 133.131419 271.877969 133.131419 273.502 
C 133.131419 275.126031 133.776653 276.683764 134.925016 277.832127 
C 136.073379 278.98049 137.631112 279.625724 139.255143 279.625724 
z
" style="fill:#bfef45;stroke:#bfef45;"/>
    <path clip-path="url(#p48d8cc19e0)" d="M 147.690776 266.446605 
C 149.314806 266.446605 150.872539 265.801371 152.020903 264.653008 
C 153.169266 263.504645 153.8145 261.946912 153.8145 260.322881 
C 153.8145 258.69885 153.169266 257.141117 152.020903 255.992754 
C 150.872539 254.844391 149.314806 254.199157 147.690776 254.199157 
C 146.066745 254.199157 144.509012 254.844391 143.360649 255.992754 
C 142.212285 257.141117 141.567051 258.69885 141.567051 260.322881 
C 141.567051 261.946912 142.212285 263.504645 143.360649 264.653008 
C 144.509012 265.801371 146.066745 266.446605 147.690776 266.446605 
z
" style="fill:#fabed4;stroke:#fabed4;"/>
    <path clip-path="url(#p48d8cc19e0)" d="M 134.573152 272.867079 
C 137.682934 272.867079 140.665766 271.631549 142.864714 269.432601 
C 145.063662 267.233653 146.299191 264.250821 146.299191 261.141039 
C 146.299191 258.031257 145.063662 255.048425 142.864714 252.849477 
C 140.665766 250.650529 137.682934 249.415 134.573152 249.415 
C 131.46337 249.415 128.480538 250.650529 126.28159 252.849477 
C 124.082642 255.048425 122.847113 258.031257 122.847113 261.141039 
C 122.847113 264.250821 124.082642 267.233653 126.28159 269.432601 
C 128.480538 271.631549 131.46337 272.867079 134.573152 272.867079 
z
" style="fill:#469990;stroke:#469990;"/>
    <path clip-path="url(#p48d8cc19e0)" d="M 160.016688 249.719929 
C 162.497436 249.719929 164.876913 248.734317 166.631066 246.980164 
C 168.38522 245.22601 169.370831 242.846533 169.370831 240.365785 
C 169.370831 237.885038 168.38522 235.505561 166.631066 233.751407 
C 164.876913 231.997254 162.497436 231.011642 160.016688 231.011642 
C 157.53594 231.011642 155.156463 231.997254 153.40231 233.751407 
C 151.648156 235.505561 150.662544 237.885038 150.662544 240.365785 
C 150.662544 242.846533 151.648156 245.22601 153.40231 246.980164 
C 155.156463 248.734317 157.53594 249.719929 160.016688 249.719929 
z
" style="fill:#dcbeff;stroke:#dcbeff;"/>
    <path clip-path="url(#p48d8cc19e0)" d="M 137.278041 253.369701 
C 139.758789 253.369701 142.138266 252.384089 143.892419 250.629935 
C 145.646573 248.875782 146.632185 246.496305 146.632185 244.015557 
C 146.632185 241.534809 145.646573 239.155333 143.892419 237.401179 
C 142.138266 235.647025 139.758789 234.661414 137.278041 234.661414 
C 134.797293 234.661414 132.417816 235.647025 130.663663 237.401179 
C 128.909509 239.155333 127.923898 241.534809 127.923898 244.015557 
C 127.923898 246.496305 128.909509 248.875782 130.663663 250.629935 
C 132.417816 252.384089 134.797293 253.369701 137.278041 253.369701 
z
" style="fill:#9a6324;stroke:#9a6324;"/>
    <path clip-path="url(#p48d8cc19e0)" d="M 150.562593 223.270469 
C 153.375497 223.270469 156.07357 222.152891 158.062593 220.163868 
C 160.051617 218.174844 161.169195 215.476771 161.169195 212.663868 
C 161.169195 209.850964 160.051617 207.152891 158.062593 205.163868 
C 156.07357 203.174844 153.375497 202.057266 150.562593 202.057266 
C 147.74969 202.057266 145.051617 203.174844 143.062593 205.163868 
C 141.07357 207.152891 139.955992 209.850964 139.955992 212.663868 
C 139.955992 215.476771 141.07357 218.174844 143.062593 220.163868 
C 145.051617 222.152891 147.74969 223.270469 150.562593 223.270469 
z
" style="fill:#b3a400;stroke:#b3a400;"/>
    <path clip-path="url(#p48d8cc19e0)" d="M 123.404574 290.836852 
C 125.501189 290.836852 127.512214 290.003858 128.994744 288.521328 
C 130.477275 287.038797 131.310268 285.027772 131.310268 282.931158 
C 131.310268 280.834543 130.477275 278.823518 128.994744 277.340988 
C 127.512214 275.858457 125.501189 275.025464 123.404574 275.025464 
C 121.30796 275.025464 119.296935 275.858457 117.814404 277.340988 
C 116.331874 278.823518 115.49888 280.834543 115.49888 282.931158 
C 115.49888 285.027772 116.331874 287.038797 117.814404 288.521328 
C 119.296935 290.003858 121.30796 290.836852 123.404574 290.836852 
z
" style="fill:#800000;stroke:#800000;"/>
    <path clip-path="url(#p48d8cc19e0)" d="M 128.026962 312.878804 
C 129.352978 312.878804 130.624862 312.351972 131.562496 311.414338 
C 132.500131 310.476703 133.026962 309.204819 133.026962 307.878804 
C 133.026962 306.552788 132.500131 305.280905 131.562496 304.34327 
C 130.624862 303.405635 129.352978 302.878804 128.026962 302.878804 
C 126.700947 302.878804 125.429063 303.405635 124.491428 304.34327 
C 123.553794 305.280905 123.026962 306.552788 123.026962 307.878804 
C 123.026962 309.204819 123.553794 310.476703 124.491428 311.414338 
C 125.429063 312.351972 126.700947 312.878804 128.026962 312.878804 
z
" style="fill:#82baff;stroke:#82baff;"/>
    <path clip-path="url(#p48d8cc19e0)" d="M 140.184372 312.599773 
C 142.059641 312.599773 143.858357 311.854721 145.184372 310.528705 
C 146.510388 309.20269 147.25544 307.403974 147.25544 305.528705 
C 147.25544 303.653436 146.510388 301.854721 145.184372 300.528705 
C 143.858357 299.20269 142.059641 298.457638 140.184372 298.457638 
C 138.309103 298.457638 136.510388 299.20269 135.184372 300.528705 
C 133.858357 301.854721 133.113304 303.653436 133.113304 305.528705 
C 133.113304 307.403974 133.858357 309.20269 135.184372 310.528705 
C 136.510388 311.854721 138.309103 312.599773 140.184372 312.599773 
z
" style="fill:#808000;stroke:#808000;"/>
    <path clip-path="url(#p48d8cc19e0)" d="M 144.021402 253.635106 
C 146.673433 253.635106 149.217201 252.581443 151.09247 250.706174 
C 152.967739 248.830905 154.021402 246.287137 154.021402 243.635106 
C 154.021402 240.983075 152.967739 238.439308 151.09247 236.564039 
C 149.217201 234.68877 146.673433 233.635106 144.021402 233.635106 
C 141.369371 233.635106 138.825603 234.68877 136.950334 236.564039 
C 135.075065 238.439308 134.021402 240.983075 134.021402 243.635106 
C 134.021402 246.287137 135.075065 248.830905 136.950334 250.706174 
C 138.825603 252.581443 141.369371 253.635106 144.021402 253.635106 
z
" style="fill:#ffd8b1;stroke:#ffd8b1;"/>
    <path clip-path="url(#p48d8cc19e0)" d="M 149.725911 227.411864 
C 152.835693 227.411864 155.818525 226.176335 158.017473 223.977387 
C 160.21642 221.778439 161.45195 218.795607 161.45195 215.685825 
C 161.45195 212.576043 160.21642 209.593211 158.017473 207.394263 
C 155.818525 205.195315 152.835693 203.959785 149.725911 203.959785 
C 146.616129 203.959785 143.633297 205.195315 141.434349 207.394263 
C 139.235401 209.593211 137.999871 212.576043 137.999871 215.685825 
C 137.999871 218.795607 139.235401 221.778439 141.434349 223.977387 
C 143.633297 226.176335 146.616129 227.411864 149.725911 227.411864 
z
" style="fill:#0072b2;stroke:#0072b2;"/>
    <path clip-path="url(#p48d8cc19e0)" d="M 131.059865 219.904764 
C 133.540613 219.904764 135.92009 218.919152 137.674243 217.164998 
C 139.428397 215.410845 140.414008 213.031368 140.414008 210.55062 
C 140.414008 208.069872 139.428397 205.690395 137.674243 203.936242 
C 135.92009 202.182088 133.540613 201.196477 131.059865 201.196477 
C 128.579117 201.196477 126.19964 202.182088 124.445487 203.936242 
C 122.691333 205.690395 121.705722 208.069872 121.705722 210.55062 
C 121.705722 213.031368 122.691333 215.410845 124.445487 217.164998 
C 126.19964 218.919152 128.579117 219.904764 131.059865 219.904764 
z
" style="fill:#999999;stroke:#999999;"/>
    <path clip-path="url(#p48d8cc19e0)" d="M 147.296421 274.735622 
C 149.593147 274.735622 151.796115 273.823123 153.420146 272.199093 
C 155.044176 270.575062 155.956675 268.372095 155.956675 266.075368 
C 155.956675 263.778642 155.044176 261.575675 153.420146 259.951644 
C 151.796115 258.327613 149.593147 257.415114 147.296421 257.415114 
C 144.999695 257.415114 142.796727 258.327613 141.172697 259.951644 
C 139.548666 261.575675 138.636167 263.778642 138.636167 266.075368 
C 138.636167 268.372095 139.548666 270.575062 141.172697 272.199093 
C 142.796727 273.823123 144.999695 274.735622 147.296421 274.735622 
z
" style="fill:#e69f00;stroke:#e69f00;"/>
    <path clip-path="url(#p48d8cc19e0)" d="M 146.715956 214.824141 
C 149.681017 214.824141 152.525036 213.64611 154.62165 211.549495 
C 156.718265 209.452881 157.896296 206.608862 157.896296 203.643801 
C 157.896296 200.67874 156.718265 197.834722 154.62165 195.738107 
C 152.525036 193.641492 149.681017 192.463461 146.715956 192.463461 
C 143.750895 192.463461 140.906877 193.641492 138.810262 195.738107 
C 136.713647 197.834722 135.535616 200.67874 135.535616 203.643801 
C 135.535616 206.608862 136.713647 209.452881 138.810262 211.549495 
C 140.906877 213.64611 143.750895 214.824141 146.715956 214.824141 
z
" style="fill:#56b4e9;stroke:#56b4e9;"/>
    <path clip-path="url(#p48d8cc19e0)" d="M 145.464553 272.467419 
C 146.790568 272.467419 148.062452 271.940588 149.000086 271.002953 
C 149.937721 270.065319 150.464553 268.793435 150.464553 267.467419 
C 150.464553 266.141404 149.937721 264.86952 149.000086 263.931885 
C 148.062452 262.994251 146.790568 262.467419 145.464553 262.467419 
C 144.138537 262.467419 142.866653 262.994251 141.929019 263.931885 
C 140.991384 264.86952 140.464553 266.141404 140.464553 267.467419 
C 140.464553 268.793435 140.991384 270.065319 141.929019 271.002953 
C 142.866653 271.940588 144.138537 272.467419 145.464553 272.467419 
z
" style="fill:#009e73;stroke:#009e73;"/>
    <path clip-path="url(#p48d8cc19e0)" d="M 149.674067 263.27444 
C 151.298098 263.27444 152.855831 262.629206 154.004194 261.480843 
C 155.152557 260.33248 155.797791 258.774746 155.797791 257.150716 
C 155.797791 255.526685 155.152557 253.968952 154.004194 252.820589 
C 152.855831 251.672225 151.298098 251.026991 149.674067 251.026991 
C 148.050036 251.026991 146.492303 251.672225 145.34394 252.820589 
C 144.195577 253.968952 143.550342 255.526685 143.550342 257.150716 
C 143.550342 258.774746 144.195577 260.33248 145.34394 261.480843 
C 146.492303 262.629206 148.050036 263.27444 149.674067 263.27444 
z
" style="fill:#f0e442;stroke:#f0e442;"/>
    <path clip-path="url(#p48d8cc19e0)" d="M 158.730742 304.987801 
C 160.056758 304.987801 161.328641 304.460969 162.266276 303.523335 
C 163.20391 302.5857 163.730742 301.313816 163.730742 299.987801 
C 163.730742 298.661785 163.20391 297.389901 162.266276 296.452267 
C 161.328641 295.514632 160.056758 294.987801 158.730742 294.987801 
C 157.404727 294.987801 156.132843 295.514632 155.195208 296.452267 
C 154.257574 297.389901 153.730742 298.661785 153.730742 299.987801 
C 153.730742 301.313816 154.257574 302.5857 155.195208 303.523335 
C 156.132843 304.460969 157.404727 304.987801 158.730742 304.987801 
z
" style="fill:#0072b2;stroke:#0072b2;"/>
    <path clip-path="url(#p48d8cc19e0)" d="M 149.332837 299.263217 
C 151.429452 299.263217 153.440477 298.430223 154.923007 296.947692 
C 156.405538 295.465162 157.238532 293.454137 157.238532 291.357522 
C 157.238532 289.260908 156.405538 287.249883 154.923007 285.767353 
C 153.440477 284.284822 151.429452 283.451828 149.332837 283.451828 
C 147.236223 283.451828 145.225198 284.284822 143.742668 285.767353 
C 142.260137 287.249883 141.427143 289.260908 141.427143 291.357522 
C 141.427143 293.454137 142.260137 295.465162 143.742668 296.947692 
C 145.225198 298.430223 147.236223 299.263217 149.332837 299.263217 
z
" style="fill:#d55e00;stroke:#d55e00;"/>
    <path clip-path="url(#p48d8cc19e0)" d="M 145.765897 270.726589 
C 147.091912 270.726589 148.363796 270.199757 149.301431 269.262123 
C 150.239065 268.324488 150.765897 267.052604 150.765897 265.726589 
C 150.765897 264.400573 150.239065 263.128689 149.301431 262.191055 
C 148.363796 261.25342 147.091912 260.726589 145.765897 260.726589 
C 144.439881 260.726589 143.167998 261.25342 142.230363 262.191055 
C 141.292729 263.128689 140.765897 264.400573 140.765897 265.726589 
C 140.765897 267.052604 141.292729 268.324488 142.230363 269.262123 
C 143.167998 270.199757 144.439881 270.726589 145.765897 270.726589 
z
" style="fill:#cc79a7;stroke:#cc79a7;"/>
   </g>
   <g id="matplotlib.axis_1">
    <g id="xtick_1">
     <g id="line2d_1">
      <defs>
       <path d="M 0 0 
L 0 3.5 
" id="m5c99bc2ef0" style="stroke:#000000;stroke-width:0.8;"/>
      </defs>
      <g>
       <use style="stroke:#000000;stroke-width:0.8;" x="147.6" xlink:href="#m5c99bc2ef0" y="512.64"/>
      </g>
     </g>
     <g id="text_1">
      <!-- MeanPD -->
      <g transform="translate(127.111719 527.238438)scale(0.1 -0.1)">
       <defs>
        <path d="M 9.8125 72.90625 
L 24.515625 72.90625 
L 43.109375 23.296875 
L 61.8125 72.90625 
L 76.515625 72.90625 
L 76.515625 0 
L 66.890625 0 
L 66.890625 64.015625 
L 48.09375 14.015625 
L 38.1875 14.015625 
L 19.390625 64.015625 
L 19.390625 0 
L 9.8125 0 
z
" id="DejaVuSans-77"/>
        <path d="M 56.203125 29.59375 
L 56.203125 25.203125 
L 14.890625 25.203125 
Q 15.484375 15.921875 20.484375 11.0625 
Q 25.484375 6.203125 34.421875 6.203125 
Q 39.59375 6.203125 44.453125 7.46875 
Q 49.3125 8.734375 54.109375 11.28125 
L 54.109375 2.78125 
Q 49.265625 0.734375 44.1875 -0.34375 
Q 39.109375 -1.421875 33.890625 -1.421875 
Q 20.796875 -1.421875 13.15625 6.1875 
Q 5.515625 13.8125 5.515625 26.8125 
Q 5.515625 40.234375 12.765625 48.109375 
Q 20.015625 56 32.328125 56 
Q 43.359375 56 49.78125 48.890625 
Q 56.203125 41.796875 56.203125 29.59375 
z
M 47.21875 32.234375 
Q 47.125 39.59375 43.09375 43.984375 
Q 39.0625 48.390625 32.421875 48.390625 
Q 24.90625 48.390625 20.390625 44.140625 
Q 15.875 39.890625 15.1875 32.171875 
z
" id="DejaVuSans-101"/>
        <path d="M 34.28125 27.484375 
Q 23.390625 27.484375 19.1875 25 
Q 14.984375 22.515625 14.984375 16.5 
Q 14.984375 11.71875 18.140625 8.90625 
Q 21.296875 6.109375 26.703125 6.109375 
Q 34.1875 6.109375 38.703125 11.40625 
Q 43.21875 16.703125 43.21875 25.484375 
L 43.21875 27.484375 
z
M 52.203125 31.203125 
L 52.203125 0 
L 43.21875 0 
L 43.21875 8.296875 
Q 40.140625 3.328125 35.546875 0.953125 
Q 30.953125 -1.421875 24.3125 -1.421875 
Q 15.921875 -1.421875 10.953125 3.296875 
Q 6 8.015625 6 15.921875 
Q 6 25.140625 12.171875 29.828125 
Q 18.359375 34.515625 30.609375 34.515625 
L 43.21875 34.515625 
L 43.21875 35.40625 
Q 43.21875 41.609375 39.140625 45 
Q 35.0625 48.390625 27.6875 48.390625 
Q 23 48.390625 18.546875 47.265625 
Q 14.109375 46.140625 10.015625 43.890625 
L 10.015625 52.203125 
Q 14.9375 54.109375 19.578125 55.046875 
Q 24.21875 56 28.609375 56 
Q 40.484375 56 46.34375 49.84375 
Q 52.203125 43.703125 52.203125 31.203125 
z
" id="DejaVuSans-97"/>
        <path d="M 54.890625 33.015625 
L 54.890625 0 
L 45.90625 0 
L 45.90625 32.71875 
Q 45.90625 40.484375 42.875 44.328125 
Q 39.84375 48.1875 33.796875 48.1875 
Q 26.515625 48.1875 22.3125 43.546875 
Q 18.109375 38.921875 18.109375 30.90625 
L 18.109375 0 
L 9.078125 0 
L 9.078125 54.6875 
L 18.109375 54.6875 
L 18.109375 46.1875 
Q 21.34375 51.125 25.703125 53.5625 
Q 30.078125 56 35.796875 56 
Q 45.21875 56 50.046875 50.171875 
Q 54.890625 44.34375 54.890625 33.015625 
z
" id="DejaVuSans-110"/>
        <path d="M 19.671875 64.796875 
L 19.671875 37.40625 
L 32.078125 37.40625 
Q 38.96875 37.40625 42.71875 40.96875 
Q 46.484375 44.53125 46.484375 51.125 
Q 46.484375 57.671875 42.71875 61.234375 
Q 38.96875 64.796875 32.078125 64.796875 
z
M 9.8125 72.90625 
L 32.078125 72.90625 
Q 44.34375 72.90625 50.609375 67.359375 
Q 56.890625 61.8125 56.890625 51.125 
Q 56.890625 40.328125 50.609375 34.8125 
Q 44.34375 29.296875 32.078125 29.296875 
L 19.671875 29.296875 
L 19.671875 0 
L 9.8125 0 
z
" id="DejaVuSans-80"/>
        <path d="M 19.671875 64.796875 
L 19.671875 8.109375 
L 31.59375 8.109375 
Q 46.6875 8.109375 53.6875 14.9375 
Q 60.6875 21.78125 60.6875 36.53125 
Q 60.6875 51.171875 53.6875 57.984375 
Q 46.6875 64.796875 31.59375 64.796875 
z
M 9.8125 72.90625 
L 30.078125 72.90625 
Q 51.265625 72.90625 61.171875 64.09375 
Q 71.09375 55.28125 71.09375 36.53125 
Q 71.09375 17.671875 61.125 8.828125 
Q 51.171875 0 30.078125 0 
L 9.8125 0 
z
" id="DejaVuSans-68"/>
       </defs>
       <use xlink:href="#DejaVuSans-77"/>
       <use x="86.279297" xlink:href="#DejaVuSans-101"/>
       <use x="147.802734" xlink:href="#DejaVuSans-97"/>
       <use x="209.082031" xlink:href="#DejaVuSans-110"/>
       <use x="272.460938" xlink:href="#DejaVuSans-80"/>
       <use x="332.763672" xlink:href="#DejaVuSans-68"/>
      </g>
     </g>
    </g>
   </g>
   <g id="matplotlib.axis_2">
    <g id="ytick_1">
     <g id="line2d_2">
      <defs>
       <path d="M 0 0 
L -3.5 0 
" id="md4b12010f9" style="stroke:#000000;stroke-width:0.8;"/>
      </defs>
      <g>
       <use style="stroke:#000000;stroke-width:0.8;" x="36" xlink:href="#md4b12010f9" y="503.203404"/>
      </g>
     </g>
     <g id="text_2">
      <!-- −1.5 -->
      <g transform="translate(4.717187 507.002623)scale(0.1 -0.1)">
       <defs>
        <path d="M 10.59375 35.5 
L 73.1875 35.5 
L 73.1875 27.203125 
L 10.59375 27.203125 
z
" id="DejaVuSans-8722"/>
        <path d="M 12.40625 8.296875 
L 28.515625 8.296875 
L 28.515625 63.921875 
L 10.984375 60.40625 
L 10.984375 69.390625 
L 28.421875 72.90625 
L 38.28125 72.90625 
L 38.28125 8.296875 
L 54.390625 8.296875 
L 54.390625 0 
L 12.40625 0 
z
" id="DejaVuSans-49"/>
        <path d="M 10.6875 12.40625 
L 21 12.40625 
L 21 0 
L 10.6875 0 
z
" id="DejaVuSans-46"/>
        <path d="M 10.796875 72.90625 
L 49.515625 72.90625 
L 49.515625 64.59375 
L 19.828125 64.59375 
L 19.828125 46.734375 
Q 21.96875 47.46875 24.109375 47.828125 
Q 26.265625 48.1875 28.421875 48.1875 
Q 40.625 48.1875 47.75 41.5 
Q 54.890625 34.8125 54.890625 23.390625 
Q 54.890625 11.625 47.5625 5.09375 
Q 40.234375 -1.421875 26.90625 -1.421875 
Q 22.3125 -1.421875 17.546875 -0.640625 
Q 12.796875 0.140625 7.71875 1.703125 
L 7.71875 11.625 
Q 12.109375 9.234375 16.796875 8.0625 
Q 21.484375 6.890625 26.703125 6.890625 
Q 35.15625 6.890625 40.078125 11.328125 
Q 45.015625 15.765625 45.015625 23.390625 
Q 45.015625 31 40.078125 35.4375 
Q 35.15625 39.890625 26.703125 39.890625 
Q 22.75 39.890625 18.8125 39.015625 
Q 14.890625 38.140625 10.796875 36.28125 
z
" id="DejaVuSans-53"/>
       </defs>
       <use xlink:href="#DejaVuSans-8722"/>
       <use x="83.789062" xlink:href="#DejaVuSans-49"/>
       <use x="147.412109" xlink:href="#DejaVuSans-46"/>
       <use x="179.199219" xlink:href="#DejaVuSans-53"/>
      </g>
     </g>
    </g>
    <g id="ytick_2">
     <g id="line2d_3">
      <g>
       <use style="stroke:#000000;stroke-width:0.8;" x="36" xlink:href="#md4b12010f9" y="456.020426"/>
      </g>
     </g>
     <g id="text_3">
      <!-- −1.0 -->
      <g transform="translate(4.717187 459.819644)scale(0.1 -0.1)">
       <defs>
        <path d="M 31.78125 66.40625 
Q 24.171875 66.40625 20.328125 58.90625 
Q 16.5 51.421875 16.5 36.375 
Q 16.5 21.390625 20.328125 13.890625 
Q 24.171875 6.390625 31.78125 6.390625 
Q 39.453125 6.390625 43.28125 13.890625 
Q 47.125 21.390625 47.125 36.375 
Q 47.125 51.421875 43.28125 58.90625 
Q 39.453125 66.40625 31.78125 66.40625 
z
M 31.78125 74.21875 
Q 44.046875 74.21875 50.515625 64.515625 
Q 56.984375 54.828125 56.984375 36.375 
Q 56.984375 17.96875 50.515625 8.265625 
Q 44.046875 -1.421875 31.78125 -1.421875 
Q 19.53125 -1.421875 13.0625 8.265625 
Q 6.59375 17.96875 6.59375 36.375 
Q 6.59375 54.828125 13.0625 64.515625 
Q 19.53125 74.21875 31.78125 74.21875 
z
" id="DejaVuSans-48"/>
       </defs>
       <use xlink:href="#DejaVuSans-8722"/>
       <use x="83.789062" xlink:href="#DejaVuSans-49"/>
       <use x="147.412109" xlink:href="#DejaVuSans-46"/>
       <use x="179.199219" xlink:href="#DejaVuSans-48"/>
      </g>
     </g>
    </g>
    <g id="ytick_3">
     <g id="line2d_4">
      <g>
       <use style="stroke:#000000;stroke-width:0.8;" x="36" xlink:href="#md4b12010f9" y="408.837447"/>
      </g>
     </g>
     <g id="text_4">
      <!-- −0.5 -->
      <g transform="translate(4.717187 412.636666)scale(0.1 -0.1)">
       <use xlink:href="#DejaVuSans-8722"/>
       <use x="83.789062" xlink:href="#DejaVuSans-48"/>
       <use x="147.412109" xlink:href="#DejaVuSans-46"/>
       <use x="179.199219" xlink:href="#DejaVuSans-53"/>
      </g>
     </g>
    </g>
    <g id="ytick_4">
     <g id="line2d_5">
      <g>
       <use style="stroke:#000000;stroke-width:0.8;" x="36" xlink:href="#md4b12010f9" y="361.654468"/>
      </g>
     </g>
     <g id="text_5">
      <!-- 0.0 -->
      <g transform="translate(13.096875 365.453687)scale(0.1 -0.1)">
       <use xlink:href="#DejaVuSans-48"/>
       <use x="63.623047" xlink:href="#DejaVuSans-46"/>
       <use x="95.410156" xlink:href="#DejaVuSans-48"/>
      </g>
     </g>
    </g>
    <g id="ytick_5">
     <g id="line2d_6">
      <g>
       <use style="stroke:#000000;stroke-width:0.8;" x="36" xlink:href="#md4b12010f9" y="314.471489"/>
      </g>
     </g>
     <g id="text_6">
      <!-- 0.5 -->
      <g transform="translate(13.096875 318.270708)scale(0.1 -0.1)">
       <use xlink:href="#DejaVuSans-48"/>
       <use x="63.623047" xlink:href="#DejaVuSans-46"/>
       <use x="95.410156" xlink:href="#DejaVuSans-53"/>
      </g>
     </g>
    </g>
    <g id="ytick_6">
     <g id="line2d_7">
      <g>
       <use style="stroke:#000000;stroke-width:0.8;" x="36" xlink:href="#md4b12010f9" y="267.288511"/>
      </g>
     </g>
     <g id="text_7">
      <!-- 1.0 -->
      <g transform="translate(13.096875 271.087729)scale(0.1 -0.1)">
       <use xlink:href="#DejaVuSans-49"/>
       <use x="63.623047" xlink:href="#DejaVuSans-46"/>
       <use x="95.410156" xlink:href="#DejaVuSans-48"/>
      </g>
     </g>
    </g>
    <g id="ytick_7">
     <g id="line2d_8">
      <g>
       <use style="stroke:#000000;stroke-width:0.8;" x="36" xlink:href="#md4b12010f9" y="220.105532"/>
      </g>
     </g>
     <g id="text_8">
      <!-- 1.5 -->
      <g transform="translate(13.096875 223.904751)scale(0.1 -0.1)">
       <use xlink:href="#DejaVuSans-49"/>
       <use x="63.623047" xlink:href="#DejaVuSans-46"/>
       <use x="95.410156" xlink:href="#DejaVuSans-53"/>
      </g>
     </g>
    </g>
    <g id="ytick_8">
     <g id="line2d_9">
      <g>
       <use style="stroke:#000000;stroke-width:0.8;" x="36" xlink:href="#md4b12010f9" y="172.922553"/>
      </g>
     </g>
     <g id="text_9">
      <!-- 2.0 -->
      <g transform="translate(13.096875 176.721772)scale(0.1 -0.1)">
       <defs>
        <path d="M 19.1875 8.296875 
L 53.609375 8.296875 
L 53.609375 0 
L 7.328125 0 
L 7.328125 8.296875 
Q 12.9375 14.109375 22.625 23.890625 
Q 32.328125 33.6875 34.8125 36.53125 
Q 39.546875 41.84375 41.421875 45.53125 
Q 43.3125 49.21875 43.3125 52.78125 
Q 43.3125 58.59375 39.234375 62.25 
Q 35.15625 65.921875 28.609375 65.921875 
Q 23.96875 65.921875 18.8125 64.3125 
Q 13.671875 62.703125 7.8125 59.421875 
L 7.8125 69.390625 
Q 13.765625 71.78125 18.9375 73 
Q 24.125 74.21875 28.421875 74.21875 
Q 39.75 74.21875 46.484375 68.546875 
Q 53.21875 62.890625 53.21875 53.421875 
Q 53.21875 48.921875 51.53125 44.890625 
Q 49.859375 40.875 45.40625 35.40625 
Q 44.1875 33.984375 37.640625 27.21875 
Q 31.109375 20.453125 19.1875 8.296875 
z
" id="DejaVuSans-50"/>
       </defs>
       <use xlink:href="#DejaVuSans-50"/>
       <use x="63.623047" xlink:href="#DejaVuSans-46"/>
       <use x="95.410156" xlink:href="#DejaVuSans-48"/>
      </g>
     </g>
    </g>
    <g id="ytick_9">
     <g id="line2d_10">
      <g>
       <use style="stroke:#000000;stroke-width:0.8;" x="36" xlink:href="#md4b12010f9" y="125.739574"/>
      </g>
     </g>
     <g id="text_10">
      <!-- 2.5 -->
      <g transform="translate(13.096875 129.538793)scale(0.1 -0.1)">
       <use xlink:href="#DejaVuSans-50"/>
       <use x="63.623047" xlink:href="#DejaVuSans-46"/>
       <use x="95.410156" xlink:href="#DejaVuSans-53"/>
      </g>
     </g>
    </g>
    <g id="ytick_10">
     <g id="line2d_11">
      <g>
       <use style="stroke:#000000;stroke-width:0.8;" x="36" xlink:href="#md4b12010f9" y="78.556596"/>
      </g>
     </g>
     <g id="text_11">
      <!-- 3.0 -->
      <g transform="translate(13.096875 82.355814)scale(0.1 -0.1)">
       <defs>
        <path d="M 40.578125 39.3125 
Q 47.65625 37.796875 51.625 33 
Q 55.609375 28.21875 55.609375 21.1875 
Q 55.609375 10.40625 48.1875 4.484375 
Q 40.765625 -1.421875 27.09375 -1.421875 
Q 22.515625 -1.421875 17.65625 -0.515625 
Q 12.796875 0.390625 7.625 2.203125 
L 7.625 11.71875 
Q 11.71875 9.328125 16.59375 8.109375 
Q 21.484375 6.890625 26.8125 6.890625 
Q 36.078125 6.890625 40.9375 10.546875 
Q 45.796875 14.203125 45.796875 21.1875 
Q 45.796875 27.640625 41.28125 31.265625 
Q 36.765625 34.90625 28.71875 34.90625 
L 20.21875 34.90625 
L 20.21875 43.015625 
L 29.109375 43.015625 
Q 36.375 43.015625 40.234375 45.921875 
Q 44.09375 48.828125 44.09375 54.296875 
Q 44.09375 59.90625 40.109375 62.90625 
Q 36.140625 65.921875 28.71875 65.921875 
Q 24.65625 65.921875 20.015625 65.03125 
Q 15.375 64.15625 9.8125 62.3125 
L 9.8125 71.09375 
Q 15.4375 72.65625 20.34375 73.4375 
Q 25.25 74.21875 29.59375 74.21875 
Q 40.828125 74.21875 47.359375 69.109375 
Q 53.90625 64.015625 53.90625 55.328125 
Q 53.90625 49.265625 50.4375 45.09375 
Q 46.96875 40.921875 40.578125 39.3125 
z
" id="DejaVuSans-51"/>
       </defs>
       <use xlink:href="#DejaVuSans-51"/>
       <use x="63.623047" xlink:href="#DejaVuSans-46"/>
       <use x="95.410156" xlink:href="#DejaVuSans-48"/>
      </g>
     </g>
    </g>
    <g id="text_12">
     <!-- LogOdds -->
     <g transform="translate(-1.3625 312.701094)rotate(-90)scale(0.1 -0.1)">
      <defs>
       <path d="M 9.8125 72.90625 
L 19.671875 72.90625 
L 19.671875 8.296875 
L 55.171875 8.296875 
L 55.171875 0 
L 9.8125 0 
z
" id="DejaVuSans-76"/>
       <path d="M 30.609375 48.390625 
Q 23.390625 48.390625 19.1875 42.75 
Q 14.984375 37.109375 14.984375 27.296875 
Q 14.984375 17.484375 19.15625 11.84375 
Q 23.34375 6.203125 30.609375 6.203125 
Q 37.796875 6.203125 41.984375 11.859375 
Q 46.1875 17.53125 46.1875 27.296875 
Q 46.1875 37.015625 41.984375 42.703125 
Q 37.796875 48.390625 30.609375 48.390625 
z
M 30.609375 56 
Q 42.328125 56 49.015625 48.375 
Q 55.71875 40.765625 55.71875 27.296875 
Q 55.71875 13.875 49.015625 6.21875 
Q 42.328125 -1.421875 30.609375 -1.421875 
Q 18.84375 -1.421875 12.171875 6.21875 
Q 5.515625 13.875 5.515625 27.296875 
Q 5.515625 40.765625 12.171875 48.375 
Q 18.84375 56 30.609375 56 
z
" id="DejaVuSans-111"/>
       <path d="M 45.40625 27.984375 
Q 45.40625 37.75 41.375 43.109375 
Q 37.359375 48.484375 30.078125 48.484375 
Q 22.859375 48.484375 18.828125 43.109375 
Q 14.796875 37.75 14.796875 27.984375 
Q 14.796875 18.265625 18.828125 12.890625 
Q 22.859375 7.515625 30.078125 7.515625 
Q 37.359375 7.515625 41.375 12.890625 
Q 45.40625 18.265625 45.40625 27.984375 
z
M 54.390625 6.78125 
Q 54.390625 -7.171875 48.1875 -13.984375 
Q 42 -20.796875 29.203125 -20.796875 
Q 24.46875 -20.796875 20.265625 -20.09375 
Q 16.0625 -19.390625 12.109375 -17.921875 
L 12.109375 -9.1875 
Q 16.0625 -11.328125 19.921875 -12.34375 
Q 23.78125 -13.375 27.78125 -13.375 
Q 36.625 -13.375 41.015625 -8.765625 
Q 45.40625 -4.15625 45.40625 5.171875 
L 45.40625 9.625 
Q 42.625 4.78125 38.28125 2.390625 
Q 33.9375 0 27.875 0 
Q 17.828125 0 11.671875 7.65625 
Q 5.515625 15.328125 5.515625 27.984375 
Q 5.515625 40.671875 11.671875 48.328125 
Q 17.828125 56 27.875 56 
Q 33.9375 56 38.28125 53.609375 
Q 42.625 51.21875 45.40625 46.390625 
L 45.40625 54.6875 
L 54.390625 54.6875 
z
" id="DejaVuSans-103"/>
       <path d="M 39.40625 66.21875 
Q 28.65625 66.21875 22.328125 58.203125 
Q 16.015625 50.203125 16.015625 36.375 
Q 16.015625 22.609375 22.328125 14.59375 
Q 28.65625 6.59375 39.40625 6.59375 
Q 50.140625 6.59375 56.421875 14.59375 
Q 62.703125 22.609375 62.703125 36.375 
Q 62.703125 50.203125 56.421875 58.203125 
Q 50.140625 66.21875 39.40625 66.21875 
z
M 39.40625 74.21875 
Q 54.734375 74.21875 63.90625 63.9375 
Q 73.09375 53.65625 73.09375 36.375 
Q 73.09375 19.140625 63.90625 8.859375 
Q 54.734375 -1.421875 39.40625 -1.421875 
Q 24.03125 -1.421875 14.8125 8.828125 
Q 5.609375 19.09375 5.609375 36.375 
Q 5.609375 53.65625 14.8125 63.9375 
Q 24.03125 74.21875 39.40625 74.21875 
z
" id="DejaVuSans-79"/>
       <path d="M 45.40625 46.390625 
L 45.40625 75.984375 
L 54.390625 75.984375 
L 54.390625 0 
L 45.40625 0 
L 45.40625 8.203125 
Q 42.578125 3.328125 38.25 0.953125 
Q 33.9375 -1.421875 27.875 -1.421875 
Q 17.96875 -1.421875 11.734375 6.484375 
Q 5.515625 14.40625 5.515625 27.296875 
Q 5.515625 40.1875 11.734375 48.09375 
Q 17.96875 56 27.875 56 
Q 33.9375 56 38.25 53.625 
Q 42.578125 51.265625 45.40625 46.390625 
z
M 14.796875 27.296875 
Q 14.796875 17.390625 18.875 11.75 
Q 22.953125 6.109375 30.078125 6.109375 
Q 37.203125 6.109375 41.296875 11.75 
Q 45.40625 17.390625 45.40625 27.296875 
Q 45.40625 37.203125 41.296875 42.84375 
Q 37.203125 48.484375 30.078125 48.484375 
Q 22.953125 48.484375 18.875 42.84375 
Q 14.796875 37.203125 14.796875 27.296875 
z
" id="DejaVuSans-100"/>
       <path d="M 44.28125 53.078125 
L 44.28125 44.578125 
Q 40.484375 46.53125 36.375 47.5 
Q 32.28125 48.484375 27.875 48.484375 
Q 21.1875 48.484375 17.84375 46.4375 
Q 14.5 44.390625 14.5 40.28125 
Q 14.5 37.15625 16.890625 35.375 
Q 19.28125 33.59375 26.515625 31.984375 
L 29.59375 31.296875 
Q 39.15625 29.25 43.1875 25.515625 
Q 47.21875 21.78125 47.21875 15.09375 
Q 47.21875 7.46875 41.1875 3.015625 
Q 35.15625 -1.421875 24.609375 -1.421875 
Q 20.21875 -1.421875 15.453125 -0.5625 
Q 10.6875 0.296875 5.421875 2 
L 5.421875 11.28125 
Q 10.40625 8.6875 15.234375 7.390625 
Q 20.0625 6.109375 24.8125 6.109375 
Q 31.15625 6.109375 34.5625 8.28125 
Q 37.984375 10.453125 37.984375 14.40625 
Q 37.984375 18.0625 35.515625 20.015625 
Q 33.0625 21.96875 24.703125 23.78125 
L 21.578125 24.515625 
Q 13.234375 26.265625 9.515625 29.90625 
Q 5.8125 33.546875 5.8125 39.890625 
Q 5.8125 47.609375 11.28125 51.796875 
Q 16.75 56 26.8125 56 
Q 31.78125 56 36.171875 55.265625 
Q 40.578125 54.546875 44.28125 53.078125 
z
" id="DejaVuSans-115"/>
      </defs>
      <use xlink:href="#DejaVuSans-76"/>
      <use x="53.962891" xlink:href="#DejaVuSans-111"/>
      <use x="115.144531" xlink:href="#DejaVuSans-103"/>
      <use x="178.621094" xlink:href="#DejaVuSans-79"/>
      <use x="257.332031" xlink:href="#DejaVuSans-100"/>
      <use x="320.808594" xlink:href="#DejaVuSans-100"/>
      <use x="384.285156" xlink:href="#DejaVuSans-115"/>
     </g>
    </g>
   </g>
   <g id="line2d_12">
    <path clip-path="url(#p48d8cc19e0)" d="M 130.86 271.993355 
L 164.34 271.993355 
L 164.34 240.187003 
L 130.86 240.187003 
L 130.86 271.993355 
" style="fill:none;stroke:#000000;stroke-linecap:square;"/>
   </g>
   <g id="line2d_13">
    <path clip-path="url(#p48d8cc19e0)" d="M 147.6 271.993355 
L 147.6 307.878804 
" style="fill:none;stroke:#000000;stroke-linecap:square;"/>
   </g>
   <g id="line2d_14">
    <path clip-path="url(#p48d8cc19e0)" d="M 147.6 240.187003 
L 147.6 203.643801 
" style="fill:none;stroke:#000000;stroke-linecap:square;"/>
   </g>
   <g id="line2d_15">
    <path clip-path="url(#p48d8cc19e0)" d="M 139.23 307.878804 
L 155.97 307.878804 
" style="fill:none;stroke:#000000;stroke-linecap:square;"/>
   </g>
   <g id="line2d_16">
    <path clip-path="url(#p48d8cc19e0)" d="M 139.23 203.643801 
L 155.97 203.643801 
" style="fill:none;stroke:#000000;stroke-linecap:square;"/>
   </g>
   <g id="line2d_17">
    <path clip-path="url(#p48d8cc19e0)" d="M 130.86 258.736798 
L 164.34 258.736798 
" style="fill:none;stroke:#ff7f0e;stroke-linecap:square;"/>
   </g>
   <g id="patch_3">
    <path d="M 36 512.64 
L 36 69.12 
" style="fill:none;stroke:#000000;stroke-linecap:square;stroke-linejoin:miter;stroke-width:0.8;"/>
   </g>
   <g id="patch_4">
    <path d="M 259.2 512.64 
L 259.2 69.12 
" style="fill:none;stroke:#000000;stroke-linecap:square;stroke-linejoin:miter;stroke-width:0.8;"/>
   </g>
   <g id="patch_5">
    <path d="M 36 512.64 
L 259.2 512.64 
" style="fill:none;stroke:#000000;stroke-linecap:square;stroke-linejoin:miter;stroke-width:0.8;"/>
   </g>
   <g id="patch_6">
    <path d="M 36 69.12 
L 259.2 69.12 
" style="fill:none;stroke:#000000;stroke-linecap:square;stroke-linejoin:miter;stroke-width:0.8;"/>
   </g>
   <g id="text_13">
    <!-- 0.0 -->
    <g style="fill:#e6194b;" transform="translate(146.653075 93.072869)scale(0.1 -0.1)">
     <use xlink:href="#DejaVuSans-48"/>
     <use x="63.623047" xlink:href="#DejaVuSans-46"/>
     <use x="95.410156" xlink:href="#DejaVuSans-48"/>
    </g>
   </g>
   <g id="text_14">
    <!-- 1.0 -->
    <g style="fill:#3cb44b;" transform="translate(148.384017 253.069206)scale(0.1 -0.1)">
     <use xlink:href="#DejaVuSans-49"/>
     <use x="63.623047" xlink:href="#DejaVuSans-46"/>
     <use x="95.410156" xlink:href="#DejaVuSans-48"/>
    </g>
   </g>
   <g id="text_15">
    <!-- 2.0 -->
    <g style="fill:#ffe119;" transform="translate(166.883141 320.444776)scale(0.1 -0.1)">
     <use xlink:href="#DejaVuSans-50"/>
     <use x="63.623047" xlink:href="#DejaVuSans-46"/>
     <use x="95.410156" xlink:href="#DejaVuSans-48"/>
    </g>
   </g>
   <g id="text_16">
    <!-- 3.0 -->
    <g style="fill:#4363d8;" transform="translate(158.180344 259.507625)scale(0.1 -0.1)">
     <use xlink:href="#DejaVuSans-51"/>
     <use x="63.623047" xlink:href="#DejaVuSans-46"/>
     <use x="95.410156" xlink:href="#DejaVuSans-48"/>
    </g>
   </g>
   <g id="text_17">
    <!-- 4 -->
    <g style="fill:#f58231;" transform="translate(158.708434 228.529266)scale(0.1 -0.1)">
     <defs>
      <path d="M 37.796875 64.3125 
L 12.890625 25.390625 
L 37.796875 25.390625 
z
M 35.203125 72.90625 
L 47.609375 72.90625 
L 47.609375 25.390625 
L 58.015625 25.390625 
L 58.015625 17.1875 
L 47.609375 17.1875 
L 47.609375 0 
L 37.796875 0 
L 37.796875 17.1875 
L 4.890625 17.1875 
L 4.890625 26.703125 
z
" id="DejaVuSans-52"/>
     </defs>
     <use xlink:href="#DejaVuSans-52"/>
    </g>
   </g>
   <g id="text_18">
    <!-- 5 -->
    <g style="fill:#ba3fdf;" transform="translate(147.98338 249.502737)scale(0.1 -0.1)">
     <use xlink:href="#DejaVuSans-53"/>
    </g>
   </g>
   <g id="text_19">
    <!-- 6 -->
    <g style="fill:#42d4f4;" transform="translate(152.281756 239.183749)scale(0.1 -0.1)">
     <defs>
      <path d="M 33.015625 40.375 
Q 26.375 40.375 22.484375 35.828125 
Q 18.609375 31.296875 18.609375 23.390625 
Q 18.609375 15.53125 22.484375 10.953125 
Q 26.375 6.390625 33.015625 6.390625 
Q 39.65625 6.390625 43.53125 10.953125 
Q 47.40625 15.53125 47.40625 23.390625 
Q 47.40625 31.296875 43.53125 35.828125 
Q 39.65625 40.375 33.015625 40.375 
z
M 52.59375 71.296875 
L 52.59375 62.3125 
Q 48.875 64.0625 45.09375 64.984375 
Q 41.3125 65.921875 37.59375 65.921875 
Q 27.828125 65.921875 22.671875 59.328125 
Q 17.53125 52.734375 16.796875 39.40625 
Q 19.671875 43.65625 24.015625 45.921875 
Q 28.375 48.1875 33.59375 48.1875 
Q 44.578125 48.1875 50.953125 41.515625 
Q 57.328125 34.859375 57.328125 23.390625 
Q 57.328125 12.15625 50.6875 5.359375 
Q 44.046875 -1.421875 33.015625 -1.421875 
Q 20.359375 -1.421875 13.671875 8.265625 
Q 6.984375 17.96875 6.984375 36.375 
Q 6.984375 53.65625 15.1875 63.9375 
Q 23.390625 74.21875 37.203125 74.21875 
Q 40.921875 74.21875 44.703125 73.484375 
Q 48.484375 72.75 52.59375 71.296875 
z
" id="DejaVuSans-54"/>
     </defs>
     <use xlink:href="#DejaVuSans-54"/>
    </g>
   </g>
   <g id="text_20">
    <!-- 7.0 -->
    <g style="fill:#bfef45;" transform="translate(141.487143 272.55834)scale(0.1 -0.1)">
     <defs>
      <path d="M 8.203125 72.90625 
L 55.078125 72.90625 
L 55.078125 68.703125 
L 28.609375 0 
L 18.3125 0 
L 43.21875 64.59375 
L 8.203125 64.59375 
z
" id="DejaVuSans-55"/>
     </defs>
     <use xlink:href="#DejaVuSans-55"/>
     <use x="63.623047" xlink:href="#DejaVuSans-46"/>
     <use x="95.410156" xlink:href="#DejaVuSans-48"/>
    </g>
   </g>
   <g id="text_21">
    <!-- 19.1 -->
    <g style="fill:#fabed4;" transform="translate(149.922776 259.379222)scale(0.1 -0.1)">
     <defs>
      <path d="M 10.984375 1.515625 
L 10.984375 10.5 
Q 14.703125 8.734375 18.5 7.8125 
Q 22.3125 6.890625 25.984375 6.890625 
Q 35.75 6.890625 40.890625 13.453125 
Q 46.046875 20.015625 46.78125 33.40625 
Q 43.953125 29.203125 39.59375 26.953125 
Q 35.25 24.703125 29.984375 24.703125 
Q 19.046875 24.703125 12.671875 31.3125 
Q 6.296875 37.9375 6.296875 49.421875 
Q 6.296875 60.640625 12.9375 67.421875 
Q 19.578125 74.21875 30.609375 74.21875 
Q 43.265625 74.21875 49.921875 64.515625 
Q 56.59375 54.828125 56.59375 36.375 
Q 56.59375 19.140625 48.40625 8.859375 
Q 40.234375 -1.421875 26.421875 -1.421875 
Q 22.703125 -1.421875 18.890625 -0.6875 
Q 15.09375 0.046875 10.984375 1.515625 
z
M 30.609375 32.421875 
Q 37.25 32.421875 41.125 36.953125 
Q 45.015625 41.5 45.015625 49.421875 
Q 45.015625 57.28125 41.125 61.84375 
Q 37.25 66.40625 30.609375 66.40625 
Q 23.96875 66.40625 20.09375 61.84375 
Q 16.21875 57.28125 16.21875 49.421875 
Q 16.21875 41.5 20.09375 36.953125 
Q 23.96875 32.421875 30.609375 32.421875 
z
" id="DejaVuSans-57"/>
     </defs>
     <use xlink:href="#DejaVuSans-49"/>
     <use x="63.623047" xlink:href="#DejaVuSans-57"/>
     <use x="127.246094" xlink:href="#DejaVuSans-46"/>
     <use x="159.033203" xlink:href="#DejaVuSans-49"/>
    </g>
   </g>
   <g id="text_22">
    <!-- 8 -->
    <g style="fill:#469990;" transform="translate(136.805152 260.19738)scale(0.1 -0.1)">
     <defs>
      <path d="M 31.78125 34.625 
Q 24.75 34.625 20.71875 30.859375 
Q 16.703125 27.09375 16.703125 20.515625 
Q 16.703125 13.921875 20.71875 10.15625 
Q 24.75 6.390625 31.78125 6.390625 
Q 38.8125 6.390625 42.859375 10.171875 
Q 46.921875 13.96875 46.921875 20.515625 
Q 46.921875 27.09375 42.890625 30.859375 
Q 38.875 34.625 31.78125 34.625 
z
M 21.921875 38.8125 
Q 15.578125 40.375 12.03125 44.71875 
Q 8.5 49.078125 8.5 55.328125 
Q 8.5 64.0625 14.71875 69.140625 
Q 20.953125 74.21875 31.78125 74.21875 
Q 42.671875 74.21875 48.875 69.140625 
Q 55.078125 64.0625 55.078125 55.328125 
Q 55.078125 49.078125 51.53125 44.71875 
Q 48 40.375 41.703125 38.8125 
Q 48.828125 37.15625 52.796875 32.3125 
Q 56.78125 27.484375 56.78125 20.515625 
Q 56.78125 9.90625 50.3125 4.234375 
Q 43.84375 -1.421875 31.78125 -1.421875 
Q 19.734375 -1.421875 13.25 4.234375 
Q 6.78125 9.90625 6.78125 20.515625 
Q 6.78125 27.484375 10.78125 32.3125 
Q 14.796875 37.15625 21.921875 38.8125 
z
M 18.3125 54.390625 
Q 18.3125 48.734375 21.84375 45.5625 
Q 25.390625 42.390625 31.78125 42.390625 
Q 38.140625 42.390625 41.71875 45.5625 
Q 45.3125 48.734375 45.3125 54.390625 
Q 45.3125 60.0625 41.71875 63.234375 
Q 38.140625 66.40625 31.78125 66.40625 
Q 25.390625 66.40625 21.84375 63.234375 
Q 18.3125 60.0625 18.3125 54.390625 
z
" id="DejaVuSans-56"/>
     </defs>
     <use xlink:href="#DejaVuSans-56"/>
    </g>
   </g>
   <g id="text_23">
    <!-- 9 -->
    <g style="fill:#dcbeff;" transform="translate(162.248688 239.422126)scale(0.1 -0.1)">
     <use xlink:href="#DejaVuSans-57"/>
    </g>
   </g>
   <g id="text_24">
    <!-- 10 -->
    <g style="fill:#9a6324;" transform="translate(139.510041 243.071898)scale(0.1 -0.1)">
     <use xlink:href="#DejaVuSans-49"/>
     <use x="63.623047" xlink:href="#DejaVuSans-48"/>
    </g>
   </g>
   <g id="text_25">
    <!-- 11 -->
    <g style="fill:#b3a400;" transform="translate(152.794593 211.720208)scale(0.1 -0.1)">
     <use xlink:href="#DejaVuSans-49"/>
     <use x="63.623047" xlink:href="#DejaVuSans-49"/>
    </g>
   </g>
   <g id="text_26">
    <!-- 12 -->
    <g style="fill:#800000;" transform="translate(125.636574 281.987498)scale(0.1 -0.1)">
     <use xlink:href="#DejaVuSans-49"/>
     <use x="63.623047" xlink:href="#DejaVuSans-50"/>
    </g>
   </g>
   <g id="text_27">
    <!-- 13.0 -->
    <g style="fill:#82baff;" transform="translate(130.258962 306.935144)scale(0.1 -0.1)">
     <use xlink:href="#DejaVuSans-49"/>
     <use x="63.623047" xlink:href="#DejaVuSans-51"/>
     <use x="127.246094" xlink:href="#DejaVuSans-46"/>
     <use x="159.033203" xlink:href="#DejaVuSans-48"/>
    </g>
   </g>
   <g id="text_28">
    <!-- 13.1 -->
    <g style="fill:#808000;" transform="translate(142.416372 304.585046)scale(0.1 -0.1)">
     <use xlink:href="#DejaVuSans-49"/>
     <use x="63.623047" xlink:href="#DejaVuSans-51"/>
     <use x="127.246094" xlink:href="#DejaVuSans-46"/>
     <use x="159.033203" xlink:href="#DejaVuSans-49"/>
    </g>
   </g>
   <g id="text_29">
    <!-- 14 -->
    <g style="fill:#ffd8b1;" transform="translate(146.253402 242.691447)scale(0.1 -0.1)">
     <use xlink:href="#DejaVuSans-49"/>
     <use x="63.623047" xlink:href="#DejaVuSans-52"/>
    </g>
   </g>
   <g id="text_30">
    <!-- 15 -->
    <g style="fill:#0072b2;" transform="translate(151.957911 214.742165)scale(0.1 -0.1)">
     <use xlink:href="#DejaVuSans-49"/>
     <use x="63.623047" xlink:href="#DejaVuSans-53"/>
    </g>
   </g>
   <g id="text_31">
    <!-- 16 -->
    <g style="fill:#999999;" transform="translate(133.291865 209.606961)scale(0.1 -0.1)">
     <use xlink:href="#DejaVuSans-49"/>
     <use x="63.623047" xlink:href="#DejaVuSans-54"/>
    </g>
   </g>
   <g id="text_32">
    <!-- 17 -->
    <g style="fill:#e69f00;" transform="translate(149.528421 265.131709)scale(0.1 -0.1)">
     <use xlink:href="#DejaVuSans-49"/>
     <use x="63.623047" xlink:href="#DejaVuSans-55"/>
    </g>
   </g>
   <g id="text_33">
    <!-- 18 -->
    <g style="fill:#56b4e9;" transform="translate(148.947956 202.700142)scale(0.1 -0.1)">
     <use xlink:href="#DejaVuSans-49"/>
     <use x="63.623047" xlink:href="#DejaVuSans-56"/>
    </g>
   </g>
   <g id="text_34">
    <!-- 7.1 -->
    <g style="fill:#009e73;" transform="translate(147.696553 266.52376)scale(0.1 -0.1)">
     <use xlink:href="#DejaVuSans-55"/>
     <use x="63.623047" xlink:href="#DejaVuSans-46"/>
     <use x="95.410156" xlink:href="#DejaVuSans-49"/>
    </g>
   </g>
   <g id="text_35">
    <!-- 19.0 -->
    <g style="fill:#f0e442;" transform="translate(151.906067 256.207056)scale(0.1 -0.1)">
     <use xlink:href="#DejaVuSans-49"/>
     <use x="63.623047" xlink:href="#DejaVuSans-57"/>
     <use x="127.246094" xlink:href="#DejaVuSans-46"/>
     <use x="159.033203" xlink:href="#DejaVuSans-48"/>
    </g>
   </g>
   <g id="text_36">
    <!-- 3.1 -->
    <g style="fill:#0072b2;" transform="translate(160.962742 299.044141)scale(0.1 -0.1)">
     <use xlink:href="#DejaVuSans-51"/>
     <use x="63.623047" xlink:href="#DejaVuSans-46"/>
     <use x="95.410156" xlink:href="#DejaVuSans-49"/>
    </g>
   </g>
   <g id="text_37">
    <!-- 2.1 -->
    <g style="fill:#d55e00;" transform="translate(151.564837 290.413863)scale(0.1 -0.1)">
     <use xlink:href="#DejaVuSans-50"/>
     <use x="63.623047" xlink:href="#DejaVuSans-46"/>
     <use x="95.410156" xlink:href="#DejaVuSans-49"/>
    </g>
   </g>
   <g id="text_38">
    <!-- 1.1 -->
    <g style="fill:#cc79a7;" transform="translate(147.997897 264.782929)scale(0.1 -0.1)">
     <use xlink:href="#DejaVuSans-49"/>
     <use x="63.623047" xlink:href="#DejaVuSans-46"/>
     <use x="95.410156" xlink:href="#DejaVuSans-49"/>
    </g>
   </g>
   <g id="legend_1">
    <g id="patch_7">
     <path d="M 248.2 82.12 
L 252.2 82.12 
Q 254.2 82.12 254.2 80.12 
L 254.2 76.12 
Q 254.2 74.12 252.2 74.12 
L 248.2 74.12 
Q 246.2 74.12 246.2 76.12 
L 246.2 80.12 
Q 246.2 82.12 248.2 82.12 
z
" style="fill:#ffffff;opacity:0.8;stroke:#cccccc;stroke-linejoin:miter;"/>
    </g>
   </g>
  </g>
 </g>
 <defs>
  <clipPath id="p48d8cc19e0">
   <rect height="443.52" width="223.2" x="36" y="69.12"/>
  </clipPath>
 </defs>
</svg>
