<?xml version="1.0" encoding="utf-8" standalone="no"?>
<!DOCTYPE svg PUBLIC "-//W3C//DTD SVG 1.1//EN"
  "http://www.w3.org/Graphics/SVG/1.1/DTD/svg11.dtd">
<!-- Created with matplotlib (https://matplotlib.org/) -->
<svg height="576pt" version="1.1" viewBox="0 0 648 576" width="648pt" xmlns="http://www.w3.org/2000/svg" xmlns:xlink="http://www.w3.org/1999/xlink">
 <metadata>
  <rdf:RDF xmlns:cc="http://creativecommons.org/ns#" xmlns:dc="http://purl.org/dc/elements/1.1/" xmlns:rdf="http://www.w3.org/1999/02/22-rdf-syntax-ns#">
   <cc:Work>
    <dc:type rdf:resource="http://purl.org/dc/dcmitype/StillImage"/>
    <dc:date>2023-03-07T12:56:14.432842</dc:date>
    <dc:format>image/svg+xml</dc:format>
    <dc:creator>
     <cc:Agent>
      <dc:title>Matplotlib v3.3.4, https://matplotlib.org/</dc:title>
     </cc:Agent>
    </dc:creator>
   </cc:Work>
  </rdf:RDF>
 </metadata>
 <defs>
  <style type="text/css">*{stroke-linecap:butt;stroke-linejoin:round;}</style>
 </defs>
 <g id="figure_1">
  <g id="patch_1">
   <path d="M 0 576 
L 648 576 
L 648 0 
L 0 0 
z
" style="fill:#ffffff;"/>
  </g>
  <g id="axes_1">
   <g id="patch_2">
    <path d="M 81 512.64 
L 583.2 512.64 
L 583.2 69.12 
L 81 69.12 
z
" style="fill:#ffffff;"/>
   </g>
   <g id="PathCollection_1">
    <path clip-path="url(#pecbc95fbef)" d="M 560.372727 236.8815 
C 564.00417 236.8815 567.487368 235.438712 570.055186 232.870894 
C 572.623004 230.303076 574.065791 226.819879 574.065791 223.188436 
C 574.065791 219.556993 572.623004 216.073796 570.055186 213.505978 
C 567.487368 210.93816 564.00417 209.495372 560.372727 209.495372 
C 556.741284 209.495372 553.258087 210.93816 550.690269 213.505978 
C 548.122451 216.073796 546.679663 219.556993 546.679663 223.188436 
C 546.679663 226.819879 548.122451 230.303076 550.690269 232.870894 
C 553.258087 235.438712 556.741284 236.8815 560.372727 236.8815 
z
" style="fill:#e6194b;stroke:#e6194b;"/>
    <path clip-path="url(#pecbc95fbef)" d="M 239.11228 233.421256 
C 242.92097 233.421256 246.574178 231.908048 249.267328 229.214898 
C 251.960478 226.521747 253.473687 222.868539 253.473687 219.05985 
C 253.473687 215.25116 251.960478 211.597952 249.267328 208.904802 
C 246.574178 206.211651 242.92097 204.698443 239.11228 204.698443 
C 235.30359 204.698443 231.650382 206.211651 228.957232 208.904802 
C 226.264082 211.597952 224.750873 215.25116 224.750873 219.05985 
C 224.750873 222.868539 226.264082 226.521747 228.957232 229.214898 
C 231.650382 231.908048 235.30359 233.421256 239.11228 233.421256 
z
" style="fill:#3cb44b;stroke:#3cb44b;"/>
    <path clip-path="url(#pecbc95fbef)" d="M 103.827273 499.98 
C 105.816296 499.98 107.724122 499.189753 109.130574 497.783301 
C 110.537025 496.376849 111.327273 494.469023 111.327273 492.48 
C 111.327273 490.490977 110.537025 488.583151 109.130574 487.176699 
C 107.724122 485.770247 105.816296 484.98 103.827273 484.98 
C 101.838249 484.98 99.930424 485.770247 98.523972 487.176699 
C 97.11752 488.583151 96.327273 490.490977 96.327273 492.48 
C 96.327273 494.469023 97.11752 496.376849 98.523972 497.783301 
C 99.930424 499.189753 101.838249 499.98 103.827273 499.98 
z
" style="fill:#ffe119;stroke:#ffe119;"/>
    <path clip-path="url(#pecbc95fbef)" d="M 226.184426 203.897566 
C 228.752244 203.897566 231.215237 202.877361 233.030958 201.06164 
C 234.84668 199.245918 235.866884 196.782926 235.866884 194.215108 
C 235.866884 191.64729 234.84668 189.184297 233.030958 187.368576 
C 231.215237 185.552854 228.752244 184.53265 226.184426 184.53265 
C 223.616608 184.53265 221.153616 185.552854 219.337894 187.368576 
C 217.522173 189.184297 216.501968 191.64729 216.501968 194.215108 
C 216.501968 196.782926 217.522173 199.245918 219.337894 201.06164 
C 221.153616 202.877361 223.616608 203.897566 226.184426 203.897566 
z
" style="fill:#4363d8;stroke:#4363d8;"/>
    <path clip-path="url(#pecbc95fbef)" d="M 288.386609 236.946131 
C 291.831699 236.946131 295.13615 235.577382 297.572196 233.141336 
C 300.008242 230.70529 301.37699 227.400839 301.37699 223.95575 
C 301.37699 220.51066 300.008242 217.206209 297.572196 214.770163 
C 295.13615 212.334117 291.831699 210.965368 288.386609 210.965368 
C 284.94152 210.965368 281.637069 212.334117 279.201023 214.770163 
C 276.764977 217.206209 275.396228 220.51066 275.396228 223.95575 
C 275.396228 227.400839 276.764977 230.70529 279.201023 233.141336 
C 281.637069 235.577382 284.94152 236.946131 288.386609 236.946131 
z
" style="fill:#f58231;stroke:#f58231;"/>
    <path clip-path="url(#pecbc95fbef)" d="M 246.273479 186.436709 
C 250.413961 186.436709 254.385417 184.791678 257.31318 181.863915 
C 260.240943 178.936152 261.885974 174.964696 261.885974 170.824214 
C 261.885974 166.683732 260.240943 162.712276 257.31318 159.784513 
C 254.385417 156.85675 250.413961 155.211719 246.273479 155.211719 
C 242.132997 155.211719 238.16154 156.85675 235.233778 159.784513 
C 232.306015 162.712276 230.660984 166.683732 230.660984 170.824214 
C 230.660984 174.964696 232.306015 178.936152 235.233778 181.863915 
C 238.16154 184.791678 242.132997 186.436709 246.273479 186.436709 
z
" style="fill:#ba3fdf;stroke:#ba3fdf;"/>
    <path clip-path="url(#pecbc95fbef)" d="M 266.99322 183.333053 
C 271.290001 183.333053 275.411376 181.625923 278.449659 178.58764 
C 281.487942 175.549357 283.195071 171.427982 283.195071 167.131201 
C 283.195071 162.83442 281.487942 158.713045 278.449659 155.674762 
C 275.411376 152.636479 271.290001 150.929349 266.99322 150.929349 
C 262.696438 150.929349 258.575064 152.636479 255.53678 155.674762 
C 252.498497 158.713045 250.791368 162.83442 250.791368 167.131201 
C 250.791368 171.427982 252.498497 175.549357 255.53678 178.58764 
C 258.575064 181.625923 262.696438 183.333053 266.99322 183.333053 
z
" style="fill:#42d4f4;stroke:#42d4f4;"/>
    <path clip-path="url(#pecbc95fbef)" d="M 199.979585 156.049883 
C 201.968608 156.049883 203.876434 155.259636 205.282886 153.853184 
C 206.689337 152.446732 207.479585 150.538906 207.479585 148.549883 
C 207.479585 146.56086 206.689337 144.653034 205.282886 143.246582 
C 203.876434 141.84013 201.968608 141.049883 199.979585 141.049883 
C 197.990561 141.049883 196.082736 141.84013 194.676284 143.246582 
C 193.269832 144.653034 192.479585 146.56086 192.479585 148.549883 
C 192.479585 150.538906 193.269832 152.446732 194.676284 153.853184 
C 196.082736 155.259636 197.990561 156.049883 199.979585 156.049883 
z
" style="fill:#bfef45;stroke:#bfef45;"/>
    <path clip-path="url(#pecbc95fbef)" d="M 226.44225 153.825689 
C 228.431274 153.825689 230.339099 153.035441 231.745551 151.62899 
C 233.152003 150.222538 233.94225 148.314712 233.94225 146.325689 
C 233.94225 144.336665 233.152003 142.42884 231.745551 141.022388 
C 230.339099 139.615936 228.431274 138.825689 226.44225 138.825689 
C 224.453227 138.825689 222.545401 139.615936 221.13895 141.022388 
C 219.732498 142.42884 218.94225 144.336665 218.94225 146.325689 
C 218.94225 148.314712 219.732498 150.222538 221.13895 151.62899 
C 222.545401 153.035441 224.453227 153.825689 226.44225 153.825689 
z
" style="fill:#fabed4;stroke:#fabed4;"/>
    <path clip-path="url(#pecbc95fbef)" d="M 224.799451 196.599901 
C 228.608141 196.599901 232.261349 195.086693 234.954499 192.393543 
C 237.647649 189.700392 239.160858 186.047184 239.160858 182.238495 
C 239.160858 178.429805 237.647649 174.776597 234.954499 172.083447 
C 232.261349 169.390296 228.608141 167.877088 224.799451 167.877088 
C 220.990762 167.877088 217.337553 169.390296 214.644403 172.083447 
C 211.951253 174.776597 210.438045 178.429805 210.438045 182.238495 
C 210.438045 186.047184 211.951253 189.700392 214.644403 192.393543 
C 217.337553 195.086693 220.990762 196.599901 224.799451 196.599901 
z
" style="fill:#469990;stroke:#469990;"/>
    <path clip-path="url(#pecbc95fbef)" d="M 266.514577 177.450887 
C 269.55286 177.450887 272.467112 176.243764 274.615503 174.095374 
C 276.763894 171.946983 277.971016 169.032731 277.971016 165.994448 
C 277.971016 162.956164 276.763894 160.041912 274.615503 157.893522 
C 272.467112 155.745131 269.55286 154.538008 266.514577 154.538008 
C 263.476294 154.538008 260.562042 155.745131 258.413651 157.893522 
C 256.26526 160.041912 255.058138 162.956164 255.058138 165.994448 
C 255.058138 169.032731 256.26526 171.946983 258.413651 174.095374 
C 260.562042 176.243764 263.476294 177.450887 266.514577 177.450887 
z
" style="fill:#dcbeff;stroke:#dcbeff;"/>
    <path clip-path="url(#pecbc95fbef)" d="M 259.186114 162.292805 
C 262.224397 162.292805 265.138649 161.085683 267.287039 158.937292 
C 269.43543 156.788901 270.642553 153.874649 270.642553 150.836366 
C 270.642553 147.798083 269.43543 144.883831 267.287039 142.73544 
C 265.138649 140.58705 262.224397 139.379927 259.186114 139.379927 
C 256.14783 139.379927 253.233578 140.58705 251.085188 142.73544 
C 248.936797 144.883831 247.729674 147.798083 247.729674 150.836366 
C 247.729674 153.874649 248.936797 156.788901 251.085188 158.937292 
C 253.233578 161.085683 256.14783 162.292805 259.186114 162.292805 
z
" style="fill:#9a6324;stroke:#9a6324;"/>
    <path clip-path="url(#pecbc95fbef)" d="M 322.137916 141.627604 
C 325.583005 141.627604 328.887456 140.258856 331.323502 137.82281 
C 333.759548 135.386764 335.128297 132.082313 335.128297 128.637223 
C 335.128297 125.192134 333.759548 121.887683 331.323502 119.451637 
C 328.887456 117.015591 325.583005 115.646842 322.137916 115.646842 
C 318.692827 115.646842 315.388375 117.015591 312.952329 119.451637 
C 310.516283 121.887683 309.147535 125.192134 309.147535 128.637223 
C 309.147535 132.082313 310.516283 135.386764 312.952329 137.82281 
C 315.388375 140.258856 318.692827 141.627604 322.137916 141.627604 
z
" style="fill:#b3a400;stroke:#b3a400;"/>
    <path clip-path="url(#pecbc95fbef)" d="M 181.046554 247.718138 
C 183.614372 247.718138 186.077365 246.697933 187.893086 244.882212 
C 189.708808 243.06649 190.729013 240.603498 190.729013 238.03568 
C 190.729013 235.467862 189.708808 233.00487 187.893086 231.189148 
C 186.077365 229.373427 183.614372 228.353222 181.046554 228.353222 
C 178.478737 228.353222 176.015744 229.373427 174.200023 231.189148 
C 172.384301 233.00487 171.364096 235.467862 171.364096 238.03568 
C 171.364096 240.603498 172.384301 243.06649 174.200023 244.882212 
C 176.015744 246.697933 178.478737 247.718138 181.046554 247.718138 
z
" style="fill:#800000;stroke:#800000;"/>
    <path clip-path="url(#pecbc95fbef)" d="M 130.953583 309.404279 
C 132.577614 309.404279 134.135347 308.759045 135.28371 307.610681 
C 136.432073 306.462318 137.077307 304.904585 137.077307 303.280554 
C 137.077307 301.656524 136.432073 300.098791 135.28371 298.950427 
C 134.135347 297.802064 132.577614 297.15683 130.953583 297.15683 
C 129.329552 297.15683 127.771819 297.802064 126.623456 298.950427 
C 125.475093 300.098791 124.829859 301.656524 124.829859 303.280554 
C 124.829859 304.904585 125.475093 306.462318 126.623456 307.610681 
C 127.771819 308.759045 129.329552 309.404279 130.953583 309.404279 
z
" style="fill:#82baff;stroke:#82baff;"/>
    <path clip-path="url(#pecbc95fbef)" d="M 135.672402 421.293603 
C 137.969128 421.293603 140.172095 420.381104 141.796126 418.757073 
C 143.420157 417.133042 144.332656 414.930075 144.332656 412.633348 
C 144.332656 410.336622 143.420157 408.133655 141.796126 406.509624 
C 140.172095 404.885593 137.969128 403.973094 135.672402 403.973094 
C 133.375675 403.973094 131.172708 404.885593 129.548677 406.509624 
C 127.924647 408.133655 127.012148 410.336622 127.012148 412.633348 
C 127.012148 414.930075 127.924647 417.133042 129.548677 418.757073 
C 131.172708 420.381104 133.375675 421.293603 135.672402 421.293603 
z
" style="fill:#808000;stroke:#808000;"/>
    <path clip-path="url(#pecbc95fbef)" d="M 259.95003 185.761334 
C 263.198091 185.761334 266.313558 184.470865 268.610284 182.174139 
C 270.90701 179.877413 272.197478 176.761946 272.197478 173.513885 
C 272.197478 170.265824 270.90701 167.150357 268.610284 164.853631 
C 266.313558 162.556905 263.198091 161.266436 259.95003 161.266436 
C 256.701968 161.266436 253.586502 162.556905 251.289776 164.853631 
C 248.993049 167.150357 247.702581 170.265824 247.702581 173.513885 
C 247.702581 176.761946 248.993049 179.877413 251.289776 182.174139 
C 253.586502 184.470865 256.701968 185.761334 259.95003 185.761334 
z
" style="fill:#ffd8b1;stroke:#ffd8b1;"/>
    <path clip-path="url(#pecbc95fbef)" d="M 316.070056 218.775914 
C 319.878746 218.775914 323.531954 217.262705 326.225104 214.569555 
C 328.918255 211.876405 330.431463 208.223197 330.431463 204.414507 
C 330.431463 200.605818 328.918255 196.952609 326.225104 194.259459 
C 323.531954 191.566309 319.878746 190.053101 316.070056 190.053101 
C 312.261367 190.053101 308.608159 191.566309 305.915008 194.259459 
C 303.221858 196.952609 301.70865 200.605818 301.70865 204.414507 
C 301.70865 208.223197 303.221858 211.876405 305.915008 214.569555 
C 308.608159 217.262705 312.261367 218.775914 316.070056 218.775914 
z
" style="fill:#0072b2;stroke:#0072b2;"/>
    <path clip-path="url(#pecbc95fbef)" d="M 326.381156 155.267345 
C 329.419439 155.267345 332.333691 154.060222 334.482082 151.911832 
C 336.630472 149.763441 337.837595 146.849189 337.837595 143.810906 
C 337.837595 140.772623 336.630472 137.858371 334.482082 135.70998 
C 332.333691 133.561589 329.419439 132.354467 326.381156 132.354467 
C 323.342873 132.354467 320.428621 133.561589 318.28023 135.70998 
C 316.131839 137.858371 314.924717 140.772623 314.924717 143.810906 
C 314.924717 146.849189 316.131839 149.763441 318.28023 151.911832 
C 320.428621 154.060222 323.342873 155.267345 326.381156 155.267345 
z
" style="fill:#999999;stroke:#999999;"/>
    <path clip-path="url(#pecbc95fbef)" d="M 214.891695 219.785016 
C 217.704598 219.785016 220.402671 218.667437 222.391695 216.678414 
C 224.380718 214.689391 225.498296 211.991318 225.498296 209.178414 
C 225.498296 206.36551 224.380718 203.667437 222.391695 201.678414 
C 220.402671 199.689391 217.704598 198.571812 214.891695 198.571812 
C 212.078791 198.571812 209.380718 199.689391 207.391695 201.678414 
C 205.402671 203.667437 204.285093 206.36551 204.285093 209.178414 
C 204.285093 211.991318 205.402671 214.689391 207.391695 216.678414 
C 209.380718 218.667437 212.078791 219.785016 214.891695 219.785016 
z
" style="fill:#e69f00;stroke:#e69f00;"/>
    <path clip-path="url(#pecbc95fbef)" d="M 340.249522 368.735716 
C 343.880965 368.735716 347.364162 367.292928 349.93198 364.72511 
C 352.499798 362.157292 353.942586 358.674095 353.942586 355.042652 
C 353.942586 351.411209 352.499798 347.928012 349.93198 345.360194 
C 347.364162 342.792376 343.880965 341.349588 340.249522 341.349588 
C 336.618079 341.349588 333.134881 342.792376 330.567063 345.360194 
C 327.999245 347.928012 326.556458 351.411209 326.556458 355.042652 
C 326.556458 358.674095 327.999245 362.157292 330.567063 364.72511 
C 333.134881 367.292928 336.618079 368.735716 340.249522 368.735716 
z
" style="fill:#56b4e9;stroke:#56b4e9;"/>
    <path clip-path="url(#pecbc95fbef)" d="M 212.096562 95.403724 
C 213.720593 95.403724 215.278326 94.75849 216.426689 93.610127 
C 217.575052 92.461764 218.220287 90.904031 218.220287 89.28 
C 218.220287 87.655969 217.575052 86.098236 216.426689 84.949873 
C 215.278326 83.80151 213.720593 83.156276 212.096562 83.156276 
C 210.472532 83.156276 208.914798 83.80151 207.766435 84.949873 
C 206.618072 86.098236 205.972838 87.655969 205.972838 89.28 
C 205.972838 90.904031 206.618072 92.461764 207.766435 93.610127 
C 208.914798 94.75849 210.472532 95.403724 212.096562 95.403724 
z
" style="fill:#009e73;stroke:#009e73;"/>
    <path clip-path="url(#pecbc95fbef)" d="M 232.811717 104.533678 
C 234.80074 104.533678 236.708566 103.743431 238.115018 102.336979 
C 239.52147 100.930528 240.311717 99.022702 240.311717 97.033678 
C 240.311717 95.044655 239.52147 93.136829 238.115018 91.730378 
C 236.708566 90.323926 234.80074 89.533678 232.811717 89.533678 
C 230.822694 89.533678 228.914868 90.323926 227.508416 91.730378 
C 226.101964 93.136829 225.311717 95.044655 225.311717 97.033678 
C 225.311717 99.022702 226.101964 100.930528 227.508416 102.336979 
C 228.914868 103.743431 230.822694 104.533678 232.811717 104.533678 
z
" style="fill:#f0e442;stroke:#f0e442;"/>
    <path clip-path="url(#pecbc95fbef)" d="M 146.798116 241.691185 
C 148.422146 241.691185 149.97988 241.045951 151.128243 239.897587 
C 152.276606 238.749224 152.92184 237.191491 152.92184 235.56746 
C 152.92184 233.94343 152.276606 232.385697 151.128243 231.237333 
C 149.97988 230.08897 148.422146 229.443736 146.798116 229.443736 
C 145.174085 229.443736 143.616352 230.08897 142.467989 231.237333 
C 141.319626 232.385697 140.674391 233.94343 140.674391 235.56746 
C 140.674391 237.191491 141.319626 238.749224 142.467989 239.897587 
C 143.616352 241.045951 145.174085 241.691185 146.798116 241.691185 
z
" style="fill:#0072b2;stroke:#0072b2;"/>
    <path clip-path="url(#pecbc95fbef)" d="M 164.127056 397.057035 
C 166.694874 397.057035 169.157867 396.03683 170.973588 394.221109 
C 172.78931 392.405387 173.809515 389.942395 173.809515 387.374577 
C 173.809515 384.806759 172.78931 382.343766 170.973588 380.528045 
C 169.157867 378.712323 166.694874 377.692118 164.127056 377.692118 
C 161.559239 377.692118 159.096246 378.712323 157.280525 380.528045 
C 155.464803 382.343766 154.444598 384.806759 154.444598 387.374577 
C 154.444598 389.942395 155.464803 392.405387 157.280525 394.221109 
C 159.096246 396.03683 161.559239 397.057035 164.127056 397.057035 
z
" style="fill:#d55e00;stroke:#d55e00;"/>
    <path clip-path="url(#pecbc95fbef)" d="M 215.592017 151.685949 
C 217.216048 151.685949 218.773781 151.040715 219.922145 149.892352 
C 221.070508 148.743989 221.715742 147.186256 221.715742 145.562225 
C 221.715742 143.938194 221.070508 142.380461 219.922145 141.232098 
C 218.773781 140.083735 217.216048 139.438501 215.592017 139.438501 
C 213.967987 139.438501 212.410254 140.083735 211.26189 141.232098 
C 210.113527 142.380461 209.468293 143.938194 209.468293 145.562225 
C 209.468293 147.186256 210.113527 148.743989 211.26189 149.892352 
C 212.410254 151.040715 213.967987 151.685949 215.592017 151.685949 
z
" style="fill:#cc79a7;stroke:#cc79a7;"/>
   </g>
   <g id="matplotlib.axis_1">
    <g id="xtick_1">
     <g id="line2d_1">
      <defs>
       <path d="M 0 0 
L 0 3.5 
" id="m2a8ad2c64e" style="stroke:#000000;stroke-width:0.8;"/>
      </defs>
      <g>
       <use style="stroke:#000000;stroke-width:0.8;" x="117.715973" xlink:href="#m2a8ad2c64e" y="512.64"/>
      </g>
     </g>
     <g id="text_1">
      <!-- 0.5 -->
      <g transform="translate(109.764411 527.238438)scale(0.1 -0.1)">
       <defs>
        <path d="M 31.78125 66.40625 
Q 24.171875 66.40625 20.328125 58.90625 
Q 16.5 51.421875 16.5 36.375 
Q 16.5 21.390625 20.328125 13.890625 
Q 24.171875 6.390625 31.78125 6.390625 
Q 39.453125 6.390625 43.28125 13.890625 
Q 47.125 21.390625 47.125 36.375 
Q 47.125 51.421875 43.28125 58.90625 
Q 39.453125 66.40625 31.78125 66.40625 
z
M 31.78125 74.21875 
Q 44.046875 74.21875 50.515625 64.515625 
Q 56.984375 54.828125 56.984375 36.375 
Q 56.984375 17.96875 50.515625 8.265625 
Q 44.046875 -1.421875 31.78125 -1.421875 
Q 19.53125 -1.421875 13.0625 8.265625 
Q 6.59375 17.96875 6.59375 36.375 
Q 6.59375 54.828125 13.0625 64.515625 
Q 19.53125 74.21875 31.78125 74.21875 
z
" id="DejaVuSans-48"/>
        <path d="M 10.6875 12.40625 
L 21 12.40625 
L 21 0 
L 10.6875 0 
z
" id="DejaVuSans-46"/>
        <path d="M 10.796875 72.90625 
L 49.515625 72.90625 
L 49.515625 64.59375 
L 19.828125 64.59375 
L 19.828125 46.734375 
Q 21.96875 47.46875 24.109375 47.828125 
Q 26.265625 48.1875 28.421875 48.1875 
Q 40.625 48.1875 47.75 41.5 
Q 54.890625 34.8125 54.890625 23.390625 
Q 54.890625 11.625 47.5625 5.09375 
Q 40.234375 -1.421875 26.90625 -1.421875 
Q 22.3125 -1.421875 17.546875 -0.640625 
Q 12.796875 0.140625 7.71875 1.703125 
L 7.71875 11.625 
Q 12.109375 9.234375 16.796875 8.0625 
Q 21.484375 6.890625 26.703125 6.890625 
Q 35.15625 6.890625 40.078125 11.328125 
Q 45.015625 15.765625 45.015625 23.390625 
Q 45.015625 31 40.078125 35.4375 
Q 35.15625 39.890625 26.703125 39.890625 
Q 22.75 39.890625 18.8125 39.015625 
Q 14.890625 38.140625 10.796875 36.28125 
z
" id="DejaVuSans-53"/>
       </defs>
       <use xlink:href="#DejaVuSans-48"/>
       <use x="63.623047" xlink:href="#DejaVuSans-46"/>
       <use x="95.410156" xlink:href="#DejaVuSans-53"/>
      </g>
     </g>
    </g>
    <g id="xtick_2">
     <g id="line2d_2">
      <g>
       <use style="stroke:#000000;stroke-width:0.8;" x="212.455797" xlink:href="#m2a8ad2c64e" y="512.64"/>
      </g>
     </g>
     <g id="text_2">
      <!-- 1.0 -->
      <g transform="translate(204.504235 527.238438)scale(0.1 -0.1)">
       <defs>
        <path d="M 12.40625 8.296875 
L 28.515625 8.296875 
L 28.515625 63.921875 
L 10.984375 60.40625 
L 10.984375 69.390625 
L 28.421875 72.90625 
L 38.28125 72.90625 
L 38.28125 8.296875 
L 54.390625 8.296875 
L 54.390625 0 
L 12.40625 0 
z
" id="DejaVuSans-49"/>
       </defs>
       <use xlink:href="#DejaVuSans-49"/>
       <use x="63.623047" xlink:href="#DejaVuSans-46"/>
       <use x="95.410156" xlink:href="#DejaVuSans-48"/>
      </g>
     </g>
    </g>
    <g id="xtick_3">
     <g id="line2d_3">
      <g>
       <use style="stroke:#000000;stroke-width:0.8;" x="307.195622" xlink:href="#m2a8ad2c64e" y="512.64"/>
      </g>
     </g>
     <g id="text_3">
      <!-- 1.5 -->
      <g transform="translate(299.244059 527.238438)scale(0.1 -0.1)">
       <use xlink:href="#DejaVuSans-49"/>
       <use x="63.623047" xlink:href="#DejaVuSans-46"/>
       <use x="95.410156" xlink:href="#DejaVuSans-53"/>
      </g>
     </g>
    </g>
    <g id="xtick_4">
     <g id="line2d_4">
      <g>
       <use style="stroke:#000000;stroke-width:0.8;" x="401.935446" xlink:href="#m2a8ad2c64e" y="512.64"/>
      </g>
     </g>
     <g id="text_4">
      <!-- 2.0 -->
      <g transform="translate(393.983883 527.238438)scale(0.1 -0.1)">
       <defs>
        <path d="M 19.1875 8.296875 
L 53.609375 8.296875 
L 53.609375 0 
L 7.328125 0 
L 7.328125 8.296875 
Q 12.9375 14.109375 22.625 23.890625 
Q 32.328125 33.6875 34.8125 36.53125 
Q 39.546875 41.84375 41.421875 45.53125 
Q 43.3125 49.21875 43.3125 52.78125 
Q 43.3125 58.59375 39.234375 62.25 
Q 35.15625 65.921875 28.609375 65.921875 
Q 23.96875 65.921875 18.8125 64.3125 
Q 13.671875 62.703125 7.8125 59.421875 
L 7.8125 69.390625 
Q 13.765625 71.78125 18.9375 73 
Q 24.125 74.21875 28.421875 74.21875 
Q 39.75 74.21875 46.484375 68.546875 
Q 53.21875 62.890625 53.21875 53.421875 
Q 53.21875 48.921875 51.53125 44.890625 
Q 49.859375 40.875 45.40625 35.40625 
Q 44.1875 33.984375 37.640625 27.21875 
Q 31.109375 20.453125 19.1875 8.296875 
z
" id="DejaVuSans-50"/>
       </defs>
       <use xlink:href="#DejaVuSans-50"/>
       <use x="63.623047" xlink:href="#DejaVuSans-46"/>
       <use x="95.410156" xlink:href="#DejaVuSans-48"/>
      </g>
     </g>
    </g>
    <g id="xtick_5">
     <g id="line2d_5">
      <g>
       <use style="stroke:#000000;stroke-width:0.8;" x="496.67527" xlink:href="#m2a8ad2c64e" y="512.64"/>
      </g>
     </g>
     <g id="text_5">
      <!-- 2.5 -->
      <g transform="translate(488.723707 527.238438)scale(0.1 -0.1)">
       <use xlink:href="#DejaVuSans-50"/>
       <use x="63.623047" xlink:href="#DejaVuSans-46"/>
       <use x="95.410156" xlink:href="#DejaVuSans-53"/>
      </g>
     </g>
    </g>
    <g id="text_6">
     <!-- Log Odd Tree Mean Pairwise Distance -->
     <g transform="translate(238.582031 540.916563)scale(0.1 -0.1)">
      <defs>
       <path d="M 9.8125 72.90625 
L 19.671875 72.90625 
L 19.671875 8.296875 
L 55.171875 8.296875 
L 55.171875 0 
L 9.8125 0 
z
" id="DejaVuSans-76"/>
       <path d="M 30.609375 48.390625 
Q 23.390625 48.390625 19.1875 42.75 
Q 14.984375 37.109375 14.984375 27.296875 
Q 14.984375 17.484375 19.15625 11.84375 
Q 23.34375 6.203125 30.609375 6.203125 
Q 37.796875 6.203125 41.984375 11.859375 
Q 46.1875 17.53125 46.1875 27.296875 
Q 46.1875 37.015625 41.984375 42.703125 
Q 37.796875 48.390625 30.609375 48.390625 
z
M 30.609375 56 
Q 42.328125 56 49.015625 48.375 
Q 55.71875 40.765625 55.71875 27.296875 
Q 55.71875 13.875 49.015625 6.21875 
Q 42.328125 -1.421875 30.609375 -1.421875 
Q 18.84375 -1.421875 12.171875 6.21875 
Q 5.515625 13.875 5.515625 27.296875 
Q 5.515625 40.765625 12.171875 48.375 
Q 18.84375 56 30.609375 56 
z
" id="DejaVuSans-111"/>
       <path d="M 45.40625 27.984375 
Q 45.40625 37.75 41.375 43.109375 
Q 37.359375 48.484375 30.078125 48.484375 
Q 22.859375 48.484375 18.828125 43.109375 
Q 14.796875 37.75 14.796875 27.984375 
Q 14.796875 18.265625 18.828125 12.890625 
Q 22.859375 7.515625 30.078125 7.515625 
Q 37.359375 7.515625 41.375 12.890625 
Q 45.40625 18.265625 45.40625 27.984375 
z
M 54.390625 6.78125 
Q 54.390625 -7.171875 48.1875 -13.984375 
Q 42 -20.796875 29.203125 -20.796875 
Q 24.46875 -20.796875 20.265625 -20.09375 
Q 16.0625 -19.390625 12.109375 -17.921875 
L 12.109375 -9.1875 
Q 16.0625 -11.328125 19.921875 -12.34375 
Q 23.78125 -13.375 27.78125 -13.375 
Q 36.625 -13.375 41.015625 -8.765625 
Q 45.40625 -4.15625 45.40625 5.171875 
L 45.40625 9.625 
Q 42.625 4.78125 38.28125 2.390625 
Q 33.9375 0 27.875 0 
Q 17.828125 0 11.671875 7.65625 
Q 5.515625 15.328125 5.515625 27.984375 
Q 5.515625 40.671875 11.671875 48.328125 
Q 17.828125 56 27.875 56 
Q 33.9375 56 38.28125 53.609375 
Q 42.625 51.21875 45.40625 46.390625 
L 45.40625 54.6875 
L 54.390625 54.6875 
z
" id="DejaVuSans-103"/>
       <path id="DejaVuSans-32"/>
       <path d="M 39.40625 66.21875 
Q 28.65625 66.21875 22.328125 58.203125 
Q 16.015625 50.203125 16.015625 36.375 
Q 16.015625 22.609375 22.328125 14.59375 
Q 28.65625 6.59375 39.40625 6.59375 
Q 50.140625 6.59375 56.421875 14.59375 
Q 62.703125 22.609375 62.703125 36.375 
Q 62.703125 50.203125 56.421875 58.203125 
Q 50.140625 66.21875 39.40625 66.21875 
z
M 39.40625 74.21875 
Q 54.734375 74.21875 63.90625 63.9375 
Q 73.09375 53.65625 73.09375 36.375 
Q 73.09375 19.140625 63.90625 8.859375 
Q 54.734375 -1.421875 39.40625 -1.421875 
Q 24.03125 -1.421875 14.8125 8.828125 
Q 5.609375 19.09375 5.609375 36.375 
Q 5.609375 53.65625 14.8125 63.9375 
Q 24.03125 74.21875 39.40625 74.21875 
z
" id="DejaVuSans-79"/>
       <path d="M 45.40625 46.390625 
L 45.40625 75.984375 
L 54.390625 75.984375 
L 54.390625 0 
L 45.40625 0 
L 45.40625 8.203125 
Q 42.578125 3.328125 38.25 0.953125 
Q 33.9375 -1.421875 27.875 -1.421875 
Q 17.96875 -1.421875 11.734375 6.484375 
Q 5.515625 14.40625 5.515625 27.296875 
Q 5.515625 40.1875 11.734375 48.09375 
Q 17.96875 56 27.875 56 
Q 33.9375 56 38.25 53.625 
Q 42.578125 51.265625 45.40625 46.390625 
z
M 14.796875 27.296875 
Q 14.796875 17.390625 18.875 11.75 
Q 22.953125 6.109375 30.078125 6.109375 
Q 37.203125 6.109375 41.296875 11.75 
Q 45.40625 17.390625 45.40625 27.296875 
Q 45.40625 37.203125 41.296875 42.84375 
Q 37.203125 48.484375 30.078125 48.484375 
Q 22.953125 48.484375 18.875 42.84375 
Q 14.796875 37.203125 14.796875 27.296875 
z
" id="DejaVuSans-100"/>
       <path d="M -0.296875 72.90625 
L 61.375 72.90625 
L 61.375 64.59375 
L 35.5 64.59375 
L 35.5 0 
L 25.59375 0 
L 25.59375 64.59375 
L -0.296875 64.59375 
z
" id="DejaVuSans-84"/>
       <path d="M 41.109375 46.296875 
Q 39.59375 47.171875 37.8125 47.578125 
Q 36.03125 48 33.890625 48 
Q 26.265625 48 22.1875 43.046875 
Q 18.109375 38.09375 18.109375 28.8125 
L 18.109375 0 
L 9.078125 0 
L 9.078125 54.6875 
L 18.109375 54.6875 
L 18.109375 46.1875 
Q 20.953125 51.171875 25.484375 53.578125 
Q 30.03125 56 36.53125 56 
Q 37.453125 56 38.578125 55.875 
Q 39.703125 55.765625 41.0625 55.515625 
z
" id="DejaVuSans-114"/>
       <path d="M 56.203125 29.59375 
L 56.203125 25.203125 
L 14.890625 25.203125 
Q 15.484375 15.921875 20.484375 11.0625 
Q 25.484375 6.203125 34.421875 6.203125 
Q 39.59375 6.203125 44.453125 7.46875 
Q 49.3125 8.734375 54.109375 11.28125 
L 54.109375 2.78125 
Q 49.265625 0.734375 44.1875 -0.34375 
Q 39.109375 -1.421875 33.890625 -1.421875 
Q 20.796875 -1.421875 13.15625 6.1875 
Q 5.515625 13.8125 5.515625 26.8125 
Q 5.515625 40.234375 12.765625 48.109375 
Q 20.015625 56 32.328125 56 
Q 43.359375 56 49.78125 48.890625 
Q 56.203125 41.796875 56.203125 29.59375 
z
M 47.21875 32.234375 
Q 47.125 39.59375 43.09375 43.984375 
Q 39.0625 48.390625 32.421875 48.390625 
Q 24.90625 48.390625 20.390625 44.140625 
Q 15.875 39.890625 15.1875 32.171875 
z
" id="DejaVuSans-101"/>
       <path d="M 9.8125 72.90625 
L 24.515625 72.90625 
L 43.109375 23.296875 
L 61.8125 72.90625 
L 76.515625 72.90625 
L 76.515625 0 
L 66.890625 0 
L 66.890625 64.015625 
L 48.09375 14.015625 
L 38.1875 14.015625 
L 19.390625 64.015625 
L 19.390625 0 
L 9.8125 0 
z
" id="DejaVuSans-77"/>
       <path d="M 34.28125 27.484375 
Q 23.390625 27.484375 19.1875 25 
Q 14.984375 22.515625 14.984375 16.5 
Q 14.984375 11.71875 18.140625 8.90625 
Q 21.296875 6.109375 26.703125 6.109375 
Q 34.1875 6.109375 38.703125 11.40625 
Q 43.21875 16.703125 43.21875 25.484375 
L 43.21875 27.484375 
z
M 52.203125 31.203125 
L 52.203125 0 
L 43.21875 0 
L 43.21875 8.296875 
Q 40.140625 3.328125 35.546875 0.953125 
Q 30.953125 -1.421875 24.3125 -1.421875 
Q 15.921875 -1.421875 10.953125 3.296875 
Q 6 8.015625 6 15.921875 
Q 6 25.140625 12.171875 29.828125 
Q 18.359375 34.515625 30.609375 34.515625 
L 43.21875 34.515625 
L 43.21875 35.40625 
Q 43.21875 41.609375 39.140625 45 
Q 35.0625 48.390625 27.6875 48.390625 
Q 23 48.390625 18.546875 47.265625 
Q 14.109375 46.140625 10.015625 43.890625 
L 10.015625 52.203125 
Q 14.9375 54.109375 19.578125 55.046875 
Q 24.21875 56 28.609375 56 
Q 40.484375 56 46.34375 49.84375 
Q 52.203125 43.703125 52.203125 31.203125 
z
" id="DejaVuSans-97"/>
       <path d="M 54.890625 33.015625 
L 54.890625 0 
L 45.90625 0 
L 45.90625 32.71875 
Q 45.90625 40.484375 42.875 44.328125 
Q 39.84375 48.1875 33.796875 48.1875 
Q 26.515625 48.1875 22.3125 43.546875 
Q 18.109375 38.921875 18.109375 30.90625 
L 18.109375 0 
L 9.078125 0 
L 9.078125 54.6875 
L 18.109375 54.6875 
L 18.109375 46.1875 
Q 21.34375 51.125 25.703125 53.5625 
Q 30.078125 56 35.796875 56 
Q 45.21875 56 50.046875 50.171875 
Q 54.890625 44.34375 54.890625 33.015625 
z
" id="DejaVuSans-110"/>
       <path d="M 19.671875 64.796875 
L 19.671875 37.40625 
L 32.078125 37.40625 
Q 38.96875 37.40625 42.71875 40.96875 
Q 46.484375 44.53125 46.484375 51.125 
Q 46.484375 57.671875 42.71875 61.234375 
Q 38.96875 64.796875 32.078125 64.796875 
z
M 9.8125 72.90625 
L 32.078125 72.90625 
Q 44.34375 72.90625 50.609375 67.359375 
Q 56.890625 61.8125 56.890625 51.125 
Q 56.890625 40.328125 50.609375 34.8125 
Q 44.34375 29.296875 32.078125 29.296875 
L 19.671875 29.296875 
L 19.671875 0 
L 9.8125 0 
z
" id="DejaVuSans-80"/>
       <path d="M 9.421875 54.6875 
L 18.40625 54.6875 
L 18.40625 0 
L 9.421875 0 
z
M 9.421875 75.984375 
L 18.40625 75.984375 
L 18.40625 64.59375 
L 9.421875 64.59375 
z
" id="DejaVuSans-105"/>
       <path d="M 4.203125 54.6875 
L 13.1875 54.6875 
L 24.421875 12.015625 
L 35.59375 54.6875 
L 46.1875 54.6875 
L 57.421875 12.015625 
L 68.609375 54.6875 
L 77.59375 54.6875 
L 63.28125 0 
L 52.6875 0 
L 40.921875 44.828125 
L 29.109375 0 
L 18.5 0 
z
" id="DejaVuSans-119"/>
       <path d="M 44.28125 53.078125 
L 44.28125 44.578125 
Q 40.484375 46.53125 36.375 47.5 
Q 32.28125 48.484375 27.875 48.484375 
Q 21.1875 48.484375 17.84375 46.4375 
Q 14.5 44.390625 14.5 40.28125 
Q 14.5 37.15625 16.890625 35.375 
Q 19.28125 33.59375 26.515625 31.984375 
L 29.59375 31.296875 
Q 39.15625 29.25 43.1875 25.515625 
Q 47.21875 21.78125 47.21875 15.09375 
Q 47.21875 7.46875 41.1875 3.015625 
Q 35.15625 -1.421875 24.609375 -1.421875 
Q 20.21875 -1.421875 15.453125 -0.5625 
Q 10.6875 0.296875 5.421875 2 
L 5.421875 11.28125 
Q 10.40625 8.6875 15.234375 7.390625 
Q 20.0625 6.109375 24.8125 6.109375 
Q 31.15625 6.109375 34.5625 8.28125 
Q 37.984375 10.453125 37.984375 14.40625 
Q 37.984375 18.0625 35.515625 20.015625 
Q 33.0625 21.96875 24.703125 23.78125 
L 21.578125 24.515625 
Q 13.234375 26.265625 9.515625 29.90625 
Q 5.8125 33.546875 5.8125 39.890625 
Q 5.8125 47.609375 11.28125 51.796875 
Q 16.75 56 26.8125 56 
Q 31.78125 56 36.171875 55.265625 
Q 40.578125 54.546875 44.28125 53.078125 
z
" id="DejaVuSans-115"/>
       <path d="M 19.671875 64.796875 
L 19.671875 8.109375 
L 31.59375 8.109375 
Q 46.6875 8.109375 53.6875 14.9375 
Q 60.6875 21.78125 60.6875 36.53125 
Q 60.6875 51.171875 53.6875 57.984375 
Q 46.6875 64.796875 31.59375 64.796875 
z
M 9.8125 72.90625 
L 30.078125 72.90625 
Q 51.265625 72.90625 61.171875 64.09375 
Q 71.09375 55.28125 71.09375 36.53125 
Q 71.09375 17.671875 61.125 8.828125 
Q 51.171875 0 30.078125 0 
L 9.8125 0 
z
" id="DejaVuSans-68"/>
       <path d="M 18.3125 70.21875 
L 18.3125 54.6875 
L 36.8125 54.6875 
L 36.8125 47.703125 
L 18.3125 47.703125 
L 18.3125 18.015625 
Q 18.3125 11.328125 20.140625 9.421875 
Q 21.96875 7.515625 27.59375 7.515625 
L 36.8125 7.515625 
L 36.8125 0 
L 27.59375 0 
Q 17.1875 0 13.234375 3.875 
Q 9.28125 7.765625 9.28125 18.015625 
L 9.28125 47.703125 
L 2.6875 47.703125 
L 2.6875 54.6875 
L 9.28125 54.6875 
L 9.28125 70.21875 
z
" id="DejaVuSans-116"/>
       <path d="M 48.78125 52.59375 
L 48.78125 44.1875 
Q 44.96875 46.296875 41.140625 47.34375 
Q 37.3125 48.390625 33.40625 48.390625 
Q 24.65625 48.390625 19.8125 42.84375 
Q 14.984375 37.3125 14.984375 27.296875 
Q 14.984375 17.28125 19.8125 11.734375 
Q 24.65625 6.203125 33.40625 6.203125 
Q 37.3125 6.203125 41.140625 7.25 
Q 44.96875 8.296875 48.78125 10.40625 
L 48.78125 2.09375 
Q 45.015625 0.34375 40.984375 -0.53125 
Q 36.96875 -1.421875 32.421875 -1.421875 
Q 20.0625 -1.421875 12.78125 6.34375 
Q 5.515625 14.109375 5.515625 27.296875 
Q 5.515625 40.671875 12.859375 48.328125 
Q 20.21875 56 33.015625 56 
Q 37.15625 56 41.109375 55.140625 
Q 45.0625 54.296875 48.78125 52.59375 
z
" id="DejaVuSans-99"/>
      </defs>
      <use xlink:href="#DejaVuSans-76"/>
      <use x="53.962891" xlink:href="#DejaVuSans-111"/>
      <use x="115.144531" xlink:href="#DejaVuSans-103"/>
      <use x="178.621094" xlink:href="#DejaVuSans-32"/>
      <use x="210.408203" xlink:href="#DejaVuSans-79"/>
      <use x="289.119141" xlink:href="#DejaVuSans-100"/>
      <use x="352.595703" xlink:href="#DejaVuSans-100"/>
      <use x="416.072266" xlink:href="#DejaVuSans-32"/>
      <use x="447.859375" xlink:href="#DejaVuSans-84"/>
      <use x="494.193359" xlink:href="#DejaVuSans-114"/>
      <use x="533.056641" xlink:href="#DejaVuSans-101"/>
      <use x="594.580078" xlink:href="#DejaVuSans-101"/>
      <use x="656.103516" xlink:href="#DejaVuSans-32"/>
      <use x="687.890625" xlink:href="#DejaVuSans-77"/>
      <use x="774.169922" xlink:href="#DejaVuSans-101"/>
      <use x="835.693359" xlink:href="#DejaVuSans-97"/>
      <use x="896.972656" xlink:href="#DejaVuSans-110"/>
      <use x="960.351562" xlink:href="#DejaVuSans-32"/>
      <use x="992.138672" xlink:href="#DejaVuSans-80"/>
      <use x="1047.941406" xlink:href="#DejaVuSans-97"/>
      <use x="1109.220703" xlink:href="#DejaVuSans-105"/>
      <use x="1137.003906" xlink:href="#DejaVuSans-114"/>
      <use x="1178.117188" xlink:href="#DejaVuSans-119"/>
      <use x="1259.904297" xlink:href="#DejaVuSans-105"/>
      <use x="1287.6875" xlink:href="#DejaVuSans-115"/>
      <use x="1339.787109" xlink:href="#DejaVuSans-101"/>
      <use x="1401.310547" xlink:href="#DejaVuSans-32"/>
      <use x="1433.097656" xlink:href="#DejaVuSans-68"/>
      <use x="1510.099609" xlink:href="#DejaVuSans-105"/>
      <use x="1537.882812" xlink:href="#DejaVuSans-115"/>
      <use x="1589.982422" xlink:href="#DejaVuSans-116"/>
      <use x="1629.191406" xlink:href="#DejaVuSans-97"/>
      <use x="1690.470703" xlink:href="#DejaVuSans-110"/>
      <use x="1753.849609" xlink:href="#DejaVuSans-99"/>
      <use x="1808.830078" xlink:href="#DejaVuSans-101"/>
     </g>
    </g>
   </g>
   <g id="matplotlib.axis_2">
    <g id="ytick_1">
     <g id="line2d_6">
      <defs>
       <path d="M 0 0 
L -3.5 0 
" id="m125e52673c" style="stroke:#000000;stroke-width:0.8;"/>
      </defs>
      <g>
       <use style="stroke:#000000;stroke-width:0.8;" x="81" xlink:href="#m125e52673c" y="477.593665"/>
      </g>
     </g>
     <g id="text_7">
      <!-- −0.25 -->
      <g transform="translate(43.354687 481.392884)scale(0.1 -0.1)">
       <defs>
        <path d="M 10.59375 35.5 
L 73.1875 35.5 
L 73.1875 27.203125 
L 10.59375 27.203125 
z
" id="DejaVuSans-8722"/>
       </defs>
       <use xlink:href="#DejaVuSans-8722"/>
       <use x="83.789062" xlink:href="#DejaVuSans-48"/>
       <use x="147.412109" xlink:href="#DejaVuSans-46"/>
       <use x="179.199219" xlink:href="#DejaVuSans-50"/>
       <use x="242.822266" xlink:href="#DejaVuSans-53"/>
      </g>
     </g>
    </g>
    <g id="ytick_2">
     <g id="line2d_7">
      <g>
       <use style="stroke:#000000;stroke-width:0.8;" x="81" xlink:href="#m125e52673c" y="400.989358"/>
      </g>
     </g>
     <g id="text_8">
      <!-- −0.20 -->
      <g transform="translate(43.354687 404.788577)scale(0.1 -0.1)">
       <use xlink:href="#DejaVuSans-8722"/>
       <use x="83.789062" xlink:href="#DejaVuSans-48"/>
       <use x="147.412109" xlink:href="#DejaVuSans-46"/>
       <use x="179.199219" xlink:href="#DejaVuSans-50"/>
       <use x="242.822266" xlink:href="#DejaVuSans-48"/>
      </g>
     </g>
    </g>
    <g id="ytick_3">
     <g id="line2d_8">
      <g>
       <use style="stroke:#000000;stroke-width:0.8;" x="81" xlink:href="#m125e52673c" y="324.385051"/>
      </g>
     </g>
     <g id="text_9">
      <!-- −0.15 -->
      <g transform="translate(43.354687 328.18427)scale(0.1 -0.1)">
       <use xlink:href="#DejaVuSans-8722"/>
       <use x="83.789062" xlink:href="#DejaVuSans-48"/>
       <use x="147.412109" xlink:href="#DejaVuSans-46"/>
       <use x="179.199219" xlink:href="#DejaVuSans-49"/>
       <use x="242.822266" xlink:href="#DejaVuSans-53"/>
      </g>
     </g>
    </g>
    <g id="ytick_4">
     <g id="line2d_9">
      <g>
       <use style="stroke:#000000;stroke-width:0.8;" x="81" xlink:href="#m125e52673c" y="247.780744"/>
      </g>
     </g>
     <g id="text_10">
      <!-- −0.10 -->
      <g transform="translate(43.354687 251.579963)scale(0.1 -0.1)">
       <use xlink:href="#DejaVuSans-8722"/>
       <use x="83.789062" xlink:href="#DejaVuSans-48"/>
       <use x="147.412109" xlink:href="#DejaVuSans-46"/>
       <use x="179.199219" xlink:href="#DejaVuSans-49"/>
       <use x="242.822266" xlink:href="#DejaVuSans-48"/>
      </g>
     </g>
    </g>
    <g id="ytick_5">
     <g id="line2d_10">
      <g>
       <use style="stroke:#000000;stroke-width:0.8;" x="81" xlink:href="#m125e52673c" y="171.176437"/>
      </g>
     </g>
     <g id="text_11">
      <!-- −0.05 -->
      <g transform="translate(43.354687 174.975656)scale(0.1 -0.1)">
       <use xlink:href="#DejaVuSans-8722"/>
       <use x="83.789062" xlink:href="#DejaVuSans-48"/>
       <use x="147.412109" xlink:href="#DejaVuSans-46"/>
       <use x="179.199219" xlink:href="#DejaVuSans-48"/>
       <use x="242.822266" xlink:href="#DejaVuSans-53"/>
      </g>
     </g>
    </g>
    <g id="ytick_6">
     <g id="line2d_11">
      <g>
       <use style="stroke:#000000;stroke-width:0.8;" x="81" xlink:href="#m125e52673c" y="94.57213"/>
      </g>
     </g>
     <g id="text_12">
      <!-- 0.00 -->
      <g transform="translate(51.734375 98.371349)scale(0.1 -0.1)">
       <use xlink:href="#DejaVuSans-48"/>
       <use x="63.623047" xlink:href="#DejaVuSans-46"/>
       <use x="95.410156" xlink:href="#DejaVuSans-48"/>
       <use x="159.033203" xlink:href="#DejaVuSans-48"/>
      </g>
     </g>
    </g>
    <g id="text_13">
     <!-- Log Odd Parent Mean Pairwise Distance -->
     <g transform="translate(37.275 389.987813)rotate(-90)scale(0.1 -0.1)">
      <use xlink:href="#DejaVuSans-76"/>
      <use x="53.962891" xlink:href="#DejaVuSans-111"/>
      <use x="115.144531" xlink:href="#DejaVuSans-103"/>
      <use x="178.621094" xlink:href="#DejaVuSans-32"/>
      <use x="210.408203" xlink:href="#DejaVuSans-79"/>
      <use x="289.119141" xlink:href="#DejaVuSans-100"/>
      <use x="352.595703" xlink:href="#DejaVuSans-100"/>
      <use x="416.072266" xlink:href="#DejaVuSans-32"/>
      <use x="447.859375" xlink:href="#DejaVuSans-80"/>
      <use x="503.662109" xlink:href="#DejaVuSans-97"/>
      <use x="564.941406" xlink:href="#DejaVuSans-114"/>
      <use x="603.804688" xlink:href="#DejaVuSans-101"/>
      <use x="665.328125" xlink:href="#DejaVuSans-110"/>
      <use x="728.707031" xlink:href="#DejaVuSans-116"/>
      <use x="767.916016" xlink:href="#DejaVuSans-32"/>
      <use x="799.703125" xlink:href="#DejaVuSans-77"/>
      <use x="885.982422" xlink:href="#DejaVuSans-101"/>
      <use x="947.505859" xlink:href="#DejaVuSans-97"/>
      <use x="1008.785156" xlink:href="#DejaVuSans-110"/>
      <use x="1072.164062" xlink:href="#DejaVuSans-32"/>
      <use x="1103.951172" xlink:href="#DejaVuSans-80"/>
      <use x="1159.753906" xlink:href="#DejaVuSans-97"/>
      <use x="1221.033203" xlink:href="#DejaVuSans-105"/>
      <use x="1248.816406" xlink:href="#DejaVuSans-114"/>
      <use x="1289.929688" xlink:href="#DejaVuSans-119"/>
      <use x="1371.716797" xlink:href="#DejaVuSans-105"/>
      <use x="1399.5" xlink:href="#DejaVuSans-115"/>
      <use x="1451.599609" xlink:href="#DejaVuSans-101"/>
      <use x="1513.123047" xlink:href="#DejaVuSans-32"/>
      <use x="1544.910156" xlink:href="#DejaVuSans-68"/>
      <use x="1621.912109" xlink:href="#DejaVuSans-105"/>
      <use x="1649.695312" xlink:href="#DejaVuSans-115"/>
      <use x="1701.794922" xlink:href="#DejaVuSans-116"/>
      <use x="1741.003906" xlink:href="#DejaVuSans-97"/>
      <use x="1802.283203" xlink:href="#DejaVuSans-110"/>
      <use x="1865.662109" xlink:href="#DejaVuSans-99"/>
      <use x="1920.642578" xlink:href="#DejaVuSans-101"/>
     </g>
    </g>
   </g>
   <g id="patch_3">
    <path d="M 81 512.64 
L 81 69.12 
" style="fill:none;stroke:#000000;stroke-linecap:square;stroke-linejoin:miter;stroke-width:0.8;"/>
   </g>
   <g id="patch_4">
    <path d="M 583.2 512.64 
L 583.2 69.12 
" style="fill:none;stroke:#000000;stroke-linecap:square;stroke-linejoin:miter;stroke-width:0.8;"/>
   </g>
   <g id="patch_5">
    <path d="M 81 512.64 
L 583.2 512.64 
" style="fill:none;stroke:#000000;stroke-linecap:square;stroke-linejoin:miter;stroke-width:0.8;"/>
   </g>
   <g id="patch_6">
    <path d="M 81 69.12 
L 583.2 69.12 
" style="fill:none;stroke:#000000;stroke-linecap:square;stroke-linejoin:miter;stroke-width:0.8;"/>
   </g>
   <g id="text_14">
    <!-- 0.0 -->
    <g style="fill:#e6194b;" transform="translate(560.372727 223.188436)scale(0.18 -0.18)">
     <use xlink:href="#DejaVuSans-48"/>
     <use x="63.623047" xlink:href="#DejaVuSans-46"/>
     <use x="95.410156" xlink:href="#DejaVuSans-48"/>
    </g>
   </g>
   <g id="text_15">
    <!-- 1.0 -->
    <g style="fill:#3cb44b;" transform="translate(239.11228 219.05985)scale(0.18 -0.18)">
     <use xlink:href="#DejaVuSans-49"/>
     <use x="63.623047" xlink:href="#DejaVuSans-46"/>
     <use x="95.410156" xlink:href="#DejaVuSans-48"/>
    </g>
   </g>
   <g id="text_16">
    <!-- 2.0 -->
    <g style="fill:#ffe119;" transform="translate(103.827273 492.48)scale(0.18 -0.18)">
     <use xlink:href="#DejaVuSans-50"/>
     <use x="63.623047" xlink:href="#DejaVuSans-46"/>
     <use x="95.410156" xlink:href="#DejaVuSans-48"/>
    </g>
   </g>
   <g id="text_17">
    <!-- 3.0 -->
    <g style="fill:#4363d8;" transform="translate(226.184426 194.215108)scale(0.18 -0.18)">
     <defs>
      <path d="M 40.578125 39.3125 
Q 47.65625 37.796875 51.625 33 
Q 55.609375 28.21875 55.609375 21.1875 
Q 55.609375 10.40625 48.1875 4.484375 
Q 40.765625 -1.421875 27.09375 -1.421875 
Q 22.515625 -1.421875 17.65625 -0.515625 
Q 12.796875 0.390625 7.625 2.203125 
L 7.625 11.71875 
Q 11.71875 9.328125 16.59375 8.109375 
Q 21.484375 6.890625 26.8125 6.890625 
Q 36.078125 6.890625 40.9375 10.546875 
Q 45.796875 14.203125 45.796875 21.1875 
Q 45.796875 27.640625 41.28125 31.265625 
Q 36.765625 34.90625 28.71875 34.90625 
L 20.21875 34.90625 
L 20.21875 43.015625 
L 29.109375 43.015625 
Q 36.375 43.015625 40.234375 45.921875 
Q 44.09375 48.828125 44.09375 54.296875 
Q 44.09375 59.90625 40.109375 62.90625 
Q 36.140625 65.921875 28.71875 65.921875 
Q 24.65625 65.921875 20.015625 65.03125 
Q 15.375 64.15625 9.8125 62.3125 
L 9.8125 71.09375 
Q 15.4375 72.65625 20.34375 73.4375 
Q 25.25 74.21875 29.59375 74.21875 
Q 40.828125 74.21875 47.359375 69.109375 
Q 53.90625 64.015625 53.90625 55.328125 
Q 53.90625 49.265625 50.4375 45.09375 
Q 46.96875 40.921875 40.578125 39.3125 
z
" id="DejaVuSans-51"/>
     </defs>
     <use xlink:href="#DejaVuSans-51"/>
     <use x="63.623047" xlink:href="#DejaVuSans-46"/>
     <use x="95.410156" xlink:href="#DejaVuSans-48"/>
    </g>
   </g>
   <g id="text_18">
    <!-- 4 -->
    <g style="fill:#f58231;" transform="translate(288.386609 223.95575)scale(0.18 -0.18)">
     <defs>
      <path d="M 37.796875 64.3125 
L 12.890625 25.390625 
L 37.796875 25.390625 
z
M 35.203125 72.90625 
L 47.609375 72.90625 
L 47.609375 25.390625 
L 58.015625 25.390625 
L 58.015625 17.1875 
L 47.609375 17.1875 
L 47.609375 0 
L 37.796875 0 
L 37.796875 17.1875 
L 4.890625 17.1875 
L 4.890625 26.703125 
z
" id="DejaVuSans-52"/>
     </defs>
     <use xlink:href="#DejaVuSans-52"/>
    </g>
   </g>
   <g id="text_19">
    <!-- 5 -->
    <g style="fill:#ba3fdf;" transform="translate(246.273479 170.824214)scale(0.18 -0.18)">
     <use xlink:href="#DejaVuSans-53"/>
    </g>
   </g>
   <g id="text_20">
    <!-- 6 -->
    <g style="fill:#42d4f4;" transform="translate(266.99322 167.131201)scale(0.18 -0.18)">
     <defs>
      <path d="M 33.015625 40.375 
Q 26.375 40.375 22.484375 35.828125 
Q 18.609375 31.296875 18.609375 23.390625 
Q 18.609375 15.53125 22.484375 10.953125 
Q 26.375 6.390625 33.015625 6.390625 
Q 39.65625 6.390625 43.53125 10.953125 
Q 47.40625 15.53125 47.40625 23.390625 
Q 47.40625 31.296875 43.53125 35.828125 
Q 39.65625 40.375 33.015625 40.375 
z
M 52.59375 71.296875 
L 52.59375 62.3125 
Q 48.875 64.0625 45.09375 64.984375 
Q 41.3125 65.921875 37.59375 65.921875 
Q 27.828125 65.921875 22.671875 59.328125 
Q 17.53125 52.734375 16.796875 39.40625 
Q 19.671875 43.65625 24.015625 45.921875 
Q 28.375 48.1875 33.59375 48.1875 
Q 44.578125 48.1875 50.953125 41.515625 
Q 57.328125 34.859375 57.328125 23.390625 
Q 57.328125 12.15625 50.6875 5.359375 
Q 44.046875 -1.421875 33.015625 -1.421875 
Q 20.359375 -1.421875 13.671875 8.265625 
Q 6.984375 17.96875 6.984375 36.375 
Q 6.984375 53.65625 15.1875 63.9375 
Q 23.390625 74.21875 37.203125 74.21875 
Q 40.921875 74.21875 44.703125 73.484375 
Q 48.484375 72.75 52.59375 71.296875 
z
" id="DejaVuSans-54"/>
     </defs>
     <use xlink:href="#DejaVuSans-54"/>
    </g>
   </g>
   <g id="text_21">
    <!-- 7.0 -->
    <g style="fill:#bfef45;" transform="translate(199.979585 148.549883)scale(0.18 -0.18)">
     <defs>
      <path d="M 8.203125 72.90625 
L 55.078125 72.90625 
L 55.078125 68.703125 
L 28.609375 0 
L 18.3125 0 
L 43.21875 64.59375 
L 8.203125 64.59375 
z
" id="DejaVuSans-55"/>
     </defs>
     <use xlink:href="#DejaVuSans-55"/>
     <use x="63.623047" xlink:href="#DejaVuSans-46"/>
     <use x="95.410156" xlink:href="#DejaVuSans-48"/>
    </g>
   </g>
   <g id="text_22">
    <!-- 19.1 -->
    <g style="fill:#fabed4;" transform="translate(226.44225 146.325689)scale(0.18 -0.18)">
     <defs>
      <path d="M 10.984375 1.515625 
L 10.984375 10.5 
Q 14.703125 8.734375 18.5 7.8125 
Q 22.3125 6.890625 25.984375 6.890625 
Q 35.75 6.890625 40.890625 13.453125 
Q 46.046875 20.015625 46.78125 33.40625 
Q 43.953125 29.203125 39.59375 26.953125 
Q 35.25 24.703125 29.984375 24.703125 
Q 19.046875 24.703125 12.671875 31.3125 
Q 6.296875 37.9375 6.296875 49.421875 
Q 6.296875 60.640625 12.9375 67.421875 
Q 19.578125 74.21875 30.609375 74.21875 
Q 43.265625 74.21875 49.921875 64.515625 
Q 56.59375 54.828125 56.59375 36.375 
Q 56.59375 19.140625 48.40625 8.859375 
Q 40.234375 -1.421875 26.421875 -1.421875 
Q 22.703125 -1.421875 18.890625 -0.6875 
Q 15.09375 0.046875 10.984375 1.515625 
z
M 30.609375 32.421875 
Q 37.25 32.421875 41.125 36.953125 
Q 45.015625 41.5 45.015625 49.421875 
Q 45.015625 57.28125 41.125 61.84375 
Q 37.25 66.40625 30.609375 66.40625 
Q 23.96875 66.40625 20.09375 61.84375 
Q 16.21875 57.28125 16.21875 49.421875 
Q 16.21875 41.5 20.09375 36.953125 
Q 23.96875 32.421875 30.609375 32.421875 
z
" id="DejaVuSans-57"/>
     </defs>
     <use xlink:href="#DejaVuSans-49"/>
     <use x="63.623047" xlink:href="#DejaVuSans-57"/>
     <use x="127.246094" xlink:href="#DejaVuSans-46"/>
     <use x="159.033203" xlink:href="#DejaVuSans-49"/>
    </g>
   </g>
   <g id="text_23">
    <!-- 8 -->
    <g style="fill:#469990;" transform="translate(224.799451 182.238495)scale(0.18 -0.18)">
     <defs>
      <path d="M 31.78125 34.625 
Q 24.75 34.625 20.71875 30.859375 
Q 16.703125 27.09375 16.703125 20.515625 
Q 16.703125 13.921875 20.71875 10.15625 
Q 24.75 6.390625 31.78125 6.390625 
Q 38.8125 6.390625 42.859375 10.171875 
Q 46.921875 13.96875 46.921875 20.515625 
Q 46.921875 27.09375 42.890625 30.859375 
Q 38.875 34.625 31.78125 34.625 
z
M 21.921875 38.8125 
Q 15.578125 40.375 12.03125 44.71875 
Q 8.5 49.078125 8.5 55.328125 
Q 8.5 64.0625 14.71875 69.140625 
Q 20.953125 74.21875 31.78125 74.21875 
Q 42.671875 74.21875 48.875 69.140625 
Q 55.078125 64.0625 55.078125 55.328125 
Q 55.078125 49.078125 51.53125 44.71875 
Q 48 40.375 41.703125 38.8125 
Q 48.828125 37.15625 52.796875 32.3125 
Q 56.78125 27.484375 56.78125 20.515625 
Q 56.78125 9.90625 50.3125 4.234375 
Q 43.84375 -1.421875 31.78125 -1.421875 
Q 19.734375 -1.421875 13.25 4.234375 
Q 6.78125 9.90625 6.78125 20.515625 
Q 6.78125 27.484375 10.78125 32.3125 
Q 14.796875 37.15625 21.921875 38.8125 
z
M 18.3125 54.390625 
Q 18.3125 48.734375 21.84375 45.5625 
Q 25.390625 42.390625 31.78125 42.390625 
Q 38.140625 42.390625 41.71875 45.5625 
Q 45.3125 48.734375 45.3125 54.390625 
Q 45.3125 60.0625 41.71875 63.234375 
Q 38.140625 66.40625 31.78125 66.40625 
Q 25.390625 66.40625 21.84375 63.234375 
Q 18.3125 60.0625 18.3125 54.390625 
z
" id="DejaVuSans-56"/>
     </defs>
     <use xlink:href="#DejaVuSans-56"/>
    </g>
   </g>
   <g id="text_24">
    <!-- 9 -->
    <g style="fill:#dcbeff;" transform="translate(266.514577 165.994448)scale(0.18 -0.18)">
     <use xlink:href="#DejaVuSans-57"/>
    </g>
   </g>
   <g id="text_25">
    <!-- 10 -->
    <g style="fill:#9a6324;" transform="translate(259.186114 150.836366)scale(0.18 -0.18)">
     <use xlink:href="#DejaVuSans-49"/>
     <use x="63.623047" xlink:href="#DejaVuSans-48"/>
    </g>
   </g>
   <g id="text_26">
    <!-- 11 -->
    <g style="fill:#b3a400;" transform="translate(322.137916 128.637223)scale(0.18 -0.18)">
     <use xlink:href="#DejaVuSans-49"/>
     <use x="63.623047" xlink:href="#DejaVuSans-49"/>
    </g>
   </g>
   <g id="text_27">
    <!-- 12 -->
    <g style="fill:#800000;" transform="translate(181.046554 238.03568)scale(0.18 -0.18)">
     <use xlink:href="#DejaVuSans-49"/>
     <use x="63.623047" xlink:href="#DejaVuSans-50"/>
    </g>
   </g>
   <g id="text_28">
    <!-- 13.0 -->
    <g style="fill:#82baff;" transform="translate(130.953583 303.280554)scale(0.18 -0.18)">
     <use xlink:href="#DejaVuSans-49"/>
     <use x="63.623047" xlink:href="#DejaVuSans-51"/>
     <use x="127.246094" xlink:href="#DejaVuSans-46"/>
     <use x="159.033203" xlink:href="#DejaVuSans-48"/>
    </g>
   </g>
   <g id="text_29">
    <!-- 13.1 -->
    <g style="fill:#808000;" transform="translate(135.672402 412.633348)scale(0.18 -0.18)">
     <use xlink:href="#DejaVuSans-49"/>
     <use x="63.623047" xlink:href="#DejaVuSans-51"/>
     <use x="127.246094" xlink:href="#DejaVuSans-46"/>
     <use x="159.033203" xlink:href="#DejaVuSans-49"/>
    </g>
   </g>
   <g id="text_30">
    <!-- 14 -->
    <g style="fill:#ffd8b1;" transform="translate(259.95003 173.513885)scale(0.18 -0.18)">
     <use xlink:href="#DejaVuSans-49"/>
     <use x="63.623047" xlink:href="#DejaVuSans-52"/>
    </g>
   </g>
   <g id="text_31">
    <!-- 15 -->
    <g style="fill:#0072b2;" transform="translate(316.070056 204.414507)scale(0.18 -0.18)">
     <use xlink:href="#DejaVuSans-49"/>
     <use x="63.623047" xlink:href="#DejaVuSans-53"/>
    </g>
   </g>
   <g id="text_32">
    <!-- 16 -->
    <g style="fill:#999999;" transform="translate(326.381156 143.810906)scale(0.18 -0.18)">
     <use xlink:href="#DejaVuSans-49"/>
     <use x="63.623047" xlink:href="#DejaVuSans-54"/>
    </g>
   </g>
   <g id="text_33">
    <!-- 17 -->
    <g style="fill:#e69f00;" transform="translate(214.891695 209.178414)scale(0.18 -0.18)">
     <use xlink:href="#DejaVuSans-49"/>
     <use x="63.623047" xlink:href="#DejaVuSans-55"/>
    </g>
   </g>
   <g id="text_34">
    <!-- 18 -->
    <g style="fill:#56b4e9;" transform="translate(340.249522 355.042652)scale(0.18 -0.18)">
     <use xlink:href="#DejaVuSans-49"/>
     <use x="63.623047" xlink:href="#DejaVuSans-56"/>
    </g>
   </g>
   <g id="text_35">
    <!-- 7.1 -->
    <g style="fill:#009e73;" transform="translate(212.096562 89.28)scale(0.18 -0.18)">
     <use xlink:href="#DejaVuSans-55"/>
     <use x="63.623047" xlink:href="#DejaVuSans-46"/>
     <use x="95.410156" xlink:href="#DejaVuSans-49"/>
    </g>
   </g>
   <g id="text_36">
    <!-- 19.0 -->
    <g style="fill:#f0e442;" transform="translate(232.811717 97.033678)scale(0.18 -0.18)">
     <use xlink:href="#DejaVuSans-49"/>
     <use x="63.623047" xlink:href="#DejaVuSans-57"/>
     <use x="127.246094" xlink:href="#DejaVuSans-46"/>
     <use x="159.033203" xlink:href="#DejaVuSans-48"/>
    </g>
   </g>
   <g id="text_37">
    <!-- 3.1 -->
    <g style="fill:#0072b2;" transform="translate(146.798116 235.56746)scale(0.18 -0.18)">
     <use xlink:href="#DejaVuSans-51"/>
     <use x="63.623047" xlink:href="#DejaVuSans-46"/>
     <use x="95.410156" xlink:href="#DejaVuSans-49"/>
    </g>
   </g>
   <g id="text_38">
    <!-- 2.1 -->
    <g style="fill:#d55e00;" transform="translate(164.127056 387.374577)scale(0.18 -0.18)">
     <use xlink:href="#DejaVuSans-50"/>
     <use x="63.623047" xlink:href="#DejaVuSans-46"/>
     <use x="95.410156" xlink:href="#DejaVuSans-49"/>
    </g>
   </g>
   <g id="text_39">
    <!-- 1.1 -->
    <g style="fill:#cc79a7;" transform="translate(215.592017 145.562225)scale(0.18 -0.18)">
     <use xlink:href="#DejaVuSans-49"/>
     <use x="63.623047" xlink:href="#DejaVuSans-46"/>
     <use x="95.410156" xlink:href="#DejaVuSans-49"/>
    </g>
   </g>
   <g id="text_40">
    <!-- control acyltrans -->
    <g transform="translate(281.780625 63.12)scale(0.12 -0.12)">
     <defs>
      <path d="M 9.421875 75.984375 
L 18.40625 75.984375 
L 18.40625 0 
L 9.421875 0 
z
" id="DejaVuSans-108"/>
      <path d="M 32.171875 -5.078125 
Q 28.375 -14.84375 24.75 -17.8125 
Q 21.140625 -20.796875 15.09375 -20.796875 
L 7.90625 -20.796875 
L 7.90625 -13.28125 
L 13.1875 -13.28125 
Q 16.890625 -13.28125 18.9375 -11.515625 
Q 21 -9.765625 23.484375 -3.21875 
L 25.09375 0.875 
L 2.984375 54.6875 
L 12.5 54.6875 
L 29.59375 11.921875 
L 46.6875 54.6875 
L 56.203125 54.6875 
z
" id="DejaVuSans-121"/>
     </defs>
     <use xlink:href="#DejaVuSans-99"/>
     <use x="54.980469" xlink:href="#DejaVuSans-111"/>
     <use x="116.162109" xlink:href="#DejaVuSans-110"/>
     <use x="179.541016" xlink:href="#DejaVuSans-116"/>
     <use x="218.75" xlink:href="#DejaVuSans-114"/>
     <use x="257.613281" xlink:href="#DejaVuSans-111"/>
     <use x="318.794922" xlink:href="#DejaVuSans-108"/>
     <use x="346.578125" xlink:href="#DejaVuSans-32"/>
     <use x="378.365234" xlink:href="#DejaVuSans-97"/>
     <use x="439.644531" xlink:href="#DejaVuSans-99"/>
     <use x="494.625" xlink:href="#DejaVuSans-121"/>
     <use x="553.804688" xlink:href="#DejaVuSans-108"/>
     <use x="581.587891" xlink:href="#DejaVuSans-116"/>
     <use x="620.796875" xlink:href="#DejaVuSans-114"/>
     <use x="661.910156" xlink:href="#DejaVuSans-97"/>
     <use x="723.189453" xlink:href="#DejaVuSans-110"/>
     <use x="786.568359" xlink:href="#DejaVuSans-115"/>
    </g>
   </g>
  </g>
 </g>
 <defs>
  <clipPath id="pecbc95fbef">
   <rect height="443.52" width="502.2" x="81" y="69.12"/>
  </clipPath>
 </defs>
</svg>
