<?xml version="1.0" encoding="utf-8" standalone="no"?>
<!DOCTYPE svg PUBLIC "-//W3C//DTD SVG 1.1//EN"
  "http://www.w3.org/Graphics/SVG/1.1/DTD/svg11.dtd">
<!-- Created with matplotlib (https://matplotlib.org/) -->
<svg height="648pt" version="1.1" viewBox="0 0 504 648" width="504pt" xmlns="http://www.w3.org/2000/svg" xmlns:xlink="http://www.w3.org/1999/xlink">
 <metadata>
  <rdf:RDF xmlns:cc="http://creativecommons.org/ns#" xmlns:dc="http://purl.org/dc/elements/1.1/" xmlns:rdf="http://www.w3.org/1999/02/22-rdf-syntax-ns#">
   <cc:Work>
    <dc:type rdf:resource="http://purl.org/dc/dcmitype/StillImage"/>
    <dc:date>2023-06-02T19:15:34.477875</dc:date>
    <dc:format>image/svg+xml</dc:format>
    <dc:creator>
     <cc:Agent>
      <dc:title>Matplotlib v3.3.4, https://matplotlib.org/</dc:title>
     </cc:Agent>
    </dc:creator>
   </cc:Work>
  </rdf:RDF>
 </metadata>
 <defs>
  <style type="text/css">*{stroke-linecap:butt;stroke-linejoin:round;}</style>
 </defs>
 <g id="figure_1">
  <g id="patch_1">
   <path d="M 0 648 
L 504 648 
L 504 0 
L 0 0 
z
" style="fill:#ffffff;"/>
  </g>
  <g id="axes_1">
   <g id="patch_2">
    <path d="M 63 576.72 
L 453.6 576.72 
L 453.6 77.76 
L 63 77.76 
z
" style="fill:#ffffff;"/>
   </g>
   <g id="PathCollection_1">
    <path clip-path="url(#p86153458a0)" d="M 263.750711 262.712534 
C 267.259018 262.712534 270.624107 261.318669 273.104855 258.837921 
C 275.585602 256.357173 276.979468 252.992085 276.979468 249.483777 
C 276.979468 245.97547 275.585602 242.610382 273.104855 240.129634 
C 270.624107 237.648886 267.259018 236.255021 263.750711 236.255021 
C 260.242404 236.255021 256.877315 237.648886 254.396568 240.129634 
C 251.91582 242.610382 250.521955 245.97547 250.521955 249.483777 
C 250.521955 252.992085 251.91582 256.357173 254.396568 258.837921 
C 256.877315 261.318669 260.242404 262.712534 263.750711 262.712534 
z
" style="fill:#2f4f4f;stroke:#2f4f4f;"/>
    <path clip-path="url(#p86153458a0)" d="M 245.337542 280.104538 
C 247.434157 280.104538 249.445181 279.271544 250.927712 277.789013 
C 252.410242 276.306483 253.243236 274.295458 253.243236 272.198843 
C 253.243236 270.102229 252.410242 268.091204 250.927712 266.608673 
C 249.445181 265.126143 247.434157 264.293149 245.337542 264.293149 
C 243.240927 264.293149 241.229902 265.126143 239.747372 266.608673 
C 238.264842 268.091204 237.431848 270.102229 237.431848 272.198843 
C 237.431848 274.295458 238.264842 276.306483 239.747372 277.789013 
C 241.229902 279.271544 243.240927 280.104538 245.337542 280.104538 
z
" style="fill:#556b2f;stroke:#556b2f;"/>
    <path clip-path="url(#p86153458a0)" d="M 258.251149 311.043256 
C 261.360931 311.043256 264.343763 309.807727 266.542711 307.608779 
C 268.741659 305.409831 269.977189 302.426999 269.977189 299.317217 
C 269.977189 296.207435 268.741659 293.224603 266.542711 291.025655 
C 264.343763 288.826707 261.360931 287.591177 258.251149 287.591177 
C 255.141367 287.591177 252.158535 288.826707 249.959587 291.025655 
C 247.760639 293.224603 246.52511 296.207435 246.52511 299.317217 
C 246.52511 302.426999 247.760639 305.409831 249.959587 307.608779 
C 252.158535 309.807727 255.141367 311.043256 258.251149 311.043256 
z
" style="fill:#8b4513;stroke:#8b4513;"/>
    <path clip-path="url(#p86153458a0)" d="M 261.539524 325.307628 
C 263.163555 325.307628 264.721288 324.662394 265.869651 323.514031 
C 267.018014 322.365668 267.663249 320.807935 267.663249 319.183904 
C 267.663249 317.559873 267.018014 316.00214 265.869651 314.853777 
C 264.721288 313.705414 263.163555 313.06018 261.539524 313.06018 
C 259.915494 313.06018 258.35776 313.705414 257.209397 314.853777 
C 256.061034 316.00214 255.4158 317.559873 255.4158 319.183904 
C 255.4158 320.807935 256.061034 322.365668 257.209397 323.514031 
C 258.35776 324.662394 259.915494 325.307628 261.539524 325.307628 
z
" style="fill:#2e8b57;stroke:#2e8b57;"/>
    <path clip-path="url(#p86153458a0)" d="M 199.131911 311.833606 
C 200.457927 311.833606 201.72981 311.306775 202.667445 310.36914 
C 203.60508 309.431506 204.131911 308.159622 204.131911 306.833606 
C 204.131911 305.507591 203.60508 304.235707 202.667445 303.298072 
C 201.72981 302.360438 200.457927 301.833606 199.131911 301.833606 
C 197.805896 301.833606 196.534012 302.360438 195.596377 303.298072 
C 194.658743 304.235707 194.131911 305.507591 194.131911 306.833606 
C 194.131911 308.159622 194.658743 309.431506 195.596377 310.36914 
C 196.534012 311.306775 197.805896 311.833606 199.131911 311.833606 
z
" style="fill:#228b22;stroke:#228b22;"/>
    <path clip-path="url(#p86153458a0)" d="M 267.779856 370.38004 
C 269.105871 370.38004 270.377755 369.853208 271.31539 368.915574 
C 272.253024 367.977939 272.779856 366.706055 272.779856 365.38004 
C 272.779856 364.054024 272.253024 362.78214 271.31539 361.844506 
C 270.377755 360.906871 269.105871 360.38004 267.779856 360.38004 
C 266.45384 360.38004 265.181957 360.906871 264.244322 361.844506 
C 263.306687 362.78214 262.779856 364.054024 262.779856 365.38004 
C 262.779856 366.706055 263.306687 367.977939 264.244322 368.915574 
C 265.181957 369.853208 266.45384 370.38004 267.779856 370.38004 
z
" style="fill:#708090;stroke:#708090;"/>
    <path clip-path="url(#p86153458a0)" d="M 259.240607 312.537118 
C 260.566623 312.537118 261.838506 312.010286 262.776141 311.072652 
C 263.713775 310.135017 264.240607 308.863133 264.240607 307.537118 
C 264.240607 306.211102 263.713775 304.939218 262.776141 304.001584 
C 261.838506 303.063949 260.566623 302.537118 259.240607 302.537118 
C 257.914592 302.537118 256.642708 303.063949 255.705073 304.001584 
C 254.767439 304.939218 254.240607 306.211102 254.240607 307.537118 
C 254.240607 308.863133 254.767439 310.135017 255.705073 311.072652 
C 256.642708 312.010286 257.914592 312.537118 259.240607 312.537118 
z
" style="fill:#8b0000;stroke:#8b0000;"/>
    <path clip-path="url(#p86153458a0)" d="M 251.169499 310.803383 
C 252.793529 310.803383 254.351263 310.158149 255.499626 309.009786 
C 256.647989 307.861423 257.293223 306.303689 257.293223 304.679659 
C 257.293223 303.055628 256.647989 301.497895 255.499626 300.349532 
C 254.351263 299.201169 252.793529 298.555934 251.169499 298.555934 
C 249.545468 298.555934 247.987735 299.201169 246.839372 300.349532 
C 245.691008 301.497895 245.045774 303.055628 245.045774 304.679659 
C 245.045774 306.303689 245.691008 307.861423 246.839372 309.009786 
C 247.987735 310.158149 249.545468 310.803383 251.169499 310.803383 
z
" style="fill:#808000;stroke:#808000;"/>
    <path clip-path="url(#p86153458a0)" d="M 261.861081 261.955999 
C 264.157807 261.955999 266.360775 261.0435 267.984805 259.419469 
C 269.608836 257.795439 270.521335 255.592471 270.521335 253.295745 
C 270.521335 250.999019 269.608836 248.796051 267.984805 247.172021 
C 266.360775 245.54799 264.157807 244.635491 261.861081 244.635491 
C 259.564355 244.635491 257.361387 245.54799 255.737356 247.172021 
C 254.113326 248.796051 253.200827 250.999019 253.200827 253.295745 
C 253.200827 255.592471 254.113326 257.795439 255.737356 259.419469 
C 257.361387 261.0435 259.564355 261.955999 261.861081 261.955999 
z
" style="fill:#483d8b;stroke:#483d8b;"/>
    <path clip-path="url(#p86153458a0)" d="M 242.641151 335.301713 
C 244.937878 335.301713 247.140845 334.389214 248.764876 332.765183 
C 250.388906 331.141152 251.301405 328.938185 251.301405 326.641459 
C 251.301405 324.344732 250.388906 322.141765 248.764876 320.517734 
C 247.140845 318.893704 244.937878 317.981205 242.641151 317.981205 
C 240.344425 317.981205 238.141458 318.893704 236.517427 320.517734 
C 234.893396 322.141765 233.980897 324.344732 233.980897 326.641459 
C 233.980897 328.938185 234.893396 331.141152 236.517427 332.765183 
C 238.141458 334.389214 240.344425 335.301713 242.641151 335.301713 
z
" style="fill:#008080;stroke:#008080;"/>
    <path clip-path="url(#p86153458a0)" d="M 251.519529 270.768294 
C 254.900218 270.768294 258.142899 269.425132 260.533407 267.034623 
C 262.923916 264.644115 264.267078 261.401435 264.267078 258.020745 
C 264.267078 254.640056 262.923916 251.397375 260.533407 249.006867 
C 258.142899 246.616359 254.900218 245.273196 251.519529 245.273196 
C 248.138839 245.273196 244.896159 246.616359 242.505651 249.006867 
C 240.115142 251.397375 238.77198 254.640056 238.77198 258.020745 
C 238.77198 261.401435 240.115142 264.644115 242.505651 267.034623 
C 244.896159 269.425132 248.138839 270.768294 251.519529 270.768294 
z
" style="fill:#b8860b;stroke:#b8860b;"/>
    <path clip-path="url(#p86153458a0)" d="M 278.629422 256.998285 
C 281.11017 256.998285 283.489647 256.012674 285.2438 254.25852 
C 286.997954 252.504367 287.983565 250.12489 287.983565 247.644142 
C 287.983565 245.163394 286.997954 242.783917 285.2438 241.029764 
C 283.489647 239.27561 281.11017 238.289999 278.629422 238.289999 
C 276.148674 238.289999 273.769197 239.27561 272.015044 241.029764 
C 270.26089 242.783917 269.275278 245.163394 269.275278 247.644142 
C 269.275278 250.12489 270.26089 252.504367 272.015044 254.25852 
C 273.769197 256.012674 276.148674 256.998285 278.629422 256.998285 
z
" style="fill:#4682b4;stroke:#4682b4;"/>
    <path clip-path="url(#p86153458a0)" d="M 265.365435 289.435884 
C 267.240705 289.435884 269.03942 288.690831 270.365435 287.364816 
C 271.691451 286.0388 272.436503 284.240085 272.436503 282.364816 
C 272.436503 280.489547 271.691451 278.690831 270.365435 277.364816 
C 269.03942 276.0388 267.240705 275.293748 265.365435 275.293748 
C 263.490166 275.293748 261.691451 276.0388 260.365435 277.364816 
C 259.03942 278.690831 258.294368 280.489547 258.294368 282.364816 
C 258.294368 284.240085 259.03942 286.0388 260.365435 287.364816 
C 261.691451 288.690831 263.490166 289.435884 265.365435 289.435884 
z
" style="fill:#d2691e;stroke:#d2691e;"/>
    <path clip-path="url(#p86153458a0)" d="M 254.109608 315.038112 
C 256.590356 315.038112 258.969833 314.0525 260.723986 312.298347 
C 262.47814 310.544193 263.463752 308.164716 263.463752 305.683969 
C 263.463752 303.203221 262.47814 300.823744 260.723986 299.06959 
C 258.969833 297.315437 256.590356 296.329825 254.109608 296.329825 
C 251.62886 296.329825 249.249383 297.315437 247.49523 299.06959 
C 245.741076 300.823744 244.755465 303.203221 244.755465 305.683969 
C 244.755465 308.164716 245.741076 310.544193 247.49523 312.298347 
C 249.249383 314.0525 251.62886 315.038112 254.109608 315.038112 
z
" style="fill:#9acd32;stroke:#9acd32;"/>
    <path clip-path="url(#p86153458a0)" d="M 254.977418 327.088116 
C 256.303433 327.088116 257.575317 326.561284 258.512952 325.62365 
C 259.450586 324.686015 259.977418 323.414131 259.977418 322.088116 
C 259.977418 320.7621 259.450586 319.490216 258.512952 318.552582 
C 257.575317 317.614947 256.303433 317.088116 254.977418 317.088116 
C 253.651402 317.088116 252.379518 317.614947 251.441884 318.552582 
C 250.504249 319.490216 249.977418 320.7621 249.977418 322.088116 
C 249.977418 323.414131 250.504249 324.686015 251.441884 325.62365 
C 252.379518 326.561284 253.651402 327.088116 254.977418 327.088116 
z
" style="fill:#32cd32;stroke:#32cd32;"/>
    <path clip-path="url(#p86153458a0)" d="M 250.696732 284.439073 
C 253.17748 284.439073 255.556957 283.453461 257.31111 281.699307 
C 259.065264 279.945154 260.050875 277.565677 260.050875 275.084929 
C 260.050875 272.604181 259.065264 270.224704 257.31111 268.470551 
C 255.556957 266.716397 253.17748 265.730786 250.696732 265.730786 
C 248.215984 265.730786 245.836507 266.716397 244.082354 268.470551 
C 242.3282 270.224704 241.342589 272.604181 241.342589 275.084929 
C 241.342589 277.565677 242.3282 279.945154 244.082354 281.699307 
C 245.836507 283.453461 248.215984 284.439073 250.696732 284.439073 
z
" style="fill:#8fbc8f;stroke:#8fbc8f;"/>
    <path clip-path="url(#p86153458a0)" d="M 246.477715 243.730887 
C 249.129746 243.730887 251.673513 242.677224 253.548783 240.801955 
C 255.424052 238.926685 256.477715 236.382918 256.477715 233.730887 
C 256.477715 231.078856 255.424052 228.535088 253.548783 226.659819 
C 251.673513 224.78455 249.129746 223.730887 246.477715 223.730887 
C 243.825684 223.730887 241.281916 224.78455 239.406647 226.659819 
C 237.531378 228.535088 236.477715 231.078856 236.477715 233.730887 
C 236.477715 236.382918 237.531378 238.926685 239.406647 240.801955 
C 241.281916 242.677224 243.825684 243.730887 246.477715 243.730887 
z
" style="fill:#800080;stroke:#800080;"/>
    <path clip-path="url(#p86153458a0)" d="M 249.409109 312.043056 
C 251.505723 312.043056 253.516748 311.210062 254.999279 309.727531 
C 256.481809 308.245001 257.314803 306.233976 257.314803 304.137362 
C 257.314803 302.040747 256.481809 300.029722 254.999279 298.547192 
C 253.516748 297.064661 251.505723 296.231667 249.409109 296.231667 
C 247.312494 296.231667 245.301469 297.064661 243.818939 298.547192 
C 242.336408 300.029722 241.503415 302.040747 241.503415 304.137362 
C 241.503415 306.233976 242.336408 308.245001 243.818939 309.727531 
C 245.301469 311.210062 247.312494 312.043056 249.409109 312.043056 
z
" style="fill:#b03060;stroke:#b03060;"/>
    <path clip-path="url(#p86153458a0)" d="M 259.352565 260.992613 
C 261.227835 260.992613 263.02655 260.24756 264.352565 258.921545 
C 265.678581 257.595529 266.423633 255.796814 266.423633 253.921545 
C 266.423633 252.046276 265.678581 250.24756 264.352565 248.921545 
C 263.02655 247.595529 261.227835 246.850477 259.352565 246.850477 
C 257.477296 246.850477 255.678581 247.595529 254.352565 248.921545 
C 253.02655 250.24756 252.281498 252.046276 252.281498 253.921545 
C 252.281498 255.796814 253.02655 257.595529 254.352565 258.921545 
C 255.678581 260.24756 257.477296 260.992613 259.352565 260.992613 
z
" style="fill:#9932cc;stroke:#9932cc;"/>
    <path clip-path="url(#p86153458a0)" d="M 257.982595 344.672178 
C 259.308611 344.672178 260.580495 344.145347 261.518129 343.207712 
C 262.455764 342.270077 262.982595 340.998194 262.982595 339.672178 
C 262.982595 338.346163 262.455764 337.074279 261.518129 336.136644 
C 260.580495 335.19901 259.308611 334.672178 257.982595 334.672178 
C 256.65658 334.672178 255.384696 335.19901 254.447061 336.136644 
C 253.509427 337.074279 252.982595 338.346163 252.982595 339.672178 
C 252.982595 340.998194 253.509427 342.270077 254.447061 343.207712 
C 255.384696 344.145347 256.65658 344.672178 257.982595 344.672178 
z
" style="fill:#ff4500;stroke:#ff4500;"/>
    <path clip-path="url(#p86153458a0)" d="M 244.692852 268.397288 
C 246.316883 268.397288 247.874616 267.752054 249.022979 266.60369 
C 250.171342 265.455327 250.816577 263.897594 250.816577 262.273563 
C 250.816577 260.649533 250.171342 259.0918 249.022979 257.943436 
C 247.874616 256.795073 246.316883 256.149839 244.692852 256.149839 
C 243.068822 256.149839 241.511088 256.795073 240.362725 257.943436 
C 239.214362 259.0918 238.569128 260.649533 238.569128 262.273563 
C 238.569128 263.897594 239.214362 265.455327 240.362725 266.60369 
C 241.511088 267.752054 243.068822 268.397288 244.692852 268.397288 
z
" style="fill:#00ced1;stroke:#00ced1;"/>
    <path clip-path="url(#p86153458a0)" d="M 251.305924 247.777169 
C 253.60265 247.777169 255.805618 246.86467 257.429648 245.24064 
C 259.053679 243.616609 259.966178 241.413642 259.966178 239.116915 
C 259.966178 236.820189 259.053679 234.617222 257.429648 232.993191 
C 255.805618 231.36916 253.60265 230.456661 251.305924 230.456661 
C 249.009198 230.456661 246.80623 231.36916 245.1822 232.993191 
C 243.558169 234.617222 242.64567 236.820189 242.64567 239.116915 
C 242.64567 241.413642 243.558169 243.616609 245.1822 245.24064 
C 246.80623 246.86467 249.009198 247.777169 251.305924 247.777169 
z
" style="fill:#ff8c00;stroke:#ff8c00;"/>
    <path clip-path="url(#p86153458a0)" d="M 266.28762 242.079154 
C 267.911651 242.079154 269.469384 241.43392 270.617747 240.285557 
C 271.76611 239.137194 272.411345 237.57946 272.411345 235.95543 
C 272.411345 234.331399 271.76611 232.773666 270.617747 231.625303 
C 269.469384 230.47694 267.911651 229.831705 266.28762 229.831705 
C 264.66359 229.831705 263.105856 230.47694 261.957493 231.625303 
C 260.80913 232.773666 260.163896 234.331399 260.163896 235.95543 
C 260.163896 237.57946 260.80913 239.137194 261.957493 240.285557 
C 263.105856 241.43392 264.66359 242.079154 266.28762 242.079154 
z
" style="fill:#ffd700;stroke:#ffd700;"/>
    <path clip-path="url(#p86153458a0)" d="M 234.814562 279.373551 
C 236.689831 279.373551 238.488546 278.628498 239.814562 277.302483 
C 241.140577 275.976467 241.885629 274.177752 241.885629 272.302483 
C 241.885629 270.427214 241.140577 268.628498 239.814562 267.302483 
C 238.488546 265.976467 236.689831 265.231415 234.814562 265.231415 
C 232.939293 265.231415 231.140577 265.976467 229.814562 267.302483 
C 228.488546 268.628498 227.743494 270.427214 227.743494 272.302483 
C 227.743494 274.177752 228.488546 275.976467 229.814562 277.302483 
C 231.140577 278.628498 232.939293 279.373551 234.814562 279.373551 
z
" style="fill:#0000cd;stroke:#0000cd;"/>
    <path clip-path="url(#p86153458a0)" d="M 246.723704 309.237662 
C 248.820319 309.237662 250.831343 308.404668 252.313874 306.922137 
C 253.796404 305.439607 254.629398 303.428582 254.629398 301.331968 
C 254.629398 299.235353 253.796404 297.224328 252.313874 295.741798 
C 250.831343 294.259267 248.820319 293.426273 246.723704 293.426273 
C 244.627089 293.426273 242.616064 294.259267 241.133534 295.741798 
C 239.651004 297.224328 238.81801 299.235353 238.81801 301.331968 
C 238.81801 303.428582 239.651004 305.439607 241.133534 306.922137 
C 242.616064 308.404668 244.627089 309.237662 246.723704 309.237662 
z
" style="fill:#deb887;stroke:#deb887;"/>
    <path clip-path="url(#p86153458a0)" d="M 246.440977 277.310282 
C 248.316246 277.310282 250.114962 276.56523 251.440977 275.239215 
C 252.766993 273.913199 253.512045 272.114484 253.512045 270.239215 
C 253.512045 268.363945 252.766993 266.56523 251.440977 265.239215 
C 250.114962 263.913199 248.316246 263.168147 246.440977 263.168147 
C 244.565708 263.168147 242.766993 263.913199 241.440977 265.239215 
C 240.114962 266.56523 239.369909 268.363945 239.369909 270.239215 
C 239.369909 272.114484 240.114962 273.913199 241.440977 275.239215 
C 242.766993 276.56523 244.565708 277.310282 246.440977 277.310282 
z
" style="fill:#00ff00;stroke:#00ff00;"/>
    <path clip-path="url(#p86153458a0)" d="M 281.814036 276.737415 
C 283.438066 276.737415 284.9958 276.09218 286.144163 274.943817 
C 287.292526 273.795454 287.93776 272.237721 287.93776 270.61369 
C 287.93776 268.98966 287.292526 267.431926 286.144163 266.283563 
C 284.9958 265.1352 283.438066 264.489966 281.814036 264.489966 
C 280.190005 264.489966 278.632272 265.1352 277.483909 266.283563 
C 276.335545 267.431926 275.690311 268.98966 275.690311 270.61369 
C 275.690311 272.237721 276.335545 273.795454 277.483909 274.943817 
C 278.632272 276.09218 280.190005 276.737415 281.814036 276.737415 
z
" style="fill:#00fa9a;stroke:#00fa9a;"/>
    <path clip-path="url(#p86153458a0)" d="M 260.458963 290.161738 
C 262.082994 290.161738 263.640727 289.516504 264.78909 288.368141 
C 265.937453 287.219778 266.582687 285.662044 266.582687 284.038014 
C 266.582687 282.413983 265.937453 280.85625 264.78909 279.707887 
C 263.640727 278.559524 262.082994 277.914289 260.458963 277.914289 
C 258.834932 277.914289 257.277199 278.559524 256.128836 279.707887 
C 254.980473 280.85625 254.335239 282.413983 254.335239 284.038014 
C 254.335239 285.662044 254.980473 287.219778 256.128836 288.368141 
C 257.277199 289.516504 258.834932 290.161738 260.458963 290.161738 
z
" style="fill:#dc143c;stroke:#dc143c;"/>
    <path clip-path="url(#p86153458a0)" d="M 249.710584 295.529169 
C 251.807199 295.529169 253.818224 294.696175 255.300754 293.213644 
C 256.783285 291.731114 257.616279 289.720089 257.616279 287.623474 
C 257.616279 285.52686 256.783285 283.515835 255.300754 282.033304 
C 253.818224 280.550774 251.807199 279.71778 249.710584 279.71778 
C 247.61397 279.71778 245.602945 280.550774 244.120415 282.033304 
C 242.637884 283.515835 241.80489 285.52686 241.80489 287.623474 
C 241.80489 289.720089 242.637884 291.731114 244.120415 293.213644 
C 245.602945 294.696175 247.61397 295.529169 249.710584 295.529169 
z
" style="fill:#00bfff;stroke:#00bfff;"/>
    <path clip-path="url(#p86153458a0)" d="M 253.559931 300.962338 
C 255.435201 300.962338 257.233916 300.217285 258.559931 298.89127 
C 259.885947 297.565254 260.630999 295.766539 260.630999 293.89127 
C 260.630999 292.016001 259.885947 290.217285 258.559931 288.89127 
C 257.233916 287.565254 255.435201 286.820202 253.559931 286.820202 
C 251.684662 286.820202 249.885947 287.565254 248.559931 288.89127 
C 247.233916 290.217285 246.488864 292.016001 246.488864 293.89127 
C 246.488864 295.766539 247.233916 297.565254 248.559931 298.89127 
C 249.885947 300.217285 251.684662 300.962338 253.559931 300.962338 
z
" style="fill:#f4a460;stroke:#f4a460;"/>
    <path clip-path="url(#p86153458a0)" d="M 253.857931 262.579842 
C 255.954546 262.579842 257.965571 261.746848 259.448101 260.264318 
C 260.930632 258.781788 261.763626 256.770763 261.763626 254.674148 
C 261.763626 252.577533 260.930632 250.566508 259.448101 249.083978 
C 257.965571 247.601448 255.954546 246.768454 253.857931 246.768454 
C 251.761317 246.768454 249.750292 247.601448 248.267761 249.083978 
C 246.785231 250.566508 245.952237 252.577533 245.952237 254.674148 
C 245.952237 256.770763 246.785231 258.781788 248.267761 260.264318 
C 249.750292 261.746848 251.761317 262.579842 253.857931 262.579842 
z
" style="fill:#0000ff;stroke:#0000ff;"/>
    <path clip-path="url(#p86153458a0)" d="M 266.05388 300.031584 
C 268.150495 300.031584 270.16152 299.19859 271.64405 297.716059 
C 273.126581 296.233529 273.959574 294.222504 273.959574 292.125889 
C 273.959574 290.029275 273.126581 288.01825 271.64405 286.535719 
C 270.16152 285.053189 268.150495 284.220195 266.05388 284.220195 
C 263.957266 284.220195 261.946241 285.053189 260.46371 286.535719 
C 258.98118 288.01825 258.148186 290.029275 258.148186 292.125889 
C 258.148186 294.222504 258.98118 296.233529 260.46371 297.716059 
C 261.946241 299.19859 263.957266 300.031584 266.05388 300.031584 
z
" style="fill:#a020f0;stroke:#a020f0;"/>
    <path clip-path="url(#p86153458a0)" d="M 251.659114 212.730516 
C 254.139861 212.730516 256.519338 211.744904 258.273492 209.990751 
C 260.027646 208.236597 261.013257 205.85712 261.013257 203.376372 
C 261.013257 200.895625 260.027646 198.516148 258.273492 196.761994 
C 256.519338 195.007841 254.139861 194.022229 251.659114 194.022229 
C 249.178366 194.022229 246.798889 195.007841 245.044735 196.761994 
C 243.290582 198.516148 242.30497 200.895625 242.30497 203.376372 
C 242.30497 205.85712 243.290582 208.236597 245.044735 209.990751 
C 246.798889 211.744904 249.178366 212.730516 251.659114 212.730516 
z
" style="fill:#adff2f;stroke:#adff2f;"/>
    <path clip-path="url(#p86153458a0)" d="M 258.009817 277.823939 
C 259.885086 277.823939 261.683801 277.078886 263.009817 275.752871 
C 264.335832 274.426855 265.080884 272.62814 265.080884 270.752871 
C 265.080884 268.877602 264.335832 267.078886 263.009817 265.752871 
C 261.683801 264.426855 259.885086 263.681803 258.009817 263.681803 
C 256.134547 263.681803 254.335832 264.426855 253.009817 265.752871 
C 251.683801 267.078886 250.938749 268.877602 250.938749 270.752871 
C 250.938749 272.62814 251.683801 274.426855 253.009817 275.752871 
C 254.335832 277.078886 256.134547 277.823939 258.009817 277.823939 
z
" style="fill:#ff6347;stroke:#ff6347;"/>
    <path clip-path="url(#p86153458a0)" d="M 249.641293 347.636065 
C 251.265324 347.636065 252.823057 346.990831 253.97142 345.842468 
C 255.119783 344.694105 255.765018 343.136372 255.765018 341.512341 
C 255.765018 339.88831 255.119783 338.330577 253.97142 337.182214 
C 252.823057 336.033851 251.265324 335.388617 249.641293 335.388617 
C 248.017263 335.388617 246.459529 336.033851 245.311166 337.182214 
C 244.162803 338.330577 243.517569 339.88831 243.517569 341.512341 
C 243.517569 343.136372 244.162803 344.694105 245.311166 345.842468 
C 246.459529 346.990831 248.017263 347.636065 249.641293 347.636065 
z
" style="fill:#da70d6;stroke:#da70d6;"/>
    <path clip-path="url(#p86153458a0)" d="M 244.149719 266.369239 
C 246.630467 266.369239 249.009944 265.383627 250.764097 263.629474 
C 252.518251 261.87532 253.503863 259.495843 253.503863 257.015096 
C 253.503863 254.534348 252.518251 252.154871 250.764097 250.400717 
C 249.009944 248.646564 246.630467 247.660952 244.149719 247.660952 
C 241.668971 247.660952 239.289494 248.646564 237.535341 250.400717 
C 235.781187 252.154871 234.795576 254.534348 234.795576 257.015096 
C 234.795576 259.495843 235.781187 261.87532 237.535341 263.629474 
C 239.289494 265.383627 241.668971 266.369239 244.149719 266.369239 
z
" style="fill:#b0c4de;stroke:#b0c4de;"/>
    <path clip-path="url(#p86153458a0)" d="M 292.934368 328.154697 
C 294.809638 328.154697 296.608353 327.409644 297.934368 326.083629 
C 299.260384 324.757613 300.005436 322.958898 300.005436 321.083629 
C 300.005436 319.20836 299.260384 317.409644 297.934368 316.083629 
C 296.608353 314.757613 294.809638 314.012561 292.934368 314.012561 
C 291.059099 314.012561 289.260384 314.757613 287.934368 316.083629 
C 286.608353 317.409644 285.863301 319.20836 285.863301 321.083629 
C 285.863301 322.958898 286.608353 324.757613 287.934368 326.083629 
C 289.260384 327.409644 291.059099 328.154697 292.934368 328.154697 
z
" style="fill:#ff00ff;stroke:#ff00ff;"/>
    <path clip-path="url(#p86153458a0)" d="M 267.639179 287.013063 
C 269.263209 287.013063 270.820942 286.367829 271.969306 285.219466 
C 273.117669 284.071103 273.762903 282.51337 273.762903 280.889339 
C 273.762903 279.265308 273.117669 277.707575 271.969306 276.559212 
C 270.820942 275.410849 269.263209 274.765615 267.639179 274.765615 
C 266.015148 274.765615 264.457415 275.410849 263.309052 276.559212 
C 262.160688 277.707575 261.515454 279.265308 261.515454 280.889339 
C 261.515454 282.51337 262.160688 284.071103 263.309052 285.219466 
C 264.457415 286.367829 266.015148 287.013063 267.639179 287.013063 
z
" style="fill:#f0e68c;stroke:#f0e68c;"/>
    <path clip-path="url(#p86153458a0)" d="M 218.710722 284.881382 
C 220.585991 284.881382 222.384707 284.136329 223.710722 282.810314 
C 225.036738 281.484298 225.78179 279.685583 225.78179 277.810314 
C 225.78179 275.935045 225.036738 274.136329 223.710722 272.810314 
C 222.384707 271.484298 220.585991 270.739246 218.710722 270.739246 
C 216.835453 270.739246 215.036738 271.484298 213.710722 272.810314 
C 212.384707 274.136329 211.639654 275.935045 211.639654 277.810314 
C 211.639654 279.685583 212.384707 281.484298 213.710722 282.810314 
C 215.036738 284.136329 216.835453 284.881382 218.710722 284.881382 
z
" style="fill:#fa8072;stroke:#fa8072;"/>
    <path clip-path="url(#p86153458a0)" d="M 283.21287 244.893761 
C 284.836901 244.893761 286.394634 244.248527 287.542997 243.100163 
C 288.69136 241.9518 289.336595 240.394067 289.336595 238.770036 
C 289.336595 237.146006 288.69136 235.588272 287.542997 234.439909 
C 286.394634 233.291546 284.836901 232.646312 283.21287 232.646312 
C 281.58884 232.646312 280.031106 233.291546 278.882743 234.439909 
C 277.73438 235.588272 277.089146 237.146006 277.089146 238.770036 
C 277.089146 240.394067 277.73438 241.9518 278.882743 243.100163 
C 280.031106 244.248527 281.58884 244.893761 283.21287 244.893761 
z
" style="fill:#ffff54;stroke:#ffff54;"/>
    <path clip-path="url(#p86153458a0)" d="M 249.248741 332.906164 
C 250.872771 332.906164 252.430505 332.260929 253.578868 331.112566 
C 254.727231 329.964203 255.372465 328.40647 255.372465 326.782439 
C 255.372465 325.158409 254.727231 323.600675 253.578868 322.452312 
C 252.430505 321.303949 250.872771 320.658715 249.248741 320.658715 
C 247.62471 320.658715 246.066977 321.303949 244.918614 322.452312 
C 243.77025 323.600675 243.125016 325.158409 243.125016 326.782439 
C 243.125016 328.40647 243.77025 329.964203 244.918614 331.112566 
C 246.066977 332.260929 247.62471 332.906164 249.248741 332.906164 
z
" style="fill:#6495ed;stroke:#6495ed;"/>
    <path clip-path="url(#p86153458a0)" d="M 225.732523 270.212633 
C 227.356554 270.212633 228.914287 269.567399 230.06265 268.419036 
C 231.211013 267.270672 231.856247 265.712939 231.856247 264.088909 
C 231.856247 262.464878 231.211013 260.907145 230.06265 259.758781 
C 228.914287 258.610418 227.356554 257.965184 225.732523 257.965184 
C 224.108492 257.965184 222.550759 258.610418 221.402396 259.758781 
C 220.254033 260.907145 219.608799 262.464878 219.608799 264.088909 
C 219.608799 265.712939 220.254033 267.270672 221.402396 268.419036 
C 222.550759 269.567399 224.108492 270.212633 225.732523 270.212633 
z
" style="fill:#dda0dd;stroke:#dda0dd;"/>
    <path clip-path="url(#p86153458a0)" d="M 248.959654 283.452802 
C 250.834924 283.452802 252.633639 282.70775 253.959654 281.381734 
C 255.28567 280.055719 256.030722 278.257003 256.030722 276.381734 
C 256.030722 274.506465 255.28567 272.70775 253.959654 271.381734 
C 252.633639 270.055719 250.834924 269.310666 248.959654 269.310666 
C 247.084385 269.310666 245.28567 270.055719 243.959654 271.381734 
C 242.633639 272.70775 241.888587 274.506465 241.888587 276.381734 
C 241.888587 278.257003 242.633639 280.055719 243.959654 281.381734 
C 245.28567 282.70775 247.084385 283.452802 248.959654 283.452802 
z
" style="fill:#90ee90;stroke:#90ee90;"/>
    <path clip-path="url(#p86153458a0)" d="M 260.986041 278.52411 
C 262.312057 278.52411 263.58394 277.997279 264.521575 277.059644 
C 265.459209 276.12201 265.986041 274.850126 265.986041 273.52411 
C 265.986041 272.198095 265.459209 270.926211 264.521575 269.988576 
C 263.58394 269.050942 262.312057 268.52411 260.986041 268.52411 
C 259.660026 268.52411 258.388142 269.050942 257.450507 269.988576 
C 256.512873 270.926211 255.986041 272.198095 255.986041 273.52411 
C 255.986041 274.850126 256.512873 276.12201 257.450507 277.059644 
C 258.388142 277.997279 259.660026 278.52411 260.986041 278.52411 
z
" style="fill:#7b68ee;stroke:#7b68ee;"/>
    <path clip-path="url(#p86153458a0)" d="M 279.392397 307.068667 
C 281.873145 307.068667 284.252622 306.083056 286.006775 304.328902 
C 287.760929 302.574748 288.74654 300.195271 288.74654 297.714524 
C 288.74654 295.233776 287.760929 292.854299 286.006775 291.100145 
C 284.252622 289.345992 281.873145 288.36038 279.392397 288.36038 
C 276.911649 288.36038 274.532172 289.345992 272.778019 291.100145 
C 271.023865 292.854299 270.038253 295.233776 270.038253 297.714524 
C 270.038253 300.195271 271.023865 302.574748 272.778019 304.328902 
C 274.532172 306.083056 276.911649 307.068667 279.392397 307.068667 
z
" style="fill:#afeeee;stroke:#afeeee;"/>
    <path clip-path="url(#p86153458a0)" d="M 246.878903 336.765831 
C 248.502934 336.765831 250.060667 336.120597 251.20903 334.972234 
C 252.357394 333.823871 253.002628 332.266137 253.002628 330.642107 
C 253.002628 329.018076 252.357394 327.460343 251.20903 326.31198 
C 250.060667 325.163617 248.502934 324.518382 246.878903 324.518382 
C 245.254873 324.518382 243.69714 325.163617 242.548776 326.31198 
C 241.400413 327.460343 240.755179 329.018076 240.755179 330.642107 
C 240.755179 332.266137 241.400413 333.823871 242.548776 334.972234 
C 243.69714 336.120597 245.254873 336.765831 246.878903 336.765831 
z
" style="fill:#7fffd4;stroke:#7fffd4;"/>
    <path clip-path="url(#p86153458a0)" d="M 227.554974 282.770189 
C 229.651588 282.770189 231.662613 281.937195 233.145143 280.454665 
C 234.627674 278.972135 235.460668 276.96111 235.460668 274.864495 
C 235.460668 272.76788 234.627674 270.756855 233.145143 269.274325 
C 231.662613 267.791795 229.651588 266.958801 227.554974 266.958801 
C 225.458359 266.958801 223.447334 267.791795 221.964804 269.274325 
C 220.482273 270.756855 219.649279 272.76788 219.649279 274.864495 
C 219.649279 276.96111 220.482273 278.972135 221.964804 280.454665 
C 223.447334 281.937195 225.458359 282.770189 227.554974 282.770189 
z
" style="fill:#ff69b4;stroke:#ff69b4;"/>
    <path clip-path="url(#p86153458a0)" d="M 250.49853 343.004173 
C 251.824546 343.004173 253.09643 342.477341 254.034064 341.539707 
C 254.971699 340.602072 255.49853 339.330188 255.49853 338.004173 
C 255.49853 336.678157 254.971699 335.406274 254.034064 334.468639 
C 253.09643 333.531004 251.824546 333.004173 250.49853 333.004173 
C 249.172515 333.004173 247.900631 333.531004 246.962997 334.468639 
C 246.025362 335.406274 245.49853 336.678157 245.49853 338.004173 
C 245.49853 339.330188 246.025362 340.602072 246.962997 341.539707 
C 247.900631 342.477341 249.172515 343.004173 250.49853 343.004173 
z
" style="fill:#ffb6c1;stroke:#ffb6c1;"/>
    <path clip-path="url(#p86153458a0)" d="M 284.55643 303.799286 
C 286.431699 303.799286 288.230414 303.054233 289.55643 301.728218 
C 290.882445 300.402202 291.627498 298.603487 291.627498 296.728218 
C 291.627498 294.852949 290.882445 293.054233 289.55643 291.728218 
C 288.230414 290.402202 286.431699 289.65715 284.55643 289.65715 
C 282.681161 289.65715 280.882445 290.402202 279.55643 291.728218 
C 278.230414 293.054233 277.485362 294.852949 277.485362 296.728218 
C 277.485362 298.603487 278.230414 300.402202 279.55643 301.728218 
C 280.882445 303.054233 282.681161 303.799286 284.55643 303.799286 
z
" style="fill:#2f4f4f;stroke:#2f4f4f;"/>
    <path clip-path="url(#p86153458a0)" d="M 254.852079 268.432897 
C 256.47611 268.432897 258.033843 267.787663 259.182206 266.6393 
C 260.330569 265.490936 260.975803 263.933203 260.975803 262.309173 
C 260.975803 260.685142 260.330569 259.127409 259.182206 257.979046 
C 258.033843 256.830682 256.47611 256.185448 254.852079 256.185448 
C 253.228048 256.185448 251.670315 256.830682 250.521952 257.979046 
C 249.373589 259.127409 248.728355 260.685142 248.728355 262.309173 
C 248.728355 263.933203 249.373589 265.490936 250.521952 266.6393 
C 251.670315 267.787663 253.228048 268.432897 254.852079 268.432897 
z
" style="fill:#556b2f;stroke:#556b2f;"/>
    <path clip-path="url(#p86153458a0)" d="M 258.240882 287.40972 
C 259.864912 287.40972 261.422646 286.764485 262.571009 285.616122 
C 263.719372 284.467759 264.364606 282.910026 264.364606 281.285995 
C 264.364606 279.661965 263.719372 278.104231 262.571009 276.955868 
C 261.422646 275.807505 259.864912 275.162271 258.240882 275.162271 
C 256.616851 275.162271 255.059118 275.807505 253.910755 276.955868 
C 252.762392 278.104231 252.117157 279.661965 252.117157 281.285995 
C 252.117157 282.910026 252.762392 284.467759 253.910755 285.616122 
C 255.059118 286.764485 256.616851 287.40972 258.240882 287.40972 
z
" style="fill:#8b4513;stroke:#8b4513;"/>
    <path clip-path="url(#p86153458a0)" d="M 262.698755 302.152922 
C 264.322786 302.152922 265.880519 301.507688 267.028882 300.359325 
C 268.177245 299.210962 268.82248 297.653228 268.82248 296.029198 
C 268.82248 294.405167 268.177245 292.847434 267.028882 291.699071 
C 265.880519 290.550707 264.322786 289.905473 262.698755 289.905473 
C 261.074725 289.905473 259.516991 290.550707 258.368628 291.699071 
C 257.220265 292.847434 256.575031 294.405167 256.575031 296.029198 
C 256.575031 297.653228 257.220265 299.210962 258.368628 300.359325 
C 259.516991 301.507688 261.074725 302.152922 262.698755 302.152922 
z
" style="fill:#2e8b57;stroke:#2e8b57;"/>
    <path clip-path="url(#p86153458a0)" d="M 247.013154 352.456669 
C 248.33917 352.456669 249.611053 351.929837 250.548688 350.992202 
C 251.486323 350.054568 252.013154 348.782684 252.013154 347.456669 
C 252.013154 346.130653 251.486323 344.858769 250.548688 343.921135 
C 249.611053 342.9835 248.33917 342.456669 247.013154 342.456669 
C 245.687139 342.456669 244.415255 342.9835 243.47762 343.921135 
C 242.539986 344.858769 242.013154 346.130653 242.013154 347.456669 
C 242.013154 348.782684 242.539986 350.054568 243.47762 350.992202 
C 244.415255 351.929837 245.687139 352.456669 247.013154 352.456669 
z
" style="fill:#228b22;stroke:#228b22;"/>
    <path clip-path="url(#p86153458a0)" d="M 252.019251 282.295365 
C 253.643282 282.295365 255.201015 281.650131 256.349378 280.501768 
C 257.497741 279.353404 258.142975 277.795671 258.142975 276.17164 
C 258.142975 274.54761 257.497741 272.989877 256.349378 271.841513 
C 255.201015 270.69315 253.643282 270.047916 252.019251 270.047916 
C 250.39522 270.047916 248.837487 270.69315 247.689124 271.841513 
C 246.540761 272.989877 245.895527 274.54761 245.895527 276.17164 
C 245.895527 277.795671 246.540761 279.353404 247.689124 280.501768 
C 248.837487 281.650131 250.39522 282.295365 252.019251 282.295365 
z
" style="fill:#708090;stroke:#708090;"/>
    <path clip-path="url(#p86153458a0)" d="M 294.701701 313.724087 
C 296.998427 313.724087 299.201395 312.811588 300.825425 311.187557 
C 302.449456 309.563527 303.361955 307.360559 303.361955 305.063833 
C 303.361955 302.767107 302.449456 300.564139 300.825425 298.940109 
C 299.201395 297.316078 296.998427 296.403579 294.701701 296.403579 
C 292.404975 296.403579 290.202007 297.316078 288.577977 298.940109 
C 286.953946 300.564139 286.041447 302.767107 286.041447 305.063833 
C 286.041447 307.360559 286.953946 309.563527 288.577977 311.187557 
C 290.202007 312.811588 292.404975 313.724087 294.701701 313.724087 
z
" style="fill:#8b0000;stroke:#8b0000;"/>
    <path clip-path="url(#p86153458a0)" d="M 241.355993 216.622883 
C 242.980023 216.622883 244.537757 215.977649 245.68612 214.829286 
C 246.834483 213.680923 247.479717 212.12319 247.479717 210.499159 
C 247.479717 208.875128 246.834483 207.317395 245.68612 206.169032 
C 244.537757 205.020669 242.980023 204.375435 241.355993 204.375435 
C 239.731962 204.375435 238.174229 205.020669 237.025866 206.169032 
C 235.877503 207.317395 235.232268 208.875128 235.232268 210.499159 
C 235.232268 212.12319 235.877503 213.680923 237.025866 214.829286 
C 238.174229 215.977649 239.731962 216.622883 241.355993 216.622883 
z
" style="fill:#808000;stroke:#808000;"/>
    <path clip-path="url(#p86153458a0)" d="M 236.040957 295.401275 
C 237.916226 295.401275 239.714941 294.656223 241.040957 293.330207 
C 242.366972 292.004192 243.112025 290.205476 243.112025 288.330207 
C 243.112025 286.454938 242.366972 284.656223 241.040957 283.330207 
C 239.714941 282.004192 237.916226 281.259139 236.040957 281.259139 
C 234.165688 281.259139 232.366972 282.004192 231.040957 283.330207 
C 229.714941 284.656223 228.969889 286.454938 228.969889 288.330207 
C 228.969889 290.205476 229.714941 292.004192 231.040957 293.330207 
C 232.366972 294.656223 234.165688 295.401275 236.040957 295.401275 
z
" style="fill:#008080;stroke:#008080;"/>
    <path clip-path="url(#p86153458a0)" d="M 261.264723 316.44351 
C 262.590739 316.44351 263.862623 315.916679 264.800257 314.979044 
C 265.737892 314.04141 266.264723 312.769526 266.264723 311.44351 
C 266.264723 310.117495 265.737892 308.845611 264.800257 307.907976 
C 263.862623 306.970342 262.590739 306.44351 261.264723 306.44351 
C 259.938708 306.44351 258.666824 306.970342 257.729189 307.907976 
C 256.791555 308.845611 256.264723 310.117495 256.264723 311.44351 
C 256.264723 312.769526 256.791555 314.04141 257.729189 314.979044 
C 258.666824 315.916679 259.938708 316.44351 261.264723 316.44351 
z
" style="fill:#b8860b;stroke:#b8860b;"/>
    <path clip-path="url(#p86153458a0)" d="M 249.5135 261.638863 
C 251.388769 261.638863 253.187485 260.89381 254.5135 259.567795 
C 255.839516 258.241779 256.584568 256.443064 256.584568 254.567795 
C 256.584568 252.692526 255.839516 250.89381 254.5135 249.567795 
C 253.187485 248.241779 251.388769 247.496727 249.5135 247.496727 
C 247.638231 247.496727 245.839516 248.241779 244.5135 249.567795 
C 243.187485 250.89381 242.442432 252.692526 242.442432 254.567795 
C 242.442432 256.443064 243.187485 258.241779 244.5135 259.567795 
C 245.839516 260.89381 247.638231 261.638863 249.5135 261.638863 
z
" style="fill:#4682b4;stroke:#4682b4;"/>
    <path clip-path="url(#p86153458a0)" d="M 240.197988 284.684584 
C 242.678736 284.684584 245.058213 283.698972 246.812366 281.944818 
C 248.56652 280.190665 249.552131 277.811188 249.552131 275.33044 
C 249.552131 272.849692 248.56652 270.470216 246.812366 268.716062 
C 245.058213 266.961908 242.678736 265.976297 240.197988 265.976297 
C 237.71724 265.976297 235.337763 266.961908 233.58361 268.716062 
C 231.829456 270.470216 230.843844 272.849692 230.843844 275.33044 
C 230.843844 277.811188 231.829456 280.190665 233.58361 281.944818 
C 235.337763 283.698972 237.71724 284.684584 240.197988 284.684584 
z
" style="fill:#d2691e;stroke:#d2691e;"/>
    <path clip-path="url(#p86153458a0)" d="M 266.402197 248.791581 
C 268.026228 248.791581 269.583961 248.146347 270.732324 246.997984 
C 271.880687 245.849621 272.525922 244.291888 272.525922 242.667857 
C 272.525922 241.043826 271.880687 239.486093 270.732324 238.33773 
C 269.583961 237.189367 268.026228 236.544133 266.402197 236.544133 
C 264.778166 236.544133 263.220433 237.189367 262.07207 238.33773 
C 260.923707 239.486093 260.278473 241.043826 260.278473 242.667857 
C 260.278473 244.291888 260.923707 245.849621 262.07207 246.997984 
C 263.220433 248.146347 264.778166 248.791581 266.402197 248.791581 
z
" style="fill:#32cd32;stroke:#32cd32;"/>
    <path clip-path="url(#p86153458a0)" d="M 258.075721 247.924898 
C 260.556469 247.924898 262.935946 246.939286 264.6901 245.185132 
C 266.444253 243.430979 267.429865 241.051502 267.429865 238.570754 
C 267.429865 236.090006 266.444253 233.710529 264.6901 231.956376 
C 262.935946 230.202222 260.556469 229.216611 258.075721 229.216611 
C 255.594973 229.216611 253.215497 230.202222 251.461343 231.956376 
C 249.707189 233.710529 248.721578 236.090006 248.721578 238.570754 
C 248.721578 241.051502 249.707189 243.430979 251.461343 245.185132 
C 253.215497 246.939286 255.594973 247.924898 258.075721 247.924898 
z
" style="fill:#8fbc8f;stroke:#8fbc8f;"/>
    <path clip-path="url(#p86153458a0)" d="M 274.270536 228.158401 
C 276.145805 228.158401 277.94452 227.413348 279.270536 226.087333 
C 280.596551 224.761317 281.341604 222.962602 281.341604 221.087333 
C 281.341604 219.212064 280.596551 217.413348 279.270536 216.087333 
C 277.94452 214.761317 276.145805 214.016265 274.270536 214.016265 
C 272.395267 214.016265 270.596551 214.761317 269.270536 216.087333 
C 267.94452 217.413348 267.199468 219.212064 267.199468 221.087333 
C 267.199468 222.962602 267.94452 224.761317 269.270536 226.087333 
C 270.596551 227.413348 272.395267 228.158401 274.270536 228.158401 
z
" style="fill:#800080;stroke:#800080;"/>
    <path clip-path="url(#p86153458a0)" d="M 245.867139 284.969822 
C 247.491169 284.969822 249.048903 284.324588 250.197266 283.176225 
C 251.345629 282.027861 251.990863 280.470128 251.990863 278.846098 
C 251.990863 277.222067 251.345629 275.664334 250.197266 274.515971 
C 249.048903 273.367607 247.491169 272.722373 245.867139 272.722373 
C 244.243108 272.722373 242.685375 273.367607 241.537012 274.515971 
C 240.388649 275.664334 239.743414 277.222067 239.743414 278.846098 
C 239.743414 280.470128 240.388649 282.027861 241.537012 283.176225 
C 242.685375 284.324588 244.243108 284.969822 245.867139 284.969822 
z
" style="fill:#b03060;stroke:#b03060;"/>
    <path clip-path="url(#p86153458a0)" d="M 249.783119 219.742998 
C 251.879733 219.742998 253.890758 218.910004 255.373289 217.427474 
C 256.855819 215.944944 257.688813 213.933919 257.688813 211.837304 
C 257.688813 209.740689 256.855819 207.729664 255.373289 206.247134 
C 253.890758 204.764604 251.879733 203.93161 249.783119 203.93161 
C 247.686504 203.93161 245.675479 204.764604 244.192949 206.247134 
C 242.710418 207.729664 241.877424 209.740689 241.877424 211.837304 
C 241.877424 213.933919 242.710418 215.944944 244.192949 217.427474 
C 245.675479 218.910004 247.686504 219.742998 249.783119 219.742998 
z
" style="fill:#9932cc;stroke:#9932cc;"/>
    <path clip-path="url(#p86153458a0)" d="M 257.054036 267.938357 
C 259.350762 267.938357 261.55373 267.025858 263.17776 265.401827 
C 264.801791 263.777797 265.71429 261.574829 265.71429 259.278103 
C 265.71429 256.981377 264.801791 254.778409 263.17776 253.154379 
C 261.55373 251.530348 259.350762 250.617849 257.054036 250.617849 
C 254.75731 250.617849 252.554342 251.530348 250.930312 253.154379 
C 249.306281 254.778409 248.393782 256.981377 248.393782 259.278103 
C 248.393782 261.574829 249.306281 263.777797 250.930312 265.401827 
C 252.554342 267.025858 254.75731 267.938357 257.054036 267.938357 
z
" style="fill:#00ced1;stroke:#00ced1;"/>
    <path clip-path="url(#p86153458a0)" d="M 286.671575 244.888924 
C 288.968302 244.888924 291.171269 243.976425 292.7953 242.352395 
C 294.419331 240.728364 295.33183 238.525397 295.33183 236.22867 
C 295.33183 233.931944 294.419331 231.728977 292.7953 230.104946 
C 291.171269 228.480915 288.968302 227.568416 286.671575 227.568416 
C 284.374849 227.568416 282.171882 228.480915 280.547851 230.104946 
C 278.92382 231.728977 278.011321 233.931944 278.011321 236.22867 
C 278.011321 238.525397 278.92382 240.728364 280.547851 242.352395 
C 282.171882 243.976425 284.374849 244.888924 286.671575 244.888924 
z
" style="fill:#ff8c00;stroke:#ff8c00;"/>
    <path clip-path="url(#p86153458a0)" d="M 252.411675 290.324 
C 254.035706 290.324 255.593439 289.678766 256.741803 288.530403 
C 257.890166 287.382039 258.5354 285.824306 258.5354 284.200275 
C 258.5354 282.576245 257.890166 281.018512 256.741803 279.870148 
C 255.593439 278.721785 254.035706 278.076551 252.411675 278.076551 
C 250.787645 278.076551 249.229912 278.721785 248.081548 279.870148 
C 246.933185 281.018512 246.287951 282.576245 246.287951 284.200275 
C 246.287951 285.824306 246.933185 287.382039 248.081548 288.530403 
C 249.229912 289.678766 250.787645 290.324 252.411675 290.324 
z
" style="fill:#ffd700;stroke:#ffd700;"/>
    <path clip-path="url(#p86153458a0)" d="M 246.177396 231.437402 
C 247.801427 231.437402 249.35916 230.792168 250.507523 229.643805 
C 251.655886 228.495442 252.301121 226.937708 252.301121 225.313678 
C 252.301121 223.689647 251.655886 222.131914 250.507523 220.983551 
C 249.35916 219.835188 247.801427 219.189953 246.177396 219.189953 
C 244.553366 219.189953 242.995632 219.835188 241.847269 220.983551 
C 240.698906 222.131914 240.053672 223.689647 240.053672 225.313678 
C 240.053672 226.937708 240.698906 228.495442 241.847269 229.643805 
C 242.995632 230.792168 244.553366 231.437402 246.177396 231.437402 
z
" style="fill:#0000cd;stroke:#0000cd;"/>
    <path clip-path="url(#p86153458a0)" d="M 270.141677 316.924829 
C 271.467693 316.924829 272.739577 316.397997 273.677211 315.460363 
C 274.614846 314.522728 275.141677 313.250844 275.141677 311.924829 
C 275.141677 310.598813 274.614846 309.326929 273.677211 308.389295 
C 272.739577 307.45166 271.467693 306.924829 270.141677 306.924829 
C 268.815662 306.924829 267.543778 307.45166 266.606143 308.389295 
C 265.668509 309.326929 265.141677 310.598813 265.141677 311.924829 
C 265.141677 313.250844 265.668509 314.522728 266.606143 315.460363 
C 267.543778 316.397997 268.815662 316.924829 270.141677 316.924829 
z
" style="fill:#deb887;stroke:#deb887;"/>
    <path clip-path="url(#p86153458a0)" d="M 270.369484 269.869411 
C 272.466099 269.869411 274.477124 269.036417 275.959654 267.553887 
C 277.442185 266.071357 278.275179 264.060332 278.275179 261.963717 
C 278.275179 259.867102 277.442185 257.856078 275.959654 256.373547 
C 274.477124 254.891017 272.466099 254.058023 270.369484 254.058023 
C 268.27287 254.058023 266.261845 254.891017 264.779314 256.373547 
C 263.296784 257.856078 262.46379 259.867102 262.46379 261.963717 
C 262.46379 264.060332 263.296784 266.071357 264.779314 267.553887 
C 266.261845 269.036417 268.27287 269.869411 270.369484 269.869411 
z
" style="fill:#00ff00;stroke:#00ff00;"/>
    <path clip-path="url(#p86153458a0)" d="M 270.113006 189.723306 
C 271.737036 189.723306 273.29477 189.078072 274.443133 187.929709 
C 275.591496 186.781346 276.23673 185.223613 276.23673 183.599582 
C 276.23673 181.975551 275.591496 180.417818 274.443133 179.269455 
C 273.29477 178.121092 271.737036 177.475858 270.113006 177.475858 
C 268.488975 177.475858 266.931242 178.121092 265.782879 179.269455 
C 264.634516 180.417818 263.989281 181.975551 263.989281 183.599582 
C 263.989281 185.223613 264.634516 186.781346 265.782879 187.929709 
C 266.931242 189.078072 268.488975 189.723306 270.113006 189.723306 
z
" style="fill:#dc143c;stroke:#dc143c;"/>
    <path clip-path="url(#p86153458a0)" d="M 277.247197 335.318012 
C 278.573213 335.318012 279.845097 334.79118 280.782731 333.853546 
C 281.720366 332.915911 282.247197 331.644027 282.247197 330.318012 
C 282.247197 328.991996 281.720366 327.720113 280.782731 326.782478 
C 279.845097 325.844843 278.573213 325.318012 277.247197 325.318012 
C 275.921182 325.318012 274.649298 325.844843 273.711663 326.782478 
C 272.774029 327.720113 272.247197 328.991996 272.247197 330.318012 
C 272.247197 331.644027 272.774029 332.915911 273.711663 333.853546 
C 274.649298 334.79118 275.921182 335.318012 277.247197 335.318012 
z
" style="fill:#00bfff;stroke:#00bfff;"/>
    <path clip-path="url(#p86153458a0)" d="M 245.822983 255.685265 
C 247.447014 255.685265 249.004747 255.040031 250.15311 253.891668 
C 251.301473 252.743305 251.946707 251.185572 251.946707 249.561541 
C 251.946707 247.93751 251.301473 246.379777 250.15311 245.231414 
C 249.004747 244.083051 247.447014 243.437817 245.822983 243.437817 
C 244.198952 243.437817 242.641219 244.083051 241.492856 245.231414 
C 240.344493 246.379777 239.699259 247.93751 239.699259 249.561541 
C 239.699259 251.185572 240.344493 252.743305 241.492856 253.891668 
C 242.641219 255.040031 244.198952 255.685265 245.822983 255.685265 
z
" style="fill:#f4a460;stroke:#f4a460;"/>
    <path clip-path="url(#p86153458a0)" d="M 250.003106 314.997341 
C 251.627137 314.997341 253.18487 314.352106 254.333233 313.203743 
C 255.481597 312.05538 256.126831 310.497647 256.126831 308.873616 
C 256.126831 307.249586 255.481597 305.691852 254.333233 304.543489 
C 253.18487 303.395126 251.627137 302.749892 250.003106 302.749892 
C 248.379076 302.749892 246.821342 303.395126 245.672979 304.543489 
C 244.524616 305.691852 243.879382 307.249586 243.879382 308.873616 
C 243.879382 310.497647 244.524616 312.05538 245.672979 313.203743 
C 246.821342 314.352106 248.379076 314.997341 250.003106 314.997341 
z
" style="fill:#a020f0;stroke:#a020f0;"/>
    <path clip-path="url(#p86153458a0)" d="M 231.289158 264.231555 
C 234.254218 264.231555 237.098237 263.053524 239.194852 260.95691 
C 241.291466 258.860295 242.469497 256.016276 242.469497 253.051215 
C 242.469497 250.086155 241.291466 247.242136 239.194852 245.145521 
C 237.098237 243.048907 234.254218 241.870876 231.289158 241.870876 
C 228.324097 241.870876 225.480078 243.048907 223.383463 245.145521 
C 221.286849 247.242136 220.108818 250.086155 220.108818 253.051215 
C 220.108818 256.016276 221.286849 258.860295 223.383463 260.95691 
C 225.480078 263.053524 228.324097 264.231555 231.289158 264.231555 
z
" style="fill:#da70d6;stroke:#da70d6;"/>
   </g>
   <g id="matplotlib.axis_1">
    <g id="xtick_1">
     <g id="line2d_1">
      <defs>
       <path d="M 0 0 
L 0 3.5 
" id="md3ad512b77" style="stroke:#000000;stroke-width:0.8;"/>
      </defs>
      <g>
       <use style="stroke:#000000;stroke-width:0.8;" x="258.3" xlink:href="#md3ad512b77" y="576.72"/>
      </g>
     </g>
     <g id="text_1">
      <!-- MeanPD -->
      <g transform="translate(237.811719 591.318438)scale(0.1 -0.1)">
       <defs>
        <path d="M 9.8125 72.90625 
L 24.515625 72.90625 
L 43.109375 23.296875 
L 61.8125 72.90625 
L 76.515625 72.90625 
L 76.515625 0 
L 66.890625 0 
L 66.890625 64.015625 
L 48.09375 14.015625 
L 38.1875 14.015625 
L 19.390625 64.015625 
L 19.390625 0 
L 9.8125 0 
z
" id="DejaVuSans-77"/>
        <path d="M 56.203125 29.59375 
L 56.203125 25.203125 
L 14.890625 25.203125 
Q 15.484375 15.921875 20.484375 11.0625 
Q 25.484375 6.203125 34.421875 6.203125 
Q 39.59375 6.203125 44.453125 7.46875 
Q 49.3125 8.734375 54.109375 11.28125 
L 54.109375 2.78125 
Q 49.265625 0.734375 44.1875 -0.34375 
Q 39.109375 -1.421875 33.890625 -1.421875 
Q 20.796875 -1.421875 13.15625 6.1875 
Q 5.515625 13.8125 5.515625 26.8125 
Q 5.515625 40.234375 12.765625 48.109375 
Q 20.015625 56 32.328125 56 
Q 43.359375 56 49.78125 48.890625 
Q 56.203125 41.796875 56.203125 29.59375 
z
M 47.21875 32.234375 
Q 47.125 39.59375 43.09375 43.984375 
Q 39.0625 48.390625 32.421875 48.390625 
Q 24.90625 48.390625 20.390625 44.140625 
Q 15.875 39.890625 15.1875 32.171875 
z
" id="DejaVuSans-101"/>
        <path d="M 34.28125 27.484375 
Q 23.390625 27.484375 19.1875 25 
Q 14.984375 22.515625 14.984375 16.5 
Q 14.984375 11.71875 18.140625 8.90625 
Q 21.296875 6.109375 26.703125 6.109375 
Q 34.1875 6.109375 38.703125 11.40625 
Q 43.21875 16.703125 43.21875 25.484375 
L 43.21875 27.484375 
z
M 52.203125 31.203125 
L 52.203125 0 
L 43.21875 0 
L 43.21875 8.296875 
Q 40.140625 3.328125 35.546875 0.953125 
Q 30.953125 -1.421875 24.3125 -1.421875 
Q 15.921875 -1.421875 10.953125 3.296875 
Q 6 8.015625 6 15.921875 
Q 6 25.140625 12.171875 29.828125 
Q 18.359375 34.515625 30.609375 34.515625 
L 43.21875 34.515625 
L 43.21875 35.40625 
Q 43.21875 41.609375 39.140625 45 
Q 35.0625 48.390625 27.6875 48.390625 
Q 23 48.390625 18.546875 47.265625 
Q 14.109375 46.140625 10.015625 43.890625 
L 10.015625 52.203125 
Q 14.9375 54.109375 19.578125 55.046875 
Q 24.21875 56 28.609375 56 
Q 40.484375 56 46.34375 49.84375 
Q 52.203125 43.703125 52.203125 31.203125 
z
" id="DejaVuSans-97"/>
        <path d="M 54.890625 33.015625 
L 54.890625 0 
L 45.90625 0 
L 45.90625 32.71875 
Q 45.90625 40.484375 42.875 44.328125 
Q 39.84375 48.1875 33.796875 48.1875 
Q 26.515625 48.1875 22.3125 43.546875 
Q 18.109375 38.921875 18.109375 30.90625 
L 18.109375 0 
L 9.078125 0 
L 9.078125 54.6875 
L 18.109375 54.6875 
L 18.109375 46.1875 
Q 21.34375 51.125 25.703125 53.5625 
Q 30.078125 56 35.796875 56 
Q 45.21875 56 50.046875 50.171875 
Q 54.890625 44.34375 54.890625 33.015625 
z
" id="DejaVuSans-110"/>
        <path d="M 19.671875 64.796875 
L 19.671875 37.40625 
L 32.078125 37.40625 
Q 38.96875 37.40625 42.71875 40.96875 
Q 46.484375 44.53125 46.484375 51.125 
Q 46.484375 57.671875 42.71875 61.234375 
Q 38.96875 64.796875 32.078125 64.796875 
z
M 9.8125 72.90625 
L 32.078125 72.90625 
Q 44.34375 72.90625 50.609375 67.359375 
Q 56.890625 61.8125 56.890625 51.125 
Q 56.890625 40.328125 50.609375 34.8125 
Q 44.34375 29.296875 32.078125 29.296875 
L 19.671875 29.296875 
L 19.671875 0 
L 9.8125 0 
z
" id="DejaVuSans-80"/>
        <path d="M 19.671875 64.796875 
L 19.671875 8.109375 
L 31.59375 8.109375 
Q 46.6875 8.109375 53.6875 14.9375 
Q 60.6875 21.78125 60.6875 36.53125 
Q 60.6875 51.171875 53.6875 57.984375 
Q 46.6875 64.796875 31.59375 64.796875 
z
M 9.8125 72.90625 
L 30.078125 72.90625 
Q 51.265625 72.90625 61.171875 64.09375 
Q 71.09375 55.28125 71.09375 36.53125 
Q 71.09375 17.671875 61.125 8.828125 
Q 51.171875 0 30.078125 0 
L 9.8125 0 
z
" id="DejaVuSans-68"/>
       </defs>
       <use xlink:href="#DejaVuSans-77"/>
       <use x="86.279297" xlink:href="#DejaVuSans-101"/>
       <use x="147.802734" xlink:href="#DejaVuSans-97"/>
       <use x="209.082031" xlink:href="#DejaVuSans-110"/>
       <use x="272.460938" xlink:href="#DejaVuSans-80"/>
       <use x="332.763672" xlink:href="#DejaVuSans-68"/>
      </g>
     </g>
    </g>
   </g>
   <g id="matplotlib.axis_2">
    <g id="ytick_1">
     <g id="line2d_2">
      <defs>
       <path d="M 0 0 
L -3.5 0 
" id="mcf6462ab9e" style="stroke:#000000;stroke-width:0.8;"/>
      </defs>
      <g>
       <use style="stroke:#000000;stroke-width:0.8;" x="63" xlink:href="#mcf6462ab9e" y="576.72"/>
      </g>
     </g>
     <g id="text_2">
      <!-- 3.5 -->
      <g transform="translate(31.717187 580.519219)scale(0.1 -0.1)">
       <defs>
        <path d="M 10.59375 35.5 
L 73.1875 35.5 
L 73.1875 27.203125 
L 10.59375 27.203125 
z
" id="DejaVuSans-8722"/>
        <path d="M 40.578125 39.3125 
Q 47.65625 37.796875 51.625 33 
Q 55.609375 28.21875 55.609375 21.1875 
Q 55.609375 10.40625 48.1875 4.484375 
Q 40.765625 -1.421875 27.09375 -1.421875 
Q 22.515625 -1.421875 17.65625 -0.515625 
Q 12.796875 0.390625 7.625 2.203125 
L 7.625 11.71875 
Q 11.71875 9.328125 16.59375 8.109375 
Q 21.484375 6.890625 26.8125 6.890625 
Q 36.078125 6.890625 40.9375 10.546875 
Q 45.796875 14.203125 45.796875 21.1875 
Q 45.796875 27.640625 41.28125 31.265625 
Q 36.765625 34.90625 28.71875 34.90625 
L 20.21875 34.90625 
L 20.21875 43.015625 
L 29.109375 43.015625 
Q 36.375 43.015625 40.234375 45.921875 
Q 44.09375 48.828125 44.09375 54.296875 
Q 44.09375 59.90625 40.109375 62.90625 
Q 36.140625 65.921875 28.71875 65.921875 
Q 24.65625 65.921875 20.015625 65.03125 
Q 15.375 64.15625 9.8125 62.3125 
L 9.8125 71.09375 
Q 15.4375 72.65625 20.34375 73.4375 
Q 25.25 74.21875 29.59375 74.21875 
Q 40.828125 74.21875 47.359375 69.109375 
Q 53.90625 64.015625 53.90625 55.328125 
Q 53.90625 49.265625 50.4375 45.09375 
Q 46.96875 40.921875 40.578125 39.3125 
z
" id="DejaVuSans-51"/>
        <path d="M 10.6875 12.40625 
L 21 12.40625 
L 21 0 
L 10.6875 0 
z
" id="DejaVuSans-46"/>
        <path d="M 10.796875 72.90625 
L 49.515625 72.90625 
L 49.515625 64.59375 
L 19.828125 64.59375 
L 19.828125 46.734375 
Q 21.96875 47.46875 24.109375 47.828125 
Q 26.265625 48.1875 28.421875 48.1875 
Q 40.625 48.1875 47.75 41.5 
Q 54.890625 34.8125 54.890625 23.390625 
Q 54.890625 11.625 47.5625 5.09375 
Q 40.234375 -1.421875 26.90625 -1.421875 
Q 22.3125 -1.421875 17.546875 -0.640625 
Q 12.796875 0.140625 7.71875 1.703125 
L 7.71875 11.625 
Q 12.109375 9.234375 16.796875 8.0625 
Q 21.484375 6.890625 26.703125 6.890625 
Q 35.15625 6.890625 40.078125 11.328125 
Q 45.015625 15.765625 45.015625 23.390625 
Q 45.015625 31 40.078125 35.4375 
Q 35.15625 39.890625 26.703125 39.890625 
Q 22.75 39.890625 18.8125 39.015625 
Q 14.890625 38.140625 10.796875 36.28125 
z
" id="DejaVuSans-53"/>
       </defs>
       <use xlink:href="#DejaVuSans-8722"/>
       <use x="83.789062" xlink:href="#DejaVuSans-51"/>
       <use x="147.412109" xlink:href="#DejaVuSans-46"/>
       <use x="179.199219" xlink:href="#DejaVuSans-53"/>
      </g>
     </g>
    </g>
    <g id="ytick_2">
     <g id="line2d_3">
      <g>
       <use style="stroke:#000000;stroke-width:0.8;" x="63" xlink:href="#mcf6462ab9e" y="538.92"/>
      </g>
     </g>
     <g id="text_3">
      <!-- 3.0 -->
      <g transform="translate(31.717187 542.719219)scale(0.1 -0.1)">
       <defs>
        <path d="M 31.78125 66.40625 
Q 24.171875 66.40625 20.328125 58.90625 
Q 16.5 51.421875 16.5 36.375 
Q 16.5 21.390625 20.328125 13.890625 
Q 24.171875 6.390625 31.78125 6.390625 
Q 39.453125 6.390625 43.28125 13.890625 
Q 47.125 21.390625 47.125 36.375 
Q 47.125 51.421875 43.28125 58.90625 
Q 39.453125 66.40625 31.78125 66.40625 
z
M 31.78125 74.21875 
Q 44.046875 74.21875 50.515625 64.515625 
Q 56.984375 54.828125 56.984375 36.375 
Q 56.984375 17.96875 50.515625 8.265625 
Q 44.046875 -1.421875 31.78125 -1.421875 
Q 19.53125 -1.421875 13.0625 8.265625 
Q 6.59375 17.96875 6.59375 36.375 
Q 6.59375 54.828125 13.0625 64.515625 
Q 19.53125 74.21875 31.78125 74.21875 
z
" id="DejaVuSans-48"/>
       </defs>
       <use xlink:href="#DejaVuSans-8722"/>
       <use x="83.789062" xlink:href="#DejaVuSans-51"/>
       <use x="147.412109" xlink:href="#DejaVuSans-46"/>
       <use x="179.199219" xlink:href="#DejaVuSans-48"/>
      </g>
     </g>
    </g>
    <g id="ytick_3">
     <g id="line2d_4">
      <g>
       <use style="stroke:#000000;stroke-width:0.8;" x="63" xlink:href="#mcf6462ab9e" y="501.12"/>
      </g>
     </g>
     <g id="text_4">
      <!-- 2.5 -->
      <g transform="translate(31.717187 504.919219)scale(0.1 -0.1)">
       <defs>
        <path d="M 19.1875 8.296875 
L 53.609375 8.296875 
L 53.609375 0 
L 7.328125 0 
L 7.328125 8.296875 
Q 12.9375 14.109375 22.625 23.890625 
Q 32.328125 33.6875 34.8125 36.53125 
Q 39.546875 41.84375 41.421875 45.53125 
Q 43.3125 49.21875 43.3125 52.78125 
Q 43.3125 58.59375 39.234375 62.25 
Q 35.15625 65.921875 28.609375 65.921875 
Q 23.96875 65.921875 18.8125 64.3125 
Q 13.671875 62.703125 7.8125 59.421875 
L 7.8125 69.390625 
Q 13.765625 71.78125 18.9375 73 
Q 24.125 74.21875 28.421875 74.21875 
Q 39.75 74.21875 46.484375 68.546875 
Q 53.21875 62.890625 53.21875 53.421875 
Q 53.21875 48.921875 51.53125 44.890625 
Q 49.859375 40.875 45.40625 35.40625 
Q 44.1875 33.984375 37.640625 27.21875 
Q 31.109375 20.453125 19.1875 8.296875 
z
" id="DejaVuSans-50"/>
       </defs>
       <use xlink:href="#DejaVuSans-8722"/>
       <use x="83.789062" xlink:href="#DejaVuSans-50"/>
       <use x="147.412109" xlink:href="#DejaVuSans-46"/>
       <use x="179.199219" xlink:href="#DejaVuSans-53"/>
      </g>
     </g>
    </g>
    <g id="ytick_4">
     <g id="line2d_5">
      <g>
       <use style="stroke:#000000;stroke-width:0.8;" x="63" xlink:href="#mcf6462ab9e" y="463.32"/>
      </g>
     </g>
     <g id="text_5">
      <!-- 2.0 -->
      <g transform="translate(31.717187 467.119219)scale(0.1 -0.1)">
       <use xlink:href="#DejaVuSans-8722"/>
       <use x="83.789062" xlink:href="#DejaVuSans-50"/>
       <use x="147.412109" xlink:href="#DejaVuSans-46"/>
       <use x="179.199219" xlink:href="#DejaVuSans-48"/>
      </g>
     </g>
    </g>
    <g id="ytick_5">
     <g id="line2d_6">
      <g>
       <use style="stroke:#000000;stroke-width:0.8;" x="63" xlink:href="#mcf6462ab9e" y="425.52"/>
      </g>
     </g>
     <g id="text_6">
      <!-- 1.5 -->
      <g transform="translate(31.717187 429.319219)scale(0.1 -0.1)">
       <defs>
        <path d="M 12.40625 8.296875 
L 28.515625 8.296875 
L 28.515625 63.921875 
L 10.984375 60.40625 
L 10.984375 69.390625 
L 28.421875 72.90625 
L 38.28125 72.90625 
L 38.28125 8.296875 
L 54.390625 8.296875 
L 54.390625 0 
L 12.40625 0 
z
" id="DejaVuSans-49"/>
       </defs>
       <use xlink:href="#DejaVuSans-8722"/>
       <use x="83.789062" xlink:href="#DejaVuSans-49"/>
       <use x="147.412109" xlink:href="#DejaVuSans-46"/>
       <use x="179.199219" xlink:href="#DejaVuSans-53"/>
      </g>
     </g>
    </g>
    <g id="ytick_6">
     <g id="line2d_7">
      <g>
       <use style="stroke:#000000;stroke-width:0.8;" x="63" xlink:href="#mcf6462ab9e" y="387.72"/>
      </g>
     </g>
     <g id="text_7">
      <!-- 1.0 -->
      <g transform="translate(31.717187 391.519219)scale(0.1 -0.1)">
       <use xlink:href="#DejaVuSans-8722"/>
       <use x="83.789062" xlink:href="#DejaVuSans-49"/>
       <use x="147.412109" xlink:href="#DejaVuSans-46"/>
       <use x="179.199219" xlink:href="#DejaVuSans-48"/>
      </g>
     </g>
    </g>
    <g id="ytick_7">
     <g id="line2d_8">
      <g>
       <use style="stroke:#000000;stroke-width:0.8;" x="63" xlink:href="#mcf6462ab9e" y="349.92"/>
      </g>
     </g>
     <g id="text_8">
      <!-- 0.5 -->
      <g transform="translate(31.717187 353.719219)scale(0.1 -0.1)">
       <use xlink:href="#DejaVuSans-8722"/>
       <use x="83.789062" xlink:href="#DejaVuSans-48"/>
       <use x="147.412109" xlink:href="#DejaVuSans-46"/>
       <use x="179.199219" xlink:href="#DejaVuSans-53"/>
      </g>
     </g>
    </g>
    <g id="ytick_8">
     <g id="line2d_9">
      <g>
       <use style="stroke:#000000;stroke-width:0.8;" x="63" xlink:href="#mcf6462ab9e" y="312.12"/>
      </g>
     </g>
     <g id="text_9">
      <!-- 0.0 -->
      <g transform="translate(40.096875 315.919219)scale(0.1 -0.1)">
       <use xlink:href="#DejaVuSans-48"/>
       <use x="63.623047" xlink:href="#DejaVuSans-46"/>
       <use x="95.410156" xlink:href="#DejaVuSans-48"/>
      </g>
     </g>
    </g>
    <g id="ytick_9">
     <g id="line2d_10">
      <g>
       <use style="stroke:#000000;stroke-width:0.8;" x="63" xlink:href="#mcf6462ab9e" y="274.32"/>
      </g>
     </g>
     <g id="text_10">
      <!-- 0.5 -->
      <g transform="translate(40.096875 278.119219)scale(0.1 -0.1)">
       <use xlink:href="#DejaVuSans-48"/>
       <use x="63.623047" xlink:href="#DejaVuSans-46"/>
       <use x="95.410156" xlink:href="#DejaVuSans-53"/>
      </g>
     </g>
    </g>
    <g id="ytick_10">
     <g id="line2d_11">
      <g>
       <use style="stroke:#000000;stroke-width:0.8;" x="63" xlink:href="#mcf6462ab9e" y="236.52"/>
      </g>
     </g>
     <g id="text_11">
      <!-- 1.0 -->
      <g transform="translate(40.096875 240.319219)scale(0.1 -0.1)">
       <use xlink:href="#DejaVuSans-49"/>
       <use x="63.623047" xlink:href="#DejaVuSans-46"/>
       <use x="95.410156" xlink:href="#DejaVuSans-48"/>
      </g>
     </g>
    </g>
    <g id="ytick_11">
     <g id="line2d_12">
      <g>
       <use style="stroke:#000000;stroke-width:0.8;" x="63" xlink:href="#mcf6462ab9e" y="198.72"/>
      </g>
     </g>
     <g id="text_12">
      <!-- 1.5 -->
      <g transform="translate(40.096875 202.519219)scale(0.1 -0.1)">
       <use xlink:href="#DejaVuSans-49"/>
       <use x="63.623047" xlink:href="#DejaVuSans-46"/>
       <use x="95.410156" xlink:href="#DejaVuSans-53"/>
      </g>
     </g>
    </g>
    <g id="ytick_12">
     <g id="line2d_13">
      <g>
       <use style="stroke:#000000;stroke-width:0.8;" x="63" xlink:href="#mcf6462ab9e" y="160.92"/>
      </g>
     </g>
     <g id="text_13">
      <!-- 2.0 -->
      <g transform="translate(40.096875 164.719219)scale(0.1 -0.1)">
       <use xlink:href="#DejaVuSans-50"/>
       <use x="63.623047" xlink:href="#DejaVuSans-46"/>
       <use x="95.410156" xlink:href="#DejaVuSans-48"/>
      </g>
     </g>
    </g>
    <g id="ytick_13">
     <g id="line2d_14">
      <g>
       <use style="stroke:#000000;stroke-width:0.8;" x="63" xlink:href="#mcf6462ab9e" y="123.12"/>
      </g>
     </g>
     <g id="text_14">
      <!-- 2.5 -->
      <g transform="translate(40.096875 126.919219)scale(0.1 -0.1)">
       <use xlink:href="#DejaVuSans-50"/>
       <use x="63.623047" xlink:href="#DejaVuSans-46"/>
       <use x="95.410156" xlink:href="#DejaVuSans-53"/>
      </g>
     </g>
    </g>
    <g id="ytick_14">
     <g id="line2d_15">
      <g>
       <use style="stroke:#000000;stroke-width:0.8;" x="63" xlink:href="#mcf6462ab9e" y="85.32"/>
      </g>
     </g>
     <g id="text_15">
      <!-- 3.0 -->
      <g transform="translate(40.096875 89.119219)scale(0.1 -0.1)">
       <use xlink:href="#DejaVuSans-51"/>
       <use x="63.623047" xlink:href="#DejaVuSans-46"/>
       <use x="95.410156" xlink:href="#DejaVuSans-48"/>
      </g>
     </g>
    </g>
    <g id="text_16">
     <!-- LogOdds -->
     <g transform="translate(25.6375 349.061094)rotate(-90)scale(0.1 -0.1)">
      <defs>
       <path d="M 9.8125 72.90625 
L 19.671875 72.90625 
L 19.671875 8.296875 
L 55.171875 8.296875 
L 55.171875 0 
L 9.8125 0 
z
" id="DejaVuSans-76"/>
       <path d="M 30.609375 48.390625 
Q 23.390625 48.390625 19.1875 42.75 
Q 14.984375 37.109375 14.984375 27.296875 
Q 14.984375 17.484375 19.15625 11.84375 
Q 23.34375 6.203125 30.609375 6.203125 
Q 37.796875 6.203125 41.984375 11.859375 
Q 46.1875 17.53125 46.1875 27.296875 
Q 46.1875 37.015625 41.984375 42.703125 
Q 37.796875 48.390625 30.609375 48.390625 
z
M 30.609375 56 
Q 42.328125 56 49.015625 48.375 
Q 55.71875 40.765625 55.71875 27.296875 
Q 55.71875 13.875 49.015625 6.21875 
Q 42.328125 -1.421875 30.609375 -1.421875 
Q 18.84375 -1.421875 12.171875 6.21875 
Q 5.515625 13.875 5.515625 27.296875 
Q 5.515625 40.765625 12.171875 48.375 
Q 18.84375 56 30.609375 56 
z
" id="DejaVuSans-111"/>
       <path d="M 45.40625 27.984375 
Q 45.40625 37.75 41.375 43.109375 
Q 37.359375 48.484375 30.078125 48.484375 
Q 22.859375 48.484375 18.828125 43.109375 
Q 14.796875 37.75 14.796875 27.984375 
Q 14.796875 18.265625 18.828125 12.890625 
Q 22.859375 7.515625 30.078125 7.515625 
Q 37.359375 7.515625 41.375 12.890625 
Q 45.40625 18.265625 45.40625 27.984375 
z
M 54.390625 6.78125 
Q 54.390625 -7.171875 48.1875 -13.984375 
Q 42 -20.796875 29.203125 -20.796875 
Q 24.46875 -20.796875 20.265625 -20.09375 
Q 16.0625 -19.390625 12.109375 -17.921875 
L 12.109375 -9.1875 
Q 16.0625 -11.328125 19.921875 -12.34375 
Q 23.78125 -13.375 27.78125 -13.375 
Q 36.625 -13.375 41.015625 -8.765625 
Q 45.40625 -4.15625 45.40625 5.171875 
L 45.40625 9.625 
Q 42.625 4.78125 38.28125 2.390625 
Q 33.9375 0 27.875 0 
Q 17.828125 0 11.671875 7.65625 
Q 5.515625 15.328125 5.515625 27.984375 
Q 5.515625 40.671875 11.671875 48.328125 
Q 17.828125 56 27.875 56 
Q 33.9375 56 38.28125 53.609375 
Q 42.625 51.21875 45.40625 46.390625 
L 45.40625 54.6875 
L 54.390625 54.6875 
z
" id="DejaVuSans-103"/>
       <path d="M 39.40625 66.21875 
Q 28.65625 66.21875 22.328125 58.203125 
Q 16.015625 50.203125 16.015625 36.375 
Q 16.015625 22.609375 22.328125 14.59375 
Q 28.65625 6.59375 39.40625 6.59375 
Q 50.140625 6.59375 56.421875 14.59375 
Q 62.703125 22.609375 62.703125 36.375 
Q 62.703125 50.203125 56.421875 58.203125 
Q 50.140625 66.21875 39.40625 66.21875 
z
M 39.40625 74.21875 
Q 54.734375 74.21875 63.90625 63.9375 
Q 73.09375 53.65625 73.09375 36.375 
Q 73.09375 19.140625 63.90625 8.859375 
Q 54.734375 -1.421875 39.40625 -1.421875 
Q 24.03125 -1.421875 14.8125 8.828125 
Q 5.609375 19.09375 5.609375 36.375 
Q 5.609375 53.65625 14.8125 63.9375 
Q 24.03125 74.21875 39.40625 74.21875 
z
" id="DejaVuSans-79"/>
       <path d="M 45.40625 46.390625 
L 45.40625 75.984375 
L 54.390625 75.984375 
L 54.390625 0 
L 45.40625 0 
L 45.40625 8.203125 
Q 42.578125 3.328125 38.25 0.953125 
Q 33.9375 -1.421875 27.875 -1.421875 
Q 17.96875 -1.421875 11.734375 6.484375 
Q 5.515625 14.40625 5.515625 27.296875 
Q 5.515625 40.1875 11.734375 48.09375 
Q 17.96875 56 27.875 56 
Q 33.9375 56 38.25 53.625 
Q 42.578125 51.265625 45.40625 46.390625 
z
M 14.796875 27.296875 
Q 14.796875 17.390625 18.875 11.75 
Q 22.953125 6.109375 30.078125 6.109375 
Q 37.203125 6.109375 41.296875 11.75 
Q 45.40625 17.390625 45.40625 27.296875 
Q 45.40625 37.203125 41.296875 42.84375 
Q 37.203125 48.484375 30.078125 48.484375 
Q 22.953125 48.484375 18.875 42.84375 
Q 14.796875 37.203125 14.796875 27.296875 
z
" id="DejaVuSans-100"/>
       <path d="M 44.28125 53.078125 
L 44.28125 44.578125 
Q 40.484375 46.53125 36.375 47.5 
Q 32.28125 48.484375 27.875 48.484375 
Q 21.1875 48.484375 17.84375 46.4375 
Q 14.5 44.390625 14.5 40.28125 
Q 14.5 37.15625 16.890625 35.375 
Q 19.28125 33.59375 26.515625 31.984375 
L 29.59375 31.296875 
Q 39.15625 29.25 43.1875 25.515625 
Q 47.21875 21.78125 47.21875 15.09375 
Q 47.21875 7.46875 41.1875 3.015625 
Q 35.15625 -1.421875 24.609375 -1.421875 
Q 20.21875 -1.421875 15.453125 -0.5625 
Q 10.6875 0.296875 5.421875 2 
L 5.421875 11.28125 
Q 10.40625 8.6875 15.234375 7.390625 
Q 20.0625 6.109375 24.8125 6.109375 
Q 31.15625 6.109375 34.5625 8.28125 
Q 37.984375 10.453125 37.984375 14.40625 
Q 37.984375 18.0625 35.515625 20.015625 
Q 33.0625 21.96875 24.703125 23.78125 
L 21.578125 24.515625 
Q 13.234375 26.265625 9.515625 29.90625 
Q 5.8125 33.546875 5.8125 39.890625 
Q 5.8125 47.609375 11.28125 51.796875 
Q 16.75 56 26.8125 56 
Q 31.78125 56 36.171875 55.265625 
Q 40.578125 54.546875 44.28125 53.078125 
z
" id="DejaVuSans-115"/>
      </defs>
      <use xlink:href="#DejaVuSans-76"/>
      <use x="53.962891" xlink:href="#DejaVuSans-111"/>
      <use x="115.144531" xlink:href="#DejaVuSans-103"/>
      <use x="178.621094" xlink:href="#DejaVuSans-79"/>
      <use x="257.332031" xlink:href="#DejaVuSans-100"/>
      <use x="320.808594" xlink:href="#DejaVuSans-100"/>
      <use x="384.285156" xlink:href="#DejaVuSans-115"/>
     </g>
    </g>
   </g>
   <g id="line2d_16">
    <path clip-path="url(#p86153458a0)" d="M 229.005 304.775702 
L 287.595 304.775702 
L 287.595 254.406232 
L 229.005 254.406232 
L 229.005 304.775702 
" style="fill:none;stroke:#000000;stroke-linecap:square;"/>
   </g>
   <g id="line2d_17">
    <path clip-path="url(#p86153458a0)" d="M 258.3 304.775702 
L 258.3 365.38004 
" style="fill:none;stroke:#000000;stroke-linecap:square;"/>
   </g>
   <g id="line2d_18">
    <path clip-path="url(#p86153458a0)" d="M 258.3 254.406232 
L 258.3 183.599582 
" style="fill:none;stroke:#000000;stroke-linecap:square;"/>
   </g>
   <g id="line2d_19">
    <path clip-path="url(#p86153458a0)" d="M 243.6525 365.38004 
L 272.9475 365.38004 
" style="fill:none;stroke:#000000;stroke-linecap:square;"/>
   </g>
   <g id="line2d_20">
    <path clip-path="url(#p86153458a0)" d="M 243.6525 183.599582 
L 272.9475 183.599582 
" style="fill:none;stroke:#000000;stroke-linecap:square;"/>
   </g>
   <g id="line2d_21">
    <path clip-path="url(#p86153458a0)" d="M 229.005 276.276687 
L 287.595 276.276687 
" style="fill:none;stroke:#ff7f0e;stroke-linecap:square;"/>
   </g>
   <g id="patch_3">
    <path d="M 63 576.72 
L 63 77.76 
" style="fill:none;stroke:#000000;stroke-linecap:square;stroke-linejoin:miter;stroke-width:0.8;"/>
   </g>
   <g id="patch_4">
    <path d="M 453.6 576.72 
L 453.6 77.76 
" style="fill:none;stroke:#000000;stroke-linecap:square;stroke-linejoin:miter;stroke-width:0.8;"/>
   </g>
   <g id="patch_5">
    <path d="M 63 576.72 
L 453.6 576.72 
" style="fill:none;stroke:#000000;stroke-linecap:square;stroke-linejoin:miter;stroke-width:0.8;"/>
   </g>
   <g id="patch_6">
    <path d="M 63 77.76 
L 453.6 77.76 
" style="fill:none;stroke:#000000;stroke-linecap:square;stroke-linejoin:miter;stroke-width:0.8;"/>
   </g>
   <g id="text_17">
    <!-- 0.0 -->
    <g style="fill:#2f4f4f;" transform="translate(267.656711 248.727777)scale(0.1 -0.1)">
     <use xlink:href="#DejaVuSans-48"/>
     <use x="63.623047" xlink:href="#DejaVuSans-46"/>
     <use x="95.410156" xlink:href="#DejaVuSans-48"/>
    </g>
   </g>
   <g id="text_18">
    <!-- 1 -->
    <g style="fill:#556b2f;" transform="translate(249.243542 271.442843)scale(0.1 -0.1)">
     <use xlink:href="#DejaVuSans-49"/>
    </g>
   </g>
   <g id="text_19">
    <!-- 2 -->
    <g style="fill:#8b4513;" transform="translate(262.157149 298.561217)scale(0.1 -0.1)">
     <use xlink:href="#DejaVuSans-50"/>
    </g>
   </g>
   <g id="text_20">
    <!-- 3 -->
    <g style="fill:#2e8b57;" transform="translate(265.445524 318.427904)scale(0.1 -0.1)">
     <use xlink:href="#DejaVuSans-51"/>
    </g>
   </g>
   <g id="text_21">
    <!-- 4.0 -->
    <g style="fill:#228b22;" transform="translate(203.037911 306.077606)scale(0.1 -0.1)">
     <defs>
      <path d="M 37.796875 64.3125 
L 12.890625 25.390625 
L 37.796875 25.390625 
z
M 35.203125 72.90625 
L 47.609375 72.90625 
L 47.609375 25.390625 
L 58.015625 25.390625 
L 58.015625 17.1875 
L 47.609375 17.1875 
L 47.609375 0 
L 37.796875 0 
L 37.796875 17.1875 
L 4.890625 17.1875 
L 4.890625 26.703125 
z
" id="DejaVuSans-52"/>
     </defs>
     <use xlink:href="#DejaVuSans-52"/>
     <use x="63.623047" xlink:href="#DejaVuSans-46"/>
     <use x="95.410156" xlink:href="#DejaVuSans-48"/>
    </g>
   </g>
   <g id="text_22">
    <!-- 5.0 -->
    <g style="fill:#708090;" transform="translate(271.685856 364.62404)scale(0.1 -0.1)">
     <use xlink:href="#DejaVuSans-53"/>
     <use x="63.623047" xlink:href="#DejaVuSans-46"/>
     <use x="95.410156" xlink:href="#DejaVuSans-48"/>
    </g>
   </g>
   <g id="text_23">
    <!-- 6.0 -->
    <g style="fill:#8b0000;" transform="translate(263.146607 306.781118)scale(0.1 -0.1)">
     <defs>
      <path d="M 33.015625 40.375 
Q 26.375 40.375 22.484375 35.828125 
Q 18.609375 31.296875 18.609375 23.390625 
Q 18.609375 15.53125 22.484375 10.953125 
Q 26.375 6.390625 33.015625 6.390625 
Q 39.65625 6.390625 43.53125 10.953125 
Q 47.40625 15.53125 47.40625 23.390625 
Q 47.40625 31.296875 43.53125 35.828125 
Q 39.65625 40.375 33.015625 40.375 
z
M 52.59375 71.296875 
L 52.59375 62.3125 
Q 48.875 64.0625 45.09375 64.984375 
Q 41.3125 65.921875 37.59375 65.921875 
Q 27.828125 65.921875 22.671875 59.328125 
Q 17.53125 52.734375 16.796875 39.40625 
Q 19.671875 43.65625 24.015625 45.921875 
Q 28.375 48.1875 33.59375 48.1875 
Q 44.578125 48.1875 50.953125 41.515625 
Q 57.328125 34.859375 57.328125 23.390625 
Q 57.328125 12.15625 50.6875 5.359375 
Q 44.046875 -1.421875 33.015625 -1.421875 
Q 20.359375 -1.421875 13.671875 8.265625 
Q 6.984375 17.96875 6.984375 36.375 
Q 6.984375 53.65625 15.1875 63.9375 
Q 23.390625 74.21875 37.203125 74.21875 
Q 40.921875 74.21875 44.703125 73.484375 
Q 48.484375 72.75 52.59375 71.296875 
z
" id="DejaVuSans-54"/>
     </defs>
     <use xlink:href="#DejaVuSans-54"/>
     <use x="63.623047" xlink:href="#DejaVuSans-46"/>
     <use x="95.410156" xlink:href="#DejaVuSans-48"/>
    </g>
   </g>
   <g id="text_24">
    <!-- 7 -->
    <g style="fill:#808000;" transform="translate(255.075499 303.923659)scale(0.1 -0.1)">
     <defs>
      <path d="M 8.203125 72.90625 
L 55.078125 72.90625 
L 55.078125 68.703125 
L 28.609375 0 
L 18.3125 0 
L 43.21875 64.59375 
L 8.203125 64.59375 
z
" id="DejaVuSans-55"/>
     </defs>
     <use xlink:href="#DejaVuSans-55"/>
    </g>
   </g>
   <g id="text_25">
    <!-- 8 -->
    <g style="fill:#483d8b;" transform="translate(265.767081 252.539745)scale(0.1 -0.1)">
     <defs>
      <path d="M 31.78125 34.625 
Q 24.75 34.625 20.71875 30.859375 
Q 16.703125 27.09375 16.703125 20.515625 
Q 16.703125 13.921875 20.71875 10.15625 
Q 24.75 6.390625 31.78125 6.390625 
Q 38.8125 6.390625 42.859375 10.171875 
Q 46.921875 13.96875 46.921875 20.515625 
Q 46.921875 27.09375 42.890625 30.859375 
Q 38.875 34.625 31.78125 34.625 
z
M 21.921875 38.8125 
Q 15.578125 40.375 12.03125 44.71875 
Q 8.5 49.078125 8.5 55.328125 
Q 8.5 64.0625 14.71875 69.140625 
Q 20.953125 74.21875 31.78125 74.21875 
Q 42.671875 74.21875 48.875 69.140625 
Q 55.078125 64.0625 55.078125 55.328125 
Q 55.078125 49.078125 51.53125 44.71875 
Q 48 40.375 41.703125 38.8125 
Q 48.828125 37.15625 52.796875 32.3125 
Q 56.78125 27.484375 56.78125 20.515625 
Q 56.78125 9.90625 50.3125 4.234375 
Q 43.84375 -1.421875 31.78125 -1.421875 
Q 19.734375 -1.421875 13.25 4.234375 
Q 6.78125 9.90625 6.78125 20.515625 
Q 6.78125 27.484375 10.78125 32.3125 
Q 14.796875 37.15625 21.921875 38.8125 
z
M 18.3125 54.390625 
Q 18.3125 48.734375 21.84375 45.5625 
Q 25.390625 42.390625 31.78125 42.390625 
Q 38.140625 42.390625 41.71875 45.5625 
Q 45.3125 48.734375 45.3125 54.390625 
Q 45.3125 60.0625 41.71875 63.234375 
Q 38.140625 66.40625 31.78125 66.40625 
Q 25.390625 66.40625 21.84375 63.234375 
Q 18.3125 60.0625 18.3125 54.390625 
z
" id="DejaVuSans-56"/>
     </defs>
     <use xlink:href="#DejaVuSans-56"/>
    </g>
   </g>
   <g id="text_26">
    <!-- 9.0 -->
    <g style="fill:#008080;" transform="translate(246.547151 325.885459)scale(0.1 -0.1)">
     <defs>
      <path d="M 10.984375 1.515625 
L 10.984375 10.5 
Q 14.703125 8.734375 18.5 7.8125 
Q 22.3125 6.890625 25.984375 6.890625 
Q 35.75 6.890625 40.890625 13.453125 
Q 46.046875 20.015625 46.78125 33.40625 
Q 43.953125 29.203125 39.59375 26.953125 
Q 35.25 24.703125 29.984375 24.703125 
Q 19.046875 24.703125 12.671875 31.3125 
Q 6.296875 37.9375 6.296875 49.421875 
Q 6.296875 60.640625 12.9375 67.421875 
Q 19.578125 74.21875 30.609375 74.21875 
Q 43.265625 74.21875 49.921875 64.515625 
Q 56.59375 54.828125 56.59375 36.375 
Q 56.59375 19.140625 48.40625 8.859375 
Q 40.234375 -1.421875 26.421875 -1.421875 
Q 22.703125 -1.421875 18.890625 -0.6875 
Q 15.09375 0.046875 10.984375 1.515625 
z
M 30.609375 32.421875 
Q 37.25 32.421875 41.125 36.953125 
Q 45.015625 41.5 45.015625 49.421875 
Q 45.015625 57.28125 41.125 61.84375 
Q 37.25 66.40625 30.609375 66.40625 
Q 23.96875 66.40625 20.09375 61.84375 
Q 16.21875 57.28125 16.21875 49.421875 
Q 16.21875 41.5 20.09375 36.953125 
Q 23.96875 32.421875 30.609375 32.421875 
z
" id="DejaVuSans-57"/>
     </defs>
     <use xlink:href="#DejaVuSans-57"/>
     <use x="63.623047" xlink:href="#DejaVuSans-46"/>
     <use x="95.410156" xlink:href="#DejaVuSans-48"/>
    </g>
   </g>
   <g id="text_27">
    <!-- 10.0 -->
    <g style="fill:#b8860b;" transform="translate(255.425529 257.264745)scale(0.1 -0.1)">
     <use xlink:href="#DejaVuSans-49"/>
     <use x="63.623047" xlink:href="#DejaVuSans-48"/>
     <use x="127.246094" xlink:href="#DejaVuSans-46"/>
     <use x="159.033203" xlink:href="#DejaVuSans-48"/>
    </g>
   </g>
   <g id="text_28">
    <!-- 11 -->
    <g style="fill:#4682b4;" transform="translate(282.535422 246.888142)scale(0.1 -0.1)">
     <use xlink:href="#DejaVuSans-49"/>
     <use x="63.623047" xlink:href="#DejaVuSans-49"/>
    </g>
   </g>
   <g id="text_29">
    <!-- 12 -->
    <g style="fill:#d2691e;" transform="translate(269.271435 281.608816)scale(0.1 -0.1)">
     <use xlink:href="#DejaVuSans-49"/>
     <use x="63.623047" xlink:href="#DejaVuSans-50"/>
    </g>
   </g>
   <g id="text_30">
    <!-- 13 -->
    <g style="fill:#9acd32;" transform="translate(258.015608 304.927969)scale(0.1 -0.1)">
     <use xlink:href="#DejaVuSans-49"/>
     <use x="63.623047" xlink:href="#DejaVuSans-51"/>
    </g>
   </g>
   <g id="text_31">
    <!-- 14.0 -->
    <g style="fill:#32cd32;" transform="translate(258.883418 321.332116)scale(0.1 -0.1)">
     <use xlink:href="#DejaVuSans-49"/>
     <use x="63.623047" xlink:href="#DejaVuSans-52"/>
     <use x="127.246094" xlink:href="#DejaVuSans-46"/>
     <use x="159.033203" xlink:href="#DejaVuSans-48"/>
    </g>
   </g>
   <g id="text_32">
    <!-- 15 -->
    <g style="fill:#8fbc8f;" transform="translate(254.602732 274.328929)scale(0.1 -0.1)">
     <use xlink:href="#DejaVuSans-49"/>
     <use x="63.623047" xlink:href="#DejaVuSans-53"/>
    </g>
   </g>
   <g id="text_33">
    <!-- 16 -->
    <g style="fill:#800080;" transform="translate(250.383715 232.974887)scale(0.1 -0.1)">
     <use xlink:href="#DejaVuSans-49"/>
     <use x="63.623047" xlink:href="#DejaVuSans-54"/>
    </g>
   </g>
   <g id="text_34">
    <!-- 17.0 -->
    <g style="fill:#b03060;" transform="translate(253.315109 303.381362)scale(0.1 -0.1)">
     <use xlink:href="#DejaVuSans-49"/>
     <use x="63.623047" xlink:href="#DejaVuSans-55"/>
     <use x="127.246094" xlink:href="#DejaVuSans-46"/>
     <use x="159.033203" xlink:href="#DejaVuSans-48"/>
    </g>
   </g>
   <g id="text_35">
    <!-- 18 -->
    <g style="fill:#9932cc;" transform="translate(263.258565 253.165545)scale(0.1 -0.1)">
     <use xlink:href="#DejaVuSans-49"/>
     <use x="63.623047" xlink:href="#DejaVuSans-56"/>
    </g>
   </g>
   <g id="text_36">
    <!-- 19.0 -->
    <g style="fill:#ff4500;" transform="translate(261.888595 338.916178)scale(0.1 -0.1)">
     <use xlink:href="#DejaVuSans-49"/>
     <use x="63.623047" xlink:href="#DejaVuSans-57"/>
     <use x="127.246094" xlink:href="#DejaVuSans-46"/>
     <use x="159.033203" xlink:href="#DejaVuSans-48"/>
    </g>
   </g>
   <g id="text_37">
    <!-- 20.0 -->
    <g style="fill:#00ced1;" transform="translate(248.598852 261.517563)scale(0.1 -0.1)">
     <use xlink:href="#DejaVuSans-50"/>
     <use x="63.623047" xlink:href="#DejaVuSans-48"/>
     <use x="127.246094" xlink:href="#DejaVuSans-46"/>
     <use x="159.033203" xlink:href="#DejaVuSans-48"/>
    </g>
   </g>
   <g id="text_38">
    <!-- 21.0 -->
    <g style="fill:#ff8c00;" transform="translate(255.211924 238.360915)scale(0.1 -0.1)">
     <use xlink:href="#DejaVuSans-50"/>
     <use x="63.623047" xlink:href="#DejaVuSans-49"/>
     <use x="127.246094" xlink:href="#DejaVuSans-46"/>
     <use x="159.033203" xlink:href="#DejaVuSans-48"/>
    </g>
   </g>
   <g id="text_39">
    <!-- 22.0 -->
    <g style="fill:#ffd700;" transform="translate(270.19362 235.19943)scale(0.1 -0.1)">
     <use xlink:href="#DejaVuSans-50"/>
     <use x="63.623047" xlink:href="#DejaVuSans-50"/>
     <use x="127.246094" xlink:href="#DejaVuSans-46"/>
     <use x="159.033203" xlink:href="#DejaVuSans-48"/>
    </g>
   </g>
   <g id="text_40">
    <!-- 23 -->
    <g style="fill:#0000cd;" transform="translate(238.720562 271.546483)scale(0.1 -0.1)">
     <use xlink:href="#DejaVuSans-50"/>
     <use x="63.623047" xlink:href="#DejaVuSans-51"/>
    </g>
   </g>
   <g id="text_41">
    <!-- 24 -->
    <g style="fill:#deb887;" transform="translate(250.629704 300.575968)scale(0.1 -0.1)">
     <use xlink:href="#DejaVuSans-50"/>
     <use x="63.623047" xlink:href="#DejaVuSans-52"/>
    </g>
   </g>
   <g id="text_42">
    <!-- 25 -->
    <g style="fill:#00ff00;" transform="translate(250.346977 269.483215)scale(0.1 -0.1)">
     <use xlink:href="#DejaVuSans-50"/>
     <use x="63.623047" xlink:href="#DejaVuSans-53"/>
    </g>
   </g>
   <g id="text_43">
    <!-- 26.0 -->
    <g style="fill:#00fa9a;" transform="translate(285.720036 269.85769)scale(0.1 -0.1)">
     <use xlink:href="#DejaVuSans-50"/>
     <use x="63.623047" xlink:href="#DejaVuSans-54"/>
     <use x="127.246094" xlink:href="#DejaVuSans-46"/>
     <use x="159.033203" xlink:href="#DejaVuSans-48"/>
    </g>
   </g>
   <g id="text_44">
    <!-- 27 -->
    <g style="fill:#dc143c;" transform="translate(264.364963 283.282014)scale(0.1 -0.1)">
     <use xlink:href="#DejaVuSans-50"/>
     <use x="63.623047" xlink:href="#DejaVuSans-55"/>
    </g>
   </g>
   <g id="text_45">
    <!-- 28 -->
    <g style="fill:#00bfff;" transform="translate(253.616584 286.867474)scale(0.1 -0.1)">
     <use xlink:href="#DejaVuSans-50"/>
     <use x="63.623047" xlink:href="#DejaVuSans-56"/>
    </g>
   </g>
   <g id="text_46">
    <!-- 29 -->
    <g style="fill:#f4a460;" transform="translate(257.465931 293.13527)scale(0.1 -0.1)">
     <use xlink:href="#DejaVuSans-50"/>
     <use x="63.623047" xlink:href="#DejaVuSans-57"/>
    </g>
   </g>
   <g id="text_47">
    <!-- 30 -->
    <g style="fill:#0000ff;" transform="translate(257.763931 253.918148)scale(0.1 -0.1)">
     <use xlink:href="#DejaVuSans-51"/>
     <use x="63.623047" xlink:href="#DejaVuSans-48"/>
    </g>
   </g>
   <g id="text_48">
    <!-- 31 -->
    <g style="fill:#a020f0;" transform="translate(269.95988 291.369889)scale(0.1 -0.1)">
     <use xlink:href="#DejaVuSans-51"/>
     <use x="63.623047" xlink:href="#DejaVuSans-49"/>
    </g>
   </g>
   <g id="text_49">
    <!-- 32 -->
    <g style="fill:#adff2f;" transform="translate(255.565114 202.620372)scale(0.1 -0.1)">
     <use xlink:href="#DejaVuSans-51"/>
     <use x="63.623047" xlink:href="#DejaVuSans-50"/>
    </g>
   </g>
   <g id="text_50">
    <!-- 33.0 -->
    <g style="fill:#ff6347;" transform="translate(261.915817 269.996871)scale(0.1 -0.1)">
     <use xlink:href="#DejaVuSans-51"/>
     <use x="63.623047" xlink:href="#DejaVuSans-51"/>
     <use x="127.246094" xlink:href="#DejaVuSans-46"/>
     <use x="159.033203" xlink:href="#DejaVuSans-48"/>
    </g>
   </g>
   <g id="text_51">
    <!-- 34 -->
    <g style="fill:#da70d6;" transform="translate(253.547293 340.756341)scale(0.1 -0.1)">
     <use xlink:href="#DejaVuSans-51"/>
     <use x="63.623047" xlink:href="#DejaVuSans-52"/>
    </g>
   </g>
   <g id="text_52">
    <!-- 35 -->
    <g style="fill:#b0c4de;" transform="translate(248.055719 256.259096)scale(0.1 -0.1)">
     <use xlink:href="#DejaVuSans-51"/>
     <use x="63.623047" xlink:href="#DejaVuSans-53"/>
    </g>
   </g>
   <g id="text_53">
    <!-- 47.1 -->
    <g style="fill:#ff00ff;" transform="translate(296.840368 320.327629)scale(0.1 -0.1)">
     <use xlink:href="#DejaVuSans-52"/>
     <use x="63.623047" xlink:href="#DejaVuSans-55"/>
     <use x="127.246094" xlink:href="#DejaVuSans-46"/>
     <use x="159.033203" xlink:href="#DejaVuSans-49"/>
    </g>
   </g>
   <g id="text_54">
    <!-- 36.0 -->
    <g style="fill:#f0e68c;" transform="translate(271.545179 280.133339)scale(0.1 -0.1)">
     <use xlink:href="#DejaVuSans-51"/>
     <use x="63.623047" xlink:href="#DejaVuSans-54"/>
     <use x="127.246094" xlink:href="#DejaVuSans-46"/>
     <use x="159.033203" xlink:href="#DejaVuSans-48"/>
    </g>
   </g>
   <g id="text_55">
    <!-- 37 -->
    <g style="fill:#fa8072;" transform="translate(222.616722 277.054314)scale(0.1 -0.1)">
     <use xlink:href="#DejaVuSans-51"/>
     <use x="63.623047" xlink:href="#DejaVuSans-55"/>
    </g>
   </g>
   <g id="text_56">
    <!-- 38.0 -->
    <g style="fill:#ffff54;" transform="translate(287.11887 238.014036)scale(0.1 -0.1)">
     <use xlink:href="#DejaVuSans-51"/>
     <use x="63.623047" xlink:href="#DejaVuSans-56"/>
     <use x="127.246094" xlink:href="#DejaVuSans-46"/>
     <use x="159.033203" xlink:href="#DejaVuSans-48"/>
    </g>
   </g>
   <g id="text_57">
    <!-- 39.0 -->
    <g style="fill:#6495ed;" transform="translate(253.154741 326.026439)scale(0.1 -0.1)">
     <use xlink:href="#DejaVuSans-51"/>
     <use x="63.623047" xlink:href="#DejaVuSans-57"/>
     <use x="127.246094" xlink:href="#DejaVuSans-46"/>
     <use x="159.033203" xlink:href="#DejaVuSans-48"/>
    </g>
   </g>
   <g id="text_58">
    <!-- 40 -->
    <g style="fill:#dda0dd;" transform="translate(229.638523 263.332909)scale(0.1 -0.1)">
     <use xlink:href="#DejaVuSans-52"/>
     <use x="63.623047" xlink:href="#DejaVuSans-48"/>
    </g>
   </g>
   <g id="text_59">
    <!-- 41.0 -->
    <g style="fill:#90ee90;" transform="translate(252.865654 275.625734)scale(0.1 -0.1)">
     <use xlink:href="#DejaVuSans-52"/>
     <use x="63.623047" xlink:href="#DejaVuSans-49"/>
     <use x="127.246094" xlink:href="#DejaVuSans-46"/>
     <use x="159.033203" xlink:href="#DejaVuSans-48"/>
    </g>
   </g>
   <g id="text_60">
    <!-- 41.1 -->
    <g style="fill:#7b68ee;" transform="translate(264.892041 272.76811)scale(0.1 -0.1)">
     <use xlink:href="#DejaVuSans-52"/>
     <use x="63.623047" xlink:href="#DejaVuSans-49"/>
     <use x="127.246094" xlink:href="#DejaVuSans-46"/>
     <use x="159.033203" xlink:href="#DejaVuSans-49"/>
    </g>
   </g>
   <g id="text_61">
    <!-- 42 -->
    <g style="fill:#afeeee;" transform="translate(283.298397 296.958524)scale(0.1 -0.1)">
     <use xlink:href="#DejaVuSans-52"/>
     <use x="63.623047" xlink:href="#DejaVuSans-50"/>
    </g>
   </g>
   <g id="text_62">
    <!-- 39.1 -->
    <g style="fill:#7fffd4;" transform="translate(250.784903 329.886107)scale(0.1 -0.1)">
     <use xlink:href="#DejaVuSans-51"/>
     <use x="63.623047" xlink:href="#DejaVuSans-57"/>
     <use x="127.246094" xlink:href="#DejaVuSans-46"/>
     <use x="159.033203" xlink:href="#DejaVuSans-49"/>
    </g>
   </g>
   <g id="text_63">
    <!-- 43 -->
    <g style="fill:#ff69b4;" transform="translate(231.460974 274.108495)scale(0.1 -0.1)">
     <use xlink:href="#DejaVuSans-52"/>
     <use x="63.623047" xlink:href="#DejaVuSans-51"/>
    </g>
   </g>
   <g id="text_64">
    <!-- 38.1 -->
    <g style="fill:#ffb6c1;" transform="translate(254.40453 337.248173)scale(0.1 -0.1)">
     <use xlink:href="#DejaVuSans-51"/>
     <use x="63.623047" xlink:href="#DejaVuSans-56"/>
     <use x="127.246094" xlink:href="#DejaVuSans-46"/>
     <use x="159.033203" xlink:href="#DejaVuSans-49"/>
    </g>
   </g>
   <g id="text_65">
    <!-- 44 -->
    <g style="fill:#2f4f4f;" transform="translate(288.46243 295.972218)scale(0.1 -0.1)">
     <use xlink:href="#DejaVuSans-52"/>
     <use x="63.623047" xlink:href="#DejaVuSans-52"/>
    </g>
   </g>
   <g id="text_66">
    <!-- 45 -->
    <g style="fill:#556b2f;" transform="translate(258.758079 261.553173)scale(0.1 -0.1)">
     <use xlink:href="#DejaVuSans-52"/>
     <use x="63.623047" xlink:href="#DejaVuSans-53"/>
    </g>
   </g>
   <g id="text_67">
    <!-- 36.1 -->
    <g style="fill:#8b4513;" transform="translate(262.146882 280.529995)scale(0.1 -0.1)">
     <use xlink:href="#DejaVuSans-51"/>
     <use x="63.623047" xlink:href="#DejaVuSans-54"/>
     <use x="127.246094" xlink:href="#DejaVuSans-46"/>
     <use x="159.033203" xlink:href="#DejaVuSans-49"/>
    </g>
   </g>
   <g id="text_68">
    <!-- 46 -->
    <g style="fill:#2e8b57;" transform="translate(266.604755 295.273198)scale(0.1 -0.1)">
     <use xlink:href="#DejaVuSans-52"/>
     <use x="63.623047" xlink:href="#DejaVuSans-54"/>
    </g>
   </g>
   <g id="text_69">
    <!-- 47.0 -->
    <g style="fill:#228b22;" transform="translate(250.919154 346.700669)scale(0.1 -0.1)">
     <use xlink:href="#DejaVuSans-52"/>
     <use x="63.623047" xlink:href="#DejaVuSans-55"/>
     <use x="127.246094" xlink:href="#DejaVuSans-46"/>
     <use x="159.033203" xlink:href="#DejaVuSans-48"/>
    </g>
   </g>
   <g id="text_70">
    <!-- 48 -->
    <g style="fill:#708090;" transform="translate(255.925251 275.41564)scale(0.1 -0.1)">
     <use xlink:href="#DejaVuSans-52"/>
     <use x="63.623047" xlink:href="#DejaVuSans-56"/>
    </g>
   </g>
   <g id="text_71">
    <!-- 33.1 -->
    <g style="fill:#8b0000;" transform="translate(298.607701 304.307833)scale(0.1 -0.1)">
     <use xlink:href="#DejaVuSans-51"/>
     <use x="63.623047" xlink:href="#DejaVuSans-51"/>
     <use x="127.246094" xlink:href="#DejaVuSans-46"/>
     <use x="159.033203" xlink:href="#DejaVuSans-49"/>
    </g>
   </g>
   <g id="text_72">
    <!-- 26.2 -->
    <g style="fill:#808000;" transform="translate(245.261993 209.743159)scale(0.1 -0.1)">
     <use xlink:href="#DejaVuSans-50"/>
     <use x="63.623047" xlink:href="#DejaVuSans-54"/>
     <use x="127.246094" xlink:href="#DejaVuSans-46"/>
     <use x="159.033203" xlink:href="#DejaVuSans-50"/>
    </g>
   </g>
   <g id="text_73">
    <!-- 22.1 -->
    <g style="fill:#008080;" transform="translate(239.946957 287.574207)scale(0.1 -0.1)">
     <use xlink:href="#DejaVuSans-50"/>
     <use x="63.623047" xlink:href="#DejaVuSans-50"/>
     <use x="127.246094" xlink:href="#DejaVuSans-46"/>
     <use x="159.033203" xlink:href="#DejaVuSans-49"/>
    </g>
   </g>
   <g id="text_74">
    <!-- 19.3 -->
    <g style="fill:#b8860b;" transform="translate(265.170723 310.68751)scale(0.1 -0.1)">
     <use xlink:href="#DejaVuSans-49"/>
     <use x="63.623047" xlink:href="#DejaVuSans-57"/>
     <use x="127.246094" xlink:href="#DejaVuSans-46"/>
     <use x="159.033203" xlink:href="#DejaVuSans-51"/>
    </g>
   </g>
   <g id="text_75">
    <!-- 20.2 -->
    <g style="fill:#4682b4;" transform="translate(253.4195 253.811795)scale(0.1 -0.1)">
     <use xlink:href="#DejaVuSans-50"/>
     <use x="63.623047" xlink:href="#DejaVuSans-48"/>
     <use x="127.246094" xlink:href="#DejaVuSans-46"/>
     <use x="159.033203" xlink:href="#DejaVuSans-50"/>
    </g>
   </g>
   <g id="text_76">
    <!-- 21.1 -->
    <g style="fill:#d2691e;" transform="translate(244.103988 274.57444)scale(0.1 -0.1)">
     <use xlink:href="#DejaVuSans-50"/>
     <use x="63.623047" xlink:href="#DejaVuSans-49"/>
     <use x="127.246094" xlink:href="#DejaVuSans-46"/>
     <use x="159.033203" xlink:href="#DejaVuSans-49"/>
    </g>
   </g>
   <g id="text_77">
    <!-- 20.1 -->
    <g style="fill:#32cd32;" transform="translate(270.308197 241.911857)scale(0.1 -0.1)">
     <use xlink:href="#DejaVuSans-50"/>
     <use x="63.623047" xlink:href="#DejaVuSans-48"/>
     <use x="127.246094" xlink:href="#DejaVuSans-46"/>
     <use x="159.033203" xlink:href="#DejaVuSans-49"/>
    </g>
   </g>
   <g id="text_78">
    <!-- 19.1 -->
    <g style="fill:#8fbc8f;" transform="translate(261.981721 237.814754)scale(0.1 -0.1)">
     <use xlink:href="#DejaVuSans-49"/>
     <use x="63.623047" xlink:href="#DejaVuSans-57"/>
     <use x="127.246094" xlink:href="#DejaVuSans-46"/>
     <use x="159.033203" xlink:href="#DejaVuSans-49"/>
    </g>
   </g>
   <g id="text_79">
    <!-- 17.1 -->
    <g style="fill:#800080;" transform="translate(278.176536 220.331333)scale(0.1 -0.1)">
     <use xlink:href="#DejaVuSans-49"/>
     <use x="63.623047" xlink:href="#DejaVuSans-55"/>
     <use x="127.246094" xlink:href="#DejaVuSans-46"/>
     <use x="159.033203" xlink:href="#DejaVuSans-49"/>
    </g>
   </g>
   <g id="text_80">
    <!-- 14.2 -->
    <g style="fill:#b03060;" transform="translate(249.773139 278.090098)scale(0.1 -0.1)">
     <use xlink:href="#DejaVuSans-49"/>
     <use x="63.623047" xlink:href="#DejaVuSans-52"/>
     <use x="127.246094" xlink:href="#DejaVuSans-46"/>
     <use x="159.033203" xlink:href="#DejaVuSans-50"/>
    </g>
   </g>
   <g id="text_81">
    <!-- 14.1 -->
    <g style="fill:#9932cc;" transform="translate(253.689119 211.081304)scale(0.1 -0.1)">
     <use xlink:href="#DejaVuSans-49"/>
     <use x="63.623047" xlink:href="#DejaVuSans-52"/>
     <use x="127.246094" xlink:href="#DejaVuSans-46"/>
     <use x="159.033203" xlink:href="#DejaVuSans-49"/>
    </g>
   </g>
   <g id="text_82">
    <!-- 5.7 -->
    <g style="fill:#00ced1;" transform="translate(260.960036 258.522103)scale(0.1 -0.1)">
     <use xlink:href="#DejaVuSans-53"/>
     <use x="63.623047" xlink:href="#DejaVuSans-46"/>
     <use x="95.410156" xlink:href="#DejaVuSans-55"/>
    </g>
   </g>
   <g id="text_83">
    <!-- 5.6 -->
    <g style="fill:#ff8c00;" transform="translate(290.577575 235.47267)scale(0.1 -0.1)">
     <use xlink:href="#DejaVuSans-53"/>
     <use x="63.623047" xlink:href="#DejaVuSans-46"/>
     <use x="95.410156" xlink:href="#DejaVuSans-54"/>
    </g>
   </g>
   <g id="text_84">
    <!-- 10.1 -->
    <g style="fill:#ffd700;" transform="translate(256.317675 283.444275)scale(0.1 -0.1)">
     <use xlink:href="#DejaVuSans-49"/>
     <use x="63.623047" xlink:href="#DejaVuSans-48"/>
     <use x="127.246094" xlink:href="#DejaVuSans-46"/>
     <use x="159.033203" xlink:href="#DejaVuSans-49"/>
    </g>
   </g>
   <g id="text_85">
    <!-- 5.5 -->
    <g style="fill:#0000cd;" transform="translate(250.083396 224.557678)scale(0.1 -0.1)">
     <use xlink:href="#DejaVuSans-53"/>
     <use x="63.623047" xlink:href="#DejaVuSans-46"/>
     <use x="95.410156" xlink:href="#DejaVuSans-53"/>
    </g>
   </g>
   <g id="text_86">
    <!-- 9.1 -->
    <g style="fill:#deb887;" transform="translate(274.047677 311.168829)scale(0.1 -0.1)">
     <use xlink:href="#DejaVuSans-57"/>
     <use x="63.623047" xlink:href="#DejaVuSans-46"/>
     <use x="95.410156" xlink:href="#DejaVuSans-49"/>
    </g>
   </g>
   <g id="text_87">
    <!-- 5.4 -->
    <g style="fill:#00ff00;" transform="translate(274.275484 261.207717)scale(0.1 -0.1)">
     <use xlink:href="#DejaVuSans-53"/>
     <use x="63.623047" xlink:href="#DejaVuSans-46"/>
     <use x="95.410156" xlink:href="#DejaVuSans-52"/>
    </g>
   </g>
   <g id="text_88">
    <!-- 6.2 -->
    <g style="fill:#dc143c;" transform="translate(274.019006 182.843582)scale(0.1 -0.1)">
     <use xlink:href="#DejaVuSans-54"/>
     <use x="63.623047" xlink:href="#DejaVuSans-46"/>
     <use x="95.410156" xlink:href="#DejaVuSans-50"/>
    </g>
   </g>
   <g id="text_89">
    <!-- 5.2 -->
    <g style="fill:#00bfff;" transform="translate(281.153197 329.562012)scale(0.1 -0.1)">
     <use xlink:href="#DejaVuSans-53"/>
     <use x="63.623047" xlink:href="#DejaVuSans-46"/>
     <use x="95.410156" xlink:href="#DejaVuSans-50"/>
    </g>
   </g>
   <g id="text_90">
    <!-- 6.1 -->
    <g style="fill:#f4a460;" transform="translate(249.728983 248.805541)scale(0.1 -0.1)">
     <use xlink:href="#DejaVuSans-54"/>
     <use x="63.623047" xlink:href="#DejaVuSans-46"/>
     <use x="95.410156" xlink:href="#DejaVuSans-49"/>
    </g>
   </g>
   <g id="text_91">
    <!-- 4.1 -->
    <g style="fill:#a020f0;" transform="translate(253.909106 308.117616)scale(0.1 -0.1)">
     <use xlink:href="#DejaVuSans-52"/>
     <use x="63.623047" xlink:href="#DejaVuSans-46"/>
     <use x="95.410156" xlink:href="#DejaVuSans-49"/>
    </g>
   </g>
   <g id="text_92">
    <!-- 0.1 -->
    <g style="fill:#da70d6;" transform="translate(235.195158 252.295215)scale(0.1 -0.1)">
     <use xlink:href="#DejaVuSans-48"/>
     <use x="63.623047" xlink:href="#DejaVuSans-46"/>
     <use x="95.410156" xlink:href="#DejaVuSans-49"/>
    </g>
   </g>
  </g>
 </g>
 <defs>
  <clipPath id="p86153458a0">
   <rect height="498.96" width="390.6" x="63" y="77.76"/>
  </clipPath>
 </defs>
</svg>
