<?xml version="1.0" encoding="utf-8" standalone="no"?>
<!DOCTYPE svg PUBLIC "-//W3C//DTD SVG 1.1//EN"
  "http://www.w3.org/Graphics/SVG/1.1/DTD/svg11.dtd">
<!-- Created with matplotlib (https://matplotlib.org/) -->
<svg height="280.8pt" version="1.1" viewBox="0 0 504 280.8" width="504pt" xmlns="http://www.w3.org/2000/svg" xmlns:xlink="http://www.w3.org/1999/xlink">
 <metadata>
  <rdf:RDF xmlns:cc="http://creativecommons.org/ns#" xmlns:dc="http://purl.org/dc/elements/1.1/" xmlns:rdf="http://www.w3.org/1999/02/22-rdf-syntax-ns#">
   <cc:Work>
    <dc:type rdf:resource="http://purl.org/dc/dcmitype/StillImage"/>
    <dc:date>2023-05-10T18:15:10.949239</dc:date>
    <dc:format>image/svg+xml</dc:format>
    <dc:creator>
     <cc:Agent>
      <dc:title>Matplotlib v3.3.4, https://matplotlib.org/</dc:title>
     </cc:Agent>
    </dc:creator>
   </cc:Work>
  </rdf:RDF>
 </metadata>
 <defs>
  <style type="text/css">*{stroke-linecap:butt;stroke-linejoin:round;}</style>
 </defs>
 <g id="figure_1">
  <g id="patch_1">
   <path d="M 0 280.8 
L 504 280.8 
L 504 0 
L 0 0 
z
" style="fill:#ffffff;"/>
  </g>
  <g id="axes_1">
   <g id="patch_2">
    <path d="M 63 249.912 
L 453.6 249.912 
L 453.6 33.696 
L 63 33.696 
z
" style="fill:#ffffff;"/>
   </g>
   <g id="PathCollection_1">
    <defs>
     <path d="M 0 3 
C 0.795609 3 1.55874 2.683901 2.12132 2.12132 
C 2.683901 1.55874 3 0.795609 3 0 
C 3 -0.795609 2.683901 -1.55874 2.12132 -2.12132 
C 1.55874 -2.683901 0.795609 -3 0 -3 
C -0.795609 -3 -1.55874 -2.683901 -2.12132 -2.12132 
C -2.683901 -1.55874 -3 -0.795609 -3 0 
C -3 0.795609 -2.683901 1.55874 -2.12132 2.12132 
C -1.55874 2.683901 -0.795609 3 0 3 
z
" id="mcbad1ac78a" style="stroke:#1f77b4;"/>
    </defs>
    <g clip-path="url(#p716cb13081)">
     <use style="fill:#1f77b4;stroke:#1f77b4;" x="164.083901" xlink:href="#mcbad1ac78a" y="114.736332"/>
     <use style="fill:#1f77b4;stroke:#1f77b4;" x="217.633852" xlink:href="#mcbad1ac78a" y="183.792229"/>
     <use style="fill:#1f77b4;stroke:#1f77b4;" x="286.772312" xlink:href="#mcbad1ac78a" y="95.109373"/>
     <use style="fill:#1f77b4;stroke:#1f77b4;" x="263.292603" xlink:href="#mcbad1ac78a" y="180.6009"/>
     <use style="fill:#1f77b4;stroke:#1f77b4;" x="255.465374" xlink:href="#mcbad1ac78a" y="43.524033"/>
     <use style="fill:#1f77b4;stroke:#1f77b4;" x="80.754545" xlink:href="#mcbad1ac78a" y="185.276916"/>
     <use style="fill:#1f77b4;stroke:#1f77b4;" x="312.109127" xlink:href="#mcbad1ac78a" y="143.293269"/>
     <use style="fill:#1f77b4;stroke:#1f77b4;" x="86.943835" xlink:href="#mcbad1ac78a" y="127.691502"/>
     <use style="fill:#1f77b4;stroke:#1f77b4;" x="312.243742" xlink:href="#mcbad1ac78a" y="143.213714"/>
     <use style="fill:#1f77b4;stroke:#1f77b4;" x="301.35301" xlink:href="#mcbad1ac78a" y="120.113431"/>
     <use style="fill:#1f77b4;stroke:#1f77b4;" x="87.035877" xlink:href="#mcbad1ac78a" y="127.667925"/>
     <use style="fill:#1f77b4;stroke:#1f77b4;" x="209.196543" xlink:href="#mcbad1ac78a" y="141.905247"/>
     <use style="fill:#1f77b4;stroke:#1f77b4;" x="209.197963" xlink:href="#mcbad1ac78a" y="141.906945"/>
     <use style="fill:#1f77b4;stroke:#1f77b4;" x="87.353836" xlink:href="#mcbad1ac78a" y="127.118873"/>
     <use style="fill:#1f77b4;stroke:#1f77b4;" x="197.074871" xlink:href="#mcbad1ac78a" y="103.675706"/>
     <use style="fill:#1f77b4;stroke:#1f77b4;" x="300.395833" xlink:href="#mcbad1ac78a" y="119.558181"/>
     <use style="fill:#1f77b4;stroke:#1f77b4;" x="131.214995" xlink:href="#mcbad1ac78a" y="92.604804"/>
     <use style="fill:#1f77b4;stroke:#1f77b4;" x="435.485217" xlink:href="#mcbad1ac78a" y="160.06877"/>
     <use style="fill:#1f77b4;stroke:#1f77b4;" x="434.757343" xlink:href="#mcbad1ac78a" y="159.646197"/>
     <use style="fill:#1f77b4;stroke:#1f77b4;" x="198.144051" xlink:href="#mcbad1ac78a" y="160.23407"/>
     <use style="fill:#1f77b4;stroke:#1f77b4;" x="227.911067" xlink:href="#mcbad1ac78a" y="185.098685"/>
     <use style="fill:#1f77b4;stroke:#1f77b4;" x="435.428624" xlink:href="#mcbad1ac78a" y="160.035721"/>
     <use style="fill:#1f77b4;stroke:#1f77b4;" x="313.039791" xlink:href="#mcbad1ac78a" y="191.341992"/>
     <use style="fill:#1f77b4;stroke:#1f77b4;" x="95.411132" xlink:href="#mcbad1ac78a" y="177.037245"/>
     <use style="fill:#1f77b4;stroke:#1f77b4;" x="314.888171" xlink:href="#mcbad1ac78a" y="192.759458"/>
     <use style="fill:#1f77b4;stroke:#1f77b4;" x="315.363235" xlink:href="#mcbad1ac78a" y="194.120534"/>
     <use style="fill:#1f77b4;stroke:#1f77b4;" x="99.17617" xlink:href="#mcbad1ac78a" y="152.779692"/>
     <use style="fill:#1f77b4;stroke:#1f77b4;" x="255.464752" xlink:href="#mcbad1ac78a" y="43.524"/>
     <use style="fill:#1f77b4;stroke:#1f77b4;" x="87.061935" xlink:href="#mcbad1ac78a" y="127.228933"/>
     <use style="fill:#1f77b4;stroke:#1f77b4;" x="99.938042" xlink:href="#mcbad1ac78a" y="84.86229"/>
     <use style="fill:#1f77b4;stroke:#1f77b4;" x="99.17581" xlink:href="#mcbad1ac78a" y="152.779843"/>
     <use style="fill:#1f77b4;stroke:#1f77b4;" x="217.325296" xlink:href="#mcbad1ac78a" y="184.233591"/>
     <use style="fill:#1f77b4;stroke:#1f77b4;" x="348.009002" xlink:href="#mcbad1ac78a" y="130.900563"/>
     <use style="fill:#1f77b4;stroke:#1f77b4;" x="129.365368" xlink:href="#mcbad1ac78a" y="94.020356"/>
     <use style="fill:#1f77b4;stroke:#1f77b4;" x="310.529114" xlink:href="#mcbad1ac78a" y="77.979823"/>
     <use style="fill:#1f77b4;stroke:#1f77b4;" x="87.466747" xlink:href="#mcbad1ac78a" y="127.075231"/>
     <use style="fill:#1f77b4;stroke:#1f77b4;" x="242.370303" xlink:href="#mcbad1ac78a" y="81.787238"/>
     <use style="fill:#1f77b4;stroke:#1f77b4;" x="301.43586" xlink:href="#mcbad1ac78a" y="120.157552"/>
     <use style="fill:#1f77b4;stroke:#1f77b4;" x="244.380788" xlink:href="#mcbad1ac78a" y="82.963263"/>
     <use style="fill:#1f77b4;stroke:#1f77b4;" x="313.532869" xlink:href="#mcbad1ac78a" y="191.348374"/>
     <use style="fill:#1f77b4;stroke:#1f77b4;" x="99.453871" xlink:href="#mcbad1ac78a" y="84.582176"/>
     <use style="fill:#1f77b4;stroke:#1f77b4;" x="229.95954" xlink:href="#mcbad1ac78a" y="184.370078"/>
     <use style="fill:#1f77b4;stroke:#1f77b4;" x="90.987276" xlink:href="#mcbad1ac78a" y="124.815712"/>
     <use style="fill:#1f77b4;stroke:#1f77b4;" x="300.526322" xlink:href="#mcbad1ac78a" y="119.635684"/>
     <use style="fill:#1f77b4;stroke:#1f77b4;" x="300.975414" xlink:href="#mcbad1ac78a" y="119.896801"/>
     <use style="fill:#1f77b4;stroke:#1f77b4;" x="209.198154" xlink:href="#mcbad1ac78a" y="141.906524"/>
     <use style="fill:#1f77b4;stroke:#1f77b4;" x="217.296836" xlink:href="#mcbad1ac78a" y="183.992878"/>
     <use style="fill:#1f77b4;stroke:#1f77b4;" x="314.88505" xlink:href="#mcbad1ac78a" y="192.761489"/>
     <use style="fill:#1f77b4;stroke:#1f77b4;" x="261.813961" xlink:href="#mcbad1ac78a" y="97.651123"/>
     <use style="fill:#1f77b4;stroke:#1f77b4;" x="313.186662" xlink:href="#mcbad1ac78a" y="191.05578"/>
     <use style="fill:#1f77b4;stroke:#1f77b4;" x="245.248437" xlink:href="#mcbad1ac78a" y="145.526522"/>
     <use style="fill:#1f77b4;stroke:#1f77b4;" x="130.805573" xlink:href="#mcbad1ac78a" y="93.108196"/>
     <use style="fill:#1f77b4;stroke:#1f77b4;" x="80.754612" xlink:href="#mcbad1ac78a" y="185.276896"/>
     <use style="fill:#1f77b4;stroke:#1f77b4;" x="312.353219" xlink:href="#mcbad1ac78a" y="143.155069"/>
     <use style="fill:#1f77b4;stroke:#1f77b4;" x="313.715246" xlink:href="#mcbad1ac78a" y="193.448118"/>
     <use style="fill:#1f77b4;stroke:#1f77b4;" x="99.439964" xlink:href="#mcbad1ac78a" y="84.573644"/>
     <use style="fill:#1f77b4;stroke:#1f77b4;" x="242.183312" xlink:href="#mcbad1ac78a" y="81.677387"/>
     <use style="fill:#1f77b4;stroke:#1f77b4;" x="243.64653" xlink:href="#mcbad1ac78a" y="144.593872"/>
     <use style="fill:#1f77b4;stroke:#1f77b4;" x="435.140157" xlink:href="#mcbad1ac78a" y="159.868273"/>
     <use style="fill:#1f77b4;stroke:#1f77b4;" x="129.153291" xlink:href="#mcbad1ac78a" y="94.159764"/>
     <use style="fill:#1f77b4;stroke:#1f77b4;" x="246.064051" xlink:href="#mcbad1ac78a" y="83.945182"/>
     <use style="fill:#1f77b4;stroke:#1f77b4;" x="309.722431" xlink:href="#mcbad1ac78a" y="78.43429"/>
     <use style="fill:#1f77b4;stroke:#1f77b4;" x="303.780809" xlink:href="#mcbad1ac78a" y="121.486437"/>
     <use style="fill:#1f77b4;stroke:#1f77b4;" x="130.367366" xlink:href="#mcbad1ac78a" y="89.653946"/>
     <use style="fill:#1f77b4;stroke:#1f77b4;" x="170.177538" xlink:href="#mcbad1ac78a" y="188.892992"/>
     <use style="fill:#1f77b4;stroke:#1f77b4;" x="310.085666" xlink:href="#mcbad1ac78a" y="78.222558"/>
     <use style="fill:#1f77b4;stroke:#1f77b4;" x="204.066662" xlink:href="#mcbad1ac78a" y="47.755786"/>
     <use style="fill:#1f77b4;stroke:#1f77b4;" x="99.283655" xlink:href="#mcbad1ac78a" y="84.481621"/>
     <use style="fill:#1f77b4;stroke:#1f77b4;" x="315.196681" xlink:href="#mcbad1ac78a" y="194.005633"/>
     <use style="fill:#1f77b4;stroke:#1f77b4;" x="203.165818" xlink:href="#mcbad1ac78a" y="49.462384"/>
     <use style="fill:#1f77b4;stroke:#1f77b4;" x="310.971414" xlink:href="#mcbad1ac78a" y="77.728473"/>
     <use style="fill:#1f77b4;stroke:#1f77b4;" x="165.49544" xlink:href="#mcbad1ac78a" y="115.825839"/>
     <use style="fill:#1f77b4;stroke:#1f77b4;" x="263.306381" xlink:href="#mcbad1ac78a" y="180.599442"/>
     <use style="fill:#1f77b4;stroke:#1f77b4;" x="215.45365" xlink:href="#mcbad1ac78a" y="158.310808"/>
     <use style="fill:#1f77b4;stroke:#1f77b4;" x="286.680365" xlink:href="#mcbad1ac78a" y="95.054646"/>
     <use style="fill:#1f77b4;stroke:#1f77b4;" x="286.617568" xlink:href="#mcbad1ac78a" y="95.011824"/>
     <use style="fill:#1f77b4;stroke:#1f77b4;" x="202.491597" xlink:href="#mcbad1ac78a" y="49.794236"/>
     <use style="fill:#1f77b4;stroke:#1f77b4;" x="163.476734" xlink:href="#mcbad1ac78a" y="114.392101"/>
     <use style="fill:#1f77b4;stroke:#1f77b4;" x="202.736167" xlink:href="#mcbad1ac78a" y="48.984232"/>
     <use style="fill:#1f77b4;stroke:#1f77b4;" x="111.547398" xlink:href="#mcbad1ac78a" y="187.871224"/>
     <use style="fill:#1f77b4;stroke:#1f77b4;" x="313.917704" xlink:href="#mcbad1ac78a" y="193.674675"/>
     <use style="fill:#1f77b4;stroke:#1f77b4;" x="435.845455" xlink:href="#mcbad1ac78a" y="160.277536"/>
     <use style="fill:#1f77b4;stroke:#1f77b4;" x="130.421844" xlink:href="#mcbad1ac78a" y="89.78758"/>
     <use style="fill:#1f77b4;stroke:#1f77b4;" x="230.347446" xlink:href="#mcbad1ac78a" y="239.0668"/>
     <use style="fill:#1f77b4;stroke:#1f77b4;" x="229.048621" xlink:href="#mcbad1ac78a" y="184.684442"/>
     <use style="fill:#1f77b4;stroke:#1f77b4;" x="111.503754" xlink:href="#mcbad1ac78a" y="187.849337"/>
     <use style="fill:#1f77b4;stroke:#1f77b4;" x="203.637417" xlink:href="#mcbad1ac78a" y="49.432089"/>
     <use style="fill:#1f77b4;stroke:#1f77b4;" x="111.505879" xlink:href="#mcbad1ac78a" y="187.850251"/>
     <use style="fill:#1f77b4;stroke:#1f77b4;" x="165.497413" xlink:href="#mcbad1ac78a" y="115.788076"/>
     <use style="fill:#1f77b4;stroke:#1f77b4;" x="286.220781" xlink:href="#mcbad1ac78a" y="94.786344"/>
     <use style="fill:#1f77b4;stroke:#1f77b4;" x="245.805104" xlink:href="#mcbad1ac78a" y="83.794315"/>
     <use style="fill:#1f77b4;stroke:#1f77b4;" x="276.861979" xlink:href="#mcbad1ac78a" y="152.114534"/>
     <use style="fill:#1f77b4;stroke:#1f77b4;" x="165.985585" xlink:href="#mcbad1ac78a" y="116.893553"/>
     <use style="fill:#1f77b4;stroke:#1f77b4;" x="99.612077" xlink:href="#mcbad1ac78a" y="84.673896"/>
     <use style="fill:#1f77b4;stroke:#1f77b4;" x="197.722858" xlink:href="#mcbad1ac78a" y="104.052131"/>
     <use style="fill:#1f77b4;stroke:#1f77b4;" x="261.81111" xlink:href="#mcbad1ac78a" y="97.651772"/>
     <use style="fill:#1f77b4;stroke:#1f77b4;" x="205.900495" xlink:href="#mcbad1ac78a" y="49.359886"/>
     <use style="fill:#1f77b4;stroke:#1f77b4;" x="226.673941" xlink:href="#mcbad1ac78a" y="183.712755"/>
     <use style="fill:#1f77b4;stroke:#1f77b4;" x="276.862301" xlink:href="#mcbad1ac78a" y="152.114951"/>
     <use style="fill:#1f77b4;stroke:#1f77b4;" x="276.861808" xlink:href="#mcbad1ac78a" y="152.114514"/>
     <use style="fill:#1f77b4;stroke:#1f77b4;" x="215.069157" xlink:href="#mcbad1ac78a" y="158.081786"/>
     <use style="fill:#1f77b4;stroke:#1f77b4;" x="226.608273" xlink:href="#mcbad1ac78a" y="183.014066"/>
     <use style="fill:#1f77b4;stroke:#1f77b4;" x="244.066662" xlink:href="#mcbad1ac78a" y="144.837952"/>
     <use style="fill:#1f77b4;stroke:#1f77b4;" x="95.40082" xlink:href="#mcbad1ac78a" y="177.034556"/>
     <use style="fill:#1f77b4;stroke:#1f77b4;" x="311.79612" xlink:href="#mcbad1ac78a" y="143.489755"/>
     <use style="fill:#1f77b4;stroke:#1f77b4;" x="228.299988" xlink:href="#mcbad1ac78a" y="184.882228"/>
     <use style="fill:#1f77b4;stroke:#1f77b4;" x="165.900788" xlink:href="#mcbad1ac78a" y="116.022379"/>
     <use style="fill:#1f77b4;stroke:#1f77b4;" x="230.746018" xlink:href="#mcbad1ac78a" y="239.264496"/>
     <use style="fill:#1f77b4;stroke:#1f77b4;" x="202.749553" xlink:href="#mcbad1ac78a" y="47.384964"/>
     <use style="fill:#1f77b4;stroke:#1f77b4;" x="434.681342" xlink:href="#mcbad1ac78a" y="159.602221"/>
     <use style="fill:#1f77b4;stroke:#1f77b4;" x="198.150092" xlink:href="#mcbad1ac78a" y="160.232416"/>
     <use style="fill:#1f77b4;stroke:#1f77b4;" x="303.212014" xlink:href="#mcbad1ac78a" y="121.161195"/>
     <use style="fill:#1f77b4;stroke:#1f77b4;" x="286.686341" xlink:href="#mcbad1ac78a" y="95.057315"/>
     <use style="fill:#1f77b4;stroke:#1f77b4;" x="131.139933" xlink:href="#mcbad1ac78a" y="92.006784"/>
     <use style="fill:#1f77b4;stroke:#1f77b4;" x="130.919617" xlink:href="#mcbad1ac78a" y="91.019967"/>
     <use style="fill:#1f77b4;stroke:#1f77b4;" x="310.660001" xlink:href="#mcbad1ac78a" y="77.908336"/>
     <use style="fill:#1f77b4;stroke:#1f77b4;" x="164.064666" xlink:href="#mcbad1ac78a" y="114.702287"/>
     <use style="fill:#1f77b4;stroke:#1f77b4;" x="215.560163" xlink:href="#mcbad1ac78a" y="158.366051"/>
     <use style="fill:#1f77b4;stroke:#1f77b4;" x="170.18016" xlink:href="#mcbad1ac78a" y="188.894283"/>
     <use style="fill:#1f77b4;stroke:#1f77b4;" x="197.345497" xlink:href="#mcbad1ac78a" y="103.833129"/>
     <use style="fill:#1f77b4;stroke:#1f77b4;" x="90.222132" xlink:href="#mcbad1ac78a" y="125.301993"/>
     <use style="fill:#1f77b4;stroke:#1f77b4;" x="164.114228" xlink:href="#mcbad1ac78a" y="114.768075"/>
     <use style="fill:#1f77b4;stroke:#1f77b4;" x="229.40547" xlink:href="#mcbad1ac78a" y="236.998193"/>
     <use style="fill:#1f77b4;stroke:#1f77b4;" x="244.253952" xlink:href="#mcbad1ac78a" y="82.890356"/>
     <use style="fill:#1f77b4;stroke:#1f77b4;" x="170.182783" xlink:href="#mcbad1ac78a" y="188.894935"/>
     <use style="fill:#1f77b4;stroke:#1f77b4;" x="226.224226" xlink:href="#mcbad1ac78a" y="183.61115"/>
     <use style="fill:#1f77b4;stroke:#1f77b4;" x="230.216002" xlink:href="#mcbad1ac78a" y="238.94642"/>
     <use style="fill:#1f77b4;stroke:#1f77b4;" x="243.96252" xlink:href="#mcbad1ac78a" y="144.777285"/>
     <use style="fill:#1f77b4;stroke:#1f77b4;" x="245.377673" xlink:href="#mcbad1ac78a" y="145.601415"/>
     <use style="fill:#1f77b4;stroke:#1f77b4;" x="89.861516" xlink:href="#mcbad1ac78a" y="125.529889"/>
     <use style="fill:#1f77b4;stroke:#1f77b4;" x="215.467336" xlink:href="#mcbad1ac78a" y="158.31605"/>
     <use style="fill:#1f77b4;stroke:#1f77b4;" x="111.501268" xlink:href="#mcbad1ac78a" y="187.8477"/>
     <use style="fill:#1f77b4;stroke:#1f77b4;" x="203.906023" xlink:href="#mcbad1ac78a" y="47.419915"/>
     <use style="fill:#1f77b4;stroke:#1f77b4;" x="205.988044" xlink:href="#mcbad1ac78a" y="49.353876"/>
     <use style="fill:#1f77b4;stroke:#1f77b4;" x="129.430308" xlink:href="#mcbad1ac78a" y="93.990095"/>
     <use style="fill:#1f77b4;stroke:#1f77b4;" x="227.456566" xlink:href="#mcbad1ac78a" y="185.337772"/>
     <use style="fill:#1f77b4;stroke:#1f77b4;" x="80.754925" xlink:href="#mcbad1ac78a" y="185.276814"/>
     <use style="fill:#1f77b4;stroke:#1f77b4;" x="261.814003" xlink:href="#mcbad1ac78a" y="97.6512"/>
     <use style="fill:#1f77b4;stroke:#1f77b4;" x="312.999922" xlink:href="#mcbad1ac78a" y="191.021005"/>
     <use style="fill:#1f77b4;stroke:#1f77b4;" x="226.526827" xlink:href="#mcbad1ac78a" y="182.935198"/>
     <use style="fill:#1f77b4;stroke:#1f77b4;" x="348.013309" xlink:href="#mcbad1ac78a" y="130.903139"/>
     <use style="fill:#1f77b4;stroke:#1f77b4;" x="202.796044" xlink:href="#mcbad1ac78a" y="47.418286"/>
     <use style="fill:#1f77b4;stroke:#1f77b4;" x="216.772594" xlink:href="#mcbad1ac78a" y="184.297702"/>
     <use style="fill:#1f77b4;stroke:#1f77b4;" x="197.346417" xlink:href="#mcbad1ac78a" y="103.833817"/>
     <use style="fill:#1f77b4;stroke:#1f77b4;" x="95.402044" xlink:href="#mcbad1ac78a" y="177.03495"/>
     <use style="fill:#1f77b4;stroke:#1f77b4;" x="311.797866" xlink:href="#mcbad1ac78a" y="143.48894"/>
     <use style="fill:#1f77b4;stroke:#1f77b4;" x="226.503408" xlink:href="#mcbad1ac78a" y="184.076543"/>
     <use style="fill:#1f77b4;stroke:#1f77b4;" x="263.293556" xlink:href="#mcbad1ac78a" y="180.600614"/>
     <use style="fill:#1f77b4;stroke:#1f77b4;" x="348.855839" xlink:href="#mcbad1ac78a" y="131.383696"/>
     <use style="fill:#1f77b4;stroke:#1f77b4;" x="228.545206" xlink:href="#mcbad1ac78a" y="235.650165"/>
     <use style="fill:#1f77b4;stroke:#1f77b4;" x="204.939813" xlink:href="#mcbad1ac78a" y="45.73573"/>
     <use style="fill:#1f77b4;stroke:#1f77b4;" x="204.912859" xlink:href="#mcbad1ac78a" y="45.860178"/>
     <use style="fill:#1f77b4;stroke:#1f77b4;" x="255.464567" xlink:href="#mcbad1ac78a" y="43.524242"/>
     <use style="fill:#1f77b4;stroke:#1f77b4;" x="228.7308" xlink:href="#mcbad1ac78a" y="235.859188"/>
     <use style="fill:#1f77b4;stroke:#1f77b4;" x="216.664779" xlink:href="#mcbad1ac78a" y="184.345704"/>
     <use style="fill:#1f77b4;stroke:#1f77b4;" x="312.052781" xlink:href="#mcbad1ac78a" y="143.331441"/>
     <use style="fill:#1f77b4;stroke:#1f77b4;" x="165.851836" xlink:href="#mcbad1ac78a" y="116.708423"/>
     <use style="fill:#1f77b4;stroke:#1f77b4;" x="231.571965" xlink:href="#mcbad1ac78a" y="240.084"/>
     <use style="fill:#1f77b4;stroke:#1f77b4;" x="170.179359" xlink:href="#mcbad1ac78a" y="188.893556"/>
     <use style="fill:#1f77b4;stroke:#1f77b4;" x="231.253876" xlink:href="#mcbad1ac78a" y="239.867007"/>
     <use style="fill:#1f77b4;stroke:#1f77b4;" x="284.118255" xlink:href="#mcbad1ac78a" y="93.650509"/>
     <use style="fill:#1f77b4;stroke:#1f77b4;" x="284.449873" xlink:href="#mcbad1ac78a" y="93.844242"/>
     <use style="fill:#1f77b4;stroke:#1f77b4;" x="245.781892" xlink:href="#mcbad1ac78a" y="83.780599"/>
     <use style="fill:#1f77b4;stroke:#1f77b4;" x="215.523616" xlink:href="#mcbad1ac78a" y="158.347185"/>
     <use style="fill:#1f77b4;stroke:#1f77b4;" x="313.915475" xlink:href="#mcbad1ac78a" y="193.685675"/>
     <use style="fill:#1f77b4;stroke:#1f77b4;" x="90.890643" xlink:href="#mcbad1ac78a" y="124.87782"/>
     <use style="fill:#1f77b4;stroke:#1f77b4;" x="198.150759" xlink:href="#mcbad1ac78a" y="160.233095"/>
     <use style="fill:#1f77b4;stroke:#1f77b4;" x="99.175981" xlink:href="#mcbad1ac78a" y="152.77968"/>
     <use style="fill:#1f77b4;stroke:#1f77b4;" x="221.828942" xlink:href="#mcbad1ac78a" y="184.181473"/>
     <use style="fill:#1f77b4;stroke:#1f77b4;" x="349.051458" xlink:href="#mcbad1ac78a" y="131.496183"/>
     <use style="fill:#1f77b4;stroke:#1f77b4;" x="228.702376" xlink:href="#mcbad1ac78a" y="235.785846"/>
     <use style="fill:#1f77b4;stroke:#1f77b4;" x="349.196535" xlink:href="#mcbad1ac78a" y="131.580707"/>
     <use style="fill:#1f77b4;stroke:#1f77b4;" x="349.02429" xlink:href="#mcbad1ac78a" y="131.481242"/>
    </g>
   </g>
   <g id="matplotlib.axis_1">
    <g id="xtick_1">
     <g id="line2d_1">
      <defs>
       <path d="M 0 0 
L 0 3.5 
" id="m05c8da9a4a" style="stroke:#000000;stroke-width:0.8;"/>
      </defs>
      <g>
       <use style="stroke:#000000;stroke-width:0.8;" x="95.231677" xlink:href="#m05c8da9a4a" y="249.912"/>
      </g>
     </g>
     <g id="text_1">
      <!-- −10 -->
      <g transform="translate(84.679333 264.510438)scale(0.1 -0.1)">
       <defs>
        <path d="M 10.59375 35.5 
L 73.1875 35.5 
L 73.1875 27.203125 
L 10.59375 27.203125 
z
" id="DejaVuSans-8722"/>
        <path d="M 12.40625 8.296875 
L 28.515625 8.296875 
L 28.515625 63.921875 
L 10.984375 60.40625 
L 10.984375 69.390625 
L 28.421875 72.90625 
L 38.28125 72.90625 
L 38.28125 8.296875 
L 54.390625 8.296875 
L 54.390625 0 
L 12.40625 0 
z
" id="DejaVuSans-49"/>
        <path d="M 31.78125 66.40625 
Q 24.171875 66.40625 20.328125 58.90625 
Q 16.5 51.421875 16.5 36.375 
Q 16.5 21.390625 20.328125 13.890625 
Q 24.171875 6.390625 31.78125 6.390625 
Q 39.453125 6.390625 43.28125 13.890625 
Q 47.125 21.390625 47.125 36.375 
Q 47.125 51.421875 43.28125 58.90625 
Q 39.453125 66.40625 31.78125 66.40625 
z
M 31.78125 74.21875 
Q 44.046875 74.21875 50.515625 64.515625 
Q 56.984375 54.828125 56.984375 36.375 
Q 56.984375 17.96875 50.515625 8.265625 
Q 44.046875 -1.421875 31.78125 -1.421875 
Q 19.53125 -1.421875 13.0625 8.265625 
Q 6.59375 17.96875 6.59375 36.375 
Q 6.59375 54.828125 13.0625 64.515625 
Q 19.53125 74.21875 31.78125 74.21875 
z
" id="DejaVuSans-48"/>
       </defs>
       <use xlink:href="#DejaVuSans-8722"/>
       <use x="83.789062" xlink:href="#DejaVuSans-49"/>
       <use x="147.412109" xlink:href="#DejaVuSans-48"/>
      </g>
     </g>
    </g>
    <g id="xtick_2">
     <g id="line2d_2">
      <g>
       <use style="stroke:#000000;stroke-width:0.8;" x="144.965234" xlink:href="#m05c8da9a4a" y="249.912"/>
      </g>
     </g>
     <g id="text_2">
      <!-- −5 -->
      <g transform="translate(137.59414 264.510438)scale(0.1 -0.1)">
       <defs>
        <path d="M 10.796875 72.90625 
L 49.515625 72.90625 
L 49.515625 64.59375 
L 19.828125 64.59375 
L 19.828125 46.734375 
Q 21.96875 47.46875 24.109375 47.828125 
Q 26.265625 48.1875 28.421875 48.1875 
Q 40.625 48.1875 47.75 41.5 
Q 54.890625 34.8125 54.890625 23.390625 
Q 54.890625 11.625 47.5625 5.09375 
Q 40.234375 -1.421875 26.90625 -1.421875 
Q 22.3125 -1.421875 17.546875 -0.640625 
Q 12.796875 0.140625 7.71875 1.703125 
L 7.71875 11.625 
Q 12.109375 9.234375 16.796875 8.0625 
Q 21.484375 6.890625 26.703125 6.890625 
Q 35.15625 6.890625 40.078125 11.328125 
Q 45.015625 15.765625 45.015625 23.390625 
Q 45.015625 31 40.078125 35.4375 
Q 35.15625 39.890625 26.703125 39.890625 
Q 22.75 39.890625 18.8125 39.015625 
Q 14.890625 38.140625 10.796875 36.28125 
z
" id="DejaVuSans-53"/>
       </defs>
       <use xlink:href="#DejaVuSans-8722"/>
       <use x="83.789062" xlink:href="#DejaVuSans-53"/>
      </g>
     </g>
    </g>
    <g id="xtick_3">
     <g id="line2d_3">
      <g>
       <use style="stroke:#000000;stroke-width:0.8;" x="194.698791" xlink:href="#m05c8da9a4a" y="249.912"/>
      </g>
     </g>
     <g id="text_3">
      <!-- 0 -->
      <g transform="translate(191.517541 264.510438)scale(0.1 -0.1)">
       <use xlink:href="#DejaVuSans-48"/>
      </g>
     </g>
    </g>
    <g id="xtick_4">
     <g id="line2d_4">
      <g>
       <use style="stroke:#000000;stroke-width:0.8;" x="244.432349" xlink:href="#m05c8da9a4a" y="249.912"/>
      </g>
     </g>
     <g id="text_4">
      <!-- 5 -->
      <g transform="translate(241.251099 264.510438)scale(0.1 -0.1)">
       <use xlink:href="#DejaVuSans-53"/>
      </g>
     </g>
    </g>
    <g id="xtick_5">
     <g id="line2d_5">
      <g>
       <use style="stroke:#000000;stroke-width:0.8;" x="294.165906" xlink:href="#m05c8da9a4a" y="249.912"/>
      </g>
     </g>
     <g id="text_5">
      <!-- 10 -->
      <g transform="translate(287.803406 264.510438)scale(0.1 -0.1)">
       <use xlink:href="#DejaVuSans-49"/>
       <use x="63.623047" xlink:href="#DejaVuSans-48"/>
      </g>
     </g>
    </g>
    <g id="xtick_6">
     <g id="line2d_6">
      <g>
       <use style="stroke:#000000;stroke-width:0.8;" x="343.899463" xlink:href="#m05c8da9a4a" y="249.912"/>
      </g>
     </g>
     <g id="text_6">
      <!-- 15 -->
      <g transform="translate(337.536963 264.510438)scale(0.1 -0.1)">
       <use xlink:href="#DejaVuSans-49"/>
       <use x="63.623047" xlink:href="#DejaVuSans-53"/>
      </g>
     </g>
    </g>
    <g id="xtick_7">
     <g id="line2d_7">
      <g>
       <use style="stroke:#000000;stroke-width:0.8;" x="393.63302" xlink:href="#m05c8da9a4a" y="249.912"/>
      </g>
     </g>
     <g id="text_7">
      <!-- 20 -->
      <g transform="translate(387.27052 264.510438)scale(0.1 -0.1)">
       <defs>
        <path d="M 19.1875 8.296875 
L 53.609375 8.296875 
L 53.609375 0 
L 7.328125 0 
L 7.328125 8.296875 
Q 12.9375 14.109375 22.625 23.890625 
Q 32.328125 33.6875 34.8125 36.53125 
Q 39.546875 41.84375 41.421875 45.53125 
Q 43.3125 49.21875 43.3125 52.78125 
Q 43.3125 58.59375 39.234375 62.25 
Q 35.15625 65.921875 28.609375 65.921875 
Q 23.96875 65.921875 18.8125 64.3125 
Q 13.671875 62.703125 7.8125 59.421875 
L 7.8125 69.390625 
Q 13.765625 71.78125 18.9375 73 
Q 24.125 74.21875 28.421875 74.21875 
Q 39.75 74.21875 46.484375 68.546875 
Q 53.21875 62.890625 53.21875 53.421875 
Q 53.21875 48.921875 51.53125 44.890625 
Q 49.859375 40.875 45.40625 35.40625 
Q 44.1875 33.984375 37.640625 27.21875 
Q 31.109375 20.453125 19.1875 8.296875 
z
" id="DejaVuSans-50"/>
       </defs>
       <use xlink:href="#DejaVuSans-50"/>
       <use x="63.623047" xlink:href="#DejaVuSans-48"/>
      </g>
     </g>
    </g>
    <g id="xtick_8">
     <g id="line2d_8">
      <g>
       <use style="stroke:#000000;stroke-width:0.8;" x="443.366577" xlink:href="#m05c8da9a4a" y="249.912"/>
      </g>
     </g>
     <g id="text_8">
      <!-- 25 -->
      <g transform="translate(437.004077 264.510438)scale(0.1 -0.1)">
       <use xlink:href="#DejaVuSans-50"/>
       <use x="63.623047" xlink:href="#DejaVuSans-53"/>
      </g>
     </g>
    </g>
   </g>
   <g id="matplotlib.axis_2">
    <g id="ytick_1">
     <g id="line2d_9">
      <defs>
       <path d="M 0 0 
L -3.5 0 
" id="madc79c0876" style="stroke:#000000;stroke-width:0.8;"/>
      </defs>
      <g>
       <use style="stroke:#000000;stroke-width:0.8;" x="63" xlink:href="#madc79c0876" y="238.072597"/>
      </g>
     </g>
     <g id="text_9">
      <!-- −15 -->
      <g transform="translate(34.895313 241.871815)scale(0.1 -0.1)">
       <use xlink:href="#DejaVuSans-8722"/>
       <use x="83.789062" xlink:href="#DejaVuSans-49"/>
       <use x="147.412109" xlink:href="#DejaVuSans-53"/>
      </g>
     </g>
    </g>
    <g id="ytick_2">
     <g id="line2d_10">
      <g>
       <use style="stroke:#000000;stroke-width:0.8;" x="63" xlink:href="#madc79c0876" y="209.215319"/>
      </g>
     </g>
     <g id="text_10">
      <!-- −10 -->
      <g transform="translate(34.895313 213.014537)scale(0.1 -0.1)">
       <use xlink:href="#DejaVuSans-8722"/>
       <use x="83.789062" xlink:href="#DejaVuSans-49"/>
       <use x="147.412109" xlink:href="#DejaVuSans-48"/>
      </g>
     </g>
    </g>
    <g id="ytick_3">
     <g id="line2d_11">
      <g>
       <use style="stroke:#000000;stroke-width:0.8;" x="63" xlink:href="#madc79c0876" y="180.358041"/>
      </g>
     </g>
     <g id="text_11">
      <!-- −5 -->
      <g transform="translate(41.257812 184.157259)scale(0.1 -0.1)">
       <use xlink:href="#DejaVuSans-8722"/>
       <use x="83.789062" xlink:href="#DejaVuSans-53"/>
      </g>
     </g>
    </g>
    <g id="ytick_4">
     <g id="line2d_12">
      <g>
       <use style="stroke:#000000;stroke-width:0.8;" x="63" xlink:href="#madc79c0876" y="151.500763"/>
      </g>
     </g>
     <g id="text_12">
      <!-- 0 -->
      <g transform="translate(49.6375 155.299981)scale(0.1 -0.1)">
       <use xlink:href="#DejaVuSans-48"/>
      </g>
     </g>
    </g>
    <g id="ytick_5">
     <g id="line2d_13">
      <g>
       <use style="stroke:#000000;stroke-width:0.8;" x="63" xlink:href="#madc79c0876" y="122.643485"/>
      </g>
     </g>
     <g id="text_13">
      <!-- 5 -->
      <g transform="translate(49.6375 126.442703)scale(0.1 -0.1)">
       <use xlink:href="#DejaVuSans-53"/>
      </g>
     </g>
    </g>
    <g id="ytick_6">
     <g id="line2d_14">
      <g>
       <use style="stroke:#000000;stroke-width:0.8;" x="63" xlink:href="#madc79c0876" y="93.786207"/>
      </g>
     </g>
     <g id="text_14">
      <!-- 10 -->
      <g transform="translate(43.275 97.585425)scale(0.1 -0.1)">
       <use xlink:href="#DejaVuSans-49"/>
       <use x="63.623047" xlink:href="#DejaVuSans-48"/>
      </g>
     </g>
    </g>
    <g id="ytick_7">
     <g id="line2d_15">
      <g>
       <use style="stroke:#000000;stroke-width:0.8;" x="63" xlink:href="#madc79c0876" y="64.928929"/>
      </g>
     </g>
     <g id="text_15">
      <!-- 15 -->
      <g transform="translate(43.275 68.728147)scale(0.1 -0.1)">
       <use xlink:href="#DejaVuSans-49"/>
       <use x="63.623047" xlink:href="#DejaVuSans-53"/>
      </g>
     </g>
    </g>
    <g id="ytick_8">
     <g id="line2d_16">
      <g>
       <use style="stroke:#000000;stroke-width:0.8;" x="63" xlink:href="#madc79c0876" y="36.071651"/>
      </g>
     </g>
     <g id="text_16">
      <!-- 20 -->
      <g transform="translate(43.275 39.870869)scale(0.1 -0.1)">
       <use xlink:href="#DejaVuSans-50"/>
       <use x="63.623047" xlink:href="#DejaVuSans-48"/>
      </g>
     </g>
    </g>
   </g>
   <g id="patch_3">
    <path d="M 63 249.912 
L 63 33.696 
" style="fill:none;stroke:#000000;stroke-linecap:square;stroke-linejoin:miter;stroke-width:0.8;"/>
   </g>
   <g id="patch_4">
    <path d="M 453.6 249.912 
L 453.6 33.696 
" style="fill:none;stroke:#000000;stroke-linecap:square;stroke-linejoin:miter;stroke-width:0.8;"/>
   </g>
   <g id="patch_5">
    <path d="M 63 249.912 
L 453.6 249.912 
" style="fill:none;stroke:#000000;stroke-linecap:square;stroke-linejoin:miter;stroke-width:0.8;"/>
   </g>
   <g id="patch_6">
    <path d="M 63 33.696 
L 453.6 33.696 
" style="fill:none;stroke:#000000;stroke-linecap:square;stroke-linejoin:miter;stroke-width:0.8;"/>
   </g>
   <g id="text_17">
    <!-- UMAP projection of the phylogenetic dataset -->
    <g transform="translate(124.38375 27.696)scale(0.12 -0.12)">
     <defs>
      <path d="M 8.6875 72.90625 
L 18.609375 72.90625 
L 18.609375 28.609375 
Q 18.609375 16.890625 22.84375 11.734375 
Q 27.09375 6.59375 36.625 6.59375 
Q 46.09375 6.59375 50.34375 11.734375 
Q 54.59375 16.890625 54.59375 28.609375 
L 54.59375 72.90625 
L 64.5 72.90625 
L 64.5 27.390625 
Q 64.5 13.140625 57.4375 5.859375 
Q 50.390625 -1.421875 36.625 -1.421875 
Q 22.796875 -1.421875 15.734375 5.859375 
Q 8.6875 13.140625 8.6875 27.390625 
z
" id="DejaVuSans-85"/>
      <path d="M 9.8125 72.90625 
L 24.515625 72.90625 
L 43.109375 23.296875 
L 61.8125 72.90625 
L 76.515625 72.90625 
L 76.515625 0 
L 66.890625 0 
L 66.890625 64.015625 
L 48.09375 14.015625 
L 38.1875 14.015625 
L 19.390625 64.015625 
L 19.390625 0 
L 9.8125 0 
z
" id="DejaVuSans-77"/>
      <path d="M 34.1875 63.1875 
L 20.796875 26.90625 
L 47.609375 26.90625 
z
M 28.609375 72.90625 
L 39.796875 72.90625 
L 67.578125 0 
L 57.328125 0 
L 50.6875 18.703125 
L 17.828125 18.703125 
L 11.1875 0 
L 0.78125 0 
z
" id="DejaVuSans-65"/>
      <path d="M 19.671875 64.796875 
L 19.671875 37.40625 
L 32.078125 37.40625 
Q 38.96875 37.40625 42.71875 40.96875 
Q 46.484375 44.53125 46.484375 51.125 
Q 46.484375 57.671875 42.71875 61.234375 
Q 38.96875 64.796875 32.078125 64.796875 
z
M 9.8125 72.90625 
L 32.078125 72.90625 
Q 44.34375 72.90625 50.609375 67.359375 
Q 56.890625 61.8125 56.890625 51.125 
Q 56.890625 40.328125 50.609375 34.8125 
Q 44.34375 29.296875 32.078125 29.296875 
L 19.671875 29.296875 
L 19.671875 0 
L 9.8125 0 
z
" id="DejaVuSans-80"/>
      <path id="DejaVuSans-32"/>
      <path d="M 18.109375 8.203125 
L 18.109375 -20.796875 
L 9.078125 -20.796875 
L 9.078125 54.6875 
L 18.109375 54.6875 
L 18.109375 46.390625 
Q 20.953125 51.265625 25.265625 53.625 
Q 29.59375 56 35.59375 56 
Q 45.5625 56 51.78125 48.09375 
Q 58.015625 40.1875 58.015625 27.296875 
Q 58.015625 14.40625 51.78125 6.484375 
Q 45.5625 -1.421875 35.59375 -1.421875 
Q 29.59375 -1.421875 25.265625 0.953125 
Q 20.953125 3.328125 18.109375 8.203125 
z
M 48.6875 27.296875 
Q 48.6875 37.203125 44.609375 42.84375 
Q 40.53125 48.484375 33.40625 48.484375 
Q 26.265625 48.484375 22.1875 42.84375 
Q 18.109375 37.203125 18.109375 27.296875 
Q 18.109375 17.390625 22.1875 11.75 
Q 26.265625 6.109375 33.40625 6.109375 
Q 40.53125 6.109375 44.609375 11.75 
Q 48.6875 17.390625 48.6875 27.296875 
z
" id="DejaVuSans-112"/>
      <path d="M 41.109375 46.296875 
Q 39.59375 47.171875 37.8125 47.578125 
Q 36.03125 48 33.890625 48 
Q 26.265625 48 22.1875 43.046875 
Q 18.109375 38.09375 18.109375 28.8125 
L 18.109375 0 
L 9.078125 0 
L 9.078125 54.6875 
L 18.109375 54.6875 
L 18.109375 46.1875 
Q 20.953125 51.171875 25.484375 53.578125 
Q 30.03125 56 36.53125 56 
Q 37.453125 56 38.578125 55.875 
Q 39.703125 55.765625 41.0625 55.515625 
z
" id="DejaVuSans-114"/>
      <path d="M 30.609375 48.390625 
Q 23.390625 48.390625 19.1875 42.75 
Q 14.984375 37.109375 14.984375 27.296875 
Q 14.984375 17.484375 19.15625 11.84375 
Q 23.34375 6.203125 30.609375 6.203125 
Q 37.796875 6.203125 41.984375 11.859375 
Q 46.1875 17.53125 46.1875 27.296875 
Q 46.1875 37.015625 41.984375 42.703125 
Q 37.796875 48.390625 30.609375 48.390625 
z
M 30.609375 56 
Q 42.328125 56 49.015625 48.375 
Q 55.71875 40.765625 55.71875 27.296875 
Q 55.71875 13.875 49.015625 6.21875 
Q 42.328125 -1.421875 30.609375 -1.421875 
Q 18.84375 -1.421875 12.171875 6.21875 
Q 5.515625 13.875 5.515625 27.296875 
Q 5.515625 40.765625 12.171875 48.375 
Q 18.84375 56 30.609375 56 
z
" id="DejaVuSans-111"/>
      <path d="M 9.421875 54.6875 
L 18.40625 54.6875 
L 18.40625 -0.984375 
Q 18.40625 -11.421875 14.421875 -16.109375 
Q 10.453125 -20.796875 1.609375 -20.796875 
L -1.8125 -20.796875 
L -1.8125 -13.1875 
L 0.59375 -13.1875 
Q 5.71875 -13.1875 7.5625 -10.8125 
Q 9.421875 -8.453125 9.421875 -0.984375 
z
M 9.421875 75.984375 
L 18.40625 75.984375 
L 18.40625 64.59375 
L 9.421875 64.59375 
z
" id="DejaVuSans-106"/>
      <path d="M 56.203125 29.59375 
L 56.203125 25.203125 
L 14.890625 25.203125 
Q 15.484375 15.921875 20.484375 11.0625 
Q 25.484375 6.203125 34.421875 6.203125 
Q 39.59375 6.203125 44.453125 7.46875 
Q 49.3125 8.734375 54.109375 11.28125 
L 54.109375 2.78125 
Q 49.265625 0.734375 44.1875 -0.34375 
Q 39.109375 -1.421875 33.890625 -1.421875 
Q 20.796875 -1.421875 13.15625 6.1875 
Q 5.515625 13.8125 5.515625 26.8125 
Q 5.515625 40.234375 12.765625 48.109375 
Q 20.015625 56 32.328125 56 
Q 43.359375 56 49.78125 48.890625 
Q 56.203125 41.796875 56.203125 29.59375 
z
M 47.21875 32.234375 
Q 47.125 39.59375 43.09375 43.984375 
Q 39.0625 48.390625 32.421875 48.390625 
Q 24.90625 48.390625 20.390625 44.140625 
Q 15.875 39.890625 15.1875 32.171875 
z
" id="DejaVuSans-101"/>
      <path d="M 48.78125 52.59375 
L 48.78125 44.1875 
Q 44.96875 46.296875 41.140625 47.34375 
Q 37.3125 48.390625 33.40625 48.390625 
Q 24.65625 48.390625 19.8125 42.84375 
Q 14.984375 37.3125 14.984375 27.296875 
Q 14.984375 17.28125 19.8125 11.734375 
Q 24.65625 6.203125 33.40625 6.203125 
Q 37.3125 6.203125 41.140625 7.25 
Q 44.96875 8.296875 48.78125 10.40625 
L 48.78125 2.09375 
Q 45.015625 0.34375 40.984375 -0.53125 
Q 36.96875 -1.421875 32.421875 -1.421875 
Q 20.0625 -1.421875 12.78125 6.34375 
Q 5.515625 14.109375 5.515625 27.296875 
Q 5.515625 40.671875 12.859375 48.328125 
Q 20.21875 56 33.015625 56 
Q 37.15625 56 41.109375 55.140625 
Q 45.0625 54.296875 48.78125 52.59375 
z
" id="DejaVuSans-99"/>
      <path d="M 18.3125 70.21875 
L 18.3125 54.6875 
L 36.8125 54.6875 
L 36.8125 47.703125 
L 18.3125 47.703125 
L 18.3125 18.015625 
Q 18.3125 11.328125 20.140625 9.421875 
Q 21.96875 7.515625 27.59375 7.515625 
L 36.8125 7.515625 
L 36.8125 0 
L 27.59375 0 
Q 17.1875 0 13.234375 3.875 
Q 9.28125 7.765625 9.28125 18.015625 
L 9.28125 47.703125 
L 2.6875 47.703125 
L 2.6875 54.6875 
L 9.28125 54.6875 
L 9.28125 70.21875 
z
" id="DejaVuSans-116"/>
      <path d="M 9.421875 54.6875 
L 18.40625 54.6875 
L 18.40625 0 
L 9.421875 0 
z
M 9.421875 75.984375 
L 18.40625 75.984375 
L 18.40625 64.59375 
L 9.421875 64.59375 
z
" id="DejaVuSans-105"/>
      <path d="M 54.890625 33.015625 
L 54.890625 0 
L 45.90625 0 
L 45.90625 32.71875 
Q 45.90625 40.484375 42.875 44.328125 
Q 39.84375 48.1875 33.796875 48.1875 
Q 26.515625 48.1875 22.3125 43.546875 
Q 18.109375 38.921875 18.109375 30.90625 
L 18.109375 0 
L 9.078125 0 
L 9.078125 54.6875 
L 18.109375 54.6875 
L 18.109375 46.1875 
Q 21.34375 51.125 25.703125 53.5625 
Q 30.078125 56 35.796875 56 
Q 45.21875 56 50.046875 50.171875 
Q 54.890625 44.34375 54.890625 33.015625 
z
" id="DejaVuSans-110"/>
      <path d="M 37.109375 75.984375 
L 37.109375 68.5 
L 28.515625 68.5 
Q 23.6875 68.5 21.796875 66.546875 
Q 19.921875 64.59375 19.921875 59.515625 
L 19.921875 54.6875 
L 34.71875 54.6875 
L 34.71875 47.703125 
L 19.921875 47.703125 
L 19.921875 0 
L 10.890625 0 
L 10.890625 47.703125 
L 2.296875 47.703125 
L 2.296875 54.6875 
L 10.890625 54.6875 
L 10.890625 58.5 
Q 10.890625 67.625 15.140625 71.796875 
Q 19.390625 75.984375 28.609375 75.984375 
z
" id="DejaVuSans-102"/>
      <path d="M 54.890625 33.015625 
L 54.890625 0 
L 45.90625 0 
L 45.90625 32.71875 
Q 45.90625 40.484375 42.875 44.328125 
Q 39.84375 48.1875 33.796875 48.1875 
Q 26.515625 48.1875 22.3125 43.546875 
Q 18.109375 38.921875 18.109375 30.90625 
L 18.109375 0 
L 9.078125 0 
L 9.078125 75.984375 
L 18.109375 75.984375 
L 18.109375 46.1875 
Q 21.34375 51.125 25.703125 53.5625 
Q 30.078125 56 35.796875 56 
Q 45.21875 56 50.046875 50.171875 
Q 54.890625 44.34375 54.890625 33.015625 
z
" id="DejaVuSans-104"/>
      <path d="M 32.171875 -5.078125 
Q 28.375 -14.84375 24.75 -17.8125 
Q 21.140625 -20.796875 15.09375 -20.796875 
L 7.90625 -20.796875 
L 7.90625 -13.28125 
L 13.1875 -13.28125 
Q 16.890625 -13.28125 18.9375 -11.515625 
Q 21 -9.765625 23.484375 -3.21875 
L 25.09375 0.875 
L 2.984375 54.6875 
L 12.5 54.6875 
L 29.59375 11.921875 
L 46.6875 54.6875 
L 56.203125 54.6875 
z
" id="DejaVuSans-121"/>
      <path d="M 9.421875 75.984375 
L 18.40625 75.984375 
L 18.40625 0 
L 9.421875 0 
z
" id="DejaVuSans-108"/>
      <path d="M 45.40625 27.984375 
Q 45.40625 37.75 41.375 43.109375 
Q 37.359375 48.484375 30.078125 48.484375 
Q 22.859375 48.484375 18.828125 43.109375 
Q 14.796875 37.75 14.796875 27.984375 
Q 14.796875 18.265625 18.828125 12.890625 
Q 22.859375 7.515625 30.078125 7.515625 
Q 37.359375 7.515625 41.375 12.890625 
Q 45.40625 18.265625 45.40625 27.984375 
z
M 54.390625 6.78125 
Q 54.390625 -7.171875 48.1875 -13.984375 
Q 42 -20.796875 29.203125 -20.796875 
Q 24.46875 -20.796875 20.265625 -20.09375 
Q 16.0625 -19.390625 12.109375 -17.921875 
L 12.109375 -9.1875 
Q 16.0625 -11.328125 19.921875 -12.34375 
Q 23.78125 -13.375 27.78125 -13.375 
Q 36.625 -13.375 41.015625 -8.765625 
Q 45.40625 -4.15625 45.40625 5.171875 
L 45.40625 9.625 
Q 42.625 4.78125 38.28125 2.390625 
Q 33.9375 0 27.875 0 
Q 17.828125 0 11.671875 7.65625 
Q 5.515625 15.328125 5.515625 27.984375 
Q 5.515625 40.671875 11.671875 48.328125 
Q 17.828125 56 27.875 56 
Q 33.9375 56 38.28125 53.609375 
Q 42.625 51.21875 45.40625 46.390625 
L 45.40625 54.6875 
L 54.390625 54.6875 
z
" id="DejaVuSans-103"/>
      <path d="M 45.40625 46.390625 
L 45.40625 75.984375 
L 54.390625 75.984375 
L 54.390625 0 
L 45.40625 0 
L 45.40625 8.203125 
Q 42.578125 3.328125 38.25 0.953125 
Q 33.9375 -1.421875 27.875 -1.421875 
Q 17.96875 -1.421875 11.734375 6.484375 
Q 5.515625 14.40625 5.515625 27.296875 
Q 5.515625 40.1875 11.734375 48.09375 
Q 17.96875 56 27.875 56 
Q 33.9375 56 38.25 53.625 
Q 42.578125 51.265625 45.40625 46.390625 
z
M 14.796875 27.296875 
Q 14.796875 17.390625 18.875 11.75 
Q 22.953125 6.109375 30.078125 6.109375 
Q 37.203125 6.109375 41.296875 11.75 
Q 45.40625 17.390625 45.40625 27.296875 
Q 45.40625 37.203125 41.296875 42.84375 
Q 37.203125 48.484375 30.078125 48.484375 
Q 22.953125 48.484375 18.875 42.84375 
Q 14.796875 37.203125 14.796875 27.296875 
z
" id="DejaVuSans-100"/>
      <path d="M 34.28125 27.484375 
Q 23.390625 27.484375 19.1875 25 
Q 14.984375 22.515625 14.984375 16.5 
Q 14.984375 11.71875 18.140625 8.90625 
Q 21.296875 6.109375 26.703125 6.109375 
Q 34.1875 6.109375 38.703125 11.40625 
Q 43.21875 16.703125 43.21875 25.484375 
L 43.21875 27.484375 
z
M 52.203125 31.203125 
L 52.203125 0 
L 43.21875 0 
L 43.21875 8.296875 
Q 40.140625 3.328125 35.546875 0.953125 
Q 30.953125 -1.421875 24.3125 -1.421875 
Q 15.921875 -1.421875 10.953125 3.296875 
Q 6 8.015625 6 15.921875 
Q 6 25.140625 12.171875 29.828125 
Q 18.359375 34.515625 30.609375 34.515625 
L 43.21875 34.515625 
L 43.21875 35.40625 
Q 43.21875 41.609375 39.140625 45 
Q 35.0625 48.390625 27.6875 48.390625 
Q 23 48.390625 18.546875 47.265625 
Q 14.109375 46.140625 10.015625 43.890625 
L 10.015625 52.203125 
Q 14.9375 54.109375 19.578125 55.046875 
Q 24.21875 56 28.609375 56 
Q 40.484375 56 46.34375 49.84375 
Q 52.203125 43.703125 52.203125 31.203125 
z
" id="DejaVuSans-97"/>
      <path d="M 44.28125 53.078125 
L 44.28125 44.578125 
Q 40.484375 46.53125 36.375 47.5 
Q 32.28125 48.484375 27.875 48.484375 
Q 21.1875 48.484375 17.84375 46.4375 
Q 14.5 44.390625 14.5 40.28125 
Q 14.5 37.15625 16.890625 35.375 
Q 19.28125 33.59375 26.515625 31.984375 
L 29.59375 31.296875 
Q 39.15625 29.25 43.1875 25.515625 
Q 47.21875 21.78125 47.21875 15.09375 
Q 47.21875 7.46875 41.1875 3.015625 
Q 35.15625 -1.421875 24.609375 -1.421875 
Q 20.21875 -1.421875 15.453125 -0.5625 
Q 10.6875 0.296875 5.421875 2 
L 5.421875 11.28125 
Q 10.40625 8.6875 15.234375 7.390625 
Q 20.0625 6.109375 24.8125 6.109375 
Q 31.15625 6.109375 34.5625 8.28125 
Q 37.984375 10.453125 37.984375 14.40625 
Q 37.984375 18.0625 35.515625 20.015625 
Q 33.0625 21.96875 24.703125 23.78125 
L 21.578125 24.515625 
Q 13.234375 26.265625 9.515625 29.90625 
Q 5.8125 33.546875 5.8125 39.890625 
Q 5.8125 47.609375 11.28125 51.796875 
Q 16.75 56 26.8125 56 
Q 31.78125 56 36.171875 55.265625 
Q 40.578125 54.546875 44.28125 53.078125 
z
" id="DejaVuSans-115"/>
     </defs>
     <use xlink:href="#DejaVuSans-85"/>
     <use x="73.193359" xlink:href="#DejaVuSans-77"/>
     <use x="159.472656" xlink:href="#DejaVuSans-65"/>
     <use x="227.880859" xlink:href="#DejaVuSans-80"/>
     <use x="288.183594" xlink:href="#DejaVuSans-32"/>
     <use x="319.970703" xlink:href="#DejaVuSans-112"/>
     <use x="383.447266" xlink:href="#DejaVuSans-114"/>
     <use x="422.310547" xlink:href="#DejaVuSans-111"/>
     <use x="483.492188" xlink:href="#DejaVuSans-106"/>
     <use x="511.275391" xlink:href="#DejaVuSans-101"/>
     <use x="572.798828" xlink:href="#DejaVuSans-99"/>
     <use x="627.779297" xlink:href="#DejaVuSans-116"/>
     <use x="666.988281" xlink:href="#DejaVuSans-105"/>
     <use x="694.771484" xlink:href="#DejaVuSans-111"/>
     <use x="755.953125" xlink:href="#DejaVuSans-110"/>
     <use x="819.332031" xlink:href="#DejaVuSans-32"/>
     <use x="851.119141" xlink:href="#DejaVuSans-111"/>
     <use x="912.300781" xlink:href="#DejaVuSans-102"/>
     <use x="947.505859" xlink:href="#DejaVuSans-32"/>
     <use x="979.292969" xlink:href="#DejaVuSans-116"/>
     <use x="1018.501953" xlink:href="#DejaVuSans-104"/>
     <use x="1081.880859" xlink:href="#DejaVuSans-101"/>
     <use x="1143.404297" xlink:href="#DejaVuSans-32"/>
     <use x="1175.191406" xlink:href="#DejaVuSans-112"/>
     <use x="1238.667969" xlink:href="#DejaVuSans-104"/>
     <use x="1302.046875" xlink:href="#DejaVuSans-121"/>
     <use x="1361.226562" xlink:href="#DejaVuSans-108"/>
     <use x="1389.009766" xlink:href="#DejaVuSans-111"/>
     <use x="1450.191406" xlink:href="#DejaVuSans-103"/>
     <use x="1513.667969" xlink:href="#DejaVuSans-101"/>
     <use x="1575.191406" xlink:href="#DejaVuSans-110"/>
     <use x="1638.570312" xlink:href="#DejaVuSans-101"/>
     <use x="1700.09375" xlink:href="#DejaVuSans-116"/>
     <use x="1739.302734" xlink:href="#DejaVuSans-105"/>
     <use x="1767.085938" xlink:href="#DejaVuSans-99"/>
     <use x="1822.066406" xlink:href="#DejaVuSans-32"/>
     <use x="1853.853516" xlink:href="#DejaVuSans-100"/>
     <use x="1917.330078" xlink:href="#DejaVuSans-97"/>
     <use x="1978.609375" xlink:href="#DejaVuSans-116"/>
     <use x="2017.818359" xlink:href="#DejaVuSans-97"/>
     <use x="2079.097656" xlink:href="#DejaVuSans-115"/>
     <use x="2131.197266" xlink:href="#DejaVuSans-101"/>
     <use x="2192.720703" xlink:href="#DejaVuSans-116"/>
    </g>
   </g>
  </g>
 </g>
 <defs>
  <clipPath id="p716cb13081">
   <rect height="216.216" width="390.6" x="63" y="33.696"/>
  </clipPath>
 </defs>
</svg>
