<?xml version="1.0" encoding="utf-8" standalone="no"?>
<!DOCTYPE svg PUBLIC "-//W3C//DTD SVG 1.1//EN"
  "http://www.w3.org/Graphics/SVG/1.1/DTD/svg11.dtd">
<svg xmlns:xlink="http://www.w3.org/1999/xlink" width="288pt" height="576pt" viewBox="0 0 288 576" xmlns="http://www.w3.org/2000/svg" version="1.1">
 <metadata>
  <rdf:RDF xmlns:dc="http://purl.org/dc/elements/1.1/" xmlns:cc="http://creativecommons.org/ns#" xmlns:rdf="http://www.w3.org/1999/02/22-rdf-syntax-ns#">
   <cc:Work>
    <dc:type rdf:resource="http://purl.org/dc/dcmitype/StillImage"/>
    <dc:date>2023-03-07T11:54:50.245052</dc:date>
    <dc:format>image/svg+xml</dc:format>
    <dc:creator>
     <cc:Agent>
      <dc:title>Matplotlib v3.7.1, https://matplotlib.org/</dc:title>
     </cc:Agent>
    </dc:creator>
   </cc:Work>
  </rdf:RDF>
 </metadata>
 <defs>
  <style type="text/css">*{stroke-linejoin: round; stroke-linecap: butt}</style>
 </defs>
 <g id="figure_1">
  <g id="patch_1">
   <path d="M 0 576 
L 288 576 
L 288 0 
L 0 0 
z
" style="fill: #ffffff"/>
  </g>
  <g id="axes_1">
   <g id="patch_2">
    <path d="M 36 512.64 
L 259.2 512.64 
L 259.2 69.12 
L 36 69.12 
z
" style="fill: #ffffff"/>
   </g>
   <g id="PathCollection_1">
    <path d="M 146.178008 284.623532 
C 148.053277 284.623532 149.851992 283.87848 151.178008 282.552465 
C 152.504023 281.226449 153.249075 279.427734 153.249075 277.552465 
C 153.249075 275.677196 152.504023 273.87848 151.178008 272.552465 
C 149.851992 271.226449 148.053277 270.481397 146.178008 270.481397 
C 144.302739 270.481397 142.504023 271.226449 141.178008 272.552465 
C 139.851992 273.87848 139.10694 275.677196 139.10694 277.552465 
C 139.10694 279.427734 139.851992 281.226449 141.178008 282.552465 
C 142.504023 283.87848 144.302739 284.623532 146.178008 284.623532 
z
" clip-path="url(#p7a20706af8)" style="fill: #e6194b; stroke: #e6194b"/>
    <path d="M 144.027384 411.820093 
C 145.3534 411.820093 146.625283 411.293261 147.562918 410.355627 
C 148.500553 409.417992 149.027384 408.146108 149.027384 406.820093 
C 149.027384 405.494077 148.500553 404.222194 147.562918 403.284559 
C 146.625283 402.346924 145.3534 401.820093 144.027384 401.820093 
C 142.701369 401.820093 141.429485 402.346924 140.49185 403.284559 
C 139.554216 404.222194 139.027384 405.494077 139.027384 406.820093 
C 139.027384 408.146108 139.554216 409.417992 140.49185 410.355627 
C 141.429485 411.293261 142.701369 411.820093 144.027384 411.820093 
z
" clip-path="url(#p7a20706af8)" style="fill: #ffe119; stroke: #ffe119"/>
    <path d="M 152.827768 341.978282 
C 154.451799 341.978282 156.009532 341.333048 157.157895 340.184685 
C 158.306259 339.036322 158.951493 337.478589 158.951493 335.854558 
C 158.951493 334.230527 158.306259 332.672794 157.157895 331.524431 
C 156.009532 330.376068 154.451799 329.730834 152.827768 329.730834 
C 151.203738 329.730834 149.646005 330.376068 148.497641 331.524431 
C 147.349278 332.672794 146.704044 334.230527 146.704044 335.854558 
C 146.704044 337.478589 147.349278 339.036322 148.497641 340.184685 
C 149.646005 341.333048 151.203738 341.978282 152.827768 341.978282 
z
" clip-path="url(#p7a20706af8)" style="fill: #4363d8; stroke: #4363d8"/>
    <path d="M 144.167737 303.984478 
C 146.264352 303.984478 148.275377 303.151485 149.757907 301.668954 
C 151.240438 300.186424 152.073431 298.175399 152.073431 296.078784 
C 152.073431 293.98217 151.240438 291.971145 149.757907 290.488614 
C 148.275377 289.006084 146.264352 288.17309 144.167737 288.17309 
C 142.071123 288.17309 140.060098 289.006084 138.577567 290.488614 
C 137.095037 291.971145 136.262043 293.98217 136.262043 296.078784 
C 136.262043 298.175399 137.095037 300.186424 138.577567 301.668954 
C 140.060098 303.151485 142.071123 303.984478 144.167737 303.984478 
z
" clip-path="url(#p7a20706af8)" style="fill: #f58231; stroke: #f58231"/>
    <path d="M 135.781108 315.510073 
C 138.261856 315.510073 140.641333 314.524462 142.395486 312.770308 
C 144.14964 311.016155 145.135252 308.636678 145.135252 306.15593 
C 145.135252 303.675182 144.14964 301.295705 142.395486 299.541552 
C 140.641333 297.787398 138.261856 296.801786 135.781108 296.801786 
C 133.30036 296.801786 130.920883 297.787398 129.16673 299.541552 
C 127.412576 301.295705 126.426965 303.675182 126.426965 306.15593 
C 126.426965 308.636678 127.412576 311.016155 129.16673 312.770308 
C 130.920883 314.524462 133.30036 315.510073 135.781108 315.510073 
z
" clip-path="url(#p7a20706af8)" style="fill: #ba3fdf; stroke: #ba3fdf"/>
    <path d="M 146.450834 416.033184 
C 148.074865 416.033184 149.632598 415.38795 150.780961 414.239587 
C 151.929324 413.091224 152.574558 411.533491 152.574558 409.90946 
C 152.574558 408.285429 151.929324 406.727696 150.780961 405.579333 
C 149.632598 404.43097 148.074865 403.785736 146.450834 403.785736 
C 144.826803 403.785736 143.26907 404.43097 142.120707 405.579333 
C 140.972344 406.727696 140.32711 408.285429 140.32711 409.90946 
C 140.32711 411.533491 140.972344 413.091224 142.120707 414.239587 
C 143.26907 415.38795 144.826803 416.033184 146.450834 416.033184 
z
" clip-path="url(#p7a20706af8)" style="fill: #42d4f4; stroke: #42d4f4"/>
    <path d="M 156.139495 482.488138 
C 158.620243 482.488138 160.99972 481.502526 162.753873 479.748372 
C 164.508027 477.994219 165.493638 475.614742 165.493638 473.133994 
C 165.493638 470.653246 164.508027 468.273769 162.753873 466.519616 
C 160.99972 464.765462 158.620243 463.779851 156.139495 463.779851 
C 153.658747 463.779851 151.27927 464.765462 149.525117 466.519616 
C 147.770963 468.273769 146.785352 470.653246 146.785352 473.133994 
C 146.785352 475.614742 147.770963 477.994219 149.525117 479.748372 
C 151.27927 481.502526 153.658747 482.488138 156.139495 482.488138 
z
" clip-path="url(#p7a20706af8)" style="fill: #fabed4; stroke: #fabed4"/>
    <path d="M 146.396276 368.2196 
C 149.776965 368.2196 153.019645 366.876438 155.410154 364.485929 
C 157.800662 362.095421 159.143824 358.85274 159.143824 355.472051 
C 159.143824 352.091361 157.800662 348.848681 155.410154 346.458173 
C 153.019645 344.067664 149.776965 342.724502 146.396276 342.724502 
C 143.015586 342.724502 139.772906 344.067664 137.382397 346.458173 
C 134.991889 348.848681 133.648727 352.091361 133.648727 355.472051 
C 133.648727 358.85274 134.991889 362.095421 137.382397 364.485929 
C 139.772906 366.876438 143.015586 368.2196 146.396276 368.2196 
z
" clip-path="url(#p7a20706af8)" style="fill: #469990; stroke: #469990"/>
    <path d="M 134.594939 325.275359 
C 137.704721 325.275359 140.687553 324.039829 142.886501 321.840881 
C 145.085449 319.641933 146.320979 316.659101 146.320979 313.549319 
C 146.320979 310.439537 145.085449 307.456705 142.886501 305.257757 
C 140.687553 303.05881 137.704721 301.82328 134.594939 301.82328 
C 131.485157 301.82328 128.502325 303.05881 126.303377 305.257757 
C 124.104429 307.456705 122.8689 310.439537 122.8689 313.549319 
C 122.8689 316.659101 124.104429 319.641933 126.303377 321.840881 
C 128.502325 324.039829 131.485157 325.275359 134.594939 325.275359 
z
" clip-path="url(#p7a20706af8)" style="fill: #dcbeff; stroke: #dcbeff"/>
    <path d="M 157.00437 325.693129 
C 159.301096 325.693129 161.504064 324.78063 163.128094 323.156599 
C 164.752125 321.532569 165.664624 319.329601 165.664624 317.032875 
C 165.664624 314.736149 164.752125 312.533181 163.128094 310.909151 
C 161.504064 309.28512 159.301096 308.372621 157.00437 308.372621 
C 154.707644 308.372621 152.504676 309.28512 150.880646 310.909151 
C 149.256615 312.533181 148.344116 314.736149 148.344116 317.032875 
C 148.344116 319.329601 149.256615 321.532569 150.880646 323.156599 
C 152.504676 324.78063 154.707644 325.693129 157.00437 325.693129 
z
" clip-path="url(#p7a20706af8)" style="fill: #9a6324; stroke: #9a6324"/>
    <path d="M 152.233975 224.582081 
C 154.33059 224.582081 156.341614 223.749087 157.824145 222.266557 
C 159.306675 220.784027 160.139669 218.773002 160.139669 216.676387 
C 160.139669 214.579772 159.306675 212.568748 157.824145 211.086217 
C 156.341614 209.603687 154.33059 208.770693 152.233975 208.770693 
C 150.13736 208.770693 148.126335 209.603687 146.643805 211.086217 
C 145.161275 212.568748 144.328281 214.579772 144.328281 216.676387 
C 144.328281 218.773002 145.161275 220.784027 146.643805 222.266557 
C 148.126335 223.749087 150.13736 224.582081 152.233975 224.582081 
z
" clip-path="url(#p7a20706af8)" style="fill: #b3a400; stroke: #b3a400"/>
    <path d="M 150.062583 374.442602 
C 152.359309 374.442602 154.562277 373.530103 156.186308 371.906072 
C 157.810338 370.282041 158.722837 368.079074 158.722837 365.782348 
C 158.722837 363.485621 157.810338 361.282654 156.186308 359.658623 
C 154.562277 358.034593 152.359309 357.122094 150.062583 357.122094 
C 147.765857 357.122094 145.56289 358.034593 143.938859 359.658623 
C 142.314828 361.282654 141.402329 363.485621 141.402329 365.782348 
C 141.402329 368.079074 142.314828 370.282041 143.938859 371.906072 
C 145.56289 373.530103 147.765857 374.442602 150.062583 374.442602 
z
" clip-path="url(#p7a20706af8)" style="fill: #800000; stroke: #800000"/>
    <path d="M 132.931033 510.267225 
C 134.555063 510.267225 136.112797 509.621991 137.26116 508.473627 
C 138.409523 507.325264 139.054757 505.767531 139.054757 504.1435 
C 139.054757 502.51947 138.409523 500.961736 137.26116 499.813373 
C 136.112797 498.66501 134.555063 498.019776 132.931033 498.019776 
C 131.307002 498.019776 129.749269 498.66501 128.600906 499.813373 
C 127.452543 500.961736 126.807308 502.51947 126.807308 504.1435 
C 126.807308 505.767531 127.452543 507.325264 128.600906 508.473627 
C 129.749269 509.621991 131.307002 510.267225 132.931033 510.267225 
z
" clip-path="url(#p7a20706af8)" style="fill: #82baff; stroke: #82baff"/>
    <path d="M 136.039664 255.953848 
C 139.790202 255.953848 143.387633 254.463743 146.039664 251.811712 
C 148.691695 249.159681 150.181799 245.562251 150.181799 241.811712 
C 150.181799 238.061174 148.691695 234.463743 146.039664 231.811712 
C 143.387633 229.159681 139.790202 227.669577 136.039664 227.669577 
C 132.289126 227.669577 128.691695 229.159681 126.039664 231.811712 
C 123.387633 234.463743 121.897528 238.061174 121.897528 241.811712 
C 121.897528 245.562251 123.387633 249.159681 126.039664 251.811712 
C 128.691695 254.463743 132.289126 255.953848 136.039664 255.953848 
z
" clip-path="url(#p7a20706af8)" style="fill: #999999; stroke: #999999"/>
    <path d="M 146.499709 238.676896 
C 148.12374 238.676896 149.681473 238.031662 150.829836 236.883299 
C 151.9782 235.734936 152.623434 234.177203 152.623434 232.553172 
C 152.623434 230.929141 151.9782 229.371408 150.829836 228.223045 
C 149.681473 227.074682 148.12374 226.429448 146.499709 226.429448 
C 144.875679 226.429448 143.317946 227.074682 142.169582 228.223045 
C 141.021219 229.371408 140.375985 230.929141 140.375985 232.553172 
C 140.375985 234.177203 141.021219 235.734936 142.169582 236.883299 
C 143.317946 238.031662 144.875679 238.676896 146.499709 238.676896 
z
" clip-path="url(#p7a20706af8)" style="fill: #e69f00; stroke: #e69f00"/>
    <path d="M 141.709321 368.489152 
C 143.035337 368.489152 144.30722 367.962321 145.244855 367.024686 
C 146.182489 366.087052 146.709321 364.815168 146.709321 363.489152 
C 146.709321 362.163137 146.182489 360.891253 145.244855 359.953618 
C 144.30722 359.015984 143.035337 358.489152 141.709321 358.489152 
C 140.383306 358.489152 139.111422 359.015984 138.173787 359.953618 
C 137.236153 360.891253 136.709321 362.163137 136.709321 363.489152 
C 136.709321 364.815168 137.236153 366.087052 138.173787 367.024686 
C 139.111422 367.962321 140.383306 368.489152 141.709321 368.489152 
z
" clip-path="url(#p7a20706af8)" style="fill: #009e73; stroke: #009e73"/>
    <path d="M 145.327576 376.374922 
C 146.653592 376.374922 147.925476 375.84809 148.86311 374.910456 
C 149.800745 373.972821 150.327576 372.700937 150.327576 371.374922 
C 150.327576 370.048906 149.800745 368.777022 148.86311 367.839388 
C 147.925476 366.901753 146.653592 366.374922 145.327576 366.374922 
C 144.001561 366.374922 142.729677 366.901753 141.792042 367.839388 
C 140.854408 368.777022 140.327576 370.048906 140.327576 371.374922 
C 140.327576 372.700937 140.854408 373.972821 141.792042 374.910456 
C 142.729677 375.84809 144.001561 376.374922 145.327576 376.374922 
z
" clip-path="url(#p7a20706af8)" style="fill: #0072b2; stroke: #0072b2"/>
    <path d="M 152.610577 320.946969 
C 154.707191 320.946969 156.718216 320.113975 158.200747 318.631444 
C 159.683277 317.148914 160.516271 315.137889 160.516271 313.041274 
C 160.516271 310.94466 159.683277 308.933635 158.200747 307.451105 
C 156.718216 305.968574 154.707191 305.13558 152.610577 305.13558 
C 150.513962 305.13558 148.502937 305.968574 147.020407 307.451105 
C 145.537876 308.933635 144.704883 310.94466 144.704883 313.041274 
C 144.704883 315.137889 145.537876 317.148914 147.020407 318.631444 
C 148.502937 320.113975 150.513962 320.946969 152.610577 320.946969 
z
" clip-path="url(#p7a20706af8)" style="fill: #d55e00; stroke: #d55e00"/>
    <path d="M 147.467943 354.856551 
C 150.119974 354.856551 152.663741 353.802888 154.539011 351.927619 
C 156.41428 350.05235 157.467943 347.508582 157.467943 344.856551 
C 157.467943 342.20452 156.41428 339.660752 154.539011 337.785483 
C 152.663741 335.910214 150.119974 334.856551 147.467943 334.856551 
C 144.815912 334.856551 142.272144 335.910214 140.396875 337.785483 
C 138.521606 339.660752 137.467943 342.20452 137.467943 344.856551 
C 137.467943 347.508582 138.521606 350.05235 140.396875 351.927619 
C 142.272144 353.802888 144.815912 354.856551 147.467943 354.856551 
z
" clip-path="url(#p7a20706af8)" style="fill: #e6194b; stroke: #e6194b"/>
   </g>
   <g id="matplotlib.axis_1">
    <g id="xtick_1">
     <g id="line2d_1">
      <defs>
       <path id="mfed9e03900" d="M 0 0 
L 0 3.5 
" style="stroke: #000000; stroke-width: 0.8"/>
      </defs>
      <g>
       <use xlink:href="#mfed9e03900" x="147.6" y="512.64" style="stroke: #000000; stroke-width: 0.8"/>
      </g>
     </g>
     <g id="text_1">
      <!-- MeanPD -->
      <g transform="translate(127.111719 527.238438) scale(0.1 -0.1)">
       <defs>
        <path id="DejaVuSans-4d" d="M 628 4666 
L 1569 4666 
L 2759 1491 
L 3956 4666 
L 4897 4666 
L 4897 0 
L 4281 0 
L 4281 4097 
L 3078 897 
L 2444 897 
L 1241 4097 
L 1241 0 
L 628 0 
L 628 4666 
z
" transform="scale(0.015625)"/>
        <path id="DejaVuSans-65" d="M 3597 1894 
L 3597 1613 
L 953 1613 
Q 991 1019 1311 708 
Q 1631 397 2203 397 
Q 2534 397 2845 478 
Q 3156 559 3463 722 
L 3463 178 
Q 3153 47 2828 -22 
Q 2503 -91 2169 -91 
Q 1331 -91 842 396 
Q 353 884 353 1716 
Q 353 2575 817 3079 
Q 1281 3584 2069 3584 
Q 2775 3584 3186 3129 
Q 3597 2675 3597 1894 
z
M 3022 2063 
Q 3016 2534 2758 2815 
Q 2500 3097 2075 3097 
Q 1594 3097 1305 2825 
Q 1016 2553 972 2059 
L 3022 2063 
z
" transform="scale(0.015625)"/>
        <path id="DejaVuSans-61" d="M 2194 1759 
Q 1497 1759 1228 1600 
Q 959 1441 959 1056 
Q 959 750 1161 570 
Q 1363 391 1709 391 
Q 2188 391 2477 730 
Q 2766 1069 2766 1631 
L 2766 1759 
L 2194 1759 
z
M 3341 1997 
L 3341 0 
L 2766 0 
L 2766 531 
Q 2569 213 2275 61 
Q 1981 -91 1556 -91 
Q 1019 -91 701 211 
Q 384 513 384 1019 
Q 384 1609 779 1909 
Q 1175 2209 1959 2209 
L 2766 2209 
L 2766 2266 
Q 2766 2663 2505 2880 
Q 2244 3097 1772 3097 
Q 1472 3097 1187 3025 
Q 903 2953 641 2809 
L 641 3341 
Q 956 3463 1253 3523 
Q 1550 3584 1831 3584 
Q 2591 3584 2966 3190 
Q 3341 2797 3341 1997 
z
" transform="scale(0.015625)"/>
        <path id="DejaVuSans-6e" d="M 3513 2113 
L 3513 0 
L 2938 0 
L 2938 2094 
Q 2938 2591 2744 2837 
Q 2550 3084 2163 3084 
Q 1697 3084 1428 2787 
Q 1159 2491 1159 1978 
L 1159 0 
L 581 0 
L 581 3500 
L 1159 3500 
L 1159 2956 
Q 1366 3272 1645 3428 
Q 1925 3584 2291 3584 
Q 2894 3584 3203 3211 
Q 3513 2838 3513 2113 
z
" transform="scale(0.015625)"/>
        <path id="DejaVuSans-50" d="M 1259 4147 
L 1259 2394 
L 2053 2394 
Q 2494 2394 2734 2622 
Q 2975 2850 2975 3272 
Q 2975 3691 2734 3919 
Q 2494 4147 2053 4147 
L 1259 4147 
z
M 628 4666 
L 2053 4666 
Q 2838 4666 3239 4311 
Q 3641 3956 3641 3272 
Q 3641 2581 3239 2228 
Q 2838 1875 2053 1875 
L 1259 1875 
L 1259 0 
L 628 0 
L 628 4666 
z
" transform="scale(0.015625)"/>
        <path id="DejaVuSans-44" d="M 1259 4147 
L 1259 519 
L 2022 519 
Q 2988 519 3436 956 
Q 3884 1394 3884 2338 
Q 3884 3275 3436 3711 
Q 2988 4147 2022 4147 
L 1259 4147 
z
M 628 4666 
L 1925 4666 
Q 3281 4666 3915 4102 
Q 4550 3538 4550 2338 
Q 4550 1131 3912 565 
Q 3275 0 1925 0 
L 628 0 
L 628 4666 
z
" transform="scale(0.015625)"/>
       </defs>
       <use xlink:href="#DejaVuSans-4d"/>
       <use xlink:href="#DejaVuSans-65" x="86.279297"/>
       <use xlink:href="#DejaVuSans-61" x="147.802734"/>
       <use xlink:href="#DejaVuSans-6e" x="209.082031"/>
       <use xlink:href="#DejaVuSans-50" x="272.460938"/>
       <use xlink:href="#DejaVuSans-44" x="332.763672"/>
      </g>
     </g>
    </g>
   </g>
   <g id="matplotlib.axis_2">
    <g id="ytick_1">
     <g id="line2d_2">
      <defs>
       <path id="m19db7d8d84" d="M 0 0 
L -3.5 0 
" style="stroke: #000000; stroke-width: 0.8"/>
      </defs>
      <g>
       <use xlink:href="#m19db7d8d84" x="36" y="503.203404" style="stroke: #000000; stroke-width: 0.8"/>
      </g>
     </g>
     <g id="text_2">
      <!-- −1.5 -->
      <g transform="translate(4.717187 507.002623) scale(0.1 -0.1)">
       <defs>
        <path id="DejaVuSans-2212" d="M 678 2272 
L 4684 2272 
L 4684 1741 
L 678 1741 
L 678 2272 
z
" transform="scale(0.015625)"/>
        <path id="DejaVuSans-31" d="M 794 531 
L 1825 531 
L 1825 4091 
L 703 3866 
L 703 4441 
L 1819 4666 
L 2450 4666 
L 2450 531 
L 3481 531 
L 3481 0 
L 794 0 
L 794 531 
z
" transform="scale(0.015625)"/>
        <path id="DejaVuSans-2e" d="M 684 794 
L 1344 794 
L 1344 0 
L 684 0 
L 684 794 
z
" transform="scale(0.015625)"/>
        <path id="DejaVuSans-35" d="M 691 4666 
L 3169 4666 
L 3169 4134 
L 1269 4134 
L 1269 2991 
Q 1406 3038 1543 3061 
Q 1681 3084 1819 3084 
Q 2600 3084 3056 2656 
Q 3513 2228 3513 1497 
Q 3513 744 3044 326 
Q 2575 -91 1722 -91 
Q 1428 -91 1123 -41 
Q 819 9 494 109 
L 494 744 
Q 775 591 1075 516 
Q 1375 441 1709 441 
Q 2250 441 2565 725 
Q 2881 1009 2881 1497 
Q 2881 1984 2565 2268 
Q 2250 2553 1709 2553 
Q 1456 2553 1204 2497 
Q 953 2441 691 2322 
L 691 4666 
z
" transform="scale(0.015625)"/>
       </defs>
       <use xlink:href="#DejaVuSans-2212"/>
       <use xlink:href="#DejaVuSans-31" x="83.789062"/>
       <use xlink:href="#DejaVuSans-2e" x="147.412109"/>
       <use xlink:href="#DejaVuSans-35" x="179.199219"/>
      </g>
     </g>
    </g>
    <g id="ytick_2">
     <g id="line2d_3">
      <g>
       <use xlink:href="#m19db7d8d84" x="36" y="456.020426" style="stroke: #000000; stroke-width: 0.8"/>
      </g>
     </g>
     <g id="text_3">
      <!-- −1.0 -->
      <g transform="translate(4.717187 459.819644) scale(0.1 -0.1)">
       <defs>
        <path id="DejaVuSans-30" d="M 2034 4250 
Q 1547 4250 1301 3770 
Q 1056 3291 1056 2328 
Q 1056 1369 1301 889 
Q 1547 409 2034 409 
Q 2525 409 2770 889 
Q 3016 1369 3016 2328 
Q 3016 3291 2770 3770 
Q 2525 4250 2034 4250 
z
M 2034 4750 
Q 2819 4750 3233 4129 
Q 3647 3509 3647 2328 
Q 3647 1150 3233 529 
Q 2819 -91 2034 -91 
Q 1250 -91 836 529 
Q 422 1150 422 2328 
Q 422 3509 836 4129 
Q 1250 4750 2034 4750 
z
" transform="scale(0.015625)"/>
       </defs>
       <use xlink:href="#DejaVuSans-2212"/>
       <use xlink:href="#DejaVuSans-31" x="83.789062"/>
       <use xlink:href="#DejaVuSans-2e" x="147.412109"/>
       <use xlink:href="#DejaVuSans-30" x="179.199219"/>
      </g>
     </g>
    </g>
    <g id="ytick_3">
     <g id="line2d_4">
      <g>
       <use xlink:href="#m19db7d8d84" x="36" y="408.837447" style="stroke: #000000; stroke-width: 0.8"/>
      </g>
     </g>
     <g id="text_4">
      <!-- −0.5 -->
      <g transform="translate(4.717187 412.636666) scale(0.1 -0.1)">
       <use xlink:href="#DejaVuSans-2212"/>
       <use xlink:href="#DejaVuSans-30" x="83.789062"/>
       <use xlink:href="#DejaVuSans-2e" x="147.412109"/>
       <use xlink:href="#DejaVuSans-35" x="179.199219"/>
      </g>
     </g>
    </g>
    <g id="ytick_4">
     <g id="line2d_5">
      <g>
       <use xlink:href="#m19db7d8d84" x="36" y="361.654468" style="stroke: #000000; stroke-width: 0.8"/>
      </g>
     </g>
     <g id="text_5">
      <!-- 0.0 -->
      <g transform="translate(13.096875 365.453687) scale(0.1 -0.1)">
       <use xlink:href="#DejaVuSans-30"/>
       <use xlink:href="#DejaVuSans-2e" x="63.623047"/>
       <use xlink:href="#DejaVuSans-30" x="95.410156"/>
      </g>
     </g>
    </g>
    <g id="ytick_5">
     <g id="line2d_6">
      <g>
       <use xlink:href="#m19db7d8d84" x="36" y="314.471489" style="stroke: #000000; stroke-width: 0.8"/>
      </g>
     </g>
     <g id="text_6">
      <!-- 0.5 -->
      <g transform="translate(13.096875 318.270708) scale(0.1 -0.1)">
       <use xlink:href="#DejaVuSans-30"/>
       <use xlink:href="#DejaVuSans-2e" x="63.623047"/>
       <use xlink:href="#DejaVuSans-35" x="95.410156"/>
      </g>
     </g>
    </g>
    <g id="ytick_6">
     <g id="line2d_7">
      <g>
       <use xlink:href="#m19db7d8d84" x="36" y="267.288511" style="stroke: #000000; stroke-width: 0.8"/>
      </g>
     </g>
     <g id="text_7">
      <!-- 1.0 -->
      <g transform="translate(13.096875 271.087729) scale(0.1 -0.1)">
       <use xlink:href="#DejaVuSans-31"/>
       <use xlink:href="#DejaVuSans-2e" x="63.623047"/>
       <use xlink:href="#DejaVuSans-30" x="95.410156"/>
      </g>
     </g>
    </g>
    <g id="ytick_7">
     <g id="line2d_8">
      <g>
       <use xlink:href="#m19db7d8d84" x="36" y="220.105532" style="stroke: #000000; stroke-width: 0.8"/>
      </g>
     </g>
     <g id="text_8">
      <!-- 1.5 -->
      <g transform="translate(13.096875 223.904751) scale(0.1 -0.1)">
       <use xlink:href="#DejaVuSans-31"/>
       <use xlink:href="#DejaVuSans-2e" x="63.623047"/>
       <use xlink:href="#DejaVuSans-35" x="95.410156"/>
      </g>
     </g>
    </g>
    <g id="ytick_8">
     <g id="line2d_9">
      <g>
       <use xlink:href="#m19db7d8d84" x="36" y="172.922553" style="stroke: #000000; stroke-width: 0.8"/>
      </g>
     </g>
     <g id="text_9">
      <!-- 2.0 -->
      <g transform="translate(13.096875 176.721772) scale(0.1 -0.1)">
       <defs>
        <path id="DejaVuSans-32" d="M 1228 531 
L 3431 531 
L 3431 0 
L 469 0 
L 469 531 
Q 828 903 1448 1529 
Q 2069 2156 2228 2338 
Q 2531 2678 2651 2914 
Q 2772 3150 2772 3378 
Q 2772 3750 2511 3984 
Q 2250 4219 1831 4219 
Q 1534 4219 1204 4116 
Q 875 4013 500 3803 
L 500 4441 
Q 881 4594 1212 4672 
Q 1544 4750 1819 4750 
Q 2544 4750 2975 4387 
Q 3406 4025 3406 3419 
Q 3406 3131 3298 2873 
Q 3191 2616 2906 2266 
Q 2828 2175 2409 1742 
Q 1991 1309 1228 531 
z
" transform="scale(0.015625)"/>
       </defs>
       <use xlink:href="#DejaVuSans-32"/>
       <use xlink:href="#DejaVuSans-2e" x="63.623047"/>
       <use xlink:href="#DejaVuSans-30" x="95.410156"/>
      </g>
     </g>
    </g>
    <g id="ytick_9">
     <g id="line2d_10">
      <g>
       <use xlink:href="#m19db7d8d84" x="36" y="125.739574" style="stroke: #000000; stroke-width: 0.8"/>
      </g>
     </g>
     <g id="text_10">
      <!-- 2.5 -->
      <g transform="translate(13.096875 129.538793) scale(0.1 -0.1)">
       <use xlink:href="#DejaVuSans-32"/>
       <use xlink:href="#DejaVuSans-2e" x="63.623047"/>
       <use xlink:href="#DejaVuSans-35" x="95.410156"/>
      </g>
     </g>
    </g>
    <g id="ytick_10">
     <g id="line2d_11">
      <g>
       <use xlink:href="#m19db7d8d84" x="36" y="78.556596" style="stroke: #000000; stroke-width: 0.8"/>
      </g>
     </g>
     <g id="text_11">
      <!-- 3.0 -->
      <g transform="translate(13.096875 82.355814) scale(0.1 -0.1)">
       <defs>
        <path id="DejaVuSans-33" d="M 2597 2516 
Q 3050 2419 3304 2112 
Q 3559 1806 3559 1356 
Q 3559 666 3084 287 
Q 2609 -91 1734 -91 
Q 1441 -91 1130 -33 
Q 819 25 488 141 
L 488 750 
Q 750 597 1062 519 
Q 1375 441 1716 441 
Q 2309 441 2620 675 
Q 2931 909 2931 1356 
Q 2931 1769 2642 2001 
Q 2353 2234 1838 2234 
L 1294 2234 
L 1294 2753 
L 1863 2753 
Q 2328 2753 2575 2939 
Q 2822 3125 2822 3475 
Q 2822 3834 2567 4026 
Q 2313 4219 1838 4219 
Q 1578 4219 1281 4162 
Q 984 4106 628 3988 
L 628 4550 
Q 988 4650 1302 4700 
Q 1616 4750 1894 4750 
Q 2613 4750 3031 4423 
Q 3450 4097 3450 3541 
Q 3450 3153 3228 2886 
Q 3006 2619 2597 2516 
z
" transform="scale(0.015625)"/>
       </defs>
       <use xlink:href="#DejaVuSans-33"/>
       <use xlink:href="#DejaVuSans-2e" x="63.623047"/>
       <use xlink:href="#DejaVuSans-30" x="95.410156"/>
      </g>
     </g>
    </g>
    <g id="text_12">
     <!-- LogOdds -->
     <g transform="translate(-1.3625 312.701094) rotate(-90) scale(0.1 -0.1)">
      <defs>
       <path id="DejaVuSans-4c" d="M 628 4666 
L 1259 4666 
L 1259 531 
L 3531 531 
L 3531 0 
L 628 0 
L 628 4666 
z
" transform="scale(0.015625)"/>
       <path id="DejaVuSans-6f" d="M 1959 3097 
Q 1497 3097 1228 2736 
Q 959 2375 959 1747 
Q 959 1119 1226 758 
Q 1494 397 1959 397 
Q 2419 397 2687 759 
Q 2956 1122 2956 1747 
Q 2956 2369 2687 2733 
Q 2419 3097 1959 3097 
z
M 1959 3584 
Q 2709 3584 3137 3096 
Q 3566 2609 3566 1747 
Q 3566 888 3137 398 
Q 2709 -91 1959 -91 
Q 1206 -91 779 398 
Q 353 888 353 1747 
Q 353 2609 779 3096 
Q 1206 3584 1959 3584 
z
" transform="scale(0.015625)"/>
       <path id="DejaVuSans-67" d="M 2906 1791 
Q 2906 2416 2648 2759 
Q 2391 3103 1925 3103 
Q 1463 3103 1205 2759 
Q 947 2416 947 1791 
Q 947 1169 1205 825 
Q 1463 481 1925 481 
Q 2391 481 2648 825 
Q 2906 1169 2906 1791 
z
M 3481 434 
Q 3481 -459 3084 -895 
Q 2688 -1331 1869 -1331 
Q 1566 -1331 1297 -1286 
Q 1028 -1241 775 -1147 
L 775 -588 
Q 1028 -725 1275 -790 
Q 1522 -856 1778 -856 
Q 2344 -856 2625 -561 
Q 2906 -266 2906 331 
L 2906 616 
Q 2728 306 2450 153 
Q 2172 0 1784 0 
Q 1141 0 747 490 
Q 353 981 353 1791 
Q 353 2603 747 3093 
Q 1141 3584 1784 3584 
Q 2172 3584 2450 3431 
Q 2728 3278 2906 2969 
L 2906 3500 
L 3481 3500 
L 3481 434 
z
" transform="scale(0.015625)"/>
       <path id="DejaVuSans-4f" d="M 2522 4238 
Q 1834 4238 1429 3725 
Q 1025 3213 1025 2328 
Q 1025 1447 1429 934 
Q 1834 422 2522 422 
Q 3209 422 3611 934 
Q 4013 1447 4013 2328 
Q 4013 3213 3611 3725 
Q 3209 4238 2522 4238 
z
M 2522 4750 
Q 3503 4750 4090 4092 
Q 4678 3434 4678 2328 
Q 4678 1225 4090 567 
Q 3503 -91 2522 -91 
Q 1538 -91 948 565 
Q 359 1222 359 2328 
Q 359 3434 948 4092 
Q 1538 4750 2522 4750 
z
" transform="scale(0.015625)"/>
       <path id="DejaVuSans-64" d="M 2906 2969 
L 2906 4863 
L 3481 4863 
L 3481 0 
L 2906 0 
L 2906 525 
Q 2725 213 2448 61 
Q 2172 -91 1784 -91 
Q 1150 -91 751 415 
Q 353 922 353 1747 
Q 353 2572 751 3078 
Q 1150 3584 1784 3584 
Q 2172 3584 2448 3432 
Q 2725 3281 2906 2969 
z
M 947 1747 
Q 947 1113 1208 752 
Q 1469 391 1925 391 
Q 2381 391 2643 752 
Q 2906 1113 2906 1747 
Q 2906 2381 2643 2742 
Q 2381 3103 1925 3103 
Q 1469 3103 1208 2742 
Q 947 2381 947 1747 
z
" transform="scale(0.015625)"/>
       <path id="DejaVuSans-73" d="M 2834 3397 
L 2834 2853 
Q 2591 2978 2328 3040 
Q 2066 3103 1784 3103 
Q 1356 3103 1142 2972 
Q 928 2841 928 2578 
Q 928 2378 1081 2264 
Q 1234 2150 1697 2047 
L 1894 2003 
Q 2506 1872 2764 1633 
Q 3022 1394 3022 966 
Q 3022 478 2636 193 
Q 2250 -91 1575 -91 
Q 1294 -91 989 -36 
Q 684 19 347 128 
L 347 722 
Q 666 556 975 473 
Q 1284 391 1588 391 
Q 1994 391 2212 530 
Q 2431 669 2431 922 
Q 2431 1156 2273 1281 
Q 2116 1406 1581 1522 
L 1381 1569 
Q 847 1681 609 1914 
Q 372 2147 372 2553 
Q 372 3047 722 3315 
Q 1072 3584 1716 3584 
Q 2034 3584 2315 3537 
Q 2597 3491 2834 3397 
z
" transform="scale(0.015625)"/>
      </defs>
      <use xlink:href="#DejaVuSans-4c"/>
      <use xlink:href="#DejaVuSans-6f" x="53.962891"/>
      <use xlink:href="#DejaVuSans-67" x="115.144531"/>
      <use xlink:href="#DejaVuSans-4f" x="178.621094"/>
      <use xlink:href="#DejaVuSans-64" x="257.332031"/>
      <use xlink:href="#DejaVuSans-64" x="320.808594"/>
      <use xlink:href="#DejaVuSans-73" x="384.285156"/>
     </g>
    </g>
   </g>
   <g id="line2d_12">
    <path d="M 130.86 368.578635 
L 164.34 368.578635 
L 164.34 301.117357 
L 130.86 301.117357 
L 130.86 368.578635 
" clip-path="url(#p7a20706af8)" style="fill: none; stroke: #000000; stroke-linecap: square"/>
   </g>
   <g id="line2d_13">
    <path d="M 147.6 368.578635 
L 147.6 409.90946 
" clip-path="url(#p7a20706af8)" style="fill: none; stroke: #000000; stroke-linecap: square"/>
   </g>
   <g id="line2d_14">
    <path d="M 147.6 301.117357 
L 147.6 216.676387 
" clip-path="url(#p7a20706af8)" style="fill: none; stroke: #000000; stroke-linecap: square"/>
   </g>
   <g id="line2d_15">
    <path d="M 139.23 409.90946 
L 155.97 409.90946 
" clip-path="url(#p7a20706af8)" style="fill: none; stroke: #000000; stroke-linecap: square"/>
   </g>
   <g id="line2d_16">
    <path d="M 139.23 216.676387 
L 155.97 216.676387 
" clip-path="url(#p7a20706af8)" style="fill: none; stroke: #000000; stroke-linecap: square"/>
   </g>
   <g id="line2d_17">
    <path d="M 130.86 335.854558 
L 164.34 335.854558 
" clip-path="url(#p7a20706af8)" style="fill: none; stroke: #ff7f0e; stroke-linecap: square"/>
   </g>
   <g id="patch_3">
    <path d="M 36 512.64 
L 36 69.12 
" style="fill: none; stroke: #000000; stroke-width: 0.8; stroke-linejoin: miter; stroke-linecap: square"/>
   </g>
   <g id="patch_4">
    <path d="M 259.2 512.64 
L 259.2 69.12 
" style="fill: none; stroke: #000000; stroke-width: 0.8; stroke-linejoin: miter; stroke-linecap: square"/>
   </g>
   <g id="patch_5">
    <path d="M 36 512.64 
L 259.2 512.64 
" style="fill: none; stroke: #000000; stroke-width: 0.8; stroke-linejoin: miter; stroke-linecap: square"/>
   </g>
   <g id="patch_6">
    <path d="M 36 69.12 
L 259.2 69.12 
" style="fill: none; stroke: #000000; stroke-width: 0.8; stroke-linejoin: miter; stroke-linecap: square"/>
   </g>
   <g id="text_13">
    <!-- 0.0 -->
    <g style="fill: #e6194b" transform="translate(148.410008 276.608805) scale(0.1 -0.1)">
     <use xlink:href="#DejaVuSans-30"/>
     <use xlink:href="#DejaVuSans-2e" x="63.623047"/>
     <use xlink:href="#DejaVuSans-30" x="95.410156"/>
    </g>
   </g>
   <g id="text_14">
    <!-- 2 -->
    <g style="fill: #ffe119" transform="translate(146.259384 405.876433) scale(0.1 -0.1)">
     <use xlink:href="#DejaVuSans-32"/>
    </g>
   </g>
   <g id="text_15">
    <!-- 3.0 -->
    <g style="fill: #4363d8" transform="translate(155.059768 334.910899) scale(0.1 -0.1)">
     <use xlink:href="#DejaVuSans-33"/>
     <use xlink:href="#DejaVuSans-2e" x="63.623047"/>
     <use xlink:href="#DejaVuSans-30" x="95.410156"/>
    </g>
   </g>
   <g id="text_16">
    <!-- 4 -->
    <g style="fill: #f58231" transform="translate(146.399737 295.135125) scale(0.1 -0.1)">
     <defs>
      <path id="DejaVuSans-34" d="M 2419 4116 
L 825 1625 
L 2419 1625 
L 2419 4116 
z
M 2253 4666 
L 3047 4666 
L 3047 1625 
L 3713 1625 
L 3713 1100 
L 3047 1100 
L 3047 0 
L 2419 0 
L 2419 1100 
L 313 1100 
L 313 1709 
L 2253 4666 
z
" transform="scale(0.015625)"/>
     </defs>
     <use xlink:href="#DejaVuSans-34"/>
    </g>
   </g>
   <g id="text_17">
    <!-- 5 -->
    <g style="fill: #ba3fdf" transform="translate(138.013108 305.21227) scale(0.1 -0.1)">
     <use xlink:href="#DejaVuSans-35"/>
    </g>
   </g>
   <g id="text_18">
    <!-- 6.0 -->
    <g style="fill: #42d4f4" transform="translate(148.682834 408.9658) scale(0.1 -0.1)">
     <defs>
      <path id="DejaVuSans-36" d="M 2113 2584 
Q 1688 2584 1439 2293 
Q 1191 2003 1191 1497 
Q 1191 994 1439 701 
Q 1688 409 2113 409 
Q 2538 409 2786 701 
Q 3034 994 3034 1497 
Q 3034 2003 2786 2293 
Q 2538 2584 2113 2584 
z
M 3366 4563 
L 3366 3988 
Q 3128 4100 2886 4159 
Q 2644 4219 2406 4219 
Q 1781 4219 1451 3797 
Q 1122 3375 1075 2522 
Q 1259 2794 1537 2939 
Q 1816 3084 2150 3084 
Q 2853 3084 3261 2657 
Q 3669 2231 3669 1497 
Q 3669 778 3244 343 
Q 2819 -91 2113 -91 
Q 1303 -91 875 529 
Q 447 1150 447 2328 
Q 447 3434 972 4092 
Q 1497 4750 2381 4750 
Q 2619 4750 2861 4703 
Q 3103 4656 3366 4563 
z
" transform="scale(0.015625)"/>
     </defs>
     <use xlink:href="#DejaVuSans-36"/>
     <use xlink:href="#DejaVuSans-2e" x="63.623047"/>
     <use xlink:href="#DejaVuSans-30" x="95.410156"/>
    </g>
   </g>
   <g id="text_19">
    <!-- 8 -->
    <g style="fill: #fabed4" transform="translate(158.371495 472.190335) scale(0.1 -0.1)">
     <defs>
      <path id="DejaVuSans-38" d="M 2034 2216 
Q 1584 2216 1326 1975 
Q 1069 1734 1069 1313 
Q 1069 891 1326 650 
Q 1584 409 2034 409 
Q 2484 409 2743 651 
Q 3003 894 3003 1313 
Q 3003 1734 2745 1975 
Q 2488 2216 2034 2216 
z
M 1403 2484 
Q 997 2584 770 2862 
Q 544 3141 544 3541 
Q 544 4100 942 4425 
Q 1341 4750 2034 4750 
Q 2731 4750 3128 4425 
Q 3525 4100 3525 3541 
Q 3525 3141 3298 2862 
Q 3072 2584 2669 2484 
Q 3125 2378 3379 2068 
Q 3634 1759 3634 1313 
Q 3634 634 3220 271 
Q 2806 -91 2034 -91 
Q 1263 -91 848 271 
Q 434 634 434 1313 
Q 434 1759 690 2068 
Q 947 2378 1403 2484 
z
M 1172 3481 
Q 1172 3119 1398 2916 
Q 1625 2713 2034 2713 
Q 2441 2713 2670 2916 
Q 2900 3119 2900 3481 
Q 2900 3844 2670 4047 
Q 2441 4250 2034 4250 
Q 1625 4250 1398 4047 
Q 1172 3844 1172 3481 
z
" transform="scale(0.015625)"/>
     </defs>
     <use xlink:href="#DejaVuSans-38"/>
    </g>
   </g>
   <g id="text_20">
    <!-- 9 -->
    <g style="fill: #469990" transform="translate(148.628276 354.528391) scale(0.1 -0.1)">
     <defs>
      <path id="DejaVuSans-39" d="M 703 97 
L 703 672 
Q 941 559 1184 500 
Q 1428 441 1663 441 
Q 2288 441 2617 861 
Q 2947 1281 2994 2138 
Q 2813 1869 2534 1725 
Q 2256 1581 1919 1581 
Q 1219 1581 811 2004 
Q 403 2428 403 3163 
Q 403 3881 828 4315 
Q 1253 4750 1959 4750 
Q 2769 4750 3195 4129 
Q 3622 3509 3622 2328 
Q 3622 1225 3098 567 
Q 2575 -91 1691 -91 
Q 1453 -91 1209 -44 
Q 966 3 703 97 
z
M 1959 2075 
Q 2384 2075 2632 2365 
Q 2881 2656 2881 3163 
Q 2881 3666 2632 3958 
Q 2384 4250 1959 4250 
Q 1534 4250 1286 3958 
Q 1038 3666 1038 3163 
Q 1038 2656 1286 2365 
Q 1534 2075 1959 2075 
z
" transform="scale(0.015625)"/>
     </defs>
     <use xlink:href="#DejaVuSans-39"/>
    </g>
   </g>
   <g id="text_21">
    <!-- 10.0 -->
    <g style="fill: #dcbeff" transform="translate(136.826939 312.60566) scale(0.1 -0.1)">
     <use xlink:href="#DejaVuSans-31"/>
     <use xlink:href="#DejaVuSans-30" x="63.623047"/>
     <use xlink:href="#DejaVuSans-2e" x="127.246094"/>
     <use xlink:href="#DejaVuSans-30" x="159.033203"/>
    </g>
   </g>
   <g id="text_22">
    <!-- 11 -->
    <g style="fill: #9a6324" transform="translate(159.23637 316.089215) scale(0.1 -0.1)">
     <use xlink:href="#DejaVuSans-31"/>
     <use xlink:href="#DejaVuSans-31" x="63.623047"/>
    </g>
   </g>
   <g id="text_23">
    <!-- 12 -->
    <g style="fill: #b3a400" transform="translate(154.465975 215.732727) scale(0.1 -0.1)">
     <use xlink:href="#DejaVuSans-31"/>
     <use xlink:href="#DejaVuSans-32" x="63.623047"/>
    </g>
   </g>
   <g id="text_24">
    <!-- 13 -->
    <g style="fill: #800000" transform="translate(152.294583 364.838688) scale(0.1 -0.1)">
     <use xlink:href="#DejaVuSans-31"/>
     <use xlink:href="#DejaVuSans-33" x="63.623047"/>
    </g>
   </g>
   <g id="text_25">
    <!-- 14 -->
    <g style="fill: #82baff" transform="translate(135.163033 503.199841) scale(0.1 -0.1)">
     <use xlink:href="#DejaVuSans-31"/>
     <use xlink:href="#DejaVuSans-34" x="63.623047"/>
    </g>
   </g>
   <g id="text_26">
    <!-- 7.1 -->
    <g style="fill: #999999" transform="translate(138.271664 240.868053) scale(0.1 -0.1)">
     <defs>
      <path id="DejaVuSans-37" d="M 525 4666 
L 3525 4666 
L 3525 4397 
L 1831 0 
L 1172 0 
L 2766 4134 
L 525 4134 
L 525 4666 
z
" transform="scale(0.015625)"/>
     </defs>
     <use xlink:href="#DejaVuSans-37"/>
     <use xlink:href="#DejaVuSans-2e" x="63.623047"/>
     <use xlink:href="#DejaVuSans-31" x="95.410156"/>
    </g>
   </g>
   <g id="text_27">
    <!-- 6.1 -->
    <g style="fill: #e69f00" transform="translate(148.731709 231.609512) scale(0.1 -0.1)">
     <use xlink:href="#DejaVuSans-36"/>
     <use xlink:href="#DejaVuSans-2e" x="63.623047"/>
     <use xlink:href="#DejaVuSans-31" x="95.410156"/>
    </g>
   </g>
   <g id="text_28">
    <!-- 0.5 -->
    <g style="fill: #009e73" transform="translate(143.941321 362.545493) scale(0.1 -0.1)">
     <use xlink:href="#DejaVuSans-30"/>
     <use xlink:href="#DejaVuSans-2e" x="63.623047"/>
     <use xlink:href="#DejaVuSans-35" x="95.410156"/>
    </g>
   </g>
   <g id="text_29">
    <!-- 0.4 -->
    <g style="fill: #0072b2" transform="translate(147.559576 370.431262) scale(0.1 -0.1)">
     <use xlink:href="#DejaVuSans-30"/>
     <use xlink:href="#DejaVuSans-2e" x="63.623047"/>
     <use xlink:href="#DejaVuSans-34" x="95.410156"/>
    </g>
   </g>
   <g id="text_30">
    <!-- 3.1 -->
    <g style="fill: #d55e00" transform="translate(154.842577 312.097615) scale(0.1 -0.1)">
     <use xlink:href="#DejaVuSans-33"/>
     <use xlink:href="#DejaVuSans-2e" x="63.623047"/>
     <use xlink:href="#DejaVuSans-31" x="95.410156"/>
    </g>
   </g>
   <g id="text_31">
    <!-- 1.1 -->
    <g style="fill: #e6194b" transform="translate(149.699943 343.912892) scale(0.1 -0.1)">
     <use xlink:href="#DejaVuSans-31"/>
     <use xlink:href="#DejaVuSans-2e" x="63.623047"/>
     <use xlink:href="#DejaVuSans-31" x="95.410156"/>
    </g>
   </g>
   <g id="legend_1">
    <g id="patch_7">
     <path d="M 248.2 82.12 
L 252.2 82.12 
Q 254.2 82.12 254.2 80.12 
L 254.2 76.12 
Q 254.2 74.12 252.2 74.12 
L 248.2 74.12 
Q 246.2 74.12 246.2 76.12 
L 246.2 80.12 
Q 246.2 82.12 248.2 82.12 
z
" style="fill: #ffffff; opacity: 0.8; stroke: #cccccc; stroke-linejoin: miter"/>
    </g>
   </g>
  </g>
 </g>
 <defs>
  <clipPath id="p7a20706af8">
   <rect x="36" y="69.12" width="223.2" height="443.52"/>
  </clipPath>
 </defs>
</svg>
