<?xml version="1.0" encoding="utf-8" standalone="no"?>
<!DOCTYPE svg PUBLIC "-//W3C//DTD SVG 1.1//EN"
  "http://www.w3.org/Graphics/SVG/1.1/DTD/svg11.dtd">
<svg xmlns:xlink="http://www.w3.org/1999/xlink" width="648pt" height="576pt" viewBox="0 0 648 576" xmlns="http://www.w3.org/2000/svg" version="1.1">
 <metadata>
  <rdf:RDF xmlns:dc="http://purl.org/dc/elements/1.1/" xmlns:cc="http://creativecommons.org/ns#" xmlns:rdf="http://www.w3.org/1999/02/22-rdf-syntax-ns#">
   <cc:Work>
    <dc:type rdf:resource="http://purl.org/dc/dcmitype/StillImage"/>
    <dc:date>2023-03-07T11:55:00.554050</dc:date>
    <dc:format>image/svg+xml</dc:format>
    <dc:creator>
     <cc:Agent>
      <dc:title>Matplotlib v3.7.1, https://matplotlib.org/</dc:title>
     </cc:Agent>
    </dc:creator>
   </cc:Work>
  </rdf:RDF>
 </metadata>
 <defs>
  <style type="text/css">*{stroke-linejoin: round; stroke-linecap: butt}</style>
 </defs>
 <g id="figure_1">
  <g id="patch_1">
   <path d="M 0 576 
L 648 576 
L 648 0 
L 0 0 
z
" style="fill: #ffffff"/>
  </g>
  <g id="axes_1">
   <g id="patch_2">
    <path d="M 81 512.64 
L 583.2 512.64 
L 583.2 69.12 
L 81 69.12 
z
" style="fill: #ffffff"/>
   </g>
   <g id="PathCollection_1">
    <path d="M 463.691419 137.730644 
C 465.988146 137.730644 468.191113 136.818145 469.815144 135.194115 
C 471.439174 133.570084 472.351673 131.367116 472.351673 129.07039 
C 472.351673 126.773664 471.439174 124.570697 469.815144 122.946666 
C 468.191113 121.322635 465.988146 120.410136 463.691419 120.410136 
C 461.394693 120.410136 459.191726 121.322635 457.567695 122.946666 
C 455.943664 124.570697 455.031165 126.773664 455.031165 129.07039 
C 455.031165 131.367116 455.943664 133.570084 457.567695 135.194115 
C 459.191726 136.818145 461.394693 137.730644 463.691419 137.730644 
z
" clip-path="url(#p8168cb9ad2)" style="fill: #e6194b; stroke: #e6194b"/>
    <path d="M 258.392986 288.387711 
C 260.017016 288.387711 261.57475 287.742477 262.723113 286.594114 
C 263.871476 285.445751 264.51671 283.888017 264.51671 282.263987 
C 264.51671 280.639956 263.871476 279.082223 262.723113 277.93386 
C 261.57475 276.785497 260.017016 276.140262 258.392986 276.140262 
C 256.768955 276.140262 255.211222 276.785497 254.062859 277.93386 
C 252.914495 279.082223 252.269261 280.639956 252.269261 282.263987 
C 252.269261 283.888017 252.914495 285.445751 254.062859 286.594114 
C 255.211222 287.742477 256.768955 288.387711 258.392986 288.387711 
z
" clip-path="url(#p8168cb9ad2)" style="fill: #ffe119; stroke: #ffe119"/>
    <path d="M 371.098025 194.729366 
C 373.087048 194.729366 374.994874 193.939119 376.401326 192.532667 
C 377.807778 191.126215 378.598025 189.218389 378.598025 187.229366 
C 378.598025 185.240343 377.807778 183.332517 376.401326 181.926065 
C 374.994874 180.519613 373.087048 179.729366 371.098025 179.729366 
C 369.109002 179.729366 367.201176 180.519613 365.794724 181.926065 
C 364.388272 183.332517 363.598025 185.240343 363.598025 187.229366 
C 363.598025 189.218389 364.388272 191.126215 365.794724 192.532667 
C 367.201176 193.939119 369.109002 194.729366 371.098025 194.729366 
z
" clip-path="url(#p8168cb9ad2)" style="fill: #4363d8; stroke: #4363d8"/>
    <path d="M 434.268551 168.173756 
C 436.836369 168.173756 439.299362 167.153551 441.115083 165.337829 
C 442.930805 163.522108 443.95101 161.059115 443.95101 158.491297 
C 443.95101 155.923479 442.930805 153.460487 441.115083 151.644765 
C 439.299362 149.829044 436.836369 148.808839 434.268551 148.808839 
C 431.700733 148.808839 429.237741 149.829044 427.422019 151.644765 
C 425.606298 153.460487 424.586093 155.923479 424.586093 158.491297 
C 424.586093 161.059115 425.606298 163.522108 427.422019 165.337829 
C 429.237741 167.153551 431.700733 168.173756 434.268551 168.173756 
z
" clip-path="url(#p8168cb9ad2)" style="fill: #f58231; stroke: #f58231"/>
    <path d="M 418.264372 169.630519 
C 421.302656 169.630519 424.216908 168.423396 426.365298 166.275005 
C 428.513689 164.126615 429.720812 161.212363 429.720812 158.17408 
C 429.720812 155.135796 428.513689 152.221544 426.365298 150.073154 
C 424.216908 147.924763 421.302656 146.71764 418.264372 146.71764 
C 415.226089 146.71764 412.311837 147.924763 410.163447 150.073154 
C 408.015056 152.221544 406.807933 155.135796 406.807933 158.17408 
C 406.807933 161.212363 408.015056 164.126615 410.163447 166.275005 
C 412.311837 168.423396 415.226089 169.630519 418.264372 169.630519 
z
" clip-path="url(#p8168cb9ad2)" style="fill: #ba3fdf; stroke: #ba3fdf"/>
    <path d="M 253.486558 249.182927 
C 255.475582 249.182927 257.383407 248.39268 258.789859 246.986228 
C 260.196311 245.579776 260.986558 243.67195 260.986558 241.682927 
C 260.986558 239.693904 260.196311 237.786078 258.789859 236.379626 
C 257.383407 234.973174 255.475582 234.182927 253.486558 234.182927 
C 251.497535 234.182927 249.589709 234.973174 248.183258 236.379626 
C 246.776806 237.786078 245.986558 239.693904 245.986558 241.682927 
C 245.986558 243.67195 246.776806 245.579776 248.183258 246.986228 
C 249.589709 248.39268 251.497535 249.182927 253.486558 249.182927 
z
" clip-path="url(#p8168cb9ad2)" style="fill: #42d4f4; stroke: #42d4f4"/>
    <path d="M 153.075512 449.414288 
C 156.113795 449.414288 159.028047 448.207165 161.176438 446.058775 
C 163.324828 443.910384 164.531951 440.996132 164.531951 437.957849 
C 164.531951 434.919566 163.324828 432.005314 161.176438 429.856923 
C 159.028047 427.708532 156.113795 426.50141 153.075512 426.50141 
C 150.037229 426.50141 147.122977 427.708532 144.974586 429.856923 
C 142.826195 432.005314 141.619073 434.919566 141.619073 437.957849 
C 141.619073 440.996132 142.826195 443.910384 144.974586 446.058775 
C 147.122977 448.207165 150.037229 449.414288 153.075512 449.414288 
z
" clip-path="url(#p8168cb9ad2)" style="fill: #fabed4; stroke: #fabed4"/>
    <path d="M 339.942193 213.810705 
C 344.082675 213.810705 348.054131 212.165674 350.981894 209.237911 
C 353.909657 206.310148 355.554688 202.338692 355.554688 198.19821 
C 355.554688 194.057727 353.909657 190.086271 350.981894 187.158508 
C 348.054131 184.230745 344.082675 182.585715 339.942193 182.585715 
C 335.801711 182.585715 331.830255 184.230745 328.902492 187.158508 
C 325.974729 190.086271 324.329698 194.057727 324.329698 198.19821 
C 324.329698 202.338692 325.974729 206.310148 328.902492 209.237911 
C 331.830255 212.165674 335.801711 213.810705 339.942193 213.810705 
z
" clip-path="url(#p8168cb9ad2)" style="fill: #469990; stroke: #469990"/>
    <path d="M 406.522444 172.768903 
C 410.331133 172.768903 413.984341 171.255694 416.677492 168.562544 
C 419.370642 165.869394 420.88385 162.216186 420.88385 158.407496 
C 420.88385 154.598807 419.370642 150.945598 416.677492 148.252448 
C 413.984341 145.559298 410.331133 144.04609 406.522444 144.04609 
C 402.713754 144.04609 399.060546 145.559298 396.367396 148.252448 
C 393.674245 150.945598 392.161037 154.598807 392.161037 158.407496 
C 392.161037 162.216186 393.674245 165.869394 396.367396 168.562544 
C 399.060546 171.255694 402.713754 172.768903 406.522444 172.768903 
z
" clip-path="url(#p8168cb9ad2)" style="fill: #dcbeff; stroke: #dcbeff"/>
    <path d="M 400.98998 156.41394 
C 403.802883 156.41394 406.500956 155.296361 408.48998 153.307338 
C 410.479003 151.318315 411.596581 148.620242 411.596581 145.807338 
C 411.596581 142.994434 410.479003 140.296361 408.48998 138.307338 
C 406.500956 136.318315 403.802883 135.200736 400.98998 135.200736 
C 398.177076 135.200736 395.479003 136.318315 393.48998 138.307338 
C 391.500956 140.296361 390.383378 142.994434 390.383378 145.807338 
C 390.383378 148.620242 391.500956 151.318315 393.48998 153.307338 
C 395.479003 155.296361 398.177076 156.41394 400.98998 156.41394 
z
" clip-path="url(#p8168cb9ad2)" style="fill: #9a6324; stroke: #9a6324"/>
    <path d="M 560.372727 98.962458 
C 562.940545 98.962458 565.403538 97.942253 567.219259 96.126532 
C 569.034981 94.31081 570.055186 91.847818 570.055186 89.28 
C 570.055186 86.712182 569.034981 84.24919 567.219259 82.433468 
C 565.403538 80.617747 562.940545 79.597542 560.372727 79.597542 
C 557.804909 79.597542 555.341917 80.617747 553.526195 82.433468 
C 551.710474 84.24919 550.690269 86.712182 550.690269 89.28 
C 550.690269 91.847818 551.710474 94.31081 553.526195 96.126532 
C 555.341917 97.942253 557.804909 98.962458 560.372727 98.962458 
z
" clip-path="url(#p8168cb9ad2)" style="fill: #b3a400; stroke: #b3a400"/>
    <path d="M 323.567732 244.207659 
C 326.380635 244.207659 329.078708 243.090081 331.067732 241.101057 
C 333.056755 239.112034 334.174333 236.413961 334.174333 233.601057 
C 334.174333 230.788154 333.056755 228.090081 331.067732 226.101057 
C 329.078708 224.112034 326.380635 222.994456 323.567732 222.994456 
C 320.754828 222.994456 318.056755 224.112034 316.067732 226.101057 
C 314.078708 228.090081 312.96113 230.788154 312.96113 233.601057 
C 312.96113 236.413961 314.078708 239.112034 316.067732 241.101057 
C 318.056755 243.090081 320.754828 244.207659 323.567732 244.207659 
z
" clip-path="url(#p8168cb9ad2)" style="fill: #800000; stroke: #800000"/>
    <path d="M 103.827273 499.98 
C 105.816296 499.98 107.724122 499.189753 109.130574 497.783301 
C 110.537025 496.376849 111.327273 494.469023 111.327273 492.48 
C 111.327273 490.490977 110.537025 488.583151 109.130574 487.176699 
C 107.724122 485.770247 105.816296 484.98 103.827273 484.98 
C 101.838249 484.98 99.930424 485.770247 98.523972 487.176699 
C 97.11752 488.583151 96.327273 490.490977 96.327273 492.48 
C 96.327273 494.469023 97.11752 496.376849 98.523972 497.783301 
C 99.930424 499.189753 101.838249 499.98 103.827273 499.98 
z
" clip-path="url(#p8168cb9ad2)" style="fill: #82baff; stroke: #82baff"/>
    <path d="M 520.453662 146.885555 
C 525.047114 146.885555 529.453049 145.060557 532.701111 141.812496 
C 535.949172 138.564435 537.77417 134.1585 537.77417 129.565047 
C 537.77417 124.971595 535.949172 120.56566 532.701111 117.317598 
C 529.453049 114.069537 525.047114 112.244539 520.453662 112.244539 
C 515.860209 112.244539 511.454274 114.069537 508.206213 117.317598 
C 504.958152 120.56566 503.133154 124.971595 503.133154 129.565047 
C 503.133154 134.1585 504.958152 138.564435 508.206213 141.812496 
C 511.454274 145.060557 515.860209 146.885555 520.453662 146.885555 
z
" clip-path="url(#p8168cb9ad2)" style="fill: #999999; stroke: #999999"/>
    <path d="M 535.15776 98.826883 
C 537.146783 98.826883 539.054609 98.036636 540.46106 96.630184 
C 541.867512 95.223732 542.65776 93.315906 542.65776 91.326883 
C 542.65776 89.33786 541.867512 87.430034 540.46106 86.023582 
C 539.054609 84.61713 537.146783 83.826883 535.15776 83.826883 
C 533.168736 83.826883 531.260911 84.61713 529.854459 86.023582 
C 528.448007 87.430034 527.65776 89.33786 527.65776 91.326883 
C 527.65776 93.315906 528.448007 95.223732 529.854459 96.630184 
C 531.260911 98.036636 533.168736 98.826883 535.15776 98.826883 
z
" clip-path="url(#p8168cb9ad2)" style="fill: #e69f00; stroke: #e69f00"/>
    <path d="M 327.209706 195.912454 
C 328.833737 195.912454 330.39147 195.26722 331.539833 194.118857 
C 332.688196 192.970494 333.33343 191.412761 333.33343 189.78873 
C 333.33343 188.164699 332.688196 186.606966 331.539833 185.458603 
C 330.39147 184.31024 328.833737 183.665006 327.209706 183.665006 
C 325.585675 183.665006 324.027942 184.31024 322.879579 185.458603 
C 321.731216 186.606966 321.085982 188.164699 321.085982 189.78873 
C 321.085982 191.412761 321.731216 192.970494 322.879579 194.118857 
C 324.027942 195.26722 325.585675 195.912454 327.209706 195.912454 
z
" clip-path="url(#p8168cb9ad2)" style="fill: #009e73; stroke: #009e73"/>
    <path d="M 314.685796 157.344822 
C 316.309827 157.344822 317.86756 156.699588 319.015923 155.551225 
C 320.164287 154.402862 320.809521 152.845128 320.809521 151.221098 
C 320.809521 149.597067 320.164287 148.039334 319.015923 146.890971 
C 317.86756 145.742608 316.309827 145.097373 314.685796 145.097373 
C 313.061766 145.097373 311.504033 145.742608 310.355669 146.890971 
C 309.207306 148.039334 308.562072 149.597067 308.562072 151.221098 
C 308.562072 152.845128 309.207306 154.402862 310.355669 155.551225 
C 311.504033 156.699588 313.061766 157.344822 314.685796 157.344822 
z
" clip-path="url(#p8168cb9ad2)" style="fill: #0072b2; stroke: #0072b2"/>
    <path d="M 407.329303 180.74299 
C 409.897121 180.74299 412.360114 179.722785 414.175835 177.907064 
C 415.991557 176.091342 417.011762 173.62835 417.011762 171.060532 
C 417.011762 168.492714 415.991557 166.029721 414.175835 164.214 
C 412.360114 162.398278 409.897121 161.378074 407.329303 161.378074 
C 404.761485 161.378074 402.298493 162.398278 400.482771 164.214 
C 398.66705 166.029721 397.646845 168.492714 397.646845 171.060532 
C 397.646845 173.62835 398.66705 176.091342 400.482771 177.907064 
C 402.298493 179.722785 404.761485 180.74299 407.329303 180.74299 
z
" clip-path="url(#p8168cb9ad2)" style="fill: #d55e00; stroke: #d55e00"/>
    <path d="M 356.801367 205.586163 
C 360.049428 205.586163 363.164895 204.295695 365.461621 201.998968 
C 367.758347 199.702242 369.048816 196.586776 369.048816 193.338714 
C 369.048816 190.090653 367.758347 186.975186 365.461621 184.67846 
C 363.164895 182.381734 360.049428 181.091266 356.801367 181.091266 
C 353.553306 181.091266 350.437839 182.381734 348.141113 184.67846 
C 345.844387 186.975186 344.553918 190.090653 344.553918 193.338714 
C 344.553918 196.586776 345.844387 199.702242 348.141113 201.998968 
C 350.437839 204.295695 353.553306 205.586163 356.801367 205.586163 
z
" clip-path="url(#p8168cb9ad2)" style="fill: #e6194b; stroke: #e6194b"/>
   </g>
   <g id="matplotlib.axis_1">
    <g id="xtick_1">
     <g id="line2d_1">
      <defs>
       <path id="m8c435c5d42" d="M 0 0 
L 0 3.5 
" style="stroke: #000000; stroke-width: 0.8"/>
      </defs>
      <g>
       <use xlink:href="#m8c435c5d42" x="105.320301" y="512.64" style="stroke: #000000; stroke-width: 0.8"/>
      </g>
     </g>
     <g id="text_1">
      <!-- −1.5 -->
      <g transform="translate(93.178895 527.238438) scale(0.1 -0.1)">
       <defs>
        <path id="DejaVuSans-2212" d="M 678 2272 
L 4684 2272 
L 4684 1741 
L 678 1741 
L 678 2272 
z
" transform="scale(0.015625)"/>
        <path id="DejaVuSans-31" d="M 794 531 
L 1825 531 
L 1825 4091 
L 703 3866 
L 703 4441 
L 1819 4666 
L 2450 4666 
L 2450 531 
L 3481 531 
L 3481 0 
L 794 0 
L 794 531 
z
" transform="scale(0.015625)"/>
        <path id="DejaVuSans-2e" d="M 684 794 
L 1344 794 
L 1344 0 
L 684 0 
L 684 794 
z
" transform="scale(0.015625)"/>
        <path id="DejaVuSans-35" d="M 691 4666 
L 3169 4666 
L 3169 4134 
L 1269 4134 
L 1269 2991 
Q 1406 3038 1543 3061 
Q 1681 3084 1819 3084 
Q 2600 3084 3056 2656 
Q 3513 2228 3513 1497 
Q 3513 744 3044 326 
Q 2575 -91 1722 -91 
Q 1428 -91 1123 -41 
Q 819 9 494 109 
L 494 744 
Q 775 591 1075 516 
Q 1375 441 1709 441 
Q 2250 441 2565 725 
Q 2881 1009 2881 1497 
Q 2881 1984 2565 2268 
Q 2250 2553 1709 2553 
Q 1456 2553 1204 2497 
Q 953 2441 691 2322 
L 691 4666 
z
" transform="scale(0.015625)"/>
       </defs>
       <use xlink:href="#DejaVuSans-2212"/>
       <use xlink:href="#DejaVuSans-31" x="83.789062"/>
       <use xlink:href="#DejaVuSans-2e" x="147.412109"/>
       <use xlink:href="#DejaVuSans-35" x="179.199219"/>
      </g>
     </g>
    </g>
    <g id="xtick_2">
     <g id="line2d_2">
      <g>
       <use xlink:href="#m8c435c5d42" x="180.254697" y="512.64" style="stroke: #000000; stroke-width: 0.8"/>
      </g>
     </g>
     <g id="text_2">
      <!-- −1.0 -->
      <g transform="translate(168.113291 527.238438) scale(0.1 -0.1)">
       <defs>
        <path id="DejaVuSans-30" d="M 2034 4250 
Q 1547 4250 1301 3770 
Q 1056 3291 1056 2328 
Q 1056 1369 1301 889 
Q 1547 409 2034 409 
Q 2525 409 2770 889 
Q 3016 1369 3016 2328 
Q 3016 3291 2770 3770 
Q 2525 4250 2034 4250 
z
M 2034 4750 
Q 2819 4750 3233 4129 
Q 3647 3509 3647 2328 
Q 3647 1150 3233 529 
Q 2819 -91 2034 -91 
Q 1250 -91 836 529 
Q 422 1150 422 2328 
Q 422 3509 836 4129 
Q 1250 4750 2034 4750 
z
" transform="scale(0.015625)"/>
       </defs>
       <use xlink:href="#DejaVuSans-2212"/>
       <use xlink:href="#DejaVuSans-31" x="83.789062"/>
       <use xlink:href="#DejaVuSans-2e" x="147.412109"/>
       <use xlink:href="#DejaVuSans-30" x="179.199219"/>
      </g>
     </g>
    </g>
    <g id="xtick_3">
     <g id="line2d_3">
      <g>
       <use xlink:href="#m8c435c5d42" x="255.189093" y="512.64" style="stroke: #000000; stroke-width: 0.8"/>
      </g>
     </g>
     <g id="text_3">
      <!-- −0.5 -->
      <g transform="translate(243.047687 527.238438) scale(0.1 -0.1)">
       <use xlink:href="#DejaVuSans-2212"/>
       <use xlink:href="#DejaVuSans-30" x="83.789062"/>
       <use xlink:href="#DejaVuSans-2e" x="147.412109"/>
       <use xlink:href="#DejaVuSans-35" x="179.199219"/>
      </g>
     </g>
    </g>
    <g id="xtick_4">
     <g id="line2d_4">
      <g>
       <use xlink:href="#m8c435c5d42" x="330.123489" y="512.64" style="stroke: #000000; stroke-width: 0.8"/>
      </g>
     </g>
     <g id="text_4">
      <!-- 0.0 -->
      <g transform="translate(322.171926 527.238438) scale(0.1 -0.1)">
       <use xlink:href="#DejaVuSans-30"/>
       <use xlink:href="#DejaVuSans-2e" x="63.623047"/>
       <use xlink:href="#DejaVuSans-30" x="95.410156"/>
      </g>
     </g>
    </g>
    <g id="xtick_5">
     <g id="line2d_5">
      <g>
       <use xlink:href="#m8c435c5d42" x="405.057885" y="512.64" style="stroke: #000000; stroke-width: 0.8"/>
      </g>
     </g>
     <g id="text_5">
      <!-- 0.5 -->
      <g transform="translate(397.106322 527.238438) scale(0.1 -0.1)">
       <use xlink:href="#DejaVuSans-30"/>
       <use xlink:href="#DejaVuSans-2e" x="63.623047"/>
       <use xlink:href="#DejaVuSans-35" x="95.410156"/>
      </g>
     </g>
    </g>
    <g id="xtick_6">
     <g id="line2d_6">
      <g>
       <use xlink:href="#m8c435c5d42" x="479.992281" y="512.64" style="stroke: #000000; stroke-width: 0.8"/>
      </g>
     </g>
     <g id="text_6">
      <!-- 1.0 -->
      <g transform="translate(472.040718 527.238438) scale(0.1 -0.1)">
       <use xlink:href="#DejaVuSans-31"/>
       <use xlink:href="#DejaVuSans-2e" x="63.623047"/>
       <use xlink:href="#DejaVuSans-30" x="95.410156"/>
      </g>
     </g>
    </g>
    <g id="xtick_7">
     <g id="line2d_7">
      <g>
       <use xlink:href="#m8c435c5d42" x="554.926676" y="512.64" style="stroke: #000000; stroke-width: 0.8"/>
      </g>
     </g>
     <g id="text_7">
      <!-- 1.5 -->
      <g transform="translate(546.975114 527.238438) scale(0.1 -0.1)">
       <use xlink:href="#DejaVuSans-31"/>
       <use xlink:href="#DejaVuSans-2e" x="63.623047"/>
       <use xlink:href="#DejaVuSans-35" x="95.410156"/>
      </g>
     </g>
    </g>
    <g id="text_8">
     <!-- Log Odd Tree Mean Pairwise Distance -->
     <g transform="translate(238.582031 540.916563) scale(0.1 -0.1)">
      <defs>
       <path id="DejaVuSans-4c" d="M 628 4666 
L 1259 4666 
L 1259 531 
L 3531 531 
L 3531 0 
L 628 0 
L 628 4666 
z
" transform="scale(0.015625)"/>
       <path id="DejaVuSans-6f" d="M 1959 3097 
Q 1497 3097 1228 2736 
Q 959 2375 959 1747 
Q 959 1119 1226 758 
Q 1494 397 1959 397 
Q 2419 397 2687 759 
Q 2956 1122 2956 1747 
Q 2956 2369 2687 2733 
Q 2419 3097 1959 3097 
z
M 1959 3584 
Q 2709 3584 3137 3096 
Q 3566 2609 3566 1747 
Q 3566 888 3137 398 
Q 2709 -91 1959 -91 
Q 1206 -91 779 398 
Q 353 888 353 1747 
Q 353 2609 779 3096 
Q 1206 3584 1959 3584 
z
" transform="scale(0.015625)"/>
       <path id="DejaVuSans-67" d="M 2906 1791 
Q 2906 2416 2648 2759 
Q 2391 3103 1925 3103 
Q 1463 3103 1205 2759 
Q 947 2416 947 1791 
Q 947 1169 1205 825 
Q 1463 481 1925 481 
Q 2391 481 2648 825 
Q 2906 1169 2906 1791 
z
M 3481 434 
Q 3481 -459 3084 -895 
Q 2688 -1331 1869 -1331 
Q 1566 -1331 1297 -1286 
Q 1028 -1241 775 -1147 
L 775 -588 
Q 1028 -725 1275 -790 
Q 1522 -856 1778 -856 
Q 2344 -856 2625 -561 
Q 2906 -266 2906 331 
L 2906 616 
Q 2728 306 2450 153 
Q 2172 0 1784 0 
Q 1141 0 747 490 
Q 353 981 353 1791 
Q 353 2603 747 3093 
Q 1141 3584 1784 3584 
Q 2172 3584 2450 3431 
Q 2728 3278 2906 2969 
L 2906 3500 
L 3481 3500 
L 3481 434 
z
" transform="scale(0.015625)"/>
       <path id="DejaVuSans-20" transform="scale(0.015625)"/>
       <path id="DejaVuSans-4f" d="M 2522 4238 
Q 1834 4238 1429 3725 
Q 1025 3213 1025 2328 
Q 1025 1447 1429 934 
Q 1834 422 2522 422 
Q 3209 422 3611 934 
Q 4013 1447 4013 2328 
Q 4013 3213 3611 3725 
Q 3209 4238 2522 4238 
z
M 2522 4750 
Q 3503 4750 4090 4092 
Q 4678 3434 4678 2328 
Q 4678 1225 4090 567 
Q 3503 -91 2522 -91 
Q 1538 -91 948 565 
Q 359 1222 359 2328 
Q 359 3434 948 4092 
Q 1538 4750 2522 4750 
z
" transform="scale(0.015625)"/>
       <path id="DejaVuSans-64" d="M 2906 2969 
L 2906 4863 
L 3481 4863 
L 3481 0 
L 2906 0 
L 2906 525 
Q 2725 213 2448 61 
Q 2172 -91 1784 -91 
Q 1150 -91 751 415 
Q 353 922 353 1747 
Q 353 2572 751 3078 
Q 1150 3584 1784 3584 
Q 2172 3584 2448 3432 
Q 2725 3281 2906 2969 
z
M 947 1747 
Q 947 1113 1208 752 
Q 1469 391 1925 391 
Q 2381 391 2643 752 
Q 2906 1113 2906 1747 
Q 2906 2381 2643 2742 
Q 2381 3103 1925 3103 
Q 1469 3103 1208 2742 
Q 947 2381 947 1747 
z
" transform="scale(0.015625)"/>
       <path id="DejaVuSans-54" d="M -19 4666 
L 3928 4666 
L 3928 4134 
L 2272 4134 
L 2272 0 
L 1638 0 
L 1638 4134 
L -19 4134 
L -19 4666 
z
" transform="scale(0.015625)"/>
       <path id="DejaVuSans-72" d="M 2631 2963 
Q 2534 3019 2420 3045 
Q 2306 3072 2169 3072 
Q 1681 3072 1420 2755 
Q 1159 2438 1159 1844 
L 1159 0 
L 581 0 
L 581 3500 
L 1159 3500 
L 1159 2956 
Q 1341 3275 1631 3429 
Q 1922 3584 2338 3584 
Q 2397 3584 2469 3576 
Q 2541 3569 2628 3553 
L 2631 2963 
z
" transform="scale(0.015625)"/>
       <path id="DejaVuSans-65" d="M 3597 1894 
L 3597 1613 
L 953 1613 
Q 991 1019 1311 708 
Q 1631 397 2203 397 
Q 2534 397 2845 478 
Q 3156 559 3463 722 
L 3463 178 
Q 3153 47 2828 -22 
Q 2503 -91 2169 -91 
Q 1331 -91 842 396 
Q 353 884 353 1716 
Q 353 2575 817 3079 
Q 1281 3584 2069 3584 
Q 2775 3584 3186 3129 
Q 3597 2675 3597 1894 
z
M 3022 2063 
Q 3016 2534 2758 2815 
Q 2500 3097 2075 3097 
Q 1594 3097 1305 2825 
Q 1016 2553 972 2059 
L 3022 2063 
z
" transform="scale(0.015625)"/>
       <path id="DejaVuSans-4d" d="M 628 4666 
L 1569 4666 
L 2759 1491 
L 3956 4666 
L 4897 4666 
L 4897 0 
L 4281 0 
L 4281 4097 
L 3078 897 
L 2444 897 
L 1241 4097 
L 1241 0 
L 628 0 
L 628 4666 
z
" transform="scale(0.015625)"/>
       <path id="DejaVuSans-61" d="M 2194 1759 
Q 1497 1759 1228 1600 
Q 959 1441 959 1056 
Q 959 750 1161 570 
Q 1363 391 1709 391 
Q 2188 391 2477 730 
Q 2766 1069 2766 1631 
L 2766 1759 
L 2194 1759 
z
M 3341 1997 
L 3341 0 
L 2766 0 
L 2766 531 
Q 2569 213 2275 61 
Q 1981 -91 1556 -91 
Q 1019 -91 701 211 
Q 384 513 384 1019 
Q 384 1609 779 1909 
Q 1175 2209 1959 2209 
L 2766 2209 
L 2766 2266 
Q 2766 2663 2505 2880 
Q 2244 3097 1772 3097 
Q 1472 3097 1187 3025 
Q 903 2953 641 2809 
L 641 3341 
Q 956 3463 1253 3523 
Q 1550 3584 1831 3584 
Q 2591 3584 2966 3190 
Q 3341 2797 3341 1997 
z
" transform="scale(0.015625)"/>
       <path id="DejaVuSans-6e" d="M 3513 2113 
L 3513 0 
L 2938 0 
L 2938 2094 
Q 2938 2591 2744 2837 
Q 2550 3084 2163 3084 
Q 1697 3084 1428 2787 
Q 1159 2491 1159 1978 
L 1159 0 
L 581 0 
L 581 3500 
L 1159 3500 
L 1159 2956 
Q 1366 3272 1645 3428 
Q 1925 3584 2291 3584 
Q 2894 3584 3203 3211 
Q 3513 2838 3513 2113 
z
" transform="scale(0.015625)"/>
       <path id="DejaVuSans-50" d="M 1259 4147 
L 1259 2394 
L 2053 2394 
Q 2494 2394 2734 2622 
Q 2975 2850 2975 3272 
Q 2975 3691 2734 3919 
Q 2494 4147 2053 4147 
L 1259 4147 
z
M 628 4666 
L 2053 4666 
Q 2838 4666 3239 4311 
Q 3641 3956 3641 3272 
Q 3641 2581 3239 2228 
Q 2838 1875 2053 1875 
L 1259 1875 
L 1259 0 
L 628 0 
L 628 4666 
z
" transform="scale(0.015625)"/>
       <path id="DejaVuSans-69" d="M 603 3500 
L 1178 3500 
L 1178 0 
L 603 0 
L 603 3500 
z
M 603 4863 
L 1178 4863 
L 1178 4134 
L 603 4134 
L 603 4863 
z
" transform="scale(0.015625)"/>
       <path id="DejaVuSans-77" d="M 269 3500 
L 844 3500 
L 1563 769 
L 2278 3500 
L 2956 3500 
L 3675 769 
L 4391 3500 
L 4966 3500 
L 4050 0 
L 3372 0 
L 2619 2869 
L 1863 0 
L 1184 0 
L 269 3500 
z
" transform="scale(0.015625)"/>
       <path id="DejaVuSans-73" d="M 2834 3397 
L 2834 2853 
Q 2591 2978 2328 3040 
Q 2066 3103 1784 3103 
Q 1356 3103 1142 2972 
Q 928 2841 928 2578 
Q 928 2378 1081 2264 
Q 1234 2150 1697 2047 
L 1894 2003 
Q 2506 1872 2764 1633 
Q 3022 1394 3022 966 
Q 3022 478 2636 193 
Q 2250 -91 1575 -91 
Q 1294 -91 989 -36 
Q 684 19 347 128 
L 347 722 
Q 666 556 975 473 
Q 1284 391 1588 391 
Q 1994 391 2212 530 
Q 2431 669 2431 922 
Q 2431 1156 2273 1281 
Q 2116 1406 1581 1522 
L 1381 1569 
Q 847 1681 609 1914 
Q 372 2147 372 2553 
Q 372 3047 722 3315 
Q 1072 3584 1716 3584 
Q 2034 3584 2315 3537 
Q 2597 3491 2834 3397 
z
" transform="scale(0.015625)"/>
       <path id="DejaVuSans-44" d="M 1259 4147 
L 1259 519 
L 2022 519 
Q 2988 519 3436 956 
Q 3884 1394 3884 2338 
Q 3884 3275 3436 3711 
Q 2988 4147 2022 4147 
L 1259 4147 
z
M 628 4666 
L 1925 4666 
Q 3281 4666 3915 4102 
Q 4550 3538 4550 2338 
Q 4550 1131 3912 565 
Q 3275 0 1925 0 
L 628 0 
L 628 4666 
z
" transform="scale(0.015625)"/>
       <path id="DejaVuSans-74" d="M 1172 4494 
L 1172 3500 
L 2356 3500 
L 2356 3053 
L 1172 3053 
L 1172 1153 
Q 1172 725 1289 603 
Q 1406 481 1766 481 
L 2356 481 
L 2356 0 
L 1766 0 
Q 1100 0 847 248 
Q 594 497 594 1153 
L 594 3053 
L 172 3053 
L 172 3500 
L 594 3500 
L 594 4494 
L 1172 4494 
z
" transform="scale(0.015625)"/>
       <path id="DejaVuSans-63" d="M 3122 3366 
L 3122 2828 
Q 2878 2963 2633 3030 
Q 2388 3097 2138 3097 
Q 1578 3097 1268 2742 
Q 959 2388 959 1747 
Q 959 1106 1268 751 
Q 1578 397 2138 397 
Q 2388 397 2633 464 
Q 2878 531 3122 666 
L 3122 134 
Q 2881 22 2623 -34 
Q 2366 -91 2075 -91 
Q 1284 -91 818 406 
Q 353 903 353 1747 
Q 353 2603 823 3093 
Q 1294 3584 2113 3584 
Q 2378 3584 2631 3529 
Q 2884 3475 3122 3366 
z
" transform="scale(0.015625)"/>
      </defs>
      <use xlink:href="#DejaVuSans-4c"/>
      <use xlink:href="#DejaVuSans-6f" x="53.962891"/>
      <use xlink:href="#DejaVuSans-67" x="115.144531"/>
      <use xlink:href="#DejaVuSans-20" x="178.621094"/>
      <use xlink:href="#DejaVuSans-4f" x="210.408203"/>
      <use xlink:href="#DejaVuSans-64" x="289.119141"/>
      <use xlink:href="#DejaVuSans-64" x="352.595703"/>
      <use xlink:href="#DejaVuSans-20" x="416.072266"/>
      <use xlink:href="#DejaVuSans-54" x="447.859375"/>
      <use xlink:href="#DejaVuSans-72" x="494.193359"/>
      <use xlink:href="#DejaVuSans-65" x="533.056641"/>
      <use xlink:href="#DejaVuSans-65" x="594.580078"/>
      <use xlink:href="#DejaVuSans-20" x="656.103516"/>
      <use xlink:href="#DejaVuSans-4d" x="687.890625"/>
      <use xlink:href="#DejaVuSans-65" x="774.169922"/>
      <use xlink:href="#DejaVuSans-61" x="835.693359"/>
      <use xlink:href="#DejaVuSans-6e" x="896.972656"/>
      <use xlink:href="#DejaVuSans-20" x="960.351562"/>
      <use xlink:href="#DejaVuSans-50" x="992.138672"/>
      <use xlink:href="#DejaVuSans-61" x="1047.941406"/>
      <use xlink:href="#DejaVuSans-69" x="1109.220703"/>
      <use xlink:href="#DejaVuSans-72" x="1137.003906"/>
      <use xlink:href="#DejaVuSans-77" x="1178.117188"/>
      <use xlink:href="#DejaVuSans-69" x="1259.904297"/>
      <use xlink:href="#DejaVuSans-73" x="1287.6875"/>
      <use xlink:href="#DejaVuSans-65" x="1339.787109"/>
      <use xlink:href="#DejaVuSans-20" x="1401.310547"/>
      <use xlink:href="#DejaVuSans-44" x="1433.097656"/>
      <use xlink:href="#DejaVuSans-69" x="1510.099609"/>
      <use xlink:href="#DejaVuSans-73" x="1537.882812"/>
      <use xlink:href="#DejaVuSans-74" x="1589.982422"/>
      <use xlink:href="#DejaVuSans-61" x="1629.191406"/>
      <use xlink:href="#DejaVuSans-6e" x="1690.470703"/>
      <use xlink:href="#DejaVuSans-63" x="1753.849609"/>
      <use xlink:href="#DejaVuSans-65" x="1808.830078"/>
     </g>
    </g>
   </g>
   <g id="matplotlib.axis_2">
    <g id="ytick_1">
     <g id="line2d_8">
      <defs>
       <path id="mfd89e4851f" d="M 0 0 
L -3.5 0 
" style="stroke: #000000; stroke-width: 0.8"/>
      </defs>
      <g>
       <use xlink:href="#mfd89e4851f" x="81" y="470.878442" style="stroke: #000000; stroke-width: 0.8"/>
      </g>
     </g>
     <g id="text_9">
      <!-- −1.4 -->
      <g transform="translate(49.717187 474.67766) scale(0.1 -0.1)">
       <defs>
        <path id="DejaVuSans-34" d="M 2419 4116 
L 825 1625 
L 2419 1625 
L 2419 4116 
z
M 2253 4666 
L 3047 4666 
L 3047 1625 
L 3713 1625 
L 3713 1100 
L 3047 1100 
L 3047 0 
L 2419 0 
L 2419 1100 
L 313 1100 
L 313 1709 
L 2253 4666 
z
" transform="scale(0.015625)"/>
       </defs>
       <use xlink:href="#DejaVuSans-2212"/>
       <use xlink:href="#DejaVuSans-31" x="83.789062"/>
       <use xlink:href="#DejaVuSans-2e" x="147.412109"/>
       <use xlink:href="#DejaVuSans-34" x="179.199219"/>
      </g>
     </g>
    </g>
    <g id="ytick_2">
     <g id="line2d_9">
      <g>
       <use xlink:href="#mfd89e4851f" x="81" y="420.309406" style="stroke: #000000; stroke-width: 0.8"/>
      </g>
     </g>
     <g id="text_10">
      <!-- −1.2 -->
      <g transform="translate(49.717187 424.108624) scale(0.1 -0.1)">
       <defs>
        <path id="DejaVuSans-32" d="M 1228 531 
L 3431 531 
L 3431 0 
L 469 0 
L 469 531 
Q 828 903 1448 1529 
Q 2069 2156 2228 2338 
Q 2531 2678 2651 2914 
Q 2772 3150 2772 3378 
Q 2772 3750 2511 3984 
Q 2250 4219 1831 4219 
Q 1534 4219 1204 4116 
Q 875 4013 500 3803 
L 500 4441 
Q 881 4594 1212 4672 
Q 1544 4750 1819 4750 
Q 2544 4750 2975 4387 
Q 3406 4025 3406 3419 
Q 3406 3131 3298 2873 
Q 3191 2616 2906 2266 
Q 2828 2175 2409 1742 
Q 1991 1309 1228 531 
z
" transform="scale(0.015625)"/>
       </defs>
       <use xlink:href="#DejaVuSans-2212"/>
       <use xlink:href="#DejaVuSans-31" x="83.789062"/>
       <use xlink:href="#DejaVuSans-2e" x="147.412109"/>
       <use xlink:href="#DejaVuSans-32" x="179.199219"/>
      </g>
     </g>
    </g>
    <g id="ytick_3">
     <g id="line2d_10">
      <g>
       <use xlink:href="#mfd89e4851f" x="81" y="369.74037" style="stroke: #000000; stroke-width: 0.8"/>
      </g>
     </g>
     <g id="text_11">
      <!-- −1.0 -->
      <g transform="translate(49.717187 373.539589) scale(0.1 -0.1)">
       <use xlink:href="#DejaVuSans-2212"/>
       <use xlink:href="#DejaVuSans-31" x="83.789062"/>
       <use xlink:href="#DejaVuSans-2e" x="147.412109"/>
       <use xlink:href="#DejaVuSans-30" x="179.199219"/>
      </g>
     </g>
    </g>
    <g id="ytick_4">
     <g id="line2d_11">
      <g>
       <use xlink:href="#mfd89e4851f" x="81" y="319.171334" style="stroke: #000000; stroke-width: 0.8"/>
      </g>
     </g>
     <g id="text_12">
      <!-- −0.8 -->
      <g transform="translate(49.717187 322.970553) scale(0.1 -0.1)">
       <defs>
        <path id="DejaVuSans-38" d="M 2034 2216 
Q 1584 2216 1326 1975 
Q 1069 1734 1069 1313 
Q 1069 891 1326 650 
Q 1584 409 2034 409 
Q 2484 409 2743 651 
Q 3003 894 3003 1313 
Q 3003 1734 2745 1975 
Q 2488 2216 2034 2216 
z
M 1403 2484 
Q 997 2584 770 2862 
Q 544 3141 544 3541 
Q 544 4100 942 4425 
Q 1341 4750 2034 4750 
Q 2731 4750 3128 4425 
Q 3525 4100 3525 3541 
Q 3525 3141 3298 2862 
Q 3072 2584 2669 2484 
Q 3125 2378 3379 2068 
Q 3634 1759 3634 1313 
Q 3634 634 3220 271 
Q 2806 -91 2034 -91 
Q 1263 -91 848 271 
Q 434 634 434 1313 
Q 434 1759 690 2068 
Q 947 2378 1403 2484 
z
M 1172 3481 
Q 1172 3119 1398 2916 
Q 1625 2713 2034 2713 
Q 2441 2713 2670 2916 
Q 2900 3119 2900 3481 
Q 2900 3844 2670 4047 
Q 2441 4250 2034 4250 
Q 1625 4250 1398 4047 
Q 1172 3844 1172 3481 
z
" transform="scale(0.015625)"/>
       </defs>
       <use xlink:href="#DejaVuSans-2212"/>
       <use xlink:href="#DejaVuSans-30" x="83.789062"/>
       <use xlink:href="#DejaVuSans-2e" x="147.412109"/>
       <use xlink:href="#DejaVuSans-38" x="179.199219"/>
      </g>
     </g>
    </g>
    <g id="ytick_5">
     <g id="line2d_12">
      <g>
       <use xlink:href="#mfd89e4851f" x="81" y="268.602298" style="stroke: #000000; stroke-width: 0.8"/>
      </g>
     </g>
     <g id="text_13">
      <!-- −0.6 -->
      <g transform="translate(49.717187 272.401517) scale(0.1 -0.1)">
       <defs>
        <path id="DejaVuSans-36" d="M 2113 2584 
Q 1688 2584 1439 2293 
Q 1191 2003 1191 1497 
Q 1191 994 1439 701 
Q 1688 409 2113 409 
Q 2538 409 2786 701 
Q 3034 994 3034 1497 
Q 3034 2003 2786 2293 
Q 2538 2584 2113 2584 
z
M 3366 4563 
L 3366 3988 
Q 3128 4100 2886 4159 
Q 2644 4219 2406 4219 
Q 1781 4219 1451 3797 
Q 1122 3375 1075 2522 
Q 1259 2794 1537 2939 
Q 1816 3084 2150 3084 
Q 2853 3084 3261 2657 
Q 3669 2231 3669 1497 
Q 3669 778 3244 343 
Q 2819 -91 2113 -91 
Q 1303 -91 875 529 
Q 447 1150 447 2328 
Q 447 3434 972 4092 
Q 1497 4750 2381 4750 
Q 2619 4750 2861 4703 
Q 3103 4656 3366 4563 
z
" transform="scale(0.015625)"/>
       </defs>
       <use xlink:href="#DejaVuSans-2212"/>
       <use xlink:href="#DejaVuSans-30" x="83.789062"/>
       <use xlink:href="#DejaVuSans-2e" x="147.412109"/>
       <use xlink:href="#DejaVuSans-36" x="179.199219"/>
      </g>
     </g>
    </g>
    <g id="ytick_6">
     <g id="line2d_13">
      <g>
       <use xlink:href="#mfd89e4851f" x="81" y="218.033262" style="stroke: #000000; stroke-width: 0.8"/>
      </g>
     </g>
     <g id="text_14">
      <!-- −0.4 -->
      <g transform="translate(49.717187 221.832481) scale(0.1 -0.1)">
       <use xlink:href="#DejaVuSans-2212"/>
       <use xlink:href="#DejaVuSans-30" x="83.789062"/>
       <use xlink:href="#DejaVuSans-2e" x="147.412109"/>
       <use xlink:href="#DejaVuSans-34" x="179.199219"/>
      </g>
     </g>
    </g>
    <g id="ytick_7">
     <g id="line2d_14">
      <g>
       <use xlink:href="#mfd89e4851f" x="81" y="167.464226" style="stroke: #000000; stroke-width: 0.8"/>
      </g>
     </g>
     <g id="text_15">
      <!-- −0.2 -->
      <g transform="translate(49.717187 171.263445) scale(0.1 -0.1)">
       <use xlink:href="#DejaVuSans-2212"/>
       <use xlink:href="#DejaVuSans-30" x="83.789062"/>
       <use xlink:href="#DejaVuSans-2e" x="147.412109"/>
       <use xlink:href="#DejaVuSans-32" x="179.199219"/>
      </g>
     </g>
    </g>
    <g id="ytick_8">
     <g id="line2d_15">
      <g>
       <use xlink:href="#mfd89e4851f" x="81" y="116.895191" style="stroke: #000000; stroke-width: 0.8"/>
      </g>
     </g>
     <g id="text_16">
      <!-- 0.0 -->
      <g transform="translate(58.096875 120.694409) scale(0.1 -0.1)">
       <use xlink:href="#DejaVuSans-30"/>
       <use xlink:href="#DejaVuSans-2e" x="63.623047"/>
       <use xlink:href="#DejaVuSans-30" x="95.410156"/>
      </g>
     </g>
    </g>
    <g id="text_17">
     <!-- Log Odd Parent Mean Pairwise Distance -->
     <g transform="translate(43.6375 389.987813) rotate(-90) scale(0.1 -0.1)">
      <use xlink:href="#DejaVuSans-4c"/>
      <use xlink:href="#DejaVuSans-6f" x="53.962891"/>
      <use xlink:href="#DejaVuSans-67" x="115.144531"/>
      <use xlink:href="#DejaVuSans-20" x="178.621094"/>
      <use xlink:href="#DejaVuSans-4f" x="210.408203"/>
      <use xlink:href="#DejaVuSans-64" x="289.119141"/>
      <use xlink:href="#DejaVuSans-64" x="352.595703"/>
      <use xlink:href="#DejaVuSans-20" x="416.072266"/>
      <use xlink:href="#DejaVuSans-50" x="447.859375"/>
      <use xlink:href="#DejaVuSans-61" x="503.662109"/>
      <use xlink:href="#DejaVuSans-72" x="564.941406"/>
      <use xlink:href="#DejaVuSans-65" x="603.804688"/>
      <use xlink:href="#DejaVuSans-6e" x="665.328125"/>
      <use xlink:href="#DejaVuSans-74" x="728.707031"/>
      <use xlink:href="#DejaVuSans-20" x="767.916016"/>
      <use xlink:href="#DejaVuSans-4d" x="799.703125"/>
      <use xlink:href="#DejaVuSans-65" x="885.982422"/>
      <use xlink:href="#DejaVuSans-61" x="947.505859"/>
      <use xlink:href="#DejaVuSans-6e" x="1008.785156"/>
      <use xlink:href="#DejaVuSans-20" x="1072.164062"/>
      <use xlink:href="#DejaVuSans-50" x="1103.951172"/>
      <use xlink:href="#DejaVuSans-61" x="1159.753906"/>
      <use xlink:href="#DejaVuSans-69" x="1221.033203"/>
      <use xlink:href="#DejaVuSans-72" x="1248.816406"/>
      <use xlink:href="#DejaVuSans-77" x="1289.929688"/>
      <use xlink:href="#DejaVuSans-69" x="1371.716797"/>
      <use xlink:href="#DejaVuSans-73" x="1399.5"/>
      <use xlink:href="#DejaVuSans-65" x="1451.599609"/>
      <use xlink:href="#DejaVuSans-20" x="1513.123047"/>
      <use xlink:href="#DejaVuSans-44" x="1544.910156"/>
      <use xlink:href="#DejaVuSans-69" x="1621.912109"/>
      <use xlink:href="#DejaVuSans-73" x="1649.695312"/>
      <use xlink:href="#DejaVuSans-74" x="1701.794922"/>
      <use xlink:href="#DejaVuSans-61" x="1741.003906"/>
      <use xlink:href="#DejaVuSans-6e" x="1802.283203"/>
      <use xlink:href="#DejaVuSans-63" x="1865.662109"/>
      <use xlink:href="#DejaVuSans-65" x="1920.642578"/>
     </g>
    </g>
   </g>
   <g id="patch_3">
    <path d="M 81 512.64 
L 81 69.12 
" style="fill: none; stroke: #000000; stroke-width: 0.8; stroke-linejoin: miter; stroke-linecap: square"/>
   </g>
   <g id="patch_4">
    <path d="M 583.2 512.64 
L 583.2 69.12 
" style="fill: none; stroke: #000000; stroke-width: 0.8; stroke-linejoin: miter; stroke-linecap: square"/>
   </g>
   <g id="patch_5">
    <path d="M 81 512.64 
L 583.2 512.64 
" style="fill: none; stroke: #000000; stroke-width: 0.8; stroke-linejoin: miter; stroke-linecap: square"/>
   </g>
   <g id="patch_6">
    <path d="M 81 69.12 
L 583.2 69.12 
" style="fill: none; stroke: #000000; stroke-width: 0.8; stroke-linejoin: miter; stroke-linecap: square"/>
   </g>
   <g id="text_18">
    <!-- 0.0 -->
    <g style="fill: #e6194b" transform="translate(463.691419 129.07039) scale(0.18 -0.18)">
     <use xlink:href="#DejaVuSans-30"/>
     <use xlink:href="#DejaVuSans-2e" x="63.623047"/>
     <use xlink:href="#DejaVuSans-30" x="95.410156"/>
    </g>
   </g>
   <g id="text_19">
    <!-- 2 -->
    <g style="fill: #ffe119" transform="translate(258.392986 282.263987) scale(0.18 -0.18)">
     <use xlink:href="#DejaVuSans-32"/>
    </g>
   </g>
   <g id="text_20">
    <!-- 3.0 -->
    <g style="fill: #4363d8" transform="translate(371.098025 187.229366) scale(0.18 -0.18)">
     <defs>
      <path id="DejaVuSans-33" d="M 2597 2516 
Q 3050 2419 3304 2112 
Q 3559 1806 3559 1356 
Q 3559 666 3084 287 
Q 2609 -91 1734 -91 
Q 1441 -91 1130 -33 
Q 819 25 488 141 
L 488 750 
Q 750 597 1062 519 
Q 1375 441 1716 441 
Q 2309 441 2620 675 
Q 2931 909 2931 1356 
Q 2931 1769 2642 2001 
Q 2353 2234 1838 2234 
L 1294 2234 
L 1294 2753 
L 1863 2753 
Q 2328 2753 2575 2939 
Q 2822 3125 2822 3475 
Q 2822 3834 2567 4026 
Q 2313 4219 1838 4219 
Q 1578 4219 1281 4162 
Q 984 4106 628 3988 
L 628 4550 
Q 988 4650 1302 4700 
Q 1616 4750 1894 4750 
Q 2613 4750 3031 4423 
Q 3450 4097 3450 3541 
Q 3450 3153 3228 2886 
Q 3006 2619 2597 2516 
z
" transform="scale(0.015625)"/>
     </defs>
     <use xlink:href="#DejaVuSans-33"/>
     <use xlink:href="#DejaVuSans-2e" x="63.623047"/>
     <use xlink:href="#DejaVuSans-30" x="95.410156"/>
    </g>
   </g>
   <g id="text_21">
    <!-- 4 -->
    <g style="fill: #f58231" transform="translate(434.268551 158.491297) scale(0.18 -0.18)">
     <use xlink:href="#DejaVuSans-34"/>
    </g>
   </g>
   <g id="text_22">
    <!-- 5 -->
    <g style="fill: #ba3fdf" transform="translate(418.264372 158.17408) scale(0.18 -0.18)">
     <use xlink:href="#DejaVuSans-35"/>
    </g>
   </g>
   <g id="text_23">
    <!-- 6.0 -->
    <g style="fill: #42d4f4" transform="translate(253.486558 241.682927) scale(0.18 -0.18)">
     <use xlink:href="#DejaVuSans-36"/>
     <use xlink:href="#DejaVuSans-2e" x="63.623047"/>
     <use xlink:href="#DejaVuSans-30" x="95.410156"/>
    </g>
   </g>
   <g id="text_24">
    <!-- 8 -->
    <g style="fill: #fabed4" transform="translate(153.075512 437.957849) scale(0.18 -0.18)">
     <use xlink:href="#DejaVuSans-38"/>
    </g>
   </g>
   <g id="text_25">
    <!-- 9 -->
    <g style="fill: #469990" transform="translate(339.942193 198.19821) scale(0.18 -0.18)">
     <defs>
      <path id="DejaVuSans-39" d="M 703 97 
L 703 672 
Q 941 559 1184 500 
Q 1428 441 1663 441 
Q 2288 441 2617 861 
Q 2947 1281 2994 2138 
Q 2813 1869 2534 1725 
Q 2256 1581 1919 1581 
Q 1219 1581 811 2004 
Q 403 2428 403 3163 
Q 403 3881 828 4315 
Q 1253 4750 1959 4750 
Q 2769 4750 3195 4129 
Q 3622 3509 3622 2328 
Q 3622 1225 3098 567 
Q 2575 -91 1691 -91 
Q 1453 -91 1209 -44 
Q 966 3 703 97 
z
M 1959 2075 
Q 2384 2075 2632 2365 
Q 2881 2656 2881 3163 
Q 2881 3666 2632 3958 
Q 2384 4250 1959 4250 
Q 1534 4250 1286 3958 
Q 1038 3666 1038 3163 
Q 1038 2656 1286 2365 
Q 1534 2075 1959 2075 
z
" transform="scale(0.015625)"/>
     </defs>
     <use xlink:href="#DejaVuSans-39"/>
    </g>
   </g>
   <g id="text_26">
    <!-- 10.0 -->
    <g style="fill: #dcbeff" transform="translate(406.522444 158.407496) scale(0.18 -0.18)">
     <use xlink:href="#DejaVuSans-31"/>
     <use xlink:href="#DejaVuSans-30" x="63.623047"/>
     <use xlink:href="#DejaVuSans-2e" x="127.246094"/>
     <use xlink:href="#DejaVuSans-30" x="159.033203"/>
    </g>
   </g>
   <g id="text_27">
    <!-- 11 -->
    <g style="fill: #9a6324" transform="translate(400.98998 145.807338) scale(0.18 -0.18)">
     <use xlink:href="#DejaVuSans-31"/>
     <use xlink:href="#DejaVuSans-31" x="63.623047"/>
    </g>
   </g>
   <g id="text_28">
    <!-- 12 -->
    <g style="fill: #b3a400" transform="translate(560.372727 89.28) scale(0.18 -0.18)">
     <use xlink:href="#DejaVuSans-31"/>
     <use xlink:href="#DejaVuSans-32" x="63.623047"/>
    </g>
   </g>
   <g id="text_29">
    <!-- 13 -->
    <g style="fill: #800000" transform="translate(323.567732 233.601057) scale(0.18 -0.18)">
     <use xlink:href="#DejaVuSans-31"/>
     <use xlink:href="#DejaVuSans-33" x="63.623047"/>
    </g>
   </g>
   <g id="text_30">
    <!-- 14 -->
    <g style="fill: #82baff" transform="translate(103.827273 492.48) scale(0.18 -0.18)">
     <use xlink:href="#DejaVuSans-31"/>
     <use xlink:href="#DejaVuSans-34" x="63.623047"/>
    </g>
   </g>
   <g id="text_31">
    <!-- 7.1 -->
    <g style="fill: #999999" transform="translate(520.453662 129.565047) scale(0.18 -0.18)">
     <defs>
      <path id="DejaVuSans-37" d="M 525 4666 
L 3525 4666 
L 3525 4397 
L 1831 0 
L 1172 0 
L 2766 4134 
L 525 4134 
L 525 4666 
z
" transform="scale(0.015625)"/>
     </defs>
     <use xlink:href="#DejaVuSans-37"/>
     <use xlink:href="#DejaVuSans-2e" x="63.623047"/>
     <use xlink:href="#DejaVuSans-31" x="95.410156"/>
    </g>
   </g>
   <g id="text_32">
    <!-- 6.1 -->
    <g style="fill: #e69f00" transform="translate(535.15776 91.326883) scale(0.18 -0.18)">
     <use xlink:href="#DejaVuSans-36"/>
     <use xlink:href="#DejaVuSans-2e" x="63.623047"/>
     <use xlink:href="#DejaVuSans-31" x="95.410156"/>
    </g>
   </g>
   <g id="text_33">
    <!-- 0.5 -->
    <g style="fill: #009e73" transform="translate(327.209706 189.78873) scale(0.18 -0.18)">
     <use xlink:href="#DejaVuSans-30"/>
     <use xlink:href="#DejaVuSans-2e" x="63.623047"/>
     <use xlink:href="#DejaVuSans-35" x="95.410156"/>
    </g>
   </g>
   <g id="text_34">
    <!-- 0.4 -->
    <g style="fill: #0072b2" transform="translate(314.685796 151.221098) scale(0.18 -0.18)">
     <use xlink:href="#DejaVuSans-30"/>
     <use xlink:href="#DejaVuSans-2e" x="63.623047"/>
     <use xlink:href="#DejaVuSans-34" x="95.410156"/>
    </g>
   </g>
   <g id="text_35">
    <!-- 3.1 -->
    <g style="fill: #d55e00" transform="translate(407.329303 171.060532) scale(0.18 -0.18)">
     <use xlink:href="#DejaVuSans-33"/>
     <use xlink:href="#DejaVuSans-2e" x="63.623047"/>
     <use xlink:href="#DejaVuSans-31" x="95.410156"/>
    </g>
   </g>
   <g id="text_36">
    <!-- 1.1 -->
    <g style="fill: #e6194b" transform="translate(356.801367 193.338714) scale(0.18 -0.18)">
     <use xlink:href="#DejaVuSans-31"/>
     <use xlink:href="#DejaVuSans-2e" x="63.623047"/>
     <use xlink:href="#DejaVuSans-31" x="95.410156"/>
    </g>
   </g>
   <g id="text_37">
    <!-- OMP OMP -->
    <g transform="translate(303.1575 63.12) scale(0.12 -0.12)">
     <use xlink:href="#DejaVuSans-4f"/>
     <use xlink:href="#DejaVuSans-4d" x="78.710938"/>
     <use xlink:href="#DejaVuSans-50" x="164.990234"/>
     <use xlink:href="#DejaVuSans-20" x="225.292969"/>
     <use xlink:href="#DejaVuSans-4f" x="257.080078"/>
     <use xlink:href="#DejaVuSans-4d" x="335.791016"/>
     <use xlink:href="#DejaVuSans-50" x="422.070312"/>
    </g>
   </g>
  </g>
 </g>
 <defs>
  <clipPath id="p8168cb9ad2">
   <rect x="81" y="69.12" width="502.2" height="443.52"/>
  </clipPath>
 </defs>
</svg>
