<?xml version="1.0" encoding="utf-8" standalone="no"?>
<!DOCTYPE svg PUBLIC "-//W3C//DTD SVG 1.1//EN"
  "http://www.w3.org/Graphics/SVG/1.1/DTD/svg11.dtd">
<svg xmlns:xlink="http://www.w3.org/1999/xlink" width="288pt" height="576pt" viewBox="0 0 288 576" xmlns="http://www.w3.org/2000/svg" version="1.1">
 <metadata>
  <rdf:RDF xmlns:dc="http://purl.org/dc/elements/1.1/" xmlns:cc="http://creativecommons.org/ns#" xmlns:rdf="http://www.w3.org/1999/02/22-rdf-syntax-ns#">
   <cc:Work>
    <dc:type rdf:resource="http://purl.org/dc/dcmitype/StillImage"/>
    <dc:date>2023-03-07T11:55:03.994814</dc:date>
    <dc:format>image/svg+xml</dc:format>
    <dc:creator>
     <cc:Agent>
      <dc:title>Matplotlib v3.7.1, https://matplotlib.org/</dc:title>
     </cc:Agent>
    </dc:creator>
   </cc:Work>
  </rdf:RDF>
 </metadata>
 <defs>
  <style type="text/css">*{stroke-linejoin: round; stroke-linecap: butt}</style>
 </defs>
 <g id="figure_1">
  <g id="patch_1">
   <path d="M 0 576 
L 288 576 
L 288 0 
L 0 0 
z
" style="fill: #ffffff"/>
  </g>
  <g id="axes_1">
   <g id="patch_2">
    <path d="M 36 512.64 
L 259.2 512.64 
L 259.2 69.12 
L 36 69.12 
z
" style="fill: #ffffff"/>
   </g>
   <g id="PathCollection_1">
    <path d="M 142.586029 407.277868 
C 145.695811 407.277868 148.678643 406.042338 150.877591 403.84339 
C 153.076539 401.644442 154.312069 398.66161 154.312069 395.551828 
C 154.312069 392.442046 153.076539 389.459214 150.877591 387.260266 
C 148.678643 385.061318 145.695811 383.825789 142.586029 383.825789 
C 139.476247 383.825789 136.493415 385.061318 134.294467 387.260266 
C 132.09552 389.459214 130.85999 392.442046 130.85999 395.551828 
C 130.85999 398.66161 132.09552 401.644442 134.294467 403.84339 
C 136.493415 406.042338 139.476247 407.277868 142.586029 407.277868 
z
" clip-path="url(#p443516f6c4)" style="fill: #e6194b; stroke: #e6194b"/>
    <path d="M 146.858866 407.106306 
C 149.823926 407.106306 152.667945 405.928275 154.76456 403.83166 
C 156.861174 401.735045 158.039205 398.891027 158.039205 395.925966 
C 158.039205 392.960905 156.861174 390.116886 154.76456 388.020272 
C 152.667945 385.923657 149.823926 384.745626 146.858866 384.745626 
C 143.893805 384.745626 141.049786 385.923657 138.953171 388.020272 
C 136.856557 390.116886 135.678526 392.960905 135.678526 395.925966 
C 135.678526 398.891027 136.856557 401.735045 138.953171 403.83166 
C 141.049786 405.928275 143.893805 407.106306 146.858866 407.106306 
z
" clip-path="url(#p443516f6c4)" style="fill: #3cb44b; stroke: #3cb44b"/>
    <path d="M 139.873389 448.145814 
C 141.199405 448.145814 142.471289 447.618982 143.408923 446.681348 
C 144.346558 445.743713 144.873389 444.471829 144.873389 443.145814 
C 144.873389 441.819798 144.346558 440.547914 143.408923 439.61028 
C 142.471289 438.672645 141.199405 438.145814 139.873389 438.145814 
C 138.547374 438.145814 137.27549 438.672645 136.337856 439.61028 
C 135.400221 440.547914 134.873389 441.819798 134.873389 443.145814 
C 134.873389 444.471829 135.400221 445.743713 136.337856 446.681348 
C 137.27549 447.618982 138.547374 448.145814 139.873389 448.145814 
z
" clip-path="url(#p443516f6c4)" style="fill: #ffe119; stroke: #ffe119"/>
    <path d="M 154.202433 394.165024 
C 157.167494 394.165024 160.011513 392.986993 162.108127 390.890378 
C 164.204742 388.793763 165.382773 385.949745 165.382773 382.984684 
C 165.382773 380.019623 164.204742 377.175604 162.108127 375.07899 
C 160.011513 372.982375 157.167494 371.804344 154.202433 371.804344 
C 151.237372 371.804344 148.393353 372.982375 146.296739 375.07899 
C 144.200124 377.175604 143.022093 380.019623 143.022093 382.984684 
C 143.022093 385.949745 144.200124 388.793763 146.296739 390.890378 
C 148.393353 392.986993 151.237372 394.165024 154.202433 394.165024 
z
" clip-path="url(#p443516f6c4)" style="fill: #4363d8; stroke: #4363d8"/>
    <path d="M 154.390241 432.985679 
C 156.486855 432.985679 158.49788 432.152685 159.98041 430.670155 
C 161.462941 429.187625 162.295935 427.1766 162.295935 425.079985 
C 162.295935 422.983371 161.462941 420.972346 159.98041 419.489815 
C 158.49788 418.007285 156.486855 417.174291 154.390241 417.174291 
C 152.293626 417.174291 150.282601 418.007285 148.800071 419.489815 
C 147.31754 420.972346 146.484546 422.983371 146.484546 425.079985 
C 146.484546 427.1766 147.31754 429.187625 148.800071 430.670155 
C 150.282601 432.152685 152.293626 432.985679 154.390241 432.985679 
z
" clip-path="url(#p443516f6c4)" style="fill: #f58231; stroke: #f58231"/>
    <path d="M 136.50322 411.775925 
C 138.983968 411.775925 141.363445 410.790313 143.117599 409.036159 
C 144.871752 407.282006 145.857364 404.902529 145.857364 402.421781 
C 145.857364 399.941033 144.871752 397.561556 143.117599 395.807403 
C 141.363445 394.053249 138.983968 393.067638 136.50322 393.067638 
C 134.022472 393.067638 131.642996 394.053249 129.888842 395.807403 
C 128.134688 397.561556 127.149077 399.941033 127.149077 402.421781 
C 127.149077 404.902529 128.134688 407.282006 129.888842 409.036159 
C 131.642996 410.790313 134.022472 411.775925 136.50322 411.775925 
z
" clip-path="url(#p443516f6c4)" style="fill: #ba3fdf; stroke: #ba3fdf"/>
    <path d="M 133.657209 382.559509 
C 135.953935 382.559509 138.156903 381.64701 139.780933 380.02298 
C 141.404964 378.398949 142.317463 376.195981 142.317463 373.899255 
C 142.317463 371.602529 141.404964 369.399562 139.780933 367.775531 
C 138.156903 366.1515 135.953935 365.239001 133.657209 365.239001 
C 131.360483 365.239001 129.157515 366.1515 127.533485 367.775531 
C 125.909454 369.399562 124.996955 371.602529 124.996955 373.899255 
C 124.996955 376.195981 125.909454 378.398949 127.533485 380.02298 
C 129.157515 381.64701 131.360483 382.559509 133.657209 382.559509 
z
" clip-path="url(#p443516f6c4)" style="fill: #42d4f4; stroke: #42d4f4"/>
    <path d="M 151.132278 414.558138 
C 155.110325 414.558138 158.925976 412.977644 161.73888 410.16474 
C 164.551784 407.351836 166.132278 403.536185 166.132278 399.558138 
C 166.132278 395.580092 164.551784 391.76444 161.73888 388.951537 
C 158.925976 386.138633 155.110325 384.558138 151.132278 384.558138 
C 147.154232 384.558138 143.33858 386.138633 140.525677 388.951537 
C 137.712773 391.76444 136.132278 395.580092 136.132278 399.558138 
C 136.132278 403.536185 137.712773 407.351836 140.525677 410.16474 
C 143.33858 412.977644 147.154232 414.558138 151.132278 414.558138 
z
" clip-path="url(#p443516f6c4)" style="fill: #bfef45; stroke: #bfef45"/>
    <path d="M 167.822202 518.529456 
C 170.30295 518.529456 172.682427 517.543845 174.43658 515.789691 
C 176.190734 514.035538 177.176346 511.656061 177.176346 509.175313 
C 177.176346 506.694565 176.190734 504.315088 174.43658 502.560935 
C 172.682427 500.806781 170.30295 499.82117 167.822202 499.82117 
C 165.341454 499.82117 162.961977 500.806781 161.207824 502.560935 
C 159.45367 504.315088 158.468059 506.694565 158.468059 509.175313 
C 158.468059 511.656061 159.45367 514.035538 161.207824 515.789691 
C 162.961977 517.543845 165.341454 518.529456 167.822202 518.529456 
z
" clip-path="url(#p443516f6c4)" style="fill: #fabed4; stroke: #fabed4"/>
    <path d="M 151.000848 445.519019 
C 154.381537 445.519019 157.624218 444.175857 160.014726 441.785349 
C 162.405235 439.39484 163.748397 436.15216 163.748397 432.771471 
C 163.748397 429.390781 162.405235 426.148101 160.014726 423.757592 
C 157.624218 421.367084 154.381537 420.023922 151.000848 420.023922 
C 147.620159 420.023922 144.377478 421.367084 141.98697 423.757592 
C 139.596461 426.148101 138.253299 429.390781 138.253299 432.771471 
C 138.253299 436.15216 139.596461 439.39484 141.98697 441.785349 
C 144.377478 444.175857 147.620159 445.519019 151.000848 445.519019 
z
" clip-path="url(#p443516f6c4)" style="fill: #469990; stroke: #469990"/>
    <path d="M 145.635331 514.133818 
C 149.016021 514.133818 152.258701 512.790656 154.649209 510.400147 
C 157.039718 508.009639 158.38288 504.766959 158.38288 501.386269 
C 158.38288 498.00558 157.039718 494.762899 154.649209 492.372391 
C 152.258701 489.981883 149.016021 488.63872 145.635331 488.63872 
C 142.254642 488.63872 139.011961 489.981883 136.621453 492.372391 
C 134.230944 494.762899 132.887782 498.00558 132.887782 501.386269 
C 132.887782 504.766959 134.230944 508.009639 136.621453 510.400147 
C 139.011961 512.790656 142.254642 514.133818 145.635331 514.133818 
z
" clip-path="url(#p443516f6c4)" style="fill: #dcbeff; stroke: #dcbeff"/>
    <path d="M 145.769049 418.357975 
C 148.065776 418.357975 150.268743 417.445476 151.892774 415.821445 
C 153.516805 414.197415 154.429304 411.994447 154.429304 409.697721 
C 154.429304 407.400995 153.516805 405.198027 151.892774 403.573997 
C 150.268743 401.949966 148.065776 401.037467 145.769049 401.037467 
C 143.472323 401.037467 141.269356 401.949966 139.645325 403.573997 
C 138.021294 405.198027 137.108795 407.400995 137.108795 409.697721 
C 137.108795 411.994447 138.021294 414.197415 139.645325 415.821445 
C 141.269356 417.445476 143.472323 418.357975 145.769049 418.357975 
z
" clip-path="url(#p443516f6c4)" style="fill: #9a6324; stroke: #9a6324"/>
    <path d="M 145.616863 381.574547 
C 147.713478 381.574547 149.724503 380.741553 151.207033 379.259023 
C 152.689564 377.776492 153.522558 375.765467 153.522558 373.668853 
C 153.522558 371.572238 152.689564 369.561213 151.207033 368.078683 
C 149.724503 366.596152 147.713478 365.763159 145.616863 365.763159 
C 143.520249 365.763159 141.509224 366.596152 140.026693 368.078683 
C 138.544163 369.561213 137.711169 371.572238 137.711169 373.668853 
C 137.711169 375.765467 138.544163 377.776492 140.026693 379.259023 
C 141.509224 380.741553 143.520249 381.574547 145.616863 381.574547 
z
" clip-path="url(#p443516f6c4)" style="fill: #b3a400; stroke: #b3a400"/>
    <path d="M 146.64671 441.566269 
C 148.943436 441.566269 151.146404 440.65377 152.770434 439.029739 
C 154.394465 437.405709 155.306964 435.202741 155.306964 432.906015 
C 155.306964 430.609289 154.394465 428.406321 152.770434 426.782291 
C 151.146404 425.15826 148.943436 424.245761 146.64671 424.245761 
C 144.349984 424.245761 142.147016 425.15826 140.522986 426.782291 
C 138.898955 428.406321 137.986456 430.609289 137.986456 432.906015 
C 137.986456 435.202741 138.898955 437.405709 140.522986 439.029739 
C 142.147016 440.65377 144.349984 441.566269 146.64671 441.566269 
z
" clip-path="url(#p443516f6c4)" style="fill: #800000; stroke: #800000"/>
    <path d="M 148.566494 574.570924 
C 150.190524 574.570924 151.748258 573.925689 152.896621 572.777326 
C 154.044984 571.628963 154.690218 570.07123 154.690218 568.447199 
C 154.690218 566.823169 154.044984 565.265435 152.896621 564.117072 
C 151.748258 562.968709 150.190524 562.323475 148.566494 562.323475 
C 146.942463 562.323475 145.38473 562.968709 144.236367 564.117072 
C 143.088004 565.265435 142.442769 566.823169 142.442769 568.447199 
C 142.442769 570.07123 143.088004 571.628963 144.236367 572.777326 
C 145.38473 573.925689 146.942463 574.570924 148.566494 574.570924 
z
" clip-path="url(#p443516f6c4)" style="fill: #82baff; stroke: #82baff"/>
   </g>
   <g id="matplotlib.axis_1">
    <g id="xtick_1">
     <g id="line2d_1">
      <defs>
       <path id="m22a01d9128" d="M 0 0 
L 0 3.5 
" style="stroke: #000000; stroke-width: 0.8"/>
      </defs>
      <g>
       <use xlink:href="#m22a01d9128" x="147.6" y="512.64" style="stroke: #000000; stroke-width: 0.8"/>
      </g>
     </g>
     <g id="text_1">
      <!-- MeanPD -->
      <g transform="translate(127.111719 527.238438) scale(0.1 -0.1)">
       <defs>
        <path id="DejaVuSans-4d" d="M 628 4666 
L 1569 4666 
L 2759 1491 
L 3956 4666 
L 4897 4666 
L 4897 0 
L 4281 0 
L 4281 4097 
L 3078 897 
L 2444 897 
L 1241 4097 
L 1241 0 
L 628 0 
L 628 4666 
z
" transform="scale(0.015625)"/>
        <path id="DejaVuSans-65" d="M 3597 1894 
L 3597 1613 
L 953 1613 
Q 991 1019 1311 708 
Q 1631 397 2203 397 
Q 2534 397 2845 478 
Q 3156 559 3463 722 
L 3463 178 
Q 3153 47 2828 -22 
Q 2503 -91 2169 -91 
Q 1331 -91 842 396 
Q 353 884 353 1716 
Q 353 2575 817 3079 
Q 1281 3584 2069 3584 
Q 2775 3584 3186 3129 
Q 3597 2675 3597 1894 
z
M 3022 2063 
Q 3016 2534 2758 2815 
Q 2500 3097 2075 3097 
Q 1594 3097 1305 2825 
Q 1016 2553 972 2059 
L 3022 2063 
z
" transform="scale(0.015625)"/>
        <path id="DejaVuSans-61" d="M 2194 1759 
Q 1497 1759 1228 1600 
Q 959 1441 959 1056 
Q 959 750 1161 570 
Q 1363 391 1709 391 
Q 2188 391 2477 730 
Q 2766 1069 2766 1631 
L 2766 1759 
L 2194 1759 
z
M 3341 1997 
L 3341 0 
L 2766 0 
L 2766 531 
Q 2569 213 2275 61 
Q 1981 -91 1556 -91 
Q 1019 -91 701 211 
Q 384 513 384 1019 
Q 384 1609 779 1909 
Q 1175 2209 1959 2209 
L 2766 2209 
L 2766 2266 
Q 2766 2663 2505 2880 
Q 2244 3097 1772 3097 
Q 1472 3097 1187 3025 
Q 903 2953 641 2809 
L 641 3341 
Q 956 3463 1253 3523 
Q 1550 3584 1831 3584 
Q 2591 3584 2966 3190 
Q 3341 2797 3341 1997 
z
" transform="scale(0.015625)"/>
        <path id="DejaVuSans-6e" d="M 3513 2113 
L 3513 0 
L 2938 0 
L 2938 2094 
Q 2938 2591 2744 2837 
Q 2550 3084 2163 3084 
Q 1697 3084 1428 2787 
Q 1159 2491 1159 1978 
L 1159 0 
L 581 0 
L 581 3500 
L 1159 3500 
L 1159 2956 
Q 1366 3272 1645 3428 
Q 1925 3584 2291 3584 
Q 2894 3584 3203 3211 
Q 3513 2838 3513 2113 
z
" transform="scale(0.015625)"/>
        <path id="DejaVuSans-50" d="M 1259 4147 
L 1259 2394 
L 2053 2394 
Q 2494 2394 2734 2622 
Q 2975 2850 2975 3272 
Q 2975 3691 2734 3919 
Q 2494 4147 2053 4147 
L 1259 4147 
z
M 628 4666 
L 2053 4666 
Q 2838 4666 3239 4311 
Q 3641 3956 3641 3272 
Q 3641 2581 3239 2228 
Q 2838 1875 2053 1875 
L 1259 1875 
L 1259 0 
L 628 0 
L 628 4666 
z
" transform="scale(0.015625)"/>
        <path id="DejaVuSans-44" d="M 1259 4147 
L 1259 519 
L 2022 519 
Q 2988 519 3436 956 
Q 3884 1394 3884 2338 
Q 3884 3275 3436 3711 
Q 2988 4147 2022 4147 
L 1259 4147 
z
M 628 4666 
L 1925 4666 
Q 3281 4666 3915 4102 
Q 4550 3538 4550 2338 
Q 4550 1131 3912 565 
Q 3275 0 1925 0 
L 628 0 
L 628 4666 
z
" transform="scale(0.015625)"/>
       </defs>
       <use xlink:href="#DejaVuSans-4d"/>
       <use xlink:href="#DejaVuSans-65" x="86.279297"/>
       <use xlink:href="#DejaVuSans-61" x="147.802734"/>
       <use xlink:href="#DejaVuSans-6e" x="209.082031"/>
       <use xlink:href="#DejaVuSans-50" x="272.460938"/>
       <use xlink:href="#DejaVuSans-44" x="332.763672"/>
      </g>
     </g>
    </g>
   </g>
   <g id="matplotlib.axis_2">
    <g id="ytick_1">
     <g id="line2d_2">
      <defs>
       <path id="m8961058b38" d="M 0 0 
L -3.5 0 
" style="stroke: #000000; stroke-width: 0.8"/>
      </defs>
      <g>
       <use xlink:href="#m8961058b38" x="36" y="503.203404" style="stroke: #000000; stroke-width: 0.8"/>
      </g>
     </g>
     <g id="text_2">
      <!-- −1.5 -->
      <g transform="translate(4.717187 507.002623) scale(0.1 -0.1)">
       <defs>
        <path id="DejaVuSans-2212" d="M 678 2272 
L 4684 2272 
L 4684 1741 
L 678 1741 
L 678 2272 
z
" transform="scale(0.015625)"/>
        <path id="DejaVuSans-31" d="M 794 531 
L 1825 531 
L 1825 4091 
L 703 3866 
L 703 4441 
L 1819 4666 
L 2450 4666 
L 2450 531 
L 3481 531 
L 3481 0 
L 794 0 
L 794 531 
z
" transform="scale(0.015625)"/>
        <path id="DejaVuSans-2e" d="M 684 794 
L 1344 794 
L 1344 0 
L 684 0 
L 684 794 
z
" transform="scale(0.015625)"/>
        <path id="DejaVuSans-35" d="M 691 4666 
L 3169 4666 
L 3169 4134 
L 1269 4134 
L 1269 2991 
Q 1406 3038 1543 3061 
Q 1681 3084 1819 3084 
Q 2600 3084 3056 2656 
Q 3513 2228 3513 1497 
Q 3513 744 3044 326 
Q 2575 -91 1722 -91 
Q 1428 -91 1123 -41 
Q 819 9 494 109 
L 494 744 
Q 775 591 1075 516 
Q 1375 441 1709 441 
Q 2250 441 2565 725 
Q 2881 1009 2881 1497 
Q 2881 1984 2565 2268 
Q 2250 2553 1709 2553 
Q 1456 2553 1204 2497 
Q 953 2441 691 2322 
L 691 4666 
z
" transform="scale(0.015625)"/>
       </defs>
       <use xlink:href="#DejaVuSans-2212"/>
       <use xlink:href="#DejaVuSans-31" x="83.789062"/>
       <use xlink:href="#DejaVuSans-2e" x="147.412109"/>
       <use xlink:href="#DejaVuSans-35" x="179.199219"/>
      </g>
     </g>
    </g>
    <g id="ytick_2">
     <g id="line2d_3">
      <g>
       <use xlink:href="#m8961058b38" x="36" y="456.020426" style="stroke: #000000; stroke-width: 0.8"/>
      </g>
     </g>
     <g id="text_3">
      <!-- −1.0 -->
      <g transform="translate(4.717187 459.819644) scale(0.1 -0.1)">
       <defs>
        <path id="DejaVuSans-30" d="M 2034 4250 
Q 1547 4250 1301 3770 
Q 1056 3291 1056 2328 
Q 1056 1369 1301 889 
Q 1547 409 2034 409 
Q 2525 409 2770 889 
Q 3016 1369 3016 2328 
Q 3016 3291 2770 3770 
Q 2525 4250 2034 4250 
z
M 2034 4750 
Q 2819 4750 3233 4129 
Q 3647 3509 3647 2328 
Q 3647 1150 3233 529 
Q 2819 -91 2034 -91 
Q 1250 -91 836 529 
Q 422 1150 422 2328 
Q 422 3509 836 4129 
Q 1250 4750 2034 4750 
z
" transform="scale(0.015625)"/>
       </defs>
       <use xlink:href="#DejaVuSans-2212"/>
       <use xlink:href="#DejaVuSans-31" x="83.789062"/>
       <use xlink:href="#DejaVuSans-2e" x="147.412109"/>
       <use xlink:href="#DejaVuSans-30" x="179.199219"/>
      </g>
     </g>
    </g>
    <g id="ytick_3">
     <g id="line2d_4">
      <g>
       <use xlink:href="#m8961058b38" x="36" y="408.837447" style="stroke: #000000; stroke-width: 0.8"/>
      </g>
     </g>
     <g id="text_4">
      <!-- −0.5 -->
      <g transform="translate(4.717187 412.636666) scale(0.1 -0.1)">
       <use xlink:href="#DejaVuSans-2212"/>
       <use xlink:href="#DejaVuSans-30" x="83.789062"/>
       <use xlink:href="#DejaVuSans-2e" x="147.412109"/>
       <use xlink:href="#DejaVuSans-35" x="179.199219"/>
      </g>
     </g>
    </g>
    <g id="ytick_4">
     <g id="line2d_5">
      <g>
       <use xlink:href="#m8961058b38" x="36" y="361.654468" style="stroke: #000000; stroke-width: 0.8"/>
      </g>
     </g>
     <g id="text_5">
      <!-- 0.0 -->
      <g transform="translate(13.096875 365.453687) scale(0.1 -0.1)">
       <use xlink:href="#DejaVuSans-30"/>
       <use xlink:href="#DejaVuSans-2e" x="63.623047"/>
       <use xlink:href="#DejaVuSans-30" x="95.410156"/>
      </g>
     </g>
    </g>
    <g id="ytick_5">
     <g id="line2d_6">
      <g>
       <use xlink:href="#m8961058b38" x="36" y="314.471489" style="stroke: #000000; stroke-width: 0.8"/>
      </g>
     </g>
     <g id="text_6">
      <!-- 0.5 -->
      <g transform="translate(13.096875 318.270708) scale(0.1 -0.1)">
       <use xlink:href="#DejaVuSans-30"/>
       <use xlink:href="#DejaVuSans-2e" x="63.623047"/>
       <use xlink:href="#DejaVuSans-35" x="95.410156"/>
      </g>
     </g>
    </g>
    <g id="ytick_6">
     <g id="line2d_7">
      <g>
       <use xlink:href="#m8961058b38" x="36" y="267.288511" style="stroke: #000000; stroke-width: 0.8"/>
      </g>
     </g>
     <g id="text_7">
      <!-- 1.0 -->
      <g transform="translate(13.096875 271.087729) scale(0.1 -0.1)">
       <use xlink:href="#DejaVuSans-31"/>
       <use xlink:href="#DejaVuSans-2e" x="63.623047"/>
       <use xlink:href="#DejaVuSans-30" x="95.410156"/>
      </g>
     </g>
    </g>
    <g id="ytick_7">
     <g id="line2d_8">
      <g>
       <use xlink:href="#m8961058b38" x="36" y="220.105532" style="stroke: #000000; stroke-width: 0.8"/>
      </g>
     </g>
     <g id="text_8">
      <!-- 1.5 -->
      <g transform="translate(13.096875 223.904751) scale(0.1 -0.1)">
       <use xlink:href="#DejaVuSans-31"/>
       <use xlink:href="#DejaVuSans-2e" x="63.623047"/>
       <use xlink:href="#DejaVuSans-35" x="95.410156"/>
      </g>
     </g>
    </g>
    <g id="ytick_8">
     <g id="line2d_9">
      <g>
       <use xlink:href="#m8961058b38" x="36" y="172.922553" style="stroke: #000000; stroke-width: 0.8"/>
      </g>
     </g>
     <g id="text_9">
      <!-- 2.0 -->
      <g transform="translate(13.096875 176.721772) scale(0.1 -0.1)">
       <defs>
        <path id="DejaVuSans-32" d="M 1228 531 
L 3431 531 
L 3431 0 
L 469 0 
L 469 531 
Q 828 903 1448 1529 
Q 2069 2156 2228 2338 
Q 2531 2678 2651 2914 
Q 2772 3150 2772 3378 
Q 2772 3750 2511 3984 
Q 2250 4219 1831 4219 
Q 1534 4219 1204 4116 
Q 875 4013 500 3803 
L 500 4441 
Q 881 4594 1212 4672 
Q 1544 4750 1819 4750 
Q 2544 4750 2975 4387 
Q 3406 4025 3406 3419 
Q 3406 3131 3298 2873 
Q 3191 2616 2906 2266 
Q 2828 2175 2409 1742 
Q 1991 1309 1228 531 
z
" transform="scale(0.015625)"/>
       </defs>
       <use xlink:href="#DejaVuSans-32"/>
       <use xlink:href="#DejaVuSans-2e" x="63.623047"/>
       <use xlink:href="#DejaVuSans-30" x="95.410156"/>
      </g>
     </g>
    </g>
    <g id="ytick_9">
     <g id="line2d_10">
      <g>
       <use xlink:href="#m8961058b38" x="36" y="125.739574" style="stroke: #000000; stroke-width: 0.8"/>
      </g>
     </g>
     <g id="text_10">
      <!-- 2.5 -->
      <g transform="translate(13.096875 129.538793) scale(0.1 -0.1)">
       <use xlink:href="#DejaVuSans-32"/>
       <use xlink:href="#DejaVuSans-2e" x="63.623047"/>
       <use xlink:href="#DejaVuSans-35" x="95.410156"/>
      </g>
     </g>
    </g>
    <g id="ytick_10">
     <g id="line2d_11">
      <g>
       <use xlink:href="#m8961058b38" x="36" y="78.556596" style="stroke: #000000; stroke-width: 0.8"/>
      </g>
     </g>
     <g id="text_11">
      <!-- 3.0 -->
      <g transform="translate(13.096875 82.355814) scale(0.1 -0.1)">
       <defs>
        <path id="DejaVuSans-33" d="M 2597 2516 
Q 3050 2419 3304 2112 
Q 3559 1806 3559 1356 
Q 3559 666 3084 287 
Q 2609 -91 1734 -91 
Q 1441 -91 1130 -33 
Q 819 25 488 141 
L 488 750 
Q 750 597 1062 519 
Q 1375 441 1716 441 
Q 2309 441 2620 675 
Q 2931 909 2931 1356 
Q 2931 1769 2642 2001 
Q 2353 2234 1838 2234 
L 1294 2234 
L 1294 2753 
L 1863 2753 
Q 2328 2753 2575 2939 
Q 2822 3125 2822 3475 
Q 2822 3834 2567 4026 
Q 2313 4219 1838 4219 
Q 1578 4219 1281 4162 
Q 984 4106 628 3988 
L 628 4550 
Q 988 4650 1302 4700 
Q 1616 4750 1894 4750 
Q 2613 4750 3031 4423 
Q 3450 4097 3450 3541 
Q 3450 3153 3228 2886 
Q 3006 2619 2597 2516 
z
" transform="scale(0.015625)"/>
       </defs>
       <use xlink:href="#DejaVuSans-33"/>
       <use xlink:href="#DejaVuSans-2e" x="63.623047"/>
       <use xlink:href="#DejaVuSans-30" x="95.410156"/>
      </g>
     </g>
    </g>
    <g id="text_12">
     <!-- LogOdds -->
     <g transform="translate(-1.3625 312.701094) rotate(-90) scale(0.1 -0.1)">
      <defs>
       <path id="DejaVuSans-4c" d="M 628 4666 
L 1259 4666 
L 1259 531 
L 3531 531 
L 3531 0 
L 628 0 
L 628 4666 
z
" transform="scale(0.015625)"/>
       <path id="DejaVuSans-6f" d="M 1959 3097 
Q 1497 3097 1228 2736 
Q 959 2375 959 1747 
Q 959 1119 1226 758 
Q 1494 397 1959 397 
Q 2419 397 2687 759 
Q 2956 1122 2956 1747 
Q 2956 2369 2687 2733 
Q 2419 3097 1959 3097 
z
M 1959 3584 
Q 2709 3584 3137 3096 
Q 3566 2609 3566 1747 
Q 3566 888 3137 398 
Q 2709 -91 1959 -91 
Q 1206 -91 779 398 
Q 353 888 353 1747 
Q 353 2609 779 3096 
Q 1206 3584 1959 3584 
z
" transform="scale(0.015625)"/>
       <path id="DejaVuSans-67" d="M 2906 1791 
Q 2906 2416 2648 2759 
Q 2391 3103 1925 3103 
Q 1463 3103 1205 2759 
Q 947 2416 947 1791 
Q 947 1169 1205 825 
Q 1463 481 1925 481 
Q 2391 481 2648 825 
Q 2906 1169 2906 1791 
z
M 3481 434 
Q 3481 -459 3084 -895 
Q 2688 -1331 1869 -1331 
Q 1566 -1331 1297 -1286 
Q 1028 -1241 775 -1147 
L 775 -588 
Q 1028 -725 1275 -790 
Q 1522 -856 1778 -856 
Q 2344 -856 2625 -561 
Q 2906 -266 2906 331 
L 2906 616 
Q 2728 306 2450 153 
Q 2172 0 1784 0 
Q 1141 0 747 490 
Q 353 981 353 1791 
Q 353 2603 747 3093 
Q 1141 3584 1784 3584 
Q 2172 3584 2450 3431 
Q 2728 3278 2906 2969 
L 2906 3500 
L 3481 3500 
L 3481 434 
z
" transform="scale(0.015625)"/>
       <path id="DejaVuSans-4f" d="M 2522 4238 
Q 1834 4238 1429 3725 
Q 1025 3213 1025 2328 
Q 1025 1447 1429 934 
Q 1834 422 2522 422 
Q 3209 422 3611 934 
Q 4013 1447 4013 2328 
Q 4013 3213 3611 3725 
Q 3209 4238 2522 4238 
z
M 2522 4750 
Q 3503 4750 4090 4092 
Q 4678 3434 4678 2328 
Q 4678 1225 4090 567 
Q 3503 -91 2522 -91 
Q 1538 -91 948 565 
Q 359 1222 359 2328 
Q 359 3434 948 4092 
Q 1538 4750 2522 4750 
z
" transform="scale(0.015625)"/>
       <path id="DejaVuSans-64" d="M 2906 2969 
L 2906 4863 
L 3481 4863 
L 3481 0 
L 2906 0 
L 2906 525 
Q 2725 213 2448 61 
Q 2172 -91 1784 -91 
Q 1150 -91 751 415 
Q 353 922 353 1747 
Q 353 2572 751 3078 
Q 1150 3584 1784 3584 
Q 2172 3584 2448 3432 
Q 2725 3281 2906 2969 
z
M 947 1747 
Q 947 1113 1208 752 
Q 1469 391 1925 391 
Q 2381 391 2643 752 
Q 2906 1113 2906 1747 
Q 2906 2381 2643 2742 
Q 2381 3103 1925 3103 
Q 1469 3103 1208 2742 
Q 947 2381 947 1747 
z
" transform="scale(0.015625)"/>
       <path id="DejaVuSans-73" d="M 2834 3397 
L 2834 2853 
Q 2591 2978 2328 3040 
Q 2066 3103 1784 3103 
Q 1356 3103 1142 2972 
Q 928 2841 928 2578 
Q 928 2378 1081 2264 
Q 1234 2150 1697 2047 
L 1894 2003 
Q 2506 1872 2764 1633 
Q 3022 1394 3022 966 
Q 3022 478 2636 193 
Q 2250 -91 1575 -91 
Q 1294 -91 989 -36 
Q 684 19 347 128 
L 347 722 
Q 666 556 975 473 
Q 1284 391 1588 391 
Q 1994 391 2212 530 
Q 2431 669 2431 922 
Q 2431 1156 2273 1281 
Q 2116 1406 1581 1522 
L 1381 1569 
Q 847 1681 609 1914 
Q 372 2147 372 2553 
Q 372 3047 722 3315 
Q 1072 3584 1716 3584 
Q 2034 3584 2315 3537 
Q 2597 3491 2834 3397 
z
" transform="scale(0.015625)"/>
      </defs>
      <use xlink:href="#DejaVuSans-4c"/>
      <use xlink:href="#DejaVuSans-6f" x="53.962891"/>
      <use xlink:href="#DejaVuSans-67" x="115.144531"/>
      <use xlink:href="#DejaVuSans-4f" x="178.621094"/>
      <use xlink:href="#DejaVuSans-64" x="257.332031"/>
      <use xlink:href="#DejaVuSans-64" x="320.808594"/>
      <use xlink:href="#DejaVuSans-73" x="384.285156"/>
     </g>
    </g>
   </g>
   <g id="line2d_12">
    <path d="M 130.86 438.025914 
L 164.34 438.025914 
L 164.34 395.738897 
L 130.86 395.738897 
L 130.86 438.025914 
" clip-path="url(#p443516f6c4)" style="fill: none; stroke: #000000; stroke-linecap: square"/>
   </g>
   <g id="line2d_13">
    <path d="M 147.6 438.025914 
L 147.6 501.386269 
" clip-path="url(#p443516f6c4)" style="fill: none; stroke: #000000; stroke-linecap: square"/>
   </g>
   <g id="line2d_14">
    <path d="M 147.6 395.738897 
L 147.6 373.668853 
" clip-path="url(#p443516f6c4)" style="fill: none; stroke: #000000; stroke-linecap: square"/>
   </g>
   <g id="line2d_15">
    <path d="M 139.23 501.386269 
L 155.97 501.386269 
" clip-path="url(#p443516f6c4)" style="fill: none; stroke: #000000; stroke-linecap: square"/>
   </g>
   <g id="line2d_16">
    <path d="M 139.23 373.668853 
L 155.97 373.668853 
" clip-path="url(#p443516f6c4)" style="fill: none; stroke: #000000; stroke-linecap: square"/>
   </g>
   <g id="line2d_17">
    <path d="M 130.86 409.697721 
L 164.34 409.697721 
" clip-path="url(#p443516f6c4)" style="fill: none; stroke: #ff7f0e; stroke-linecap: square"/>
   </g>
   <g id="patch_3">
    <path d="M 36 512.64 
L 36 69.12 
" style="fill: none; stroke: #000000; stroke-width: 0.8; stroke-linejoin: miter; stroke-linecap: square"/>
   </g>
   <g id="patch_4">
    <path d="M 259.2 512.64 
L 259.2 69.12 
" style="fill: none; stroke: #000000; stroke-width: 0.8; stroke-linejoin: miter; stroke-linecap: square"/>
   </g>
   <g id="patch_5">
    <path d="M 36 512.64 
L 259.2 512.64 
" style="fill: none; stroke: #000000; stroke-width: 0.8; stroke-linejoin: miter; stroke-linecap: square"/>
   </g>
   <g id="patch_6">
    <path d="M 36 69.12 
L 259.2 69.12 
" style="fill: none; stroke: #000000; stroke-width: 0.8; stroke-linejoin: miter; stroke-linecap: square"/>
   </g>
   <g id="text_13">
    <!-- 0 -->
    <g style="fill: #e6194b" transform="translate(144.818029 394.608169) scale(0.1 -0.1)">
     <use xlink:href="#DejaVuSans-30"/>
    </g>
   </g>
   <g id="text_14">
    <!-- 1 -->
    <g style="fill: #3cb44b" transform="translate(149.090866 394.982306) scale(0.1 -0.1)">
     <use xlink:href="#DejaVuSans-31"/>
    </g>
   </g>
   <g id="text_15">
    <!-- 2 -->
    <g style="fill: #ffe119" transform="translate(142.105389 442.202154) scale(0.1 -0.1)">
     <use xlink:href="#DejaVuSans-32"/>
    </g>
   </g>
   <g id="text_16">
    <!-- 3 -->
    <g style="fill: #4363d8" transform="translate(156.434433 382.041024) scale(0.1 -0.1)">
     <use xlink:href="#DejaVuSans-33"/>
    </g>
   </g>
   <g id="text_17">
    <!-- 4 -->
    <g style="fill: #f58231" transform="translate(156.622241 424.136326) scale(0.1 -0.1)">
     <defs>
      <path id="DejaVuSans-34" d="M 2419 4116 
L 825 1625 
L 2419 1625 
L 2419 4116 
z
M 2253 4666 
L 3047 4666 
L 3047 1625 
L 3713 1625 
L 3713 1100 
L 3047 1100 
L 3047 0 
L 2419 0 
L 2419 1100 
L 313 1100 
L 313 1709 
L 2253 4666 
z
" transform="scale(0.015625)"/>
     </defs>
     <use xlink:href="#DejaVuSans-34"/>
    </g>
   </g>
   <g id="text_18">
    <!-- 5 -->
    <g style="fill: #ba3fdf" transform="translate(138.73522 401.478122) scale(0.1 -0.1)">
     <use xlink:href="#DejaVuSans-35"/>
    </g>
   </g>
   <g id="text_19">
    <!-- 6 -->
    <g style="fill: #42d4f4" transform="translate(135.889209 372.955596) scale(0.1 -0.1)">
     <defs>
      <path id="DejaVuSans-36" d="M 2113 2584 
Q 1688 2584 1439 2293 
Q 1191 2003 1191 1497 
Q 1191 994 1439 701 
Q 1688 409 2113 409 
Q 2538 409 2786 701 
Q 3034 994 3034 1497 
Q 3034 2003 2786 2293 
Q 2538 2584 2113 2584 
z
M 3366 4563 
L 3366 3988 
Q 3128 4100 2886 4159 
Q 2644 4219 2406 4219 
Q 1781 4219 1451 3797 
Q 1122 3375 1075 2522 
Q 1259 2794 1537 2939 
Q 1816 3084 2150 3084 
Q 2853 3084 3261 2657 
Q 3669 2231 3669 1497 
Q 3669 778 3244 343 
Q 2819 -91 2113 -91 
Q 1303 -91 875 529 
Q 447 1150 447 2328 
Q 447 3434 972 4092 
Q 1497 4750 2381 4750 
Q 2619 4750 2861 4703 
Q 3103 4656 3366 4563 
z
" transform="scale(0.015625)"/>
     </defs>
     <use xlink:href="#DejaVuSans-36"/>
    </g>
   </g>
   <g id="text_20">
    <!-- 7 -->
    <g style="fill: #bfef45" transform="translate(153.364278 398.614479) scale(0.1 -0.1)">
     <defs>
      <path id="DejaVuSans-37" d="M 525 4666 
L 3525 4666 
L 3525 4397 
L 1831 0 
L 1172 0 
L 2766 4134 
L 525 4134 
L 525 4666 
z
" transform="scale(0.015625)"/>
     </defs>
     <use xlink:href="#DejaVuSans-37"/>
    </g>
   </g>
   <g id="text_21">
    <!-- 8 -->
    <g style="fill: #fabed4" transform="translate(170.054202 508.231653) scale(0.1 -0.1)">
     <defs>
      <path id="DejaVuSans-38" d="M 2034 2216 
Q 1584 2216 1326 1975 
Q 1069 1734 1069 1313 
Q 1069 891 1326 650 
Q 1584 409 2034 409 
Q 2484 409 2743 651 
Q 3003 894 3003 1313 
Q 3003 1734 2745 1975 
Q 2488 2216 2034 2216 
z
M 1403 2484 
Q 997 2584 770 2862 
Q 544 3141 544 3541 
Q 544 4100 942 4425 
Q 1341 4750 2034 4750 
Q 2731 4750 3128 4425 
Q 3525 4100 3525 3541 
Q 3525 3141 3298 2862 
Q 3072 2584 2669 2484 
Q 3125 2378 3379 2068 
Q 3634 1759 3634 1313 
Q 3634 634 3220 271 
Q 2806 -91 2034 -91 
Q 1263 -91 848 271 
Q 434 634 434 1313 
Q 434 1759 690 2068 
Q 947 2378 1403 2484 
z
M 1172 3481 
Q 1172 3119 1398 2916 
Q 1625 2713 2034 2713 
Q 2441 2713 2670 2916 
Q 2900 3119 2900 3481 
Q 2900 3844 2670 4047 
Q 2441 4250 2034 4250 
Q 1625 4250 1398 4047 
Q 1172 3844 1172 3481 
z
" transform="scale(0.015625)"/>
     </defs>
     <use xlink:href="#DejaVuSans-38"/>
    </g>
   </g>
   <g id="text_22">
    <!-- 9 -->
    <g style="fill: #469990" transform="translate(153.232848 431.827811) scale(0.1 -0.1)">
     <defs>
      <path id="DejaVuSans-39" d="M 703 97 
L 703 672 
Q 941 559 1184 500 
Q 1428 441 1663 441 
Q 2288 441 2617 861 
Q 2947 1281 2994 2138 
Q 2813 1869 2534 1725 
Q 2256 1581 1919 1581 
Q 1219 1581 811 2004 
Q 403 2428 403 3163 
Q 403 3881 828 4315 
Q 1253 4750 1959 4750 
Q 2769 4750 3195 4129 
Q 3622 3509 3622 2328 
Q 3622 1225 3098 567 
Q 2575 -91 1691 -91 
Q 1453 -91 1209 -44 
Q 966 3 703 97 
z
M 1959 2075 
Q 2384 2075 2632 2365 
Q 2881 2656 2881 3163 
Q 2881 3666 2632 3958 
Q 2384 4250 1959 4250 
Q 1534 4250 1286 3958 
Q 1038 3666 1038 3163 
Q 1038 2656 1286 2365 
Q 1534 2075 1959 2075 
z
" transform="scale(0.015625)"/>
     </defs>
     <use xlink:href="#DejaVuSans-39"/>
    </g>
   </g>
   <g id="text_23">
    <!-- 10 -->
    <g style="fill: #dcbeff" transform="translate(147.867331 500.44261) scale(0.1 -0.1)">
     <use xlink:href="#DejaVuSans-31"/>
     <use xlink:href="#DejaVuSans-30" x="63.623047"/>
    </g>
   </g>
   <g id="text_24">
    <!-- 11 -->
    <g style="fill: #9a6324" transform="translate(148.001049 408.754061) scale(0.1 -0.1)">
     <use xlink:href="#DejaVuSans-31"/>
     <use xlink:href="#DejaVuSans-31" x="63.623047"/>
    </g>
   </g>
   <g id="text_25">
    <!-- 12 -->
    <g style="fill: #b3a400" transform="translate(147.848863 372.725193) scale(0.1 -0.1)">
     <use xlink:href="#DejaVuSans-31"/>
     <use xlink:href="#DejaVuSans-32" x="63.623047"/>
    </g>
   </g>
   <g id="text_26">
    <!-- 13 -->
    <g style="fill: #800000" transform="translate(148.87871 431.962356) scale(0.1 -0.1)">
     <use xlink:href="#DejaVuSans-31"/>
     <use xlink:href="#DejaVuSans-33" x="63.623047"/>
    </g>
   </g>
   <g id="legend_1">
    <g id="patch_7">
     <path d="M 248.2 82.12 
L 252.2 82.12 
Q 254.2 82.12 254.2 80.12 
L 254.2 76.12 
Q 254.2 74.12 252.2 74.12 
L 248.2 74.12 
Q 246.2 74.12 246.2 76.12 
L 246.2 80.12 
Q 246.2 82.12 248.2 82.12 
z
" style="fill: #ffffff; opacity: 0.8; stroke: #cccccc; stroke-linejoin: miter"/>
    </g>
   </g>
  </g>
 </g>
 <defs>
  <clipPath id="p443516f6c4">
   <rect x="36" y="69.12" width="223.2" height="443.52"/>
  </clipPath>
 </defs>
</svg>
